<?xml version="1.0" encoding="UTF-8" standalone="no"?>
<!DOCTYPE svg PUBLIC "-//W3C//DTD SVG 1.1//EN"
 "http://www.w3.org/Graphics/SVG/1.1/DTD/svg11.dtd">
<!-- Generated by graphviz version 2.43.0 (0)
 -->
<!-- Title: /home/nico/joda_tmp/tmp&#45;joda&#45;dirs/JODA&#45;gh/libs/joda/core/modules/queryparsing/src/grammar/Literals.h Pages: 1 -->
<svg width="1181pt" height="561pt"
 viewBox="0.00 0.00 1181.10 561.00" xmlns="http://www.w3.org/2000/svg" xmlns:xlink="http://www.w3.org/1999/xlink">
<g id="graph0" class="graph" transform="scale(1 1) rotate(0) translate(4 557)">
<title>/home/nico/joda_tmp/tmp&#45;joda&#45;dirs/JODA&#45;gh/libs/joda/core/modules/queryparsing/src/grammar/Literals.h</title>
<polygon fill="white" stroke="transparent" points="-4,4 -4,-557 1177.1,-557 1177.1,4 -4,4"/>
<!-- Node1 -->
<g id="node1" class="node">
<title>Node1</title>
<g id="a_node1"><a xlink:title=" ">
<polygon fill="#bfbfbf" stroke="black" points="564.6,-489.5 564.6,-552.5 713.6,-552.5 713.6,-489.5 564.6,-489.5"/>
<text text-anchor="start" x="572.6" y="-540.5" font-family="Helvetica,sans-Serif" font-size="10.00">/home/nico/joda_tmp</text>
<text text-anchor="start" x="572.6" y="-529.5" font-family="Helvetica,sans-Serif" font-size="10.00">/tmp&#45;joda&#45;dirs/JODA</text>
<text text-anchor="start" x="572.6" y="-518.5" font-family="Helvetica,sans-Serif" font-size="10.00">&#45;gh/libs/joda/core/modules</text>
<text text-anchor="start" x="572.6" y="-507.5" font-family="Helvetica,sans-Serif" font-size="10.00">/queryparsing/src/grammar</text>
<text text-anchor="middle" x="639.1" y="-496.5" font-family="Helvetica,sans-Serif" font-size="10.00">/Literals.h</text>
</a>
</g>
</g>
<!-- Node2 -->
<g id="node2" class="node">
<title>Node2</title>
<g id="a_node2"><a xlink:href="../../d7/dd9/Agg_8h.html" target="_top" xlink:title=" ">
<polygon fill="white" stroke="black" points="227.6,-395 227.6,-447 406.6,-447 406.6,-395 227.6,-395"/>
<text text-anchor="start" x="235.6" y="-435" font-family="Helvetica,sans-Serif" font-size="10.00">/home/nico/joda_tmp</text>
<text text-anchor="start" x="235.6" y="-424" font-family="Helvetica,sans-Serif" font-size="10.00">/tmp&#45;joda&#45;dirs/JODA</text>
<text text-anchor="start" x="235.6" y="-413" font-family="Helvetica,sans-Serif" font-size="10.00">&#45;gh/libs/joda/core/modules</text>
<text text-anchor="middle" x="317.1" y="-402" font-family="Helvetica,sans-Serif" font-size="10.00">/queryparsing/src/grammar/Agg.h</text>
</a>
</g>
</g>
<!-- Node1&#45;&gt;Node2 -->
<g id="edge1" class="edge">
<title>Node1&#45;&gt;Node2</title>
<path fill="none" stroke="midnightblue" d="M554.68,-494.31C506.7,-479.7 446.9,-461.5 399.29,-447.01"/>
<polygon fill="midnightblue" stroke="midnightblue" points="553.83,-497.71 564.42,-497.27 555.87,-491.01 553.83,-497.71"/>
</g>
<!-- Node3 -->
<g id="node3" class="node">
<title>Node3</title>
<g id="a_node3"><a xlink:href="../../d4/d03/Grammar_8h.html" target="_top" xlink:title=" ">
<polygon fill="white" stroke="black" points="494.6,-289.5 494.6,-352.5 643.6,-352.5 643.6,-289.5 494.6,-289.5"/>
<text text-anchor="start" x="502.6" y="-340.5" font-family="Helvetica,sans-Serif" font-size="10.00">/home/nico/joda_tmp</text>
<text text-anchor="start" x="502.6" y="-329.5" font-family="Helvetica,sans-Serif" font-size="10.00">/tmp&#45;joda&#45;dirs/JODA</text>
<text text-anchor="start" x="502.6" y="-318.5" font-family="Helvetica,sans-Serif" font-size="10.00">&#45;gh/libs/joda/core/modules</text>
<text text-anchor="start" x="502.6" y="-307.5" font-family="Helvetica,sans-Serif" font-size="10.00">/queryparsing/src/grammar</text>
<text text-anchor="middle" x="569.1" y="-296.5" font-family="Helvetica,sans-Serif" font-size="10.00">/Grammar.h</text>
</a>
</g>
</g>
<!-- Node1&#45;&gt;Node3 -->
<g id="edge23" class="edge">
<title>Node1&#45;&gt;Node3</title>
<path fill="none" stroke="midnightblue" d="M554.6,-511.04C517.38,-502.41 476.97,-485.6 454.1,-453 437.77,-429.71 439.93,-413.66 454.1,-389 463.43,-372.77 478.37,-360.11 494.43,-350.37"/>
<polygon fill="midnightblue" stroke="midnightblue" points="553.98,-514.49 564.49,-513.16 555.45,-507.64 553.98,-514.49"/>
</g>
<!-- Node13 -->
<g id="node13" class="node">
<title>Node13</title>
<g id="a_node13"><a xlink:href="../../d0/d72/As_8h.html" target="_top" xlink:title=" ">
<polygon fill="white" stroke="black" points="463.6,-395 463.6,-447 636.6,-447 636.6,-395 463.6,-395"/>
<text text-anchor="start" x="471.6" y="-435" font-family="Helvetica,sans-Serif" font-size="10.00">/home/nico/joda_tmp</text>
<text text-anchor="start" x="471.6" y="-424" font-family="Helvetica,sans-Serif" font-size="10.00">/tmp&#45;joda&#45;dirs/JODA</text>
<text text-anchor="start" x="471.6" y="-413" font-family="Helvetica,sans-Serif" font-size="10.00">&#45;gh/libs/joda/core/modules</text>
<text text-anchor="middle" x="550.1" y="-402" font-family="Helvetica,sans-Serif" font-size="10.00">/queryparsing/src/grammar/As.h</text>
</a>
</g>
</g>
<!-- Node1&#45;&gt;Node13 -->
<g id="edge19" class="edge">
<title>Node1&#45;&gt;Node13</title>
<path fill="none" stroke="midnightblue" d="M604.37,-481.76C593.79,-470.1 582.43,-457.6 572.85,-447.05"/>
<polygon fill="midnightblue" stroke="midnightblue" points="601.87,-484.21 611.19,-489.26 607.05,-479.51 601.87,-484.21"/>
</g>
<!-- Node14 -->
<g id="node14" class="node">
<title>Node14</title>
<g id="a_node14"><a xlink:href="../../da/d78/Delete_8h.html" target="_top" xlink:title=" ">
<polygon fill="white" stroke="black" points="654.6,-389.5 654.6,-452.5 803.6,-452.5 803.6,-389.5 654.6,-389.5"/>
<text text-anchor="start" x="662.6" y="-440.5" font-family="Helvetica,sans-Serif" font-size="10.00">/home/nico/joda_tmp</text>
<text text-anchor="start" x="662.6" y="-429.5" font-family="Helvetica,sans-Serif" font-size="10.00">/tmp&#45;joda&#45;dirs/JODA</text>
<text text-anchor="start" x="662.6" y="-418.5" font-family="Helvetica,sans-Serif" font-size="10.00">&#45;gh/libs/joda/core/modules</text>
<text text-anchor="start" x="662.6" y="-407.5" font-family="Helvetica,sans-Serif" font-size="10.00">/queryparsing/src/grammar</text>
<text text-anchor="middle" x="729.1" y="-396.5" font-family="Helvetica,sans-Serif" font-size="10.00">/Delete.h</text>
</a>
</g>
</g>
<!-- Node1&#45;&gt;Node14 -->
<g id="edge21" class="edge">
<title>Node1&#45;&gt;Node14</title>
<path fill="none" stroke="midnightblue" d="M674.29,-481.69C683.14,-472.05 692.52,-461.83 700.97,-452.63"/>
<polygon fill="midnightblue" stroke="midnightblue" points="671.52,-479.53 667.33,-489.26 676.67,-484.26 671.52,-479.53"/>
</g>
<!-- Node15 -->
<g id="node15" class="node">
<title>Node15</title>
<g id="a_node15"><a xlink:href="../../d5/d7d/Load_8h.html" target="_top" xlink:title=" ">
<polygon fill="white" stroke="black" points="989.1,-395 989.1,-447 1173.1,-447 1173.1,-395 989.1,-395"/>
<text text-anchor="start" x="997.1" y="-435" font-family="Helvetica,sans-Serif" font-size="10.00">/home/nico/joda_tmp</text>
<text text-anchor="start" x="997.1" y="-424" font-family="Helvetica,sans-Serif" font-size="10.00">/tmp&#45;joda&#45;dirs/JODA</text>
<text text-anchor="start" x="997.1" y="-413" font-family="Helvetica,sans-Serif" font-size="10.00">&#45;gh/libs/joda/core/modules</text>
<text text-anchor="middle" x="1081.1" y="-402" font-family="Helvetica,sans-Serif" font-size="10.00">/queryparsing/src/grammar/Load.h</text>
</a>
</g>
</g>
<!-- Node1&#45;&gt;Node15 -->
<g id="edge24" class="edge">
<title>Node1&#45;&gt;Node15</title>
<path fill="none" stroke="midnightblue" d="M723.76,-505.89C793.09,-493.73 893.51,-474.73 980.1,-453 987.31,-451.19 994.76,-449.18 1002.2,-447.07"/>
<polygon fill="midnightblue" stroke="midnightblue" points="723.01,-502.46 713.76,-507.63 724.22,-509.36 723.01,-502.46"/>
</g>
<!-- Node17 -->
<g id="node17" class="node">
<title>Node17</title>
<g id="a_node17"><a xlink:href="../../db/d1d/Store_8h.html" target="_top" xlink:title=" ">
<polygon fill="white" stroke="black" points="821.6,-389.5 821.6,-452.5 970.6,-452.5 970.6,-389.5 821.6,-389.5"/>
<text text-anchor="start" x="829.6" y="-440.5" font-family="Helvetica,sans-Serif" font-size="10.00">/home/nico/joda_tmp</text>
<text text-anchor="start" x="829.6" y="-429.5" font-family="Helvetica,sans-Serif" font-size="10.00">/tmp&#45;joda&#45;dirs/JODA</text>
<text text-anchor="start" x="829.6" y="-418.5" font-family="Helvetica,sans-Serif" font-size="10.00">&#45;gh/libs/joda/core/modules</text>
<text text-anchor="start" x="829.6" y="-407.5" font-family="Helvetica,sans-Serif" font-size="10.00">/queryparsing/src/grammar</text>
<text text-anchor="middle" x="896.1" y="-396.5" font-family="Helvetica,sans-Serif" font-size="10.00">/Store.h</text>
</a>
</g>
</g>
<!-- Node1&#45;&gt;Node17 -->
<g id="edge28" class="edge">
<title>Node1&#45;&gt;Node17</title>
<path fill="none" stroke="midnightblue" d="M723.43,-487.84C754.99,-475.81 790.59,-462.23 821.23,-450.55"/>
<polygon fill="midnightblue" stroke="midnightblue" points="721.88,-484.69 713.78,-491.52 724.37,-491.23 721.88,-484.69"/>
</g>
<!-- Node2&#45;&gt;Node3 -->
<g id="edge2" class="edge">
<title>Node2&#45;&gt;Node3</title>
<path fill="none" stroke="midnightblue" d="M391.13,-391.21C423.67,-378.56 461.82,-363.72 494.43,-351.04"/>
<polygon fill="midnightblue" stroke="midnightblue" points="389.72,-388 381.67,-394.89 392.26,-394.53 389.72,-388"/>
</g>
<!-- Node4 -->
<g id="node4" class="node">
<title>Node4</title>
<g id="a_node4"><a xlink:href="../../de/db3/Actions_8h.html" target="_top" xlink:title=" ">
<polygon fill="white" stroke="black" points="433.1,-89.5 433.1,-152.5 579.1,-152.5 579.1,-89.5 433.1,-89.5"/>
<text text-anchor="start" x="441.1" y="-140.5" font-family="Helvetica,sans-Serif" font-size="10.00">/home/nico/joda_tmp</text>
<text text-anchor="start" x="441.1" y="-129.5" font-family="Helvetica,sans-Serif" font-size="10.00">/tmp&#45;joda&#45;dirs/JODA</text>
<text text-anchor="start" x="441.1" y="-118.5" font-family="Helvetica,sans-Serif" font-size="10.00">&#45;gh/libs/joda/core/modules</text>
<text text-anchor="start" x="441.1" y="-107.5" font-family="Helvetica,sans-Serif" font-size="10.00">/queryparsing/src/actions</text>
<text text-anchor="middle" x="506.1" y="-96.5" font-family="Helvetica,sans-Serif" font-size="10.00">/Actions.h</text>
</a>
</g>
</g>
<!-- Node3&#45;&gt;Node4 -->
<g id="edge3" class="edge">
<title>Node3&#45;&gt;Node4</title>
<path fill="none" stroke="midnightblue" d="M483.99,-315.84C336.16,-307.73 44.71,-287.53 14.1,-253 -4.77,-231.72 -4.61,-210.43 14.1,-189 41.23,-157.93 302.75,-135.87 433.06,-126.71"/>
<polygon fill="midnightblue" stroke="midnightblue" points="484.2,-319.36 494.38,-316.4 484.58,-312.37 484.2,-319.36"/>
</g>
<!-- Node6 -->
<g id="node6" class="node">
<title>Node6</title>
<g id="a_node6"><a xlink:href="../../d4/daf/Agg__Actions_8h.html" target="_top" xlink:title=" ">
<polygon fill="white" stroke="black" points="23.1,-189.5 23.1,-252.5 169.1,-252.5 169.1,-189.5 23.1,-189.5"/>
<text text-anchor="start" x="31.1" y="-240.5" font-family="Helvetica,sans-Serif" font-size="10.00">/home/nico/joda_tmp</text>
<text text-anchor="start" x="31.1" y="-229.5" font-family="Helvetica,sans-Serif" font-size="10.00">/tmp&#45;joda&#45;dirs/JODA</text>
<text text-anchor="start" x="31.1" y="-218.5" font-family="Helvetica,sans-Serif" font-size="10.00">&#45;gh/libs/joda/core/modules</text>
<text text-anchor="start" x="31.1" y="-207.5" font-family="Helvetica,sans-Serif" font-size="10.00">/queryparsing/src/actions</text>
<text text-anchor="middle" x="96.1" y="-196.5" font-family="Helvetica,sans-Serif" font-size="10.00">/Agg_Actions.h</text>
</a>
</g>
</g>
<!-- Node3&#45;&gt;Node6 -->
<g id="edge5" class="edge">
<title>Node3&#45;&gt;Node6</title>
<path fill="none" stroke="midnightblue" d="M484.3,-310.24C404.41,-299.93 281.82,-281.21 178.1,-253 175.16,-252.2 172.19,-251.34 169.19,-250.43"/>
<polygon fill="midnightblue" stroke="midnightblue" points="483.95,-313.72 494.31,-311.52 484.83,-306.78 483.95,-313.72"/>
</g>
<!-- Node7 -->
<g id="node7" class="node">
<title>Node7</title>
<g id="a_node7"><a xlink:href="../../d0/d2e/As__Actions_8h.html" target="_top" xlink:title=" ">
<polygon fill="white" stroke="black" points="187.1,-189.5 187.1,-252.5 333.1,-252.5 333.1,-189.5 187.1,-189.5"/>
<text text-anchor="start" x="195.1" y="-240.5" font-family="Helvetica,sans-Serif" font-size="10.00">/home/nico/joda_tmp</text>
<text text-anchor="start" x="195.1" y="-229.5" font-family="Helvetica,sans-Serif" font-size="10.00">/tmp&#45;joda&#45;dirs/JODA</text>
<text text-anchor="start" x="195.1" y="-218.5" font-family="Helvetica,sans-Serif" font-size="10.00">&#45;gh/libs/joda/core/modules</text>
<text text-anchor="start" x="195.1" y="-207.5" font-family="Helvetica,sans-Serif" font-size="10.00">/queryparsing/src/actions</text>
<text text-anchor="middle" x="260.1" y="-196.5" font-family="Helvetica,sans-Serif" font-size="10.00">/As_Actions.h</text>
</a>
</g>
</g>
<!-- Node3&#45;&gt;Node7 -->
<g id="edge7" class="edge">
<title>Node3&#45;&gt;Node7</title>
<path fill="none" stroke="midnightblue" d="M484.7,-296.71C441.76,-284.45 388.9,-268.73 342.1,-253 339.22,-252.03 336.28,-251.02 333.32,-249.99"/>
<polygon fill="midnightblue" stroke="midnightblue" points="483.97,-300.14 494.54,-299.51 485.88,-293.4 483.97,-300.14"/>
</g>
<!-- Node8 -->
<g id="node8" class="node">
<title>Node8</title>
<g id="a_node8"><a xlink:href="../../d4/daf/Choose__Actions_8h.html" target="_top" xlink:title=" ">
<polygon fill="white" stroke="black" points="351.1,-189.5 351.1,-252.5 497.1,-252.5 497.1,-189.5 351.1,-189.5"/>
<text text-anchor="start" x="359.1" y="-240.5" font-family="Helvetica,sans-Serif" font-size="10.00">/home/nico/joda_tmp</text>
<text text-anchor="start" x="359.1" y="-229.5" font-family="Helvetica,sans-Serif" font-size="10.00">/tmp&#45;joda&#45;dirs/JODA</text>
<text text-anchor="start" x="359.1" y="-218.5" font-family="Helvetica,sans-Serif" font-size="10.00">&#45;gh/libs/joda/core/modules</text>
<text text-anchor="start" x="359.1" y="-207.5" font-family="Helvetica,sans-Serif" font-size="10.00">/queryparsing/src/actions</text>
<text text-anchor="middle" x="424.1" y="-196.5" font-family="Helvetica,sans-Serif" font-size="10.00">/Choose_Actions.h</text>
</a>
</g>
</g>
<!-- Node3&#45;&gt;Node8 -->
<g id="edge9" class="edge">
<title>Node3&#45;&gt;Node8</title>
<path fill="none" stroke="midnightblue" d="M514.95,-283.4C499.96,-273.27 483.85,-262.38 469.42,-252.63"/>
<polygon fill="midnightblue" stroke="midnightblue" points="513.38,-286.56 523.62,-289.26 517.3,-280.76 513.38,-286.56"/>
</g>
<!-- Node9 -->
<g id="node9" class="node">
<title>Node9</title>
<g id="a_node9"><a xlink:href="../../d8/dc3/Delete__Actions_8h.html" target="_top" xlink:title=" ">
<polygon fill="white" stroke="black" points="515.1,-189.5 515.1,-252.5 661.1,-252.5 661.1,-189.5 515.1,-189.5"/>
<text text-anchor="start" x="523.1" y="-240.5" font-family="Helvetica,sans-Serif" font-size="10.00">/home/nico/joda_tmp</text>
<text text-anchor="start" x="523.1" y="-229.5" font-family="Helvetica,sans-Serif" font-size="10.00">/tmp&#45;joda&#45;dirs/JODA</text>
<text text-anchor="start" x="523.1" y="-218.5" font-family="Helvetica,sans-Serif" font-size="10.00">&#45;gh/libs/joda/core/modules</text>
<text text-anchor="start" x="523.1" y="-207.5" font-family="Helvetica,sans-Serif" font-size="10.00">/queryparsing/src/actions</text>
<text text-anchor="middle" x="588.1" y="-196.5" font-family="Helvetica,sans-Serif" font-size="10.00">/Delete_Actions.h</text>
</a>
</g>
</g>
<!-- Node3&#45;&gt;Node9 -->
<g id="edge11" class="edge">
<title>Node3&#45;&gt;Node9</title>
<path fill="none" stroke="midnightblue" d="M576.98,-279.39C578.71,-270.44 580.52,-261.11 582.16,-252.63"/>
<polygon fill="midnightblue" stroke="midnightblue" points="573.53,-278.78 575.06,-289.26 580.4,-280.11 573.53,-278.78"/>
</g>
<!-- Node10 -->
<g id="node10" class="node">
<title>Node10</title>
<g id="a_node10"><a xlink:href="../../df/d48/Load__Actions_8h.html" target="_top" xlink:title=" ">
<polygon fill="white" stroke="black" points="679.1,-189.5 679.1,-252.5 825.1,-252.5 825.1,-189.5 679.1,-189.5"/>
<text text-anchor="start" x="687.1" y="-240.5" font-family="Helvetica,sans-Serif" font-size="10.00">/home/nico/joda_tmp</text>
<text text-anchor="start" x="687.1" y="-229.5" font-family="Helvetica,sans-Serif" font-size="10.00">/tmp&#45;joda&#45;dirs/JODA</text>
<text text-anchor="start" x="687.1" y="-218.5" font-family="Helvetica,sans-Serif" font-size="10.00">&#45;gh/libs/joda/core/modules</text>
<text text-anchor="start" x="687.1" y="-207.5" font-family="Helvetica,sans-Serif" font-size="10.00">/queryparsing/src/actions</text>
<text text-anchor="middle" x="752.1" y="-196.5" font-family="Helvetica,sans-Serif" font-size="10.00">/Load_Actions.h</text>
</a>
</g>
</g>
<!-- Node3&#45;&gt;Node10 -->
<g id="edge13" class="edge">
<title>Node3&#45;&gt;Node10</title>
<path fill="none" stroke="midnightblue" d="M635.13,-284.64C654.75,-274.13 676.07,-262.71 695.07,-252.54"/>
<polygon fill="midnightblue" stroke="midnightblue" points="633.41,-281.59 626.25,-289.4 636.72,-287.76 633.41,-281.59"/>
</g>
<!-- Node11 -->
<g id="node11" class="node">
<title>Node11</title>
<g id="a_node11"><a xlink:href="../../d2/d4b/Store__Actions_8h.html" target="_top" xlink:title=" ">
<polygon fill="white" stroke="black" points="843.1,-189.5 843.1,-252.5 989.1,-252.5 989.1,-189.5 843.1,-189.5"/>
<text text-anchor="start" x="851.1" y="-240.5" font-family="Helvetica,sans-Serif" font-size="10.00">/home/nico/joda_tmp</text>
<text text-anchor="start" x="851.1" y="-229.5" font-family="Helvetica,sans-Serif" font-size="10.00">/tmp&#45;joda&#45;dirs/JODA</text>
<text text-anchor="start" x="851.1" y="-218.5" font-family="Helvetica,sans-Serif" font-size="10.00">&#45;gh/libs/joda/core/modules</text>
<text text-anchor="start" x="851.1" y="-207.5" font-family="Helvetica,sans-Serif" font-size="10.00">/queryparsing/src/actions</text>
<text text-anchor="middle" x="916.1" y="-196.5" font-family="Helvetica,sans-Serif" font-size="10.00">/Store_Actions.h</text>
</a>
</g>
</g>
<!-- Node3&#45;&gt;Node11 -->
<g id="edge15" class="edge">
<title>Node3&#45;&gt;Node11</title>
<path fill="none" stroke="midnightblue" d="M653.62,-301.22C706.01,-288.95 774.45,-271.75 834.1,-253 837.01,-252.09 839.96,-251.13 842.93,-250.13"/>
<polygon fill="midnightblue" stroke="midnightblue" points="652.64,-297.86 643.7,-303.53 654.23,-304.67 652.64,-297.86"/>
</g>
<!-- Node12 -->
<g id="node12" class="node">
<title>Node12</title>
<g id="a_node12"><a xlink:href="../../d4/d6a/Control_8h.html" target="_top" xlink:title=" ">
<polygon fill="white" stroke="black" points="1007.1,-195 1007.1,-247 1155.1,-247 1155.1,-195 1007.1,-195"/>
<text text-anchor="start" x="1015.1" y="-235" font-family="Helvetica,sans-Serif" font-size="10.00">/home/nico/joda_tmp</text>
<text text-anchor="start" x="1015.1" y="-224" font-family="Helvetica,sans-Serif" font-size="10.00">/tmp&#45;joda&#45;dirs/JODA</text>
<text text-anchor="start" x="1015.1" y="-213" font-family="Helvetica,sans-Serif" font-size="10.00">&#45;gh/libs/joda/core/modules</text>
<text text-anchor="middle" x="1081.1" y="-202" font-family="Helvetica,sans-Serif" font-size="10.00">/queryparsing/src/Control.h</text>
</a>
</g>
</g>
<!-- Node3&#45;&gt;Node12 -->
<g id="edge17" class="edge">
<title>Node3&#45;&gt;Node12</title>
<path fill="none" stroke="midnightblue" d="M653.79,-311.89C741.08,-302.35 880.61,-283.78 998.1,-253 1004.65,-251.29 1011.4,-249.24 1018.08,-247.04"/>
<polygon fill="midnightblue" stroke="midnightblue" points="653.24,-308.43 643.67,-312.99 653.99,-315.39 653.24,-308.43"/>
</g>
<!-- Node5 -->
<g id="node5" class="node">
<title>Node5</title>
<g id="a_node5"><a xlink:href="../../d0/d62/QueryParser_8cpp.html" target="_top" xlink:title=" ">
<polygon fill="white" stroke="black" points="465.1,-0.5 465.1,-52.5 647.1,-52.5 647.1,-0.5 465.1,-0.5"/>
<text text-anchor="start" x="473.1" y="-40.5" font-family="Helvetica,sans-Serif" font-size="10.00">/home/nico/joda_tmp</text>
<text text-anchor="start" x="473.1" y="-29.5" font-family="Helvetica,sans-Serif" font-size="10.00">/tmp&#45;joda&#45;dirs/JODA</text>
<text text-anchor="start" x="473.1" y="-18.5" font-family="Helvetica,sans-Serif" font-size="10.00">&#45;gh/libs/joda/core/modules</text>
<text text-anchor="middle" x="556.1" y="-7.5" font-family="Helvetica,sans-Serif" font-size="10.00">/queryparsing/src/QueryParser.cpp</text>
</a>
</g>
</g>
<!-- Node4&#45;&gt;Node5 -->
<g id="edge4" class="edge">
<title>Node4&#45;&gt;Node5</title>
<path fill="none" stroke="midnightblue" d="M527.4,-80.59C532.5,-71.17 537.8,-61.35 542.44,-52.77"/>
<polygon fill="midnightblue" stroke="midnightblue" points="524.29,-78.99 522.61,-89.46 530.45,-82.32 524.29,-78.99"/>
</g>
<!-- Node6&#45;&gt;Node4 -->
<g id="edge6" class="edge">
<title>Node6&#45;&gt;Node4</title>
<path fill="none" stroke="midnightblue" d="M179,-188.89C271.27,-162.75 368.26,-144.43 432.98,-133.48"/>
<polygon fill="midnightblue" stroke="midnightblue" points="177.87,-185.57 169.22,-191.69 179.8,-192.3 177.87,-185.57"/>
</g>
<!-- Node7&#45;&gt;Node4 -->
<g id="edge8" class="edge">
<title>Node7&#45;&gt;Node4</title>
<path fill="none" stroke="midnightblue" d="M342.59,-187.14C371.8,-175.5 404.43,-162.5 432.82,-151.19"/>
<polygon fill="midnightblue" stroke="midnightblue" points="341.24,-183.91 333.24,-190.86 343.83,-190.41 341.24,-183.91"/>
</g>
<!-- Node8&#45;&gt;Node4 -->
<g id="edge10" class="edge">
<title>Node8&#45;&gt;Node4</title>
<path fill="none" stroke="midnightblue" d="M456.4,-181.4C464.39,-171.85 472.85,-161.74 480.47,-152.63"/>
<polygon fill="midnightblue" stroke="midnightblue" points="453.55,-179.35 449.82,-189.26 458.92,-183.84 453.55,-179.35"/>
</g>
<!-- Node9&#45;&gt;Node4 -->
<g id="edge12" class="edge">
<title>Node9&#45;&gt;Node4</title>
<path fill="none" stroke="midnightblue" d="M555.8,-181.4C547.81,-171.85 539.36,-161.74 531.73,-152.63"/>
<polygon fill="midnightblue" stroke="midnightblue" points="553.28,-183.84 562.38,-189.26 558.65,-179.35 553.28,-183.84"/>
</g>
<!-- Node10&#45;&gt;Node4 -->
<g id="edge14" class="edge">
<title>Node10&#45;&gt;Node4</title>
<path fill="none" stroke="midnightblue" d="M669.61,-187.14C640.4,-175.5 607.77,-162.5 579.39,-151.19"/>
<polygon fill="midnightblue" stroke="midnightblue" points="668.37,-190.41 678.96,-190.86 670.96,-183.91 668.37,-190.41"/>
</g>
<!-- Node11&#45;&gt;Node4 -->
<g id="edge16" class="edge">
<title>Node11&#45;&gt;Node4</title>
<path fill="none" stroke="midnightblue" d="M833.2,-188.89C740.93,-162.75 643.94,-144.43 579.22,-133.48"/>
<polygon fill="midnightblue" stroke="midnightblue" points="832.4,-192.3 842.98,-191.69 834.33,-185.57 832.4,-192.3"/>
</g>
<!-- Node12&#45;&gt;Node5 -->
<g id="edge18" class="edge">
<title>Node12&#45;&gt;Node5</title>
<path fill="none" stroke="midnightblue" d="M1004.51,-191.37C1002.35,-190.57 1000.21,-189.78 998.1,-189 866.29,-140.3 712.07,-84.14 625.06,-52.52"/>
<polygon fill="midnightblue" stroke="midnightblue" points="1003.48,-194.72 1014.07,-194.92 1005.91,-188.16 1003.48,-194.72"/>
</g>
<!-- Node13&#45;&gt;Node3 -->
<g id="edge20" class="edge">
<title>Node13&#45;&gt;Node3</title>
<path fill="none" stroke="midnightblue" d="M556.95,-384.69C558.97,-374.24 561.17,-362.89 563.14,-352.75"/>
<polygon fill="midnightblue" stroke="midnightblue" points="553.46,-384.28 554.99,-394.76 560.33,-385.61 553.46,-384.28"/>
</g>
<!-- Node14&#45;&gt;Node3 -->
<g id="edge22" class="edge">
<title>Node14&#45;&gt;Node3</title>
<path fill="none" stroke="midnightblue" d="M670.27,-383.97C653.47,-373.68 635.33,-362.56 619.11,-352.63"/>
<polygon fill="midnightblue" stroke="midnightblue" points="668.56,-387.02 678.92,-389.26 672.22,-381.05 668.56,-387.02"/>
</g>
<!-- Node15&#45;&gt;Node3 -->
<g id="edge27" class="edge">
<title>Node15&#45;&gt;Node3</title>
<path fill="none" stroke="midnightblue" d="M993.47,-392.32C988.97,-391.14 984.49,-390.03 980.1,-389 863.95,-361.84 726.78,-341.86 643.95,-331.08"/>
<polygon fill="midnightblue" stroke="midnightblue" points="992.8,-395.76 1003.37,-394.98 994.62,-389 992.8,-395.76"/>
</g>
<!-- Node16 -->
<g id="node16" class="node">
<title>Node16</title>
<g id="a_node16"><a xlink:href="../../df/d7e/LOAD__error_8h.html" target="_top" xlink:title=" ">
<polygon fill="white" stroke="black" points="1002.6,-289.5 1002.6,-352.5 1159.6,-352.5 1159.6,-289.5 1002.6,-289.5"/>
<text text-anchor="start" x="1010.6" y="-340.5" font-family="Helvetica,sans-Serif" font-size="10.00">/home/nico/joda_tmp</text>
<text text-anchor="start" x="1010.6" y="-329.5" font-family="Helvetica,sans-Serif" font-size="10.00">/tmp&#45;joda&#45;dirs/JODA</text>
<text text-anchor="start" x="1010.6" y="-318.5" font-family="Helvetica,sans-Serif" font-size="10.00">&#45;gh/libs/joda/core/modules</text>
<text text-anchor="start" x="1010.6" y="-307.5" font-family="Helvetica,sans-Serif" font-size="10.00">/queryparsing/src/error/LOAD</text>
<text text-anchor="middle" x="1081.1" y="-296.5" font-family="Helvetica,sans-Serif" font-size="10.00">_error.h</text>
</a>
</g>
</g>
<!-- Node15&#45;&gt;Node16 -->
<g id="edge25" class="edge">
<title>Node15&#45;&gt;Node16</title>
<path fill="none" stroke="midnightblue" d="M1081.1,-384.69C1081.1,-374.24 1081.1,-362.89 1081.1,-352.75"/>
<polygon fill="midnightblue" stroke="midnightblue" points="1077.6,-384.76 1081.1,-394.76 1084.6,-384.76 1077.6,-384.76"/>
</g>
<!-- Node16&#45;&gt;Node12 -->
<g id="edge26" class="edge">
<title>Node16&#45;&gt;Node12</title>
<path fill="none" stroke="midnightblue" d="M1081.1,-279.08C1081.1,-268.21 1081.1,-256.79 1081.1,-247.05"/>
<polygon fill="midnightblue" stroke="midnightblue" points="1077.6,-279.26 1081.1,-289.26 1084.6,-279.26 1077.6,-279.26"/>
</g>
<!-- Node17&#45;&gt;Node3 -->
<g id="edge29" class="edge">
<title>Node17&#45;&gt;Node3</title>
<path fill="none" stroke="midnightblue" d="M811.99,-389.05C749.95,-369.3 689.72,-352.84 643.76,-340.84"/>
<polygon fill="midnightblue" stroke="midnightblue" points="810.97,-392.4 821.56,-392.12 813.11,-385.73 810.97,-392.4"/>
</g>
</g>
</svg>
