<?xml version="1.0" encoding="UTF-8" standalone="no"?>
<!DOCTYPE svg PUBLIC "-//W3C//DTD SVG 1.1//EN"
 "http://www.w3.org/Graphics/SVG/1.1/DTD/svg11.dtd">
<!-- Generated by graphviz version 2.43.0 (0)
 -->
<!-- Title: /home/nico/projects/tmp&#45;joda&#45;dirs/JODA&#45;gh/libs/joda/core/modules/storage/document/include/joda/document/TemporaryOrigin.h Pages: 1 -->
<svg width="777pt" height="240pt"
 viewBox="0.00 0.00 776.50 240.00" xmlns="http://www.w3.org/2000/svg" xmlns:xlink="http://www.w3.org/1999/xlink">
<g id="graph0" class="graph" transform="scale(1 1) rotate(0) translate(4 236)">
<title>/home/nico/projects/tmp&#45;joda&#45;dirs/JODA&#45;gh/libs/joda/core/modules/storage/document/include/joda/document/TemporaryOrigin.h</title>
<polygon fill="white" stroke="transparent" points="-4,4 -4,-236 772.5,-236 772.5,4 -4,4"/>
<!-- Node1 -->
<g id="node1" class="node">
<title>Node1</title>
<g id="a_node1"><a xlink:title=" ">
<polygon fill="#bfbfbf" stroke="black" points="87.5,-168.5 87.5,-231.5 272.5,-231.5 272.5,-168.5 87.5,-168.5"/>
<text text-anchor="start" x="95.5" y="-219.5" font-family="Helvetica,sans-Serif" font-size="10.00">/home/nico/projects</text>
<text text-anchor="start" x="95.5" y="-208.5" font-family="Helvetica,sans-Serif" font-size="10.00">/tmp&#45;joda&#45;dirs/JODA</text>
<text text-anchor="start" x="95.5" y="-197.5" font-family="Helvetica,sans-Serif" font-size="10.00">&#45;gh/libs/joda/core/modules</text>
<text text-anchor="start" x="95.5" y="-186.5" font-family="Helvetica,sans-Serif" font-size="10.00">/storage/document/include</text>
<text text-anchor="middle" x="180" y="-175.5" font-family="Helvetica,sans-Serif" font-size="10.00">/joda/document/TemporaryOrigin.h</text>
</a>
</g>
</g>
<!-- Node2 -->
<g id="node2" class="node">
<title>Node2</title>
<g id="a_node2"><a xlink:href="../../d5/d6c/IOrigin_8h.html" target="_top" xlink:title=" ">
<polygon fill="white" stroke="black" points="151,-112.5 151,-131.5 209,-131.5 209,-112.5 151,-112.5"/>
<text text-anchor="middle" x="180" y="-119.5" font-family="Helvetica,sans-Serif" font-size="10.00">IOrigin.h</text>
</a>
</g>
</g>
<!-- Node1&#45;&gt;Node2 -->
<g id="edge1" class="edge">
<title>Node1&#45;&gt;Node2</title>
<path fill="none" stroke="midnightblue" d="M180,-168.09C180,-159.15 180,-149.67 180,-141.72"/>
<polygon fill="midnightblue" stroke="midnightblue" points="183.5,-141.72 180,-131.72 176.5,-141.72 183.5,-141.72"/>
</g>
<!-- Node3 -->
<g id="node3" class="node">
<title>Node3</title>
<g id="a_node3"><a xlink:title=" ">
<polygon fill="white" stroke="#bfbfbf" points="0,-0.5 0,-19.5 86,-19.5 86,-0.5 0,-0.5"/>
<text text-anchor="middle" x="43" y="-7.5" font-family="Helvetica,sans-Serif" font-size="10.00">glog/logging.h</text>
</a>
</g>
</g>
<!-- Node2&#45;&gt;Node3 -->
<g id="edge2" class="edge">
<title>Node2&#45;&gt;Node3</title>
<path fill="none" stroke="midnightblue" d="M150.93,-117.32C124.19,-112.42 85.27,-101.21 62,-76 50.42,-63.46 45.87,-44.23 44.09,-29.94"/>
<polygon fill="midnightblue" stroke="midnightblue" points="47.56,-29.41 43.18,-19.76 40.58,-30.03 47.56,-29.41"/>
</g>
<!-- Node4 -->
<g id="node4" class="node">
<title>Node4</title>
<g id="a_node4"><a xlink:title=" ">
<polygon fill="white" stroke="#bfbfbf" points="71,-56.5 71,-75.5 185,-75.5 185,-56.5 71,-56.5"/>
<text text-anchor="middle" x="128" y="-63.5" font-family="Helvetica,sans-Serif" font-size="10.00">boost/operators.hpp</text>
</a>
</g>
</g>
<!-- Node2&#45;&gt;Node4 -->
<g id="edge3" class="edge">
<title>Node2&#45;&gt;Node4</title>
<path fill="none" stroke="midnightblue" d="M171.41,-112.08C163.84,-104.22 152.62,-92.57 143.49,-83.08"/>
<polygon fill="midnightblue" stroke="midnightblue" points="145.88,-80.53 136.43,-75.75 140.84,-85.38 145.88,-80.53"/>
</g>
<!-- Node5 -->
<g id="node5" class="node">
<title>Node5</title>
<g id="a_node5"><a xlink:title=" ">
<polygon fill="white" stroke="#bfbfbf" points="203,-56.5 203,-75.5 261,-75.5 261,-56.5 203,-56.5"/>
<text text-anchor="middle" x="232" y="-63.5" font-family="Helvetica,sans-Serif" font-size="10.00">memory</text>
</a>
</g>
</g>
<!-- Node2&#45;&gt;Node5 -->
<g id="edge4" class="edge">
<title>Node2&#45;&gt;Node5</title>
<path fill="none" stroke="midnightblue" d="M188.59,-112.08C196.16,-104.22 207.38,-92.57 216.51,-83.08"/>
<polygon fill="midnightblue" stroke="midnightblue" points="219.16,-85.38 223.57,-75.75 214.12,-80.53 219.16,-85.38"/>
</g>
<!-- Node6 -->
<g id="node6" class="node">
<title>Node6</title>
<g id="a_node6"><a xlink:href="../../d6/d09/RJFwd_8h.html" target="_top" xlink:title=" ">
<polygon fill="white" stroke="black" points="279,-56.5 279,-75.5 385,-75.5 385,-56.5 279,-56.5"/>
<text text-anchor="middle" x="332" y="-63.5" font-family="Helvetica,sans-Serif" font-size="10.00">joda/misc/RJFwd.h</text>
</a>
</g>
</g>
<!-- Node2&#45;&gt;Node6 -->
<g id="edge5" class="edge">
<title>Node2&#45;&gt;Node6</title>
<path fill="none" stroke="midnightblue" d="M204.08,-112.44C229.54,-103.4 269.89,-89.06 298.46,-78.92"/>
<polygon fill="midnightblue" stroke="midnightblue" points="299.78,-82.16 308.03,-75.52 297.43,-75.57 299.78,-82.16"/>
</g>
<!-- Node6&#45;&gt;Node3 -->
<g id="edge6" class="edge">
<title>Node6&#45;&gt;Node3</title>
<path fill="none" stroke="midnightblue" d="M286.21,-56.44C234.62,-46.8 150.89,-31.16 96.38,-20.97"/>
<polygon fill="midnightblue" stroke="midnightblue" points="96.69,-17.47 86.22,-19.08 95.41,-24.35 96.69,-17.47"/>
</g>
<!-- Node7 -->
<g id="node7" class="node">
<title>Node7</title>
<g id="a_node7"><a xlink:title=" ">
<polygon fill="white" stroke="#bfbfbf" points="104,-0.5 104,-19.5 226,-19.5 226,-0.5 104,-0.5"/>
<text text-anchor="middle" x="165" y="-7.5" font-family="Helvetica,sans-Serif" font-size="10.00">rapidjson/allocators.h</text>
</a>
</g>
</g>
<!-- Node6&#45;&gt;Node7 -->
<g id="edge7" class="edge">
<title>Node6&#45;&gt;Node7</title>
<path fill="none" stroke="midnightblue" d="M305.54,-56.44C277.32,-47.32 232.46,-32.81 201.03,-22.65"/>
<polygon fill="midnightblue" stroke="midnightblue" points="201.93,-19.26 191.34,-19.52 199.78,-25.92 201.93,-19.26"/>
</g>
<!-- Node8 -->
<g id="node8" class="node">
<title>Node8</title>
<g id="a_node8"><a xlink:title=" ">
<polygon fill="white" stroke="#bfbfbf" points="244,-0.5 244,-19.5 366,-19.5 366,-0.5 244,-0.5"/>
<text text-anchor="middle" x="305" y="-7.5" font-family="Helvetica,sans-Serif" font-size="10.00">rapidjson/document.h</text>
</a>
</g>
</g>
<!-- Node6&#45;&gt;Node8 -->
<g id="edge8" class="edge">
<title>Node6&#45;&gt;Node8</title>
<path fill="none" stroke="midnightblue" d="M327.54,-56.08C323.85,-48.69 318.48,-37.95 313.91,-28.81"/>
<polygon fill="midnightblue" stroke="midnightblue" points="316.98,-27.13 309.38,-19.75 310.72,-30.26 316.98,-27.13"/>
</g>
<!-- Node9 -->
<g id="node9" class="node">
<title>Node9</title>
<g id="a_node9"><a xlink:title=" ">
<polygon fill="white" stroke="#bfbfbf" points="384.5,-0.5 384.5,-19.5 475.5,-19.5 475.5,-0.5 384.5,-0.5"/>
<text text-anchor="middle" x="430" y="-7.5" font-family="Helvetica,sans-Serif" font-size="10.00">rapidjson/fwd.h</text>
</a>
</g>
</g>
<!-- Node6&#45;&gt;Node9 -->
<g id="edge9" class="edge">
<title>Node6&#45;&gt;Node9</title>
<path fill="none" stroke="midnightblue" d="M347.75,-56.32C363.32,-47.74 387.38,-34.49 405.46,-24.52"/>
<polygon fill="midnightblue" stroke="midnightblue" points="407.22,-27.55 414.29,-19.65 403.85,-21.42 407.22,-27.55"/>
</g>
<!-- Node10 -->
<g id="node10" class="node">
<title>Node10</title>
<g id="a_node10"><a xlink:title=" ">
<polygon fill="white" stroke="#bfbfbf" points="494,-0.5 494,-19.5 644,-19.5 644,-0.5 494,-0.5"/>
<text text-anchor="middle" x="569" y="-7.5" font-family="Helvetica,sans-Serif" font-size="10.00">rapidjson/istreamwrapper.h</text>
</a>
</g>
</g>
<!-- Node6&#45;&gt;Node10 -->
<g id="edge10" class="edge">
<title>Node6&#45;&gt;Node10</title>
<path fill="none" stroke="midnightblue" d="M369.55,-56.44C410.81,-47.04 477.14,-31.93 521.87,-21.74"/>
<polygon fill="midnightblue" stroke="midnightblue" points="522.65,-25.15 531.62,-19.52 521.09,-18.33 522.65,-25.15"/>
</g>
<!-- Node11 -->
<g id="node11" class="node">
<title>Node11</title>
<g id="a_node11"><a xlink:title=" ">
<polygon fill="white" stroke="#bfbfbf" points="661.5,-0.5 661.5,-19.5 768.5,-19.5 768.5,-0.5 661.5,-0.5"/>
<text text-anchor="middle" x="715" y="-7.5" font-family="Helvetica,sans-Serif" font-size="10.00">rapidjson/pointer.h</text>
</a>
</g>
</g>
<!-- Node6&#45;&gt;Node11 -->
<g id="edge11" class="edge">
<title>Node6&#45;&gt;Node11</title>
<path fill="none" stroke="midnightblue" d="M385.12,-57.63C446.74,-49.07 551.67,-34.43 651.3,-20.24"/>
<polygon fill="midnightblue" stroke="midnightblue" points="651.83,-23.7 661.23,-18.82 650.84,-16.77 651.83,-23.7"/>
</g>
</g>
</svg>
