<?xml version="1.0" encoding="UTF-8" standalone="no"?>
<!DOCTYPE svg PUBLIC "-//W3C//DTD SVG 1.1//EN"
 "http://www.w3.org/Graphics/SVG/1.1/DTD/svg11.dtd">
<!-- Generated by graphviz version 2.43.0 (0)
 -->
<!-- Title: /home/nico/projects/JODA&#45;gh/libs/joda/core/modules/misc/src/RecurringTimer.cpp Pages: 1 -->
<svg width="353pt" height="173pt"
 viewBox="0.00 0.00 352.50 173.00" xmlns="http://www.w3.org/2000/svg" xmlns:xlink="http://www.w3.org/1999/xlink">
<g id="graph0" class="graph" transform="scale(1 1) rotate(0) translate(4 169)">
<title>/home/nico/projects/JODA&#45;gh/libs/joda/core/modules/misc/src/RecurringTimer.cpp</title>
<polygon fill="white" stroke="transparent" points="-4,4 -4,-169 348.5,-169 348.5,4 -4,4"/>
<!-- Node1 -->
<g id="node1" class="node">
<title>Node1</title>
<g id="a_node1"><a xlink:title=" ">
<polygon fill="#bfbfbf" stroke="black" points="83,-123.5 83,-164.5 286,-164.5 286,-123.5 83,-123.5"/>
<text text-anchor="start" x="91" y="-152.5" font-family="Helvetica,sans-Serif" font-size="10.00">/home/nico/projects</text>
<text text-anchor="start" x="91" y="-141.5" font-family="Helvetica,sans-Serif" font-size="10.00">/JODA&#45;gh/libs/joda/core</text>
<text text-anchor="middle" x="184.5" y="-130.5" font-family="Helvetica,sans-Serif" font-size="10.00">/modules/misc/src/RecurringTimer.cpp</text>
</a>
</g>
</g>
<!-- Node2 -->
<g id="node2" class="node">
<title>Node2</title>
<g id="a_node2"><a xlink:href="../../dd/de2/RecurringTimer_8h.html" target="_top" xlink:title=" ">
<polygon fill="white" stroke="black" points="129,-56.5 129,-86.5 240,-86.5 240,-56.5 129,-56.5"/>
<text text-anchor="start" x="137" y="-74.5" font-family="Helvetica,sans-Serif" font-size="10.00">../include/joda/misc</text>
<text text-anchor="middle" x="184.5" y="-63.5" font-family="Helvetica,sans-Serif" font-size="10.00">/RecurringTimer.h</text>
</a>
</g>
</g>
<!-- Node1&#45;&gt;Node2 -->
<g id="edge1" class="edge">
<title>Node1&#45;&gt;Node2</title>
<path fill="none" stroke="midnightblue" d="M184.5,-123.36C184.5,-115.23 184.5,-105.7 184.5,-97.11"/>
<polygon fill="midnightblue" stroke="midnightblue" points="188,-96.89 184.5,-86.89 181,-96.89 188,-96.89"/>
</g>
<!-- Node5 -->
<g id="node5" class="node">
<title>Node5</title>
<g id="a_node5"><a xlink:title=" ">
<polygon fill="white" stroke="#bfbfbf" points="258.5,-62 258.5,-81 344.5,-81 344.5,-62 258.5,-62"/>
<text text-anchor="middle" x="301.5" y="-69" font-family="Helvetica,sans-Serif" font-size="10.00">glog/logging.h</text>
</a>
</g>
</g>
<!-- Node1&#45;&gt;Node5 -->
<g id="edge4" class="edge">
<title>Node1&#45;&gt;Node5</title>
<path fill="none" stroke="midnightblue" d="M217.09,-123.36C236.49,-111.67 260.65,-97.12 278.14,-86.57"/>
<polygon fill="midnightblue" stroke="midnightblue" points="280.35,-89.33 287.11,-81.17 276.73,-83.34 280.35,-89.33"/>
</g>
<!-- Node6 -->
<g id="node6" class="node">
<title>Node6</title>
<g id="a_node6"><a xlink:href="../../dd/d27/Timer_8h.html" target="_top" xlink:title=" ">
<polygon fill="white" stroke="black" points="0,-56.5 0,-86.5 111,-86.5 111,-56.5 0,-56.5"/>
<text text-anchor="start" x="8" y="-74.5" font-family="Helvetica,sans-Serif" font-size="10.00">../include/joda/misc</text>
<text text-anchor="middle" x="55.5" y="-63.5" font-family="Helvetica,sans-Serif" font-size="10.00">/Timer.h</text>
</a>
</g>
</g>
<!-- Node1&#45;&gt;Node6 -->
<g id="edge5" class="edge">
<title>Node1&#45;&gt;Node6</title>
<path fill="none" stroke="midnightblue" d="M148.57,-123.36C130.41,-113.44 108.47,-101.45 90.45,-91.6"/>
<polygon fill="midnightblue" stroke="midnightblue" points="91.88,-88.39 81.43,-86.67 88.52,-94.54 91.88,-88.39"/>
</g>
<!-- Node3 -->
<g id="node3" class="node">
<title>Node3</title>
<g id="a_node3"><a xlink:title=" ">
<polygon fill="white" stroke="#bfbfbf" points="62.5,-0.5 62.5,-19.5 112.5,-19.5 112.5,-0.5 62.5,-0.5"/>
<text text-anchor="middle" x="87.5" y="-7.5" font-family="Helvetica,sans-Serif" font-size="10.00">chrono</text>
</a>
</g>
</g>
<!-- Node2&#45;&gt;Node3 -->
<g id="edge2" class="edge">
<title>Node2&#45;&gt;Node3</title>
<path fill="none" stroke="midnightblue" d="M161.51,-56.4C146.11,-46.95 125.91,-34.56 110.5,-25.11"/>
<polygon fill="midnightblue" stroke="midnightblue" points="111.97,-21.9 101.61,-19.66 108.31,-27.87 111.97,-21.9"/>
</g>
<!-- Node4 -->
<g id="node4" class="node">
<title>Node4</title>
<g id="a_node4"><a xlink:title=" ">
<polygon fill="white" stroke="#bfbfbf" points="146.5,-0.5 146.5,-19.5 190.5,-19.5 190.5,-0.5 146.5,-0.5"/>
<text text-anchor="middle" x="168.5" y="-7.5" font-family="Helvetica,sans-Serif" font-size="10.00">string</text>
</a>
</g>
</g>
<!-- Node2&#45;&gt;Node4 -->
<g id="edge3" class="edge">
<title>Node2&#45;&gt;Node4</title>
<path fill="none" stroke="midnightblue" d="M180.71,-56.4C178.55,-48.38 175.82,-38.23 173.49,-29.57"/>
<polygon fill="midnightblue" stroke="midnightblue" points="176.8,-28.41 170.83,-19.66 170.05,-30.22 176.8,-28.41"/>
</g>
<!-- Node6&#45;&gt;Node3 -->
<g id="edge6" class="edge">
<title>Node6&#45;&gt;Node3</title>
<path fill="none" stroke="midnightblue" d="M63.08,-56.4C67.54,-48.11 73.22,-37.55 77.98,-28.71"/>
<polygon fill="midnightblue" stroke="midnightblue" points="81.19,-30.12 82.84,-19.66 75.02,-26.81 81.19,-30.12"/>
</g>
<!-- Node6&#45;&gt;Node4 -->
<g id="edge7" class="edge">
<title>Node6&#45;&gt;Node4</title>
<path fill="none" stroke="midnightblue" d="M82.28,-56.4C100.56,-46.77 124.65,-34.09 142.71,-24.58"/>
<polygon fill="midnightblue" stroke="midnightblue" points="144.84,-27.41 152.06,-19.66 141.58,-21.22 144.84,-27.41"/>
</g>
</g>
</svg>
