<?xml version="1.0" encoding="UTF-8" standalone="no"?>
<!DOCTYPE svg PUBLIC "-//W3C//DTD SVG 1.1//EN"
 "http://www.w3.org/Graphics/SVG/1.1/DTD/svg11.dtd">
<!-- Generated by graphviz version 2.43.0 (0)
 -->
<!-- Title: joda::query::RegexProvider Pages: 1 -->
<svg width="603pt" height="260pt"
 viewBox="0.00 0.00 602.72 260.00" xmlns="http://www.w3.org/2000/svg" xmlns:xlink="http://www.w3.org/1999/xlink">
<g id="graph0" class="graph" transform="scale(1 1) rotate(0) translate(4 256)">
<title>joda::query::RegexProvider</title>
<polygon fill="white" stroke="transparent" points="-4,4 -4,-256 598.72,-256 598.72,4 -4,4"/>
<!-- Node1 -->
<g id="node1" class="node">
<title>Node1</title>
<g id="a_node1"><a xlink:title=" ">
<polygon fill="#bfbfbf" stroke="black" points="56.72,-84 56.72,-103 204.72,-103 204.72,-84 56.72,-84"/>
<text text-anchor="middle" x="130.72" y="-91" font-family="Helvetica,sans-Serif" font-size="10.00">joda::query::RegexProvider</text>
</a>
</g>
</g>
<!-- Node2 -->
<g id="node2" class="node">
<title>Node2</title>
<g id="a_node2"><a xlink:href="../../d4/df5/classjoda_1_1query_1_1IValueProvider.html" target="_top" xlink:title=" ">
<polygon fill="white" stroke="black" points="57.22,-165.5 57.22,-184.5 204.22,-184.5 204.22,-165.5 57.22,-165.5"/>
<text text-anchor="middle" x="130.72" y="-172.5" font-family="Helvetica,sans-Serif" font-size="10.00">joda::query::IValueProvider</text>
</a>
</g>
</g>
<!-- Node2&#45;&gt;Node1 -->
<g id="edge1" class="edge">
<title>Node2&#45;&gt;Node1</title>
<path fill="none" stroke="midnightblue" d="M130.72,-155.41C130.72,-138.95 130.72,-115.66 130.72,-103.19"/>
<polygon fill="midnightblue" stroke="midnightblue" points="127.22,-155.49 130.72,-165.49 134.22,-155.49 127.22,-155.49"/>
</g>
<!-- Node4 -->
<g id="node4" class="node">
<title>Node4</title>
<g id="a_node4"><a xlink:title=" ">
<polygon fill="white" stroke="#bfbfbf" points="223.22,-78.5 223.22,-108.5 360.22,-108.5 360.22,-78.5 223.22,-78.5"/>
<text text-anchor="start" x="231.22" y="-96.5" font-family="Helvetica,sans-Serif" font-size="10.00">std::unique_ptr&lt; joda</text>
<text text-anchor="middle" x="291.72" y="-85.5" font-family="Helvetica,sans-Serif" font-size="10.00">::query::IValueProvider &gt;</text>
</a>
</g>
</g>
<!-- Node2&#45;&gt;Node4 -->
<g id="edge4" class="edge">
<title>Node2&#45;&gt;Node4</title>
<path fill="none" stroke="#9a32cd" stroke-dasharray="5,2" d="M157.13,-160.96C186.35,-146.53 233.27,-123.36 263.28,-108.54"/>
<polygon fill="#9a32cd" stroke="#9a32cd" points="155.36,-157.93 147.95,-165.49 158.46,-164.2 155.36,-157.93"/>
<text text-anchor="middle" x="234.22" y="-134.5" font-family="Helvetica,sans-Serif" font-size="10.00"> ptr</text>
</g>
<!-- Node3 -->
<g id="node3" class="node">
<title>Node3</title>
<g id="a_node3"><a xlink:title=" ">
<polygon fill="white" stroke="#bfbfbf" points="191.72,-0.5 191.72,-30.5 391.72,-30.5 391.72,-0.5 191.72,-0.5"/>
<text text-anchor="start" x="199.72" y="-18.5" font-family="Helvetica,sans-Serif" font-size="10.00">std::vector&lt; std::unique</text>
<text text-anchor="middle" x="291.72" y="-7.5" font-family="Helvetica,sans-Serif" font-size="10.00">_ptr&lt; joda::query::IValueProvider &gt; &gt;</text>
</a>
</g>
</g>
<!-- Node3&#45;&gt;Node2 -->
<g id="edge2" class="edge">
<title>Node3&#45;&gt;Node2</title>
<path fill="none" stroke="#9a32cd" stroke-dasharray="5,2" d="M181.29,-26.26C111.19,-35 29.68,-50.77 7.72,-78 -24.09,-117.43 56.2,-150.48 101.8,-165.43"/>
<polygon fill="#9a32cd" stroke="#9a32cd" points="182.03,-29.69 191.54,-25.02 181.19,-22.74 182.03,-29.69"/>
<text text-anchor="middle" x="27.72" y="-91" font-family="Helvetica,sans-Serif" font-size="10.00"> params</text>
</g>
<!-- Node4&#45;&gt;Node3 -->
<g id="edge3" class="edge">
<title>Node4&#45;&gt;Node3</title>
<path fill="none" stroke="#9a32cd" stroke-dasharray="5,2" d="M291.72,-68.09C291.72,-55.76 291.72,-41.22 291.72,-30.73"/>
<polygon fill="#9a32cd" stroke="#9a32cd" points="288.22,-68.2 291.72,-78.2 295.22,-68.21 288.22,-68.2"/>
<text text-anchor="middle" x="316.22" y="-52" font-family="Helvetica,sans-Serif" font-size="10.00"> elements</text>
</g>
<!-- Node5 -->
<g id="node5" class="node">
<title>Node5</title>
<g id="a_node5"><a xlink:title="STL class.">
<polygon fill="white" stroke="#bfbfbf" points="245.72,-165.5 245.72,-184.5 363.72,-184.5 363.72,-165.5 245.72,-165.5"/>
<text text-anchor="middle" x="304.72" y="-172.5" font-family="Helvetica,sans-Serif" font-size="10.00">std::unique_ptr&lt; T &gt;</text>
</a>
</g>
</g>
<!-- Node5&#45;&gt;Node4 -->
<g id="edge5" class="edge">
<title>Node5&#45;&gt;Node4</title>
<path fill="none" stroke="orange" stroke-dasharray="5,2" d="M277.24,-159.46C273,-155.97 269.21,-151.82 266.72,-147 260.14,-134.26 268.55,-119.5 277.35,-108.88"/>
<polygon fill="orange" stroke="orange" points="275.52,-162.53 285.72,-165.39 279.53,-156.79 275.52,-162.53"/>
<text text-anchor="middle" x="345.22" y="-134.5" font-family="Helvetica,sans-Serif" font-size="10.00"> &lt; joda::query::IValueProvider &gt;</text>
</g>
<!-- Node6 -->
<g id="node6" class="node">
<title>Node6</title>
<g id="a_node6"><a xlink:title=" ">
<polygon fill="white" stroke="#bfbfbf" points="345.22,-232.5 345.22,-251.5 374.22,-251.5 374.22,-232.5 345.22,-232.5"/>
<text text-anchor="middle" x="359.72" y="-239.5" font-family="Helvetica,sans-Serif" font-size="10.00">T</text>
</a>
</g>
</g>
<!-- Node6&#45;&gt;Node5 -->
<g id="edge6" class="edge">
<title>Node6&#45;&gt;Node5</title>
<path fill="none" stroke="#9a32cd" stroke-dasharray="5,2" d="M345.56,-224.27C334.84,-211.6 320.54,-194.7 312.02,-184.63"/>
<polygon fill="#9a32cd" stroke="#9a32cd" points="343.17,-226.86 352.3,-232.23 348.51,-222.34 343.17,-226.86"/>
<text text-anchor="middle" x="343.22" y="-206" font-family="Helvetica,sans-Serif" font-size="10.00"> ptr</text>
</g>
<!-- Node7 -->
<g id="node7" class="node">
<title>Node7</title>
<g id="a_node7"><a xlink:title="STL class.">
<polygon fill="white" stroke="#bfbfbf" points="432.22,-127.5 432.22,-146.5 529.22,-146.5 529.22,-127.5 432.22,-127.5"/>
<text text-anchor="middle" x="480.72" y="-134.5" font-family="Helvetica,sans-Serif" font-size="10.00">std::vector&lt; T &gt;</text>
</a>
</g>
</g>
<!-- Node6&#45;&gt;Node7 -->
<g id="edge8" class="edge">
<title>Node6&#45;&gt;Node7</title>
<path fill="none" stroke="#9a32cd" stroke-dasharray="5,2" d="M377.92,-225.51C403.68,-203.58 449.91,-164.22 470.43,-146.76"/>
<polygon fill="#9a32cd" stroke="#9a32cd" points="375.38,-223.07 370.03,-232.22 379.92,-228.4 375.38,-223.07"/>
<text text-anchor="middle" x="426.22" y="-206" font-family="Helvetica,sans-Serif" font-size="10.00"> elements</text>
</g>
<!-- Node7&#45;&gt;Node3 -->
<g id="edge7" class="edge">
<title>Node7&#45;&gt;Node3</title>
<path fill="none" stroke="orange" stroke-dasharray="5,2" d="M458.64,-121.69C431.8,-104.35 385.09,-74.29 344.72,-49 335.02,-42.93 324.27,-36.31 315,-30.64"/>
<polygon fill="orange" stroke="orange" points="456.96,-124.78 467.26,-127.27 460.76,-118.9 456.96,-124.78"/>
<text text-anchor="start" x="437.72" y="-96.5" font-family="Helvetica,sans-Serif" font-size="10.00"> &lt; std::unique_ptr&lt;</text>
<text text-anchor="middle" x="516.22" y="-85.5" font-family="Helvetica,sans-Serif" font-size="10.00"> joda::query::IValueProvider &gt; &gt;</text>
</g>
</g>
</svg>
