<?xml version="1.0" encoding="UTF-8" standalone="no"?>
<!DOCTYPE svg PUBLIC "-//W3C//DTD SVG 1.1//EN"
 "http://www.w3.org/Graphics/SVG/1.1/DTD/svg11.dtd">
<!-- Generated by graphviz version 2.43.0 (0)
 -->
<!-- Title: /home/nico/projects/JODA&#45;gh/libs/joda/core/modules/network/include/joda/network/JodaServer.h Pages: 1 -->
<!--zoomable 239 -->
<svg id="main" version="1.1" xmlns="http://www.w3.org/2000/svg" xmlns:xlink="http://www.w3.org/1999/xlink" xml:space="preserve" onload="init(evt)">
<style type="text/css"><![CDATA[
.edge:hover path { stroke: red; }
.edge:hover polygon { stroke: red; fill: red; }
]]></style>
<script type="text/javascript"><![CDATA[
var edges = document.getElementsByTagName('g');
if (edges && edges.length) {
  for (var i=0;i<edges.length;i++) {
    if (edges[i].id.substr(0,4)=='edge') {
      edges[i].setAttribute('class','edge');
    }
  }
}
]]></script>
        <defs>
                <circle id="rim" cx="0" cy="0" r="7"/>
                <circle id="rim2" cx="0" cy="0" r="3.5"/>
                <g id="zoomPlus">
                        <use xlink:href="#rim" fill="#404040">
                                <set attributeName="fill" to="#808080" begin="zoomplus.mouseover" end="zoomplus.mouseout"/>
                        </use>
                        <path d="M-4,0h8M0,-4v8" fill="none" stroke="white" stroke-width="1.5" pointer-events="none"/>
                </g>
                <g id="zoomMin">
                        <use xlink:href="#rim" fill="#404040">
                                <set attributeName="fill" to="#808080" begin="zoomminus.mouseover" end="zoomminus.mouseout"/>
                        </use>
                        <path d="M-4,0h8" fill="none" stroke="white" stroke-width="1.5" pointer-events="none"/>
                </g>
                <g id="dirArrow">
                        <path fill="none" stroke="white" stroke-width="1.5" d="M0,-3.0v7 M-2.5,-0.5L0,-3.0L2.5,-0.5"/>
                </g>
               <g id="resetDef">
                       <use xlink:href="#rim2" fill="#404040">
                               <set attributeName="fill" to="#808080" begin="reset.mouseover" end="reset.mouseout"/>
                       </use>
               </g>
        </defs>

<script type="text/javascript">
var viewWidth = 1510;
var viewHeight = 239;
var sectionId = 'dynsection-1';
</script>
<script xlink:href="../../svgpan.js"/>
<svg id="graph" class="graph">
<g id="viewport">
<title>/home/nico/projects/JODA&#45;gh/libs/joda/core/modules/network/include/joda/network/JodaServer.h</title>
<polygon fill="white" stroke="transparent" points="-4,4 -4,-235 1506,-235 1506,4 -4,4"/>
<!-- Node1 -->
<g id="node1" class="node">
<title>Node1</title>
<g id="a_node1"><a xlink:title=" ">
<polygon fill="#bfbfbf" stroke="black" points="756.5,-178.5 756.5,-230.5 903.5,-230.5 903.5,-178.5 756.5,-178.5"/>
<text text-anchor="start" x="764.5" y="-218.5" font-family="Helvetica,sans-Serif" font-size="10.00">/home/nico/projects</text>
<text text-anchor="start" x="764.5" y="-207.5" font-family="Helvetica,sans-Serif" font-size="10.00">/JODA&#45;gh/libs/joda/core</text>
<text text-anchor="start" x="764.5" y="-196.5" font-family="Helvetica,sans-Serif" font-size="10.00">/modules/network/include</text>
<text text-anchor="middle" x="830" y="-185.5" font-family="Helvetica,sans-Serif" font-size="10.00">/joda/network/JodaServer.h</text>
</a>
</g>
</g>
<!-- Node2 -->
<g id="node2" class="node">
<title>Node2</title>
<g id="a_node2"><a xlink:href="../../dd/d11/API_8h.html" target="_top" xlink:title=" ">
<polygon fill="white" stroke="black" points="554.5,-89.5 554.5,-141.5 697.5,-141.5 697.5,-89.5 554.5,-89.5"/>
<text text-anchor="start" x="562.5" y="-129.5" font-family="Helvetica,sans-Serif" font-size="10.00">/home/nico/projects</text>
<text text-anchor="start" x="562.5" y="-118.5" font-family="Helvetica,sans-Serif" font-size="10.00">/JODA&#45;gh/libs/joda/core</text>
<text text-anchor="start" x="562.5" y="-107.5" font-family="Helvetica,sans-Serif" font-size="10.00">/modules/network/include</text>
<text text-anchor="middle" x="626" y="-96.5" font-family="Helvetica,sans-Serif" font-size="10.00">/joda/network/apiv2/API.h</text>
</a>
</g>
</g>
<!-- Node1&#45;&gt;Node2 -->
<g id="edge1" class="edge">
<title>Node1&#45;&gt;Node2</title>
<path fill="none" stroke="midnightblue" d="M761.85,-174.44C736.84,-163.77 708.77,-151.8 684.67,-141.52"/>
<polygon fill="midnightblue" stroke="midnightblue" points="760.7,-177.75 771.27,-178.45 763.44,-171.31 760.7,-177.75"/>
</g>
<!-- Node4 -->
<g id="node4" class="node">
<title>Node4</title>
<g id="a_node4"><a xlink:href="../../d4/dbf/JodaQueryRequest_8cpp.html" target="_top" xlink:title=" ">
<polygon fill="white" stroke="black" points="720,-0.5 720,-52.5 872,-52.5 872,-0.5 720,-0.5"/>
<text text-anchor="start" x="728" y="-40.5" font-family="Helvetica,sans-Serif" font-size="10.00">/home/nico/projects</text>
<text text-anchor="start" x="728" y="-29.5" font-family="Helvetica,sans-Serif" font-size="10.00">/JODA&#45;gh/libs/joda/core</text>
<text text-anchor="start" x="728" y="-18.5" font-family="Helvetica,sans-Serif" font-size="10.00">/modules/network/src/apiv2</text>
<text text-anchor="middle" x="796" y="-7.5" font-family="Helvetica,sans-Serif" font-size="10.00">/JodaQueryRequest.cpp</text>
</a>
</g>
</g>
<!-- Node1&#45;&gt;Node4 -->
<g id="edge18" class="edge">
<title>Node1&#45;&gt;Node4</title>
<path fill="none" stroke="midnightblue" d="M771.2,-172.41C760.64,-164.02 751.07,-153.89 745,-142 734.29,-121.02 737.01,-111.16 745,-89 749.85,-75.56 759.05,-62.98 768.32,-52.74"/>
<polygon fill="midnightblue" stroke="midnightblue" points="769.31,-175.36 779.43,-178.49 773.47,-169.73 769.31,-175.36"/>
</g>
<!-- Node5 -->
<g id="node5" class="node">
<title>Node5</title>
<g id="a_node5"><a xlink:href="../../dc/de1/JodaServer_8cpp.html" target="_top" xlink:title=" ">
<polygon fill="white" stroke="black" points="890.5,-6 890.5,-47 1087.5,-47 1087.5,-6 890.5,-6"/>
<text text-anchor="start" x="898.5" y="-35" font-family="Helvetica,sans-Serif" font-size="10.00">/home/nico/projects</text>
<text text-anchor="start" x="898.5" y="-24" font-family="Helvetica,sans-Serif" font-size="10.00">/JODA&#45;gh/libs/joda/core</text>
<text text-anchor="middle" x="989" y="-13" font-family="Helvetica,sans-Serif" font-size="10.00">/modules/network/src/JodaServer.cpp</text>
</a>
</g>
</g>
<!-- Node1&#45;&gt;Node5 -->
<g id="edge21" class="edge">
<title>Node1&#45;&gt;Node5</title>
<path fill="none" stroke="midnightblue" d="M879.43,-172.45C891.79,-163.46 904.51,-153.06 915,-142 929.74,-126.46 960.63,-75.66 977.46,-47.22"/>
<polygon fill="midnightblue" stroke="midnightblue" points="877.1,-169.81 870.96,-178.44 881.14,-175.52 877.1,-169.81"/>
</g>
<!-- Node7 -->
<g id="node7" class="node">
<title>Node7</title>
<g id="a_node7"><a xlink:href="../../dd/da0/DeleteRequest_8h.html" target="_top" xlink:title=" ">
<polygon fill="white" stroke="black" points="202,-89.5 202,-141.5 354,-141.5 354,-89.5 202,-89.5"/>
<text text-anchor="start" x="210" y="-129.5" font-family="Helvetica,sans-Serif" font-size="10.00">/home/nico/projects</text>
<text text-anchor="start" x="210" y="-118.5" font-family="Helvetica,sans-Serif" font-size="10.00">/JODA&#45;gh/libs/joda/core</text>
<text text-anchor="start" x="210" y="-107.5" font-family="Helvetica,sans-Serif" font-size="10.00">/modules/network/src/apiv2</text>
<text text-anchor="middle" x="278" y="-96.5" font-family="Helvetica,sans-Serif" font-size="10.00">/DeleteRequest.h</text>
</a>
</g>
</g>
<!-- Node1&#45;&gt;Node7 -->
<g id="edge6" class="edge">
<title>Node1&#45;&gt;Node7</title>
<path fill="none" stroke="midnightblue" d="M746.21,-195.49C654.15,-185.93 502.18,-167.92 373,-142 366.81,-140.76 360.42,-139.34 354.02,-137.83"/>
<polygon fill="midnightblue" stroke="midnightblue" points="746,-198.99 756.3,-196.53 746.72,-192.02 746,-198.99"/>
</g>
<!-- Node9 -->
<g id="node9" class="node">
<title>Node9</title>
<g id="a_node9"><a xlink:href="../../d4/d94/JodaQueryRequest_8h.html" target="_top" xlink:title=" ">
<polygon fill="white" stroke="black" points="754,-89.5 754,-141.5 906,-141.5 906,-89.5 754,-89.5"/>
<text text-anchor="start" x="762" y="-129.5" font-family="Helvetica,sans-Serif" font-size="10.00">/home/nico/projects</text>
<text text-anchor="start" x="762" y="-118.5" font-family="Helvetica,sans-Serif" font-size="10.00">/JODA&#45;gh/libs/joda/core</text>
<text text-anchor="start" x="762" y="-107.5" font-family="Helvetica,sans-Serif" font-size="10.00">/modules/network/src/apiv2</text>
<text text-anchor="middle" x="830" y="-96.5" font-family="Helvetica,sans-Serif" font-size="10.00">/JodaQueryRequest.h</text>
</a>
</g>
</g>
<!-- Node1&#45;&gt;Node9 -->
<g id="edge10" class="edge">
<title>Node1&#45;&gt;Node9</title>
<path fill="none" stroke="midnightblue" d="M830,-168.19C830,-159.28 830,-149.9 830,-141.61"/>
<polygon fill="midnightblue" stroke="midnightblue" points="826.5,-168.34 830,-178.34 833.5,-168.34 826.5,-168.34"/>
</g>
<!-- Node10 -->
<g id="node10" class="node">
<title>Node10</title>
<g id="a_node10"><a xlink:href="../../d6/d75/SystemRequest_8h.html" target="_top" xlink:title=" ">
<polygon fill="white" stroke="black" points="382,-89.5 382,-141.5 534,-141.5 534,-89.5 382,-89.5"/>
<text text-anchor="start" x="390" y="-129.5" font-family="Helvetica,sans-Serif" font-size="10.00">/home/nico/projects</text>
<text text-anchor="start" x="390" y="-118.5" font-family="Helvetica,sans-Serif" font-size="10.00">/JODA&#45;gh/libs/joda/core</text>
<text text-anchor="start" x="390" y="-107.5" font-family="Helvetica,sans-Serif" font-size="10.00">/modules/network/src/apiv2</text>
<text text-anchor="middle" x="458" y="-96.5" font-family="Helvetica,sans-Serif" font-size="10.00">/SystemRequest.h</text>
</a>
</g>
</g>
<!-- Node1&#45;&gt;Node10 -->
<g id="edge14" class="edge">
<title>Node1&#45;&gt;Node10</title>
<path fill="none" stroke="midnightblue" d="M746.4,-187.12C689.4,-175.55 612.34,-159.11 545,-142 541.49,-141.11 537.91,-140.17 534.3,-139.2"/>
<polygon fill="midnightblue" stroke="midnightblue" points="745.94,-190.6 756.44,-189.15 747.33,-183.74 745.94,-190.6"/>
</g>
<!-- Node12 -->
<g id="node12" class="node">
<title>Node12</title>
<g id="a_node12"><a xlink:href="../../d4/d88/JodaResultRequest_8cpp.html" target="_top" xlink:title=" ">
<polygon fill="white" stroke="black" points="962,-89.5 962,-141.5 1114,-141.5 1114,-89.5 962,-89.5"/>
<text text-anchor="start" x="970" y="-129.5" font-family="Helvetica,sans-Serif" font-size="10.00">/home/nico/projects</text>
<text text-anchor="start" x="970" y="-118.5" font-family="Helvetica,sans-Serif" font-size="10.00">/JODA&#45;gh/libs/joda/core</text>
<text text-anchor="start" x="970" y="-107.5" font-family="Helvetica,sans-Serif" font-size="10.00">/modules/network/src/apiv2</text>
<text text-anchor="middle" x="1038" y="-96.5" font-family="Helvetica,sans-Serif" font-size="10.00">/JodaResultRequest.cpp</text>
</a>
</g>
</g>
<!-- Node1&#45;&gt;Node12 -->
<g id="edge19" class="edge">
<title>Node1&#45;&gt;Node12</title>
<path fill="none" stroke="midnightblue" d="M899.15,-174.58C924.73,-163.88 953.5,-151.85 978.18,-141.52"/>
<polygon fill="midnightblue" stroke="midnightblue" points="897.76,-171.36 889.88,-178.45 900.46,-177.82 897.76,-171.36"/>
</g>
<!-- Node13 -->
<g id="node13" class="node">
<title>Node13</title>
<g id="a_node13"><a xlink:href="../../db/d5f/JodaSourceRequest_8cpp.html" target="_top" xlink:title=" ">
<polygon fill="white" stroke="black" points="1132,-89.5 1132,-141.5 1284,-141.5 1284,-89.5 1132,-89.5"/>
<text text-anchor="start" x="1140" y="-129.5" font-family="Helvetica,sans-Serif" font-size="10.00">/home/nico/projects</text>
<text text-anchor="start" x="1140" y="-118.5" font-family="Helvetica,sans-Serif" font-size="10.00">/JODA&#45;gh/libs/joda/core</text>
<text text-anchor="start" x="1140" y="-107.5" font-family="Helvetica,sans-Serif" font-size="10.00">/modules/network/src/apiv2</text>
<text text-anchor="middle" x="1208" y="-96.5" font-family="Helvetica,sans-Serif" font-size="10.00">/JodaSourceRequest.cpp</text>
</a>
</g>
</g>
<!-- Node1&#45;&gt;Node13 -->
<g id="edge20" class="edge">
<title>Node1&#45;&gt;Node13</title>
<path fill="none" stroke="midnightblue" d="M913.54,-187.92C972.39,-176.46 1052.88,-159.84 1123,-142 1125.84,-141.28 1128.72,-140.52 1131.63,-139.74"/>
<polygon fill="midnightblue" stroke="midnightblue" points="912.7,-184.51 903.55,-189.85 914.03,-191.39 912.7,-184.51"/>
</g>
<!-- Node14 -->
<g id="node14" class="node">
<title>Node14</title>
<g id="a_node14"><a xlink:href="../../d5/d31/ServerTest_8cpp.html" target="_top" xlink:title=" ">
<polygon fill="white" stroke="black" points="1302,-95 1302,-136 1502,-136 1502,-95 1302,-95"/>
<text text-anchor="start" x="1310" y="-124" font-family="Helvetica,sans-Serif" font-size="10.00">/home/nico/projects</text>
<text text-anchor="start" x="1310" y="-113" font-family="Helvetica,sans-Serif" font-size="10.00">/JODA&#45;gh/libs/joda/core</text>
<text text-anchor="middle" x="1402" y="-102" font-family="Helvetica,sans-Serif" font-size="10.00">/modules/network/test/ServerTest.cpp</text>
</a>
</g>
</g>
<!-- Node1&#45;&gt;Node14 -->
<g id="edge22" class="edge">
<title>Node1&#45;&gt;Node14</title>
<path fill="none" stroke="midnightblue" d="M913.92,-194.85C1006.98,-184.68 1161.34,-166.09 1293,-142 1302.65,-140.23 1312.74,-138.17 1322.71,-136"/>
<polygon fill="midnightblue" stroke="midnightblue" points="913.28,-191.4 903.72,-195.96 914.04,-198.36 913.28,-191.4"/>
</g>
<!-- Node3 -->
<g id="node3" class="node">
<title>Node3</title>
<g id="a_node3"><a xlink:href="../../d8/df6/API_8cpp.html" target="_top" xlink:title=" ">
<polygon fill="white" stroke="black" points="550,-0.5 550,-52.5 702,-52.5 702,-0.5 550,-0.5"/>
<text text-anchor="start" x="558" y="-40.5" font-family="Helvetica,sans-Serif" font-size="10.00">/home/nico/projects</text>
<text text-anchor="start" x="558" y="-29.5" font-family="Helvetica,sans-Serif" font-size="10.00">/JODA&#45;gh/libs/joda/core</text>
<text text-anchor="start" x="558" y="-18.5" font-family="Helvetica,sans-Serif" font-size="10.00">/modules/network/src/apiv2</text>
<text text-anchor="middle" x="626" y="-7.5" font-family="Helvetica,sans-Serif" font-size="10.00">/API.cpp</text>
</a>
</g>
</g>
<!-- Node2&#45;&gt;Node3 -->
<g id="edge2" class="edge">
<title>Node2&#45;&gt;Node3</title>
<path fill="none" stroke="midnightblue" d="M626,-79.19C626,-70.28 626,-60.9 626,-52.61"/>
<polygon fill="midnightblue" stroke="midnightblue" points="622.5,-79.34 626,-89.34 629.5,-79.34 622.5,-79.34"/>
</g>
<!-- Node2&#45;&gt;Node4 -->
<g id="edge3" class="edge">
<title>Node2&#45;&gt;Node4</title>
<path fill="none" stroke="midnightblue" d="M684.08,-84.78C704.53,-74.31 727.3,-62.66 746.94,-52.61"/>
<polygon fill="midnightblue" stroke="midnightblue" points="682.48,-81.66 675.17,-89.34 685.67,-87.9 682.48,-81.66"/>
</g>
<!-- Node2&#45;&gt;Node5 -->
<g id="edge4" class="edge">
<title>Node2&#45;&gt;Node5</title>
<path fill="none" stroke="midnightblue" d="M707.49,-94.97C767.21,-80.66 847.93,-61.31 907.62,-47"/>
<polygon fill="midnightblue" stroke="midnightblue" points="706.63,-91.58 697.72,-97.31 708.26,-98.38 706.63,-91.58"/>
</g>
<!-- Node6 -->
<g id="node6" class="node">
<title>Node6</title>
<g id="a_node6"><a xlink:href="../../dd/d71/API2Test_8cpp.html" target="_top" xlink:title=" ">
<polygon fill="white" stroke="black" points="170.5,-6 170.5,-47 361.5,-47 361.5,-6 170.5,-6"/>
<text text-anchor="start" x="178.5" y="-35" font-family="Helvetica,sans-Serif" font-size="10.00">/home/nico/projects</text>
<text text-anchor="start" x="178.5" y="-24" font-family="Helvetica,sans-Serif" font-size="10.00">/JODA&#45;gh/libs/joda/core</text>
<text text-anchor="middle" x="266" y="-13" font-family="Helvetica,sans-Serif" font-size="10.00">/modules/network/test/API2Test.cpp</text>
</a>
</g>
</g>
<!-- Node2&#45;&gt;Node6 -->
<g id="edge5" class="edge">
<title>Node2&#45;&gt;Node6</title>
<path fill="none" stroke="midnightblue" d="M544.37,-89.36C543.91,-89.24 543.46,-89.12 543,-89 467.37,-69.51 447.18,-70.22 371,-53 362.67,-51.12 353.99,-49.1 345.34,-47.05"/>
<polygon fill="midnightblue" stroke="midnightblue" points="543.57,-92.76 554.13,-91.98 545.39,-86 543.57,-92.76"/>
</g>
<!-- Node7&#45;&gt;Node3 -->
<g id="edge7" class="edge">
<title>Node7&#45;&gt;Node3</title>
<path fill="none" stroke="midnightblue" d="M363.95,-91.22C367,-90.46 370.02,-89.72 373,-89 447.23,-71.1 467.04,-71.99 541,-53 543.84,-52.27 546.72,-51.51 549.63,-50.73"/>
<polygon fill="midnightblue" stroke="midnightblue" points="362.97,-87.86 354.13,-93.7 364.69,-94.64 362.97,-87.86"/>
</g>
<!-- Node7&#45;&gt;Node6 -->
<g id="edge9" class="edge">
<title>Node7&#45;&gt;Node6</title>
<path fill="none" stroke="midnightblue" d="M273.12,-79.16C271.62,-68.21 270.01,-56.55 268.7,-47.08"/>
<polygon fill="midnightblue" stroke="midnightblue" points="269.7,-79.91 274.53,-89.34 276.63,-78.95 269.7,-79.91"/>
</g>
<!-- Node8 -->
<g id="node8" class="node">
<title>Node8</title>
<g id="a_node8"><a xlink:href="../../d6/dee/DeleteRequest_8cpp.html" target="_top" xlink:title=" ">
<polygon fill="white" stroke="black" points="0,-0.5 0,-52.5 152,-52.5 152,-0.5 0,-0.5"/>
<text text-anchor="start" x="8" y="-40.5" font-family="Helvetica,sans-Serif" font-size="10.00">/home/nico/projects</text>
<text text-anchor="start" x="8" y="-29.5" font-family="Helvetica,sans-Serif" font-size="10.00">/JODA&#45;gh/libs/joda/core</text>
<text text-anchor="start" x="8" y="-18.5" font-family="Helvetica,sans-Serif" font-size="10.00">/modules/network/src/apiv2</text>
<text text-anchor="middle" x="76" y="-7.5" font-family="Helvetica,sans-Serif" font-size="10.00">/DeleteRequest.cpp</text>
</a>
</g>
</g>
<!-- Node7&#45;&gt;Node8 -->
<g id="edge8" class="edge">
<title>Node7&#45;&gt;Node8</title>
<path fill="none" stroke="midnightblue" d="M210.52,-85.44C185.76,-74.77 157.96,-62.8 134.09,-52.52"/>
<polygon fill="midnightblue" stroke="midnightblue" points="209.28,-88.71 219.84,-89.45 212.04,-82.28 209.28,-88.71"/>
</g>
<!-- Node9&#45;&gt;Node3 -->
<g id="edge11" class="edge">
<title>Node9&#45;&gt;Node3</title>
<path fill="none" stroke="midnightblue" d="M761.85,-85.44C736.84,-74.77 708.77,-62.8 684.67,-52.52"/>
<polygon fill="midnightblue" stroke="midnightblue" points="760.7,-88.75 771.27,-89.45 763.44,-82.31 760.7,-88.75"/>
</g>
<!-- Node9&#45;&gt;Node4 -->
<g id="edge12" class="edge">
<title>Node9&#45;&gt;Node4</title>
<path fill="none" stroke="midnightblue" d="M816.43,-79.77C812.88,-70.69 809.12,-61.08 805.81,-52.61"/>
<polygon fill="midnightblue" stroke="midnightblue" points="813.27,-81.3 820.17,-89.34 819.79,-78.75 813.27,-81.3"/>
</g>
<!-- Node9&#45;&gt;Node5 -->
<g id="edge13" class="edge">
<title>Node9&#45;&gt;Node5</title>
<path fill="none" stroke="midnightblue" d="M884.83,-84.5C907.46,-72.12 933.06,-58.11 953.21,-47.08"/>
<polygon fill="midnightblue" stroke="midnightblue" points="883.08,-81.47 875.99,-89.34 886.44,-87.61 883.08,-81.47"/>
</g>
<!-- Node10&#45;&gt;Node3 -->
<g id="edge15" class="edge">
<title>Node10&#45;&gt;Node3</title>
<path fill="none" stroke="midnightblue" d="M515.67,-84.64C535.81,-74.2 558.2,-62.61 577.52,-52.61"/>
<polygon fill="midnightblue" stroke="midnightblue" points="513.86,-81.63 506.59,-89.34 517.08,-87.85 513.86,-81.63"/>
</g>
<!-- Node10&#45;&gt;Node6 -->
<g id="edge17" class="edge">
<title>Node10&#45;&gt;Node6</title>
<path fill="none" stroke="midnightblue" d="M393.5,-85.27C365.79,-72.72 334.16,-58.38 309.33,-47.13"/>
<polygon fill="midnightblue" stroke="midnightblue" points="392.17,-88.51 402.72,-89.45 395.06,-82.14 392.17,-88.51"/>
</g>
<!-- Node11 -->
<g id="node11" class="node">
<title>Node11</title>
<g id="a_node11"><a xlink:href="../../da/d10/SystemRequest_8cpp.html" target="_top" xlink:title=" ">
<polygon fill="white" stroke="black" points="380,-0.5 380,-52.5 532,-52.5 532,-0.5 380,-0.5"/>
<text text-anchor="start" x="388" y="-40.5" font-family="Helvetica,sans-Serif" font-size="10.00">/home/nico/projects</text>
<text text-anchor="start" x="388" y="-29.5" font-family="Helvetica,sans-Serif" font-size="10.00">/JODA&#45;gh/libs/joda/core</text>
<text text-anchor="start" x="388" y="-18.5" font-family="Helvetica,sans-Serif" font-size="10.00">/modules/network/src/apiv2</text>
<text text-anchor="middle" x="456" y="-7.5" font-family="Helvetica,sans-Serif" font-size="10.00">/SystemRequest.cpp</text>
</a>
</g>
</g>
<!-- Node10&#45;&gt;Node11 -->
<g id="edge16" class="edge">
<title>Node10&#45;&gt;Node11</title>
<path fill="none" stroke="midnightblue" d="M457.19,-79.19C456.98,-70.28 456.77,-60.9 456.58,-52.61"/>
<polygon fill="midnightblue" stroke="midnightblue" points="453.69,-79.42 457.42,-89.34 460.69,-79.26 453.69,-79.42"/>
</g>
</g>
</svg>
        <g id="navigator" transform="translate(0 0)" fill="#404254">
                <rect fill="#f2f5e9" fill-opacity="0.5" stroke="#606060" stroke-width=".5" x="0" y="0" width="60" height="60"/>
                <use id="zoomplus" xlink:href="#zoomPlus" x="17" y="9" onmousedown="handleZoom(evt,'in')"/>
                <use id="zoomminus" xlink:href="#zoomMin" x="42" y="9" onmousedown="handleZoom(evt,'out')"/>
                <use id="reset" xlink:href="#resetDef" x="30" y="36" onmousedown="handleReset()"/>
                <g id="arrowUp" xlink:href="#dirArrow" transform="translate(30 24)" onmousedown="handlePan(0,-1)">
                  <use xlink:href="#rim" fill="#404040">
                        <set attributeName="fill" to="#808080" begin="arrowUp.mouseover" end="arrowUp.mouseout"/>
                  </use>
                  <path fill="none" stroke="white" stroke-width="1.5" d="M0,-3.0v7 M-2.5,-0.5L0,-3.0L2.5,-0.5"/>
                </g>
                <g id="arrowRight" xlink:href="#dirArrow" transform="rotate(90) translate(36 -43)" onmousedown="handlePan(1,0)">
                  <use xlink:href="#rim" fill="#404040">
                        <set attributeName="fill" to="#808080" begin="arrowRight.mouseover" end="arrowRight.mouseout"/>
                  </use>
                  <path fill="none" stroke="white" stroke-width="1.5" d="M0,-3.0v7 M-2.5,-0.5L0,-3.0L2.5,-0.5"/>
                </g>
                <g id="arrowDown" xlink:href="#dirArrow" transform="rotate(180) translate(-30 -48)" onmousedown="handlePan(0,1)">
                  <use xlink:href="#rim" fill="#404040">
                        <set attributeName="fill" to="#808080" begin="arrowDown.mouseover" end="arrowDown.mouseout"/>
                  </use>
                  <path fill="none" stroke="white" stroke-width="1.5" d="M0,-3.0v7 M-2.5,-0.5L0,-3.0L2.5,-0.5"/>
                </g>
                <g id="arrowLeft" xlink:href="#dirArrow" transform="rotate(270) translate(-36 17)" onmousedown="handlePan(-1,0)">
                  <use xlink:href="#rim" fill="#404040">
                        <set attributeName="fill" to="#808080" begin="arrowLeft.mouseover" end="arrowLeft.mouseout"/>
                  </use>
                  <path fill="none" stroke="white" stroke-width="1.5" d="M0,-3.0v7 M-2.5,-0.5L0,-3.0L2.5,-0.5"/>
                </g>
        </g>
        <svg viewBox="0 0 15 15" width="100%" height="30px" preserveAspectRatio="xMaxYMin meet">
         <g id="arrow_out" transform="scale(0.3 0.3)">
          <a xlink:href="JodaServer_8h__dep__incl_org.svg" target="_base">
           <rect id="button" ry="5" rx="5" y="6" x="6" height="38" width="38"
                fill="#f2f5e9" fill-opacity="0.5" stroke="#606060" stroke-width="1.0"/>
           <path id="arrow"
             d="M 11.500037,31.436501 C 11.940474,20.09759 22.043105,11.32322 32.158766,21.979434 L 37.068811,17.246167 C 37.068811,17.246167 37.088388,32 37.088388,32 L 22.160133,31.978069 C 22.160133,31.978069 26.997745,27.140456 26.997745,27.140456 C 18.528582,18.264221 13.291696,25.230495 11.500037,31.436501 z"
             style="fill:#404040;"/>
          </a>
         </g>
        </svg>
</svg>
