<?xml version="1.0" encoding="UTF-8" standalone="no"?>
<!DOCTYPE svg PUBLIC "-//W3C//DTD SVG 1.1//EN"
 "http://www.w3.org/Graphics/SVG/1.1/DTD/svg11.dtd">
<!-- Generated by graphviz version 2.43.0 (0)
 -->
<!-- Title: RapidJsonDocument::Get Pages: 1 -->
<svg width="767pt" height="307pt"
 viewBox="0.00 0.00 767.00 306.50" xmlns="http://www.w3.org/2000/svg" xmlns:xlink="http://www.w3.org/1999/xlink">
<g id="graph0" class="graph" transform="scale(1 1) rotate(0) translate(4 302.5)">
<title>RapidJsonDocument::Get</title>
<polygon fill="white" stroke="transparent" points="-4,4 -4,-302.5 763,-302.5 763,4 -4,4"/>
<!-- Node1 -->
<g id="node1" class="node">
<title>Node1</title>
<g id="a_node1"><a xlink:title=" ">
<polygon fill="#bfbfbf" stroke="black" points="621,-79 621,-98 759,-98 759,-79 621,-79"/>
<text text-anchor="middle" x="690" y="-86" font-family="Helvetica,sans-Serif" font-size="10.00">RapidJsonDocument::Get</text>
</a>
</g>
</g>
<!-- Node2 -->
<g id="node2" class="node">
<title>Node2</title>
<g id="a_node2"><a xlink:href="../../df/d90/classjoda_1_1query_1_1PointerProvider.html#a9ab6e48263b38289831f0776ce148261" target="_top" xlink:title=" ">
<polygon fill="white" stroke="black" points="433,-147.5 433,-177.5 585,-177.5 585,-147.5 433,-147.5"/>
<text text-anchor="start" x="441" y="-165.5" font-family="Helvetica,sans-Serif" font-size="10.00">joda::query::PointerProvider</text>
<text text-anchor="middle" x="509" y="-154.5" font-family="Helvetica,sans-Serif" font-size="10.00">::Accept</text>
</a>
</g>
</g>
<!-- Node1&#45;&gt;Node2 -->
<g id="edge1" class="edge">
<title>Node1&#45;&gt;Node2</title>
<path fill="none" stroke="midnightblue" d="M661.79,-102.86C641.07,-113.48 611.67,-127.88 585,-138.5 577.13,-141.64 568.67,-144.66 560.37,-147.44"/>
<polygon fill="midnightblue" stroke="midnightblue" points="663.66,-105.84 670.93,-98.13 660.44,-99.62 663.66,-105.84"/>
</g>
<!-- Node8 -->
<g id="node8" class="node">
<title>Node8</title>
<g id="a_node8"><a xlink:href="../../d3/de9/classjoda_1_1query_1_1PointerCopyProject.html#a3cab5a81ccb05e1ae882757f224265c0" target="_top" xlink:title=" ">
<polygon fill="white" stroke="black" points="441,-98.5 441,-128.5 577,-128.5 577,-98.5 441,-98.5"/>
<text text-anchor="start" x="449" y="-116.5" font-family="Helvetica,sans-Serif" font-size="10.00">joda::query::PointerCopy</text>
<text text-anchor="middle" x="509" y="-105.5" font-family="Helvetica,sans-Serif" font-size="10.00">Project::getVal</text>
</a>
</g>
</g>
<!-- Node1&#45;&gt;Node8 -->
<g id="edge7" class="edge">
<title>Node1&#45;&gt;Node8</title>
<path fill="none" stroke="midnightblue" d="M610.64,-99.44C599.46,-101.01 588.04,-102.6 577.11,-104.13"/>
<polygon fill="midnightblue" stroke="midnightblue" points="611.4,-102.87 620.82,-98.02 610.43,-95.94 611.4,-102.87"/>
</g>
<!-- Node9 -->
<g id="node9" class="node">
<title>Node9</title>
<g id="a_node9"><a xlink:href="../../df/d90/classjoda_1_1query_1_1PointerProvider.html#a03fb7d67d1930c7a95373107a8230d2d" target="_top" xlink:title=" ">
<polygon fill="white" stroke="black" points="433,-49.5 433,-79.5 585,-79.5 585,-49.5 433,-49.5"/>
<text text-anchor="start" x="441" y="-67.5" font-family="Helvetica,sans-Serif" font-size="10.00">joda::query::PointerProvider</text>
<text text-anchor="middle" x="509" y="-56.5" font-family="Helvetica,sans-Serif" font-size="10.00">::getValue</text>
</a>
</g>
</g>
<!-- Node1&#45;&gt;Node9 -->
<g id="edge8" class="edge">
<title>Node1&#45;&gt;Node9</title>
<path fill="none" stroke="midnightblue" d="M610.88,-78.03C602.34,-76.88 593.66,-75.72 585.16,-74.58"/>
<polygon fill="midnightblue" stroke="midnightblue" points="610.44,-81.5 620.82,-79.36 611.37,-74.56 610.44,-81.5"/>
</g>
<!-- Node12 -->
<g id="node12" class="node">
<title>Node12</title>
<g id="a_node12"><a xlink:href="../../dd/d81/classjoda_1_1query_1_1DeletePointerProjector.html#a5f73ebaf79f844dd7987d1eddd876e09" target="_top" xlink:title=" ">
<polygon fill="white" stroke="black" points="437.5,-0.5 437.5,-30.5 580.5,-30.5 580.5,-0.5 437.5,-0.5"/>
<text text-anchor="start" x="445.5" y="-18.5" font-family="Helvetica,sans-Serif" font-size="10.00">joda::query::DeletePointer</text>
<text text-anchor="middle" x="509" y="-7.5" font-family="Helvetica,sans-Serif" font-size="10.00">Projector::project</text>
</a>
</g>
</g>
<!-- Node1&#45;&gt;Node12 -->
<g id="edge11" class="edge">
<title>Node1&#45;&gt;Node12</title>
<path fill="none" stroke="midnightblue" d="M661.38,-74.28C640.67,-63.91 611.45,-49.91 585,-39.5 577.11,-36.4 568.65,-33.39 560.35,-30.61"/>
<polygon fill="midnightblue" stroke="midnightblue" points="660.03,-77.52 670.54,-78.9 663.19,-71.27 660.03,-77.52"/>
</g>
<!-- Node3 -->
<g id="node3" class="node">
<title>Node3</title>
<g id="a_node3"><a xlink:href="../../dc/d0b/classjoda_1_1query_1_1ValueAccepter.html#a3e8e21a8dcbe565d2d7d7de1e5117f34" target="_top" xlink:title=" ">
<polygon fill="white" stroke="black" points="251,-147.5 251,-177.5 397,-177.5 397,-147.5 251,-147.5"/>
<text text-anchor="start" x="259" y="-165.5" font-family="Helvetica,sans-Serif" font-size="10.00">joda::query::ValueAccepter</text>
<text text-anchor="middle" x="324" y="-154.5" font-family="Helvetica,sans-Serif" font-size="10.00">::Accept</text>
</a>
</g>
</g>
<!-- Node2&#45;&gt;Node3 -->
<g id="edge2" class="edge">
<title>Node2&#45;&gt;Node3</title>
<path fill="none" stroke="midnightblue" d="M422.53,-162.5C414.08,-162.5 405.57,-162.5 397.28,-162.5"/>
<polygon fill="midnightblue" stroke="midnightblue" points="422.77,-166 432.77,-162.5 422.77,-159 422.77,-166"/>
</g>
<!-- Node4 -->
<g id="node4" class="node">
<title>Node4</title>
<g id="a_node4"><a xlink:href="../../d5/d73/classjoda_1_1query_1_1providers_1_1hash_1_1HashCalculator.html#a0de19bd26e3e2fc4a9c8602f6b582afb" target="_top" xlink:title=" ">
<polygon fill="white" stroke="black" points="44.5,-257 44.5,-298 170.5,-298 170.5,-257 44.5,-257"/>
<text text-anchor="start" x="52.5" y="-286" font-family="Helvetica,sans-Serif" font-size="10.00">joda::query::providers</text>
<text text-anchor="start" x="52.5" y="-275" font-family="Helvetica,sans-Serif" font-size="10.00">::hash::HashCalculator</text>
<text text-anchor="middle" x="107.5" y="-264" font-family="Helvetica,sans-Serif" font-size="10.00">::accept</text>
</a>
</g>
</g>
<!-- Node3&#45;&gt;Node4 -->
<g id="edge3" class="edge">
<title>Node3&#45;&gt;Node4</title>
<path fill="none" stroke="midnightblue" d="M300.58,-184.52C279.93,-203.67 247.62,-230.9 215,-247.5 201.22,-254.51 185.57,-260.08 170.6,-264.42"/>
<polygon fill="midnightblue" stroke="midnightblue" points="303.03,-187.02 307.91,-177.61 298.23,-181.92 303.03,-187.02"/>
</g>
<!-- Node5 -->
<g id="node5" class="node">
<title>Node5</title>
<g id="a_node5"><a xlink:href="../../df/d74/classjoda_1_1query_1_1providers_1_1membercount_1_1MemberCountCalculator.html#ad44a91198063ae0d94e8f55a39e5d191" target="_top" xlink:title=" ">
<polygon fill="white" stroke="black" points="0,-197 0,-238 215,-238 215,-197 0,-197"/>
<text text-anchor="start" x="8" y="-226" font-family="Helvetica,sans-Serif" font-size="10.00">joda::query::providers</text>
<text text-anchor="start" x="8" y="-215" font-family="Helvetica,sans-Serif" font-size="10.00">::membercount::MemberCountCalculator</text>
<text text-anchor="middle" x="107.5" y="-204" font-family="Helvetica,sans-Serif" font-size="10.00">::accept</text>
</a>
</g>
</g>
<!-- Node3&#45;&gt;Node5 -->
<g id="edge4" class="edge">
<title>Node3&#45;&gt;Node5</title>
<path fill="none" stroke="midnightblue" d="M254.62,-180.03C233.67,-185.41 210.42,-191.37 188.75,-196.92"/>
<polygon fill="midnightblue" stroke="midnightblue" points="255.57,-183.4 264.39,-177.53 253.83,-176.62 255.57,-183.4"/>
</g>
<!-- Node6 -->
<g id="node6" class="node">
<title>Node6</title>
<g id="a_node6"><a xlink:href="../../db/d14/classjoda_1_1query_1_1AttributeStatAggregator.html#a5ac9a9c824f767bf80c5536e7b551a1b" target="_top" xlink:title=" ">
<polygon fill="white" stroke="black" points="38,-147.5 38,-177.5 177,-177.5 177,-147.5 38,-147.5"/>
<text text-anchor="start" x="46" y="-165.5" font-family="Helvetica,sans-Serif" font-size="10.00">joda::query::AttributeStat</text>
<text text-anchor="middle" x="107.5" y="-154.5" font-family="Helvetica,sans-Serif" font-size="10.00">Aggregator::accumulate</text>
</a>
</g>
</g>
<!-- Node3&#45;&gt;Node6 -->
<g id="edge5" class="edge">
<title>Node3&#45;&gt;Node6</title>
<path fill="none" stroke="midnightblue" d="M240.77,-162.5C219.74,-162.5 197.34,-162.5 177.06,-162.5"/>
<polygon fill="midnightblue" stroke="midnightblue" points="240.98,-166 250.98,-162.5 240.98,-159 240.98,-166"/>
</g>
<!-- Node7 -->
<g id="node7" class="node">
<title>Node7</title>
<g id="a_node7"><a xlink:href="../../dc/d0b/classjoda_1_1query_1_1ValueAccepter.html#aef3f07d066d5c04f3d9be38674e02eb4" target="_top" xlink:title=" ">
<polygon fill="white" stroke="black" points="34.5,-98.5 34.5,-128.5 180.5,-128.5 180.5,-98.5 34.5,-98.5"/>
<text text-anchor="start" x="42.5" y="-116.5" font-family="Helvetica,sans-Serif" font-size="10.00">joda::query::ValueAccepter</text>
<text text-anchor="middle" x="107.5" y="-105.5" font-family="Helvetica,sans-Serif" font-size="10.00">::operator()</text>
</a>
</g>
</g>
<!-- Node3&#45;&gt;Node7 -->
<g id="edge6" class="edge">
<title>Node3&#45;&gt;Node7</title>
<path fill="none" stroke="midnightblue" d="M247.13,-145.17C223.32,-139.73 197.24,-133.77 174.19,-128.51"/>
<polygon fill="midnightblue" stroke="midnightblue" points="246.66,-148.65 257.19,-147.47 248.22,-141.83 246.66,-148.65"/>
</g>
<!-- Node10 -->
<g id="node10" class="node">
<title>Node10</title>
<g id="a_node10"><a xlink:href="../../dc/d0b/classjoda_1_1query_1_1ValueAccepter.html#a0167df675283f06ef62730368ef93e50" target="_top" xlink:title=" ">
<polygon fill="white" stroke="black" points="251,-49.5 251,-79.5 397,-79.5 397,-49.5 251,-49.5"/>
<text text-anchor="start" x="259" y="-67.5" font-family="Helvetica,sans-Serif" font-size="10.00">joda::query::ValueAccepter</text>
<text text-anchor="middle" x="324" y="-56.5" font-family="Helvetica,sans-Serif" font-size="10.00">::getPointer</text>
</a>
</g>
</g>
<!-- Node9&#45;&gt;Node10 -->
<g id="edge9" class="edge">
<title>Node9&#45;&gt;Node10</title>
<path fill="none" stroke="midnightblue" d="M422.53,-64.5C414.08,-64.5 405.57,-64.5 397.28,-64.5"/>
<polygon fill="midnightblue" stroke="midnightblue" points="422.77,-68 432.77,-64.5 422.77,-61 422.77,-68"/>
</g>
<!-- Node11 -->
<g id="node11" class="node">
<title>Node11</title>
<g id="a_node11"><a xlink:href="../../d9/d28/classjoda_1_1query_1_1UnaryPointerAcceptProvider.html#a58acc97a7d3cece914d81d677bcbf281" target="_top" xlink:title=" ">
<polygon fill="white" stroke="black" points="25,-49.5 25,-79.5 190,-79.5 190,-49.5 25,-49.5"/>
<text text-anchor="start" x="33" y="-67.5" font-family="Helvetica,sans-Serif" font-size="10.00">joda::query::UnaryPointer</text>
<text text-anchor="middle" x="107.5" y="-56.5" font-family="Helvetica,sans-Serif" font-size="10.00">AcceptProvider::getAtomValue</text>
</a>
</g>
</g>
<!-- Node10&#45;&gt;Node11 -->
<g id="edge10" class="edge">
<title>Node10&#45;&gt;Node11</title>
<path fill="none" stroke="midnightblue" d="M240.8,-64.5C224.25,-64.5 206.86,-64.5 190.32,-64.5"/>
<polygon fill="midnightblue" stroke="midnightblue" points="240.98,-68 250.98,-64.5 240.98,-61 240.98,-68"/>
</g>
</g>
</svg>
