<?xml version="1.0" encoding="UTF-8" standalone="no"?>
<!DOCTYPE svg PUBLIC "-//W3C//DTD SVG 1.1//EN"
 "http://www.w3.org/Graphics/SVG/1.1/DTD/svg11.dtd">
<!-- Generated by graphviz version 2.43.0 (0)
 -->
<!-- Title: RapidJsonDocument::Get Pages: 1 -->
<!--zoomable 392 -->
<svg id="main" version="1.1" xmlns="http://www.w3.org/2000/svg" xmlns:xlink="http://www.w3.org/1999/xlink" xml:space="preserve" onload="init(evt)">
<style type="text/css"><![CDATA[
.edge:hover path { stroke: red; }
.edge:hover polygon { stroke: red; fill: red; }
]]></style>
<script type="text/javascript"><![CDATA[
var edges = document.getElementsByTagName('g');
if (edges && edges.length) {
  for (var i=0;i<edges.length;i++) {
    if (edges[i].id.substr(0,4)=='edge') {
      edges[i].setAttribute('class','edge');
    }
  }
}
]]></script>
        <defs>
                <circle id="rim" cx="0" cy="0" r="7"/>
                <circle id="rim2" cx="0" cy="0" r="3.5"/>
                <g id="zoomPlus">
                        <use xlink:href="#rim" fill="#404040">
                                <set attributeName="fill" to="#808080" begin="zoomplus.mouseover" end="zoomplus.mouseout"/>
                        </use>
                        <path d="M-4,0h8M0,-4v8" fill="none" stroke="white" stroke-width="1.5" pointer-events="none"/>
                </g>
                <g id="zoomMin">
                        <use xlink:href="#rim" fill="#404040">
                                <set attributeName="fill" to="#808080" begin="zoomminus.mouseover" end="zoomminus.mouseout"/>
                        </use>
                        <path d="M-4,0h8" fill="none" stroke="white" stroke-width="1.5" pointer-events="none"/>
                </g>
                <g id="dirArrow">
                        <path fill="none" stroke="white" stroke-width="1.5" d="M0,-3.0v7 M-2.5,-0.5L0,-3.0L2.5,-0.5"/>
                </g>
               <g id="resetDef">
                       <use xlink:href="#rim2" fill="#404040">
                               <set attributeName="fill" to="#808080" begin="reset.mouseover" end="reset.mouseout"/>
                       </use>
               </g>
        </defs>

<script type="text/javascript">
var viewWidth = 767;
var viewHeight = 392;
var sectionId = 'dynsection-4';
</script>
<script xlink:href="../../svgpan.js"/>
<svg id="graph" class="graph">
<g id="viewport">
<title>RapidJsonDocument::Get</title>
<polygon fill="white" stroke="transparent" points="-4,4 -4,-387.5 763,-387.5 763,4 -4,4"/>
<!-- Node1 -->
<g id="node1" class="node">
<title>Node1</title>
<g id="a_node1"><a xlink:title=" ">
<polygon fill="#bfbfbf" stroke="black" points="621,-79 621,-98 759,-98 759,-79 621,-79"/>
<text text-anchor="middle" x="690" y="-86" font-family="Helvetica,sans-Serif" font-size="10.00">RapidJsonDocument::Get</text>
</a>
</g>
</g>
<!-- Node2 -->
<g id="node2" class="node">
<title>Node2</title>
<g id="a_node2"><a xlink:href="../../df/d90/classjoda_1_1query_1_1PointerProvider.html#a9ab6e48263b38289831f0776ce148261" target="_top" xlink:title=" ">
<polygon fill="white" stroke="black" points="433,-171.5 433,-201.5 585,-201.5 585,-171.5 433,-171.5"/>
<text text-anchor="start" x="441" y="-189.5" font-family="Helvetica,sans-Serif" font-size="10.00">joda::query::PointerProvider</text>
<text text-anchor="middle" x="509" y="-178.5" font-family="Helvetica,sans-Serif" font-size="10.00">::Accept</text>
</a>
</g>
</g>
<!-- Node1&#45;&gt;Node2 -->
<g id="edge1" class="edge">
<title>Node1&#45;&gt;Node2</title>
<path fill="none" stroke="midnightblue" d="M662.74,-102.88C629.22,-121.23 571.51,-152.82 537.44,-171.48"/>
<polygon fill="midnightblue" stroke="midnightblue" points="664.42,-105.95 671.51,-98.08 661.06,-99.81 664.42,-105.95"/>
</g>
<!-- Node10 -->
<g id="node10" class="node">
<title>Node10</title>
<g id="a_node10"><a xlink:href="../../d3/de9/classjoda_1_1query_1_1PointerCopyProject.html#a3cab5a81ccb05e1ae882757f224265c0" target="_top" xlink:title=" ">
<polygon fill="white" stroke="black" points="441,-98.5 441,-128.5 577,-128.5 577,-98.5 441,-98.5"/>
<text text-anchor="start" x="449" y="-116.5" font-family="Helvetica,sans-Serif" font-size="10.00">joda::query::PointerCopy</text>
<text text-anchor="middle" x="509" y="-105.5" font-family="Helvetica,sans-Serif" font-size="10.00">Project::getVal</text>
</a>
</g>
</g>
<!-- Node1&#45;&gt;Node10 -->
<g id="edge9" class="edge">
<title>Node1&#45;&gt;Node10</title>
<path fill="none" stroke="midnightblue" d="M610.64,-99.44C599.46,-101.01 588.04,-102.6 577.11,-104.13"/>
<polygon fill="midnightblue" stroke="midnightblue" points="611.4,-102.87 620.82,-98.02 610.43,-95.94 611.4,-102.87"/>
</g>
<!-- Node11 -->
<g id="node11" class="node">
<title>Node11</title>
<g id="a_node11"><a xlink:href="../../df/d90/classjoda_1_1query_1_1PointerProvider.html#a03fb7d67d1930c7a95373107a8230d2d" target="_top" xlink:title=" ">
<polygon fill="white" stroke="black" points="433,-49.5 433,-79.5 585,-79.5 585,-49.5 433,-49.5"/>
<text text-anchor="start" x="441" y="-67.5" font-family="Helvetica,sans-Serif" font-size="10.00">joda::query::PointerProvider</text>
<text text-anchor="middle" x="509" y="-56.5" font-family="Helvetica,sans-Serif" font-size="10.00">::getValue</text>
</a>
</g>
</g>
<!-- Node1&#45;&gt;Node11 -->
<g id="edge10" class="edge">
<title>Node1&#45;&gt;Node11</title>
<path fill="none" stroke="midnightblue" d="M610.88,-78.03C602.34,-76.88 593.66,-75.72 585.16,-74.58"/>
<polygon fill="midnightblue" stroke="midnightblue" points="610.44,-81.5 620.82,-79.36 611.37,-74.56 610.44,-81.5"/>
</g>
<!-- Node14 -->
<g id="node14" class="node">
<title>Node14</title>
<g id="a_node14"><a xlink:href="../../dd/d81/classjoda_1_1query_1_1DeletePointerProjector.html#a5f73ebaf79f844dd7987d1eddd876e09" target="_top" xlink:title=" ">
<polygon fill="white" stroke="black" points="437.5,-0.5 437.5,-30.5 580.5,-30.5 580.5,-0.5 437.5,-0.5"/>
<text text-anchor="start" x="445.5" y="-18.5" font-family="Helvetica,sans-Serif" font-size="10.00">joda::query::DeletePointer</text>
<text text-anchor="middle" x="509" y="-7.5" font-family="Helvetica,sans-Serif" font-size="10.00">Projector::project</text>
</a>
</g>
</g>
<!-- Node1&#45;&gt;Node14 -->
<g id="edge13" class="edge">
<title>Node1&#45;&gt;Node14</title>
<path fill="none" stroke="midnightblue" d="M661.38,-74.28C640.67,-63.91 611.45,-49.91 585,-39.5 577.11,-36.4 568.65,-33.39 560.35,-30.61"/>
<polygon fill="midnightblue" stroke="midnightblue" points="660.03,-77.52 670.54,-78.9 663.19,-71.27 660.03,-77.52"/>
</g>
<!-- Node3 -->
<g id="node3" class="node">
<title>Node3</title>
<g id="a_node3"><a xlink:href="../../dc/d0b/classjoda_1_1query_1_1ValueAccepter.html#a3e8e21a8dcbe565d2d7d7de1e5117f34" target="_top" xlink:title=" ">
<polygon fill="white" stroke="black" points="251,-183.5 251,-213.5 397,-213.5 397,-183.5 251,-183.5"/>
<text text-anchor="start" x="259" y="-201.5" font-family="Helvetica,sans-Serif" font-size="10.00">joda::query::ValueAccepter</text>
<text text-anchor="middle" x="324" y="-190.5" font-family="Helvetica,sans-Serif" font-size="10.00">::Accept</text>
</a>
</g>
</g>
<!-- Node2&#45;&gt;Node3 -->
<g id="edge2" class="edge">
<title>Node2&#45;&gt;Node3</title>
<path fill="none" stroke="midnightblue" d="M422.53,-192.1C414.08,-192.66 405.57,-193.22 397.28,-193.76"/>
<polygon fill="midnightblue" stroke="midnightblue" points="423.03,-195.58 432.77,-191.43 422.57,-188.59 423.03,-195.58"/>
</g>
<!-- Node4 -->
<g id="node4" class="node">
<title>Node4</title>
<g id="a_node4"><a xlink:href="../../d5/d73/classjoda_1_1query_1_1providers_1_1hash_1_1HashCalculator.html#a0de19bd26e3e2fc4a9c8602f6b582afb" target="_top" xlink:title=" ">
<polygon fill="white" stroke="black" points="44.5,-342 44.5,-383 170.5,-383 170.5,-342 44.5,-342"/>
<text text-anchor="start" x="52.5" y="-371" font-family="Helvetica,sans-Serif" font-size="10.00">joda::query::providers</text>
<text text-anchor="start" x="52.5" y="-360" font-family="Helvetica,sans-Serif" font-size="10.00">::hash::HashCalculator</text>
<text text-anchor="middle" x="107.5" y="-349" font-family="Helvetica,sans-Serif" font-size="10.00">::accept</text>
</a>
</g>
</g>
<!-- Node3&#45;&gt;Node4 -->
<g id="edge3" class="edge">
<title>Node3&#45;&gt;Node4</title>
<path fill="none" stroke="midnightblue" d="M309.98,-222.51C292.39,-252.69 258.2,-303.98 215,-332.5 201.77,-341.23 186.01,-347.45 170.72,-351.87"/>
<polygon fill="midnightblue" stroke="midnightblue" points="313.2,-223.93 315.1,-213.51 307.12,-220.47 313.2,-223.93"/>
</g>
<!-- Node5 -->
<g id="node5" class="node">
<title>Node5</title>
<g id="a_node5"><a xlink:href="../../df/d74/classjoda_1_1query_1_1providers_1_1membercount_1_1MemberCountCalculator.html#ad44a91198063ae0d94e8f55a39e5d191" target="_top" xlink:title=" ">
<polygon fill="white" stroke="black" points="0,-282 0,-323 215,-323 215,-282 0,-282"/>
<text text-anchor="start" x="8" y="-311" font-family="Helvetica,sans-Serif" font-size="10.00">joda::query::providers</text>
<text text-anchor="start" x="8" y="-300" font-family="Helvetica,sans-Serif" font-size="10.00">::membercount::MemberCountCalculator</text>
<text text-anchor="middle" x="107.5" y="-289" font-family="Helvetica,sans-Serif" font-size="10.00">::accept</text>
</a>
</g>
</g>
<!-- Node3&#45;&gt;Node5 -->
<g id="edge4" class="edge">
<title>Node3&#45;&gt;Node5</title>
<path fill="none" stroke="midnightblue" d="M296.92,-219.99C275.91,-236.38 245.04,-258.45 215,-272.5 207.61,-275.96 199.73,-279.1 191.74,-281.93"/>
<polygon fill="midnightblue" stroke="midnightblue" points="299.35,-222.53 305.01,-213.58 295,-217.05 299.35,-222.53"/>
</g>
<!-- Node6 -->
<g id="node6" class="node">
<title>Node6</title>
<g id="a_node6"><a xlink:href="../../dd/ddd/structjoda_1_1query_1_1values_1_1ObjectParameter.html#af9411764c021566be73652936e0d74f4" target="_top" xlink:title=" ">
<polygon fill="white" stroke="black" points="36,-232.5 36,-262.5 179,-262.5 179,-232.5 36,-232.5"/>
<text text-anchor="start" x="44" y="-250.5" font-family="Helvetica,sans-Serif" font-size="10.00">joda::query::values</text>
<text text-anchor="middle" x="107.5" y="-239.5" font-family="Helvetica,sans-Serif" font-size="10.00">::ObjectParameter::accept</text>
</a>
</g>
</g>
<!-- Node3&#45;&gt;Node6 -->
<g id="edge5" class="edge">
<title>Node3&#45;&gt;Node6</title>
<path fill="none" stroke="midnightblue" d="M248.43,-215.82C237.23,-218.41 225.81,-221.03 215,-223.5 202.25,-226.41 188.64,-229.5 175.55,-232.45"/>
<polygon fill="midnightblue" stroke="midnightblue" points="249.24,-219.23 258.19,-213.57 247.66,-212.41 249.24,-219.23"/>
</g>
<!-- Node7 -->
<g id="node7" class="node">
<title>Node7</title>
<g id="a_node7"><a xlink:href="../../d6/d87/structjoda_1_1query_1_1values_1_1AnyParameter.html#a1d935e58b21036f376190be54891f5ff" target="_top" xlink:title=" ">
<polygon fill="white" stroke="black" points="42.5,-183.5 42.5,-213.5 172.5,-213.5 172.5,-183.5 42.5,-183.5"/>
<text text-anchor="start" x="50.5" y="-201.5" font-family="Helvetica,sans-Serif" font-size="10.00">joda::query::values</text>
<text text-anchor="middle" x="107.5" y="-190.5" font-family="Helvetica,sans-Serif" font-size="10.00">::AnyParameter::accept</text>
</a>
</g>
</g>
<!-- Node3&#45;&gt;Node7 -->
<g id="edge6" class="edge">
<title>Node3&#45;&gt;Node7</title>
<path fill="none" stroke="midnightblue" d="M240.75,-198.5C218.22,-198.5 194.13,-198.5 172.77,-198.5"/>
<polygon fill="midnightblue" stroke="midnightblue" points="240.98,-202 250.98,-198.5 240.98,-195 240.98,-202"/>
</g>
<!-- Node8 -->
<g id="node8" class="node">
<title>Node8</title>
<g id="a_node8"><a xlink:href="../../db/d14/classjoda_1_1query_1_1AttributeStatAggregator.html#a5ac9a9c824f767bf80c5536e7b551a1b" target="_top" xlink:title=" ">
<polygon fill="white" stroke="black" points="38,-134.5 38,-164.5 177,-164.5 177,-134.5 38,-134.5"/>
<text text-anchor="start" x="46" y="-152.5" font-family="Helvetica,sans-Serif" font-size="10.00">joda::query::AttributeStat</text>
<text text-anchor="middle" x="107.5" y="-141.5" font-family="Helvetica,sans-Serif" font-size="10.00">Aggregator::accumulate</text>
</a>
</g>
</g>
<!-- Node3&#45;&gt;Node8 -->
<g id="edge7" class="edge">
<title>Node3&#45;&gt;Node8</title>
<path fill="none" stroke="midnightblue" d="M247.13,-181.17C223.32,-175.73 197.24,-169.77 174.19,-164.51"/>
<polygon fill="midnightblue" stroke="midnightblue" points="246.66,-184.65 257.19,-183.47 248.22,-177.83 246.66,-184.65"/>
</g>
<!-- Node9 -->
<g id="node9" class="node">
<title>Node9</title>
<g id="a_node9"><a xlink:href="../../dc/d0b/classjoda_1_1query_1_1ValueAccepter.html#aef3f07d066d5c04f3d9be38674e02eb4" target="_top" xlink:title=" ">
<polygon fill="white" stroke="black" points="34.5,-85.5 34.5,-115.5 180.5,-115.5 180.5,-85.5 34.5,-85.5"/>
<text text-anchor="start" x="42.5" y="-103.5" font-family="Helvetica,sans-Serif" font-size="10.00">joda::query::ValueAccepter</text>
<text text-anchor="middle" x="107.5" y="-92.5" font-family="Helvetica,sans-Serif" font-size="10.00">::operator()</text>
</a>
</g>
</g>
<!-- Node3&#45;&gt;Node9 -->
<g id="edge8" class="edge">
<title>Node3&#45;&gt;Node9</title>
<path fill="none" stroke="midnightblue" d="M297.04,-176.95C276.1,-160.6 245.25,-138.74 215,-125.5 204.21,-120.78 192.4,-116.88 180.7,-113.68"/>
<polygon fill="midnightblue" stroke="midnightblue" points="295.1,-179.88 305.1,-183.36 299.45,-174.4 295.1,-179.88"/>
</g>
<!-- Node12 -->
<g id="node12" class="node">
<title>Node12</title>
<g id="a_node12"><a xlink:href="../../dc/d0b/classjoda_1_1query_1_1ValueAccepter.html#a0167df675283f06ef62730368ef93e50" target="_top" xlink:title=" ">
<polygon fill="white" stroke="black" points="251,-43.5 251,-73.5 397,-73.5 397,-43.5 251,-43.5"/>
<text text-anchor="start" x="259" y="-61.5" font-family="Helvetica,sans-Serif" font-size="10.00">joda::query::ValueAccepter</text>
<text text-anchor="middle" x="324" y="-50.5" font-family="Helvetica,sans-Serif" font-size="10.00">::getPointer</text>
</a>
</g>
</g>
<!-- Node11&#45;&gt;Node12 -->
<g id="edge11" class="edge">
<title>Node11&#45;&gt;Node12</title>
<path fill="none" stroke="midnightblue" d="M422.53,-61.7C414.08,-61.42 405.57,-61.14 397.28,-60.87"/>
<polygon fill="midnightblue" stroke="midnightblue" points="422.67,-65.2 432.77,-62.03 422.89,-58.21 422.67,-65.2"/>
</g>
<!-- Node13 -->
<g id="node13" class="node">
<title>Node13</title>
<g id="a_node13"><a xlink:href="../../d9/d28/classjoda_1_1query_1_1UnaryPointerAcceptProvider.html#a58acc97a7d3cece914d81d677bcbf281" target="_top" xlink:title=" ">
<polygon fill="white" stroke="black" points="25,-36.5 25,-66.5 190,-66.5 190,-36.5 25,-36.5"/>
<text text-anchor="start" x="33" y="-54.5" font-family="Helvetica,sans-Serif" font-size="10.00">joda::query::UnaryPointer</text>
<text text-anchor="middle" x="107.5" y="-43.5" font-family="Helvetica,sans-Serif" font-size="10.00">AcceptProvider::getAtomValue</text>
</a>
</g>
</g>
<!-- Node12&#45;&gt;Node13 -->
<g id="edge12" class="edge">
<title>Node12&#45;&gt;Node13</title>
<path fill="none" stroke="midnightblue" d="M240.8,-55.82C224.25,-55.28 206.86,-54.71 190.32,-54.17"/>
<polygon fill="midnightblue" stroke="midnightblue" points="240.87,-59.32 250.98,-56.15 241.1,-52.33 240.87,-59.32"/>
</g>
</g>
</svg>
        <g id="navigator" transform="translate(0 0)" fill="#404254">
                <rect fill="#f2f5e9" fill-opacity="0.5" stroke="#606060" stroke-width=".5" x="0" y="0" width="60" height="60"/>
                <use id="zoomplus" xlink:href="#zoomPlus" x="17" y="9" onmousedown="handleZoom(evt,'in')"/>
                <use id="zoomminus" xlink:href="#zoomMin" x="42" y="9" onmousedown="handleZoom(evt,'out')"/>
                <use id="reset" xlink:href="#resetDef" x="30" y="36" onmousedown="handleReset()"/>
                <g id="arrowUp" xlink:href="#dirArrow" transform="translate(30 24)" onmousedown="handlePan(0,-1)">
                  <use xlink:href="#rim" fill="#404040">
                        <set attributeName="fill" to="#808080" begin="arrowUp.mouseover" end="arrowUp.mouseout"/>
                  </use>
                  <path fill="none" stroke="white" stroke-width="1.5" d="M0,-3.0v7 M-2.5,-0.5L0,-3.0L2.5,-0.5"/>
                </g>
                <g id="arrowRight" xlink:href="#dirArrow" transform="rotate(90) translate(36 -43)" onmousedown="handlePan(1,0)">
                  <use xlink:href="#rim" fill="#404040">
                        <set attributeName="fill" to="#808080" begin="arrowRight.mouseover" end="arrowRight.mouseout"/>
                  </use>
                  <path fill="none" stroke="white" stroke-width="1.5" d="M0,-3.0v7 M-2.5,-0.5L0,-3.0L2.5,-0.5"/>
                </g>
                <g id="arrowDown" xlink:href="#dirArrow" transform="rotate(180) translate(-30 -48)" onmousedown="handlePan(0,1)">
                  <use xlink:href="#rim" fill="#404040">
                        <set attributeName="fill" to="#808080" begin="arrowDown.mouseover" end="arrowDown.mouseout"/>
                  </use>
                  <path fill="none" stroke="white" stroke-width="1.5" d="M0,-3.0v7 M-2.5,-0.5L0,-3.0L2.5,-0.5"/>
                </g>
                <g id="arrowLeft" xlink:href="#dirArrow" transform="rotate(270) translate(-36 17)" onmousedown="handlePan(-1,0)">
                  <use xlink:href="#rim" fill="#404040">
                        <set attributeName="fill" to="#808080" begin="arrowLeft.mouseover" end="arrowLeft.mouseout"/>
                  </use>
                  <path fill="none" stroke="white" stroke-width="1.5" d="M0,-3.0v7 M-2.5,-0.5L0,-3.0L2.5,-0.5"/>
                </g>
        </g>
        <svg viewBox="0 0 15 15" width="100%" height="30px" preserveAspectRatio="xMaxYMin meet">
         <g id="arrow_out" transform="scale(0.3 0.3)">
          <a xlink:href="classRapidJsonDocument_a717fcd803ba9a5cbe5c8403aeba630a4_icgraph_org.svg" target="_base">
           <rect id="button" ry="5" rx="5" y="6" x="6" height="38" width="38"
                fill="#f2f5e9" fill-opacity="0.5" stroke="#606060" stroke-width="1.0"/>
           <path id="arrow"
             d="M 11.500037,31.436501 C 11.940474,20.09759 22.043105,11.32322 32.158766,21.979434 L 37.068811,17.246167 C 37.068811,17.246167 37.088388,32 37.088388,32 L 22.160133,31.978069 C 22.160133,31.978069 26.997745,27.140456 26.997745,27.140456 C 18.528582,18.264221 13.291696,25.230495 11.500037,31.436501 z"
             style="fill:#404040;"/>
          </a>
         </g>
        </svg>
</svg>
