<?xml version="1.0" encoding="UTF-8" standalone="no"?>
<!DOCTYPE svg PUBLIC "-//W3C//DTD SVG 1.1//EN"
 "http://www.w3.org/Graphics/SVG/1.1/DTD/svg11.dtd">
<!-- Generated by graphviz version 2.43.0 (0)
 -->
<!-- Title: moodycamel::compiler_fence Pages: 1 -->
<svg width="340pt" height="88pt"
 viewBox="0.00 0.00 340.00 88.00" xmlns="http://www.w3.org/2000/svg" xmlns:xlink="http://www.w3.org/1999/xlink">
<g id="graph0" class="graph" transform="scale(1 1) rotate(0) translate(4 84)">
<title>moodycamel::compiler_fence</title>
<polygon fill="white" stroke="transparent" points="-4,4 -4,-84 336,-84 336,4 -4,4"/>
<!-- Node1 -->
<g id="node1" class="node">
<title>Node1</title>
<g id="a_node1"><a xlink:title=" ">
<polygon fill="#bfbfbf" stroke="black" points="203,-24.5 203,-54.5 332,-54.5 332,-24.5 203,-24.5"/>
<text text-anchor="start" x="211" y="-42.5" font-family="Helvetica,sans-Serif" font-size="10.00">moodycamel::compiler</text>
<text text-anchor="middle" x="267.5" y="-31.5" font-family="Helvetica,sans-Serif" font-size="10.00">_fence</text>
</a>
</g>
</g>
<!-- Node2 -->
<g id="node2" class="node">
<title>Node2</title>
<g id="a_node2"><a xlink:href="../../da/d5a/classmoodycamel_1_1ReaderWriterQueue.html#a0e5b8df7c82c81339d0996528b2a0b59" target="_top" xlink:title=" ">
<polygon fill="white" stroke="black" points="8,-49.5 8,-79.5 159,-79.5 159,-49.5 8,-49.5"/>
<text text-anchor="start" x="16" y="-67.5" font-family="Helvetica,sans-Serif" font-size="10.00">moodycamel::ReaderWriter</text>
<text text-anchor="middle" x="83.5" y="-56.5" font-family="Helvetica,sans-Serif" font-size="10.00">Queue&lt; T, 512 &gt;::pop</text>
</a>
</g>
</g>
<!-- Node1&#45;&gt;Node2 -->
<g id="edge1" class="edge">
<title>Node1&#45;&gt;Node2</title>
<path fill="none" stroke="midnightblue" d="M192.76,-49.63C181.64,-51.16 170.17,-52.73 159.04,-54.26"/>
<polygon fill="midnightblue" stroke="midnightblue" points="193.41,-53.07 202.85,-48.24 192.46,-46.14 193.41,-53.07"/>
</g>
<!-- Node3 -->
<g id="node3" class="node">
<title>Node3</title>
<g id="a_node3"><a xlink:href="../../da/d5a/classmoodycamel_1_1ReaderWriterQueue.html#ae7ada3411e98c5d1aab09ec6945a6a9e" target="_top" xlink:title=" ">
<polygon fill="white" stroke="black" points="0,-0.5 0,-30.5 167,-30.5 167,-0.5 0,-0.5"/>
<text text-anchor="start" x="8" y="-18.5" font-family="Helvetica,sans-Serif" font-size="10.00">moodycamel::ReaderWriter</text>
<text text-anchor="middle" x="83.5" y="-7.5" font-family="Helvetica,sans-Serif" font-size="10.00">Queue&lt; T, 512 &gt;::try_dequeue</text>
</a>
</g>
</g>
<!-- Node1&#45;&gt;Node3 -->
<g id="edge2" class="edge">
<title>Node1&#45;&gt;Node3</title>
<path fill="none" stroke="midnightblue" d="M192.75,-29.77C184.37,-28.67 175.79,-27.54 167.31,-26.42"/>
<polygon fill="midnightblue" stroke="midnightblue" points="192.47,-33.27 202.85,-31.11 193.39,-26.33 192.47,-33.27"/>
</g>
</g>
</svg>
