<?xml version="1.0" encoding="UTF-8" standalone="no"?>
<!DOCTYPE svg PUBLIC "-//W3C//DTD SVG 1.1//EN"
 "http://www.w3.org/Graphics/SVG/1.1/DTD/svg11.dtd">
<!-- Generated by graphviz version 2.43.0 (0)
 -->
<!-- Title: moodycamel::fence Pages: 1 -->
<!--zoomable 284 -->
<svg id="main" version="1.1" xmlns="http://www.w3.org/2000/svg" xmlns:xlink="http://www.w3.org/1999/xlink" xml:space="preserve" onload="init(evt)">
<style type="text/css"><![CDATA[
.edge:hover path { stroke: red; }
.edge:hover polygon { stroke: red; fill: red; }
]]></style>
<script type="text/javascript"><![CDATA[
var edges = document.getElementsByTagName('g');
if (edges && edges.length) {
  for (var i=0;i<edges.length;i++) {
    if (edges[i].id.substr(0,4)=='edge') {
      edges[i].setAttribute('class','edge');
    }
  }
}
]]></script>
        <defs>
                <circle id="rim" cx="0" cy="0" r="7"/>
                <circle id="rim2" cx="0" cy="0" r="3.5"/>
                <g id="zoomPlus">
                        <use xlink:href="#rim" fill="#404040">
                                <set attributeName="fill" to="#808080" begin="zoomplus.mouseover" end="zoomplus.mouseout"/>
                        </use>
                        <path d="M-4,0h8M0,-4v8" fill="none" stroke="white" stroke-width="1.5" pointer-events="none"/>
                </g>
                <g id="zoomMin">
                        <use xlink:href="#rim" fill="#404040">
                                <set attributeName="fill" to="#808080" begin="zoomminus.mouseover" end="zoomminus.mouseout"/>
                        </use>
                        <path d="M-4,0h8" fill="none" stroke="white" stroke-width="1.5" pointer-events="none"/>
                </g>
                <g id="dirArrow">
                        <path fill="none" stroke="white" stroke-width="1.5" d="M0,-3.0v7 M-2.5,-0.5L0,-3.0L2.5,-0.5"/>
                </g>
               <g id="resetDef">
                       <use xlink:href="#rim2" fill="#404040">
                               <set attributeName="fill" to="#808080" begin="reset.mouseover" end="reset.mouseout"/>
                       </use>
               </g>
        </defs>

<script type="text/javascript">
var viewWidth = 537;
var viewHeight = 284;
var sectionId = 'dynsection-1';
</script>
<script xlink:href="../../svgpan.js"/>
<svg id="graph" class="graph">
<g id="viewport">
<title>moodycamel::fence</title>
<polygon fill="white" stroke="transparent" points="-4,4 -4,-280 533,-280 533,4 -4,4"/>
<!-- Node1 -->
<g id="node1" class="node">
<title>Node1</title>
<g id="a_node1"><a xlink:title=" ">
<polygon fill="#bfbfbf" stroke="black" points="416,-128 416,-147 529,-147 529,-128 416,-128"/>
<text text-anchor="middle" x="472.5" y="-135" font-family="Helvetica,sans-Serif" font-size="10.00">moodycamel::fence</text>
</a>
</g>
</g>
<!-- Node2 -->
<g id="node2" class="node">
<title>Node2</title>
<g id="a_node2"><a xlink:href="../../da/d5a/classmoodycamel_1_1ReaderWriterQueue.html#a5283c4e023da9032319290a9a0d07865" target="_top" xlink:title=" ">
<polygon fill="white" stroke="black" points="225.5,-245.5 225.5,-275.5 376.5,-275.5 376.5,-245.5 225.5,-245.5"/>
<text text-anchor="start" x="233.5" y="-263.5" font-family="Helvetica,sans-Serif" font-size="10.00">moodycamel::ReaderWriter</text>
<text text-anchor="middle" x="301" y="-252.5" font-family="Helvetica,sans-Serif" font-size="10.00">Queue::peek</text>
</a>
</g>
</g>
<!-- Node1&#45;&gt;Node2 -->
<g id="edge1" class="edge">
<title>Node1&#45;&gt;Node2</title>
<path fill="none" stroke="midnightblue" d="M459.28,-155.75C443.49,-177.96 413.97,-215.12 380,-236.5 374.6,-239.9 368.69,-242.84 362.62,-245.38"/>
<polygon fill="midnightblue" stroke="midnightblue" points="462.36,-157.45 465.18,-147.24 456.6,-153.47 462.36,-157.45"/>
</g>
<!-- Node4 -->
<g id="node4" class="node">
<title>Node4</title>
<g id="a_node4"><a xlink:href="../../da/d5a/classmoodycamel_1_1ReaderWriterQueue.html#a0e5b8df7c82c81339d0996528b2a0b59" target="_top" xlink:title=" ">
<polygon fill="white" stroke="black" points="225.5,-196.5 225.5,-226.5 376.5,-226.5 376.5,-196.5 225.5,-196.5"/>
<text text-anchor="start" x="233.5" y="-214.5" font-family="Helvetica,sans-Serif" font-size="10.00">moodycamel::ReaderWriter</text>
<text text-anchor="middle" x="301" y="-203.5" font-family="Helvetica,sans-Serif" font-size="10.00">Queue::pop</text>
</a>
</g>
</g>
<!-- Node1&#45;&gt;Node4 -->
<g id="edge3" class="edge">
<title>Node1&#45;&gt;Node4</title>
<path fill="none" stroke="midnightblue" d="M447.4,-152.42C429.32,-163.17 403.72,-177.49 380,-187.5 372.43,-190.69 364.28,-193.67 356.22,-196.37"/>
<polygon fill="midnightblue" stroke="midnightblue" points="449.36,-155.33 456.11,-147.17 445.74,-149.33 449.36,-155.33"/>
</g>
<!-- Node6 -->
<g id="node6" class="node">
<title>Node6</title>
<g id="a_node6"><a xlink:href="../../da/d5a/classmoodycamel_1_1ReaderWriterQueue.html#a3df98a0b69b7ee0b301e0e8f2ce02811" target="_top" xlink:title=" ">
<polygon fill="white" stroke="black" points="225.5,-147.5 225.5,-177.5 376.5,-177.5 376.5,-147.5 225.5,-147.5"/>
<text text-anchor="start" x="233.5" y="-165.5" font-family="Helvetica,sans-Serif" font-size="10.00">moodycamel::ReaderWriter</text>
<text text-anchor="middle" x="301" y="-154.5" font-family="Helvetica,sans-Serif" font-size="10.00">Queue::ReaderWriterQueue</text>
</a>
</g>
</g>
<!-- Node1&#45;&gt;Node6 -->
<g id="edge5" class="edge">
<title>Node1&#45;&gt;Node6</title>
<path fill="none" stroke="midnightblue" d="M405.82,-147.19C396.28,-148.59 386.42,-150.05 376.72,-151.48"/>
<polygon fill="midnightblue" stroke="midnightblue" points="406.62,-150.61 416,-145.69 405.6,-143.68 406.62,-150.61"/>
</g>
<!-- Node7 -->
<g id="node7" class="node">
<title>Node7</title>
<g id="a_node7"><a xlink:href="../../da/d5a/classmoodycamel_1_1ReaderWriterQueue.html#a00457f03809aefe322053415eaba9d8e" target="_top" xlink:title=" ">
<polygon fill="white" stroke="black" points="225.5,-98.5 225.5,-128.5 376.5,-128.5 376.5,-98.5 225.5,-98.5"/>
<text text-anchor="start" x="233.5" y="-116.5" font-family="Helvetica,sans-Serif" font-size="10.00">moodycamel::ReaderWriter</text>
<text text-anchor="middle" x="301" y="-105.5" font-family="Helvetica,sans-Serif" font-size="10.00">Queue::size_approx</text>
</a>
</g>
</g>
<!-- Node1&#45;&gt;Node7 -->
<g id="edge6" class="edge">
<title>Node1&#45;&gt;Node7</title>
<path fill="none" stroke="midnightblue" d="M405.82,-128.2C396.28,-126.85 386.42,-125.45 376.72,-124.08"/>
<polygon fill="midnightblue" stroke="midnightblue" points="405.61,-131.7 416,-129.64 406.59,-124.77 405.61,-131.7"/>
</g>
<!-- Node8 -->
<g id="node8" class="node">
<title>Node8</title>
<g id="a_node8"><a xlink:href="../../da/d5a/classmoodycamel_1_1ReaderWriterQueue.html#ae7ada3411e98c5d1aab09ec6945a6a9e" target="_top" xlink:title=" ">
<polygon fill="white" stroke="black" points="225.5,-49.5 225.5,-79.5 376.5,-79.5 376.5,-49.5 225.5,-49.5"/>
<text text-anchor="start" x="233.5" y="-67.5" font-family="Helvetica,sans-Serif" font-size="10.00">moodycamel::ReaderWriter</text>
<text text-anchor="middle" x="301" y="-56.5" font-family="Helvetica,sans-Serif" font-size="10.00">Queue::try_dequeue</text>
</a>
</g>
</g>
<!-- Node1&#45;&gt;Node8 -->
<g id="edge7" class="edge">
<title>Node1&#45;&gt;Node8</title>
<path fill="none" stroke="midnightblue" d="M446.63,-122.95C428.54,-112.75 403.25,-99.24 380,-89.5 371.47,-85.93 362.25,-82.56 353.23,-79.52"/>
<polygon fill="midnightblue" stroke="midnightblue" points="444.96,-126.03 455.38,-127.95 448.44,-119.95 444.96,-126.03"/>
</g>
<!-- Node12 -->
<g id="node12" class="node">
<title>Node12</title>
<g id="a_node12"><a xlink:href="../../da/d5a/classmoodycamel_1_1ReaderWriterQueue.html#aeb0f99a4ee76afa8f93f13a8a5017ea5" target="_top" xlink:title=" ">
<polygon fill="white" stroke="black" points="222,-0.5 222,-30.5 380,-30.5 380,-0.5 222,-0.5"/>
<text text-anchor="start" x="230" y="-18.5" font-family="Helvetica,sans-Serif" font-size="10.00">moodycamel::ReaderWriter</text>
<text text-anchor="middle" x="301" y="-7.5" font-family="Helvetica,sans-Serif" font-size="10.00">Queue::~ReaderWriterQueue</text>
</a>
</g>
</g>
<!-- Node1&#45;&gt;Node12 -->
<g id="edge11" class="edge">
<title>Node1&#45;&gt;Node12</title>
<path fill="none" stroke="midnightblue" d="M459.15,-119.69C443.24,-98.01 413.59,-61.67 380,-40.5 373.98,-36.71 367.34,-33.45 360.55,-30.65"/>
<polygon fill="midnightblue" stroke="midnightblue" points="456.43,-121.91 465.1,-128 462.13,-117.83 456.43,-121.91"/>
</g>
<!-- Node3 -->
<g id="node3" class="node">
<title>Node3</title>
<g id="a_node3"><a xlink:href="../../dc/d3e/classmoodycamel_1_1BlockingReaderWriterQueue.html#a3dfe3b5290221233dc44ad1740138f2a" target="_top" xlink:title=" ">
<polygon fill="white" stroke="black" points="11.5,-245.5 11.5,-275.5 174.5,-275.5 174.5,-245.5 11.5,-245.5"/>
<text text-anchor="start" x="19.5" y="-263.5" font-family="Helvetica,sans-Serif" font-size="10.00">moodycamel::BlockingReader</text>
<text text-anchor="middle" x="93" y="-252.5" font-family="Helvetica,sans-Serif" font-size="10.00">WriterQueue::peek</text>
</a>
</g>
</g>
<!-- Node2&#45;&gt;Node3 -->
<g id="edge2" class="edge">
<title>Node2&#45;&gt;Node3</title>
<path fill="none" stroke="midnightblue" d="M215.19,-260.5C201.79,-260.5 187.97,-260.5 174.67,-260.5"/>
<polygon fill="midnightblue" stroke="midnightblue" points="215.34,-264 225.34,-260.5 215.34,-257 215.34,-264"/>
</g>
<!-- Node5 -->
<g id="node5" class="node">
<title>Node5</title>
<g id="a_node5"><a xlink:href="../../dc/d3e/classmoodycamel_1_1BlockingReaderWriterQueue.html#a29d109d74bcbbefce705b5c8894f9855" target="_top" xlink:title=" ">
<polygon fill="white" stroke="black" points="11.5,-196.5 11.5,-226.5 174.5,-226.5 174.5,-196.5 11.5,-196.5"/>
<text text-anchor="start" x="19.5" y="-214.5" font-family="Helvetica,sans-Serif" font-size="10.00">moodycamel::BlockingReader</text>
<text text-anchor="middle" x="93" y="-203.5" font-family="Helvetica,sans-Serif" font-size="10.00">WriterQueue::pop</text>
</a>
</g>
</g>
<!-- Node4&#45;&gt;Node5 -->
<g id="edge4" class="edge">
<title>Node4&#45;&gt;Node5</title>
<path fill="none" stroke="midnightblue" d="M215.19,-211.5C201.79,-211.5 187.97,-211.5 174.67,-211.5"/>
<polygon fill="midnightblue" stroke="midnightblue" points="215.34,-215 225.34,-211.5 215.34,-208 215.34,-215"/>
</g>
<!-- Node9 -->
<g id="node9" class="node">
<title>Node9</title>
<g id="a_node9"><a xlink:href="../../dc/d3e/classmoodycamel_1_1BlockingReaderWriterQueue.html#a991df0aff00ce8a7c341e9fdd577f9f8" target="_top" xlink:title=" ">
<polygon fill="white" stroke="black" points="11.5,-98.5 11.5,-128.5 174.5,-128.5 174.5,-98.5 11.5,-98.5"/>
<text text-anchor="start" x="19.5" y="-116.5" font-family="Helvetica,sans-Serif" font-size="10.00">moodycamel::BlockingReader</text>
<text text-anchor="middle" x="93" y="-105.5" font-family="Helvetica,sans-Serif" font-size="10.00">WriterQueue::try_dequeue</text>
</a>
</g>
</g>
<!-- Node8&#45;&gt;Node9 -->
<g id="edge8" class="edge">
<title>Node8&#45;&gt;Node9</title>
<path fill="none" stroke="midnightblue" d="M226.83,-81.9C204.04,-87.32 179.12,-93.25 157.09,-98.49"/>
<polygon fill="midnightblue" stroke="midnightblue" points="227.87,-85.25 236.79,-79.53 226.25,-78.44 227.87,-85.25"/>
</g>
<!-- Node10 -->
<g id="node10" class="node">
<title>Node10</title>
<g id="a_node10"><a xlink:href="../../dc/d3e/classmoodycamel_1_1BlockingReaderWriterQueue.html#a4616457ce44d363d52b068001c31ae36" target="_top" xlink:title=" ">
<polygon fill="white" stroke="black" points="11.5,-49.5 11.5,-79.5 174.5,-79.5 174.5,-49.5 11.5,-49.5"/>
<text text-anchor="start" x="19.5" y="-67.5" font-family="Helvetica,sans-Serif" font-size="10.00">moodycamel::BlockingReader</text>
<text text-anchor="middle" x="93" y="-56.5" font-family="Helvetica,sans-Serif" font-size="10.00">WriterQueue::wait_dequeue</text>
</a>
</g>
</g>
<!-- Node8&#45;&gt;Node10 -->
<g id="edge9" class="edge">
<title>Node8&#45;&gt;Node10</title>
<path fill="none" stroke="midnightblue" d="M215.19,-64.5C201.79,-64.5 187.97,-64.5 174.67,-64.5"/>
<polygon fill="midnightblue" stroke="midnightblue" points="215.34,-68 225.34,-64.5 215.34,-61 215.34,-68"/>
</g>
<!-- Node11 -->
<g id="node11" class="node">
<title>Node11</title>
<g id="a_node11"><a xlink:href="../../dc/d3e/classmoodycamel_1_1BlockingReaderWriterQueue.html#a9d8e2851b594285ea6b6a7a342249ead" target="_top" xlink:title=" ">
<polygon fill="white" stroke="black" points="0,-0.5 0,-30.5 186,-30.5 186,-0.5 0,-0.5"/>
<text text-anchor="start" x="8" y="-18.5" font-family="Helvetica,sans-Serif" font-size="10.00">moodycamel::BlockingReader</text>
<text text-anchor="middle" x="93" y="-7.5" font-family="Helvetica,sans-Serif" font-size="10.00">WriterQueue::wait_dequeue_timed</text>
</a>
</g>
</g>
<!-- Node8&#45;&gt;Node11 -->
<g id="edge10" class="edge">
<title>Node8&#45;&gt;Node11</title>
<path fill="none" stroke="midnightblue" d="M226.83,-47.1C204.04,-41.68 179.12,-35.75 157.09,-30.51"/>
<polygon fill="midnightblue" stroke="midnightblue" points="226.25,-50.56 236.79,-49.47 227.87,-43.75 226.25,-50.56"/>
</g>
</g>
</svg>
        <g id="navigator" transform="translate(0 0)" fill="#404254">
                <rect fill="#f2f5e9" fill-opacity="0.5" stroke="#606060" stroke-width=".5" x="0" y="0" width="60" height="60"/>
                <use id="zoomplus" xlink:href="#zoomPlus" x="17" y="9" onmousedown="handleZoom(evt,'in')"/>
                <use id="zoomminus" xlink:href="#zoomMin" x="42" y="9" onmousedown="handleZoom(evt,'out')"/>
                <use id="reset" xlink:href="#resetDef" x="30" y="36" onmousedown="handleReset()"/>
                <g id="arrowUp" xlink:href="#dirArrow" transform="translate(30 24)" onmousedown="handlePan(0,-1)">
                  <use xlink:href="#rim" fill="#404040">
                        <set attributeName="fill" to="#808080" begin="arrowUp.mouseover" end="arrowUp.mouseout"/>
                  </use>
                  <path fill="none" stroke="white" stroke-width="1.5" d="M0,-3.0v7 M-2.5,-0.5L0,-3.0L2.5,-0.5"/>
                </g>
                <g id="arrowRight" xlink:href="#dirArrow" transform="rotate(90) translate(36 -43)" onmousedown="handlePan(1,0)">
                  <use xlink:href="#rim" fill="#404040">
                        <set attributeName="fill" to="#808080" begin="arrowRight.mouseover" end="arrowRight.mouseout"/>
                  </use>
                  <path fill="none" stroke="white" stroke-width="1.5" d="M0,-3.0v7 M-2.5,-0.5L0,-3.0L2.5,-0.5"/>
                </g>
                <g id="arrowDown" xlink:href="#dirArrow" transform="rotate(180) translate(-30 -48)" onmousedown="handlePan(0,1)">
                  <use xlink:href="#rim" fill="#404040">
                        <set attributeName="fill" to="#808080" begin="arrowDown.mouseover" end="arrowDown.mouseout"/>
                  </use>
                  <path fill="none" stroke="white" stroke-width="1.5" d="M0,-3.0v7 M-2.5,-0.5L0,-3.0L2.5,-0.5"/>
                </g>
                <g id="arrowLeft" xlink:href="#dirArrow" transform="rotate(270) translate(-36 17)" onmousedown="handlePan(-1,0)">
                  <use xlink:href="#rim" fill="#404040">
                        <set attributeName="fill" to="#808080" begin="arrowLeft.mouseover" end="arrowLeft.mouseout"/>
                  </use>
                  <path fill="none" stroke="white" stroke-width="1.5" d="M0,-3.0v7 M-2.5,-0.5L0,-3.0L2.5,-0.5"/>
                </g>
        </g>
        <svg viewBox="0 0 15 15" width="100%" height="30px" preserveAspectRatio="xMaxYMin meet">
         <g id="arrow_out" transform="scale(0.3 0.3)">
          <a xlink:href="namespacemoodycamel_a959b29a846ef87a90719aabacd25d4d1_icgraph_org.svg" target="_base">
           <rect id="button" ry="5" rx="5" y="6" x="6" height="38" width="38"
                fill="#f2f5e9" fill-opacity="0.5" stroke="#606060" stroke-width="1.0"/>
           <path id="arrow"
             d="M 11.500037,31.436501 C 11.940474,20.09759 22.043105,11.32322 32.158766,21.979434 L 37.068811,17.246167 C 37.068811,17.246167 37.088388,32 37.088388,32 L 22.160133,31.978069 C 22.160133,31.978069 26.997745,27.140456 26.997745,27.140456 C 18.528582,18.264221 13.291696,25.230495 11.500037,31.436501 z"
             style="fill:#404040;"/>
          </a>
         </g>
        </svg>
</svg>
