<?xml version="1.0" encoding="UTF-8" standalone="no"?>
<!DOCTYPE svg PUBLIC "-//W3C//DTD SVG 1.1//EN"
 "http://www.w3.org/Graphics/SVG/1.1/DTD/svg11.dtd">
<!-- Generated by graphviz version 2.43.0 (0)
 -->
<!-- Title: DocumentCostHandler::checkDocument Pages: 1 -->
<svg width="523pt" height="61pt"
 viewBox="0.00 0.00 523.00 61.00" xmlns="http://www.w3.org/2000/svg" xmlns:xlink="http://www.w3.org/1999/xlink">
<g id="graph0" class="graph" transform="scale(1 1) rotate(0) translate(4 57)">
<title>DocumentCostHandler::checkDocument</title>
<polygon fill="white" stroke="transparent" points="-4,4 -4,-57 519,-57 519,4 -4,4"/>
<!-- Node1 -->
<g id="node1" class="node">
<title>Node1</title>
<g id="a_node1"><a xlink:title=" ">
<polygon fill="#bfbfbf" stroke="black" points="388,-0.5 388,-30.5 515,-30.5 515,-0.5 388,-0.5"/>
<text text-anchor="start" x="396" y="-18.5" font-family="Helvetica,sans-Serif" font-size="10.00">DocumentCostHandler</text>
<text text-anchor="middle" x="451.5" y="-7.5" font-family="Helvetica,sans-Serif" font-size="10.00">::checkDocument</text>
</a>
</g>
</g>
<!-- Node2 -->
<g id="node2" class="node">
<title>Node2</title>
<g id="a_node2"><a xlink:href="../../d6/de9/classJSONContainer.html#a7eaf570df5673e2fb180db8313437a76" target="_top" xlink:title=" ">
<polygon fill="white" stroke="black" points="201,-22.5 201,-52.5 352,-52.5 352,-22.5 201,-22.5"/>
<text text-anchor="start" x="209" y="-40.5" font-family="Helvetica,sans-Serif" font-size="10.00">JSONContainer::createTemp</text>
<text text-anchor="middle" x="276.5" y="-29.5" font-family="Helvetica,sans-Serif" font-size="10.00">ViewDocs</text>
</a>
</g>
</g>
<!-- Node1&#45;&gt;Node2 -->
<g id="edge1" class="edge">
<title>Node1&#45;&gt;Node2</title>
<path fill="none" stroke="midnightblue" d="M377.45,-24.79C369.09,-25.85 360.55,-26.94 352.16,-28.01"/>
<polygon fill="midnightblue" stroke="midnightblue" points="378.08,-28.24 387.55,-23.5 377.19,-21.29 378.08,-28.24"/>
</g>
<!-- Node3 -->
<g id="node3" class="node">
<title>Node3</title>
<g id="a_node3"><a xlink:href="../../d6/de9/classJSONContainer.html#a9bc248f945192202d0eed9ba07ed9b28" target="_top" xlink:title=" ">
<polygon fill="white" stroke="black" points="0,-0.5 0,-30.5 165,-30.5 165,-0.5 0,-0.5"/>
<text text-anchor="start" x="8" y="-18.5" font-family="Helvetica,sans-Serif" font-size="10.00">JSONContainer::useViewBased</text>
<text text-anchor="middle" x="82.5" y="-7.5" font-family="Helvetica,sans-Serif" font-size="10.00">OnSample</text>
</a>
</g>
</g>
<!-- Node1&#45;&gt;Node3 -->
<g id="edge3" class="edge">
<title>Node1&#45;&gt;Node3</title>
<path fill="none" stroke="midnightblue" d="M377.82,-13.86C369.12,-13.71 360.36,-13.58 352,-13.5 284.89,-12.82 268.11,-12.93 201,-13.5 189.37,-13.6 177.1,-13.75 165.04,-13.93"/>
<polygon fill="midnightblue" stroke="midnightblue" points="377.91,-17.36 387.97,-14.04 378.04,-10.36 377.91,-17.36"/>
</g>
<!-- Node2&#45;&gt;Node3 -->
<g id="edge2" class="edge">
<title>Node2&#45;&gt;Node3</title>
<path fill="none" stroke="midnightblue" d="M191.03,-27.82C182.48,-26.84 173.81,-25.85 165.29,-24.87"/>
<polygon fill="midnightblue" stroke="midnightblue" points="190.66,-31.3 200.99,-28.96 191.46,-24.35 190.66,-31.3"/>
</g>
</g>
</svg>
