<?xml version="1.0" encoding="UTF-8" standalone="no"?>
<!DOCTYPE svg PUBLIC "-//W3C//DTD SVG 1.1//EN"
 "http://www.w3.org/Graphics/SVG/1.1/DTD/svg11.dtd">
<!-- Generated by graphviz version 2.43.0 (0)
 -->
<!-- Title: CacheExecutor::execute Pages: 1 -->
<svg width="878pt" height="241pt"
 viewBox="0.00 0.00 878.00 240.50" xmlns="http://www.w3.org/2000/svg" xmlns:xlink="http://www.w3.org/1999/xlink">
<g id="graph0" class="graph" transform="scale(1 1) rotate(0) translate(4 236.5)">
<title>CacheExecutor::execute</title>
<polygon fill="white" stroke="transparent" points="-4,4 -4,-236.5 874,-236.5 874,4 -4,4"/>
<!-- Node1 -->
<g id="node1" class="node">
<title>Node1</title>
<g id="a_node1"><a xlink:title=" ">
<polygon fill="#bfbfbf" stroke="black" points="0,-77 0,-96 133,-96 133,-77 0,-77"/>
<text text-anchor="middle" x="66.5" y="-84" font-family="Helvetica,sans-Serif" font-size="10.00">CacheExecutor::execute</text>
</a>
</g>
</g>
<!-- Node2 -->
<g id="node2" class="node">
<title>Node2</title>
<g id="a_node2"><a xlink:href="../../d6/de9/classJSONContainer.html#af63f3fd97bbbf0f5fde4659fd84a8c8c" target="_top" xlink:title=" ">
<polygon fill="white" stroke="black" points="171,-137 171,-156 308,-156 308,-137 171,-137"/>
<text text-anchor="middle" x="239.5" y="-144" font-family="Helvetica,sans-Serif" font-size="10.00">JSONContainer::forAllRet</text>
</a>
</g>
</g>
<!-- Node1&#45;&gt;Node2 -->
<g id="edge1" class="edge">
<title>Node1&#45;&gt;Node2</title>
<path fill="none" stroke="midnightblue" d="M89,-96.04C109.36,-104.87 140.91,-118.02 169,-127.5 175.93,-129.84 183.31,-132.1 190.59,-134.19"/>
<polygon fill="midnightblue" stroke="midnightblue" points="189.81,-137.61 200.38,-136.94 191.7,-130.87 189.81,-137.61"/>
</g>
<!-- Node11 -->
<g id="node11" class="node">
<title>Node11</title>
<g id="a_node11"><a xlink:href="../../d6/de9/classJSONContainer.html#a70b90dba5239d71cb6249c9273768e6c" target="_top" xlink:title=" ">
<polygon fill="white" stroke="black" points="169.5,-99 169.5,-118 309.5,-118 309.5,-99 169.5,-99"/>
<text text-anchor="middle" x="239.5" y="-106" font-family="Helvetica,sans-Serif" font-size="10.00">JSONContainer::getCache</text>
</a>
</g>
</g>
<!-- Node1&#45;&gt;Node11 -->
<g id="edge13" class="edge">
<title>Node1&#45;&gt;Node11</title>
<path fill="none" stroke="midnightblue" d="M133.12,-94.94C141.65,-96.04 150.46,-97.17 159.19,-98.3"/>
<polygon fill="midnightblue" stroke="midnightblue" points="159,-101.8 169.36,-99.61 159.89,-94.86 159,-101.8"/>
</g>
<!-- Node12 -->
<g id="node12" class="node">
<title>Node12</title>
<g id="a_node12"><a xlink:href="../../de/da0/classjoda_1_1query_1_1AndPredicate.html#a9274026edfd483ecf1b47775e4c4aca3" target="_top" xlink:title=" ">
<polygon fill="white" stroke="black" points="169,-49.5 169,-79.5 310,-79.5 310,-49.5 169,-49.5"/>
<text text-anchor="start" x="177" y="-67.5" font-family="Helvetica,sans-Serif" font-size="10.00">joda::query::AndPredicate</text>
<text text-anchor="middle" x="239.5" y="-56.5" font-family="Helvetica,sans-Serif" font-size="10.00">::getLHS</text>
</a>
</g>
</g>
<!-- Node1&#45;&gt;Node12 -->
<g id="edge14" class="edge">
<title>Node1&#45;&gt;Node12</title>
<path fill="none" stroke="midnightblue" d="M133.12,-78.06C141.52,-76.98 150.18,-75.86 158.77,-74.76"/>
<polygon fill="midnightblue" stroke="midnightblue" points="159.32,-78.22 168.79,-73.47 158.43,-71.27 159.32,-78.22"/>
</g>
<!-- Node13 -->
<g id="node13" class="node">
<title>Node13</title>
<g id="a_node13"><a xlink:href="../../d5/de6/classjoda_1_1query_1_1Query.html#ae2a23dc92a1ae2eabccf64c3515acae1" target="_top" xlink:title=" ">
<polygon fill="white" stroke="black" points="186.5,-0.5 186.5,-30.5 292.5,-30.5 292.5,-0.5 186.5,-0.5"/>
<text text-anchor="start" x="194.5" y="-18.5" font-family="Helvetica,sans-Serif" font-size="10.00">joda::query::Query</text>
<text text-anchor="middle" x="239.5" y="-7.5" font-family="Helvetica,sans-Serif" font-size="10.00">::getPredicate</text>
</a>
</g>
</g>
<!-- Node1&#45;&gt;Node13 -->
<g id="edge15" class="edge">
<title>Node1&#45;&gt;Node13</title>
<path fill="none" stroke="midnightblue" d="M86.7,-76.9C106.93,-66.96 139.82,-51.26 169,-39.5 173.5,-37.69 178.19,-35.88 182.93,-34.13"/>
<polygon fill="midnightblue" stroke="midnightblue" points="184.44,-37.3 192.65,-30.6 182.05,-30.72 184.44,-37.3"/>
</g>
<!-- Node3 -->
<g id="node3" class="node">
<title>Node3</title>
<g id="a_node3"><a xlink:href="../../d6/de9/classJSONContainer.html#a9170b6ae6e7dbcf2cb9a6121a1430057" target="_top" xlink:title=" ">
<polygon fill="white" stroke="black" points="346,-137 346,-156 510,-156 510,-137 346,-137"/>
<text text-anchor="middle" x="428" y="-144" font-family="Helvetica,sans-Serif" font-size="10.00">JSONContainer::reparseSubset</text>
</a>
</g>
</g>
<!-- Node2&#45;&gt;Node3 -->
<g id="edge2" class="edge">
<title>Node2&#45;&gt;Node3</title>
<path fill="none" stroke="midnightblue" d="M308.09,-146.5C317.13,-146.5 326.51,-146.5 335.86,-146.5"/>
<polygon fill="midnightblue" stroke="midnightblue" points="335.98,-150 345.98,-146.5 335.98,-143 335.98,-150"/>
</g>
<!-- Node3&#45;&gt;Node3 -->
<g id="edge8" class="edge">
<title>Node3&#45;&gt;Node3</title>
<path fill="none" stroke="midnightblue" d="M399.02,-156.26C384.93,-165.07 394.59,-174.5 428,-174.5 450.97,-174.5 462.72,-170.04 463.23,-164.39"/>
<polygon fill="midnightblue" stroke="midnightblue" points="465.85,-162.05 456.98,-156.26 460.3,-166.32 465.85,-162.05"/>
</g>
<!-- Node4 -->
<g id="node4" class="node">
<title>Node4</title>
<g id="a_node4"><a xlink:href="../../d6/de9/classJSONContainer.html#ab804dc033e52dec30eaf7bc50cc21b57" target="_top" xlink:title=" ">
<polygon fill="white" stroke="black" points="743.5,-109 743.5,-128 869.5,-128 869.5,-109 743.5,-109"/>
<text text-anchor="middle" x="806.5" y="-116" font-family="Helvetica,sans-Serif" font-size="10.00">JSONContainer::isView</text>
</a>
</g>
</g>
<!-- Node3&#45;&gt;Node4 -->
<g id="edge3" class="edge">
<title>Node3&#45;&gt;Node4</title>
<path fill="none" stroke="midnightblue" d="M510.23,-141.44C565.69,-137.86 640.81,-132.78 707,-127.5 715.43,-126.83 724.26,-126.08 733.02,-125.31"/>
<polygon fill="midnightblue" stroke="midnightblue" points="733.6,-128.77 743.25,-124.4 732.98,-121.8 733.6,-128.77"/>
</g>
<!-- Node5 -->
<g id="node5" class="node">
<title>Node5</title>
<g id="a_node5"><a xlink:href="../../d1/d42/classFileOrigin.html#ac6b575f1ee18bc1cec0da7e31198e874" target="_top" xlink:title=" ">
<polygon fill="white" stroke="black" points="555,-175 555,-194 698,-194 698,-175 555,-175"/>
<text text-anchor="middle" x="626.5" y="-182" font-family="Helvetica,sans-Serif" font-size="10.00">FileOrigin::mergeIntervals</text>
</a>
</g>
</g>
<!-- Node3&#45;&gt;Node5 -->
<g id="edge4" class="edge">
<title>Node3&#45;&gt;Node5</title>
<path fill="none" stroke="midnightblue" d="M478.33,-156.04C504.96,-161.19 538.03,-167.58 566.07,-173.01"/>
<polygon fill="midnightblue" stroke="midnightblue" points="565.67,-176.49 576.15,-174.96 566.99,-169.62 565.67,-176.49"/>
</g>
<!-- Node6 -->
<g id="node6" class="node">
<title>Node6</title>
<g id="a_node6"><a xlink:href="../../d1/d42/classFileOrigin.html#a36cf3be8866ae066538faaca95c2b4aa" target="_top" xlink:title=" ">
<polygon fill="white" stroke="black" points="557,-213 557,-232 696,-232 696,-213 557,-213"/>
<text text-anchor="middle" x="626.5" y="-220" font-family="Helvetica,sans-Serif" font-size="10.00">FileOrigin::parseIntervals</text>
</a>
</g>
</g>
<!-- Node3&#45;&gt;Node6 -->
<g id="edge5" class="edge">
<title>Node3&#45;&gt;Node6</title>
<path fill="none" stroke="midnightblue" d="M445.55,-156C467.77,-168.43 508.78,-190.17 546,-203.5 553.06,-206.03 560.59,-208.32 568.1,-210.37"/>
<polygon fill="midnightblue" stroke="midnightblue" points="567.36,-213.8 577.92,-212.92 569.12,-207.02 567.36,-213.8"/>
</g>
<!-- Node8 -->
<g id="node8" class="node">
<title>Node8</title>
<g id="a_node8"><a xlink:href="../../d6/de9/classJSONContainer.html#a924f326dbf66da05173e2a23bbbc528e" target="_top" xlink:title=" ">
<polygon fill="white" stroke="black" points="546,-99 546,-118 707,-118 707,-99 546,-99"/>
<text text-anchor="middle" x="626.5" y="-106" font-family="Helvetica,sans-Serif" font-size="10.00">JSONContainer::removeViews</text>
</a>
</g>
</g>
<!-- Node3&#45;&gt;Node8 -->
<g id="edge7" class="edge">
<title>Node3&#45;&gt;Node8</title>
<path fill="none" stroke="midnightblue" d="M478.33,-136.96C504.96,-131.81 538.03,-125.42 566.07,-119.99"/>
<polygon fill="midnightblue" stroke="midnightblue" points="566.99,-123.38 576.15,-118.04 565.67,-116.51 566.99,-123.38"/>
</g>
<!-- Node9 -->
<g id="node9" class="node">
<title>Node9</title>
<g id="a_node9"><a xlink:href="../../d6/de9/classJSONContainer.html#ab79fb2d42e903a2693e018f9caf26849" target="_top" xlink:title=" ">
<polygon fill="white" stroke="black" points="557.5,-43 557.5,-62 695.5,-62 695.5,-43 557.5,-43"/>
<text text-anchor="middle" x="626.5" y="-50" font-family="Helvetica,sans-Serif" font-size="10.00">JSONContainer::setViews</text>
</a>
</g>
</g>
<!-- Node3&#45;&gt;Node9 -->
<g id="edge9" class="edge">
<title>Node3&#45;&gt;Node9</title>
<path fill="none" stroke="midnightblue" d="M448.41,-136.91C471.58,-125.5 511.52,-105.92 546,-89.5 562.24,-81.77 580.41,-73.29 595.29,-66.41"/>
<polygon fill="midnightblue" stroke="midnightblue" points="596.92,-69.51 604.53,-62.14 593.98,-63.15 596.92,-69.51"/>
</g>
<!-- Node7 -->
<g id="node7" class="node">
<title>Node7</title>
<g id="a_node7"><a xlink:href="../../dc/d58/classFileNameRepo.html#a6322c6db3aefc093806936555509ab53" target="_top" xlink:title=" ">
<polygon fill="white" stroke="black" points="743,-213 743,-232 870,-232 870,-213 743,-213"/>
<text text-anchor="middle" x="806.5" y="-220" font-family="Helvetica,sans-Serif" font-size="10.00">FileNameRepo::getFile</text>
</a>
</g>
</g>
<!-- Node6&#45;&gt;Node7 -->
<g id="edge6" class="edge">
<title>Node6&#45;&gt;Node7</title>
<path fill="none" stroke="midnightblue" d="M696.06,-222.5C708.08,-222.5 720.61,-222.5 732.74,-222.5"/>
<polygon fill="midnightblue" stroke="midnightblue" points="732.8,-226 742.8,-222.5 732.8,-219 732.8,-226"/>
</g>
<!-- Node9&#45;&gt;Node4 -->
<g id="edge10" class="edge">
<title>Node9&#45;&gt;Node4</title>
<path fill="none" stroke="midnightblue" d="M653.38,-62.1C684.19,-73.52 735.77,-92.65 770.21,-105.42"/>
<polygon fill="midnightblue" stroke="midnightblue" points="769.28,-108.8 779.87,-109 771.72,-102.24 769.28,-108.8"/>
</g>
<!-- Node9&#45;&gt;Node9 -->
<g id="edge11" class="edge">
<title>Node9&#45;&gt;Node9</title>
<path fill="none" stroke="midnightblue" d="M598.76,-62.26C585.26,-71.07 594.51,-80.5 626.5,-80.5 648.49,-80.5 659.74,-76.04 660.23,-70.39"/>
<polygon fill="midnightblue" stroke="midnightblue" points="662.99,-68.23 654.24,-62.26 657.35,-72.38 662.99,-68.23"/>
</g>
<!-- Node10 -->
<g id="node10" class="node">
<title>Node10</title>
<g id="a_node10"><a xlink:href="../../d6/de9/classJSONContainer.html#aff361f24e550af9c8898fdb6b7d893e6" target="_top" xlink:title=" ">
<polygon fill="white" stroke="black" points="750,-43 750,-62 863,-62 863,-43 750,-43"/>
<text text-anchor="middle" x="806.5" y="-50" font-family="Helvetica,sans-Serif" font-size="10.00">JSONContainer::size</text>
</a>
</g>
</g>
<!-- Node9&#45;&gt;Node10 -->
<g id="edge12" class="edge">
<title>Node9&#45;&gt;Node10</title>
<path fill="none" stroke="midnightblue" d="M695.56,-52.5C710.01,-52.5 725.24,-52.5 739.61,-52.5"/>
<polygon fill="midnightblue" stroke="midnightblue" points="739.9,-56 749.9,-52.5 739.9,-49 739.9,-56"/>
</g>
<!-- Node14 -->
<g id="node14" class="node">
<title>Node14</title>
<g id="a_node14"><a xlink:href="../../d5/de2/classjoda_1_1query_1_1CopyPredicateVisitor.html#aba5a00cf14e689d58a1160cf36ee61cb" target="_top" xlink:title=" ">
<polygon fill="white" stroke="black" points="354.5,-0.5 354.5,-30.5 501.5,-30.5 501.5,-0.5 354.5,-0.5"/>
<text text-anchor="start" x="362.5" y="-18.5" font-family="Helvetica,sans-Serif" font-size="10.00">joda::query::CopyPredicate</text>
<text text-anchor="middle" x="428" y="-7.5" font-family="Helvetica,sans-Serif" font-size="10.00">Visitor::getPredicate</text>
</a>
</g>
</g>
<!-- Node13&#45;&gt;Node14 -->
<g id="edge16" class="edge">
<title>Node13&#45;&gt;Node14</title>
<path fill="none" stroke="midnightblue" d="M292.95,-15.5C308.89,-15.5 326.81,-15.5 344.24,-15.5"/>
<polygon fill="midnightblue" stroke="midnightblue" points="344.42,-19 354.42,-15.5 344.42,-12 344.42,-19"/>
</g>
</g>
</svg>
