<?xml version="1.0" encoding="UTF-8" standalone="no"?>
<!DOCTYPE svg PUBLIC "-//W3C//DTD SVG 1.1//EN"
 "http://www.w3.org/Graphics/SVG/1.1/DTD/svg11.dtd">
<!-- Generated by graphviz version 2.43.0 (0)
 -->
<!-- Title: CacheExecutor::duplicate Pages: 1 -->
<svg width="717pt" height="88pt"
 viewBox="0.00 0.00 717.00 88.00" xmlns="http://www.w3.org/2000/svg" xmlns:xlink="http://www.w3.org/1999/xlink">
<g id="graph0" class="graph" transform="scale(1 1) rotate(0) translate(4 84)">
<title>CacheExecutor::duplicate</title>
<polygon fill="white" stroke="transparent" points="-4,4 -4,-84 713,-84 713,4 -4,4"/>
<!-- Node1 -->
<g id="node1" class="node">
<title>Node1</title>
<g id="a_node1"><a xlink:title=" ">
<polygon fill="#bfbfbf" stroke="black" points="0,-30 0,-49 140,-49 140,-30 0,-30"/>
<text text-anchor="middle" x="70" y="-37" font-family="Helvetica,sans-Serif" font-size="10.00">CacheExecutor::duplicate</text>
</a>
</g>
</g>
<!-- Node2 -->
<g id="node2" class="node">
<title>Node2</title>
<g id="a_node2"><a xlink:href="../../d7/d0e/classCacheExecutor.html#ac77dbaf065e497d18a163be56a37fccc" target="_top" xlink:title=" ">
<polygon fill="white" stroke="black" points="176,-30 176,-49 343,-49 343,-30 176,-30"/>
<text text-anchor="middle" x="259.5" y="-37" font-family="Helvetica,sans-Serif" font-size="10.00">CacheExecutor::CacheExecutor</text>
</a>
</g>
</g>
<!-- Node1&#45;&gt;Node2 -->
<g id="edge1" class="edge">
<title>Node1&#45;&gt;Node2</title>
<path fill="none" stroke="midnightblue" d="M140.02,-39.5C148.42,-39.5 157.12,-39.5 165.8,-39.5"/>
<polygon fill="midnightblue" stroke="midnightblue" points="165.96,-43 175.96,-39.5 165.96,-36 165.96,-43"/>
</g>
<!-- Node3 -->
<g id="node3" class="node">
<title>Node3</title>
<g id="a_node3"><a xlink:href="../../d5/de6/classjoda_1_1query_1_1Query.html#ae2a23dc92a1ae2eabccf64c3515acae1" target="_top" xlink:title=" ">
<polygon fill="white" stroke="black" points="399.5,-49.5 399.5,-79.5 505.5,-79.5 505.5,-49.5 399.5,-49.5"/>
<text text-anchor="start" x="407.5" y="-67.5" font-family="Helvetica,sans-Serif" font-size="10.00">joda::query::Query</text>
<text text-anchor="middle" x="452.5" y="-56.5" font-family="Helvetica,sans-Serif" font-size="10.00">::getPredicate</text>
</a>
</g>
</g>
<!-- Node2&#45;&gt;Node3 -->
<g id="edge2" class="edge">
<title>Node2&#45;&gt;Node3</title>
<path fill="none" stroke="midnightblue" d="M333.25,-49.02C351.76,-51.44 371.47,-54.03 389.39,-56.37"/>
<polygon fill="midnightblue" stroke="midnightblue" points="389.06,-59.86 399.43,-57.68 389.97,-52.92 389.06,-59.86"/>
</g>
<!-- Node5 -->
<g id="node5" class="node">
<title>Node5</title>
<g id="a_node5"><a xlink:href="../../dc/dc3/classjoda_1_1query_1_1ToStringVisitor.html#aa49462ef4eaf77b70b9cdd88f3dee7cb" target="_top" xlink:title=" ">
<polygon fill="white" stroke="black" points="379,-0.5 379,-30.5 526,-30.5 526,-0.5 379,-0.5"/>
<text text-anchor="start" x="387" y="-18.5" font-family="Helvetica,sans-Serif" font-size="10.00">joda::query::ToStringVisitor</text>
<text text-anchor="middle" x="452.5" y="-7.5" font-family="Helvetica,sans-Serif" font-size="10.00">::popString</text>
</a>
</g>
</g>
<!-- Node2&#45;&gt;Node5 -->
<g id="edge4" class="edge">
<title>Node2&#45;&gt;Node5</title>
<path fill="none" stroke="midnightblue" d="M336.26,-29.98C346.92,-28.64 357.92,-27.26 368.69,-25.9"/>
<polygon fill="midnightblue" stroke="midnightblue" points="369.46,-29.34 378.94,-24.62 368.58,-22.39 369.46,-29.34"/>
</g>
<!-- Node4 -->
<g id="node4" class="node">
<title>Node4</title>
<g id="a_node4"><a xlink:href="../../d5/de2/classjoda_1_1query_1_1CopyPredicateVisitor.html#aba5a00cf14e689d58a1160cf36ee61cb" target="_top" xlink:title=" ">
<polygon fill="white" stroke="black" points="562,-49.5 562,-79.5 709,-79.5 709,-49.5 562,-49.5"/>
<text text-anchor="start" x="570" y="-67.5" font-family="Helvetica,sans-Serif" font-size="10.00">joda::query::CopyPredicate</text>
<text text-anchor="middle" x="635.5" y="-56.5" font-family="Helvetica,sans-Serif" font-size="10.00">Visitor::getPredicate</text>
</a>
</g>
</g>
<!-- Node3&#45;&gt;Node4 -->
<g id="edge3" class="edge">
<title>Node3&#45;&gt;Node4</title>
<path fill="none" stroke="midnightblue" d="M505.85,-64.5C520.16,-64.5 536.01,-64.5 551.57,-64.5"/>
<polygon fill="midnightblue" stroke="midnightblue" points="551.73,-68 561.73,-64.5 551.73,-61 551.73,-68"/>
</g>
</g>
</svg>
