<?xml version="1.0" encoding="UTF-8" standalone="no"?>
<!DOCTYPE svg PUBLIC "-//W3C//DTD SVG 1.1//EN"
 "http://www.w3.org/Graphics/SVG/1.1/DTD/svg11.dtd">
<!-- Generated by graphviz version 2.43.0 (0)
 -->
<!-- Title: CacheExecutor::execute Pages: 1 -->
<svg width="877pt" height="183pt"
 viewBox="0.00 0.00 877.00 182.50" xmlns="http://www.w3.org/2000/svg" xmlns:xlink="http://www.w3.org/1999/xlink">
<g id="graph0" class="graph" transform="scale(1 1) rotate(0) translate(4 178.5)">
<title>CacheExecutor::execute</title>
<polygon fill="white" stroke="transparent" points="-4,4 -4,-178.5 873,-178.5 873,4 -4,4"/>
<!-- Node1 -->
<g id="node1" class="node">
<title>Node1</title>
<g id="a_node1"><a xlink:title=" ">
<polygon fill="#bfbfbf" stroke="black" points="0,-77 0,-96 133,-96 133,-77 0,-77"/>
<text text-anchor="middle" x="66.5" y="-84" font-family="Helvetica,sans-Serif" font-size="10.00">CacheExecutor::execute</text>
</a>
</g>
</g>
<!-- Node2 -->
<g id="node2" class="node">
<title>Node2</title>
<g id="a_node2"><a xlink:href="../../d6/de9/classJSONContainer.html#af63f3fd97bbbf0f5fde4659fd84a8c8c" target="_top" xlink:title=" ">
<polygon fill="white" stroke="black" points="171,-137 171,-156 308,-156 308,-137 171,-137"/>
<text text-anchor="middle" x="239.5" y="-144" font-family="Helvetica,sans-Serif" font-size="10.00">JSONContainer::forAllRet</text>
</a>
</g>
</g>
<!-- Node1&#45;&gt;Node2 -->
<g id="edge1" class="edge">
<title>Node1&#45;&gt;Node2</title>
<path fill="none" stroke="midnightblue" d="M89,-96.04C109.36,-104.87 140.91,-118.02 169,-127.5 175.93,-129.84 183.31,-132.1 190.59,-134.19"/>
<polygon fill="midnightblue" stroke="midnightblue" points="189.81,-137.61 200.38,-136.94 191.7,-130.87 189.81,-137.61"/>
</g>
<!-- Node8 -->
<g id="node8" class="node">
<title>Node8</title>
<g id="a_node8"><a xlink:href="../../d6/de9/classJSONContainer.html#a70b90dba5239d71cb6249c9273768e6c" target="_top" xlink:title=" ">
<polygon fill="white" stroke="black" points="169.5,-99 169.5,-118 309.5,-118 309.5,-99 169.5,-99"/>
<text text-anchor="middle" x="239.5" y="-106" font-family="Helvetica,sans-Serif" font-size="10.00">JSONContainer::getCache</text>
</a>
</g>
</g>
<!-- Node1&#45;&gt;Node8 -->
<g id="edge10" class="edge">
<title>Node1&#45;&gt;Node8</title>
<path fill="none" stroke="midnightblue" d="M133.12,-94.94C141.65,-96.04 150.46,-97.17 159.19,-98.3"/>
<polygon fill="midnightblue" stroke="midnightblue" points="159,-101.8 169.36,-99.61 159.89,-94.86 159,-101.8"/>
</g>
<!-- Node9 -->
<g id="node9" class="node">
<title>Node9</title>
<g id="a_node9"><a xlink:href="../../de/da0/classjoda_1_1query_1_1AndPredicate.html#a9274026edfd483ecf1b47775e4c4aca3" target="_top" xlink:title=" ">
<polygon fill="white" stroke="black" points="169,-49.5 169,-79.5 310,-79.5 310,-49.5 169,-49.5"/>
<text text-anchor="start" x="177" y="-67.5" font-family="Helvetica,sans-Serif" font-size="10.00">joda::query::AndPredicate</text>
<text text-anchor="middle" x="239.5" y="-56.5" font-family="Helvetica,sans-Serif" font-size="10.00">::getLHS</text>
</a>
</g>
</g>
<!-- Node1&#45;&gt;Node9 -->
<g id="edge11" class="edge">
<title>Node1&#45;&gt;Node9</title>
<path fill="none" stroke="midnightblue" d="M133.12,-78.06C141.52,-76.98 150.18,-75.86 158.77,-74.76"/>
<polygon fill="midnightblue" stroke="midnightblue" points="159.32,-78.22 168.79,-73.47 158.43,-71.27 159.32,-78.22"/>
</g>
<!-- Node10 -->
<g id="node10" class="node">
<title>Node10</title>
<g id="a_node10"><a xlink:href="../../d5/de6/classjoda_1_1query_1_1Query.html#ae2a23dc92a1ae2eabccf64c3515acae1" target="_top" xlink:title=" ">
<polygon fill="white" stroke="black" points="186.5,-0.5 186.5,-30.5 292.5,-30.5 292.5,-0.5 186.5,-0.5"/>
<text text-anchor="start" x="194.5" y="-18.5" font-family="Helvetica,sans-Serif" font-size="10.00">joda::query::Query</text>
<text text-anchor="middle" x="239.5" y="-7.5" font-family="Helvetica,sans-Serif" font-size="10.00">::getPredicate</text>
</a>
</g>
</g>
<!-- Node1&#45;&gt;Node10 -->
<g id="edge12" class="edge">
<title>Node1&#45;&gt;Node10</title>
<path fill="none" stroke="midnightblue" d="M87.51,-76.85C107.84,-67.2 140.32,-52.14 169,-40.5 174.33,-38.34 179.92,-36.17 185.53,-34.06"/>
<polygon fill="midnightblue" stroke="midnightblue" points="186.76,-37.33 194.92,-30.57 184.33,-30.77 186.76,-37.33"/>
</g>
<!-- Node3 -->
<g id="node3" class="node">
<title>Node3</title>
<g id="a_node3"><a xlink:href="../../d6/de9/classJSONContainer.html#a9170b6ae6e7dbcf2cb9a6121a1430057" target="_top" xlink:title=" ">
<polygon fill="white" stroke="black" points="346,-137 346,-156 510,-156 510,-137 346,-137"/>
<text text-anchor="middle" x="428" y="-144" font-family="Helvetica,sans-Serif" font-size="10.00">JSONContainer::reparseSubset</text>
</a>
</g>
</g>
<!-- Node2&#45;&gt;Node3 -->
<g id="edge2" class="edge">
<title>Node2&#45;&gt;Node3</title>
<path fill="none" stroke="midnightblue" d="M308.09,-146.5C317.13,-146.5 326.51,-146.5 335.86,-146.5"/>
<polygon fill="midnightblue" stroke="midnightblue" points="335.98,-150 345.98,-146.5 335.98,-143 335.98,-150"/>
</g>
<!-- Node3&#45;&gt;Node3 -->
<g id="edge5" class="edge">
<title>Node3&#45;&gt;Node3</title>
<path fill="none" stroke="midnightblue" d="M399.02,-156.26C384.93,-165.07 394.59,-174.5 428,-174.5 450.97,-174.5 462.72,-170.04 463.23,-164.39"/>
<polygon fill="midnightblue" stroke="midnightblue" points="465.85,-162.05 456.98,-156.26 460.3,-166.32 465.85,-162.05"/>
</g>
<!-- Node4 -->
<g id="node4" class="node">
<title>Node4</title>
<g id="a_node4"><a xlink:href="../../d6/de9/classJSONContainer.html#ab804dc033e52dec30eaf7bc50cc21b57" target="_top" xlink:title=" ">
<polygon fill="white" stroke="black" points="743,-147 743,-166 869,-166 869,-147 743,-147"/>
<text text-anchor="middle" x="806" y="-154" font-family="Helvetica,sans-Serif" font-size="10.00">JSONContainer::isView</text>
</a>
</g>
</g>
<!-- Node3&#45;&gt;Node4 -->
<g id="edge3" class="edge">
<title>Node3&#45;&gt;Node4</title>
<path fill="none" stroke="midnightblue" d="M476.6,-156.01C497.76,-159.78 523.03,-163.65 546,-165.5 617.32,-171.25 635.52,-168.78 707,-165.5 715.34,-165.12 724.07,-164.55 732.73,-163.89"/>
<polygon fill="midnightblue" stroke="midnightblue" points="733.16,-167.37 742.85,-163.07 732.6,-160.39 733.16,-167.37"/>
</g>
<!-- Node5 -->
<g id="node5" class="node">
<title>Node5</title>
<g id="a_node5"><a xlink:href="../../d6/de9/classJSONContainer.html#a924f326dbf66da05173e2a23bbbc528e" target="_top" xlink:title=" ">
<polygon fill="white" stroke="black" points="546,-137 546,-156 707,-156 707,-137 546,-137"/>
<text text-anchor="middle" x="626.5" y="-144" font-family="Helvetica,sans-Serif" font-size="10.00">JSONContainer::removeViews</text>
</a>
</g>
</g>
<!-- Node3&#45;&gt;Node5 -->
<g id="edge4" class="edge">
<title>Node3&#45;&gt;Node5</title>
<path fill="none" stroke="midnightblue" d="M510.06,-146.5C518.57,-146.5 527.26,-146.5 535.86,-146.5"/>
<polygon fill="midnightblue" stroke="midnightblue" points="535.89,-150 545.89,-146.5 535.89,-143 535.89,-150"/>
</g>
<!-- Node6 -->
<g id="node6" class="node">
<title>Node6</title>
<g id="a_node6"><a xlink:href="../../d6/de9/classJSONContainer.html#ab79fb2d42e903a2693e018f9caf26849" target="_top" xlink:title=" ">
<polygon fill="white" stroke="black" points="557.5,-81 557.5,-100 695.5,-100 695.5,-81 557.5,-81"/>
<text text-anchor="middle" x="626.5" y="-88" font-family="Helvetica,sans-Serif" font-size="10.00">JSONContainer::setViews</text>
</a>
</g>
</g>
<!-- Node3&#45;&gt;Node6 -->
<g id="edge6" class="edge">
<title>Node3&#45;&gt;Node6</title>
<path fill="none" stroke="midnightblue" d="M462.78,-136.87C495.88,-127.44 546.46,-113.03 582.43,-102.77"/>
<polygon fill="midnightblue" stroke="midnightblue" points="583.5,-106.11 592.16,-100 581.58,-99.38 583.5,-106.11"/>
</g>
<!-- Node6&#45;&gt;Node4 -->
<g id="edge7" class="edge">
<title>Node6&#45;&gt;Node4</title>
<path fill="none" stroke="midnightblue" d="M653.31,-100.1C684.03,-111.52 735.47,-130.65 769.81,-143.42"/>
<polygon fill="midnightblue" stroke="midnightblue" points="768.85,-146.79 779.45,-147 771.29,-140.23 768.85,-146.79"/>
</g>
<!-- Node6&#45;&gt;Node6 -->
<g id="edge8" class="edge">
<title>Node6&#45;&gt;Node6</title>
<path fill="none" stroke="midnightblue" d="M599.07,-100.26C585.72,-109.07 594.86,-118.5 626.5,-118.5 648.25,-118.5 659.37,-114.04 659.86,-108.39"/>
<polygon fill="midnightblue" stroke="midnightblue" points="662.65,-106.28 653.93,-100.26 656.99,-110.4 662.65,-106.28"/>
</g>
<!-- Node7 -->
<g id="node7" class="node">
<title>Node7</title>
<g id="a_node7"><a xlink:href="../../d6/de9/classJSONContainer.html#aff361f24e550af9c8898fdb6b7d893e6" target="_top" xlink:title=" ">
<polygon fill="white" stroke="black" points="749.5,-81 749.5,-100 862.5,-100 862.5,-81 749.5,-81"/>
<text text-anchor="middle" x="806" y="-88" font-family="Helvetica,sans-Serif" font-size="10.00">JSONContainer::size</text>
</a>
</g>
</g>
<!-- Node6&#45;&gt;Node7 -->
<g id="edge9" class="edge">
<title>Node6&#45;&gt;Node7</title>
<path fill="none" stroke="midnightblue" d="M695.62,-90.5C709.94,-90.5 725.01,-90.5 739.24,-90.5"/>
<polygon fill="midnightblue" stroke="midnightblue" points="739.43,-94 749.43,-90.5 739.43,-87 739.43,-94"/>
</g>
<!-- Node11 -->
<g id="node11" class="node">
<title>Node11</title>
<g id="a_node11"><a xlink:href="../../d5/de2/classjoda_1_1query_1_1CopyPredicateVisitor.html#aba5a00cf14e689d58a1160cf36ee61cb" target="_top" xlink:title=" ">
<polygon fill="white" stroke="black" points="354.5,-0.5 354.5,-30.5 501.5,-30.5 501.5,-0.5 354.5,-0.5"/>
<text text-anchor="start" x="362.5" y="-18.5" font-family="Helvetica,sans-Serif" font-size="10.00">joda::query::CopyPredicate</text>
<text text-anchor="middle" x="428" y="-7.5" font-family="Helvetica,sans-Serif" font-size="10.00">Visitor::getPredicate</text>
</a>
</g>
</g>
<!-- Node10&#45;&gt;Node11 -->
<g id="edge13" class="edge">
<title>Node10&#45;&gt;Node11</title>
<path fill="none" stroke="midnightblue" d="M292.95,-15.5C308.89,-15.5 326.81,-15.5 344.24,-15.5"/>
<polygon fill="midnightblue" stroke="midnightblue" points="344.42,-19 354.42,-15.5 344.42,-12 344.42,-19"/>
</g>
</g>
</svg>
