<?xml version="1.0" encoding="UTF-8" standalone="no"?>
<!DOCTYPE svg PUBLIC "-//W3C//DTD SVG 1.1//EN"
 "http://www.w3.org/Graphics/SVG/1.1/DTD/svg11.dtd">
<!-- Generated by graphviz version 2.43.0 (0)
 -->
<!-- Title: RapidJsonDocument Pages: 1 -->
<svg width="686pt" height="164pt"
 viewBox="0.00 0.00 686.00 164.00" xmlns="http://www.w3.org/2000/svg" xmlns:xlink="http://www.w3.org/1999/xlink">
<g id="graph0" class="graph" transform="scale(1 1) rotate(0) translate(4 160)">
<title>RapidJsonDocument</title>
<polygon fill="white" stroke="transparent" points="-4,4 -4,-160 682,-160 682,4 -4,4"/>
<!-- Node1 -->
<g id="node1" class="node">
<title>Node1</title>
<g id="a_node1"><a xlink:title=" ">
<polygon fill="#bfbfbf" stroke="black" points="563,-68.5 563,-87.5 678,-87.5 678,-68.5 563,-68.5"/>
<text text-anchor="middle" x="620.5" y="-75.5" font-family="Helvetica,sans-Serif" font-size="10.00">RapidJsonDocument</text>
</a>
</g>
</g>
<!-- Node2 -->
<g id="node2" class="node">
<title>Node2</title>
<g id="a_node2"><a xlink:title=" ">
<polygon fill="white" stroke="#bfbfbf" points="346.5,-107 346.5,-137 473.5,-137 473.5,-107 346.5,-107"/>
<text text-anchor="start" x="354.5" y="-125" font-family="Helvetica,sans-Serif" font-size="10.00">std::unique_ptr&lt; const</text>
<text text-anchor="middle" x="410" y="-114" font-family="Helvetica,sans-Serif" font-size="10.00"> IOrigin &gt;</text>
</a>
</g>
</g>
<!-- Node2&#45;&gt;Node1 -->
<g id="edge1" class="edge">
<title>Node2&#45;&gt;Node1</title>
<path fill="none" stroke="#9a32cd" stroke-dasharray="5,2" d="M483.61,-106.68C513.73,-100.32 547.75,-93.14 574.21,-87.56"/>
<polygon fill="#9a32cd" stroke="#9a32cd" points="482.62,-103.31 473.56,-108.8 484.06,-110.16 482.62,-103.31"/>
<text text-anchor="middle" x="529.5" y="-103" font-family="Helvetica,sans-Serif" font-size="10.00"> origin</text>
</g>
<!-- Node3 -->
<g id="node3" class="node">
<title>Node3</title>
<g id="a_node3"><a xlink:href="../../d6/d7a/classIOrigin.html" target="_top" xlink:title=" ">
<polygon fill="white" stroke="black" points="116.5,-136.5 116.5,-155.5 165.5,-155.5 165.5,-136.5 116.5,-136.5"/>
<text text-anchor="middle" x="141" y="-143.5" font-family="Helvetica,sans-Serif" font-size="10.00">IOrigin</text>
</a>
</g>
</g>
<!-- Node3&#45;&gt;Node2 -->
<g id="edge2" class="edge">
<title>Node3&#45;&gt;Node2</title>
<path fill="none" stroke="#9a32cd" stroke-dasharray="5,2" d="M175.85,-142.96C218.59,-139.12 292.98,-132.43 346.24,-127.64"/>
<polygon fill="#9a32cd" stroke="#9a32cd" points="175.34,-139.49 165.69,-143.87 175.97,-146.46 175.34,-139.49"/>
<text text-anchor="middle" x="262" y="-141" font-family="Helvetica,sans-Serif" font-size="10.00"> ptr</text>
</g>
<!-- Node4 -->
<g id="node4" class="node">
<title>Node4</title>
<g id="a_node4"><a xlink:title="STL class.">
<polygon fill="white" stroke="#bfbfbf" points="82,-68.5 82,-87.5 200,-87.5 200,-68.5 82,-68.5"/>
<text text-anchor="middle" x="141" y="-75.5" font-family="Helvetica,sans-Serif" font-size="10.00">std::unique_ptr&lt; T &gt;</text>
</a>
</g>
</g>
<!-- Node4&#45;&gt;Node2 -->
<g id="edge3" class="edge">
<title>Node4&#45;&gt;Node2</title>
<path fill="none" stroke="orange" stroke-dasharray="5,2" d="M210.04,-89.21C251.9,-96.11 305.17,-104.89 346.05,-111.63"/>
<polygon fill="orange" stroke="orange" points="210.37,-85.72 199.94,-87.55 209.23,-92.63 210.37,-85.72"/>
<text text-anchor="middle" x="262" y="-106" font-family="Helvetica,sans-Serif" font-size="10.00"> &lt; const IOrigin &gt;</text>
</g>
<!-- Node6 -->
<g id="node6" class="node">
<title>Node6</title>
<g id="a_node6"><a xlink:title=" ">
<polygon fill="white" stroke="#bfbfbf" points="324,-68.5 324,-87.5 496,-87.5 496,-68.5 324,-68.5"/>
<text text-anchor="middle" x="410" y="-75.5" font-family="Helvetica,sans-Serif" font-size="10.00">std::unique_ptr&lt; RJDocument &gt;</text>
</a>
</g>
</g>
<!-- Node4&#45;&gt;Node6 -->
<g id="edge6" class="edge">
<title>Node4&#45;&gt;Node6</title>
<path fill="none" stroke="orange" stroke-dasharray="5,2" d="M210.28,-78C244.9,-78 287.28,-78 323.99,-78"/>
<polygon fill="orange" stroke="orange" points="210.26,-74.5 200.26,-78 210.26,-81.5 210.26,-74.5"/>
<text text-anchor="middle" x="262" y="-81" font-family="Helvetica,sans-Serif" font-size="10.00"> &lt; RJDocument &gt;</text>
</g>
<!-- Node7 -->
<g id="node7" class="node">
<title>Node7</title>
<g id="a_node7"><a xlink:title=" ">
<polygon fill="white" stroke="#bfbfbf" points="328.5,-30.5 328.5,-49.5 491.5,-49.5 491.5,-30.5 328.5,-30.5"/>
<text text-anchor="middle" x="410" y="-37.5" font-family="Helvetica,sans-Serif" font-size="10.00">std::unique_ptr&lt; ViewLayer &gt;</text>
</a>
</g>
</g>
<!-- Node4&#45;&gt;Node7 -->
<g id="edge9" class="edge">
<title>Node4&#45;&gt;Node7</title>
<path fill="none" stroke="orange" stroke-dasharray="5,2" d="M197.37,-66.57C204.3,-65.29 211.31,-64.06 218,-63 254.12,-57.27 294.29,-52.23 328.43,-48.35"/>
<polygon fill="orange" stroke="orange" points="196.49,-63.18 187.31,-68.48 197.79,-70.05 196.49,-63.18"/>
<text text-anchor="middle" x="262" y="-66" font-family="Helvetica,sans-Serif" font-size="10.00"> &lt; ViewLayer &gt;</text>
</g>
<!-- Node5 -->
<g id="node5" class="node">
<title>Node5</title>
<g id="a_node5"><a xlink:title=" ">
<polygon fill="white" stroke="#bfbfbf" points="0,-68.5 0,-87.5 29,-87.5 29,-68.5 0,-68.5"/>
<text text-anchor="middle" x="14.5" y="-75.5" font-family="Helvetica,sans-Serif" font-size="10.00">T</text>
</a>
</g>
</g>
<!-- Node5&#45;&gt;Node4 -->
<g id="edge4" class="edge">
<title>Node5&#45;&gt;Node4</title>
<path fill="none" stroke="#9a32cd" stroke-dasharray="5,2" d="M39.42,-78C51.53,-78 66.79,-78 81.75,-78"/>
<polygon fill="#9a32cd" stroke="#9a32cd" points="39.3,-74.5 29.3,-78 39.3,-81.5 39.3,-74.5"/>
<text text-anchor="middle" x="55.5" y="-81" font-family="Helvetica,sans-Serif" font-size="10.00"> ptr</text>
</g>
<!-- Node6&#45;&gt;Node1 -->
<g id="edge5" class="edge">
<title>Node6&#45;&gt;Node1</title>
<path fill="none" stroke="#9a32cd" stroke-dasharray="5,2" d="M506.2,-78C525.61,-78 545.44,-78 562.97,-78"/>
<polygon fill="#9a32cd" stroke="#9a32cd" points="506.11,-74.5 496.11,-78 506.11,-81.5 506.11,-74.5"/>
<text text-anchor="middle" x="529.5" y="-81" font-family="Helvetica,sans-Serif" font-size="10.00"> json</text>
</g>
<!-- Node7&#45;&gt;Node1 -->
<g id="edge7" class="edge">
<title>Node7&#45;&gt;Node1</title>
<path fill="none" stroke="#9a32cd" stroke-dasharray="5,2" d="M478.68,-51.23C499.93,-54.86 523.47,-58.98 545,-63 554.08,-64.69 563.76,-66.58 573.04,-68.43"/>
<polygon fill="#9a32cd" stroke="#9a32cd" points="479.22,-47.77 468.78,-49.54 478.05,-54.67 479.22,-47.77"/>
<text text-anchor="middle" x="529.5" y="-66" font-family="Helvetica,sans-Serif" font-size="10.00"> view</text>
</g>
<!-- Node8 -->
<g id="node8" class="node">
<title>Node8</title>
<g id="a_node8"><a xlink:href="../../d5/d9d/classViewLayer.html" target="_top" xlink:title=" ">
<polygon fill="white" stroke="black" points="107,-0.5 107,-19.5 175,-19.5 175,-0.5 107,-0.5"/>
<text text-anchor="middle" x="141" y="-7.5" font-family="Helvetica,sans-Serif" font-size="10.00">ViewLayer</text>
</a>
</g>
</g>
<!-- Node8&#45;&gt;Node7 -->
<g id="edge8" class="edge">
<title>Node8&#45;&gt;Node7</title>
<path fill="none" stroke="#9a32cd" stroke-dasharray="5,2" d="M185.45,-7.11C218.64,-5.67 265.42,-5.27 306,-11 332.67,-14.77 362.17,-23.57 382.74,-30.5"/>
<polygon fill="#9a32cd" stroke="#9a32cd" points="184.99,-3.63 175.17,-7.61 185.33,-10.62 184.99,-3.63"/>
<text text-anchor="middle" x="262" y="-14" font-family="Helvetica,sans-Serif" font-size="10.00"> ptr</text>
</g>
</g>
</svg>
