<?xml version="1.0" encoding="UTF-8" standalone="no"?>
<!DOCTYPE svg PUBLIC "-//W3C//DTD SVG 1.1//EN"
 "http://www.w3.org/Graphics/SVG/1.1/DTD/svg11.dtd">
<!-- Generated by graphviz version 2.43.0 (0)
 -->
<!-- Title: joda::query::AttributeStatAggregator::AttStatHandler::Node::merge Pages: 1 -->
<svg width="554pt" height="50pt"
 viewBox="0.00 0.00 554.00 50.00" xmlns="http://www.w3.org/2000/svg" xmlns:xlink="http://www.w3.org/1999/xlink">
<g id="graph0" class="graph" transform="scale(1 1) rotate(0) translate(4 46)">
<title>joda::query::AttributeStatAggregator::AttStatHandler::Node::merge</title>
<polygon fill="white" stroke="transparent" points="-4,4 -4,-46 550,-46 550,4 -4,4"/>
<!-- Node1 -->
<g id="node1" class="node">
<title>Node1</title>
<g id="a_node1"><a xlink:title=" ">
<polygon fill="#bfbfbf" stroke="black" points="397,-0.5 397,-41.5 546,-41.5 546,-0.5 397,-0.5"/>
<text text-anchor="start" x="405" y="-29.5" font-family="Helvetica,sans-Serif" font-size="10.00">joda::query::AttributeStat</text>
<text text-anchor="start" x="405" y="-18.5" font-family="Helvetica,sans-Serif" font-size="10.00">Aggregator::AttStatHandler</text>
<text text-anchor="middle" x="471.5" y="-7.5" font-family="Helvetica,sans-Serif" font-size="10.00">::Node::merge</text>
</a>
</g>
</g>
<!-- Node2 -->
<g id="node2" class="node">
<title>Node2</title>
<g id="a_node2"><a xlink:href="../../d7/da6/classjoda_1_1query_1_1AttributeStatAggregator_1_1AttStatHandler.html#a7881fe8341242c38b94dcddcd82a8d50" target="_top" xlink:title=" ">
<polygon fill="white" stroke="black" points="175,-6 175,-36 361,-36 361,-6 175,-6"/>
<text text-anchor="start" x="183" y="-24" font-family="Helvetica,sans-Serif" font-size="10.00">joda::query::AttributeStat</text>
<text text-anchor="middle" x="268" y="-13" font-family="Helvetica,sans-Serif" font-size="10.00">Aggregator::AttStatHandler::merge</text>
</a>
</g>
</g>
<!-- Node1&#45;&gt;Node2 -->
<g id="edge1" class="edge">
<title>Node1&#45;&gt;Node2</title>
<path fill="none" stroke="midnightblue" d="M386.74,-21C378.34,-21 369.77,-21 361.28,-21"/>
<polygon fill="midnightblue" stroke="midnightblue" points="386.9,-24.5 396.9,-21 386.9,-17.5 386.9,-24.5"/>
</g>
<!-- Node3 -->
<g id="node3" class="node">
<title>Node3</title>
<g id="a_node3"><a xlink:href="../../db/d14/classjoda_1_1query_1_1AttributeStatAggregator.html#a74aa5b5391bec4ce2f88e61cdf963fa1" target="_top" xlink:title=" ">
<polygon fill="white" stroke="black" points="0,-6 0,-36 139,-36 139,-6 0,-6"/>
<text text-anchor="start" x="8" y="-24" font-family="Helvetica,sans-Serif" font-size="10.00">joda::query::AttributeStat</text>
<text text-anchor="middle" x="69.5" y="-13" font-family="Helvetica,sans-Serif" font-size="10.00">Aggregator::merge</text>
</a>
</g>
</g>
<!-- Node2&#45;&gt;Node3 -->
<g id="edge2" class="edge">
<title>Node2&#45;&gt;Node3</title>
<path fill="none" stroke="midnightblue" d="M164.68,-21C156.07,-21 147.51,-21 139.25,-21"/>
<polygon fill="midnightblue" stroke="midnightblue" points="164.79,-24.5 174.79,-21 164.79,-17.5 164.79,-24.5"/>
</g>
</g>
</svg>
