<?xml version="1.0" encoding="UTF-8" standalone="no"?>
<!DOCTYPE svg PUBLIC "-//W3C//DTD SVG 1.1//EN"
 "http://www.w3.org/Graphics/SVG/1.1/DTD/svg11.dtd">
<!-- Generated by graphviz version 2.43.0 (0)
 -->
<!-- Title: TEST_F Pages: 1 -->
<svg width="426pt" height="160pt"
 viewBox="0.00 0.00 426.00 160.00" xmlns="http://www.w3.org/2000/svg" xmlns:xlink="http://www.w3.org/1999/xlink">
<g id="graph0" class="graph" transform="scale(1 1) rotate(0) translate(4 156)">
<title>TEST_F</title>
<polygon fill="white" stroke="transparent" points="-4,4 -4,-156 422,-156 422,4 -4,4"/>
<!-- Node1 -->
<g id="node1" class="node">
<title>Node1</title>
<g id="a_node1"><a xlink:title=" ">
<polygon fill="#bfbfbf" stroke="black" points="0,-57.5 0,-76.5 52,-76.5 52,-57.5 0,-57.5"/>
<text text-anchor="middle" x="26" y="-64.5" font-family="Helvetica,sans-Serif" font-size="10.00">TEST_F</text>
</a>
</g>
</g>
<!-- Node2 -->
<g id="node2" class="node">
<title>Node2</title>
<g id="a_node2"><a xlink:href="../../dd/d47/classVirtualObject.html#a9209c15421d95bc71ae4182fa92ebd1e" target="_top" xlink:title=" ">
<polygon fill="white" stroke="black" points="88,-132.5 88,-151.5 233,-151.5 233,-132.5 88,-132.5"/>
<text text-anchor="middle" x="160.5" y="-139.5" font-family="Helvetica,sans-Serif" font-size="10.00">VirtualObject::addMember</text>
</a>
</g>
</g>
<!-- Node1&#45;&gt;Node2 -->
<g id="edge1" class="edge">
<title>Node1&#45;&gt;Node2</title>
<path fill="none" stroke="midnightblue" d="M35.01,-76.86C45.77,-89.43 66.06,-110.98 88,-123 92.15,-125.27 96.58,-127.28 101.13,-129.06"/>
<polygon fill="midnightblue" stroke="midnightblue" points="99.99,-132.37 110.58,-132.4 102.32,-125.77 99.99,-132.37"/>
</g>
<!-- Node4 -->
<g id="node4" class="node">
<title>Node4</title>
<g id="a_node4"><a xlink:href="../../dd/d47/classVirtualObject.html#ab35fffd8c9572573ea56050b8bbd96cb" target="_top" xlink:title=" ">
<polygon fill="white" stroke="black" points="93,-76.5 93,-95.5 228,-95.5 228,-76.5 93,-76.5"/>
<text text-anchor="middle" x="160.5" y="-83.5" font-family="Helvetica,sans-Serif" font-size="10.00">VirtualObject::deepCopy</text>
</a>
</g>
</g>
<!-- Node1&#45;&gt;Node4 -->
<g id="edge3" class="edge">
<title>Node1&#45;&gt;Node4</title>
<path fill="none" stroke="midnightblue" d="M52.23,-70.62C61.2,-71.9 71.82,-73.43 82.84,-75.01"/>
<polygon fill="midnightblue" stroke="midnightblue" points="82.63,-78.51 93.03,-76.47 83.63,-71.58 82.63,-78.51"/>
</g>
<!-- Node6 -->
<g id="node6" class="node">
<title>Node6</title>
<g id="a_node6"><a xlink:href="../../dd/d47/classVirtualObject.html#a3e471c30b9055bc56205a24cb90f6a19" target="_top" xlink:title=" ">
<polygon fill="white" stroke="black" points="99,-38.5 99,-57.5 222,-57.5 222,-38.5 99,-38.5"/>
<text text-anchor="middle" x="160.5" y="-45.5" font-family="Helvetica,sans-Serif" font-size="10.00">VirtualObject::reserve</text>
</a>
</g>
</g>
<!-- Node1&#45;&gt;Node6 -->
<g id="edge6" class="edge">
<title>Node1&#45;&gt;Node6</title>
<path fill="none" stroke="midnightblue" d="M52.23,-63.38C62.82,-61.86 75.72,-60.01 88.85,-58.13"/>
<polygon fill="midnightblue" stroke="midnightblue" points="89.5,-61.57 98.9,-56.69 88.5,-54.65 89.5,-61.57"/>
</g>
<!-- Node8 -->
<g id="node8" class="node">
<title>Node8</title>
<g id="a_node8"><a xlink:href="../../dd/d47/classVirtualObject.html#a82adf88ca01c4a2cb0f92a06cd244f9a" target="_top" xlink:title=" ">
<polygon fill="white" stroke="black" points="107.5,-0.5 107.5,-19.5 213.5,-19.5 213.5,-0.5 107.5,-0.5"/>
<text text-anchor="middle" x="160.5" y="-7.5" font-family="Helvetica,sans-Serif" font-size="10.00">VirtualObject::size</text>
</a>
</g>
</g>
<!-- Node1&#45;&gt;Node8 -->
<g id="edge8" class="edge">
<title>Node1&#45;&gt;Node8</title>
<path fill="none" stroke="midnightblue" d="M39.94,-57.34C51.87,-48.83 70.37,-36.63 88,-29 93.51,-26.61 99.4,-24.47 105.33,-22.55"/>
<polygon fill="midnightblue" stroke="midnightblue" points="106.75,-25.78 115.32,-19.54 104.73,-19.07 106.75,-25.78"/>
</g>
<!-- Node3 -->
<g id="node3" class="node">
<title>Node3</title>
<g id="a_node3"><a xlink:href="../../dd/d47/classViewStructure.html#aaaaf05ea88e1eff36dc9e679192617ac" target="_top" xlink:title=" ">
<polygon fill="white" stroke="black" points="269,-132.5 269,-151.5 418,-151.5 418,-132.5 269,-132.5"/>
<text text-anchor="middle" x="343.5" y="-139.5" font-family="Helvetica,sans-Serif" font-size="10.00">ViewStructure::addMember</text>
</a>
</g>
</g>
<!-- Node2&#45;&gt;Node3 -->
<g id="edge2" class="edge">
<title>Node2&#45;&gt;Node3</title>
<path fill="none" stroke="midnightblue" d="M233.04,-142C241.49,-142 250.17,-142 258.77,-142"/>
<polygon fill="midnightblue" stroke="midnightblue" points="258.81,-145.5 268.81,-142 258.81,-138.5 258.81,-145.5"/>
</g>
<!-- Node4&#45;&gt;Node4 -->
<g id="edge4" class="edge">
<title>Node4&#45;&gt;Node4</title>
<path fill="none" stroke="midnightblue" d="M139.85,-95.76C129.8,-104.57 136.68,-114 160.5,-114 175.76,-114 184.07,-110.13 185.43,-105.03"/>
<polygon fill="midnightblue" stroke="midnightblue" points="188.52,-103.37 181.15,-95.76 182.16,-106.3 188.52,-103.37"/>
</g>
<!-- Node5 -->
<g id="node5" class="node">
<title>Node5</title>
<g id="a_node5"><a xlink:href="../../dd/d47/classViewStructure.html#a48f6a6870f1c1308ad6af54fc5b55d8b" target="_top" xlink:title=" ">
<polygon fill="white" stroke="black" points="281,-76.5 281,-95.5 406,-95.5 406,-76.5 281,-76.5"/>
<text text-anchor="middle" x="343.5" y="-83.5" font-family="Helvetica,sans-Serif" font-size="10.00">ViewStructure::getKey</text>
</a>
</g>
</g>
<!-- Node4&#45;&gt;Node5 -->
<g id="edge5" class="edge">
<title>Node4&#45;&gt;Node5</title>
<path fill="none" stroke="midnightblue" d="M228.13,-86C242,-86 256.67,-86 270.72,-86"/>
<polygon fill="midnightblue" stroke="midnightblue" points="270.82,-89.5 280.82,-86 270.82,-82.5 270.82,-89.5"/>
</g>
<!-- Node7 -->
<g id="node7" class="node">
<title>Node7</title>
<g id="a_node7"><a xlink:href="../../dd/d47/classViewStructure.html#a5a57a11c16ae2e91a58aed32f817deb0" target="_top" xlink:title=" ">
<polygon fill="white" stroke="black" points="279.5,-38.5 279.5,-57.5 407.5,-57.5 407.5,-38.5 279.5,-38.5"/>
<text text-anchor="middle" x="343.5" y="-45.5" font-family="Helvetica,sans-Serif" font-size="10.00">ViewStructure::reserve</text>
</a>
</g>
</g>
<!-- Node6&#45;&gt;Node7 -->
<g id="edge7" class="edge">
<title>Node6&#45;&gt;Node7</title>
<path fill="none" stroke="midnightblue" d="M222.02,-48C237.11,-48 253.46,-48 269.09,-48"/>
<polygon fill="midnightblue" stroke="midnightblue" points="269.25,-51.5 279.25,-48 269.25,-44.5 269.25,-51.5"/>
</g>
</g>
</svg>
