<?xml version="1.0" encoding="UTF-8" standalone="no"?>
<!DOCTYPE svg PUBLIC "-//W3C//DTD SVG 1.1//EN"
 "http://www.w3.org/Graphics/SVG/1.1/DTD/svg11.dtd">
<!-- Generated by graphviz version 2.43.0 (0)
 -->
<!-- Title: moodycamel::ProducerToken Pages: 1 -->
<svg width="298pt" height="240pt"
 viewBox="0.00 0.00 298.00 240.00" xmlns="http://www.w3.org/2000/svg" xmlns:xlink="http://www.w3.org/1999/xlink">
<g id="graph0" class="graph" transform="scale(1 1) rotate(0) translate(4 236)">
<title>moodycamel::ProducerToken</title>
<polygon fill="white" stroke="transparent" points="-4,4 -4,-236 294,-236 294,4 -4,4"/>
<!-- Node1 -->
<g id="node1" class="node">
<title>Node1</title>
<g id="a_node1"><a xlink:title=" ">
<polygon fill="#bfbfbf" stroke="black" points="0,-78.5 0,-97.5 157,-97.5 157,-78.5 0,-78.5"/>
<text text-anchor="middle" x="78.5" y="-85.5" font-family="Helvetica,sans-Serif" font-size="10.00">moodycamel::ProducerToken</text>
</a>
</g>
</g>
<!-- Node2 -->
<g id="node2" class="node">
<title>Node2</title>
<g id="a_node2"><a xlink:href="../../d2/ddf/structmoodycamel_1_1details_1_1ConcurrentQueueProducerTypelessBase.html" target="_top" xlink:title=" ">
<polygon fill="white" stroke="black" points="24.5,-0.5 24.5,-30.5 240.5,-30.5 240.5,-0.5 24.5,-0.5"/>
<text text-anchor="start" x="32.5" y="-18.5" font-family="Helvetica,sans-Serif" font-size="10.00">moodycamel::details</text>
<text text-anchor="middle" x="132.5" y="-7.5" font-family="Helvetica,sans-Serif" font-size="10.00">::ConcurrentQueueProducerTypelessBase</text>
</a>
</g>
</g>
<!-- Node1&#45;&gt;Node2 -->
<g id="edge6" class="edge">
<title>Node1&#45;&gt;Node2</title>
<path fill="none" stroke="#9a32cd" stroke-dasharray="5,2" d="M72.81,-68.23C71.91,-61.76 72.18,-54.72 75.5,-49 79.96,-41.32 87,-35.3 94.62,-30.64"/>
<polygon fill="#9a32cd" stroke="#9a32cd" points="69.46,-69.26 75.11,-78.22 76.28,-67.69 69.46,-69.26"/>
<text text-anchor="middle" x="91" y="-52" font-family="Helvetica,sans-Serif" font-size="10.00"> token</text>
</g>
<!-- Node2&#45;&gt;Node1 -->
<g id="edge1" class="edge">
<title>Node2&#45;&gt;Node1</title>
<path fill="none" stroke="#9a32cd" stroke-dasharray="5,2" d="M122.71,-40.11C119.35,-46.87 115.23,-54.02 110.5,-60 105,-66.96 97.47,-73.41 91.1,-78.27"/>
<polygon fill="#9a32cd" stroke="#9a32cd" points="126.06,-41.21 127.07,-30.66 119.7,-38.28 126.06,-41.21"/>
<text text-anchor="middle" x="139.5" y="-52" font-family="Helvetica,sans-Serif" font-size="10.00"> producer</text>
</g>
<!-- Node2&#45;&gt;Node2 -->
<g id="edge5" class="edge">
<title>Node2&#45;&gt;Node2</title>
<path fill="none" stroke="#9a32cd" stroke-dasharray="5,2" d="M250.86,-19.76C255.7,-18.65 258.5,-17.24 258.5,-15.5 258.5,-12.79 251.67,-10.85 240.93,-9.69"/>
<polygon fill="#9a32cd" stroke="#9a32cd" points="250.27,-16.3 240.93,-21.31 251.35,-23.22 250.27,-16.3"/>
<text text-anchor="middle" x="271" y="-13" font-family="Helvetica,sans-Serif" font-size="10.00"> next</text>
</g>
<!-- Node3 -->
<g id="node3" class="node">
<title>Node3</title>
<g id="a_node3"><a xlink:title=" ">
<polygon fill="white" stroke="#bfbfbf" points="175,-78.5 175,-97.5 290,-97.5 290,-78.5 175,-78.5"/>
<text text-anchor="middle" x="232.5" y="-85.5" font-family="Helvetica,sans-Serif" font-size="10.00">std::atomic&lt; bool &gt;</text>
</a>
</g>
</g>
<!-- Node3&#45;&gt;Node2 -->
<g id="edge2" class="edge">
<title>Node3&#45;&gt;Node2</title>
<path fill="none" stroke="#9a32cd" stroke-dasharray="5,2" d="M211.88,-72.47C194.47,-60.19 169.69,-42.72 152.47,-30.58"/>
<polygon fill="#9a32cd" stroke="#9a32cd" points="210.05,-75.45 220.24,-78.36 214.08,-69.73 210.05,-75.45"/>
<text text-anchor="middle" x="212" y="-52" font-family="Helvetica,sans-Serif" font-size="10.00"> inactive</text>
</g>
<!-- Node4 -->
<g id="node4" class="node">
<title>Node4</title>
<g id="a_node4"><a xlink:title=" ">
<polygon fill="white" stroke="#bfbfbf" points="182.5,-145.5 182.5,-164.5 282.5,-164.5 282.5,-145.5 182.5,-145.5"/>
<text text-anchor="middle" x="232.5" y="-152.5" font-family="Helvetica,sans-Serif" font-size="10.00">std::atomic&lt; T &gt;</text>
</a>
</g>
</g>
<!-- Node4&#45;&gt;Node3 -->
<g id="edge3" class="edge">
<title>Node4&#45;&gt;Node3</title>
<path fill="none" stroke="orange" stroke-dasharray="5,2" d="M232.5,-135.04C232.5,-122.67 232.5,-107.12 232.5,-97.63"/>
<polygon fill="orange" stroke="orange" points="229,-135.23 232.5,-145.23 236,-135.23 229,-135.23"/>
<text text-anchor="middle" x="256" y="-119" font-family="Helvetica,sans-Serif" font-size="10.00"> &lt; bool &gt;</text>
</g>
<!-- Node5 -->
<g id="node5" class="node">
<title>Node5</title>
<g id="a_node5"><a xlink:title=" ">
<polygon fill="white" stroke="#bfbfbf" points="218,-212.5 218,-231.5 247,-231.5 247,-212.5 218,-212.5"/>
<text text-anchor="middle" x="232.5" y="-219.5" font-family="Helvetica,sans-Serif" font-size="10.00">T</text>
</a>
</g>
</g>
<!-- Node5&#45;&gt;Node4 -->
<g id="edge4" class="edge">
<title>Node5&#45;&gt;Node4</title>
<path fill="none" stroke="#9a32cd" stroke-dasharray="5,2" d="M232.5,-202.04C232.5,-189.67 232.5,-174.12 232.5,-164.63"/>
<polygon fill="#9a32cd" stroke="#9a32cd" points="229,-202.23 232.5,-212.23 236,-202.23 229,-202.23"/>
<text text-anchor="middle" x="241" y="-186" font-family="Helvetica,sans-Serif" font-size="10.00"> ptr</text>
</g>
</g>
</svg>
