<?xml version="1.0" encoding="UTF-8" standalone="no"?>
<!DOCTYPE svg PUBLIC "-//W3C//DTD SVG 1.1//EN"
 "http://www.w3.org/Graphics/SVG/1.1/DTD/svg11.dtd">
<!-- Generated by graphviz version 2.43.0 (0)
 -->
<!-- Title: JSONContainer::getRaw Pages: 1 -->
<!--zoomable 198 -->
<svg id="main" version="1.1" xmlns="http://www.w3.org/2000/svg" xmlns:xlink="http://www.w3.org/1999/xlink" xml:space="preserve" onload="init(evt)">
<style type="text/css"><![CDATA[
.edge:hover path { stroke: red; }
.edge:hover polygon { stroke: red; fill: red; }
]]></style>
<script type="text/javascript"><![CDATA[
var edges = document.getElementsByTagName('g');
if (edges && edges.length) {
  for (var i=0;i<edges.length;i++) {
    if (edges[i].id.substr(0,4)=='edge') {
      edges[i].setAttribute('class','edge');
    }
  }
}
]]></script>
        <defs>
                <circle id="rim" cx="0" cy="0" r="7"/>
                <circle id="rim2" cx="0" cy="0" r="3.5"/>
                <g id="zoomPlus">
                        <use xlink:href="#rim" fill="#404040">
                                <set attributeName="fill" to="#808080" begin="zoomplus.mouseover" end="zoomplus.mouseout"/>
                        </use>
                        <path d="M-4,0h8M0,-4v8" fill="none" stroke="white" stroke-width="1.5" pointer-events="none"/>
                </g>
                <g id="zoomMin">
                        <use xlink:href="#rim" fill="#404040">
                                <set attributeName="fill" to="#808080" begin="zoomminus.mouseover" end="zoomminus.mouseout"/>
                        </use>
                        <path d="M-4,0h8" fill="none" stroke="white" stroke-width="1.5" pointer-events="none"/>
                </g>
                <g id="dirArrow">
                        <path fill="none" stroke="white" stroke-width="1.5" d="M0,-3.0v7 M-2.5,-0.5L0,-3.0L2.5,-0.5"/>
                </g>
               <g id="resetDef">
                       <use xlink:href="#rim2" fill="#404040">
                               <set attributeName="fill" to="#808080" begin="reset.mouseover" end="reset.mouseout"/>
                       </use>
               </g>
        </defs>

<script type="text/javascript">
var viewWidth = 699;
var viewHeight = 198;
var sectionId = 'dynsection-16';
</script>
<script xlink:href="../../svgpan.js"/>
<svg id="graph" class="graph">
<g id="viewport">
<title>JSONContainer::getRaw</title>
<polygon fill="white" stroke="transparent" points="-4,4 -4,-194 695,-194 695,4 -4,4"/>
<!-- Node1 -->
<g id="node1" class="node">
<title>Node1</title>
<g id="a_node1"><a xlink:title=" ">
<polygon fill="#bfbfbf" stroke="black" points="0,-142.5 0,-161.5 131,-161.5 131,-142.5 0,-142.5"/>
<text text-anchor="middle" x="65.5" y="-149.5" font-family="Helvetica,sans-Serif" font-size="10.00">JSONContainer::getRaw</text>
</a>
</g>
</g>
<!-- Node2 -->
<g id="node2" class="node">
<title>Node2</title>
<g id="a_node2"><a xlink:href="../../d6/de9/classJSONContainer.html#ab804dc033e52dec30eaf7bc50cc21b57" target="_top" xlink:title=" ">
<polygon fill="white" stroke="black" points="564.5,-170.5 564.5,-189.5 690.5,-189.5 690.5,-170.5 564.5,-170.5"/>
<text text-anchor="middle" x="627.5" y="-177.5" font-family="Helvetica,sans-Serif" font-size="10.00">JSONContainer::isView</text>
</a>
</g>
</g>
<!-- Node1&#45;&gt;Node2 -->
<g id="edge1" class="edge">
<title>Node1&#45;&gt;Node2</title>
<path fill="none" stroke="midnightblue" d="M131.1,-161.16C191.84,-169.29 285.38,-180.53 367,-185 438.45,-188.91 456.47,-186.81 528,-185 536.43,-184.79 545.26,-184.47 554.02,-184.1"/>
<polygon fill="midnightblue" stroke="midnightblue" points="554.42,-187.58 564.25,-183.64 554.11,-180.59 554.42,-187.58"/>
</g>
<!-- Node3 -->
<g id="node3" class="node">
<title>Node3</title>
<g id="a_node3"><a xlink:href="../../d6/de9/classJSONContainer.html#a9170b6ae6e7dbcf2cb9a6121a1430057" target="_top" xlink:title=" ">
<polygon fill="white" stroke="black" points="167,-95.5 167,-114.5 331,-114.5 331,-95.5 167,-95.5"/>
<text text-anchor="middle" x="249" y="-102.5" font-family="Helvetica,sans-Serif" font-size="10.00">JSONContainer::reparseSubset</text>
</a>
</g>
</g>
<!-- Node1&#45;&gt;Node3 -->
<g id="edge2" class="edge">
<title>Node1&#45;&gt;Node3</title>
<path fill="none" stroke="midnightblue" d="M103.23,-142.49C131.43,-135.19 170.57,-125.05 201.04,-117.16"/>
<polygon fill="midnightblue" stroke="midnightblue" points="202.21,-120.47 211.01,-114.58 200.46,-113.7 202.21,-120.47"/>
</g>
<!-- Node3&#45;&gt;Node2 -->
<g id="edge3" class="edge">
<title>Node3&#45;&gt;Node2</title>
<path fill="none" stroke="midnightblue" d="M265.18,-114.56C286.83,-127.65 328.26,-150.7 367,-161 428.7,-177.4 501.36,-181.48 554.08,-181.85"/>
<polygon fill="midnightblue" stroke="midnightblue" points="554.34,-185.35 564.35,-181.88 554.36,-178.35 554.34,-185.35"/>
</g>
<!-- Node3&#45;&gt;Node3 -->
<g id="edge8" class="edge">
<title>Node3&#45;&gt;Node3</title>
<path fill="none" stroke="midnightblue" d="M220.95,-114.76C207.3,-123.57 216.65,-133 249,-133 271.24,-133 282.61,-128.54 283.11,-122.89"/>
<polygon fill="midnightblue" stroke="midnightblue" points="285.83,-120.69 277.05,-114.76 280.22,-124.87 285.83,-120.69"/>
</g>
<!-- Node4 -->
<g id="node4" class="node">
<title>Node4</title>
<g id="a_node4"><a xlink:href="../../d1/d42/classFileOrigin.html#ac6b575f1ee18bc1cec0da7e31198e874" target="_top" xlink:title=" ">
<polygon fill="white" stroke="black" points="376,-76.5 376,-95.5 519,-95.5 519,-76.5 376,-76.5"/>
<text text-anchor="middle" x="447.5" y="-83.5" font-family="Helvetica,sans-Serif" font-size="10.00">FileOrigin::mergeIntervals</text>
</a>
</g>
</g>
<!-- Node3&#45;&gt;Node4 -->
<g id="edge4" class="edge">
<title>Node3&#45;&gt;Node4</title>
<path fill="none" stroke="midnightblue" d="M331.06,-97.16C342.59,-96.05 354.44,-94.9 365.96,-93.79"/>
<polygon fill="midnightblue" stroke="midnightblue" points="366.37,-97.26 375.98,-92.82 365.69,-90.3 366.37,-97.26"/>
</g>
<!-- Node5 -->
<g id="node5" class="node">
<title>Node5</title>
<g id="a_node5"><a xlink:href="../../d1/d42/classFileOrigin.html#a36cf3be8866ae066538faaca95c2b4aa" target="_top" xlink:title=" ">
<polygon fill="white" stroke="black" points="378,-38.5 378,-57.5 517,-57.5 517,-38.5 378,-38.5"/>
<text text-anchor="middle" x="447.5" y="-45.5" font-family="Helvetica,sans-Serif" font-size="10.00">FileOrigin::parseIntervals</text>
</a>
</g>
</g>
<!-- Node3&#45;&gt;Node5 -->
<g id="edge5" class="edge">
<title>Node3&#45;&gt;Node5</title>
<path fill="none" stroke="midnightblue" d="M277.24,-95.47C300.83,-87.39 335.96,-75.74 367,-67 375.63,-64.57 384.85,-62.18 393.84,-59.96"/>
<polygon fill="midnightblue" stroke="midnightblue" points="394.95,-63.29 403.84,-57.54 393.3,-56.49 394.95,-63.29"/>
</g>
<!-- Node7 -->
<g id="node7" class="node">
<title>Node7</title>
<g id="a_node7"><a xlink:href="../../d6/de9/classJSONContainer.html#a924f326dbf66da05173e2a23bbbc528e" target="_top" xlink:title=" ">
<polygon fill="white" stroke="black" points="367,-0.5 367,-19.5 528,-19.5 528,-0.5 367,-0.5"/>
<text text-anchor="middle" x="447.5" y="-7.5" font-family="Helvetica,sans-Serif" font-size="10.00">JSONContainer::removeViews</text>
</a>
</g>
</g>
<!-- Node3&#45;&gt;Node7 -->
<g id="edge7" class="edge">
<title>Node3&#45;&gt;Node7</title>
<path fill="none" stroke="midnightblue" d="M261.85,-95.31C282.13,-79.18 325.38,-46.86 367,-29 372.82,-26.5 379.03,-24.3 385.31,-22.36"/>
<polygon fill="midnightblue" stroke="midnightblue" points="386.54,-25.65 395.2,-19.53 384.62,-18.92 386.54,-25.65"/>
</g>
<!-- Node8 -->
<g id="node8" class="node">
<title>Node8</title>
<g id="a_node8"><a xlink:href="../../d6/de9/classJSONContainer.html#ab79fb2d42e903a2693e018f9caf26849" target="_top" xlink:title=" ">
<polygon fill="white" stroke="black" points="378.5,-114.5 378.5,-133.5 516.5,-133.5 516.5,-114.5 378.5,-114.5"/>
<text text-anchor="middle" x="447.5" y="-121.5" font-family="Helvetica,sans-Serif" font-size="10.00">JSONContainer::setViews</text>
</a>
</g>
</g>
<!-- Node3&#45;&gt;Node8 -->
<g id="edge9" class="edge">
<title>Node3&#45;&gt;Node8</title>
<path fill="none" stroke="midnightblue" d="M331.06,-112.84C343.36,-114.03 356.04,-115.25 368.29,-116.44"/>
<polygon fill="midnightblue" stroke="midnightblue" points="368.16,-119.94 378.45,-117.42 368.84,-112.97 368.16,-119.94"/>
</g>
<!-- Node6 -->
<g id="node6" class="node">
<title>Node6</title>
<g id="a_node6"><a xlink:href="../../dc/d58/classFileNameRepo.html#a6322c6db3aefc093806936555509ab53" target="_top" xlink:title=" ">
<polygon fill="white" stroke="black" points="564,-38.5 564,-57.5 691,-57.5 691,-38.5 564,-38.5"/>
<text text-anchor="middle" x="627.5" y="-45.5" font-family="Helvetica,sans-Serif" font-size="10.00">FileNameRepo::getFile</text>
</a>
</g>
</g>
<!-- Node5&#45;&gt;Node6 -->
<g id="edge6" class="edge">
<title>Node5&#45;&gt;Node6</title>
<path fill="none" stroke="midnightblue" d="M517.06,-48C529.08,-48 541.61,-48 553.74,-48"/>
<polygon fill="midnightblue" stroke="midnightblue" points="553.8,-51.5 563.8,-48 553.8,-44.5 553.8,-51.5"/>
</g>
<!-- Node8&#45;&gt;Node2 -->
<g id="edge10" class="edge">
<title>Node8&#45;&gt;Node2</title>
<path fill="none" stroke="midnightblue" d="M479.1,-133.63C508.83,-142.98 554.12,-157.23 586.65,-167.46"/>
<polygon fill="midnightblue" stroke="midnightblue" points="585.71,-170.84 596.3,-170.5 587.81,-164.16 585.71,-170.84"/>
</g>
<!-- Node8&#45;&gt;Node8 -->
<g id="edge11" class="edge">
<title>Node8&#45;&gt;Node8</title>
<path fill="none" stroke="midnightblue" d="M419.76,-133.76C406.26,-142.57 415.51,-152 447.5,-152 469.49,-152 480.74,-147.54 481.23,-141.89"/>
<polygon fill="midnightblue" stroke="midnightblue" points="483.99,-139.73 475.24,-133.76 478.35,-143.88 483.99,-139.73"/>
</g>
<!-- Node9 -->
<g id="node9" class="node">
<title>Node9</title>
<g id="a_node9"><a xlink:href="../../d6/de9/classJSONContainer.html#aff361f24e550af9c8898fdb6b7d893e6" target="_top" xlink:title=" ">
<polygon fill="white" stroke="black" points="571,-114.5 571,-133.5 684,-133.5 684,-114.5 571,-114.5"/>
<text text-anchor="middle" x="627.5" y="-121.5" font-family="Helvetica,sans-Serif" font-size="10.00">JSONContainer::size</text>
</a>
</g>
</g>
<!-- Node8&#45;&gt;Node9 -->
<g id="edge12" class="edge">
<title>Node8&#45;&gt;Node9</title>
<path fill="none" stroke="midnightblue" d="M516.56,-124C531.01,-124 546.24,-124 560.61,-124"/>
<polygon fill="midnightblue" stroke="midnightblue" points="560.9,-127.5 570.9,-124 560.9,-120.5 560.9,-127.5"/>
</g>
</g>
</svg>
        <g id="navigator" transform="translate(0 0)" fill="#404254">
                <rect fill="#f2f5e9" fill-opacity="0.5" stroke="#606060" stroke-width=".5" x="0" y="0" width="60" height="60"/>
                <use id="zoomplus" xlink:href="#zoomPlus" x="17" y="9" onmousedown="handleZoom(evt,'in')"/>
                <use id="zoomminus" xlink:href="#zoomMin" x="42" y="9" onmousedown="handleZoom(evt,'out')"/>
                <use id="reset" xlink:href="#resetDef" x="30" y="36" onmousedown="handleReset()"/>
                <g id="arrowUp" xlink:href="#dirArrow" transform="translate(30 24)" onmousedown="handlePan(0,-1)">
                  <use xlink:href="#rim" fill="#404040">
                        <set attributeName="fill" to="#808080" begin="arrowUp.mouseover" end="arrowUp.mouseout"/>
                  </use>
                  <path fill="none" stroke="white" stroke-width="1.5" d="M0,-3.0v7 M-2.5,-0.5L0,-3.0L2.5,-0.5"/>
                </g>
                <g id="arrowRight" xlink:href="#dirArrow" transform="rotate(90) translate(36 -43)" onmousedown="handlePan(1,0)">
                  <use xlink:href="#rim" fill="#404040">
                        <set attributeName="fill" to="#808080" begin="arrowRight.mouseover" end="arrowRight.mouseout"/>
                  </use>
                  <path fill="none" stroke="white" stroke-width="1.5" d="M0,-3.0v7 M-2.5,-0.5L0,-3.0L2.5,-0.5"/>
                </g>
                <g id="arrowDown" xlink:href="#dirArrow" transform="rotate(180) translate(-30 -48)" onmousedown="handlePan(0,1)">
                  <use xlink:href="#rim" fill="#404040">
                        <set attributeName="fill" to="#808080" begin="arrowDown.mouseover" end="arrowDown.mouseout"/>
                  </use>
                  <path fill="none" stroke="white" stroke-width="1.5" d="M0,-3.0v7 M-2.5,-0.5L0,-3.0L2.5,-0.5"/>
                </g>
                <g id="arrowLeft" xlink:href="#dirArrow" transform="rotate(270) translate(-36 17)" onmousedown="handlePan(-1,0)">
                  <use xlink:href="#rim" fill="#404040">
                        <set attributeName="fill" to="#808080" begin="arrowLeft.mouseover" end="arrowLeft.mouseout"/>
                  </use>
                  <path fill="none" stroke="white" stroke-width="1.5" d="M0,-3.0v7 M-2.5,-0.5L0,-3.0L2.5,-0.5"/>
                </g>
        </g>
        <svg viewBox="0 0 15 15" width="100%" height="30px" preserveAspectRatio="xMaxYMin meet">
         <g id="arrow_out" transform="scale(0.3 0.3)">
          <a xlink:href="classJSONContainer_ae8bd221d03c830e1e58bc1db5d9e7237_cgraph_org.svg" target="_base">
           <rect id="button" ry="5" rx="5" y="6" x="6" height="38" width="38"
                fill="#f2f5e9" fill-opacity="0.5" stroke="#606060" stroke-width="1.0"/>
           <path id="arrow"
             d="M 11.500037,31.436501 C 11.940474,20.09759 22.043105,11.32322 32.158766,21.979434 L 37.068811,17.246167 C 37.068811,17.246167 37.088388,32 37.088388,32 L 22.160133,31.978069 C 22.160133,31.978069 26.997745,27.140456 26.997745,27.140456 C 18.528582,18.264221 13.291696,25.230495 11.500037,31.436501 z"
             style="fill:#404040;"/>
          </a>
         </g>
        </svg>
</svg>
