<?xml version="1.0" encoding="UTF-8" standalone="no"?>
<!DOCTYPE svg PUBLIC "-//W3C//DTD SVG 1.1//EN"
 "http://www.w3.org/Graphics/SVG/1.1/DTD/svg11.dtd">
<!-- Generated by graphviz version 2.43.0 (0)
 -->
<!-- Title: JSONContainer::reparse Pages: 1 -->
<svg width="499pt" height="217pt"
 viewBox="0.00 0.00 499.00 217.00" xmlns="http://www.w3.org/2000/svg" xmlns:xlink="http://www.w3.org/1999/xlink">
<g id="graph0" class="graph" transform="scale(1 1) rotate(0) translate(4 213)">
<title>JSONContainer::reparse</title>
<polygon fill="white" stroke="transparent" points="-4,4 -4,-213 495,-213 495,4 -4,4"/>
<!-- Node1 -->
<g id="node1" class="node">
<title>Node1</title>
<g id="a_node1"><a xlink:title=" ">
<polygon fill="#bfbfbf" stroke="black" points="0,-113.5 0,-132.5 131,-132.5 131,-113.5 0,-113.5"/>
<text text-anchor="middle" x="65.5" y="-120.5" font-family="Helvetica,sans-Serif" font-size="10.00">JSONContainer::reparse</text>
</a>
</g>
</g>
<!-- Node2 -->
<g id="node2" class="node">
<title>Node2</title>
<g id="a_node2"><a xlink:href="../../d6/de9/classJSONContainer.html#ae819ca7f29de318920ac24b7e62109df" target="_top" xlink:title=" ">
<polygon fill="white" stroke="black" points="169,-189.5 169,-208.5 326,-208.5 326,-189.5 169,-189.5"/>
<text text-anchor="middle" x="247.5" y="-196.5" font-family="Helvetica,sans-Serif" font-size="10.00">JSONContainer::isReparsable</text>
</a>
</g>
</g>
<!-- Node1&#45;&gt;Node2 -->
<g id="edge1" class="edge">
<title>Node1&#45;&gt;Node2</title>
<path fill="none" stroke="midnightblue" d="M80.51,-132.64C99.37,-145.22 134.34,-167.13 167,-180 173.39,-182.52 180.2,-184.76 187.05,-186.74"/>
<polygon fill="midnightblue" stroke="midnightblue" points="186.49,-190.22 197.06,-189.47 188.33,-183.47 186.49,-190.22"/>
</g>
<!-- Node3 -->
<g id="node3" class="node">
<title>Node3</title>
<g id="a_node3"><a xlink:href="../../d1/d42/classFileOrigin.html#ac6b575f1ee18bc1cec0da7e31198e874" target="_top" xlink:title=" ">
<polygon fill="white" stroke="black" points="176,-151.5 176,-170.5 319,-170.5 319,-151.5 176,-151.5"/>
<text text-anchor="middle" x="247.5" y="-158.5" font-family="Helvetica,sans-Serif" font-size="10.00">FileOrigin::mergeIntervals</text>
</a>
</g>
</g>
<!-- Node1&#45;&gt;Node3 -->
<g id="edge2" class="edge">
<title>Node1&#45;&gt;Node3</title>
<path fill="none" stroke="midnightblue" d="M111.92,-132.59C136.1,-137.69 166.03,-144.01 191.51,-149.39"/>
<polygon fill="midnightblue" stroke="midnightblue" points="190.9,-152.84 201.41,-151.48 192.34,-145.99 190.9,-152.84"/>
</g>
<!-- Node4 -->
<g id="node4" class="node">
<title>Node4</title>
<g id="a_node4"><a xlink:href="../../d1/d42/classFileOrigin.html#a36cf3be8866ae066538faaca95c2b4aa" target="_top" xlink:title=" ">
<polygon fill="white" stroke="black" points="178,-113.5 178,-132.5 317,-132.5 317,-113.5 178,-113.5"/>
<text text-anchor="middle" x="247.5" y="-120.5" font-family="Helvetica,sans-Serif" font-size="10.00">FileOrigin::parseIntervals</text>
</a>
</g>
</g>
<!-- Node1&#45;&gt;Node4 -->
<g id="edge3" class="edge">
<title>Node1&#45;&gt;Node4</title>
<path fill="none" stroke="midnightblue" d="M131.23,-123C143.04,-123 155.48,-123 167.65,-123"/>
<polygon fill="midnightblue" stroke="midnightblue" points="167.79,-126.5 177.79,-123 167.79,-119.5 167.79,-126.5"/>
</g>
<!-- Node6 -->
<g id="node6" class="node">
<title>Node6</title>
<g id="a_node6"><a xlink:href="../../d6/de9/classJSONContainer.html#a924f326dbf66da05173e2a23bbbc528e" target="_top" xlink:title=" ">
<polygon fill="white" stroke="black" points="167,-75.5 167,-94.5 328,-94.5 328,-75.5 167,-75.5"/>
<text text-anchor="middle" x="247.5" y="-82.5" font-family="Helvetica,sans-Serif" font-size="10.00">JSONContainer::removeViews</text>
</a>
</g>
</g>
<!-- Node1&#45;&gt;Node6 -->
<g id="edge5" class="edge">
<title>Node1&#45;&gt;Node6</title>
<path fill="none" stroke="midnightblue" d="M111.92,-113.41C136.1,-108.31 166.03,-101.99 191.51,-96.61"/>
<polygon fill="midnightblue" stroke="midnightblue" points="192.34,-100.01 201.41,-94.52 190.9,-93.16 192.34,-100.01"/>
</g>
<!-- Node7 -->
<g id="node7" class="node">
<title>Node7</title>
<g id="a_node7"><a xlink:href="../../d6/de9/classJSONContainer.html#ab79fb2d42e903a2693e018f9caf26849" target="_top" xlink:title=" ">
<polygon fill="white" stroke="black" points="178.5,-19.5 178.5,-38.5 316.5,-38.5 316.5,-19.5 178.5,-19.5"/>
<text text-anchor="middle" x="247.5" y="-26.5" font-family="Helvetica,sans-Serif" font-size="10.00">JSONContainer::setViews</text>
</a>
</g>
</g>
<!-- Node1&#45;&gt;Node7 -->
<g id="edge6" class="edge">
<title>Node1&#45;&gt;Node7</title>
<path fill="none" stroke="midnightblue" d="M82.64,-113.31C102.32,-101.63 136.69,-81.62 167,-66 182.76,-57.88 200.64,-49.49 215.45,-42.75"/>
<polygon fill="midnightblue" stroke="midnightblue" points="217,-45.89 224.68,-38.59 214.12,-39.51 217,-45.89"/>
</g>
<!-- Node5 -->
<g id="node5" class="node">
<title>Node5</title>
<g id="a_node5"><a xlink:href="../../dc/d58/classFileNameRepo.html#a6322c6db3aefc093806936555509ab53" target="_top" xlink:title=" ">
<polygon fill="white" stroke="black" points="364,-113.5 364,-132.5 491,-132.5 491,-113.5 364,-113.5"/>
<text text-anchor="middle" x="427.5" y="-120.5" font-family="Helvetica,sans-Serif" font-size="10.00">FileNameRepo::getFile</text>
</a>
</g>
</g>
<!-- Node4&#45;&gt;Node5 -->
<g id="edge4" class="edge">
<title>Node4&#45;&gt;Node5</title>
<path fill="none" stroke="midnightblue" d="M317.06,-123C329.08,-123 341.61,-123 353.74,-123"/>
<polygon fill="midnightblue" stroke="midnightblue" points="353.8,-126.5 363.8,-123 353.8,-119.5 353.8,-126.5"/>
</g>
<!-- Node7&#45;&gt;Node7 -->
<g id="edge8" class="edge">
<title>Node7&#45;&gt;Node7</title>
<path fill="none" stroke="midnightblue" d="M219.76,-38.76C206.26,-47.57 215.51,-57 247.5,-57 269.49,-57 280.74,-52.54 281.23,-46.89"/>
<polygon fill="midnightblue" stroke="midnightblue" points="283.99,-44.73 275.24,-38.76 278.35,-48.88 283.99,-44.73"/>
</g>
<!-- Node8 -->
<g id="node8" class="node">
<title>Node8</title>
<g id="a_node8"><a xlink:href="../../d6/de9/classJSONContainer.html#ab804dc033e52dec30eaf7bc50cc21b57" target="_top" xlink:title=" ">
<polygon fill="white" stroke="black" points="364.5,-38.5 364.5,-57.5 490.5,-57.5 490.5,-38.5 364.5,-38.5"/>
<text text-anchor="middle" x="427.5" y="-45.5" font-family="Helvetica,sans-Serif" font-size="10.00">JSONContainer::isView</text>
</a>
</g>
</g>
<!-- Node7&#45;&gt;Node8 -->
<g id="edge7" class="edge">
<title>Node7&#45;&gt;Node8</title>
<path fill="none" stroke="midnightblue" d="M316.56,-36.26C328.82,-37.57 341.66,-38.94 354.04,-40.27"/>
<polygon fill="midnightblue" stroke="midnightblue" points="354.01,-43.78 364.32,-41.36 354.75,-36.82 354.01,-43.78"/>
</g>
<!-- Node9 -->
<g id="node9" class="node">
<title>Node9</title>
<g id="a_node9"><a xlink:href="../../d6/de9/classJSONContainer.html#aff361f24e550af9c8898fdb6b7d893e6" target="_top" xlink:title=" ">
<polygon fill="white" stroke="black" points="371,-0.5 371,-19.5 484,-19.5 484,-0.5 371,-0.5"/>
<text text-anchor="middle" x="427.5" y="-7.5" font-family="Helvetica,sans-Serif" font-size="10.00">JSONContainer::size</text>
</a>
</g>
</g>
<!-- Node7&#45;&gt;Node9 -->
<g id="edge9" class="edge">
<title>Node7&#45;&gt;Node9</title>
<path fill="none" stroke="midnightblue" d="M316.56,-21.74C331.01,-20.19 346.24,-18.57 360.61,-17.03"/>
<polygon fill="midnightblue" stroke="midnightblue" points="361.33,-20.48 370.9,-15.93 360.58,-13.52 361.33,-20.48"/>
</g>
</g>
</svg>
