<?xml version="1.0" encoding="UTF-8" standalone="no"?>
<!DOCTYPE svg PUBLIC "-//W3C//DTD SVG 1.1//EN"
 "http://www.w3.org/Graphics/SVG/1.1/DTD/svg11.dtd">
<!-- Generated by graphviz version 2.43.0 (0)
 -->
<!-- Title: JSONContainer::removeDocuments Pages: 1 -->
<svg width="596pt" height="123pt"
 viewBox="0.00 0.00 596.00 123.00" xmlns="http://www.w3.org/2000/svg" xmlns:xlink="http://www.w3.org/1999/xlink">
<g id="graph0" class="graph" transform="scale(1 1) rotate(0) translate(4 119)">
<title>JSONContainer::removeDocuments</title>
<polygon fill="white" stroke="transparent" points="-4,4 -4,-119 592,-119 592,4 -4,4"/>
<!-- Node1 -->
<g id="node1" class="node">
<title>Node1</title>
<g id="a_node1"><a xlink:title=" ">
<polygon fill="#bfbfbf" stroke="black" points="0,-38.5 0,-57.5 187,-57.5 187,-38.5 0,-38.5"/>
<text text-anchor="middle" x="93.5" y="-45.5" font-family="Helvetica,sans-Serif" font-size="10.00">JSONContainer::removeDocuments</text>
</a>
</g>
</g>
<!-- Node2 -->
<g id="node2" class="node">
<title>Node2</title>
<g id="a_node2"><a xlink:href="../../d6/de9/classJSONContainer.html#a54f374361f8a9b6ab0da7e20ecf67e04" target="_top" xlink:title=" ">
<polygon fill="white" stroke="black" points="223,-76.5 223,-95.5 387,-95.5 387,-76.5 223,-76.5"/>
<text text-anchor="middle" x="305" y="-83.5" font-family="Helvetica,sans-Serif" font-size="10.00">JSONContainer::estimatedSize</text>
</a>
</g>
</g>
<!-- Node1&#45;&gt;Node2 -->
<g id="edge1" class="edge">
<title>Node1&#45;&gt;Node2</title>
<path fill="none" stroke="midnightblue" d="M147.1,-57.54C175.74,-62.73 211.36,-69.2 241.42,-74.65"/>
<polygon fill="midnightblue" stroke="midnightblue" points="240.92,-78.12 251.38,-76.46 242.17,-71.23 240.92,-78.12"/>
</g>
<!-- Node5 -->
<g id="node5" class="node">
<title>Node5</title>
<g id="a_node5"><a xlink:href="../../d6/de9/classJSONContainer.html#ae819ca7f29de318920ac24b7e62109df" target="_top" xlink:title=" ">
<polygon fill="white" stroke="black" points="226.5,-38.5 226.5,-57.5 383.5,-57.5 383.5,-38.5 226.5,-38.5"/>
<text text-anchor="middle" x="305" y="-45.5" font-family="Helvetica,sans-Serif" font-size="10.00">JSONContainer::isReparsable</text>
</a>
</g>
</g>
<!-- Node1&#45;&gt;Node5 -->
<g id="edge4" class="edge">
<title>Node1&#45;&gt;Node5</title>
<path fill="none" stroke="midnightblue" d="M187.3,-48C196.87,-48 206.57,-48 216.08,-48"/>
<polygon fill="midnightblue" stroke="midnightblue" points="216.31,-51.5 226.31,-48 216.31,-44.5 216.31,-51.5"/>
</g>
<!-- Node6 -->
<g id="node6" class="node">
<title>Node6</title>
<g id="a_node6"><a xlink:href="../../d6/de9/classJSONContainer.html#a924f326dbf66da05173e2a23bbbc528e" target="_top" xlink:title=" ">
<polygon fill="white" stroke="black" points="224.5,-0.5 224.5,-19.5 385.5,-19.5 385.5,-0.5 224.5,-0.5"/>
<text text-anchor="middle" x="305" y="-7.5" font-family="Helvetica,sans-Serif" font-size="10.00">JSONContainer::removeViews</text>
</a>
</g>
</g>
<!-- Node1&#45;&gt;Node6 -->
<g id="edge5" class="edge">
<title>Node1&#45;&gt;Node6</title>
<path fill="none" stroke="midnightblue" d="M147.1,-38.46C175.74,-33.27 211.36,-26.8 241.42,-21.35"/>
<polygon fill="midnightblue" stroke="midnightblue" points="242.17,-24.77 251.38,-19.54 240.92,-17.88 242.17,-24.77"/>
</g>
<!-- Node3 -->
<g id="node3" class="node">
<title>Node3</title>
<g id="a_node3"><a xlink:href="../../d6/de9/classJSONContainer.html#a22e872d7eb347ec89318714d1e679b8f" target="_top" xlink:title=" ">
<polygon fill="white" stroke="black" points="423,-95.5 423,-114.5 588,-114.5 588,-95.5 423,-95.5"/>
<text text-anchor="middle" x="505.5" y="-102.5" font-family="Helvetica,sans-Serif" font-size="10.00">JSONContainer::JSONContainer</text>
</a>
</g>
</g>
<!-- Node2&#45;&gt;Node3 -->
<g id="edge2" class="edge">
<title>Node2&#45;&gt;Node3</title>
<path fill="none" stroke="midnightblue" d="M387.02,-93.76C395.5,-94.57 404.16,-95.4 412.74,-96.22"/>
<polygon fill="midnightblue" stroke="midnightblue" points="412.48,-99.71 422.77,-97.18 413.15,-92.74 412.48,-99.71"/>
</g>
<!-- Node4 -->
<g id="node4" class="node">
<title>Node4</title>
<g id="a_node4"><a xlink:href="../../d6/de9/classJSONContainer.html#aff361f24e550af9c8898fdb6b7d893e6" target="_top" xlink:title=" ">
<polygon fill="white" stroke="black" points="449,-57.5 449,-76.5 562,-76.5 562,-57.5 449,-57.5"/>
<text text-anchor="middle" x="505.5" y="-64.5" font-family="Helvetica,sans-Serif" font-size="10.00">JSONContainer::size</text>
</a>
</g>
</g>
<!-- Node2&#45;&gt;Node4 -->
<g id="edge3" class="edge">
<title>Node2&#45;&gt;Node4</title>
<path fill="none" stroke="midnightblue" d="M387.02,-78.24C404.25,-76.6 422.23,-74.87 438.8,-73.29"/>
<polygon fill="midnightblue" stroke="midnightblue" points="439.29,-76.76 448.91,-72.32 438.62,-69.79 439.29,-76.76"/>
</g>
</g>
</svg>
