<?xml version="1.0" encoding="UTF-8" standalone="no"?>
<!DOCTYPE svg PUBLIC "-//W3C//DTD SVG 1.1//EN"
 "http://www.w3.org/Graphics/SVG/1.1/DTD/svg11.dtd">
<!-- Generated by graphviz version 2.43.0 (0)
 -->
<!-- Title: JSONContainer::reparseSubset Pages: 1 -->
<svg width="732pt" height="315pt"
 viewBox="0.00 0.00 732.00 315.44" xmlns="http://www.w3.org/2000/svg" xmlns:xlink="http://www.w3.org/1999/xlink">
<g id="graph0" class="graph" transform="scale(1 1) rotate(0) translate(4 311.44)">
<title>JSONContainer::reparseSubset</title>
<polygon fill="white" stroke="transparent" points="-4,4 -4,-311.44 728,-311.44 728,4 -4,4"/>
<!-- Node1 -->
<g id="node1" class="node">
<title>Node1</title>
<g id="a_node1"><a xlink:title=" ">
<polygon fill="#bfbfbf" stroke="black" points="0,-145.94 0,-164.94 164,-164.94 164,-145.94 0,-145.94"/>
<text text-anchor="middle" x="82" y="-152.94" font-family="Helvetica,sans-Serif" font-size="10.00">JSONContainer::reparseSubset</text>
</a>
</g>
</g>
<!-- Node2 -->
<g id="node2" class="node">
<title>Node2</title>
<g id="a_node2"><a xlink:href="../../d6/de9/classJSONContainer.html#ab804dc033e52dec30eaf7bc50cc21b57" target="_top" xlink:title=" ">
<polygon fill="white" stroke="black" points="597.5,-88.94 597.5,-107.94 723.5,-107.94 723.5,-88.94 597.5,-88.94"/>
<text text-anchor="middle" x="660.5" y="-95.94" font-family="Helvetica,sans-Serif" font-size="10.00">JSONContainer::isView</text>
</a>
</g>
</g>
<!-- Node1&#45;&gt;Node2 -->
<g id="edge1" class="edge">
<title>Node1&#45;&gt;Node2</title>
<path fill="none" stroke="midnightblue" d="M140.94,-145.9C159.75,-142.97 180.73,-139.88 200,-137.44 336.32,-120.15 496.4,-108.51 587.1,-102.72"/>
<polygon fill="midnightblue" stroke="midnightblue" points="587.51,-106.2 597.27,-102.08 587.07,-99.22 587.51,-106.2"/>
</g>
<!-- Node3 -->
<g id="node3" class="node">
<title>Node3</title>
<g id="a_node3"><a xlink:href="../../d1/d42/classFileOrigin.html#ac6b575f1ee18bc1cec0da7e31198e874" target="_top" xlink:title=" ">
<polygon fill="white" stroke="black" points="409,-249.94 409,-268.94 552,-268.94 552,-249.94 409,-249.94"/>
<text text-anchor="middle" x="480.5" y="-256.94" font-family="Helvetica,sans-Serif" font-size="10.00">FileOrigin::mergeIntervals</text>
</a>
</g>
</g>
<!-- Node1&#45;&gt;Node3 -->
<g id="edge2" class="edge">
<title>Node1&#45;&gt;Node3</title>
<path fill="none" stroke="midnightblue" d="M93.3,-164.96C112.55,-182.11 156.05,-217.87 200,-233.44 264.25,-256.19 341.71,-261.84 398.78,-262.29"/>
<polygon fill="midnightblue" stroke="midnightblue" points="398.82,-265.79 408.83,-262.32 398.84,-258.79 398.82,-265.79"/>
</g>
<!-- Node4 -->
<g id="node4" class="node">
<title>Node4</title>
<g id="a_node4"><a xlink:href="../../d1/d42/classFileOrigin.html#a36cf3be8866ae066538faaca95c2b4aa" target="_top" xlink:title=" ">
<polygon fill="white" stroke="black" points="411,-287.94 411,-306.94 550,-306.94 550,-287.94 411,-287.94"/>
<text text-anchor="middle" x="480.5" y="-294.94" font-family="Helvetica,sans-Serif" font-size="10.00">FileOrigin::parseIntervals</text>
</a>
</g>
</g>
<!-- Node1&#45;&gt;Node4 -->
<g id="edge3" class="edge">
<title>Node1&#45;&gt;Node4</title>
<path fill="none" stroke="midnightblue" d="M90.23,-165.04C106.9,-186.36 150.42,-237.61 200,-260.44 263.33,-289.6 342.72,-297.76 400.69,-299.27"/>
<polygon fill="midnightblue" stroke="midnightblue" points="400.83,-302.77 410.89,-299.47 400.97,-295.77 400.83,-302.77"/>
</g>
<!-- Node6 -->
<g id="node6" class="node">
<title>Node6</title>
<g id="a_node6"><a xlink:href="../../d6/de9/classJSONContainer.html#a924f326dbf66da05173e2a23bbbc528e" target="_top" xlink:title=" ">
<polygon fill="white" stroke="black" points="400,-126.94 400,-145.94 561,-145.94 561,-126.94 400,-126.94"/>
<text text-anchor="middle" x="480.5" y="-133.94" font-family="Helvetica,sans-Serif" font-size="10.00">JSONContainer::removeViews</text>
</a>
</g>
</g>
<!-- Node1&#45;&gt;Node6 -->
<g id="edge5" class="edge">
<title>Node1&#45;&gt;Node6</title>
<path fill="none" stroke="midnightblue" d="M164.19,-151.55C229.71,-148.41 321.79,-144 389.54,-140.75"/>
<polygon fill="midnightblue" stroke="midnightblue" points="389.95,-144.23 399.77,-140.26 389.61,-137.24 389.95,-144.23"/>
</g>
<!-- Node7 -->
<g id="node7" class="node">
<title>Node7</title>
<g id="a_node7"><a xlink:href="../../d1/d42/classFileOrigin.html#a0016d990bf1fed498a85a28d1e4e7b32" target="_top" xlink:title=" ">
<polygon fill="white" stroke="black" points="427.5,-211.94 427.5,-230.94 533.5,-230.94 533.5,-211.94 427.5,-211.94"/>
<text text-anchor="middle" x="480.5" y="-218.94" font-family="Helvetica,sans-Serif" font-size="10.00">FileOrigin::reparse</text>
</a>
</g>
</g>
<!-- Node1&#45;&gt;Node7 -->
<g id="edge6" class="edge">
<title>Node1&#45;&gt;Node7</title>
<path fill="none" stroke="midnightblue" d="M97.76,-164.98C119.25,-178.27 160.86,-201.81 200,-211.44 273.06,-229.4 360.07,-229.28 417.38,-226.39"/>
<polygon fill="midnightblue" stroke="midnightblue" points="417.58,-229.89 427.37,-225.84 417.2,-222.9 417.58,-229.89"/>
</g>
<!-- Node8 -->
<g id="node8" class="node">
<title>Node8</title>
<g id="a_node8"><a xlink:href="../../d6/de9/classJSONContainer.html#a9170b6ae6e7dbcf2cb9a6121a1430057" target="_top" xlink:title=" ">
<polygon fill="white" stroke="black" points="200,-164.94 200,-183.94 364,-183.94 364,-164.94 200,-164.94"/>
<text text-anchor="middle" x="282" y="-171.94" font-family="Helvetica,sans-Serif" font-size="10.00">JSONContainer::reparseSubset</text>
</a>
</g>
</g>
<!-- Node1&#45;&gt;Node8 -->
<g id="edge8" class="edge">
<title>Node1&#45;&gt;Node8</title>
<path fill="none" stroke="midnightblue" d="M164.11,-163.22C172.55,-164.03 181.17,-164.86 189.72,-165.68"/>
<polygon fill="midnightblue" stroke="midnightblue" points="189.41,-169.17 199.7,-166.64 190.08,-162.2 189.41,-169.17"/>
</g>
<!-- Node9 -->
<g id="node9" class="node">
<title>Node9</title>
<g id="a_node9"><a xlink:href="../../d6/de9/classJSONContainer.html#ab79fb2d42e903a2693e018f9caf26849" target="_top" xlink:title=" ">
<polygon fill="white" stroke="black" points="411.5,-32.94 411.5,-51.94 549.5,-51.94 549.5,-32.94 411.5,-32.94"/>
<text text-anchor="middle" x="480.5" y="-39.94" font-family="Helvetica,sans-Serif" font-size="10.00">JSONContainer::setViews</text>
</a>
</g>
</g>
<!-- Node1&#45;&gt;Node9 -->
<g id="edge19" class="edge">
<title>Node1&#45;&gt;Node9</title>
<path fill="none" stroke="midnightblue" d="M95.14,-145.79C115.51,-130.14 158.44,-99.48 200,-84.44 265.4,-60.77 344.06,-50.43 401.25,-45.92"/>
<polygon fill="midnightblue" stroke="midnightblue" points="401.6,-49.41 411.31,-45.17 401.08,-42.43 401.6,-49.41"/>
</g>
<!-- Node10 -->
<g id="node10" class="node">
<title>Node10</title>
<g id="a_node10"><a xlink:href="../../d6/de9/classJSONContainer.html#aff361f24e550af9c8898fdb6b7d893e6" target="_top" xlink:title=" ">
<polygon fill="white" stroke="black" points="604,-13.94 604,-32.94 717,-32.94 717,-13.94 604,-13.94"/>
<text text-anchor="middle" x="660.5" y="-20.94" font-family="Helvetica,sans-Serif" font-size="10.00">JSONContainer::size</text>
</a>
</g>
</g>
<!-- Node1&#45;&gt;Node10 -->
<g id="edge20" class="edge">
<title>Node1&#45;&gt;Node10</title>
<path fill="none" stroke="midnightblue" d="M89.83,-145.64C106.01,-123.33 149.11,-68.9 200,-45.44 331.25,15.08 506.55,1.03 598.04,-12.4"/>
<polygon fill="midnightblue" stroke="midnightblue" points="597.56,-15.87 607.97,-13.91 598.61,-8.95 597.56,-15.87"/>
</g>
<!-- Node5 -->
<g id="node5" class="node">
<title>Node5</title>
<g id="a_node5"><a xlink:href="../../dc/d58/classFileNameRepo.html#a6322c6db3aefc093806936555509ab53" target="_top" xlink:title=" ">
<polygon fill="white" stroke="black" points="597,-249.94 597,-268.94 724,-268.94 724,-249.94 597,-249.94"/>
<text text-anchor="middle" x="660.5" y="-256.94" font-family="Helvetica,sans-Serif" font-size="10.00">FileNameRepo::getFile</text>
</a>
</g>
</g>
<!-- Node4&#45;&gt;Node5 -->
<g id="edge4" class="edge">
<title>Node4&#45;&gt;Node5</title>
<path fill="none" stroke="midnightblue" d="M526.42,-287.85C550.33,-282.74 579.92,-276.43 605.12,-271.05"/>
<polygon fill="midnightblue" stroke="midnightblue" points="605.86,-274.47 614.91,-268.96 604.4,-267.62 605.86,-274.47"/>
</g>
<!-- Node7&#45;&gt;Node5 -->
<g id="edge7" class="edge">
<title>Node7&#45;&gt;Node5</title>
<path fill="none" stroke="midnightblue" d="M526.42,-231.03C550.33,-236.13 579.92,-242.45 605.12,-247.83"/>
<polygon fill="midnightblue" stroke="midnightblue" points="604.4,-251.25 614.91,-249.92 605.86,-244.41 604.4,-251.25"/>
</g>
<!-- Node8&#45;&gt;Node2 -->
<g id="edge9" class="edge">
<title>Node8&#45;&gt;Node2</title>
<path fill="none" stroke="midnightblue" d="M364.13,-178.47C420.53,-178.98 496.8,-175.04 561,-155.44 590.2,-146.52 620.04,-127.6 639.1,-114"/>
<polygon fill="midnightblue" stroke="midnightblue" points="641.3,-116.73 647.31,-108 637.17,-111.08 641.3,-116.73"/>
</g>
<!-- Node8&#45;&gt;Node3 -->
<g id="edge10" class="edge">
<title>Node8&#45;&gt;Node3</title>
<path fill="none" stroke="midnightblue" d="M297.13,-184.14C318.49,-198.41 360.71,-225.01 400,-240.44 406.39,-242.95 413.2,-245.19 420.05,-247.17"/>
<polygon fill="midnightblue" stroke="midnightblue" points="419.5,-250.64 430.07,-249.89 421.34,-243.89 419.5,-250.64"/>
</g>
<!-- Node8&#45;&gt;Node4 -->
<g id="edge11" class="edge">
<title>Node8&#45;&gt;Node4</title>
<path fill="none" stroke="midnightblue" d="M290.95,-184.2C308.39,-204.95 352.29,-253.56 400,-278.44 404.52,-280.8 409.35,-282.87 414.29,-284.69"/>
<polygon fill="midnightblue" stroke="midnightblue" points="413.32,-288.05 423.91,-287.88 415.52,-281.41 413.32,-288.05"/>
</g>
<!-- Node8&#45;&gt;Node6 -->
<g id="edge12" class="edge">
<title>Node8&#45;&gt;Node6</title>
<path fill="none" stroke="midnightblue" d="M332.33,-164.9C358.96,-159.75 392.03,-153.35 420.07,-147.93"/>
<polygon fill="midnightblue" stroke="midnightblue" points="420.99,-151.32 430.15,-145.98 419.67,-144.44 420.99,-151.32"/>
</g>
<!-- Node8&#45;&gt;Node7 -->
<g id="edge13" class="edge">
<title>Node8&#45;&gt;Node7</title>
<path fill="none" stroke="midnightblue" d="M322.76,-183.95C353.56,-191.32 396.4,-201.56 429.52,-209.48"/>
<polygon fill="midnightblue" stroke="midnightblue" points="428.92,-212.94 439.46,-211.86 430.55,-206.13 428.92,-212.94"/>
</g>
<!-- Node8&#45;&gt;Node8 -->
<g id="edge14" class="edge">
<title>Node8&#45;&gt;Node8</title>
<path fill="none" stroke="midnightblue" d="M251.48,-184.2C236.64,-193 246.81,-202.44 282,-202.44 306.74,-202.44 319.12,-197.77 319.12,-191.94"/>
<polygon fill="midnightblue" stroke="midnightblue" points="321.67,-189.53 312.52,-184.2 316.34,-194.08 321.67,-189.53"/>
</g>
<!-- Node8&#45;&gt;Node9 -->
<g id="edge15" class="edge">
<title>Node8&#45;&gt;Node9</title>
<path fill="none" stroke="midnightblue" d="M297.45,-164.73C331.32,-141.98 416.03,-85.08 456.83,-57.67"/>
<polygon fill="midnightblue" stroke="midnightblue" points="458.95,-60.46 465.29,-51.98 455.04,-54.65 458.95,-60.46"/>
</g>
<!-- Node9&#45;&gt;Node2 -->
<g id="edge16" class="edge">
<title>Node9&#45;&gt;Node2</title>
<path fill="none" stroke="midnightblue" d="M512.1,-52.07C541.83,-61.42 587.12,-75.67 619.65,-85.9"/>
<polygon fill="midnightblue" stroke="midnightblue" points="618.71,-89.27 629.3,-88.94 620.81,-82.6 618.71,-89.27"/>
</g>
<!-- Node9&#45;&gt;Node9 -->
<g id="edge17" class="edge">
<title>Node9&#45;&gt;Node9</title>
<path fill="none" stroke="midnightblue" d="M452.76,-52.2C439.26,-61 448.51,-70.44 480.5,-70.44 502.49,-70.44 513.74,-65.98 514.23,-60.33"/>
<polygon fill="midnightblue" stroke="midnightblue" points="516.99,-58.17 508.24,-52.2 511.35,-62.32 516.99,-58.17"/>
</g>
<!-- Node9&#45;&gt;Node10 -->
<g id="edge18" class="edge">
<title>Node9&#45;&gt;Node10</title>
<path fill="none" stroke="midnightblue" d="M549.56,-35.17C564.01,-33.63 579.24,-32.01 593.61,-30.47"/>
<polygon fill="midnightblue" stroke="midnightblue" points="594.33,-33.91 603.9,-29.37 593.58,-26.95 594.33,-33.91"/>
</g>
</g>
</svg>
