<?xml version="1.0" encoding="UTF-8" standalone="no"?>
<!DOCTYPE svg PUBLIC "-//W3C//DTD SVG 1.1//EN"
 "http://www.w3.org/Graphics/SVG/1.1/DTD/svg11.dtd">
<!-- Generated by graphviz version 2.43.0 (0)
 -->
<!-- Title: JSONContainer::size Pages: 1 -->
<svg width="1130pt" height="359pt"
 viewBox="0.00 0.00 1130.00 359.00" xmlns="http://www.w3.org/2000/svg" xmlns:xlink="http://www.w3.org/1999/xlink">
<g id="graph0" class="graph" transform="scale(1 1) rotate(0) translate(4 355)">
<title>JSONContainer::size</title>
<polygon fill="white" stroke="transparent" points="-4,4 -4,-355 1126,-355 1126,4 -4,4"/>
<!-- Node1 -->
<g id="node1" class="node">
<title>Node1</title>
<g id="a_node1"><a xlink:title=" ">
<polygon fill="#bfbfbf" stroke="black" points="1009,-217.5 1009,-236.5 1122,-236.5 1122,-217.5 1009,-217.5"/>
<text text-anchor="middle" x="1065.5" y="-224.5" font-family="Helvetica,sans-Serif" font-size="10.00">JSONContainer::size</text>
</a>
</g>
</g>
<!-- Node2 -->
<g id="node2" class="node">
<title>Node2</title>
<g id="a_node2"><a xlink:href="../../d6/de9/classJSONContainer.html#a54f374361f8a9b6ab0da7e20ecf67e04" target="_top" xlink:title=" ">
<polygon fill="white" stroke="black" points="803.5,-312.5 803.5,-331.5 967.5,-331.5 967.5,-312.5 803.5,-312.5"/>
<text text-anchor="middle" x="885.5" y="-319.5" font-family="Helvetica,sans-Serif" font-size="10.00">JSONContainer::estimatedSize</text>
</a>
</g>
</g>
<!-- Node1&#45;&gt;Node2 -->
<g id="edge1" class="edge">
<title>Node1&#45;&gt;Node2</title>
<path fill="none" stroke="midnightblue" d="M1049.03,-243.94C1032.08,-261.44 1003.25,-288.21 973,-303 965.13,-306.85 956.47,-309.93 947.77,-312.38"/>
<polygon fill="midnightblue" stroke="midnightblue" points="1051.62,-246.3 1055.94,-236.63 1046.53,-241.49 1051.62,-246.3"/>
</g>
<!-- Node5 -->
<g id="node5" class="node">
<title>Node5</title>
<g id="a_node5"><a xlink:href="../../da/d36/classDefaultExecutor.html#afeb5c7ac7e9076f054b0baa715d4513a" target="_top" xlink:title=" ">
<polygon fill="white" stroke="black" points="798,-274.5 798,-293.5 973,-293.5 973,-274.5 798,-274.5"/>
<text text-anchor="middle" x="885.5" y="-281.5" font-family="Helvetica,sans-Serif" font-size="10.00">DefaultExecutor::estimatedWork</text>
</a>
</g>
</g>
<!-- Node1&#45;&gt;Node5 -->
<g id="edge4" class="edge">
<title>Node1&#45;&gt;Node5</title>
<path fill="none" stroke="midnightblue" d="M1035.3,-240.69C1017.57,-248.6 994.32,-258.29 973,-265 961.56,-268.6 949.06,-271.77 937.21,-274.44"/>
<polygon fill="midnightblue" stroke="midnightblue" points="1036.87,-243.82 1044.53,-236.5 1033.98,-237.44 1036.87,-243.82"/>
</g>
<!-- Node6 -->
<g id="node6" class="node">
<title>Node6</title>
<g id="a_node6"><a xlink:href="../../d6/de9/classJSONContainer.html#acdd1b3dcc401f9436ef9d685c739194e" target="_top" xlink:title=" ">
<polygon fill="white" stroke="black" points="803,-236.5 803,-255.5 968,-255.5 968,-236.5 803,-236.5"/>
<text text-anchor="middle" x="885.5" y="-243.5" font-family="Helvetica,sans-Serif" font-size="10.00">JSONContainer::hasMetaSpace</text>
</a>
</g>
</g>
<!-- Node1&#45;&gt;Node6 -->
<g id="edge5" class="edge">
<title>Node1&#45;&gt;Node6</title>
<path fill="none" stroke="midnightblue" d="M998.54,-234.04C988.66,-235.1 978.37,-236.19 968.21,-237.28"/>
<polygon fill="midnightblue" stroke="midnightblue" points="999.1,-237.5 1008.67,-232.96 998.35,-230.54 999.1,-237.5"/>
</g>
<!-- Node7 -->
<g id="node7" class="node">
<title>Node7</title>
<g id="a_node7"><a xlink:href="../../d6/de9/classJSONContainer.html#a31689bf5a2eb843a2d682a98dc3fcc46" target="_top" xlink:title=" ">
<polygon fill="white" stroke="black" points="815.5,-198.5 815.5,-217.5 955.5,-217.5 955.5,-198.5 815.5,-198.5"/>
<text text-anchor="middle" x="885.5" y="-205.5" font-family="Helvetica,sans-Serif" font-size="10.00">JSONContainer::hasSpace</text>
</a>
</g>
</g>
<!-- Node1&#45;&gt;Node7 -->
<g id="edge6" class="edge">
<title>Node1&#45;&gt;Node7</title>
<path fill="none" stroke="midnightblue" d="M998.62,-219.97C984.59,-218.47 969.74,-216.89 955.6,-215.38"/>
<polygon fill="midnightblue" stroke="midnightblue" points="998.35,-223.46 1008.67,-221.04 999.1,-216.5 998.35,-223.46"/>
</g>
<!-- Node8 -->
<g id="node8" class="node">
<title>Node8</title>
<g id="a_node8"><a xlink:href="../../d6/de9/classJSONContainer.html#a3469110219ed9449700ae8f4c70b05fe" target="_top" xlink:title=" ">
<polygon fill="white" stroke="black" points="803.5,-160.5 803.5,-179.5 967.5,-179.5 967.5,-160.5 803.5,-160.5"/>
<text text-anchor="middle" x="885.5" y="-167.5" font-family="Helvetica,sans-Serif" font-size="10.00">JSONContainer::reparseSubset</text>
</a>
</g>
</g>
<!-- Node1&#45;&gt;Node8 -->
<g id="edge7" class="edge">
<title>Node1&#45;&gt;Node8</title>
<path fill="none" stroke="midnightblue" d="M1035.3,-213.31C1017.57,-205.4 994.32,-195.71 973,-189 961.56,-185.4 949.06,-182.23 937.21,-179.56"/>
<polygon fill="midnightblue" stroke="midnightblue" points="1033.98,-216.56 1044.53,-217.5 1036.87,-210.18 1033.98,-216.56"/>
</g>
<!-- Node9 -->
<g id="node9" class="node">
<title>Node9</title>
<g id="a_node9"><a xlink:href="../../d6/de9/classJSONContainer.html#ab79fb2d42e903a2693e018f9caf26849" target="_top" xlink:title=" ">
<polygon fill="white" stroke="black" points="816.5,-104.5 816.5,-123.5 954.5,-123.5 954.5,-104.5 816.5,-104.5"/>
<text text-anchor="middle" x="885.5" y="-111.5" font-family="Helvetica,sans-Serif" font-size="10.00">JSONContainer::setViews</text>
</a>
</g>
</g>
<!-- Node1&#45;&gt;Node9 -->
<g id="edge8" class="edge">
<title>Node1&#45;&gt;Node9</title>
<path fill="none" stroke="midnightblue" d="M1047.58,-210.36C1030.04,-193.75 1001.27,-168.28 973,-151 954.46,-139.67 931.84,-130.13 914.38,-123.57"/>
<polygon fill="midnightblue" stroke="midnightblue" points="1045.18,-212.9 1054.81,-217.3 1050.03,-207.85 1045.18,-212.9"/>
</g>
<!-- Node3 -->
<g id="node3" class="node">
<title>Node3</title>
<g id="a_node3"><a xlink:href="../../d6/de9/classJSONContainer.html#a683038654f98b205aa5cc8c3a17e4fcf" target="_top" xlink:title=" ">
<polygon fill="white" stroke="black" points="595,-331.5 595,-350.5 742,-350.5 742,-331.5 595,-331.5"/>
<text text-anchor="middle" x="668.5" y="-338.5" font-family="Helvetica,sans-Serif" font-size="10.00">JSONContainer::parsedSize</text>
</a>
</g>
</g>
<!-- Node2&#45;&gt;Node3 -->
<g id="edge2" class="edge">
<title>Node2&#45;&gt;Node3</title>
<path fill="none" stroke="midnightblue" d="M793.23,-330.07C776.15,-331.58 758.5,-333.14 742.07,-334.59"/>
<polygon fill="midnightblue" stroke="midnightblue" points="793.56,-333.55 803.22,-329.18 792.95,-326.58 793.56,-333.55"/>
</g>
<!-- Node4 -->
<g id="node4" class="node">
<title>Node4</title>
<g id="a_node4"><a xlink:href="../../d6/de9/classJSONContainer.html#ae8cd0b70987b0d79059049a6a84c8546" target="_top" xlink:title=" ">
<polygon fill="white" stroke="black" points="575,-293.5 575,-312.5 762,-312.5 762,-293.5 575,-293.5"/>
<text text-anchor="middle" x="668.5" y="-300.5" font-family="Helvetica,sans-Serif" font-size="10.00">JSONContainer::removeDocuments</text>
</a>
</g>
</g>
<!-- Node2&#45;&gt;Node4 -->
<g id="edge3" class="edge">
<title>Node2&#45;&gt;Node4</title>
<path fill="none" stroke="midnightblue" d="M793.04,-313.92C782.79,-313.01 772.34,-312.09 762.07,-311.18"/>
<polygon fill="midnightblue" stroke="midnightblue" points="792.95,-317.42 803.22,-314.82 793.56,-310.45 792.95,-317.42"/>
</g>
<!-- Node9&#45;&gt;Node9 -->
<g id="edge22" class="edge">
<title>Node9&#45;&gt;Node9</title>
<path fill="none" stroke="midnightblue" d="M919.23,-131.89C918.74,-137.54 907.49,-142 885.5,-142 853.51,-142 844.26,-132.57 857.76,-123.76"/>
<polygon fill="midnightblue" stroke="midnightblue" points="921.99,-129.73 913.24,-123.76 916.35,-133.88 921.99,-129.73"/>
</g>
<!-- Node10 -->
<g id="node10" class="node">
<title>Node10</title>
<g id="a_node10"><a xlink:href="../../d6/de9/classJSONContainer.html#a6a73c03b5e5af8c71d824da2dff3371c" target="_top" xlink:title=" ">
<polygon fill="white" stroke="black" points="603,-132.5 603,-151.5 734,-151.5 734,-132.5 603,-132.5"/>
<text text-anchor="middle" x="668.5" y="-139.5" font-family="Helvetica,sans-Serif" font-size="10.00">JSONContainer::reparse</text>
</a>
</g>
</g>
<!-- Node9&#45;&gt;Node10 -->
<g id="edge9" class="edge">
<title>Node9&#45;&gt;Node10</title>
<path fill="none" stroke="midnightblue" d="M806.44,-124.17C782.71,-127.26 756.9,-130.62 734.15,-133.58"/>
<polygon fill="midnightblue" stroke="midnightblue" points="807.01,-127.62 816.47,-122.86 806.1,-120.68 807.01,-127.62"/>
</g>
<!-- Node11 -->
<g id="node11" class="node">
<title>Node11</title>
<g id="a_node11"><a xlink:href="../../d6/de9/classJSONContainer.html#a9170b6ae6e7dbcf2cb9a6121a1430057" target="_top" xlink:title=" ">
<polygon fill="white" stroke="black" points="586.5,-76.5 586.5,-95.5 750.5,-95.5 750.5,-76.5 586.5,-76.5"/>
<text text-anchor="middle" x="668.5" y="-83.5" font-family="Helvetica,sans-Serif" font-size="10.00">JSONContainer::reparseSubset</text>
</a>
</g>
</g>
<!-- Node9&#45;&gt;Node11 -->
<g id="edge10" class="edge">
<title>Node9&#45;&gt;Node11</title>
<path fill="none" stroke="midnightblue" d="M806.4,-103.83C785.59,-101.12 763.2,-98.2 742.66,-95.53"/>
<polygon fill="midnightblue" stroke="midnightblue" points="806.1,-107.32 816.47,-105.14 807.01,-100.38 806.1,-107.32"/>
</g>
<!-- Node11&#45;&gt;Node11 -->
<g id="edge18" class="edge">
<title>Node11&#45;&gt;Node11</title>
<path fill="none" stroke="midnightblue" d="M708.9,-102.62C710.31,-108.86 696.85,-114 668.5,-114 629.9,-114 618.89,-104.46 635.48,-95.61"/>
<polygon fill="midnightblue" stroke="midnightblue" points="711.18,-99.96 701.52,-95.61 706.36,-105.04 711.18,-99.96"/>
</g>
<!-- Node12 -->
<g id="node12" class="node">
<title>Node12</title>
<g id="a_node12"><a xlink:href="../../d6/de9/classJSONContainer.html#ad54c1aaf9111561ab0562f0927637f5d" target="_top" xlink:title=" ">
<polygon fill="white" stroke="black" points="357,-152.5 357,-171.5 539,-171.5 539,-152.5 357,-152.5"/>
<text text-anchor="middle" x="448" y="-159.5" font-family="Helvetica,sans-Serif" font-size="10.00">JSONContainer::AcceptDocuments</text>
</a>
</g>
</g>
<!-- Node11&#45;&gt;Node12 -->
<g id="edge11" class="edge">
<title>Node11&#45;&gt;Node12</title>
<path fill="none" stroke="midnightblue" d="M631.48,-99.19C614.18,-105.83 593.28,-114.31 575,-123 558.47,-130.86 556.15,-136.59 539,-143 528.83,-146.8 517.71,-149.92 506.87,-152.46"/>
<polygon fill="midnightblue" stroke="midnightblue" points="633.1,-102.32 641.21,-95.5 630.61,-95.77 633.1,-102.32"/>
</g>
<!-- Node13 -->
<g id="node13" class="node">
<title>Node13</title>
<g id="a_node13"><a xlink:href="../../d6/de9/classJSONContainer.html#a83f7d26170b0eb584958678dfdda3104" target="_top" xlink:title=" ">
<polygon fill="white" stroke="black" points="388,-114.5 388,-133.5 508,-133.5 508,-114.5 388,-114.5"/>
<text text-anchor="middle" x="448" y="-121.5" font-family="Helvetica,sans-Serif" font-size="10.00">JSONContainer::forAll</text>
</a>
</g>
</g>
<!-- Node11&#45;&gt;Node13 -->
<g id="edge12" class="edge">
<title>Node11&#45;&gt;Node13</title>
<path fill="none" stroke="midnightblue" d="M602.66,-97.28C571.23,-102.74 533.88,-109.24 503.88,-114.46"/>
<polygon fill="midnightblue" stroke="midnightblue" points="603.39,-100.7 612.65,-95.54 602.19,-93.81 603.39,-100.7"/>
</g>
<!-- Node14 -->
<g id="node14" class="node">
<title>Node14</title>
<g id="a_node14"><a xlink:href="../../d6/de9/classJSONContainer.html#af63f3fd97bbbf0f5fde4659fd84a8c8c" target="_top" xlink:title=" ">
<polygon fill="white" stroke="black" points="379.5,-76.5 379.5,-95.5 516.5,-95.5 516.5,-76.5 379.5,-76.5"/>
<text text-anchor="middle" x="448" y="-83.5" font-family="Helvetica,sans-Serif" font-size="10.00">JSONContainer::forAllRet</text>
</a>
</g>
</g>
<!-- Node11&#45;&gt;Node14 -->
<g id="edge13" class="edge">
<title>Node11&#45;&gt;Node14</title>
<path fill="none" stroke="midnightblue" d="M576.4,-86C556.4,-86 535.57,-86 516.68,-86"/>
<polygon fill="midnightblue" stroke="midnightblue" points="576.45,-89.5 586.45,-86 576.45,-82.5 576.45,-89.5"/>
</g>
<!-- Node16 -->
<g id="node16" class="node">
<title>Node16</title>
<g id="a_node16"><a xlink:href="../../d6/de9/classJSONContainer.html#ae8bd221d03c830e1e58bc1db5d9e7237" target="_top" xlink:title=" ">
<polygon fill="white" stroke="black" points="382.5,-38.5 382.5,-57.5 513.5,-57.5 513.5,-38.5 382.5,-38.5"/>
<text text-anchor="middle" x="448" y="-45.5" font-family="Helvetica,sans-Serif" font-size="10.00">JSONContainer::getRaw</text>
</a>
</g>
</g>
<!-- Node11&#45;&gt;Node16 -->
<g id="edge15" class="edge">
<title>Node11&#45;&gt;Node16</title>
<path fill="none" stroke="midnightblue" d="M602.66,-74.72C571.23,-69.26 533.88,-62.76 503.88,-57.54"/>
<polygon fill="midnightblue" stroke="midnightblue" points="602.19,-78.19 612.65,-76.46 603.39,-71.3 602.19,-78.19"/>
</g>
<!-- Node19 -->
<g id="node19" class="node">
<title>Node19</title>
<g id="a_node19"><a xlink:href="../../d6/de9/classJSONContainer.html#af35fd5784eba432de842771454f84722" target="_top" xlink:title=" ">
<polygon fill="white" stroke="black" points="381,-0.5 381,-19.5 515,-19.5 515,-0.5 381,-0.5"/>
<text text-anchor="middle" x="448" y="-7.5" font-family="Helvetica,sans-Serif" font-size="10.00">JSONContainer::stringify</text>
</a>
</g>
</g>
<!-- Node11&#45;&gt;Node19 -->
<g id="edge19" class="edge">
<title>Node11&#45;&gt;Node19</title>
<path fill="none" stroke="midnightblue" d="M640.17,-71.86C614.6,-59.12 575.03,-40.65 539,-29 527.6,-25.31 515.16,-22.16 503.26,-19.54"/>
<polygon fill="midnightblue" stroke="midnightblue" points="638.75,-75.06 649.25,-76.44 641.9,-68.81 638.75,-75.06"/>
</g>
<!-- Node15 -->
<g id="node15" class="node">
<title>Node15</title>
<g id="a_node15"><a xlink:href="../../d7/d0e/classCacheExecutor.html#a34fc818f886e37d41f0e3252d290ff6b" target="_top" xlink:title=" ">
<polygon fill="white" stroke="black" points="177.5,-76.5 177.5,-95.5 310.5,-95.5 310.5,-76.5 177.5,-76.5"/>
<text text-anchor="middle" x="244" y="-83.5" font-family="Helvetica,sans-Serif" font-size="10.00">CacheExecutor::execute</text>
</a>
</g>
</g>
<!-- Node14&#45;&gt;Node15 -->
<g id="edge14" class="edge">
<title>Node14&#45;&gt;Node15</title>
<path fill="none" stroke="midnightblue" d="M369.46,-86C350.09,-86 329.5,-86 310.77,-86"/>
<polygon fill="midnightblue" stroke="midnightblue" points="369.46,-89.5 379.46,-86 369.46,-82.5 369.46,-89.5"/>
</g>
<!-- Node17 -->
<g id="node17" class="node">
<title>Node17</title>
<g id="a_node17"><a xlink:href="../../da/dcb/classQueryThread.html#a53eace9da88daad57b0a1aaf5a57e778" target="_top" xlink:title=" ">
<polygon fill="white" stroke="black" points="167,-38.5 167,-57.5 321,-57.5 321,-38.5 167,-38.5"/>
<text text-anchor="middle" x="244" y="-45.5" font-family="Helvetica,sans-Serif" font-size="10.00">QueryThread::defaultProject</text>
</a>
</g>
</g>
<!-- Node16&#45;&gt;Node17 -->
<g id="edge16" class="edge">
<title>Node16&#45;&gt;Node17</title>
<path fill="none" stroke="midnightblue" d="M372.03,-48C355.37,-48 337.7,-48 321,-48"/>
<polygon fill="midnightblue" stroke="midnightblue" points="372.25,-51.5 382.25,-48 372.25,-44.5 372.25,-51.5"/>
</g>
<!-- Node18 -->
<g id="node18" class="node">
<title>Node18</title>
<g id="a_node18"><a xlink:href="../../da/dcb/classQueryThread.html#a646d5ddb6815199a41b91d5569897980" target="_top" xlink:title=" ">
<polygon fill="white" stroke="black" points="10.5,-38.5 10.5,-57.5 120.5,-57.5 120.5,-38.5 10.5,-38.5"/>
<text text-anchor="middle" x="65.5" y="-45.5" font-family="Helvetica,sans-Serif" font-size="10.00">QueryThread::work</text>
</a>
</g>
</g>
<!-- Node17&#45;&gt;Node18 -->
<g id="edge17" class="edge">
<title>Node17&#45;&gt;Node18</title>
<path fill="none" stroke="midnightblue" d="M156.59,-48C144.32,-48 131.99,-48 120.58,-48"/>
<polygon fill="midnightblue" stroke="midnightblue" points="156.87,-51.5 166.87,-48 156.87,-44.5 156.87,-51.5"/>
</g>
<!-- Node20 -->
<g id="node20" class="node">
<title>Node20</title>
<g id="a_node20"><a xlink:href="../../d6/de9/classJSONContainer.html#afbe561cd1d11fc4b315189eee250d4f8" target="_top" xlink:title=" ">
<polygon fill="white" stroke="black" points="176,-0.5 176,-19.5 312,-19.5 312,-0.5 176,-0.5"/>
<text text-anchor="middle" x="244" y="-7.5" font-family="Helvetica,sans-Serif" font-size="10.00">JSONContainer::writeFile</text>
</a>
</g>
</g>
<!-- Node19&#45;&gt;Node20 -->
<g id="edge20" class="edge">
<title>Node19&#45;&gt;Node20</title>
<path fill="none" stroke="midnightblue" d="M370.66,-10C351.48,-10 331.03,-10 312.33,-10"/>
<polygon fill="midnightblue" stroke="midnightblue" points="370.86,-13.5 380.86,-10 370.86,-6.5 370.86,-13.5"/>
</g>
<!-- Node21 -->
<g id="node21" class="node">
<title>Node21</title>
<g id="a_node21"><a xlink:href="../../d2/dcc/classJSONStorage.html#a835233357d524dbdce52e5d3aace2702" target="_top" xlink:title=" ">
<polygon fill="white" stroke="black" points="0,-0.5 0,-19.5 131,-19.5 131,-0.5 0,-0.5"/>
<text text-anchor="middle" x="65.5" y="-7.5" font-family="Helvetica,sans-Serif" font-size="10.00">JSONStorage::writeFiles</text>
</a>
</g>
</g>
<!-- Node20&#45;&gt;Node21 -->
<g id="edge21" class="edge">
<title>Node20&#45;&gt;Node21</title>
<path fill="none" stroke="midnightblue" d="M165.73,-10C154.21,-10 142.44,-10 131.21,-10"/>
<polygon fill="midnightblue" stroke="midnightblue" points="165.77,-13.5 175.77,-10 165.77,-6.5 165.77,-13.5"/>
</g>
</g>
</svg>
