<?xml version="1.0" encoding="UTF-8" standalone="no"?>
<!DOCTYPE svg PUBLIC "-//W3C//DTD SVG 1.1//EN"
 "http://www.w3.org/Graphics/SVG/1.1/DTD/svg11.dtd">
<!-- Generated by graphviz version 2.43.0 (0)
 -->
<!-- Title: JSONContainer::parsedSize Pages: 1 -->
<svg width="556pt" height="66pt"
 viewBox="0.00 0.00 556.00 66.00" xmlns="http://www.w3.org/2000/svg" xmlns:xlink="http://www.w3.org/1999/xlink">
<g id="graph0" class="graph" transform="scale(1 1) rotate(0) translate(4 62)">
<title>JSONContainer::parsedSize</title>
<polygon fill="white" stroke="transparent" points="-4,4 -4,-62 552,-62 552,4 -4,4"/>
<!-- Node1 -->
<g id="node1" class="node">
<title>Node1</title>
<g id="a_node1"><a xlink:title=" ">
<polygon fill="#bfbfbf" stroke="black" points="0,-19.5 0,-38.5 147,-38.5 147,-19.5 0,-19.5"/>
<text text-anchor="middle" x="73.5" y="-26.5" font-family="Helvetica,sans-Serif" font-size="10.00">JSONContainer::parsedSize</text>
</a>
</g>
</g>
<!-- Node2 -->
<g id="node2" class="node">
<title>Node2</title>
<g id="a_node2"><a xlink:href="../../d6/de9/classJSONContainer.html#a54f374361f8a9b6ab0da7e20ecf67e04" target="_top" xlink:title=" ">
<polygon fill="white" stroke="black" points="183,-19.5 183,-38.5 347,-38.5 347,-19.5 183,-19.5"/>
<text text-anchor="middle" x="265" y="-26.5" font-family="Helvetica,sans-Serif" font-size="10.00">JSONContainer::estimatedSize</text>
</a>
</g>
</g>
<!-- Node1&#45;&gt;Node2 -->
<g id="edge1" class="edge">
<title>Node1&#45;&gt;Node2</title>
<path fill="none" stroke="midnightblue" d="M147.22,-29C155.63,-29 164.27,-29 172.88,-29"/>
<polygon fill="midnightblue" stroke="midnightblue" points="172.95,-32.5 182.95,-29 172.95,-25.5 172.95,-32.5"/>
</g>
<!-- Node3 -->
<g id="node3" class="node">
<title>Node3</title>
<g id="a_node3"><a xlink:href="../../d6/de9/classJSONContainer.html#a22e872d7eb347ec89318714d1e679b8f" target="_top" xlink:title=" ">
<polygon fill="white" stroke="black" points="383,-38.5 383,-57.5 548,-57.5 548,-38.5 383,-38.5"/>
<text text-anchor="middle" x="465.5" y="-45.5" font-family="Helvetica,sans-Serif" font-size="10.00">JSONContainer::JSONContainer</text>
</a>
</g>
</g>
<!-- Node2&#45;&gt;Node3 -->
<g id="edge2" class="edge">
<title>Node2&#45;&gt;Node3</title>
<path fill="none" stroke="midnightblue" d="M347.02,-36.76C355.5,-37.57 364.16,-38.4 372.74,-39.22"/>
<polygon fill="midnightblue" stroke="midnightblue" points="372.48,-42.71 382.77,-40.18 373.15,-35.74 372.48,-42.71"/>
</g>
<!-- Node4 -->
<g id="node4" class="node">
<title>Node4</title>
<g id="a_node4"><a xlink:href="../../d6/de9/classJSONContainer.html#aff361f24e550af9c8898fdb6b7d893e6" target="_top" xlink:title=" ">
<polygon fill="white" stroke="black" points="409,-0.5 409,-19.5 522,-19.5 522,-0.5 409,-0.5"/>
<text text-anchor="middle" x="465.5" y="-7.5" font-family="Helvetica,sans-Serif" font-size="10.00">JSONContainer::size</text>
</a>
</g>
</g>
<!-- Node2&#45;&gt;Node4 -->
<g id="edge3" class="edge">
<title>Node2&#45;&gt;Node4</title>
<path fill="none" stroke="midnightblue" d="M347.02,-21.24C364.25,-19.6 382.23,-17.87 398.8,-16.29"/>
<polygon fill="midnightblue" stroke="midnightblue" points="399.29,-19.76 408.91,-15.32 398.62,-12.79 399.29,-19.76"/>
</g>
</g>
</svg>
