<?xml version="1.0" encoding="UTF-8" standalone="no"?>
<!DOCTYPE svg PUBLIC "-//W3C//DTD SVG 1.1//EN"
 "http://www.w3.org/Graphics/SVG/1.1/DTD/svg11.dtd">
<!-- Generated by graphviz version 2.43.0 (0)
 -->
<!-- Title: JSONContainer::reparse Pages: 1 -->
<svg width="499pt" height="246pt"
 viewBox="0.00 0.00 499.00 246.00" xmlns="http://www.w3.org/2000/svg" xmlns:xlink="http://www.w3.org/1999/xlink">
<g id="graph0" class="graph" transform="scale(1 1) rotate(0) translate(4 242)">
<title>JSONContainer::reparse</title>
<polygon fill="white" stroke="transparent" points="-4,4 -4,-242 495,-242 495,4 -4,4"/>
<!-- Node1 -->
<g id="node1" class="node">
<title>Node1</title>
<g id="a_node1"><a xlink:title=" ">
<polygon fill="#bfbfbf" stroke="black" points="0,-123.5 0,-142.5 131,-142.5 131,-123.5 0,-123.5"/>
<text text-anchor="middle" x="65.5" y="-130.5" font-family="Helvetica,sans-Serif" font-size="10.00">JSONContainer::reparse</text>
</a>
</g>
</g>
<!-- Node2 -->
<g id="node2" class="node">
<title>Node2</title>
<g id="a_node2"><a xlink:href="../../d6/de9/classJSONContainer.html#ae819ca7f29de318920ac24b7e62109df" target="_top" xlink:title=" ">
<polygon fill="white" stroke="black" points="169,-218.5 169,-237.5 326,-237.5 326,-218.5 169,-218.5"/>
<text text-anchor="middle" x="247.5" y="-225.5" font-family="Helvetica,sans-Serif" font-size="10.00">JSONContainer::isReparsable</text>
</a>
</g>
</g>
<!-- Node1&#45;&gt;Node2 -->
<g id="edge1" class="edge">
<title>Node1&#45;&gt;Node2</title>
<path fill="none" stroke="midnightblue" d="M76.13,-142.52C93.04,-158.69 129.81,-191.44 167,-209 172.05,-211.39 177.43,-213.49 182.92,-215.33"/>
<polygon fill="midnightblue" stroke="midnightblue" points="182.27,-218.8 192.86,-218.39 184.33,-212.11 182.27,-218.8"/>
</g>
<!-- Node3 -->
<g id="node3" class="node">
<title>Node3</title>
<g id="a_node3"><a xlink:href="../../d1/d42/classFileOrigin.html#ac6b575f1ee18bc1cec0da7e31198e874" target="_top" xlink:title=" ">
<polygon fill="white" stroke="black" points="176,-180.5 176,-199.5 319,-199.5 319,-180.5 176,-180.5"/>
<text text-anchor="middle" x="247.5" y="-187.5" font-family="Helvetica,sans-Serif" font-size="10.00">FileOrigin::mergeIntervals</text>
</a>
</g>
</g>
<!-- Node1&#45;&gt;Node3 -->
<g id="edge2" class="edge">
<title>Node1&#45;&gt;Node3</title>
<path fill="none" stroke="midnightblue" d="M89.36,-142.6C109.55,-150.84 139.9,-162.67 167,-171 175.09,-173.49 183.73,-175.85 192.22,-178"/>
<polygon fill="midnightblue" stroke="midnightblue" points="191.53,-181.44 202.08,-180.44 193.21,-174.64 191.53,-181.44"/>
</g>
<!-- Node4 -->
<g id="node4" class="node">
<title>Node4</title>
<g id="a_node4"><a xlink:href="../../d1/d42/classFileOrigin.html#a36cf3be8866ae066538faaca95c2b4aa" target="_top" xlink:title=" ">
<polygon fill="white" stroke="black" points="178,-142.5 178,-161.5 317,-161.5 317,-142.5 178,-142.5"/>
<text text-anchor="middle" x="247.5" y="-149.5" font-family="Helvetica,sans-Serif" font-size="10.00">FileOrigin::parseIntervals</text>
</a>
</g>
</g>
<!-- Node1&#45;&gt;Node4 -->
<g id="edge3" class="edge">
<title>Node1&#45;&gt;Node4</title>
<path fill="none" stroke="midnightblue" d="M131.23,-139.83C143.04,-141.08 155.48,-142.39 167.65,-143.68"/>
<polygon fill="midnightblue" stroke="midnightblue" points="167.47,-147.18 177.79,-144.75 168.21,-140.22 167.47,-147.18"/>
</g>
<!-- Node6 -->
<g id="node6" class="node">
<title>Node6</title>
<g id="a_node6"><a xlink:href="../../d6/de9/classJSONContainer.html#a924f326dbf66da05173e2a23bbbc528e" target="_top" xlink:title=" ">
<polygon fill="white" stroke="black" points="167,-104.5 167,-123.5 328,-123.5 328,-104.5 167,-104.5"/>
<text text-anchor="middle" x="247.5" y="-111.5" font-family="Helvetica,sans-Serif" font-size="10.00">JSONContainer::removeViews</text>
</a>
</g>
</g>
<!-- Node1&#45;&gt;Node6 -->
<g id="edge5" class="edge">
<title>Node1&#45;&gt;Node6</title>
<path fill="none" stroke="midnightblue" d="M131.23,-126.17C139.56,-125.29 148.21,-124.38 156.85,-123.46"/>
<polygon fill="midnightblue" stroke="midnightblue" points="157.39,-126.93 166.97,-122.39 156.66,-119.96 157.39,-126.93"/>
</g>
<!-- Node7 -->
<g id="node7" class="node">
<title>Node7</title>
<g id="a_node7"><a xlink:href="../../d1/d42/classFileOrigin.html#a0016d990bf1fed498a85a28d1e4e7b32" target="_top" xlink:title=" ">
<polygon fill="white" stroke="black" points="194.5,-66.5 194.5,-85.5 300.5,-85.5 300.5,-66.5 194.5,-66.5"/>
<text text-anchor="middle" x="247.5" y="-73.5" font-family="Helvetica,sans-Serif" font-size="10.00">FileOrigin::reparse</text>
</a>
</g>
</g>
<!-- Node1&#45;&gt;Node7 -->
<g id="edge6" class="edge">
<title>Node1&#45;&gt;Node7</title>
<path fill="none" stroke="midnightblue" d="M89.36,-123.4C109.55,-115.16 139.9,-103.33 167,-95 175.09,-92.51 183.73,-90.15 192.22,-88"/>
<polygon fill="midnightblue" stroke="midnightblue" points="193.21,-91.36 202.08,-85.56 191.53,-84.56 193.21,-91.36"/>
</g>
<!-- Node8 -->
<g id="node8" class="node">
<title>Node8</title>
<g id="a_node8"><a xlink:href="../../d6/de9/classJSONContainer.html#ab79fb2d42e903a2693e018f9caf26849" target="_top" xlink:title=" ">
<polygon fill="white" stroke="black" points="178.5,-10.5 178.5,-29.5 316.5,-29.5 316.5,-10.5 178.5,-10.5"/>
<text text-anchor="middle" x="247.5" y="-17.5" font-family="Helvetica,sans-Serif" font-size="10.00">JSONContainer::setViews</text>
</a>
</g>
</g>
<!-- Node1&#45;&gt;Node8 -->
<g id="edge8" class="edge">
<title>Node1&#45;&gt;Node8</title>
<path fill="none" stroke="midnightblue" d="M77.69,-123.27C95.68,-107.93 132.51,-77.75 167,-57 181.52,-48.27 198.44,-40.13 212.94,-33.73"/>
<polygon fill="midnightblue" stroke="midnightblue" points="214.73,-36.76 222.52,-29.58 211.95,-30.34 214.73,-36.76"/>
</g>
<!-- Node5 -->
<g id="node5" class="node">
<title>Node5</title>
<g id="a_node5"><a xlink:href="../../dc/d58/classFileNameRepo.html#a6322c6db3aefc093806936555509ab53" target="_top" xlink:title=" ">
<polygon fill="white" stroke="black" points="364,-109.5 364,-128.5 491,-128.5 491,-109.5 364,-109.5"/>
<text text-anchor="middle" x="427.5" y="-116.5" font-family="Helvetica,sans-Serif" font-size="10.00">FileNameRepo::getFile</text>
</a>
</g>
</g>
<!-- Node4&#45;&gt;Node5 -->
<g id="edge4" class="edge">
<title>Node4&#45;&gt;Node5</title>
<path fill="none" stroke="midnightblue" d="M299.98,-142.46C320.37,-138.68 343.97,-134.3 365.23,-130.36"/>
<polygon fill="midnightblue" stroke="midnightblue" points="365.94,-133.79 375.13,-128.52 364.66,-126.91 365.94,-133.79"/>
</g>
<!-- Node7&#45;&gt;Node5 -->
<g id="edge7" class="edge">
<title>Node7&#45;&gt;Node5</title>
<path fill="none" stroke="midnightblue" d="M288.54,-85.53C301.17,-88.55 315.17,-91.9 328,-95 344.14,-98.9 361.76,-103.18 377.58,-107.04"/>
<polygon fill="midnightblue" stroke="midnightblue" points="377.14,-110.53 387.68,-109.5 378.79,-103.73 377.14,-110.53"/>
</g>
<!-- Node8&#45;&gt;Node8 -->
<g id="edge10" class="edge">
<title>Node8&#45;&gt;Node8</title>
<path fill="none" stroke="midnightblue" d="M219.76,-29.76C206.26,-38.57 215.51,-48 247.5,-48 269.49,-48 280.74,-43.54 281.23,-37.89"/>
<polygon fill="midnightblue" stroke="midnightblue" points="283.99,-35.73 275.24,-29.76 278.35,-39.88 283.99,-35.73"/>
</g>
<!-- Node9 -->
<g id="node9" class="node">
<title>Node9</title>
<g id="a_node9"><a xlink:href="../../d6/de9/classJSONContainer.html#ab804dc033e52dec30eaf7bc50cc21b57" target="_top" xlink:title=" ">
<polygon fill="white" stroke="black" points="364.5,-38.5 364.5,-57.5 490.5,-57.5 490.5,-38.5 364.5,-38.5"/>
<text text-anchor="middle" x="427.5" y="-45.5" font-family="Helvetica,sans-Serif" font-size="10.00">JSONContainer::isView</text>
</a>
</g>
</g>
<!-- Node8&#45;&gt;Node9 -->
<g id="edge9" class="edge">
<title>Node8&#45;&gt;Node9</title>
<path fill="none" stroke="midnightblue" d="M309.26,-29.56C324.3,-31.92 340.53,-34.48 355.99,-36.91"/>
<polygon fill="midnightblue" stroke="midnightblue" points="355.59,-40.39 366.01,-38.49 356.68,-33.47 355.59,-40.39"/>
</g>
<!-- Node10 -->
<g id="node10" class="node">
<title>Node10</title>
<g id="a_node10"><a xlink:href="../../d6/de9/classJSONContainer.html#aff361f24e550af9c8898fdb6b7d893e6" target="_top" xlink:title=" ">
<polygon fill="white" stroke="black" points="371,-0.5 371,-19.5 484,-19.5 484,-0.5 371,-0.5"/>
<text text-anchor="middle" x="427.5" y="-7.5" font-family="Helvetica,sans-Serif" font-size="10.00">JSONContainer::size</text>
</a>
</g>
</g>
<!-- Node8&#45;&gt;Node10 -->
<g id="edge11" class="edge">
<title>Node8&#45;&gt;Node10</title>
<path fill="none" stroke="midnightblue" d="M316.56,-16.18C331.01,-15.36 346.24,-14.51 360.61,-13.7"/>
<polygon fill="midnightblue" stroke="midnightblue" points="361.11,-17.18 370.9,-13.12 360.72,-10.19 361.11,-17.18"/>
</g>
</g>
</svg>
