<?xml version="1.0" encoding="UTF-8" standalone="no"?>
<!DOCTYPE svg PUBLIC "-//W3C//DTD SVG 1.1//EN"
 "http://www.w3.org/Graphics/SVG/1.1/DTD/svg11.dtd">
<!-- Generated by graphviz version 2.43.0 (0)
 -->
<!-- Title: JSONContainer::reparseSubset Pages: 1 -->
<svg width="747pt" height="180pt"
 viewBox="0.00 0.00 747.00 180.00" xmlns="http://www.w3.org/2000/svg" xmlns:xlink="http://www.w3.org/1999/xlink">
<g id="graph0" class="graph" transform="scale(1 1) rotate(0) translate(4 176)">
<title>JSONContainer::reparseSubset</title>
<polygon fill="white" stroke="transparent" points="-4,4 -4,-176 743,-176 743,4 -4,4"/>
<!-- Node1 -->
<g id="node1" class="node">
<title>Node1</title>
<g id="a_node1"><a xlink:title=" ">
<polygon fill="#bfbfbf" stroke="black" points="575,-76.5 575,-95.5 739,-95.5 739,-76.5 575,-76.5"/>
<text text-anchor="middle" x="657" y="-83.5" font-family="Helvetica,sans-Serif" font-size="10.00">JSONContainer::reparseSubset</text>
</a>
</g>
</g>
<!-- Node1&#45;&gt;Node1 -->
<g id="edge8" class="edge">
<title>Node1&#45;&gt;Node1</title>
<path fill="none" stroke="midnightblue" d="M695.97,-103.01C696.71,-109.07 683.72,-114 657,-114 619.83,-114 609.23,-104.46 625.2,-95.61"/>
<polygon fill="midnightblue" stroke="midnightblue" points="698.27,-100.36 688.8,-95.61 693.24,-105.23 698.27,-100.36"/>
</g>
<!-- Node2 -->
<g id="node2" class="node">
<title>Node2</title>
<g id="a_node2"><a xlink:href="../../d6/de9/classJSONContainer.html#ad54c1aaf9111561ab0562f0927637f5d" target="_top" xlink:title=" ">
<polygon fill="white" stroke="black" points="357,-152.5 357,-171.5 539,-171.5 539,-152.5 357,-152.5"/>
<text text-anchor="middle" x="448" y="-159.5" font-family="Helvetica,sans-Serif" font-size="10.00">JSONContainer::AcceptDocuments</text>
</a>
</g>
</g>
<!-- Node1&#45;&gt;Node2 -->
<g id="edge1" class="edge">
<title>Node1&#45;&gt;Node2</title>
<path fill="none" stroke="midnightblue" d="M630.67,-100.6C607.48,-113.42 571.87,-131.72 539,-143 528.13,-146.73 516.25,-149.87 504.79,-152.45"/>
<polygon fill="midnightblue" stroke="midnightblue" points="632.49,-103.59 639.5,-95.65 629.07,-97.49 632.49,-103.59"/>
</g>
<!-- Node3 -->
<g id="node3" class="node">
<title>Node3</title>
<g id="a_node3"><a xlink:href="../../d6/de9/classJSONContainer.html#a83f7d26170b0eb584958678dfdda3104" target="_top" xlink:title=" ">
<polygon fill="white" stroke="black" points="388,-114.5 388,-133.5 508,-133.5 508,-114.5 388,-114.5"/>
<text text-anchor="middle" x="448" y="-121.5" font-family="Helvetica,sans-Serif" font-size="10.00">JSONContainer::forAll</text>
</a>
</g>
</g>
<!-- Node1&#45;&gt;Node3 -->
<g id="edge2" class="edge">
<title>Node1&#45;&gt;Node3</title>
<path fill="none" stroke="midnightblue" d="M594.19,-97.35C564.49,-102.8 529.29,-109.26 500.99,-114.46"/>
<polygon fill="midnightblue" stroke="midnightblue" points="594.83,-100.79 604.03,-95.54 593.56,-93.9 594.83,-100.79"/>
</g>
<!-- Node4 -->
<g id="node4" class="node">
<title>Node4</title>
<g id="a_node4"><a xlink:href="../../d6/de9/classJSONContainer.html#af63f3fd97bbbf0f5fde4659fd84a8c8c" target="_top" xlink:title=" ">
<polygon fill="white" stroke="black" points="379.5,-76.5 379.5,-95.5 516.5,-95.5 516.5,-76.5 379.5,-76.5"/>
<text text-anchor="middle" x="448" y="-83.5" font-family="Helvetica,sans-Serif" font-size="10.00">JSONContainer::forAllRet</text>
</a>
</g>
</g>
<!-- Node1&#45;&gt;Node4 -->
<g id="edge3" class="edge">
<title>Node1&#45;&gt;Node4</title>
<path fill="none" stroke="midnightblue" d="M564.77,-86C548.59,-86 532,-86 516.62,-86"/>
<polygon fill="midnightblue" stroke="midnightblue" points="564.78,-89.5 574.78,-86 564.78,-82.5 564.78,-89.5"/>
</g>
<!-- Node6 -->
<g id="node6" class="node">
<title>Node6</title>
<g id="a_node6"><a xlink:href="../../d6/de9/classJSONContainer.html#ae8bd221d03c830e1e58bc1db5d9e7237" target="_top" xlink:title=" ">
<polygon fill="white" stroke="black" points="382.5,-38.5 382.5,-57.5 513.5,-57.5 513.5,-38.5 382.5,-38.5"/>
<text text-anchor="middle" x="448" y="-45.5" font-family="Helvetica,sans-Serif" font-size="10.00">JSONContainer::getRaw</text>
</a>
</g>
</g>
<!-- Node1&#45;&gt;Node6 -->
<g id="edge5" class="edge">
<title>Node1&#45;&gt;Node6</title>
<path fill="none" stroke="midnightblue" d="M594.19,-74.65C564.49,-69.2 529.29,-62.74 500.99,-57.54"/>
<polygon fill="midnightblue" stroke="midnightblue" points="593.56,-78.1 604.03,-76.46 594.83,-71.21 593.56,-78.1"/>
</g>
<!-- Node9 -->
<g id="node9" class="node">
<title>Node9</title>
<g id="a_node9"><a xlink:href="../../d6/de9/classJSONContainer.html#af35fd5784eba432de842771454f84722" target="_top" xlink:title=" ">
<polygon fill="white" stroke="black" points="381,-0.5 381,-19.5 515,-19.5 515,-0.5 381,-0.5"/>
<text text-anchor="middle" x="448" y="-7.5" font-family="Helvetica,sans-Serif" font-size="10.00">JSONContainer::stringify</text>
</a>
</g>
</g>
<!-- Node1&#45;&gt;Node9 -->
<g id="edge9" class="edge">
<title>Node1&#45;&gt;Node9</title>
<path fill="none" stroke="midnightblue" d="M630.67,-71.4C607.48,-58.58 571.87,-40.28 539,-29 528.13,-25.27 516.25,-22.13 504.79,-19.55"/>
<polygon fill="midnightblue" stroke="midnightblue" points="629.07,-74.51 639.5,-76.35 632.49,-68.41 629.07,-74.51"/>
</g>
<!-- Node5 -->
<g id="node5" class="node">
<title>Node5</title>
<g id="a_node5"><a xlink:href="../../d7/d0e/classCacheExecutor.html#a34fc818f886e37d41f0e3252d290ff6b" target="_top" xlink:title=" ">
<polygon fill="white" stroke="black" points="177.5,-76.5 177.5,-95.5 310.5,-95.5 310.5,-76.5 177.5,-76.5"/>
<text text-anchor="middle" x="244" y="-83.5" font-family="Helvetica,sans-Serif" font-size="10.00">CacheExecutor::execute</text>
</a>
</g>
</g>
<!-- Node4&#45;&gt;Node5 -->
<g id="edge4" class="edge">
<title>Node4&#45;&gt;Node5</title>
<path fill="none" stroke="midnightblue" d="M369.46,-86C350.09,-86 329.5,-86 310.77,-86"/>
<polygon fill="midnightblue" stroke="midnightblue" points="369.46,-89.5 379.46,-86 369.46,-82.5 369.46,-89.5"/>
</g>
<!-- Node7 -->
<g id="node7" class="node">
<title>Node7</title>
<g id="a_node7"><a xlink:href="../../da/dcb/classQueryThread.html#a53eace9da88daad57b0a1aaf5a57e778" target="_top" xlink:title=" ">
<polygon fill="white" stroke="black" points="167,-38.5 167,-57.5 321,-57.5 321,-38.5 167,-38.5"/>
<text text-anchor="middle" x="244" y="-45.5" font-family="Helvetica,sans-Serif" font-size="10.00">QueryThread::defaultProject</text>
</a>
</g>
</g>
<!-- Node6&#45;&gt;Node7 -->
<g id="edge6" class="edge">
<title>Node6&#45;&gt;Node7</title>
<path fill="none" stroke="midnightblue" d="M372.03,-48C355.37,-48 337.7,-48 321,-48"/>
<polygon fill="midnightblue" stroke="midnightblue" points="372.25,-51.5 382.25,-48 372.25,-44.5 372.25,-51.5"/>
</g>
<!-- Node8 -->
<g id="node8" class="node">
<title>Node8</title>
<g id="a_node8"><a xlink:href="../../da/dcb/classQueryThread.html#a646d5ddb6815199a41b91d5569897980" target="_top" xlink:title=" ">
<polygon fill="white" stroke="black" points="10.5,-38.5 10.5,-57.5 120.5,-57.5 120.5,-38.5 10.5,-38.5"/>
<text text-anchor="middle" x="65.5" y="-45.5" font-family="Helvetica,sans-Serif" font-size="10.00">QueryThread::work</text>
</a>
</g>
</g>
<!-- Node7&#45;&gt;Node8 -->
<g id="edge7" class="edge">
<title>Node7&#45;&gt;Node8</title>
<path fill="none" stroke="midnightblue" d="M156.59,-48C144.32,-48 131.99,-48 120.58,-48"/>
<polygon fill="midnightblue" stroke="midnightblue" points="156.87,-51.5 166.87,-48 156.87,-44.5 156.87,-51.5"/>
</g>
<!-- Node10 -->
<g id="node10" class="node">
<title>Node10</title>
<g id="a_node10"><a xlink:href="../../d6/de9/classJSONContainer.html#afbe561cd1d11fc4b315189eee250d4f8" target="_top" xlink:title=" ">
<polygon fill="white" stroke="black" points="176,-0.5 176,-19.5 312,-19.5 312,-0.5 176,-0.5"/>
<text text-anchor="middle" x="244" y="-7.5" font-family="Helvetica,sans-Serif" font-size="10.00">JSONContainer::writeFile</text>
</a>
</g>
</g>
<!-- Node9&#45;&gt;Node10 -->
<g id="edge10" class="edge">
<title>Node9&#45;&gt;Node10</title>
<path fill="none" stroke="midnightblue" d="M370.66,-10C351.48,-10 331.03,-10 312.33,-10"/>
<polygon fill="midnightblue" stroke="midnightblue" points="370.86,-13.5 380.86,-10 370.86,-6.5 370.86,-13.5"/>
</g>
<!-- Node11 -->
<g id="node11" class="node">
<title>Node11</title>
<g id="a_node11"><a xlink:href="../../d2/dcc/classJSONStorage.html#a835233357d524dbdce52e5d3aace2702" target="_top" xlink:title=" ">
<polygon fill="white" stroke="black" points="0,-0.5 0,-19.5 131,-19.5 131,-0.5 0,-0.5"/>
<text text-anchor="middle" x="65.5" y="-7.5" font-family="Helvetica,sans-Serif" font-size="10.00">JSONStorage::writeFiles</text>
</a>
</g>
</g>
<!-- Node10&#45;&gt;Node11 -->
<g id="edge11" class="edge">
<title>Node10&#45;&gt;Node11</title>
<path fill="none" stroke="midnightblue" d="M165.73,-10C154.21,-10 142.44,-10 131.21,-10"/>
<polygon fill="midnightblue" stroke="midnightblue" points="165.77,-13.5 175.77,-10 165.77,-6.5 165.77,-13.5"/>
</g>
</g>
</svg>
