<?xml version="1.0" encoding="UTF-8" standalone="no"?>
<!DOCTYPE svg PUBLIC "-//W3C//DTD SVG 1.1//EN"
 "http://www.w3.org/Graphics/SVG/1.1/DTD/svg11.dtd">
<!-- Generated by graphviz version 2.43.0 (0)
 -->
<!-- Title: JSONContainer::setViews Pages: 1 -->
<svg width="308pt" height="66pt"
 viewBox="0.00 0.00 308.00 66.00" xmlns="http://www.w3.org/2000/svg" xmlns:xlink="http://www.w3.org/1999/xlink">
<g id="graph0" class="graph" transform="scale(1 1) rotate(0) translate(4 62)">
<title>JSONContainer::setViews</title>
<polygon fill="white" stroke="transparent" points="-4,4 -4,-62 304,-62 304,4 -4,4"/>
<!-- Node1 -->
<g id="node1" class="node">
<title>Node1</title>
<g id="a_node1"><a xlink:title=" ">
<polygon fill="#bfbfbf" stroke="black" points="0,-19.5 0,-38.5 138,-38.5 138,-19.5 0,-19.5"/>
<text text-anchor="middle" x="69" y="-26.5" font-family="Helvetica,sans-Serif" font-size="10.00">JSONContainer::setViews</text>
</a>
</g>
</g>
<!-- Node1&#45;&gt;Node1 -->
<g id="edge2" class="edge">
<title>Node1&#45;&gt;Node1</title>
<path fill="none" stroke="midnightblue" d="M43.11,-38.76C30.51,-47.57 39.14,-57 69,-57 89.06,-57 99.54,-52.74 100.44,-47.27"/>
<polygon fill="midnightblue" stroke="midnightblue" points="103.28,-45.23 94.89,-38.76 97.42,-49.05 103.28,-45.23"/>
</g>
<!-- Node2 -->
<g id="node2" class="node">
<title>Node2</title>
<g id="a_node2"><a xlink:href="../../d6/de9/classJSONContainer.html#ab804dc033e52dec30eaf7bc50cc21b57" target="_top" xlink:title=" ">
<polygon fill="white" stroke="black" points="174,-38.5 174,-57.5 300,-57.5 300,-38.5 174,-38.5"/>
<text text-anchor="middle" x="237" y="-45.5" font-family="Helvetica,sans-Serif" font-size="10.00">JSONContainer::isView</text>
</a>
</g>
</g>
<!-- Node1&#45;&gt;Node2 -->
<g id="edge1" class="edge">
<title>Node1&#45;&gt;Node2</title>
<path fill="none" stroke="midnightblue" d="M138.48,-36.84C146.79,-37.79 155.31,-38.76 163.68,-39.72"/>
<polygon fill="midnightblue" stroke="midnightblue" points="163.47,-43.22 173.8,-40.88 164.26,-36.27 163.47,-43.22"/>
</g>
<!-- Node3 -->
<g id="node3" class="node">
<title>Node3</title>
<g id="a_node3"><a xlink:href="../../d6/de9/classJSONContainer.html#aff361f24e550af9c8898fdb6b7d893e6" target="_top" xlink:title=" ">
<polygon fill="white" stroke="black" points="180.5,-0.5 180.5,-19.5 293.5,-19.5 293.5,-0.5 180.5,-0.5"/>
<text text-anchor="middle" x="237" y="-7.5" font-family="Helvetica,sans-Serif" font-size="10.00">JSONContainer::size</text>
</a>
</g>
</g>
<!-- Node1&#45;&gt;Node3 -->
<g id="edge3" class="edge">
<title>Node1&#45;&gt;Node3</title>
<path fill="none" stroke="midnightblue" d="M138.48,-21.16C148.93,-19.97 159.69,-18.73 170.09,-17.54"/>
<polygon fill="midnightblue" stroke="midnightblue" points="170.79,-20.99 180.33,-16.37 169.99,-14.03 170.79,-20.99"/>
</g>
</g>
</svg>
