<?xml version="1.0" encoding="UTF-8" standalone="no"?>
<!DOCTYPE svg PUBLIC "-//W3C//DTD SVG 1.1//EN"
 "http://www.w3.org/Graphics/SVG/1.1/DTD/svg11.dtd">
<!-- Generated by graphviz version 2.43.0 (0)
 -->
<!-- Title: JSONContainer::stringify Pages: 1 -->
<svg width="701pt" height="124pt"
 viewBox="0.00 0.00 701.00 123.65" xmlns="http://www.w3.org/2000/svg" xmlns:xlink="http://www.w3.org/1999/xlink">
<g id="graph0" class="graph" transform="scale(1 1) rotate(0) translate(4 119.65)">
<title>JSONContainer::stringify</title>
<polygon fill="white" stroke="transparent" points="-4,4 -4,-119.65 697,-119.65 697,4 -4,4"/>
<!-- Node1 -->
<g id="node1" class="node">
<title>Node1</title>
<g id="a_node1"><a xlink:title=" ">
<polygon fill="#bfbfbf" stroke="black" points="0,-94.5 0,-113.5 134,-113.5 134,-94.5 0,-94.5"/>
<text text-anchor="middle" x="67" y="-101.5" font-family="Helvetica,sans-Serif" font-size="10.00">JSONContainer::stringify</text>
</a>
</g>
</g>
<!-- Node2 -->
<g id="node2" class="node">
<title>Node2</title>
<g id="a_node2"><a xlink:href="../../d6/de9/classJSONContainer.html#ab804dc033e52dec30eaf7bc50cc21b57" target="_top" xlink:title=" ">
<polygon fill="white" stroke="black" points="567,-94.5 567,-113.5 693,-113.5 693,-94.5 567,-94.5"/>
<text text-anchor="middle" x="630" y="-101.5" font-family="Helvetica,sans-Serif" font-size="10.00">JSONContainer::isView</text>
</a>
</g>
</g>
<!-- Node1&#45;&gt;Node2 -->
<g id="edge1" class="edge">
<title>Node1&#45;&gt;Node2</title>
<path fill="none" stroke="midnightblue" d="M134.06,-110.68C146.01,-111.65 158.37,-112.49 170,-113 306.67,-119.02 466.4,-112.92 556.84,-108.25"/>
<polygon fill="midnightblue" stroke="midnightblue" points="557.18,-111.74 566.98,-107.72 556.81,-104.75 557.18,-111.74"/>
</g>
<!-- Node3 -->
<g id="node3" class="node">
<title>Node3</title>
<g id="a_node3"><a xlink:href="../../d6/de9/classJSONContainer.html#a9170b6ae6e7dbcf2cb9a6121a1430057" target="_top" xlink:title=" ">
<polygon fill="white" stroke="black" points="170,-66.5 170,-85.5 334,-85.5 334,-66.5 170,-66.5"/>
<text text-anchor="middle" x="252" y="-73.5" font-family="Helvetica,sans-Serif" font-size="10.00">JSONContainer::reparseSubset</text>
</a>
</g>
</g>
<!-- Node1&#45;&gt;Node3 -->
<g id="edge2" class="edge">
<title>Node1&#45;&gt;Node3</title>
<path fill="none" stroke="midnightblue" d="M130.21,-94.48C145.68,-92.11 162.4,-89.56 178.32,-87.12"/>
<polygon fill="midnightblue" stroke="midnightblue" points="179.29,-90.51 188.65,-85.54 178.24,-83.59 179.29,-90.51"/>
</g>
<!-- Node3&#45;&gt;Node2 -->
<g id="edge3" class="edge">
<title>Node3&#45;&gt;Node2</title>
<path fill="none" stroke="midnightblue" d="M334.19,-82.28C346.2,-83.2 358.42,-84.13 370,-85 433.12,-89.74 504.9,-95 556.86,-98.78"/>
<polygon fill="midnightblue" stroke="midnightblue" points="556.75,-102.28 566.98,-99.51 557.26,-95.3 556.75,-102.28"/>
</g>
<!-- Node3&#45;&gt;Node3 -->
<g id="edge5" class="edge">
<title>Node3&#45;&gt;Node3</title>
<path fill="none" stroke="midnightblue" d="M223.64,-85.76C209.84,-94.57 219.3,-104 252,-104 274.48,-104 285.98,-99.54 286.48,-93.89"/>
<polygon fill="midnightblue" stroke="midnightblue" points="289.17,-91.64 280.36,-85.76 283.58,-95.85 289.17,-91.64"/>
</g>
<!-- Node4 -->
<g id="node4" class="node">
<title>Node4</title>
<g id="a_node4"><a xlink:href="../../d6/de9/classJSONContainer.html#a924f326dbf66da05173e2a23bbbc528e" target="_top" xlink:title=" ">
<polygon fill="white" stroke="black" points="370,-56.5 370,-75.5 531,-75.5 531,-56.5 370,-56.5"/>
<text text-anchor="middle" x="450.5" y="-63.5" font-family="Helvetica,sans-Serif" font-size="10.00">JSONContainer::removeViews</text>
</a>
</g>
</g>
<!-- Node3&#45;&gt;Node4 -->
<g id="edge4" class="edge">
<title>Node3&#45;&gt;Node4</title>
<path fill="none" stroke="midnightblue" d="M334.06,-71.87C342.57,-71.44 351.26,-71 359.86,-70.56"/>
<polygon fill="midnightblue" stroke="midnightblue" points="360.09,-74.05 369.89,-70.05 359.73,-67.06 360.09,-74.05"/>
</g>
<!-- Node5 -->
<g id="node5" class="node">
<title>Node5</title>
<g id="a_node5"><a xlink:href="../../d6/de9/classJSONContainer.html#ab79fb2d42e903a2693e018f9caf26849" target="_top" xlink:title=" ">
<polygon fill="white" stroke="black" points="381.5,-0.5 381.5,-19.5 519.5,-19.5 519.5,-0.5 381.5,-0.5"/>
<text text-anchor="middle" x="450.5" y="-7.5" font-family="Helvetica,sans-Serif" font-size="10.00">JSONContainer::setViews</text>
</a>
</g>
</g>
<!-- Node3&#45;&gt;Node5 -->
<g id="edge6" class="edge">
<title>Node3&#45;&gt;Node5</title>
<path fill="none" stroke="midnightblue" d="M281.57,-66.4C315.87,-54.88 373.5,-35.53 411.52,-22.76"/>
<polygon fill="midnightblue" stroke="midnightblue" points="412.85,-26 421.21,-19.5 410.62,-19.37 412.85,-26"/>
</g>
<!-- Node5&#45;&gt;Node2 -->
<g id="edge7" class="edge">
<title>Node5&#45;&gt;Node2</title>
<path fill="none" stroke="midnightblue" d="M473.35,-19.52C489.47,-26.7 511.84,-36.99 531,-47 556.76,-60.45 585.39,-77.34 605.03,-89.23"/>
<polygon fill="midnightblue" stroke="midnightblue" points="603.27,-92.26 613.63,-94.47 606.91,-86.28 603.27,-92.26"/>
</g>
<!-- Node5&#45;&gt;Node5 -->
<g id="edge8" class="edge">
<title>Node5&#45;&gt;Node5</title>
<path fill="none" stroke="midnightblue" d="M423.07,-19.76C409.72,-28.57 418.86,-38 450.5,-38 472.25,-38 483.37,-33.54 483.86,-27.89"/>
<polygon fill="midnightblue" stroke="midnightblue" points="486.65,-25.78 477.93,-19.76 480.99,-29.9 486.65,-25.78"/>
</g>
<!-- Node6 -->
<g id="node6" class="node">
<title>Node6</title>
<g id="a_node6"><a xlink:href="../../d6/de9/classJSONContainer.html#aff361f24e550af9c8898fdb6b7d893e6" target="_top" xlink:title=" ">
<polygon fill="white" stroke="black" points="573.5,-0.5 573.5,-19.5 686.5,-19.5 686.5,-0.5 573.5,-0.5"/>
<text text-anchor="middle" x="630" y="-7.5" font-family="Helvetica,sans-Serif" font-size="10.00">JSONContainer::size</text>
</a>
</g>
</g>
<!-- Node5&#45;&gt;Node6 -->
<g id="edge9" class="edge">
<title>Node5&#45;&gt;Node6</title>
<path fill="none" stroke="midnightblue" d="M519.62,-10C533.94,-10 549.01,-10 563.24,-10"/>
<polygon fill="midnightblue" stroke="midnightblue" points="563.43,-13.5 573.43,-10 563.43,-6.5 563.43,-13.5"/>
</g>
</g>
</svg>
