<?xml version="1.0" encoding="UTF-8" standalone="no"?>
<!DOCTYPE svg PUBLIC "-//W3C//DTD SVG 1.1//EN"
 "http://www.w3.org/Graphics/SVG/1.1/DTD/svg11.dtd">
<!-- Generated by graphviz version 2.43.0 (0)
 -->
<!-- Title: JSONContainer::forAll Pages: 1 -->
<svg width="687pt" height="102pt"
 viewBox="0.00 0.00 687.00 102.00" xmlns="http://www.w3.org/2000/svg" xmlns:xlink="http://www.w3.org/1999/xlink">
<g id="graph0" class="graph" transform="scale(1 1) rotate(0) translate(4 98)">
<title>JSONContainer::forAll</title>
<polygon fill="white" stroke="transparent" points="-4,4 -4,-98 683,-98 683,4 -4,4"/>
<!-- Node1 -->
<g id="node1" class="node">
<title>Node1</title>
<g id="a_node1"><a xlink:title=" ">
<polygon fill="#bfbfbf" stroke="black" points="0,-56.5 0,-75.5 120,-75.5 120,-56.5 0,-56.5"/>
<text text-anchor="middle" x="60" y="-63.5" font-family="Helvetica,sans-Serif" font-size="10.00">JSONContainer::forAll</text>
</a>
</g>
</g>
<!-- Node2 -->
<g id="node2" class="node">
<title>Node2</title>
<g id="a_node2"><a xlink:href="../../d6/de9/classJSONContainer.html#a9170b6ae6e7dbcf2cb9a6121a1430057" target="_top" xlink:title=" ">
<polygon fill="white" stroke="black" points="156,-56.5 156,-75.5 320,-75.5 320,-56.5 156,-56.5"/>
<text text-anchor="middle" x="238" y="-63.5" font-family="Helvetica,sans-Serif" font-size="10.00">JSONContainer::reparseSubset</text>
</a>
</g>
</g>
<!-- Node1&#45;&gt;Node2 -->
<g id="edge1" class="edge">
<title>Node1&#45;&gt;Node2</title>
<path fill="none" stroke="midnightblue" d="M120.1,-66C128.35,-66 136.99,-66 145.66,-66"/>
<polygon fill="midnightblue" stroke="midnightblue" points="145.85,-69.5 155.85,-66 145.85,-62.5 145.85,-69.5"/>
</g>
<!-- Node2&#45;&gt;Node2 -->
<g id="edge4" class="edge">
<title>Node2&#45;&gt;Node2</title>
<path fill="none" stroke="midnightblue" d="M210.57,-75.76C197.22,-84.57 206.36,-94 238,-94 259.75,-94 270.87,-89.54 271.36,-83.89"/>
<polygon fill="midnightblue" stroke="midnightblue" points="274.15,-81.78 265.43,-75.76 268.49,-85.9 274.15,-81.78"/>
</g>
<!-- Node3 -->
<g id="node3" class="node">
<title>Node3</title>
<g id="a_node3"><a xlink:href="../../d6/de9/classJSONContainer.html#ab804dc033e52dec30eaf7bc50cc21b57" target="_top" xlink:title=" ">
<polygon fill="white" stroke="black" points="553,-66.5 553,-85.5 679,-85.5 679,-66.5 553,-66.5"/>
<text text-anchor="middle" x="616" y="-73.5" font-family="Helvetica,sans-Serif" font-size="10.00">JSONContainer::isView</text>
</a>
</g>
</g>
<!-- Node2&#45;&gt;Node3 -->
<g id="edge2" class="edge">
<title>Node2&#45;&gt;Node3</title>
<path fill="none" stroke="midnightblue" d="M286.6,-75.51C307.76,-79.28 333.03,-83.15 356,-85 427.32,-90.75 445.52,-88.28 517,-85 525.34,-84.62 534.07,-84.05 542.73,-83.39"/>
<polygon fill="midnightblue" stroke="midnightblue" points="543.16,-86.87 552.85,-82.57 542.6,-79.89 543.16,-86.87"/>
</g>
<!-- Node4 -->
<g id="node4" class="node">
<title>Node4</title>
<g id="a_node4"><a xlink:href="../../d6/de9/classJSONContainer.html#a924f326dbf66da05173e2a23bbbc528e" target="_top" xlink:title=" ">
<polygon fill="white" stroke="black" points="356,-56.5 356,-75.5 517,-75.5 517,-56.5 356,-56.5"/>
<text text-anchor="middle" x="436.5" y="-63.5" font-family="Helvetica,sans-Serif" font-size="10.00">JSONContainer::removeViews</text>
</a>
</g>
</g>
<!-- Node2&#45;&gt;Node4 -->
<g id="edge3" class="edge">
<title>Node2&#45;&gt;Node4</title>
<path fill="none" stroke="midnightblue" d="M320.06,-66C328.57,-66 337.26,-66 345.86,-66"/>
<polygon fill="midnightblue" stroke="midnightblue" points="345.89,-69.5 355.89,-66 345.89,-62.5 345.89,-69.5"/>
</g>
<!-- Node5 -->
<g id="node5" class="node">
<title>Node5</title>
<g id="a_node5"><a xlink:href="../../d6/de9/classJSONContainer.html#ab79fb2d42e903a2693e018f9caf26849" target="_top" xlink:title=" ">
<polygon fill="white" stroke="black" points="367.5,-0.5 367.5,-19.5 505.5,-19.5 505.5,-0.5 367.5,-0.5"/>
<text text-anchor="middle" x="436.5" y="-7.5" font-family="Helvetica,sans-Serif" font-size="10.00">JSONContainer::setViews</text>
</a>
</g>
</g>
<!-- Node2&#45;&gt;Node5 -->
<g id="edge5" class="edge">
<title>Node2&#45;&gt;Node5</title>
<path fill="none" stroke="midnightblue" d="M272.78,-56.37C305.88,-46.94 356.46,-32.53 392.43,-22.27"/>
<polygon fill="midnightblue" stroke="midnightblue" points="393.5,-25.61 402.16,-19.5 391.58,-18.88 393.5,-25.61"/>
</g>
<!-- Node5&#45;&gt;Node3 -->
<g id="edge6" class="edge">
<title>Node5&#45;&gt;Node3</title>
<path fill="none" stroke="midnightblue" d="M463.31,-19.6C494.03,-31.02 545.47,-50.15 579.81,-62.92"/>
<polygon fill="midnightblue" stroke="midnightblue" points="578.85,-66.29 589.45,-66.5 581.29,-59.73 578.85,-66.29"/>
</g>
<!-- Node5&#45;&gt;Node5 -->
<g id="edge7" class="edge">
<title>Node5&#45;&gt;Node5</title>
<path fill="none" stroke="midnightblue" d="M409.07,-19.76C395.72,-28.57 404.86,-38 436.5,-38 458.25,-38 469.37,-33.54 469.86,-27.89"/>
<polygon fill="midnightblue" stroke="midnightblue" points="472.65,-25.78 463.93,-19.76 466.99,-29.9 472.65,-25.78"/>
</g>
<!-- Node6 -->
<g id="node6" class="node">
<title>Node6</title>
<g id="a_node6"><a xlink:href="../../d6/de9/classJSONContainer.html#aff361f24e550af9c8898fdb6b7d893e6" target="_top" xlink:title=" ">
<polygon fill="white" stroke="black" points="559.5,-0.5 559.5,-19.5 672.5,-19.5 672.5,-0.5 559.5,-0.5"/>
<text text-anchor="middle" x="616" y="-7.5" font-family="Helvetica,sans-Serif" font-size="10.00">JSONContainer::size</text>
</a>
</g>
</g>
<!-- Node5&#45;&gt;Node6 -->
<g id="edge8" class="edge">
<title>Node5&#45;&gt;Node6</title>
<path fill="none" stroke="midnightblue" d="M505.62,-10C519.94,-10 535.01,-10 549.24,-10"/>
<polygon fill="midnightblue" stroke="midnightblue" points="549.43,-13.5 559.43,-10 549.43,-6.5 549.43,-13.5"/>
</g>
</g>
</svg>
