<?xml version="1.0" encoding="UTF-8" standalone="no"?>
<!DOCTYPE svg PUBLIC "-//W3C//DTD SVG 1.1//EN"
 "http://www.w3.org/Graphics/SVG/1.1/DTD/svg11.dtd">
<!-- Generated by graphviz version 2.43.0 (0)
 -->
<!-- Title: JSONContainer::reparse Pages: 1 -->
<svg width="498pt" height="141pt"
 viewBox="0.00 0.00 498.00 141.00" xmlns="http://www.w3.org/2000/svg" xmlns:xlink="http://www.w3.org/1999/xlink">
<g id="graph0" class="graph" transform="scale(1 1) rotate(0) translate(4 137)">
<title>JSONContainer::reparse</title>
<polygon fill="white" stroke="transparent" points="-4,4 -4,-137 494,-137 494,4 -4,4"/>
<!-- Node1 -->
<g id="node1" class="node">
<title>Node1</title>
<g id="a_node1"><a xlink:title=" ">
<polygon fill="#bfbfbf" stroke="black" points="0,-75.5 0,-94.5 131,-94.5 131,-75.5 0,-75.5"/>
<text text-anchor="middle" x="65.5" y="-82.5" font-family="Helvetica,sans-Serif" font-size="10.00">JSONContainer::reparse</text>
</a>
</g>
</g>
<!-- Node2 -->
<g id="node2" class="node">
<title>Node2</title>
<g id="a_node2"><a xlink:href="../../d6/de9/classJSONContainer.html#ae819ca7f29de318920ac24b7e62109df" target="_top" xlink:title=" ">
<polygon fill="white" stroke="black" points="169,-113.5 169,-132.5 326,-132.5 326,-113.5 169,-113.5"/>
<text text-anchor="middle" x="247.5" y="-120.5" font-family="Helvetica,sans-Serif" font-size="10.00">JSONContainer::isReparsable</text>
</a>
</g>
</g>
<!-- Node1&#45;&gt;Node2 -->
<g id="edge1" class="edge">
<title>Node1&#45;&gt;Node2</title>
<path fill="none" stroke="midnightblue" d="M111.92,-94.59C136.1,-99.69 166.03,-106.01 191.51,-111.39"/>
<polygon fill="midnightblue" stroke="midnightblue" points="190.9,-114.84 201.41,-113.48 192.34,-107.99 190.9,-114.84"/>
</g>
<!-- Node3 -->
<g id="node3" class="node">
<title>Node3</title>
<g id="a_node3"><a xlink:href="../../d6/de9/classJSONContainer.html#a924f326dbf66da05173e2a23bbbc528e" target="_top" xlink:title=" ">
<polygon fill="white" stroke="black" points="167,-75.5 167,-94.5 328,-94.5 328,-75.5 167,-75.5"/>
<text text-anchor="middle" x="247.5" y="-82.5" font-family="Helvetica,sans-Serif" font-size="10.00">JSONContainer::removeViews</text>
</a>
</g>
</g>
<!-- Node1&#45;&gt;Node3 -->
<g id="edge2" class="edge">
<title>Node1&#45;&gt;Node3</title>
<path fill="none" stroke="midnightblue" d="M131.23,-85C139.56,-85 148.21,-85 156.85,-85"/>
<polygon fill="midnightblue" stroke="midnightblue" points="156.97,-88.5 166.97,-85 156.97,-81.5 156.97,-88.5"/>
</g>
<!-- Node4 -->
<g id="node4" class="node">
<title>Node4</title>
<g id="a_node4"><a xlink:href="../../d6/de9/classJSONContainer.html#ab79fb2d42e903a2693e018f9caf26849" target="_top" xlink:title=" ">
<polygon fill="white" stroke="black" points="178.5,-19.5 178.5,-38.5 316.5,-38.5 316.5,-19.5 178.5,-19.5"/>
<text text-anchor="middle" x="247.5" y="-26.5" font-family="Helvetica,sans-Serif" font-size="10.00">JSONContainer::setViews</text>
</a>
</g>
</g>
<!-- Node1&#45;&gt;Node4 -->
<g id="edge3" class="edge">
<title>Node1&#45;&gt;Node4</title>
<path fill="none" stroke="midnightblue" d="M97.44,-75.37C127.5,-66.02 173.3,-51.77 206.2,-41.54"/>
<polygon fill="midnightblue" stroke="midnightblue" points="207.45,-44.81 215.96,-38.5 205.37,-38.13 207.45,-44.81"/>
</g>
<!-- Node4&#45;&gt;Node4 -->
<g id="edge5" class="edge">
<title>Node4&#45;&gt;Node4</title>
<path fill="none" stroke="midnightblue" d="M220.07,-38.76C206.72,-47.57 215.86,-57 247.5,-57 269.25,-57 280.37,-52.54 280.86,-46.89"/>
<polygon fill="midnightblue" stroke="midnightblue" points="283.65,-44.78 274.93,-38.76 277.99,-48.9 283.65,-44.78"/>
</g>
<!-- Node5 -->
<g id="node5" class="node">
<title>Node5</title>
<g id="a_node5"><a xlink:href="../../d6/de9/classJSONContainer.html#ab804dc033e52dec30eaf7bc50cc21b57" target="_top" xlink:title=" ">
<polygon fill="white" stroke="black" points="364,-38.5 364,-57.5 490,-57.5 490,-38.5 364,-38.5"/>
<text text-anchor="middle" x="427" y="-45.5" font-family="Helvetica,sans-Serif" font-size="10.00">JSONContainer::isView</text>
</a>
</g>
</g>
<!-- Node4&#45;&gt;Node5 -->
<g id="edge4" class="edge">
<title>Node4&#45;&gt;Node5</title>
<path fill="none" stroke="midnightblue" d="M316.62,-36.29C328.76,-37.59 341.45,-38.95 353.71,-40.26"/>
<polygon fill="midnightblue" stroke="midnightblue" points="353.56,-43.77 363.88,-41.35 354.31,-36.81 353.56,-43.77"/>
</g>
<!-- Node6 -->
<g id="node6" class="node">
<title>Node6</title>
<g id="a_node6"><a xlink:href="../../d6/de9/classJSONContainer.html#aff361f24e550af9c8898fdb6b7d893e6" target="_top" xlink:title=" ">
<polygon fill="white" stroke="black" points="370.5,-0.5 370.5,-19.5 483.5,-19.5 483.5,-0.5 370.5,-0.5"/>
<text text-anchor="middle" x="427" y="-7.5" font-family="Helvetica,sans-Serif" font-size="10.00">JSONContainer::size</text>
</a>
</g>
</g>
<!-- Node4&#45;&gt;Node6 -->
<g id="edge6" class="edge">
<title>Node4&#45;&gt;Node6</title>
<path fill="none" stroke="midnightblue" d="M316.62,-21.71C330.94,-20.18 346.01,-18.56 360.24,-17.04"/>
<polygon fill="midnightblue" stroke="midnightblue" points="360.86,-20.49 370.43,-15.95 360.12,-13.53 360.86,-20.49"/>
</g>
</g>
</svg>
