<?xml version="1.0" encoding="UTF-8" standalone="no"?>
<!DOCTYPE svg PUBLIC "-//W3C//DTD SVG 1.1//EN"
 "http://www.w3.org/Graphics/SVG/1.1/DTD/svg11.dtd">
<!-- Generated by graphviz version 2.43.0 (0)
 -->
<!-- Title: JSONContainer::writeFile Pages: 1 -->
<svg width="876pt" height="236pt"
 viewBox="0.00 0.00 876.00 236.00" xmlns="http://www.w3.org/2000/svg" xmlns:xlink="http://www.w3.org/1999/xlink">
<g id="graph0" class="graph" transform="scale(1 1) rotate(0) translate(4 232)">
<title>JSONContainer::writeFile</title>
<polygon fill="white" stroke="transparent" points="-4,4 -4,-232 872,-232 872,4 -4,4"/>
<!-- Node1 -->
<g id="node1" class="node">
<title>Node1</title>
<g id="a_node1"><a xlink:title=" ">
<polygon fill="#bfbfbf" stroke="black" points="0,-161.5 0,-180.5 136,-180.5 136,-161.5 0,-161.5"/>
<text text-anchor="middle" x="68" y="-168.5" font-family="Helvetica,sans-Serif" font-size="10.00">JSONContainer::writeFile</text>
</a>
</g>
</g>
<!-- Node2 -->
<g id="node2" class="node">
<title>Node2</title>
<g id="a_node2"><a xlink:href="../../d6/de9/classJSONContainer.html#af35fd5784eba432de842771454f84722" target="_top" xlink:title=" ">
<polygon fill="white" stroke="black" points="173,-180.5 173,-199.5 307,-199.5 307,-180.5 173,-180.5"/>
<text text-anchor="middle" x="240" y="-187.5" font-family="Helvetica,sans-Serif" font-size="10.00">JSONContainer::stringify</text>
</a>
</g>
</g>
<!-- Node1&#45;&gt;Node2 -->
<g id="edge1" class="edge">
<title>Node1&#45;&gt;Node2</title>
<path fill="none" stroke="midnightblue" d="M136.19,-178.51C144.95,-179.49 153.99,-180.5 162.88,-181.49"/>
<polygon fill="midnightblue" stroke="midnightblue" points="162.53,-184.97 172.86,-182.61 163.31,-178.02 162.53,-184.97"/>
</g>
<!-- Node12 -->
<g id="node12" class="node">
<title>Node12</title>
<g id="a_node12"><a xlink:href="../../dd/d74/classJSONFileWriter.html#aa6f35c11d4fd61ea45b2adf9654768e5" target="_top" xlink:title=" ">
<polygon fill="white" stroke="black" points="172,-142.5 172,-161.5 308,-161.5 308,-142.5 172,-142.5"/>
<text text-anchor="middle" x="240" y="-149.5" font-family="Helvetica,sans-Serif" font-size="10.00">JSONFileWriter::writeFile</text>
</a>
</g>
</g>
<!-- Node1&#45;&gt;Node12 -->
<g id="edge16" class="edge">
<title>Node1&#45;&gt;Node12</title>
<path fill="none" stroke="midnightblue" d="M136.19,-163.49C144.59,-162.55 153.24,-161.58 161.78,-160.63"/>
<polygon fill="midnightblue" stroke="midnightblue" points="162.19,-164.11 171.74,-159.52 161.42,-157.15 162.19,-164.11"/>
</g>
<!-- Node3 -->
<g id="node3" class="node">
<title>Node3</title>
<g id="a_node3"><a xlink:href="../../d6/de9/classJSONContainer.html#ab804dc033e52dec30eaf7bc50cc21b57" target="_top" xlink:title=" ">
<polygon fill="white" stroke="black" points="741.5,-208.5 741.5,-227.5 867.5,-227.5 867.5,-208.5 741.5,-208.5"/>
<text text-anchor="middle" x="804.5" y="-215.5" font-family="Helvetica,sans-Serif" font-size="10.00">JSONContainer::isView</text>
</a>
</g>
</g>
<!-- Node2&#45;&gt;Node3 -->
<g id="edge2" class="edge">
<title>Node2&#45;&gt;Node3</title>
<path fill="none" stroke="midnightblue" d="M306.73,-199.52C367.98,-207.88 461.95,-219.41 544,-224 615.44,-228 633.48,-226.18 705,-224 713.43,-223.74 722.26,-223.36 731.03,-222.92"/>
<polygon fill="midnightblue" stroke="midnightblue" points="731.46,-226.4 741.26,-222.37 731.09,-219.41 731.46,-226.4"/>
</g>
<!-- Node4 -->
<g id="node4" class="node">
<title>Node4</title>
<g id="a_node4"><a xlink:href="../../d6/de9/classJSONContainer.html#a9170b6ae6e7dbcf2cb9a6121a1430057" target="_top" xlink:title=" ">
<polygon fill="white" stroke="black" points="344,-114.5 344,-133.5 508,-133.5 508,-114.5 344,-114.5"/>
<text text-anchor="middle" x="426" y="-121.5" font-family="Helvetica,sans-Serif" font-size="10.00">JSONContainer::reparseSubset</text>
</a>
</g>
</g>
<!-- Node2&#45;&gt;Node4 -->
<g id="edge3" class="edge">
<title>Node2&#45;&gt;Node4</title>
<path fill="none" stroke="midnightblue" d="M277.38,-180.44C287.37,-177.61 298.16,-174.36 308,-171 337.54,-160.91 370.48,-147.47 393.87,-137.55"/>
<polygon fill="midnightblue" stroke="midnightblue" points="395.44,-140.68 403.26,-133.54 392.69,-134.25 395.44,-140.68"/>
</g>
<!-- Node4&#45;&gt;Node3 -->
<g id="edge4" class="edge">
<title>Node4&#45;&gt;Node3</title>
<path fill="none" stroke="midnightblue" d="M437.96,-133.76C457.58,-150.58 500.74,-184.59 544,-199 604.9,-219.29 678.14,-222.91 731.26,-222.11"/>
<polygon fill="midnightblue" stroke="midnightblue" points="731.35,-225.61 741.27,-221.91 731.2,-218.61 731.35,-225.61"/>
</g>
<!-- Node4&#45;&gt;Node4 -->
<g id="edge11" class="edge">
<title>Node4&#45;&gt;Node4</title>
<path fill="none" stroke="midnightblue" d="M397.33,-133.76C383.39,-142.57 392.94,-152 426,-152 448.73,-152 460.35,-147.54 460.86,-141.89"/>
<polygon fill="midnightblue" stroke="midnightblue" points="463.51,-139.6 454.67,-133.76 457.94,-143.83 463.51,-139.6"/>
</g>
<!-- Node5 -->
<g id="node5" class="node">
<title>Node5</title>
<g id="a_node5"><a xlink:href="../../d1/d42/classFileOrigin.html#ac6b575f1ee18bc1cec0da7e31198e874" target="_top" xlink:title=" ">
<polygon fill="white" stroke="black" points="553,-114.5 553,-133.5 696,-133.5 696,-114.5 553,-114.5"/>
<text text-anchor="middle" x="624.5" y="-121.5" font-family="Helvetica,sans-Serif" font-size="10.00">FileOrigin::mergeIntervals</text>
</a>
</g>
</g>
<!-- Node4&#45;&gt;Node5 -->
<g id="edge5" class="edge">
<title>Node4&#45;&gt;Node5</title>
<path fill="none" stroke="midnightblue" d="M508.06,-124C519.59,-124 531.44,-124 542.96,-124"/>
<polygon fill="midnightblue" stroke="midnightblue" points="542.98,-127.5 552.98,-124 542.98,-120.5 542.98,-127.5"/>
</g>
<!-- Node6 -->
<g id="node6" class="node">
<title>Node6</title>
<g id="a_node6"><a xlink:href="../../d1/d42/classFileOrigin.html#a36cf3be8866ae066538faaca95c2b4aa" target="_top" xlink:title=" ">
<polygon fill="white" stroke="black" points="555,-76.5 555,-95.5 694,-95.5 694,-76.5 555,-76.5"/>
<text text-anchor="middle" x="624.5" y="-83.5" font-family="Helvetica,sans-Serif" font-size="10.00">FileOrigin::parseIntervals</text>
</a>
</g>
</g>
<!-- Node4&#45;&gt;Node6 -->
<g id="edge6" class="edge">
<title>Node4&#45;&gt;Node6</title>
<path fill="none" stroke="midnightblue" d="M476.33,-114.46C502.96,-109.31 536.03,-102.92 564.07,-97.49"/>
<polygon fill="midnightblue" stroke="midnightblue" points="564.99,-100.88 574.15,-95.54 563.67,-94.01 564.99,-100.88"/>
</g>
<!-- Node8 -->
<g id="node8" class="node">
<title>Node8</title>
<g id="a_node8"><a xlink:href="../../d6/de9/classJSONContainer.html#a924f326dbf66da05173e2a23bbbc528e" target="_top" xlink:title=" ">
<polygon fill="white" stroke="black" points="544,-0.5 544,-19.5 705,-19.5 705,-0.5 544,-0.5"/>
<text text-anchor="middle" x="624.5" y="-7.5" font-family="Helvetica,sans-Serif" font-size="10.00">JSONContainer::removeViews</text>
</a>
</g>
</g>
<!-- Node4&#45;&gt;Node8 -->
<g id="edge8" class="edge">
<title>Node4&#45;&gt;Node8</title>
<path fill="none" stroke="midnightblue" d="M435.97,-114.23C454.31,-94.88 498.24,-51.57 544,-29 548.85,-26.61 554.02,-24.5 559.31,-22.66"/>
<polygon fill="midnightblue" stroke="midnightblue" points="560.43,-25.98 568.9,-19.61 558.31,-19.3 560.43,-25.98"/>
</g>
<!-- Node9 -->
<g id="node9" class="node">
<title>Node9</title>
<g id="a_node9"><a xlink:href="../../d1/d42/classFileOrigin.html#a0016d990bf1fed498a85a28d1e4e7b32" target="_top" xlink:title=" ">
<polygon fill="white" stroke="black" points="571.5,-38.5 571.5,-57.5 677.5,-57.5 677.5,-38.5 571.5,-38.5"/>
<text text-anchor="middle" x="624.5" y="-45.5" font-family="Helvetica,sans-Serif" font-size="10.00">FileOrigin::reparse</text>
</a>
</g>
</g>
<!-- Node4&#45;&gt;Node9 -->
<g id="edge9" class="edge">
<title>Node4&#45;&gt;Node9</title>
<path fill="none" stroke="midnightblue" d="M443.55,-114.5C465.77,-102.07 506.78,-80.33 544,-67 551.06,-64.47 558.59,-62.18 566.1,-60.13"/>
<polygon fill="midnightblue" stroke="midnightblue" points="567.12,-63.48 575.92,-57.58 565.36,-56.7 567.12,-63.48"/>
</g>
<!-- Node10 -->
<g id="node10" class="node">
<title>Node10</title>
<g id="a_node10"><a xlink:href="../../d6/de9/classJSONContainer.html#ab79fb2d42e903a2693e018f9caf26849" target="_top" xlink:title=" ">
<polygon fill="white" stroke="black" points="555.5,-152.5 555.5,-171.5 693.5,-171.5 693.5,-152.5 555.5,-152.5"/>
<text text-anchor="middle" x="624.5" y="-159.5" font-family="Helvetica,sans-Serif" font-size="10.00">JSONContainer::setViews</text>
</a>
</g>
</g>
<!-- Node4&#45;&gt;Node10 -->
<g id="edge12" class="edge">
<title>Node4&#45;&gt;Node10</title>
<path fill="none" stroke="midnightblue" d="M476.33,-133.54C502.96,-138.69 536.03,-145.08 564.07,-150.51"/>
<polygon fill="midnightblue" stroke="midnightblue" points="563.67,-153.99 574.15,-152.46 564.99,-147.12 563.67,-153.99"/>
</g>
<!-- Node7 -->
<g id="node7" class="node">
<title>Node7</title>
<g id="a_node7"><a xlink:href="../../dc/d58/classFileNameRepo.html#a6322c6db3aefc093806936555509ab53" target="_top" xlink:title=" ">
<polygon fill="white" stroke="black" points="741,-57.5 741,-76.5 868,-76.5 868,-57.5 741,-57.5"/>
<text text-anchor="middle" x="804.5" y="-64.5" font-family="Helvetica,sans-Serif" font-size="10.00">FileNameRepo::getFile</text>
</a>
</g>
</g>
<!-- Node6&#45;&gt;Node7 -->
<g id="edge7" class="edge">
<title>Node6&#45;&gt;Node7</title>
<path fill="none" stroke="midnightblue" d="M694.06,-78.68C706.08,-77.4 718.61,-76.06 730.74,-74.77"/>
<polygon fill="midnightblue" stroke="midnightblue" points="731.23,-78.23 740.8,-73.69 730.49,-71.27 731.23,-78.23"/>
</g>
<!-- Node9&#45;&gt;Node7 -->
<g id="edge10" class="edge">
<title>Node9&#45;&gt;Node7</title>
<path fill="none" stroke="midnightblue" d="M677.94,-53.6C694.4,-55.35 712.88,-57.33 730.49,-59.21"/>
<polygon fill="midnightblue" stroke="midnightblue" points="730.43,-62.72 740.74,-60.3 731.17,-55.76 730.43,-62.72"/>
</g>
<!-- Node10&#45;&gt;Node3 -->
<g id="edge13" class="edge">
<title>Node10&#45;&gt;Node3</title>
<path fill="none" stroke="midnightblue" d="M656.1,-171.63C685.83,-180.98 731.12,-195.23 763.65,-205.46"/>
<polygon fill="midnightblue" stroke="midnightblue" points="762.71,-208.84 773.3,-208.5 764.81,-202.16 762.71,-208.84"/>
</g>
<!-- Node10&#45;&gt;Node10 -->
<g id="edge14" class="edge">
<title>Node10&#45;&gt;Node10</title>
<path fill="none" stroke="midnightblue" d="M596.76,-171.76C583.26,-180.57 592.51,-190 624.5,-190 646.49,-190 657.74,-185.54 658.23,-179.89"/>
<polygon fill="midnightblue" stroke="midnightblue" points="660.99,-177.73 652.24,-171.76 655.35,-181.88 660.99,-177.73"/>
</g>
<!-- Node11 -->
<g id="node11" class="node">
<title>Node11</title>
<g id="a_node11"><a xlink:href="../../d6/de9/classJSONContainer.html#aff361f24e550af9c8898fdb6b7d893e6" target="_top" xlink:title=" ">
<polygon fill="white" stroke="black" points="748,-152.5 748,-171.5 861,-171.5 861,-152.5 748,-152.5"/>
<text text-anchor="middle" x="804.5" y="-159.5" font-family="Helvetica,sans-Serif" font-size="10.00">JSONContainer::size</text>
</a>
</g>
</g>
<!-- Node10&#45;&gt;Node11 -->
<g id="edge15" class="edge">
<title>Node10&#45;&gt;Node11</title>
<path fill="none" stroke="midnightblue" d="M693.56,-162C708.01,-162 723.24,-162 737.61,-162"/>
<polygon fill="midnightblue" stroke="midnightblue" points="737.9,-165.5 747.9,-162 737.9,-158.5 737.9,-165.5"/>
</g>
</g>
</svg>
