<?xml version="1.0" encoding="UTF-8" standalone="no"?>
<!DOCTYPE svg PUBLIC "-//W3C//DTD SVG 1.1//EN"
 "http://www.w3.org/Graphics/SVG/1.1/DTD/svg11.dtd">
<!-- Generated by graphviz version 2.43.0 (0)
 -->
<!-- Title: /home/nico/joda_tmp/tmp&#45;joda&#45;dirs/JODA&#45;gh/libs/joda/core/modules/misc/include/joda/misc/Timer.h Pages: 1 -->
<svg width="179pt" height="117pt"
 viewBox="0.00 0.00 179.00 117.00" xmlns="http://www.w3.org/2000/svg" xmlns:xlink="http://www.w3.org/1999/xlink">
<g id="graph0" class="graph" transform="scale(1 1) rotate(0) translate(4 113)">
<title>/home/nico/joda_tmp/tmp&#45;joda&#45;dirs/JODA&#45;gh/libs/joda/core/modules/misc/include/joda/misc/Timer.h</title>
<polygon fill="white" stroke="transparent" points="-4,4 -4,-113 175,-113 175,4 -4,4"/>
<!-- Node1 -->
<g id="node1" class="node">
<title>Node1</title>
<g id="a_node1"><a xlink:title=" ">
<polygon fill="#bfbfbf" stroke="black" points="0,-56.5 0,-108.5 171,-108.5 171,-56.5 0,-56.5"/>
<text text-anchor="start" x="8" y="-96.5" font-family="Helvetica,sans-Serif" font-size="10.00">/home/nico/joda_tmp</text>
<text text-anchor="start" x="8" y="-85.5" font-family="Helvetica,sans-Serif" font-size="10.00">/tmp&#45;joda&#45;dirs/JODA</text>
<text text-anchor="start" x="8" y="-74.5" font-family="Helvetica,sans-Serif" font-size="10.00">&#45;gh/libs/joda/core/modules</text>
<text text-anchor="middle" x="85.5" y="-63.5" font-family="Helvetica,sans-Serif" font-size="10.00">/misc/include/joda/misc/Timer.h</text>
</a>
</g>
</g>
<!-- Node2 -->
<g id="node2" class="node">
<title>Node2</title>
<g id="a_node2"><a xlink:title=" ">
<polygon fill="white" stroke="#bfbfbf" points="28.5,-0.5 28.5,-19.5 78.5,-19.5 78.5,-0.5 28.5,-0.5"/>
<text text-anchor="middle" x="53.5" y="-7.5" font-family="Helvetica,sans-Serif" font-size="10.00">chrono</text>
</a>
</g>
</g>
<!-- Node1&#45;&gt;Node2 -->
<g id="edge1" class="edge">
<title>Node1&#45;&gt;Node2</title>
<path fill="none" stroke="midnightblue" d="M74.13,-56.45C69.99,-47.33 65.4,-37.22 61.6,-28.85"/>
<polygon fill="midnightblue" stroke="midnightblue" points="64.77,-27.35 57.45,-19.7 58.39,-30.25 64.77,-27.35"/>
</g>
<!-- Node3 -->
<g id="node3" class="node">
<title>Node3</title>
<g id="a_node3"><a xlink:title=" ">
<polygon fill="white" stroke="#bfbfbf" points="96.5,-0.5 96.5,-19.5 140.5,-19.5 140.5,-0.5 96.5,-0.5"/>
<text text-anchor="middle" x="118.5" y="-7.5" font-family="Helvetica,sans-Serif" font-size="10.00">string</text>
</a>
</g>
</g>
<!-- Node1&#45;&gt;Node3 -->
<g id="edge2" class="edge">
<title>Node1&#45;&gt;Node3</title>
<path fill="none" stroke="midnightblue" d="M97.23,-56.45C101.49,-47.33 106.23,-37.22 110.14,-28.85"/>
<polygon fill="midnightblue" stroke="midnightblue" points="113.36,-30.24 114.43,-19.7 107.02,-27.27 113.36,-30.24"/>
</g>
</g>
</svg>
