<?xml version="1.0" encoding="UTF-8" standalone="no"?>
<!DOCTYPE svg PUBLIC "-//W3C//DTD SVG 1.1//EN"
 "http://www.w3.org/Graphics/SVG/1.1/DTD/svg11.dtd">
<!-- Generated by graphviz version 2.43.0 (0)
 -->
<!-- Title: /home/nico/projects/JODA&#45;gh/libs/joda/core/modules/storage/document/include/joda/document/TemporaryOrigin.h Pages: 1 -->
<svg width="1422pt" height="161pt"
 viewBox="0.00 0.00 1421.50 161.00" xmlns="http://www.w3.org/2000/svg" xmlns:xlink="http://www.w3.org/1999/xlink">
<g id="graph0" class="graph" transform="scale(1 1) rotate(0) translate(4 157)">
<title>/home/nico/projects/JODA&#45;gh/libs/joda/core/modules/storage/document/include/joda/document/TemporaryOrigin.h</title>
<polygon fill="white" stroke="transparent" points="-4,4 -4,-157 1417.5,-157 1417.5,4 -4,4"/>
<!-- Node1 -->
<g id="node1" class="node">
<title>Node1</title>
<g id="a_node1"><a xlink:title=" ">
<polygon fill="#bfbfbf" stroke="black" points="656.5,-89.5 656.5,-152.5 841.5,-152.5 841.5,-89.5 656.5,-89.5"/>
<text text-anchor="start" x="664.5" y="-140.5" font-family="Helvetica,sans-Serif" font-size="10.00">/home/nico/projects</text>
<text text-anchor="start" x="664.5" y="-129.5" font-family="Helvetica,sans-Serif" font-size="10.00">/JODA&#45;gh/libs/joda/core</text>
<text text-anchor="start" x="664.5" y="-118.5" font-family="Helvetica,sans-Serif" font-size="10.00">/modules/storage/document</text>
<text text-anchor="start" x="664.5" y="-107.5" font-family="Helvetica,sans-Serif" font-size="10.00">/include/joda/document/Temporary</text>
<text text-anchor="middle" x="749" y="-96.5" font-family="Helvetica,sans-Serif" font-size="10.00">Origin.h</text>
</a>
</g>
</g>
<!-- Node2 -->
<g id="node2" class="node">
<title>Node2</title>
<g id="a_node2"><a xlink:href="../../d7/d2c/JoinParser_8cpp.html" target="_top" xlink:title=" ">
<polygon fill="white" stroke="black" points="0,-6 0,-47 170,-47 170,-6 0,-6"/>
<text text-anchor="start" x="8" y="-35" font-family="Helvetica,sans-Serif" font-size="10.00">/home/nico/projects</text>
<text text-anchor="start" x="8" y="-24" font-family="Helvetica,sans-Serif" font-size="10.00">/JODA&#45;gh/libs/joda/core</text>
<text text-anchor="middle" x="85" y="-13" font-family="Helvetica,sans-Serif" font-size="10.00">/modules/join/src/JoinParser.cpp</text>
</a>
</g>
</g>
<!-- Node1&#45;&gt;Node2 -->
<g id="edge1" class="edge">
<title>Node1&#45;&gt;Node2</title>
<path fill="none" stroke="midnightblue" d="M645.87,-112.49C531.15,-103.08 340.67,-84.25 179,-53 170.28,-51.32 161.19,-49.25 152.24,-47.03"/>
<polygon fill="midnightblue" stroke="midnightblue" points="645.79,-116 656.04,-113.32 646.36,-109.02 645.79,-116"/>
</g>
<!-- Node3 -->
<g id="node3" class="node">
<title>Node3</title>
<g id="a_node3"><a xlink:href="../../d6/d02/MemoryJoinManager_8cpp.html" target="_top" xlink:title=" ">
<polygon fill="white" stroke="black" points="188,-6 188,-47 412,-47 412,-6 188,-6"/>
<text text-anchor="start" x="196" y="-35" font-family="Helvetica,sans-Serif" font-size="10.00">/home/nico/projects</text>
<text text-anchor="start" x="196" y="-24" font-family="Helvetica,sans-Serif" font-size="10.00">/JODA&#45;gh/libs/joda/core</text>
<text text-anchor="middle" x="300" y="-13" font-family="Helvetica,sans-Serif" font-size="10.00">/modules/join/src/MemoryJoinManager.cpp</text>
</a>
</g>
</g>
<!-- Node1&#45;&gt;Node3 -->
<g id="edge2" class="edge">
<title>Node1&#45;&gt;Node3</title>
<path fill="none" stroke="midnightblue" d="M646.17,-99.17C581.51,-86.02 496.36,-68.64 421,-53 411.75,-51.08 402.11,-49.07 392.48,-47.05"/>
<polygon fill="midnightblue" stroke="midnightblue" points="645.87,-102.68 656.36,-101.24 647.26,-95.82 645.87,-102.68"/>
</g>
<!-- Node4 -->
<g id="node4" class="node">
<title>Node4</title>
<g id="a_node4"><a xlink:href="../../d5/d7c/AggregatorTest_8cpp.html" target="_top" xlink:title=" ">
<polygon fill="white" stroke="black" points="430.5,-0.5 430.5,-52.5 575.5,-52.5 575.5,-0.5 430.5,-0.5"/>
<text text-anchor="start" x="438.5" y="-40.5" font-family="Helvetica,sans-Serif" font-size="10.00">/home/nico/projects</text>
<text text-anchor="start" x="438.5" y="-29.5" font-family="Helvetica,sans-Serif" font-size="10.00">/JODA&#45;gh/libs/joda/core</text>
<text text-anchor="start" x="438.5" y="-18.5" font-family="Helvetica,sans-Serif" font-size="10.00">/modules/query/aggregate</text>
<text text-anchor="middle" x="503" y="-7.5" font-family="Helvetica,sans-Serif" font-size="10.00">/test/AggregatorTest.cpp</text>
</a>
</g>
</g>
<!-- Node1&#45;&gt;Node4 -->
<g id="edge3" class="edge">
<title>Node1&#45;&gt;Node4</title>
<path fill="none" stroke="midnightblue" d="M658.35,-85.91C629.03,-74.89 597.06,-62.87 569.79,-52.62"/>
<polygon fill="midnightblue" stroke="midnightblue" points="657.18,-89.21 667.77,-89.46 659.64,-82.66 657.18,-89.21"/>
</g>
<!-- Node5 -->
<g id="node5" class="node">
<title>Node5</title>
<g id="a_node5"><a xlink:href="../../d1/df7/ValueTest_8cpp.html" target="_top" xlink:title=" ">
<polygon fill="white" stroke="black" points="593.5,-0.5 593.5,-52.5 742.5,-52.5 742.5,-0.5 593.5,-0.5"/>
<text text-anchor="start" x="601.5" y="-40.5" font-family="Helvetica,sans-Serif" font-size="10.00">/home/nico/projects</text>
<text text-anchor="start" x="601.5" y="-29.5" font-family="Helvetica,sans-Serif" font-size="10.00">/JODA&#45;gh/libs/joda/core</text>
<text text-anchor="start" x="601.5" y="-18.5" font-family="Helvetica,sans-Serif" font-size="10.00">/modules/query/values/test</text>
<text text-anchor="middle" x="668" y="-7.5" font-family="Helvetica,sans-Serif" font-size="10.00">/ValueTest.cpp</text>
</a>
</g>
</g>
<!-- Node1&#45;&gt;Node5 -->
<g id="edge4" class="edge">
<title>Node1&#45;&gt;Node5</title>
<path fill="none" stroke="midnightblue" d="M715.51,-81.75C706.95,-71.98 697.95,-61.71 690.12,-52.77"/>
<polygon fill="midnightblue" stroke="midnightblue" points="713.03,-84.24 722.25,-89.46 718.3,-79.63 713.03,-84.24"/>
</g>
<!-- Node6 -->
<g id="node6" class="node">
<title>Node6</title>
<g id="a_node6"><a xlink:href="../../d2/d7a/QueryPlan_8cpp.html" target="_top" xlink:title=" ">
<polygon fill="white" stroke="black" points="761,-0.5 761,-52.5 901,-52.5 901,-0.5 761,-0.5"/>
<text text-anchor="start" x="769" y="-40.5" font-family="Helvetica,sans-Serif" font-size="10.00">/home/nico/projects</text>
<text text-anchor="start" x="769" y="-29.5" font-family="Helvetica,sans-Serif" font-size="10.00">/JODA&#45;gh/libs/joda/core</text>
<text text-anchor="start" x="769" y="-18.5" font-family="Helvetica,sans-Serif" font-size="10.00">/modules/queryexecution</text>
<text text-anchor="middle" x="831" y="-7.5" font-family="Helvetica,sans-Serif" font-size="10.00">/src/QueryPlan.cpp</text>
</a>
</g>
</g>
<!-- Node1&#45;&gt;Node6 -->
<g id="edge5" class="edge">
<title>Node1&#45;&gt;Node6</title>
<path fill="none" stroke="midnightblue" d="M782.9,-81.75C791.57,-71.98 800.68,-61.71 808.6,-52.77"/>
<polygon fill="midnightblue" stroke="midnightblue" points="780.09,-79.65 776.08,-89.46 785.33,-84.29 780.09,-79.65"/>
</g>
<!-- Node7 -->
<g id="node7" class="node">
<title>Node7</title>
<g id="a_node7"><a xlink:href="../../da/d11/QueryThread_8cpp.html" target="_top" xlink:title=" ">
<polygon fill="white" stroke="black" points="919,-0.5 919,-52.5 1059,-52.5 1059,-0.5 919,-0.5"/>
<text text-anchor="start" x="927" y="-40.5" font-family="Helvetica,sans-Serif" font-size="10.00">/home/nico/projects</text>
<text text-anchor="start" x="927" y="-29.5" font-family="Helvetica,sans-Serif" font-size="10.00">/JODA&#45;gh/libs/joda/core</text>
<text text-anchor="start" x="927" y="-18.5" font-family="Helvetica,sans-Serif" font-size="10.00">/modules/queryexecution</text>
<text text-anchor="middle" x="989" y="-7.5" font-family="Helvetica,sans-Serif" font-size="10.00">/src/QueryThread.cpp</text>
</a>
</g>
</g>
<!-- Node1&#45;&gt;Node7 -->
<g id="edge6" class="edge">
<title>Node1&#45;&gt;Node7</title>
<path fill="none" stroke="midnightblue" d="M837.81,-85.77C866.32,-74.78 897.35,-62.82 923.84,-52.62"/>
<polygon fill="midnightblue" stroke="midnightblue" points="836.32,-82.59 828.25,-89.46 838.84,-89.13 836.32,-82.59"/>
</g>
<!-- Node8 -->
<g id="node8" class="node">
<title>Node8</title>
<g id="a_node8"><a xlink:href="../../df/d5a/JSONContainer_8cpp.html" target="_top" xlink:title=" ">
<polygon fill="white" stroke="black" points="1077,-0.5 1077,-52.5 1227,-52.5 1227,-0.5 1077,-0.5"/>
<text text-anchor="start" x="1085" y="-40.5" font-family="Helvetica,sans-Serif" font-size="10.00">/home/nico/projects</text>
<text text-anchor="start" x="1085" y="-29.5" font-family="Helvetica,sans-Serif" font-size="10.00">/JODA&#45;gh/libs/joda/core</text>
<text text-anchor="start" x="1085" y="-18.5" font-family="Helvetica,sans-Serif" font-size="10.00">/modules/storage/container</text>
<text text-anchor="middle" x="1152" y="-7.5" font-family="Helvetica,sans-Serif" font-size="10.00">/src/JSONContainer.cpp</text>
</a>
</g>
</g>
<!-- Node1&#45;&gt;Node8 -->
<g id="edge7" class="edge">
<title>Node1&#45;&gt;Node8</title>
<path fill="none" stroke="midnightblue" d="M851.54,-100.84C914.35,-88.51 996.19,-71.4 1068,-53 1070.95,-52.24 1073.96,-51.45 1076.99,-50.63"/>
<polygon fill="midnightblue" stroke="midnightblue" points="850.77,-97.42 841.63,-102.78 852.11,-104.29 850.77,-97.42"/>
</g>
<!-- Node9 -->
<g id="node9" class="node">
<title>Node9</title>
<g id="a_node9"><a xlink:href="../../df/d76/TemporaryOrigin_8cpp.html" target="_top" xlink:title=" ">
<polygon fill="white" stroke="black" points="1244.5,-0.5 1244.5,-52.5 1413.5,-52.5 1413.5,-0.5 1244.5,-0.5"/>
<text text-anchor="start" x="1252.5" y="-40.5" font-family="Helvetica,sans-Serif" font-size="10.00">/home/nico/projects</text>
<text text-anchor="start" x="1252.5" y="-29.5" font-family="Helvetica,sans-Serif" font-size="10.00">/JODA&#45;gh/libs/joda/core</text>
<text text-anchor="start" x="1252.5" y="-18.5" font-family="Helvetica,sans-Serif" font-size="10.00">/modules/storage/document</text>
<text text-anchor="middle" x="1329" y="-7.5" font-family="Helvetica,sans-Serif" font-size="10.00">/src/origin/TemporaryOrigin.cpp</text>
</a>
</g>
</g>
<!-- Node1&#45;&gt;Node9 -->
<g id="edge8" class="edge">
<title>Node1&#45;&gt;Node9</title>
<path fill="none" stroke="midnightblue" d="M851.62,-109.83C950.63,-99.09 1104.45,-79.96 1236,-53 1238.79,-52.43 1241.62,-51.82 1244.47,-51.18"/>
<polygon fill="midnightblue" stroke="midnightblue" points="851.18,-106.36 841.61,-110.91 851.93,-113.32 851.18,-106.36"/>
</g>
</g>
</svg>
