<?xml version="1.0" encoding="UTF-8" standalone="no"?>
<!DOCTYPE svg PUBLIC "-//W3C//DTD SVG 1.1//EN"
 "http://www.w3.org/Graphics/SVG/1.1/DTD/svg11.dtd">
<!-- Generated by graphviz version 2.43.0 (0)
 -->
<!-- Title: joda::query::ConstantNumber&lt; Calc &gt; Pages: 1 -->
<svg width="697pt" height="328pt"
 viewBox="0.00 0.00 696.50 328.00" xmlns="http://www.w3.org/2000/svg" xmlns:xlink="http://www.w3.org/1999/xlink">
<g id="graph0" class="graph" transform="scale(1 1) rotate(0) translate(4 324)">
<title>joda::query::ConstantNumber&lt; Calc &gt;</title>
<polygon fill="white" stroke="transparent" points="-4,4 -4,-324 692.5,-324 692.5,4 -4,4"/>
<!-- Node1 -->
<g id="node1" class="node">
<title>Node1</title>
<g id="a_node1"><a xlink:title=" ">
<polygon fill="#bfbfbf" stroke="black" points="0,-0.5 0,-30.5 159,-30.5 159,-0.5 0,-0.5"/>
<text text-anchor="start" x="8" y="-18.5" font-family="Helvetica,sans-Serif" font-size="10.00">joda::query::ConstantNumber</text>
<text text-anchor="middle" x="79.5" y="-7.5" font-family="Helvetica,sans-Serif" font-size="10.00">&lt; Calc &gt;</text>
</a>
</g>
</g>
<!-- Node2 -->
<g id="node2" class="node">
<title>Node2</title>
<g id="a_node2"><a xlink:href="../../de/d68/classjoda_1_1query_1_1AtomProvider.html" target="_top" xlink:title=" ">
<polygon fill="white" stroke="black" points="8,-68.5 8,-98.5 151,-98.5 151,-68.5 8,-68.5"/>
<text text-anchor="start" x="16" y="-86.5" font-family="Helvetica,sans-Serif" font-size="10.00">joda::query::AtomProvider</text>
<text text-anchor="middle" x="79.5" y="-75.5" font-family="Helvetica,sans-Serif" font-size="10.00">&lt; Calc::AtomType &gt;</text>
</a>
</g>
</g>
<!-- Node2&#45;&gt;Node1 -->
<g id="edge1" class="edge">
<title>Node2&#45;&gt;Node1</title>
<path fill="none" stroke="midnightblue" d="M79.5,-58.03C79.5,-48.86 79.5,-38.74 79.5,-30.79"/>
<polygon fill="midnightblue" stroke="midnightblue" points="76,-58.18 79.5,-68.18 83,-58.18 76,-58.18"/>
</g>
<!-- Node3 -->
<g id="node3" class="node">
<title>Node3</title>
<g id="a_node3"><a xlink:href="../../d4/df5/classjoda_1_1query_1_1IValueProvider.html" target="_top" xlink:title=" ">
<polygon fill="white" stroke="black" points="116,-233.5 116,-252.5 263,-252.5 263,-233.5 116,-233.5"/>
<text text-anchor="middle" x="189.5" y="-240.5" font-family="Helvetica,sans-Serif" font-size="10.00">joda::query::IValueProvider</text>
</a>
</g>
</g>
<!-- Node3&#45;&gt;Node2 -->
<g id="edge2" class="edge">
<title>Node3&#45;&gt;Node2</title>
<path fill="none" stroke="midnightblue" d="M139.71,-230.46C111.49,-221.1 78.53,-204.74 61.5,-177 46.44,-152.46 60.59,-117.94 70.91,-98.76"/>
<polygon fill="midnightblue" stroke="midnightblue" points="138.87,-233.86 149.45,-233.49 140.94,-227.18 138.87,-233.86"/>
</g>
<!-- Node5 -->
<g id="node5" class="node">
<title>Node5</title>
<g id="a_node5"><a xlink:title=" ">
<polygon fill="white" stroke="#bfbfbf" points="337,-146.5 337,-176.5 474,-176.5 474,-146.5 337,-146.5"/>
<text text-anchor="start" x="345" y="-164.5" font-family="Helvetica,sans-Serif" font-size="10.00">std::unique_ptr&lt; joda</text>
<text text-anchor="middle" x="405.5" y="-153.5" font-family="Helvetica,sans-Serif" font-size="10.00">::query::IValueProvider &gt;</text>
</a>
</g>
</g>
<!-- Node3&#45;&gt;Node5 -->
<g id="edge5" class="edge">
<title>Node3&#45;&gt;Node5</title>
<path fill="none" stroke="#9a32cd" stroke-dasharray="5,2" d="M241.8,-230.84C257.45,-226.72 274.45,-221.44 289.5,-215 305.27,-208.25 307.13,-202.6 322.5,-195 336.23,-188.21 351.76,-181.81 365.63,-176.52"/>
<polygon fill="#9a32cd" stroke="#9a32cd" points="240.58,-227.54 231.74,-233.38 242.29,-234.32 240.58,-227.54"/>
<text text-anchor="middle" x="331" y="-202.5" font-family="Helvetica,sans-Serif" font-size="10.00"> ptr</text>
</g>
<!-- Node9 -->
<g id="node9" class="node">
<title>Node9</title>
<g id="a_node9"><a xlink:href="../../de/d68/classjoda_1_1query_1_1AtomProvider.html" target="_top" xlink:title=" ">
<polygon fill="white" stroke="black" points="70.5,-152 70.5,-171 242.5,-171 242.5,-152 70.5,-152"/>
<text text-anchor="middle" x="156.5" y="-159" font-family="Helvetica,sans-Serif" font-size="10.00">joda::query::AtomProvider&lt; T &gt;</text>
</a>
</g>
</g>
<!-- Node3&#45;&gt;Node9 -->
<g id="edge11" class="edge">
<title>Node3&#45;&gt;Node9</title>
<path fill="none" stroke="midnightblue" d="M181.98,-223.88C175.14,-207.4 165.33,-183.78 160.11,-171.19"/>
<polygon fill="midnightblue" stroke="midnightblue" points="178.9,-225.6 185.97,-233.49 185.37,-222.91 178.9,-225.6"/>
</g>
<!-- Node4 -->
<g id="node4" class="node">
<title>Node4</title>
<g id="a_node4"><a xlink:title=" ">
<polygon fill="white" stroke="#bfbfbf" points="305.5,-68.5 305.5,-98.5 505.5,-98.5 505.5,-68.5 305.5,-68.5"/>
<text text-anchor="start" x="313.5" y="-86.5" font-family="Helvetica,sans-Serif" font-size="10.00">std::vector&lt; std::unique</text>
<text text-anchor="middle" x="405.5" y="-75.5" font-family="Helvetica,sans-Serif" font-size="10.00">_ptr&lt; joda::query::IValueProvider &gt; &gt;</text>
</a>
</g>
</g>
<!-- Node4&#45;&gt;Node3 -->
<g id="edge3" class="edge">
<title>Node4&#45;&gt;Node3</title>
<path fill="none" stroke="#9a32cd" stroke-dasharray="5,2" d="M363.57,-102.93C340.48,-113.95 311.86,-129.08 288.5,-146 268.72,-160.33 217.6,-212.78 197.65,-233.5"/>
<polygon fill="#9a32cd" stroke="#9a32cd" points="365.2,-106.03 372.77,-98.62 362.23,-99.69 365.2,-106.03"/>
<text text-anchor="middle" x="308.5" y="-159" font-family="Helvetica,sans-Serif" font-size="10.00"> params</text>
</g>
<!-- Node5&#45;&gt;Node4 -->
<g id="edge4" class="edge">
<title>Node5&#45;&gt;Node4</title>
<path fill="none" stroke="#9a32cd" stroke-dasharray="5,2" d="M405.5,-136.09C405.5,-123.76 405.5,-109.22 405.5,-98.73"/>
<polygon fill="#9a32cd" stroke="#9a32cd" points="402,-136.2 405.5,-146.2 409,-136.21 402,-136.2"/>
<text text-anchor="middle" x="430" y="-120" font-family="Helvetica,sans-Serif" font-size="10.00"> elements</text>
</g>
<!-- Node6 -->
<g id="node6" class="node">
<title>Node6</title>
<g id="a_node6"><a xlink:title="STL class.">
<polygon fill="white" stroke="#bfbfbf" points="292.5,-233.5 292.5,-252.5 410.5,-252.5 410.5,-233.5 292.5,-233.5"/>
<text text-anchor="middle" x="351.5" y="-240.5" font-family="Helvetica,sans-Serif" font-size="10.00">std::unique_ptr&lt; T &gt;</text>
</a>
</g>
</g>
<!-- Node6&#45;&gt;Node5 -->
<g id="edge6" class="edge">
<title>Node6&#45;&gt;Node5</title>
<path fill="none" stroke="orange" stroke-dasharray="5,2" d="M345.72,-223.65C343.93,-214.48 343.54,-203.54 348.5,-195 352.96,-187.32 360,-181.3 367.62,-176.64"/>
<polygon fill="orange" stroke="orange" points="342.34,-224.56 348.23,-233.37 349.12,-222.81 342.34,-224.56"/>
<text text-anchor="middle" x="427" y="-202.5" font-family="Helvetica,sans-Serif" font-size="10.00"> &lt; joda::query::IValueProvider &gt;</text>
</g>
<!-- Node7 -->
<g id="node7" class="node">
<title>Node7</title>
<g id="a_node7"><a xlink:title=" ">
<polygon fill="white" stroke="#bfbfbf" points="337,-300.5 337,-319.5 366,-319.5 366,-300.5 337,-300.5"/>
<text text-anchor="middle" x="351.5" y="-307.5" font-family="Helvetica,sans-Serif" font-size="10.00">T</text>
</a>
</g>
</g>
<!-- Node7&#45;&gt;Node6 -->
<g id="edge7" class="edge">
<title>Node7&#45;&gt;Node6</title>
<path fill="none" stroke="#9a32cd" stroke-dasharray="5,2" d="M351.5,-290.04C351.5,-277.67 351.5,-262.12 351.5,-252.63"/>
<polygon fill="#9a32cd" stroke="#9a32cd" points="348,-290.23 351.5,-300.23 355,-290.23 348,-290.23"/>
<text text-anchor="middle" x="360" y="-274" font-family="Helvetica,sans-Serif" font-size="10.00"> ptr</text>
</g>
<!-- Node8 -->
<g id="node8" class="node">
<title>Node8</title>
<g id="a_node8"><a xlink:title="STL class.">
<polygon fill="white" stroke="#bfbfbf" points="514,-195.5 514,-214.5 611,-214.5 611,-195.5 514,-195.5"/>
<text text-anchor="middle" x="562.5" y="-202.5" font-family="Helvetica,sans-Serif" font-size="10.00">std::vector&lt; T &gt;</text>
</a>
</g>
</g>
<!-- Node7&#45;&gt;Node8 -->
<g id="edge9" class="edge">
<title>Node7&#45;&gt;Node8</title>
<path fill="none" stroke="#9a32cd" stroke-dasharray="5,2" d="M375.1,-297.48C417.85,-276.61 507.16,-233.01 544.98,-214.55"/>
<polygon fill="#9a32cd" stroke="#9a32cd" points="373.45,-294.39 366,-301.92 376.52,-300.68 373.45,-294.39"/>
<text text-anchor="middle" x="450" y="-274" font-family="Helvetica,sans-Serif" font-size="10.00"> elements</text>
</g>
<!-- Node7&#45;&gt;Node9 -->
<g id="edge12" class="edge">
<title>Node7&#45;&gt;Node9</title>
<path fill="none" stroke="#9a32cd" stroke-dasharray="5,2" d="M326.81,-307.59C267.09,-303.62 117.56,-290.1 87.5,-253 63.62,-223.52 114.37,-187.36 141.24,-171.11"/>
<polygon fill="#9a32cd" stroke="#9a32cd" points="326.66,-311.09 336.86,-308.23 327.1,-304.1 326.66,-311.09"/>
<text text-anchor="middle" x="97" y="-240.5" font-family="Helvetica,sans-Serif" font-size="10.00"> val</text>
</g>
<!-- Node8&#45;&gt;Node4 -->
<g id="edge8" class="edge">
<title>Node8&#45;&gt;Node4</title>
<path fill="none" stroke="orange" stroke-dasharray="5,2" d="M545.46,-188.41C525.36,-170.34 490.61,-140.09 458.5,-117 449.56,-110.57 439.33,-104.11 430.26,-98.66"/>
<polygon fill="orange" stroke="orange" points="543.37,-191.24 553.13,-195.35 548.07,-186.05 543.37,-191.24"/>
<text text-anchor="start" x="531.5" y="-164.5" font-family="Helvetica,sans-Serif" font-size="10.00"> &lt; std::unique_ptr&lt;</text>
<text text-anchor="middle" x="610" y="-153.5" font-family="Helvetica,sans-Serif" font-size="10.00"> joda::query::IValueProvider &gt; &gt;</text>
</g>
<!-- Node9&#45;&gt;Node2 -->
<g id="edge10" class="edge">
<title>Node9&#45;&gt;Node2</title>
<path fill="none" stroke="orange" stroke-dasharray="5,2" d="M140.31,-144.52C126.52,-130.91 106.9,-111.54 93.7,-98.52"/>
<polygon fill="orange" stroke="orange" points="138.09,-147.25 147.67,-151.78 143.01,-142.27 138.09,-147.25"/>
<text text-anchor="middle" x="174.5" y="-120" font-family="Helvetica,sans-Serif" font-size="10.00"> &lt; Calc::AtomType &gt;</text>
</g>
</g>
</svg>
