<?xml version="1.0" encoding="UTF-8" standalone="no"?>
<!DOCTYPE svg PUBLIC "-//W3C//DTD SVG 1.1//EN"
 "http://www.w3.org/Graphics/SVG/1.1/DTD/svg11.dtd">
<!-- Generated by graphviz version 2.43.0 (0)
 -->
<!-- Title: joda::queryparsing::grammar::loadGroupedCommand Pages: 1 -->
<svg width="399pt" height="83pt"
 viewBox="0.00 0.00 399.00 83.00" xmlns="http://www.w3.org/2000/svg" xmlns:xlink="http://www.w3.org/1999/xlink">
<g id="graph0" class="graph" transform="scale(1 1) rotate(0) translate(4 79)">
<title>joda::queryparsing::grammar::loadGroupedCommand</title>
<polygon fill="white" stroke="transparent" points="-4,4 -4,-79 395,-79 395,4 -4,4"/>
<!-- Node1 -->
<g id="node1" class="node">
<title>Node1</title>
<g id="a_node1"><a xlink:title=" ">
<polygon fill="#bfbfbf" stroke="black" points="205,-22.5 205,-52.5 391,-52.5 391,-22.5 205,-22.5"/>
<text text-anchor="start" x="213" y="-40.5" font-family="Helvetica,sans-Serif" font-size="10.00">joda::queryparsing</text>
<text text-anchor="middle" x="298" y="-29.5" font-family="Helvetica,sans-Serif" font-size="10.00">::grammar::loadGroupedCommand</text>
</a>
</g>
</g>
<!-- Node2 -->
<g id="node2" class="node">
<title>Node2</title>
<g id="a_node2"><a xlink:title=" ">
<polygon fill="white" stroke="#bfbfbf" points="0,-0.5 0,-74.5 169,-74.5 169,-0.5 0,-0.5"/>
<text text-anchor="start" x="8" y="-62.5" font-family="Helvetica,sans-Serif" font-size="10.00">tao::pegtl::seq&lt; tao</text>
<text text-anchor="start" x="8" y="-51.5" font-family="Helvetica,sans-Serif" font-size="10.00">::pegtl::pad&lt; fromGroupedKW,</text>
<text text-anchor="start" x="8" y="-40.5" font-family="Helvetica,sans-Serif" font-size="10.00"> tao::pegtl::space &gt;, tao</text>
<text text-anchor="start" x="8" y="-29.5" font-family="Helvetica,sans-Serif" font-size="10.00">::pegtl::pad&lt; tao::pegtl::</text>
<text text-anchor="start" x="8" y="-18.5" font-family="Helvetica,sans-Serif" font-size="10.00">must&lt; groupIdent &gt;, tao::pegtl</text>
<text text-anchor="middle" x="84.5" y="-7.5" font-family="Helvetica,sans-Serif" font-size="10.00">::space &gt; &gt;</text>
</a>
</g>
</g>
<!-- Node2&#45;&gt;Node1 -->
<g id="edge1" class="edge">
<title>Node2&#45;&gt;Node1</title>
<path fill="none" stroke="midnightblue" d="M179.1,-37.5C187.69,-37.5 196.38,-37.5 204.95,-37.5"/>
<polygon fill="midnightblue" stroke="midnightblue" points="179.09,-34 169.09,-37.5 179.09,-41 179.09,-34"/>
</g>
</g>
</svg>
