<?xml version="1.0" encoding="UTF-8" standalone="no"?>
<!DOCTYPE svg PUBLIC "-//W3C//DTD SVG 1.1//EN"
 "http://www.w3.org/Graphics/SVG/1.1/DTD/svg11.dtd">
<!-- Generated by graphviz version 2.43.0 (0)
 -->
<!-- Title: joda::queryparsing::grammar::loadState::putValProv Pages: 1 -->
<svg width="303pt" height="110pt"
 viewBox="0.00 0.00 303.00 110.00" xmlns="http://www.w3.org/2000/svg" xmlns:xlink="http://www.w3.org/1999/xlink">
<g id="graph0" class="graph" transform="scale(1 1) rotate(0) translate(4 106)">
<title>joda::queryparsing::grammar::loadState::putValProv</title>
<polygon fill="white" stroke="transparent" points="-4,4 -4,-106 299,-106 299,4 -4,4"/>
<!-- Node1 -->
<g id="node1" class="node">
<title>Node1</title>
<g id="a_node1"><a xlink:title=" ">
<polygon fill="#bfbfbf" stroke="black" points="175,-30.5 175,-71.5 295,-71.5 295,-30.5 175,-30.5"/>
<text text-anchor="start" x="183" y="-59.5" font-family="Helvetica,sans-Serif" font-size="10.00">joda::queryparsing</text>
<text text-anchor="start" x="183" y="-48.5" font-family="Helvetica,sans-Serif" font-size="10.00">::grammar::loadState</text>
<text text-anchor="middle" x="235" y="-37.5" font-family="Helvetica,sans-Serif" font-size="10.00">::putValProv</text>
</a>
</g>
</g>
<!-- Node2 -->
<g id="node2" class="node">
<title>Node2</title>
<g id="a_node2"><a xlink:href="../../df/db1/structjoda_1_1queryparsing_1_1grammar_1_1loadAction_3_01groupPointer_01_4.html#a76b354e0a350172be118e31fe5ab2e61" target="_top" xlink:title=" ">
<polygon fill="white" stroke="black" points="2.5,-60.5 2.5,-101.5 136.5,-101.5 136.5,-60.5 2.5,-60.5"/>
<text text-anchor="start" x="10.5" y="-89.5" font-family="Helvetica,sans-Serif" font-size="10.00">joda::queryparsing</text>
<text text-anchor="start" x="10.5" y="-78.5" font-family="Helvetica,sans-Serif" font-size="10.00">::grammar::loadAction</text>
<text text-anchor="middle" x="69.5" y="-67.5" font-family="Helvetica,sans-Serif" font-size="10.00">&lt; groupPointer &gt;::apply</text>
</a>
</g>
</g>
<!-- Node1&#45;&gt;Node2 -->
<g id="edge1" class="edge">
<title>Node1&#45;&gt;Node2</title>
<path fill="none" stroke="midnightblue" d="M164.92,-63.67C155.56,-65.39 145.96,-67.15 136.65,-68.86"/>
<polygon fill="midnightblue" stroke="midnightblue" points="165.77,-67.08 174.97,-61.83 164.51,-60.19 165.77,-67.08"/>
</g>
<!-- Node3 -->
<g id="node3" class="node">
<title>Node3</title>
<g id="a_node3"><a xlink:href="../../d0/db9/structjoda_1_1queryparsing_1_1grammar_1_1functionState.html#a029c7f3b2c755560ef8ee6cf185a1ccd" target="_top" xlink:title=" ">
<polygon fill="white" stroke="black" points="0,-0.5 0,-41.5 139,-41.5 139,-0.5 0,-0.5"/>
<text text-anchor="start" x="8" y="-29.5" font-family="Helvetica,sans-Serif" font-size="10.00">joda::queryparsing</text>
<text text-anchor="start" x="8" y="-18.5" font-family="Helvetica,sans-Serif" font-size="10.00">::grammar::functionState</text>
<text text-anchor="middle" x="69.5" y="-7.5" font-family="Helvetica,sans-Serif" font-size="10.00">::success</text>
</a>
</g>
</g>
<!-- Node1&#45;&gt;Node3 -->
<g id="edge2" class="edge">
<title>Node1&#45;&gt;Node3</title>
<path fill="none" stroke="midnightblue" d="M165.04,-38.35C156.48,-36.78 147.73,-35.17 139.17,-33.6"/>
<polygon fill="midnightblue" stroke="midnightblue" points="164.51,-41.81 174.97,-40.17 165.77,-34.92 164.51,-41.81"/>
</g>
</g>
</svg>
