<?xml version="1.0" encoding="UTF-8" standalone="no"?>
<!DOCTYPE svg PUBLIC "-//W3C//DTD SVG 1.1//EN"
 "http://www.w3.org/Graphics/SVG/1.1/DTD/svg11.dtd">
<!-- Generated by graphviz version 2.43.0 (0)
 -->
<!-- Title: joda::queryparsing::grammar::realFunc Pages: 1 -->
<svg width="316pt" height="105pt"
 viewBox="0.00 0.00 316.00 105.00" xmlns="http://www.w3.org/2000/svg" xmlns:xlink="http://www.w3.org/1999/xlink">
<g id="graph0" class="graph" transform="scale(1 1) rotate(0) translate(4 101)">
<title>joda::queryparsing::grammar::realFunc</title>
<polygon fill="white" stroke="transparent" points="-4,4 -4,-101 312,-101 312,4 -4,4"/>
<!-- Node1 -->
<g id="node1" class="node">
<title>Node1</title>
<g id="a_node1"><a xlink:title=" ">
<polygon fill="#bfbfbf" stroke="black" points="193,-33.5 193,-63.5 308,-63.5 308,-33.5 193,-33.5"/>
<text text-anchor="start" x="201" y="-51.5" font-family="Helvetica,sans-Serif" font-size="10.00">joda::queryparsing</text>
<text text-anchor="middle" x="250.5" y="-40.5" font-family="Helvetica,sans-Serif" font-size="10.00">::grammar::realFunc</text>
</a>
</g>
</g>
<!-- Node2 -->
<g id="node2" class="node">
<title>Node2</title>
<g id="a_node2"><a xlink:title=" ">
<polygon fill="white" stroke="#bfbfbf" points="0,-0.5 0,-96.5 157,-96.5 157,-0.5 0,-0.5"/>
<text text-anchor="start" x="8" y="-84.5" font-family="Helvetica,sans-Serif" font-size="10.00">tao::pegtl::seq&lt; function</text>
<text text-anchor="start" x="8" y="-73.5" font-family="Helvetica,sans-Serif" font-size="10.00">KWs, tao::pegtl::must&lt;</text>
<text text-anchor="start" x="8" y="-62.5" font-family="Helvetica,sans-Serif" font-size="10.00"> funcBracketOpen &gt;, tao</text>
<text text-anchor="start" x="8" y="-51.5" font-family="Helvetica,sans-Serif" font-size="10.00">::pegtl::opt&lt; tao::pegtl</text>
<text text-anchor="start" x="8" y="-40.5" font-family="Helvetica,sans-Serif" font-size="10.00">::list&lt; funcParamRule, tao</text>
<text text-anchor="start" x="8" y="-29.5" font-family="Helvetica,sans-Serif" font-size="10.00">::pegtl::one&lt;&#39;,&#39;&gt;, tao::pegtl</text>
<text text-anchor="start" x="8" y="-18.5" font-family="Helvetica,sans-Serif" font-size="10.00">::space &gt; &gt;, tao::pegtl::must</text>
<text text-anchor="middle" x="78.5" y="-7.5" font-family="Helvetica,sans-Serif" font-size="10.00">&lt; funcBracketClose &gt; &gt;</text>
</a>
</g>
</g>
<!-- Node2&#45;&gt;Node1 -->
<g id="edge1" class="edge">
<title>Node2&#45;&gt;Node1</title>
<path fill="none" stroke="midnightblue" d="M167.26,-48.5C175.97,-48.5 184.65,-48.5 192.91,-48.5"/>
<polygon fill="midnightblue" stroke="midnightblue" points="167.04,-45 157.04,-48.5 167.04,-52 167.04,-45"/>
</g>
</g>
</svg>
