<?xml version="1.0" encoding="UTF-8" standalone="no"?>
<!DOCTYPE svg PUBLIC "-//W3C//DTD SVG 1.1//EN"
 "http://www.w3.org/Graphics/SVG/1.1/DTD/svg11.dtd">
<!-- Generated by graphviz version 2.43.0 (0)
 -->
<!-- Title: /home/nico/joda_tmp/tmp&#45;joda&#45;dirs/JODA&#45;gh/libs/joda/core/modules/indexing/include/joda/indexing/QueryCache.h Pages: 1 -->
<!--zoomable 620 -->
<svg id="main" version="1.1" xmlns="http://www.w3.org/2000/svg" xmlns:xlink="http://www.w3.org/1999/xlink" xml:space="preserve" onload="init(evt)">
<style type="text/css"><![CDATA[
.edge:hover path { stroke: red; }
.edge:hover polygon { stroke: red; fill: red; }
]]></style>
<script type="text/javascript"><![CDATA[
var edges = document.getElementsByTagName('g');
if (edges && edges.length) {
  for (var i=0;i<edges.length;i++) {
    if (edges[i].id.substr(0,4)=='edge') {
      edges[i].setAttribute('class','edge');
    }
  }
}
]]></script>
        <defs>
                <circle id="rim" cx="0" cy="0" r="7"/>
                <circle id="rim2" cx="0" cy="0" r="3.5"/>
                <g id="zoomPlus">
                        <use xlink:href="#rim" fill="#404040">
                                <set attributeName="fill" to="#808080" begin="zoomplus.mouseover" end="zoomplus.mouseout"/>
                        </use>
                        <path d="M-4,0h8M0,-4v8" fill="none" stroke="white" stroke-width="1.5" pointer-events="none"/>
                </g>
                <g id="zoomMin">
                        <use xlink:href="#rim" fill="#404040">
                                <set attributeName="fill" to="#808080" begin="zoomminus.mouseover" end="zoomminus.mouseout"/>
                        </use>
                        <path d="M-4,0h8" fill="none" stroke="white" stroke-width="1.5" pointer-events="none"/>
                </g>
                <g id="dirArrow">
                        <path fill="none" stroke="white" stroke-width="1.5" d="M0,-3.0v7 M-2.5,-0.5L0,-3.0L2.5,-0.5"/>
                </g>
               <g id="resetDef">
                       <use xlink:href="#rim2" fill="#404040">
                               <set attributeName="fill" to="#808080" begin="reset.mouseover" end="reset.mouseout"/>
                       </use>
               </g>
        </defs>

<script type="text/javascript">
var viewWidth = 1497;
var viewHeight = 620;
var sectionId = 'dynsection-0';
</script>
<script xlink:href="../../svgpan.js"/>
<svg id="graph" class="graph">
<g id="viewport">
<title>/home/nico/joda_tmp/tmp&#45;joda&#45;dirs/JODA&#45;gh/libs/joda/core/modules/indexing/include/joda/indexing/QueryCache.h</title>
<polygon fill="white" stroke="transparent" points="-4,4 -4,-616 1493.39,-616 1493.39,4 -4,4"/>
<!-- Node1 -->
<g id="node1" class="node">
<title>Node1</title>
<g id="a_node1"><a xlink:title=" ">
<polygon fill="#bfbfbf" stroke="black" points="201.89,-548.5 201.89,-611.5 370.89,-611.5 370.89,-548.5 201.89,-548.5"/>
<text text-anchor="start" x="209.89" y="-599.5" font-family="Helvetica,sans-Serif" font-size="10.00">/home/nico/joda_tmp</text>
<text text-anchor="start" x="209.89" y="-588.5" font-family="Helvetica,sans-Serif" font-size="10.00">/tmp&#45;joda&#45;dirs/JODA</text>
<text text-anchor="start" x="209.89" y="-577.5" font-family="Helvetica,sans-Serif" font-size="10.00">&#45;gh/libs/joda/core/modules</text>
<text text-anchor="start" x="209.89" y="-566.5" font-family="Helvetica,sans-Serif" font-size="10.00">/indexing/include/joda/indexing</text>
<text text-anchor="middle" x="286.39" y="-555.5" font-family="Helvetica,sans-Serif" font-size="10.00">/QueryCache.h</text>
</a>
</g>
</g>
<!-- Node2 -->
<g id="node2" class="node">
<title>Node2</title>
<g id="a_node2"><a xlink:href="../../d1/dfd/RapidJsonDocument_8h.html" target="_top" xlink:title=" ">
<polygon fill="white" stroke="black" points="204.39,-358.5 204.39,-377.5 404.39,-377.5 404.39,-358.5 204.39,-358.5"/>
<text text-anchor="middle" x="304.39" y="-365.5" font-family="Helvetica,sans-Serif" font-size="10.00">joda/document/RapidJsonDocument.h</text>
</a>
</g>
</g>
<!-- Node1&#45;&gt;Node2 -->
<g id="edge1" class="edge">
<title>Node1&#45;&gt;Node2</title>
<path fill="none" stroke="midnightblue" d="M295.84,-548.28C298.88,-536.99 301.85,-524.02 303.39,-512 309.06,-467.83 307.28,-415.35 305.7,-387.89"/>
<polygon fill="midnightblue" stroke="midnightblue" points="309.18,-387.51 305.06,-377.75 302.2,-387.96 309.18,-387.51"/>
</g>
<!-- Node17 -->
<g id="node17" class="node">
<title>Node17</title>
<g id="a_node17"><a xlink:title=" ">
<polygon fill="white" stroke="#bfbfbf" points="1271.89,-56.5 1271.89,-75.5 1364.89,-75.5 1364.89,-56.5 1271.89,-56.5"/>
<text text-anchor="middle" x="1318.39" y="-63.5" font-family="Helvetica,sans-Serif" font-size="10.00">unordered_map</text>
</a>
</g>
</g>
<!-- Node1&#45;&gt;Node17 -->
<g id="edge62" class="edge">
<title>Node1&#45;&gt;Node17</title>
<path fill="none" stroke="midnightblue" d="M370.98,-577.45C644.81,-571.34 1489.39,-543.35 1489.39,-430.5 1489.39,-430.5 1489.39,-430.5 1489.39,-177 1489.39,-120.74 1423.11,-91.9 1373.08,-78.14"/>
<polygon fill="midnightblue" stroke="midnightblue" points="1373.88,-74.73 1363.32,-75.58 1372.11,-81.5 1373.88,-74.73"/>
</g>
<!-- Node32 -->
<g id="node32" class="node">
<title>Node32</title>
<g id="a_node32"><a xlink:href="../../db/d52/Predicate_8h.html" target="_top" xlink:title=" ">
<polygon fill="white" stroke="black" points="101.89,-414.5 101.89,-444.5 218.89,-444.5 218.89,-414.5 101.89,-414.5"/>
<text text-anchor="start" x="109.89" y="-432.5" font-family="Helvetica,sans-Serif" font-size="10.00">joda/query/predicate</text>
<text text-anchor="middle" x="160.39" y="-421.5" font-family="Helvetica,sans-Serif" font-size="10.00">/Predicate.h</text>
</a>
</g>
</g>
<!-- Node1&#45;&gt;Node32 -->
<g id="edge56" class="edge">
<title>Node1&#45;&gt;Node32</title>
<path fill="none" stroke="midnightblue" d="M235.73,-548.31C221.69,-538.05 207.32,-525.7 196.39,-512 182.73,-494.88 173.17,-471.76 167.35,-454.52"/>
<polygon fill="midnightblue" stroke="midnightblue" points="170.58,-453.12 164.21,-444.65 163.9,-455.24 170.58,-453.12"/>
</g>
<!-- Node35 -->
<g id="node35" class="node">
<title>Node35</title>
<g id="a_node35"><a xlink:href="../../d5/d86/CacheEntry_8h.html" target="_top" xlink:title=" ">
<polygon fill="white" stroke="black" points="205.89,-481.5 205.89,-511.5 294.89,-511.5 294.89,-481.5 205.89,-481.5"/>
<text text-anchor="start" x="213.89" y="-499.5" font-family="Helvetica,sans-Serif" font-size="10.00">../../../src/cache</text>
<text text-anchor="middle" x="250.39" y="-488.5" font-family="Helvetica,sans-Serif" font-size="10.00">/CacheEntry.h</text>
</a>
</g>
</g>
<!-- Node1&#45;&gt;Node35 -->
<g id="edge63" class="edge">
<title>Node1&#45;&gt;Node35</title>
<path fill="none" stroke="midnightblue" d="M272.78,-548.19C268.77,-539.12 264.46,-529.35 260.69,-520.83"/>
<polygon fill="midnightblue" stroke="midnightblue" points="263.82,-519.25 256.58,-511.52 257.42,-522.08 263.82,-519.25"/>
</g>
<!-- Node3 -->
<g id="node3" class="node">
<title>Node3</title>
<g id="a_node3"><a xlink:href="../../d2/d0d/ViewLayer_8h.html" target="_top" xlink:title=" ">
<polygon fill="white" stroke="black" points="725.39,-286 725.39,-316 841.39,-316 841.39,-286 725.39,-286"/>
<text text-anchor="start" x="733.39" y="-304" font-family="Helvetica,sans-Serif" font-size="10.00">joda/document/view</text>
<text text-anchor="middle" x="783.39" y="-293" font-family="Helvetica,sans-Serif" font-size="10.00">/ViewLayer.h</text>
</a>
</g>
</g>
<!-- Node2&#45;&gt;Node3 -->
<g id="edge2" class="edge">
<title>Node2&#45;&gt;Node3</title>
<path fill="none" stroke="midnightblue" d="M367.5,-358.44C457.61,-346.21 622.47,-323.84 715.26,-311.24"/>
<polygon fill="midnightblue" stroke="midnightblue" points="715.95,-314.68 725.39,-309.87 715.01,-307.75 715.95,-314.68"/>
</g>
<!-- Node8 -->
<g id="node8" class="node">
<title>Node8</title>
<g id="a_node8"><a xlink:href="../../d6/d09/RJFwd_8h.html" target="_top" xlink:title=" ">
<polygon fill="white" stroke="black" points="601.39,-56.5 601.39,-75.5 707.39,-75.5 707.39,-56.5 601.39,-56.5"/>
<text text-anchor="middle" x="654.39" y="-63.5" font-family="Helvetica,sans-Serif" font-size="10.00">joda/misc/RJFwd.h</text>
</a>
</g>
</g>
<!-- Node2&#45;&gt;Node8 -->
<g id="edge55" class="edge">
<title>Node2&#45;&gt;Node8</title>
<path fill="none" stroke="midnightblue" d="M307.26,-358.24C315.49,-334.19 341.3,-266.09 382.39,-224 453.53,-151.12 565.66,-101.01 621.09,-79.24"/>
<polygon fill="midnightblue" stroke="midnightblue" points="622.38,-82.5 630.44,-75.63 619.85,-75.97 622.38,-82.5"/>
</g>
<!-- Node9 -->
<g id="node9" class="node">
<title>Node9</title>
<g id="a_node9"><a xlink:title=" ">
<polygon fill="white" stroke="#bfbfbf" points="386.39,-0.5 386.39,-19.5 508.39,-19.5 508.39,-0.5 386.39,-0.5"/>
<text text-anchor="middle" x="447.39" y="-7.5" font-family="Helvetica,sans-Serif" font-size="10.00">rapidjson/allocators.h</text>
</a>
</g>
</g>
<!-- Node2&#45;&gt;Node9 -->
<g id="edge40" class="edge">
<title>Node2&#45;&gt;Node9</title>
<path fill="none" stroke="midnightblue" d="M304.95,-358.42C306.17,-342.59 309.66,-307.89 318.39,-280 349.62,-180.24 411.78,-70.59 436.7,-28.64"/>
<polygon fill="midnightblue" stroke="midnightblue" points="439.8,-30.28 441.94,-19.9 433.79,-26.68 439.8,-30.28"/>
</g>
<!-- Node11 -->
<g id="node11" class="node">
<title>Node11</title>
<g id="a_node11"><a xlink:title=" ">
<polygon fill="white" stroke="#bfbfbf" points="84.89,-0.5 84.89,-19.5 175.89,-19.5 175.89,-0.5 84.89,-0.5"/>
<text text-anchor="middle" x="130.39" y="-7.5" font-family="Helvetica,sans-Serif" font-size="10.00">rapidjson/fwd.h</text>
</a>
</g>
</g>
<!-- Node2&#45;&gt;Node11 -->
<g id="edge41" class="edge">
<title>Node2&#45;&gt;Node11</title>
<path fill="none" stroke="midnightblue" d="M265.87,-358.49C192.82,-339.84 41.39,-288.02 41.39,-179 41.39,-179 41.39,-179 41.39,-121 41.39,-78.85 81.38,-43.78 107.75,-25.24"/>
<polygon fill="midnightblue" stroke="midnightblue" points="109.77,-28.1 116.09,-19.6 105.85,-22.3 109.77,-28.1"/>
</g>
<!-- Node24 -->
<g id="node24" class="node">
<title>Node24</title>
<g id="a_node24"><a xlink:title=" ">
<polygon fill="white" stroke="#bfbfbf" points="69.39,-112.5 69.39,-131.5 127.39,-131.5 127.39,-112.5 69.39,-112.5"/>
<text text-anchor="middle" x="98.39" y="-119.5" font-family="Helvetica,sans-Serif" font-size="10.00">memory</text>
</a>
</g>
</g>
<!-- Node2&#45;&gt;Node24 -->
<g id="edge43" class="edge">
<title>Node2&#45;&gt;Node24</title>
<path fill="none" stroke="midnightblue" d="M293.31,-358.24C282.6,-349.55 266.17,-335.59 253.39,-322 194.45,-259.34 134.7,-175.66 110.08,-140.12"/>
<polygon fill="midnightblue" stroke="midnightblue" points="112.91,-138.05 104.35,-131.8 107.14,-142.02 112.91,-138.05"/>
</g>
<!-- Node27 -->
<g id="node27" class="node">
<title>Node27</title>
<g id="a_node27"><a xlink:title=" ">
<polygon fill="white" stroke="#bfbfbf" points="1340.39,-291.5 1340.39,-310.5 1390.39,-310.5 1390.39,-291.5 1340.39,-291.5"/>
<text text-anchor="middle" x="1365.39" y="-298.5" font-family="Helvetica,sans-Serif" font-size="10.00">atomic</text>
</a>
</g>
</g>
<!-- Node2&#45;&gt;Node27 -->
<g id="edge42" class="edge">
<title>Node2&#45;&gt;Node27</title>
<path fill="none" stroke="midnightblue" d="M404.82,-365.36C645.98,-361.02 1244.27,-347.78 1331.39,-322 1336.23,-320.57 1341.09,-318.31 1345.57,-315.81"/>
<polygon fill="midnightblue" stroke="midnightblue" points="1347.42,-318.78 1354.09,-310.55 1343.74,-312.83 1347.42,-318.78"/>
</g>
<!-- Node28 -->
<g id="node28" class="node">
<title>Node28</title>
<g id="a_node28"><a xlink:href="../../df/d13/FileNameRepo_8h.html" target="_top" xlink:title=" ">
<polygon fill="white" stroke="black" points="1166.89,-280.5 1166.89,-321.5 1321.89,-321.5 1321.89,-280.5 1166.89,-280.5"/>
<text text-anchor="start" x="1174.89" y="-309.5" font-family="Helvetica,sans-Serif" font-size="10.00">../../../../../misc</text>
<text text-anchor="start" x="1174.89" y="-298.5" font-family="Helvetica,sans-Serif" font-size="10.00">/include/joda/misc/FileName</text>
<text text-anchor="middle" x="1244.39" y="-287.5" font-family="Helvetica,sans-Serif" font-size="10.00">Repo.h</text>
</a>
</g>
</g>
<!-- Node2&#45;&gt;Node28 -->
<g id="edge44" class="edge">
<title>Node2&#45;&gt;Node28</title>
<path fill="none" stroke="midnightblue" d="M404.54,-360.07C589.38,-347.29 981.2,-320.2 1156.45,-308.08"/>
<polygon fill="midnightblue" stroke="midnightblue" points="1156.93,-311.56 1166.67,-307.37 1156.45,-304.57 1156.93,-311.56"/>
</g>
<!-- Node30 -->
<g id="node30" class="node">
<title>Node30</title>
<g id="a_node30"><a xlink:href="../../d5/d6c/IOrigin_8h.html" target="_top" xlink:title=" ">
<polygon fill="white" stroke="black" points="201.39,-168.5 201.39,-187.5 259.39,-187.5 259.39,-168.5 201.39,-168.5"/>
<text text-anchor="middle" x="230.39" y="-175.5" font-family="Helvetica,sans-Serif" font-size="10.00">IOrigin.h</text>
</a>
</g>
</g>
<!-- Node2&#45;&gt;Node30 -->
<g id="edge50" class="edge">
<title>Node2&#45;&gt;Node30</title>
<path fill="none" stroke="midnightblue" d="M297.09,-358.21C290.17,-349.49 279.88,-335.51 273.39,-322 253.07,-279.69 239.99,-225.7 234.07,-197.71"/>
<polygon fill="midnightblue" stroke="midnightblue" points="237.46,-196.82 232.03,-187.72 230.6,-198.22 237.46,-196.82"/>
</g>
<!-- Node4 -->
<g id="node4" class="node">
<title>Node4</title>
<g id="a_node4"><a xlink:title=" ">
<polygon fill="white" stroke="#bfbfbf" points="282.39,-0.5 282.39,-19.5 368.39,-19.5 368.39,-0.5 282.39,-0.5"/>
<text text-anchor="middle" x="325.39" y="-7.5" font-family="Helvetica,sans-Serif" font-size="10.00">glog/logging.h</text>
</a>
</g>
</g>
<!-- Node3&#45;&gt;Node4 -->
<g id="edge3" class="edge">
<title>Node3&#45;&gt;Node4</title>
<path fill="none" stroke="midnightblue" d="M725.1,-299.64C626.24,-297.81 431.61,-288.48 382.39,-244 319.86,-187.49 320.57,-74.71 323.62,-29.94"/>
<polygon fill="midnightblue" stroke="midnightblue" points="327.11,-30.13 324.42,-19.88 320.13,-29.57 327.11,-30.13"/>
</g>
<!-- Node5 -->
<g id="node5" class="node">
<title>Node5</title>
<g id="a_node5"><a xlink:href="../../db/d16/config_8h.html" target="_top" xlink:title=" ">
<polygon fill="white" stroke="black" points="917.89,-224.5 917.89,-243.5 1028.89,-243.5 1028.89,-224.5 917.89,-224.5"/>
<text text-anchor="middle" x="973.39" y="-231.5" font-family="Helvetica,sans-Serif" font-size="10.00">joda/config/config.h</text>
</a>
</g>
</g>
<!-- Node3&#45;&gt;Node5 -->
<g id="edge4" class="edge">
<title>Node3&#45;&gt;Node5</title>
<path fill="none" stroke="midnightblue" d="M824.62,-285.9C858.69,-274.24 906.53,-257.87 938.68,-246.88"/>
<polygon fill="midnightblue" stroke="midnightblue" points="940.2,-250.06 948.52,-243.51 937.93,-243.43 940.2,-250.06"/>
</g>
<!-- Node3&#45;&gt;Node8 -->
<g id="edge7" class="edge">
<title>Node3&#45;&gt;Node8</title>
<path fill="none" stroke="midnightblue" d="M762.09,-285.84C747.2,-275.33 727.37,-260.09 712.39,-244 691.9,-221.98 685.55,-215.93 674.39,-188 660.62,-153.52 656.33,-109.87 654.99,-85.54"/>
<polygon fill="midnightblue" stroke="midnightblue" points="658.49,-85.39 654.56,-75.55 651.5,-85.69 658.49,-85.39"/>
</g>
<!-- Node14 -->
<g id="node14" class="node">
<title>Node14</title>
<g id="a_node14"><a xlink:title=" ">
<polygon fill="white" stroke="#bfbfbf" points="535.89,-224.5 535.89,-243.5 664.89,-243.5 664.89,-224.5 535.89,-224.5"/>
<text text-anchor="middle" x="600.39" y="-231.5" font-family="Helvetica,sans-Serif" font-size="10.00">rapidjson/stringbuffer.h</text>
</a>
</g>
</g>
<!-- Node3&#45;&gt;Node14 -->
<g id="edge14" class="edge">
<title>Node3&#45;&gt;Node14</title>
<path fill="none" stroke="midnightblue" d="M743.68,-285.9C710.86,-274.24 664.79,-257.87 633.83,-246.88"/>
<polygon fill="midnightblue" stroke="midnightblue" points="634.94,-243.56 624.34,-243.51 632.59,-250.15 634.94,-243.56"/>
</g>
<!-- Node15 -->
<g id="node15" class="node">
<title>Node15</title>
<g id="a_node15"><a xlink:title=" ">
<polygon fill="white" stroke="#bfbfbf" points="721.39,-224.5 721.39,-243.5 785.39,-243.5 785.39,-224.5 721.39,-224.5"/>
<text text-anchor="middle" x="753.39" y="-231.5" font-family="Helvetica,sans-Serif" font-size="10.00">algorithm</text>
</a>
</g>
</g>
<!-- Node3&#45;&gt;Node15 -->
<g id="edge15" class="edge">
<title>Node3&#45;&gt;Node15</title>
<path fill="none" stroke="midnightblue" d="M776.88,-285.9C772.44,-276.26 766.51,-263.41 761.72,-253.04"/>
<polygon fill="midnightblue" stroke="midnightblue" points="764.77,-251.31 757.4,-243.69 758.42,-254.24 764.77,-251.31"/>
</g>
<!-- Node16 -->
<g id="node16" class="node">
<title>Node16</title>
<g id="a_node16"><a xlink:title=" ">
<polygon fill="white" stroke="#bfbfbf" points="1195.39,-224.5 1195.39,-243.5 1243.39,-243.5 1243.39,-224.5 1195.39,-224.5"/>
<text text-anchor="middle" x="1219.39" y="-231.5" font-family="Helvetica,sans-Serif" font-size="10.00">mutex</text>
</a>
</g>
</g>
<!-- Node3&#45;&gt;Node16 -->
<g id="edge16" class="edge">
<title>Node3&#45;&gt;Node16</title>
<path fill="none" stroke="midnightblue" d="M841.67,-293.52C919.47,-284.47 1061.39,-266.6 1181.39,-244 1182.67,-243.76 1183.96,-243.51 1185.27,-243.24"/>
<polygon fill="midnightblue" stroke="midnightblue" points="1186.31,-246.6 1195.34,-241.05 1184.82,-239.76 1186.31,-246.6"/>
</g>
<!-- Node3&#45;&gt;Node17 -->
<g id="edge17" class="edge">
<title>Node3&#45;&gt;Node17</title>
<path fill="none" stroke="midnightblue" d="M841.71,-295.62C930.84,-288.17 1096.12,-271.14 1148.39,-244 1223.37,-205.07 1284.18,-120.26 1307.8,-84"/>
<polygon fill="midnightblue" stroke="midnightblue" points="1310.79,-85.82 1313.22,-75.51 1304.89,-82.05 1310.79,-85.82"/>
</g>
<!-- Node18 -->
<g id="node18" class="node">
<title>Node18</title>
<g id="a_node18"><a xlink:title=" ">
<polygon fill="white" stroke="#bfbfbf" points="391.89,-224.5 391.89,-243.5 442.89,-243.5 442.89,-224.5 391.89,-224.5"/>
<text text-anchor="middle" x="417.39" y="-231.5" font-family="Helvetica,sans-Serif" font-size="10.00">variant</text>
</a>
</g>
</g>
<!-- Node3&#45;&gt;Node18 -->
<g id="edge18" class="edge">
<title>Node3&#45;&gt;Node18</title>
<path fill="none" stroke="midnightblue" d="M725.11,-291.66C660.85,-282.12 554.23,-265.29 452.75,-243.92"/>
<polygon fill="midnightblue" stroke="midnightblue" points="453.46,-240.49 442.95,-241.84 452,-247.34 453.46,-240.49"/>
</g>
<!-- Node19 -->
<g id="node19" class="node">
<title>Node19</title>
<g id="a_node19"><a xlink:title=" ">
<polygon fill="white" stroke="#bfbfbf" points="461.39,-224.5 461.39,-243.5 517.39,-243.5 517.39,-224.5 461.39,-224.5"/>
<text text-anchor="middle" x="489.39" y="-231.5" font-family="Helvetica,sans-Serif" font-size="10.00">optional</text>
</a>
</g>
</g>
<!-- Node3&#45;&gt;Node19 -->
<g id="edge19" class="edge">
<title>Node3&#45;&gt;Node19</title>
<path fill="none" stroke="midnightblue" d="M725.38,-287.78C675.47,-277.16 601.29,-261.17 527.58,-244.24"/>
<polygon fill="midnightblue" stroke="midnightblue" points="528.19,-240.78 517.66,-241.95 526.62,-247.6 528.19,-240.78"/>
</g>
<!-- Node20 -->
<g id="node20" class="node">
<title>Node20</title>
<g id="a_node20"><a xlink:href="../../da/d3b/ObjectIterator_8h.html" target="_top" xlink:title=" ">
<polygon fill="white" stroke="black" points="1047.39,-224.5 1047.39,-243.5 1139.39,-243.5 1139.39,-224.5 1047.39,-224.5"/>
<text text-anchor="middle" x="1093.39" y="-231.5" font-family="Helvetica,sans-Serif" font-size="10.00">ObjectIterator.h</text>
</a>
</g>
</g>
<!-- Node3&#45;&gt;Node20 -->
<g id="edge20" class="edge">
<title>Node3&#45;&gt;Node20</title>
<path fill="none" stroke="midnightblue" d="M841.7,-287.77C899.65,-275.62 987.64,-257.17 1042.75,-245.62"/>
<polygon fill="midnightblue" stroke="midnightblue" points="1043.57,-249.02 1052.64,-243.54 1042.14,-242.17 1043.57,-249.02"/>
</g>
<!-- Node23 -->
<g id="node23" class="node">
<title>Node23</title>
<g id="a_node23"><a xlink:href="../../d5/de2/ViewCursor_8h.html" target="_top" xlink:title=" ">
<polygon fill="white" stroke="black" points="790.39,-168.5 790.39,-187.5 870.39,-187.5 870.39,-168.5 790.39,-168.5"/>
<text text-anchor="middle" x="830.39" y="-175.5" font-family="Helvetica,sans-Serif" font-size="10.00">ViewCursor.h</text>
</a>
</g>
</g>
<!-- Node3&#45;&gt;Node23 -->
<g id="edge33" class="edge">
<title>Node3&#45;&gt;Node23</title>
<path fill="none" stroke="midnightblue" d="M798.59,-285.92C808.76,-275.45 821.36,-260.22 827.39,-244 832.87,-229.26 833.28,-211.33 832.51,-198.04"/>
<polygon fill="midnightblue" stroke="midnightblue" points="835.97,-197.41 831.63,-187.75 828.99,-198.01 835.97,-197.41"/>
</g>
<!-- Node25 -->
<g id="node25" class="node">
<title>Node25</title>
<g id="a_node25"><a xlink:href="../../d0/d10/ViewStructure_8h.html" target="_top" xlink:title=" ">
<polygon fill="white" stroke="black" points="833.39,-112.5 833.39,-131.5 927.39,-131.5 927.39,-112.5 833.39,-112.5"/>
<text text-anchor="middle" x="880.39" y="-119.5" font-family="Helvetica,sans-Serif" font-size="10.00">ViewStructure.h</text>
</a>
</g>
</g>
<!-- Node3&#45;&gt;Node25 -->
<g id="edge34" class="edge">
<title>Node3&#45;&gt;Node25</title>
<path fill="none" stroke="midnightblue" d="M803.08,-285.69C827.24,-266.65 866.58,-230.41 879.39,-188 883.93,-172.96 883.83,-155.05 882.79,-141.85"/>
<polygon fill="midnightblue" stroke="midnightblue" points="886.25,-141.23 881.73,-131.64 879.28,-141.95 886.25,-141.23"/>
</g>
<!-- Node26 -->
<g id="node26" class="node">
<title>Node26</title>
<g id="a_node26"><a xlink:href="../../d8/dee/VirtualObject_8h.html" target="_top" xlink:title=" ">
<polygon fill="white" stroke="black" points="682.89,-168.5 682.89,-187.5 771.89,-187.5 771.89,-168.5 682.89,-168.5"/>
<text text-anchor="middle" x="727.39" y="-175.5" font-family="Helvetica,sans-Serif" font-size="10.00">VirtualObject.h</text>
</a>
</g>
</g>
<!-- Node3&#45;&gt;Node26 -->
<g id="edge35" class="edge">
<title>Node3&#45;&gt;Node26</title>
<path fill="none" stroke="midnightblue" d="M790.25,-285.95C796.99,-270 804.86,-243.65 794.39,-224 786.84,-209.83 772.63,-199.33 759.23,-192.06"/>
<polygon fill="midnightblue" stroke="midnightblue" points="760.69,-188.87 750.18,-187.53 757.56,-195.13 760.69,-188.87"/>
</g>
<!-- Node6 -->
<g id="node6" class="node">
<title>Node6</title>
<g id="a_node6"><a xlink:title=" ">
<polygon fill="white" stroke="#bfbfbf" points="926.39,-168.5 926.39,-187.5 980.39,-187.5 980.39,-168.5 926.39,-168.5"/>
<text text-anchor="middle" x="953.39" y="-175.5" font-family="Helvetica,sans-Serif" font-size="10.00">istream</text>
</a>
</g>
</g>
<!-- Node5&#45;&gt;Node6 -->
<g id="edge5" class="edge">
<title>Node5&#45;&gt;Node6</title>
<path fill="none" stroke="midnightblue" d="M970.09,-224.08C967.41,-216.85 963.54,-206.41 960.2,-197.4"/>
<polygon fill="midnightblue" stroke="midnightblue" points="963.39,-195.91 956.63,-187.75 956.82,-198.34 963.39,-195.91"/>
</g>
<!-- Node7 -->
<g id="node7" class="node">
<title>Node7</title>
<g id="a_node7"><a xlink:title=" ">
<polygon fill="white" stroke="#bfbfbf" points="986.39,-56.5 986.39,-75.5 1030.39,-75.5 1030.39,-56.5 986.39,-56.5"/>
<text text-anchor="middle" x="1008.39" y="-63.5" font-family="Helvetica,sans-Serif" font-size="10.00">string</text>
</a>
</g>
</g>
<!-- Node5&#45;&gt;Node7 -->
<g id="edge6" class="edge">
<title>Node5&#45;&gt;Node7</title>
<path fill="none" stroke="midnightblue" d="M977.08,-224.19C980.69,-215.22 986.13,-200.86 989.39,-188 998.43,-152.4 1003.92,-109.75 1006.54,-85.78"/>
<polygon fill="midnightblue" stroke="midnightblue" points="1010.04,-85.93 1007.59,-75.62 1003.08,-85.2 1010.04,-85.93"/>
</g>
<!-- Node8&#45;&gt;Node4 -->
<g id="edge8" class="edge">
<title>Node8&#45;&gt;Node4</title>
<path fill="none" stroke="midnightblue" d="M601.26,-56.54C547.6,-47.95 462.06,-34.16 378.44,-20.16"/>
<polygon fill="midnightblue" stroke="midnightblue" points="378.96,-16.7 368.52,-18.5 377.8,-23.6 378.96,-16.7"/>
</g>
<!-- Node8&#45;&gt;Node9 -->
<g id="edge9" class="edge">
<title>Node8&#45;&gt;Node9</title>
<path fill="none" stroke="midnightblue" d="M621.59,-56.44C586.01,-47.16 529.08,-32.31 490.04,-22.13"/>
<polygon fill="midnightblue" stroke="midnightblue" points="490.6,-18.65 480.04,-19.52 488.83,-25.43 490.6,-18.65"/>
</g>
<!-- Node10 -->
<g id="node10" class="node">
<title>Node10</title>
<g id="a_node10"><a xlink:title=" ">
<polygon fill="white" stroke="#bfbfbf" points="526.39,-0.5 526.39,-19.5 648.39,-19.5 648.39,-0.5 526.39,-0.5"/>
<text text-anchor="middle" x="587.39" y="-7.5" font-family="Helvetica,sans-Serif" font-size="10.00">rapidjson/document.h</text>
</a>
</g>
</g>
<!-- Node8&#45;&gt;Node10 -->
<g id="edge10" class="edge">
<title>Node8&#45;&gt;Node10</title>
<path fill="none" stroke="midnightblue" d="M643.63,-56.32C633.62,-48.26 618.5,-36.08 606.46,-26.37"/>
<polygon fill="midnightblue" stroke="midnightblue" points="608.33,-23.38 598.35,-19.83 603.94,-28.83 608.33,-23.38"/>
</g>
<!-- Node8&#45;&gt;Node11 -->
<g id="edge11" class="edge">
<title>Node8&#45;&gt;Node11</title>
<path fill="none" stroke="midnightblue" d="M601.26,-59.53C501.65,-49.26 287.73,-27.21 186.14,-16.75"/>
<polygon fill="midnightblue" stroke="midnightblue" points="186.39,-13.25 176.08,-15.71 185.67,-20.22 186.39,-13.25"/>
</g>
<!-- Node12 -->
<g id="node12" class="node">
<title>Node12</title>
<g id="a_node12"><a xlink:title=" ">
<polygon fill="white" stroke="#bfbfbf" points="666.39,-0.5 666.39,-19.5 816.39,-19.5 816.39,-0.5 666.39,-0.5"/>
<text text-anchor="middle" x="741.39" y="-7.5" font-family="Helvetica,sans-Serif" font-size="10.00">rapidjson/istreamwrapper.h</text>
</a>
</g>
</g>
<!-- Node8&#45;&gt;Node12 -->
<g id="edge12" class="edge">
<title>Node8&#45;&gt;Node12</title>
<path fill="none" stroke="midnightblue" d="M668.37,-56.32C681.94,-47.9 702.77,-34.97 718.72,-25.07"/>
<polygon fill="midnightblue" stroke="midnightblue" points="720.8,-27.9 727.45,-19.65 717.11,-21.95 720.8,-27.9"/>
</g>
<!-- Node13 -->
<g id="node13" class="node">
<title>Node13</title>
<g id="a_node13"><a xlink:title=" ">
<polygon fill="white" stroke="#bfbfbf" points="833.89,-0.5 833.89,-19.5 940.89,-19.5 940.89,-0.5 833.89,-0.5"/>
<text text-anchor="middle" x="887.39" y="-7.5" font-family="Helvetica,sans-Serif" font-size="10.00">rapidjson/pointer.h</text>
</a>
</g>
</g>
<!-- Node8&#45;&gt;Node13 -->
<g id="edge13" class="edge">
<title>Node8&#45;&gt;Node13</title>
<path fill="none" stroke="midnightblue" d="M691.31,-56.44C731.79,-47.06 796.81,-31.99 840.78,-21.8"/>
<polygon fill="midnightblue" stroke="midnightblue" points="841.69,-25.18 850.64,-19.52 840.11,-18.36 841.69,-25.18"/>
</g>
<!-- Node20&#45;&gt;Node7 -->
<g id="edge22" class="edge">
<title>Node20&#45;&gt;Node7</title>
<path fill="none" stroke="midnightblue" d="M1120.32,-224.36C1137.11,-217.41 1157.37,-205.82 1167.39,-188 1171.75,-180.25 1169.9,-176.53 1167.39,-168 1159.05,-139.61 1154.49,-130.49 1131.39,-112 1104.75,-90.67 1067.07,-78.89 1040.46,-72.78"/>
<polygon fill="midnightblue" stroke="midnightblue" points="1041,-69.32 1030.49,-70.64 1039.53,-76.17 1041,-69.32"/>
</g>
<!-- Node20&#45;&gt;Node8 -->
<g id="edge21" class="edge">
<title>Node20&#45;&gt;Node8</title>
<path fill="none" stroke="midnightblue" d="M1085.21,-224.17C1063.48,-201.32 1001.48,-140.09 936.39,-112 865.54,-81.42 776.59,-71.39 717.75,-68.23"/>
<polygon fill="midnightblue" stroke="midnightblue" points="717.64,-64.72 707.49,-67.73 717.3,-71.71 717.64,-64.72"/>
</g>
<!-- Node21 -->
<g id="node21" class="node">
<title>Node21</title>
<g id="a_node21"><a xlink:title=" ">
<polygon fill="white" stroke="#bfbfbf" points="1112.89,-168.5 1112.89,-187.5 1157.89,-187.5 1157.89,-168.5 1112.89,-168.5"/>
<text text-anchor="middle" x="1135.39" y="-175.5" font-family="Helvetica,sans-Serif" font-size="10.00">utility</text>
</a>
</g>
</g>
<!-- Node20&#45;&gt;Node21 -->
<g id="edge23" class="edge">
<title>Node20&#45;&gt;Node21</title>
<path fill="none" stroke="midnightblue" d="M1100.33,-224.08C1106.32,-216.38 1115.14,-205.03 1122.44,-195.65"/>
<polygon fill="midnightblue" stroke="midnightblue" points="1125.21,-197.79 1128.58,-187.75 1119.68,-193.5 1125.21,-197.79"/>
</g>
<!-- Node22 -->
<g id="node22" class="node">
<title>Node22</title>
<g id="a_node22"><a xlink:title=" ">
<polygon fill="white" stroke="#bfbfbf" points="1074.89,-112.5 1074.89,-131.5 1121.89,-131.5 1121.89,-112.5 1074.89,-112.5"/>
<text text-anchor="middle" x="1098.39" y="-119.5" font-family="Helvetica,sans-Serif" font-size="10.00">vector</text>
</a>
</g>
</g>
<!-- Node20&#45;&gt;Node22 -->
<g id="edge24" class="edge">
<title>Node20&#45;&gt;Node22</title>
<path fill="none" stroke="midnightblue" d="M1093.78,-224.37C1094.59,-206.62 1096.45,-165.67 1097.55,-141.6"/>
<polygon fill="midnightblue" stroke="midnightblue" points="1101.04,-141.74 1098,-131.59 1094.05,-141.42 1101.04,-141.74"/>
</g>
<!-- Node20&#45;&gt;Node23 -->
<g id="edge25" class="edge">
<title>Node20&#45;&gt;Node23</title>
<path fill="none" stroke="midnightblue" d="M1051.72,-224.44C1005.24,-214.9 930.08,-199.47 880.45,-189.28"/>
<polygon fill="midnightblue" stroke="midnightblue" points="881.07,-185.83 870.58,-187.25 879.67,-192.69 881.07,-185.83"/>
</g>
<!-- Node23&#45;&gt;Node8 -->
<g id="edge26" class="edge">
<title>Node23&#45;&gt;Node8</title>
<path fill="none" stroke="midnightblue" d="M816.58,-168.37C786.25,-149.41 713.59,-104 676.7,-80.94"/>
<polygon fill="midnightblue" stroke="midnightblue" points="678.47,-77.92 668.14,-75.59 674.76,-83.86 678.47,-77.92"/>
</g>
<!-- Node23&#45;&gt;Node22 -->
<g id="edge28" class="edge">
<title>Node23&#45;&gt;Node22</title>
<path fill="none" stroke="midnightblue" d="M870.51,-168.92C923.41,-158.26 1015.52,-139.7 1064.88,-129.75"/>
<polygon fill="midnightblue" stroke="midnightblue" points="1065.62,-133.17 1074.74,-127.77 1064.24,-126.31 1065.62,-133.17"/>
</g>
<!-- Node23&#45;&gt;Node24 -->
<g id="edge27" class="edge">
<title>Node23&#45;&gt;Node24</title>
<path fill="none" stroke="midnightblue" d="M790.34,-169.23C787.32,-168.77 784.31,-168.35 781.39,-168 513.1,-135.53 443.58,-155.9 174.39,-132 162.41,-130.94 149.41,-129.5 137.6,-128.09"/>
<polygon fill="midnightblue" stroke="midnightblue" points="137.93,-124.6 127.58,-126.86 137.08,-131.55 137.93,-124.6"/>
</g>
<!-- Node23&#45;&gt;Node25 -->
<g id="edge29" class="edge">
<title>Node23&#45;&gt;Node25</title>
<path fill="none" stroke="midnightblue" d="M838.65,-168.08C845.86,-160.3 856.5,-148.8 865.24,-139.37"/>
<polygon fill="midnightblue" stroke="midnightblue" points="868.06,-141.47 872.29,-131.75 862.93,-136.71 868.06,-141.47"/>
</g>
<!-- Node25&#45;&gt;Node7 -->
<g id="edge31" class="edge">
<title>Node25&#45;&gt;Node7</title>
<path fill="none" stroke="midnightblue" d="M900.67,-112.44C921.74,-103.56 954.91,-89.56 978.88,-79.45"/>
<polygon fill="midnightblue" stroke="midnightblue" points="980.35,-82.63 988.2,-75.52 977.63,-76.18 980.35,-82.63"/>
</g>
<!-- Node25&#45;&gt;Node8 -->
<g id="edge30" class="edge">
<title>Node25&#45;&gt;Node8</title>
<path fill="none" stroke="midnightblue" d="M844.58,-112.44C805.4,-103.08 742.51,-88.06 699.88,-77.87"/>
<polygon fill="midnightblue" stroke="midnightblue" points="700.57,-74.44 690.03,-75.52 698.95,-81.24 700.57,-74.44"/>
</g>
<!-- Node25&#45;&gt;Node17 -->
<g id="edge32" class="edge">
<title>Node25&#45;&gt;Node17</title>
<path fill="none" stroke="midnightblue" d="M927.68,-115.17C1008.86,-105.16 1174.38,-84.75 1261.64,-74"/>
<polygon fill="midnightblue" stroke="midnightblue" points="1262.13,-77.46 1271.63,-72.77 1261.28,-70.52 1262.13,-77.46"/>
</g>
<!-- Node26&#45;&gt;Node4 -->
<g id="edge36" class="edge">
<title>Node26&#45;&gt;Node4</title>
<path fill="none" stroke="midnightblue" d="M706.62,-168.42C640.33,-141.05 433.53,-55.65 355.55,-23.45"/>
<polygon fill="midnightblue" stroke="midnightblue" points="356.85,-20.21 346.27,-19.62 354.18,-26.68 356.85,-20.21"/>
</g>
<!-- Node26&#45;&gt;Node7 -->
<g id="edge38" class="edge">
<title>Node26&#45;&gt;Node7</title>
<path fill="none" stroke="midnightblue" d="M737.44,-168.49C754.32,-154.63 789.89,-127.21 824.39,-112 874.92,-89.73 938.33,-77.31 975.98,-71.41"/>
<polygon fill="midnightblue" stroke="midnightblue" points="976.98,-74.8 986.34,-69.84 975.93,-67.87 976.98,-74.8"/>
</g>
<!-- Node26&#45;&gt;Node8 -->
<g id="edge37" class="edge">
<title>Node26&#45;&gt;Node8</title>
<path fill="none" stroke="midnightblue" d="M721.66,-168.37C709.62,-150.22 681.47,-107.8 665.67,-83.99"/>
<polygon fill="midnightblue" stroke="midnightblue" points="668.54,-81.99 660.09,-75.59 662.71,-85.86 668.54,-81.99"/>
</g>
<!-- Node26&#45;&gt;Node25 -->
<g id="edge39" class="edge">
<title>Node26&#45;&gt;Node25</title>
<path fill="none" stroke="midnightblue" d="M751.63,-168.44C777.26,-159.4 817.88,-145.06 846.63,-134.92"/>
<polygon fill="midnightblue" stroke="midnightblue" points="848,-138.15 856.26,-131.52 845.67,-131.54 848,-138.15"/>
</g>
<!-- Node28&#45;&gt;Node7 -->
<g id="edge46" class="edge">
<title>Node28&#45;&gt;Node7</title>
<path fill="none" stroke="midnightblue" d="M1257.77,-280.2C1266.47,-264.79 1275.05,-242.92 1268.39,-224 1257.79,-193.88 1245.83,-190.71 1223.39,-168 1195.87,-140.15 1189.88,-130.53 1155.39,-112 1118.48,-92.17 1071.56,-79.74 1040.78,-73.09"/>
<polygon fill="midnightblue" stroke="midnightblue" points="1041.12,-69.58 1030.62,-70.97 1039.69,-76.44 1041.12,-69.58"/>
</g>
<!-- Node28&#45;&gt;Node16 -->
<g id="edge45" class="edge">
<title>Node28&#45;&gt;Node16</title>
<path fill="none" stroke="midnightblue" d="M1236.89,-280.5C1233.54,-271.78 1229.61,-261.56 1226.32,-253.02"/>
<polygon fill="midnightblue" stroke="midnightblue" points="1229.58,-251.73 1222.72,-243.65 1223.04,-254.24 1229.58,-251.73"/>
</g>
<!-- Node28&#45;&gt;Node17 -->
<g id="edge47" class="edge">
<title>Node28&#45;&gt;Node17</title>
<path fill="none" stroke="midnightblue" d="M1286.8,-280.38C1301.1,-271.45 1315.44,-259.38 1323.39,-244 1350.28,-191.99 1334.39,-119.39 1324.49,-85.63"/>
<polygon fill="midnightblue" stroke="midnightblue" points="1327.74,-84.28 1321.44,-75.76 1321.05,-86.35 1327.74,-84.28"/>
</g>
<!-- Node28&#45;&gt;Node22 -->
<g id="edge49" class="edge">
<title>Node28&#45;&gt;Node22</title>
<path fill="none" stroke="midnightblue" d="M1252.33,-280.39C1257.52,-264.29 1261.77,-241.4 1252.39,-224 1226.92,-176.71 1168.56,-148 1131.45,-133.84"/>
<polygon fill="midnightblue" stroke="midnightblue" points="1132.64,-130.55 1122.05,-130.39 1130.23,-137.12 1132.64,-130.55"/>
</g>
<!-- Node29 -->
<g id="node29" class="node">
<title>Node29</title>
<g id="a_node29"><a xlink:title=" ">
<polygon fill="white" stroke="#bfbfbf" points="1375.39,-224.5 1375.39,-243.5 1461.39,-243.5 1461.39,-224.5 1375.39,-224.5"/>
<text text-anchor="middle" x="1418.39" y="-231.5" font-family="Helvetica,sans-Serif" font-size="10.00">unordered_set</text>
</a>
</g>
</g>
<!-- Node28&#45;&gt;Node29 -->
<g id="edge48" class="edge">
<title>Node28&#45;&gt;Node29</title>
<path fill="none" stroke="midnightblue" d="M1296.6,-280.5C1325.58,-269.67 1360.74,-256.54 1385.81,-247.17"/>
<polygon fill="midnightblue" stroke="midnightblue" points="1387.09,-250.43 1395.23,-243.65 1384.64,-243.87 1387.09,-250.43"/>
</g>
<!-- Node30&#45;&gt;Node4 -->
<g id="edge51" class="edge">
<title>Node30&#45;&gt;Node4</title>
<path fill="none" stroke="midnightblue" d="M213.08,-168.3C192.44,-156.67 162.18,-134.86 174.39,-112 198.64,-66.61 253.31,-38.05 289.78,-23.31"/>
<polygon fill="midnightblue" stroke="midnightblue" points="291.49,-26.4 299.55,-19.51 288.96,-19.87 291.49,-26.4"/>
</g>
<!-- Node30&#45;&gt;Node8 -->
<g id="edge54" class="edge">
<title>Node30&#45;&gt;Node8</title>
<path fill="none" stroke="midnightblue" d="M259.71,-168.41C303.78,-155.59 389.77,-130.93 463.39,-112 511.85,-99.54 567.58,-86.56 606.28,-77.77"/>
<polygon fill="midnightblue" stroke="midnightblue" points="607.25,-81.13 616.23,-75.51 605.7,-74.31 607.25,-81.13"/>
</g>
<!-- Node30&#45;&gt;Node24 -->
<g id="edge53" class="edge">
<title>Node30&#45;&gt;Node24</title>
<path fill="none" stroke="midnightblue" d="M209.48,-168.44C187.65,-159.52 153.24,-145.44 128.5,-135.32"/>
<polygon fill="midnightblue" stroke="midnightblue" points="129.79,-132.06 119.21,-131.52 127.14,-138.54 129.79,-132.06"/>
</g>
<!-- Node31 -->
<g id="node31" class="node">
<title>Node31</title>
<g id="a_node31"><a xlink:title=" ">
<polygon fill="white" stroke="#bfbfbf" points="183.39,-112.5 183.39,-131.5 297.39,-131.5 297.39,-112.5 183.39,-112.5"/>
<text text-anchor="middle" x="240.39" y="-119.5" font-family="Helvetica,sans-Serif" font-size="10.00">boost/operators.hpp</text>
</a>
</g>
</g>
<!-- Node30&#45;&gt;Node31 -->
<g id="edge52" class="edge">
<title>Node30&#45;&gt;Node31</title>
<path fill="none" stroke="midnightblue" d="M232.04,-168.08C233.37,-160.93 235.27,-150.64 236.93,-141.69"/>
<polygon fill="midnightblue" stroke="midnightblue" points="240.39,-142.22 238.77,-131.75 233.51,-140.95 240.39,-142.22"/>
</g>
<!-- Node32&#45;&gt;Node2 -->
<g id="edge61" class="edge">
<title>Node32&#45;&gt;Node2</title>
<path fill="none" stroke="midnightblue" d="M194.52,-414.4C218.68,-404.42 250.79,-391.15 274.06,-381.53"/>
<polygon fill="midnightblue" stroke="midnightblue" points="275.53,-384.71 283.44,-377.66 272.86,-378.24 275.53,-384.71"/>
</g>
<!-- Node32&#45;&gt;Node24 -->
<g id="edge57" class="edge">
<title>Node32&#45;&gt;Node24</title>
<path fill="none" stroke="midnightblue" d="M121.16,-414.36C83.8,-398.44 30.16,-368.56 8.39,-322 -23.27,-254.27 47.24,-172.81 81.31,-138.96"/>
<polygon fill="midnightblue" stroke="midnightblue" points="83.99,-141.24 88.73,-131.76 79.11,-136.21 83.99,-141.24"/>
</g>
<!-- Node33 -->
<g id="node33" class="node">
<title>Node33</title>
<g id="a_node33"><a xlink:href="../../d3/dc8/PredicateVisitor_8h.html" target="_top" xlink:title=" ">
<polygon fill="white" stroke="black" points="84.39,-358.5 84.39,-377.5 186.39,-377.5 186.39,-358.5 84.39,-358.5"/>
<text text-anchor="middle" x="135.39" y="-365.5" font-family="Helvetica,sans-Serif" font-size="10.00">PredicateVisitor.h</text>
</a>
</g>
</g>
<!-- Node32&#45;&gt;Node33 -->
<g id="edge58" class="edge">
<title>Node32&#45;&gt;Node33</title>
<path fill="none" stroke="midnightblue" d="M154.47,-414.4C151.02,-406.2 146.64,-395.78 142.95,-386.99"/>
<polygon fill="midnightblue" stroke="midnightblue" points="146.13,-385.52 139.03,-377.66 139.68,-388.23 146.13,-385.52"/>
</g>
<!-- Node33&#45;&gt;Node24 -->
<g id="edge60" class="edge">
<title>Node33&#45;&gt;Node24</title>
<path fill="none" stroke="midnightblue" d="M134.07,-358.32C128.75,-323.18 108.72,-191.12 101.24,-141.76"/>
<polygon fill="midnightblue" stroke="midnightblue" points="104.65,-140.94 99.69,-131.58 97.73,-141.99 104.65,-140.94"/>
</g>
<!-- Node34 -->
<g id="node34" class="node">
<title>Node34</title>
<g id="a_node34"><a xlink:title=" ">
<polygon fill="white" stroke="#bfbfbf" points="17.39,-291.5 17.39,-310.5 69.39,-310.5 69.39,-291.5 17.39,-291.5"/>
<text text-anchor="middle" x="43.39" y="-298.5" font-family="Helvetica,sans-Serif" font-size="10.00">cassert</text>
</a>
</g>
</g>
<!-- Node33&#45;&gt;Node34 -->
<g id="edge59" class="edge">
<title>Node33&#45;&gt;Node34</title>
<path fill="none" stroke="midnightblue" d="M122.98,-358.23C107.81,-347.51 81.91,-329.22 63.79,-316.41"/>
<polygon fill="midnightblue" stroke="midnightblue" points="65.79,-313.54 55.6,-310.63 61.75,-319.26 65.79,-313.54"/>
</g>
<!-- Node35&#45;&gt;Node2 -->
<g id="edge64" class="edge">
<title>Node35&#45;&gt;Node2</title>
<path fill="none" stroke="midnightblue" d="M256.38,-481.48C266.22,-458.41 285.83,-412.48 296.69,-387.03"/>
<polygon fill="midnightblue" stroke="midnightblue" points="299.93,-388.36 300.64,-377.79 293.49,-385.61 299.93,-388.36"/>
</g>
<!-- Node35&#45;&gt;Node29 -->
<g id="edge67" class="edge">
<title>Node35&#45;&gt;Node29</title>
<path fill="none" stroke="midnightblue" d="M295.21,-495.25C486.89,-493.26 1235.42,-475.62 1399.39,-322 1417.96,-304.6 1420.51,-273.61 1419.96,-253.69"/>
<polygon fill="midnightblue" stroke="midnightblue" points="1423.45,-253.47 1419.39,-243.68 1416.46,-253.86 1423.45,-253.47"/>
</g>
<!-- Node35&#45;&gt;Node32 -->
<g id="edge65" class="edge">
<title>Node35&#45;&gt;Node32</title>
<path fill="none" stroke="midnightblue" d="M230.86,-481.4C218.36,-472.37 201.95,-460.51 188.11,-450.52"/>
<polygon fill="midnightblue" stroke="midnightblue" points="190.04,-447.59 179.88,-444.58 185.94,-453.27 190.04,-447.59"/>
</g>
<!-- Node35&#45;&gt;Node33 -->
<g id="edge66" class="edge">
<title>Node35&#45;&gt;Node33</title>
<path fill="none" stroke="midnightblue" d="M249.82,-481.2C248.41,-463.53 243.59,-433.41 227.39,-414 214.61,-398.68 195.35,-388.15 177.76,-381.14"/>
<polygon fill="midnightblue" stroke="midnightblue" points="178.8,-377.8 168.2,-377.61 176.37,-384.36 178.8,-377.8"/>
</g>
</g>
</svg>
        <g id="navigator" transform="translate(0 0)" fill="#404254">
                <rect fill="#f2f5e9" fill-opacity="0.5" stroke="#606060" stroke-width=".5" x="0" y="0" width="60" height="60"/>
                <use id="zoomplus" xlink:href="#zoomPlus" x="17" y="9" onmousedown="handleZoom(evt,'in')"/>
                <use id="zoomminus" xlink:href="#zoomMin" x="42" y="9" onmousedown="handleZoom(evt,'out')"/>
                <use id="reset" xlink:href="#resetDef" x="30" y="36" onmousedown="handleReset()"/>
                <g id="arrowUp" xlink:href="#dirArrow" transform="translate(30 24)" onmousedown="handlePan(0,-1)">
                  <use xlink:href="#rim" fill="#404040">
                        <set attributeName="fill" to="#808080" begin="arrowUp.mouseover" end="arrowUp.mouseout"/>
                  </use>
                  <path fill="none" stroke="white" stroke-width="1.5" d="M0,-3.0v7 M-2.5,-0.5L0,-3.0L2.5,-0.5"/>
                </g>
                <g id="arrowRight" xlink:href="#dirArrow" transform="rotate(90) translate(36 -43)" onmousedown="handlePan(1,0)">
                  <use xlink:href="#rim" fill="#404040">
                        <set attributeName="fill" to="#808080" begin="arrowRight.mouseover" end="arrowRight.mouseout"/>
                  </use>
                  <path fill="none" stroke="white" stroke-width="1.5" d="M0,-3.0v7 M-2.5,-0.5L0,-3.0L2.5,-0.5"/>
                </g>
                <g id="arrowDown" xlink:href="#dirArrow" transform="rotate(180) translate(-30 -48)" onmousedown="handlePan(0,1)">
                  <use xlink:href="#rim" fill="#404040">
                        <set attributeName="fill" to="#808080" begin="arrowDown.mouseover" end="arrowDown.mouseout"/>
                  </use>
                  <path fill="none" stroke="white" stroke-width="1.5" d="M0,-3.0v7 M-2.5,-0.5L0,-3.0L2.5,-0.5"/>
                </g>
                <g id="arrowLeft" xlink:href="#dirArrow" transform="rotate(270) translate(-36 17)" onmousedown="handlePan(-1,0)">
                  <use xlink:href="#rim" fill="#404040">
                        <set attributeName="fill" to="#808080" begin="arrowLeft.mouseover" end="arrowLeft.mouseout"/>
                  </use>
                  <path fill="none" stroke="white" stroke-width="1.5" d="M0,-3.0v7 M-2.5,-0.5L0,-3.0L2.5,-0.5"/>
                </g>
        </g>
        <svg viewBox="0 0 15 15" width="100%" height="30px" preserveAspectRatio="xMaxYMin meet">
         <g id="arrow_out" transform="scale(0.3 0.3)">
          <a xlink:href="QueryCache_8h__incl_org.svg" target="_base">
           <rect id="button" ry="5" rx="5" y="6" x="6" height="38" width="38"
                fill="#f2f5e9" fill-opacity="0.5" stroke="#606060" stroke-width="1.0"/>
           <path id="arrow"
             d="M 11.500037,31.436501 C 11.940474,20.09759 22.043105,11.32322 32.158766,21.979434 L 37.068811,17.246167 C 37.068811,17.246167 37.088388,32 37.088388,32 L 22.160133,31.978069 C 22.160133,31.978069 26.997745,27.140456 26.997745,27.140456 C 18.528582,18.264221 13.291696,25.230495 11.500037,31.436501 z"
             style="fill:#404040;"/>
          </a>
         </g>
        </svg>
</svg>
