<?xml version="1.0" encoding="UTF-8" standalone="no"?>
<!DOCTYPE svg PUBLIC "-//W3C//DTD SVG 1.1//EN"
 "http://www.w3.org/Graphics/SVG/1.1/DTD/svg11.dtd">
<!-- Generated by graphviz version 2.43.0 (0)
 -->
<!-- Title: joda::queryparsing::grammar::queryState Pages: 1 -->
<!--zoomable 809 -->
<svg id="main" version="1.1" xmlns="http://www.w3.org/2000/svg" xmlns:xlink="http://www.w3.org/1999/xlink" xml:space="preserve" onload="init(evt)">
<style type="text/css"><![CDATA[
.edge:hover path { stroke: red; }
.edge:hover polygon { stroke: red; fill: red; }
]]></style>
<script type="text/javascript"><![CDATA[
var edges = document.getElementsByTagName('g');
if (edges && edges.length) {
  for (var i=0;i<edges.length;i++) {
    if (edges[i].id.substr(0,4)=='edge') {
      edges[i].setAttribute('class','edge');
    }
  }
}
]]></script>
        <defs>
                <circle id="rim" cx="0" cy="0" r="7"/>
                <circle id="rim2" cx="0" cy="0" r="3.5"/>
                <g id="zoomPlus">
                        <use xlink:href="#rim" fill="#404040">
                                <set attributeName="fill" to="#808080" begin="zoomplus.mouseover" end="zoomplus.mouseout"/>
                        </use>
                        <path d="M-4,0h8M0,-4v8" fill="none" stroke="white" stroke-width="1.5" pointer-events="none"/>
                </g>
                <g id="zoomMin">
                        <use xlink:href="#rim" fill="#404040">
                                <set attributeName="fill" to="#808080" begin="zoomminus.mouseover" end="zoomminus.mouseout"/>
                        </use>
                        <path d="M-4,0h8" fill="none" stroke="white" stroke-width="1.5" pointer-events="none"/>
                </g>
                <g id="dirArrow">
                        <path fill="none" stroke="white" stroke-width="1.5" d="M0,-3.0v7 M-2.5,-0.5L0,-3.0L2.5,-0.5"/>
                </g>
               <g id="resetDef">
                       <use xlink:href="#rim2" fill="#404040">
                               <set attributeName="fill" to="#808080" begin="reset.mouseover" end="reset.mouseout"/>
                       </use>
               </g>
        </defs>

<script type="text/javascript">
var viewWidth = 2615;
var viewHeight = 809;
var sectionId = 'dynsection-0';
</script>
<script xlink:href="../../svgpan.js"/>
<svg id="graph" class="graph">
<g id="viewport">
<title>joda::queryparsing::grammar::queryState</title>
<polygon fill="white" stroke="transparent" points="-4,4 -4,-805 2611,-805 2611,4 -4,4"/>
<!-- Node1 -->
<g id="node1" class="node">
<title>Node1</title>
<g id="a_node1"><a xlink:title=" ">
<polygon fill="#bfbfbf" stroke="black" points="2480,-568 2480,-598 2607,-598 2607,-568 2480,-568"/>
<text text-anchor="start" x="2488" y="-586" font-family="Helvetica,sans-Serif" font-size="10.00">joda::queryparsing</text>
<text text-anchor="middle" x="2543.5" y="-575" font-family="Helvetica,sans-Serif" font-size="10.00">::grammar::queryState</text>
</a>
</g>
</g>
<!-- Node2 -->
<g id="node2" class="node">
<title>Node2</title>
<g id="a_node2"><a xlink:title=" ">
<polygon fill="white" stroke="#bfbfbf" points="2312,-568 2312,-598 2434,-598 2434,-568 2312,-568"/>
<text text-anchor="start" x="2320" y="-586" font-family="Helvetica,sans-Serif" font-size="10.00">std::shared_ptr&lt; joda</text>
<text text-anchor="middle" x="2373" y="-575" font-family="Helvetica,sans-Serif" font-size="10.00">::query::Query &gt;</text>
</a>
</g>
</g>
<!-- Node2&#45;&gt;Node1 -->
<g id="edge1" class="edge">
<title>Node2&#45;&gt;Node1</title>
<path fill="none" stroke="#9a32cd" stroke-dasharray="5,2" d="M2444.51,-583C2456.2,-583 2468.24,-583 2479.72,-583"/>
<polygon fill="#9a32cd" stroke="#9a32cd" points="2444.36,-579.5 2434.36,-583 2444.36,-586.5 2444.36,-579.5"/>
<text text-anchor="middle" x="2457" y="-586" font-family="Helvetica,sans-Serif" font-size="10.00"> q</text>
</g>
<!-- Node3 -->
<g id="node3" class="node">
<title>Node3</title>
<g id="a_node3"><a xlink:href="../../d5/de6/classjoda_1_1query_1_1Query.html" target="_top" xlink:title=" ">
<polygon fill="white" stroke="black" points="2153,-366.5 2153,-385.5 2259,-385.5 2259,-366.5 2153,-366.5"/>
<text text-anchor="middle" x="2206" y="-373.5" font-family="Helvetica,sans-Serif" font-size="10.00">joda::query::Query</text>
</a>
</g>
</g>
<!-- Node3&#45;&gt;Node2 -->
<g id="edge2" class="edge">
<title>Node3&#45;&gt;Node2</title>
<path fill="none" stroke="#9a32cd" stroke-dasharray="5,2" d="M2221.15,-393.76C2253.02,-433.73 2329.92,-530.21 2359.82,-567.72"/>
<polygon fill="#9a32cd" stroke="#9a32cd" points="2223.71,-391.34 2214.74,-385.71 2218.23,-395.71 2223.71,-391.34"/>
<text text-anchor="middle" x="2285.5" y="-482" font-family="Helvetica,sans-Serif" font-size="10.00"> ptr</text>
</g>
<!-- Node4 -->
<g id="node4" class="node">
<title>Node4</title>
<g id="a_node4"><a xlink:title=" ">
<polygon fill="white" stroke="#bfbfbf" points="876,-670.5 876,-711.5 1010,-711.5 1010,-670.5 876,-670.5"/>
<text text-anchor="start" x="884" y="-699.5" font-family="Helvetica,sans-Serif" font-size="10.00">std::vector&lt; std::unique</text>
<text text-anchor="start" x="884" y="-688.5" font-family="Helvetica,sans-Serif" font-size="10.00">_ptr&lt; joda::docparsing</text>
<text text-anchor="middle" x="943" y="-677.5" font-family="Helvetica,sans-Serif" font-size="10.00">::IImportSource &gt; &gt;</text>
</a>
</g>
</g>
<!-- Node4&#45;&gt;Node3 -->
<g id="edge3" class="edge">
<title>Node4&#45;&gt;Node3</title>
<path fill="none" stroke="#9a32cd" stroke-dasharray="5,2" d="M1020.25,-697.84C1179.6,-709.42 1557.47,-722.64 1851,-621 1991.76,-572.26 2018.64,-536.01 2135,-443 2158.39,-424.3 2183.1,-399.22 2195.98,-385.66"/>
<polygon fill="#9a32cd" stroke="#9a32cd" points="1020.3,-694.33 1010.07,-697.08 1019.78,-701.31 1020.3,-694.33"/>
<text text-anchor="middle" x="1622.5" y="-692" font-family="Helvetica,sans-Serif" font-size="10.00"> importSources</text>
</g>
<!-- Node5 -->
<g id="node5" class="node">
<title>Node5</title>
<g id="a_node5"><a xlink:title=" ">
<polygon fill="white" stroke="#bfbfbf" points="489,-547 489,-577 650,-577 650,-547 489,-547"/>
<text text-anchor="start" x="497" y="-565" font-family="Helvetica,sans-Serif" font-size="10.00">std::unique_ptr&lt; joda</text>
<text text-anchor="middle" x="569.5" y="-554" font-family="Helvetica,sans-Serif" font-size="10.00">::docparsing::IImportSource &gt;</text>
</a>
</g>
</g>
<!-- Node5&#45;&gt;Node4 -->
<g id="edge4" class="edge">
<title>Node5&#45;&gt;Node4</title>
<path fill="none" stroke="#9a32cd" stroke-dasharray="5,2" d="M623.59,-580.43C692.18,-604.25 811.26,-645.6 882.74,-670.42"/>
<polygon fill="#9a32cd" stroke="#9a32cd" points="624.44,-577.02 613.84,-577.05 622.14,-583.64 624.44,-577.02"/>
<text text-anchor="middle" x="746.5" y="-652" font-family="Helvetica,sans-Serif" font-size="10.00"> elements</text>
</g>
<!-- Node6 -->
<g id="node6" class="node">
<title>Node6</title>
<g id="a_node6"><a xlink:href="../../d5/d90/classjoda_1_1docparsing_1_1IImportSource.html" target="_top" xlink:title=" ">
<polygon fill="white" stroke="black" points="158,-547 158,-577 296,-577 296,-547 158,-547"/>
<text text-anchor="start" x="166" y="-565" font-family="Helvetica,sans-Serif" font-size="10.00">joda::docparsing::IImport</text>
<text text-anchor="middle" x="227" y="-554" font-family="Helvetica,sans-Serif" font-size="10.00">Source</text>
</a>
</g>
</g>
<!-- Node6&#45;&gt;Node5 -->
<g id="edge5" class="edge">
<title>Node6&#45;&gt;Node5</title>
<path fill="none" stroke="#9a32cd" stroke-dasharray="5,2" d="M306.09,-562C360.84,-562 433.79,-562 488.88,-562"/>
<polygon fill="#9a32cd" stroke="#9a32cd" points="306.09,-558.5 296.09,-562 306.09,-565.5 306.09,-558.5"/>
<text text-anchor="middle" x="392.5" y="-565" font-family="Helvetica,sans-Serif" font-size="10.00"> ptr</text>
</g>
<!-- Node7 -->
<g id="node7" class="node">
<title>Node7</title>
<g id="a_node7"><a xlink:title="STL class.">
<polygon fill="white" stroke="#bfbfbf" points="168,-377.5 168,-396.5 286,-396.5 286,-377.5 168,-377.5"/>
<text text-anchor="middle" x="227" y="-384.5" font-family="Helvetica,sans-Serif" font-size="10.00">std::unique_ptr&lt; T &gt;</text>
</a>
</g>
</g>
<!-- Node7&#45;&gt;Node5 -->
<g id="edge6" class="edge">
<title>Node7&#45;&gt;Node5</title>
<path fill="none" stroke="orange" stroke-dasharray="5,2" d="M241.16,-404.78C256.59,-424.5 283.92,-456.01 314,-475 347.96,-496.44 451.17,-528.34 515.25,-546.97"/>
<polygon fill="orange" stroke="orange" points="243.79,-402.46 234.93,-396.64 238.23,-406.71 243.79,-402.46"/>
<text text-anchor="start" x="345" y="-546" font-family="Helvetica,sans-Serif" font-size="10.00"> &lt; joda::docparsing</text>
<text text-anchor="middle" x="392.5" y="-535" font-family="Helvetica,sans-Serif" font-size="10.00">::IImportSource &gt;</text>
</g>
<!-- Node10 -->
<g id="node10" class="node">
<title>Node10</title>
<g id="a_node10"><a xlink:title=" ">
<polygon fill="white" stroke="#bfbfbf" points="1252.5,-108 1252.5,-138 1374.5,-138 1374.5,-108 1252.5,-108"/>
<text text-anchor="start" x="1260.5" y="-126" font-family="Helvetica,sans-Serif" font-size="10.00">std::unique_ptr&lt; joda</text>
<text text-anchor="middle" x="1313.5" y="-115" font-family="Helvetica,sans-Serif" font-size="10.00">::query::Predicate &gt;</text>
</a>
</g>
</g>
<!-- Node7&#45;&gt;Node10 -->
<g id="edge14" class="edge">
<title>Node7&#45;&gt;Node10</title>
<path fill="none" stroke="orange" stroke-dasharray="5,2" d="M244.34,-370.04C298.33,-315.6 478.32,-146.46 668,-106 878.73,-61.05 1136.96,-93.31 1252.11,-112.08"/>
<polygon fill="orange" stroke="orange" points="241.81,-367.62 237.31,-377.21 246.81,-372.53 241.81,-367.62"/>
<text text-anchor="middle" x="746.5" y="-109" font-family="Helvetica,sans-Serif" font-size="10.00"> &lt; joda::query::Predicate &gt;</text>
</g>
<!-- Node14 -->
<g id="node14" class="node">
<title>Node14</title>
<g id="a_node14"><a xlink:title=" ">
<polygon fill="white" stroke="#bfbfbf" points="502,-29 502,-59 637,-59 637,-29 502,-29"/>
<text text-anchor="start" x="510" y="-47" font-family="Helvetica,sans-Serif" font-size="10.00">std::unique_ptr&lt; IExport</text>
<text text-anchor="middle" x="569.5" y="-36" font-family="Helvetica,sans-Serif" font-size="10.00">Destination &gt;</text>
</a>
</g>
</g>
<!-- Node7&#45;&gt;Node14 -->
<g id="edge18" class="edge">
<title>Node7&#45;&gt;Node14</title>
<path fill="none" stroke="orange" stroke-dasharray="5,2" d="M232.01,-367.23C245.63,-300.99 290.58,-89.88 314,-70 365.38,-26.38 445.27,-25.34 501.82,-31.72"/>
<polygon fill="orange" stroke="orange" points="228.55,-366.71 229.97,-377.21 235.4,-368.11 228.55,-366.71"/>
<text text-anchor="middle" x="392.5" y="-73" font-family="Helvetica,sans-Serif" font-size="10.00"> &lt; IExportDestination &gt;</text>
</g>
<!-- Node19 -->
<g id="node19" class="node">
<title>Node19</title>
<g id="a_node19"><a xlink:title=" ">
<polygon fill="white" stroke="#bfbfbf" points="501,-451 501,-481 638,-481 638,-451 501,-451"/>
<text text-anchor="start" x="509" y="-469" font-family="Helvetica,sans-Serif" font-size="10.00">std::unique_ptr&lt; joda</text>
<text text-anchor="middle" x="569.5" y="-458" font-family="Helvetica,sans-Serif" font-size="10.00">::query::IValueProvider &gt;</text>
</a>
</g>
</g>
<!-- Node7&#45;&gt;Node19 -->
<g id="edge27" class="edge">
<title>Node7&#45;&gt;Node19</title>
<path fill="none" stroke="orange" stroke-dasharray="5,2" d="M251.46,-401.74C268.25,-411.59 291.73,-423.99 314,-431 375.58,-450.37 448.89,-459.03 500.98,-462.89"/>
<polygon fill="orange" stroke="orange" points="253.24,-398.73 242.87,-396.58 249.64,-404.73 253.24,-398.73"/>
<text text-anchor="middle" x="392.5" y="-463" font-family="Helvetica,sans-Serif" font-size="10.00"> &lt; joda::query::IValueProvider &gt;</text>
</g>
<!-- Node24 -->
<g id="node24" class="node">
<title>Node24</title>
<g id="a_node24"><a xlink:title=" ">
<polygon fill="white" stroke="#bfbfbf" points="1249,-328 1249,-358 1378,-358 1378,-328 1249,-328"/>
<text text-anchor="start" x="1257" y="-346" font-family="Helvetica,sans-Serif" font-size="10.00">std::unique_ptr&lt; joda</text>
<text text-anchor="middle" x="1313.5" y="-335" font-family="Helvetica,sans-Serif" font-size="10.00">::query::ISetProjector &gt;</text>
</a>
</g>
</g>
<!-- Node7&#45;&gt;Node24 -->
<g id="edge35" class="edge">
<title>Node7&#45;&gt;Node24</title>
<path fill="none" stroke="orange" stroke-dasharray="5,2" d="M296.52,-381.1C383.01,-373.91 536.41,-361.96 668,-356 880.7,-346.37 1133.21,-343.87 1248.89,-343.23"/>
<polygon fill="orange" stroke="orange" points="295.98,-377.64 286.31,-381.96 296.57,-384.61 295.98,-377.64"/>
<text text-anchor="middle" x="746.5" y="-359" font-family="Helvetica,sans-Serif" font-size="10.00"> &lt; joda::query::ISetProjector &gt;</text>
</g>
<!-- Node27 -->
<g id="node27" class="node">
<title>Node27</title>
<g id="a_node27"><a xlink:title=" ">
<polygon fill="white" stroke="#bfbfbf" points="1560.5,-410 1560.5,-440 1684.5,-440 1684.5,-410 1560.5,-410"/>
<text text-anchor="start" x="1568.5" y="-428" font-family="Helvetica,sans-Serif" font-size="10.00">std::unique_ptr&lt; joda</text>
<text text-anchor="middle" x="1622.5" y="-417" font-family="Helvetica,sans-Serif" font-size="10.00">::query::IAggregator &gt;</text>
</a>
</g>
</g>
<!-- Node7&#45;&gt;Node27 -->
<g id="edge42" class="edge">
<title>Node7&#45;&gt;Node27</title>
<path fill="none" stroke="orange" stroke-dasharray="5,2" d="M296.21,-389.76C382.69,-393.2 536.39,-399.09 668,-403 1005.02,-413.02 1409.16,-421.02 1560.42,-423.87"/>
<polygon fill="orange" stroke="orange" points="296.13,-386.26 286,-389.35 295.85,-393.25 296.13,-386.26"/>
<text text-anchor="middle" x="943" y="-415" font-family="Helvetica,sans-Serif" font-size="10.00"> &lt; joda::query::IAggregator &gt;</text>
</g>
<!-- Node30 -->
<g id="node30" class="node">
<title>Node30</title>
<g id="a_node30"><a xlink:title=" ">
<polygon fill="white" stroke="#bfbfbf" points="1252.5,-266 1252.5,-296 1374.5,-296 1374.5,-266 1252.5,-266"/>
<text text-anchor="start" x="1260.5" y="-284" font-family="Helvetica,sans-Serif" font-size="10.00">std::unique_ptr&lt; joda</text>
<text text-anchor="middle" x="1313.5" y="-273" font-family="Helvetica,sans-Serif" font-size="10.00">::query::IProjector &gt;</text>
</a>
</g>
</g>
<!-- Node7&#45;&gt;Node30 -->
<g id="edge48" class="edge">
<title>Node7&#45;&gt;Node30</title>
<path fill="none" stroke="orange" stroke-dasharray="5,2" d="M267.64,-374.65C282.12,-370.48 298.69,-366.1 314,-363 546.32,-315.91 606.69,-313.67 843,-295 989.73,-283.41 1162.96,-281.2 1252.37,-280.91"/>
<polygon fill="orange" stroke="orange" points="266.6,-371.31 257.99,-377.48 268.57,-378.02 266.6,-371.31"/>
<text text-anchor="middle" x="746.5" y="-312" font-family="Helvetica,sans-Serif" font-size="10.00"> &lt; joda::query::IProjector &gt;</text>
</g>
<!-- Node8 -->
<g id="node8" class="node">
<title>Node8</title>
<g id="a_node8"><a xlink:title=" ">
<polygon fill="white" stroke="#bfbfbf" points="31.5,-614.5 31.5,-633.5 60.5,-633.5 60.5,-614.5 31.5,-614.5"/>
<text text-anchor="middle" x="46" y="-621.5" font-family="Helvetica,sans-Serif" font-size="10.00">T</text>
</a>
</g>
</g>
<!-- Node8&#45;&gt;Node7 -->
<g id="edge7" class="edge">
<title>Node8&#45;&gt;Node7</title>
<path fill="none" stroke="#9a32cd" stroke-dasharray="5,2" d="M60.3,-606.39C95.71,-559.51 191.42,-432.78 218.67,-396.7"/>
<polygon fill="#9a32cd" stroke="#9a32cd" points="57.47,-604.33 54.24,-614.42 63.06,-608.55 57.47,-604.33"/>
<text text-anchor="middle" x="125" y="-543" font-family="Helvetica,sans-Serif" font-size="10.00"> ptr</text>
</g>
<!-- Node9 -->
<g id="node9" class="node">
<title>Node9</title>
<g id="a_node9"><a xlink:title="STL class.">
<polygon fill="white" stroke="#bfbfbf" points="521,-614.5 521,-633.5 618,-633.5 618,-614.5 521,-614.5"/>
<text text-anchor="middle" x="569.5" y="-621.5" font-family="Helvetica,sans-Serif" font-size="10.00">std::vector&lt; T &gt;</text>
</a>
</g>
</g>
<!-- Node8&#45;&gt;Node9 -->
<g id="edge9" class="edge">
<title>Node8&#45;&gt;Node9</title>
<path fill="none" stroke="#9a32cd" stroke-dasharray="5,2" d="M70.75,-624C150.84,-624 412.12,-624 520.6,-624"/>
<polygon fill="#9a32cd" stroke="#9a32cd" points="70.68,-620.5 60.68,-624 70.68,-627.5 70.68,-620.5"/>
<text text-anchor="middle" x="227" y="-627" font-family="Helvetica,sans-Serif" font-size="10.00"> elements</text>
</g>
<!-- Node22 -->
<g id="node22" class="node">
<title>Node22</title>
<g id="a_node22"><a xlink:title="STL class.">
<polygon fill="white" stroke="#bfbfbf" points="884,-768.5 884,-787.5 1002,-787.5 1002,-768.5 884,-768.5"/>
<text text-anchor="middle" x="943" y="-775.5" font-family="Helvetica,sans-Serif" font-size="10.00">std::shared_ptr&lt; T &gt;</text>
</a>
</g>
</g>
<!-- Node8&#45;&gt;Node22 -->
<g id="edge29" class="edge">
<title>Node8&#45;&gt;Node22</title>
<path fill="none" stroke="#9a32cd" stroke-dasharray="5,2" d="M70.72,-630.05C152.83,-650.74 432.82,-719.38 668,-754 742.05,-764.9 828.15,-771.45 883.77,-774.89"/>
<polygon fill="#9a32cd" stroke="#9a32cd" points="71.43,-626.62 60.88,-627.56 69.72,-633.4 71.43,-626.62"/>
<text text-anchor="middle" x="392.5" y="-722" font-family="Helvetica,sans-Serif" font-size="10.00"> ptr</text>
</g>
<!-- Node9&#45;&gt;Node4 -->
<g id="edge8" class="edge">
<title>Node9&#45;&gt;Node4</title>
<path fill="none" stroke="orange" stroke-dasharray="5,2" d="M595.7,-638.64C614.86,-649.02 642.24,-662.25 668,-669 737.36,-687.17 819.69,-691.59 875.87,-692.14"/>
<polygon fill="orange" stroke="orange" points="597.18,-635.46 586.74,-633.67 593.79,-641.58 597.18,-635.46"/>
<text text-anchor="start" x="684" y="-715" font-family="Helvetica,sans-Serif" font-size="10.00"> &lt; std::unique_ptr&lt;</text>
<text text-anchor="start" x="684" y="-704" font-family="Helvetica,sans-Serif" font-size="10.00"> joda::docparsing::IImport</text>
<text text-anchor="middle" x="746.5" y="-693" font-family="Helvetica,sans-Serif" font-size="10.00">Source &gt; &gt;</text>
</g>
<!-- Node21 -->
<g id="node21" class="node">
<title>Node21</title>
<g id="a_node21"><a xlink:title=" ">
<polygon fill="white" stroke="#bfbfbf" points="843,-527 843,-557 1043,-557 1043,-527 843,-527"/>
<text text-anchor="start" x="851" y="-545" font-family="Helvetica,sans-Serif" font-size="10.00">std::vector&lt; std::unique</text>
<text text-anchor="middle" x="943" y="-534" font-family="Helvetica,sans-Serif" font-size="10.00">_ptr&lt; joda::query::IValueProvider &gt; &gt;</text>
</a>
</g>
</g>
<!-- Node9&#45;&gt;Node21 -->
<g id="edge26" class="edge">
<title>Node9&#45;&gt;Node21</title>
<path fill="none" stroke="orange" stroke-dasharray="5,2" d="M611.23,-610.55C624.61,-604.77 638.89,-597 650,-587 661.56,-576.6 654.68,-565.03 668,-557 696.71,-539.69 776.68,-536.88 842.86,-537.86"/>
<polygon fill="orange" stroke="orange" points="609.65,-607.42 601.7,-614.41 612.28,-613.9 609.65,-607.42"/>
<text text-anchor="start" x="668" y="-571" font-family="Helvetica,sans-Serif" font-size="10.00"> &lt; std::unique_ptr&lt;</text>
<text text-anchor="middle" x="746.5" y="-560" font-family="Helvetica,sans-Serif" font-size="10.00"> joda::query::IValueProvider &gt; &gt;</text>
</g>
<!-- Node23 -->
<g id="node23" class="node">
<title>Node23</title>
<g id="a_node23"><a xlink:title=" ">
<polygon fill="white" stroke="#bfbfbf" points="1527,-361 1527,-391 1718,-391 1718,-361 1527,-361"/>
<text text-anchor="start" x="1535" y="-379" font-family="Helvetica,sans-Serif" font-size="10.00">std::vector&lt; std::unique</text>
<text text-anchor="middle" x="1622.5" y="-368" font-family="Helvetica,sans-Serif" font-size="10.00">_ptr&lt; joda::query::ISetProjector &gt; &gt;</text>
</a>
</g>
</g>
<!-- Node9&#45;&gt;Node23 -->
<g id="edge36" class="edge">
<title>Node9&#45;&gt;Node23</title>
<path fill="none" stroke="orange" stroke-dasharray="5,2" d="M628.02,-626.41C822.2,-633.97 1444.97,-653.27 1509,-593 1540.2,-563.63 1499.3,-433.7 1527,-401 1530.18,-397.24 1533.85,-394.02 1537.87,-391.25"/>
<polygon fill="orange" stroke="orange" points="628.14,-622.91 618.01,-626.02 627.87,-629.91 628.14,-622.91"/>
<text text-anchor="start" x="1061" y="-649" font-family="Helvetica,sans-Serif" font-size="10.00"> &lt; std::unique_ptr&lt;</text>
<text text-anchor="middle" x="1135" y="-638" font-family="Helvetica,sans-Serif" font-size="10.00"> joda::query::ISetProjector &gt; &gt;</text>
</g>
<!-- Node26 -->
<g id="node26" class="node">
<title>Node26</title>
<g id="a_node26"><a xlink:title=" ">
<polygon fill="white" stroke="#bfbfbf" points="1869,-410 1869,-440 2055,-440 2055,-410 1869,-410"/>
<text text-anchor="start" x="1877" y="-428" font-family="Helvetica,sans-Serif" font-size="10.00">std::vector&lt; std::unique</text>
<text text-anchor="middle" x="1962" y="-417" font-family="Helvetica,sans-Serif" font-size="10.00">_ptr&lt; joda::query::IAggregator &gt; &gt;</text>
</a>
</g>
</g>
<!-- Node9&#45;&gt;Node26 -->
<g id="edge43" class="edge">
<title>Node9&#45;&gt;Node26</title>
<path fill="none" stroke="orange" stroke-dasharray="5,2" d="M581.35,-642.46C596.94,-666.93 628.23,-709 668,-726 778.55,-773.26 1089.5,-739.15 1209,-726 1354.29,-710.02 1729.62,-664.43 1851,-583 1905.68,-546.32 1941.34,-472.53 1954.88,-440.46"/>
<polygon fill="orange" stroke="orange" points="584.21,-640.43 575.99,-633.74 578.25,-644.09 584.21,-640.43"/>
<text text-anchor="start" x="1242" y="-737" font-family="Helvetica,sans-Serif" font-size="10.00"> &lt; std::unique_ptr&lt;</text>
<text text-anchor="middle" x="1313.5" y="-726" font-family="Helvetica,sans-Serif" font-size="10.00"> joda::query::IAggregator &gt; &gt;</text>
</g>
<!-- Node29 -->
<g id="node29" class="node">
<title>Node29</title>
<g id="a_node29"><a xlink:title=" ">
<polygon fill="white" stroke="#bfbfbf" points="1534.5,-312 1534.5,-342 1710.5,-342 1710.5,-312 1534.5,-312"/>
<text text-anchor="start" x="1542.5" y="-330" font-family="Helvetica,sans-Serif" font-size="10.00">std::vector&lt; std::unique</text>
<text text-anchor="middle" x="1622.5" y="-319" font-family="Helvetica,sans-Serif" font-size="10.00">_ptr&lt; joda::query::IProjector &gt; &gt;</text>
</a>
</g>
</g>
<!-- Node9&#45;&gt;Node29 -->
<g id="edge49" class="edge">
<title>Node9&#45;&gt;Node29</title>
<path fill="none" stroke="orange" stroke-dasharray="5,2" d="M628.66,-621.41C794.22,-613.24 1264.81,-584.28 1400,-514 1458.07,-483.81 1474.47,-470.59 1509,-415 1524.37,-390.26 1506.21,-372.39 1527,-352 1530.88,-348.2 1535.26,-344.96 1539.97,-342.19"/>
<polygon fill="orange" stroke="orange" points="628.02,-617.94 618.2,-621.92 628.36,-624.93 628.02,-617.94"/>
<text text-anchor="start" x="1068.5" y="-600" font-family="Helvetica,sans-Serif" font-size="10.00"> &lt; std::unique_ptr&lt;</text>
<text text-anchor="middle" x="1135" y="-589" font-family="Helvetica,sans-Serif" font-size="10.00"> joda::query::IProjector &gt; &gt;</text>
</g>
<!-- Node10&#45;&gt;Node3 -->
<g id="edge10" class="edge">
<title>Node10&#45;&gt;Node3</title>
<path fill="none" stroke="#9a32cd" stroke-dasharray="5,2" d="M1384.71,-115.6C1561.42,-98.5 2018.77,-64.15 2135,-153 2205.28,-206.72 2206.62,-330.66 2205.48,-366.27"/>
<polygon fill="#9a32cd" stroke="#9a32cd" points="1384.35,-112.12 1374.74,-116.57 1385.03,-119.08 1384.35,-112.12"/>
<text text-anchor="middle" x="1793.5" y="-98" font-family="Helvetica,sans-Serif" font-size="10.00"> pred</text>
</g>
<!-- Node11 -->
<g id="node11" class="node">
<title>Node11</title>
<g id="a_node11"><a xlink:href="../../dc/d49/classjoda_1_1query_1_1Predicate.html" target="_top" xlink:title=" ">
<polygon fill="white" stroke="black" points="882,-119.5 882,-138.5 1004,-138.5 1004,-119.5 882,-119.5"/>
<text text-anchor="middle" x="943" y="-126.5" font-family="Helvetica,sans-Serif" font-size="10.00">joda::query::Predicate</text>
</a>
</g>
</g>
<!-- Node11&#45;&gt;Node10 -->
<g id="edge11" class="edge">
<title>Node11&#45;&gt;Node10</title>
<path fill="none" stroke="#9a32cd" stroke-dasharray="5,2" d="M1014.36,-127.85C1083.33,-126.73 1187.33,-125.04 1252.5,-123.98"/>
<polygon fill="#9a32cd" stroke="#9a32cd" points="1013.97,-124.36 1004.03,-128.02 1014.08,-131.36 1013.97,-124.36"/>
<text text-anchor="middle" x="1135" y="-130" font-family="Helvetica,sans-Serif" font-size="10.00"> ptr</text>
</g>
<!-- Node12 -->
<g id="node12" class="node">
<title>Node12</title>
<g id="a_node12"><a xlink:title="STL class.">
<polygon fill="white" stroke="#bfbfbf" points="537,-195.5 537,-214.5 602,-214.5 602,-195.5 537,-195.5"/>
<text text-anchor="middle" x="569.5" y="-202.5" font-family="Helvetica,sans-Serif" font-size="10.00">std::string</text>
</a>
</g>
</g>
<!-- Node12&#45;&gt;Node3 -->
<g id="edge30" class="edge">
<title>Node12&#45;&gt;Node3</title>
<path fill="none" stroke="#9a32cd" stroke-dasharray="5,2" d="M612.17,-197.94C680.73,-186.95 821.75,-167 942,-167 942,-167 942,-167 1963,-167 2086.8,-167 2178.55,-325.59 2200.14,-366.48"/>
<polygon fill="#9a32cd" stroke="#9a32cd" points="611.5,-194.5 602.19,-199.56 612.62,-201.41 611.5,-194.5"/>
<text text-anchor="middle" x="1463.5" y="-192" font-family="Helvetica,sans-Serif" font-size="10.00"> del</text>
<text text-anchor="middle" x="1463.5" y="-181" font-family="Helvetica,sans-Serif" font-size="10.00">load</text>
<text text-anchor="middle" x="1463.5" y="-170" font-family="Helvetica,sans-Serif" font-size="10.00">store</text>
</g>
<!-- Node12&#45;&gt;Node11 -->
<g id="edge12" class="edge">
<title>Node12&#45;&gt;Node11</title>
<path fill="none" stroke="#9a32cd" stroke-dasharray="5,2" d="M588.85,-188.85C607.38,-173.64 637.55,-151.77 668,-142 738.85,-119.26 825.29,-119.44 881.89,-123.03"/>
<polygon fill="#9a32cd" stroke="#9a32cd" points="586.59,-186.18 581.2,-195.3 591.1,-191.53 586.59,-186.18"/>
<text text-anchor="middle" x="746.5" y="-145" font-family="Helvetica,sans-Serif" font-size="10.00"> type</text>
</g>
<!-- Node18 -->
<g id="node18" class="node">
<title>Node18</title>
<g id="a_node18"><a xlink:href="../../d0/d3a/classJoinManager.html" target="_top" xlink:title=" ">
<polygon fill="white" stroke="black" points="904.5,-441.5 904.5,-460.5 981.5,-460.5 981.5,-441.5 904.5,-441.5"/>
<text text-anchor="middle" x="943" y="-448.5" font-family="Helvetica,sans-Serif" font-size="10.00">JoinManager</text>
</a>
</g>
</g>
<!-- Node12&#45;&gt;Node18 -->
<g id="edge21" class="edge">
<title>Node12&#45;&gt;Node18</title>
<path fill="none" stroke="#9a32cd" stroke-dasharray="5,2" d="M576.92,-224.49C589.16,-258.71 619.08,-329.67 668,-369 738.43,-425.63 847.2,-443.18 904.21,-448.6"/>
<polygon fill="#9a32cd" stroke="#9a32cd" points="580.13,-223.07 573.56,-214.76 573.51,-225.36 580.13,-223.07"/>
<text text-anchor="middle" x="746.5" y="-438" font-family="Helvetica,sans-Serif" font-size="10.00"> name</text>
</g>
<!-- Node25 -->
<g id="node25" class="node">
<title>Node25</title>
<g id="a_node25"><a xlink:href="../../d4/d31/classjoda_1_1query_1_1ISetProjector.html" target="_top" xlink:title=" ">
<polygon fill="white" stroke="black" points="873.5,-233.5 873.5,-252.5 1012.5,-252.5 1012.5,-233.5 873.5,-233.5"/>
<text text-anchor="middle" x="943" y="-240.5" font-family="Helvetica,sans-Serif" font-size="10.00">joda::query::ISetProjector</text>
</a>
</g>
</g>
<!-- Node12&#45;&gt;Node25 -->
<g id="edge34" class="edge">
<title>Node12&#45;&gt;Node25</title>
<path fill="none" stroke="#9a32cd" stroke-dasharray="5,2" d="M612.35,-211.53C629.56,-214.08 649.71,-216.89 668,-219 737.85,-227.07 818,-233.79 873.49,-238.05"/>
<polygon fill="#9a32cd" stroke="#9a32cd" points="612.47,-208.01 602.06,-209.98 611.43,-214.93 612.47,-208.01"/>
<text text-anchor="middle" x="746.5" y="-237" font-family="Helvetica,sans-Serif" font-size="10.00"> ptr_str</text>
</g>
<!-- Node28 -->
<g id="node28" class="node">
<title>Node28</title>
<g id="a_node28"><a xlink:href="../../d0/d07/classjoda_1_1query_1_1IAggregator.html" target="_top" xlink:title=" ">
<polygon fill="white" stroke="black" points="1246.5,-377.5 1246.5,-396.5 1380.5,-396.5 1380.5,-377.5 1246.5,-377.5"/>
<text text-anchor="middle" x="1313.5" y="-384.5" font-family="Helvetica,sans-Serif" font-size="10.00">joda::query::IAggregator</text>
</a>
</g>
</g>
<!-- Node12&#45;&gt;Node28 -->
<g id="edge41" class="edge">
<title>Node12&#45;&gt;Node28</title>
<path fill="none" stroke="#9a32cd" stroke-dasharray="5,2" d="M597.79,-219.21C617,-228.74 643.55,-240.97 668,-249 725.35,-267.84 1125.99,-349.37 1265.07,-377.45"/>
<polygon fill="#9a32cd" stroke="#9a32cd" points="599.23,-216.02 588.72,-214.64 596.08,-222.27 599.23,-216.02"/>
<text text-anchor="middle" x="943" y="-333" font-family="Helvetica,sans-Serif" font-size="10.00"> toPointer</text>
</g>
<!-- Node31 -->
<g id="node31" class="node">
<title>Node31</title>
<g id="a_node31"><a xlink:href="../../d9/dbb/classjoda_1_1query_1_1IProjector.html" target="_top" xlink:title=" ">
<polygon fill="white" stroke="black" points="881.5,-195.5 881.5,-214.5 1004.5,-214.5 1004.5,-195.5 881.5,-195.5"/>
<text text-anchor="middle" x="943" y="-202.5" font-family="Helvetica,sans-Serif" font-size="10.00">joda::query::IProjector</text>
</a>
</g>
</g>
<!-- Node12&#45;&gt;Node31 -->
<g id="edge47" class="edge">
<title>Node12&#45;&gt;Node31</title>
<path fill="none" stroke="#9a32cd" stroke-dasharray="5,2" d="M612.56,-205C678.28,-205 805.61,-205 881.28,-205"/>
<polygon fill="#9a32cd" stroke="#9a32cd" points="612.17,-201.5 602.17,-205 612.17,-208.5 612.17,-201.5"/>
<text text-anchor="middle" x="746.5" y="-208" font-family="Helvetica,sans-Serif" font-size="10.00"> ptr_str</text>
</g>
<!-- Node13 -->
<g id="node13" class="node">
<title>Node13</title>
<g id="a_node13"><a xlink:title="STL class.">
<polygon fill="white" stroke="#bfbfbf" points="175,-55 175,-85 279,-85 279,-55 175,-55"/>
<text text-anchor="start" x="183" y="-73" font-family="Helvetica,sans-Serif" font-size="10.00">std::basic_string&lt;</text>
<text text-anchor="middle" x="227" y="-62" font-family="Helvetica,sans-Serif" font-size="10.00"> char &gt;</text>
</a>
</g>
</g>
<!-- Node13&#45;&gt;Node12 -->
<g id="edge13" class="edge">
<title>Node13&#45;&gt;Node12</title>
<path fill="none" stroke="midnightblue" d="M275.6,-88.87C349.37,-118.12 488.65,-173.34 544.47,-195.47"/>
<polygon fill="midnightblue" stroke="midnightblue" points="276.65,-85.53 266.07,-85.09 274.07,-92.03 276.65,-85.53"/>
</g>
<!-- Node14&#45;&gt;Node3 -->
<g id="edge15" class="edge">
<title>Node14&#45;&gt;Node3</title>
<path fill="none" stroke="#9a32cd" stroke-dasharray="5,2" d="M647.58,-45.97C722.72,-47.72 840.19,-50 942,-50 942,-50 942,-50 1963,-50 2045.7,-50 2080.24,-59.02 2135,-121 2201.57,-196.35 2205.47,-329.4 2205.21,-366.28"/>
<polygon fill="#9a32cd" stroke="#9a32cd" points="647.35,-42.46 637.27,-45.73 647.18,-49.46 647.35,-42.46"/>
<text text-anchor="middle" x="1463.5" y="-53" font-family="Helvetica,sans-Serif" font-size="10.00"> exportDestination</text>
</g>
<!-- Node15 -->
<g id="node15" class="node">
<title>Node15</title>
<g id="a_node15"><a xlink:href="../../d9/d71/classIExportDestination.html" target="_top" xlink:title=" ">
<polygon fill="white" stroke="black" points="173.5,-0.5 173.5,-19.5 280.5,-19.5 280.5,-0.5 173.5,-0.5"/>
<text text-anchor="middle" x="227" y="-7.5" font-family="Helvetica,sans-Serif" font-size="10.00">IExportDestination</text>
</a>
</g>
</g>
<!-- Node15&#45;&gt;Node14 -->
<g id="edge16" class="edge">
<title>Node15&#45;&gt;Node14</title>
<path fill="none" stroke="#9a32cd" stroke-dasharray="5,2" d="M290.75,-4.76C340.1,-1.96 410.39,-0.89 471,-11 492.15,-14.53 514.9,-22 533.09,-28.94"/>
<polygon fill="#9a32cd" stroke="#9a32cd" points="290.32,-1.28 280.55,-5.38 290.75,-8.27 290.32,-1.28"/>
<text text-anchor="middle" x="392.5" y="-14" font-family="Helvetica,sans-Serif" font-size="10.00"> ptr</text>
</g>
<!-- Node16 -->
<g id="node16" class="node">
<title>Node16</title>
<g id="a_node16"><a xlink:href="../../d8/df5/classRecurringTimer.html" target="_top" xlink:title=" ">
<polygon fill="white" stroke="black" points="0,-0.5 0,-19.5 92,-19.5 92,-0.5 0,-0.5"/>
<text text-anchor="middle" x="46" y="-7.5" font-family="Helvetica,sans-Serif" font-size="10.00">RecurringTimer</text>
</a>
</g>
</g>
<!-- Node16&#45;&gt;Node15 -->
<g id="edge17" class="edge">
<title>Node16&#45;&gt;Node15</title>
<path fill="none" stroke="#9a32cd" stroke-dasharray="5,2" d="M102.28,-10C124.87,-10 150.89,-10 173.22,-10"/>
<polygon fill="#9a32cd" stroke="#9a32cd" points="102.17,-6.5 92.17,-10 102.17,-13.5 102.17,-6.5"/>
<text text-anchor="middle" x="125" y="-13" font-family="Helvetica,sans-Serif" font-size="10.00"> timer</text>
</g>
<!-- Node17 -->
<g id="node17" class="node">
<title>Node17</title>
<g id="a_node17"><a xlink:title=" ">
<polygon fill="white" stroke="#bfbfbf" points="1227,-645.5 1227,-664.5 1400,-664.5 1400,-645.5 1227,-645.5"/>
<text text-anchor="middle" x="1313.5" y="-652.5" font-family="Helvetica,sans-Serif" font-size="10.00">std::shared_ptr&lt; JoinManager &gt;</text>
</a>
</g>
</g>
<!-- Node17&#45;&gt;Node3 -->
<g id="edge19" class="edge">
<title>Node17&#45;&gt;Node3</title>
<path fill="none" stroke="#9a32cd" stroke-dasharray="5,2" d="M1388.13,-643.75C1424.72,-637.56 1469.46,-629.08 1509,-619 1755.15,-556.24 1816.46,-537.35 2055,-450 2091.28,-436.72 2100.39,-433.17 2135,-416 2154.18,-406.48 2175.44,-394.05 2189.44,-385.59"/>
<polygon fill="#9a32cd" stroke="#9a32cd" points="1387.32,-640.34 1378.03,-645.44 1388.47,-647.24 1387.32,-640.34"/>
<text text-anchor="middle" x="1793.5" y="-571" font-family="Helvetica,sans-Serif" font-size="10.00"> storeJoinManager</text>
<text text-anchor="middle" x="1793.5" y="-560" font-family="Helvetica,sans-Serif" font-size="10.00">loadJoinManager</text>
</g>
<!-- Node18&#45;&gt;Node17 -->
<g id="edge20" class="edge">
<title>Node18&#45;&gt;Node17</title>
<path fill="none" stroke="#9a32cd" stroke-dasharray="5,2" d="M992.02,-453.32C1009.83,-456.4 1029.06,-462.65 1043,-475 1060.05,-490.11 1043.33,-508.62 1061,-523 1112.63,-565.02 1150.04,-515.1 1209,-546 1255.46,-570.35 1292.77,-623.66 1306.65,-645.44"/>
<polygon fill="#9a32cd" stroke="#9a32cd" points="992.15,-449.8 981.76,-451.85 991.16,-456.73 992.15,-449.8"/>
<text text-anchor="middle" x="1135" y="-549" font-family="Helvetica,sans-Serif" font-size="10.00"> ptr</text>
</g>
<!-- Node19&#45;&gt;Node18 -->
<g id="edge22" class="edge">
<title>Node19&#45;&gt;Node18</title>
<path fill="none" stroke="#9a32cd" stroke-dasharray="5,2" d="M648.54,-462.85C727.07,-459.68 844.84,-454.92 904.5,-452.51"/>
<polygon fill="#9a32cd" stroke="#9a32cd" points="648.06,-459.37 638.21,-463.27 648.34,-466.36 648.06,-459.37"/>
<text text-anchor="middle" x="746.5" y="-464" font-family="Helvetica,sans-Serif" font-size="10.00"> valProv</text>
</g>
<!-- Node19&#45;&gt;Node21 -->
<g id="edge25" class="edge">
<title>Node19&#45;&gt;Node21</title>
<path fill="none" stroke="#9a32cd" stroke-dasharray="5,2" d="M617.94,-484.57C633.68,-490.19 651.42,-495.93 668,-500 736.49,-516.8 755.3,-512.24 825,-523 833.24,-524.27 841.8,-525.62 850.37,-526.98"/>
<polygon fill="#9a32cd" stroke="#9a32cd" points="619.02,-481.24 608.43,-481.11 616.63,-487.82 619.02,-481.24"/>
<text text-anchor="middle" x="746.5" y="-526" font-family="Helvetica,sans-Serif" font-size="10.00"> elements</text>
</g>
<!-- Node20 -->
<g id="node20" class="node">
<title>Node20</title>
<g id="a_node20"><a xlink:href="../../d4/df5/classjoda_1_1query_1_1IValueProvider.html" target="_top" xlink:title=" ">
<polygon fill="white" stroke="black" points="1240,-485.5 1240,-504.5 1387,-504.5 1387,-485.5 1240,-485.5"/>
<text text-anchor="middle" x="1313.5" y="-492.5" font-family="Helvetica,sans-Serif" font-size="10.00">joda::query::IValueProvider</text>
</a>
</g>
</g>
<!-- Node20&#45;&gt;Node19 -->
<g id="edge23" class="edge">
<title>Node20&#45;&gt;Node19</title>
<path fill="none" stroke="#9a32cd" stroke-dasharray="5,2" d="M1229.4,-493.05C1080.69,-489.46 774.66,-481.57 668,-475 658.33,-474.4 648.13,-473.63 638.12,-472.78"/>
<polygon fill="#9a32cd" stroke="#9a32cd" points="1229.74,-496.56 1239.83,-493.3 1229.91,-489.56 1229.74,-496.56"/>
<text text-anchor="middle" x="943" y="-491" font-family="Helvetica,sans-Serif" font-size="10.00"> ptr</text>
</g>
<!-- Node21&#45;&gt;Node20 -->
<g id="edge24" class="edge">
<title>Node21&#45;&gt;Node20</title>
<path fill="none" stroke="#9a32cd" stroke-dasharray="5,2" d="M1004.11,-524.34C1022.25,-519.62 1042.31,-515 1061,-512 1120.74,-502.41 1189.3,-498.22 1239.74,-496.39"/>
<polygon fill="#9a32cd" stroke="#9a32cd" points="1003.02,-521 994.25,-526.96 1004.82,-527.77 1003.02,-521"/>
<text text-anchor="middle" x="1135" y="-515" font-family="Helvetica,sans-Serif" font-size="10.00"> params</text>
</g>
<!-- Node21&#45;&gt;Node28 -->
<g id="edge40" class="edge">
<title>Node21&#45;&gt;Node28</title>
<path fill="none" stroke="#9a32cd" stroke-dasharray="5,2" d="M1025.75,-522.74C1031.88,-519.67 1037.72,-516.12 1043,-512 1055.26,-502.44 1049.07,-491.97 1061,-482 1118.86,-433.68 1203.81,-408.52 1258.64,-396.53"/>
<polygon fill="#9a32cd" stroke="#9a32cd" points="1024.25,-519.58 1016.59,-526.9 1027.15,-525.95 1024.25,-519.58"/>
<text text-anchor="middle" x="1135" y="-485" font-family="Helvetica,sans-Serif" font-size="10.00"> params</text>
</g>
<!-- Node22&#45;&gt;Node2 -->
<g id="edge50" class="edge">
<title>Node22&#45;&gt;Node2</title>
<path fill="none" stroke="orange" stroke-dasharray="5,2" d="M1012.17,-781.55C1086.12,-785.09 1207.65,-790 1312.5,-790 1312.5,-790 1312.5,-790 2207,-790 2305.12,-790 2354.34,-646.03 2367.98,-598.22"/>
<polygon fill="orange" stroke="orange" points="1012.22,-778.05 1002.06,-781.06 1011.88,-785.04 1012.22,-778.05"/>
<text text-anchor="middle" x="1793.5" y="-793" font-family="Helvetica,sans-Serif" font-size="10.00"> &lt; joda::query::Query &gt;</text>
</g>
<!-- Node22&#45;&gt;Node17 -->
<g id="edge28" class="edge">
<title>Node22&#45;&gt;Node17</title>
<path fill="none" stroke="orange" stroke-dasharray="5,2" d="M982.49,-765.15C1056.76,-740.36 1218.27,-686.45 1283.91,-664.54"/>
<polygon fill="orange" stroke="orange" points="980.99,-761.96 972.61,-768.45 983.2,-768.6 980.99,-761.96"/>
<text text-anchor="middle" x="1135" y="-741" font-family="Helvetica,sans-Serif" font-size="10.00"> &lt; JoinManager &gt;</text>
</g>
<!-- Node23&#45;&gt;Node3 -->
<g id="edge31" class="edge">
<title>Node23&#45;&gt;Node3</title>
<path fill="none" stroke="#9a32cd" stroke-dasharray="5,2" d="M1728.58,-376C1853.68,-376 2057.61,-376 2152.88,-376"/>
<polygon fill="#9a32cd" stroke="#9a32cd" points="1728.22,-372.5 1718.22,-376 1728.22,-379.5 1728.22,-372.5"/>
<text text-anchor="middle" x="1962" y="-379" font-family="Helvetica,sans-Serif" font-size="10.00"> setProjectors</text>
</g>
<!-- Node24&#45;&gt;Node23 -->
<g id="edge32" class="edge">
<title>Node24&#45;&gt;Node23</title>
<path fill="none" stroke="#9a32cd" stroke-dasharray="5,2" d="M1388.17,-350.92C1429.75,-355.39 1482.16,-361.02 1526.78,-365.82"/>
<polygon fill="#9a32cd" stroke="#9a32cd" points="1388.43,-347.43 1378.11,-349.84 1387.68,-354.39 1388.43,-347.43"/>
<text text-anchor="middle" x="1463.5" y="-366" font-family="Helvetica,sans-Serif" font-size="10.00"> elements</text>
</g>
<!-- Node25&#45;&gt;Node24 -->
<g id="edge33" class="edge">
<title>Node25&#45;&gt;Node24</title>
<path fill="none" stroke="#9a32cd" stroke-dasharray="5,2" d="M989.26,-255.28C1056.84,-273.62 1184,-308.13 1257.07,-327.96"/>
<polygon fill="#9a32cd" stroke="#9a32cd" points="989.9,-251.83 979.33,-252.59 988.07,-258.59 989.9,-251.83"/>
<text text-anchor="middle" x="1135" y="-316" font-family="Helvetica,sans-Serif" font-size="10.00"> ptr</text>
</g>
<!-- Node26&#45;&gt;Node3 -->
<g id="edge37" class="edge">
<title>Node26&#45;&gt;Node3</title>
<path fill="none" stroke="#9a32cd" stroke-dasharray="5,2" d="M2047.07,-407.98C2084.21,-400.46 2126.49,-391.9 2157.94,-385.53"/>
<polygon fill="#9a32cd" stroke="#9a32cd" points="2046.36,-404.55 2037.25,-409.97 2047.75,-411.41 2046.36,-404.55"/>
<text text-anchor="middle" x="2104" y="-404" font-family="Helvetica,sans-Serif" font-size="10.00"> aggregators</text>
</g>
<!-- Node27&#45;&gt;Node26 -->
<g id="edge38" class="edge">
<title>Node27&#45;&gt;Node26</title>
<path fill="none" stroke="#9a32cd" stroke-dasharray="5,2" d="M1694.83,-425C1745.51,-425 1814.01,-425 1868.83,-425"/>
<polygon fill="#9a32cd" stroke="#9a32cd" points="1694.62,-421.5 1684.62,-425 1694.62,-428.5 1694.62,-421.5"/>
<text text-anchor="middle" x="1793.5" y="-428" font-family="Helvetica,sans-Serif" font-size="10.00"> elements</text>
</g>
<!-- Node28&#45;&gt;Node27 -->
<g id="edge39" class="edge">
<title>Node28&#45;&gt;Node27</title>
<path fill="none" stroke="#9a32cd" stroke-dasharray="5,2" d="M1391.33,-389.44C1427.21,-391.27 1470.43,-394.46 1509,-400 1526.23,-402.48 1544.74,-406.16 1561.67,-409.94"/>
<polygon fill="#9a32cd" stroke="#9a32cd" points="1391.09,-385.93 1380.93,-388.94 1390.75,-392.92 1391.09,-385.93"/>
<text text-anchor="middle" x="1463.5" y="-403" font-family="Helvetica,sans-Serif" font-size="10.00"> ptr</text>
</g>
<!-- Node29&#45;&gt;Node3 -->
<g id="edge44" class="edge">
<title>Node29&#45;&gt;Node3</title>
<path fill="none" stroke="#9a32cd" stroke-dasharray="5,2" d="M1720.92,-334.09C1808.4,-340.59 1940.35,-350.75 2055,-361 2087.58,-363.91 2124.11,-367.56 2152.96,-370.52"/>
<polygon fill="#9a32cd" stroke="#9a32cd" points="1720.97,-330.58 1710.74,-333.33 1720.45,-337.56 1720.97,-330.58"/>
<text text-anchor="middle" x="1962" y="-364" font-family="Helvetica,sans-Serif" font-size="10.00"> projectors</text>
</g>
<!-- Node30&#45;&gt;Node29 -->
<g id="edge45" class="edge">
<title>Node30&#45;&gt;Node29</title>
<path fill="none" stroke="#9a32cd" stroke-dasharray="5,2" d="M1384.91,-291.55C1429.33,-298.21 1487.03,-306.85 1534.32,-313.94"/>
<polygon fill="#9a32cd" stroke="#9a32cd" points="1385.2,-288.05 1374.79,-290.03 1384.16,-294.98 1385.2,-288.05"/>
<text text-anchor="middle" x="1463.5" y="-312" font-family="Helvetica,sans-Serif" font-size="10.00"> elements</text>
</g>
<!-- Node31&#45;&gt;Node30 -->
<g id="edge46" class="edge">
<title>Node31&#45;&gt;Node30</title>
<path fill="none" stroke="#9a32cd" stroke-dasharray="5,2" d="M1003.8,-216.47C1016.73,-218.95 1030.32,-221.56 1043,-224 1116.78,-238.19 1135.57,-240.06 1209,-256 1223.09,-259.06 1238.2,-262.57 1252.41,-265.98"/>
<polygon fill="#9a32cd" stroke="#9a32cd" points="1004.08,-212.96 993.6,-214.51 1002.77,-219.83 1004.08,-212.96"/>
<text text-anchor="middle" x="1135" y="-259" font-family="Helvetica,sans-Serif" font-size="10.00"> ptr</text>
</g>
</g>
</svg>
        <g id="navigator" transform="translate(0 0)" fill="#404254">
                <rect fill="#f2f5e9" fill-opacity="0.5" stroke="#606060" stroke-width=".5" x="0" y="0" width="60" height="60"/>
                <use id="zoomplus" xlink:href="#zoomPlus" x="17" y="9" onmousedown="handleZoom(evt,'in')"/>
                <use id="zoomminus" xlink:href="#zoomMin" x="42" y="9" onmousedown="handleZoom(evt,'out')"/>
                <use id="reset" xlink:href="#resetDef" x="30" y="36" onmousedown="handleReset()"/>
                <g id="arrowUp" xlink:href="#dirArrow" transform="translate(30 24)" onmousedown="handlePan(0,-1)">
                  <use xlink:href="#rim" fill="#404040">
                        <set attributeName="fill" to="#808080" begin="arrowUp.mouseover" end="arrowUp.mouseout"/>
                  </use>
                  <path fill="none" stroke="white" stroke-width="1.5" d="M0,-3.0v7 M-2.5,-0.5L0,-3.0L2.5,-0.5"/>
                </g>
                <g id="arrowRight" xlink:href="#dirArrow" transform="rotate(90) translate(36 -43)" onmousedown="handlePan(1,0)">
                  <use xlink:href="#rim" fill="#404040">
                        <set attributeName="fill" to="#808080" begin="arrowRight.mouseover" end="arrowRight.mouseout"/>
                  </use>
                  <path fill="none" stroke="white" stroke-width="1.5" d="M0,-3.0v7 M-2.5,-0.5L0,-3.0L2.5,-0.5"/>
                </g>
                <g id="arrowDown" xlink:href="#dirArrow" transform="rotate(180) translate(-30 -48)" onmousedown="handlePan(0,1)">
                  <use xlink:href="#rim" fill="#404040">
                        <set attributeName="fill" to="#808080" begin="arrowDown.mouseover" end="arrowDown.mouseout"/>
                  </use>
                  <path fill="none" stroke="white" stroke-width="1.5" d="M0,-3.0v7 M-2.5,-0.5L0,-3.0L2.5,-0.5"/>
                </g>
                <g id="arrowLeft" xlink:href="#dirArrow" transform="rotate(270) translate(-36 17)" onmousedown="handlePan(-1,0)">
                  <use xlink:href="#rim" fill="#404040">
                        <set attributeName="fill" to="#808080" begin="arrowLeft.mouseover" end="arrowLeft.mouseout"/>
                  </use>
                  <path fill="none" stroke="white" stroke-width="1.5" d="M0,-3.0v7 M-2.5,-0.5L0,-3.0L2.5,-0.5"/>
                </g>
        </g>
        <svg viewBox="0 0 15 15" width="100%" height="30px" preserveAspectRatio="xMaxYMin meet">
         <g id="arrow_out" transform="scale(0.3 0.3)">
          <a xlink:href="structjoda_1_1queryparsing_1_1grammar_1_1queryState__coll__graph_org.svg" target="_base">
           <rect id="button" ry="5" rx="5" y="6" x="6" height="38" width="38"
                fill="#f2f5e9" fill-opacity="0.5" stroke="#606060" stroke-width="1.0"/>
           <path id="arrow"
             d="M 11.500037,31.436501 C 11.940474,20.09759 22.043105,11.32322 32.158766,21.979434 L 37.068811,17.246167 C 37.068811,17.246167 37.088388,32 37.088388,32 L 22.160133,31.978069 C 22.160133,31.978069 26.997745,27.140456 26.997745,27.140456 C 18.528582,18.264221 13.291696,25.230495 11.500037,31.436501 z"
             style="fill:#404040;"/>
          </a>
         </g>
        </svg>
</svg>
