<?xml version="1.0" encoding="UTF-8" standalone="no"?>
<!DOCTYPE svg PUBLIC "-//W3C//DTD SVG 1.1//EN"
 "http://www.w3.org/Graphics/SVG/1.1/DTD/svg11.dtd">
<!-- Generated by graphviz version 2.43.0 (0)
 -->
<!-- Title: /home/nico/projects/tmp&#45;joda&#45;dirs/JODA&#45;gh/libs/joda/core/modules/query/project/include/joda/query/project/PointerCopyProject.h Pages: 1 -->
<svg width="1204pt" height="461pt"
 viewBox="0.00 0.00 1204.28 461.00" xmlns="http://www.w3.org/2000/svg" xmlns:xlink="http://www.w3.org/1999/xlink">
<g id="graph0" class="graph" transform="scale(1 1) rotate(0) translate(4 457)">
<title>/home/nico/projects/tmp&#45;joda&#45;dirs/JODA&#45;gh/libs/joda/core/modules/query/project/include/joda/query/project/PointerCopyProject.h</title>
<polygon fill="white" stroke="transparent" points="-4,4 -4,-457 1200.28,-457 1200.28,4 -4,4"/>
<!-- Node1 -->
<g id="node1" class="node">
<title>Node1</title>
<g id="a_node1"><a xlink:title=" ">
<polygon fill="#bfbfbf" stroke="black" points="404.5,-389.5 404.5,-452.5 593.5,-452.5 593.5,-389.5 404.5,-389.5"/>
<text text-anchor="start" x="412.5" y="-440.5" font-family="Helvetica,sans-Serif" font-size="10.00">/home/nico/projects</text>
<text text-anchor="start" x="412.5" y="-429.5" font-family="Helvetica,sans-Serif" font-size="10.00">/tmp&#45;joda&#45;dirs/JODA</text>
<text text-anchor="start" x="412.5" y="-418.5" font-family="Helvetica,sans-Serif" font-size="10.00">&#45;gh/libs/joda/core/modules</text>
<text text-anchor="start" x="412.5" y="-407.5" font-family="Helvetica,sans-Serif" font-size="10.00">/query/project/include/joda</text>
<text text-anchor="middle" x="499" y="-396.5" font-family="Helvetica,sans-Serif" font-size="10.00">/query/project/PointerCopyProject.h</text>
</a>
</g>
</g>
<!-- Node2 -->
<g id="node2" class="node">
<title>Node2</title>
<g id="a_node2"><a xlink:href="../../da/d33/PointerCopyProject_8cpp.html" target="_top" xlink:title=" ">
<polygon fill="white" stroke="black" points="0,-295 0,-347 218,-347 218,-295 0,-295"/>
<text text-anchor="start" x="8" y="-335" font-family="Helvetica,sans-Serif" font-size="10.00">/home/nico/projects</text>
<text text-anchor="start" x="8" y="-324" font-family="Helvetica,sans-Serif" font-size="10.00">/tmp&#45;joda&#45;dirs/JODA</text>
<text text-anchor="start" x="8" y="-313" font-family="Helvetica,sans-Serif" font-size="10.00">&#45;gh/libs/joda/core/modules</text>
<text text-anchor="middle" x="109" y="-302" font-family="Helvetica,sans-Serif" font-size="10.00">/query/project/src/PointerCopyProject.cpp</text>
</a>
</g>
</g>
<!-- Node1&#45;&gt;Node2 -->
<g id="edge1" class="edge">
<title>Node1&#45;&gt;Node2</title>
<path fill="none" stroke="midnightblue" d="M394.22,-394.59C343.65,-382.22 282.12,-367.03 227,-353 219.41,-351.07 211.54,-349.05 203.64,-347"/>
<polygon fill="midnightblue" stroke="midnightblue" points="393.64,-398.05 404.19,-397.02 395.3,-391.25 393.64,-398.05"/>
</g>
<!-- Node3 -->
<g id="node3" class="node">
<title>Node3</title>
<g id="a_node3"><a xlink:href="../../de/d9f/Query_8cpp.html" target="_top" xlink:title=" ">
<polygon fill="white" stroke="black" points="236,-295 236,-347 382,-347 382,-295 236,-295"/>
<text text-anchor="start" x="244" y="-335" font-family="Helvetica,sans-Serif" font-size="10.00">/home/nico/projects</text>
<text text-anchor="start" x="244" y="-324" font-family="Helvetica,sans-Serif" font-size="10.00">/tmp&#45;joda&#45;dirs/JODA</text>
<text text-anchor="start" x="244" y="-313" font-family="Helvetica,sans-Serif" font-size="10.00">&#45;gh/libs/joda/core/modules</text>
<text text-anchor="middle" x="309" y="-302" font-family="Helvetica,sans-Serif" font-size="10.00">/query/src/Query.cpp</text>
</a>
</g>
</g>
<!-- Node1&#45;&gt;Node3 -->
<g id="edge2" class="edge">
<title>Node1&#45;&gt;Node3</title>
<path fill="none" stroke="midnightblue" d="M430.56,-384.7C406.45,-372.26 379.85,-358.55 357.7,-347.12"/>
<polygon fill="midnightblue" stroke="midnightblue" points="429.17,-387.92 439.66,-389.4 432.38,-381.7 429.17,-387.92"/>
</g>
<!-- Node4 -->
<g id="node4" class="node">
<title>Node4</title>
<g id="a_node4"><a xlink:href="../../da/d11/QueryThread_8cpp.html" target="_top" xlink:title=" ">
<polygon fill="white" stroke="black" points="400,-295 400,-347 598,-347 598,-295 400,-295"/>
<text text-anchor="start" x="408" y="-335" font-family="Helvetica,sans-Serif" font-size="10.00">/home/nico/projects</text>
<text text-anchor="start" x="408" y="-324" font-family="Helvetica,sans-Serif" font-size="10.00">/tmp&#45;joda&#45;dirs/JODA</text>
<text text-anchor="start" x="408" y="-313" font-family="Helvetica,sans-Serif" font-size="10.00">&#45;gh/libs/joda/core/modules</text>
<text text-anchor="middle" x="499" y="-302" font-family="Helvetica,sans-Serif" font-size="10.00">/queryexecution/src/QueryThread.cpp</text>
</a>
</g>
</g>
<!-- Node1&#45;&gt;Node4 -->
<g id="edge3" class="edge">
<title>Node1&#45;&gt;Node4</title>
<path fill="none" stroke="midnightblue" d="M499,-379.08C499,-368.21 499,-356.79 499,-347.05"/>
<polygon fill="midnightblue" stroke="midnightblue" points="495.5,-379.26 499,-389.26 502.5,-379.26 495.5,-379.26"/>
</g>
<!-- Node5 -->
<g id="node5" class="node">
<title>Node5</title>
<g id="a_node5"><a xlink:href="../../d4/d03/Grammar_8h.html" target="_top" xlink:title=" ">
<polygon fill="white" stroke="black" points="616.5,-289.5 616.5,-352.5 765.5,-352.5 765.5,-289.5 616.5,-289.5"/>
<text text-anchor="start" x="624.5" y="-340.5" font-family="Helvetica,sans-Serif" font-size="10.00">/home/nico/projects</text>
<text text-anchor="start" x="624.5" y="-329.5" font-family="Helvetica,sans-Serif" font-size="10.00">/tmp&#45;joda&#45;dirs/JODA</text>
<text text-anchor="start" x="624.5" y="-318.5" font-family="Helvetica,sans-Serif" font-size="10.00">&#45;gh/libs/joda/core/modules</text>
<text text-anchor="start" x="624.5" y="-307.5" font-family="Helvetica,sans-Serif" font-size="10.00">/queryparsing/src/grammar</text>
<text text-anchor="middle" x="691" y="-296.5" font-family="Helvetica,sans-Serif" font-size="10.00">/Grammar.h</text>
</a>
</g>
</g>
<!-- Node1&#45;&gt;Node5 -->
<g id="edge4" class="edge">
<title>Node1&#45;&gt;Node5</title>
<path fill="none" stroke="midnightblue" d="M568,-384.78C588.66,-374.23 611.14,-362.76 631.16,-352.54"/>
<polygon fill="midnightblue" stroke="midnightblue" points="566.28,-381.73 558.96,-389.4 569.46,-387.97 566.28,-381.73"/>
</g>
<!-- Node15 -->
<g id="node15" class="node">
<title>Node15</title>
<g id="a_node15"><a xlink:href="../../df/d5a/JSONContainer_8cpp.html" target="_top" xlink:title=" ">
<polygon fill="white" stroke="black" points="784,-295 784,-347 1000,-347 1000,-295 784,-295"/>
<text text-anchor="start" x="792" y="-335" font-family="Helvetica,sans-Serif" font-size="10.00">/home/nico/projects</text>
<text text-anchor="start" x="792" y="-324" font-family="Helvetica,sans-Serif" font-size="10.00">/tmp&#45;joda&#45;dirs/JODA</text>
<text text-anchor="start" x="792" y="-313" font-family="Helvetica,sans-Serif" font-size="10.00">&#45;gh/libs/joda/core/modules</text>
<text text-anchor="middle" x="892" y="-302" font-family="Helvetica,sans-Serif" font-size="10.00">/storage/container/src/JSONContainer.cpp</text>
</a>
</g>
</g>
<!-- Node1&#45;&gt;Node15 -->
<g id="edge21" class="edge">
<title>Node1&#45;&gt;Node15</title>
<path fill="none" stroke="midnightblue" d="M603.4,-395.03C654.82,-382.61 717.72,-367.25 774,-353 781.6,-351.08 789.46,-349.06 797.36,-347.02"/>
<polygon fill="midnightblue" stroke="midnightblue" points="602.5,-391.65 593.6,-397.39 604.15,-398.45 602.5,-391.65"/>
</g>
<!-- Node6 -->
<g id="node6" class="node">
<title>Node6</title>
<g id="a_node6"><a xlink:href="../../de/db3/Actions_8h.html" target="_top" xlink:title=" ">
<polygon fill="white" stroke="black" points="618,-89.5 618,-152.5 764,-152.5 764,-89.5 618,-89.5"/>
<text text-anchor="start" x="626" y="-140.5" font-family="Helvetica,sans-Serif" font-size="10.00">/home/nico/projects</text>
<text text-anchor="start" x="626" y="-129.5" font-family="Helvetica,sans-Serif" font-size="10.00">/tmp&#45;joda&#45;dirs/JODA</text>
<text text-anchor="start" x="626" y="-118.5" font-family="Helvetica,sans-Serif" font-size="10.00">&#45;gh/libs/joda/core/modules</text>
<text text-anchor="start" x="626" y="-107.5" font-family="Helvetica,sans-Serif" font-size="10.00">/queryparsing/src/actions</text>
<text text-anchor="middle" x="691" y="-96.5" font-family="Helvetica,sans-Serif" font-size="10.00">/Actions.h</text>
</a>
</g>
</g>
<!-- Node5&#45;&gt;Node6 -->
<g id="edge5" class="edge">
<title>Node5&#45;&gt;Node6</title>
<path fill="none" stroke="midnightblue" d="M605.94,-289.55C529.57,-279.69 228.17,-284.86 199,-253 179.79,-232.02 180.29,-210.43 199,-189 226.12,-157.93 487.65,-135.87 617.96,-126.71"/>
<polygon fill="midnightblue" stroke="midnightblue" points="605.75,-293.07 616.19,-291.27 606.91,-286.17 605.75,-293.07"/>
</g>
<!-- Node8 -->
<g id="node8" class="node">
<title>Node8</title>
<g id="a_node8"><a xlink:href="../../d4/daf/Agg__Actions_8h.html" target="_top" xlink:title=" ">
<polygon fill="white" stroke="black" points="208,-189.5 208,-252.5 354,-252.5 354,-189.5 208,-189.5"/>
<text text-anchor="start" x="216" y="-240.5" font-family="Helvetica,sans-Serif" font-size="10.00">/home/nico/projects</text>
<text text-anchor="start" x="216" y="-229.5" font-family="Helvetica,sans-Serif" font-size="10.00">/tmp&#45;joda&#45;dirs/JODA</text>
<text text-anchor="start" x="216" y="-218.5" font-family="Helvetica,sans-Serif" font-size="10.00">&#45;gh/libs/joda/core/modules</text>
<text text-anchor="start" x="216" y="-207.5" font-family="Helvetica,sans-Serif" font-size="10.00">/queryparsing/src/actions</text>
<text text-anchor="middle" x="281" y="-196.5" font-family="Helvetica,sans-Serif" font-size="10.00">/Agg_Actions.h</text>
</a>
</g>
</g>
<!-- Node5&#45;&gt;Node8 -->
<g id="edge7" class="edge">
<title>Node5&#45;&gt;Node8</title>
<path fill="none" stroke="midnightblue" d="M606.21,-289.02C498.87,-262.93 465.99,-279.73 363,-253 360.05,-252.24 357.07,-251.4 354.07,-250.51"/>
<polygon fill="midnightblue" stroke="midnightblue" points="605.59,-292.47 616.14,-291.5 607.29,-285.68 605.59,-292.47"/>
</g>
<!-- Node9 -->
<g id="node9" class="node">
<title>Node9</title>
<g id="a_node9"><a xlink:href="../../d0/d2e/As__Actions_8h.html" target="_top" xlink:title=" ">
<polygon fill="white" stroke="black" points="372,-189.5 372,-252.5 518,-252.5 518,-189.5 372,-189.5"/>
<text text-anchor="start" x="380" y="-240.5" font-family="Helvetica,sans-Serif" font-size="10.00">/home/nico/projects</text>
<text text-anchor="start" x="380" y="-229.5" font-family="Helvetica,sans-Serif" font-size="10.00">/tmp&#45;joda&#45;dirs/JODA</text>
<text text-anchor="start" x="380" y="-218.5" font-family="Helvetica,sans-Serif" font-size="10.00">&#45;gh/libs/joda/core/modules</text>
<text text-anchor="start" x="380" y="-207.5" font-family="Helvetica,sans-Serif" font-size="10.00">/queryparsing/src/actions</text>
<text text-anchor="middle" x="445" y="-196.5" font-family="Helvetica,sans-Serif" font-size="10.00">/As_Actions.h</text>
</a>
</g>
</g>
<!-- Node5&#45;&gt;Node9 -->
<g id="edge9" class="edge">
<title>Node5&#45;&gt;Node9</title>
<path fill="none" stroke="midnightblue" d="M606.57,-286.37C577.84,-274.92 545.97,-262.22 518.19,-251.16"/>
<polygon fill="midnightblue" stroke="midnightblue" points="605.6,-289.75 616.19,-290.2 608.2,-283.25 605.6,-289.75"/>
</g>
<!-- Node10 -->
<g id="node10" class="node">
<title>Node10</title>
<g id="a_node10"><a xlink:href="../../d4/daf/Choose__Actions_8h.html" target="_top" xlink:title=" ">
<polygon fill="white" stroke="black" points="536,-189.5 536,-252.5 682,-252.5 682,-189.5 536,-189.5"/>
<text text-anchor="start" x="544" y="-240.5" font-family="Helvetica,sans-Serif" font-size="10.00">/home/nico/projects</text>
<text text-anchor="start" x="544" y="-229.5" font-family="Helvetica,sans-Serif" font-size="10.00">/tmp&#45;joda&#45;dirs/JODA</text>
<text text-anchor="start" x="544" y="-218.5" font-family="Helvetica,sans-Serif" font-size="10.00">&#45;gh/libs/joda/core/modules</text>
<text text-anchor="start" x="544" y="-207.5" font-family="Helvetica,sans-Serif" font-size="10.00">/queryparsing/src/actions</text>
<text text-anchor="middle" x="609" y="-196.5" font-family="Helvetica,sans-Serif" font-size="10.00">/Choose_Actions.h</text>
</a>
</g>
</g>
<!-- Node5&#45;&gt;Node10 -->
<g id="edge11" class="edge">
<title>Node5&#45;&gt;Node10</title>
<path fill="none" stroke="midnightblue" d="M658.7,-281.4C650.71,-271.85 642.25,-261.74 634.63,-252.63"/>
<polygon fill="midnightblue" stroke="midnightblue" points="656.18,-283.84 665.28,-289.26 661.55,-279.35 656.18,-283.84"/>
</g>
<!-- Node11 -->
<g id="node11" class="node">
<title>Node11</title>
<g id="a_node11"><a xlink:href="../../d8/dc3/Delete__Actions_8h.html" target="_top" xlink:title=" ">
<polygon fill="white" stroke="black" points="700,-189.5 700,-252.5 846,-252.5 846,-189.5 700,-189.5"/>
<text text-anchor="start" x="708" y="-240.5" font-family="Helvetica,sans-Serif" font-size="10.00">/home/nico/projects</text>
<text text-anchor="start" x="708" y="-229.5" font-family="Helvetica,sans-Serif" font-size="10.00">/tmp&#45;joda&#45;dirs/JODA</text>
<text text-anchor="start" x="708" y="-218.5" font-family="Helvetica,sans-Serif" font-size="10.00">&#45;gh/libs/joda/core/modules</text>
<text text-anchor="start" x="708" y="-207.5" font-family="Helvetica,sans-Serif" font-size="10.00">/queryparsing/src/actions</text>
<text text-anchor="middle" x="773" y="-196.5" font-family="Helvetica,sans-Serif" font-size="10.00">/Delete_Actions.h</text>
</a>
</g>
</g>
<!-- Node5&#45;&gt;Node11 -->
<g id="edge13" class="edge">
<title>Node5&#45;&gt;Node11</title>
<path fill="none" stroke="midnightblue" d="M723.3,-281.4C731.29,-271.85 739.75,-261.74 747.37,-252.63"/>
<polygon fill="midnightblue" stroke="midnightblue" points="720.45,-279.35 716.72,-289.26 725.82,-283.84 720.45,-279.35"/>
</g>
<!-- Node12 -->
<g id="node12" class="node">
<title>Node12</title>
<g id="a_node12"><a xlink:href="../../df/d48/Load__Actions_8h.html" target="_top" xlink:title=" ">
<polygon fill="white" stroke="black" points="864,-189.5 864,-252.5 1010,-252.5 1010,-189.5 864,-189.5"/>
<text text-anchor="start" x="872" y="-240.5" font-family="Helvetica,sans-Serif" font-size="10.00">/home/nico/projects</text>
<text text-anchor="start" x="872" y="-229.5" font-family="Helvetica,sans-Serif" font-size="10.00">/tmp&#45;joda&#45;dirs/JODA</text>
<text text-anchor="start" x="872" y="-218.5" font-family="Helvetica,sans-Serif" font-size="10.00">&#45;gh/libs/joda/core/modules</text>
<text text-anchor="start" x="872" y="-207.5" font-family="Helvetica,sans-Serif" font-size="10.00">/queryparsing/src/actions</text>
<text text-anchor="middle" x="937" y="-196.5" font-family="Helvetica,sans-Serif" font-size="10.00">/Load_Actions.h</text>
</a>
</g>
</g>
<!-- Node5&#45;&gt;Node12 -->
<g id="edge15" class="edge">
<title>Node5&#45;&gt;Node12</title>
<path fill="none" stroke="midnightblue" d="M775.43,-286.37C804.16,-274.92 836.03,-262.22 863.81,-251.16"/>
<polygon fill="midnightblue" stroke="midnightblue" points="773.8,-283.25 765.81,-290.2 776.4,-289.75 773.8,-283.25"/>
</g>
<!-- Node13 -->
<g id="node13" class="node">
<title>Node13</title>
<g id="a_node13"><a xlink:href="../../d2/d4b/Store__Actions_8h.html" target="_top" xlink:title=" ">
<polygon fill="white" stroke="black" points="1028,-189.5 1028,-252.5 1174,-252.5 1174,-189.5 1028,-189.5"/>
<text text-anchor="start" x="1036" y="-240.5" font-family="Helvetica,sans-Serif" font-size="10.00">/home/nico/projects</text>
<text text-anchor="start" x="1036" y="-229.5" font-family="Helvetica,sans-Serif" font-size="10.00">/tmp&#45;joda&#45;dirs/JODA</text>
<text text-anchor="start" x="1036" y="-218.5" font-family="Helvetica,sans-Serif" font-size="10.00">&#45;gh/libs/joda/core/modules</text>
<text text-anchor="start" x="1036" y="-207.5" font-family="Helvetica,sans-Serif" font-size="10.00">/queryparsing/src/actions</text>
<text text-anchor="middle" x="1101" y="-196.5" font-family="Helvetica,sans-Serif" font-size="10.00">/Store_Actions.h</text>
</a>
</g>
</g>
<!-- Node5&#45;&gt;Node13 -->
<g id="edge17" class="edge">
<title>Node5&#45;&gt;Node13</title>
<path fill="none" stroke="midnightblue" d="M775.79,-289.02C883.13,-262.93 916.01,-279.73 1019,-253 1021.95,-252.24 1024.93,-251.4 1027.93,-250.51"/>
<polygon fill="midnightblue" stroke="midnightblue" points="774.71,-285.68 765.86,-291.5 776.41,-292.47 774.71,-285.68"/>
</g>
<!-- Node14 -->
<g id="node14" class="node">
<title>Node14</title>
<g id="a_node14"><a xlink:href="../../d4/d6a/Control_8h.html" target="_top" xlink:title=" ">
<polygon fill="white" stroke="black" points="955,-95 955,-147 1103,-147 1103,-95 955,-95"/>
<text text-anchor="start" x="963" y="-135" font-family="Helvetica,sans-Serif" font-size="10.00">/home/nico/projects</text>
<text text-anchor="start" x="963" y="-124" font-family="Helvetica,sans-Serif" font-size="10.00">/tmp&#45;joda&#45;dirs/JODA</text>
<text text-anchor="start" x="963" y="-113" font-family="Helvetica,sans-Serif" font-size="10.00">&#45;gh/libs/joda/core/modules</text>
<text text-anchor="middle" x="1029" y="-102" font-family="Helvetica,sans-Serif" font-size="10.00">/queryparsing/src/Control.h</text>
</a>
</g>
</g>
<!-- Node5&#45;&gt;Node14 -->
<g id="edge19" class="edge">
<title>Node5&#45;&gt;Node14</title>
<path fill="none" stroke="midnightblue" d="M776.06,-289.55C852.43,-279.69 1153.83,-284.86 1183,-253 1202.21,-232.02 1198.59,-212.79 1183,-189 1165.1,-161.69 1133.38,-145.45 1103.37,-135.82"/>
<polygon fill="midnightblue" stroke="midnightblue" points="775.09,-286.17 765.81,-291.27 776.25,-293.07 775.09,-286.17"/>
</g>
<!-- Node7 -->
<g id="node7" class="node">
<title>Node7</title>
<g id="a_node7"><a xlink:href="../../d0/d62/QueryParser_8cpp.html" target="_top" xlink:title=" ">
<polygon fill="white" stroke="black" points="682,-0.5 682,-52.5 864,-52.5 864,-0.5 682,-0.5"/>
<text text-anchor="start" x="690" y="-40.5" font-family="Helvetica,sans-Serif" font-size="10.00">/home/nico/projects</text>
<text text-anchor="start" x="690" y="-29.5" font-family="Helvetica,sans-Serif" font-size="10.00">/tmp&#45;joda&#45;dirs/JODA</text>
<text text-anchor="start" x="690" y="-18.5" font-family="Helvetica,sans-Serif" font-size="10.00">&#45;gh/libs/joda/core/modules</text>
<text text-anchor="middle" x="773" y="-7.5" font-family="Helvetica,sans-Serif" font-size="10.00">/queryparsing/src/QueryParser.cpp</text>
</a>
</g>
</g>
<!-- Node6&#45;&gt;Node7 -->
<g id="edge6" class="edge">
<title>Node6&#45;&gt;Node7</title>
<path fill="none" stroke="midnightblue" d="M724.9,-81.75C733.57,-71.98 742.68,-61.71 750.6,-52.77"/>
<polygon fill="midnightblue" stroke="midnightblue" points="722.09,-79.65 718.08,-89.46 727.33,-84.29 722.09,-79.65"/>
</g>
<!-- Node8&#45;&gt;Node6 -->
<g id="edge8" class="edge">
<title>Node8&#45;&gt;Node6</title>
<path fill="none" stroke="midnightblue" d="M363.9,-188.89C456.17,-162.75 553.16,-144.43 617.88,-133.48"/>
<polygon fill="midnightblue" stroke="midnightblue" points="362.77,-185.57 354.12,-191.69 364.7,-192.3 362.77,-185.57"/>
</g>
<!-- Node9&#45;&gt;Node6 -->
<g id="edge10" class="edge">
<title>Node9&#45;&gt;Node6</title>
<path fill="none" stroke="midnightblue" d="M527.49,-187.14C556.7,-175.5 589.33,-162.5 617.71,-151.19"/>
<polygon fill="midnightblue" stroke="midnightblue" points="526.14,-183.91 518.14,-190.86 528.73,-190.41 526.14,-183.91"/>
</g>
<!-- Node10&#45;&gt;Node6 -->
<g id="edge12" class="edge">
<title>Node10&#45;&gt;Node6</title>
<path fill="none" stroke="midnightblue" d="M641.3,-181.4C649.29,-171.85 657.75,-161.74 665.37,-152.63"/>
<polygon fill="midnightblue" stroke="midnightblue" points="638.45,-179.35 634.72,-189.26 643.82,-183.84 638.45,-179.35"/>
</g>
<!-- Node11&#45;&gt;Node6 -->
<g id="edge14" class="edge">
<title>Node11&#45;&gt;Node6</title>
<path fill="none" stroke="midnightblue" d="M740.7,-181.4C732.71,-171.85 724.25,-161.74 716.63,-152.63"/>
<polygon fill="midnightblue" stroke="midnightblue" points="738.18,-183.84 747.28,-189.26 743.55,-179.35 738.18,-183.84"/>
</g>
<!-- Node12&#45;&gt;Node6 -->
<g id="edge16" class="edge">
<title>Node12&#45;&gt;Node6</title>
<path fill="none" stroke="midnightblue" d="M854.51,-187.14C825.3,-175.5 792.67,-162.5 764.29,-151.19"/>
<polygon fill="midnightblue" stroke="midnightblue" points="853.27,-190.41 863.86,-190.86 855.86,-183.91 853.27,-190.41"/>
</g>
<!-- Node13&#45;&gt;Node6 -->
<g id="edge18" class="edge">
<title>Node13&#45;&gt;Node6</title>
<path fill="none" stroke="midnightblue" d="M1018.1,-188.89C925.83,-162.75 828.84,-144.43 764.12,-133.48"/>
<polygon fill="midnightblue" stroke="midnightblue" points="1017.3,-192.3 1027.88,-191.69 1019.23,-185.57 1017.3,-192.3"/>
</g>
<!-- Node14&#45;&gt;Node7 -->
<g id="edge20" class="edge">
<title>Node14&#45;&gt;Node7</title>
<path fill="none" stroke="midnightblue" d="M950.16,-91.51C915.7,-79.06 875.64,-64.59 842.33,-52.55"/>
<polygon fill="midnightblue" stroke="midnightblue" points="949.13,-94.86 959.72,-94.97 951.51,-88.28 949.13,-94.86"/>
</g>
</g>
</svg>
