<?xml version="1.0" encoding="UTF-8" standalone="no"?>
<!DOCTYPE svg PUBLIC "-//W3C//DTD SVG 1.1//EN"
 "http://www.w3.org/Graphics/SVG/1.1/DTD/svg11.dtd">
<!-- Generated by graphviz version 2.43.0 (0)
 -->
<!-- Title: joda::query::AttributeStatAggregator::AttStatHandler::merge Pages: 1 -->
<svg width="369pt" height="39pt"
 viewBox="0.00 0.00 369.00 39.00" xmlns="http://www.w3.org/2000/svg" xmlns:xlink="http://www.w3.org/1999/xlink">
<g id="graph0" class="graph" transform="scale(1 1) rotate(0) translate(4 35)">
<title>joda::query::AttributeStatAggregator::AttStatHandler::merge</title>
<polygon fill="white" stroke="transparent" points="-4,4 -4,-35 365,-35 365,4 -4,4"/>
<!-- Node1 -->
<g id="node1" class="node">
<title>Node1</title>
<g id="a_node1"><a xlink:title=" ">
<polygon fill="#bfbfbf" stroke="black" points="175,-0.5 175,-30.5 361,-30.5 361,-0.5 175,-0.5"/>
<text text-anchor="start" x="183" y="-18.5" font-family="Helvetica,sans-Serif" font-size="10.00">joda::query::AttributeStat</text>
<text text-anchor="middle" x="268" y="-7.5" font-family="Helvetica,sans-Serif" font-size="10.00">Aggregator::AttStatHandler::merge</text>
</a>
</g>
</g>
<!-- Node2 -->
<g id="node2" class="node">
<title>Node2</title>
<g id="a_node2"><a xlink:href="../../db/d14/classjoda_1_1query_1_1AttributeStatAggregator.html#a74aa5b5391bec4ce2f88e61cdf963fa1" target="_top" xlink:title=" ">
<polygon fill="white" stroke="black" points="0,-0.5 0,-30.5 139,-30.5 139,-0.5 0,-0.5"/>
<text text-anchor="start" x="8" y="-18.5" font-family="Helvetica,sans-Serif" font-size="10.00">joda::query::AttributeStat</text>
<text text-anchor="middle" x="69.5" y="-7.5" font-family="Helvetica,sans-Serif" font-size="10.00">Aggregator::merge</text>
</a>
</g>
</g>
<!-- Node1&#45;&gt;Node2 -->
<g id="edge1" class="edge">
<title>Node1&#45;&gt;Node2</title>
<path fill="none" stroke="midnightblue" d="M164.68,-15.5C156.07,-15.5 147.51,-15.5 139.25,-15.5"/>
<polygon fill="midnightblue" stroke="midnightblue" points="164.79,-19 174.79,-15.5 164.79,-12 164.79,-19"/>
</g>
</g>
</svg>
