<?xml version="1.0" encoding="UTF-8" standalone="no"?>
<!DOCTYPE svg PUBLIC "-//W3C//DTD SVG 1.1//EN"
 "http://www.w3.org/Graphics/SVG/1.1/DTD/svg11.dtd">
<!-- Generated by graphviz version 2.43.0 (0)
 -->
<!-- Title: joda::query::AttributeStatAggregator::AttStatHandler::Key Pages: 1 -->
<svg width="366pt" height="50pt"
 viewBox="0.00 0.00 366.00 50.00" xmlns="http://www.w3.org/2000/svg" xmlns:xlink="http://www.w3.org/1999/xlink">
<g id="graph0" class="graph" transform="scale(1 1) rotate(0) translate(4 46)">
<title>joda::query::AttributeStatAggregator::AttStatHandler::Key</title>
<polygon fill="white" stroke="transparent" points="-4,4 -4,-46 362,-46 362,4 -4,4"/>
<!-- Node1 -->
<g id="node1" class="node">
<title>Node1</title>
<g id="a_node1"><a xlink:title=" ">
<polygon fill="#bfbfbf" stroke="black" points="0,-6 0,-36 173,-36 173,-6 0,-6"/>
<text text-anchor="start" x="8" y="-24" font-family="Helvetica,sans-Serif" font-size="10.00">joda::query::AttributeStat</text>
<text text-anchor="middle" x="86.5" y="-13" font-family="Helvetica,sans-Serif" font-size="10.00">Aggregator::AttStatHandler::Key</text>
</a>
</g>
</g>
<!-- Node2 -->
<g id="node2" class="node">
<title>Node2</title>
<g id="a_node2"><a xlink:href="../../d0/d84/structjoda_1_1query_1_1AttributeStatAggregator_1_1AttStatHandler_1_1Node.html#a66d861a1e6b0ca89a88848c832b07e03" target="_top" xlink:title=" ">
<polygon fill="white" stroke="black" points="209,-0.5 209,-41.5 358,-41.5 358,-0.5 209,-0.5"/>
<text text-anchor="start" x="217" y="-29.5" font-family="Helvetica,sans-Serif" font-size="10.00">joda::query::AttributeStat</text>
<text text-anchor="start" x="217" y="-18.5" font-family="Helvetica,sans-Serif" font-size="10.00">Aggregator::AttStatHandler</text>
<text text-anchor="middle" x="283.5" y="-7.5" font-family="Helvetica,sans-Serif" font-size="10.00">::Node::findChild</text>
</a>
</g>
</g>
<!-- Node1&#45;&gt;Node2 -->
<g id="edge1" class="edge">
<title>Node1&#45;&gt;Node2</title>
<path fill="none" stroke="midnightblue" d="M173.03,-21C181.54,-21 190.18,-21 198.67,-21"/>
<polygon fill="midnightblue" stroke="midnightblue" points="198.94,-24.5 208.94,-21 198.94,-17.5 198.94,-24.5"/>
</g>
</g>
</svg>
