<?xml version="1.0" encoding="UTF-8" standalone="no"?>
<!DOCTYPE svg PUBLIC "-//W3C//DTD SVG 1.1//EN"
 "http://www.w3.org/Graphics/SVG/1.1/DTD/svg11.dtd">
<!-- Generated by graphviz version 2.43.0 (0)
 -->
<!-- Title: joda::query::ValToPredicate::isConstTrue Pages: 1 -->
<svg width="552pt" height="102pt"
 viewBox="0.00 0.00 552.00 101.50" xmlns="http://www.w3.org/2000/svg" xmlns:xlink="http://www.w3.org/1999/xlink">
<g id="graph0" class="graph" transform="scale(1 1) rotate(0) translate(4 97.5)">
<title>joda::query::ValToPredicate::isConstTrue</title>
<polygon fill="white" stroke="transparent" points="-4,4 -4,-97.5 548,-97.5 548,4 -4,4"/>
<!-- Node1 -->
<g id="node1" class="node">
<title>Node1</title>
<g id="a_node1"><a xlink:title=" ">
<polygon fill="#bfbfbf" stroke="black" points="396,-24.5 396,-54.5 544,-54.5 544,-24.5 396,-24.5"/>
<text text-anchor="start" x="404" y="-42.5" font-family="Helvetica,sans-Serif" font-size="10.00">joda::query::ValToPredicate</text>
<text text-anchor="middle" x="470" y="-31.5" font-family="Helvetica,sans-Serif" font-size="10.00">::isConstTrue</text>
</a>
</g>
</g>
<!-- Node2 -->
<g id="node2" class="node">
<title>Node2</title>
<g id="a_node2"><a xlink:href="../../d5/de6/classjoda_1_1query_1_1Query.html#a7e5c8c27c32a53f33225dfec3c2ad5fe" target="_top" xlink:title=" ">
<polygon fill="white" stroke="black" points="228.5,-49.5 228.5,-79.5 334.5,-79.5 334.5,-49.5 228.5,-49.5"/>
<text text-anchor="start" x="236.5" y="-67.5" font-family="Helvetica,sans-Serif" font-size="10.00">joda::query::Query</text>
<text text-anchor="middle" x="281.5" y="-56.5" font-family="Helvetica,sans-Serif" font-size="10.00">::chooseIsConst</text>
</a>
</g>
</g>
<!-- Node1&#45;&gt;Node2 -->
<g id="edge1" class="edge">
<title>Node1&#45;&gt;Node2</title>
<path fill="none" stroke="midnightblue" d="M385.69,-50.67C368.35,-52.99 350.55,-55.38 334.72,-57.5"/>
<polygon fill="midnightblue" stroke="midnightblue" points="386.38,-54.11 395.83,-49.31 385.45,-47.17 386.38,-54.11"/>
</g>
<!-- Node5 -->
<g id="node5" class="node">
<title>Node5</title>
<g id="a_node5"><a xlink:href="../../d5/d78/classjoda_1_1query_1_1StaticEvalVisitor.html#a922f94aa17fe90462679820782ae4bc1" target="_top" xlink:title=" ">
<polygon fill="white" stroke="black" points="203,-0.5 203,-30.5 360,-30.5 360,-0.5 203,-0.5"/>
<text text-anchor="start" x="211" y="-18.5" font-family="Helvetica,sans-Serif" font-size="10.00">joda::query::StaticEvalVisitor</text>
<text text-anchor="middle" x="281.5" y="-7.5" font-family="Helvetica,sans-Serif" font-size="10.00">::visit</text>
</a>
</g>
</g>
<!-- Node1&#45;&gt;Node5 -->
<g id="edge4" class="edge">
<title>Node1&#45;&gt;Node5</title>
<path fill="none" stroke="midnightblue" d="M385.84,-28.8C377.27,-27.7 368.58,-26.58 360.07,-25.48"/>
<polygon fill="midnightblue" stroke="midnightblue" points="385.46,-32.28 395.83,-30.08 386.35,-25.34 385.46,-32.28"/>
</g>
<!-- Node3 -->
<g id="node3" class="node">
<title>Node3</title>
<g id="a_node3"><a xlink:href="../../d5/d24/classConstExecutor.html#ac243166e88687b62fc9c691b5a06f810" target="_top" xlink:title=" ">
<polygon fill="white" stroke="black" points="0,-74 0,-93 167,-93 167,-74 0,-74"/>
<text text-anchor="middle" x="83.5" y="-81" font-family="Helvetica,sans-Serif" font-size="10.00">ConstExecutor::estimatedWork</text>
</a>
</g>
</g>
<!-- Node2&#45;&gt;Node3 -->
<g id="edge2" class="edge">
<title>Node2&#45;&gt;Node3</title>
<path fill="none" stroke="midnightblue" d="M218.08,-70.55C201.88,-72.12 184.17,-73.84 167.1,-75.49"/>
<polygon fill="midnightblue" stroke="midnightblue" points="218.87,-73.99 228.49,-69.54 218.2,-67.02 218.87,-73.99"/>
</g>
<!-- Node4 -->
<g id="node4" class="node">
<title>Node4</title>
<g id="a_node4"><a xlink:href="../../d5/d24/classConstExecutor.html#a897c8c4f90e5c9ee5176ee7df7b4142b" target="_top" xlink:title=" ">
<polygon fill="white" stroke="black" points="18,-36 18,-55 149,-55 149,-36 18,-36"/>
<text text-anchor="middle" x="83.5" y="-43" font-family="Helvetica,sans-Serif" font-size="10.00">ConstExecutor::execute</text>
</a>
</g>
</g>
<!-- Node2&#45;&gt;Node4 -->
<g id="edge3" class="edge">
<title>Node2&#45;&gt;Node4</title>
<path fill="none" stroke="midnightblue" d="M218.53,-58.49C196.39,-56.35 171.39,-53.92 149.03,-51.76"/>
<polygon fill="midnightblue" stroke="midnightblue" points="218.2,-61.98 228.49,-59.46 218.87,-55.01 218.2,-61.98"/>
</g>
</g>
</svg>
