<?xml version="1.0" encoding="UTF-8" standalone="no"?>
<!DOCTYPE svg PUBLIC "-//W3C//DTD SVG 1.1//EN"
 "http://www.w3.org/Graphics/SVG/1.1/DTD/svg11.dtd">
<!-- Generated by graphviz version 2.43.0 (0)
 -->
<!-- Title: moodycamel::ConcurrentQueue::try_dequeue Pages: 1 -->
<svg width="976pt" height="279pt"
 viewBox="0.00 0.00 976.00 279.00" xmlns="http://www.w3.org/2000/svg" xmlns:xlink="http://www.w3.org/1999/xlink">
<g id="graph0" class="graph" transform="scale(1 1) rotate(0) translate(4 275)">
<title>moodycamel::ConcurrentQueue::try_dequeue</title>
<polygon fill="white" stroke="transparent" points="-4,4 -4,-275 972,-275 972,4 -4,4"/>
<!-- Node1 -->
<g id="node1" class="node">
<title>Node1</title>
<g id="a_node1"><a xlink:title=" ">
<polygon fill="#bfbfbf" stroke="black" points="797,-73.5 797,-103.5 968,-103.5 968,-73.5 797,-73.5"/>
<text text-anchor="start" x="805" y="-91.5" font-family="Helvetica,sans-Serif" font-size="10.00">moodycamel::ConcurrentQueue</text>
<text text-anchor="middle" x="882.5" y="-80.5" font-family="Helvetica,sans-Serif" font-size="10.00">::try_dequeue</text>
</a>
</g>
</g>
<!-- Node2 -->
<g id="node2" class="node">
<title>Node2</title>
<g id="a_node2"><a xlink:href="../../d1/d30/structJODA__SHARED__QUEUE.html#a85346f08f256c2b939e9fef99004d2cf" target="_top" xlink:title=" ">
<polygon fill="white" stroke="black" points="603.5,-147.5 603.5,-177.5 736.5,-177.5 736.5,-147.5 603.5,-147.5"/>
<text text-anchor="start" x="611.5" y="-165.5" font-family="Helvetica,sans-Serif" font-size="10.00">JODA_SHARED_QUEUE::</text>
<text text-anchor="middle" x="670" y="-154.5" font-family="Helvetica,sans-Serif" font-size="10.00">retrieve</text>
</a>
</g>
</g>
<!-- Node1&#45;&gt;Node2 -->
<g id="edge1" class="edge">
<title>Node1&#45;&gt;Node2</title>
<path fill="none" stroke="midnightblue" d="M839.05,-107.73C816.2,-117.67 787.37,-129.56 761,-138.5 751.66,-141.67 741.66,-144.69 731.84,-147.45"/>
<polygon fill="midnightblue" stroke="midnightblue" points="840.7,-110.83 848.45,-103.61 837.89,-104.42 840.7,-110.83"/>
</g>
<!-- Node11 -->
<g id="node11" class="node">
<title>Node11</title>
<g id="a_node11"><a xlink:href="../../db/dea/classmoodycamel_1_1BlockingConcurrentQueue.html#a80e4c16e804add061f61b3399679e83b" target="_top" xlink:title=" ">
<polygon fill="white" stroke="black" points="579,-98.5 579,-128.5 761,-128.5 761,-98.5 579,-98.5"/>
<text text-anchor="start" x="587" y="-116.5" font-family="Helvetica,sans-Serif" font-size="10.00">moodycamel::BlockingConcurrent</text>
<text text-anchor="middle" x="670" y="-105.5" font-family="Helvetica,sans-Serif" font-size="10.00">Queue::try_dequeue</text>
</a>
</g>
</g>
<!-- Node1&#45;&gt;Node11 -->
<g id="edge10" class="edge">
<title>Node1&#45;&gt;Node11</title>
<path fill="none" stroke="midnightblue" d="M786.79,-99.75C778.23,-100.77 769.57,-101.79 761.04,-102.81"/>
<polygon fill="midnightblue" stroke="midnightblue" points="787.27,-103.22 796.79,-98.56 786.45,-96.26 787.27,-103.22"/>
</g>
<!-- Node12 -->
<g id="node12" class="node">
<title>Node12</title>
<g id="a_node12"><a xlink:href="../../db/dea/classmoodycamel_1_1BlockingConcurrentQueue.html#a053c9fe511fcddfeff03835ac3169b53" target="_top" xlink:title=" ">
<polygon fill="white" stroke="black" points="579,-49.5 579,-79.5 761,-79.5 761,-49.5 579,-49.5"/>
<text text-anchor="start" x="587" y="-67.5" font-family="Helvetica,sans-Serif" font-size="10.00">moodycamel::BlockingConcurrent</text>
<text text-anchor="middle" x="670" y="-56.5" font-family="Helvetica,sans-Serif" font-size="10.00">Queue::wait_dequeue</text>
</a>
</g>
</g>
<!-- Node1&#45;&gt;Node12 -->
<g id="edge11" class="edge">
<title>Node1&#45;&gt;Node12</title>
<path fill="none" stroke="midnightblue" d="M786.79,-77.7C778.23,-76.73 769.57,-75.74 761.04,-74.77"/>
<polygon fill="midnightblue" stroke="midnightblue" points="786.46,-81.19 796.79,-78.84 787.25,-74.23 786.46,-81.19"/>
</g>
<!-- Node13 -->
<g id="node13" class="node">
<title>Node13</title>
<g id="a_node13"><a xlink:href="../../db/dea/classmoodycamel_1_1BlockingConcurrentQueue.html#aa65cc5eb1ce0debd589f4e0258f8ce99" target="_top" xlink:title=" ">
<polygon fill="white" stroke="black" points="579,-0.5 579,-30.5 761,-30.5 761,-0.5 579,-0.5"/>
<text text-anchor="start" x="587" y="-18.5" font-family="Helvetica,sans-Serif" font-size="10.00">moodycamel::BlockingConcurrent</text>
<text text-anchor="middle" x="670" y="-7.5" font-family="Helvetica,sans-Serif" font-size="10.00">Queue::wait_dequeue_timed</text>
</a>
</g>
</g>
<!-- Node1&#45;&gt;Node13 -->
<g id="edge12" class="edge">
<title>Node1&#45;&gt;Node13</title>
<path fill="none" stroke="midnightblue" d="M838.28,-69.39C815.54,-59.72 787.04,-48.23 761,-39.5 751.65,-36.37 741.64,-33.36 731.83,-30.6"/>
<polygon fill="midnightblue" stroke="midnightblue" points="837.08,-72.68 847.65,-73.4 839.84,-66.25 837.08,-72.68"/>
</g>
<!-- Node3 -->
<g id="node3" class="node">
<title>Node3</title>
<g id="a_node3"><a xlink:href="../../dc/de9/classQueryPlan.html#aa16031eccff01572dec59f8fb8cef83a" target="_top" xlink:title=" ">
<polygon fill="white" stroke="black" points="391,-197 391,-216 513,-216 513,-197 391,-197"/>
<text text-anchor="middle" x="452" y="-204" font-family="Helvetica,sans-Serif" font-size="10.00">QueryPlan::aggregate</text>
</a>
</g>
</g>
<!-- Node2&#45;&gt;Node3 -->
<g id="edge2" class="edge">
<title>Node2&#45;&gt;Node3</title>
<path fill="none" stroke="midnightblue" d="M593.36,-177.91C562.24,-184.25 527.17,-191.39 499.87,-196.95"/>
<polygon fill="midnightblue" stroke="midnightblue" points="594.21,-181.31 603.31,-175.88 592.82,-174.45 594.21,-181.31"/>
</g>
<!-- Node8 -->
<g id="node8" class="node">
<title>Node8</title>
<g id="a_node8"><a xlink:href="../../d9/d71/classIExportDestination.html#a06dd38ef162a1e1ad7d05a27ad474c10" target="_top" xlink:title=" ">
<polygon fill="white" stroke="black" points="395,-147.5 395,-177.5 509,-177.5 509,-147.5 395,-147.5"/>
<text text-anchor="start" x="403" y="-165.5" font-family="Helvetica,sans-Serif" font-size="10.00">IExportDestination</text>
<text text-anchor="middle" x="452" y="-154.5" font-family="Helvetica,sans-Serif" font-size="10.00">::consumeContainer</text>
</a>
</g>
</g>
<!-- Node2&#45;&gt;Node8 -->
<g id="edge7" class="edge">
<title>Node2&#45;&gt;Node8</title>
<path fill="none" stroke="midnightblue" d="M593.29,-162.5C565.65,-162.5 534.9,-162.5 509.26,-162.5"/>
<polygon fill="midnightblue" stroke="midnightblue" points="593.31,-166 603.31,-162.5 593.31,-159 593.31,-166"/>
</g>
<!-- Node10 -->
<g id="node10" class="node">
<title>Node10</title>
<g id="a_node10"><a xlink:href="../../d2/dcc/classJSONStorage.html#a21a6cf9c042c26be09da293387871cb0" target="_top" xlink:title=" ">
<polygon fill="white" stroke="black" points="368.5,-98.5 368.5,-128.5 535.5,-128.5 535.5,-98.5 368.5,-98.5"/>
<text text-anchor="start" x="376.5" y="-116.5" font-family="Helvetica,sans-Serif" font-size="10.00">JSONStorage::insertDocuments</text>
<text text-anchor="middle" x="452" y="-105.5" font-family="Helvetica,sans-Serif" font-size="10.00">Queue</text>
</a>
</g>
</g>
<!-- Node2&#45;&gt;Node10 -->
<g id="edge9" class="edge">
<title>Node2&#45;&gt;Node10</title>
<path fill="none" stroke="midnightblue" d="M593.5,-145.37C569.4,-139.9 542.91,-133.9 519.49,-128.58"/>
<polygon fill="midnightblue" stroke="midnightblue" points="592.79,-148.8 603.31,-147.6 594.34,-141.97 592.79,-148.8"/>
</g>
<!-- Node4 -->
<g id="node4" class="node">
<title>Node4</title>
<g id="a_node4"><a xlink:href="../../dc/de9/classQueryPlan.html#ac5a086945e484f07e422bca233cce06b" target="_top" xlink:title=" ">
<polygon fill="white" stroke="black" points="185,-197 185,-216 325,-216 325,-197 185,-197"/>
<text text-anchor="middle" x="255" y="-204" font-family="Helvetica,sans-Serif" font-size="10.00">QueryPlan::executeQuery</text>
</a>
</g>
</g>
<!-- Node3&#45;&gt;Node4 -->
<g id="edge3" class="edge">
<title>Node3&#45;&gt;Node4</title>
<path fill="none" stroke="midnightblue" d="M380.71,-206.5C362.61,-206.5 343.15,-206.5 325.11,-206.5"/>
<polygon fill="midnightblue" stroke="midnightblue" points="380.9,-210 390.9,-206.5 380.9,-203 380.9,-210"/>
</g>
<!-- Node5 -->
<g id="node5" class="node">
<title>Node5</title>
<g id="a_node5"><a xlink:href="../../d5/de2/classjoda_1_1cli_1_1CLI.html#a5f1d2148a798cefa6391ae1f6b1142ba" target="_top" xlink:title=" ">
<polygon fill="white" stroke="black" points="6,-240.5 6,-270.5 143,-270.5 143,-240.5 6,-240.5"/>
<text text-anchor="start" x="14" y="-258.5" font-family="Helvetica,sans-Serif" font-size="10.00">joda::cli::CLI::benchmark</text>
<text text-anchor="middle" x="74.5" y="-247.5" font-family="Helvetica,sans-Serif" font-size="10.00">Query</text>
</a>
</g>
</g>
<!-- Node4&#45;&gt;Node5 -->
<g id="edge4" class="edge">
<title>Node4&#45;&gt;Node5</title>
<path fill="none" stroke="midnightblue" d="M209.27,-218.78C185.32,-225.35 155.61,-233.51 130.28,-240.46"/>
<polygon fill="midnightblue" stroke="midnightblue" points="210.44,-222.09 219.16,-216.06 208.59,-215.34 210.44,-222.09"/>
</g>
<!-- Node6 -->
<g id="node6" class="node">
<title>Node6</title>
<g id="a_node6"><a xlink:href="../../d5/de2/classjoda_1_1cli_1_1CLI.html#a3d27f72079d6aee39307eaa0edfe6e89" target="_top" xlink:title=" ">
<polygon fill="white" stroke="black" points="4.5,-191.5 4.5,-221.5 144.5,-221.5 144.5,-191.5 4.5,-191.5"/>
<text text-anchor="start" x="12.5" y="-209.5" font-family="Helvetica,sans-Serif" font-size="10.00">joda::cli::CLI::executeNon</text>
<text text-anchor="middle" x="74.5" y="-198.5" font-family="Helvetica,sans-Serif" font-size="10.00">InteractiveQuery</text>
</a>
</g>
</g>
<!-- Node4&#45;&gt;Node6 -->
<g id="edge5" class="edge">
<title>Node4&#45;&gt;Node6</title>
<path fill="none" stroke="midnightblue" d="M174.96,-206.5C164.85,-206.5 154.56,-206.5 144.62,-206.5"/>
<polygon fill="midnightblue" stroke="midnightblue" points="174.99,-210 184.99,-206.5 174.99,-203 174.99,-210"/>
</g>
<!-- Node7 -->
<g id="node7" class="node">
<title>Node7</title>
<g id="a_node7"><a xlink:href="../../d5/de2/classjoda_1_1cli_1_1CLI.html#a0b942c696bdd7631f911b4014e549685" target="_top" xlink:title=" ">
<polygon fill="white" stroke="black" points="0,-153 0,-172 149,-172 149,-153 0,-153"/>
<text text-anchor="middle" x="74.5" y="-160" font-family="Helvetica,sans-Serif" font-size="10.00">joda::cli::CLI::executeQuery</text>
</a>
</g>
</g>
<!-- Node4&#45;&gt;Node7 -->
<g id="edge6" class="edge">
<title>Node4&#45;&gt;Node7</title>
<path fill="none" stroke="midnightblue" d="M205.44,-194.53C176.75,-187.46 140.92,-178.63 114.16,-172.03"/>
<polygon fill="midnightblue" stroke="midnightblue" points="204.72,-197.96 215.27,-196.95 206.4,-191.16 204.72,-197.96"/>
</g>
<!-- Node9 -->
<g id="node9" class="node">
<title>Node9</title>
<g id="a_node9"><a xlink:href="../../d9/d71/classIExportDestination.html#a9376079c654ceef8e4c1524684b2e85a" target="_top" xlink:title=" ">
<polygon fill="white" stroke="black" points="201.5,-147.5 201.5,-177.5 308.5,-177.5 308.5,-147.5 201.5,-147.5"/>
<text text-anchor="start" x="209.5" y="-165.5" font-family="Helvetica,sans-Serif" font-size="10.00">IExportDestination</text>
<text text-anchor="middle" x="255" y="-154.5" font-family="Helvetica,sans-Serif" font-size="10.00">::consume</text>
</a>
</g>
</g>
<!-- Node8&#45;&gt;Node9 -->
<g id="edge8" class="edge">
<title>Node8&#45;&gt;Node9</title>
<path fill="none" stroke="midnightblue" d="M384.8,-162.5C359.99,-162.5 332.16,-162.5 308.74,-162.5"/>
<polygon fill="midnightblue" stroke="midnightblue" points="384.86,-166 394.86,-162.5 384.86,-159 384.86,-166"/>
</g>
<!-- Node14 -->
<g id="node14" class="node">
<title>Node14</title>
<g id="a_node14"><a xlink:href="../../db/dea/classmoodycamel_1_1BlockingConcurrentQueue.html#a3a458735b9f020e7a72ec77e6492ec63" target="_top" xlink:title=" ">
<polygon fill="white" stroke="black" points="361,-0.5 361,-30.5 543,-30.5 543,-0.5 361,-0.5"/>
<text text-anchor="start" x="369" y="-18.5" font-family="Helvetica,sans-Serif" font-size="10.00">moodycamel::BlockingConcurrent</text>
<text text-anchor="middle" x="452" y="-7.5" font-family="Helvetica,sans-Serif" font-size="10.00">Queue::wait_dequeue_timed</text>
</a>
</g>
</g>
<!-- Node13&#45;&gt;Node14 -->
<g id="edge13" class="edge">
<title>Node13&#45;&gt;Node14</title>
<path fill="none" stroke="midnightblue" d="M568.94,-15.5C560.37,-15.5 551.73,-15.5 543.24,-15.5"/>
<polygon fill="midnightblue" stroke="midnightblue" points="568.96,-19 578.96,-15.5 568.96,-12 568.96,-19"/>
</g>
</g>
</svg>
