<?xml version="1.0" encoding="UTF-8" standalone="no"?>
<!DOCTYPE svg PUBLIC "-//W3C//DTD SVG 1.1//EN"
 "http://www.w3.org/Graphics/SVG/1.1/DTD/svg11.dtd">
<!-- Generated by graphviz version 2.43.0 (0)
 -->
<!-- Title: moodycamel::ConcurrentQueue::try_enqueue_bulk Pages: 1 -->
<svg width="397pt" height="78pt"
 viewBox="0.00 0.00 397.00 77.50" xmlns="http://www.w3.org/2000/svg" xmlns:xlink="http://www.w3.org/1999/xlink">
<g id="graph0" class="graph" transform="scale(1 1) rotate(0) translate(4 73.5)">
<title>moodycamel::ConcurrentQueue::try_enqueue_bulk</title>
<polygon fill="white" stroke="transparent" points="-4,4 -4,-73.5 393,-73.5 393,4 -4,4"/>
<!-- Node1 -->
<g id="node1" class="node">
<title>Node1</title>
<g id="a_node1"><a xlink:title=" ">
<polygon fill="#bfbfbf" stroke="black" points="218,-22.5 218,-52.5 389,-52.5 389,-22.5 218,-22.5"/>
<text text-anchor="start" x="226" y="-40.5" font-family="Helvetica,sans-Serif" font-size="10.00">moodycamel::ConcurrentQueue</text>
<text text-anchor="middle" x="303.5" y="-29.5" font-family="Helvetica,sans-Serif" font-size="10.00">::try_enqueue_bulk</text>
</a>
</g>
</g>
<!-- Node2 -->
<g id="node2" class="node">
<title>Node2</title>
<g id="a_node2"><a xlink:href="../../d1/d30/structJODA__SHARED__QUEUE.html#a28e91bc3e70d3eb09ac9a5cc0bd3b2ed" target="_top" xlink:title=" ">
<polygon fill="white" stroke="black" points="13,-50 13,-69 169,-69 169,-50 13,-50"/>
<text text-anchor="middle" x="91" y="-57" font-family="Helvetica,sans-Serif" font-size="10.00">JODA_SHARED_QUEUE::send</text>
</a>
</g>
</g>
<!-- Node1&#45;&gt;Node2 -->
<g id="edge1" class="edge">
<title>Node1&#45;&gt;Node2</title>
<path fill="none" stroke="midnightblue" d="M207.52,-47.43C194.65,-48.77 181.56,-50.14 169.05,-51.45"/>
<polygon fill="midnightblue" stroke="midnightblue" points="208.21,-50.87 217.79,-46.35 207.48,-43.91 208.21,-50.87"/>
</g>
<!-- Node3 -->
<g id="node3" class="node">
<title>Node3</title>
<g id="a_node3"><a xlink:href="../../db/dea/classmoodycamel_1_1BlockingConcurrentQueue.html#a3790c1d2d04de054fc8fa9bc4d731921" target="_top" xlink:title=" ">
<polygon fill="white" stroke="black" points="0,-0.5 0,-30.5 182,-30.5 182,-0.5 0,-0.5"/>
<text text-anchor="start" x="8" y="-18.5" font-family="Helvetica,sans-Serif" font-size="10.00">moodycamel::BlockingConcurrent</text>
<text text-anchor="middle" x="91" y="-7.5" font-family="Helvetica,sans-Serif" font-size="10.00">Queue::try_enqueue_bulk</text>
</a>
</g>
</g>
<!-- Node1&#45;&gt;Node3 -->
<g id="edge2" class="edge">
<title>Node1&#45;&gt;Node3</title>
<path fill="none" stroke="midnightblue" d="M207.79,-27.6C199.23,-26.71 190.57,-25.8 182.04,-24.91"/>
<polygon fill="midnightblue" stroke="midnightblue" points="207.48,-31.09 217.79,-28.65 208.21,-24.13 207.48,-31.09"/>
</g>
</g>
</svg>
