<?xml version="1.0" encoding="UTF-8" standalone="no"?>
<!DOCTYPE svg PUBLIC "-//W3C//DTD SVG 1.1//EN"
 "http://www.w3.org/Graphics/SVG/1.1/DTD/svg11.dtd">
<!-- Generated by graphviz version 2.43.0 (0)
 -->
<!-- Title: joda::network::JodaAPIException Pages: 1 -->
<!--zoomable 284 -->
<svg id="main" version="1.1" xmlns="http://www.w3.org/2000/svg" xmlns:xlink="http://www.w3.org/1999/xlink" xml:space="preserve" onload="init(evt)">
<style type="text/css"><![CDATA[
.edge:hover path { stroke: red; }
.edge:hover polygon { stroke: red; fill: red; }
]]></style>
<script type="text/javascript"><![CDATA[
var edges = document.getElementsByTagName('g');
if (edges && edges.length) {
  for (var i=0;i<edges.length;i++) {
    if (edges[i].id.substr(0,4)=='edge') {
      edges[i].setAttribute('class','edge');
    }
  }
}
]]></script>
        <defs>
                <circle id="rim" cx="0" cy="0" r="7"/>
                <circle id="rim2" cx="0" cy="0" r="3.5"/>
                <g id="zoomPlus">
                        <use xlink:href="#rim" fill="#404040">
                                <set attributeName="fill" to="#808080" begin="zoomplus.mouseover" end="zoomplus.mouseout"/>
                        </use>
                        <path d="M-4,0h8M0,-4v8" fill="none" stroke="white" stroke-width="1.5" pointer-events="none"/>
                </g>
                <g id="zoomMin">
                        <use xlink:href="#rim" fill="#404040">
                                <set attributeName="fill" to="#808080" begin="zoomminus.mouseover" end="zoomminus.mouseout"/>
                        </use>
                        <path d="M-4,0h8" fill="none" stroke="white" stroke-width="1.5" pointer-events="none"/>
                </g>
                <g id="dirArrow">
                        <path fill="none" stroke="white" stroke-width="1.5" d="M0,-3.0v7 M-2.5,-0.5L0,-3.0L2.5,-0.5"/>
                </g>
               <g id="resetDef">
                       <use xlink:href="#rim2" fill="#404040">
                               <set attributeName="fill" to="#808080" begin="reset.mouseover" end="reset.mouseout"/>
                       </use>
               </g>
        </defs>

<script type="text/javascript">
var viewWidth = 663;
var viewHeight = 284;
var sectionId = 'dynsection-0';
</script>
<script xlink:href="../../svgpan.js"/>
<svg id="graph" class="graph">
<g id="viewport">
<title>joda::network::JodaAPIException</title>
<polygon fill="white" stroke="transparent" points="-4,4 -4,-280 659,-280 659,4 -4,4"/>
<!-- Node1 -->
<g id="node1" class="node">
<title>Node1</title>
<g id="a_node1"><a xlink:title=" ">
<polygon fill="#bfbfbf" stroke="black" points="262,-128 262,-147 436,-147 436,-128 262,-128"/>
<text text-anchor="middle" x="349" y="-135" font-family="Helvetica,sans-Serif" font-size="10.00">joda::network::JodaAPIException</text>
</a>
</g>
</g>
<!-- Node4 -->
<g id="node4" class="node">
<title>Node4</title>
<g id="a_node4"><a xlink:href="../../db/dbe/classjoda_1_1network_1_1apiv2_1_1JodaAPIVersionException.html" target="_top" xlink:title=" ">
<polygon fill="white" stroke="black" points="492,-245.5 492,-275.5 635,-275.5 635,-245.5 492,-245.5"/>
<text text-anchor="start" x="500" y="-263.5" font-family="Helvetica,sans-Serif" font-size="10.00">joda::network::apiv2</text>
<text text-anchor="middle" x="563.5" y="-252.5" font-family="Helvetica,sans-Serif" font-size="10.00">::JodaAPIVersionException</text>
</a>
</g>
</g>
<!-- Node1&#45;&gt;Node4 -->
<g id="edge3" class="edge">
<title>Node1&#45;&gt;Node4</title>
<path fill="none" stroke="midnightblue" d="M366.3,-154.63C388.27,-176.74 429.56,-214.92 472,-236.5 478.66,-239.89 485.86,-242.84 493.17,-245.39"/>
<polygon fill="midnightblue" stroke="midnightblue" points="368.6,-151.98 359.11,-147.27 363.6,-156.87 368.6,-151.98"/>
</g>
<!-- Node5 -->
<g id="node5" class="node">
<title>Node5</title>
<g id="a_node5"><a xlink:href="../../d3/d62/classjoda_1_1network_1_1apiv2_1_1JodaQueryException.html" target="_top" xlink:title=" ">
<polygon fill="white" stroke="black" points="503,-196.5 503,-226.5 624,-226.5 624,-196.5 503,-196.5"/>
<text text-anchor="start" x="511" y="-214.5" font-family="Helvetica,sans-Serif" font-size="10.00">joda::network::apiv2</text>
<text text-anchor="middle" x="563.5" y="-203.5" font-family="Helvetica,sans-Serif" font-size="10.00">::JodaQueryException</text>
</a>
</g>
</g>
<!-- Node1&#45;&gt;Node5 -->
<g id="edge4" class="edge">
<title>Node1&#45;&gt;Node5</title>
<path fill="none" stroke="midnightblue" d="M380.28,-151.2C404.72,-161.93 440.15,-176.8 472,-187.5 481.86,-190.81 492.45,-193.97 502.78,-196.84"/>
<polygon fill="midnightblue" stroke="midnightblue" points="381.41,-147.87 370.84,-147.01 378.57,-154.27 381.41,-147.87"/>
</g>
<!-- Node6 -->
<g id="node6" class="node">
<title>Node6</title>
<g id="a_node6"><a xlink:href="../../db/de9/classjoda_1_1network_1_1apiv2_1_1JodaQuerySkippedException.html" target="_top" xlink:title=" ">
<polygon fill="white" stroke="black" points="483.5,-147.5 483.5,-177.5 643.5,-177.5 643.5,-147.5 483.5,-147.5"/>
<text text-anchor="start" x="491.5" y="-165.5" font-family="Helvetica,sans-Serif" font-size="10.00">joda::network::apiv2</text>
<text text-anchor="middle" x="563.5" y="-154.5" font-family="Helvetica,sans-Serif" font-size="10.00">::JodaQuerySkippedException</text>
</a>
</g>
</g>
<!-- Node1&#45;&gt;Node6 -->
<g id="edge5" class="edge">
<title>Node1&#45;&gt;Node6</title>
<path fill="none" stroke="midnightblue" d="M441.07,-148.21C455.08,-149.86 469.46,-151.55 483.19,-153.17"/>
<polygon fill="midnightblue" stroke="midnightblue" points="441.28,-144.72 430.94,-147.02 440.47,-151.67 441.28,-144.72"/>
</g>
<!-- Node7 -->
<g id="node7" class="node">
<title>Node7</title>
<g id="a_node7"><a xlink:href="../../d8/da3/classjoda_1_1network_1_1apiv2_1_1JodaQueryUnkownErrorException.html" target="_top" xlink:title=" ">
<polygon fill="white" stroke="black" points="472,-98.5 472,-128.5 655,-128.5 655,-98.5 472,-98.5"/>
<text text-anchor="start" x="480" y="-116.5" font-family="Helvetica,sans-Serif" font-size="10.00">joda::network::apiv2</text>
<text text-anchor="middle" x="563.5" y="-105.5" font-family="Helvetica,sans-Serif" font-size="10.00">::JodaQueryUnkownErrorException</text>
</a>
</g>
</g>
<!-- Node1&#45;&gt;Node7 -->
<g id="edge6" class="edge">
<title>Node1&#45;&gt;Node7</title>
<path fill="none" stroke="midnightblue" d="M444.44,-126.83C453.49,-125.81 462.66,-124.78 471.67,-123.76"/>
<polygon fill="midnightblue" stroke="midnightblue" points="443.83,-123.38 434.29,-127.98 444.62,-130.34 443.83,-123.38"/>
</g>
<!-- Node8 -->
<g id="node8" class="node">
<title>Node8</title>
<g id="a_node8"><a xlink:href="../../d3/d77/classjoda_1_1network_1_1JodaInvalidParameterException.html" target="_top" xlink:title=" ">
<polygon fill="white" stroke="black" points="492,-49.5 492,-79.5 635,-79.5 635,-49.5 492,-49.5"/>
<text text-anchor="start" x="500" y="-67.5" font-family="Helvetica,sans-Serif" font-size="10.00">joda::network::JodaInvalid</text>
<text text-anchor="middle" x="563.5" y="-56.5" font-family="Helvetica,sans-Serif" font-size="10.00">ParameterException</text>
</a>
</g>
</g>
<!-- Node1&#45;&gt;Node8 -->
<g id="edge7" class="edge">
<title>Node1&#45;&gt;Node8</title>
<path fill="none" stroke="midnightblue" d="M381.19,-123.74C405.61,-113.27 440.59,-98.93 472,-88.5 481.41,-85.38 491.47,-82.38 501.35,-79.62"/>
<polygon fill="midnightblue" stroke="midnightblue" points="379.53,-120.65 371.74,-127.83 382.31,-127.07 379.53,-120.65"/>
</g>
<!-- Node9 -->
<g id="node9" class="node">
<title>Node9</title>
<g id="a_node9"><a xlink:href="../../d1/d9f/classjoda_1_1network_1_1JodaMissingParameterException.html" target="_top" xlink:title=" ">
<polygon fill="white" stroke="black" points="489.5,-0.5 489.5,-30.5 637.5,-30.5 637.5,-0.5 489.5,-0.5"/>
<text text-anchor="start" x="497.5" y="-18.5" font-family="Helvetica,sans-Serif" font-size="10.00">joda::network::JodaMissing</text>
<text text-anchor="middle" x="563.5" y="-7.5" font-family="Helvetica,sans-Serif" font-size="10.00">ParameterException</text>
</a>
</g>
</g>
<!-- Node1&#45;&gt;Node9 -->
<g id="edge8" class="edge">
<title>Node1&#45;&gt;Node9</title>
<path fill="none" stroke="midnightblue" d="M366.33,-120.55C388.35,-98.68 429.67,-60.89 472,-39.5 478.67,-36.13 485.87,-33.19 493.19,-30.64"/>
<polygon fill="midnightblue" stroke="midnightblue" points="363.68,-118.26 359.13,-127.83 368.65,-123.18 363.68,-118.26"/>
</g>
<!-- Node2 -->
<g id="node2" class="node">
<title>Node2</title>
<g id="a_node2"><a xlink:title="STL class.">
<polygon fill="white" stroke="#bfbfbf" points="122,-128 122,-147 226,-147 226,-128 122,-128"/>
<text text-anchor="middle" x="174" y="-135" font-family="Helvetica,sans-Serif" font-size="10.00">std::runtime_error</text>
</a>
</g>
</g>
<!-- Node2&#45;&gt;Node1 -->
<g id="edge1" class="edge">
<title>Node2&#45;&gt;Node1</title>
<path fill="none" stroke="midnightblue" d="M236.6,-137.5C244.77,-137.5 253.27,-137.5 261.77,-137.5"/>
<polygon fill="midnightblue" stroke="midnightblue" points="236.44,-134 226.44,-137.5 236.44,-141 236.44,-134"/>
</g>
<!-- Node3 -->
<g id="node3" class="node">
<title>Node3</title>
<g id="a_node3"><a xlink:title="STL class.">
<polygon fill="white" stroke="#bfbfbf" points="0,-128 0,-147 86,-147 86,-128 0,-128"/>
<text text-anchor="middle" x="43" y="-135" font-family="Helvetica,sans-Serif" font-size="10.00">std::exception</text>
</a>
</g>
</g>
<!-- Node3&#45;&gt;Node2 -->
<g id="edge2" class="edge">
<title>Node3&#45;&gt;Node2</title>
<path fill="none" stroke="midnightblue" d="M96.27,-137.5C104.65,-137.5 113.31,-137.5 121.66,-137.5"/>
<polygon fill="midnightblue" stroke="midnightblue" points="96.24,-134 86.24,-137.5 96.24,-141 96.24,-134"/>
</g>
</g>
</svg>
        <g id="navigator" transform="translate(0 0)" fill="#404254">
                <rect fill="#f2f5e9" fill-opacity="0.5" stroke="#606060" stroke-width=".5" x="0" y="0" width="60" height="60"/>
                <use id="zoomplus" xlink:href="#zoomPlus" x="17" y="9" onmousedown="handleZoom(evt,'in')"/>
                <use id="zoomminus" xlink:href="#zoomMin" x="42" y="9" onmousedown="handleZoom(evt,'out')"/>
                <use id="reset" xlink:href="#resetDef" x="30" y="36" onmousedown="handleReset()"/>
                <g id="arrowUp" xlink:href="#dirArrow" transform="translate(30 24)" onmousedown="handlePan(0,-1)">
                  <use xlink:href="#rim" fill="#404040">
                        <set attributeName="fill" to="#808080" begin="arrowUp.mouseover" end="arrowUp.mouseout"/>
                  </use>
                  <path fill="none" stroke="white" stroke-width="1.5" d="M0,-3.0v7 M-2.5,-0.5L0,-3.0L2.5,-0.5"/>
                </g>
                <g id="arrowRight" xlink:href="#dirArrow" transform="rotate(90) translate(36 -43)" onmousedown="handlePan(1,0)">
                  <use xlink:href="#rim" fill="#404040">
                        <set attributeName="fill" to="#808080" begin="arrowRight.mouseover" end="arrowRight.mouseout"/>
                  </use>
                  <path fill="none" stroke="white" stroke-width="1.5" d="M0,-3.0v7 M-2.5,-0.5L0,-3.0L2.5,-0.5"/>
                </g>
                <g id="arrowDown" xlink:href="#dirArrow" transform="rotate(180) translate(-30 -48)" onmousedown="handlePan(0,1)">
                  <use xlink:href="#rim" fill="#404040">
                        <set attributeName="fill" to="#808080" begin="arrowDown.mouseover" end="arrowDown.mouseout"/>
                  </use>
                  <path fill="none" stroke="white" stroke-width="1.5" d="M0,-3.0v7 M-2.5,-0.5L0,-3.0L2.5,-0.5"/>
                </g>
                <g id="arrowLeft" xlink:href="#dirArrow" transform="rotate(270) translate(-36 17)" onmousedown="handlePan(-1,0)">
                  <use xlink:href="#rim" fill="#404040">
                        <set attributeName="fill" to="#808080" begin="arrowLeft.mouseover" end="arrowLeft.mouseout"/>
                  </use>
                  <path fill="none" stroke="white" stroke-width="1.5" d="M0,-3.0v7 M-2.5,-0.5L0,-3.0L2.5,-0.5"/>
                </g>
        </g>
        <svg viewBox="0 0 15 15" width="100%" height="30px" preserveAspectRatio="xMaxYMin meet">
         <g id="arrow_out" transform="scale(0.3 0.3)">
          <a xlink:href="classjoda_1_1network_1_1JodaAPIException__inherit__graph_org.svg" target="_base">
           <rect id="button" ry="5" rx="5" y="6" x="6" height="38" width="38"
                fill="#f2f5e9" fill-opacity="0.5" stroke="#606060" stroke-width="1.0"/>
           <path id="arrow"
             d="M 11.500037,31.436501 C 11.940474,20.09759 22.043105,11.32322 32.158766,21.979434 L 37.068811,17.246167 C 37.068811,17.246167 37.088388,32 37.088388,32 L 22.160133,31.978069 C 22.160133,31.978069 26.997745,27.140456 26.997745,27.140456 C 18.528582,18.264221 13.291696,25.230495 11.500037,31.436501 z"
             style="fill:#404040;"/>
          </a>
         </g>
        </svg>
</svg>
