<?xml version="1.0" encoding="UTF-8" standalone="no"?>
<!DOCTYPE svg PUBLIC "-//W3C//DTD SVG 1.1//EN"
 "http://www.w3.org/Graphics/SVG/1.1/DTD/svg11.dtd">
<!-- Generated by graphviz version 2.43.0 (0)
 -->
<!-- Title: joda::query::TemplateProvider&lt; Calc &gt; Pages: 1 -->
<svg width="615pt" height="260pt"
 viewBox="0.00 0.00 614.97 260.00" xmlns="http://www.w3.org/2000/svg" xmlns:xlink="http://www.w3.org/1999/xlink">
<g id="graph0" class="graph" transform="scale(1 1) rotate(0) translate(4 256)">
<title>joda::query::TemplateProvider&lt; Calc &gt;</title>
<polygon fill="white" stroke="transparent" points="-4,4 -4,-256 610.97,-256 610.97,4 -4,4"/>
<!-- Node1 -->
<g id="node1" class="node">
<title>Node1</title>
<g id="a_node1"><a xlink:title=" ">
<polygon fill="#bfbfbf" stroke="black" points="56.97,-78.5 56.97,-108.5 218.97,-108.5 218.97,-78.5 56.97,-78.5"/>
<text text-anchor="start" x="64.97" y="-96.5" font-family="Helvetica,sans-Serif" font-size="10.00">joda::query::TemplateProvider</text>
<text text-anchor="middle" x="137.97" y="-85.5" font-family="Helvetica,sans-Serif" font-size="10.00">&lt; Calc &gt;</text>
</a>
</g>
</g>
<!-- Node2 -->
<g id="node2" class="node">
<title>Node2</title>
<g id="a_node2"><a xlink:href="../../d4/df5/classjoda_1_1query_1_1IValueProvider.html" target="_top" xlink:title=" ">
<polygon fill="white" stroke="black" points="64.47,-165.5 64.47,-184.5 211.47,-184.5 211.47,-165.5 64.47,-165.5"/>
<text text-anchor="middle" x="137.97" y="-172.5" font-family="Helvetica,sans-Serif" font-size="10.00">joda::query::IValueProvider</text>
</a>
</g>
</g>
<!-- Node2&#45;&gt;Node1 -->
<g id="edge1" class="edge">
<title>Node2&#45;&gt;Node1</title>
<path fill="none" stroke="midnightblue" d="M137.97,-155.33C137.97,-141.01 137.97,-121.56 137.97,-108.54"/>
<polygon fill="midnightblue" stroke="midnightblue" points="134.47,-155.49 137.97,-165.49 141.47,-155.49 134.47,-155.49"/>
</g>
<!-- Node4 -->
<g id="node4" class="node">
<title>Node4</title>
<g id="a_node4"><a xlink:title=" ">
<polygon fill="white" stroke="#bfbfbf" points="237.47,-78.5 237.47,-108.5 374.47,-108.5 374.47,-78.5 237.47,-78.5"/>
<text text-anchor="start" x="245.47" y="-96.5" font-family="Helvetica,sans-Serif" font-size="10.00">std::unique_ptr&lt; joda</text>
<text text-anchor="middle" x="305.97" y="-85.5" font-family="Helvetica,sans-Serif" font-size="10.00">::query::IValueProvider &gt;</text>
</a>
</g>
</g>
<!-- Node2&#45;&gt;Node4 -->
<g id="edge4" class="edge">
<title>Node2&#45;&gt;Node4</title>
<path fill="none" stroke="#9a32cd" stroke-dasharray="5,2" d="M165.13,-161.15C195.6,-146.73 244.85,-123.42 276.3,-108.54"/>
<polygon fill="#9a32cd" stroke="#9a32cd" points="163.49,-158.05 155.95,-165.49 166.49,-164.38 163.49,-158.05"/>
<text text-anchor="middle" x="246.47" y="-134.5" font-family="Helvetica,sans-Serif" font-size="10.00"> ptr</text>
</g>
<!-- Node3 -->
<g id="node3" class="node">
<title>Node3</title>
<g id="a_node3"><a xlink:title=" ">
<polygon fill="white" stroke="#bfbfbf" points="205.97,-0.5 205.97,-30.5 405.97,-30.5 405.97,-0.5 205.97,-0.5"/>
<text text-anchor="start" x="213.97" y="-18.5" font-family="Helvetica,sans-Serif" font-size="10.00">std::vector&lt; std::unique</text>
<text text-anchor="middle" x="305.97" y="-7.5" font-family="Helvetica,sans-Serif" font-size="10.00">_ptr&lt; joda::query::IValueProvider &gt; &gt;</text>
</a>
</g>
</g>
<!-- Node3&#45;&gt;Node2 -->
<g id="edge2" class="edge">
<title>Node3&#45;&gt;Node2</title>
<path fill="none" stroke="#9a32cd" stroke-dasharray="5,2" d="M195.98,-24.86C121.21,-33.1 31.72,-48.85 7.97,-78 -24.99,-118.46 58.57,-150.8 106.73,-165.47"/>
<polygon fill="#9a32cd" stroke="#9a32cd" points="196.38,-28.34 205.95,-23.8 195.64,-21.38 196.38,-28.34"/>
<text text-anchor="middle" x="27.97" y="-91" font-family="Helvetica,sans-Serif" font-size="10.00"> params</text>
</g>
<!-- Node4&#45;&gt;Node3 -->
<g id="edge3" class="edge">
<title>Node4&#45;&gt;Node3</title>
<path fill="none" stroke="#9a32cd" stroke-dasharray="5,2" d="M305.97,-68.09C305.97,-55.76 305.97,-41.22 305.97,-30.73"/>
<polygon fill="#9a32cd" stroke="#9a32cd" points="302.47,-68.2 305.97,-78.2 309.47,-68.21 302.47,-68.2"/>
<text text-anchor="middle" x="330.47" y="-52" font-family="Helvetica,sans-Serif" font-size="10.00"> elements</text>
</g>
<!-- Node5 -->
<g id="node5" class="node">
<title>Node5</title>
<g id="a_node5"><a xlink:title="STL class.">
<polygon fill="white" stroke="#bfbfbf" points="252.97,-165.5 252.97,-184.5 370.97,-184.5 370.97,-165.5 252.97,-165.5"/>
<text text-anchor="middle" x="311.97" y="-172.5" font-family="Helvetica,sans-Serif" font-size="10.00">std::unique_ptr&lt; T &gt;</text>
</a>
</g>
</g>
<!-- Node5&#45;&gt;Node4 -->
<g id="edge5" class="edge">
<title>Node5&#45;&gt;Node4</title>
<path fill="none" stroke="orange" stroke-dasharray="5,2" d="M288.15,-159.01C284.43,-155.55 281.12,-151.53 278.97,-147 275.16,-138.97 275.95,-135.36 278.97,-127 281.41,-120.24 285.94,-113.89 290.6,-108.63"/>
<polygon fill="orange" stroke="orange" points="286.1,-161.85 296.11,-165.33 290.46,-156.37 286.1,-161.85"/>
<text text-anchor="middle" x="357.47" y="-134.5" font-family="Helvetica,sans-Serif" font-size="10.00"> &lt; joda::query::IValueProvider &gt;</text>
</g>
<!-- Node6 -->
<g id="node6" class="node">
<title>Node6</title>
<g id="a_node6"><a xlink:title=" ">
<polygon fill="white" stroke="#bfbfbf" points="352.47,-232.5 352.47,-251.5 381.47,-251.5 381.47,-232.5 352.47,-232.5"/>
<text text-anchor="middle" x="366.97" y="-239.5" font-family="Helvetica,sans-Serif" font-size="10.00">T</text>
</a>
</g>
</g>
<!-- Node6&#45;&gt;Node5 -->
<g id="edge6" class="edge">
<title>Node6&#45;&gt;Node5</title>
<path fill="none" stroke="#9a32cd" stroke-dasharray="5,2" d="M352.81,-224.27C342.09,-211.6 327.79,-194.7 319.27,-184.63"/>
<polygon fill="#9a32cd" stroke="#9a32cd" points="350.42,-226.86 359.55,-232.23 355.77,-222.34 350.42,-226.86"/>
<text text-anchor="middle" x="350.47" y="-206" font-family="Helvetica,sans-Serif" font-size="10.00"> ptr</text>
</g>
<!-- Node7 -->
<g id="node7" class="node">
<title>Node7</title>
<g id="a_node7"><a xlink:title="STL class.">
<polygon fill="white" stroke="#bfbfbf" points="444.47,-127.5 444.47,-146.5 541.47,-146.5 541.47,-127.5 444.47,-127.5"/>
<text text-anchor="middle" x="492.97" y="-134.5" font-family="Helvetica,sans-Serif" font-size="10.00">std::vector&lt; T &gt;</text>
</a>
</g>
</g>
<!-- Node6&#45;&gt;Node7 -->
<g id="edge8" class="edge">
<title>Node6&#45;&gt;Node7</title>
<path fill="none" stroke="#9a32cd" stroke-dasharray="5,2" d="M385.57,-225.79C412.33,-203.92 460.8,-164.3 482.26,-146.76"/>
<polygon fill="#9a32cd" stroke="#9a32cd" points="383.24,-223.18 377.71,-232.22 387.67,-228.6 383.24,-223.18"/>
<text text-anchor="middle" x="435.47" y="-206" font-family="Helvetica,sans-Serif" font-size="10.00"> elements</text>
</g>
<!-- Node7&#45;&gt;Node3 -->
<g id="edge7" class="edge">
<title>Node7&#45;&gt;Node3</title>
<path fill="none" stroke="orange" stroke-dasharray="5,2" d="M471.66,-121.92C445.32,-104.58 399.05,-74.29 358.97,-49 349.29,-42.89 338.55,-36.27 329.27,-30.61"/>
<polygon fill="orange" stroke="orange" points="469.83,-124.91 480.11,-127.49 473.68,-119.06 469.83,-124.91"/>
<text text-anchor="start" x="449.97" y="-96.5" font-family="Helvetica,sans-Serif" font-size="10.00"> &lt; std::unique_ptr&lt;</text>
<text text-anchor="middle" x="528.47" y="-85.5" font-family="Helvetica,sans-Serif" font-size="10.00"> joda::query::IValueProvider &gt; &gt;</text>
</g>
</g>
</svg>
