<?xml version="1.0" encoding="UTF-8" standalone="no"?>
<!DOCTYPE svg PUBLIC "-//W3C//DTD SVG 1.1//EN"
 "http://www.w3.org/Graphics/SVG/1.1/DTD/svg11.dtd">
<!-- Generated by graphviz version 2.43.0 (0)
 -->
<!-- Title: joda::query::AttributeStatAggregator::AttStatHandler::Node Pages: 1 -->
<svg width="833pt" height="124pt"
 viewBox="0.00 0.00 833.00 123.50" xmlns="http://www.w3.org/2000/svg" xmlns:xlink="http://www.w3.org/1999/xlink">
<g id="graph0" class="graph" transform="scale(1 1) rotate(0) translate(4 119.5)">
<title>joda::query::AttributeStatAggregator::AttStatHandler::Node</title>
<polygon fill="white" stroke="transparent" points="-4,4 -4,-119.5 829,-119.5 829,4 -4,4"/>
<!-- Node1 -->
<g id="node1" class="node">
<title>Node1</title>
<g id="a_node1"><a xlink:title=" ">
<polygon fill="#bfbfbf" stroke="black" points="291,-0.5 291,-30.5 471,-30.5 471,-0.5 291,-0.5"/>
<text text-anchor="start" x="299" y="-18.5" font-family="Helvetica,sans-Serif" font-size="10.00">joda::query::AttributeStat</text>
<text text-anchor="middle" x="381" y="-7.5" font-family="Helvetica,sans-Serif" font-size="10.00">Aggregator::AttStatHandler::Node</text>
</a>
</g>
</g>
<!-- Node1&#45;&gt;Node1 -->
<g id="edge1" class="edge">
<title>Node1&#45;&gt;Node1</title>
<path fill="none" stroke="#9a32cd" stroke-dasharray="5,2" d="M357.55,-40.96C360.46,-45.68 368.27,-49 381,-49 401.88,-49 409.55,-40.06 404,-30.66"/>
<polygon fill="#9a32cd" stroke="#9a32cd" points="361.06,-40.8 358,-30.66 354.06,-40.5 361.06,-40.8"/>
<text text-anchor="middle" x="381" y="-52" font-family="Helvetica,sans-Serif" font-size="10.00"> parent</text>
</g>
<!-- Node4 -->
<g id="node4" class="node">
<title>Node4</title>
<g id="a_node4"><a xlink:title=" ">
<polygon fill="white" stroke="#bfbfbf" points="659,-37 659,-78 825,-78 825,-37 659,-37"/>
<text text-anchor="start" x="667" y="-66" font-family="Helvetica,sans-Serif" font-size="10.00">std::vector&lt; joda::</text>
<text text-anchor="start" x="667" y="-55" font-family="Helvetica,sans-Serif" font-size="10.00">query::AttributeStatAggregator</text>
<text text-anchor="middle" x="742" y="-44" font-family="Helvetica,sans-Serif" font-size="10.00">::AttStatHandler::Node &gt;</text>
</a>
</g>
</g>
<!-- Node1&#45;&gt;Node4 -->
<g id="edge5" class="edge">
<title>Node1&#45;&gt;Node4</title>
<path fill="none" stroke="#9a32cd" stroke-dasharray="5,2" d="M467.26,-32.21C474.6,-33.41 481.92,-34.53 489,-35.5 545.46,-43.22 609.42,-48.77 658.78,-52.36"/>
<polygon fill="#9a32cd" stroke="#9a32cd" points="467.7,-28.74 457.26,-30.52 466.54,-35.64 467.7,-28.74"/>
<text text-anchor="middle" x="565" y="-53.5" font-family="Helvetica,sans-Serif" font-size="10.00"> elements</text>
</g>
<!-- Node2 -->
<g id="node2" class="node">
<title>Node2</title>
<g id="a_node2"><a xlink:title=" ">
<polygon fill="white" stroke="#bfbfbf" points="141,-6 141,-25 206,-25 206,-6 141,-6"/>
<text text-anchor="middle" x="173.5" y="-13" font-family="Helvetica,sans-Serif" font-size="10.00">std::string</text>
</a>
</g>
</g>
<!-- Node2&#45;&gt;Node1 -->
<g id="edge2" class="edge">
<title>Node2&#45;&gt;Node1</title>
<path fill="none" stroke="#9a32cd" stroke-dasharray="5,2" d="M216.26,-15.5C237.83,-15.5 265.01,-15.5 291,-15.5"/>
<polygon fill="#9a32cd" stroke="#9a32cd" points="216.16,-12 206.16,-15.5 216.16,-19 216.16,-12"/>
<text text-anchor="middle" x="248.5" y="-18.5" font-family="Helvetica,sans-Serif" font-size="10.00"> name</text>
</g>
<!-- Node3 -->
<g id="node3" class="node">
<title>Node3</title>
<g id="a_node3"><a xlink:title=" ">
<polygon fill="white" stroke="#bfbfbf" points="0,-0.5 0,-30.5 104,-30.5 104,-0.5 0,-0.5"/>
<text text-anchor="start" x="8" y="-18.5" font-family="Helvetica,sans-Serif" font-size="10.00">std::basic_string&lt;</text>
<text text-anchor="middle" x="52" y="-7.5" font-family="Helvetica,sans-Serif" font-size="10.00"> Char &gt;</text>
</a>
</g>
</g>
<!-- Node3&#45;&gt;Node2 -->
<g id="edge3" class="edge">
<title>Node3&#45;&gt;Node2</title>
<path fill="none" stroke="midnightblue" d="M114.1,-15.5C123.41,-15.5 132.68,-15.5 141,-15.5"/>
<polygon fill="midnightblue" stroke="midnightblue" points="114.03,-12 104.03,-15.5 114.03,-19 114.03,-12"/>
</g>
<!-- Node4&#45;&gt;Node1 -->
<g id="edge4" class="edge">
<title>Node4&#45;&gt;Node1</title>
<path fill="none" stroke="#9a32cd" stroke-dasharray="5,2" d="M694.85,-32.43C678.36,-24.77 659.31,-17.35 641,-13.5 585.33,-1.8 521.44,-2.15 471.04,-5.5"/>
<polygon fill="#9a32cd" stroke="#9a32cd" points="693.72,-35.76 704.25,-36.94 696.75,-29.46 693.72,-35.76"/>
<text text-anchor="middle" x="565" y="-27.5" font-family="Helvetica,sans-Serif" font-size="10.00"> arrMembers</text>
<text text-anchor="middle" x="565" y="-16.5" font-family="Helvetica,sans-Serif" font-size="10.00">children</text>
</g>
<!-- Node5 -->
<g id="node5" class="node">
<title>Node5</title>
<g id="a_node5"><a xlink:title=" ">
<polygon fill="white" stroke="#bfbfbf" points="332.5,-82 332.5,-101 429.5,-101 429.5,-82 332.5,-82"/>
<text text-anchor="middle" x="381" y="-89" font-family="Helvetica,sans-Serif" font-size="10.00">std::vector&lt; T &gt;</text>
</a>
</g>
</g>
<!-- Node5&#45;&gt;Node4 -->
<g id="edge6" class="edge">
<title>Node5&#45;&gt;Node4</title>
<path fill="none" stroke="orange" stroke-dasharray="5,2" d="M439.92,-87.16C492.44,-83.08 571.98,-76.57 641,-69.5 646.83,-68.9 652.84,-68.26 658.89,-67.58"/>
<polygon fill="orange" stroke="orange" points="439.48,-83.68 429.78,-87.94 440.02,-90.66 439.48,-83.68"/>
<text text-anchor="start" x="489" y="-107.5" font-family="Helvetica,sans-Serif" font-size="10.00"> &lt; joda::query::Attribute</text>
<text text-anchor="start" x="489" y="-96.5" font-family="Helvetica,sans-Serif" font-size="10.00">StatAggregator::AttStatHandler</text>
<text text-anchor="middle" x="565" y="-85.5" font-family="Helvetica,sans-Serif" font-size="10.00">::Node &gt;</text>
</g>
<!-- Node6 -->
<g id="node6" class="node">
<title>Node6</title>
<g id="a_node6"><a xlink:title=" ">
<polygon fill="white" stroke="#bfbfbf" points="159,-82 159,-101 188,-101 188,-82 159,-82"/>
<text text-anchor="middle" x="173.5" y="-89" font-family="Helvetica,sans-Serif" font-size="10.00">T</text>
</a>
</g>
</g>
<!-- Node6&#45;&gt;Node5 -->
<g id="edge7" class="edge">
<title>Node6&#45;&gt;Node5</title>
<path fill="none" stroke="#9a32cd" stroke-dasharray="5,2" d="M198.71,-91.5C231.46,-91.5 290.56,-91.5 332.37,-91.5"/>
<polygon fill="#9a32cd" stroke="#9a32cd" points="198.3,-88 188.3,-91.5 198.3,-95 198.3,-88"/>
<text text-anchor="middle" x="248.5" y="-94.5" font-family="Helvetica,sans-Serif" font-size="10.00"> elements</text>
</g>
</g>
</svg>
