<?xml version="1.0" encoding="UTF-8" standalone="no"?>
<!DOCTYPE svg PUBLIC "-//W3C//DTD SVG 1.1//EN"
 "http://www.w3.org/Graphics/SVG/1.1/DTD/svg11.dtd">
<!-- Generated by graphviz version 2.43.0 (0)
 -->
<!-- Title: /home/nico/projects/tmp&#45;joda&#45;dirs/JODA&#45;gh/libs/joda/core/modules/concurrency/include/joda/concurrency/readerwriterqueue.h Pages: 1 -->
<svg width="531pt" height="184pt"
 viewBox="0.00 0.00 530.50 184.00" xmlns="http://www.w3.org/2000/svg" xmlns:xlink="http://www.w3.org/1999/xlink">
<g id="graph0" class="graph" transform="scale(1 1) rotate(0) translate(4 180)">
<title>/home/nico/projects/tmp&#45;joda&#45;dirs/JODA&#45;gh/libs/joda/core/modules/concurrency/include/joda/concurrency/readerwriterqueue.h</title>
<polygon fill="white" stroke="transparent" points="-4,4 -4,-180 526.5,-180 526.5,4 -4,4"/>
<!-- Node1 -->
<g id="node1" class="node">
<title>Node1</title>
<g id="a_node1"><a xlink:title=" ">
<polygon fill="#bfbfbf" stroke="black" points="182.5,-112.5 182.5,-175.5 363.5,-175.5 363.5,-112.5 182.5,-112.5"/>
<text text-anchor="start" x="190.5" y="-163.5" font-family="Helvetica,sans-Serif" font-size="10.00">/home/nico/projects</text>
<text text-anchor="start" x="190.5" y="-152.5" font-family="Helvetica,sans-Serif" font-size="10.00">/tmp&#45;joda&#45;dirs/JODA</text>
<text text-anchor="start" x="190.5" y="-141.5" font-family="Helvetica,sans-Serif" font-size="10.00">&#45;gh/libs/joda/core/modules</text>
<text text-anchor="start" x="190.5" y="-130.5" font-family="Helvetica,sans-Serif" font-size="10.00">/concurrency/include/joda</text>
<text text-anchor="middle" x="273" y="-119.5" font-family="Helvetica,sans-Serif" font-size="10.00">/concurrency/readerwriterqueue.h</text>
</a>
</g>
</g>
<!-- Node2 -->
<g id="node2" class="node">
<title>Node2</title>
<g id="a_node2"><a xlink:title=" ">
<polygon fill="white" stroke="#bfbfbf" points="0,-0.5 0,-19.5 52,-19.5 52,-0.5 0,-0.5"/>
<text text-anchor="middle" x="26" y="-7.5" font-family="Helvetica,sans-Serif" font-size="10.00">cassert</text>
</a>
</g>
</g>
<!-- Node1&#45;&gt;Node2 -->
<g id="edge1" class="edge">
<title>Node1&#45;&gt;Node2</title>
<path fill="none" stroke="midnightblue" d="M215.71,-112.38C163.69,-84.58 89.4,-44.88 51.05,-24.39"/>
<polygon fill="midnightblue" stroke="midnightblue" points="52.58,-21.24 42.11,-19.61 49.28,-27.41 52.58,-21.24"/>
</g>
<!-- Node3 -->
<g id="node3" class="node">
<title>Node3</title>
<g id="a_node3"><a xlink:title=" ">
<polygon fill="white" stroke="#bfbfbf" points="70,-0.5 70,-19.5 120,-19.5 120,-0.5 70,-0.5"/>
<text text-anchor="middle" x="95" y="-7.5" font-family="Helvetica,sans-Serif" font-size="10.00">cstdint</text>
</a>
</g>
</g>
<!-- Node1&#45;&gt;Node3 -->
<g id="edge2" class="edge">
<title>Node1&#45;&gt;Node3</title>
<path fill="none" stroke="midnightblue" d="M229.22,-112.33C213.31,-101.04 195.25,-88.07 179,-76 156.31,-59.15 130.68,-39.17 113.76,-25.86"/>
<polygon fill="midnightblue" stroke="midnightblue" points="115.79,-23 105.77,-19.55 111.45,-28.49 115.79,-23"/>
</g>
<!-- Node4 -->
<g id="node4" class="node">
<title>Node4</title>
<g id="a_node4"><a xlink:title=" ">
<polygon fill="white" stroke="#bfbfbf" points="335.5,-56.5 335.5,-75.5 384.5,-75.5 384.5,-56.5 335.5,-56.5"/>
<text text-anchor="middle" x="360" y="-63.5" font-family="Helvetica,sans-Serif" font-size="10.00">cstdlib</text>
</a>
</g>
</g>
<!-- Node1&#45;&gt;Node4 -->
<g id="edge3" class="edge">
<title>Node1&#45;&gt;Node4</title>
<path fill="none" stroke="midnightblue" d="M308.14,-112.31C319.93,-102.01 332.57,-90.96 342.42,-82.36"/>
<polygon fill="midnightblue" stroke="midnightblue" points="344.73,-84.99 349.96,-75.77 340.12,-79.72 344.73,-84.99"/>
</g>
<!-- Node5 -->
<g id="node5" class="node">
<title>Node5</title>
<g id="a_node5"><a xlink:title=" ">
<polygon fill="white" stroke="#bfbfbf" points="402.5,-56.5 402.5,-75.5 439.5,-75.5 439.5,-56.5 402.5,-56.5"/>
<text text-anchor="middle" x="421" y="-63.5" font-family="Helvetica,sans-Serif" font-size="10.00">new</text>
</a>
</g>
</g>
<!-- Node1&#45;&gt;Node5 -->
<g id="edge4" class="edge">
<title>Node1&#45;&gt;Node5</title>
<path fill="none" stroke="midnightblue" d="M332.77,-112.31C354.57,-101.11 378.07,-89.04 395.34,-80.18"/>
<polygon fill="midnightblue" stroke="midnightblue" points="396.94,-83.29 404.24,-75.61 393.75,-77.06 396.94,-83.29"/>
</g>
<!-- Node6 -->
<g id="node6" class="node">
<title>Node6</title>
<g id="a_node6"><a xlink:title=" ">
<polygon fill="white" stroke="#bfbfbf" points="457.5,-56.5 457.5,-75.5 522.5,-75.5 522.5,-56.5 457.5,-56.5"/>
<text text-anchor="middle" x="490" y="-63.5" font-family="Helvetica,sans-Serif" font-size="10.00">stdexcept</text>
</a>
</g>
</g>
<!-- Node1&#45;&gt;Node6 -->
<g id="edge5" class="edge">
<title>Node1&#45;&gt;Node6</title>
<path fill="none" stroke="midnightblue" d="M360.32,-112.42C393.8,-100.69 430.08,-87.99 455.73,-79"/>
<polygon fill="midnightblue" stroke="midnightblue" points="457.07,-82.24 465.35,-75.63 454.75,-75.64 457.07,-82.24"/>
</g>
<!-- Node7 -->
<g id="node7" class="node">
<title>Node7</title>
<g id="a_node7"><a xlink:title=" ">
<polygon fill="white" stroke="#bfbfbf" points="138.5,-0.5 138.5,-19.5 207.5,-19.5 207.5,-0.5 138.5,-0.5"/>
<text text-anchor="middle" x="173" y="-7.5" font-family="Helvetica,sans-Serif" font-size="10.00">type_traits</text>
</a>
</g>
</g>
<!-- Node1&#45;&gt;Node7 -->
<g id="edge6" class="edge">
<title>Node1&#45;&gt;Node7</title>
<path fill="none" stroke="midnightblue" d="M227.5,-112.5C214.86,-102.17 202.12,-89.73 193,-76 183.72,-62.01 178.57,-43.51 175.84,-29.83"/>
<polygon fill="midnightblue" stroke="midnightblue" points="179.23,-28.92 174.07,-19.67 172.34,-30.12 179.23,-28.92"/>
</g>
<!-- Node8 -->
<g id="node8" class="node">
<title>Node8</title>
<g id="a_node8"><a xlink:title=" ">
<polygon fill="white" stroke="#bfbfbf" points="421.5,-0.5 421.5,-19.5 466.5,-19.5 466.5,-0.5 421.5,-0.5"/>
<text text-anchor="middle" x="444" y="-7.5" font-family="Helvetica,sans-Serif" font-size="10.00">utility</text>
</a>
</g>
</g>
<!-- Node1&#45;&gt;Node8 -->
<g id="edge7" class="edge">
<title>Node1&#45;&gt;Node8</title>
<path fill="none" stroke="midnightblue" d="M285.8,-112.49C294.92,-93.97 308.78,-71.07 327,-56 340.26,-45.03 381.78,-30.44 411.58,-20.89"/>
<polygon fill="midnightblue" stroke="midnightblue" points="412.71,-24.21 421.19,-17.86 410.6,-17.53 412.71,-24.21"/>
</g>
<!-- Node9 -->
<g id="node9" class="node">
<title>Node9</title>
<g id="a_node9"><a xlink:href="../../de/dcd/atomicops_8h.html" target="_top" xlink:title=" ">
<polygon fill="white" stroke="black" points="201.5,-56.5 201.5,-75.5 278.5,-75.5 278.5,-56.5 201.5,-56.5"/>
<text text-anchor="middle" x="240" y="-63.5" font-family="Helvetica,sans-Serif" font-size="10.00">atomicops.h</text>
</a>
</g>
</g>
<!-- Node1&#45;&gt;Node9 -->
<g id="edge8" class="edge">
<title>Node1&#45;&gt;Node9</title>
<path fill="none" stroke="midnightblue" d="M259.58,-112.09C255.56,-102.84 251.3,-93.01 247.77,-84.9"/>
<polygon fill="midnightblue" stroke="midnightblue" points="250.98,-83.5 243.79,-75.72 244.56,-86.28 250.98,-83.5"/>
</g>
<!-- Node9&#45;&gt;Node2 -->
<g id="edge9" class="edge">
<title>Node9&#45;&gt;Node2</title>
<path fill="none" stroke="midnightblue" d="M205.67,-56.43C171.67,-47.93 117.84,-34.43 62.37,-20.34"/>
<polygon fill="midnightblue" stroke="midnightblue" points="62.92,-16.87 52.37,-17.8 61.2,-23.65 62.92,-16.87"/>
</g>
<!-- Node9&#45;&gt;Node3 -->
<g id="edge11" class="edge">
<title>Node9&#45;&gt;Node3</title>
<path fill="none" stroke="midnightblue" d="M217.02,-56.44C192.84,-47.44 154.58,-33.19 127.35,-23.05"/>
<polygon fill="midnightblue" stroke="midnightblue" points="128.46,-19.73 117.87,-19.52 126.02,-26.29 128.46,-19.73"/>
</g>
<!-- Node9&#45;&gt;Node7 -->
<g id="edge13" class="edge">
<title>Node9&#45;&gt;Node7</title>
<path fill="none" stroke="midnightblue" d="M229.24,-56.32C219.23,-48.26 204.11,-36.08 192.07,-26.37"/>
<polygon fill="midnightblue" stroke="midnightblue" points="193.94,-23.38 183.96,-19.83 189.55,-28.83 193.94,-23.38"/>
</g>
<!-- Node9&#45;&gt;Node8 -->
<g id="edge15" class="edge">
<title>Node9&#45;&gt;Node8</title>
<path fill="none" stroke="midnightblue" d="M273.34,-56.47C306.06,-48.05 357.63,-34.68 411.55,-20.08"/>
<polygon fill="midnightblue" stroke="midnightblue" points="412.55,-23.44 421.29,-17.44 410.72,-16.68 412.55,-23.44"/>
</g>
<!-- Node10 -->
<g id="node10" class="node">
<title>Node10</title>
<g id="a_node10"><a xlink:title=" ">
<polygon fill="white" stroke="#bfbfbf" points="225.5,-0.5 225.5,-19.5 272.5,-19.5 272.5,-0.5 225.5,-0.5"/>
<text text-anchor="middle" x="249" y="-7.5" font-family="Helvetica,sans-Serif" font-size="10.00">cerrno</text>
</a>
</g>
</g>
<!-- Node9&#45;&gt;Node10 -->
<g id="edge10" class="edge">
<title>Node9&#45;&gt;Node10</title>
<path fill="none" stroke="midnightblue" d="M241.49,-56.08C242.68,-48.93 244.39,-38.64 245.88,-29.69"/>
<polygon fill="midnightblue" stroke="midnightblue" points="249.35,-30.19 247.54,-19.75 242.45,-29.04 249.35,-30.19"/>
</g>
<!-- Node11 -->
<g id="node11" class="node">
<title>Node11</title>
<g id="a_node11"><a xlink:title=" ">
<polygon fill="white" stroke="#bfbfbf" points="291,-0.5 291,-19.5 335,-19.5 335,-0.5 291,-0.5"/>
<text text-anchor="middle" x="313" y="-7.5" font-family="Helvetica,sans-Serif" font-size="10.00">ctime</text>
</a>
</g>
</g>
<!-- Node9&#45;&gt;Node11 -->
<g id="edge12" class="edge">
<title>Node9&#45;&gt;Node11</title>
<path fill="none" stroke="midnightblue" d="M251.73,-56.32C262.84,-48.11 279.74,-35.6 292.98,-25.81"/>
<polygon fill="midnightblue" stroke="midnightblue" points="295.1,-28.59 301.06,-19.83 290.94,-22.97 295.1,-28.59"/>
</g>
<!-- Node12 -->
<g id="node12" class="node">
<title>Node12</title>
<g id="a_node12"><a xlink:title=" ">
<polygon fill="white" stroke="#bfbfbf" points="353,-0.5 353,-19.5 403,-19.5 403,-0.5 353,-0.5"/>
<text text-anchor="middle" x="378" y="-7.5" font-family="Helvetica,sans-Serif" font-size="10.00">atomic</text>
</a>
</g>
</g>
<!-- Node9&#45;&gt;Node12 -->
<g id="edge14" class="edge">
<title>Node9&#45;&gt;Node12</title>
<path fill="none" stroke="midnightblue" d="M261.87,-56.44C284.78,-47.48 320.98,-33.31 346.87,-23.18"/>
<polygon fill="midnightblue" stroke="midnightblue" points="348.2,-26.42 356.24,-19.52 345.65,-19.9 348.2,-26.42"/>
</g>
</g>
</svg>
