<?xml version="1.0" encoding="UTF-8" standalone="no"?>
<!DOCTYPE svg PUBLIC "-//W3C//DTD SVG 1.1//EN"
 "http://www.w3.org/Graphics/SVG/1.1/DTD/svg11.dtd">
<!-- Generated by graphviz version 2.43.0 (0)
 -->
<!-- Title: /home/nico/joda_tmp/tmp&#45;joda&#45;dirs/JODA&#45;gh/libs/joda/core/modules/concurrency/include/joda/concurrency/ThreadManager.h Pages: 1 -->
<svg width="601pt" height="184pt"
 viewBox="0.00 0.00 601.43 184.00" xmlns="http://www.w3.org/2000/svg" xmlns:xlink="http://www.w3.org/1999/xlink">
<g id="graph0" class="graph" transform="scale(1 1) rotate(0) translate(4 180)">
<title>/home/nico/joda_tmp/tmp&#45;joda&#45;dirs/JODA&#45;gh/libs/joda/core/modules/concurrency/include/joda/concurrency/ThreadManager.h</title>
<polygon fill="white" stroke="transparent" points="-4,4 -4,-180 597.43,-180 597.43,4 -4,4"/>
<!-- Node1 -->
<g id="node1" class="node">
<title>Node1</title>
<g id="a_node1"><a xlink:title=" ">
<polygon fill="#bfbfbf" stroke="black" points="173.93,-112.5 173.93,-175.5 340.93,-175.5 340.93,-112.5 173.93,-112.5"/>
<text text-anchor="start" x="181.93" y="-163.5" font-family="Helvetica,sans-Serif" font-size="10.00">/home/nico/joda_tmp</text>
<text text-anchor="start" x="181.93" y="-152.5" font-family="Helvetica,sans-Serif" font-size="10.00">/tmp&#45;joda&#45;dirs/JODA</text>
<text text-anchor="start" x="181.93" y="-141.5" font-family="Helvetica,sans-Serif" font-size="10.00">&#45;gh/libs/joda/core/modules</text>
<text text-anchor="start" x="181.93" y="-130.5" font-family="Helvetica,sans-Serif" font-size="10.00">/concurrency/include/joda</text>
<text text-anchor="middle" x="257.43" y="-119.5" font-family="Helvetica,sans-Serif" font-size="10.00">/concurrency/ThreadManager.h</text>
</a>
</g>
</g>
<!-- Node2 -->
<g id="node2" class="node">
<title>Node2</title>
<g id="a_node2"><a xlink:title=" ">
<polygon fill="white" stroke="#bfbfbf" points="247.93,-0.5 247.93,-19.5 294.93,-19.5 294.93,-0.5 247.93,-0.5"/>
<text text-anchor="middle" x="271.43" y="-7.5" font-family="Helvetica,sans-Serif" font-size="10.00">glob.h</text>
</a>
</g>
</g>
<!-- Node1&#45;&gt;Node2 -->
<g id="edge1" class="edge">
<title>Node1&#45;&gt;Node2</title>
<path fill="none" stroke="midnightblue" d="M173.63,-139.92C84.4,-133.61 -37.73,-114.4 11.43,-56 39.94,-22.13 173.65,-13.75 237.42,-11.68"/>
<polygon fill="midnightblue" stroke="midnightblue" points="237.86,-15.17 247.75,-11.38 237.66,-8.17 237.86,-15.17"/>
</g>
<!-- Node3 -->
<g id="node3" class="node">
<title>Node3</title>
<g id="a_node3"><a xlink:title=" ">
<polygon fill="white" stroke="#bfbfbf" points="20.43,-56.5 20.43,-75.5 106.43,-75.5 106.43,-56.5 20.43,-56.5"/>
<text text-anchor="middle" x="63.43" y="-63.5" font-family="Helvetica,sans-Serif" font-size="10.00">glog/logging.h</text>
</a>
</g>
</g>
<!-- Node1&#45;&gt;Node3 -->
<g id="edge2" class="edge">
<title>Node1&#45;&gt;Node3</title>
<path fill="none" stroke="midnightblue" d="M179.36,-112.42C149.82,-100.85 117.86,-88.32 94.98,-79.36"/>
<polygon fill="midnightblue" stroke="midnightblue" points="96.05,-76.02 85.46,-75.63 93.5,-82.54 96.05,-76.02"/>
</g>
<!-- Node4 -->
<g id="node4" class="node">
<title>Node4</title>
<g id="a_node4"><a xlink:title=" ">
<polygon fill="white" stroke="#bfbfbf" points="124.43,-56.5 124.43,-75.5 182.43,-75.5 182.43,-56.5 124.43,-56.5"/>
<text text-anchor="middle" x="153.43" y="-63.5" font-family="Helvetica,sans-Serif" font-size="10.00">memory</text>
</a>
</g>
</g>
<!-- Node1&#45;&gt;Node4 -->
<g id="edge3" class="edge">
<title>Node1&#45;&gt;Node4</title>
<path fill="none" stroke="midnightblue" d="M215.42,-112.31C201.05,-101.8 185.61,-90.52 173.74,-81.85"/>
<polygon fill="midnightblue" stroke="midnightblue" points="175.57,-78.85 165.43,-75.77 171.44,-84.5 175.57,-78.85"/>
</g>
<!-- Node5 -->
<g id="node5" class="node">
<title>Node5</title>
<g id="a_node5"><a xlink:title=" ">
<polygon fill="white" stroke="#bfbfbf" points="200.43,-56.5 200.43,-75.5 248.43,-75.5 248.43,-56.5 200.43,-56.5"/>
<text text-anchor="middle" x="224.43" y="-63.5" font-family="Helvetica,sans-Serif" font-size="10.00">mutex</text>
</a>
</g>
</g>
<!-- Node1&#45;&gt;Node5 -->
<g id="edge4" class="edge">
<title>Node1&#45;&gt;Node5</title>
<path fill="none" stroke="midnightblue" d="M244,-112.09C239.99,-102.84 235.72,-93.01 232.2,-84.9"/>
<polygon fill="midnightblue" stroke="midnightblue" points="235.4,-83.5 228.21,-75.72 228.98,-86.28 235.4,-83.5"/>
</g>
<!-- Node6 -->
<g id="node6" class="node">
<title>Node6</title>
<g id="a_node6"><a xlink:title=" ">
<polygon fill="white" stroke="#bfbfbf" points="266.43,-56.5 266.43,-75.5 314.43,-75.5 314.43,-56.5 266.43,-56.5"/>
<text text-anchor="middle" x="290.43" y="-63.5" font-family="Helvetica,sans-Serif" font-size="10.00">thread</text>
</a>
</g>
</g>
<!-- Node1&#45;&gt;Node6 -->
<g id="edge5" class="edge">
<title>Node1&#45;&gt;Node6</title>
<path fill="none" stroke="midnightblue" d="M270.85,-112.09C274.86,-102.84 279.13,-93.01 282.65,-84.9"/>
<polygon fill="midnightblue" stroke="midnightblue" points="285.87,-86.28 286.64,-75.72 279.45,-83.5 285.87,-86.28"/>
</g>
<!-- Node7 -->
<g id="node7" class="node">
<title>Node7</title>
<g id="a_node7"><a xlink:title=" ">
<polygon fill="white" stroke="#bfbfbf" points="332.93,-56.5 332.93,-75.5 425.93,-75.5 425.93,-56.5 332.93,-56.5"/>
<text text-anchor="middle" x="379.43" y="-63.5" font-family="Helvetica,sans-Serif" font-size="10.00">unordered_map</text>
</a>
</g>
</g>
<!-- Node1&#45;&gt;Node7 -->
<g id="edge6" class="edge">
<title>Node1&#45;&gt;Node7</title>
<path fill="none" stroke="midnightblue" d="M306.7,-112.31C324.16,-101.43 342.97,-89.71 357.08,-80.92"/>
<polygon fill="midnightblue" stroke="midnightblue" points="358.97,-83.86 365.61,-75.61 355.27,-77.92 358.97,-83.86"/>
</g>
<!-- Node8 -->
<g id="node8" class="node">
<title>Node8</title>
<g id="a_node8"><a xlink:title=" ">
<polygon fill="white" stroke="#bfbfbf" points="443.93,-56.5 443.93,-75.5 490.93,-75.5 490.93,-56.5 443.93,-56.5"/>
<text text-anchor="middle" x="467.43" y="-63.5" font-family="Helvetica,sans-Serif" font-size="10.00">vector</text>
</a>
</g>
</g>
<!-- Node1&#45;&gt;Node8 -->
<g id="edge7" class="edge">
<title>Node1&#45;&gt;Node8</title>
<path fill="none" stroke="midnightblue" d="M341.03,-112.74C373.6,-100.96 409.04,-88.13 434.08,-79.07"/>
<polygon fill="midnightblue" stroke="midnightblue" points="435.59,-82.24 443.8,-75.55 433.21,-75.66 435.59,-82.24"/>
</g>
<!-- Node9 -->
<g id="node9" class="node">
<title>Node9</title>
<g id="a_node9"><a xlink:href="../../df/d44/IThreadUser_8h.html" target="_top" xlink:title=" ">
<polygon fill="white" stroke="black" points="509.43,-56.5 509.43,-75.5 593.43,-75.5 593.43,-56.5 509.43,-56.5"/>
<text text-anchor="middle" x="551.43" y="-63.5" font-family="Helvetica,sans-Serif" font-size="10.00">IThreadUser.h</text>
</a>
</g>
</g>
<!-- Node1&#45;&gt;Node9 -->
<g id="edge8" class="edge">
<title>Node1&#45;&gt;Node9</title>
<path fill="none" stroke="midnightblue" d="M341.28,-121.32C395.92,-107.2 464.93,-89.36 508.63,-78.06"/>
<polygon fill="midnightblue" stroke="midnightblue" points="509.56,-81.44 518.37,-75.55 507.81,-74.66 509.56,-81.44"/>
</g>
<!-- Node9&#45;&gt;Node2 -->
<g id="edge9" class="edge">
<title>Node9&#45;&gt;Node2</title>
<path fill="none" stroke="midnightblue" d="M509.2,-56.86C453.32,-46.08 355.92,-27.29 304.85,-17.45"/>
<polygon fill="midnightblue" stroke="midnightblue" points="305.46,-14 294.98,-15.54 304.14,-20.87 305.46,-14"/>
</g>
</g>
</svg>
