<?xml version="1.0" encoding="UTF-8" standalone="no"?>
<!DOCTYPE svg PUBLIC "-//W3C//DTD SVG 1.1//EN"
 "http://www.w3.org/Graphics/SVG/1.1/DTD/svg11.dtd">
<!-- Generated by graphviz version 2.43.0 (0)
 -->
<!-- Title: FileJoinManager::join Pages: 1 -->
<svg width="660pt" height="116pt"
 viewBox="0.00 0.00 660.00 115.50" xmlns="http://www.w3.org/2000/svg" xmlns:xlink="http://www.w3.org/1999/xlink">
<g id="graph0" class="graph" transform="scale(1 1) rotate(0) translate(4 111.5)">
<title>FileJoinManager::join</title>
<polygon fill="white" stroke="transparent" points="-4,4 -4,-111.5 656,-111.5 656,4 -4,4"/>
<!-- Node1 -->
<g id="node1" class="node">
<title>Node1</title>
<g id="a_node1"><a xlink:title=" ">
<polygon fill="#bfbfbf" stroke="black" points="0,-38.5 0,-57.5 119,-57.5 119,-38.5 0,-38.5"/>
<text text-anchor="middle" x="59.5" y="-45.5" font-family="Helvetica,sans-Serif" font-size="10.00">FileJoinManager::join</text>
</a>
</g>
</g>
<!-- Node2 -->
<g id="node2" class="node">
<title>Node2</title>
<g id="a_node2"><a xlink:href="../../db/de7/classFileJoinManager.html#ac38ad92864bb30677dbd222ab5e2a1ca" target="_top" xlink:title=" ">
<polygon fill="white" stroke="black" points="155,-77 155,-107 310,-107 310,-77 155,-77"/>
<text text-anchor="start" x="163" y="-95" font-family="Helvetica,sans-Serif" font-size="10.00">FileJoinManager::appendDoc</text>
<text text-anchor="middle" x="232.5" y="-84" font-family="Helvetica,sans-Serif" font-size="10.00">ToFile</text>
</a>
</g>
</g>
<!-- Node1&#45;&gt;Node2 -->
<g id="edge1" class="edge">
<title>Node1&#45;&gt;Node2</title>
<path fill="none" stroke="midnightblue" d="M97.6,-57.55C116.77,-62.48 140.78,-68.66 163.15,-74.41"/>
<polygon fill="midnightblue" stroke="midnightblue" points="162.39,-77.83 172.95,-76.93 164.14,-71.05 162.39,-77.83"/>
</g>
<!-- Node5 -->
<g id="node5" class="node">
<title>Node5</title>
<g id="a_node5"><a xlink:href="../../db/de7/classFileJoinManager.html#a8b7383368c97b095ce3f1e3187f7d682" target="_top" xlink:title=" ">
<polygon fill="white" stroke="black" points="353.5,-38.5 353.5,-57.5 487.5,-57.5 487.5,-38.5 353.5,-38.5"/>
<text text-anchor="middle" x="420.5" y="-45.5" font-family="Helvetica,sans-Serif" font-size="10.00">FileJoinManager::getFile</text>
</a>
</g>
</g>
<!-- Node1&#45;&gt;Node5 -->
<g id="edge4" class="edge">
<title>Node1&#45;&gt;Node5</title>
<path fill="none" stroke="midnightblue" d="M119.38,-48C180.49,-48 276.33,-48 343.21,-48"/>
<polygon fill="midnightblue" stroke="midnightblue" points="343.27,-51.5 353.27,-48 343.27,-44.5 343.27,-51.5"/>
</g>
<!-- Node6 -->
<g id="node6" class="node">
<title>Node6</title>
<g id="a_node6"><a xlink:href="../../db/de7/classFileJoinManager.html#aa8bffc0de74614fb9a756e90860a0e29" target="_top" xlink:title=" ">
<polygon fill="white" stroke="black" points="158,-0.5 158,-19.5 307,-19.5 307,-0.5 158,-0.5"/>
<text text-anchor="middle" x="232.5" y="-7.5" font-family="Helvetica,sans-Serif" font-size="10.00">FileJoinManager::getJoinVal</text>
</a>
</g>
</g>
<!-- Node1&#45;&gt;Node6 -->
<g id="edge5" class="edge">
<title>Node1&#45;&gt;Node6</title>
<path fill="none" stroke="midnightblue" d="M103.65,-38.41C126.42,-33.35 154.55,-27.1 178.62,-21.75"/>
<polygon fill="midnightblue" stroke="midnightblue" points="179.66,-25.11 188.66,-19.52 178.14,-18.27 179.66,-25.11"/>
</g>
<!-- Node3 -->
<g id="node3" class="node">
<title>Node3</title>
<g id="a_node3"><a xlink:href="../../d7/d4e/classRapidJsonDocument.html#a94684e414fd9f572164f1da873d16783" target="_top" xlink:title=" ">
<polygon fill="white" stroke="black" points="360,-77 360,-107 481,-107 481,-77 360,-77"/>
<text text-anchor="start" x="368" y="-95" font-family="Helvetica,sans-Serif" font-size="10.00">RapidJsonDocument::</text>
<text text-anchor="middle" x="420.5" y="-84" font-family="Helvetica,sans-Serif" font-size="10.00">Accept</text>
</a>
</g>
</g>
<!-- Node2&#45;&gt;Node3 -->
<g id="edge2" class="edge">
<title>Node2&#45;&gt;Node3</title>
<path fill="none" stroke="midnightblue" d="M310.23,-92C323.33,-92 336.89,-92 349.8,-92"/>
<polygon fill="midnightblue" stroke="midnightblue" points="350,-95.5 360,-92 350,-88.5 350,-95.5"/>
</g>
<!-- Node4 -->
<g id="node4" class="node">
<title>Node4</title>
<g id="a_node4"><a xlink:href="../../d7/d4e/classRapidJsonDocument.html#a9ac06e03f62b480a5fee67b8663f2f71" target="_top" xlink:title=" ">
<polygon fill="white" stroke="black" points="531,-77 531,-107 652,-107 652,-77 531,-77"/>
<text text-anchor="start" x="539" y="-95" font-family="Helvetica,sans-Serif" font-size="10.00">RapidJsonDocument::</text>
<text text-anchor="middle" x="591.5" y="-84" font-family="Helvetica,sans-Serif" font-size="10.00">isView</text>
</a>
</g>
</g>
<!-- Node3&#45;&gt;Node4 -->
<g id="edge3" class="edge">
<title>Node3&#45;&gt;Node4</title>
<path fill="none" stroke="midnightblue" d="M481.08,-92C493.83,-92 507.41,-92 520.51,-92"/>
<polygon fill="midnightblue" stroke="midnightblue" points="520.89,-95.5 530.89,-92 520.89,-88.5 520.89,-95.5"/>
</g>
<!-- Node6&#45;&gt;Node5 -->
<g id="edge7" class="edge">
<title>Node6&#45;&gt;Node5</title>
<path fill="none" stroke="midnightblue" d="M280.44,-19.59C305.53,-24.72 336.62,-31.07 363.03,-36.46"/>
<polygon fill="midnightblue" stroke="midnightblue" points="362.4,-39.91 372.9,-38.48 363.8,-33.05 362.4,-39.91"/>
</g>
<!-- Node7 -->
<g id="node7" class="node">
<title>Node7</title>
<g id="a_node7"><a xlink:href="../../db/de7/classFileJoinManager.html#ada5ee1770cedeb43690d3ee5c1ac571f" target="_top" xlink:title=" ">
<polygon fill="white" stroke="black" points="346,-0.5 346,-19.5 495,-19.5 495,-0.5 346,-0.5"/>
<text text-anchor="middle" x="420.5" y="-7.5" font-family="Helvetica,sans-Serif" font-size="10.00">FileJoinManager::createFile</text>
</a>
</g>
</g>
<!-- Node6&#45;&gt;Node7 -->
<g id="edge6" class="edge">
<title>Node6&#45;&gt;Node7</title>
<path fill="none" stroke="midnightblue" d="M307.01,-10C316.41,-10 326.08,-10 335.63,-10"/>
<polygon fill="midnightblue" stroke="midnightblue" points="335.91,-13.5 345.91,-10 335.91,-6.5 335.91,-13.5"/>
</g>
</g>
</svg>
