<?xml version="1.0" encoding="UTF-8" standalone="no"?>
<!DOCTYPE svg PUBLIC "-//W3C//DTD SVG 1.1//EN"
 "http://www.w3.org/Graphics/SVG/1.1/DTD/svg11.dtd">
<!-- Generated by graphviz version 2.43.0 (0)
 -->
<!-- Title: /home/nico/joda_tmp/tmp&#45;joda&#45;dirs/JODA&#45;gh/libs/joda/core/modules/query/values/test/IValueTestHelper.h Pages: 1 -->
<svg width="1575pt" height="609pt"
 viewBox="0.00 0.00 1574.50 609.00" xmlns="http://www.w3.org/2000/svg" xmlns:xlink="http://www.w3.org/1999/xlink">
<g id="graph0" class="graph" transform="scale(1 1) rotate(0) translate(4 605)">
<title>/home/nico/joda_tmp/tmp&#45;joda&#45;dirs/JODA&#45;gh/libs/joda/core/modules/query/values/test/IValueTestHelper.h</title>
<polygon fill="white" stroke="transparent" points="-4,4 -4,-605 1570.5,-605 1570.5,4 -4,4"/>
<!-- Node1 -->
<g id="node1" class="node">
<title>Node1</title>
<g id="a_node1"><a xlink:title=" ">
<polygon fill="#bfbfbf" stroke="black" points="1156.5,-548.5 1156.5,-600.5 1353.5,-600.5 1353.5,-548.5 1156.5,-548.5"/>
<text text-anchor="start" x="1164.5" y="-588.5" font-family="Helvetica,sans-Serif" font-size="10.00">/home/nico/joda_tmp</text>
<text text-anchor="start" x="1164.5" y="-577.5" font-family="Helvetica,sans-Serif" font-size="10.00">/tmp&#45;joda&#45;dirs/JODA</text>
<text text-anchor="start" x="1164.5" y="-566.5" font-family="Helvetica,sans-Serif" font-size="10.00">&#45;gh/libs/joda/core/modules</text>
<text text-anchor="middle" x="1255" y="-555.5" font-family="Helvetica,sans-Serif" font-size="10.00">/query/values/test/IValueTestHelper.h</text>
</a>
</g>
</g>
<!-- Node2 -->
<g id="node2" class="node">
<title>Node2</title>
<g id="a_node2"><a xlink:href="../../d1/def/AtomProvider_8h.html" target="_top" xlink:title=" ">
<polygon fill="white" stroke="black" points="1045,-487 1045,-506 1227,-506 1227,-487 1045,-487"/>
<text text-anchor="middle" x="1136" y="-494" font-family="Helvetica,sans-Serif" font-size="10.00">joda/query/values/AtomProvider.h</text>
</a>
</g>
</g>
<!-- Node1&#45;&gt;Node2 -->
<g id="edge1" class="edge">
<title>Node1&#45;&gt;Node2</title>
<path fill="none" stroke="midnightblue" d="M1215.71,-548.4C1196.58,-536.19 1174.29,-521.95 1158.15,-511.65"/>
<polygon fill="midnightblue" stroke="midnightblue" points="1159.74,-508.51 1149.43,-506.08 1155.98,-514.41 1159.74,-508.51"/>
</g>
<!-- Node5 -->
<g id="node5" class="node">
<title>Node5</title>
<g id="a_node5"><a xlink:href="../../dd/d50/IValueProvider_8h.html" target="_top" xlink:title=" ">
<polygon fill="white" stroke="black" points="1114.5,-425.5 1114.5,-444.5 1209.5,-444.5 1209.5,-425.5 1114.5,-425.5"/>
<text text-anchor="middle" x="1162" y="-432.5" font-family="Helvetica,sans-Serif" font-size="10.00">IValueProvider.h</text>
</a>
</g>
</g>
<!-- Node1&#45;&gt;Node5 -->
<g id="edge67" class="edge">
<title>Node1&#45;&gt;Node5</title>
<path fill="none" stroke="midnightblue" d="M1255.15,-548.19C1254.08,-528.28 1249.88,-500.7 1236,-481 1225.99,-466.78 1209.92,-456.22 1195.31,-448.92"/>
<polygon fill="midnightblue" stroke="midnightblue" points="1196.54,-445.64 1185.99,-444.59 1193.58,-451.98 1196.54,-445.64"/>
</g>
<!-- Node36 -->
<g id="node36" class="node">
<title>Node36</title>
<g id="a_node36"><a xlink:href="../../de/d9e/PointerProvider_8h.html" target="_top" xlink:title=" ">
<polygon fill="white" stroke="black" points="1283.5,-481.5 1283.5,-511.5 1424.5,-511.5 1424.5,-481.5 1283.5,-481.5"/>
<text text-anchor="start" x="1291.5" y="-499.5" font-family="Helvetica,sans-Serif" font-size="10.00">joda/query/values/Pointer</text>
<text text-anchor="middle" x="1354" y="-488.5" font-family="Helvetica,sans-Serif" font-size="10.00">Provider.h</text>
</a>
</g>
</g>
<!-- Node1&#45;&gt;Node36 -->
<g id="edge68" class="edge">
<title>Node1&#45;&gt;Node36</title>
<path fill="none" stroke="midnightblue" d="M1287.69,-548.4C1300.6,-538.5 1315.23,-527.26 1327.46,-517.87"/>
<polygon fill="midnightblue" stroke="midnightblue" points="1329.69,-520.57 1335.49,-511.71 1325.43,-515.02 1329.69,-520.57"/>
</g>
<!-- Node3 -->
<g id="node3" class="node">
<title>Node3</title>
<g id="a_node3"><a xlink:title=" ">
<polygon fill="white" stroke="#bfbfbf" points="421.5,-179.5 421.5,-198.5 466.5,-198.5 466.5,-179.5 421.5,-179.5"/>
<text text-anchor="middle" x="444" y="-186.5" font-family="Helvetica,sans-Serif" font-size="10.00">utility</text>
</a>
</g>
</g>
<!-- Node2&#45;&gt;Node3 -->
<g id="edge2" class="edge">
<title>Node2&#45;&gt;Node3</title>
<path fill="none" stroke="midnightblue" d="M1044.65,-490.73C845.71,-479.13 391,-445.44 391,-380 391,-380 391,-380 391,-316.5 391,-274.64 415.99,-230.63 431.65,-207.15"/>
<polygon fill="midnightblue" stroke="midnightblue" points="434.7,-208.89 437.5,-198.67 428.94,-204.91 434.7,-208.89"/>
</g>
<!-- Node4 -->
<g id="node4" class="node">
<title>Node4</title>
<g id="a_node4"><a xlink:title=" ">
<polygon fill="white" stroke="#bfbfbf" points="1350.5,-0.5 1350.5,-19.5 1441.5,-19.5 1441.5,-0.5 1350.5,-0.5"/>
<text text-anchor="middle" x="1396" y="-7.5" font-family="Helvetica,sans-Serif" font-size="10.00">rapidjson/fwd.h</text>
</a>
</g>
</g>
<!-- Node2&#45;&gt;Node4 -->
<g id="edge3" class="edge">
<title>Node2&#45;&gt;Node4</title>
<path fill="none" stroke="midnightblue" d="M1199.1,-486.95C1287.36,-471.04 1437,-427.92 1437,-318.5 1437,-318.5 1437,-318.5 1437,-121 1437,-86.52 1419.09,-49.56 1406.94,-28.47"/>
<polygon fill="midnightblue" stroke="midnightblue" points="1409.84,-26.49 1401.7,-19.71 1403.84,-30.09 1409.84,-26.49"/>
</g>
<!-- Node2&#45;&gt;Node5 -->
<g id="edge4" class="edge">
<title>Node2&#45;&gt;Node5</title>
<path fill="none" stroke="midnightblue" d="M1139.73,-486.98C1143.47,-478.4 1149.36,-464.93 1154.14,-453.98"/>
<polygon fill="midnightblue" stroke="midnightblue" points="1157.48,-455.07 1158.28,-444.51 1151.07,-452.27 1157.48,-455.07"/>
</g>
<!-- Node5&#45;&gt;Node4 -->
<g id="edge7" class="edge">
<title>Node5&#45;&gt;Node4</title>
<path fill="none" stroke="midnightblue" d="M1209.8,-427.24C1259.42,-419.48 1332.95,-405.65 1356,-389 1385.75,-367.51 1399,-355.2 1399,-318.5 1399,-318.5 1399,-318.5 1399,-121 1399,-88.94 1397.71,-51.63 1396.82,-29.74"/>
<polygon fill="midnightblue" stroke="midnightblue" points="1400.31,-29.4 1396.39,-19.56 1393.32,-29.69 1400.31,-29.4"/>
</g>
<!-- Node6 -->
<g id="node6" class="node">
<title>Node6</title>
<g id="a_node6"><a xlink:title=" ">
<polygon fill="white" stroke="#bfbfbf" points="178,-0.5 178,-19.5 264,-19.5 264,-0.5 178,-0.5"/>
<text text-anchor="middle" x="221" y="-7.5" font-family="Helvetica,sans-Serif" font-size="10.00">glog/logging.h</text>
</a>
</g>
</g>
<!-- Node5&#45;&gt;Node6 -->
<g id="edge5" class="edge">
<title>Node5&#45;&gt;Node6</title>
<path fill="none" stroke="midnightblue" d="M1114.34,-434.08C903.01,-433.83 61,-426.07 61,-318.5 61,-318.5 61,-318.5 61,-121 61,-66.24 125.42,-36.68 172.51,-22.4"/>
<polygon fill="midnightblue" stroke="midnightblue" points="173.63,-25.71 182.27,-19.57 171.69,-18.99 173.63,-25.71"/>
</g>
<!-- Node7 -->
<g id="node7" class="node">
<title>Node7</title>
<g id="a_node7"><a xlink:title=" ">
<polygon fill="white" stroke="#bfbfbf" points="0,-0.5 0,-19.5 122,-19.5 122,-0.5 0,-0.5"/>
<text text-anchor="middle" x="61" y="-7.5" font-family="Helvetica,sans-Serif" font-size="10.00">rapidjson/document.h</text>
</a>
</g>
</g>
<!-- Node5&#45;&gt;Node7 -->
<g id="edge6" class="edge">
<title>Node5&#45;&gt;Node7</title>
<path fill="none" stroke="midnightblue" d="M1114.5,-433.15C927.15,-429.6 245.19,-415.03 152,-389 89.07,-371.43 23,-383.84 23,-318.5 23,-318.5 23,-318.5 23,-121 23,-86.81 39.6,-49.76 50.86,-28.57"/>
<polygon fill="midnightblue" stroke="midnightblue" points="53.95,-30.22 55.72,-19.77 47.82,-26.83 53.95,-30.22"/>
</g>
<!-- Node8 -->
<g id="node8" class="node">
<title>Node8</title>
<g id="a_node8"><a xlink:title=" ">
<polygon fill="white" stroke="#bfbfbf" points="1280.5,-369.5 1280.5,-388.5 1327.5,-388.5 1327.5,-369.5 1280.5,-369.5"/>
<text text-anchor="middle" x="1304" y="-376.5" font-family="Helvetica,sans-Serif" font-size="10.00">cmath</text>
</a>
</g>
</g>
<!-- Node5&#45;&gt;Node8 -->
<g id="edge8" class="edge">
<title>Node5&#45;&gt;Node8</title>
<path fill="none" stroke="midnightblue" d="M1184.5,-425.44C1208.08,-416.48 1245.32,-402.31 1271.96,-392.18"/>
<polygon fill="midnightblue" stroke="midnightblue" points="1273.5,-395.34 1281.6,-388.52 1271.01,-388.8 1273.5,-395.34"/>
</g>
<!-- Node9 -->
<g id="node9" class="node">
<title>Node9</title>
<g id="a_node9"><a xlink:title=" ">
<polygon fill="white" stroke="#bfbfbf" points="880.5,-369.5 880.5,-388.5 1005.5,-388.5 1005.5,-369.5 880.5,-369.5"/>
<text text-anchor="middle" x="943" y="-376.5" font-family="Helvetica,sans-Serif" font-size="10.00">experimental/optional</text>
</a>
</g>
</g>
<!-- Node5&#45;&gt;Node9 -->
<g id="edge9" class="edge">
<title>Node5&#45;&gt;Node9</title>
<path fill="none" stroke="midnightblue" d="M1127.3,-425.44C1089.42,-416.1 1028.65,-401.12 987.34,-390.93"/>
<polygon fill="midnightblue" stroke="midnightblue" points="988.09,-387.51 977.54,-388.52 986.41,-394.31 988.09,-387.51"/>
</g>
<!-- Node10 -->
<g id="node10" class="node">
<title>Node10</title>
<g id="a_node10"><a xlink:title=" ">
<polygon fill="white" stroke="#bfbfbf" points="1218,-112.5 1218,-131.5 1276,-131.5 1276,-112.5 1218,-112.5"/>
<text text-anchor="middle" x="1247" y="-119.5" font-family="Helvetica,sans-Serif" font-size="10.00">memory</text>
</a>
</g>
</g>
<!-- Node5&#45;&gt;Node10 -->
<g id="edge10" class="edge">
<title>Node5&#45;&gt;Node10</title>
<path fill="none" stroke="midnightblue" d="M1209.75,-428.21C1255.77,-421.54 1320.62,-408.86 1336,-389 1397.9,-309.06 1300.86,-183.82 1261.97,-139.34"/>
<polygon fill="midnightblue" stroke="midnightblue" points="1264.5,-136.92 1255.23,-131.78 1259.27,-141.58 1264.5,-136.92"/>
</g>
<!-- Node11 -->
<g id="node11" class="node">
<title>Node11</title>
<g id="a_node11"><a xlink:title=" ">
<polygon fill="white" stroke="#bfbfbf" points="262,-56.5 262,-75.5 306,-75.5 306,-56.5 262,-56.5"/>
<text text-anchor="middle" x="284" y="-63.5" font-family="Helvetica,sans-Serif" font-size="10.00">string</text>
</a>
</g>
</g>
<!-- Node5&#45;&gt;Node11 -->
<g id="edge11" class="edge">
<title>Node5&#45;&gt;Node11</title>
<path fill="none" stroke="midnightblue" d="M1114.47,-433.77C933.02,-431.8 287.94,-414.32 165,-266 119.41,-211 163.95,-165.74 211,-112 222.83,-98.49 239.71,-87.73 254.26,-80.11"/>
<polygon fill="midnightblue" stroke="midnightblue" points="256.01,-83.15 263.41,-75.57 252.89,-76.88 256.01,-83.15"/>
</g>
<!-- Node12 -->
<g id="node12" class="node">
<title>Node12</title>
<g id="a_node12"><a xlink:href="../../d1/dfd/RapidJsonDocument_8h.html" target="_top" xlink:title=" ">
<polygon fill="white" stroke="black" points="1062,-369.5 1062,-388.5 1262,-388.5 1262,-369.5 1062,-369.5"/>
<text text-anchor="middle" x="1162" y="-376.5" font-family="Helvetica,sans-Serif" font-size="10.00">joda/document/RapidJsonDocument.h</text>
</a>
</g>
</g>
<!-- Node5&#45;&gt;Node12 -->
<g id="edge12" class="edge">
<title>Node5&#45;&gt;Node12</title>
<path fill="none" stroke="midnightblue" d="M1162,-425.08C1162,-418.01 1162,-407.86 1162,-398.99"/>
<polygon fill="midnightblue" stroke="midnightblue" points="1165.5,-398.75 1162,-388.75 1158.5,-398.75 1165.5,-398.75"/>
</g>
<!-- Node12&#45;&gt;Node4 -->
<g id="edge52" class="edge">
<title>Node12&#45;&gt;Node4</title>
<path fill="none" stroke="midnightblue" d="M1184.44,-369.41C1236.48,-347.86 1361,-286.24 1361,-190 1361,-190 1361,-190 1361,-121 1361,-87.07 1376.31,-49.91 1386.68,-28.63"/>
<polygon fill="midnightblue" stroke="midnightblue" points="1389.88,-30.05 1391.28,-19.54 1383.64,-26.88 1389.88,-30.05"/>
</g>
<!-- Node12&#45;&gt;Node10 -->
<g id="edge54" class="edge">
<title>Node12&#45;&gt;Node10</title>
<path fill="none" stroke="midnightblue" d="M1173.66,-369.36C1183.84,-361.16 1198.18,-347.9 1206,-333 1239.8,-268.62 1245.88,-179.91 1246.87,-141.72"/>
<polygon fill="midnightblue" stroke="midnightblue" points="1250.37,-141.63 1247.04,-131.58 1243.38,-141.52 1250.37,-141.63"/>
</g>
<!-- Node13 -->
<g id="node13" class="node">
<title>Node13</title>
<g id="a_node13"><a xlink:href="../../d2/d0d/ViewLayer_8h.html" target="_top" xlink:title=" ">
<polygon fill="white" stroke="black" points="529,-302.5 529,-332.5 645,-332.5 645,-302.5 529,-302.5"/>
<text text-anchor="start" x="537" y="-320.5" font-family="Helvetica,sans-Serif" font-size="10.00">joda/document/view</text>
<text text-anchor="middle" x="587" y="-309.5" font-family="Helvetica,sans-Serif" font-size="10.00">/ViewLayer.h</text>
</a>
</g>
</g>
<!-- Node12&#45;&gt;Node13 -->
<g id="edge13" class="edge">
<title>Node12&#45;&gt;Node13</title>
<path fill="none" stroke="midnightblue" d="M1079.62,-369.48C965.45,-357.66 761.25,-336.53 655.17,-325.55"/>
<polygon fill="midnightblue" stroke="midnightblue" points="655.53,-322.07 645.22,-324.52 654.81,-329.04 655.53,-322.07"/>
</g>
<!-- Node16 -->
<g id="node16" class="node">
<title>Node16</title>
<g id="a_node16"><a xlink:href="../../d6/d09/RJFwd_8h.html" target="_top" xlink:title=" ">
<polygon fill="white" stroke="black" points="867,-56.5 867,-75.5 973,-75.5 973,-56.5 867,-56.5"/>
<text text-anchor="middle" x="920" y="-63.5" font-family="Helvetica,sans-Serif" font-size="10.00">joda/misc/RJFwd.h</text>
</a>
</g>
</g>
<!-- Node12&#45;&gt;Node16 -->
<g id="edge66" class="edge">
<title>Node12&#45;&gt;Node16</title>
<path fill="none" stroke="midnightblue" d="M1153.56,-369.42C1145.13,-360.63 1132,-346.4 1122,-333 1094.78,-296.53 1094.56,-282.95 1068,-246 1022.83,-183.15 962.19,-113.91 934.67,-83.2"/>
<polygon fill="midnightblue" stroke="midnightblue" points="937.12,-80.69 927.83,-75.6 931.92,-85.38 937.12,-80.69"/>
</g>
<!-- Node17 -->
<g id="node17" class="node">
<title>Node17</title>
<g id="a_node17"><a xlink:title=" ">
<polygon fill="white" stroke="#bfbfbf" points="1127,-0.5 1127,-19.5 1249,-19.5 1249,-0.5 1127,-0.5"/>
<text text-anchor="middle" x="1188" y="-7.5" font-family="Helvetica,sans-Serif" font-size="10.00">rapidjson/allocators.h</text>
</a>
</g>
</g>
<!-- Node12&#45;&gt;Node17 -->
<g id="edge51" class="edge">
<title>Node12&#45;&gt;Node17</title>
<path fill="none" stroke="midnightblue" d="M1180.52,-369.47C1195.12,-361.84 1214.96,-349.36 1227,-333 1241.17,-313.75 1278.67,-178.74 1285,-132 1286.19,-123.19 1288.32,-120.25 1285,-112 1269.87,-74.4 1233.31,-42.94 1209.65,-25.57"/>
<polygon fill="midnightblue" stroke="midnightblue" points="1211.46,-22.56 1201.28,-19.62 1207.4,-28.27 1211.46,-22.56"/>
</g>
<!-- Node31 -->
<g id="node31" class="node">
<title>Node31</title>
<g id="a_node31"><a xlink:title=" ">
<polygon fill="white" stroke="#bfbfbf" points="1131,-308 1131,-327 1181,-327 1181,-308 1131,-308"/>
<text text-anchor="middle" x="1156" y="-315" font-family="Helvetica,sans-Serif" font-size="10.00">atomic</text>
</a>
</g>
</g>
<!-- Node12&#45;&gt;Node31 -->
<g id="edge53" class="edge">
<title>Node12&#45;&gt;Node31</title>
<path fill="none" stroke="midnightblue" d="M1161.14,-369.48C1160.29,-361.08 1158.97,-347.98 1157.88,-337.16"/>
<polygon fill="midnightblue" stroke="midnightblue" points="1161.34,-336.61 1156.86,-327.01 1154.38,-337.31 1161.34,-336.61"/>
</g>
<!-- Node32 -->
<g id="node32" class="node">
<title>Node32</title>
<g id="a_node32"><a xlink:href="../../df/d13/FileNameRepo_8h.html" target="_top" xlink:title=" ">
<polygon fill="white" stroke="black" points="599.5,-168.5 599.5,-209.5 754.5,-209.5 754.5,-168.5 599.5,-168.5"/>
<text text-anchor="start" x="607.5" y="-197.5" font-family="Helvetica,sans-Serif" font-size="10.00">../../../../../misc</text>
<text text-anchor="start" x="607.5" y="-186.5" font-family="Helvetica,sans-Serif" font-size="10.00">/include/joda/misc/FileName</text>
<text text-anchor="middle" x="677" y="-175.5" font-family="Helvetica,sans-Serif" font-size="10.00">Repo.h</text>
</a>
</g>
</g>
<!-- Node12&#45;&gt;Node32 -->
<g id="edge55" class="edge">
<title>Node12&#45;&gt;Node32</title>
<path fill="none" stroke="midnightblue" d="M1141.95,-369.39C1125.98,-361.73 1103.91,-349.22 1089,-333 1059.68,-301.1 1080.09,-271.42 1045,-246 1033.69,-237.81 869.75,-215.13 764.54,-201.28"/>
<polygon fill="midnightblue" stroke="midnightblue" points="764.92,-197.8 754.55,-199.96 764.01,-204.74 764.92,-197.8"/>
</g>
<!-- Node34 -->
<g id="node34" class="node">
<title>Node34</title>
<g id="a_node34"><a xlink:href="../../d5/d6c/IOrigin_8h.html" target="_top" xlink:title=" ">
<polygon fill="white" stroke="black" points="1114,-179.5 1114,-198.5 1172,-198.5 1172,-179.5 1114,-179.5"/>
<text text-anchor="middle" x="1143" y="-186.5" font-family="Helvetica,sans-Serif" font-size="10.00">IOrigin.h</text>
</a>
</g>
</g>
<!-- Node12&#45;&gt;Node34 -->
<g id="edge61" class="edge">
<title>Node12&#45;&gt;Node34</title>
<path fill="none" stroke="midnightblue" d="M1169.41,-369.41C1176.28,-360.84 1186.01,-346.98 1190,-333 1193.79,-319.75 1192.72,-315.51 1190,-302 1182.92,-266.84 1164.51,-228.97 1152.94,-207.5"/>
<polygon fill="midnightblue" stroke="midnightblue" points="1155.93,-205.68 1148.03,-198.62 1149.8,-209.06 1155.93,-205.68"/>
</g>
<!-- Node13&#45;&gt;Node6 -->
<g id="edge14" class="edge">
<title>Node13&#45;&gt;Node6</title>
<path fill="none" stroke="midnightblue" d="M528.87,-310.55C414.56,-298.7 170.99,-272.75 165,-266 102.93,-196.05 177.28,-73.22 208.48,-28.18"/>
<polygon fill="midnightblue" stroke="midnightblue" points="211.49,-29.98 214.42,-19.79 205.78,-25.93 211.49,-29.98"/>
</g>
<!-- Node14 -->
<g id="node14" class="node">
<title>Node14</title>
<g id="a_node14"><a xlink:href="../../db/d16/config_8h.html" target="_top" xlink:title=" ">
<polygon fill="white" stroke="black" points="174.5,-246.5 174.5,-265.5 285.5,-265.5 285.5,-246.5 174.5,-246.5"/>
<text text-anchor="middle" x="230" y="-253.5" font-family="Helvetica,sans-Serif" font-size="10.00">joda/config/config.h</text>
</a>
</g>
</g>
<!-- Node13&#45;&gt;Node14 -->
<g id="edge15" class="edge">
<title>Node13&#45;&gt;Node14</title>
<path fill="none" stroke="midnightblue" d="M528.85,-306.81C463.45,-295.91 357.7,-278.28 291.11,-267.19"/>
<polygon fill="midnightblue" stroke="midnightblue" points="291.62,-263.72 281.18,-265.53 290.47,-270.63 291.62,-263.72"/>
</g>
<!-- Node13&#45;&gt;Node16 -->
<g id="edge18" class="edge">
<title>Node13&#45;&gt;Node16</title>
<path fill="none" stroke="midnightblue" d="M645.13,-314.65C728.75,-310.86 877.41,-299.47 918,-266 971.34,-222.01 942.51,-125.19 927.38,-85.02"/>
<polygon fill="midnightblue" stroke="midnightblue" points="930.63,-83.72 923.72,-75.68 924.11,-86.27 930.63,-83.72"/>
</g>
<!-- Node20 -->
<g id="node20" class="node">
<title>Node20</title>
<g id="a_node20"><a xlink:title=" ">
<polygon fill="white" stroke="#bfbfbf" points="569.5,-246.5 569.5,-265.5 698.5,-265.5 698.5,-246.5 569.5,-246.5"/>
<text text-anchor="middle" x="634" y="-253.5" font-family="Helvetica,sans-Serif" font-size="10.00">rapidjson/stringbuffer.h</text>
</a>
</g>
</g>
<!-- Node13&#45;&gt;Node20 -->
<g id="edge25" class="edge">
<title>Node13&#45;&gt;Node20</title>
<path fill="none" stroke="midnightblue" d="M598.14,-302.4C604.97,-293.75 613.74,-282.64 620.91,-273.58"/>
<polygon fill="midnightblue" stroke="midnightblue" points="623.71,-275.67 627.16,-265.66 618.22,-271.34 623.71,-275.67"/>
</g>
<!-- Node21 -->
<g id="node21" class="node">
<title>Node21</title>
<g id="a_node21"><a xlink:title=" ">
<polygon fill="white" stroke="#bfbfbf" points="717,-246.5 717,-265.5 781,-265.5 781,-246.5 717,-246.5"/>
<text text-anchor="middle" x="749" y="-253.5" font-family="Helvetica,sans-Serif" font-size="10.00">algorithm</text>
</a>
</g>
</g>
<!-- Node13&#45;&gt;Node21 -->
<g id="edge26" class="edge">
<title>Node13&#45;&gt;Node21</title>
<path fill="none" stroke="midnightblue" d="M625.39,-302.4C652.94,-292.28 689.67,-278.79 715.92,-269.15"/>
<polygon fill="midnightblue" stroke="midnightblue" points="717.25,-272.39 725.43,-265.66 714.83,-265.82 717.25,-272.39"/>
</g>
<!-- Node22 -->
<g id="node22" class="node">
<title>Node22</title>
<g id="a_node22"><a xlink:title=" ">
<polygon fill="white" stroke="#bfbfbf" points="551,-112.5 551,-131.5 599,-131.5 599,-112.5 551,-112.5"/>
<text text-anchor="middle" x="575" y="-119.5" font-family="Helvetica,sans-Serif" font-size="10.00">mutex</text>
</a>
</g>
</g>
<!-- Node13&#45;&gt;Node22 -->
<g id="edge27" class="edge">
<title>Node13&#45;&gt;Node22</title>
<path fill="none" stroke="midnightblue" d="M576.93,-302.26C570.7,-292.55 563.29,-279.12 560,-266 549.02,-222.16 561.07,-168.8 569.07,-141.32"/>
<polygon fill="midnightblue" stroke="midnightblue" points="572.49,-142.11 572.08,-131.53 565.8,-140.06 572.49,-142.11"/>
</g>
<!-- Node23 -->
<g id="node23" class="node">
<title>Node23</title>
<g id="a_node23"><a xlink:title=" ">
<polygon fill="white" stroke="#bfbfbf" points="439.5,-56.5 439.5,-75.5 532.5,-75.5 532.5,-56.5 439.5,-56.5"/>
<text text-anchor="middle" x="486" y="-63.5" font-family="Helvetica,sans-Serif" font-size="10.00">unordered_map</text>
</a>
</g>
</g>
<!-- Node13&#45;&gt;Node23 -->
<g id="edge28" class="edge">
<title>Node13&#45;&gt;Node23</title>
<path fill="none" stroke="midnightblue" d="M528.7,-307.3C499.32,-300.17 464.77,-287.68 440,-266 419.06,-247.67 418.39,-237.08 412,-210 401.83,-166.9 404.91,-148.49 430,-112 438.48,-99.67 451.3,-89.02 462.54,-81.18"/>
<polygon fill="midnightblue" stroke="midnightblue" points="464.69,-83.95 471.1,-75.51 460.83,-78.11 464.69,-83.95"/>
</g>
<!-- Node24 -->
<g id="node24" class="node">
<title>Node24</title>
<g id="a_node24"><a xlink:title=" ">
<polygon fill="white" stroke="#bfbfbf" points="985.5,-246.5 985.5,-265.5 1036.5,-265.5 1036.5,-246.5 985.5,-246.5"/>
<text text-anchor="middle" x="1011" y="-253.5" font-family="Helvetica,sans-Serif" font-size="10.00">variant</text>
</a>
</g>
</g>
<!-- Node13&#45;&gt;Node24 -->
<g id="edge29" class="edge">
<title>Node13&#45;&gt;Node24</title>
<path fill="none" stroke="midnightblue" d="M645.15,-310.51C720.59,-302.36 856.14,-286.43 971,-266 972.45,-265.74 973.92,-265.47 975.4,-265.18"/>
<polygon fill="midnightblue" stroke="midnightblue" points="976.16,-268.6 985.25,-263.15 974.75,-261.74 976.16,-268.6"/>
</g>
<!-- Node25 -->
<g id="node25" class="node">
<title>Node25</title>
<g id="a_node25"><a xlink:title=" ">
<polygon fill="white" stroke="#bfbfbf" points="457,-246.5 457,-265.5 513,-265.5 513,-246.5 457,-246.5"/>
<text text-anchor="middle" x="485" y="-253.5" font-family="Helvetica,sans-Serif" font-size="10.00">optional</text>
</a>
</g>
</g>
<!-- Node13&#45;&gt;Node25 -->
<g id="edge30" class="edge">
<title>Node13&#45;&gt;Node25</title>
<path fill="none" stroke="midnightblue" d="M562.83,-302.4C546.48,-292.86 524.99,-280.32 508.73,-270.84"/>
<polygon fill="midnightblue" stroke="midnightblue" points="510.24,-267.67 499.84,-265.66 506.72,-273.72 510.24,-267.67"/>
</g>
<!-- Node26 -->
<g id="node26" class="node">
<title>Node26</title>
<g id="a_node26"><a xlink:href="../../da/d3b/ObjectIterator_8h.html" target="_top" xlink:title=" ">
<polygon fill="white" stroke="black" points="799,-246.5 799,-265.5 891,-265.5 891,-246.5 799,-246.5"/>
<text text-anchor="middle" x="845" y="-253.5" font-family="Helvetica,sans-Serif" font-size="10.00">ObjectIterator.h</text>
</a>
</g>
</g>
<!-- Node13&#45;&gt;Node26 -->
<g id="edge31" class="edge">
<title>Node13&#45;&gt;Node26</title>
<path fill="none" stroke="midnightblue" d="M645.22,-303.07C691.45,-292.41 755.25,-277.7 798.2,-267.79"/>
<polygon fill="midnightblue" stroke="midnightblue" points="799.15,-271.16 808.11,-265.51 797.58,-264.34 799.15,-271.16"/>
</g>
<!-- Node28 -->
<g id="node28" class="node">
<title>Node28</title>
<g id="a_node28"><a xlink:href="../../d5/de2/ViewCursor_8h.html" target="_top" xlink:title=" ">
<polygon fill="white" stroke="black" points="849,-179.5 849,-198.5 929,-198.5 929,-179.5 849,-179.5"/>
<text text-anchor="middle" x="889" y="-186.5" font-family="Helvetica,sans-Serif" font-size="10.00">ViewCursor.h</text>
</a>
</g>
</g>
<!-- Node13&#45;&gt;Node28 -->
<g id="edge44" class="edge">
<title>Node13&#45;&gt;Node28</title>
<path fill="none" stroke="midnightblue" d="M645.23,-315.75C726.58,-313.33 867.93,-303.66 900,-266 913.6,-250.03 906.33,-224.98 898.7,-208.05"/>
<polygon fill="midnightblue" stroke="midnightblue" points="901.66,-206.12 894.09,-198.7 895.38,-209.22 901.66,-206.12"/>
</g>
<!-- Node29 -->
<g id="node29" class="node">
<title>Node29</title>
<g id="a_node29"><a xlink:href="../../d0/d10/ViewStructure_8h.html" target="_top" xlink:title=" ">
<polygon fill="white" stroke="black" points="439,-112.5 439,-131.5 533,-131.5 533,-112.5 439,-112.5"/>
<text text-anchor="middle" x="486" y="-119.5" font-family="Helvetica,sans-Serif" font-size="10.00">ViewStructure.h</text>
</a>
</g>
</g>
<!-- Node13&#45;&gt;Node29 -->
<g id="edge45" class="edge">
<title>Node13&#45;&gt;Node29</title>
<path fill="none" stroke="midnightblue" d="M528.81,-310.86C499.45,-304.74 466.27,-292.07 448,-266 432.15,-243.37 464.63,-235.61 475,-210 484.04,-187.67 486.11,-159.7 486.37,-141.6"/>
<polygon fill="midnightblue" stroke="midnightblue" points="489.87,-141.5 486.34,-131.51 482.87,-141.52 489.87,-141.5"/>
</g>
<!-- Node30 -->
<g id="node30" class="node">
<title>Node30</title>
<g id="a_node30"><a xlink:href="../../d8/dee/VirtualObject_8h.html" target="_top" xlink:title=" ">
<polygon fill="white" stroke="black" points="275.5,-179.5 275.5,-198.5 364.5,-198.5 364.5,-179.5 275.5,-179.5"/>
<text text-anchor="middle" x="320" y="-186.5" font-family="Helvetica,sans-Serif" font-size="10.00">VirtualObject.h</text>
</a>
</g>
</g>
<!-- Node13&#45;&gt;Node30 -->
<g id="edge46" class="edge">
<title>Node13&#45;&gt;Node30</title>
<path fill="none" stroke="midnightblue" d="M528.97,-311.77C464.43,-305.33 365.71,-291.55 339,-266 323.6,-251.27 319.94,-226.1 319.41,-208.79"/>
<polygon fill="midnightblue" stroke="midnightblue" points="322.91,-208.74 319.42,-198.74 315.91,-208.73 322.91,-208.74"/>
</g>
<!-- Node14&#45;&gt;Node11 -->
<g id="edge17" class="edge">
<title>Node14&#45;&gt;Node11</title>
<path fill="none" stroke="midnightblue" d="M219.84,-246.19C211.09,-237.87 199.1,-224.54 194,-210 187.82,-192.39 187.36,-185.44 194,-168 207.95,-131.38 241.95,-99.59 263.93,-81.89"/>
<polygon fill="midnightblue" stroke="midnightblue" points="266.25,-84.52 271.98,-75.61 261.94,-79 266.25,-84.52"/>
</g>
<!-- Node15 -->
<g id="node15" class="node">
<title>Node15</title>
<g id="a_node15"><a xlink:title=" ">
<polygon fill="white" stroke="#bfbfbf" points="203,-179.5 203,-198.5 257,-198.5 257,-179.5 203,-179.5"/>
<text text-anchor="middle" x="230" y="-186.5" font-family="Helvetica,sans-Serif" font-size="10.00">istream</text>
</a>
</g>
</g>
<!-- Node14&#45;&gt;Node15 -->
<g id="edge16" class="edge">
<title>Node14&#45;&gt;Node15</title>
<path fill="none" stroke="midnightblue" d="M230,-246.23C230,-236.68 230,-221.12 230,-208.78"/>
<polygon fill="midnightblue" stroke="midnightblue" points="233.5,-208.63 230,-198.63 226.5,-208.63 233.5,-208.63"/>
</g>
<!-- Node16&#45;&gt;Node4 -->
<g id="edge22" class="edge">
<title>Node16&#45;&gt;Node4</title>
<path fill="none" stroke="midnightblue" d="M973.22,-58.96C1063.94,-48.67 1247.7,-27.82 1340.17,-17.33"/>
<polygon fill="midnightblue" stroke="midnightblue" points="1340.64,-20.8 1350.18,-16.2 1339.85,-13.85 1340.64,-20.8"/>
</g>
<!-- Node16&#45;&gt;Node6 -->
<g id="edge19" class="edge">
<title>Node16&#45;&gt;Node6</title>
<path fill="none" stroke="midnightblue" d="M866.89,-60.9C737.07,-50.87 404.81,-25.2 274.54,-15.14"/>
<polygon fill="midnightblue" stroke="midnightblue" points="274.65,-11.63 264.41,-14.35 274.11,-18.61 274.65,-11.63"/>
</g>
<!-- Node16&#45;&gt;Node7 -->
<g id="edge21" class="edge">
<title>Node16&#45;&gt;Node7</title>
<path fill="none" stroke="midnightblue" d="M866.7,-62.23C743.71,-55.76 430.54,-38.73 169,-20 157.12,-19.15 144.52,-18.17 132.27,-17.18"/>
<polygon fill="midnightblue" stroke="midnightblue" points="132.35,-13.67 122.09,-16.34 131.78,-20.65 132.35,-13.67"/>
</g>
<!-- Node16&#45;&gt;Node17 -->
<g id="edge20" class="edge">
<title>Node16&#45;&gt;Node17</title>
<path fill="none" stroke="midnightblue" d="M962.47,-56.44C1009.41,-46.98 1085.08,-31.74 1135.65,-21.55"/>
<polygon fill="midnightblue" stroke="midnightblue" points="1136.62,-24.92 1145.73,-19.52 1135.24,-18.06 1136.62,-24.92"/>
</g>
<!-- Node18 -->
<g id="node18" class="node">
<title>Node18</title>
<g id="a_node18"><a xlink:title=" ">
<polygon fill="white" stroke="#bfbfbf" points="845,-0.5 845,-19.5 995,-19.5 995,-0.5 845,-0.5"/>
<text text-anchor="middle" x="920" y="-7.5" font-family="Helvetica,sans-Serif" font-size="10.00">rapidjson/istreamwrapper.h</text>
</a>
</g>
</g>
<!-- Node16&#45;&gt;Node18 -->
<g id="edge23" class="edge">
<title>Node16&#45;&gt;Node18</title>
<path fill="none" stroke="midnightblue" d="M920,-56.08C920,-49.01 920,-38.86 920,-29.99"/>
<polygon fill="midnightblue" stroke="midnightblue" points="923.5,-29.75 920,-19.75 916.5,-29.75 923.5,-29.75"/>
</g>
<!-- Node19 -->
<g id="node19" class="node">
<title>Node19</title>
<g id="a_node19"><a xlink:title=" ">
<polygon fill="white" stroke="#bfbfbf" points="1459.5,-0.5 1459.5,-19.5 1566.5,-19.5 1566.5,-0.5 1459.5,-0.5"/>
<text text-anchor="middle" x="1513" y="-7.5" font-family="Helvetica,sans-Serif" font-size="10.00">rapidjson/pointer.h</text>
</a>
</g>
</g>
<!-- Node16&#45;&gt;Node19 -->
<g id="edge24" class="edge">
<title>Node16&#45;&gt;Node19</title>
<path fill="none" stroke="midnightblue" d="M973.13,-61.5C1066.98,-55.09 1268.45,-40.36 1449.44,-20"/>
<polygon fill="midnightblue" stroke="midnightblue" points="1449.87,-23.47 1459.41,-18.87 1449.08,-16.52 1449.87,-23.47"/>
</g>
<!-- Node26&#45;&gt;Node3 -->
<g id="edge34" class="edge">
<title>Node26&#45;&gt;Node3</title>
<path fill="none" stroke="midnightblue" d="M798.81,-247.28C795.83,-246.83 792.87,-246.4 790,-246 653.07,-226.83 612.85,-251.62 481,-210 476.04,-208.43 470.97,-206.19 466.25,-203.77"/>
<polygon fill="midnightblue" stroke="midnightblue" points="467.6,-200.51 457.16,-198.7 464.19,-206.63 467.6,-200.51"/>
</g>
<!-- Node26&#45;&gt;Node11 -->
<g id="edge33" class="edge">
<title>Node26&#45;&gt;Node11</title>
<path fill="none" stroke="midnightblue" d="M798.91,-247.32C730.97,-235.93 609.81,-215.33 590,-210 589.24,-209.8 377.7,-132.36 377,-132 349.38,-117.6 320.4,-96.19 302.28,-81.92"/>
<polygon fill="midnightblue" stroke="midnightblue" points="304.3,-79.06 294.3,-75.56 299.93,-84.53 304.3,-79.06"/>
</g>
<!-- Node26&#45;&gt;Node16 -->
<g id="edge32" class="edge">
<title>Node26&#45;&gt;Node16</title>
<path fill="none" stroke="midnightblue" d="M842.36,-246.3C837.96,-230.29 830.5,-195.29 840,-168 852.22,-132.88 882.31,-100.78 901.9,-82.59"/>
<polygon fill="midnightblue" stroke="midnightblue" points="904.49,-84.97 909.58,-75.67 899.8,-79.77 904.49,-84.97"/>
</g>
<!-- Node27 -->
<g id="node27" class="node">
<title>Node27</title>
<g id="a_node27"><a xlink:title=" ">
<polygon fill="white" stroke="#bfbfbf" points="759.5,-112.5 759.5,-131.5 806.5,-131.5 806.5,-112.5 759.5,-112.5"/>
<text text-anchor="middle" x="783" y="-119.5" font-family="Helvetica,sans-Serif" font-size="10.00">vector</text>
</a>
</g>
</g>
<!-- Node26&#45;&gt;Node27 -->
<g id="edge35" class="edge">
<title>Node26&#45;&gt;Node27</title>
<path fill="none" stroke="midnightblue" d="M835.54,-246.22C826.92,-237.73 814.44,-224.11 807,-210 795.38,-187.96 788.94,-159.74 785.72,-141.51"/>
<polygon fill="midnightblue" stroke="midnightblue" points="789.17,-140.92 784.12,-131.6 782.26,-142.03 789.17,-140.92"/>
</g>
<!-- Node26&#45;&gt;Node28 -->
<g id="edge36" class="edge">
<title>Node26&#45;&gt;Node28</title>
<path fill="none" stroke="midnightblue" d="M850.93,-246.23C857.73,-236.2 869.02,-219.51 877.55,-206.92"/>
<polygon fill="midnightblue" stroke="midnightblue" points="880.45,-208.87 883.16,-198.63 874.66,-204.95 880.45,-208.87"/>
</g>
<!-- Node28&#45;&gt;Node10 -->
<g id="edge38" class="edge">
<title>Node28&#45;&gt;Node10</title>
<path fill="none" stroke="midnightblue" d="M929.05,-181.77C987.95,-172.45 1101.59,-153.8 1208.05,-132.1"/>
<polygon fill="midnightblue" stroke="midnightblue" points="1208.9,-135.5 1217.99,-130.06 1207.49,-128.64 1208.9,-135.5"/>
</g>
<!-- Node28&#45;&gt;Node16 -->
<g id="edge37" class="edge">
<title>Node28&#45;&gt;Node16</title>
<path fill="none" stroke="midnightblue" d="M891.23,-179.3C896.23,-159.76 908.45,-112.06 915.25,-85.55"/>
<polygon fill="midnightblue" stroke="midnightblue" points="918.7,-86.18 917.79,-75.62 911.92,-84.44 918.7,-86.18"/>
</g>
<!-- Node28&#45;&gt;Node27 -->
<g id="edge39" class="edge">
<title>Node28&#45;&gt;Node27</title>
<path fill="none" stroke="midnightblue" d="M874.7,-179.23C856.98,-168.37 826.57,-149.72 805.66,-136.89"/>
<polygon fill="midnightblue" stroke="midnightblue" points="807.42,-133.87 797.07,-131.63 803.76,-139.84 807.42,-133.87"/>
</g>
<!-- Node28&#45;&gt;Node29 -->
<g id="edge40" class="edge">
<title>Node28&#45;&gt;Node29</title>
<path fill="none" stroke="midnightblue" d="M848.89,-181.53C776.93,-169.92 625.73,-145.54 543.03,-132.2"/>
<polygon fill="midnightblue" stroke="midnightblue" points="543.48,-128.73 533.05,-130.59 542.36,-135.64 543.48,-128.73"/>
</g>
<!-- Node29&#45;&gt;Node11 -->
<g id="edge42" class="edge">
<title>Node29&#45;&gt;Node11</title>
<path fill="none" stroke="midnightblue" d="M453.99,-112.44C416.27,-102.36 353.94,-85.7 316.15,-75.6"/>
<polygon fill="midnightblue" stroke="midnightblue" points="316.75,-72.13 306.19,-72.93 314.94,-78.89 316.75,-72.13"/>
</g>
<!-- Node29&#45;&gt;Node16 -->
<g id="edge41" class="edge">
<title>Node29&#45;&gt;Node16</title>
<path fill="none" stroke="midnightblue" d="M533.03,-113.3C536.07,-112.85 539.07,-112.41 542,-112 652.33,-96.57 781.26,-81.95 856.46,-73.76"/>
<polygon fill="midnightblue" stroke="midnightblue" points="857.14,-77.21 866.7,-72.65 856.38,-70.25 857.14,-77.21"/>
</g>
<!-- Node29&#45;&gt;Node23 -->
<g id="edge43" class="edge">
<title>Node29&#45;&gt;Node23</title>
<path fill="none" stroke="midnightblue" d="M486,-112.08C486,-105.01 486,-94.86 486,-85.99"/>
<polygon fill="midnightblue" stroke="midnightblue" points="489.5,-85.75 486,-75.75 482.5,-85.75 489.5,-85.75"/>
</g>
<!-- Node30&#45;&gt;Node6 -->
<g id="edge47" class="edge">
<title>Node30&#45;&gt;Node6</title>
<path fill="none" stroke="midnightblue" d="M312.14,-179.37C302.74,-168.76 286.92,-149.96 276,-132 255,-97.46 236.99,-53.54 227.71,-29.24"/>
<polygon fill="midnightblue" stroke="midnightblue" points="230.87,-27.7 224.08,-19.56 224.31,-30.16 230.87,-27.7"/>
</g>
<!-- Node30&#45;&gt;Node11 -->
<g id="edge49" class="edge">
<title>Node30&#45;&gt;Node11</title>
<path fill="none" stroke="midnightblue" d="M311.89,-179.34C302.81,-169.01 288.63,-150.75 283,-132 278.48,-116.95 279.17,-99.05 280.74,-85.84"/>
<polygon fill="midnightblue" stroke="midnightblue" points="284.25,-86.04 282.24,-75.64 277.33,-85.03 284.25,-86.04"/>
</g>
<!-- Node30&#45;&gt;Node16 -->
<g id="edge48" class="edge">
<title>Node30&#45;&gt;Node16</title>
<path fill="none" stroke="midnightblue" d="M328.78,-179.49C346.33,-163.09 387.67,-127.36 430,-112 506.8,-84.13 742.39,-72.79 856.61,-68.83"/>
<polygon fill="midnightblue" stroke="midnightblue" points="857.06,-72.32 866.94,-68.48 856.83,-65.32 857.06,-72.32"/>
</g>
<!-- Node30&#45;&gt;Node29 -->
<g id="edge50" class="edge">
<title>Node30&#45;&gt;Node29</title>
<path fill="none" stroke="midnightblue" d="M342.04,-179.37C370.9,-168.07 421.65,-148.2 454.54,-135.32"/>
<polygon fill="midnightblue" stroke="midnightblue" points="456.09,-138.47 464.13,-131.56 453.54,-131.95 456.09,-138.47"/>
</g>
<!-- Node32&#45;&gt;Node11 -->
<g id="edge57" class="edge">
<title>Node32&#45;&gt;Node11</title>
<path fill="none" stroke="midnightblue" d="M599.44,-174.47C550.24,-164.89 485.6,-150.48 430,-132 386.47,-117.53 338.28,-94.64 309.6,-80.24"/>
<polygon fill="midnightblue" stroke="midnightblue" points="311.16,-77.11 300.65,-75.71 307.99,-83.35 311.16,-77.11"/>
</g>
<!-- Node32&#45;&gt;Node22 -->
<g id="edge56" class="edge">
<title>Node32&#45;&gt;Node22</title>
<path fill="none" stroke="midnightblue" d="M646.4,-168.5C630.61,-158.44 611.7,-146.38 597.3,-137.21"/>
<polygon fill="midnightblue" stroke="midnightblue" points="598.89,-134.08 588.58,-131.65 595.13,-139.98 598.89,-134.08"/>
</g>
<!-- Node32&#45;&gt;Node23 -->
<g id="edge58" class="edge">
<title>Node32&#45;&gt;Node23</title>
<path fill="none" stroke="midnightblue" d="M663.46,-168.4C650.84,-151.42 630.6,-127.25 608,-112 585.16,-96.59 556.36,-85.64 532.48,-78.41"/>
<polygon fill="midnightblue" stroke="midnightblue" points="533.16,-74.96 522.58,-75.53 531.21,-81.68 533.16,-74.96"/>
</g>
<!-- Node32&#45;&gt;Node27 -->
<g id="edge60" class="edge">
<title>Node32&#45;&gt;Node27</title>
<path fill="none" stroke="midnightblue" d="M708.8,-168.5C725.37,-158.34 745.24,-146.16 760.25,-136.95"/>
<polygon fill="midnightblue" stroke="midnightblue" points="762.19,-139.86 768.89,-131.65 758.54,-133.9 762.19,-139.86"/>
</g>
<!-- Node33 -->
<g id="node33" class="node">
<title>Node33</title>
<g id="a_node33"><a xlink:title=" ">
<polygon fill="white" stroke="#bfbfbf" points="655,-112.5 655,-131.5 741,-131.5 741,-112.5 655,-112.5"/>
<text text-anchor="middle" x="698" y="-119.5" font-family="Helvetica,sans-Serif" font-size="10.00">unordered_set</text>
</a>
</g>
</g>
<!-- Node32&#45;&gt;Node33 -->
<g id="edge59" class="edge">
<title>Node32&#45;&gt;Node33</title>
<path fill="none" stroke="midnightblue" d="M683.3,-168.5C686.09,-159.87 689.35,-149.79 692.09,-141.31"/>
<polygon fill="midnightblue" stroke="midnightblue" points="695.46,-142.24 695.2,-131.65 688.8,-140.09 695.46,-142.24"/>
</g>
<!-- Node34&#45;&gt;Node6 -->
<g id="edge62" class="edge">
<title>Node34&#45;&gt;Node6</title>
<path fill="none" stroke="midnightblue" d="M1132.63,-179.2C1098.46,-150.24 991.05,-59.54 982,-56 916.61,-30.42 436.68,-16.33 274.43,-12.25"/>
<polygon fill="midnightblue" stroke="midnightblue" points="274.29,-8.75 264.21,-12 274.12,-15.75 274.29,-8.75"/>
</g>
<!-- Node34&#45;&gt;Node10 -->
<g id="edge64" class="edge">
<title>Node34&#45;&gt;Node10</title>
<path fill="none" stroke="midnightblue" d="M1157.03,-179.23C1174.33,-168.42 1203.99,-149.88 1224.49,-137.07"/>
<polygon fill="midnightblue" stroke="midnightblue" points="1226.57,-139.9 1233.2,-131.63 1222.86,-133.96 1226.57,-139.9"/>
</g>
<!-- Node34&#45;&gt;Node16 -->
<g id="edge65" class="edge">
<title>Node34&#45;&gt;Node16</title>
<path fill="none" stroke="midnightblue" d="M1127.32,-179.49C1089.19,-158.8 991.34,-105.71 945.02,-80.58"/>
<polygon fill="midnightblue" stroke="midnightblue" points="946.42,-77.35 935.96,-75.66 943.08,-83.51 946.42,-77.35"/>
</g>
<!-- Node35 -->
<g id="node35" class="node">
<title>Node35</title>
<g id="a_node35"><a xlink:title=" ">
<polygon fill="white" stroke="#bfbfbf" points="1086,-112.5 1086,-131.5 1200,-131.5 1200,-112.5 1086,-112.5"/>
<text text-anchor="middle" x="1143" y="-119.5" font-family="Helvetica,sans-Serif" font-size="10.00">boost/operators.hpp</text>
</a>
</g>
</g>
<!-- Node34&#45;&gt;Node35 -->
<g id="edge63" class="edge">
<title>Node34&#45;&gt;Node35</title>
<path fill="none" stroke="midnightblue" d="M1143,-179.23C1143,-169.68 1143,-154.12 1143,-141.78"/>
<polygon fill="midnightblue" stroke="midnightblue" points="1146.5,-141.63 1143,-131.63 1139.5,-141.63 1146.5,-141.63"/>
</g>
<!-- Node36&#45;&gt;Node4 -->
<g id="edge69" class="edge">
<title>Node36&#45;&gt;Node4</title>
<path fill="none" stroke="midnightblue" d="M1386.74,-481.39C1422.58,-463.49 1475,-428.93 1475,-380 1475,-380 1475,-380 1475,-121 1475,-90.2 1468.88,-81.07 1451,-56 1442.41,-43.95 1429.8,-33.32 1418.81,-25.41"/>
<polygon fill="midnightblue" stroke="midnightblue" points="1420.69,-22.46 1410.47,-19.69 1416.73,-28.23 1420.69,-22.46"/>
</g>
<!-- Node36&#45;&gt;Node5 -->
<g id="edge72" class="edge">
<title>Node36&#45;&gt;Node5</title>
<path fill="none" stroke="midnightblue" d="M1308.5,-481.4C1275.18,-471.07 1230.51,-457.23 1199.29,-447.56"/>
<polygon fill="midnightblue" stroke="midnightblue" points="1200.25,-444.19 1189.66,-444.57 1198.17,-450.87 1200.25,-444.19"/>
</g>
<!-- Node36&#45;&gt;Node19 -->
<g id="edge70" class="edge">
<title>Node36&#45;&gt;Node19</title>
<path fill="none" stroke="midnightblue" d="M1406.06,-481.38C1452.43,-465.27 1513,-433.91 1513,-380 1513,-380 1513,-380 1513,-121 1513,-88.95 1513,-51.64 1513,-29.75"/>
<polygon fill="midnightblue" stroke="midnightblue" points="1516.5,-29.56 1513,-19.56 1509.5,-29.56 1516.5,-29.56"/>
</g>
<!-- Node36&#45;&gt;Node24 -->
<g id="edge71" class="edge">
<title>Node36&#45;&gt;Node24</title>
<path fill="none" stroke="midnightblue" d="M1331.26,-481.33C1304.92,-465.49 1259.77,-440.08 1218,-425 1147.4,-399.51 1108.49,-439.54 1053,-389 1020.5,-359.4 1013,-304.76 1011.37,-275.94"/>
<polygon fill="midnightblue" stroke="midnightblue" points="1014.85,-275.49 1010.98,-265.63 1007.86,-275.75 1014.85,-275.49"/>
</g>
</g>
</svg>
