<?xml version="1.0" encoding="UTF-8" standalone="no"?>
<!DOCTYPE svg PUBLIC "-//W3C//DTD SVG 1.1//EN"
 "http://www.w3.org/Graphics/SVG/1.1/DTD/svg11.dtd">
<!-- Generated by graphviz version 2.43.0 (0)
 -->
<!-- Title: /home/nico/projects/tmp&#45;joda&#45;dirs/JODA&#45;gh/libs/joda/core/modules/query/project/include/joda/query/project/ValueProviderProjector.h Pages: 1 -->
<svg width="362pt" height="361pt"
 viewBox="0.00 0.00 362.00 361.00" xmlns="http://www.w3.org/2000/svg" xmlns:xlink="http://www.w3.org/1999/xlink">
<g id="graph0" class="graph" transform="scale(1 1) rotate(0) translate(4 357)">
<title>/home/nico/projects/tmp&#45;joda&#45;dirs/JODA&#45;gh/libs/joda/core/modules/query/project/include/joda/query/project/ValueProviderProjector.h</title>
<polygon fill="white" stroke="transparent" points="-4,4 -4,-357 358,-357 358,4 -4,4"/>
<!-- Node1 -->
<g id="node1" class="node">
<title>Node1</title>
<g id="a_node1"><a xlink:title=" ">
<polygon fill="#bfbfbf" stroke="black" points="71,-289.5 71,-352.5 277,-352.5 277,-289.5 71,-289.5"/>
<text text-anchor="start" x="79" y="-340.5" font-family="Helvetica,sans-Serif" font-size="10.00">/home/nico/projects</text>
<text text-anchor="start" x="79" y="-329.5" font-family="Helvetica,sans-Serif" font-size="10.00">/tmp&#45;joda&#45;dirs/JODA</text>
<text text-anchor="start" x="79" y="-318.5" font-family="Helvetica,sans-Serif" font-size="10.00">&#45;gh/libs/joda/core/modules</text>
<text text-anchor="start" x="79" y="-307.5" font-family="Helvetica,sans-Serif" font-size="10.00">/query/project/include/joda</text>
<text text-anchor="middle" x="174" y="-296.5" font-family="Helvetica,sans-Serif" font-size="10.00">/query/project/ValueProviderProjector.h</text>
</a>
</g>
</g>
<!-- Node2 -->
<g id="node2" class="node">
<title>Node2</title>
<g id="a_node2"><a xlink:href="../../db/de4/ValueProviderProjector_8cpp.html" target="_top" xlink:title=" ">
<polygon fill="white" stroke="black" points="0,-189.5 0,-252.5 172,-252.5 172,-189.5 0,-189.5"/>
<text text-anchor="start" x="8" y="-240.5" font-family="Helvetica,sans-Serif" font-size="10.00">/home/nico/projects</text>
<text text-anchor="start" x="8" y="-229.5" font-family="Helvetica,sans-Serif" font-size="10.00">/tmp&#45;joda&#45;dirs/JODA</text>
<text text-anchor="start" x="8" y="-218.5" font-family="Helvetica,sans-Serif" font-size="10.00">&#45;gh/libs/joda/core/modules</text>
<text text-anchor="start" x="8" y="-207.5" font-family="Helvetica,sans-Serif" font-size="10.00">/query/project/src/ValueProvider</text>
<text text-anchor="middle" x="86" y="-196.5" font-family="Helvetica,sans-Serif" font-size="10.00">Projector.cpp</text>
</a>
</g>
</g>
<!-- Node1&#45;&gt;Node2 -->
<g id="edge1" class="edge">
<title>Node1&#45;&gt;Node2</title>
<path fill="none" stroke="midnightblue" d="M139.6,-281.69C130.94,-272.05 121.77,-261.83 113.5,-252.63"/>
<polygon fill="midnightblue" stroke="midnightblue" points="137.11,-284.16 146.4,-289.26 142.32,-279.48 137.11,-284.16"/>
</g>
<!-- Node3 -->
<g id="node3" class="node">
<title>Node3</title>
<g id="a_node3"><a xlink:href="../../d0/d2e/As__Actions_8h.html" target="_top" xlink:title=" ">
<polygon fill="white" stroke="black" points="190,-189.5 190,-252.5 336,-252.5 336,-189.5 190,-189.5"/>
<text text-anchor="start" x="198" y="-240.5" font-family="Helvetica,sans-Serif" font-size="10.00">/home/nico/projects</text>
<text text-anchor="start" x="198" y="-229.5" font-family="Helvetica,sans-Serif" font-size="10.00">/tmp&#45;joda&#45;dirs/JODA</text>
<text text-anchor="start" x="198" y="-218.5" font-family="Helvetica,sans-Serif" font-size="10.00">&#45;gh/libs/joda/core/modules</text>
<text text-anchor="start" x="198" y="-207.5" font-family="Helvetica,sans-Serif" font-size="10.00">/queryparsing/src/actions</text>
<text text-anchor="middle" x="263" y="-196.5" font-family="Helvetica,sans-Serif" font-size="10.00">/As_Actions.h</text>
</a>
</g>
</g>
<!-- Node1&#45;&gt;Node3 -->
<g id="edge2" class="edge">
<title>Node1&#45;&gt;Node3</title>
<path fill="none" stroke="midnightblue" d="M208.79,-281.69C217.55,-272.05 226.82,-261.83 235.18,-252.63"/>
<polygon fill="midnightblue" stroke="midnightblue" points="206.05,-279.51 201.92,-289.26 211.23,-284.21 206.05,-279.51"/>
</g>
<!-- Node4 -->
<g id="node4" class="node">
<title>Node4</title>
<g id="a_node4"><a xlink:href="../../de/db3/Actions_8h.html" target="_top" xlink:title=" ">
<polygon fill="white" stroke="black" points="190,-89.5 190,-152.5 336,-152.5 336,-89.5 190,-89.5"/>
<text text-anchor="start" x="198" y="-140.5" font-family="Helvetica,sans-Serif" font-size="10.00">/home/nico/projects</text>
<text text-anchor="start" x="198" y="-129.5" font-family="Helvetica,sans-Serif" font-size="10.00">/tmp&#45;joda&#45;dirs/JODA</text>
<text text-anchor="start" x="198" y="-118.5" font-family="Helvetica,sans-Serif" font-size="10.00">&#45;gh/libs/joda/core/modules</text>
<text text-anchor="start" x="198" y="-107.5" font-family="Helvetica,sans-Serif" font-size="10.00">/queryparsing/src/actions</text>
<text text-anchor="middle" x="263" y="-96.5" font-family="Helvetica,sans-Serif" font-size="10.00">/Actions.h</text>
</a>
</g>
</g>
<!-- Node3&#45;&gt;Node4 -->
<g id="edge3" class="edge">
<title>Node3&#45;&gt;Node4</title>
<path fill="none" stroke="midnightblue" d="M263,-179.1C263,-170.24 263,-161.01 263,-152.63"/>
<polygon fill="midnightblue" stroke="midnightblue" points="259.5,-179.26 263,-189.26 266.5,-179.26 259.5,-179.26"/>
</g>
<!-- Node5 -->
<g id="node5" class="node">
<title>Node5</title>
<g id="a_node5"><a xlink:href="../../d0/d62/QueryParser_8cpp.html" target="_top" xlink:title=" ">
<polygon fill="white" stroke="black" points="172,-0.5 172,-52.5 354,-52.5 354,-0.5 172,-0.5"/>
<text text-anchor="start" x="180" y="-40.5" font-family="Helvetica,sans-Serif" font-size="10.00">/home/nico/projects</text>
<text text-anchor="start" x="180" y="-29.5" font-family="Helvetica,sans-Serif" font-size="10.00">/tmp&#45;joda&#45;dirs/JODA</text>
<text text-anchor="start" x="180" y="-18.5" font-family="Helvetica,sans-Serif" font-size="10.00">&#45;gh/libs/joda/core/modules</text>
<text text-anchor="middle" x="263" y="-7.5" font-family="Helvetica,sans-Serif" font-size="10.00">/queryparsing/src/QueryParser.cpp</text>
</a>
</g>
</g>
<!-- Node4&#45;&gt;Node5 -->
<g id="edge4" class="edge">
<title>Node4&#45;&gt;Node5</title>
<path fill="none" stroke="midnightblue" d="M263,-79.42C263,-70.36 263,-61 263,-52.77"/>
<polygon fill="midnightblue" stroke="midnightblue" points="259.5,-79.46 263,-89.46 266.5,-79.46 259.5,-79.46"/>
</g>
</g>
</svg>
