<?xml version="1.0" encoding="UTF-8" standalone="no"?>
<!DOCTYPE svg PUBLIC "-//W3C//DTD SVG 1.1//EN"
 "http://www.w3.org/Graphics/SVG/1.1/DTD/svg11.dtd">
<!-- Generated by graphviz version 2.43.0 (0)
 -->
<!-- Title: /home/nico/projects/JODA&#45;gh/libs/joda/core/modules/query/predicate/include/joda/query/predicate/ValToPredicate.h Pages: 1 -->
<!--zoomable 575 -->
<svg id="main" version="1.1" xmlns="http://www.w3.org/2000/svg" xmlns:xlink="http://www.w3.org/1999/xlink" xml:space="preserve" onload="init(evt)">
<style type="text/css"><![CDATA[
.edge:hover path { stroke: red; }
.edge:hover polygon { stroke: red; fill: red; }
]]></style>
<script type="text/javascript"><![CDATA[
var edges = document.getElementsByTagName('g');
if (edges && edges.length) {
  for (var i=0;i<edges.length;i++) {
    if (edges[i].id.substr(0,4)=='edge') {
      edges[i].setAttribute('class','edge');
    }
  }
}
]]></script>
        <defs>
                <circle id="rim" cx="0" cy="0" r="7"/>
                <circle id="rim2" cx="0" cy="0" r="3.5"/>
                <g id="zoomPlus">
                        <use xlink:href="#rim" fill="#404040">
                                <set attributeName="fill" to="#808080" begin="zoomplus.mouseover" end="zoomplus.mouseout"/>
                        </use>
                        <path d="M-4,0h8M0,-4v8" fill="none" stroke="white" stroke-width="1.5" pointer-events="none"/>
                </g>
                <g id="zoomMin">
                        <use xlink:href="#rim" fill="#404040">
                                <set attributeName="fill" to="#808080" begin="zoomminus.mouseover" end="zoomminus.mouseout"/>
                        </use>
                        <path d="M-4,0h8" fill="none" stroke="white" stroke-width="1.5" pointer-events="none"/>
                </g>
                <g id="dirArrow">
                        <path fill="none" stroke="white" stroke-width="1.5" d="M0,-3.0v7 M-2.5,-0.5L0,-3.0L2.5,-0.5"/>
                </g>
               <g id="resetDef">
                       <use xlink:href="#rim2" fill="#404040">
                               <set attributeName="fill" to="#808080" begin="reset.mouseover" end="reset.mouseout"/>
                       </use>
               </g>
        </defs>

<script type="text/javascript">
var viewWidth = 1615;
var viewHeight = 575;
var sectionId = 'dynsection-0';
</script>
<script xlink:href="../../svgpan.js"/>
<svg id="graph" class="graph">
<g id="viewport">
<title>/home/nico/projects/JODA&#45;gh/libs/joda/core/modules/query/predicate/include/joda/query/predicate/ValToPredicate.h</title>
<polygon fill="white" stroke="transparent" points="-4,4 -4,-571 1611,-571 1611,4 -4,4"/>
<!-- Node1 -->
<g id="node1" class="node">
<title>Node1</title>
<g id="a_node1"><a xlink:title=" ">
<polygon fill="#bfbfbf" stroke="black" points="692,-503.5 692,-566.5 850,-566.5 850,-503.5 692,-503.5"/>
<text text-anchor="start" x="700" y="-554.5" font-family="Helvetica,sans-Serif" font-size="10.00">/home/nico/projects</text>
<text text-anchor="start" x="700" y="-543.5" font-family="Helvetica,sans-Serif" font-size="10.00">/JODA&#45;gh/libs/joda/core</text>
<text text-anchor="start" x="700" y="-532.5" font-family="Helvetica,sans-Serif" font-size="10.00">/modules/query/predicate</text>
<text text-anchor="start" x="700" y="-521.5" font-family="Helvetica,sans-Serif" font-size="10.00">/include/joda/query/predicate</text>
<text text-anchor="middle" x="771" y="-510.5" font-family="Helvetica,sans-Serif" font-size="10.00">/ValToPredicate.h</text>
</a>
</g>
</g>
<!-- Node2 -->
<g id="node2" class="node">
<title>Node2</title>
<g id="a_node2"><a xlink:href="../../dd/d50/IValueProvider_8h.html" target="_top" xlink:title=" ">
<polygon fill="white" stroke="black" points="250.5,-425.5 250.5,-466.5 395.5,-466.5 395.5,-425.5 250.5,-425.5"/>
<text text-anchor="start" x="258.5" y="-454.5" font-family="Helvetica,sans-Serif" font-size="10.00">../../../../../values</text>
<text text-anchor="start" x="258.5" y="-443.5" font-family="Helvetica,sans-Serif" font-size="10.00">/include/joda/query/values</text>
<text text-anchor="middle" x="323" y="-432.5" font-family="Helvetica,sans-Serif" font-size="10.00">/IValueProvider.h</text>
</a>
</g>
</g>
<!-- Node1&#45;&gt;Node2 -->
<g id="edge1" class="edge">
<title>Node1&#45;&gt;Node2</title>
<path fill="none" stroke="midnightblue" d="M691.94,-518.65C611.6,-503.05 487.67,-478.98 405.96,-463.11"/>
<polygon fill="midnightblue" stroke="midnightblue" points="406.2,-459.59 395.71,-461.12 404.86,-466.46 406.2,-459.59"/>
</g>
<!-- Node34 -->
<g id="node34" class="node">
<title>Node34</title>
<g id="a_node34"><a xlink:href="../../db/d52/Predicate_8h.html" target="_top" xlink:title=" ">
<polygon fill="white" stroke="black" points="1321.5,-436.5 1321.5,-455.5 1392.5,-455.5 1392.5,-436.5 1321.5,-436.5"/>
<text text-anchor="middle" x="1357" y="-443.5" font-family="Helvetica,sans-Serif" font-size="10.00">Predicate.h</text>
</a>
</g>
</g>
<!-- Node1&#45;&gt;Node34 -->
<g id="edge63" class="edge">
<title>Node1&#45;&gt;Node34</title>
<path fill="none" stroke="midnightblue" d="M850.03,-522.27C974.34,-503.81 1211.65,-468.58 1311.22,-453.8"/>
<polygon fill="midnightblue" stroke="midnightblue" points="1311.89,-457.24 1321.27,-452.31 1310.86,-450.31 1311.89,-457.24"/>
</g>
<!-- Node3 -->
<g id="node3" class="node">
<title>Node3</title>
<g id="a_node3"><a xlink:title=" ">
<polygon fill="white" stroke="#bfbfbf" points="762,-0.5 762,-19.5 848,-19.5 848,-0.5 762,-0.5"/>
<text text-anchor="middle" x="805" y="-7.5" font-family="Helvetica,sans-Serif" font-size="10.00">glog/logging.h</text>
</a>
</g>
</g>
<!-- Node2&#45;&gt;Node3 -->
<g id="edge2" class="edge">
<title>Node2&#45;&gt;Node3</title>
<path fill="none" stroke="midnightblue" d="M318.99,-425.29C315.54,-409.74 310.03,-387.64 303,-369 283.37,-316.92 247,-312.65 247,-257 247,-257 247,-257 247,-121 247,-69.89 612.07,-29.49 751.63,-15.92"/>
<polygon fill="midnightblue" stroke="midnightblue" points="752.06,-19.39 761.68,-14.95 751.39,-12.43 752.06,-19.39"/>
</g>
<!-- Node4 -->
<g id="node4" class="node">
<title>Node4</title>
<g id="a_node4"><a xlink:title=" ">
<polygon fill="white" stroke="#bfbfbf" points="0,-0.5 0,-19.5 122,-19.5 122,-0.5 0,-0.5"/>
<text text-anchor="middle" x="61" y="-7.5" font-family="Helvetica,sans-Serif" font-size="10.00">rapidjson/document.h</text>
</a>
</g>
</g>
<!-- Node2&#45;&gt;Node4 -->
<g id="edge3" class="edge">
<title>Node2&#45;&gt;Node4</title>
<path fill="none" stroke="midnightblue" d="M250.46,-438.3C181.26,-430.44 83.58,-415.07 56,-389 32.41,-366.71 37,-350.95 37,-318.5 37,-318.5 37,-318.5 37,-121 37,-88.06 47.4,-50.82 54.51,-29.21"/>
<polygon fill="midnightblue" stroke="midnightblue" points="57.84,-30.29 57.76,-19.7 51.22,-28.03 57.84,-30.29"/>
</g>
<!-- Node5 -->
<g id="node5" class="node">
<title>Node5</title>
<g id="a_node5"><a xlink:title=" ">
<polygon fill="white" stroke="#bfbfbf" points="163.5,-0.5 163.5,-19.5 254.5,-19.5 254.5,-0.5 163.5,-0.5"/>
<text text-anchor="middle" x="209" y="-7.5" font-family="Helvetica,sans-Serif" font-size="10.00">rapidjson/fwd.h</text>
</a>
</g>
</g>
<!-- Node2&#45;&gt;Node5 -->
<g id="edge4" class="edge">
<title>Node2&#45;&gt;Node5</title>
<path fill="none" stroke="midnightblue" d="M250.09,-435.53C218.47,-427.87 183.39,-414.03 160,-389 137.84,-365.29 141,-350.95 141,-318.5 141,-318.5 141,-318.5 141,-121 141,-82.55 171.43,-46.31 191.58,-26.54"/>
<polygon fill="midnightblue" stroke="midnightblue" points="194.1,-28.98 198.97,-19.57 189.29,-23.89 194.1,-28.98"/>
</g>
<!-- Node6 -->
<g id="node6" class="node">
<title>Node6</title>
<g id="a_node6"><a xlink:title=" ">
<polygon fill="white" stroke="#bfbfbf" points="65.5,-369.5 65.5,-388.5 112.5,-388.5 112.5,-369.5 65.5,-369.5"/>
<text text-anchor="middle" x="89" y="-376.5" font-family="Helvetica,sans-Serif" font-size="10.00">cmath</text>
</a>
</g>
</g>
<!-- Node2&#45;&gt;Node6 -->
<g id="edge5" class="edge">
<title>Node2&#45;&gt;Node6</title>
<path fill="none" stroke="midnightblue" d="M252.79,-425.5C209.6,-413.5 156.23,-398.68 122.39,-389.28"/>
<polygon fill="midnightblue" stroke="midnightblue" points="123.12,-385.85 112.55,-386.54 121.25,-392.59 123.12,-385.85"/>
</g>
<!-- Node7 -->
<g id="node7" class="node">
<title>Node7</title>
<g id="a_node7"><a xlink:title=" ">
<polygon fill="white" stroke="#bfbfbf" points="169.5,-369.5 169.5,-388.5 294.5,-388.5 294.5,-369.5 169.5,-369.5"/>
<text text-anchor="middle" x="232" y="-376.5" font-family="Helvetica,sans-Serif" font-size="10.00">experimental/optional</text>
</a>
</g>
</g>
<!-- Node2&#45;&gt;Node7 -->
<g id="edge6" class="edge">
<title>Node2&#45;&gt;Node7</title>
<path fill="none" stroke="midnightblue" d="M295.7,-425.5C281.74,-415.53 265.06,-403.61 252.27,-394.48"/>
<polygon fill="midnightblue" stroke="midnightblue" points="254.29,-391.62 244.11,-388.65 250.22,-397.31 254.29,-391.62"/>
</g>
<!-- Node8 -->
<g id="node8" class="node">
<title>Node8</title>
<g id="a_node8"><a xlink:title=" ">
<polygon fill="white" stroke="#bfbfbf" points="1417,-112.5 1417,-131.5 1475,-131.5 1475,-112.5 1417,-112.5"/>
<text text-anchor="middle" x="1446" y="-119.5" font-family="Helvetica,sans-Serif" font-size="10.00">memory</text>
</a>
</g>
</g>
<!-- Node2&#45;&gt;Node8 -->
<g id="edge7" class="edge">
<title>Node2&#45;&gt;Node8</title>
<path fill="none" stroke="midnightblue" d="M395.51,-443.51C614.33,-438.66 1258.5,-421.73 1347,-389 1395.32,-371.13 1439,-370.01 1439,-318.5 1439,-318.5 1439,-318.5 1439,-255 1439,-214.6 1442.31,-167.34 1444.38,-141.77"/>
<polygon fill="midnightblue" stroke="midnightblue" points="1447.88,-141.9 1445.22,-131.64 1440.9,-141.31 1447.88,-141.9"/>
</g>
<!-- Node9 -->
<g id="node9" class="node">
<title>Node9</title>
<g id="a_node9"><a xlink:title=" ">
<polygon fill="white" stroke="#bfbfbf" points="702,-56.5 702,-75.5 746,-75.5 746,-56.5 702,-56.5"/>
<text text-anchor="middle" x="724" y="-63.5" font-family="Helvetica,sans-Serif" font-size="10.00">string</text>
</a>
</g>
</g>
<!-- Node2&#45;&gt;Node9 -->
<g id="edge8" class="edge">
<title>Node2&#45;&gt;Node9</title>
<path fill="none" stroke="midnightblue" d="M332.79,-425.39C344.05,-400.98 361,-357.71 361,-318.5 361,-318.5 361,-318.5 361,-255 361,-106.67 602.96,-75.23 691.79,-68.68"/>
<polygon fill="midnightblue" stroke="midnightblue" points="692.1,-72.17 701.84,-68 691.63,-65.19 692.1,-72.17"/>
</g>
<!-- Node10 -->
<g id="node10" class="node">
<title>Node10</title>
<g id="a_node10"><a xlink:href="../../d1/dfd/RapidJsonDocument_8h.html" target="_top" xlink:title=" ">
<polygon fill="white" stroke="black" points="1138,-369.5 1138,-388.5 1338,-388.5 1338,-369.5 1138,-369.5"/>
<text text-anchor="middle" x="1238" y="-376.5" font-family="Helvetica,sans-Serif" font-size="10.00">joda/document/RapidJsonDocument.h</text>
</a>
</g>
</g>
<!-- Node2&#45;&gt;Node10 -->
<g id="edge9" class="edge">
<title>Node2&#45;&gt;Node10</title>
<path fill="none" stroke="midnightblue" d="M395.56,-439.85C555.33,-428.5 938.35,-401.29 1127.9,-387.82"/>
<polygon fill="midnightblue" stroke="midnightblue" points="1128.16,-391.31 1137.89,-387.11 1127.67,-384.33 1128.16,-391.31"/>
</g>
<!-- Node10&#45;&gt;Node5 -->
<g id="edge48" class="edge">
<title>Node10&#45;&gt;Node5</title>
<path fill="none" stroke="midnightblue" d="M1137.75,-377.55C959.18,-375.85 593.3,-368.05 471,-333 343.47,-296.45 209,-322.66 209,-190 209,-190 209,-190 209,-121 209,-88.95 209,-51.64 209,-29.75"/>
<polygon fill="midnightblue" stroke="midnightblue" points="212.5,-29.56 209,-19.56 205.5,-29.56 212.5,-29.56"/>
</g>
<!-- Node10&#45;&gt;Node8 -->
<g id="edge50" class="edge">
<title>Node10&#45;&gt;Node8</title>
<path fill="none" stroke="midnightblue" d="M1245.16,-369.22C1275.35,-332.21 1392.54,-188.54 1432.54,-139.51"/>
<polygon fill="midnightblue" stroke="midnightblue" points="1435.26,-141.7 1438.87,-131.74 1429.84,-137.28 1435.26,-141.7"/>
</g>
<!-- Node11 -->
<g id="node11" class="node">
<title>Node11</title>
<g id="a_node11"><a xlink:href="../../d2/d0d/ViewLayer_8h.html" target="_top" xlink:title=" ">
<polygon fill="white" stroke="black" points="787,-302.5 787,-332.5 903,-332.5 903,-302.5 787,-302.5"/>
<text text-anchor="start" x="795" y="-320.5" font-family="Helvetica,sans-Serif" font-size="10.00">joda/document/view</text>
<text text-anchor="middle" x="845" y="-309.5" font-family="Helvetica,sans-Serif" font-size="10.00">/ViewLayer.h</text>
</a>
</g>
</g>
<!-- Node10&#45;&gt;Node11 -->
<g id="edge10" class="edge">
<title>Node10&#45;&gt;Node11</title>
<path fill="none" stroke="midnightblue" d="M1181.69,-369.48C1110.8,-358.74 989.12,-340.32 913.08,-328.81"/>
<polygon fill="midnightblue" stroke="midnightblue" points="913.54,-325.34 903.12,-327.3 912.49,-332.26 913.54,-325.34"/>
</g>
<!-- Node14 -->
<g id="node14" class="node">
<title>Node14</title>
<g id="a_node14"><a xlink:href="../../d6/d09/RJFwd_8h.html" target="_top" xlink:title=" ">
<polygon fill="white" stroke="black" points="460,-56.5 460,-75.5 566,-75.5 566,-56.5 460,-56.5"/>
<text text-anchor="middle" x="513" y="-63.5" font-family="Helvetica,sans-Serif" font-size="10.00">joda/misc/RJFwd.h</text>
</a>
</g>
</g>
<!-- Node10&#45;&gt;Node14 -->
<g id="edge62" class="edge">
<title>Node10&#45;&gt;Node14</title>
<path fill="none" stroke="midnightblue" d="M1137.75,-378.81C940.91,-378.17 514.25,-365.06 414,-266 365.02,-217.6 383.25,-161.61 431,-112 444.56,-97.92 463.49,-87.13 479.75,-79.65"/>
<polygon fill="midnightblue" stroke="midnightblue" points="481.2,-82.84 488.96,-75.63 478.39,-76.42 481.2,-82.84"/>
</g>
<!-- Node15 -->
<g id="node15" class="node">
<title>Node15</title>
<g id="a_node15"><a xlink:title=" ">
<polygon fill="white" stroke="#bfbfbf" points="1179,-0.5 1179,-19.5 1301,-19.5 1301,-0.5 1179,-0.5"/>
<text text-anchor="middle" x="1240" y="-7.5" font-family="Helvetica,sans-Serif" font-size="10.00">rapidjson/allocators.h</text>
</a>
</g>
</g>
<!-- Node10&#45;&gt;Node15 -->
<g id="edge47" class="edge">
<title>Node10&#45;&gt;Node15</title>
<path fill="none" stroke="midnightblue" d="M1301.44,-369.45C1328.7,-363.12 1359.4,-352.11 1382,-333 1464.6,-263.14 1544.11,-201.94 1484,-112 1445.79,-54.83 1368.59,-29.98 1311.21,-19.2"/>
<polygon fill="midnightblue" stroke="midnightblue" points="1311.56,-15.71 1301.1,-17.41 1310.33,-22.6 1311.56,-15.71"/>
</g>
<!-- Node29 -->
<g id="node29" class="node">
<title>Node29</title>
<g id="a_node29"><a xlink:title=" ">
<polygon fill="white" stroke="#bfbfbf" points="1323,-308 1323,-327 1373,-327 1373,-308 1323,-308"/>
<text text-anchor="middle" x="1348" y="-315" font-family="Helvetica,sans-Serif" font-size="10.00">atomic</text>
</a>
</g>
</g>
<!-- Node10&#45;&gt;Node29 -->
<g id="edge49" class="edge">
<title>Node10&#45;&gt;Node29</title>
<path fill="none" stroke="midnightblue" d="M1253.76,-369.48C1271.98,-359.62 1302.17,-343.29 1323.47,-331.77"/>
<polygon fill="midnightblue" stroke="midnightblue" points="1325.14,-334.85 1332.27,-327.01 1321.81,-328.69 1325.14,-334.85"/>
</g>
<!-- Node30 -->
<g id="node30" class="node">
<title>Node30</title>
<g id="a_node30"><a xlink:href="../../df/d13/FileNameRepo_8h.html" target="_top" xlink:title=" ">
<polygon fill="white" stroke="black" points="959.5,-168.5 959.5,-209.5 1114.5,-209.5 1114.5,-168.5 959.5,-168.5"/>
<text text-anchor="start" x="967.5" y="-197.5" font-family="Helvetica,sans-Serif" font-size="10.00">../../../../../misc</text>
<text text-anchor="start" x="967.5" y="-186.5" font-family="Helvetica,sans-Serif" font-size="10.00">/include/joda/misc/FileName</text>
<text text-anchor="middle" x="1037" y="-175.5" font-family="Helvetica,sans-Serif" font-size="10.00">Repo.h</text>
</a>
</g>
</g>
<!-- Node10&#45;&gt;Node30 -->
<g id="edge51" class="edge">
<title>Node10&#45;&gt;Node30</title>
<path fill="none" stroke="midnightblue" d="M1231.81,-369.22C1215.78,-346.86 1170.86,-286.71 1124,-246 1110.97,-234.68 1095.47,-223.98 1081.19,-215.01"/>
<polygon fill="midnightblue" stroke="midnightblue" points="1082.84,-211.92 1072.48,-209.67 1079.17,-217.88 1082.84,-211.92"/>
</g>
<!-- Node32 -->
<g id="node32" class="node">
<title>Node32</title>
<g id="a_node32"><a xlink:href="../../d5/d6c/IOrigin_8h.html" target="_top" xlink:title=" ">
<polygon fill="white" stroke="black" points="1223,-179.5 1223,-198.5 1281,-198.5 1281,-179.5 1223,-179.5"/>
<text text-anchor="middle" x="1252" y="-186.5" font-family="Helvetica,sans-Serif" font-size="10.00">IOrigin.h</text>
</a>
</g>
</g>
<!-- Node10&#45;&gt;Node32 -->
<g id="edge57" class="edge">
<title>Node10&#45;&gt;Node32</title>
<path fill="none" stroke="midnightblue" d="M1238.64,-369.43C1240.76,-340.93 1247.62,-248.82 1250.6,-208.83"/>
<polygon fill="midnightblue" stroke="midnightblue" points="1254.11,-208.85 1251.36,-198.62 1247.13,-208.33 1254.11,-208.85"/>
</g>
<!-- Node11&#45;&gt;Node3 -->
<g id="edge11" class="edge">
<title>Node11&#45;&gt;Node3</title>
<path fill="none" stroke="midnightblue" d="M903.16,-312.94C979.13,-307.26 1106.86,-293.8 1144,-266 1174.08,-243.49 1181,-227.57 1181,-190 1181,-190 1181,-190 1181,-121 1181,-54.52 961.74,-25.43 858.09,-15.39"/>
<polygon fill="midnightblue" stroke="midnightblue" points="858.42,-11.9 848.13,-14.45 857.76,-18.87 858.42,-11.9"/>
</g>
<!-- Node12 -->
<g id="node12" class="node">
<title>Node12</title>
<g id="a_node12"><a xlink:href="../../db/d16/config_8h.html" target="_top" xlink:title=" ">
<polygon fill="white" stroke="black" points="895.5,-246.5 895.5,-265.5 1006.5,-265.5 1006.5,-246.5 895.5,-246.5"/>
<text text-anchor="middle" x="951" y="-253.5" font-family="Helvetica,sans-Serif" font-size="10.00">joda/config/config.h</text>
</a>
</g>
</g>
<!-- Node11&#45;&gt;Node12 -->
<g id="edge12" class="edge">
<title>Node11&#45;&gt;Node12</title>
<path fill="none" stroke="midnightblue" d="M870.12,-302.4C887.27,-292.77 909.86,-280.09 926.81,-270.58"/>
<polygon fill="midnightblue" stroke="midnightblue" points="928.57,-273.6 935.58,-265.66 925.14,-267.5 928.57,-273.6"/>
</g>
<!-- Node11&#45;&gt;Node14 -->
<g id="edge15" class="edge">
<title>Node11&#45;&gt;Node14</title>
<path fill="none" stroke="midnightblue" d="M786.89,-313.6C678.69,-307.59 455.13,-292.13 432,-266 386.42,-214.51 410.64,-170.37 447,-112 455.58,-98.23 470.1,-87.64 483.34,-80.21"/>
<polygon fill="midnightblue" stroke="midnightblue" points="484.98,-83.31 492.22,-75.57 481.74,-77.1 484.98,-83.31"/>
</g>
<!-- Node18 -->
<g id="node18" class="node">
<title>Node18</title>
<g id="a_node18"><a xlink:title=" ">
<polygon fill="white" stroke="#bfbfbf" points="665.5,-246.5 665.5,-265.5 794.5,-265.5 794.5,-246.5 665.5,-246.5"/>
<text text-anchor="middle" x="730" y="-253.5" font-family="Helvetica,sans-Serif" font-size="10.00">rapidjson/stringbuffer.h</text>
</a>
</g>
</g>
<!-- Node11&#45;&gt;Node18 -->
<g id="edge22" class="edge">
<title>Node11&#45;&gt;Node18</title>
<path fill="none" stroke="midnightblue" d="M817.75,-302.4C798.97,-292.68 774.17,-279.86 755.73,-270.31"/>
<polygon fill="midnightblue" stroke="midnightblue" points="757.22,-267.14 746.73,-265.66 754.01,-273.36 757.22,-267.14"/>
</g>
<!-- Node19 -->
<g id="node19" class="node">
<title>Node19</title>
<g id="a_node19"><a xlink:title=" ">
<polygon fill="white" stroke="#bfbfbf" points="813,-246.5 813,-265.5 877,-265.5 877,-246.5 813,-246.5"/>
<text text-anchor="middle" x="845" y="-253.5" font-family="Helvetica,sans-Serif" font-size="10.00">algorithm</text>
</a>
</g>
</g>
<!-- Node11&#45;&gt;Node19 -->
<g id="edge23" class="edge">
<title>Node11&#45;&gt;Node19</title>
<path fill="none" stroke="midnightblue" d="M845,-302.4C845,-294.47 845,-284.46 845,-275.86"/>
<polygon fill="midnightblue" stroke="midnightblue" points="848.5,-275.66 845,-265.66 841.5,-275.66 848.5,-275.66"/>
</g>
<!-- Node20 -->
<g id="node20" class="node">
<title>Node20</title>
<g id="a_node20"><a xlink:title=" ">
<polygon fill="white" stroke="#bfbfbf" points="887,-112.5 887,-131.5 935,-131.5 935,-112.5 887,-112.5"/>
<text text-anchor="middle" x="911" y="-119.5" font-family="Helvetica,sans-Serif" font-size="10.00">mutex</text>
</a>
</g>
</g>
<!-- Node11&#45;&gt;Node20 -->
<g id="edge24" class="edge">
<title>Node11&#45;&gt;Node20</title>
<path fill="none" stroke="midnightblue" d="M903.3,-306.92C947.28,-298.36 1002.29,-284.35 1016,-266 1046.22,-225.56 968.84,-229.22 951,-210 932.66,-190.24 921.51,-160.6 915.79,-141.53"/>
<polygon fill="midnightblue" stroke="midnightblue" points="919.1,-140.37 913.04,-131.68 912.36,-142.25 919.1,-140.37"/>
</g>
<!-- Node21 -->
<g id="node21" class="node">
<title>Node21</title>
<g id="a_node21"><a xlink:title=" ">
<polygon fill="white" stroke="#bfbfbf" points="954.5,-56.5 954.5,-75.5 1047.5,-75.5 1047.5,-56.5 954.5,-56.5"/>
<text text-anchor="middle" x="1001" y="-63.5" font-family="Helvetica,sans-Serif" font-size="10.00">unordered_map</text>
</a>
</g>
</g>
<!-- Node11&#45;&gt;Node21 -->
<g id="edge25" class="edge">
<title>Node11&#45;&gt;Node21</title>
<path fill="none" stroke="midnightblue" d="M903.14,-314.44C976.49,-310.48 1096.43,-299.01 1124,-266 1167.88,-213.47 1163.21,-168.1 1124,-112 1108.89,-90.38 1082.21,-79.11 1057.56,-73.26"/>
<polygon fill="midnightblue" stroke="midnightblue" points="1058.02,-69.78 1047.52,-71.13 1056.57,-76.63 1058.02,-69.78"/>
</g>
<!-- Node22 -->
<g id="node22" class="node">
<title>Node22</title>
<g id="a_node22"><a xlink:title=" ">
<polygon fill="white" stroke="#bfbfbf" points="1063.5,-246.5 1063.5,-265.5 1114.5,-265.5 1114.5,-246.5 1063.5,-246.5"/>
<text text-anchor="middle" x="1089" y="-253.5" font-family="Helvetica,sans-Serif" font-size="10.00">variant</text>
</a>
</g>
</g>
<!-- Node11&#45;&gt;Node22 -->
<g id="edge26" class="edge">
<title>Node11&#45;&gt;Node22</title>
<path fill="none" stroke="midnightblue" d="M902.52,-302.47C949.43,-291.03 1014.21,-275.24 1053.77,-265.59"/>
<polygon fill="midnightblue" stroke="midnightblue" points="1054.61,-268.99 1063.49,-263.22 1052.95,-262.19 1054.61,-268.99"/>
</g>
<!-- Node23 -->
<g id="node23" class="node">
<title>Node23</title>
<g id="a_node23"><a xlink:href="../../da/d3b/ObjectIterator_8h.html" target="_top" xlink:title=" ">
<polygon fill="white" stroke="black" points="441,-246.5 441,-265.5 533,-265.5 533,-246.5 441,-246.5"/>
<text text-anchor="middle" x="487" y="-253.5" font-family="Helvetica,sans-Serif" font-size="10.00">ObjectIterator.h</text>
</a>
</g>
</g>
<!-- Node11&#45;&gt;Node23 -->
<g id="edge27" class="edge">
<title>Node11&#45;&gt;Node23</title>
<path fill="none" stroke="midnightblue" d="M786.68,-306.81C719.45,-295.63 609.69,-277.39 543.31,-266.36"/>
<polygon fill="midnightblue" stroke="midnightblue" points="543.49,-262.84 533.05,-264.65 542.34,-269.75 543.49,-262.84"/>
</g>
<!-- Node26 -->
<g id="node26" class="node">
<title>Node26</title>
<g id="a_node26"><a xlink:href="../../d5/de2/ViewCursor_8h.html" target="_top" xlink:title=" ">
<polygon fill="white" stroke="black" points="567,-179.5 567,-198.5 647,-198.5 647,-179.5 567,-179.5"/>
<text text-anchor="middle" x="607" y="-186.5" font-family="Helvetica,sans-Serif" font-size="10.00">ViewCursor.h</text>
</a>
</g>
</g>
<!-- Node11&#45;&gt;Node26 -->
<g id="edge40" class="edge">
<title>Node11&#45;&gt;Node26</title>
<path fill="none" stroke="midnightblue" d="M786.92,-313.57C718.25,-308.75 610.08,-296.42 585,-266 570.99,-249.01 583.16,-223.49 594.21,-206.8"/>
<polygon fill="midnightblue" stroke="midnightblue" points="597.13,-208.72 600.06,-198.53 591.42,-204.67 597.13,-208.72"/>
</g>
<!-- Node27 -->
<g id="node27" class="node">
<title>Node27</title>
<g id="a_node27"><a xlink:href="../../d0/d10/ViewStructure_8h.html" target="_top" xlink:title=" ">
<polygon fill="white" stroke="black" points="645,-112.5 645,-131.5 739,-131.5 739,-112.5 645,-112.5"/>
<text text-anchor="middle" x="692" y="-119.5" font-family="Helvetica,sans-Serif" font-size="10.00">ViewStructure.h</text>
</a>
</g>
</g>
<!-- Node11&#45;&gt;Node27 -->
<g id="edge41" class="edge">
<title>Node11&#45;&gt;Node27</title>
<path fill="none" stroke="midnightblue" d="M786.73,-309.55C734.69,-302 664.09,-287.99 647,-266 641.55,-258.98 645.45,-254.75 647,-246 650.69,-225.16 672.81,-169.6 684.6,-140.82"/>
<polygon fill="midnightblue" stroke="midnightblue" points="687.85,-142.13 688.43,-131.55 681.38,-139.46 687.85,-142.13"/>
</g>
<!-- Node28 -->
<g id="node28" class="node">
<title>Node28</title>
<g id="a_node28"><a xlink:href="../../d8/dee/VirtualObject_8h.html" target="_top" xlink:title=" ">
<polygon fill="white" stroke="black" points="703.5,-179.5 703.5,-198.5 792.5,-198.5 792.5,-179.5 703.5,-179.5"/>
<text text-anchor="middle" x="748" y="-186.5" font-family="Helvetica,sans-Serif" font-size="10.00">VirtualObject.h</text>
</a>
</g>
</g>
<!-- Node11&#45;&gt;Node28 -->
<g id="edge42" class="edge">
<title>Node11&#45;&gt;Node28</title>
<path fill="none" stroke="midnightblue" d="M786.79,-308.67C737.65,-300.73 672.84,-286.65 657,-266 636.59,-239.39 679.02,-215.87 712.56,-202.28"/>
<polygon fill="midnightblue" stroke="midnightblue" points="714.11,-205.44 722.17,-198.56 711.58,-198.91 714.11,-205.44"/>
</g>
<!-- Node12&#45;&gt;Node9 -->
<g id="edge14" class="edge">
<title>Node12&#45;&gt;Node9</title>
<path fill="none" stroke="midnightblue" d="M917.61,-246.44C894.28,-239.32 863.26,-227.5 840,-210 817.87,-193.35 780.63,-133.36 763,-112 755,-102.31 745.81,-91.68 738.36,-83.19"/>
<polygon fill="midnightblue" stroke="midnightblue" points="740.84,-80.71 731.6,-75.52 735.59,-85.34 740.84,-80.71"/>
</g>
<!-- Node13 -->
<g id="node13" class="node">
<title>Node13</title>
<g id="a_node13"><a xlink:title=" ">
<polygon fill="white" stroke="#bfbfbf" points="849,-179.5 849,-198.5 903,-198.5 903,-179.5 849,-179.5"/>
<text text-anchor="middle" x="876" y="-186.5" font-family="Helvetica,sans-Serif" font-size="10.00">istream</text>
</a>
</g>
</g>
<!-- Node12&#45;&gt;Node13 -->
<g id="edge13" class="edge">
<title>Node12&#45;&gt;Node13</title>
<path fill="none" stroke="midnightblue" d="M940.89,-246.23C928.85,-235.81 908.55,-218.21 893.85,-205.47"/>
<polygon fill="midnightblue" stroke="midnightblue" points="895.8,-202.53 885.95,-198.63 891.22,-207.82 895.8,-202.53"/>
</g>
<!-- Node14&#45;&gt;Node3 -->
<g id="edge16" class="edge">
<title>Node14&#45;&gt;Node3</title>
<path fill="none" stroke="midnightblue" d="M559.27,-56.44C611.65,-46.76 696.84,-31 751.89,-20.82"/>
<polygon fill="midnightblue" stroke="midnightblue" points="752.61,-24.25 761.8,-18.99 751.33,-17.37 752.61,-24.25"/>
</g>
<!-- Node14&#45;&gt;Node4 -->
<g id="edge18" class="edge">
<title>Node14&#45;&gt;Node4</title>
<path fill="none" stroke="midnightblue" d="M459.82,-58.65C378.51,-48.93 223.16,-30.37 132.2,-19.51"/>
<polygon fill="midnightblue" stroke="midnightblue" points="132.6,-16.03 122.25,-18.32 131.77,-22.98 132.6,-16.03"/>
</g>
<!-- Node14&#45;&gt;Node5 -->
<g id="edge19" class="edge">
<title>Node14&#45;&gt;Node5</title>
<path fill="none" stroke="midnightblue" d="M464.83,-56.44C410.5,-46.79 322.27,-31.12 264.93,-20.94"/>
<polygon fill="midnightblue" stroke="midnightblue" points="265.41,-17.47 254.95,-19.16 264.19,-24.36 265.41,-17.47"/>
</g>
<!-- Node14&#45;&gt;Node15 -->
<g id="edge17" class="edge">
<title>Node14&#45;&gt;Node15</title>
<path fill="none" stroke="midnightblue" d="M566.16,-61.05C694.83,-51.49 1023.08,-27.11 1168.64,-16.3"/>
<polygon fill="midnightblue" stroke="midnightblue" points="1169.09,-19.78 1178.8,-15.55 1168.57,-12.8 1169.09,-19.78"/>
</g>
<!-- Node16 -->
<g id="node16" class="node">
<title>Node16</title>
<g id="a_node16"><a xlink:title=" ">
<polygon fill="white" stroke="#bfbfbf" points="512,-0.5 512,-19.5 662,-19.5 662,-0.5 512,-0.5"/>
<text text-anchor="middle" x="587" y="-7.5" font-family="Helvetica,sans-Serif" font-size="10.00">rapidjson/istreamwrapper.h</text>
</a>
</g>
</g>
<!-- Node14&#45;&gt;Node16 -->
<g id="edge20" class="edge">
<title>Node14&#45;&gt;Node16</title>
<path fill="none" stroke="midnightblue" d="M524.89,-56.32C536.15,-48.11 553.29,-35.6 566.71,-25.81"/>
<polygon fill="midnightblue" stroke="midnightblue" points="568.88,-28.56 574.89,-19.83 564.75,-22.9 568.88,-28.56"/>
</g>
<!-- Node17 -->
<g id="node17" class="node">
<title>Node17</title>
<g id="a_node17"><a xlink:title=" ">
<polygon fill="white" stroke="#bfbfbf" points="386.5,-0.5 386.5,-19.5 493.5,-19.5 493.5,-0.5 386.5,-0.5"/>
<text text-anchor="middle" x="440" y="-7.5" font-family="Helvetica,sans-Serif" font-size="10.00">rapidjson/pointer.h</text>
</a>
</g>
</g>
<!-- Node14&#45;&gt;Node17 -->
<g id="edge21" class="edge">
<title>Node14&#45;&gt;Node17</title>
<path fill="none" stroke="midnightblue" d="M501.27,-56.32C490.16,-48.11 473.26,-35.6 460.02,-25.81"/>
<polygon fill="midnightblue" stroke="midnightblue" points="462.06,-22.97 451.94,-19.83 457.9,-28.59 462.06,-22.97"/>
</g>
<!-- Node23&#45;&gt;Node9 -->
<g id="edge29" class="edge">
<title>Node23&#45;&gt;Node9</title>
<path fill="none" stroke="midnightblue" d="M495.59,-246.18C503.34,-237.67 514.36,-224.02 520,-210 536.39,-169.24 503.52,-144.57 533,-112 553.98,-88.82 643.05,-75.75 691.79,-70.2"/>
<polygon fill="midnightblue" stroke="midnightblue" points="692.27,-73.67 701.83,-69.1 691.51,-66.71 692.27,-73.67"/>
</g>
<!-- Node23&#45;&gt;Node14 -->
<g id="edge28" class="edge">
<title>Node23&#45;&gt;Node14</title>
<path fill="none" stroke="midnightblue" d="M475.73,-246.43C466.03,-238.27 452.72,-225.05 447,-210 440.37,-192.55 444.72,-186.53 447,-168 450.13,-142.54 447.56,-133.86 461,-112 468.42,-99.92 480.15,-89.37 490.59,-81.52"/>
<polygon fill="midnightblue" stroke="midnightblue" points="492.81,-84.24 498.93,-75.59 488.75,-78.53 492.81,-84.24"/>
</g>
<!-- Node24 -->
<g id="node24" class="node">
<title>Node24</title>
<g id="a_node24"><a xlink:title=" ">
<polygon fill="white" stroke="#bfbfbf" points="465.5,-179.5 465.5,-198.5 510.5,-198.5 510.5,-179.5 465.5,-179.5"/>
<text text-anchor="middle" x="488" y="-186.5" font-family="Helvetica,sans-Serif" font-size="10.00">utility</text>
</a>
</g>
</g>
<!-- Node23&#45;&gt;Node24 -->
<g id="edge30" class="edge">
<title>Node23&#45;&gt;Node24</title>
<path fill="none" stroke="midnightblue" d="M487.13,-246.23C487.28,-236.68 487.52,-221.12 487.71,-208.78"/>
<polygon fill="midnightblue" stroke="midnightblue" points="491.21,-208.68 487.87,-198.63 484.21,-208.57 491.21,-208.68"/>
</g>
<!-- Node25 -->
<g id="node25" class="node">
<title>Node25</title>
<g id="a_node25"><a xlink:title=" ">
<polygon fill="white" stroke="#bfbfbf" points="541.5,-112.5 541.5,-131.5 588.5,-131.5 588.5,-112.5 541.5,-112.5"/>
<text text-anchor="middle" x="565" y="-119.5" font-family="Helvetica,sans-Serif" font-size="10.00">vector</text>
</a>
</g>
</g>
<!-- Node23&#45;&gt;Node25 -->
<g id="edge31" class="edge">
<title>Node23&#45;&gt;Node25</title>
<path fill="none" stroke="midnightblue" d="M479.12,-246.19C465.37,-229.7 439.98,-193.52 457,-168 473.44,-143.34 506.22,-132.17 531.37,-127.13"/>
<polygon fill="midnightblue" stroke="midnightblue" points="532.04,-130.56 541.28,-125.37 530.82,-123.67 532.04,-130.56"/>
</g>
<!-- Node23&#45;&gt;Node26 -->
<g id="edge32" class="edge">
<title>Node23&#45;&gt;Node26</title>
<path fill="none" stroke="midnightblue" d="M503.18,-246.23C523.43,-235.27 558.3,-216.38 581.99,-203.55"/>
<polygon fill="midnightblue" stroke="midnightblue" points="583.95,-206.47 591.07,-198.63 580.61,-200.31 583.95,-206.47"/>
</g>
<!-- Node26&#45;&gt;Node8 -->
<g id="edge34" class="edge">
<title>Node26&#45;&gt;Node8</title>
<path fill="none" stroke="midnightblue" d="M638.53,-179.44C655.19,-175.27 676.06,-170.61 695,-168 1005.94,-125.14 1092.04,-175.64 1406.32,-131.97"/>
<polygon fill="midnightblue" stroke="midnightblue" points="1407.23,-135.37 1416.64,-130.51 1406.25,-128.44 1407.23,-135.37"/>
</g>
<!-- Node26&#45;&gt;Node14 -->
<g id="edge33" class="edge">
<title>Node26&#45;&gt;Node14</title>
<path fill="none" stroke="midnightblue" d="M590.14,-179.37C573.31,-169.92 547.88,-153.25 533,-132 523.37,-118.25 518.27,-99.72 515.64,-85.96"/>
<polygon fill="midnightblue" stroke="midnightblue" points="519.03,-85.04 513.96,-75.74 512.12,-86.18 519.03,-85.04"/>
</g>
<!-- Node26&#45;&gt;Node25 -->
<g id="edge35" class="edge">
<title>Node26&#45;&gt;Node25</title>
<path fill="none" stroke="midnightblue" d="M601.34,-179.23C594.91,-169.29 584.28,-152.84 576.17,-140.29"/>
<polygon fill="midnightblue" stroke="midnightblue" points="578.94,-138.13 570.57,-131.63 573.06,-141.93 578.94,-138.13"/>
</g>
<!-- Node26&#45;&gt;Node27 -->
<g id="edge36" class="edge">
<title>Node26&#45;&gt;Node27</title>
<path fill="none" stroke="midnightblue" d="M618.46,-179.23C632.36,-168.61 655.98,-150.55 672.69,-137.76"/>
<polygon fill="midnightblue" stroke="midnightblue" points="674.9,-140.48 680.72,-131.63 670.65,-134.92 674.9,-140.48"/>
</g>
<!-- Node27&#45;&gt;Node9 -->
<g id="edge38" class="edge">
<title>Node27&#45;&gt;Node9</title>
<path fill="none" stroke="midnightblue" d="M697.28,-112.08C701.71,-104.61 708.16,-93.72 713.62,-84.52"/>
<polygon fill="midnightblue" stroke="midnightblue" points="716.73,-86.14 718.81,-75.75 710.71,-82.57 716.73,-86.14"/>
</g>
<!-- Node27&#45;&gt;Node14 -->
<g id="edge37" class="edge">
<title>Node27&#45;&gt;Node14</title>
<path fill="none" stroke="midnightblue" d="M663.64,-112.44C633.26,-103.28 584.89,-88.69 551.18,-78.52"/>
<polygon fill="midnightblue" stroke="midnightblue" points="551.82,-75.05 541.23,-75.52 549.79,-81.76 551.82,-75.05"/>
</g>
<!-- Node27&#45;&gt;Node21 -->
<g id="edge39" class="edge">
<title>Node27&#45;&gt;Node21</title>
<path fill="none" stroke="midnightblue" d="M739.27,-112.74C794.48,-103.09 885.76,-87.14 944.62,-76.85"/>
<polygon fill="midnightblue" stroke="midnightblue" points="945.25,-80.3 954.5,-75.13 944.04,-73.4 945.25,-80.3"/>
</g>
<!-- Node28&#45;&gt;Node3 -->
<g id="edge43" class="edge">
<title>Node28&#45;&gt;Node3</title>
<path fill="none" stroke="midnightblue" d="M750.75,-179.46C759.49,-152.31 786.8,-67.51 799,-29.62"/>
<polygon fill="midnightblue" stroke="midnightblue" points="802.41,-30.46 802.14,-19.87 795.75,-28.31 802.41,-30.46"/>
</g>
<!-- Node28&#45;&gt;Node9 -->
<g id="edge45" class="edge">
<title>Node28&#45;&gt;Node9</title>
<path fill="none" stroke="midnightblue" d="M749.34,-179.4C751.26,-165.14 753.95,-135.81 748,-112 745.56,-102.25 740.56,-92.29 735.76,-84.23"/>
<polygon fill="midnightblue" stroke="midnightblue" points="738.69,-82.32 730.37,-75.77 732.79,-86.08 738.69,-82.32"/>
</g>
<!-- Node28&#45;&gt;Node14 -->
<g id="edge44" class="edge">
<title>Node28&#45;&gt;Node14</title>
<path fill="none" stroke="midnightblue" d="M730.48,-179.39C708.38,-168.5 669.25,-149.1 636,-132 626.52,-127.13 571.6,-98.05 538.44,-80.48"/>
<polygon fill="midnightblue" stroke="midnightblue" points="539.79,-77.24 529.32,-75.65 536.51,-83.42 539.79,-77.24"/>
</g>
<!-- Node28&#45;&gt;Node27 -->
<g id="edge46" class="edge">
<title>Node28&#45;&gt;Node27</title>
<path fill="none" stroke="midnightblue" d="M740.45,-179.23C731.72,-169.1 717.15,-152.19 706.26,-139.56"/>
<polygon fill="midnightblue" stroke="midnightblue" points="708.61,-136.92 699.43,-131.63 703.31,-141.49 708.61,-136.92"/>
</g>
<!-- Node30&#45;&gt;Node9 -->
<g id="edge53" class="edge">
<title>Node30&#45;&gt;Node9</title>
<path fill="none" stroke="midnightblue" d="M1018.63,-168.32C1001.13,-150.8 973.19,-125.87 944,-112 881.7,-82.41 800.44,-72.23 756.18,-68.76"/>
<polygon fill="midnightblue" stroke="midnightblue" points="756.24,-65.25 746.02,-68.03 755.74,-72.24 756.24,-65.25"/>
</g>
<!-- Node30&#45;&gt;Node20 -->
<g id="edge52" class="edge">
<title>Node30&#45;&gt;Node20</title>
<path fill="none" stroke="midnightblue" d="M999.2,-168.5C979.13,-158.15 954.99,-145.69 937.04,-136.43"/>
<polygon fill="midnightblue" stroke="midnightblue" points="938.26,-133.13 927.77,-131.65 935.06,-139.35 938.26,-133.13"/>
</g>
<!-- Node30&#45;&gt;Node21 -->
<g id="edge54" class="edge">
<title>Node30&#45;&gt;Node21</title>
<path fill="none" stroke="midnightblue" d="M1030.97,-168.32C1027.7,-157.59 1023.6,-144.07 1020,-132 1015.33,-116.33 1010.13,-98.51 1006.35,-85.49"/>
<polygon fill="midnightblue" stroke="midnightblue" points="1009.7,-84.47 1003.55,-75.84 1002.97,-86.42 1009.7,-84.47"/>
</g>
<!-- Node30&#45;&gt;Node25 -->
<g id="edge56" class="edge">
<title>Node30&#45;&gt;Node25</title>
<path fill="none" stroke="midnightblue" d="M959.37,-175.21C943.7,-172.73 927.33,-170.22 912,-168 881.4,-163.57 679.97,-137.72 598.81,-127.33"/>
<polygon fill="midnightblue" stroke="midnightblue" points="598.99,-123.82 588.63,-126.02 598.1,-130.76 598.99,-123.82"/>
</g>
<!-- Node31 -->
<g id="node31" class="node">
<title>Node31</title>
<g id="a_node31"><a xlink:title=" ">
<polygon fill="white" stroke="#bfbfbf" points="1029,-112.5 1029,-131.5 1115,-131.5 1115,-112.5 1029,-112.5"/>
<text text-anchor="middle" x="1072" y="-119.5" font-family="Helvetica,sans-Serif" font-size="10.00">unordered_set</text>
</a>
</g>
</g>
<!-- Node30&#45;&gt;Node31 -->
<g id="edge55" class="edge">
<title>Node30&#45;&gt;Node31</title>
<path fill="none" stroke="midnightblue" d="M1047.5,-168.5C1052.3,-159.59 1057.94,-149.11 1062.6,-140.46"/>
<polygon fill="midnightblue" stroke="midnightblue" points="1065.68,-142.12 1067.34,-131.65 1059.52,-138.8 1065.68,-142.12"/>
</g>
<!-- Node32&#45;&gt;Node3 -->
<g id="edge58" class="edge">
<title>Node32&#45;&gt;Node3</title>
<path fill="none" stroke="midnightblue" d="M1251.18,-179.43C1248.37,-155.41 1236.88,-87.12 1195,-56 1142.93,-17.31 952.65,-11.28 858.5,-10.73"/>
<polygon fill="midnightblue" stroke="midnightblue" points="858.34,-7.23 848.33,-10.69 858.31,-14.23 858.34,-7.23"/>
</g>
<!-- Node32&#45;&gt;Node8 -->
<g id="edge60" class="edge">
<title>Node32&#45;&gt;Node8</title>
<path fill="none" stroke="midnightblue" d="M1268.91,-179.44C1276.74,-175.66 1286.22,-171.33 1295,-168 1332.34,-153.84 1376.2,-141.19 1407,-132.94"/>
<polygon fill="midnightblue" stroke="midnightblue" points="1408.15,-136.26 1416.92,-130.32 1406.36,-129.49 1408.15,-136.26"/>
</g>
<!-- Node32&#45;&gt;Node14 -->
<g id="edge61" class="edge">
<title>Node32&#45;&gt;Node14</title>
<path fill="none" stroke="midnightblue" d="M1241.53,-179.43C1220.67,-162.93 1171.83,-127.04 1124,-112 1072.75,-95.89 721.87,-77.18 576.19,-70.01"/>
<polygon fill="midnightblue" stroke="midnightblue" points="576.22,-66.51 566.07,-69.51 575.88,-73.5 576.22,-66.51"/>
</g>
<!-- Node33 -->
<g id="node33" class="node">
<title>Node33</title>
<g id="a_node33"><a xlink:title=" ">
<polygon fill="white" stroke="#bfbfbf" points="1285,-112.5 1285,-131.5 1399,-131.5 1399,-112.5 1285,-112.5"/>
<text text-anchor="middle" x="1342" y="-119.5" font-family="Helvetica,sans-Serif" font-size="10.00">boost/operators.hpp</text>
</a>
</g>
</g>
<!-- Node32&#45;&gt;Node33 -->
<g id="edge59" class="edge">
<title>Node32&#45;&gt;Node33</title>
<path fill="none" stroke="midnightblue" d="M1264.14,-179.23C1278.85,-168.61 1303.86,-150.55 1321.56,-137.76"/>
<polygon fill="midnightblue" stroke="midnightblue" points="1324,-140.32 1330.05,-131.63 1319.9,-134.64 1324,-140.32"/>
</g>
<!-- Node34&#45;&gt;Node8 -->
<g id="edge64" class="edge">
<title>Node34&#45;&gt;Node8</title>
<path fill="none" stroke="midnightblue" d="M1381.62,-436.37C1403.27,-427.6 1434.19,-412 1453,-389 1473.95,-363.38 1477,-351.6 1477,-318.5 1477,-318.5 1477,-318.5 1477,-255 1477,-213.39 1462.22,-166.32 1453.07,-141.16"/>
<polygon fill="midnightblue" stroke="midnightblue" points="1456.35,-139.92 1449.56,-131.79 1449.8,-142.39 1456.35,-139.92"/>
</g>
<!-- Node34&#45;&gt;Node10 -->
<g id="edge68" class="edge">
<title>Node34&#45;&gt;Node10</title>
<path fill="none" stroke="midnightblue" d="M1340.95,-436.23C1320.88,-425.27 1286.3,-406.38 1262.81,-393.55"/>
<polygon fill="midnightblue" stroke="midnightblue" points="1264.25,-390.35 1253.79,-388.63 1260.89,-396.49 1264.25,-390.35"/>
</g>
<!-- Node35 -->
<g id="node35" class="node">
<title>Node35</title>
<g id="a_node35"><a xlink:href="../../d3/dc8/PredicateVisitor_8h.html" target="_top" xlink:title=" ">
<polygon fill="white" stroke="black" points="1505,-369.5 1505,-388.5 1607,-388.5 1607,-369.5 1505,-369.5"/>
<text text-anchor="middle" x="1556" y="-376.5" font-family="Helvetica,sans-Serif" font-size="10.00">PredicateVisitor.h</text>
</a>
</g>
</g>
<!-- Node34&#45;&gt;Node35 -->
<g id="edge65" class="edge">
<title>Node34&#45;&gt;Node35</title>
<path fill="none" stroke="midnightblue" d="M1383.43,-436.37C1418.54,-424.9 1480.7,-404.59 1520.06,-391.74"/>
<polygon fill="midnightblue" stroke="midnightblue" points="1521.36,-395 1529.78,-388.56 1519.19,-388.34 1521.36,-395"/>
</g>
<!-- Node35&#45;&gt;Node8 -->
<g id="edge67" class="edge">
<title>Node35&#45;&gt;Node8</title>
<path fill="none" stroke="midnightblue" d="M1551.08,-369.27C1546.22,-360.36 1538.83,-346.05 1534,-333 1507.67,-261.94 1528.67,-233.76 1491,-168 1484.53,-156.7 1474.47,-146.26 1465.5,-138.29"/>
<polygon fill="midnightblue" stroke="midnightblue" points="1467.61,-135.49 1457.71,-131.71 1463.09,-140.83 1467.61,-135.49"/>
</g>
<!-- Node36 -->
<g id="node36" class="node">
<title>Node36</title>
<g id="a_node36"><a xlink:title=" ">
<polygon fill="white" stroke="#bfbfbf" points="1543,-308 1543,-327 1595,-327 1595,-308 1543,-308"/>
<text text-anchor="middle" x="1569" y="-315" font-family="Helvetica,sans-Serif" font-size="10.00">cassert</text>
</a>
</g>
</g>
<!-- Node35&#45;&gt;Node36 -->
<g id="edge66" class="edge">
<title>Node35&#45;&gt;Node36</title>
<path fill="none" stroke="midnightblue" d="M1557.86,-369.48C1559.72,-360.99 1562.62,-347.7 1565,-336.82"/>
<polygon fill="midnightblue" stroke="midnightblue" points="1568.43,-337.53 1567.14,-327.01 1561.59,-336.03 1568.43,-337.53"/>
</g>
</g>
</svg>
        <g id="navigator" transform="translate(0 0)" fill="#404254">
                <rect fill="#f2f5e9" fill-opacity="0.5" stroke="#606060" stroke-width=".5" x="0" y="0" width="60" height="60"/>
                <use id="zoomplus" xlink:href="#zoomPlus" x="17" y="9" onmousedown="handleZoom(evt,'in')"/>
                <use id="zoomminus" xlink:href="#zoomMin" x="42" y="9" onmousedown="handleZoom(evt,'out')"/>
                <use id="reset" xlink:href="#resetDef" x="30" y="36" onmousedown="handleReset()"/>
                <g id="arrowUp" xlink:href="#dirArrow" transform="translate(30 24)" onmousedown="handlePan(0,-1)">
                  <use xlink:href="#rim" fill="#404040">
                        <set attributeName="fill" to="#808080" begin="arrowUp.mouseover" end="arrowUp.mouseout"/>
                  </use>
                  <path fill="none" stroke="white" stroke-width="1.5" d="M0,-3.0v7 M-2.5,-0.5L0,-3.0L2.5,-0.5"/>
                </g>
                <g id="arrowRight" xlink:href="#dirArrow" transform="rotate(90) translate(36 -43)" onmousedown="handlePan(1,0)">
                  <use xlink:href="#rim" fill="#404040">
                        <set attributeName="fill" to="#808080" begin="arrowRight.mouseover" end="arrowRight.mouseout"/>
                  </use>
                  <path fill="none" stroke="white" stroke-width="1.5" d="M0,-3.0v7 M-2.5,-0.5L0,-3.0L2.5,-0.5"/>
                </g>
                <g id="arrowDown" xlink:href="#dirArrow" transform="rotate(180) translate(-30 -48)" onmousedown="handlePan(0,1)">
                  <use xlink:href="#rim" fill="#404040">
                        <set attributeName="fill" to="#808080" begin="arrowDown.mouseover" end="arrowDown.mouseout"/>
                  </use>
                  <path fill="none" stroke="white" stroke-width="1.5" d="M0,-3.0v7 M-2.5,-0.5L0,-3.0L2.5,-0.5"/>
                </g>
                <g id="arrowLeft" xlink:href="#dirArrow" transform="rotate(270) translate(-36 17)" onmousedown="handlePan(-1,0)">
                  <use xlink:href="#rim" fill="#404040">
                        <set attributeName="fill" to="#808080" begin="arrowLeft.mouseover" end="arrowLeft.mouseout"/>
                  </use>
                  <path fill="none" stroke="white" stroke-width="1.5" d="M0,-3.0v7 M-2.5,-0.5L0,-3.0L2.5,-0.5"/>
                </g>
        </g>
        <svg viewBox="0 0 15 15" width="100%" height="30px" preserveAspectRatio="xMaxYMin meet">
         <g id="arrow_out" transform="scale(0.3 0.3)">
          <a xlink:href="ValToPredicate_8h__incl_org.svg" target="_base">
           <rect id="button" ry="5" rx="5" y="6" x="6" height="38" width="38"
                fill="#f2f5e9" fill-opacity="0.5" stroke="#606060" stroke-width="1.0"/>
           <path id="arrow"
             d="M 11.500037,31.436501 C 11.940474,20.09759 22.043105,11.32322 32.158766,21.979434 L 37.068811,17.246167 C 37.068811,17.246167 37.088388,32 37.088388,32 L 22.160133,31.978069 C 22.160133,31.978069 26.997745,27.140456 26.997745,27.140456 C 18.528582,18.264221 13.291696,25.230495 11.500037,31.436501 z"
             style="fill:#404040;"/>
          </a>
         </g>
        </svg>
</svg>
