<?xml version="1.0" encoding="UTF-8" standalone="no"?>
<!DOCTYPE svg PUBLIC "-//W3C//DTD SVG 1.1//EN"
 "http://www.w3.org/Graphics/SVG/1.1/DTD/svg11.dtd">
<!-- Generated by graphviz version 2.43.0 (0)
 -->
<!-- Title: /home/nico/joda_tmp/tmp&#45;joda&#45;dirs/JODA&#45;gh/libs/joda/core/modules/query/predicate/include/joda/query/predicate/ValToPredicate.h Pages: 1 -->
<!--zoomable 575 -->
<svg id="main" version="1.1" xmlns="http://www.w3.org/2000/svg" xmlns:xlink="http://www.w3.org/1999/xlink" xml:space="preserve" onload="init(evt)">
<style type="text/css"><![CDATA[
.edge:hover path { stroke: red; }
.edge:hover polygon { stroke: red; fill: red; }
]]></style>
<script type="text/javascript"><![CDATA[
var edges = document.getElementsByTagName('g');
if (edges && edges.length) {
  for (var i=0;i<edges.length;i++) {
    if (edges[i].id.substr(0,4)=='edge') {
      edges[i].setAttribute('class','edge');
    }
  }
}
]]></script>
        <defs>
                <circle id="rim" cx="0" cy="0" r="7"/>
                <circle id="rim2" cx="0" cy="0" r="3.5"/>
                <g id="zoomPlus">
                        <use xlink:href="#rim" fill="#404040">
                                <set attributeName="fill" to="#808080" begin="zoomplus.mouseover" end="zoomplus.mouseout"/>
                        </use>
                        <path d="M-4,0h8M0,-4v8" fill="none" stroke="white" stroke-width="1.5" pointer-events="none"/>
                </g>
                <g id="zoomMin">
                        <use xlink:href="#rim" fill="#404040">
                                <set attributeName="fill" to="#808080" begin="zoomminus.mouseover" end="zoomminus.mouseout"/>
                        </use>
                        <path d="M-4,0h8" fill="none" stroke="white" stroke-width="1.5" pointer-events="none"/>
                </g>
                <g id="dirArrow">
                        <path fill="none" stroke="white" stroke-width="1.5" d="M0,-3.0v7 M-2.5,-0.5L0,-3.0L2.5,-0.5"/>
                </g>
               <g id="resetDef">
                       <use xlink:href="#rim2" fill="#404040">
                               <set attributeName="fill" to="#808080" begin="reset.mouseover" end="reset.mouseout"/>
                       </use>
               </g>
        </defs>

<script type="text/javascript">
var viewWidth = 1810;
var viewHeight = 575;
var sectionId = 'dynsection-0';
</script>
<script xlink:href="../../svgpan.js"/>
<svg id="graph" class="graph">
<g id="viewport">
<title>/home/nico/joda_tmp/tmp&#45;joda&#45;dirs/JODA&#45;gh/libs/joda/core/modules/query/predicate/include/joda/query/predicate/ValToPredicate.h</title>
<polygon fill="white" stroke="transparent" points="-4,4 -4,-571 1805.5,-571 1805.5,4 -4,4"/>
<!-- Node1 -->
<g id="node1" class="node">
<title>Node1</title>
<g id="a_node1"><a xlink:title=" ">
<polygon fill="#bfbfbf" stroke="black" points="771,-503.5 771,-566.5 974,-566.5 974,-503.5 771,-503.5"/>
<text text-anchor="start" x="779" y="-554.5" font-family="Helvetica,sans-Serif" font-size="10.00">/home/nico/joda_tmp</text>
<text text-anchor="start" x="779" y="-543.5" font-family="Helvetica,sans-Serif" font-size="10.00">/tmp&#45;joda&#45;dirs/JODA</text>
<text text-anchor="start" x="779" y="-532.5" font-family="Helvetica,sans-Serif" font-size="10.00">&#45;gh/libs/joda/core/modules</text>
<text text-anchor="start" x="779" y="-521.5" font-family="Helvetica,sans-Serif" font-size="10.00">/query/predicate/include</text>
<text text-anchor="middle" x="872.5" y="-510.5" font-family="Helvetica,sans-Serif" font-size="10.00">/joda/query/predicate/ValToPredicate.h</text>
</a>
</g>
</g>
<!-- Node2 -->
<g id="node2" class="node">
<title>Node2</title>
<g id="a_node2"><a xlink:href="../../dd/d50/IValueProvider_8h.html" target="_top" xlink:title=" ">
<polygon fill="white" stroke="black" points="260,-425.5 260,-466.5 405,-466.5 405,-425.5 260,-425.5"/>
<text text-anchor="start" x="268" y="-454.5" font-family="Helvetica,sans-Serif" font-size="10.00">../../../../../values</text>
<text text-anchor="start" x="268" y="-443.5" font-family="Helvetica,sans-Serif" font-size="10.00">/include/joda/query/values</text>
<text text-anchor="middle" x="332.5" y="-432.5" font-family="Helvetica,sans-Serif" font-size="10.00">/IValueProvider.h</text>
</a>
</g>
</g>
<!-- Node1&#45;&gt;Node2 -->
<g id="edge1" class="edge">
<title>Node1&#45;&gt;Node2</title>
<path fill="none" stroke="midnightblue" d="M770.93,-517.64C667.95,-501.04 510.54,-475.68 415,-460.29"/>
<polygon fill="midnightblue" stroke="midnightblue" points="415.52,-456.83 405.09,-458.7 414.41,-463.74 415.52,-456.83"/>
</g>
<!-- Node35 -->
<g id="node35" class="node">
<title>Node35</title>
<g id="a_node35"><a xlink:href="../../db/d52/Predicate_8h.html" target="_top" xlink:title=" ">
<polygon fill="white" stroke="black" points="1516,-436.5 1516,-455.5 1587,-455.5 1587,-436.5 1516,-436.5"/>
<text text-anchor="middle" x="1551.5" y="-443.5" font-family="Helvetica,sans-Serif" font-size="10.00">Predicate.h</text>
</a>
</g>
</g>
<!-- Node1&#45;&gt;Node35 -->
<g id="edge64" class="edge">
<title>Node1&#45;&gt;Node35</title>
<path fill="none" stroke="midnightblue" d="M974.15,-520.98C1123.96,-501.78 1397.94,-466.68 1505.97,-452.83"/>
<polygon fill="midnightblue" stroke="midnightblue" points="1506.43,-456.3 1515.9,-451.56 1505.54,-449.36 1506.43,-456.3"/>
</g>
<!-- Node3 -->
<g id="node3" class="node">
<title>Node3</title>
<g id="a_node3"><a xlink:title=" ">
<polygon fill="white" stroke="#bfbfbf" points="796.5,-0.5 796.5,-19.5 882.5,-19.5 882.5,-0.5 796.5,-0.5"/>
<text text-anchor="middle" x="839.5" y="-7.5" font-family="Helvetica,sans-Serif" font-size="10.00">glog/logging.h</text>
</a>
</g>
</g>
<!-- Node2&#45;&gt;Node3 -->
<g id="edge2" class="edge">
<title>Node2&#45;&gt;Node3</title>
<path fill="none" stroke="midnightblue" d="M332.5,-425.28C332.5,-400.39 332.5,-356.27 332.5,-318.5 332.5,-318.5 332.5,-318.5 332.5,-121 332.5,-47.12 414.18,-75.29 485.5,-56 589.6,-27.85 715.8,-17.18 785.91,-13.23"/>
<polygon fill="midnightblue" stroke="midnightblue" points="786.46,-16.7 796.26,-12.67 786.09,-9.71 786.46,-16.7"/>
</g>
<!-- Node4 -->
<g id="node4" class="node">
<title>Node4</title>
<g id="a_node4"><a xlink:title=" ">
<polygon fill="white" stroke="#bfbfbf" points="488.5,-0.5 488.5,-19.5 610.5,-19.5 610.5,-0.5 488.5,-0.5"/>
<text text-anchor="middle" x="549.5" y="-7.5" font-family="Helvetica,sans-Serif" font-size="10.00">rapidjson/document.h</text>
</a>
</g>
</g>
<!-- Node2&#45;&gt;Node4 -->
<g id="edge3" class="edge">
<title>Node2&#45;&gt;Node4</title>
<path fill="none" stroke="midnightblue" d="M322.71,-425.39C311.45,-400.98 294.5,-357.71 294.5,-318.5 294.5,-318.5 294.5,-318.5 294.5,-121 294.5,-90.2 295.04,-75.95 318.5,-56 342.22,-35.83 419.59,-23.72 478.31,-17.23"/>
<polygon fill="midnightblue" stroke="midnightblue" points="478.73,-20.71 488.3,-16.16 477.99,-13.75 478.73,-20.71"/>
</g>
<!-- Node5 -->
<g id="node5" class="node">
<title>Node5</title>
<g id="a_node5"><a xlink:title=" ">
<polygon fill="white" stroke="#bfbfbf" points="211,-0.5 211,-19.5 302,-19.5 302,-0.5 211,-0.5"/>
<text text-anchor="middle" x="256.5" y="-7.5" font-family="Helvetica,sans-Serif" font-size="10.00">rapidjson/fwd.h</text>
</a>
</g>
</g>
<!-- Node2&#45;&gt;Node5 -->
<g id="edge4" class="edge">
<title>Node2&#45;&gt;Node5</title>
<path fill="none" stroke="midnightblue" d="M297.05,-425.33C263.59,-403.86 218.5,-366.1 218.5,-318.5 218.5,-318.5 218.5,-318.5 218.5,-121 218.5,-86.81 235.1,-49.76 246.36,-28.57"/>
<polygon fill="midnightblue" stroke="midnightblue" points="249.45,-30.22 251.22,-19.77 243.32,-26.83 249.45,-30.22"/>
</g>
<!-- Node6 -->
<g id="node6" class="node">
<title>Node6</title>
<g id="a_node6"><a xlink:title=" ">
<polygon fill="white" stroke="#bfbfbf" points="0,-369.5 0,-388.5 47,-388.5 47,-369.5 0,-369.5"/>
<text text-anchor="middle" x="23.5" y="-376.5" font-family="Helvetica,sans-Serif" font-size="10.00">cmath</text>
</a>
</g>
</g>
<!-- Node2&#45;&gt;Node6 -->
<g id="edge5" class="edge">
<title>Node2&#45;&gt;Node6</title>
<path fill="none" stroke="midnightblue" d="M259.85,-431.85C206.2,-421.78 131.2,-406.97 57.18,-389.28"/>
<polygon fill="midnightblue" stroke="midnightblue" points="57.76,-385.82 47.21,-386.88 56.12,-392.63 57.76,-385.82"/>
</g>
<!-- Node7 -->
<g id="node7" class="node">
<title>Node7</title>
<g id="a_node7"><a xlink:title=" ">
<polygon fill="white" stroke="#bfbfbf" points="65,-369.5 65,-388.5 190,-388.5 190,-369.5 65,-369.5"/>
<text text-anchor="middle" x="127.5" y="-376.5" font-family="Helvetica,sans-Serif" font-size="10.00">experimental/optional</text>
</a>
</g>
</g>
<!-- Node2&#45;&gt;Node7 -->
<g id="edge6" class="edge">
<title>Node2&#45;&gt;Node7</title>
<path fill="none" stroke="midnightblue" d="M270.99,-425.5C236.13,-414.44 193.7,-400.99 164.05,-391.59"/>
<polygon fill="midnightblue" stroke="midnightblue" points="165.11,-388.25 154.52,-388.57 162.99,-394.93 165.11,-388.25"/>
</g>
<!-- Node8 -->
<g id="node8" class="node">
<title>Node8</title>
<g id="a_node8"><a xlink:title=" ">
<polygon fill="white" stroke="#bfbfbf" points="1599.5,-112.5 1599.5,-131.5 1657.5,-131.5 1657.5,-112.5 1599.5,-112.5"/>
<text text-anchor="middle" x="1628.5" y="-119.5" font-family="Helvetica,sans-Serif" font-size="10.00">memory</text>
</a>
</g>
</g>
<!-- Node2&#45;&gt;Node8 -->
<g id="edge7" class="edge">
<title>Node2&#45;&gt;Node8</title>
<path fill="none" stroke="midnightblue" d="M405.29,-444.16C650.22,-440.98 1435.1,-427.85 1541.5,-389 1589.89,-371.33 1633.5,-370.01 1633.5,-318.5 1633.5,-318.5 1633.5,-318.5 1633.5,-255 1633.5,-214.63 1631.14,-167.36 1629.66,-141.77"/>
<polygon fill="midnightblue" stroke="midnightblue" points="1633.14,-141.42 1629.05,-131.64 1626.16,-141.84 1633.14,-141.42"/>
</g>
<!-- Node9 -->
<g id="node9" class="node">
<title>Node9</title>
<g id="a_node9"><a xlink:title=" ">
<polygon fill="white" stroke="#bfbfbf" points="705.5,-56.5 705.5,-75.5 749.5,-75.5 749.5,-56.5 705.5,-56.5"/>
<text text-anchor="middle" x="727.5" y="-63.5" font-family="Helvetica,sans-Serif" font-size="10.00">string</text>
</a>
</g>
</g>
<!-- Node2&#45;&gt;Node9 -->
<g id="edge8" class="edge">
<title>Node2&#45;&gt;Node9</title>
<path fill="none" stroke="midnightblue" d="M342.29,-425.39C353.55,-400.98 370.5,-357.71 370.5,-318.5 370.5,-318.5 370.5,-318.5 370.5,-255 370.5,-186.58 373.88,-154.5 427.5,-112 468.44,-79.55 626.09,-70.37 694.98,-67.88"/>
<polygon fill="midnightblue" stroke="midnightblue" points="695.36,-71.37 705.24,-67.54 695.13,-64.37 695.36,-71.37"/>
</g>
<!-- Node10 -->
<g id="node10" class="node">
<title>Node10</title>
<g id="a_node10"><a xlink:href="../../d1/dfd/RapidJsonDocument_8h.html" target="_top" xlink:title=" ">
<polygon fill="white" stroke="black" points="1332.5,-369.5 1332.5,-388.5 1532.5,-388.5 1532.5,-369.5 1332.5,-369.5"/>
<text text-anchor="middle" x="1432.5" y="-376.5" font-family="Helvetica,sans-Serif" font-size="10.00">joda/document/RapidJsonDocument.h</text>
</a>
</g>
</g>
<!-- Node2&#45;&gt;Node10 -->
<g id="edge9" class="edge">
<title>Node2&#45;&gt;Node10</title>
<path fill="none" stroke="midnightblue" d="M405.1,-440.71C593.29,-429.59 1097.81,-399.78 1322.23,-386.52"/>
<polygon fill="midnightblue" stroke="midnightblue" points="1322.6,-390 1332.38,-385.92 1322.19,-383.01 1322.6,-390"/>
</g>
<!-- Node10&#45;&gt;Node5 -->
<g id="edge49" class="edge">
<title>Node10&#45;&gt;Node5</title>
<path fill="none" stroke="midnightblue" d="M1332.49,-378.12C1048.32,-377.15 256.5,-364.79 256.5,-257 256.5,-257 256.5,-257 256.5,-121 256.5,-88.95 256.5,-51.64 256.5,-29.75"/>
<polygon fill="midnightblue" stroke="midnightblue" points="260,-29.56 256.5,-19.56 253,-29.56 260,-29.56"/>
</g>
<!-- Node10&#45;&gt;Node8 -->
<g id="edge51" class="edge">
<title>Node10&#45;&gt;Node8</title>
<path fill="none" stroke="midnightblue" d="M1502.07,-369.44C1526.95,-363.1 1553.3,-352.1 1571.5,-333 1585.01,-318.82 1614.03,-189.85 1624.57,-141.33"/>
<polygon fill="midnightblue" stroke="midnightblue" points="1627.99,-142.07 1626.68,-131.56 1621.15,-140.59 1627.99,-142.07"/>
</g>
<!-- Node11 -->
<g id="node11" class="node">
<title>Node11</title>
<g id="a_node11"><a xlink:href="../../d2/d0d/ViewLayer_8h.html" target="_top" xlink:title=" ">
<polygon fill="white" stroke="black" points="980.5,-302.5 980.5,-332.5 1096.5,-332.5 1096.5,-302.5 980.5,-302.5"/>
<text text-anchor="start" x="988.5" y="-320.5" font-family="Helvetica,sans-Serif" font-size="10.00">joda/document/view</text>
<text text-anchor="middle" x="1038.5" y="-309.5" font-family="Helvetica,sans-Serif" font-size="10.00">/ViewLayer.h</text>
</a>
</g>
</g>
<!-- Node10&#45;&gt;Node11 -->
<g id="edge10" class="edge">
<title>Node10&#45;&gt;Node11</title>
<path fill="none" stroke="midnightblue" d="M1376.05,-369.48C1304.98,-358.74 1182.99,-340.32 1106.75,-328.81"/>
<polygon fill="midnightblue" stroke="midnightblue" points="1107.18,-325.33 1096.77,-327.3 1106.14,-332.25 1107.18,-325.33"/>
</g>
<!-- Node14 -->
<g id="node14" class="node">
<title>Node14</title>
<g id="a_node14"><a xlink:href="../../d6/d09/RJFwd_8h.html" target="_top" xlink:title=" ">
<polygon fill="white" stroke="black" points="1078.5,-56.5 1078.5,-75.5 1184.5,-75.5 1184.5,-56.5 1078.5,-56.5"/>
<text text-anchor="middle" x="1131.5" y="-63.5" font-family="Helvetica,sans-Serif" font-size="10.00">joda/misc/RJFwd.h</text>
</a>
</g>
</g>
<!-- Node10&#45;&gt;Node14 -->
<g id="edge63" class="edge">
<title>Node10&#45;&gt;Node14</title>
<path fill="none" stroke="midnightblue" d="M1430.15,-369.27C1421.37,-338.16 1387.84,-231.23 1325.5,-168 1281.08,-122.94 1212.29,-93.75 1169.67,-78.86"/>
<polygon fill="midnightblue" stroke="midnightblue" points="1170.55,-75.46 1159.96,-75.55 1168.3,-82.08 1170.55,-75.46"/>
</g>
<!-- Node15 -->
<g id="node15" class="node">
<title>Node15</title>
<g id="a_node15"><a xlink:title=" ">
<polygon fill="white" stroke="#bfbfbf" points="1391.5,-0.5 1391.5,-19.5 1513.5,-19.5 1513.5,-0.5 1391.5,-0.5"/>
<text text-anchor="middle" x="1452.5" y="-7.5" font-family="Helvetica,sans-Serif" font-size="10.00">rapidjson/allocators.h</text>
</a>
</g>
</g>
<!-- Node10&#45;&gt;Node15 -->
<g id="edge48" class="edge">
<title>Node10&#45;&gt;Node15</title>
<path fill="none" stroke="midnightblue" d="M1481.06,-369.44C1502.27,-363.07 1525.27,-352.05 1538.5,-333 1594.58,-252.26 1583.73,-203.39 1547.5,-112 1532.71,-74.69 1496.9,-43.15 1473.71,-25.68"/>
<polygon fill="midnightblue" stroke="midnightblue" points="1475.66,-22.76 1465.52,-19.69 1471.53,-28.41 1475.66,-22.76"/>
</g>
<!-- Node30 -->
<g id="node30" class="node">
<title>Node30</title>
<g id="a_node30"><a xlink:title=" ">
<polygon fill="white" stroke="#bfbfbf" points="1479.5,-308 1479.5,-327 1529.5,-327 1529.5,-308 1479.5,-308"/>
<text text-anchor="middle" x="1504.5" y="-315" font-family="Helvetica,sans-Serif" font-size="10.00">atomic</text>
</a>
</g>
</g>
<!-- Node10&#45;&gt;Node30 -->
<g id="edge50" class="edge">
<title>Node10&#45;&gt;Node30</title>
<path fill="none" stroke="midnightblue" d="M1442.82,-369.48C1454.15,-360.11 1472.57,-344.88 1486.34,-333.51"/>
<polygon fill="midnightblue" stroke="midnightblue" points="1488.72,-336.08 1494.2,-327.01 1484.27,-330.68 1488.72,-336.08"/>
</g>
<!-- Node31 -->
<g id="node31" class="node">
<title>Node31</title>
<g id="a_node31"><a xlink:href="../../df/d13/FileNameRepo_8h.html" target="_top" xlink:title=" ">
<polygon fill="white" stroke="black" points="437,-168.5 437,-209.5 592,-209.5 592,-168.5 437,-168.5"/>
<text text-anchor="start" x="445" y="-197.5" font-family="Helvetica,sans-Serif" font-size="10.00">../../../../../misc</text>
<text text-anchor="start" x="445" y="-186.5" font-family="Helvetica,sans-Serif" font-size="10.00">/include/joda/misc/FileName</text>
<text text-anchor="middle" x="514.5" y="-175.5" font-family="Helvetica,sans-Serif" font-size="10.00">Repo.h</text>
</a>
</g>
</g>
<!-- Node10&#45;&gt;Node31 -->
<g id="edge52" class="edge">
<title>Node10&#45;&gt;Node31</title>
<path fill="none" stroke="midnightblue" d="M1332.5,-373.84C1136.65,-364.24 710.55,-335.79 583.5,-266 562.75,-254.6 544.96,-234.57 532.64,-217.93"/>
<polygon fill="midnightblue" stroke="midnightblue" points="535.36,-215.72 526.71,-209.6 529.66,-219.78 535.36,-215.72"/>
</g>
<!-- Node33 -->
<g id="node33" class="node">
<title>Node33</title>
<g id="a_node33"><a xlink:href="../../d5/d6c/IOrigin_8h.html" target="_top" xlink:title=" ">
<polygon fill="white" stroke="black" points="1422.5,-179.5 1422.5,-198.5 1480.5,-198.5 1480.5,-179.5 1422.5,-179.5"/>
<text text-anchor="middle" x="1451.5" y="-186.5" font-family="Helvetica,sans-Serif" font-size="10.00">IOrigin.h</text>
</a>
</g>
</g>
<!-- Node10&#45;&gt;Node33 -->
<g id="edge58" class="edge">
<title>Node10&#45;&gt;Node33</title>
<path fill="none" stroke="midnightblue" d="M1433.37,-369.43C1436.25,-340.87 1445.6,-248.43 1449.62,-208.57"/>
<polygon fill="midnightblue" stroke="midnightblue" points="1453.11,-208.92 1450.63,-198.62 1446.14,-208.21 1453.11,-208.92"/>
</g>
<!-- Node11&#45;&gt;Node3 -->
<g id="edge11" class="edge">
<title>Node11&#45;&gt;Node3</title>
<path fill="none" stroke="midnightblue" d="M980.42,-316.21C840.3,-314.09 490.62,-299.72 427.5,-210 402.44,-174.38 400.62,-146.27 427.5,-112 471.56,-55.84 685.11,-26.82 786.22,-16.04"/>
<polygon fill="midnightblue" stroke="midnightblue" points="786.65,-19.51 796.23,-14.99 785.92,-12.55 786.65,-19.51"/>
</g>
<!-- Node12 -->
<g id="node12" class="node">
<title>Node12</title>
<g id="a_node12"><a xlink:href="../../db/d16/config_8h.html" target="_top" xlink:title=" ">
<polygon fill="white" stroke="black" points="600,-246.5 600,-265.5 711,-265.5 711,-246.5 600,-246.5"/>
<text text-anchor="middle" x="655.5" y="-253.5" font-family="Helvetica,sans-Serif" font-size="10.00">joda/config/config.h</text>
</a>
</g>
</g>
<!-- Node11&#45;&gt;Node12 -->
<g id="edge12" class="edge">
<title>Node11&#45;&gt;Node12</title>
<path fill="none" stroke="midnightblue" d="M980.33,-307.46C910.38,-296.6 793.31,-278.41 720.46,-267.09"/>
<polygon fill="midnightblue" stroke="midnightblue" points="720.9,-263.62 710.48,-265.54 719.83,-270.54 720.9,-263.62"/>
</g>
<!-- Node11&#45;&gt;Node14 -->
<g id="edge15" class="edge">
<title>Node11&#45;&gt;Node14</title>
<path fill="none" stroke="midnightblue" d="M1096.62,-315.93C1179.09,-313.74 1323.74,-304.37 1356.5,-266 1391.84,-224.61 1219.96,-118.41 1155.29,-80.61"/>
<polygon fill="midnightblue" stroke="midnightblue" points="1156.97,-77.54 1146.57,-75.55 1153.46,-83.59 1156.97,-77.54"/>
</g>
<!-- Node18 -->
<g id="node18" class="node">
<title>Node18</title>
<g id="a_node18"><a xlink:title=" ">
<polygon fill="white" stroke="#bfbfbf" points="916,-246.5 916,-265.5 1045,-265.5 1045,-246.5 916,-246.5"/>
<text text-anchor="middle" x="980.5" y="-253.5" font-family="Helvetica,sans-Serif" font-size="10.00">rapidjson/stringbuffer.h</text>
</a>
</g>
</g>
<!-- Node11&#45;&gt;Node18 -->
<g id="edge22" class="edge">
<title>Node11&#45;&gt;Node18</title>
<path fill="none" stroke="midnightblue" d="M1024.75,-302.4C1016.15,-293.58 1005.05,-282.18 996.11,-273.02"/>
<polygon fill="midnightblue" stroke="midnightblue" points="998.43,-270.38 988.94,-265.66 993.41,-275.26 998.43,-270.38"/>
</g>
<!-- Node19 -->
<g id="node19" class="node">
<title>Node19</title>
<g id="a_node19"><a xlink:title=" ">
<polygon fill="white" stroke="#bfbfbf" points="1063.5,-246.5 1063.5,-265.5 1127.5,-265.5 1127.5,-246.5 1063.5,-246.5"/>
<text text-anchor="middle" x="1095.5" y="-253.5" font-family="Helvetica,sans-Serif" font-size="10.00">algorithm</text>
</a>
</g>
</g>
<!-- Node11&#45;&gt;Node19 -->
<g id="edge23" class="edge">
<title>Node11&#45;&gt;Node19</title>
<path fill="none" stroke="midnightblue" d="M1052.01,-302.4C1060.46,-293.58 1071.38,-282.18 1080.16,-273.02"/>
<polygon fill="midnightblue" stroke="midnightblue" points="1082.82,-275.3 1087.21,-265.66 1077.76,-270.46 1082.82,-275.3"/>
</g>
<!-- Node20 -->
<g id="node20" class="node">
<title>Node20</title>
<g id="a_node20"><a xlink:title=" ">
<polygon fill="white" stroke="#bfbfbf" points="616.5,-112.5 616.5,-131.5 664.5,-131.5 664.5,-112.5 616.5,-112.5"/>
<text text-anchor="middle" x="640.5" y="-119.5" font-family="Helvetica,sans-Serif" font-size="10.00">mutex</text>
</a>
</g>
</g>
<!-- Node11&#45;&gt;Node20 -->
<g id="edge24" class="edge">
<title>Node11&#45;&gt;Node20</title>
<path fill="none" stroke="midnightblue" d="M980.42,-314.19C865.09,-309.01 616.06,-294.6 590.5,-266 584.58,-259.37 588.79,-254.72 590.5,-246 594.62,-224.94 619.18,-169.48 632.28,-140.78"/>
<polygon fill="midnightblue" stroke="midnightblue" points="635.54,-142.07 636.53,-131.52 629.18,-139.15 635.54,-142.07"/>
</g>
<!-- Node21 -->
<g id="node21" class="node">
<title>Node21</title>
<g id="a_node21"><a xlink:title=" ">
<polygon fill="white" stroke="#bfbfbf" points="868,-56.5 868,-75.5 961,-75.5 961,-56.5 868,-56.5"/>
<text text-anchor="middle" x="914.5" y="-63.5" font-family="Helvetica,sans-Serif" font-size="10.00">unordered_map</text>
</a>
</g>
</g>
<!-- Node11&#45;&gt;Node21 -->
<g id="edge25" class="edge">
<title>Node11&#45;&gt;Node21</title>
<path fill="none" stroke="midnightblue" d="M1093.43,-302.42C1114.53,-294.66 1137.39,-283.02 1153.5,-266 1184.12,-233.65 1197.11,-206.38 1174.5,-168 1133.3,-98.04 1034.54,-76.4 971.29,-69.79"/>
<polygon fill="midnightblue" stroke="midnightblue" points="971.36,-66.28 961.07,-68.82 970.7,-73.25 971.36,-66.28"/>
</g>
<!-- Node22 -->
<g id="node22" class="node">
<title>Node22</title>
<g id="a_node22"><a xlink:title=" ">
<polygon fill="white" stroke="#bfbfbf" points="1222,-246.5 1222,-265.5 1273,-265.5 1273,-246.5 1222,-246.5"/>
<text text-anchor="middle" x="1247.5" y="-253.5" font-family="Helvetica,sans-Serif" font-size="10.00">variant</text>
</a>
</g>
</g>
<!-- Node11&#45;&gt;Node22 -->
<g id="edge26" class="edge">
<title>Node11&#45;&gt;Node22</title>
<path fill="none" stroke="midnightblue" d="M1087.77,-302.47C1125.83,-291.64 1177.6,-276.9 1211.76,-267.17"/>
<polygon fill="midnightblue" stroke="midnightblue" points="1213.1,-270.43 1221.76,-264.33 1211.18,-263.7 1213.1,-270.43"/>
</g>
<!-- Node23 -->
<g id="node23" class="node">
<title>Node23</title>
<g id="a_node23"><a xlink:title=" ">
<polygon fill="white" stroke="#bfbfbf" points="1291.5,-246.5 1291.5,-265.5 1347.5,-265.5 1347.5,-246.5 1291.5,-246.5"/>
<text text-anchor="middle" x="1319.5" y="-253.5" font-family="Helvetica,sans-Serif" font-size="10.00">optional</text>
</a>
</g>
</g>
<!-- Node11&#45;&gt;Node23 -->
<g id="edge27" class="edge">
<title>Node11&#45;&gt;Node23</title>
<path fill="none" stroke="midnightblue" d="M1096.8,-305.02C1143.98,-295.6 1212.41,-281.63 1281.11,-266.26"/>
<polygon fill="midnightblue" stroke="midnightblue" points="1282.25,-269.59 1291.24,-263.98 1280.72,-262.76 1282.25,-269.59"/>
</g>
<!-- Node24 -->
<g id="node24" class="node">
<title>Node24</title>
<g id="a_node24"><a xlink:href="../../da/d3b/ObjectIterator_8h.html" target="_top" xlink:title=" ">
<polygon fill="white" stroke="black" points="805.5,-246.5 805.5,-265.5 897.5,-265.5 897.5,-246.5 805.5,-246.5"/>
<text text-anchor="middle" x="851.5" y="-253.5" font-family="Helvetica,sans-Serif" font-size="10.00">ObjectIterator.h</text>
</a>
</g>
</g>
<!-- Node11&#45;&gt;Node24 -->
<g id="edge28" class="edge">
<title>Node11&#45;&gt;Node24</title>
<path fill="none" stroke="midnightblue" d="M994.18,-302.4C961.87,-292.12 918.6,-278.35 888.21,-268.68"/>
<polygon fill="midnightblue" stroke="midnightblue" points="889.03,-265.27 878.44,-265.57 886.91,-271.94 889.03,-265.27"/>
</g>
<!-- Node27 -->
<g id="node27" class="node">
<title>Node27</title>
<g id="a_node27"><a xlink:href="../../d5/de2/ViewCursor_8h.html" target="_top" xlink:title=" ">
<polygon fill="white" stroke="black" points="1085.5,-179.5 1085.5,-198.5 1165.5,-198.5 1165.5,-179.5 1085.5,-179.5"/>
<text text-anchor="middle" x="1125.5" y="-186.5" font-family="Helvetica,sans-Serif" font-size="10.00">ViewCursor.h</text>
</a>
</g>
</g>
<!-- Node11&#45;&gt;Node27 -->
<g id="edge41" class="edge">
<title>Node11&#45;&gt;Node27</title>
<path fill="none" stroke="midnightblue" d="M1089.65,-302.43C1107.67,-294.74 1126.04,-283.16 1136.5,-266 1147.2,-248.44 1141.02,-224.46 1134.41,-208.16"/>
<polygon fill="midnightblue" stroke="midnightblue" points="1137.46,-206.41 1130.18,-198.71 1131.07,-209.27 1137.46,-206.41"/>
</g>
<!-- Node28 -->
<g id="node28" class="node">
<title>Node28</title>
<g id="a_node28"><a xlink:href="../../d0/d10/ViewStructure_8h.html" target="_top" xlink:title=" ">
<polygon fill="white" stroke="black" points="867.5,-112.5 867.5,-131.5 961.5,-131.5 961.5,-112.5 867.5,-112.5"/>
<text text-anchor="middle" x="914.5" y="-119.5" font-family="Helvetica,sans-Serif" font-size="10.00">ViewStructure.h</text>
</a>
</g>
</g>
<!-- Node11&#45;&gt;Node28 -->
<g id="edge42" class="edge">
<title>Node11&#45;&gt;Node28</title>
<path fill="none" stroke="midnightblue" d="M980.43,-312.62C916.35,-306.98 819.24,-293.98 796.5,-266 790.89,-259.1 791.41,-253.29 796.5,-246 823.06,-207.95 863.82,-244.81 894.5,-210 911.12,-191.13 914.71,-161.24 915.11,-141.87"/>
<polygon fill="midnightblue" stroke="midnightblue" points="918.6,-141.58 915.04,-131.6 911.61,-141.63 918.6,-141.58"/>
</g>
<!-- Node29 -->
<g id="node29" class="node">
<title>Node29</title>
<g id="a_node29"><a xlink:href="../../d8/dee/VirtualObject_8h.html" target="_top" xlink:title=" ">
<polygon fill="white" stroke="black" points="797,-179.5 797,-198.5 886,-198.5 886,-179.5 797,-179.5"/>
<text text-anchor="middle" x="841.5" y="-186.5" font-family="Helvetica,sans-Serif" font-size="10.00">VirtualObject.h</text>
</a>
</g>
</g>
<!-- Node11&#45;&gt;Node29 -->
<g id="edge43" class="edge">
<title>Node11&#45;&gt;Node29</title>
<path fill="none" stroke="midnightblue" d="M980.25,-314.26C907.86,-310.12 790.53,-298.45 763.5,-266 743.52,-242.01 781.77,-217.35 811.44,-202.86"/>
<polygon fill="midnightblue" stroke="midnightblue" points="813.12,-205.94 820.69,-198.53 810.15,-199.6 813.12,-205.94"/>
</g>
<!-- Node12&#45;&gt;Node9 -->
<g id="edge14" class="edge">
<title>Node12&#45;&gt;Node9</title>
<path fill="none" stroke="midnightblue" d="M657.04,-246.42C660.02,-230.6 667.19,-195.92 677.5,-168 688.75,-137.54 706.42,-104.12 717.47,-84.39"/>
<polygon fill="midnightblue" stroke="midnightblue" points="720.54,-86.06 722.44,-75.64 714.46,-82.61 720.54,-86.06"/>
</g>
<!-- Node13 -->
<g id="node13" class="node">
<title>Node13</title>
<g id="a_node13"><a xlink:title=" ">
<polygon fill="white" stroke="#bfbfbf" points="686.5,-179.5 686.5,-198.5 740.5,-198.5 740.5,-179.5 686.5,-179.5"/>
<text text-anchor="middle" x="713.5" y="-186.5" font-family="Helvetica,sans-Serif" font-size="10.00">istream</text>
</a>
</g>
</g>
<!-- Node12&#45;&gt;Node13 -->
<g id="edge13" class="edge">
<title>Node12&#45;&gt;Node13</title>
<path fill="none" stroke="midnightblue" d="M663.32,-246.23C672.45,-236 687.74,-218.86 699.05,-206.19"/>
<polygon fill="midnightblue" stroke="midnightblue" points="701.76,-208.42 705.8,-198.63 696.53,-203.76 701.76,-208.42"/>
</g>
<!-- Node14&#45;&gt;Node3 -->
<g id="edge16" class="edge">
<title>Node14&#45;&gt;Node3</title>
<path fill="none" stroke="midnightblue" d="M1085.23,-56.44C1032.85,-46.76 947.66,-31 892.61,-20.82"/>
<polygon fill="midnightblue" stroke="midnightblue" points="893.17,-17.37 882.7,-18.99 891.89,-24.25 893.17,-17.37"/>
</g>
<!-- Node14&#45;&gt;Node4 -->
<g id="edge18" class="edge">
<title>Node14&#45;&gt;Node4</title>
<path fill="none" stroke="midnightblue" d="M1078.31,-60.06C973.2,-50.31 738.84,-28.57 620.62,-17.6"/>
<polygon fill="midnightblue" stroke="midnightblue" points="620.86,-14.11 610.58,-16.67 620.21,-21.08 620.86,-14.11"/>
</g>
<!-- Node14&#45;&gt;Node5 -->
<g id="edge19" class="edge">
<title>Node14&#45;&gt;Node5</title>
<path fill="none" stroke="midnightblue" d="M1078.41,-61.72C923.07,-52.14 470.45,-24.2 312.03,-14.43"/>
<polygon fill="midnightblue" stroke="midnightblue" points="312.23,-10.93 302.03,-13.81 311.8,-17.92 312.23,-10.93"/>
</g>
<!-- Node14&#45;&gt;Node15 -->
<g id="edge17" class="edge">
<title>Node14&#45;&gt;Node15</title>
<path fill="none" stroke="midnightblue" d="M1182.36,-56.44C1239.18,-46.89 1331.12,-31.42 1391.69,-21.23"/>
<polygon fill="midnightblue" stroke="midnightblue" points="1392.59,-24.63 1401.87,-19.52 1391.43,-17.72 1392.59,-24.63"/>
</g>
<!-- Node16 -->
<g id="node16" class="node">
<title>Node16</title>
<g id="a_node16"><a xlink:title=" ">
<polygon fill="white" stroke="#bfbfbf" points="983.5,-0.5 983.5,-19.5 1133.5,-19.5 1133.5,-0.5 983.5,-0.5"/>
<text text-anchor="middle" x="1058.5" y="-7.5" font-family="Helvetica,sans-Serif" font-size="10.00">rapidjson/istreamwrapper.h</text>
</a>
</g>
</g>
<!-- Node14&#45;&gt;Node16 -->
<g id="edge20" class="edge">
<title>Node14&#45;&gt;Node16</title>
<path fill="none" stroke="midnightblue" d="M1119.77,-56.32C1108.66,-48.11 1091.76,-35.6 1078.52,-25.81"/>
<polygon fill="midnightblue" stroke="midnightblue" points="1080.56,-22.97 1070.44,-19.83 1076.4,-28.59 1080.56,-22.97"/>
</g>
<!-- Node17 -->
<g id="node17" class="node">
<title>Node17</title>
<g id="a_node17"><a xlink:title=" ">
<polygon fill="white" stroke="#bfbfbf" points="1151,-0.5 1151,-19.5 1258,-19.5 1258,-0.5 1151,-0.5"/>
<text text-anchor="middle" x="1204.5" y="-7.5" font-family="Helvetica,sans-Serif" font-size="10.00">rapidjson/pointer.h</text>
</a>
</g>
</g>
<!-- Node14&#45;&gt;Node17 -->
<g id="edge21" class="edge">
<title>Node14&#45;&gt;Node17</title>
<path fill="none" stroke="midnightblue" d="M1143.23,-56.32C1154.34,-48.11 1171.24,-35.6 1184.48,-25.81"/>
<polygon fill="midnightblue" stroke="midnightblue" points="1186.6,-28.59 1192.56,-19.83 1182.44,-22.97 1186.6,-28.59"/>
</g>
<!-- Node24&#45;&gt;Node9 -->
<g id="edge30" class="edge">
<title>Node24&#45;&gt;Node9</title>
<path fill="none" stroke="midnightblue" d="M834.24,-246.41C820.05,-238.59 800.27,-225.87 787.5,-210 756.51,-171.48 739.1,-114.65 731.74,-85.59"/>
<polygon fill="midnightblue" stroke="midnightblue" points="735.08,-84.5 729.33,-75.6 728.27,-86.14 735.08,-84.5"/>
</g>
<!-- Node24&#45;&gt;Node14 -->
<g id="edge29" class="edge">
<title>Node24&#45;&gt;Node14</title>
<path fill="none" stroke="midnightblue" d="M897.74,-247.53C944.41,-239.31 1012.61,-225.23 1034.5,-210 1058.48,-193.31 1102.12,-119.24 1121.62,-84.76"/>
<polygon fill="midnightblue" stroke="midnightblue" points="1124.81,-86.24 1126.65,-75.8 1118.71,-82.81 1124.81,-86.24"/>
</g>
<!-- Node25 -->
<g id="node25" class="node">
<title>Node25</title>
<g id="a_node25"><a xlink:title=" ">
<polygon fill="white" stroke="#bfbfbf" points="981,-179.5 981,-198.5 1026,-198.5 1026,-179.5 981,-179.5"/>
<text text-anchor="middle" x="1003.5" y="-186.5" font-family="Helvetica,sans-Serif" font-size="10.00">utility</text>
</a>
</g>
</g>
<!-- Node24&#45;&gt;Node25 -->
<g id="edge31" class="edge">
<title>Node24&#45;&gt;Node25</title>
<path fill="none" stroke="midnightblue" d="M876.09,-246.37C899.63,-237.88 935.96,-224.16 966.5,-210 970.79,-208.01 975.28,-205.75 979.59,-203.48"/>
<polygon fill="midnightblue" stroke="midnightblue" points="981.47,-206.44 988.59,-198.6 978.13,-200.28 981.47,-206.44"/>
</g>
<!-- Node26 -->
<g id="node26" class="node">
<title>Node26</title>
<g id="a_node26"><a xlink:title=" ">
<polygon fill="white" stroke="#bfbfbf" points="1018,-112.5 1018,-131.5 1065,-131.5 1065,-112.5 1018,-112.5"/>
<text text-anchor="middle" x="1041.5" y="-119.5" font-family="Helvetica,sans-Serif" font-size="10.00">vector</text>
</a>
</g>
</g>
<!-- Node24&#45;&gt;Node26 -->
<g id="edge32" class="edge">
<title>Node24&#45;&gt;Node26</title>
<path fill="none" stroke="midnightblue" d="M868.77,-246.47C884.9,-238.15 909.29,-224.64 928.5,-210 949.75,-193.81 950.6,-184.64 971.5,-168 985.92,-156.52 1003.35,-145.31 1017.21,-136.95"/>
<polygon fill="midnightblue" stroke="midnightblue" points="1019.33,-139.75 1026.15,-131.65 1015.76,-133.73 1019.33,-139.75"/>
</g>
<!-- Node24&#45;&gt;Node27 -->
<g id="edge33" class="edge">
<title>Node24&#45;&gt;Node27</title>
<path fill="none" stroke="midnightblue" d="M897.56,-246.44C952.06,-236.16 1039.45,-219.16 1071.5,-210 1079.25,-207.79 1087.48,-204.98 1095.12,-202.18"/>
<polygon fill="midnightblue" stroke="midnightblue" points="1096.6,-205.36 1104.72,-198.54 1094.13,-198.81 1096.6,-205.36"/>
</g>
<!-- Node27&#45;&gt;Node8 -->
<g id="edge35" class="edge">
<title>Node27&#45;&gt;Node8</title>
<path fill="none" stroke="midnightblue" d="M1165.81,-182.79C1260.43,-170.56 1495.78,-140.15 1589.29,-128.07"/>
<polygon fill="midnightblue" stroke="midnightblue" points="1589.98,-131.51 1599.45,-126.75 1589.09,-124.56 1589.98,-131.51"/>
</g>
<!-- Node27&#45;&gt;Node14 -->
<g id="edge34" class="edge">
<title>Node27&#45;&gt;Node14</title>
<path fill="none" stroke="midnightblue" d="M1130.25,-179.24C1137.29,-165.22 1149.27,-136.82 1145.5,-112 1144.13,-103 1141.31,-93.33 1138.55,-85.26"/>
<polygon fill="midnightblue" stroke="midnightblue" points="1141.81,-83.98 1135.1,-75.78 1135.23,-86.37 1141.81,-83.98"/>
</g>
<!-- Node27&#45;&gt;Node26 -->
<g id="edge36" class="edge">
<title>Node27&#45;&gt;Node26</title>
<path fill="none" stroke="midnightblue" d="M1114.17,-179.23C1100.44,-168.61 1077.1,-150.55 1060.58,-137.76"/>
<polygon fill="midnightblue" stroke="midnightblue" points="1062.7,-134.98 1052.65,-131.63 1058.42,-140.52 1062.7,-134.98"/>
</g>
<!-- Node27&#45;&gt;Node28 -->
<g id="edge37" class="edge">
<title>Node27&#45;&gt;Node28</title>
<path fill="none" stroke="midnightblue" d="M1097.48,-179.37C1060.09,-167.85 993.78,-147.42 952.08,-134.58"/>
<polygon fill="midnightblue" stroke="midnightblue" points="952.89,-131.16 942.3,-131.56 950.83,-137.85 952.89,-131.16"/>
</g>
<!-- Node28&#45;&gt;Node9 -->
<g id="edge39" class="edge">
<title>Node28&#45;&gt;Node9</title>
<path fill="none" stroke="midnightblue" d="M884.87,-112.44C850.66,-102.56 794.59,-86.37 759.43,-76.22"/>
<polygon fill="midnightblue" stroke="midnightblue" points="760.25,-72.81 749.67,-73.4 758.31,-79.54 760.25,-72.81"/>
</g>
<!-- Node28&#45;&gt;Node14 -->
<g id="edge38" class="edge">
<title>Node28&#45;&gt;Node14</title>
<path fill="none" stroke="midnightblue" d="M948.88,-112.44C986.42,-103.1 1046.63,-88.12 1087.57,-77.93"/>
<polygon fill="midnightblue" stroke="midnightblue" points="1088.42,-81.33 1097.28,-75.52 1086.73,-74.53 1088.42,-81.33"/>
</g>
<!-- Node28&#45;&gt;Node21 -->
<g id="edge40" class="edge">
<title>Node28&#45;&gt;Node21</title>
<path fill="none" stroke="midnightblue" d="M914.5,-112.08C914.5,-105.01 914.5,-94.86 914.5,-85.99"/>
<polygon fill="midnightblue" stroke="midnightblue" points="918,-85.75 914.5,-75.75 911,-85.75 918,-85.75"/>
</g>
<!-- Node29&#45;&gt;Node3 -->
<g id="edge44" class="edge">
<title>Node29&#45;&gt;Node3</title>
<path fill="none" stroke="midnightblue" d="M841.4,-179.46C841.1,-152.43 840.15,-68.24 839.72,-30.11"/>
<polygon fill="midnightblue" stroke="midnightblue" points="843.21,-29.83 839.6,-19.87 836.21,-29.91 843.21,-29.83"/>
</g>
<!-- Node29&#45;&gt;Node9 -->
<g id="edge46" class="edge">
<title>Node29&#45;&gt;Node9</title>
<path fill="none" stroke="midnightblue" d="M834.77,-179.23C823.49,-164.73 799.81,-135.06 777.5,-112 767.45,-101.61 755.43,-90.75 745.7,-82.3"/>
<polygon fill="midnightblue" stroke="midnightblue" points="747.71,-79.42 737.84,-75.57 743.16,-84.74 747.71,-79.42"/>
</g>
<!-- Node29&#45;&gt;Node14 -->
<g id="edge45" class="edge">
<title>Node29&#45;&gt;Node14</title>
<path fill="none" stroke="midnightblue" d="M862.72,-179.36C888.47,-168.75 933.07,-149.94 970.5,-132 987.71,-123.75 991.05,-119.74 1008.5,-112 1037,-99.36 1070.25,-87.35 1094.99,-78.92"/>
<polygon fill="midnightblue" stroke="midnightblue" points="1096.34,-82.16 1104.7,-75.65 1094.11,-75.53 1096.34,-82.16"/>
</g>
<!-- Node29&#45;&gt;Node28 -->
<g id="edge47" class="edge">
<title>Node29&#45;&gt;Node28</title>
<path fill="none" stroke="midnightblue" d="M851.35,-179.23C863.06,-168.81 882.82,-151.21 897.12,-138.47"/>
<polygon fill="midnightblue" stroke="midnightblue" points="899.67,-140.89 904.81,-131.63 895.01,-135.66 899.67,-140.89"/>
</g>
<!-- Node31&#45;&gt;Node9 -->
<g id="edge54" class="edge">
<title>Node31&#45;&gt;Node9</title>
<path fill="none" stroke="midnightblue" d="M525.27,-168.32C535.69,-151.05 553.05,-126.5 574.5,-112 611.55,-86.96 662.76,-75.6 695.5,-70.63"/>
<polygon fill="midnightblue" stroke="midnightblue" points="696.03,-74.09 705.45,-69.23 695.06,-67.16 696.03,-74.09"/>
</g>
<!-- Node31&#45;&gt;Node20 -->
<g id="edge53" class="edge">
<title>Node31&#45;&gt;Node20</title>
<path fill="none" stroke="midnightblue" d="M552.3,-168.5C572.37,-158.15 596.51,-145.69 614.46,-136.43"/>
<polygon fill="midnightblue" stroke="midnightblue" points="616.44,-139.35 623.73,-131.65 613.24,-133.13 616.44,-139.35"/>
</g>
<!-- Node31&#45;&gt;Node21 -->
<g id="edge55" class="edge">
<title>Node31&#45;&gt;Node21</title>
<path fill="none" stroke="midnightblue" d="M535.84,-168.28C558.09,-148.15 591.86,-118.9 607.5,-112 651.16,-92.75 781.43,-78.59 857.51,-71.7"/>
<polygon fill="midnightblue" stroke="midnightblue" points="858.23,-75.15 867.88,-70.77 857.6,-68.17 858.23,-75.15"/>
</g>
<!-- Node31&#45;&gt;Node26 -->
<g id="edge57" class="edge">
<title>Node31&#45;&gt;Node26</title>
<path fill="none" stroke="midnightblue" d="M592.24,-178.46C717.53,-163.09 952.01,-134.31 970.5,-132 982.71,-130.48 996.09,-128.79 1007.91,-127.28"/>
<polygon fill="midnightblue" stroke="midnightblue" points="1008.36,-130.76 1017.84,-126.02 1007.47,-123.81 1008.36,-130.76"/>
</g>
<!-- Node32 -->
<g id="node32" class="node">
<title>Node32</title>
<g id="a_node32"><a xlink:title=" ">
<polygon fill="white" stroke="#bfbfbf" points="436.5,-112.5 436.5,-131.5 522.5,-131.5 522.5,-112.5 436.5,-112.5"/>
<text text-anchor="middle" x="479.5" y="-119.5" font-family="Helvetica,sans-Serif" font-size="10.00">unordered_set</text>
</a>
</g>
</g>
<!-- Node31&#45;&gt;Node32 -->
<g id="edge56" class="edge">
<title>Node31&#45;&gt;Node32</title>
<path fill="none" stroke="midnightblue" d="M504,-168.5C499.2,-159.59 493.56,-149.11 488.9,-140.46"/>
<polygon fill="midnightblue" stroke="midnightblue" points="491.98,-138.8 484.16,-131.65 485.82,-142.12 491.98,-138.8"/>
</g>
<!-- Node33&#45;&gt;Node3 -->
<g id="edge59" class="edge">
<title>Node33&#45;&gt;Node3</title>
<path fill="none" stroke="midnightblue" d="M1444.18,-179.43C1430.47,-163.87 1399.29,-130.83 1366.5,-112 1296.42,-71.75 1272.37,-73.62 1193.5,-56 1088.4,-32.53 962.81,-20.18 893.02,-14.68"/>
<polygon fill="midnightblue" stroke="midnightblue" points="892.96,-11.16 882.72,-13.88 892.42,-18.14 892.96,-11.16"/>
</g>
<!-- Node33&#45;&gt;Node8 -->
<g id="edge61" class="edge">
<title>Node33&#45;&gt;Node8</title>
<path fill="none" stroke="midnightblue" d="M1475,-179.37C1505.9,-168.02 1560.36,-148.02 1595.41,-135.15"/>
<polygon fill="midnightblue" stroke="midnightblue" points="1597,-138.3 1605.18,-131.56 1594.59,-131.73 1597,-138.3"/>
</g>
<!-- Node33&#45;&gt;Node14 -->
<g id="edge62" class="edge">
<title>Node33&#45;&gt;Node14</title>
<path fill="none" stroke="midnightblue" d="M1441.26,-179.5C1421.76,-163.74 1377.39,-129.99 1334.5,-112 1289.69,-93.21 1235.89,-81.74 1194.93,-75.08"/>
<polygon fill="midnightblue" stroke="midnightblue" points="1195.23,-71.59 1184.81,-73.49 1194.15,-78.5 1195.23,-71.59"/>
</g>
<!-- Node34 -->
<g id="node34" class="node">
<title>Node34</title>
<g id="a_node34"><a xlink:title=" ">
<polygon fill="white" stroke="#bfbfbf" points="1424.5,-112.5 1424.5,-131.5 1538.5,-131.5 1538.5,-112.5 1424.5,-112.5"/>
<text text-anchor="middle" x="1481.5" y="-119.5" font-family="Helvetica,sans-Serif" font-size="10.00">boost/operators.hpp</text>
</a>
</g>
</g>
<!-- Node33&#45;&gt;Node34 -->
<g id="edge60" class="edge">
<title>Node33&#45;&gt;Node34</title>
<path fill="none" stroke="midnightblue" d="M1455.55,-179.23C1460.04,-169.49 1467.43,-153.48 1473.18,-141.03"/>
<polygon fill="midnightblue" stroke="midnightblue" points="1476.51,-142.17 1477.52,-131.63 1470.15,-139.24 1476.51,-142.17"/>
</g>
<!-- Node35&#45;&gt;Node8 -->
<g id="edge65" class="edge">
<title>Node35&#45;&gt;Node8</title>
<path fill="none" stroke="midnightblue" d="M1576.12,-436.37C1597.77,-427.6 1628.69,-412 1647.5,-389 1668.45,-363.38 1671.5,-351.6 1671.5,-318.5 1671.5,-318.5 1671.5,-318.5 1671.5,-255 1671.5,-212.21 1650.82,-165.28 1638.14,-140.54"/>
<polygon fill="midnightblue" stroke="midnightblue" points="1641.2,-138.84 1633.43,-131.64 1635.02,-142.12 1641.2,-138.84"/>
</g>
<!-- Node35&#45;&gt;Node10 -->
<g id="edge69" class="edge">
<title>Node35&#45;&gt;Node10</title>
<path fill="none" stroke="midnightblue" d="M1535.45,-436.23C1515.38,-425.27 1480.8,-406.38 1457.31,-393.55"/>
<polygon fill="midnightblue" stroke="midnightblue" points="1458.75,-390.35 1448.29,-388.63 1455.39,-396.49 1458.75,-390.35"/>
</g>
<!-- Node36 -->
<g id="node36" class="node">
<title>Node36</title>
<g id="a_node36"><a xlink:href="../../d3/dc8/PredicateVisitor_8h.html" target="_top" xlink:title=" ">
<polygon fill="white" stroke="black" points="1699.5,-369.5 1699.5,-388.5 1801.5,-388.5 1801.5,-369.5 1699.5,-369.5"/>
<text text-anchor="middle" x="1750.5" y="-376.5" font-family="Helvetica,sans-Serif" font-size="10.00">PredicateVisitor.h</text>
</a>
</g>
</g>
<!-- Node35&#45;&gt;Node36 -->
<g id="edge66" class="edge">
<title>Node35&#45;&gt;Node36</title>
<path fill="none" stroke="midnightblue" d="M1577.93,-436.37C1613.04,-424.9 1675.2,-404.59 1714.56,-391.74"/>
<polygon fill="midnightblue" stroke="midnightblue" points="1715.86,-395 1724.28,-388.56 1713.69,-388.34 1715.86,-395"/>
</g>
<!-- Node36&#45;&gt;Node8 -->
<g id="edge68" class="edge">
<title>Node36&#45;&gt;Node8</title>
<path fill="none" stroke="midnightblue" d="M1745.58,-369.27C1740.72,-360.36 1733.33,-346.05 1728.5,-333 1702.17,-261.94 1726.95,-231.44 1685.5,-168 1677.34,-155.51 1664.54,-144.95 1653.14,-137.2"/>
<polygon fill="midnightblue" stroke="midnightblue" points="1654.71,-134.06 1644.4,-131.61 1650.94,-139.95 1654.71,-134.06"/>
</g>
<!-- Node37 -->
<g id="node37" class="node">
<title>Node37</title>
<g id="a_node37"><a xlink:title=" ">
<polygon fill="white" stroke="#bfbfbf" points="1737.5,-308 1737.5,-327 1789.5,-327 1789.5,-308 1737.5,-308"/>
<text text-anchor="middle" x="1763.5" y="-315" font-family="Helvetica,sans-Serif" font-size="10.00">cassert</text>
</a>
</g>
</g>
<!-- Node36&#45;&gt;Node37 -->
<g id="edge67" class="edge">
<title>Node36&#45;&gt;Node37</title>
<path fill="none" stroke="midnightblue" d="M1752.36,-369.48C1754.22,-360.99 1757.12,-347.7 1759.5,-336.82"/>
<polygon fill="midnightblue" stroke="midnightblue" points="1762.93,-337.53 1761.64,-327.01 1756.09,-336.03 1762.93,-337.53"/>
</g>
</g>
</svg>
        <g id="navigator" transform="translate(0 0)" fill="#404254">
                <rect fill="#f2f5e9" fill-opacity="0.5" stroke="#606060" stroke-width=".5" x="0" y="0" width="60" height="60"/>
                <use id="zoomplus" xlink:href="#zoomPlus" x="17" y="9" onmousedown="handleZoom(evt,'in')"/>
                <use id="zoomminus" xlink:href="#zoomMin" x="42" y="9" onmousedown="handleZoom(evt,'out')"/>
                <use id="reset" xlink:href="#resetDef" x="30" y="36" onmousedown="handleReset()"/>
                <g id="arrowUp" xlink:href="#dirArrow" transform="translate(30 24)" onmousedown="handlePan(0,-1)">
                  <use xlink:href="#rim" fill="#404040">
                        <set attributeName="fill" to="#808080" begin="arrowUp.mouseover" end="arrowUp.mouseout"/>
                  </use>
                  <path fill="none" stroke="white" stroke-width="1.5" d="M0,-3.0v7 M-2.5,-0.5L0,-3.0L2.5,-0.5"/>
                </g>
                <g id="arrowRight" xlink:href="#dirArrow" transform="rotate(90) translate(36 -43)" onmousedown="handlePan(1,0)">
                  <use xlink:href="#rim" fill="#404040">
                        <set attributeName="fill" to="#808080" begin="arrowRight.mouseover" end="arrowRight.mouseout"/>
                  </use>
                  <path fill="none" stroke="white" stroke-width="1.5" d="M0,-3.0v7 M-2.5,-0.5L0,-3.0L2.5,-0.5"/>
                </g>
                <g id="arrowDown" xlink:href="#dirArrow" transform="rotate(180) translate(-30 -48)" onmousedown="handlePan(0,1)">
                  <use xlink:href="#rim" fill="#404040">
                        <set attributeName="fill" to="#808080" begin="arrowDown.mouseover" end="arrowDown.mouseout"/>
                  </use>
                  <path fill="none" stroke="white" stroke-width="1.5" d="M0,-3.0v7 M-2.5,-0.5L0,-3.0L2.5,-0.5"/>
                </g>
                <g id="arrowLeft" xlink:href="#dirArrow" transform="rotate(270) translate(-36 17)" onmousedown="handlePan(-1,0)">
                  <use xlink:href="#rim" fill="#404040">
                        <set attributeName="fill" to="#808080" begin="arrowLeft.mouseover" end="arrowLeft.mouseout"/>
                  </use>
                  <path fill="none" stroke="white" stroke-width="1.5" d="M0,-3.0v7 M-2.5,-0.5L0,-3.0L2.5,-0.5"/>
                </g>
        </g>
        <svg viewBox="0 0 15 15" width="100%" height="30px" preserveAspectRatio="xMaxYMin meet">
         <g id="arrow_out" transform="scale(0.3 0.3)">
          <a xlink:href="ValToPredicate_8h__incl_org.svg" target="_base">
           <rect id="button" ry="5" rx="5" y="6" x="6" height="38" width="38"
                fill="#f2f5e9" fill-opacity="0.5" stroke="#606060" stroke-width="1.0"/>
           <path id="arrow"
             d="M 11.500037,31.436501 C 11.940474,20.09759 22.043105,11.32322 32.158766,21.979434 L 37.068811,17.246167 C 37.068811,17.246167 37.088388,32 37.088388,32 L 22.160133,31.978069 C 22.160133,31.978069 26.997745,27.140456 26.997745,27.140456 C 18.528582,18.264221 13.291696,25.230495 11.500037,31.436501 z"
             style="fill:#404040;"/>
          </a>
         </g>
        </svg>
</svg>
