<?xml version="1.0" encoding="UTF-8" standalone="no"?>
<!DOCTYPE svg PUBLIC "-//W3C//DTD SVG 1.1//EN"
 "http://www.w3.org/Graphics/SVG/1.1/DTD/svg11.dtd">
<!-- Generated by graphviz version 2.43.0 (0)
 -->
<!-- Title: joda::query::NegatePredicate Pages: 1 -->
<svg width="343pt" height="308pt"
 viewBox="0.00 0.00 343.00 308.00" xmlns="http://www.w3.org/2000/svg" xmlns:xlink="http://www.w3.org/1999/xlink">
<g id="graph0" class="graph" transform="scale(1 1) rotate(0) translate(4 304)">
<title>joda::query::NegatePredicate</title>
<polygon fill="white" stroke="transparent" points="-4,4 -4,-304 339,-304 339,4 -4,4"/>
<!-- Node1 -->
<g id="node1" class="node">
<title>Node1</title>
<g id="a_node1"><a xlink:title=" ">
<polygon fill="#bfbfbf" stroke="black" points="177,-0.5 177,-19.5 335,-19.5 335,-0.5 177,-0.5"/>
<text text-anchor="middle" x="256" y="-7.5" font-family="Helvetica,sans-Serif" font-size="10.00">joda::query::NegatePredicate</text>
</a>
</g>
</g>
<!-- Node2 -->
<g id="node2" class="node">
<title>Node2</title>
<g id="a_node2"><a xlink:href="../../dc/d49/classjoda_1_1query_1_1Predicate.html" target="_top" xlink:title=" ">
<polygon fill="white" stroke="black" points="153,-145.5 153,-164.5 275,-164.5 275,-145.5 153,-145.5"/>
<text text-anchor="middle" x="214" y="-152.5" font-family="Helvetica,sans-Serif" font-size="10.00">joda::query::Predicate</text>
</a>
</g>
</g>
<!-- Node2&#45;&gt;Node1 -->
<g id="edge1" class="edge">
<title>Node2&#45;&gt;Node1</title>
<path fill="none" stroke="midnightblue" d="M222.24,-136.22C227.03,-125.36 232.92,-111.08 237,-98 245.79,-69.81 252.04,-35.26 254.65,-19.53"/>
<polygon fill="midnightblue" stroke="midnightblue" points="219,-134.89 218.07,-145.44 225.38,-137.77 219,-134.89"/>
</g>
<!-- Node5 -->
<g id="node5" class="node">
<title>Node5</title>
<g id="a_node5"><a xlink:title=" ">
<polygon fill="white" stroke="#bfbfbf" points="106,-67.5 106,-97.5 228,-97.5 228,-67.5 106,-67.5"/>
<text text-anchor="start" x="114" y="-85.5" font-family="Helvetica,sans-Serif" font-size="10.00">std::unique_ptr&lt; joda</text>
<text text-anchor="middle" x="167" y="-74.5" font-family="Helvetica,sans-Serif" font-size="10.00">::query::Predicate &gt;</text>
</a>
</g>
</g>
<!-- Node2&#45;&gt;Node5 -->
<g id="edge5" class="edge">
<title>Node2&#45;&gt;Node5</title>
<path fill="none" stroke="#9a32cd" stroke-dasharray="5,2" d="M204.55,-136.58C200.83,-130.02 196.39,-122.55 192,-116 187.88,-109.85 182.98,-103.33 178.62,-97.76"/>
<polygon fill="#9a32cd" stroke="#9a32cd" points="201.51,-138.31 209.42,-145.35 207.63,-134.91 201.51,-138.31"/>
<text text-anchor="middle" x="206.5" y="-119" font-family="Helvetica,sans-Serif" font-size="10.00"> ptr</text>
</g>
<!-- Node3 -->
<g id="node3" class="node">
<title>Node3</title>
<g id="a_node3"><a xlink:title="STL class.">
<polygon fill="white" stroke="#bfbfbf" points="226.5,-212.5 226.5,-231.5 291.5,-231.5 291.5,-212.5 226.5,-212.5"/>
<text text-anchor="middle" x="259" y="-219.5" font-family="Helvetica,sans-Serif" font-size="10.00">std::string</text>
</a>
</g>
</g>
<!-- Node3&#45;&gt;Node1 -->
<g id="edge8" class="edge">
<title>Node3&#45;&gt;Node1</title>
<path fill="none" stroke="#9a32cd" stroke-dasharray="5,2" d="M269.26,-203.2C274.83,-192.51 281.14,-178.42 284,-165 295.72,-109.98 270.18,-43.25 259.97,-19.72"/>
<polygon fill="#9a32cd" stroke="#9a32cd" points="266.03,-201.83 264.29,-212.28 272.16,-205.19 266.03,-201.83"/>
<text text-anchor="middle" x="298.5" y="-119" font-family="Helvetica,sans-Serif" font-size="10.00"> type</text>
</g>
<!-- Node3&#45;&gt;Node2 -->
<g id="edge2" class="edge">
<title>Node3&#45;&gt;Node2</title>
<path fill="none" stroke="#9a32cd" stroke-dasharray="5,2" d="M247.16,-203.9C238.42,-191.27 226.88,-174.6 219.97,-164.63"/>
<polygon fill="#9a32cd" stroke="#9a32cd" points="244.36,-206 252.93,-212.23 250.12,-202.02 244.36,-206"/>
<text text-anchor="middle" x="251.5" y="-186" font-family="Helvetica,sans-Serif" font-size="10.00"> type</text>
</g>
<!-- Node4 -->
<g id="node4" class="node">
<title>Node4</title>
<g id="a_node4"><a xlink:title="STL class.">
<polygon fill="white" stroke="#bfbfbf" points="207,-269.5 207,-299.5 311,-299.5 311,-269.5 207,-269.5"/>
<text text-anchor="start" x="215" y="-287.5" font-family="Helvetica,sans-Serif" font-size="10.00">std::basic_string&lt;</text>
<text text-anchor="middle" x="259" y="-276.5" font-family="Helvetica,sans-Serif" font-size="10.00"> char &gt;</text>
</a>
</g>
</g>
<!-- Node4&#45;&gt;Node3 -->
<g id="edge3" class="edge">
<title>Node4&#45;&gt;Node3</title>
<path fill="none" stroke="midnightblue" d="M259,-259.35C259,-249.51 259,-238.78 259,-231.54"/>
<polygon fill="midnightblue" stroke="midnightblue" points="255.5,-259.47 259,-269.47 262.5,-259.47 255.5,-259.47"/>
</g>
<!-- Node5&#45;&gt;Node1 -->
<g id="edge4" class="edge">
<title>Node5&#45;&gt;Node1</title>
<path fill="none" stroke="#9a32cd" stroke-dasharray="5,2" d="M189.94,-60.6C198.29,-53.25 207.91,-45.06 217,-38 225.32,-31.53 235.07,-24.78 242.74,-19.65"/>
<polygon fill="#9a32cd" stroke="#9a32cd" points="187.53,-58.07 182.39,-67.33 192.18,-63.29 187.53,-58.07"/>
<text text-anchor="middle" x="229.5" y="-41" font-family="Helvetica,sans-Serif" font-size="10.00"> pred</text>
</g>
<!-- Node6 -->
<g id="node6" class="node">
<title>Node6</title>
<g id="a_node6"><a xlink:title="STL class.">
<polygon fill="white" stroke="#bfbfbf" points="0,-145.5 0,-164.5 118,-164.5 118,-145.5 0,-145.5"/>
<text text-anchor="middle" x="59" y="-152.5" font-family="Helvetica,sans-Serif" font-size="10.00">std::unique_ptr&lt; T &gt;</text>
</a>
</g>
</g>
<!-- Node6&#45;&gt;Node5 -->
<g id="edge6" class="edge">
<title>Node6&#45;&gt;Node5</title>
<path fill="none" stroke="orange" stroke-dasharray="5,2" d="M52.71,-135.48C51.6,-128.77 51.89,-121.49 56,-116 67.8,-100.25 86.83,-91.8 105.83,-87.36"/>
<polygon fill="orange" stroke="orange" points="49.34,-136.45 55.26,-145.24 56.12,-134.68 49.34,-136.45"/>
<text text-anchor="middle" x="122" y="-119" font-family="Helvetica,sans-Serif" font-size="10.00"> &lt; joda::query::Predicate &gt;</text>
</g>
<!-- Node7 -->
<g id="node7" class="node">
<title>Node7</title>
<g id="a_node7"><a xlink:title=" ">
<polygon fill="white" stroke="#bfbfbf" points="44.5,-212.5 44.5,-231.5 73.5,-231.5 73.5,-212.5 44.5,-212.5"/>
<text text-anchor="middle" x="59" y="-219.5" font-family="Helvetica,sans-Serif" font-size="10.00">T</text>
</a>
</g>
</g>
<!-- Node7&#45;&gt;Node6 -->
<g id="edge7" class="edge">
<title>Node7&#45;&gt;Node6</title>
<path fill="none" stroke="#9a32cd" stroke-dasharray="5,2" d="M59,-202.04C59,-189.67 59,-174.12 59,-164.63"/>
<polygon fill="#9a32cd" stroke="#9a32cd" points="55.5,-202.23 59,-212.23 62.5,-202.23 55.5,-202.23"/>
<text text-anchor="middle" x="67.5" y="-186" font-family="Helvetica,sans-Serif" font-size="10.00"> ptr</text>
</g>
</g>
</svg>
