<?xml version="1.0" encoding="UTF-8" standalone="no"?>
<!DOCTYPE svg PUBLIC "-//W3C//DTD SVG 1.1//EN"
 "http://www.w3.org/Graphics/SVG/1.1/DTD/svg11.dtd">
<!-- Generated by graphviz version 2.43.0 (0)
 -->
<!-- Title: joda::query::AttributeStatAggregator Pages: 1 -->
<svg width="1323pt" height="164pt"
 viewBox="0.00 0.00 1323.00 164.00" xmlns="http://www.w3.org/2000/svg" xmlns:xlink="http://www.w3.org/1999/xlink">
<g id="graph0" class="graph" transform="scale(1 1) rotate(0) translate(4 160)">
<title>joda::query::AttributeStatAggregator</title>
<polygon fill="white" stroke="transparent" points="-4,4 -4,-160 1319,-160 1319,4 -4,4"/>
<!-- Node1 -->
<g id="node1" class="node">
<title>Node1</title>
<g id="a_node1"><a xlink:title=" ">
<polygon fill="#bfbfbf" stroke="black" points="1176,-13.5 1176,-43.5 1315,-43.5 1315,-13.5 1176,-13.5"/>
<text text-anchor="start" x="1184" y="-31.5" font-family="Helvetica,sans-Serif" font-size="10.00">joda::query::AttributeStat</text>
<text text-anchor="middle" x="1245.5" y="-20.5" font-family="Helvetica,sans-Serif" font-size="10.00">Aggregator</text>
</a>
</g>
</g>
<!-- Node2 -->
<g id="node2" class="node">
<title>Node2</title>
<g id="a_node2"><a xlink:href="../../d0/d07/classjoda_1_1query_1_1IAggregator.html" target="_top" xlink:title=" ">
<polygon fill="white" stroke="black" points="958.5,-50 958.5,-69 1092.5,-69 1092.5,-50 958.5,-50"/>
<text text-anchor="middle" x="1025.5" y="-57" font-family="Helvetica,sans-Serif" font-size="10.00">joda::query::IAggregator</text>
</a>
</g>
</g>
<!-- Node2&#45;&gt;Node1 -->
<g id="edge1" class="edge">
<title>Node2&#45;&gt;Node1</title>
<path fill="none" stroke="midnightblue" d="M1102.83,-48.65C1126.61,-45.26 1152.67,-41.56 1175.88,-38.26"/>
<polygon fill="midnightblue" stroke="midnightblue" points="1102.2,-45.2 1092.8,-50.07 1103.19,-52.13 1102.2,-45.2"/>
</g>
<!-- Node3 -->
<g id="node3" class="node">
<title>Node3</title>
<g id="a_node3"><a xlink:title=" ">
<polygon fill="white" stroke="#bfbfbf" points="667,-69.5 667,-99.5 867,-99.5 867,-69.5 667,-69.5"/>
<text text-anchor="start" x="675" y="-87.5" font-family="Helvetica,sans-Serif" font-size="10.00">std::vector&lt; std::unique</text>
<text text-anchor="middle" x="767" y="-76.5" font-family="Helvetica,sans-Serif" font-size="10.00">_ptr&lt; joda::query::IValueProvider &gt; &gt;</text>
</a>
</g>
</g>
<!-- Node3&#45;&gt;Node2 -->
<g id="edge2" class="edge">
<title>Node3&#45;&gt;Node2</title>
<path fill="none" stroke="#9a32cd" stroke-dasharray="5,2" d="M877.28,-73.85C904.9,-71.16 933.72,-68.35 958.46,-65.94"/>
<polygon fill="#9a32cd" stroke="#9a32cd" points="876.78,-70.38 867.17,-74.83 877.46,-77.35 876.78,-70.38"/>
<text text-anchor="middle" x="909" y="-75.5" font-family="Helvetica,sans-Serif" font-size="10.00"> params</text>
</g>
<!-- Node4 -->
<g id="node4" class="node">
<title>Node4</title>
<g id="a_node4"><a xlink:title=" ">
<polygon fill="white" stroke="#bfbfbf" points="435,-125.5 435,-155.5 572,-155.5 572,-125.5 435,-125.5"/>
<text text-anchor="start" x="443" y="-143.5" font-family="Helvetica,sans-Serif" font-size="10.00">std::unique_ptr&lt; joda</text>
<text text-anchor="middle" x="503.5" y="-132.5" font-family="Helvetica,sans-Serif" font-size="10.00">::query::IValueProvider &gt;</text>
</a>
</g>
</g>
<!-- Node4&#45;&gt;Node3 -->
<g id="edge3" class="edge">
<title>Node4&#45;&gt;Node3</title>
<path fill="none" stroke="#9a32cd" stroke-dasharray="5,2" d="M582.17,-123.87C618.23,-116.14 660.79,-107.03 695.86,-99.52"/>
<polygon fill="#9a32cd" stroke="#9a32cd" points="581.23,-120.49 572.18,-126.01 582.69,-127.33 581.23,-120.49"/>
<text text-anchor="middle" x="624.5" y="-121.5" font-family="Helvetica,sans-Serif" font-size="10.00"> elements</text>
</g>
<!-- Node5 -->
<g id="node5" class="node">
<title>Node5</title>
<g id="a_node5"><a xlink:title=" ">
<polygon fill="white" stroke="#bfbfbf" points="114,-128 114,-147 232,-147 232,-128 114,-128"/>
<text text-anchor="middle" x="173" y="-135" font-family="Helvetica,sans-Serif" font-size="10.00">std::unique_ptr&lt; T &gt;</text>
</a>
</g>
</g>
<!-- Node5&#45;&gt;Node4 -->
<g id="edge4" class="edge">
<title>Node5&#45;&gt;Node4</title>
<path fill="none" stroke="orange" stroke-dasharray="5,2" d="M242.61,-138.13C299.04,-138.64 378.58,-139.37 434.77,-139.88"/>
<polygon fill="orange" stroke="orange" points="242.38,-134.62 232.35,-138.03 242.32,-141.62 242.38,-134.62"/>
<text text-anchor="middle" x="328.5" y="-142.5" font-family="Helvetica,sans-Serif" font-size="10.00"> &lt; joda::query::IValueProvider &gt;</text>
</g>
<!-- Node6 -->
<g id="node6" class="node">
<title>Node6</title>
<g id="a_node6"><a xlink:title=" ">
<polygon fill="white" stroke="#bfbfbf" points="0,-105 0,-124 29,-124 29,-105 0,-105"/>
<text text-anchor="middle" x="14.5" y="-112" font-family="Helvetica,sans-Serif" font-size="10.00">T</text>
</a>
</g>
</g>
<!-- Node6&#45;&gt;Node5 -->
<g id="edge5" class="edge">
<title>Node6&#45;&gt;Node5</title>
<path fill="none" stroke="#9a32cd" stroke-dasharray="5,2" d="M39.05,-117.96C58.79,-120.86 87.84,-125.13 113.75,-128.94"/>
<polygon fill="#9a32cd" stroke="#9a32cd" points="39.52,-114.49 29.11,-116.5 38.5,-121.42 39.52,-114.49"/>
<text text-anchor="middle" x="71.5" y="-128.5" font-family="Helvetica,sans-Serif" font-size="10.00"> ptr</text>
</g>
<!-- Node7 -->
<g id="node7" class="node">
<title>Node7</title>
<g id="a_node7"><a xlink:title=" ">
<polygon fill="white" stroke="#bfbfbf" points="280,-84 280,-103 377,-103 377,-84 280,-84"/>
<text text-anchor="middle" x="328.5" y="-91" font-family="Helvetica,sans-Serif" font-size="10.00">std::vector&lt; T &gt;</text>
</a>
</g>
</g>
<!-- Node6&#45;&gt;Node7 -->
<g id="edge7" class="edge">
<title>Node6&#45;&gt;Node7</title>
<path fill="none" stroke="#9a32cd" stroke-dasharray="5,2" d="M38.68,-105.53C41.45,-104.72 44.27,-104.01 47,-103.5 127.69,-88.33 223.68,-88.8 279.87,-90.89"/>
<polygon fill="#9a32cd" stroke="#9a32cd" points="37.42,-102.26 29.06,-108.76 39.65,-108.9 37.42,-102.26"/>
<text text-anchor="middle" x="71.5" y="-106.5" font-family="Helvetica,sans-Serif" font-size="10.00"> elements</text>
</g>
<!-- Node7&#45;&gt;Node3 -->
<g id="edge6" class="edge">
<title>Node7&#45;&gt;Node3</title>
<path fill="none" stroke="orange" stroke-dasharray="5,2" d="M387.16,-92.31C458.3,-90.84 580.41,-88.33 666.74,-86.55"/>
<polygon fill="orange" stroke="orange" points="386.97,-88.81 377.04,-92.52 387.11,-95.81 386.97,-88.81"/>
<text text-anchor="start" x="425" y="-104.5" font-family="Helvetica,sans-Serif" font-size="10.00"> &lt; std::unique_ptr&lt;</text>
<text text-anchor="middle" x="503.5" y="-93.5" font-family="Helvetica,sans-Serif" font-size="10.00"> joda::query::IValueProvider &gt; &gt;</text>
</g>
<!-- Node8 -->
<g id="node8" class="node">
<title>Node8</title>
<g id="a_node8"><a xlink:title=" ">
<polygon fill="white" stroke="#bfbfbf" points="734.5,-27 734.5,-46 799.5,-46 799.5,-27 734.5,-27"/>
<text text-anchor="middle" x="767" y="-34" font-family="Helvetica,sans-Serif" font-size="10.00">std::string</text>
</a>
</g>
</g>
<!-- Node8&#45;&gt;Node2 -->
<g id="edge8" class="edge">
<title>Node8&#45;&gt;Node2</title>
<path fill="none" stroke="#9a32cd" stroke-dasharray="5,2" d="M810.03,-37.22C843.43,-38.1 891.31,-40.09 933,-44.5 945.97,-45.87 959.89,-47.88 972.86,-49.98"/>
<polygon fill="#9a32cd" stroke="#9a32cd" points="809.8,-33.71 799.71,-36.97 809.63,-40.71 809.8,-33.71"/>
<text text-anchor="middle" x="909" y="-47.5" font-family="Helvetica,sans-Serif" font-size="10.00"> toPointer</text>
</g>
<!-- Node9 -->
<g id="node9" class="node">
<title>Node9</title>
<g id="a_node9"><a xlink:title=" ">
<polygon fill="white" stroke="#bfbfbf" points="451.5,-17.5 451.5,-47.5 555.5,-47.5 555.5,-17.5 451.5,-17.5"/>
<text text-anchor="start" x="459.5" y="-35.5" font-family="Helvetica,sans-Serif" font-size="10.00">std::basic_string&lt;</text>
<text text-anchor="middle" x="503.5" y="-24.5" font-family="Helvetica,sans-Serif" font-size="10.00"> Char &gt;</text>
</a>
</g>
</g>
<!-- Node9&#45;&gt;Node8 -->
<g id="edge9" class="edge">
<title>Node9&#45;&gt;Node8</title>
<path fill="none" stroke="midnightblue" d="M565.81,-33.44C618.63,-34.25 692.77,-35.38 734.4,-36.02"/>
<polygon fill="midnightblue" stroke="midnightblue" points="565.59,-29.93 555.54,-33.28 565.49,-36.93 565.59,-29.93"/>
</g>
<!-- Node10 -->
<g id="node10" class="node">
<title>Node10</title>
<g id="a_node10"><a xlink:href="../../d7/da6/classjoda_1_1query_1_1AttributeStatAggregator_1_1AttStatHandler.html" target="_top" xlink:title=" ">
<polygon fill="white" stroke="black" points="951,-0.5 951,-30.5 1100,-30.5 1100,-0.5 951,-0.5"/>
<text text-anchor="start" x="959" y="-18.5" font-family="Helvetica,sans-Serif" font-size="10.00">joda::query::AttributeStat</text>
<text text-anchor="middle" x="1025.5" y="-7.5" font-family="Helvetica,sans-Serif" font-size="10.00">Aggregator::AttStatHandler</text>
</a>
</g>
</g>
<!-- Node10&#45;&gt;Node1 -->
<g id="edge10" class="edge">
<title>Node10&#45;&gt;Node1</title>
<path fill="none" stroke="#9a32cd" stroke-dasharray="5,2" d="M1110.17,-20.49C1131.84,-21.78 1154.93,-23.16 1175.73,-24.4"/>
<polygon fill="#9a32cd" stroke="#9a32cd" points="1110.19,-16.98 1100,-19.88 1109.77,-23.97 1110.19,-16.98"/>
<text text-anchor="middle" x="1138" y="-26.5" font-family="Helvetica,sans-Serif" font-size="10.00"> handler</text>
</g>
</g>
</svg>
