<?xml version="1.0" encoding="UTF-8" standalone="no"?>
<!DOCTYPE svg PUBLIC "-//W3C//DTD SVG 1.1//EN"
 "http://www.w3.org/Graphics/SVG/1.1/DTD/svg11.dtd">
<!-- Generated by graphviz version 2.43.0 (0)
 -->
<!-- Title: joda::query::ValueAccepter::getPointerIfExists Pages: 1 -->
<!--zoomable 235 -->
<svg id="main" version="1.1" xmlns="http://www.w3.org/2000/svg" xmlns:xlink="http://www.w3.org/1999/xlink" xml:space="preserve" onload="init(evt)">
<style type="text/css"><![CDATA[
.edge:hover path { stroke: red; }
.edge:hover polygon { stroke: red; fill: red; }
]]></style>
<script type="text/javascript"><![CDATA[
var edges = document.getElementsByTagName('g');
if (edges && edges.length) {
  for (var i=0;i<edges.length;i++) {
    if (edges[i].id.substr(0,4)=='edge') {
      edges[i].setAttribute('class','edge');
    }
  }
}
]]></script>
        <defs>
                <circle id="rim" cx="0" cy="0" r="7"/>
                <circle id="rim2" cx="0" cy="0" r="3.5"/>
                <g id="zoomPlus">
                        <use xlink:href="#rim" fill="#404040">
                                <set attributeName="fill" to="#808080" begin="zoomplus.mouseover" end="zoomplus.mouseout"/>
                        </use>
                        <path d="M-4,0h8M0,-4v8" fill="none" stroke="white" stroke-width="1.5" pointer-events="none"/>
                </g>
                <g id="zoomMin">
                        <use xlink:href="#rim" fill="#404040">
                                <set attributeName="fill" to="#808080" begin="zoomminus.mouseover" end="zoomminus.mouseout"/>
                        </use>
                        <path d="M-4,0h8" fill="none" stroke="white" stroke-width="1.5" pointer-events="none"/>
                </g>
                <g id="dirArrow">
                        <path fill="none" stroke="white" stroke-width="1.5" d="M0,-3.0v7 M-2.5,-0.5L0,-3.0L2.5,-0.5"/>
                </g>
               <g id="resetDef">
                       <use xlink:href="#rim2" fill="#404040">
                               <set attributeName="fill" to="#808080" begin="reset.mouseover" end="reset.mouseout"/>
                       </use>
               </g>
        </defs>

<script type="text/javascript">
var viewWidth = 708;
var viewHeight = 235;
var sectionId = 'dynsection-8';
</script>
<script xlink:href="../../svgpan.js"/>
<svg id="graph" class="graph">
<g id="viewport">
<title>joda::query::ValueAccepter::getPointerIfExists</title>
<polygon fill="white" stroke="transparent" points="-4,4 -4,-231 704,-231 704,4 -4,4"/>
<!-- Node1 -->
<g id="node1" class="node">
<title>Node1</title>
<g id="a_node1"><a xlink:title=" ">
<polygon fill="#bfbfbf" stroke="black" points="0,-122.5 0,-152.5 146,-152.5 146,-122.5 0,-122.5"/>
<text text-anchor="start" x="8" y="-140.5" font-family="Helvetica,sans-Serif" font-size="10.00">joda::query::ValueAccepter</text>
<text text-anchor="middle" x="73" y="-129.5" font-family="Helvetica,sans-Serif" font-size="10.00">::getPointerIfExists</text>
</a>
</g>
</g>
<!-- Node2 -->
<g id="node2" class="node">
<title>Node2</title>
<g id="a_node2"><a xlink:href="../../d4/df5/classjoda_1_1query_1_1IValueProvider.html#a80a3903341583c4ebdc90bcbfbe2a33f" target="_top" xlink:title=" ">
<polygon fill="white" stroke="black" points="184.5,-196.5 184.5,-226.5 331.5,-226.5 331.5,-196.5 184.5,-196.5"/>
<text text-anchor="start" x="192.5" y="-214.5" font-family="Helvetica,sans-Serif" font-size="10.00">joda::query::IValueProvider</text>
<text text-anchor="middle" x="258" y="-203.5" font-family="Helvetica,sans-Serif" font-size="10.00">::getAtomValue</text>
</a>
</g>
</g>
<!-- Node1&#45;&gt;Node2 -->
<g id="edge1" class="edge">
<title>Node1&#45;&gt;Node2</title>
<path fill="none" stroke="midnightblue" d="M103.83,-152.52C125.28,-163.03 155.05,-177 182,-187.5 187.02,-189.45 192.26,-191.38 197.55,-193.23"/>
<polygon fill="midnightblue" stroke="midnightblue" points="196.48,-196.56 207.07,-196.48 198.74,-189.94 196.48,-196.56"/>
</g>
<!-- Node3 -->
<g id="node3" class="node">
<title>Node3</title>
<g id="a_node3"><a xlink:href="../../df/d90/classjoda_1_1query_1_1PointerProvider.html#ad313d9abba2f17d8c02e31823cb8cba8" target="_top" xlink:title=" ">
<polygon fill="white" stroke="black" points="182,-147.5 182,-177.5 334,-177.5 334,-147.5 182,-147.5"/>
<text text-anchor="start" x="190" y="-165.5" font-family="Helvetica,sans-Serif" font-size="10.00">joda::query::PointerProvider</text>
<text text-anchor="middle" x="258" y="-154.5" font-family="Helvetica,sans-Serif" font-size="10.00">::getPointerIfExists</text>
</a>
</g>
</g>
<!-- Node1&#45;&gt;Node3 -->
<g id="edge2" class="edge">
<title>Node1&#45;&gt;Node3</title>
<path fill="none" stroke="midnightblue" d="M146.06,-147.34C154.55,-148.5 163.26,-149.69 171.9,-150.87"/>
<polygon fill="midnightblue" stroke="midnightblue" points="171.61,-154.37 181.99,-152.25 172.56,-147.43 171.61,-154.37"/>
</g>
<!-- Node6 -->
<g id="node6" class="node">
<title>Node6</title>
<g id="a_node6"><a xlink:href="../../d4/df5/classjoda_1_1query_1_1IValueProvider.html#ad3d4d9768cd365cefc3f35f40efc3929" target="_top" xlink:title=" ">
<polygon fill="white" stroke="black" points="184.5,-98.5 184.5,-128.5 331.5,-128.5 331.5,-98.5 184.5,-98.5"/>
<text text-anchor="start" x="192.5" y="-116.5" font-family="Helvetica,sans-Serif" font-size="10.00">joda::query::IValueProvider</text>
<text text-anchor="middle" x="258" y="-105.5" font-family="Helvetica,sans-Serif" font-size="10.00">::getValue</text>
</a>
</g>
</g>
<!-- Node1&#45;&gt;Node6 -->
<g id="edge5" class="edge">
<title>Node1&#45;&gt;Node6</title>
<path fill="none" stroke="midnightblue" d="M146.06,-128.05C155.32,-126.84 164.85,-125.59 174.26,-124.35"/>
<polygon fill="midnightblue" stroke="midnightblue" points="174.94,-127.79 184.4,-123.02 174.03,-120.85 174.94,-127.79"/>
</g>
<!-- Node7 -->
<g id="node7" class="node">
<title>Node7</title>
<g id="a_node7"><a xlink:href="../../d4/df5/classjoda_1_1query_1_1IValueProvider.html#a2be55dc72b74ef1961453ab9d79fc121" target="_top" xlink:title=" ">
<polygon fill="white" stroke="black" points="184.5,-49.5 184.5,-79.5 331.5,-79.5 331.5,-49.5 184.5,-49.5"/>
<text text-anchor="start" x="192.5" y="-67.5" font-family="Helvetica,sans-Serif" font-size="10.00">joda::query::IValueProvider</text>
<text text-anchor="middle" x="258" y="-56.5" font-family="Helvetica,sans-Serif" font-size="10.00">::isAtom</text>
</a>
</g>
</g>
<!-- Node1&#45;&gt;Node7 -->
<g id="edge6" class="edge">
<title>Node1&#45;&gt;Node7</title>
<path fill="none" stroke="midnightblue" d="M105.79,-122.4C127.13,-112.51 155.98,-99.59 182,-89.5 187.79,-87.25 193.89,-85.02 199.99,-82.86"/>
<polygon fill="midnightblue" stroke="midnightblue" points="201.24,-86.13 209.54,-79.55 198.95,-79.52 201.24,-86.13"/>
</g>
<!-- Node4 -->
<g id="node4" class="node">
<title>Node4</title>
<g id="a_node4"><a xlink:href="../../d7/d4e/classRapidJsonDocument.html#a7afb8f0d2a5b03f77e7615ebe9c46816" target="_top" xlink:title=" ">
<polygon fill="white" stroke="black" points="383,-196.5 383,-226.5 504,-226.5 504,-196.5 383,-196.5"/>
<text text-anchor="start" x="391" y="-214.5" font-family="Helvetica,sans-Serif" font-size="10.00">RapidJsonDocument::</text>
<text text-anchor="middle" x="443.5" y="-203.5" font-family="Helvetica,sans-Serif" font-size="10.00">getView</text>
</a>
</g>
</g>
<!-- Node3&#45;&gt;Node4 -->
<g id="edge3" class="edge">
<title>Node3&#45;&gt;Node4</title>
<path fill="none" stroke="midnightblue" d="M315.3,-177.53C334.68,-182.71 356.55,-188.55 376.61,-193.91"/>
<polygon fill="midnightblue" stroke="midnightblue" points="375.74,-197.3 386.3,-196.49 377.54,-190.53 375.74,-197.3"/>
</g>
<!-- Node5 -->
<g id="node5" class="node">
<title>Node5</title>
<g id="a_node5"><a xlink:href="../../d7/d4e/classRapidJsonDocument.html#a9ac06e03f62b480a5fee67b8663f2f71" target="_top" xlink:title=" ">
<polygon fill="white" stroke="black" points="383,-147.5 383,-177.5 504,-177.5 504,-147.5 383,-147.5"/>
<text text-anchor="start" x="391" y="-165.5" font-family="Helvetica,sans-Serif" font-size="10.00">RapidJsonDocument::</text>
<text text-anchor="middle" x="443.5" y="-154.5" font-family="Helvetica,sans-Serif" font-size="10.00">isView</text>
</a>
</g>
</g>
<!-- Node3&#45;&gt;Node5 -->
<g id="edge4" class="edge">
<title>Node3&#45;&gt;Node5</title>
<path fill="none" stroke="midnightblue" d="M334.17,-162.5C346.97,-162.5 360.23,-162.5 372.88,-162.5"/>
<polygon fill="midnightblue" stroke="midnightblue" points="372.89,-166 382.89,-162.5 372.89,-159 372.89,-166"/>
</g>
<!-- Node8 -->
<g id="node8" class="node">
<title>Node8</title>
<g id="a_node8"><a xlink:href="../../d4/df5/classjoda_1_1query_1_1IValueProvider.html#a76d7b247bd53ae37ccd91f8780d4962b" target="_top" xlink:title=" ">
<polygon fill="white" stroke="black" points="370,-98.5 370,-128.5 517,-128.5 517,-98.5 370,-98.5"/>
<text text-anchor="start" x="378" y="-116.5" font-family="Helvetica,sans-Serif" font-size="10.00">joda::query::IValueProvider</text>
<text text-anchor="middle" x="443.5" y="-105.5" font-family="Helvetica,sans-Serif" font-size="10.00">::isBool</text>
</a>
</g>
</g>
<!-- Node7&#45;&gt;Node8 -->
<g id="edge7" class="edge">
<title>Node7&#45;&gt;Node8</title>
<path fill="none" stroke="midnightblue" d="M315.3,-79.53C334.68,-84.71 356.55,-90.55 376.61,-95.91"/>
<polygon fill="midnightblue" stroke="midnightblue" points="375.74,-99.3 386.3,-98.49 377.54,-92.53 375.74,-99.3"/>
</g>
<!-- Node10 -->
<g id="node10" class="node">
<title>Node10</title>
<g id="a_node10"><a xlink:href="../../d4/df5/classjoda_1_1query_1_1IValueProvider.html#ad7a62a3523b14ac2c46165520cac2901" target="_top" xlink:title=" ">
<polygon fill="white" stroke="black" points="370,-49.5 370,-79.5 517,-79.5 517,-49.5 370,-49.5"/>
<text text-anchor="start" x="378" y="-67.5" font-family="Helvetica,sans-Serif" font-size="10.00">joda::query::IValueProvider</text>
<text text-anchor="middle" x="443.5" y="-56.5" font-family="Helvetica,sans-Serif" font-size="10.00">::isNumber</text>
</a>
</g>
</g>
<!-- Node7&#45;&gt;Node10 -->
<g id="edge9" class="edge">
<title>Node7&#45;&gt;Node10</title>
<path fill="none" stroke="midnightblue" d="M331.52,-64.5C340.79,-64.5 350.34,-64.5 359.75,-64.5"/>
<polygon fill="midnightblue" stroke="midnightblue" points="359.9,-68 369.9,-64.5 359.9,-61 359.9,-68"/>
</g>
<!-- Node11 -->
<g id="node11" class="node">
<title>Node11</title>
<g id="a_node11"><a xlink:href="../../d4/df5/classjoda_1_1query_1_1IValueProvider.html#ade80632b99c01d164cd8923e2b70f90e" target="_top" xlink:title=" ">
<polygon fill="white" stroke="black" points="370,-0.5 370,-30.5 517,-30.5 517,-0.5 370,-0.5"/>
<text text-anchor="start" x="378" y="-18.5" font-family="Helvetica,sans-Serif" font-size="10.00">joda::query::IValueProvider</text>
<text text-anchor="middle" x="443.5" y="-7.5" font-family="Helvetica,sans-Serif" font-size="10.00">::isString</text>
</a>
</g>
</g>
<!-- Node7&#45;&gt;Node11 -->
<g id="edge11" class="edge">
<title>Node7&#45;&gt;Node11</title>
<path fill="none" stroke="midnightblue" d="M315.3,-49.47C334.68,-44.29 356.55,-38.45 376.61,-33.09"/>
<polygon fill="midnightblue" stroke="midnightblue" points="377.54,-36.47 386.3,-30.51 375.74,-29.7 377.54,-36.47"/>
</g>
<!-- Node9 -->
<g id="node9" class="node">
<title>Node9</title>
<g id="a_node9"><a xlink:href="../../d4/df5/classjoda_1_1query_1_1IValueProvider.html#a7353bb4809b215603871f5ddaa353285" target="_top" xlink:title=" ">
<polygon fill="white" stroke="black" points="553,-49.5 553,-79.5 700,-79.5 700,-49.5 553,-49.5"/>
<text text-anchor="start" x="561" y="-67.5" font-family="Helvetica,sans-Serif" font-size="10.00">joda::query::IValueProvider</text>
<text text-anchor="middle" x="626.5" y="-56.5" font-family="Helvetica,sans-Serif" font-size="10.00">::getReturnType</text>
</a>
</g>
</g>
<!-- Node8&#45;&gt;Node9 -->
<g id="edge8" class="edge">
<title>Node8&#45;&gt;Node9</title>
<path fill="none" stroke="midnightblue" d="M500.28,-98.4C519.21,-93.27 540.52,-87.5 560.13,-82.2"/>
<polygon fill="midnightblue" stroke="midnightblue" points="561.16,-85.54 569.9,-79.55 559.33,-78.79 561.16,-85.54"/>
</g>
<!-- Node10&#45;&gt;Node9 -->
<g id="edge10" class="edge">
<title>Node10&#45;&gt;Node9</title>
<path fill="none" stroke="midnightblue" d="M517.08,-64.5C525.56,-64.5 534.26,-64.5 542.87,-64.5"/>
<polygon fill="midnightblue" stroke="midnightblue" points="542.91,-68 552.91,-64.5 542.91,-61 542.91,-68"/>
</g>
<!-- Node11&#45;&gt;Node9 -->
<g id="edge12" class="edge">
<title>Node11&#45;&gt;Node9</title>
<path fill="none" stroke="midnightblue" d="M500.28,-30.6C519.21,-35.73 540.52,-41.5 560.13,-46.8"/>
<polygon fill="midnightblue" stroke="midnightblue" points="559.33,-50.21 569.9,-49.45 561.16,-43.46 559.33,-50.21"/>
</g>
</g>
</svg>
        <g id="navigator" transform="translate(0 0)" fill="#404254">
                <rect fill="#f2f5e9" fill-opacity="0.5" stroke="#606060" stroke-width=".5" x="0" y="0" width="60" height="60"/>
                <use id="zoomplus" xlink:href="#zoomPlus" x="17" y="9" onmousedown="handleZoom(evt,'in')"/>
                <use id="zoomminus" xlink:href="#zoomMin" x="42" y="9" onmousedown="handleZoom(evt,'out')"/>
                <use id="reset" xlink:href="#resetDef" x="30" y="36" onmousedown="handleReset()"/>
                <g id="arrowUp" xlink:href="#dirArrow" transform="translate(30 24)" onmousedown="handlePan(0,-1)">
                  <use xlink:href="#rim" fill="#404040">
                        <set attributeName="fill" to="#808080" begin="arrowUp.mouseover" end="arrowUp.mouseout"/>
                  </use>
                  <path fill="none" stroke="white" stroke-width="1.5" d="M0,-3.0v7 M-2.5,-0.5L0,-3.0L2.5,-0.5"/>
                </g>
                <g id="arrowRight" xlink:href="#dirArrow" transform="rotate(90) translate(36 -43)" onmousedown="handlePan(1,0)">
                  <use xlink:href="#rim" fill="#404040">
                        <set attributeName="fill" to="#808080" begin="arrowRight.mouseover" end="arrowRight.mouseout"/>
                  </use>
                  <path fill="none" stroke="white" stroke-width="1.5" d="M0,-3.0v7 M-2.5,-0.5L0,-3.0L2.5,-0.5"/>
                </g>
                <g id="arrowDown" xlink:href="#dirArrow" transform="rotate(180) translate(-30 -48)" onmousedown="handlePan(0,1)">
                  <use xlink:href="#rim" fill="#404040">
                        <set attributeName="fill" to="#808080" begin="arrowDown.mouseover" end="arrowDown.mouseout"/>
                  </use>
                  <path fill="none" stroke="white" stroke-width="1.5" d="M0,-3.0v7 M-2.5,-0.5L0,-3.0L2.5,-0.5"/>
                </g>
                <g id="arrowLeft" xlink:href="#dirArrow" transform="rotate(270) translate(-36 17)" onmousedown="handlePan(-1,0)">
                  <use xlink:href="#rim" fill="#404040">
                        <set attributeName="fill" to="#808080" begin="arrowLeft.mouseover" end="arrowLeft.mouseout"/>
                  </use>
                  <path fill="none" stroke="white" stroke-width="1.5" d="M0,-3.0v7 M-2.5,-0.5L0,-3.0L2.5,-0.5"/>
                </g>
        </g>
        <svg viewBox="0 0 15 15" width="100%" height="30px" preserveAspectRatio="xMaxYMin meet">
         <g id="arrow_out" transform="scale(0.3 0.3)">
          <a xlink:href="classjoda_1_1query_1_1ValueAccepter_adada4b925a6b0750330d66f8745a24e2_cgraph_org.svg" target="_base">
           <rect id="button" ry="5" rx="5" y="6" x="6" height="38" width="38"
                fill="#f2f5e9" fill-opacity="0.5" stroke="#606060" stroke-width="1.0"/>
           <path id="arrow"
             d="M 11.500037,31.436501 C 11.940474,20.09759 22.043105,11.32322 32.158766,21.979434 L 37.068811,17.246167 C 37.068811,17.246167 37.088388,32 37.088388,32 L 22.160133,31.978069 C 22.160133,31.978069 26.997745,27.140456 26.997745,27.140456 C 18.528582,18.264221 13.291696,25.230495 11.500037,31.436501 z"
             style="fill:#404040;"/>
          </a>
         </g>
        </svg>
</svg>
