<?xml version="1.0" encoding="UTF-8" standalone="no"?>
<!DOCTYPE svg PUBLIC "-//W3C//DTD SVG 1.1//EN"
 "http://www.w3.org/Graphics/SVG/1.1/DTD/svg11.dtd">
<!-- Generated by graphviz version 2.43.0 (0)
 -->
<!-- Title: JSONStorage::getDocumentsQueue Pages: 1 -->
<svg width="562pt" height="132pt"
 viewBox="0.00 0.00 562.00 132.00" xmlns="http://www.w3.org/2000/svg" xmlns:xlink="http://www.w3.org/1999/xlink">
<g id="graph0" class="graph" transform="scale(1 1) rotate(0) translate(4 128)">
<title>JSONStorage::getDocumentsQueue</title>
<polygon fill="white" stroke="transparent" points="-4,4 -4,-128 558,-128 558,4 -4,4"/>
<!-- Node1 -->
<g id="node1" class="node">
<title>Node1</title>
<g id="a_node1"><a xlink:title=" ">
<polygon fill="#bfbfbf" stroke="black" points="0,-44.5 0,-74.5 155,-74.5 155,-44.5 0,-44.5"/>
<text text-anchor="start" x="8" y="-62.5" font-family="Helvetica,sans-Serif" font-size="10.00">JSONStorage::getDocuments</text>
<text text-anchor="middle" x="77.5" y="-51.5" font-family="Helvetica,sans-Serif" font-size="10.00">Queue</text>
</a>
</g>
</g>
<!-- Node2 -->
<g id="node2" class="node">
<title>Node2</title>
<g id="a_node2"><a xlink:href="../../d1/d30/structJODA__SHARED__QUEUE.html#a4c0dd6908d84cefcee8e521aa8860ca2" target="_top" xlink:title=" ">
<polygon fill="white" stroke="black" points="202.5,-93.5 202.5,-123.5 335.5,-123.5 335.5,-93.5 202.5,-93.5"/>
<text text-anchor="start" x="210.5" y="-111.5" font-family="Helvetica,sans-Serif" font-size="10.00">JODA_SHARED_QUEUE::</text>
<text text-anchor="middle" x="269" y="-100.5" font-family="Helvetica,sans-Serif" font-size="10.00">producerFinished</text>
</a>
</g>
</g>
<!-- Node1&#45;&gt;Node2 -->
<g id="edge1" class="edge">
<title>Node1&#45;&gt;Node2</title>
<path fill="none" stroke="midnightblue" d="M136.64,-74.53C156.74,-79.73 179.44,-85.6 200.24,-90.98"/>
<polygon fill="midnightblue" stroke="midnightblue" points="199.41,-94.38 209.97,-93.49 201.16,-87.6 199.41,-94.38"/>
</g>
<!-- Node3 -->
<g id="node3" class="node">
<title>Node3</title>
<g id="a_node3"><a xlink:href="../../d1/d30/structJODA__SHARED__QUEUE.html#ad489b30f280a19b7a7cf5f59ca1369fd" target="_top" xlink:title=" ">
<polygon fill="white" stroke="black" points="202.5,-44.5 202.5,-74.5 335.5,-74.5 335.5,-44.5 202.5,-44.5"/>
<text text-anchor="start" x="210.5" y="-62.5" font-family="Helvetica,sans-Serif" font-size="10.00">JODA_SHARED_QUEUE::</text>
<text text-anchor="middle" x="269" y="-51.5" font-family="Helvetica,sans-Serif" font-size="10.00">registerProducer</text>
</a>
</g>
</g>
<!-- Node1&#45;&gt;Node3 -->
<g id="edge2" class="edge">
<title>Node1&#45;&gt;Node3</title>
<path fill="none" stroke="midnightblue" d="M155.03,-59.5C167.31,-59.5 180.01,-59.5 192.27,-59.5"/>
<polygon fill="midnightblue" stroke="midnightblue" points="192.45,-63 202.45,-59.5 192.45,-56 192.45,-63"/>
</g>
<!-- Node4 -->
<g id="node4" class="node">
<title>Node4</title>
<g id="a_node4"><a xlink:href="../../d1/d30/structJODA__SHARED__QUEUE.html#af82054a2bfc87283d58a0273652452d3" target="_top" xlink:title=" ">
<polygon fill="white" stroke="black" points="191,-6 191,-25 347,-25 347,-6 191,-6"/>
<text text-anchor="middle" x="269" y="-13" font-family="Helvetica,sans-Serif" font-size="10.00">JODA_SHARED_QUEUE::send</text>
</a>
</g>
</g>
<!-- Node1&#45;&gt;Node4 -->
<g id="edge3" class="edge">
<title>Node1&#45;&gt;Node4</title>
<path fill="none" stroke="midnightblue" d="M143.19,-44.48C167.38,-38.86 194.48,-32.57 217.24,-27.29"/>
<polygon fill="midnightblue" stroke="midnightblue" points="218.08,-30.68 227.03,-25.01 216.5,-23.86 218.08,-30.68"/>
</g>
<!-- Node5 -->
<g id="node5" class="node">
<title>Node5</title>
<g id="a_node5"><a xlink:href="../../d8/dc8/classmoodycamel_1_1ConcurrentQueue.html#aaab76643a98e1094cecdd213fbb6e75d" target="_top" xlink:title=" ">
<polygon fill="white" stroke="black" points="383,-0.5 383,-30.5 554,-30.5 554,-0.5 383,-0.5"/>
<text text-anchor="start" x="391" y="-18.5" font-family="Helvetica,sans-Serif" font-size="10.00">moodycamel::ConcurrentQueue</text>
<text text-anchor="middle" x="468.5" y="-7.5" font-family="Helvetica,sans-Serif" font-size="10.00">::try_enqueue</text>
</a>
</g>
</g>
<!-- Node4&#45;&gt;Node5 -->
<g id="edge4" class="edge">
<title>Node4&#45;&gt;Node5</title>
<path fill="none" stroke="midnightblue" d="M347.21,-15.5C355.61,-15.5 364.22,-15.5 372.8,-15.5"/>
<polygon fill="midnightblue" stroke="midnightblue" points="372.83,-19 382.83,-15.5 372.83,-12 372.83,-19"/>
</g>
</g>
</svg>
