<?xml version="1.0" encoding="UTF-8" standalone="no"?>
<!DOCTYPE svg PUBLIC "-//W3C//DTD SVG 1.1//EN"
 "http://www.w3.org/Graphics/SVG/1.1/DTD/svg11.dtd">
<!-- Generated by graphviz version 2.43.0 (0)
 -->
<!-- Title: JSONStorage::size Pages: 1 -->
<svg width="324pt" height="104pt"
 viewBox="0.00 0.00 324.00 104.00" xmlns="http://www.w3.org/2000/svg" xmlns:xlink="http://www.w3.org/1999/xlink">
<g id="graph0" class="graph" transform="scale(1 1) rotate(0) translate(4 100)">
<title>JSONStorage::size</title>
<polygon fill="white" stroke="transparent" points="-4,4 -4,-100 320,-100 320,4 -4,4"/>
<!-- Node1 -->
<g id="node1" class="node">
<title>Node1</title>
<g id="a_node1"><a xlink:title=" ">
<polygon fill="#bfbfbf" stroke="black" points="212,-38.5 212,-57.5 316,-57.5 316,-38.5 212,-38.5"/>
<text text-anchor="middle" x="264" y="-45.5" font-family="Helvetica,sans-Serif" font-size="10.00">JSONStorage::size</text>
</a>
</g>
</g>
<!-- Node2 -->
<g id="node2" class="node">
<title>Node2</title>
<g id="a_node2"><a xlink:href="../../d2/dcc/classJSONStorage.html#ade59dd21148fec2429bfe53afb03d91d" target="_top" xlink:title=" ">
<polygon fill="white" stroke="black" points="0,-76.5 0,-95.5 176,-95.5 176,-76.5 0,-76.5"/>
<text text-anchor="middle" x="88" y="-83.5" font-family="Helvetica,sans-Serif" font-size="10.00">JSONStorage::estimatedCapacity</text>
</a>
</g>
</g>
<!-- Node1&#45;&gt;Node2 -->
<g id="edge1" class="edge">
<title>Node1&#45;&gt;Node2</title>
<path fill="none" stroke="midnightblue" d="M209.19,-59.75C184.58,-65.13 155.81,-71.41 132.59,-76.48"/>
<polygon fill="midnightblue" stroke="midnightblue" points="210.07,-63.14 219.09,-57.59 208.58,-56.3 210.07,-63.14"/>
</g>
<!-- Node3 -->
<g id="node3" class="node">
<title>Node3</title>
<g id="a_node3"><a xlink:href="../../d2/dcc/classJSONStorage.html#a31e357ea721bc8d8bd5353da34009cfa" target="_top" xlink:title=" ">
<polygon fill="white" stroke="black" points="11,-38.5 11,-57.5 165,-57.5 165,-38.5 11,-38.5"/>
<text text-anchor="middle" x="88" y="-45.5" font-family="Helvetica,sans-Serif" font-size="10.00">JSONStorage::estimatedSize</text>
</a>
</g>
</g>
<!-- Node1&#45;&gt;Node3 -->
<g id="edge2" class="edge">
<title>Node1&#45;&gt;Node3</title>
<path fill="none" stroke="midnightblue" d="M201.56,-48C189.75,-48 177.26,-48 165.05,-48"/>
<polygon fill="midnightblue" stroke="midnightblue" points="201.74,-51.5 211.74,-48 201.74,-44.5 201.74,-51.5"/>
</g>
<!-- Node4 -->
<g id="node4" class="node">
<title>Node4</title>
<g id="a_node4"><a xlink:href="../../d2/dcc/classJSONStorage.html#a4ed7fc5abda6604fa5e2a54a01601045" target="_top" xlink:title=" ">
<polygon fill="white" stroke="black" points="19.5,-0.5 19.5,-19.5 156.5,-19.5 156.5,-0.5 19.5,-0.5"/>
<text text-anchor="middle" x="88" y="-7.5" font-family="Helvetica,sans-Serif" font-size="10.00">JSONStorage::parsedSize</text>
</a>
</g>
</g>
<!-- Node1&#45;&gt;Node4 -->
<g id="edge3" class="edge">
<title>Node1&#45;&gt;Node4</title>
<path fill="none" stroke="midnightblue" d="M209.19,-36.25C184.58,-30.87 155.81,-24.59 132.59,-19.52"/>
<polygon fill="midnightblue" stroke="midnightblue" points="208.58,-39.7 219.09,-38.41 210.07,-32.86 208.58,-39.7"/>
</g>
</g>
</svg>
