<?xml version="1.0" encoding="UTF-8" standalone="no"?>
<!DOCTYPE svg PUBLIC "-//W3C//DTD SVG 1.1//EN"
 "http://www.w3.org/Graphics/SVG/1.1/DTD/svg11.dtd">
<!-- Generated by graphviz version 2.43.0 (0)
 -->
<!-- Title: JSONStorage::size Pages: 1 -->
<svg width="509pt" height="154pt"
 viewBox="0.00 0.00 509.00 153.50" xmlns="http://www.w3.org/2000/svg" xmlns:xlink="http://www.w3.org/1999/xlink">
<g id="graph0" class="graph" transform="scale(1 1) rotate(0) translate(4 149.5)">
<title>JSONStorage::size</title>
<polygon fill="white" stroke="transparent" points="-4,4 -4,-149.5 505,-149.5 505,4 -4,4"/>
<!-- Node1 -->
<g id="node1" class="node">
<title>Node1</title>
<g id="a_node1"><a xlink:title=" ">
<polygon fill="#bfbfbf" stroke="black" points="397,-69 397,-88 501,-88 501,-69 397,-69"/>
<text text-anchor="middle" x="449" y="-76" font-family="Helvetica,sans-Serif" font-size="10.00">JSONStorage::size</text>
</a>
</g>
</g>
<!-- Node2 -->
<g id="node2" class="node">
<title>Node2</title>
<g id="a_node2"><a xlink:href="../../d2/dcc/classJSONStorage.html#ade59dd21148fec2429bfe53afb03d91d" target="_top" xlink:title=" ">
<polygon fill="white" stroke="black" points="185,-126 185,-145 361,-145 361,-126 185,-126"/>
<text text-anchor="middle" x="273" y="-133" font-family="Helvetica,sans-Serif" font-size="10.00">JSONStorage::estimatedCapacity</text>
</a>
</g>
</g>
<!-- Node1&#45;&gt;Node2 -->
<g id="edge1" class="edge">
<title>Node1&#45;&gt;Node2</title>
<path fill="none" stroke="midnightblue" d="M419.84,-92.49C403.07,-100.39 381.18,-109.96 361,-116.5 349.82,-120.12 337.61,-123.27 325.97,-125.9"/>
<polygon fill="midnightblue" stroke="midnightblue" points="421.57,-95.54 429.07,-88.06 418.54,-89.23 421.57,-95.54"/>
</g>
<!-- Node3 -->
<g id="node3" class="node">
<title>Node3</title>
<g id="a_node3"><a xlink:href="../../d2/dcc/classJSONStorage.html#a31e357ea721bc8d8bd5353da34009cfa" target="_top" xlink:title=" ">
<polygon fill="white" stroke="black" points="196,-88 196,-107 350,-107 350,-88 196,-88"/>
<text text-anchor="middle" x="273" y="-95" font-family="Helvetica,sans-Serif" font-size="10.00">JSONStorage::estimatedSize</text>
</a>
</g>
</g>
<!-- Node1&#45;&gt;Node3 -->
<g id="edge2" class="edge">
<title>Node1&#45;&gt;Node3</title>
<path fill="none" stroke="midnightblue" d="M386.56,-85.21C374.75,-86.5 362.26,-87.86 350.05,-89.2"/>
<polygon fill="midnightblue" stroke="midnightblue" points="387.17,-88.66 396.74,-84.1 386.41,-81.7 387.17,-88.66"/>
</g>
<!-- Node4 -->
<g id="node4" class="node">
<title>Node4</title>
<g id="a_node4"><a xlink:href="../../d2/dcc/classJSONStorage.html#a4ed7fc5abda6604fa5e2a54a01601045" target="_top" xlink:title=" ">
<polygon fill="white" stroke="black" points="204.5,-50 204.5,-69 341.5,-69 341.5,-50 204.5,-50"/>
<text text-anchor="middle" x="273" y="-57" font-family="Helvetica,sans-Serif" font-size="10.00">JSONStorage::parsedSize</text>
</a>
</g>
</g>
<!-- Node1&#45;&gt;Node4 -->
<g id="edge3" class="edge">
<title>Node1&#45;&gt;Node4</title>
<path fill="none" stroke="midnightblue" d="M386.4,-71.77C371.92,-70.19 356.41,-68.5 341.68,-66.89"/>
<polygon fill="midnightblue" stroke="midnightblue" points="386.41,-75.3 396.74,-72.9 387.17,-68.34 386.41,-75.3"/>
</g>
<!-- Node5 -->
<g id="node5" class="node">
<title>Node5</title>
<g id="a_node5"><a xlink:href="../../dc/d9a/classjoda_1_1cli_1_1ResultInterface.html#a82dbbe4ad2b1428e039681b3c4d2c622" target="_top" xlink:title=" ">
<polygon fill="white" stroke="black" points="205.5,-0.5 205.5,-30.5 340.5,-30.5 340.5,-0.5 205.5,-0.5"/>
<text text-anchor="start" x="213.5" y="-18.5" font-family="Helvetica,sans-Serif" font-size="10.00">joda::cli::ResultInterface</text>
<text text-anchor="middle" x="273" y="-7.5" font-family="Helvetica,sans-Serif" font-size="10.00">::updateStorage</text>
</a>
</g>
</g>
<!-- Node1&#45;&gt;Node5 -->
<g id="edge4" class="edge">
<title>Node1&#45;&gt;Node5</title>
<path fill="none" stroke="midnightblue" d="M419.02,-64.69C402.28,-57.01 380.7,-47.6 361,-40.5 351.24,-36.98 340.73,-33.62 330.51,-30.56"/>
<polygon fill="midnightblue" stroke="midnightblue" points="417.72,-67.95 428.26,-68.99 420.66,-61.6 417.72,-67.95"/>
</g>
<!-- Node6 -->
<g id="node6" class="node">
<title>Node6</title>
<g id="a_node6"><a xlink:href="../../d5/de2/classjoda_1_1cli_1_1CLI.html#a0b942c696bdd7631f911b4014e549685" target="_top" xlink:title=" ">
<polygon fill="white" stroke="black" points="0,-6 0,-25 149,-25 149,-6 0,-6"/>
<text text-anchor="middle" x="74.5" y="-13" font-family="Helvetica,sans-Serif" font-size="10.00">joda::cli::CLI::executeQuery</text>
</a>
</g>
</g>
<!-- Node5&#45;&gt;Node6 -->
<g id="edge5" class="edge">
<title>Node5&#45;&gt;Node6</title>
<path fill="none" stroke="midnightblue" d="M195.11,-15.5C179.96,-15.5 164.09,-15.5 149.04,-15.5"/>
<polygon fill="midnightblue" stroke="midnightblue" points="195.47,-19 205.47,-15.5 195.47,-12 195.47,-19"/>
</g>
</g>
</svg>
