<?xml version="1.0" encoding="UTF-8" standalone="no"?>
<!DOCTYPE svg PUBLIC "-//W3C//DTD SVG 1.1//EN"
 "http://www.w3.org/Graphics/SVG/1.1/DTD/svg11.dtd">
<!-- Generated by graphviz version 2.43.0 (0)
 -->
<!-- Title: JSONStorage::JSONStorage Pages: 1 -->
<svg width="336pt" height="137pt"
 viewBox="0.00 0.00 336.00 137.00" xmlns="http://www.w3.org/2000/svg" xmlns:xlink="http://www.w3.org/1999/xlink">
<g id="graph0" class="graph" transform="scale(1 1) rotate(0) translate(4 133)">
<title>JSONStorage::JSONStorage</title>
<polygon fill="white" stroke="transparent" points="-4,4 -4,-133 332,-133 332,4 -4,4"/>
<!-- Node1 -->
<g id="node1" class="node">
<title>Node1</title>
<g id="a_node1"><a xlink:title=" ">
<polygon fill="#bfbfbf" stroke="black" points="0,-55 0,-74 146,-74 146,-55 0,-55"/>
<text text-anchor="middle" x="73" y="-62" font-family="Helvetica,sans-Serif" font-size="10.00">JSONStorage::JSONStorage</text>
</a>
</g>
</g>
<!-- Node2 -->
<g id="node2" class="node">
<title>Node2</title>
<g id="a_node2"><a xlink:href="../../da/db8/classjoda_1_1filesystem_1_1DirectoryRegister.html#ad6c244dafab20276bc4173bcbc71d50d" target="_top" xlink:title=" ">
<polygon fill="white" stroke="black" points="182,-98.5 182,-128.5 328,-128.5 328,-98.5 182,-98.5"/>
<text text-anchor="start" x="190" y="-116.5" font-family="Helvetica,sans-Serif" font-size="10.00">joda::filesystem::Directory</text>
<text text-anchor="middle" x="255" y="-105.5" font-family="Helvetica,sans-Serif" font-size="10.00">Register::getInstance</text>
</a>
</g>
</g>
<!-- Node1&#45;&gt;Node2 -->
<g id="edge1" class="edge">
<title>Node1&#45;&gt;Node2</title>
<path fill="none" stroke="midnightblue" d="M109.13,-74.06C131.82,-80.24 162.03,-88.46 189,-95.8"/>
<polygon fill="midnightblue" stroke="midnightblue" points="188.19,-99.21 198.76,-98.46 190.03,-92.46 188.19,-99.21"/>
</g>
<!-- Node3 -->
<g id="node3" class="node">
<title>Node3</title>
<g id="a_node3"><a xlink:href="../../da/db8/classjoda_1_1filesystem_1_1DirectoryRegister.html#a6ee5587d4d1920f50d3d9721ead6a6da" target="_top" xlink:title=" ">
<polygon fill="white" stroke="black" points="182,-49.5 182,-79.5 328,-79.5 328,-49.5 182,-49.5"/>
<text text-anchor="start" x="190" y="-67.5" font-family="Helvetica,sans-Serif" font-size="10.00">joda::filesystem::Directory</text>
<text text-anchor="middle" x="255" y="-56.5" font-family="Helvetica,sans-Serif" font-size="10.00">Register::getUniqueDir</text>
</a>
</g>
</g>
<!-- Node1&#45;&gt;Node3 -->
<g id="edge2" class="edge">
<title>Node1&#45;&gt;Node3</title>
<path fill="none" stroke="midnightblue" d="M146.18,-64.5C154.52,-64.5 163.08,-64.5 171.54,-64.5"/>
<polygon fill="midnightblue" stroke="midnightblue" points="171.81,-68 181.81,-64.5 171.81,-61 171.81,-68"/>
</g>
<!-- Node4 -->
<g id="node4" class="node">
<title>Node4</title>
<g id="a_node4"><a xlink:href="../../da/db8/classjoda_1_1filesystem_1_1DirectoryRegister.html#a642377350d6f8f06d873cd3be8e1b34c" target="_top" xlink:title=" ">
<polygon fill="white" stroke="black" points="182,-0.5 182,-30.5 328,-30.5 328,-0.5 182,-0.5"/>
<text text-anchor="start" x="190" y="-18.5" font-family="Helvetica,sans-Serif" font-size="10.00">joda::filesystem::Directory</text>
<text text-anchor="middle" x="255" y="-7.5" font-family="Helvetica,sans-Serif" font-size="10.00">Register::registerDirectory</text>
</a>
</g>
</g>
<!-- Node1&#45;&gt;Node4 -->
<g id="edge3" class="edge">
<title>Node1&#45;&gt;Node4</title>
<path fill="none" stroke="midnightblue" d="M109.13,-54.94C131.82,-48.76 162.03,-40.54 189,-33.2"/>
<polygon fill="midnightblue" stroke="midnightblue" points="190.03,-36.54 198.76,-30.54 188.19,-29.79 190.03,-36.54"/>
</g>
</g>
</svg>
