<?xml version="1.0" encoding="UTF-8" standalone="no"?>
<!DOCTYPE svg PUBLIC "-//W3C//DTD SVG 1.1//EN"
 "http://www.w3.org/Graphics/SVG/1.1/DTD/svg11.dtd">
<!-- Generated by graphviz version 2.43.0 (0)
 -->
<!-- Title: moodycamel::ReaderWriterQueue&lt; T, MAX_BLOCK_SIZE &gt; Pages: 1 -->
<svg width="178pt" height="117pt"
 viewBox="0.00 0.00 178.00 117.00" xmlns="http://www.w3.org/2000/svg" xmlns:xlink="http://www.w3.org/1999/xlink">
<g id="graph0" class="graph" transform="scale(1 1) rotate(0) translate(4 113)">
<title>moodycamel::ReaderWriterQueue&lt; T, MAX_BLOCK_SIZE &gt;</title>
<polygon fill="white" stroke="transparent" points="-4,4 -4,-113 174,-113 174,4 -4,4"/>
<!-- Node1 -->
<g id="node1" class="node">
<title>Node1</title>
<g id="a_node1"><a xlink:title=" ">
<polygon fill="#bfbfbf" stroke="black" points="0,-78.5 0,-108.5 170,-108.5 170,-78.5 0,-78.5"/>
<text text-anchor="start" x="8" y="-96.5" font-family="Helvetica,sans-Serif" font-size="10.00">moodycamel::ReaderWriter</text>
<text text-anchor="middle" x="85" y="-85.5" font-family="Helvetica,sans-Serif" font-size="10.00">Queue&lt; T, MAX_BLOCK_SIZE &gt;</text>
</a>
</g>
</g>
<!-- Node2 -->
<g id="node2" class="node">
<title>Node2</title>
<g id="a_node2"><a xlink:href="../../da/d5a/classmoodycamel_1_1ReaderWriterQueue.html" target="_top" xlink:title=" ">
<polygon fill="white" stroke="black" points="9.5,-0.5 9.5,-30.5 160.5,-30.5 160.5,-0.5 9.5,-0.5"/>
<text text-anchor="start" x="17.5" y="-18.5" font-family="Helvetica,sans-Serif" font-size="10.00">moodycamel::ReaderWriter</text>
<text text-anchor="middle" x="85" y="-7.5" font-family="Helvetica,sans-Serif" font-size="10.00">Queue&lt; T, 512 &gt;</text>
</a>
</g>
</g>
<!-- Node1&#45;&gt;Node2 -->
<g id="edge1" class="edge">
<title>Node1&#45;&gt;Node2</title>
<path fill="none" stroke="orange" stroke-dasharray="5,2" d="M85,-68.09C85,-55.76 85,-41.22 85,-30.73"/>
<polygon fill="orange" stroke="orange" points="81.5,-68.2 85,-78.2 88.5,-68.21 81.5,-68.2"/>
<text text-anchor="middle" x="113" y="-52" font-family="Helvetica,sans-Serif" font-size="10.00"> &lt; T, 512 &gt;</text>
</g>
</g>
</svg>
