<?xml version="1.0" encoding="UTF-8" standalone="no"?>
<!DOCTYPE svg PUBLIC "-//W3C//DTD SVG 1.1//EN"
 "http://www.w3.org/Graphics/SVG/1.1/DTD/svg11.dtd">
<!-- Generated by graphviz version 2.43.0 (0)
 -->
<!-- Title: joda::queryparsing::grammar::equal Pages: 1 -->
<svg width="346pt" height="61pt"
 viewBox="0.00 0.00 346.00 61.00" xmlns="http://www.w3.org/2000/svg" xmlns:xlink="http://www.w3.org/1999/xlink">
<g id="graph0" class="graph" transform="scale(1 1) rotate(0) translate(4 57)">
<title>joda::queryparsing::grammar::equal</title>
<polygon fill="white" stroke="transparent" points="-4,4 -4,-57 342,-57 342,4 -4,4"/>
<!-- Node1 -->
<g id="node1" class="node">
<title>Node1</title>
<g id="a_node1"><a xlink:title=" ">
<polygon fill="#bfbfbf" stroke="black" points="231,-11.5 231,-41.5 338,-41.5 338,-11.5 231,-11.5"/>
<text text-anchor="start" x="239" y="-29.5" font-family="Helvetica,sans-Serif" font-size="10.00">joda::queryparsing</text>
<text text-anchor="middle" x="284.5" y="-18.5" font-family="Helvetica,sans-Serif" font-size="10.00">::grammar::equal</text>
</a>
</g>
</g>
<!-- Node2 -->
<g id="node2" class="node">
<title>Node2</title>
<g id="a_node2"><a xlink:title=" ">
<polygon fill="white" stroke="#bfbfbf" points="0,-0.5 0,-52.5 195,-52.5 195,-0.5 0,-0.5"/>
<text text-anchor="start" x="8" y="-40.5" font-family="Helvetica,sans-Serif" font-size="10.00">tao::pegtl::seq&lt; tao</text>
<text text-anchor="start" x="8" y="-29.5" font-family="Helvetica,sans-Serif" font-size="10.00">::pegtl::sor&lt; tao::pegtl</text>
<text text-anchor="start" x="8" y="-18.5" font-family="Helvetica,sans-Serif" font-size="10.00">::one&lt;&#39;!&#39;&gt;, tao::pegtl::</text>
<text text-anchor="middle" x="97.5" y="-7.5" font-family="Helvetica,sans-Serif" font-size="10.00">one&lt;&#39;=&#39;&gt; &gt;, tao::pegtl::one&lt;&#39;=&#39;&gt; &gt;</text>
</a>
</g>
</g>
<!-- Node2&#45;&gt;Node1 -->
<g id="edge1" class="edge">
<title>Node2&#45;&gt;Node1</title>
<path fill="none" stroke="midnightblue" d="M205.09,-26.5C213.91,-26.5 222.56,-26.5 230.71,-26.5"/>
<polygon fill="midnightblue" stroke="midnightblue" points="205.06,-23 195.06,-26.5 205.06,-30 205.06,-23"/>
</g>
</g>
</svg>
