<?xml version="1.0" encoding="UTF-8" standalone="no"?>
<!DOCTYPE svg PUBLIC "-//W3C//DTD SVG 1.1//EN"
 "http://www.w3.org/Graphics/SVG/1.1/DTD/svg11.dtd">
<!-- Generated by graphviz version 2.43.0 (0)
 -->
<!-- Title: /home/nico/projects/tmp&#45;joda&#45;dirs/JODA&#45;gh/libs/joda/core/modules/misc/src/MemoryUtility.cpp Pages: 1 -->
<!--zoomable 184 -->
<svg id="main" version="1.1" xmlns="http://www.w3.org/2000/svg" xmlns:xlink="http://www.w3.org/1999/xlink" xml:space="preserve" onload="init(evt)">
<style type="text/css"><![CDATA[
.edge:hover path { stroke: red; }
.edge:hover polygon { stroke: red; fill: red; }
]]></style>
<script type="text/javascript"><![CDATA[
var edges = document.getElementsByTagName('g');
if (edges && edges.length) {
  for (var i=0;i<edges.length;i++) {
    if (edges[i].id.substr(0,4)=='edge') {
      edges[i].setAttribute('class','edge');
    }
  }
}
]]></script>
        <defs>
                <circle id="rim" cx="0" cy="0" r="7"/>
                <circle id="rim2" cx="0" cy="0" r="3.5"/>
                <g id="zoomPlus">
                        <use xlink:href="#rim" fill="#404040">
                                <set attributeName="fill" to="#808080" begin="zoomplus.mouseover" end="zoomplus.mouseout"/>
                        </use>
                        <path d="M-4,0h8M0,-4v8" fill="none" stroke="white" stroke-width="1.5" pointer-events="none"/>
                </g>
                <g id="zoomMin">
                        <use xlink:href="#rim" fill="#404040">
                                <set attributeName="fill" to="#808080" begin="zoomminus.mouseover" end="zoomminus.mouseout"/>
                        </use>
                        <path d="M-4,0h8" fill="none" stroke="white" stroke-width="1.5" pointer-events="none"/>
                </g>
                <g id="dirArrow">
                        <path fill="none" stroke="white" stroke-width="1.5" d="M0,-3.0v7 M-2.5,-0.5L0,-3.0L2.5,-0.5"/>
                </g>
               <g id="resetDef">
                       <use xlink:href="#rim2" fill="#404040">
                               <set attributeName="fill" to="#808080" begin="reset.mouseover" end="reset.mouseout"/>
                       </use>
               </g>
        </defs>

<script type="text/javascript">
var viewWidth = 723;
var viewHeight = 184;
var sectionId = 'dynsection-0';
</script>
<script xlink:href="../../svgpan.js"/>
<svg id="graph" class="graph">
<g id="viewport">
<title>/home/nico/projects/tmp&#45;joda&#45;dirs/JODA&#45;gh/libs/joda/core/modules/misc/src/MemoryUtility.cpp</title>
<polygon fill="white" stroke="transparent" points="-4,4 -4,-180 719,-180 719,4 -4,4"/>
<!-- Node1 -->
<g id="node1" class="node">
<title>Node1</title>
<g id="a_node1"><a xlink:title=" ">
<polygon fill="#bfbfbf" stroke="black" points="372,-123.5 372,-175.5 524,-175.5 524,-123.5 372,-123.5"/>
<text text-anchor="start" x="380" y="-163.5" font-family="Helvetica,sans-Serif" font-size="10.00">/home/nico/projects</text>
<text text-anchor="start" x="380" y="-152.5" font-family="Helvetica,sans-Serif" font-size="10.00">/tmp&#45;joda&#45;dirs/JODA</text>
<text text-anchor="start" x="380" y="-141.5" font-family="Helvetica,sans-Serif" font-size="10.00">&#45;gh/libs/joda/core/modules</text>
<text text-anchor="middle" x="448" y="-130.5" font-family="Helvetica,sans-Serif" font-size="10.00">/misc/src/MemoryUtility.cpp</text>
</a>
</g>
</g>
<!-- Node2 -->
<g id="node2" class="node">
<title>Node2</title>
<g id="a_node2"><a xlink:href="../../d4/d6c/MemoryUtility_8h.html" target="_top" xlink:title=" ">
<polygon fill="white" stroke="black" points="98.5,-56.5 98.5,-86.5 209.5,-86.5 209.5,-56.5 98.5,-56.5"/>
<text text-anchor="start" x="106.5" y="-74.5" font-family="Helvetica,sans-Serif" font-size="10.00">../include/joda/misc</text>
<text text-anchor="middle" x="154" y="-63.5" font-family="Helvetica,sans-Serif" font-size="10.00">/MemoryUtility.h</text>
</a>
</g>
</g>
<!-- Node1&#45;&gt;Node2 -->
<g id="edge1" class="edge">
<title>Node1&#45;&gt;Node2</title>
<path fill="none" stroke="midnightblue" d="M371.91,-128.83C324.19,-116.5 263.38,-100.77 218.13,-89.08"/>
<polygon fill="midnightblue" stroke="midnightblue" points="218.99,-85.68 208.43,-86.57 217.23,-92.46 218.99,-85.68"/>
</g>
<!-- Node8 -->
<g id="node8" class="node">
<title>Node8</title>
<g id="a_node8"><a xlink:title=" ">
<polygon fill="white" stroke="#bfbfbf" points="228,-62 228,-81 314,-81 314,-62 228,-62"/>
<text text-anchor="middle" x="271" y="-69" font-family="Helvetica,sans-Serif" font-size="10.00">glog/logging.h</text>
</a>
</g>
</g>
<!-- Node1&#45;&gt;Node8 -->
<g id="edge7" class="edge">
<title>Node1&#45;&gt;Node8</title>
<path fill="none" stroke="midnightblue" d="M389.55,-123.4C359.64,-110.56 324.53,-95.48 300.32,-85.09"/>
<polygon fill="midnightblue" stroke="midnightblue" points="301.55,-81.81 290.98,-81.08 298.79,-88.24 301.55,-81.81"/>
</g>
<!-- Node9 -->
<g id="node9" class="node">
<title>Node9</title>
<g id="a_node9"><a xlink:title=" ">
<polygon fill="white" stroke="#bfbfbf" points="332.5,-62 332.5,-81 379.5,-81 379.5,-62 332.5,-62"/>
<text text-anchor="middle" x="356" y="-69" font-family="Helvetica,sans-Serif" font-size="10.00">cmath</text>
</a>
</g>
</g>
<!-- Node1&#45;&gt;Node9 -->
<g id="edge8" class="edge">
<title>Node1&#45;&gt;Node9</title>
<path fill="none" stroke="midnightblue" d="M417.62,-123.4C403.33,-111.6 386.76,-97.91 374.41,-87.7"/>
<polygon fill="midnightblue" stroke="midnightblue" points="376.54,-84.93 366.6,-81.26 372.08,-90.33 376.54,-84.93"/>
</g>
<!-- Node10 -->
<g id="node10" class="node">
<title>Node10</title>
<g id="a_node10"><a xlink:title=" ">
<polygon fill="white" stroke="#bfbfbf" points="397.5,-62 397.5,-81 498.5,-81 498.5,-62 397.5,-62"/>
<text text-anchor="middle" x="448" y="-69" font-family="Helvetica,sans-Serif" font-size="10.00">boost/format.hpp</text>
</a>
</g>
</g>
<!-- Node1&#45;&gt;Node10 -->
<g id="edge9" class="edge">
<title>Node1&#45;&gt;Node10</title>
<path fill="none" stroke="midnightblue" d="M448,-123.19C448,-112.76 448,-100.9 448,-91.27"/>
<polygon fill="midnightblue" stroke="midnightblue" points="451.5,-91.21 448,-81.21 444.5,-91.21 451.5,-91.21"/>
</g>
<!-- Node11 -->
<g id="node11" class="node">
<title>Node11</title>
<g id="a_node11"><a xlink:title=" ">
<polygon fill="white" stroke="#bfbfbf" points="517,-62 517,-81 567,-81 567,-62 517,-62"/>
<text text-anchor="middle" x="542" y="-69" font-family="Helvetica,sans-Serif" font-size="10.00">cstring</text>
</a>
</g>
</g>
<!-- Node1&#45;&gt;Node11 -->
<g id="edge10" class="edge">
<title>Node1&#45;&gt;Node11</title>
<path fill="none" stroke="midnightblue" d="M479.04,-123.4C493.64,-111.6 510.57,-97.91 523.19,-87.7"/>
<polygon fill="midnightblue" stroke="midnightblue" points="525.59,-90.27 531.17,-81.26 521.19,-84.83 525.59,-90.27"/>
</g>
<!-- Node12 -->
<g id="node12" class="node">
<title>Node12</title>
<g id="a_node12"><a xlink:title=" ">
<polygon fill="white" stroke="#bfbfbf" points="585,-62 585,-81 641,-81 641,-62 585,-62"/>
<text text-anchor="middle" x="613" y="-69" font-family="Helvetica,sans-Serif" font-size="10.00">iomanip</text>
</a>
</g>
</g>
<!-- Node1&#45;&gt;Node12 -->
<g id="edge11" class="edge">
<title>Node1&#45;&gt;Node12</title>
<path fill="none" stroke="midnightblue" d="M502.48,-123.4C530.12,-110.67 562.52,-95.75 585.06,-85.37"/>
<polygon fill="midnightblue" stroke="midnightblue" points="586.76,-88.44 594.38,-81.08 583.83,-82.08 586.76,-88.44"/>
</g>
<!-- Node13 -->
<g id="node13" class="node">
<title>Node13</title>
<g id="a_node13"><a xlink:title=" ">
<polygon fill="white" stroke="#bfbfbf" points="659,-62 659,-81 715,-81 715,-62 659,-62"/>
<text text-anchor="middle" x="687" y="-69" font-family="Helvetica,sans-Serif" font-size="10.00">sstream</text>
</a>
</g>
</g>
<!-- Node1&#45;&gt;Node13 -->
<g id="edge12" class="edge">
<title>Node1&#45;&gt;Node13</title>
<path fill="none" stroke="midnightblue" d="M524.23,-126.82C562.25,-115.62 608.79,-101.32 650,-87 652.12,-86.26 654.29,-85.48 656.48,-84.67"/>
<polygon fill="midnightblue" stroke="midnightblue" points="657.87,-87.89 665.97,-81.07 655.38,-81.35 657.87,-87.89"/>
</g>
<!-- Node3 -->
<g id="node3" class="node">
<title>Node3</title>
<g id="a_node3"><a xlink:title=" ">
<polygon fill="white" stroke="#bfbfbf" points="0,-0.5 0,-19.5 46,-19.5 46,-0.5 0,-0.5"/>
<text text-anchor="middle" x="23" y="-7.5" font-family="Helvetica,sans-Serif" font-size="10.00">cstdio</text>
</a>
</g>
</g>
<!-- Node2&#45;&gt;Node3 -->
<g id="edge2" class="edge">
<title>Node2&#45;&gt;Node3</title>
<path fill="none" stroke="midnightblue" d="M122.95,-56.4C101.27,-46.55 72.54,-33.5 51.45,-23.92"/>
<polygon fill="midnightblue" stroke="midnightblue" points="52.61,-20.61 42.06,-19.66 49.72,-26.98 52.61,-20.61"/>
</g>
<!-- Node4 -->
<g id="node4" class="node">
<title>Node4</title>
<g id="a_node4"><a xlink:title=" ">
<polygon fill="white" stroke="#bfbfbf" points="64.5,-0.5 64.5,-19.5 113.5,-19.5 113.5,-0.5 64.5,-0.5"/>
<text text-anchor="middle" x="89" y="-7.5" font-family="Helvetica,sans-Serif" font-size="10.00">cstdlib</text>
</a>
</g>
</g>
<!-- Node2&#45;&gt;Node4 -->
<g id="edge3" class="edge">
<title>Node2&#45;&gt;Node4</title>
<path fill="none" stroke="midnightblue" d="M138.6,-56.4C128.76,-47.4 116.01,-35.72 105.89,-26.47"/>
<polygon fill="midnightblue" stroke="midnightblue" points="108.2,-23.83 98.46,-19.66 103.47,-28.99 108.2,-23.83"/>
</g>
<!-- Node5 -->
<g id="node5" class="node">
<title>Node5</title>
<g id="a_node5"><a xlink:title=" ">
<polygon fill="white" stroke="#bfbfbf" points="132,-0.5 132,-19.5 176,-19.5 176,-0.5 132,-0.5"/>
<text text-anchor="middle" x="154" y="-7.5" font-family="Helvetica,sans-Serif" font-size="10.00">string</text>
</a>
</g>
</g>
<!-- Node2&#45;&gt;Node5 -->
<g id="edge4" class="edge">
<title>Node2&#45;&gt;Node5</title>
<path fill="none" stroke="midnightblue" d="M154,-56.4C154,-48.47 154,-38.46 154,-29.86"/>
<polygon fill="midnightblue" stroke="midnightblue" points="157.5,-29.66 154,-19.66 150.5,-29.66 157.5,-29.66"/>
</g>
<!-- Node6 -->
<g id="node6" class="node">
<title>Node6</title>
<g id="a_node6"><a xlink:title=" ">
<polygon fill="white" stroke="#bfbfbf" points="194,-0.5 194,-19.5 274,-19.5 274,-0.5 194,-0.5"/>
<text text-anchor="middle" x="234" y="-7.5" font-family="Helvetica,sans-Serif" font-size="10.00">sys/sysinfo.h</text>
</a>
</g>
</g>
<!-- Node2&#45;&gt;Node6 -->
<g id="edge5" class="edge">
<title>Node2&#45;&gt;Node6</title>
<path fill="none" stroke="midnightblue" d="M172.96,-56.4C185.42,-47.13 201.7,-35.03 214.31,-25.65"/>
<polygon fill="midnightblue" stroke="midnightblue" points="216.42,-28.43 222.36,-19.66 212.25,-22.82 216.42,-28.43"/>
</g>
<!-- Node7 -->
<g id="node7" class="node">
<title>Node7</title>
<g id="a_node7"><a xlink:title=" ">
<polygon fill="white" stroke="#bfbfbf" points="292,-0.5 292,-19.5 364,-19.5 364,-0.5 292,-0.5"/>
<text text-anchor="middle" x="328" y="-7.5" font-family="Helvetica,sans-Serif" font-size="10.00">sys/types.h</text>
</a>
</g>
</g>
<!-- Node2&#45;&gt;Node7 -->
<g id="edge6" class="edge">
<title>Node2&#45;&gt;Node7</title>
<path fill="none" stroke="midnightblue" d="M195.24,-56.4C225.17,-46.16 265.21,-32.47 293.47,-22.81"/>
<polygon fill="midnightblue" stroke="midnightblue" points="294.61,-26.12 302.94,-19.57 292.34,-19.49 294.61,-26.12"/>
</g>
</g>
</svg>
        <g id="navigator" transform="translate(0 0)" fill="#404254">
                <rect fill="#f2f5e9" fill-opacity="0.5" stroke="#606060" stroke-width=".5" x="0" y="0" width="60" height="60"/>
                <use id="zoomplus" xlink:href="#zoomPlus" x="17" y="9" onmousedown="handleZoom(evt,'in')"/>
                <use id="zoomminus" xlink:href="#zoomMin" x="42" y="9" onmousedown="handleZoom(evt,'out')"/>
                <use id="reset" xlink:href="#resetDef" x="30" y="36" onmousedown="handleReset()"/>
                <g id="arrowUp" xlink:href="#dirArrow" transform="translate(30 24)" onmousedown="handlePan(0,-1)">
                  <use xlink:href="#rim" fill="#404040">
                        <set attributeName="fill" to="#808080" begin="arrowUp.mouseover" end="arrowUp.mouseout"/>
                  </use>
                  <path fill="none" stroke="white" stroke-width="1.5" d="M0,-3.0v7 M-2.5,-0.5L0,-3.0L2.5,-0.5"/>
                </g>
                <g id="arrowRight" xlink:href="#dirArrow" transform="rotate(90) translate(36 -43)" onmousedown="handlePan(1,0)">
                  <use xlink:href="#rim" fill="#404040">
                        <set attributeName="fill" to="#808080" begin="arrowRight.mouseover" end="arrowRight.mouseout"/>
                  </use>
                  <path fill="none" stroke="white" stroke-width="1.5" d="M0,-3.0v7 M-2.5,-0.5L0,-3.0L2.5,-0.5"/>
                </g>
                <g id="arrowDown" xlink:href="#dirArrow" transform="rotate(180) translate(-30 -48)" onmousedown="handlePan(0,1)">
                  <use xlink:href="#rim" fill="#404040">
                        <set attributeName="fill" to="#808080" begin="arrowDown.mouseover" end="arrowDown.mouseout"/>
                  </use>
                  <path fill="none" stroke="white" stroke-width="1.5" d="M0,-3.0v7 M-2.5,-0.5L0,-3.0L2.5,-0.5"/>
                </g>
                <g id="arrowLeft" xlink:href="#dirArrow" transform="rotate(270) translate(-36 17)" onmousedown="handlePan(-1,0)">
                  <use xlink:href="#rim" fill="#404040">
                        <set attributeName="fill" to="#808080" begin="arrowLeft.mouseover" end="arrowLeft.mouseout"/>
                  </use>
                  <path fill="none" stroke="white" stroke-width="1.5" d="M0,-3.0v7 M-2.5,-0.5L0,-3.0L2.5,-0.5"/>
                </g>
        </g>
        <svg viewBox="0 0 15 15" width="100%" height="30px" preserveAspectRatio="xMaxYMin meet">
         <g id="arrow_out" transform="scale(0.3 0.3)">
          <a xlink:href="MemoryUtility_8cpp__incl_org.svg" target="_base">
           <rect id="button" ry="5" rx="5" y="6" x="6" height="38" width="38"
                fill="#f2f5e9" fill-opacity="0.5" stroke="#606060" stroke-width="1.0"/>
           <path id="arrow"
             d="M 11.500037,31.436501 C 11.940474,20.09759 22.043105,11.32322 32.158766,21.979434 L 37.068811,17.246167 C 37.068811,17.246167 37.088388,32 37.088388,32 L 22.160133,31.978069 C 22.160133,31.978069 26.997745,27.140456 26.997745,27.140456 C 18.528582,18.264221 13.291696,25.230495 11.500037,31.436501 z"
             style="fill:#404040;"/>
          </a>
         </g>
        </svg>
</svg>
