<?xml version="1.0" encoding="UTF-8" standalone="no"?>
<!DOCTYPE svg PUBLIC "-//W3C//DTD SVG 1.1//EN"
 "http://www.w3.org/Graphics/SVG/1.1/DTD/svg11.dtd">
<!-- Generated by graphviz version 2.43.0 (0)
 -->
<!-- Title: joda::query::AndPredicate::subAccept Pages: 1 -->
<svg width="342pt" height="186pt"
 viewBox="0.00 0.00 342.00 186.00" xmlns="http://www.w3.org/2000/svg" xmlns:xlink="http://www.w3.org/1999/xlink">
<g id="graph0" class="graph" transform="scale(1 1) rotate(0) translate(4 182)">
<title>joda::query::AndPredicate::subAccept</title>
<polygon fill="white" stroke="transparent" points="-4,4 -4,-182 338,-182 338,4 -4,4"/>
<!-- Node1 -->
<g id="node1" class="node">
<title>Node1</title>
<g id="a_node1"><a xlink:title=" ">
<polygon fill="#bfbfbf" stroke="black" points="193,-73.5 193,-103.5 334,-103.5 334,-73.5 193,-73.5"/>
<text text-anchor="start" x="201" y="-91.5" font-family="Helvetica,sans-Serif" font-size="10.00">joda::query::AndPredicate</text>
<text text-anchor="middle" x="263.5" y="-80.5" font-family="Helvetica,sans-Serif" font-size="10.00">::subAccept</text>
</a>
</g>
</g>
<!-- Node2 -->
<g id="node2" class="node">
<title>Node2</title>
<g id="a_node2"><a xlink:href="../../da/d02/classjoda_1_1query_1_1AttributeVisitor.html#abd0bd1110c2f1085c5174ae76ff0234c" target="_top" xlink:title=" ">
<polygon fill="white" stroke="black" points="3,-147.5 3,-177.5 154,-177.5 154,-147.5 3,-147.5"/>
<text text-anchor="start" x="11" y="-165.5" font-family="Helvetica,sans-Serif" font-size="10.00">joda::query::AttributeVisitor</text>
<text text-anchor="middle" x="78.5" y="-154.5" font-family="Helvetica,sans-Serif" font-size="10.00">::visit</text>
</a>
</g>
</g>
<!-- Node1&#45;&gt;Node2 -->
<g id="edge1" class="edge">
<title>Node1&#45;&gt;Node2</title>
<path fill="none" stroke="midnightblue" d="M224.42,-108.16C204.61,-117.97 179.83,-129.61 157,-138.5 148.99,-141.62 140.4,-144.61 131.96,-147.37"/>
<polygon fill="midnightblue" stroke="midnightblue" points="226.05,-111.25 233.43,-103.65 222.92,-104.99 226.05,-111.25"/>
</g>
<!-- Node3 -->
<g id="node3" class="node">
<title>Node3</title>
<g id="a_node3"><a xlink:href="../../da/d25/classjoda_1_1query_1_1BloomAttributeVisitor.html#aa6a606cbac214c6814546db3a514c9cf" target="_top" xlink:title=" ">
<polygon fill="white" stroke="black" points="3,-98.5 3,-128.5 154,-128.5 154,-98.5 3,-98.5"/>
<text text-anchor="start" x="11" y="-116.5" font-family="Helvetica,sans-Serif" font-size="10.00">joda::query::BloomAttribute</text>
<text text-anchor="middle" x="78.5" y="-105.5" font-family="Helvetica,sans-Serif" font-size="10.00">Visitor::visit</text>
</a>
</g>
</g>
<!-- Node1&#45;&gt;Node3 -->
<g id="edge2" class="edge">
<title>Node1&#45;&gt;Node3</title>
<path fill="none" stroke="midnightblue" d="M182.63,-99.41C173.18,-100.7 163.56,-102.02 154.19,-103.3"/>
<polygon fill="midnightblue" stroke="midnightblue" points="183.36,-102.84 192.79,-98.02 182.41,-95.91 183.36,-102.84"/>
</g>
<!-- Node4 -->
<g id="node4" class="node">
<title>Node4</title>
<g id="a_node4"><a xlink:href="../../d5/d78/classjoda_1_1query_1_1StaticEvalVisitor.html#a922f94aa17fe90462679820782ae4bc1" target="_top" xlink:title=" ">
<polygon fill="white" stroke="black" points="0,-49.5 0,-79.5 157,-79.5 157,-49.5 0,-49.5"/>
<text text-anchor="start" x="8" y="-67.5" font-family="Helvetica,sans-Serif" font-size="10.00">joda::query::StaticEvalVisitor</text>
<text text-anchor="middle" x="78.5" y="-56.5" font-family="Helvetica,sans-Serif" font-size="10.00">::visit</text>
</a>
</g>
</g>
<!-- Node1&#45;&gt;Node4 -->
<g id="edge3" class="edge">
<title>Node1&#45;&gt;Node4</title>
<path fill="none" stroke="midnightblue" d="M182.62,-78.02C174.2,-76.92 165.65,-75.8 157.26,-74.7"/>
<polygon fill="midnightblue" stroke="midnightblue" points="182.42,-81.53 192.79,-79.36 183.33,-74.59 182.42,-81.53"/>
</g>
<!-- Node5 -->
<g id="node5" class="node">
<title>Node5</title>
<g id="a_node5"><a xlink:href="../../dc/dc3/classjoda_1_1query_1_1ToStringVisitor.html#ad258b5c227c15d83da7ae2e345b241a4" target="_top" xlink:title=" ">
<polygon fill="white" stroke="black" points="5,-0.5 5,-30.5 152,-30.5 152,-0.5 5,-0.5"/>
<text text-anchor="start" x="13" y="-18.5" font-family="Helvetica,sans-Serif" font-size="10.00">joda::query::ToStringVisitor</text>
<text text-anchor="middle" x="78.5" y="-7.5" font-family="Helvetica,sans-Serif" font-size="10.00">::visit</text>
</a>
</g>
</g>
<!-- Node1&#45;&gt;Node5 -->
<g id="edge4" class="edge">
<title>Node1&#45;&gt;Node5</title>
<path fill="none" stroke="midnightblue" d="M222.75,-69.11C203.18,-59.89 179.09,-49.06 157,-40.5 148.04,-37.03 138.36,-33.64 129,-30.53"/>
<polygon fill="midnightblue" stroke="midnightblue" points="221.43,-72.36 231.97,-73.48 224.44,-66.03 221.43,-72.36"/>
</g>
</g>
</svg>
