<?xml version="1.0" encoding="UTF-8" standalone="no"?>
<!DOCTYPE svg PUBLIC "-//W3C//DTD SVG 1.1//EN"
 "http://www.w3.org/Graphics/SVG/1.1/DTD/svg11.dtd">
<!-- Generated by graphviz version 2.43.0 (0)
 -->
<!-- Title: joda::queryparsing::grammar::query_control&lt; Rule &gt; Pages: 1 -->
<svg width="217pt" height="196pt"
 viewBox="0.00 0.00 217.00 196.00" xmlns="http://www.w3.org/2000/svg" xmlns:xlink="http://www.w3.org/1999/xlink">
<g id="graph0" class="graph" transform="scale(1 1) rotate(0) translate(4 192)">
<title>joda::queryparsing::grammar::query_control&lt; Rule &gt;</title>
<polygon fill="white" stroke="transparent" points="-4,4 -4,-192 213,-192 213,4 -4,4"/>
<!-- Node1 -->
<g id="node1" class="node">
<title>Node1</title>
<g id="a_node1"><a xlink:title=" ">
<polygon fill="#bfbfbf" stroke="black" points="0,-0.5 0,-41.5 140,-41.5 140,-0.5 0,-0.5"/>
<text text-anchor="start" x="8" y="-29.5" font-family="Helvetica,sans-Serif" font-size="10.00">joda::queryparsing</text>
<text text-anchor="start" x="8" y="-18.5" font-family="Helvetica,sans-Serif" font-size="10.00">::grammar::query_control</text>
<text text-anchor="middle" x="70" y="-7.5" font-family="Helvetica,sans-Serif" font-size="10.00">&lt; Rule &gt;</text>
</a>
</g>
</g>
<!-- Node2 -->
<g id="node2" class="node">
<title>Node2</title>
<g id="a_node2"><a xlink:title=" ">
<polygon fill="white" stroke="#bfbfbf" points="2,-89.5 2,-119.5 106,-119.5 106,-89.5 2,-89.5"/>
<text text-anchor="start" x="10" y="-107.5" font-family="Helvetica,sans-Serif" font-size="10.00">tao::pegtl::normal</text>
<text text-anchor="middle" x="54" y="-96.5" font-family="Helvetica,sans-Serif" font-size="10.00">&lt; Rule &gt;</text>
</a>
</g>
</g>
<!-- Node2&#45;&gt;Node1 -->
<g id="edge1" class="edge">
<title>Node2&#45;&gt;Node1</title>
<path fill="none" stroke="midnightblue" d="M58.72,-79.43C61.1,-67.35 63.93,-52.91 66.17,-41.53"/>
<polygon fill="midnightblue" stroke="midnightblue" points="55.28,-78.82 56.79,-89.3 62.15,-80.17 55.28,-78.82"/>
</g>
<!-- Node3 -->
<g id="node3" class="node">
<title>Node3</title>
<g id="a_node3"><a xlink:title="STL class.">
<polygon fill="white" stroke="#bfbfbf" points="124.5,-95 124.5,-114 189.5,-114 189.5,-95 124.5,-95"/>
<text text-anchor="middle" x="157" y="-102" font-family="Helvetica,sans-Serif" font-size="10.00">std::string</text>
</a>
</g>
</g>
<!-- Node3&#45;&gt;Node1 -->
<g id="edge2" class="edge">
<title>Node3&#45;&gt;Node1</title>
<path fill="none" stroke="#9a32cd" stroke-dasharray="5,2" d="M140.22,-87.78C126.22,-74.67 106.18,-55.9 91.09,-41.76"/>
<polygon fill="#9a32cd" stroke="#9a32cd" points="138,-90.5 147.69,-94.78 142.78,-85.39 138,-90.5"/>
<text text-anchor="middle" x="159" y="-63" font-family="Helvetica,sans-Serif" font-size="10.00"> error_message</text>
</g>
<!-- Node4 -->
<g id="node4" class="node">
<title>Node4</title>
<g id="a_node4"><a xlink:title="STL class.">
<polygon fill="white" stroke="#bfbfbf" points="105,-157.5 105,-187.5 209,-187.5 209,-157.5 105,-157.5"/>
<text text-anchor="start" x="113" y="-175.5" font-family="Helvetica,sans-Serif" font-size="10.00">std::basic_string&lt;</text>
<text text-anchor="middle" x="157" y="-164.5" font-family="Helvetica,sans-Serif" font-size="10.00"> char &gt;</text>
</a>
</g>
</g>
<!-- Node4&#45;&gt;Node3 -->
<g id="edge3" class="edge">
<title>Node4&#45;&gt;Node3</title>
<path fill="none" stroke="midnightblue" d="M157,-146.88C157,-135.47 157,-122.64 157,-114.33"/>
<polygon fill="midnightblue" stroke="midnightblue" points="153.5,-147.18 157,-157.18 160.5,-147.18 153.5,-147.18"/>
</g>
</g>
</svg>
