<?xml version="1.0" encoding="UTF-8" standalone="no"?>
<!DOCTYPE svg PUBLIC "-//W3C//DTD SVG 1.1//EN"
 "http://www.w3.org/Graphics/SVG/1.1/DTD/svg11.dtd">
<!-- Generated by graphviz version 2.43.0 (0)
 -->
<!-- Title: joda::query::IAggregator::checkParamType Pages: 1 -->
<svg width="371pt" height="137pt"
 viewBox="0.00 0.00 371.00 137.00" xmlns="http://www.w3.org/2000/svg" xmlns:xlink="http://www.w3.org/1999/xlink">
<g id="graph0" class="graph" transform="scale(1 1) rotate(0) translate(4 133)">
<title>joda::query::IAggregator::checkParamType</title>
<polygon fill="white" stroke="transparent" points="-4,4 -4,-133 367,-133 367,4 -4,4"/>
<!-- Node1 -->
<g id="node1" class="node">
<title>Node1</title>
<g id="a_node1"><a xlink:title=" ">
<polygon fill="#bfbfbf" stroke="black" points="229,-49.5 229,-79.5 363,-79.5 363,-49.5 229,-49.5"/>
<text text-anchor="start" x="237" y="-67.5" font-family="Helvetica,sans-Serif" font-size="10.00">joda::query::IAggregator</text>
<text text-anchor="middle" x="296" y="-56.5" font-family="Helvetica,sans-Serif" font-size="10.00">::checkParamType</text>
</a>
</g>
</g>
<!-- Node2 -->
<g id="node2" class="node">
<title>Node2</title>
<g id="a_node2"><a xlink:href="../../db/d14/classjoda_1_1query_1_1AttributeStatAggregator.html#aa0d5cf43ac250223ece8d40bd9dce0ff" target="_top" xlink:title=" ">
<polygon fill="white" stroke="black" points="0,-98.5 0,-128.5 193,-128.5 193,-98.5 0,-98.5"/>
<text text-anchor="start" x="8" y="-116.5" font-family="Helvetica,sans-Serif" font-size="10.00">joda::query::AttributeStat</text>
<text text-anchor="middle" x="96.5" y="-105.5" font-family="Helvetica,sans-Serif" font-size="10.00">Aggregator::AttributeStatAggregator</text>
</a>
</g>
</g>
<!-- Node1&#45;&gt;Node2 -->
<g id="edge1" class="edge">
<title>Node1&#45;&gt;Node2</title>
<path fill="none" stroke="midnightblue" d="M224.56,-81.98C202.79,-87.38 179.02,-93.28 157.98,-98.49"/>
<polygon fill="midnightblue" stroke="midnightblue" points="225.54,-85.34 234.4,-79.53 223.85,-78.55 225.54,-85.34"/>
</g>
<!-- Node3 -->
<g id="node3" class="node">
<title>Node3</title>
<g id="a_node3"><a xlink:href="../../db/dac/classjoda_1_1query_1_1HistogramAggregator.html#ab683cf32e576c44a360388e7147c6501" target="_top" xlink:title=" ">
<polygon fill="white" stroke="black" points="5.5,-49.5 5.5,-79.5 187.5,-79.5 187.5,-49.5 5.5,-49.5"/>
<text text-anchor="start" x="13.5" y="-67.5" font-family="Helvetica,sans-Serif" font-size="10.00">joda::query::HistogramAggregator</text>
<text text-anchor="middle" x="96.5" y="-56.5" font-family="Helvetica,sans-Serif" font-size="10.00">::HistogramAggregator</text>
</a>
</g>
</g>
<!-- Node1&#45;&gt;Node3 -->
<g id="edge2" class="edge">
<title>Node1&#45;&gt;Node3</title>
<path fill="none" stroke="midnightblue" d="M218.89,-64.5C208.68,-64.5 198.14,-64.5 187.72,-64.5"/>
<polygon fill="midnightblue" stroke="midnightblue" points="218.96,-68 228.96,-64.5 218.96,-61 218.96,-68"/>
</g>
<!-- Node4 -->
<g id="node4" class="node">
<title>Node4</title>
<g id="a_node4"><a xlink:href="../../d0/d92/classjoda_1_1query_1_1NumberAggregator.html#add6ce9109df89c7d9231585c9fff072b" target="_top" xlink:title=" ">
<polygon fill="white" stroke="black" points="11.5,-0.5 11.5,-30.5 181.5,-30.5 181.5,-0.5 11.5,-0.5"/>
<text text-anchor="start" x="19.5" y="-18.5" font-family="Helvetica,sans-Serif" font-size="10.00">joda::query::NumberAggregator</text>
<text text-anchor="middle" x="96.5" y="-7.5" font-family="Helvetica,sans-Serif" font-size="10.00">::NumberAggregator</text>
</a>
</g>
</g>
<!-- Node1&#45;&gt;Node4 -->
<g id="edge3" class="edge">
<title>Node1&#45;&gt;Node4</title>
<path fill="none" stroke="midnightblue" d="M224.56,-47.02C202.79,-41.62 179.02,-35.72 157.98,-30.51"/>
<polygon fill="midnightblue" stroke="midnightblue" points="223.85,-50.45 234.4,-49.47 225.54,-43.66 223.85,-50.45"/>
</g>
</g>
</svg>
