<?xml version="1.0" encoding="UTF-8" standalone="no"?>
<!DOCTYPE svg PUBLIC "-//W3C//DTD SVG 1.1//EN"
 "http://www.w3.org/Graphics/SVG/1.1/DTD/svg11.dtd">
<!-- Generated by graphviz version 2.43.0 (0)
 -->
<!-- Title: joda::query::IAggregator::terminate Pages: 1 -->
<svg width="508pt" height="66pt"
 viewBox="0.00 0.00 508.00 66.00" xmlns="http://www.w3.org/2000/svg" xmlns:xlink="http://www.w3.org/1999/xlink">
<g id="graph0" class="graph" transform="scale(1 1) rotate(0) translate(4 62)">
<title>joda::query::IAggregator::terminate</title>
<polygon fill="white" stroke="transparent" points="-4,4 -4,-62 504,-62 504,4 -4,4"/>
<!-- Node1 -->
<g id="node1" class="node">
<title>Node1</title>
<g id="a_node1"><a xlink:title=" ">
<polygon fill="#bfbfbf" stroke="black" points="366,-14 366,-44 500,-44 500,-14 366,-14"/>
<text text-anchor="start" x="374" y="-32" font-family="Helvetica,sans-Serif" font-size="10.00">joda::query::IAggregator</text>
<text text-anchor="middle" x="433" y="-21" font-family="Helvetica,sans-Serif" font-size="10.00">::terminate</text>
</a>
</g>
</g>
<!-- Node2 -->
<g id="node2" class="node">
<title>Node2</title>
<g id="a_node2"><a xlink:href="../../db/d95/classAggregatorTest.html#a35a96c737597a6e28f57b378131eda72" target="_top" xlink:title=" ">
<polygon fill="white" stroke="black" points="183,-38.5 183,-57.5 317,-57.5 317,-38.5 183,-38.5"/>
<text text-anchor="middle" x="250" y="-45.5" font-family="Helvetica,sans-Serif" font-size="10.00">AggregatorTest::testAgg</text>
</a>
</g>
</g>
<!-- Node1&#45;&gt;Node2 -->
<g id="edge1" class="edge">
<title>Node1&#45;&gt;Node2</title>
<path fill="none" stroke="midnightblue" d="M355.73,-37.01C342.94,-38.35 329.75,-39.73 317.24,-41.05"/>
<polygon fill="midnightblue" stroke="midnightblue" points="356.31,-40.47 365.89,-35.94 355.58,-33.5 356.31,-40.47"/>
</g>
<!-- Node4 -->
<g id="node4" class="node">
<title>Node4</title>
<g id="a_node4"><a xlink:href="../../db/d95/classAggregatorTest.html#ada83bc60c5fc1b557afcf4e8a88c902b" target="_top" xlink:title=" ">
<polygon fill="white" stroke="black" points="170,-0.5 170,-19.5 330,-19.5 330,-0.5 170,-0.5"/>
<text text-anchor="middle" x="250" y="-7.5" font-family="Helvetica,sans-Serif" font-size="10.00">AggregatorTest::testArrayAgg</text>
</a>
</g>
</g>
<!-- Node1&#45;&gt;Node4 -->
<g id="edge3" class="edge">
<title>Node1&#45;&gt;Node4</title>
<path fill="none" stroke="midnightblue" d="M355.69,-20.99C347.25,-20.1 338.63,-19.2 330.16,-18.31"/>
<polygon fill="midnightblue" stroke="midnightblue" points="355.58,-24.5 365.89,-22.06 356.31,-17.53 355.58,-24.5"/>
</g>
<!-- Node3 -->
<g id="node3" class="node">
<title>Node3</title>
<g id="a_node3"><a xlink:href="../../db/d95/classAggregatorTest.html#acf41369e2b7dfa487f778b668d4df8d8" target="_top" xlink:title=" ">
<polygon fill="white" stroke="black" points="0,-38.5 0,-57.5 134,-57.5 134,-38.5 0,-38.5"/>
<text text-anchor="middle" x="67" y="-45.5" font-family="Helvetica,sans-Serif" font-size="10.00">AggregatorTest::testAgg</text>
</a>
</g>
</g>
<!-- Node2&#45;&gt;Node3 -->
<g id="edge2" class="edge">
<title>Node2&#45;&gt;Node3</title>
<path fill="none" stroke="midnightblue" d="M172.73,-48C159.94,-48 146.75,-48 134.24,-48"/>
<polygon fill="midnightblue" stroke="midnightblue" points="172.89,-51.5 182.89,-48 172.89,-44.5 172.89,-51.5"/>
</g>
</g>
</svg>
