<?xml version="1.0" encoding="UTF-8" standalone="no"?>
<!DOCTYPE svg PUBLIC "-//W3C//DTD SVG 1.1//EN"
 "http://www.w3.org/Graphics/SVG/1.1/DTD/svg11.dtd">
<!-- Generated by graphviz version 2.43.0 (0)
 -->
<!-- Title: joda::query::IAggregator::getParameterStringRepresentation Pages: 1 -->
<svg width="937pt" height="127pt"
 viewBox="0.00 0.00 937.00 126.50" xmlns="http://www.w3.org/2000/svg" xmlns:xlink="http://www.w3.org/1999/xlink">
<g id="graph0" class="graph" transform="scale(1 1) rotate(0) translate(4 122.5)">
<title>joda::query::IAggregator::getParameterStringRepresentation</title>
<polygon fill="white" stroke="transparent" points="-4,4 -4,-122.5 933,-122.5 933,4 -4,4"/>
<!-- Node1 -->
<g id="node1" class="node">
<title>Node1</title>
<g id="a_node1"><a xlink:title=" ">
<polygon fill="#bfbfbf" stroke="black" points="738,-20 738,-50 929,-50 929,-20 738,-20"/>
<text text-anchor="start" x="746" y="-38" font-family="Helvetica,sans-Serif" font-size="10.00">joda::query::IAggregator</text>
<text text-anchor="middle" x="833.5" y="-27" font-family="Helvetica,sans-Serif" font-size="10.00">::getParameterStringRepresentation</text>
</a>
</g>
</g>
<!-- Node2 -->
<g id="node2" class="node">
<title>Node2</title>
<g id="a_node2"><a xlink:href="../../d0/d07/classjoda_1_1query_1_1IAggregator.html#ae929d1c05e781ca45194ba54e959ed80" target="_top" xlink:title=" ">
<polygon fill="white" stroke="black" points="568,-20 568,-50 702,-50 702,-20 568,-20"/>
<text text-anchor="start" x="576" y="-38" font-family="Helvetica,sans-Serif" font-size="10.00">joda::query::IAggregator</text>
<text text-anchor="middle" x="635" y="-27" font-family="Helvetica,sans-Serif" font-size="10.00">::toString</text>
</a>
</g>
</g>
<!-- Node1&#45;&gt;Node2 -->
<g id="edge1" class="edge">
<title>Node1&#45;&gt;Node2</title>
<path fill="none" stroke="midnightblue" d="M727.79,-35C719.1,-35 710.49,-35 702.22,-35"/>
<polygon fill="midnightblue" stroke="midnightblue" points="727.99,-38.5 737.99,-35 727.99,-31.5 727.99,-38.5"/>
</g>
<!-- Node3 -->
<g id="node3" class="node">
<title>Node3</title>
<g id="a_node3"><a xlink:href="../../dc/de9/classQueryPlan.html#aa16031eccff01572dec59f8fb8cef83a" target="_top" xlink:title=" ">
<polygon fill="white" stroke="black" points="385.5,-44.5 385.5,-63.5 507.5,-63.5 507.5,-44.5 385.5,-44.5"/>
<text text-anchor="middle" x="446.5" y="-51.5" font-family="Helvetica,sans-Serif" font-size="10.00">QueryPlan::aggregate</text>
</a>
</g>
</g>
<!-- Node2&#45;&gt;Node3 -->
<g id="edge2" class="edge">
<title>Node2&#45;&gt;Node3</title>
<path fill="none" stroke="midnightblue" d="M557.69,-42.77C540.97,-44.48 523.49,-46.26 507.51,-47.89"/>
<polygon fill="midnightblue" stroke="midnightblue" points="558.39,-46.22 567.98,-41.73 557.68,-39.26 558.39,-46.22"/>
</g>
<!-- Node8 -->
<g id="node8" class="node">
<title>Node8</title>
<g id="a_node8"><a xlink:href="../../db/d95/classAggregatorTest.html#ac08d24d02e44ff78ccd3dbc86f13ef53" target="_top" xlink:title=" ">
<polygon fill="white" stroke="black" points="361,-6.5 361,-25.5 532,-25.5 532,-6.5 361,-6.5"/>
<text text-anchor="middle" x="446.5" y="-13.5" font-family="Helvetica,sans-Serif" font-size="10.00">AggregatorTest::checkDuplicate</text>
</a>
</g>
</g>
<!-- Node2&#45;&gt;Node8 -->
<g id="edge7" class="edge">
<title>Node2&#45;&gt;Node8</title>
<path fill="none" stroke="midnightblue" d="M557.76,-27.23C549.29,-26.37 540.62,-25.49 532.05,-24.61"/>
<polygon fill="midnightblue" stroke="midnightblue" points="557.68,-30.74 567.98,-28.27 558.39,-23.78 557.68,-30.74"/>
</g>
<!-- Node4 -->
<g id="node4" class="node">
<title>Node4</title>
<g id="a_node4"><a xlink:href="../../dc/de9/classQueryPlan.html#ac5a086945e484f07e422bca233cce06b" target="_top" xlink:title=" ">
<polygon fill="white" stroke="black" points="185,-44.5 185,-63.5 325,-63.5 325,-44.5 185,-44.5"/>
<text text-anchor="middle" x="255" y="-51.5" font-family="Helvetica,sans-Serif" font-size="10.00">QueryPlan::executeQuery</text>
</a>
</g>
</g>
<!-- Node3&#45;&gt;Node4 -->
<g id="edge3" class="edge">
<title>Node3&#45;&gt;Node4</title>
<path fill="none" stroke="midnightblue" d="M375.27,-54C358.95,-54 341.59,-54 325.31,-54"/>
<polygon fill="midnightblue" stroke="midnightblue" points="375.28,-57.5 385.28,-54 375.28,-50.5 375.28,-57.5"/>
</g>
<!-- Node5 -->
<g id="node5" class="node">
<title>Node5</title>
<g id="a_node5"><a xlink:href="../../d5/de2/classjoda_1_1cli_1_1CLI.html#a5f1d2148a798cefa6391ae1f6b1142ba" target="_top" xlink:title=" ">
<polygon fill="white" stroke="black" points="6,-88 6,-118 143,-118 143,-88 6,-88"/>
<text text-anchor="start" x="14" y="-106" font-family="Helvetica,sans-Serif" font-size="10.00">joda::cli::CLI::benchmark</text>
<text text-anchor="middle" x="74.5" y="-95" font-family="Helvetica,sans-Serif" font-size="10.00">Query</text>
</a>
</g>
</g>
<!-- Node4&#45;&gt;Node5 -->
<g id="edge4" class="edge">
<title>Node4&#45;&gt;Node5</title>
<path fill="none" stroke="midnightblue" d="M209.27,-66.28C185.32,-72.85 155.61,-81.01 130.28,-87.96"/>
<polygon fill="midnightblue" stroke="midnightblue" points="210.44,-69.59 219.16,-63.56 208.59,-62.84 210.44,-69.59"/>
</g>
<!-- Node6 -->
<g id="node6" class="node">
<title>Node6</title>
<g id="a_node6"><a xlink:href="../../d5/de2/classjoda_1_1cli_1_1CLI.html#a3d27f72079d6aee39307eaa0edfe6e89" target="_top" xlink:title=" ">
<polygon fill="white" stroke="black" points="4.5,-39 4.5,-69 144.5,-69 144.5,-39 4.5,-39"/>
<text text-anchor="start" x="12.5" y="-57" font-family="Helvetica,sans-Serif" font-size="10.00">joda::cli::CLI::executeNon</text>
<text text-anchor="middle" x="74.5" y="-46" font-family="Helvetica,sans-Serif" font-size="10.00">InteractiveQuery</text>
</a>
</g>
</g>
<!-- Node4&#45;&gt;Node6 -->
<g id="edge5" class="edge">
<title>Node4&#45;&gt;Node6</title>
<path fill="none" stroke="midnightblue" d="M174.96,-54C164.85,-54 154.56,-54 144.62,-54"/>
<polygon fill="midnightblue" stroke="midnightblue" points="174.99,-57.5 184.99,-54 174.99,-50.5 174.99,-57.5"/>
</g>
<!-- Node7 -->
<g id="node7" class="node">
<title>Node7</title>
<g id="a_node7"><a xlink:href="../../d5/de2/classjoda_1_1cli_1_1CLI.html#a0b942c696bdd7631f911b4014e549685" target="_top" xlink:title=" ">
<polygon fill="white" stroke="black" points="0,-0.5 0,-19.5 149,-19.5 149,-0.5 0,-0.5"/>
<text text-anchor="middle" x="74.5" y="-7.5" font-family="Helvetica,sans-Serif" font-size="10.00">joda::cli::CLI::executeQuery</text>
</a>
</g>
</g>
<!-- Node4&#45;&gt;Node7 -->
<g id="edge6" class="edge">
<title>Node4&#45;&gt;Node7</title>
<path fill="none" stroke="midnightblue" d="M205.44,-42.03C176.75,-34.96 140.92,-26.13 114.16,-19.53"/>
<polygon fill="midnightblue" stroke="midnightblue" points="204.72,-45.46 215.27,-44.45 206.4,-38.66 204.72,-45.46"/>
</g>
</g>
</svg>
