<?xml version="1.0" encoding="UTF-8" standalone="no"?>
<!DOCTYPE svg PUBLIC "-//W3C//DTD SVG 1.1//EN"
 "http://www.w3.org/Graphics/SVG/1.1/DTD/svg11.dtd">
<!-- Generated by graphviz version 2.43.0 (0)
 -->
<!-- Title: joda::cli::CLI::query Pages: 1 -->
<svg width="494pt" height="100pt"
 viewBox="0.00 0.00 494.00 99.50" xmlns="http://www.w3.org/2000/svg" xmlns:xlink="http://www.w3.org/1999/xlink">
<g id="graph0" class="graph" transform="scale(1 1) rotate(0) translate(4 95.5)">
<title>joda::cli::CLI::query</title>
<polygon fill="white" stroke="transparent" points="-4,4 -4,-95.5 490,-95.5 490,4 -4,4"/>
<!-- Node1 -->
<g id="node1" class="node">
<title>Node1</title>
<g id="a_node1"><a xlink:title=" ">
<polygon fill="#bfbfbf" stroke="black" points="0,-33 0,-52 110,-52 110,-33 0,-33"/>
<text text-anchor="middle" x="55" y="-40" font-family="Helvetica,sans-Serif" font-size="10.00">joda::cli::CLI::query</text>
</a>
</g>
</g>
<!-- Node2 -->
<g id="node2" class="node">
<title>Node2</title>
<g id="a_node2"><a xlink:href="../../d7/d70/classjoda_1_1queryparsing_1_1QueryParser.html#a993d2e49552ddb4cc4c962e470fe7662" target="_top" xlink:title=" ">
<polygon fill="white" stroke="black" points="146,-50 146,-91 293,-91 293,-50 146,-50"/>
<text text-anchor="start" x="154" y="-79" font-family="Helvetica,sans-Serif" font-size="10.00">joda::queryparsing</text>
<text text-anchor="start" x="154" y="-68" font-family="Helvetica,sans-Serif" font-size="10.00">::QueryParser::getLastError</text>
<text text-anchor="middle" x="219.5" y="-57" font-family="Helvetica,sans-Serif" font-size="10.00">Color</text>
</a>
</g>
</g>
<!-- Node1&#45;&gt;Node2 -->
<g id="edge1" class="edge">
<title>Node1&#45;&gt;Node2</title>
<path fill="none" stroke="midnightblue" d="M110.11,-51.82C118.43,-53.26 127.18,-54.76 135.94,-56.27"/>
<polygon fill="midnightblue" stroke="midnightblue" points="135.38,-59.73 145.83,-57.98 136.57,-52.83 135.38,-59.73"/>
</g>
<!-- Node3 -->
<g id="node3" class="node">
<title>Node3</title>
<g id="a_node3"><a xlink:href="../../d7/d70/classjoda_1_1queryparsing_1_1QueryParser.html#ad7ad99bbf7427b020bc9969f445aa5fa" target="_top" xlink:title=" ">
<polygon fill="white" stroke="black" points="162,-0.5 162,-30.5 277,-30.5 277,-0.5 162,-0.5"/>
<text text-anchor="start" x="170" y="-18.5" font-family="Helvetica,sans-Serif" font-size="10.00">joda::queryparsing</text>
<text text-anchor="middle" x="219.5" y="-7.5" font-family="Helvetica,sans-Serif" font-size="10.00">::QueryParser::parse</text>
</a>
</g>
</g>
<!-- Node1&#45;&gt;Node3 -->
<g id="edge2" class="edge">
<title>Node1&#45;&gt;Node3</title>
<path fill="none" stroke="midnightblue" d="M110.11,-33.51C123.48,-31.29 137.96,-28.88 151.86,-26.57"/>
<polygon fill="midnightblue" stroke="midnightblue" points="152.55,-30.01 161.84,-24.91 151.41,-23.1 152.55,-30.01"/>
</g>
<!-- Node4 -->
<g id="node4" class="node">
<title>Node4</title>
<g id="a_node4"><a xlink:href="../../d5/d78/classjoda_1_1query_1_1StaticEvalVisitor.html#abc729445111dcddbf10d10b2972cf2c5" target="_top" xlink:title=" ">
<polygon fill="white" stroke="black" points="329,-0.5 329,-30.5 486,-30.5 486,-0.5 329,-0.5"/>
<text text-anchor="start" x="337" y="-18.5" font-family="Helvetica,sans-Serif" font-size="10.00">joda::query::StaticEvalVisitor</text>
<text text-anchor="middle" x="407.5" y="-7.5" font-family="Helvetica,sans-Serif" font-size="10.00">::getPred</text>
</a>
</g>
</g>
<!-- Node3&#45;&gt;Node4 -->
<g id="edge3" class="edge">
<title>Node3&#45;&gt;Node4</title>
<path fill="none" stroke="midnightblue" d="M277.06,-15.5C290.22,-15.5 304.54,-15.5 318.69,-15.5"/>
<polygon fill="midnightblue" stroke="midnightblue" points="318.95,-19 328.95,-15.5 318.95,-12 318.95,-19"/>
</g>
</g>
</svg>
