<?xml version="1.0" encoding="UTF-8" standalone="no"?>
<!DOCTYPE svg PUBLIC "-//W3C//DTD SVG 1.1//EN"
 "http://www.w3.org/Graphics/SVG/1.1/DTD/svg11.dtd">
<!-- Generated by graphviz version 2.43.0 (0)
 -->
<!-- Title: joda::cli::CLI::benchmarkQuery Pages: 1 -->
<!--zoomable 714 -->
<svg id="main" version="1.1" xmlns="http://www.w3.org/2000/svg" xmlns:xlink="http://www.w3.org/1999/xlink" xml:space="preserve" onload="init(evt)">
<style type="text/css"><![CDATA[
.edge:hover path { stroke: red; }
.edge:hover polygon { stroke: red; fill: red; }
]]></style>
<script type="text/javascript"><![CDATA[
var edges = document.getElementsByTagName('g');
if (edges && edges.length) {
  for (var i=0;i<edges.length;i++) {
    if (edges[i].id.substr(0,4)=='edge') {
      edges[i].setAttribute('class','edge');
    }
  }
}
]]></script>
        <defs>
                <circle id="rim" cx="0" cy="0" r="7"/>
                <circle id="rim2" cx="0" cy="0" r="3.5"/>
                <g id="zoomPlus">
                        <use xlink:href="#rim" fill="#404040">
                                <set attributeName="fill" to="#808080" begin="zoomplus.mouseover" end="zoomplus.mouseout"/>
                        </use>
                        <path d="M-4,0h8M0,-4v8" fill="none" stroke="white" stroke-width="1.5" pointer-events="none"/>
                </g>
                <g id="zoomMin">
                        <use xlink:href="#rim" fill="#404040">
                                <set attributeName="fill" to="#808080" begin="zoomminus.mouseover" end="zoomminus.mouseout"/>
                        </use>
                        <path d="M-4,0h8" fill="none" stroke="white" stroke-width="1.5" pointer-events="none"/>
                </g>
                <g id="dirArrow">
                        <path fill="none" stroke="white" stroke-width="1.5" d="M0,-3.0v7 M-2.5,-0.5L0,-3.0L2.5,-0.5"/>
                </g>
               <g id="resetDef">
                       <use xlink:href="#rim2" fill="#404040">
                               <set attributeName="fill" to="#808080" begin="reset.mouseover" end="reset.mouseout"/>
                       </use>
               </g>
        </defs>

<script type="text/javascript">
var viewWidth = 1178;
var viewHeight = 714;
var sectionId = 'dynsection-2';
</script>
<script xlink:href="../../svgpan.js"/>
<svg id="graph" class="graph">
<g id="viewport">
<title>joda::cli::CLI::benchmarkQuery</title>
<polygon fill="white" stroke="transparent" points="-4,4 -4,-710.09 1174,-710.09 1174,4 -4,4"/>
<!-- Node1 -->
<g id="node1" class="node">
<title>Node1</title>
<g id="a_node1"><a xlink:title=" ">
<polygon fill="#bfbfbf" stroke="black" points="0,-383 0,-413 137,-413 137,-383 0,-383"/>
<text text-anchor="start" x="8" y="-401" font-family="Helvetica,sans-Serif" font-size="10.00">joda::cli::CLI::benchmark</text>
<text text-anchor="middle" x="68.5" y="-390" font-family="Helvetica,sans-Serif" font-size="10.00">Query</text>
</a>
</g>
</g>
<!-- Node2 -->
<g id="node2" class="node">
<title>Node2</title>
<g id="a_node2"><a xlink:href="../../dc/de9/classQueryPlan.html#ac5a086945e484f07e422bca233cce06b" target="_top" xlink:title=" ">
<polygon fill="white" stroke="black" points="173,-388.5 173,-407.5 313,-407.5 313,-388.5 173,-388.5"/>
<text text-anchor="middle" x="243" y="-395.5" font-family="Helvetica,sans-Serif" font-size="10.00">QueryPlan::executeQuery</text>
</a>
</g>
</g>
<!-- Node1&#45;&gt;Node2 -->
<g id="edge1" class="edge">
<title>Node1&#45;&gt;Node2</title>
<path fill="none" stroke="midnightblue" d="M137.18,-398C145.5,-398 154.07,-398 162.54,-398"/>
<polygon fill="midnightblue" stroke="midnightblue" points="162.81,-401.5 172.81,-398 162.81,-394.5 162.81,-401.5"/>
</g>
<!-- Node7 -->
<g id="node7" class="node">
<title>Node7</title>
<g id="a_node7"><a xlink:href="../../da/d91/classStorageCollection.html#a8eab1f456e898e39c546d49b17374990" target="_top" xlink:title=" ">
<polygon fill="white" stroke="black" points="598,-656 598,-686 707,-686 707,-656 598,-656"/>
<text text-anchor="start" x="606" y="-674" font-family="Helvetica,sans-Serif" font-size="10.00">StorageCollection::</text>
<text text-anchor="middle" x="652.5" y="-663" font-family="Helvetica,sans-Serif" font-size="10.00">getInstance</text>
</a>
</g>
</g>
<!-- Node1&#45;&gt;Node7 -->
<g id="edge45" class="edge">
<title>Node1&#45;&gt;Node7</title>
<path fill="none" stroke="midnightblue" d="M78.09,-413.3C107.67,-464.17 211.03,-627.64 349,-686 428.29,-719.54 529.91,-704.04 592.85,-688.51"/>
<polygon fill="midnightblue" stroke="midnightblue" points="593.78,-691.88 602.61,-686.02 592.05,-685.1 593.78,-691.88"/>
</g>
<!-- Node35 -->
<g id="node35" class="node">
<title>Node35</title>
<g id="a_node35"><a xlink:href="../../da/d91/classStorageCollection.html#aaa119c48c3684dbb42894f4c731a1206" target="_top" xlink:title=" ">
<polygon fill="white" stroke="black" points="188.5,-339 188.5,-369 297.5,-369 297.5,-339 188.5,-339"/>
<text text-anchor="start" x="196.5" y="-357" font-family="Helvetica,sans-Serif" font-size="10.00">StorageCollection::</text>
<text text-anchor="middle" x="243" y="-346" font-family="Helvetica,sans-Serif" font-size="10.00">removeStorage</text>
</a>
</g>
</g>
<!-- Node1&#45;&gt;Node35 -->
<g id="edge46" class="edge">
<title>Node1&#45;&gt;Node35</title>
<path fill="none" stroke="midnightblue" d="M128.38,-382.98C144.47,-378.88 161.97,-374.41 178.31,-370.25"/>
<polygon fill="midnightblue" stroke="midnightblue" points="179.48,-373.56 188.31,-367.7 177.75,-366.78 179.48,-373.56"/>
</g>
<!-- Node3 -->
<g id="node3" class="node">
<title>Node3</title>
<g id="a_node3"><a xlink:href="../../d2/dde/structQueryThreadConfig.html#aded9d0bd5dac77dfe37b8adc48360058" target="_top" xlink:title=" ">
<polygon fill="white" stroke="black" points="383,-612 383,-642 499,-642 499,-612 383,-612"/>
<text text-anchor="start" x="391" y="-630" font-family="Helvetica,sans-Serif" font-size="10.00">QueryThreadConfig::</text>
<text text-anchor="middle" x="441" y="-619" font-family="Helvetica,sans-Serif" font-size="10.00">addExecutor</text>
</a>
</g>
</g>
<!-- Node2&#45;&gt;Node3 -->
<g id="edge2" class="edge">
<title>Node2&#45;&gt;Node3</title>
<path fill="none" stroke="midnightblue" d="M246.1,-407.87C253.64,-440.82 282.5,-548.03 349,-602 356.1,-607.76 364.43,-612.2 373.12,-615.62"/>
<polygon fill="midnightblue" stroke="midnightblue" points="372.04,-618.95 382.64,-618.94 374.35,-612.34 372.04,-618.95"/>
</g>
<!-- Node4 -->
<g id="node4" class="node">
<title>Node4</title>
<g id="a_node4"><a xlink:href="../../dc/de9/classQueryPlan.html#a9277d75dcf13ced118c6c0cfdd349d8f" target="_top" xlink:title=" ">
<polygon fill="white" stroke="black" points="349,-563 349,-593 533,-593 533,-563 349,-563"/>
<text text-anchor="start" x="357" y="-581" font-family="Helvetica,sans-Serif" font-size="10.00">QueryPlan::addGenericBenchmark</text>
<text text-anchor="middle" x="441" y="-570" font-family="Helvetica,sans-Serif" font-size="10.00">Information</text>
</a>
</g>
</g>
<!-- Node2&#45;&gt;Node4 -->
<g id="edge3" class="edge">
<title>Node2&#45;&gt;Node4</title>
<path fill="none" stroke="midnightblue" d="M248.09,-407.68C259.79,-434.18 295.94,-508.55 349,-548 354.47,-552.07 360.52,-555.6 366.83,-558.67"/>
<polygon fill="midnightblue" stroke="midnightblue" points="365.65,-561.98 376.21,-562.84 368.49,-555.58 365.65,-561.98"/>
</g>
<!-- Node5 -->
<g id="node5" class="node">
<title>Node5</title>
<g id="a_node5"><a xlink:href="../../dc/d7d/classBenchmark.html#ac22236ce3203544c99403fdd41f2ff2d" target="_top" xlink:title=" ">
<polygon fill="white" stroke="black" points="591,-527.5 591,-546.5 714,-546.5 714,-527.5 591,-527.5"/>
<text text-anchor="middle" x="652.5" y="-534.5" font-family="Helvetica,sans-Serif" font-size="10.00">Benchmark::addValue</text>
</a>
</g>
</g>
<!-- Node2&#45;&gt;Node5 -->
<g id="edge9" class="edge">
<title>Node2&#45;&gt;Node5</title>
<path fill="none" stroke="midnightblue" d="M249.93,-407.54C264.03,-429.26 301.9,-482.24 349,-505 422.19,-540.37 516.74,-544.77 580.49,-542.66"/>
<polygon fill="midnightblue" stroke="midnightblue" points="580.99,-546.15 590.84,-542.25 580.71,-539.15 580.99,-546.15"/>
</g>
<!-- Node2&#45;&gt;Node7 -->
<g id="edge24" class="edge">
<title>Node2&#45;&gt;Node7</title>
<path fill="none" stroke="midnightblue" d="M244.58,-407.72C247.46,-446.36 263.76,-589.93 349,-651 418.59,-700.86 521.86,-695.44 587.92,-684.85"/>
<polygon fill="midnightblue" stroke="midnightblue" points="588.52,-688.3 597.8,-683.19 587.35,-681.4 588.52,-688.3"/>
</g>
<!-- Node10 -->
<g id="node10" class="node">
<title>Node10</title>
<g id="a_node10"><a xlink:href="../../dc/de9/classQueryPlan.html#aa16031eccff01572dec59f8fb8cef83a" target="_top" xlink:title=" ">
<polygon fill="white" stroke="black" points="380,-448.5 380,-467.5 502,-467.5 502,-448.5 380,-448.5"/>
<text text-anchor="middle" x="441" y="-455.5" font-family="Helvetica,sans-Serif" font-size="10.00">QueryPlan::aggregate</text>
</a>
</g>
</g>
<!-- Node2&#45;&gt;Node10 -->
<g id="edge10" class="edge">
<title>Node2&#45;&gt;Node10</title>
<path fill="none" stroke="midnightblue" d="M270.15,-407.56C291.29,-415.14 321.89,-425.79 349,-434 362.72,-438.15 377.72,-442.28 391.51,-445.91"/>
<polygon fill="midnightblue" stroke="midnightblue" points="390.74,-449.32 401.3,-448.45 392.51,-442.55 390.74,-449.32"/>
</g>
<!-- Node11 -->
<g id="node11" class="node">
<title>Node11</title>
<g id="a_node11"><a xlink:href="../../dc/dea/classTimer.html#a9e7ab8b695c469647044e65dcbaac031" target="_top" xlink:title=" ">
<polygon fill="white" stroke="black" points="586.5,-486.5 586.5,-505.5 718.5,-505.5 718.5,-486.5 586.5,-486.5"/>
<text text-anchor="middle" x="652.5" y="-493.5" font-family="Helvetica,sans-Serif" font-size="10.00">Timer::durationSeconds</text>
</a>
</g>
</g>
<!-- Node2&#45;&gt;Node11 -->
<g id="edge22" class="edge">
<title>Node2&#45;&gt;Node11</title>
<path fill="none" stroke="midnightblue" d="M252.97,-407.77C269.8,-425.36 308.13,-461.9 349,-477 422.76,-504.25 513.48,-506.16 576.23,-503.03"/>
<polygon fill="midnightblue" stroke="midnightblue" points="576.65,-506.51 586.44,-502.46 576.26,-499.52 576.65,-506.51"/>
</g>
<!-- Node15 -->
<g id="node15" class="node">
<title>Node15</title>
<g id="a_node15"><a xlink:href="../../dc/dea/classTimer.html#a63f0eb44b27402196590a03781515dba" target="_top" xlink:title=" ">
<polygon fill="white" stroke="black" points="616.5,-317.5 616.5,-336.5 688.5,-336.5 688.5,-317.5 616.5,-317.5"/>
<text text-anchor="middle" x="652.5" y="-324.5" font-family="Helvetica,sans-Serif" font-size="10.00">Timer::stop</text>
</a>
</g>
</g>
<!-- Node2&#45;&gt;Node15 -->
<g id="edge44" class="edge">
<title>Node2&#45;&gt;Node15</title>
<path fill="none" stroke="midnightblue" d="M277.42,-407.59C333.67,-421.78 449.29,-442.37 533,-400 557.11,-387.8 546.85,-366.48 569,-351 580.11,-343.24 593.72,-337.96 606.66,-334.38"/>
<polygon fill="midnightblue" stroke="midnightblue" points="607.51,-337.78 616.37,-331.97 605.82,-330.99 607.51,-337.78"/>
</g>
<!-- Node20 -->
<g id="node20" class="node">
<title>Node20</title>
<g id="a_node20"><a xlink:href="../../da/db8/classjoda_1_1filesystem_1_1DirectoryRegister.html#ad6c244dafab20276bc4173bcbc71d50d" target="_top" xlink:title=" ">
<polygon fill="white" stroke="black" points="368,-361 368,-391 514,-391 514,-361 368,-361"/>
<text text-anchor="start" x="376" y="-379" font-family="Helvetica,sans-Serif" font-size="10.00">joda::filesystem::Directory</text>
<text text-anchor="middle" x="441" y="-368" font-family="Helvetica,sans-Serif" font-size="10.00">Register::getInstance</text>
</a>
</g>
</g>
<!-- Node2&#45;&gt;Node20 -->
<g id="edge23" class="edge">
<title>Node2&#45;&gt;Node20</title>
<path fill="none" stroke="midnightblue" d="M313.1,-390.24C327.52,-388.63 342.85,-386.9 357.69,-385.24"/>
<polygon fill="midnightblue" stroke="midnightblue" points="358.33,-388.69 367.87,-384.1 357.54,-381.73 358.33,-388.69"/>
</g>
<!-- Node21 -->
<g id="node21" class="node">
<title>Node21</title>
<g id="a_node21"><a xlink:href="../../d8/d55/classjoda_1_1docparsing_1_1ReaderParser.html#a2eae974a88f0e50dbca63b2f83d7750d" target="_top" xlink:title=" ">
<polygon fill="white" stroke="black" points="372.5,-312 372.5,-342 509.5,-342 509.5,-312 372.5,-312"/>
<text text-anchor="start" x="380.5" y="-330" font-family="Helvetica,sans-Serif" font-size="10.00">joda::docparsing::Reader</text>
<text text-anchor="middle" x="441" y="-319" font-family="Helvetica,sans-Serif" font-size="10.00">Parser::getMaxThreads</text>
</a>
</g>
</g>
<!-- Node2&#45;&gt;Node21 -->
<g id="edge25" class="edge">
<title>Node2&#45;&gt;Node21</title>
<path fill="none" stroke="midnightblue" d="M286.15,-388.41C295.24,-385.62 304.63,-382.18 313,-378 330.9,-369.07 331,-359.71 349,-351 353.37,-348.89 357.94,-346.94 362.62,-345.15"/>
<polygon fill="midnightblue" stroke="midnightblue" points="364.09,-348.35 372.34,-341.7 361.75,-341.75 364.09,-348.35"/>
</g>
<!-- Node22 -->
<g id="node22" class="node">
<title>Node22</title>
<g id="a_node22"><a xlink:href="../../da/db8/classjoda_1_1filesystem_1_1DirectoryRegister.html#a6ee5587d4d1920f50d3d9721ead6a6da" target="_top" xlink:title=" ">
<polygon fill="white" stroke="black" points="368,-263 368,-293 514,-293 514,-263 368,-263"/>
<text text-anchor="start" x="376" y="-281" font-family="Helvetica,sans-Serif" font-size="10.00">joda::filesystem::Directory</text>
<text text-anchor="middle" x="441" y="-270" font-family="Helvetica,sans-Serif" font-size="10.00">Register::getUniqueDir</text>
</a>
</g>
</g>
<!-- Node2&#45;&gt;Node22 -->
<g id="edge26" class="edge">
<title>Node2&#45;&gt;Node22</title>
<path fill="none" stroke="midnightblue" d="M295.51,-388.45C301.84,-385.78 307.87,-382.37 313,-378 341.46,-353.77 320.25,-325.88 349,-302 352.09,-299.43 355.43,-297.13 358.94,-295.08"/>
<polygon fill="midnightblue" stroke="midnightblue" points="360.66,-298.13 367.97,-290.46 357.48,-291.9 360.66,-298.13"/>
</g>
<!-- Node23 -->
<g id="node23" class="node">
<title>Node23</title>
<g id="a_node23"><a xlink:href="../../da/d84/classMemoryJoinManager.html#a9384307220ee175ff53abe017e13e184" target="_top" xlink:title=" ">
<polygon fill="white" stroke="black" points="379,-126 379,-156 503,-156 503,-126 379,-126"/>
<text text-anchor="start" x="387" y="-144" font-family="Helvetica,sans-Serif" font-size="10.00">MemoryJoinManager::</text>
<text text-anchor="middle" x="441" y="-133" font-family="Helvetica,sans-Serif" font-size="10.00">loadJoin</text>
</a>
</g>
</g>
<!-- Node2&#45;&gt;Node23 -->
<g id="edge27" class="edge">
<title>Node2&#45;&gt;Node23</title>
<path fill="none" stroke="midnightblue" d="M299.41,-388.35C304.51,-385.67 309.18,-382.28 313,-378 376.89,-306.33 284.25,-235.89 349,-165 354.64,-158.82 361.66,-154.16 369.29,-150.65"/>
<polygon fill="midnightblue" stroke="midnightblue" points="370.8,-153.81 378.84,-146.91 368.25,-147.29 370.8,-153.81"/>
</g>
<!-- Node26 -->
<g id="node26" class="node">
<title>Node26</title>
<g id="a_node26"><a xlink:href="../../d1/df6/classJoinParser.html#acb1407f19bba042e2ef5da32838a755b" target="_top" xlink:title=" ">
<polygon fill="white" stroke="black" points="392,-38.5 392,-57.5 490,-57.5 490,-38.5 392,-38.5"/>
<text text-anchor="middle" x="441" y="-45.5" font-family="Helvetica,sans-Serif" font-size="10.00">JoinParser::parse</text>
</a>
</g>
</g>
<!-- Node2&#45;&gt;Node26 -->
<g id="edge30" class="edge">
<title>Node2&#45;&gt;Node26</title>
<path fill="none" stroke="midnightblue" d="M299.97,-388.37C304.89,-385.68 309.38,-382.29 313,-378 402.85,-271.75 255.17,-169.74 349,-67 357.59,-57.6 369.53,-52.18 381.94,-49.2"/>
<polygon fill="midnightblue" stroke="midnightblue" points="382.77,-52.6 391.93,-47.29 381.45,-45.73 382.77,-52.6"/>
</g>
<!-- Node30 -->
<g id="node30" class="node">
<title>Node30</title>
<g id="a_node30"><a xlink:href="../../d8/d55/classjoda_1_1docparsing_1_1ReaderParser.html#af811423a643fc416776da0a311cc013d" target="_top" xlink:title=" ">
<polygon fill="white" stroke="black" points="372.5,-175 372.5,-205 509.5,-205 509.5,-175 372.5,-175"/>
<text text-anchor="start" x="380.5" y="-193" font-family="Helvetica,sans-Serif" font-size="10.00">joda::docparsing::Reader</text>
<text text-anchor="middle" x="441" y="-182" font-family="Helvetica,sans-Serif" font-size="10.00">Parser::parse</text>
</a>
</g>
</g>
<!-- Node2&#45;&gt;Node30 -->
<g id="edge35" class="edge">
<title>Node2&#45;&gt;Node30</title>
<path fill="none" stroke="midnightblue" d="M298.52,-388.5C303.92,-385.8 308.91,-382.37 313,-378 363.73,-323.87 297.89,-268.77 349,-215 353.12,-210.66 357.92,-207.06 363.12,-204.06"/>
<polygon fill="midnightblue" stroke="midnightblue" points="364.78,-207.14 372.19,-199.56 361.67,-200.86 364.78,-207.14"/>
</g>
<!-- Node33 -->
<g id="node33" class="node">
<title>Node33</title>
<g id="a_node33"><a xlink:href="../../da/db8/classjoda_1_1filesystem_1_1DirectoryRegister.html#a642377350d6f8f06d873cd3be8e1b34c" target="_top" xlink:title=" ">
<polygon fill="white" stroke="black" points="368,-77 368,-107 514,-107 514,-77 368,-77"/>
<text text-anchor="start" x="376" y="-95" font-family="Helvetica,sans-Serif" font-size="10.00">joda::filesystem::Directory</text>
<text text-anchor="middle" x="441" y="-84" font-family="Helvetica,sans-Serif" font-size="10.00">Register::registerDirectory</text>
</a>
</g>
</g>
<!-- Node2&#45;&gt;Node33 -->
<g id="edge41" class="edge">
<title>Node2&#45;&gt;Node33</title>
<path fill="none" stroke="midnightblue" d="M299.54,-388.47C304.62,-385.77 309.25,-382.34 313,-378 389.85,-289.06 271.08,-204 349,-116 351.92,-112.7 355.24,-109.82 358.84,-107.33"/>
<polygon fill="midnightblue" stroke="midnightblue" points="360.83,-110.22 367.69,-102.16 357.29,-104.18 360.83,-110.22"/>
</g>
<!-- Node34 -->
<g id="node34" class="node">
<title>Node34</title>
<g id="a_node34"><a xlink:href="../../dc/dea/classTimer.html#a3a8b5272198d029779dc9302a54305a8" target="_top" xlink:title=" ">
<polygon fill="white" stroke="black" points="404,-224.5 404,-243.5 478,-243.5 478,-224.5 404,-224.5"/>
<text text-anchor="middle" x="441" y="-231.5" font-family="Helvetica,sans-Serif" font-size="10.00">Timer::start</text>
</a>
</g>
</g>
<!-- Node2&#45;&gt;Node34 -->
<g id="edge42" class="edge">
<title>Node2&#45;&gt;Node34</title>
<path fill="none" stroke="midnightblue" d="M297.91,-388.4C303.49,-385.73 308.68,-382.33 313,-378 353.85,-337.08 306.62,-292.33 349,-253 360.94,-241.92 377.6,-236.63 393.41,-234.27"/>
<polygon fill="midnightblue" stroke="midnightblue" points="394.07,-237.72 403.62,-233.12 393.29,-230.76 394.07,-237.72"/>
</g>
<!-- Node4&#45;&gt;Node5 -->
<g id="edge4" class="edge">
<title>Node4&#45;&gt;Node5</title>
<path fill="none" stroke="midnightblue" d="M518.82,-562.97C543.23,-558.19 569.83,-552.98 592.76,-548.5"/>
<polygon fill="midnightblue" stroke="midnightblue" points="593.54,-551.91 602.68,-546.55 592.19,-545.04 593.54,-551.91"/>
</g>
<!-- Node4&#45;&gt;Node7 -->
<g id="edge6" class="edge">
<title>Node4&#45;&gt;Node7</title>
<path fill="none" stroke="midnightblue" d="M507.82,-593.09C516.41,-595.72 525,-598.69 533,-602 564.6,-615.08 598.04,-635.21 621.32,-650.35"/>
<polygon fill="midnightblue" stroke="midnightblue" points="619.44,-653.31 629.71,-655.89 623.29,-647.46 619.44,-653.31"/>
</g>
<!-- Node8 -->
<g id="node8" class="node">
<title>Node8</title>
<g id="a_node8"><a xlink:href="../../d5/da6/classMemoryUtility.html#a32c182de948c197cb2a0dc6e77d3ba50" target="_top" xlink:title=" ">
<polygon fill="white" stroke="black" points="569,-571.5 569,-590.5 736,-590.5 736,-571.5 569,-571.5"/>
<text text-anchor="middle" x="652.5" y="-578.5" font-family="Helvetica,sans-Serif" font-size="10.00">MemoryUtility::procRamUsage</text>
</a>
</g>
</g>
<!-- Node4&#45;&gt;Node8 -->
<g id="edge7" class="edge">
<title>Node4&#45;&gt;Node8</title>
<path fill="none" stroke="midnightblue" d="M533.28,-579.31C541.67,-579.43 550.17,-579.55 558.58,-579.67"/>
<polygon fill="midnightblue" stroke="midnightblue" points="558.71,-583.17 568.76,-579.82 558.81,-576.17 558.71,-583.17"/>
</g>
<!-- Node6 -->
<g id="node6" class="node">
<title>Node6</title>
<g id="a_node6"><a xlink:href="../../dc/d7d/classBenchmark.html#ac396492508c31b10c7c015ec60fd8c70" target="_top" xlink:title=" ">
<polygon fill="white" stroke="black" points="800.5,-530.5 800.5,-549.5 934.5,-549.5 934.5,-530.5 800.5,-530.5"/>
<text text-anchor="middle" x="867.5" y="-537.5" font-family="Helvetica,sans-Serif" font-size="10.00">Benchmark::addValueAt</text>
</a>
</g>
</g>
<!-- Node5&#45;&gt;Node6 -->
<g id="edge5" class="edge">
<title>Node5&#45;&gt;Node6</title>
<path fill="none" stroke="midnightblue" d="M714.25,-537.86C737.92,-538.19 765.31,-538.57 790.28,-538.93"/>
<polygon fill="midnightblue" stroke="midnightblue" points="790.4,-542.43 800.44,-539.07 790.49,-535.43 790.4,-542.43"/>
</g>
<!-- Node9 -->
<g id="node9" class="node">
<title>Node9</title>
<g id="a_node9"><a xlink:href="../../d8/de6/classMemoryUtility_1_1MemorySize.html#acd361f01fb75b6de07861540e42c8ba3" target="_top" xlink:title=" ">
<polygon fill="white" stroke="black" points="791,-569 791,-599 944,-599 944,-569 791,-569"/>
<text text-anchor="start" x="799" y="-587" font-family="Helvetica,sans-Serif" font-size="10.00">MemoryUtility::MemorySize</text>
<text text-anchor="middle" x="867.5" y="-576" font-family="Helvetica,sans-Serif" font-size="10.00">::convertToBytes</text>
</a>
</g>
</g>
<!-- Node8&#45;&gt;Node9 -->
<g id="edge8" class="edge">
<title>Node8&#45;&gt;Node9</title>
<path fill="none" stroke="midnightblue" d="M736.16,-582.16C750.79,-582.37 766.05,-582.59 780.77,-582.79"/>
<polygon fill="midnightblue" stroke="midnightblue" points="780.8,-586.29 790.85,-582.93 780.9,-579.29 780.8,-586.29"/>
</g>
<!-- Node10&#45;&gt;Node5 -->
<g id="edge11" class="edge">
<title>Node10&#45;&gt;Node5</title>
<path fill="none" stroke="midnightblue" d="M460.97,-467.68C485.45,-479.9 529.6,-501.01 569,-515 579.06,-518.57 589.98,-521.87 600.49,-524.78"/>
<polygon fill="midnightblue" stroke="midnightblue" points="599.83,-528.22 610.4,-527.43 601.64,-521.46 599.83,-528.22"/>
</g>
<!-- Node10&#45;&gt;Node11 -->
<g id="edge12" class="edge">
<title>Node10&#45;&gt;Node11</title>
<path fill="none" stroke="midnightblue" d="M494.6,-467.54C523.24,-472.73 558.86,-479.2 588.92,-484.65"/>
<polygon fill="midnightblue" stroke="midnightblue" points="588.42,-488.12 598.88,-486.46 589.67,-481.23 588.42,-488.12"/>
</g>
<!-- Node12 -->
<g id="node12" class="node">
<title>Node12</title>
<g id="a_node12"><a xlink:href="../../d1/d30/structJODA__SHARED__QUEUE.html#aa46e31bf2003b52b17f54522a8ec2e1c" target="_top" xlink:title=" ">
<polygon fill="white" stroke="black" points="1018,-361 1018,-391 1151,-391 1151,-361 1018,-361"/>
<text text-anchor="start" x="1026" y="-379" font-family="Helvetica,sans-Serif" font-size="10.00">JODA_SHARED_QUEUE::</text>
<text text-anchor="middle" x="1084.5" y="-368" font-family="Helvetica,sans-Serif" font-size="10.00">isFinished</text>
</a>
</g>
</g>
<!-- Node10&#45;&gt;Node12 -->
<g id="edge13" class="edge">
<title>Node10&#45;&gt;Node12</title>
<path fill="none" stroke="midnightblue" d="M475.42,-448.48C500.88,-441.56 536.9,-432.48 569,-427 723.62,-400.6 906.88,-386.48 1007.64,-380.17"/>
<polygon fill="midnightblue" stroke="midnightblue" points="1007.96,-383.66 1017.73,-379.55 1007.53,-376.67 1007.96,-383.66"/>
</g>
<!-- Node13 -->
<g id="node13" class="node">
<title>Node13</title>
<g id="a_node13"><a xlink:href="../../d1/d30/structJODA__SHARED__QUEUE.html#a85346f08f256c2b939e9fef99004d2cf" target="_top" xlink:title=" ">
<polygon fill="white" stroke="black" points="801,-337 801,-367 934,-367 934,-337 801,-337"/>
<text text-anchor="start" x="809" y="-355" font-family="Helvetica,sans-Serif" font-size="10.00">JODA_SHARED_QUEUE::</text>
<text text-anchor="middle" x="867.5" y="-344" font-family="Helvetica,sans-Serif" font-size="10.00">retrieve</text>
</a>
</g>
</g>
<!-- Node10&#45;&gt;Node13 -->
<g id="edge14" class="edge">
<title>Node10&#45;&gt;Node13</title>
<path fill="none" stroke="midnightblue" d="M483.78,-448.38C499.95,-443.51 518.11,-436.55 533,-427 552.58,-414.44 548.24,-399.5 569,-389 638.3,-353.97 727.87,-347.2 790.54,-347.65"/>
<polygon fill="midnightblue" stroke="midnightblue" points="790.71,-351.16 800.75,-347.79 790.8,-344.16 790.71,-351.16"/>
</g>
<!-- Node10&#45;&gt;Node15 -->
<g id="edge17" class="edge">
<title>Node10&#45;&gt;Node15</title>
<path fill="none" stroke="midnightblue" d="M502.1,-450.36C513.28,-446.77 524.2,-441.56 533,-434 563.5,-407.8 538.83,-377.58 569,-351 579.35,-341.88 592.98,-336.22 606.17,-332.71"/>
<polygon fill="midnightblue" stroke="midnightblue" points="607.15,-336.07 616.11,-330.42 605.58,-329.25 607.15,-336.07"/>
</g>
<!-- Node17 -->
<g id="node17" class="node">
<title>Node17</title>
<g id="a_node17"><a xlink:href="../../d0/d07/classjoda_1_1query_1_1IAggregator.html#ae929d1c05e781ca45194ba54e959ed80" target="_top" xlink:title=" ">
<polygon fill="white" stroke="black" points="585.5,-437 585.5,-467 719.5,-467 719.5,-437 585.5,-437"/>
<text text-anchor="start" x="593.5" y="-455" font-family="Helvetica,sans-Serif" font-size="10.00">joda::query::IAggregator</text>
<text text-anchor="middle" x="652.5" y="-444" font-family="Helvetica,sans-Serif" font-size="10.00">::toString</text>
</a>
</g>
</g>
<!-- Node10&#45;&gt;Node17 -->
<g id="edge19" class="edge">
<title>Node10&#45;&gt;Node17</title>
<path fill="none" stroke="midnightblue" d="M502.03,-456.28C524.78,-455.63 550.99,-454.88 575.05,-454.19"/>
<polygon fill="midnightblue" stroke="midnightblue" points="575.31,-457.68 585.21,-453.9 575.11,-450.69 575.31,-457.68"/>
</g>
<!-- Node13&#45;&gt;Node12 -->
<g id="edge15" class="edge">
<title>Node13&#45;&gt;Node12</title>
<path fill="none" stroke="midnightblue" d="M934.18,-359.33C957.41,-361.92 983.73,-364.86 1007.73,-367.54"/>
<polygon fill="midnightblue" stroke="midnightblue" points="1007.53,-371.04 1017.86,-368.67 1008.31,-364.08 1007.53,-371.04"/>
</g>
<!-- Node14 -->
<g id="node14" class="node">
<title>Node14</title>
<g id="a_node14"><a xlink:href="../../d8/dc8/classmoodycamel_1_1ConcurrentQueue.html#a1895c8a6120aef578fe01db53879517b" target="_top" xlink:title=" ">
<polygon fill="white" stroke="black" points="999,-312 999,-342 1170,-342 1170,-312 999,-312"/>
<text text-anchor="start" x="1007" y="-330" font-family="Helvetica,sans-Serif" font-size="10.00">moodycamel::ConcurrentQueue</text>
<text text-anchor="middle" x="1084.5" y="-319" font-family="Helvetica,sans-Serif" font-size="10.00">::try_dequeue</text>
</a>
</g>
</g>
<!-- Node13&#45;&gt;Node14 -->
<g id="edge16" class="edge">
<title>Node13&#45;&gt;Node14</title>
<path fill="none" stroke="midnightblue" d="M934.18,-344.36C951.37,-342.36 970.25,-340.17 988.63,-338.03"/>
<polygon fill="midnightblue" stroke="midnightblue" points="989.25,-341.48 998.78,-336.85 988.44,-334.53 989.25,-341.48"/>
</g>
<!-- Node16 -->
<g id="node16" class="node">
<title>Node16</title>
<g id="a_node16"><a xlink:href="../../dc/dea/classTimer.html#a0fae1afda64fd39330f8fac6a550d514" target="_top" xlink:title=" ">
<polygon fill="white" stroke="black" points="832,-285.5 832,-304.5 903,-304.5 903,-285.5 832,-285.5"/>
<text text-anchor="middle" x="867.5" y="-292.5" font-family="Helvetica,sans-Serif" font-size="10.00">Timer::now</text>
</a>
</g>
</g>
<!-- Node15&#45;&gt;Node16 -->
<g id="edge18" class="edge">
<title>Node15&#45;&gt;Node16</title>
<path fill="none" stroke="midnightblue" d="M688.67,-321.72C725.2,-316.23 782.43,-307.63 822.06,-301.68"/>
<polygon fill="midnightblue" stroke="midnightblue" points="822.61,-305.13 831.98,-300.19 821.57,-298.21 822.61,-305.13"/>
</g>
<!-- Node18 -->
<g id="node18" class="node">
<title>Node18</title>
<g id="a_node18"><a xlink:href="../../d0/d07/classjoda_1_1query_1_1IAggregator.html#aebc573da9756fc6f3eb3b0bbeafc4a4b" target="_top" xlink:title=" ">
<polygon fill="white" stroke="black" points="800.5,-432 800.5,-462 934.5,-462 934.5,-432 800.5,-432"/>
<text text-anchor="start" x="808.5" y="-450" font-family="Helvetica,sans-Serif" font-size="10.00">joda::query::IAggregator</text>
<text text-anchor="middle" x="867.5" y="-439" font-family="Helvetica,sans-Serif" font-size="10.00">::getName</text>
</a>
</g>
</g>
<!-- Node17&#45;&gt;Node18 -->
<g id="edge20" class="edge">
<title>Node17&#45;&gt;Node18</title>
<path fill="none" stroke="midnightblue" d="M719.73,-450.45C742.07,-449.92 767.18,-449.33 790.23,-448.79"/>
<polygon fill="midnightblue" stroke="midnightblue" points="790.4,-452.29 800.31,-448.55 790.23,-445.29 790.4,-452.29"/>
</g>
<!-- Node19 -->
<g id="node19" class="node">
<title>Node19</title>
<g id="a_node19"><a xlink:href="../../d0/d07/classjoda_1_1query_1_1IAggregator.html#af0600bc509218ae291bf20e775b1e5e1" target="_top" xlink:title=" ">
<polygon fill="white" stroke="black" points="772,-481 772,-511 963,-511 963,-481 772,-481"/>
<text text-anchor="start" x="780" y="-499" font-family="Helvetica,sans-Serif" font-size="10.00">joda::query::IAggregator</text>
<text text-anchor="middle" x="867.5" y="-488" font-family="Helvetica,sans-Serif" font-size="10.00">::getParameterStringRepresentation</text>
</a>
</g>
</g>
<!-- Node17&#45;&gt;Node19 -->
<g id="edge21" class="edge">
<title>Node17&#45;&gt;Node19</title>
<path fill="none" stroke="midnightblue" d="M719.73,-465.68C739.97,-469.86 762.49,-474.51 783.69,-478.89"/>
<polygon fill="midnightblue" stroke="midnightblue" points="783.14,-482.35 793.64,-480.95 784.56,-475.5 783.14,-482.35"/>
</g>
<!-- Node24 -->
<g id="node24" class="node">
<title>Node24</title>
<g id="a_node24"><a xlink:href="../../d2/dcc/classJSONStorage.html#a3ed67d789555d651186c565ce0ee0e3f" target="_top" xlink:title=" ">
<polygon fill="white" stroke="black" points="569,-131.5 569,-150.5 736,-150.5 736,-131.5 569,-131.5"/>
<text text-anchor="middle" x="652.5" y="-138.5" font-family="Helvetica,sans-Serif" font-size="10.00">JSONStorage::insertDocuments</text>
</a>
</g>
</g>
<!-- Node23&#45;&gt;Node24 -->
<g id="edge28" class="edge">
<title>Node23&#45;&gt;Node24</title>
<path fill="none" stroke="midnightblue" d="M503.16,-141C520.56,-141 539.92,-141 558.75,-141"/>
<polygon fill="midnightblue" stroke="midnightblue" points="558.84,-144.5 568.84,-141 558.84,-137.5 558.84,-144.5"/>
</g>
<!-- Node25 -->
<g id="node25" class="node">
<title>Node25</title>
<g id="a_node25"><a xlink:href="../../d6/de9/classJSONContainer.html#aff361f24e550af9c8898fdb6b7d893e6" target="_top" xlink:title=" ">
<polygon fill="white" stroke="black" points="811,-170.5 811,-189.5 924,-189.5 924,-170.5 811,-170.5"/>
<text text-anchor="middle" x="867.5" y="-177.5" font-family="Helvetica,sans-Serif" font-size="10.00">JSONContainer::size</text>
</a>
</g>
</g>
<!-- Node24&#45;&gt;Node25 -->
<g id="edge29" class="edge">
<title>Node24&#45;&gt;Node25</title>
<path fill="none" stroke="midnightblue" d="M705.61,-150.54C735.5,-156.01 773.21,-162.92 804.61,-168.67"/>
<polygon fill="midnightblue" stroke="midnightblue" points="804.1,-172.13 814.56,-170.49 805.36,-165.25 804.1,-172.13"/>
</g>
<!-- Node26&#45;&gt;Node24 -->
<g id="edge34" class="edge">
<title>Node26&#45;&gt;Node24</title>
<path fill="none" stroke="midnightblue" d="M490.34,-51.43C504.91,-54.15 520.38,-58.88 533,-67 555.73,-81.62 546.94,-100.39 569,-116 575.94,-120.91 583.86,-124.87 591.98,-128.06"/>
<polygon fill="midnightblue" stroke="midnightblue" points="590.97,-131.42 601.56,-131.47 593.31,-124.82 590.97,-131.42"/>
</g>
<!-- Node27 -->
<g id="node27" class="node">
<title>Node27</title>
<g id="a_node27"><a xlink:href="../../db/de7/classFileJoinManager.html#a6b5420c569e92016dcbfcf04932e4d30" target="_top" xlink:title=" ">
<polygon fill="white" stroke="black" points="575,-0.5 575,-19.5 730,-19.5 730,-0.5 575,-0.5"/>
<text text-anchor="middle" x="652.5" y="-7.5" font-family="Helvetica,sans-Serif" font-size="10.00">FileJoinManager::getBaseDir</text>
</a>
</g>
</g>
<!-- Node26&#45;&gt;Node27 -->
<g id="edge31" class="edge">
<title>Node26&#45;&gt;Node27</title>
<path fill="none" stroke="midnightblue" d="M490.06,-39.28C519.39,-33.96 557.19,-27.11 588.84,-21.37"/>
<polygon fill="midnightblue" stroke="midnightblue" points="589.67,-24.77 598.88,-19.54 588.42,-17.88 589.67,-24.77"/>
</g>
<!-- Node28 -->
<g id="node28" class="node">
<title>Node28</title>
<g id="a_node28"><a xlink:href="../../d8/d9a/classjoda_1_1filesystem_1_1DirectoryFileScanner.html#aace017254d35bc695ff5f8f441bdf759" target="_top" xlink:title=" ">
<polygon fill="white" stroke="black" points="579.5,-77 579.5,-107 725.5,-107 725.5,-77 579.5,-77"/>
<text text-anchor="start" x="587.5" y="-95" font-family="Helvetica,sans-Serif" font-size="10.00">joda::filesystem::Directory</text>
<text text-anchor="middle" x="652.5" y="-84" font-family="Helvetica,sans-Serif" font-size="10.00">FileScanner::getFilesInDir</text>
</a>
</g>
</g>
<!-- Node26&#45;&gt;Node28 -->
<g id="edge32" class="edge">
<title>Node26&#45;&gt;Node28</title>
<path fill="none" stroke="midnightblue" d="M487.83,-57.55C502.28,-60.57 518.31,-63.92 533,-67 545.1,-69.54 557.89,-72.23 570.41,-74.87"/>
<polygon fill="midnightblue" stroke="midnightblue" points="569.88,-78.33 580.38,-76.97 571.32,-71.48 569.88,-78.33"/>
</g>
<!-- Node29 -->
<g id="node29" class="node">
<title>Node29</title>
<g id="a_node29"><a xlink:href="../../d0/d3a/classJoinManager.html#a04430b335027df7bb5cf5f41e880cbf2" target="_top" xlink:title=" ">
<polygon fill="white" stroke="black" points="588.5,-38.5 588.5,-57.5 716.5,-57.5 716.5,-38.5 588.5,-38.5"/>
<text text-anchor="middle" x="652.5" y="-45.5" font-family="Helvetica,sans-Serif" font-size="10.00">JoinManager::getName</text>
</a>
</g>
</g>
<!-- Node26&#45;&gt;Node29 -->
<g id="edge33" class="edge">
<title>Node26&#45;&gt;Node29</title>
<path fill="none" stroke="midnightblue" d="M490.06,-48C516.11,-48 548.84,-48 578.01,-48"/>
<polygon fill="midnightblue" stroke="midnightblue" points="578.16,-51.5 588.16,-48 578.16,-44.5 578.16,-51.5"/>
</g>
<!-- Node31 -->
<g id="node31" class="node">
<title>Node31</title>
<g id="a_node31"><a xlink:href="../../dd/d1e/structJODA__CONTAINER__QUEUE_3_01JODA__JSON__CONTAINER__FLAG_01_4.html#a8fa9c7590cd168dc44aa135e6948eeb6" target="_top" xlink:title=" ">
<polygon fill="white" stroke="black" points="580.5,-169.5 580.5,-210.5 724.5,-210.5 724.5,-169.5 580.5,-169.5"/>
<text text-anchor="start" x="588.5" y="-198.5" font-family="Helvetica,sans-Serif" font-size="10.00">JODA_CONTAINER_QUEUE</text>
<text text-anchor="start" x="588.5" y="-187.5" font-family="Helvetica,sans-Serif" font-size="10.00">&lt; JODA_JSON_CONTAINER</text>
<text text-anchor="middle" x="652.5" y="-176.5" font-family="Helvetica,sans-Serif" font-size="10.00">_FLAG &gt;::getQueue</text>
</a>
</g>
</g>
<!-- Node30&#45;&gt;Node31 -->
<g id="edge36" class="edge">
<title>Node30&#45;&gt;Node31</title>
<path fill="none" stroke="midnightblue" d="M509.73,-190C529.06,-190 550.32,-190 570.36,-190"/>
<polygon fill="midnightblue" stroke="midnightblue" points="570.4,-193.5 580.4,-190 570.4,-186.5 570.4,-193.5"/>
</g>
<!-- Node32 -->
<g id="node32" class="node">
<title>Node32</title>
<g id="a_node32"><a xlink:href="../../d2/dcc/classJSONStorage.html#a21a6cf9c042c26be09da293387871cb0" target="_top" xlink:title=" ">
<polygon fill="white" stroke="black" points="569,-230 569,-260 736,-260 736,-230 569,-230"/>
<text text-anchor="start" x="577" y="-248" font-family="Helvetica,sans-Serif" font-size="10.00">JSONStorage::insertDocuments</text>
<text text-anchor="middle" x="652.5" y="-237" font-family="Helvetica,sans-Serif" font-size="10.00">Queue</text>
</a>
</g>
</g>
<!-- Node30&#45;&gt;Node32 -->
<g id="edge37" class="edge">
<title>Node30&#45;&gt;Node32</title>
<path fill="none" stroke="midnightblue" d="M499.25,-205.03C525.57,-211.94 556.98,-220.19 584.41,-227.39"/>
<polygon fill="midnightblue" stroke="midnightblue" points="583.76,-230.84 594.32,-229.99 585.54,-224.06 583.76,-230.84"/>
</g>
<!-- Node32&#45;&gt;Node12 -->
<g id="edge38" class="edge">
<title>Node32&#45;&gt;Node12</title>
<path fill="none" stroke="midnightblue" d="M736.32,-232.48C803.4,-226.89 897.23,-229.88 963,-276 993.27,-297.23 970.85,-327.03 999,-351 1002.06,-353.6 1005.38,-355.94 1008.87,-358.03"/>
<polygon fill="midnightblue" stroke="midnightblue" points="1007.39,-361.2 1017.87,-362.74 1010.63,-355 1007.39,-361.2"/>
</g>
<!-- Node32&#45;&gt;Node13 -->
<g id="edge39" class="edge">
<title>Node32&#45;&gt;Node13</title>
<path fill="none" stroke="midnightblue" d="M677,-260.05C700.52,-274.78 738,-297.37 772,-314 785.94,-320.82 801.43,-327.42 815.76,-333.17"/>
<polygon fill="midnightblue" stroke="midnightblue" points="814.88,-336.58 825.47,-337 817.45,-330.07 814.88,-336.58"/>
</g>
<!-- Node32&#45;&gt;Node25 -->
<g id="edge40" class="edge">
<title>Node32&#45;&gt;Node25</title>
<path fill="none" stroke="midnightblue" d="M703.24,-229.95C714.04,-226.68 725.41,-223.23 736,-220 766.02,-210.85 799.9,-200.47 825.61,-192.57"/>
<polygon fill="midnightblue" stroke="midnightblue" points="826.86,-195.85 835.39,-189.56 824.81,-189.15 826.86,-195.85"/>
</g>
<!-- Node34&#45;&gt;Node16 -->
<g id="edge43" class="edge">
<title>Node34&#45;&gt;Node16</title>
<path fill="none" stroke="midnightblue" d="M478.33,-239.76C495.18,-242.89 515.34,-247.3 533,-253 549.66,-258.38 552.05,-264.62 569,-269 656.61,-291.62 763.03,-295.48 821.9,-295.65"/>
<polygon fill="midnightblue" stroke="midnightblue" points="821.98,-299.15 831.97,-295.64 821.97,-292.15 821.98,-299.15"/>
</g>
</g>
</svg>
        <g id="navigator" transform="translate(0 0)" fill="#404254">
                <rect fill="#f2f5e9" fill-opacity="0.5" stroke="#606060" stroke-width=".5" x="0" y="0" width="60" height="60"/>
                <use id="zoomplus" xlink:href="#zoomPlus" x="17" y="9" onmousedown="handleZoom(evt,'in')"/>
                <use id="zoomminus" xlink:href="#zoomMin" x="42" y="9" onmousedown="handleZoom(evt,'out')"/>
                <use id="reset" xlink:href="#resetDef" x="30" y="36" onmousedown="handleReset()"/>
                <g id="arrowUp" xlink:href="#dirArrow" transform="translate(30 24)" onmousedown="handlePan(0,-1)">
                  <use xlink:href="#rim" fill="#404040">
                        <set attributeName="fill" to="#808080" begin="arrowUp.mouseover" end="arrowUp.mouseout"/>
                  </use>
                  <path fill="none" stroke="white" stroke-width="1.5" d="M0,-3.0v7 M-2.5,-0.5L0,-3.0L2.5,-0.5"/>
                </g>
                <g id="arrowRight" xlink:href="#dirArrow" transform="rotate(90) translate(36 -43)" onmousedown="handlePan(1,0)">
                  <use xlink:href="#rim" fill="#404040">
                        <set attributeName="fill" to="#808080" begin="arrowRight.mouseover" end="arrowRight.mouseout"/>
                  </use>
                  <path fill="none" stroke="white" stroke-width="1.5" d="M0,-3.0v7 M-2.5,-0.5L0,-3.0L2.5,-0.5"/>
                </g>
                <g id="arrowDown" xlink:href="#dirArrow" transform="rotate(180) translate(-30 -48)" onmousedown="handlePan(0,1)">
                  <use xlink:href="#rim" fill="#404040">
                        <set attributeName="fill" to="#808080" begin="arrowDown.mouseover" end="arrowDown.mouseout"/>
                  </use>
                  <path fill="none" stroke="white" stroke-width="1.5" d="M0,-3.0v7 M-2.5,-0.5L0,-3.0L2.5,-0.5"/>
                </g>
                <g id="arrowLeft" xlink:href="#dirArrow" transform="rotate(270) translate(-36 17)" onmousedown="handlePan(-1,0)">
                  <use xlink:href="#rim" fill="#404040">
                        <set attributeName="fill" to="#808080" begin="arrowLeft.mouseover" end="arrowLeft.mouseout"/>
                  </use>
                  <path fill="none" stroke="white" stroke-width="1.5" d="M0,-3.0v7 M-2.5,-0.5L0,-3.0L2.5,-0.5"/>
                </g>
        </g>
        <svg viewBox="0 0 15 15" width="100%" height="30px" preserveAspectRatio="xMaxYMin meet">
         <g id="arrow_out" transform="scale(0.3 0.3)">
          <a xlink:href="classjoda_1_1cli_1_1CLI_a5f1d2148a798cefa6391ae1f6b1142ba_cgraph_org.svg" target="_base">
           <rect id="button" ry="5" rx="5" y="6" x="6" height="38" width="38"
                fill="#f2f5e9" fill-opacity="0.5" stroke="#606060" stroke-width="1.0"/>
           <path id="arrow"
             d="M 11.500037,31.436501 C 11.940474,20.09759 22.043105,11.32322 32.158766,21.979434 L 37.068811,17.246167 C 37.068811,17.246167 37.088388,32 37.088388,32 L 22.160133,31.978069 C 22.160133,31.978069 26.997745,27.140456 26.997745,27.140456 C 18.528582,18.264221 13.291696,25.230495 11.500037,31.436501 z"
             style="fill:#404040;"/>
          </a>
         </g>
        </svg>
</svg>
