<?xml version="1.0" encoding="UTF-8" standalone="no"?>
<!DOCTYPE svg PUBLIC "-//W3C//DTD SVG 1.1//EN"
 "http://www.w3.org/Graphics/SVG/1.1/DTD/svg11.dtd">
<!-- Generated by graphviz version 2.43.0 (0)
 -->
<!-- Title: DummyObject Pages: 1 -->
<svg width="545pt" height="260pt"
 viewBox="0.00 0.00 544.73 260.00" xmlns="http://www.w3.org/2000/svg" xmlns:xlink="http://www.w3.org/1999/xlink">
<g id="graph0" class="graph" transform="scale(1 1) rotate(0) translate(4 256)">
<title>DummyObject</title>
<polygon fill="white" stroke="transparent" points="-4,4 -4,-256 540.73,-256 540.73,4 -4,4"/>
<!-- Node1 -->
<g id="node1" class="node">
<title>Node1</title>
<g id="a_node1"><a xlink:title=" ">
<polygon fill="#bfbfbf" stroke="black" points="56.23,-84 56.23,-103 143.23,-103 143.23,-84 56.23,-84"/>
<text text-anchor="middle" x="99.73" y="-91" font-family="Helvetica,sans-Serif" font-size="10.00">DummyObject</text>
</a>
</g>
</g>
<!-- Node2 -->
<g id="node2" class="node">
<title>Node2</title>
<g id="a_node2"><a xlink:href="../../d4/df5/classjoda_1_1query_1_1IValueProvider.html" target="_top" xlink:title=" ">
<polygon fill="white" stroke="black" points="26.23,-165.5 26.23,-184.5 173.23,-184.5 173.23,-165.5 26.23,-165.5"/>
<text text-anchor="middle" x="99.73" y="-172.5" font-family="Helvetica,sans-Serif" font-size="10.00">joda::query::IValueProvider</text>
</a>
</g>
</g>
<!-- Node2&#45;&gt;Node1 -->
<g id="edge1" class="edge">
<title>Node2&#45;&gt;Node1</title>
<path fill="none" stroke="midnightblue" d="M99.73,-155.41C99.73,-138.95 99.73,-115.66 99.73,-103.19"/>
<polygon fill="midnightblue" stroke="midnightblue" points="96.23,-155.49 99.73,-165.49 103.23,-155.49 96.23,-155.49"/>
</g>
<!-- Node4 -->
<g id="node4" class="node">
<title>Node4</title>
<g id="a_node4"><a xlink:title=" ">
<polygon fill="white" stroke="#bfbfbf" points="161.23,-78.5 161.23,-108.5 298.23,-108.5 298.23,-78.5 161.23,-78.5"/>
<text text-anchor="start" x="169.23" y="-96.5" font-family="Helvetica,sans-Serif" font-size="10.00">std::unique_ptr&lt; joda</text>
<text text-anchor="middle" x="229.73" y="-85.5" font-family="Helvetica,sans-Serif" font-size="10.00">::query::IValueProvider &gt;</text>
</a>
</g>
</g>
<!-- Node2&#45;&gt;Node4 -->
<g id="edge4" class="edge">
<title>Node2&#45;&gt;Node4</title>
<path fill="none" stroke="#9a32cd" stroke-dasharray="5,2" d="M122.3,-160.2C145.96,-145.73 182.96,-123.1 206.77,-108.54"/>
<polygon fill="#9a32cd" stroke="#9a32cd" points="120.35,-157.29 113.64,-165.49 124,-163.26 120.35,-157.29"/>
<text text-anchor="middle" x="185.23" y="-134.5" font-family="Helvetica,sans-Serif" font-size="10.00"> ptr</text>
</g>
<!-- Node3 -->
<g id="node3" class="node">
<title>Node3</title>
<g id="a_node3"><a xlink:title=" ">
<polygon fill="white" stroke="#bfbfbf" points="129.73,-0.5 129.73,-30.5 329.73,-30.5 329.73,-0.5 129.73,-0.5"/>
<text text-anchor="start" x="137.73" y="-18.5" font-family="Helvetica,sans-Serif" font-size="10.00">std::vector&lt; std::unique</text>
<text text-anchor="middle" x="229.73" y="-7.5" font-family="Helvetica,sans-Serif" font-size="10.00">_ptr&lt; joda::query::IValueProvider &gt; &gt;</text>
</a>
</g>
</g>
<!-- Node3&#45;&gt;Node2 -->
<g id="edge2" class="edge">
<title>Node3&#45;&gt;Node2</title>
<path fill="none" stroke="#9a32cd" stroke-dasharray="5,2" d="M127.34,-32.43C76.22,-42.69 22.04,-57.89 6.73,-78 -20.12,-113.26 44.86,-149.34 79.59,-165.4"/>
<polygon fill="#9a32cd" stroke="#9a32cd" points="128.03,-35.86 137.17,-30.5 126.68,-28.99 128.03,-35.86"/>
<text text-anchor="middle" x="26.73" y="-91" font-family="Helvetica,sans-Serif" font-size="10.00"> params</text>
</g>
<!-- Node4&#45;&gt;Node3 -->
<g id="edge3" class="edge">
<title>Node4&#45;&gt;Node3</title>
<path fill="none" stroke="#9a32cd" stroke-dasharray="5,2" d="M229.73,-68.09C229.73,-55.76 229.73,-41.22 229.73,-30.73"/>
<polygon fill="#9a32cd" stroke="#9a32cd" points="226.23,-68.2 229.73,-78.2 233.23,-68.21 226.23,-68.2"/>
<text text-anchor="middle" x="254.23" y="-52" font-family="Helvetica,sans-Serif" font-size="10.00"> elements</text>
</g>
<!-- Node5 -->
<g id="node5" class="node">
<title>Node5</title>
<g id="a_node5"><a xlink:title="STL class.">
<polygon fill="white" stroke="#bfbfbf" points="214.73,-165.5 214.73,-184.5 332.73,-184.5 332.73,-165.5 214.73,-165.5"/>
<text text-anchor="middle" x="273.73" y="-172.5" font-family="Helvetica,sans-Serif" font-size="10.00">std::unique_ptr&lt; T &gt;</text>
</a>
</g>
</g>
<!-- Node5&#45;&gt;Node4 -->
<g id="edge5" class="edge">
<title>Node5&#45;&gt;Node4</title>
<path fill="none" stroke="orange" stroke-dasharray="5,2" d="M226.67,-160.83C220.77,-157.27 215.49,-152.74 211.73,-147 204.02,-135.23 210.96,-119.81 218.34,-108.73"/>
<polygon fill="orange" stroke="orange" points="225.16,-163.99 235.66,-165.41 228.33,-157.75 225.16,-163.99"/>
<text text-anchor="middle" x="290.23" y="-134.5" font-family="Helvetica,sans-Serif" font-size="10.00"> &lt; joda::query::IValueProvider &gt;</text>
</g>
<!-- Node6 -->
<g id="node6" class="node">
<title>Node6</title>
<g id="a_node6"><a xlink:title=" ">
<polygon fill="white" stroke="#bfbfbf" points="314.23,-232.5 314.23,-251.5 343.23,-251.5 343.23,-232.5 314.23,-232.5"/>
<text text-anchor="middle" x="328.73" y="-239.5" font-family="Helvetica,sans-Serif" font-size="10.00">T</text>
</a>
</g>
</g>
<!-- Node6&#45;&gt;Node5 -->
<g id="edge6" class="edge">
<title>Node6&#45;&gt;Node5</title>
<path fill="none" stroke="#9a32cd" stroke-dasharray="5,2" d="M314.57,-224.27C303.85,-211.6 289.55,-194.7 281.03,-184.63"/>
<polygon fill="#9a32cd" stroke="#9a32cd" points="312.18,-226.86 321.31,-232.23 317.52,-222.34 312.18,-226.86"/>
<text text-anchor="middle" x="312.23" y="-206" font-family="Helvetica,sans-Serif" font-size="10.00"> ptr</text>
</g>
<!-- Node7 -->
<g id="node7" class="node">
<title>Node7</title>
<g id="a_node7"><a xlink:title="STL class.">
<polygon fill="white" stroke="#bfbfbf" points="377.23,-127.5 377.23,-146.5 474.23,-146.5 474.23,-127.5 377.23,-127.5"/>
<text text-anchor="middle" x="425.73" y="-134.5" font-family="Helvetica,sans-Serif" font-size="10.00">std::vector&lt; T &gt;</text>
</a>
</g>
</g>
<!-- Node6&#45;&gt;Node7 -->
<g id="edge8" class="edge">
<title>Node6&#45;&gt;Node7</title>
<path fill="none" stroke="#9a32cd" stroke-dasharray="5,2" d="M343.86,-224.93C364.61,-202.9 401.17,-164.07 417.48,-146.76"/>
<polygon fill="#9a32cd" stroke="#9a32cd" points="341.31,-222.54 337,-232.22 346.4,-227.34 341.31,-222.54"/>
<text text-anchor="middle" x="387.23" y="-206" font-family="Helvetica,sans-Serif" font-size="10.00"> elements</text>
</g>
<!-- Node7&#45;&gt;Node3 -->
<g id="edge7" class="edge">
<title>Node7&#45;&gt;Node3</title>
<path fill="none" stroke="orange" stroke-dasharray="5,2" d="M402.91,-122.09C365.27,-99.14 290.59,-53.61 252.79,-30.56"/>
<polygon fill="orange" stroke="orange" points="401.27,-125.19 411.63,-127.41 404.92,-119.21 401.27,-125.19"/>
<text text-anchor="start" x="379.73" y="-96.5" font-family="Helvetica,sans-Serif" font-size="10.00"> &lt; std::unique_ptr&lt;</text>
<text text-anchor="middle" x="458.23" y="-85.5" font-family="Helvetica,sans-Serif" font-size="10.00"> joda::query::IValueProvider &gt; &gt;</text>
</g>
</g>
</svg>
