<?xml version="1.0" encoding="UTF-8" standalone="no"?>
<!DOCTYPE svg PUBLIC "-//W3C//DTD SVG 1.1//EN"
 "http://www.w3.org/Graphics/SVG/1.1/DTD/svg11.dtd">
<!-- Generated by graphviz version 2.43.0 (0)
 -->
<!-- Title: /home/nico/joda_tmp/tmp&#45;joda&#45;dirs/JODA&#45;gh/libs/joda/core/modules/query/values/include/joda/query/values/UnaryPointerAcceptProvider.h Pages: 1 -->
<!--zoomable 665 -->
<svg id="main" version="1.1" xmlns="http://www.w3.org/2000/svg" xmlns:xlink="http://www.w3.org/1999/xlink" xml:space="preserve" onload="init(evt)">
<style type="text/css"><![CDATA[
.edge:hover path { stroke: red; }
.edge:hover polygon { stroke: red; fill: red; }
]]></style>
<script type="text/javascript"><![CDATA[
var edges = document.getElementsByTagName('g');
if (edges && edges.length) {
  for (var i=0;i<edges.length;i++) {
    if (edges[i].id.substr(0,4)=='edge') {
      edges[i].setAttribute('class','edge');
    }
  }
}
]]></script>
        <defs>
                <circle id="rim" cx="0" cy="0" r="7"/>
                <circle id="rim2" cx="0" cy="0" r="3.5"/>
                <g id="zoomPlus">
                        <use xlink:href="#rim" fill="#404040">
                                <set attributeName="fill" to="#808080" begin="zoomplus.mouseover" end="zoomplus.mouseout"/>
                        </use>
                        <path d="M-4,0h8M0,-4v8" fill="none" stroke="white" stroke-width="1.5" pointer-events="none"/>
                </g>
                <g id="zoomMin">
                        <use xlink:href="#rim" fill="#404040">
                                <set attributeName="fill" to="#808080" begin="zoomminus.mouseover" end="zoomminus.mouseout"/>
                        </use>
                        <path d="M-4,0h8" fill="none" stroke="white" stroke-width="1.5" pointer-events="none"/>
                </g>
                <g id="dirArrow">
                        <path fill="none" stroke="white" stroke-width="1.5" d="M0,-3.0v7 M-2.5,-0.5L0,-3.0L2.5,-0.5"/>
                </g>
               <g id="resetDef">
                       <use xlink:href="#rim2" fill="#404040">
                               <set attributeName="fill" to="#808080" begin="reset.mouseover" end="reset.mouseout"/>
                       </use>
               </g>
        </defs>

<script type="text/javascript">
var viewWidth = 1601;
var viewHeight = 665;
var sectionId = 'dynsection-0';
</script>
<script xlink:href="../../svgpan.js"/>
<svg id="graph" class="graph">
<g id="viewport">
<title>/home/nico/joda_tmp/tmp&#45;joda&#45;dirs/JODA&#45;gh/libs/joda/core/modules/query/values/include/joda/query/values/UnaryPointerAcceptProvider.h</title>
<polygon fill="white" stroke="transparent" points="-4,4 -4,-661 1596.5,-661 1596.5,4 -4,4"/>
<!-- Node1 -->
<g id="node1" class="node">
<title>Node1</title>
<g id="a_node1"><a xlink:title=" ">
<polygon fill="#bfbfbf" stroke="black" points="1060.5,-593.5 1060.5,-656.5 1291.5,-656.5 1291.5,-593.5 1060.5,-593.5"/>
<text text-anchor="start" x="1068.5" y="-644.5" font-family="Helvetica,sans-Serif" font-size="10.00">/home/nico/joda_tmp</text>
<text text-anchor="start" x="1068.5" y="-633.5" font-family="Helvetica,sans-Serif" font-size="10.00">/tmp&#45;joda&#45;dirs/JODA</text>
<text text-anchor="start" x="1068.5" y="-622.5" font-family="Helvetica,sans-Serif" font-size="10.00">&#45;gh/libs/joda/core/modules</text>
<text text-anchor="start" x="1068.5" y="-611.5" font-family="Helvetica,sans-Serif" font-size="10.00">/query/values/include/joda</text>
<text text-anchor="middle" x="1176" y="-600.5" font-family="Helvetica,sans-Serif" font-size="10.00">/query/values/UnaryPointerAcceptProvider.h</text>
</a>
</g>
</g>
<!-- Node2 -->
<g id="node2" class="node">
<title>Node2</title>
<g id="a_node2"><a xlink:href="../../dd/d50/IValueProvider_8h.html" target="_top" xlink:title=" ">
<polygon fill="white" stroke="black" points="279.5,-425.5 279.5,-444.5 374.5,-444.5 374.5,-425.5 279.5,-425.5"/>
<text text-anchor="middle" x="327" y="-432.5" font-family="Helvetica,sans-Serif" font-size="10.00">IValueProvider.h</text>
</a>
</g>
</g>
<!-- Node1&#45;&gt;Node2 -->
<g id="edge1" class="edge">
<title>Node1&#45;&gt;Node2</title>
<path fill="none" stroke="midnightblue" d="M1060.43,-619.77C861.98,-610.4 467.2,-581.88 358,-501 342.96,-489.86 334.91,-469.53 330.82,-454.56"/>
<polygon fill="midnightblue" stroke="midnightblue" points="334.22,-453.73 328.49,-444.82 327.41,-455.36 334.22,-453.73"/>
</g>
<!-- Node35 -->
<g id="node35" class="node">
<title>Node35</title>
<g id="a_node35"><a xlink:href="../../de/d9e/PointerProvider_8h.html" target="_top" xlink:title=" ">
<polygon fill="white" stroke="black" points="1460,-481.5 1460,-500.5 1560,-500.5 1560,-481.5 1460,-481.5"/>
<text text-anchor="middle" x="1510" y="-488.5" font-family="Helvetica,sans-Serif" font-size="10.00">PointerProvider.h</text>
</a>
</g>
</g>
<!-- Node1&#45;&gt;Node35 -->
<g id="edge64" class="edge">
<title>Node1&#45;&gt;Node35</title>
<path fill="none" stroke="midnightblue" d="M1253.47,-593.38C1325.01,-565.11 1427.68,-524.53 1478.72,-504.36"/>
<polygon fill="midnightblue" stroke="midnightblue" points="1480.2,-507.54 1488.21,-500.61 1477.63,-501.03 1480.2,-507.54"/>
</g>
<!-- Node36 -->
<g id="node36" class="node">
<title>Node36</title>
<g id="a_node36"><a xlink:href="../../d9/d8f/ValueAccepter_8h.html" target="_top" xlink:title=" ">
<polygon fill="white" stroke="black" points="1128.5,-537.5 1128.5,-556.5 1223.5,-556.5 1223.5,-537.5 1128.5,-537.5"/>
<text text-anchor="middle" x="1176" y="-544.5" font-family="Helvetica,sans-Serif" font-size="10.00">ValueAccepter.h</text>
</a>
</g>
</g>
<!-- Node1&#45;&gt;Node36 -->
<g id="edge69" class="edge">
<title>Node1&#45;&gt;Node36</title>
<path fill="none" stroke="midnightblue" d="M1176,-593.09C1176,-584.15 1176,-574.67 1176,-566.72"/>
<polygon fill="midnightblue" stroke="midnightblue" points="1179.5,-566.72 1176,-556.72 1172.5,-566.72 1179.5,-566.72"/>
</g>
<!-- Node3 -->
<g id="node3" class="node">
<title>Node3</title>
<g id="a_node3"><a xlink:title=" ">
<polygon fill="white" stroke="#bfbfbf" points="145,-0.5 145,-19.5 231,-19.5 231,-0.5 145,-0.5"/>
<text text-anchor="middle" x="188" y="-7.5" font-family="Helvetica,sans-Serif" font-size="10.00">glog/logging.h</text>
</a>
</g>
</g>
<!-- Node2&#45;&gt;Node3 -->
<g id="edge2" class="edge">
<title>Node2&#45;&gt;Node3</title>
<path fill="none" stroke="midnightblue" d="M279.09,-429.98C222.29,-424.26 132.24,-411.81 108,-389 84.37,-366.76 89,-350.95 89,-318.5 89,-318.5 89,-318.5 89,-121 89,-77.18 132.94,-42.93 162.27,-24.94"/>
<polygon fill="midnightblue" stroke="midnightblue" points="164.36,-27.77 171.21,-19.68 160.81,-21.74 164.36,-27.77"/>
</g>
<!-- Node4 -->
<g id="node4" class="node">
<title>Node4</title>
<g id="a_node4"><a xlink:title=" ">
<polygon fill="white" stroke="#bfbfbf" points="0,-0.5 0,-19.5 122,-19.5 122,-0.5 0,-0.5"/>
<text text-anchor="middle" x="61" y="-7.5" font-family="Helvetica,sans-Serif" font-size="10.00">rapidjson/document.h</text>
</a>
</g>
</g>
<!-- Node2&#45;&gt;Node4 -->
<g id="edge3" class="edge">
<title>Node2&#45;&gt;Node4</title>
<path fill="none" stroke="midnightblue" d="M279.24,-434.56C200.24,-432.71 51,-416.28 51,-318.5 51,-318.5 51,-318.5 51,-121 51,-88.82 55.3,-51.55 58.26,-29.7"/>
<polygon fill="midnightblue" stroke="midnightblue" points="61.76,-29.92 59.69,-19.53 54.83,-28.95 61.76,-29.92"/>
</g>
<!-- Node5 -->
<g id="node5" class="node">
<title>Node5</title>
<g id="a_node5"><a xlink:title=" ">
<polygon fill="white" stroke="#bfbfbf" points="1359.5,-0.5 1359.5,-19.5 1450.5,-19.5 1450.5,-0.5 1359.5,-0.5"/>
<text text-anchor="middle" x="1405" y="-7.5" font-family="Helvetica,sans-Serif" font-size="10.00">rapidjson/fwd.h</text>
</a>
</g>
</g>
<!-- Node2&#45;&gt;Node5 -->
<g id="edge4" class="edge">
<title>Node2&#45;&gt;Node5</title>
<path fill="none" stroke="midnightblue" d="M374.79,-433.82C556.97,-432.83 1201.77,-426.69 1285,-389 1400.18,-336.84 1385.35,-256.57 1407,-132 1412.82,-98.54 1418.71,-89.76 1415,-56 1414.03,-47.14 1412.01,-37.47 1410.04,-29.38"/>
<polygon fill="midnightblue" stroke="midnightblue" points="1413.38,-28.33 1407.48,-19.53 1406.61,-30.09 1413.38,-28.33"/>
</g>
<!-- Node6 -->
<g id="node6" class="node">
<title>Node6</title>
<g id="a_node6"><a xlink:title=" ">
<polygon fill="white" stroke="#bfbfbf" points="117.5,-369.5 117.5,-388.5 164.5,-388.5 164.5,-369.5 117.5,-369.5"/>
<text text-anchor="middle" x="141" y="-376.5" font-family="Helvetica,sans-Serif" font-size="10.00">cmath</text>
</a>
</g>
</g>
<!-- Node2&#45;&gt;Node6 -->
<g id="edge5" class="edge">
<title>Node2&#45;&gt;Node6</title>
<path fill="none" stroke="midnightblue" d="M297.53,-425.44C264.06,-415.73 209.56,-399.9 174.5,-389.73"/>
<polygon fill="midnightblue" stroke="midnightblue" points="175.31,-386.32 164.73,-386.89 173.36,-393.04 175.31,-386.32"/>
</g>
<!-- Node7 -->
<g id="node7" class="node">
<title>Node7</title>
<g id="a_node7"><a xlink:title=" ">
<polygon fill="white" stroke="#bfbfbf" points="182.5,-369.5 182.5,-388.5 307.5,-388.5 307.5,-369.5 182.5,-369.5"/>
<text text-anchor="middle" x="245" y="-376.5" font-family="Helvetica,sans-Serif" font-size="10.00">experimental/optional</text>
</a>
</g>
</g>
<!-- Node2&#45;&gt;Node7 -->
<g id="edge6" class="edge">
<title>Node2&#45;&gt;Node7</title>
<path fill="none" stroke="midnightblue" d="M313.83,-425.32C301.15,-416.98 281.77,-404.21 266.79,-394.35"/>
<polygon fill="midnightblue" stroke="midnightblue" points="268.42,-391.23 258.14,-388.65 264.57,-397.08 268.42,-391.23"/>
</g>
<!-- Node8 -->
<g id="node8" class="node">
<title>Node8</title>
<g id="a_node8"><a xlink:title=" ">
<polygon fill="white" stroke="#bfbfbf" points="780,-112.5 780,-131.5 838,-131.5 838,-112.5 780,-112.5"/>
<text text-anchor="middle" x="809" y="-119.5" font-family="Helvetica,sans-Serif" font-size="10.00">memory</text>
</a>
</g>
</g>
<!-- Node2&#45;&gt;Node8 -->
<g id="edge7" class="edge">
<title>Node2&#45;&gt;Node8</title>
<path fill="none" stroke="midnightblue" d="M374.78,-428.91C507.31,-413.63 873.78,-363.11 934,-266 966.93,-212.89 882.6,-160.04 836.57,-136.18"/>
<polygon fill="midnightblue" stroke="midnightblue" points="837.89,-132.92 827.39,-131.53 834.74,-139.17 837.89,-132.92"/>
</g>
<!-- Node9 -->
<g id="node9" class="node">
<title>Node9</title>
<g id="a_node9"><a xlink:title=" ">
<polygon fill="white" stroke="#bfbfbf" points="343,-56.5 343,-75.5 387,-75.5 387,-56.5 343,-56.5"/>
<text text-anchor="middle" x="365" y="-63.5" font-family="Helvetica,sans-Serif" font-size="10.00">string</text>
</a>
</g>
</g>
<!-- Node2&#45;&gt;Node9 -->
<g id="edge8" class="edge">
<title>Node2&#45;&gt;Node9</title>
<path fill="none" stroke="midnightblue" d="M328.25,-425.16C329.68,-411.32 330.21,-384.54 316,-369 273.52,-322.54 226.5,-374.32 179,-333 122.88,-284.18 113.53,-232.25 151,-168 189.16,-102.57 283.37,-78.99 333.09,-70.93"/>
<polygon fill="midnightblue" stroke="midnightblue" points="333.62,-74.39 342.99,-69.43 332.58,-67.47 333.62,-74.39"/>
</g>
<!-- Node10 -->
<g id="node10" class="node">
<title>Node10</title>
<g id="a_node10"><a xlink:href="../../d1/dfd/RapidJsonDocument_8h.html" target="_top" xlink:title=" ">
<polygon fill="white" stroke="black" points="1076,-369.5 1076,-388.5 1276,-388.5 1276,-369.5 1076,-369.5"/>
<text text-anchor="middle" x="1176" y="-376.5" font-family="Helvetica,sans-Serif" font-size="10.00">joda/document/RapidJsonDocument.h</text>
</a>
</g>
</g>
<!-- Node2&#45;&gt;Node10 -->
<g id="edge9" class="edge">
<title>Node2&#45;&gt;Node10</title>
<path fill="none" stroke="midnightblue" d="M374.77,-430.96C506.66,-422.57 878.4,-398.93 1065.51,-387.03"/>
<polygon fill="midnightblue" stroke="midnightblue" points="1065.89,-390.51 1075.65,-386.38 1065.45,-383.52 1065.89,-390.51"/>
</g>
<!-- Node10&#45;&gt;Node5 -->
<g id="edge49" class="edge">
<title>Node10&#45;&gt;Node5</title>
<path fill="none" stroke="midnightblue" d="M1231.2,-369.43C1255.46,-363.08 1282.56,-352.06 1301,-333 1386.81,-244.3 1401.82,-84.33 1404.44,-29.8"/>
<polygon fill="midnightblue" stroke="midnightblue" points="1407.95,-29.7 1404.85,-19.57 1400.96,-29.42 1407.95,-29.7"/>
</g>
<!-- Node10&#45;&gt;Node8 -->
<g id="edge51" class="edge">
<title>Node10&#45;&gt;Node8</title>
<path fill="none" stroke="midnightblue" d="M1168.81,-369.39C1137.24,-331.65 1011.4,-182.14 988,-168 984.95,-166.16 899.93,-145.2 848.18,-132.55"/>
<polygon fill="midnightblue" stroke="midnightblue" points="848.85,-129.11 838.3,-130.13 847.19,-135.91 848.85,-129.11"/>
</g>
<!-- Node11 -->
<g id="node11" class="node">
<title>Node11</title>
<g id="a_node11"><a xlink:href="../../d2/d0d/ViewLayer_8h.html" target="_top" xlink:title=" ">
<polygon fill="white" stroke="black" points="674,-302.5 674,-332.5 790,-332.5 790,-302.5 674,-302.5"/>
<text text-anchor="start" x="682" y="-320.5" font-family="Helvetica,sans-Serif" font-size="10.00">joda/document/view</text>
<text text-anchor="middle" x="732" y="-309.5" font-family="Helvetica,sans-Serif" font-size="10.00">/ViewLayer.h</text>
</a>
</g>
</g>
<!-- Node10&#45;&gt;Node11 -->
<g id="edge10" class="edge">
<title>Node10&#45;&gt;Node11</title>
<path fill="none" stroke="midnightblue" d="M1112.39,-369.48C1029.55,-358.37 885.33,-339.05 800.27,-327.65"/>
<polygon fill="midnightblue" stroke="midnightblue" points="800.57,-324.16 790.19,-326.3 799.64,-331.1 800.57,-324.16"/>
</g>
<!-- Node14 -->
<g id="node14" class="node">
<title>Node14</title>
<g id="a_node14"><a xlink:href="../../d6/d09/RJFwd_8h.html" target="_top" xlink:title=" ">
<polygon fill="white" stroke="black" points="520,-56.5 520,-75.5 626,-75.5 626,-56.5 520,-56.5"/>
<text text-anchor="middle" x="573" y="-63.5" font-family="Helvetica,sans-Serif" font-size="10.00">joda/misc/RJFwd.h</text>
</a>
</g>
</g>
<!-- Node10&#45;&gt;Node14 -->
<g id="edge63" class="edge">
<title>Node10&#45;&gt;Node14</title>
<path fill="none" stroke="midnightblue" d="M1075.96,-377.65C870.32,-375 409.2,-358.6 287,-266 250.99,-238.71 233.41,-204.52 260,-168 317.06,-89.64 436.08,-70.79 509.8,-66.98"/>
<polygon fill="midnightblue" stroke="midnightblue" points="510.05,-70.48 519.89,-66.54 509.75,-63.48 510.05,-70.48"/>
</g>
<!-- Node15 -->
<g id="node15" class="node">
<title>Node15</title>
<g id="a_node15"><a xlink:title=" ">
<polygon fill="white" stroke="#bfbfbf" points="947,-0.5 947,-19.5 1069,-19.5 1069,-0.5 947,-0.5"/>
<text text-anchor="middle" x="1008" y="-7.5" font-family="Helvetica,sans-Serif" font-size="10.00">rapidjson/allocators.h</text>
</a>
</g>
</g>
<!-- Node10&#45;&gt;Node15 -->
<g id="edge48" class="edge">
<title>Node10&#45;&gt;Node15</title>
<path fill="none" stroke="midnightblue" d="M1218.67,-369.38C1272.46,-355.75 1358,-323.59 1358,-257 1358,-257 1358,-257 1358,-121 1358,-63.13 1181.68,-32 1079.33,-18.8"/>
<polygon fill="midnightblue" stroke="midnightblue" points="1079.73,-15.32 1069.37,-17.54 1078.85,-22.26 1079.73,-15.32"/>
</g>
<!-- Node30 -->
<g id="node30" class="node">
<title>Node30</title>
<g id="a_node30"><a xlink:title=" ">
<polygon fill="white" stroke="#bfbfbf" points="1242,-308 1242,-327 1292,-327 1292,-308 1242,-308"/>
<text text-anchor="middle" x="1267" y="-315" font-family="Helvetica,sans-Serif" font-size="10.00">atomic</text>
</a>
</g>
</g>
<!-- Node10&#45;&gt;Node30 -->
<g id="edge50" class="edge">
<title>Node10&#45;&gt;Node30</title>
<path fill="none" stroke="midnightblue" d="M1189.04,-369.48C1203.77,-359.84 1227.97,-344.02 1245.51,-332.55"/>
<polygon fill="midnightblue" stroke="midnightblue" points="1247.53,-335.41 1253.99,-327.01 1243.7,-329.55 1247.53,-335.41"/>
</g>
<!-- Node31 -->
<g id="node31" class="node">
<title>Node31</title>
<g id="a_node31"><a xlink:href="../../df/d13/FileNameRepo_8h.html" target="_top" xlink:title=" ">
<polygon fill="white" stroke="black" points="1040.5,-168.5 1040.5,-209.5 1195.5,-209.5 1195.5,-168.5 1040.5,-168.5"/>
<text text-anchor="start" x="1048.5" y="-197.5" font-family="Helvetica,sans-Serif" font-size="10.00">../../../../../misc</text>
<text text-anchor="start" x="1048.5" y="-186.5" font-family="Helvetica,sans-Serif" font-size="10.00">/include/joda/misc/FileName</text>
<text text-anchor="middle" x="1118" y="-175.5" font-family="Helvetica,sans-Serif" font-size="10.00">Repo.h</text>
</a>
</g>
</g>
<!-- Node10&#45;&gt;Node31 -->
<g id="edge52" class="edge">
<title>Node10&#45;&gt;Node31</title>
<path fill="none" stroke="midnightblue" d="M1173.36,-369.43C1165.27,-343.23 1140.61,-263.29 1127.1,-219.48"/>
<polygon fill="midnightblue" stroke="midnightblue" points="1130.37,-218.21 1124.07,-209.69 1123.68,-220.28 1130.37,-218.21"/>
</g>
<!-- Node33 -->
<g id="node33" class="node">
<title>Node33</title>
<g id="a_node33"><a xlink:href="../../d5/d6c/IOrigin_8h.html" target="_top" xlink:title=" ">
<polygon fill="white" stroke="black" points="1214,-179.5 1214,-198.5 1272,-198.5 1272,-179.5 1214,-179.5"/>
<text text-anchor="middle" x="1243" y="-186.5" font-family="Helvetica,sans-Serif" font-size="10.00">IOrigin.h</text>
</a>
</g>
</g>
<!-- Node10&#45;&gt;Node33 -->
<g id="edge58" class="edge">
<title>Node10&#45;&gt;Node33</title>
<path fill="none" stroke="midnightblue" d="M1179.05,-369.43C1189.28,-340.74 1222.46,-247.63 1236.56,-208.06"/>
<polygon fill="midnightblue" stroke="midnightblue" points="1239.87,-209.21 1239.93,-198.62 1233.28,-206.86 1239.87,-209.21"/>
</g>
<!-- Node11&#45;&gt;Node3 -->
<g id="edge11" class="edge">
<title>Node11&#45;&gt;Node3</title>
<path fill="none" stroke="midnightblue" d="M673.88,-316.71C567.75,-316.01 347.87,-309.2 287,-266 207.05,-209.25 191.67,-78.19 188.71,-29.58"/>
<polygon fill="midnightblue" stroke="midnightblue" points="192.2,-29.38 188.21,-19.56 185.21,-29.73 192.2,-29.38"/>
</g>
<!-- Node12 -->
<g id="node12" class="node">
<title>Node12</title>
<g id="a_node12"><a xlink:href="../../db/d16/config_8h.html" target="_top" xlink:title=" ">
<polygon fill="white" stroke="black" points="307.5,-246.5 307.5,-265.5 418.5,-265.5 418.5,-246.5 307.5,-246.5"/>
<text text-anchor="middle" x="363" y="-253.5" font-family="Helvetica,sans-Serif" font-size="10.00">joda/config/config.h</text>
</a>
</g>
</g>
<!-- Node11&#45;&gt;Node12 -->
<g id="edge12" class="edge">
<title>Node11&#45;&gt;Node12</title>
<path fill="none" stroke="midnightblue" d="M673.94,-307.14C606.43,-296.25 495.39,-278.35 425.88,-267.14"/>
<polygon fill="midnightblue" stroke="midnightblue" points="426.37,-263.67 415.94,-265.54 425.26,-270.58 426.37,-263.67"/>
</g>
<!-- Node11&#45;&gt;Node14 -->
<g id="edge15" class="edge">
<title>Node11&#45;&gt;Node14</title>
<path fill="none" stroke="midnightblue" d="M673.92,-312.21C611.67,-306.26 518.83,-293.02 497,-266 485.86,-252.21 455.51,-219.13 517,-112 524.3,-99.28 536.71,-88.75 547.99,-81.09"/>
<polygon fill="midnightblue" stroke="midnightblue" points="550.11,-83.88 556.68,-75.57 546.36,-77.98 550.11,-83.88"/>
</g>
<!-- Node18 -->
<g id="node18" class="node">
<title>Node18</title>
<g id="a_node18"><a xlink:title=" ">
<polygon fill="white" stroke="#bfbfbf" points="513.5,-246.5 513.5,-265.5 642.5,-265.5 642.5,-246.5 513.5,-246.5"/>
<text text-anchor="middle" x="578" y="-253.5" font-family="Helvetica,sans-Serif" font-size="10.00">rapidjson/stringbuffer.h</text>
</a>
</g>
</g>
<!-- Node11&#45;&gt;Node18 -->
<g id="edge22" class="edge">
<title>Node11&#45;&gt;Node18</title>
<path fill="none" stroke="midnightblue" d="M695.5,-302.4C669.43,-292.33 634.71,-278.91 609.78,-269.28"/>
<polygon fill="midnightblue" stroke="midnightblue" points="611,-266 600.41,-265.66 608.47,-272.53 611,-266"/>
</g>
<!-- Node19 -->
<g id="node19" class="node">
<title>Node19</title>
<g id="a_node19"><a xlink:title=" ">
<polygon fill="white" stroke="#bfbfbf" points="661,-246.5 661,-265.5 725,-265.5 725,-246.5 661,-246.5"/>
<text text-anchor="middle" x="693" y="-253.5" font-family="Helvetica,sans-Serif" font-size="10.00">algorithm</text>
</a>
</g>
</g>
<!-- Node11&#45;&gt;Node19 -->
<g id="edge23" class="edge">
<title>Node11&#45;&gt;Node19</title>
<path fill="none" stroke="midnightblue" d="M722.76,-302.4C717.21,-293.93 710.11,-283.1 704.23,-274.14"/>
<polygon fill="midnightblue" stroke="midnightblue" points="707.08,-272.1 698.67,-265.66 701.23,-275.94 707.08,-272.1"/>
</g>
<!-- Node20 -->
<g id="node20" class="node">
<title>Node20</title>
<g id="a_node20"><a xlink:title=" ">
<polygon fill="white" stroke="#bfbfbf" points="856,-112.5 856,-131.5 904,-131.5 904,-112.5 856,-112.5"/>
<text text-anchor="middle" x="880" y="-119.5" font-family="Helvetica,sans-Serif" font-size="10.00">mutex</text>
</a>
</g>
</g>
<!-- Node11&#45;&gt;Node20 -->
<g id="edge24" class="edge">
<title>Node11&#45;&gt;Node20</title>
<path fill="none" stroke="midnightblue" d="M790.16,-309.9C843.37,-302.51 916.4,-288.54 934,-266 964.92,-226.4 920.58,-167.17 895.38,-138.99"/>
<polygon fill="midnightblue" stroke="midnightblue" points="897.92,-136.59 888.57,-131.61 892.77,-141.33 897.92,-136.59"/>
</g>
<!-- Node21 -->
<g id="node21" class="node">
<title>Node21</title>
<g id="a_node21"><a xlink:title=" ">
<polygon fill="white" stroke="#bfbfbf" points="1028.5,-56.5 1028.5,-75.5 1121.5,-75.5 1121.5,-56.5 1028.5,-56.5"/>
<text text-anchor="middle" x="1075" y="-63.5" font-family="Helvetica,sans-Serif" font-size="10.00">unordered_map</text>
</a>
</g>
</g>
<!-- Node11&#45;&gt;Node21 -->
<g id="edge25" class="edge">
<title>Node11&#45;&gt;Node21</title>
<path fill="none" stroke="midnightblue" d="M790.12,-312.93C916.48,-303.99 1210.52,-276.42 1281,-210 1313.35,-179.51 1329.2,-146.37 1301,-112 1279.98,-86.38 1191.52,-75.08 1131.71,-70.29"/>
<polygon fill="midnightblue" stroke="midnightblue" points="1131.87,-66.79 1121.64,-69.52 1131.34,-73.77 1131.87,-66.79"/>
</g>
<!-- Node22 -->
<g id="node22" class="node">
<title>Node22</title>
<g id="a_node22"><a xlink:title=" ">
<polygon fill="white" stroke="#bfbfbf" points="1424.5,-246.5 1424.5,-265.5 1475.5,-265.5 1475.5,-246.5 1424.5,-246.5"/>
<text text-anchor="middle" x="1450" y="-253.5" font-family="Helvetica,sans-Serif" font-size="10.00">variant</text>
</a>
</g>
</g>
<!-- Node11&#45;&gt;Node22 -->
<g id="edge26" class="edge">
<title>Node11&#45;&gt;Node22</title>
<path fill="none" stroke="midnightblue" d="M790.15,-311.68C933.08,-299.84 1298.36,-269.57 1414.19,-259.97"/>
<polygon fill="midnightblue" stroke="midnightblue" points="1414.62,-263.44 1424.3,-259.13 1414.04,-256.47 1414.62,-263.44"/>
</g>
<!-- Node23 -->
<g id="node23" class="node">
<title>Node23</title>
<g id="a_node23"><a xlink:title=" ">
<polygon fill="white" stroke="#bfbfbf" points="743,-246.5 743,-265.5 799,-265.5 799,-246.5 743,-246.5"/>
<text text-anchor="middle" x="771" y="-253.5" font-family="Helvetica,sans-Serif" font-size="10.00">optional</text>
</a>
</g>
</g>
<!-- Node11&#45;&gt;Node23 -->
<g id="edge27" class="edge">
<title>Node11&#45;&gt;Node23</title>
<path fill="none" stroke="midnightblue" d="M741.24,-302.4C746.79,-293.93 753.89,-283.1 759.77,-274.14"/>
<polygon fill="midnightblue" stroke="midnightblue" points="762.77,-275.94 765.33,-265.66 756.92,-272.1 762.77,-275.94"/>
</g>
<!-- Node24 -->
<g id="node24" class="node">
<title>Node24</title>
<g id="a_node24"><a xlink:href="../../da/d3b/ObjectIterator_8h.html" target="_top" xlink:title=" ">
<polygon fill="white" stroke="black" points="817,-246.5 817,-265.5 909,-265.5 909,-246.5 817,-246.5"/>
<text text-anchor="middle" x="863" y="-253.5" font-family="Helvetica,sans-Serif" font-size="10.00">ObjectIterator.h</text>
</a>
</g>
</g>
<!-- Node11&#45;&gt;Node24 -->
<g id="edge28" class="edge">
<title>Node11&#45;&gt;Node24</title>
<path fill="none" stroke="midnightblue" d="M763.05,-302.4C784.73,-292.55 813.46,-279.5 834.55,-269.92"/>
<polygon fill="midnightblue" stroke="midnightblue" points="836.28,-272.98 843.94,-265.66 833.39,-266.61 836.28,-272.98"/>
</g>
<!-- Node27 -->
<g id="node27" class="node">
<title>Node27</title>
<g id="a_node27"><a xlink:href="../../d5/de2/ViewCursor_8h.html" target="_top" xlink:title=" ">
<polygon fill="white" stroke="black" points="778,-179.5 778,-198.5 858,-198.5 858,-179.5 778,-179.5"/>
<text text-anchor="middle" x="818" y="-186.5" font-family="Helvetica,sans-Serif" font-size="10.00">ViewCursor.h</text>
</a>
</g>
</g>
<!-- Node11&#45;&gt;Node27 -->
<g id="edge41" class="edge">
<title>Node11&#45;&gt;Node27</title>
<path fill="none" stroke="midnightblue" d="M790.07,-308.51C838.64,-300.49 902.4,-286.4 918,-266 939.46,-237.93 893.7,-214.95 857.21,-201.86"/>
<polygon fill="midnightblue" stroke="midnightblue" points="858.3,-198.53 847.71,-198.59 856.02,-205.15 858.3,-198.53"/>
</g>
<!-- Node28 -->
<g id="node28" class="node">
<title>Node28</title>
<g id="a_node28"><a xlink:href="../../d0/d10/ViewStructure_8h.html" target="_top" xlink:title=" ">
<polygon fill="white" stroke="black" points="526,-112.5 526,-131.5 620,-131.5 620,-112.5 526,-112.5"/>
<text text-anchor="middle" x="573" y="-119.5" font-family="Helvetica,sans-Serif" font-size="10.00">ViewStructure.h</text>
</a>
</g>
</g>
<!-- Node11&#45;&gt;Node28 -->
<g id="edge42" class="edge">
<title>Node11&#45;&gt;Node28</title>
<path fill="none" stroke="midnightblue" d="M673.97,-311.71C613.85,-305.41 525.81,-291.94 505,-266 488.26,-245.12 536.31,-173.29 560.29,-140.08"/>
<polygon fill="midnightblue" stroke="midnightblue" points="563.26,-141.95 566.34,-131.82 557.61,-137.82 563.26,-141.95"/>
</g>
<!-- Node29 -->
<g id="node29" class="node">
<title>Node29</title>
<g id="a_node29"><a xlink:href="../../d8/dee/VirtualObject_8h.html" target="_top" xlink:title=" ">
<polygon fill="white" stroke="black" points="269.5,-179.5 269.5,-198.5 358.5,-198.5 358.5,-179.5 269.5,-179.5"/>
<text text-anchor="middle" x="314" y="-186.5" font-family="Helvetica,sans-Serif" font-size="10.00">VirtualObject.h</text>
</a>
</g>
</g>
<!-- Node11&#45;&gt;Node29 -->
<g id="edge43" class="edge">
<title>Node11&#45;&gt;Node29</title>
<path fill="none" stroke="midnightblue" d="M673.57,-313.95C560.92,-308.42 322.56,-293.58 298,-266 283.76,-250.01 293.35,-224.6 302.68,-207.62"/>
<polygon fill="midnightblue" stroke="midnightblue" points="305.86,-209.12 307.96,-198.73 299.84,-205.54 305.86,-209.12"/>
</g>
<!-- Node12&#45;&gt;Node9 -->
<g id="edge14" class="edge">
<title>Node12&#45;&gt;Node9</title>
<path fill="none" stroke="midnightblue" d="M363.99,-246.39C364.98,-237.34 366.44,-222.69 367,-210 368.97,-165.51 367.2,-113.16 365.96,-85.81"/>
<polygon fill="midnightblue" stroke="midnightblue" points="369.45,-85.53 365.48,-75.71 362.46,-85.87 369.45,-85.53"/>
</g>
<!-- Node13 -->
<g id="node13" class="node">
<title>Node13</title>
<g id="a_node13"><a xlink:title=" ">
<polygon fill="white" stroke="#bfbfbf" points="415,-179.5 415,-198.5 469,-198.5 469,-179.5 415,-179.5"/>
<text text-anchor="middle" x="442" y="-186.5" font-family="Helvetica,sans-Serif" font-size="10.00">istream</text>
</a>
</g>
</g>
<!-- Node12&#45;&gt;Node13 -->
<g id="edge13" class="edge">
<title>Node12&#45;&gt;Node13</title>
<path fill="none" stroke="midnightblue" d="M373.65,-246.23C386.45,-235.71 408.12,-217.88 423.63,-205.12"/>
<polygon fill="midnightblue" stroke="midnightblue" points="426.02,-207.68 431.51,-198.63 421.57,-202.28 426.02,-207.68"/>
</g>
<!-- Node14&#45;&gt;Node3 -->
<g id="edge16" class="edge">
<title>Node14&#45;&gt;Node3</title>
<path fill="none" stroke="midnightblue" d="M519.87,-57.55C446.39,-47.24 314.49,-28.74 241.05,-18.44"/>
<polygon fill="midnightblue" stroke="midnightblue" points="241.48,-14.97 231.09,-17.04 240.5,-21.9 241.48,-14.97"/>
</g>
<!-- Node14&#45;&gt;Node4 -->
<g id="edge18" class="edge">
<title>Node14&#45;&gt;Node4</title>
<path fill="none" stroke="midnightblue" d="M519.83,-59.82C437.52,-51.72 274.33,-35.42 136,-20 134.89,-19.88 133.78,-19.75 132.65,-19.62"/>
<polygon fill="midnightblue" stroke="midnightblue" points="132.72,-16.11 122.39,-18.45 131.92,-23.06 132.72,-16.11"/>
</g>
<!-- Node14&#45;&gt;Node5 -->
<g id="edge19" class="edge">
<title>Node14&#45;&gt;Node5</title>
<path fill="none" stroke="midnightblue" d="M626.31,-61.54C775.67,-51.85 1197.19,-24.49 1349.35,-14.61"/>
<polygon fill="midnightblue" stroke="midnightblue" points="1349.65,-18.1 1359.4,-13.96 1349.2,-11.11 1349.65,-18.1"/>
</g>
<!-- Node14&#45;&gt;Node15 -->
<g id="edge17" class="edge">
<title>Node14&#45;&gt;Node15</title>
<path fill="none" stroke="midnightblue" d="M626.34,-58.38C704.36,-48.69 849.75,-30.65 936.81,-19.84"/>
<polygon fill="midnightblue" stroke="midnightblue" points="937.38,-23.29 946.87,-18.59 936.52,-16.35 937.38,-23.29"/>
</g>
<!-- Node16 -->
<g id="node16" class="node">
<title>Node16</title>
<g id="a_node16"><a xlink:title=" ">
<polygon fill="white" stroke="#bfbfbf" points="498,-0.5 498,-19.5 648,-19.5 648,-0.5 498,-0.5"/>
<text text-anchor="middle" x="573" y="-7.5" font-family="Helvetica,sans-Serif" font-size="10.00">rapidjson/istreamwrapper.h</text>
</a>
</g>
</g>
<!-- Node14&#45;&gt;Node16 -->
<g id="edge20" class="edge">
<title>Node14&#45;&gt;Node16</title>
<path fill="none" stroke="midnightblue" d="M573,-56.08C573,-49.01 573,-38.86 573,-29.99"/>
<polygon fill="midnightblue" stroke="midnightblue" points="576.5,-29.75 573,-19.75 569.5,-29.75 576.5,-29.75"/>
</g>
<!-- Node17 -->
<g id="node17" class="node">
<title>Node17</title>
<g id="a_node17"><a xlink:title=" ">
<polygon fill="white" stroke="#bfbfbf" points="1485.5,-0.5 1485.5,-19.5 1592.5,-19.5 1592.5,-0.5 1485.5,-0.5"/>
<text text-anchor="middle" x="1539" y="-7.5" font-family="Helvetica,sans-Serif" font-size="10.00">rapidjson/pointer.h</text>
</a>
</g>
</g>
<!-- Node14&#45;&gt;Node17 -->
<g id="edge21" class="edge">
<title>Node14&#45;&gt;Node17</title>
<path fill="none" stroke="midnightblue" d="M626.07,-63.47C763.84,-59.24 1144.2,-45.97 1460,-20 1464.82,-19.6 1469.8,-19.15 1474.81,-18.65"/>
<polygon fill="midnightblue" stroke="midnightblue" points="1475.48,-22.1 1485.07,-17.6 1474.77,-15.14 1475.48,-22.1"/>
</g>
<!-- Node24&#45;&gt;Node9 -->
<g id="edge30" class="edge">
<title>Node24&#45;&gt;Node9</title>
<path fill="none" stroke="midnightblue" d="M816.53,-247.09C761.57,-237.47 673.58,-221.12 642,-210 541.71,-174.67 432.21,-109.35 386.7,-80.87"/>
<polygon fill="midnightblue" stroke="midnightblue" points="388.56,-77.9 378.23,-75.53 384.83,-83.83 388.56,-77.9"/>
</g>
<!-- Node24&#45;&gt;Node14 -->
<g id="edge29" class="edge">
<title>Node24&#45;&gt;Node14</title>
<path fill="none" stroke="midnightblue" d="M816.98,-246.7C762.98,-236.6 679.3,-219.7 668,-210 632.43,-179.46 656.86,-149.7 629,-112 620.11,-99.97 607.26,-89.33 596.11,-81.43"/>
<polygon fill="midnightblue" stroke="midnightblue" points="597.88,-78.4 587.64,-75.7 593.96,-84.2 597.88,-78.4"/>
</g>
<!-- Node25 -->
<g id="node25" class="node">
<title>Node25</title>
<g id="a_node25"><a xlink:title=" ">
<polygon fill="white" stroke="#bfbfbf" points="676.5,-179.5 676.5,-198.5 721.5,-198.5 721.5,-179.5 676.5,-179.5"/>
<text text-anchor="middle" x="699" y="-186.5" font-family="Helvetica,sans-Serif" font-size="10.00">utility</text>
</a>
</g>
</g>
<!-- Node24&#45;&gt;Node25 -->
<g id="edge31" class="edge">
<title>Node24&#45;&gt;Node25</title>
<path fill="none" stroke="midnightblue" d="M835.02,-246.47C808.96,-238.2 769.24,-224.77 736,-210 731.6,-208.05 727.02,-205.77 722.63,-203.47"/>
<polygon fill="midnightblue" stroke="midnightblue" points="723.96,-200.21 713.5,-198.51 720.62,-206.36 723.96,-200.21"/>
</g>
<!-- Node26 -->
<g id="node26" class="node">
<title>Node26</title>
<g id="a_node26"><a xlink:title=" ">
<polygon fill="white" stroke="#bfbfbf" points="676.5,-112.5 676.5,-131.5 723.5,-131.5 723.5,-112.5 676.5,-112.5"/>
<text text-anchor="middle" x="700" y="-119.5" font-family="Helvetica,sans-Serif" font-size="10.00">vector</text>
</a>
</g>
</g>
<!-- Node24&#45;&gt;Node26 -->
<g id="edge32" class="edge">
<title>Node24&#45;&gt;Node26</title>
<path fill="none" stroke="midnightblue" d="M837.7,-246.49C817.7,-238.96 789.79,-226.59 769,-210 755.69,-199.38 727.89,-161.99 711.94,-139.83"/>
<polygon fill="midnightblue" stroke="midnightblue" points="714.75,-137.75 706.09,-131.65 709.06,-141.82 714.75,-137.75"/>
</g>
<!-- Node24&#45;&gt;Node27 -->
<g id="edge33" class="edge">
<title>Node24&#45;&gt;Node27</title>
<path fill="none" stroke="midnightblue" d="M856.93,-246.23C849.98,-236.2 838.43,-219.51 829.71,-206.92"/>
<polygon fill="midnightblue" stroke="midnightblue" points="832.54,-204.86 823.97,-198.63 826.79,-208.84 832.54,-204.86"/>
</g>
<!-- Node27&#45;&gt;Node8 -->
<g id="edge35" class="edge">
<title>Node27&#45;&gt;Node8</title>
<path fill="none" stroke="midnightblue" d="M816.79,-179.23C815.46,-169.68 813.31,-154.12 811.6,-141.78"/>
<polygon fill="midnightblue" stroke="midnightblue" points="815.03,-141.05 810.19,-131.63 808.1,-142.01 815.03,-141.05"/>
</g>
<!-- Node27&#45;&gt;Node14 -->
<g id="edge34" class="edge">
<title>Node27&#45;&gt;Node14</title>
<path fill="none" stroke="midnightblue" d="M810.75,-179.31C797.15,-163.54 766.15,-130.19 733,-112 703,-95.54 666.46,-84.67 635.87,-77.75"/>
<polygon fill="midnightblue" stroke="midnightblue" points="636.26,-74.25 625.75,-75.55 634.78,-81.09 636.26,-74.25"/>
</g>
<!-- Node27&#45;&gt;Node26 -->
<g id="edge36" class="edge">
<title>Node27&#45;&gt;Node26</title>
<path fill="none" stroke="midnightblue" d="M802.09,-179.23C782.18,-168.27 747.89,-149.38 724.6,-136.55"/>
<polygon fill="midnightblue" stroke="midnightblue" points="726.11,-133.39 715.66,-131.63 722.73,-139.52 726.11,-133.39"/>
</g>
<!-- Node27&#45;&gt;Node28 -->
<g id="edge37" class="edge">
<title>Node27&#45;&gt;Node28</title>
<path fill="none" stroke="midnightblue" d="M785.72,-179.44C741.93,-167.82 663.62,-147.04 615.21,-134.2"/>
<polygon fill="midnightblue" stroke="midnightblue" points="615.92,-130.76 605.35,-131.58 614.12,-137.53 615.92,-130.76"/>
</g>
<!-- Node28&#45;&gt;Node9 -->
<g id="edge39" class="edge">
<title>Node28&#45;&gt;Node9</title>
<path fill="none" stroke="midnightblue" d="M540.04,-112.44C500.82,-102.26 435.77,-85.37 396.98,-75.3"/>
<polygon fill="midnightblue" stroke="midnightblue" points="397.81,-71.9 387.25,-72.78 396.05,-78.68 397.81,-71.9"/>
</g>
<!-- Node28&#45;&gt;Node14 -->
<g id="edge38" class="edge">
<title>Node28&#45;&gt;Node14</title>
<path fill="none" stroke="midnightblue" d="M573,-112.08C573,-105.01 573,-94.86 573,-85.99"/>
<polygon fill="midnightblue" stroke="midnightblue" points="576.5,-85.75 573,-75.75 569.5,-85.75 576.5,-85.75"/>
</g>
<!-- Node28&#45;&gt;Node21 -->
<g id="edge40" class="edge">
<title>Node28&#45;&gt;Node21</title>
<path fill="none" stroke="midnightblue" d="M620.23,-115.92C712.87,-105.95 918.09,-83.88 1018.06,-73.13"/>
<polygon fill="midnightblue" stroke="midnightblue" points="1018.7,-76.58 1028.26,-72.03 1017.95,-69.62 1018.7,-76.58"/>
</g>
<!-- Node29&#45;&gt;Node3 -->
<g id="edge44" class="edge">
<title>Node29&#45;&gt;Node3</title>
<path fill="none" stroke="midnightblue" d="M307.92,-179.46C288.35,-151.96 226.67,-65.32 200.23,-28.18"/>
<polygon fill="midnightblue" stroke="midnightblue" points="202.96,-25.99 194.31,-19.87 197.26,-30.04 202.96,-25.99"/>
</g>
<!-- Node29&#45;&gt;Node9 -->
<g id="edge46" class="edge">
<title>Node29&#45;&gt;Node9</title>
<path fill="none" stroke="midnightblue" d="M314.93,-179.2C316.71,-164.64 321.43,-134.9 332,-112 336.71,-101.79 343.93,-91.6 350.42,-83.49"/>
<polygon fill="midnightblue" stroke="midnightblue" points="353.27,-85.54 357.02,-75.63 347.91,-81.04 353.27,-85.54"/>
</g>
<!-- Node29&#45;&gt;Node14 -->
<g id="edge45" class="edge">
<title>Node29&#45;&gt;Node14</title>
<path fill="none" stroke="midnightblue" d="M333.05,-179.34C357.09,-168.4 399.68,-148.95 436,-132 474.2,-114.17 518.21,-93.22 545.82,-80.02"/>
<polygon fill="midnightblue" stroke="midnightblue" points="547.35,-83.17 554.86,-75.7 544.33,-76.85 547.35,-83.17"/>
</g>
<!-- Node29&#45;&gt;Node28 -->
<g id="edge47" class="edge">
<title>Node29&#45;&gt;Node28</title>
<path fill="none" stroke="midnightblue" d="M348.13,-179.44C394.61,-167.77 477.9,-146.87 529.02,-134.04"/>
<polygon fill="midnightblue" stroke="midnightblue" points="529.95,-137.41 538.8,-131.58 528.25,-130.62 529.95,-137.41"/>
</g>
<!-- Node31&#45;&gt;Node9 -->
<g id="edge54" class="edge">
<title>Node31&#45;&gt;Node9</title>
<path fill="none" stroke="midnightblue" d="M1051.65,-168.46C1020.64,-158.64 983.48,-145.88 951,-132 933.45,-124.5 931.32,-117.33 913,-112 888.11,-104.76 510.83,-77.4 397.17,-69.28"/>
<polygon fill="midnightblue" stroke="midnightblue" points="397.23,-65.78 387.01,-68.56 396.74,-72.76 397.23,-65.78"/>
</g>
<!-- Node31&#45;&gt;Node20 -->
<g id="edge53" class="edge">
<title>Node31&#45;&gt;Node20</title>
<path fill="none" stroke="midnightblue" d="M1046.59,-168.5C1002.79,-156.54 948.69,-141.76 914.26,-132.36"/>
<polygon fill="midnightblue" stroke="midnightblue" points="914.8,-128.88 904.24,-129.62 912.96,-135.63 914.8,-128.88"/>
</g>
<!-- Node31&#45;&gt;Node21 -->
<g id="edge55" class="edge">
<title>Node31&#45;&gt;Node21</title>
<path fill="none" stroke="midnightblue" d="M1111,-168.29C1102.82,-145.27 1089.39,-107.5 1081.46,-85.17"/>
<polygon fill="midnightblue" stroke="midnightblue" points="1084.69,-83.83 1078.05,-75.57 1078.1,-86.17 1084.69,-83.83"/>
</g>
<!-- Node31&#45;&gt;Node26 -->
<g id="edge57" class="edge">
<title>Node31&#45;&gt;Node26</title>
<path fill="none" stroke="midnightblue" d="M1040.36,-175.93C948.66,-161.67 800.24,-138.59 733.91,-128.27"/>
<polygon fill="midnightblue" stroke="midnightblue" points="734.04,-124.75 723.62,-126.67 732.96,-131.67 734.04,-124.75"/>
</g>
<!-- Node32 -->
<g id="node32" class="node">
<title>Node32</title>
<g id="a_node32"><a xlink:title=" ">
<polygon fill="white" stroke="#bfbfbf" points="960,-112.5 960,-131.5 1046,-131.5 1046,-112.5 960,-112.5"/>
<text text-anchor="middle" x="1003" y="-119.5" font-family="Helvetica,sans-Serif" font-size="10.00">unordered_set</text>
</a>
</g>
</g>
<!-- Node31&#45;&gt;Node32 -->
<g id="edge56" class="edge">
<title>Node31&#45;&gt;Node32</title>
<path fill="none" stroke="midnightblue" d="M1083.5,-168.5C1065.36,-158.24 1043.56,-145.93 1027.23,-136.69"/>
<polygon fill="midnightblue" stroke="midnightblue" points="1028.74,-133.53 1018.31,-131.65 1025.29,-139.62 1028.74,-133.53"/>
</g>
<!-- Node33&#45;&gt;Node3 -->
<g id="edge59" class="edge">
<title>Node33&#45;&gt;Node3</title>
<path fill="none" stroke="midnightblue" d="M1227.74,-179.37C1211.51,-169.59 1185.89,-152.32 1169,-132 1144.86,-102.95 1162.64,-76.61 1131,-56 1112.24,-43.78 437.99,-19.62 241.33,-12.82"/>
<polygon fill="midnightblue" stroke="midnightblue" points="241.35,-9.32 231.24,-12.47 241.11,-16.31 241.35,-9.32"/>
</g>
<!-- Node33&#45;&gt;Node8 -->
<g id="edge61" class="edge">
<title>Node33&#45;&gt;Node8</title>
<path fill="none" stroke="midnightblue" d="M1229.82,-179.45C1222.75,-175.29 1213.71,-170.62 1205,-168 1055.01,-122.86 1006.68,-157.02 848.46,-132.01"/>
<polygon fill="midnightblue" stroke="midnightblue" points="848.81,-128.52 838.38,-130.36 847.68,-135.43 848.81,-128.52"/>
</g>
<!-- Node33&#45;&gt;Node14 -->
<g id="edge62" class="edge">
<title>Node33&#45;&gt;Node14</title>
<path fill="none" stroke="midnightblue" d="M1227.69,-179.37C1220.85,-175.67 1212.62,-171.41 1205,-168 1140.05,-138.93 1124.36,-127.89 1055,-112 907.54,-78.22 729.15,-69.69 636.23,-67.61"/>
<polygon fill="midnightblue" stroke="midnightblue" points="636.21,-64.11 626.14,-67.4 636.07,-71.11 636.21,-64.11"/>
</g>
<!-- Node34 -->
<g id="node34" class="node">
<title>Node34</title>
<g id="a_node34"><a xlink:title=" ">
<polygon fill="white" stroke="#bfbfbf" points="1178,-112.5 1178,-131.5 1292,-131.5 1292,-112.5 1178,-112.5"/>
<text text-anchor="middle" x="1235" y="-119.5" font-family="Helvetica,sans-Serif" font-size="10.00">boost/operators.hpp</text>
</a>
</g>
</g>
<!-- Node33&#45;&gt;Node34 -->
<g id="edge60" class="edge">
<title>Node33&#45;&gt;Node34</title>
<path fill="none" stroke="midnightblue" d="M1241.92,-179.23C1240.75,-169.68 1238.83,-154.12 1237.31,-141.78"/>
<polygon fill="midnightblue" stroke="midnightblue" points="1240.76,-141.12 1236.06,-131.63 1233.81,-141.98 1240.76,-141.12"/>
</g>
<!-- Node35&#45;&gt;Node2 -->
<g id="edge68" class="edge">
<title>Node35&#45;&gt;Node2</title>
<path fill="none" stroke="midnightblue" d="M1459.92,-487.71C1269.19,-479.01 588.65,-447.94 384.99,-438.65"/>
<polygon fill="midnightblue" stroke="midnightblue" points="384.95,-435.14 374.8,-438.18 384.63,-442.13 384.95,-435.14"/>
</g>
<!-- Node35&#45;&gt;Node5 -->
<g id="edge65" class="edge">
<title>Node35&#45;&gt;Node5</title>
<path fill="none" stroke="midnightblue" d="M1510,-481.44C1510,-462.94 1510,-417.81 1510,-380 1510,-380 1510,-380 1510,-121 1510,-76.02 1463.49,-42.19 1432.38,-24.59"/>
<polygon fill="midnightblue" stroke="midnightblue" points="1433.75,-21.35 1423.29,-19.65 1430.41,-27.5 1433.75,-21.35"/>
</g>
<!-- Node35&#45;&gt;Node17 -->
<g id="edge66" class="edge">
<title>Node35&#45;&gt;Node17</title>
<path fill="none" stroke="midnightblue" d="M1515.28,-481.23C1525.73,-463.04 1548,-419.6 1548,-380 1548,-380 1548,-380 1548,-121 1548,-88.84 1544.13,-51.57 1541.47,-29.71"/>
<polygon fill="midnightblue" stroke="midnightblue" points="1544.91,-29.02 1540.18,-19.54 1537.96,-29.9 1544.91,-29.02"/>
</g>
<!-- Node35&#45;&gt;Node22 -->
<g id="edge67" class="edge">
<title>Node35&#45;&gt;Node22</title>
<path fill="none" stroke="midnightblue" d="M1507.16,-481.42C1504.21,-472.4 1499.55,-457.77 1496,-445 1478.88,-383.33 1461.77,-309.36 1454.13,-275.53"/>
<polygon fill="midnightblue" stroke="midnightblue" points="1457.53,-274.66 1451.92,-265.67 1450.7,-276.19 1457.53,-274.66"/>
</g>
<!-- Node36&#45;&gt;Node2 -->
<g id="edge72" class="edge">
<title>Node36&#45;&gt;Node2</title>
<path fill="none" stroke="midnightblue" d="M1128.44,-545.31C968.45,-542.69 455.96,-531.96 389,-501 366.96,-490.81 348.8,-468.97 337.95,-453.43"/>
<polygon fill="midnightblue" stroke="midnightblue" points="340.61,-451.11 332.17,-444.72 334.78,-454.98 340.61,-451.11"/>
</g>
<!-- Node36&#45;&gt;Node10 -->
<g id="edge70" class="edge">
<title>Node36&#45;&gt;Node10</title>
<path fill="none" stroke="midnightblue" d="M1176,-537.08C1176,-510.95 1176,-434.21 1176,-398.58"/>
<polygon fill="midnightblue" stroke="midnightblue" points="1179.5,-398.57 1176,-388.57 1172.5,-398.57 1179.5,-398.57"/>
</g>
<!-- Node36&#45;&gt;Node14 -->
<g id="edge71" class="edge">
<title>Node36&#45;&gt;Node14</title>
<path fill="none" stroke="midnightblue" d="M1128.46,-538.83C956.44,-511.82 370.8,-410.39 262,-266 220.04,-210.31 231.16,-146.07 292,-112 328.31,-91.67 438.52,-78.61 509.64,-72.05"/>
<polygon fill="midnightblue" stroke="midnightblue" points="510.19,-75.52 519.84,-71.13 509.56,-68.55 510.19,-75.52"/>
</g>
<!-- Node36&#45;&gt;Node22 -->
<g id="edge74" class="edge">
<title>Node36&#45;&gt;Node22</title>
<path fill="none" stroke="midnightblue" d="M1197.72,-537.47C1243.91,-518.2 1352.38,-466.87 1410,-389 1435.67,-354.3 1445.02,-303.03 1448.31,-275.72"/>
<polygon fill="midnightblue" stroke="midnightblue" points="1451.81,-275.91 1449.38,-265.6 1444.85,-275.18 1451.81,-275.91"/>
</g>
<!-- Node36&#45;&gt;Node35 -->
<g id="edge73" class="edge">
<title>Node36&#45;&gt;Node35</title>
<path fill="none" stroke="midnightblue" d="M1223.85,-538.26C1283.35,-528.64 1384.95,-512.22 1449.71,-501.75"/>
<polygon fill="midnightblue" stroke="midnightblue" points="1450.46,-505.17 1459.78,-500.12 1449.35,-498.26 1450.46,-505.17"/>
</g>
</g>
</svg>
        <g id="navigator" transform="translate(0 0)" fill="#404254">
                <rect fill="#f2f5e9" fill-opacity="0.5" stroke="#606060" stroke-width=".5" x="0" y="0" width="60" height="60"/>
                <use id="zoomplus" xlink:href="#zoomPlus" x="17" y="9" onmousedown="handleZoom(evt,'in')"/>
                <use id="zoomminus" xlink:href="#zoomMin" x="42" y="9" onmousedown="handleZoom(evt,'out')"/>
                <use id="reset" xlink:href="#resetDef" x="30" y="36" onmousedown="handleReset()"/>
                <g id="arrowUp" xlink:href="#dirArrow" transform="translate(30 24)" onmousedown="handlePan(0,-1)">
                  <use xlink:href="#rim" fill="#404040">
                        <set attributeName="fill" to="#808080" begin="arrowUp.mouseover" end="arrowUp.mouseout"/>
                  </use>
                  <path fill="none" stroke="white" stroke-width="1.5" d="M0,-3.0v7 M-2.5,-0.5L0,-3.0L2.5,-0.5"/>
                </g>
                <g id="arrowRight" xlink:href="#dirArrow" transform="rotate(90) translate(36 -43)" onmousedown="handlePan(1,0)">
                  <use xlink:href="#rim" fill="#404040">
                        <set attributeName="fill" to="#808080" begin="arrowRight.mouseover" end="arrowRight.mouseout"/>
                  </use>
                  <path fill="none" stroke="white" stroke-width="1.5" d="M0,-3.0v7 M-2.5,-0.5L0,-3.0L2.5,-0.5"/>
                </g>
                <g id="arrowDown" xlink:href="#dirArrow" transform="rotate(180) translate(-30 -48)" onmousedown="handlePan(0,1)">
                  <use xlink:href="#rim" fill="#404040">
                        <set attributeName="fill" to="#808080" begin="arrowDown.mouseover" end="arrowDown.mouseout"/>
                  </use>
                  <path fill="none" stroke="white" stroke-width="1.5" d="M0,-3.0v7 M-2.5,-0.5L0,-3.0L2.5,-0.5"/>
                </g>
                <g id="arrowLeft" xlink:href="#dirArrow" transform="rotate(270) translate(-36 17)" onmousedown="handlePan(-1,0)">
                  <use xlink:href="#rim" fill="#404040">
                        <set attributeName="fill" to="#808080" begin="arrowLeft.mouseover" end="arrowLeft.mouseout"/>
                  </use>
                  <path fill="none" stroke="white" stroke-width="1.5" d="M0,-3.0v7 M-2.5,-0.5L0,-3.0L2.5,-0.5"/>
                </g>
        </g>
        <svg viewBox="0 0 15 15" width="100%" height="30px" preserveAspectRatio="xMaxYMin meet">
         <g id="arrow_out" transform="scale(0.3 0.3)">
          <a xlink:href="UnaryPointerAcceptProvider_8h__incl_org.svg" target="_base">
           <rect id="button" ry="5" rx="5" y="6" x="6" height="38" width="38"
                fill="#f2f5e9" fill-opacity="0.5" stroke="#606060" stroke-width="1.0"/>
           <path id="arrow"
             d="M 11.500037,31.436501 C 11.940474,20.09759 22.043105,11.32322 32.158766,21.979434 L 37.068811,17.246167 C 37.068811,17.246167 37.088388,32 37.088388,32 L 22.160133,31.978069 C 22.160133,31.978069 26.997745,27.140456 26.997745,27.140456 C 18.528582,18.264221 13.291696,25.230495 11.500037,31.436501 z"
             style="fill:#404040;"/>
          </a>
         </g>
        </svg>
</svg>
