<?xml version="1.0" encoding="UTF-8" standalone="no"?>
<!DOCTYPE svg PUBLIC "-//W3C//DTD SVG 1.1//EN"
 "http://www.w3.org/Graphics/SVG/1.1/DTD/svg11.dtd">
<!-- Generated by graphviz version 2.43.0 (0)
 -->
<!-- Title: joda::query::Predicate::accept Pages: 1 -->
<svg width="506pt" height="154pt"
 viewBox="0.00 0.00 506.00 154.00" xmlns="http://www.w3.org/2000/svg" xmlns:xlink="http://www.w3.org/1999/xlink">
<g id="graph0" class="graph" transform="scale(1 1) rotate(0) translate(4 150)">
<title>joda::query::Predicate::accept</title>
<polygon fill="white" stroke="transparent" points="-4,4 -4,-150 502,-150 502,4 -4,4"/>
<!-- Node1 -->
<g id="node1" class="node">
<title>Node1</title>
<g id="a_node1"><a xlink:title=" ">
<polygon fill="#bfbfbf" stroke="black" points="376,-55 376,-85 498,-85 498,-55 376,-55"/>
<text text-anchor="start" x="384" y="-73" font-family="Helvetica,sans-Serif" font-size="10.00">joda::query::Predicate</text>
<text text-anchor="middle" x="437" y="-62" font-family="Helvetica,sans-Serif" font-size="10.00">::accept</text>
</a>
</g>
</g>
<!-- Node2 -->
<g id="node2" class="node">
<title>Node2</title>
<g id="a_node2"><a xlink:href="../../d7/d56/classQueryCache.html#aa954b1ba1c8fe946f3c84fe4563da750" target="_top" xlink:title=" ">
<polygon fill="white" stroke="black" points="185,-126.5 185,-145.5 340,-145.5 340,-126.5 185,-126.5"/>
<text text-anchor="middle" x="262.5" y="-133.5" font-family="Helvetica,sans-Serif" font-size="10.00">QueryCache::cacheAvailable</text>
</a>
</g>
</g>
<!-- Node1&#45;&gt;Node2 -->
<g id="edge1" class="edge">
<title>Node1&#45;&gt;Node2</title>
<path fill="none" stroke="midnightblue" d="M400.1,-89.83C382.4,-99.02 360.49,-109.54 340,-117 330.1,-120.61 319.23,-123.76 308.88,-126.41"/>
<polygon fill="midnightblue" stroke="midnightblue" points="401.74,-92.92 408.95,-85.16 398.47,-86.73 401.74,-92.92"/>
</g>
<!-- Node3 -->
<g id="node3" class="node">
<title>Node3</title>
<g id="a_node3"><a xlink:href="../../d1/d60/classStaticEvalVisitorTest.html#a8eedc7699efb475404a5fc3613fe09cb" target="_top" xlink:title=" ">
<polygon fill="white" stroke="black" points="204.5,-77 204.5,-107 320.5,-107 320.5,-77 204.5,-77"/>
<text text-anchor="start" x="212.5" y="-95" font-family="Helvetica,sans-Serif" font-size="10.00">StaticEvalVisitorTest</text>
<text text-anchor="middle" x="262.5" y="-84" font-family="Helvetica,sans-Serif" font-size="10.00">::checkEqual</text>
</a>
</g>
</g>
<!-- Node1&#45;&gt;Node3 -->
<g id="edge2" class="edge">
<title>Node1&#45;&gt;Node3</title>
<path fill="none" stroke="midnightblue" d="M365.46,-79C350.54,-80.9 334.96,-82.89 320.61,-84.72"/>
<polygon fill="midnightblue" stroke="midnightblue" points="366.19,-82.43 375.67,-77.69 365.31,-75.49 366.19,-82.43"/>
</g>
<!-- Node4 -->
<g id="node4" class="node">
<title>Node4</title>
<g id="a_node4"><a xlink:href="../../d7/d56/classQueryCache.html#ab98d7ff3cf5e1b0edfcd0d701d6eb40e" target="_top" xlink:title=" ">
<polygon fill="white" stroke="black" points="188,-38.5 188,-57.5 337,-57.5 337,-38.5 188,-38.5"/>
<text text-anchor="middle" x="262.5" y="-45.5" font-family="Helvetica,sans-Serif" font-size="10.00">QueryCache::getBestCache</text>
</a>
</g>
</g>
<!-- Node1&#45;&gt;Node4 -->
<g id="edge3" class="edge">
<title>Node1&#45;&gt;Node4</title>
<path fill="none" stroke="midnightblue" d="M365.61,-61.02C356.23,-59.83 346.59,-58.6 337.16,-57.39"/>
<polygon fill="midnightblue" stroke="midnightblue" points="365.31,-64.51 375.67,-62.31 366.19,-57.57 365.31,-64.51"/>
</g>
<!-- Node6 -->
<g id="node6" class="node">
<title>Node6</title>
<g id="a_node6"><a xlink:href="../../dc/da4/StaticEvalVisitorTest_8cpp.html#ac7ab9b5676337915407c2700a1f224d9" target="_top" xlink:title=" ">
<polygon fill="white" stroke="black" points="236.5,-0.5 236.5,-19.5 288.5,-19.5 288.5,-0.5 236.5,-0.5"/>
<text text-anchor="middle" x="262.5" y="-7.5" font-family="Helvetica,sans-Serif" font-size="10.00">TEST_F</text>
</a>
</g>
</g>
<!-- Node1&#45;&gt;Node6 -->
<g id="edge5" class="edge">
<title>Node1&#45;&gt;Node6</title>
<path fill="none" stroke="midnightblue" d="M394.58,-50.59C377.86,-43.21 358.24,-35.12 340,-29 323.13,-23.34 303.67,-18.53 288.6,-15.17"/>
<polygon fill="midnightblue" stroke="midnightblue" points="393.5,-53.94 404.06,-54.83 396.36,-47.55 393.5,-53.94"/>
</g>
<!-- Node5 -->
<g id="node5" class="node">
<title>Node5</title>
<g id="a_node5"><a xlink:href="../../d7/d56/classQueryCache.html#a0f134e47af0858b15ade7e8192217961" target="_top" xlink:title=" ">
<polygon fill="white" stroke="black" points="0,-38.5 0,-57.5 149,-57.5 149,-38.5 0,-38.5"/>
<text text-anchor="middle" x="74.5" y="-45.5" font-family="Helvetica,sans-Serif" font-size="10.00">QueryCache::getBestCache</text>
</a>
</g>
</g>
<!-- Node4&#45;&gt;Node5 -->
<g id="edge4" class="edge">
<title>Node4&#45;&gt;Node5</title>
<path fill="none" stroke="midnightblue" d="M177.7,-48C168.16,-48 158.48,-48 149.09,-48"/>
<polygon fill="midnightblue" stroke="midnightblue" points="177.99,-51.5 187.99,-48 177.99,-44.5 177.99,-51.5"/>
</g>
</g>
</svg>
