<?xml version="1.0" encoding="UTF-8" standalone="no"?>
<!DOCTYPE svg PUBLIC "-//W3C//DTD SVG 1.1//EN"
 "http://www.w3.org/Graphics/SVG/1.1/DTD/svg11.dtd">
<!-- Generated by graphviz version 2.43.0 (0)
 -->
<!-- Title: similarityRepresentation&lt; AttributeJaccard &gt; Pages: 1 -->
<svg width="187pt" height="185pt"
 viewBox="0.00 0.00 187.00 185.00" xmlns="http://www.w3.org/2000/svg" xmlns:xlink="http://www.w3.org/1999/xlink">
<g id="graph0" class="graph" transform="scale(1 1) rotate(0) translate(4 181)">
<title>similarityRepresentation&lt; AttributeJaccard &gt;</title>
<polygon fill="white" stroke="transparent" points="-4,4 -4,-181 183,-181 183,4 -4,4"/>
<!-- Node1 -->
<g id="node1" class="node">
<title>Node1</title>
<g id="a_node1"><a xlink:title=" ">
<polygon fill="#bfbfbf" stroke="black" points="21,-0.5 21,-30.5 158,-30.5 158,-0.5 21,-0.5"/>
<text text-anchor="start" x="29" y="-18.5" font-family="Helvetica,sans-Serif" font-size="10.00">similarityRepresentation</text>
<text text-anchor="middle" x="89.5" y="-7.5" font-family="Helvetica,sans-Serif" font-size="10.00">&lt; AttributeJaccard &gt;</text>
</a>
</g>
</g>
<!-- Node2 -->
<g id="node2" class="node">
<title>Node2</title>
<g id="a_node2"><a xlink:href="../../d9/d73/classRJAttributeReader.html" target="_top" xlink:title=" ">
<polygon fill="white" stroke="black" points="37.5,-78.5 37.5,-97.5 141.5,-97.5 141.5,-78.5 37.5,-78.5"/>
<text text-anchor="middle" x="89.5" y="-85.5" font-family="Helvetica,sans-Serif" font-size="10.00">RJAttributeReader</text>
</a>
</g>
</g>
<!-- Node2&#45;&gt;Node1 -->
<g id="edge1" class="edge">
<title>Node2&#45;&gt;Node1</title>
<path fill="none" stroke="#9a32cd" stroke-dasharray="5,2" d="M89.5,-68.24C89.5,-56.41 89.5,-41.38 89.5,-30.58"/>
<polygon fill="#9a32cd" stroke="#9a32cd" points="86,-68.36 89.5,-78.36 93,-68.36 86,-68.36"/>
<text text-anchor="middle" x="109.5" y="-52" font-family="Helvetica,sans-Serif" font-size="10.00"> handler</text>
</g>
<!-- Node3 -->
<g id="node3" class="node">
<title>Node3</title>
<g id="a_node3"><a xlink:title=" ">
<polygon fill="white" stroke="#bfbfbf" points="0,-135.5 0,-176.5 179,-176.5 179,-135.5 0,-135.5"/>
<text text-anchor="start" x="8" y="-164.5" font-family="Helvetica,sans-Serif" font-size="10.00">rapidjson::BaseReaderHandler</text>
<text text-anchor="start" x="8" y="-153.5" font-family="Helvetica,sans-Serif" font-size="10.00">&lt; rapidjson::UTF8&lt;&gt;, RJAttribute</text>
<text text-anchor="middle" x="89.5" y="-142.5" font-family="Helvetica,sans-Serif" font-size="10.00">Reader &gt;</text>
</a>
</g>
</g>
<!-- Node3&#45;&gt;Node2 -->
<g id="edge2" class="edge">
<title>Node3&#45;&gt;Node2</title>
<path fill="none" stroke="midnightblue" d="M89.5,-125.12C89.5,-115.17 89.5,-104.84 89.5,-97.79"/>
<polygon fill="midnightblue" stroke="midnightblue" points="86,-125.2 89.5,-135.2 93,-125.2 86,-125.2"/>
</g>
</g>
</svg>
