<?xml version="1.0" encoding="UTF-8" standalone="no"?>
<!DOCTYPE svg PUBLIC "-//W3C//DTD SVG 1.1//EN"
 "http://www.w3.org/Graphics/SVG/1.1/DTD/svg11.dtd">
<!-- Generated by graphviz version 2.43.0 (0)
 -->
<!-- Title: joda::filesystem::DirectoryFileScanner::getFilesInDir Pages: 1 -->
<svg width="721pt" height="171pt"
 viewBox="0.00 0.00 721.00 170.50" xmlns="http://www.w3.org/2000/svg" xmlns:xlink="http://www.w3.org/1999/xlink">
<g id="graph0" class="graph" transform="scale(1 1) rotate(0) translate(4 166.5)">
<title>joda::filesystem::DirectoryFileScanner::getFilesInDir</title>
<polygon fill="white" stroke="transparent" points="-4,4 -4,-166.5 717,-166.5 717,4 -4,4"/>
<!-- Node1 -->
<g id="node1" class="node">
<title>Node1</title>
<g id="a_node1"><a xlink:title=" ">
<polygon fill="#bfbfbf" stroke="black" points="567,-61 567,-91 713,-91 713,-61 567,-61"/>
<text text-anchor="start" x="575" y="-79" font-family="Helvetica,sans-Serif" font-size="10.00">joda::filesystem::Directory</text>
<text text-anchor="middle" x="640" y="-68" font-family="Helvetica,sans-Serif" font-size="10.00">FileScanner::getFilesInDir</text>
</a>
</g>
</g>
<!-- Node2 -->
<g id="node2" class="node">
<title>Node2</title>
<g id="a_node2"><a xlink:href="../../d3/d58/classjoda_1_1docparsing_1_1JSONFileDirectorySource.html#a74f5599788e754e12ed74f4db44fe7e4" target="_top" xlink:title=" ">
<polygon fill="white" stroke="black" points="361,-132 361,-162 531,-162 531,-132 361,-132"/>
<text text-anchor="start" x="369" y="-150" font-family="Helvetica,sans-Serif" font-size="10.00">joda::docparsing::JSONFile</text>
<text text-anchor="middle" x="446" y="-139" font-family="Helvetica,sans-Serif" font-size="10.00">DirectorySource::estimatedSize</text>
</a>
</g>
</g>
<!-- Node1&#45;&gt;Node2 -->
<g id="edge1" class="edge">
<title>Node1&#45;&gt;Node2</title>
<path fill="none" stroke="midnightblue" d="M598.18,-95.28C578.18,-104.34 553.6,-114.89 531,-123 522.29,-126.12 512.96,-129.12 503.81,-131.88"/>
<polygon fill="midnightblue" stroke="midnightblue" points="599.67,-98.45 607.31,-91.11 596.76,-92.08 599.67,-98.45"/>
</g>
<!-- Node3 -->
<g id="node3" class="node">
<title>Node3</title>
<g id="a_node3"><a xlink:href="../../d3/d58/classjoda_1_1docparsing_1_1JSONFileDirectorySource.html#af859aa6bf3a53808fbc006f875f0ee63" target="_top" xlink:title=" ">
<polygon fill="white" stroke="black" points="365.5,-83 365.5,-113 526.5,-113 526.5,-83 365.5,-83"/>
<text text-anchor="start" x="373.5" y="-101" font-family="Helvetica,sans-Serif" font-size="10.00">joda::docparsing::JSONFile</text>
<text text-anchor="middle" x="446" y="-90" font-family="Helvetica,sans-Serif" font-size="10.00">DirectorySource::feedSources</text>
</a>
</g>
</g>
<!-- Node1&#45;&gt;Node3 -->
<g id="edge2" class="edge">
<title>Node1&#45;&gt;Node3</title>
<path fill="none" stroke="midnightblue" d="M556.96,-85.4C546.87,-86.56 536.58,-87.74 526.53,-88.89"/>
<polygon fill="midnightblue" stroke="midnightblue" points="557.42,-88.87 566.96,-84.25 556.63,-81.92 557.42,-88.87"/>
</g>
<!-- Node4 -->
<g id="node4" class="node">
<title>Node4</title>
<g id="a_node4"><a xlink:href="../../d1/df6/classJoinParser.html#acb1407f19bba042e2ef5da32838a755b" target="_top" xlink:title=" ">
<polygon fill="white" stroke="black" points="397,-44.5 397,-63.5 495,-63.5 495,-44.5 397,-44.5"/>
<text text-anchor="middle" x="446" y="-51.5" font-family="Helvetica,sans-Serif" font-size="10.00">JoinParser::parse</text>
</a>
</g>
</g>
<!-- Node1&#45;&gt;Node4 -->
<g id="edge3" class="edge">
<title>Node1&#45;&gt;Node4</title>
<path fill="none" stroke="midnightblue" d="M556.75,-66.58C535.77,-64.17 513.9,-61.67 495.25,-59.53"/>
<polygon fill="midnightblue" stroke="midnightblue" points="556.63,-70.08 566.96,-67.75 557.42,-63.13 556.63,-70.08"/>
</g>
<!-- Node9 -->
<g id="node9" class="node">
<title>Node9</title>
<g id="a_node9"><a xlink:href="../../de/dbc/DirectoryFileScannerTest_8cpp.html#ae2cc5ced6a515e40cfb0fa349df57684" target="_top" xlink:title=" ">
<polygon fill="white" stroke="black" points="420,-6.5 420,-25.5 472,-25.5 472,-6.5 420,-6.5"/>
<text text-anchor="middle" x="446" y="-13.5" font-family="Helvetica,sans-Serif" font-size="10.00">TEST_F</text>
</a>
</g>
</g>
<!-- Node1&#45;&gt;Node9 -->
<g id="edge8" class="edge">
<title>Node1&#45;&gt;Node9</title>
<path fill="none" stroke="midnightblue" d="M593.58,-57.13C574.47,-49.62 551.86,-41.29 531,-35 511.53,-29.13 489.04,-24.14 472.23,-20.74"/>
<polygon fill="midnightblue" stroke="midnightblue" points="592.36,-60.41 602.94,-60.86 594.95,-53.91 592.36,-60.41"/>
</g>
<!-- Node5 -->
<g id="node5" class="node">
<title>Node5</title>
<g id="a_node5"><a xlink:href="../../dc/de9/classQueryPlan.html#ac5a086945e484f07e422bca233cce06b" target="_top" xlink:title=" ">
<polygon fill="white" stroke="black" points="185,-44.5 185,-63.5 325,-63.5 325,-44.5 185,-44.5"/>
<text text-anchor="middle" x="255" y="-51.5" font-family="Helvetica,sans-Serif" font-size="10.00">QueryPlan::executeQuery</text>
</a>
</g>
</g>
<!-- Node4&#45;&gt;Node5 -->
<g id="edge4" class="edge">
<title>Node4&#45;&gt;Node5</title>
<path fill="none" stroke="midnightblue" d="M386.59,-54C367.15,-54 345.31,-54 325.13,-54"/>
<polygon fill="midnightblue" stroke="midnightblue" points="386.82,-57.5 396.82,-54 386.82,-50.5 386.82,-57.5"/>
</g>
<!-- Node6 -->
<g id="node6" class="node">
<title>Node6</title>
<g id="a_node6"><a xlink:href="../../d5/de2/classjoda_1_1cli_1_1CLI.html#a5f1d2148a798cefa6391ae1f6b1142ba" target="_top" xlink:title=" ">
<polygon fill="white" stroke="black" points="6,-88 6,-118 143,-118 143,-88 6,-88"/>
<text text-anchor="start" x="14" y="-106" font-family="Helvetica,sans-Serif" font-size="10.00">joda::cli::CLI::benchmark</text>
<text text-anchor="middle" x="74.5" y="-95" font-family="Helvetica,sans-Serif" font-size="10.00">Query</text>
</a>
</g>
</g>
<!-- Node5&#45;&gt;Node6 -->
<g id="edge5" class="edge">
<title>Node5&#45;&gt;Node6</title>
<path fill="none" stroke="midnightblue" d="M209.27,-66.28C185.32,-72.85 155.61,-81.01 130.28,-87.96"/>
<polygon fill="midnightblue" stroke="midnightblue" points="210.44,-69.59 219.16,-63.56 208.59,-62.84 210.44,-69.59"/>
</g>
<!-- Node7 -->
<g id="node7" class="node">
<title>Node7</title>
<g id="a_node7"><a xlink:href="../../d5/de2/classjoda_1_1cli_1_1CLI.html#a3d27f72079d6aee39307eaa0edfe6e89" target="_top" xlink:title=" ">
<polygon fill="white" stroke="black" points="4.5,-39 4.5,-69 144.5,-69 144.5,-39 4.5,-39"/>
<text text-anchor="start" x="12.5" y="-57" font-family="Helvetica,sans-Serif" font-size="10.00">joda::cli::CLI::executeNon</text>
<text text-anchor="middle" x="74.5" y="-46" font-family="Helvetica,sans-Serif" font-size="10.00">InteractiveQuery</text>
</a>
</g>
</g>
<!-- Node5&#45;&gt;Node7 -->
<g id="edge6" class="edge">
<title>Node5&#45;&gt;Node7</title>
<path fill="none" stroke="midnightblue" d="M174.96,-54C164.85,-54 154.56,-54 144.62,-54"/>
<polygon fill="midnightblue" stroke="midnightblue" points="174.99,-57.5 184.99,-54 174.99,-50.5 174.99,-57.5"/>
</g>
<!-- Node8 -->
<g id="node8" class="node">
<title>Node8</title>
<g id="a_node8"><a xlink:href="../../d5/de2/classjoda_1_1cli_1_1CLI.html#a0b942c696bdd7631f911b4014e549685" target="_top" xlink:title=" ">
<polygon fill="white" stroke="black" points="0,-0.5 0,-19.5 149,-19.5 149,-0.5 0,-0.5"/>
<text text-anchor="middle" x="74.5" y="-7.5" font-family="Helvetica,sans-Serif" font-size="10.00">joda::cli::CLI::executeQuery</text>
</a>
</g>
</g>
<!-- Node5&#45;&gt;Node8 -->
<g id="edge7" class="edge">
<title>Node5&#45;&gt;Node8</title>
<path fill="none" stroke="midnightblue" d="M205.44,-42.03C176.75,-34.96 140.92,-26.13 114.16,-19.53"/>
<polygon fill="midnightblue" stroke="midnightblue" points="204.72,-45.46 215.27,-44.45 206.4,-38.66 204.72,-45.46"/>
</g>
</g>
</svg>
