<?xml version="1.0" encoding="UTF-8" standalone="no"?>
<!DOCTYPE svg PUBLIC "-//W3C//DTD SVG 1.1//EN"
 "http://www.w3.org/Graphics/SVG/1.1/DTD/svg11.dtd">
<!-- Generated by graphviz version 2.43.0 (0)
 -->
<!-- Title: /home/nico/joda_tmp/tmp&#45;joda&#45;dirs/JODA&#45;gh/libs/joda/core/modules/query/project/include/joda/query/project/ValueProviderProjector.h Pages: 1 -->
<svg width="1593pt" height="687pt"
 viewBox="0.00 0.00 1592.50 687.00" xmlns="http://www.w3.org/2000/svg" xmlns:xlink="http://www.w3.org/1999/xlink">
<g id="graph0" class="graph" transform="scale(1 1) rotate(0) translate(4 683)">
<title>/home/nico/joda_tmp/tmp&#45;joda&#45;dirs/JODA&#45;gh/libs/joda/core/modules/query/project/include/joda/query/project/ValueProviderProjector.h</title>
<polygon fill="white" stroke="transparent" points="-4,4 -4,-683 1588.5,-683 1588.5,4 -4,4"/>
<!-- Node1 -->
<g id="node1" class="node">
<title>Node1</title>
<g id="a_node1"><a xlink:title=" ">
<polygon fill="#bfbfbf" stroke="black" points="613.5,-615.5 613.5,-678.5 819.5,-678.5 819.5,-615.5 613.5,-615.5"/>
<text text-anchor="start" x="621.5" y="-666.5" font-family="Helvetica,sans-Serif" font-size="10.00">/home/nico/joda_tmp</text>
<text text-anchor="start" x="621.5" y="-655.5" font-family="Helvetica,sans-Serif" font-size="10.00">/tmp&#45;joda&#45;dirs/JODA</text>
<text text-anchor="start" x="621.5" y="-644.5" font-family="Helvetica,sans-Serif" font-size="10.00">&#45;gh/libs/joda/core/modules</text>
<text text-anchor="start" x="621.5" y="-633.5" font-family="Helvetica,sans-Serif" font-size="10.00">/query/project/include/joda</text>
<text text-anchor="middle" x="716.5" y="-622.5" font-family="Helvetica,sans-Serif" font-size="10.00">/query/project/ValueProviderProjector.h</text>
</a>
</g>
</g>
<!-- Node2 -->
<g id="node2" class="node">
<title>Node2</title>
<g id="a_node2"><a xlink:href="../../d9/d8f/ValueAccepter_8h.html" target="_top" xlink:title=" ">
<polygon fill="white" stroke="black" points="1112,-559.5 1112,-578.5 1297,-578.5 1297,-559.5 1112,-559.5"/>
<text text-anchor="middle" x="1204.5" y="-566.5" font-family="Helvetica,sans-Serif" font-size="10.00">joda/query/values/ValueAccepter.h</text>
</a>
</g>
</g>
<!-- Node1&#45;&gt;Node2 -->
<g id="edge1" class="edge">
<title>Node1&#45;&gt;Node2</title>
<path fill="none" stroke="midnightblue" d="M819.69,-629.93C916.49,-614.85 1058.24,-592.78 1139.95,-580.05"/>
<polygon fill="midnightblue" stroke="midnightblue" points="1140.51,-583.51 1149.85,-578.51 1139.43,-576.59 1140.51,-583.51"/>
</g>
<!-- Node33 -->
<g id="node33" class="node">
<title>Node33</title>
<g id="a_node33"><a xlink:href="../../dd/d50/IValueProvider_8h.html" target="_top" xlink:title=" ">
<polygon fill="white" stroke="black" points="599,-425.5 599,-455.5 736,-455.5 736,-425.5 599,-425.5"/>
<text text-anchor="start" x="607" y="-443.5" font-family="Helvetica,sans-Serif" font-size="10.00">joda/query/values/IValue</text>
<text text-anchor="middle" x="667.5" y="-432.5" font-family="Helvetica,sans-Serif" font-size="10.00">Provider.h</text>
</a>
</g>
</g>
<!-- Node1&#45;&gt;Node33 -->
<g id="edge73" class="edge">
<title>Node1&#45;&gt;Node33</title>
<path fill="none" stroke="midnightblue" d="M716.02,-615.4C714.73,-583.75 710.41,-533.26 696.5,-492 693.27,-482.43 688.15,-472.64 683.1,-464.26"/>
<polygon fill="midnightblue" stroke="midnightblue" points="686.05,-462.38 677.75,-455.8 680.14,-466.12 686.05,-462.38"/>
</g>
<!-- Node37 -->
<g id="node37" class="node">
<title>Node37</title>
<g id="a_node37"><a xlink:href="../../d6/d2b/IProjector_8h.html" target="_top" xlink:title=" ">
<polygon fill="white" stroke="black" points="34,-431 34,-450 105,-450 105,-431 34,-431"/>
<text text-anchor="middle" x="69.5" y="-438" font-family="Helvetica,sans-Serif" font-size="10.00">IProjector.h</text>
</a>
</g>
</g>
<!-- Node1&#45;&gt;Node37 -->
<g id="edge74" class="edge">
<title>Node1&#45;&gt;Node37</title>
<path fill="none" stroke="midnightblue" d="M619.99,-615.49C474.2,-569.41 204.43,-484.15 106.36,-453.15"/>
<polygon fill="midnightblue" stroke="midnightblue" points="107.19,-449.74 96.6,-450.07 105.08,-456.42 107.19,-449.74"/>
</g>
<!-- Node3 -->
<g id="node3" class="node">
<title>Node3</title>
<g id="a_node3"><a xlink:href="../../d1/dfd/RapidJsonDocument_8h.html" target="_top" xlink:title=" ">
<polygon fill="white" stroke="black" points="567.5,-369.5 567.5,-388.5 767.5,-388.5 767.5,-369.5 567.5,-369.5"/>
<text text-anchor="middle" x="667.5" y="-376.5" font-family="Helvetica,sans-Serif" font-size="10.00">joda/document/RapidJsonDocument.h</text>
</a>
</g>
</g>
<!-- Node2&#45;&gt;Node3 -->
<g id="edge2" class="edge">
<title>Node2&#45;&gt;Node3</title>
<path fill="none" stroke="midnightblue" d="M1180.03,-559.43C1093.44,-529.12 801.4,-426.88 701.41,-391.87"/>
<polygon fill="midnightblue" stroke="midnightblue" points="702.4,-388.51 691.81,-388.51 700.09,-395.12 702.4,-388.51"/>
</g>
<!-- Node9 -->
<g id="node9" class="node">
<title>Node9</title>
<g id="a_node9"><a xlink:href="../../d6/d09/RJFwd_8h.html" target="_top" xlink:title=" ">
<polygon fill="white" stroke="black" points="877.5,-56.5 877.5,-75.5 983.5,-75.5 983.5,-56.5 877.5,-56.5"/>
<text text-anchor="middle" x="930.5" y="-63.5" font-family="Helvetica,sans-Serif" font-size="10.00">joda/misc/RJFwd.h</text>
</a>
</g>
</g>
<!-- Node2&#45;&gt;Node9 -->
<g id="edge57" class="edge">
<title>Node2&#45;&gt;Node9</title>
<path fill="none" stroke="midnightblue" d="M1278.52,-559.47C1347.74,-546.89 1440.5,-516.11 1440.5,-441.5 1440.5,-441.5 1440.5,-441.5 1440.5,-316.5 1440.5,-284.05 1444.69,-268.7 1421.5,-246 1373.74,-199.25 1333.28,-243.59 1275.5,-210 1223.59,-179.82 1235.36,-140.48 1182.5,-112 1123.69,-80.32 1047.06,-70.33 993.82,-67.48"/>
<polygon fill="midnightblue" stroke="midnightblue" points="993.98,-63.98 983.82,-67.01 993.65,-70.97 993.98,-63.98"/>
</g>
<!-- Node19 -->
<g id="node19" class="node">
<title>Node19</title>
<g id="a_node19"><a xlink:title=" ">
<polygon fill="white" stroke="#bfbfbf" points="1361,-246.5 1361,-265.5 1412,-265.5 1412,-246.5 1361,-246.5"/>
<text text-anchor="middle" x="1386.5" y="-253.5" font-family="Helvetica,sans-Serif" font-size="10.00">variant</text>
</a>
</g>
</g>
<!-- Node2&#45;&gt;Node19 -->
<g id="edge72" class="edge">
<title>Node2&#45;&gt;Node19</title>
<path fill="none" stroke="midnightblue" d="M1251.42,-559.46C1309.97,-545.79 1402.5,-512.89 1402.5,-441.5 1402.5,-441.5 1402.5,-441.5 1402.5,-378 1402.5,-341.58 1395.29,-299.52 1390.55,-275.81"/>
<polygon fill="midnightblue" stroke="midnightblue" points="1393.92,-274.83 1388.46,-265.75 1387.07,-276.26 1393.92,-274.83"/>
</g>
<!-- Node2&#45;&gt;Node33 -->
<g id="edge58" class="edge">
<title>Node2&#45;&gt;Node33</title>
<path fill="none" stroke="midnightblue" d="M1168.01,-559.4C1079.47,-538.55 852.06,-484.98 736.75,-457.81"/>
<polygon fill="midnightblue" stroke="midnightblue" points="737.5,-454.39 726.96,-455.51 735.89,-461.21 737.5,-454.39"/>
</g>
<!-- Node36 -->
<g id="node36" class="node">
<title>Node36</title>
<g id="a_node36"><a xlink:href="../../de/d9e/PointerProvider_8h.html" target="_top" xlink:title=" ">
<polygon fill="white" stroke="black" points="547,-492.5 547,-522.5 688,-522.5 688,-492.5 547,-492.5"/>
<text text-anchor="start" x="555" y="-510.5" font-family="Helvetica,sans-Serif" font-size="10.00">joda/query/values/Pointer</text>
<text text-anchor="middle" x="617.5" y="-499.5" font-family="Helvetica,sans-Serif" font-size="10.00">Provider.h</text>
</a>
</g>
</g>
<!-- Node2&#45;&gt;Node36 -->
<g id="edge67" class="edge">
<title>Node2&#45;&gt;Node36</title>
<path fill="none" stroke="midnightblue" d="M1120.4,-559.48C1007.73,-548.05 809.16,-527.93 698.23,-516.68"/>
<polygon fill="midnightblue" stroke="midnightblue" points="698.41,-513.18 688.11,-515.66 697.7,-520.15 698.41,-513.18"/>
</g>
<!-- Node4 -->
<g id="node4" class="node">
<title>Node4</title>
<g id="a_node4"><a xlink:href="../../d2/d0d/ViewLayer_8h.html" target="_top" xlink:title=" ">
<polygon fill="white" stroke="black" points="809.5,-302.5 809.5,-332.5 925.5,-332.5 925.5,-302.5 809.5,-302.5"/>
<text text-anchor="start" x="817.5" y="-320.5" font-family="Helvetica,sans-Serif" font-size="10.00">joda/document/view</text>
<text text-anchor="middle" x="867.5" y="-309.5" font-family="Helvetica,sans-Serif" font-size="10.00">/ViewLayer.h</text>
</a>
</g>
</g>
<!-- Node3&#45;&gt;Node4 -->
<g id="edge3" class="edge">
<title>Node3&#45;&gt;Node4</title>
<path fill="none" stroke="midnightblue" d="M696.16,-369.48C725.9,-360.63 773.22,-346.55 810.6,-335.43"/>
<polygon fill="midnightblue" stroke="midnightblue" points="811.78,-338.73 820.36,-332.52 809.78,-332.02 811.78,-338.73"/>
</g>
<!-- Node3&#45;&gt;Node9 -->
<g id="edge56" class="edge">
<title>Node3&#45;&gt;Node9</title>
<path fill="none" stroke="midnightblue" d="M767.61,-372.24C819.1,-366.55 881.91,-355.28 934.5,-333 980.74,-313.4 990.9,-302.4 1025.5,-266 1057.57,-232.25 1075.04,-212.83 1062.5,-168 1054.65,-139.96 1050.24,-131.37 1028.5,-112 1011.76,-97.08 989.23,-86.28 970,-79"/>
<polygon fill="midnightblue" stroke="midnightblue" points="971.17,-75.7 960.58,-75.61 968.8,-82.28 971.17,-75.7"/>
</g>
<!-- Node10 -->
<g id="node10" class="node">
<title>Node10</title>
<g id="a_node10"><a xlink:title=" ">
<polygon fill="white" stroke="#bfbfbf" points="475.5,-0.5 475.5,-19.5 597.5,-19.5 597.5,-0.5 475.5,-0.5"/>
<text text-anchor="middle" x="536.5" y="-7.5" font-family="Helvetica,sans-Serif" font-size="10.00">rapidjson/allocators.h</text>
</a>
</g>
</g>
<!-- Node3&#45;&gt;Node10 -->
<g id="edge41" class="edge">
<title>Node3&#45;&gt;Node10</title>
<path fill="none" stroke="midnightblue" d="M567.43,-371.39C484.66,-364.65 374.44,-352.42 334.5,-333 315.45,-323.74 208.5,-211.18 208.5,-190 208.5,-190 208.5,-190 208.5,-121 208.5,-67.27 368.71,-34.91 465.2,-20.3"/>
<polygon fill="midnightblue" stroke="midnightblue" points="465.81,-23.75 475.19,-18.81 464.78,-16.82 465.81,-23.75"/>
</g>
<!-- Node12 -->
<g id="node12" class="node">
<title>Node12</title>
<g id="a_node12"><a xlink:title=" ">
<polygon fill="white" stroke="#bfbfbf" points="125,-0.5 125,-19.5 216,-19.5 216,-0.5 125,-0.5"/>
<text text-anchor="middle" x="170.5" y="-7.5" font-family="Helvetica,sans-Serif" font-size="10.00">rapidjson/fwd.h</text>
</a>
</g>
</g>
<!-- Node3&#45;&gt;Node12 -->
<g id="edge42" class="edge">
<title>Node3&#45;&gt;Node12</title>
<path fill="none" stroke="midnightblue" d="M567.44,-373.93C473.65,-368.68 341.22,-357.18 295.5,-333 220.88,-293.54 170.5,-274.41 170.5,-190 170.5,-190 170.5,-190 170.5,-121 170.5,-88.95 170.5,-51.64 170.5,-29.75"/>
<polygon fill="midnightblue" stroke="midnightblue" points="174,-29.56 170.5,-19.56 167,-29.56 174,-29.56"/>
</g>
<!-- Node25 -->
<g id="node25" class="node">
<title>Node25</title>
<g id="a_node25"><a xlink:title=" ">
<polygon fill="white" stroke="#bfbfbf" points="1115.5,-112.5 1115.5,-131.5 1173.5,-131.5 1173.5,-112.5 1115.5,-112.5"/>
<text text-anchor="middle" x="1144.5" y="-119.5" font-family="Helvetica,sans-Serif" font-size="10.00">memory</text>
</a>
</g>
</g>
<!-- Node3&#45;&gt;Node25 -->
<g id="edge44" class="edge">
<title>Node3&#45;&gt;Node25</title>
<path fill="none" stroke="midnightblue" d="M767.52,-374.54C892.74,-369.21 1093.91,-357.02 1118.5,-333 1170.87,-281.86 1157.47,-183.1 1148.95,-141.83"/>
<polygon fill="midnightblue" stroke="midnightblue" points="1152.31,-140.82 1146.74,-131.81 1145.48,-142.33 1152.31,-140.82"/>
</g>
<!-- Node28 -->
<g id="node28" class="node">
<title>Node28</title>
<g id="a_node28"><a xlink:title=" ">
<polygon fill="white" stroke="#bfbfbf" points="343.5,-308 343.5,-327 393.5,-327 393.5,-308 343.5,-308"/>
<text text-anchor="middle" x="368.5" y="-315" font-family="Helvetica,sans-Serif" font-size="10.00">atomic</text>
</a>
</g>
</g>
<!-- Node3&#45;&gt;Node28 -->
<g id="edge43" class="edge">
<title>Node3&#45;&gt;Node28</title>
<path fill="none" stroke="midnightblue" d="M597.77,-369.49C544.98,-362.2 470.97,-350.13 407.5,-333 404.69,-332.24 401.8,-331.36 398.92,-330.42"/>
<polygon fill="midnightblue" stroke="midnightblue" points="399.91,-327.06 389.32,-327.05 397.59,-333.66 399.91,-327.06"/>
</g>
<!-- Node29 -->
<g id="node29" class="node">
<title>Node29</title>
<g id="a_node29"><a xlink:href="../../df/d13/FileNameRepo_8h.html" target="_top" xlink:title=" ">
<polygon fill="white" stroke="black" points="385,-168.5 385,-209.5 540,-209.5 540,-168.5 385,-168.5"/>
<text text-anchor="start" x="393" y="-197.5" font-family="Helvetica,sans-Serif" font-size="10.00">../../../../../misc</text>
<text text-anchor="start" x="393" y="-186.5" font-family="Helvetica,sans-Serif" font-size="10.00">/include/joda/misc/FileName</text>
<text text-anchor="middle" x="462.5" y="-175.5" font-family="Helvetica,sans-Serif" font-size="10.00">Repo.h</text>
</a>
</g>
</g>
<!-- Node3&#45;&gt;Node29 -->
<g id="edge45" class="edge">
<title>Node3&#45;&gt;Node29</title>
<path fill="none" stroke="midnightblue" d="M615.09,-369.49C559.13,-357.31 473.17,-328.97 433.5,-266 424.19,-251.22 430.65,-232.97 439.81,-218.06"/>
<polygon fill="midnightblue" stroke="midnightblue" points="442.75,-219.98 445.42,-209.72 436.94,-216.07 442.75,-219.98"/>
</g>
<!-- Node31 -->
<g id="node31" class="node">
<title>Node31</title>
<g id="a_node31"><a xlink:href="../../d5/d6c/IOrigin_8h.html" target="_top" xlink:title=" ">
<polygon fill="white" stroke="black" points="1284.5,-179.5 1284.5,-198.5 1342.5,-198.5 1342.5,-179.5 1284.5,-179.5"/>
<text text-anchor="middle" x="1313.5" y="-186.5" font-family="Helvetica,sans-Serif" font-size="10.00">IOrigin.h</text>
</a>
</g>
</g>
<!-- Node3&#45;&gt;Node31 -->
<g id="edge51" class="edge">
<title>Node3&#45;&gt;Node31</title>
<path fill="none" stroke="midnightblue" d="M767.63,-376.24C890,-372.81 1089.12,-362.71 1156.5,-333 1221.29,-304.44 1277.22,-238.25 1301.13,-206.97"/>
<polygon fill="midnightblue" stroke="midnightblue" points="1304.06,-208.9 1307.25,-198.79 1298.46,-204.7 1304.06,-208.9"/>
</g>
<!-- Node5 -->
<g id="node5" class="node">
<title>Node5</title>
<g id="a_node5"><a xlink:title=" ">
<polygon fill="white" stroke="#bfbfbf" points="1358.5,-0.5 1358.5,-19.5 1444.5,-19.5 1444.5,-0.5 1358.5,-0.5"/>
<text text-anchor="middle" x="1401.5" y="-7.5" font-family="Helvetica,sans-Serif" font-size="10.00">glog/logging.h</text>
</a>
</g>
</g>
<!-- Node4&#45;&gt;Node5 -->
<g id="edge4" class="edge">
<title>Node4&#45;&gt;Node5</title>
<path fill="none" stroke="midnightblue" d="M925.75,-308.93C1038.45,-293.45 1281.43,-255.72 1351.5,-210 1407.43,-173.5 1413.03,-142.47 1419.5,-76 1420.36,-67.15 1421.18,-64.73 1419.5,-56 1417.71,-46.7 1414.02,-36.89 1410.44,-28.8"/>
<polygon fill="midnightblue" stroke="midnightblue" points="1413.56,-27.21 1406.12,-19.66 1407.23,-30.2 1413.56,-27.21"/>
</g>
<!-- Node6 -->
<g id="node6" class="node">
<title>Node6</title>
<g id="a_node6"><a xlink:href="../../db/d16/config_8h.html" target="_top" xlink:title=" ">
<polygon fill="white" stroke="black" points="275,-246.5 275,-265.5 386,-265.5 386,-246.5 275,-246.5"/>
<text text-anchor="middle" x="330.5" y="-253.5" font-family="Helvetica,sans-Serif" font-size="10.00">joda/config/config.h</text>
</a>
</g>
</g>
<!-- Node4&#45;&gt;Node6 -->
<g id="edge5" class="edge">
<title>Node4&#45;&gt;Node6</title>
<path fill="none" stroke="midnightblue" d="M809.27,-310.05C708.49,-298.88 502.25,-276.03 396.39,-264.3"/>
<polygon fill="midnightblue" stroke="midnightblue" points="396.48,-260.79 386.16,-263.17 395.71,-267.75 396.48,-260.79"/>
</g>
<!-- Node4&#45;&gt;Node9 -->
<g id="edge8" class="edge">
<title>Node4&#45;&gt;Node9</title>
<path fill="none" stroke="midnightblue" d="M924.6,-302.42C969,-287.84 1026.33,-259.96 1046.5,-210 1068.87,-154.58 996.71,-103.85 956.15,-80.51"/>
<polygon fill="midnightblue" stroke="midnightblue" points="957.75,-77.39 947.31,-75.56 954.33,-83.5 957.75,-77.39"/>
</g>
<!-- Node15 -->
<g id="node15" class="node">
<title>Node15</title>
<g id="a_node15"><a xlink:title=" ">
<polygon fill="white" stroke="#bfbfbf" points="443,-246.5 443,-265.5 572,-265.5 572,-246.5 443,-246.5"/>
<text text-anchor="middle" x="507.5" y="-253.5" font-family="Helvetica,sans-Serif" font-size="10.00">rapidjson/stringbuffer.h</text>
</a>
</g>
</g>
<!-- Node4&#45;&gt;Node15 -->
<g id="edge15" class="edge">
<title>Node4&#45;&gt;Node15</title>
<path fill="none" stroke="midnightblue" d="M809.26,-306.87C743.29,-295.97 636.26,-278.28 568.98,-267.16"/>
<polygon fill="midnightblue" stroke="midnightblue" points="569.38,-263.68 558.95,-265.5 568.24,-270.59 569.38,-263.68"/>
</g>
<!-- Node16 -->
<g id="node16" class="node">
<title>Node16</title>
<g id="a_node16"><a xlink:title=" ">
<polygon fill="white" stroke="#bfbfbf" points="590.5,-246.5 590.5,-265.5 654.5,-265.5 654.5,-246.5 590.5,-246.5"/>
<text text-anchor="middle" x="622.5" y="-253.5" font-family="Helvetica,sans-Serif" font-size="10.00">algorithm</text>
</a>
</g>
</g>
<!-- Node4&#45;&gt;Node16 -->
<g id="edge16" class="edge">
<title>Node4&#45;&gt;Node16</title>
<path fill="none" stroke="midnightblue" d="M809.75,-302.47C765.24,-291.67 704.73,-276.97 664.69,-267.25"/>
<polygon fill="midnightblue" stroke="midnightblue" points="665.26,-263.78 654.72,-264.82 663.61,-270.59 665.26,-263.78"/>
</g>
<!-- Node17 -->
<g id="node17" class="node">
<title>Node17</title>
<g id="a_node17"><a xlink:title=" ">
<polygon fill="white" stroke="#bfbfbf" points="529.5,-112.5 529.5,-131.5 577.5,-131.5 577.5,-112.5 529.5,-112.5"/>
<text text-anchor="middle" x="553.5" y="-119.5" font-family="Helvetica,sans-Serif" font-size="10.00">mutex</text>
</a>
</g>
</g>
<!-- Node4&#45;&gt;Node17 -->
<g id="edge17" class="edge">
<title>Node4&#45;&gt;Node17</title>
<path fill="none" stroke="midnightblue" d="M841.96,-302.44C805.65,-282.49 742.9,-248.13 737.5,-246 678.54,-222.72 649.19,-249.35 599.5,-210 577.35,-192.46 564.62,-161.27 558.38,-141.39"/>
<polygon fill="midnightblue" stroke="midnightblue" points="561.71,-140.3 555.57,-131.67 554.99,-142.25 561.71,-140.3"/>
</g>
<!-- Node18 -->
<g id="node18" class="node">
<title>Node18</title>
<g id="a_node18"><a xlink:title=" ">
<polygon fill="white" stroke="#bfbfbf" points="663,-56.5 663,-75.5 756,-75.5 756,-56.5 663,-56.5"/>
<text text-anchor="middle" x="709.5" y="-63.5" font-family="Helvetica,sans-Serif" font-size="10.00">unordered_map</text>
</a>
</g>
</g>
<!-- Node4&#45;&gt;Node18 -->
<g id="edge18" class="edge">
<title>Node4&#45;&gt;Node18</title>
<path fill="none" stroke="midnightblue" d="M877.02,-302.38C885.76,-287.5 895.9,-263.77 885.5,-246 869.02,-217.83 846.26,-231.26 821.5,-210 776.79,-171.61 737.67,-113.07 719.81,-84.25"/>
<polygon fill="midnightblue" stroke="midnightblue" points="722.78,-82.41 714.59,-75.69 716.81,-86.05 722.78,-82.41"/>
</g>
<!-- Node4&#45;&gt;Node19 -->
<g id="edge19" class="edge">
<title>Node4&#45;&gt;Node19</title>
<path fill="none" stroke="midnightblue" d="M925.53,-309.85C1033.55,-297.46 1262.54,-271.21 1350.78,-261.09"/>
<polygon fill="midnightblue" stroke="midnightblue" points="1351.29,-264.56 1360.83,-259.94 1350.5,-257.6 1351.29,-264.56"/>
</g>
<!-- Node20 -->
<g id="node20" class="node">
<title>Node20</title>
<g id="a_node20"><a xlink:title=" ">
<polygon fill="white" stroke="#bfbfbf" points="672.5,-246.5 672.5,-265.5 728.5,-265.5 728.5,-246.5 672.5,-246.5"/>
<text text-anchor="middle" x="700.5" y="-253.5" font-family="Helvetica,sans-Serif" font-size="10.00">optional</text>
</a>
</g>
</g>
<!-- Node4&#45;&gt;Node20 -->
<g id="edge20" class="edge">
<title>Node4&#45;&gt;Node20</title>
<path fill="none" stroke="midnightblue" d="M827.92,-302.4C799.4,-292.24 761.33,-278.67 734.24,-269.02"/>
<polygon fill="midnightblue" stroke="midnightblue" points="735.39,-265.72 724.8,-265.66 733.05,-272.31 735.39,-265.72"/>
</g>
<!-- Node21 -->
<g id="node21" class="node">
<title>Node21</title>
<g id="a_node21"><a xlink:href="../../da/d3b/ObjectIterator_8h.html" target="_top" xlink:title=" ">
<polygon fill="white" stroke="black" points="784.5,-246.5 784.5,-265.5 876.5,-265.5 876.5,-246.5 784.5,-246.5"/>
<text text-anchor="middle" x="830.5" y="-253.5" font-family="Helvetica,sans-Serif" font-size="10.00">ObjectIterator.h</text>
</a>
</g>
</g>
<!-- Node4&#45;&gt;Node21 -->
<g id="edge21" class="edge">
<title>Node4&#45;&gt;Node21</title>
<path fill="none" stroke="midnightblue" d="M858.73,-302.4C853.52,-294.02 846.87,-283.33 841.33,-274.42"/>
<polygon fill="midnightblue" stroke="midnightblue" points="844.14,-272.3 835.88,-265.66 838.19,-276 844.14,-272.3"/>
</g>
<!-- Node24 -->
<g id="node24" class="node">
<title>Node24</title>
<g id="a_node24"><a xlink:href="../../d5/de2/ViewCursor_8h.html" target="_top" xlink:title=" ">
<polygon fill="white" stroke="black" points="850.5,-179.5 850.5,-198.5 930.5,-198.5 930.5,-179.5 850.5,-179.5"/>
<text text-anchor="middle" x="890.5" y="-186.5" font-family="Helvetica,sans-Serif" font-size="10.00">ViewCursor.h</text>
</a>
</g>
</g>
<!-- Node4&#45;&gt;Node24 -->
<g id="edge34" class="edge">
<title>Node4&#45;&gt;Node24</title>
<path fill="none" stroke="midnightblue" d="M911.73,-302.44C928.85,-294.59 946.67,-282.89 956.5,-266 970.61,-241.76 941.09,-218.04 917.1,-203.72"/>
<polygon fill="midnightblue" stroke="midnightblue" points="918.7,-200.6 908.27,-198.71 915.24,-206.69 918.7,-200.6"/>
</g>
<!-- Node26 -->
<g id="node26" class="node">
<title>Node26</title>
<g id="a_node26"><a xlink:href="../../d0/d10/ViewStructure_8h.html" target="_top" xlink:title=" ">
<polygon fill="white" stroke="black" points="775.5,-112.5 775.5,-131.5 869.5,-131.5 869.5,-112.5 775.5,-112.5"/>
<text text-anchor="middle" x="822.5" y="-119.5" font-family="Helvetica,sans-Serif" font-size="10.00">ViewStructure.h</text>
</a>
</g>
</g>
<!-- Node4&#45;&gt;Node26 -->
<g id="edge35" class="edge">
<title>Node4&#45;&gt;Node26</title>
<path fill="none" stroke="midnightblue" d="M889.83,-302.27C908.88,-288.27 931.31,-266.14 918.5,-246 898.22,-214.13 865.08,-239.51 841.5,-210 825.92,-190.51 822.43,-161.01 821.98,-141.87"/>
<polygon fill="midnightblue" stroke="midnightblue" points="825.48,-141.72 822.01,-131.71 818.48,-141.71 825.48,-141.72"/>
</g>
<!-- Node27 -->
<g id="node27" class="node">
<title>Node27</title>
<g id="a_node27"><a xlink:href="../../d8/dee/VirtualObject_8h.html" target="_top" xlink:title=" ">
<polygon fill="white" stroke="black" points="949,-179.5 949,-198.5 1038,-198.5 1038,-179.5 949,-179.5"/>
<text text-anchor="middle" x="993.5" y="-186.5" font-family="Helvetica,sans-Serif" font-size="10.00">VirtualObject.h</text>
</a>
</g>
</g>
<!-- Node4&#45;&gt;Node27 -->
<g id="edge36" class="edge">
<title>Node4&#45;&gt;Node27</title>
<path fill="none" stroke="midnightblue" d="M917.62,-302.41C937.23,-294.59 958.36,-282.92 972.5,-266 986.05,-249.78 990.89,-225.49 992.61,-208.75"/>
<polygon fill="midnightblue" stroke="midnightblue" points="996.11,-208.8 993.36,-198.57 989.13,-208.28 996.11,-208.8"/>
</g>
<!-- Node7 -->
<g id="node7" class="node">
<title>Node7</title>
<g id="a_node7"><a xlink:title=" ">
<polygon fill="white" stroke="#bfbfbf" points="312.5,-179.5 312.5,-198.5 366.5,-198.5 366.5,-179.5 312.5,-179.5"/>
<text text-anchor="middle" x="339.5" y="-186.5" font-family="Helvetica,sans-Serif" font-size="10.00">istream</text>
</a>
</g>
</g>
<!-- Node6&#45;&gt;Node7 -->
<g id="edge6" class="edge">
<title>Node6&#45;&gt;Node7</title>
<path fill="none" stroke="midnightblue" d="M331.71,-246.23C333.04,-236.68 335.19,-221.12 336.9,-208.78"/>
<polygon fill="midnightblue" stroke="midnightblue" points="340.4,-209.01 338.31,-198.63 333.47,-208.05 340.4,-209.01"/>
</g>
<!-- Node8 -->
<g id="node8" class="node">
<title>Node8</title>
<g id="a_node8"><a xlink:title=" ">
<polygon fill="white" stroke="#bfbfbf" points="512.5,-56.5 512.5,-75.5 556.5,-75.5 556.5,-56.5 512.5,-56.5"/>
<text text-anchor="middle" x="534.5" y="-63.5" font-family="Helvetica,sans-Serif" font-size="10.00">string</text>
</a>
</g>
</g>
<!-- Node6&#45;&gt;Node8 -->
<g id="edge7" class="edge">
<title>Node6&#45;&gt;Node8</title>
<path fill="none" stroke="midnightblue" d="M323.35,-246.36C316.73,-237.76 307.34,-223.87 303.5,-210 291.07,-165.13 302.27,-138.57 340.5,-112 389.63,-77.85 460.97,-69.31 502.06,-67.36"/>
<polygon fill="midnightblue" stroke="midnightblue" points="502.45,-70.84 512.31,-66.98 502.19,-63.85 502.45,-70.84"/>
</g>
<!-- Node9&#45;&gt;Node5 -->
<g id="edge9" class="edge">
<title>Node9&#45;&gt;Node5</title>
<path fill="none" stroke="midnightblue" d="M983.52,-57.77C988.24,-57.15 992.96,-56.56 997.5,-56 1123.19,-40.56 1271.17,-24.66 1348.44,-16.52"/>
<polygon fill="midnightblue" stroke="midnightblue" points="1348.83,-20 1358.41,-15.48 1348.1,-13.04 1348.83,-20"/>
</g>
<!-- Node9&#45;&gt;Node10 -->
<g id="edge10" class="edge">
<title>Node9&#45;&gt;Node10</title>
<path fill="none" stroke="midnightblue" d="M877.36,-57.72C807.71,-48.17 685.29,-31.39 607.68,-20.76"/>
<polygon fill="midnightblue" stroke="midnightblue" points="607.89,-17.25 597.51,-19.36 606.94,-24.19 607.89,-17.25"/>
</g>
<!-- Node11 -->
<g id="node11" class="node">
<title>Node11</title>
<g id="a_node11"><a xlink:title=" ">
<polygon fill="white" stroke="#bfbfbf" points="1462.5,-0.5 1462.5,-19.5 1584.5,-19.5 1584.5,-0.5 1462.5,-0.5"/>
<text text-anchor="middle" x="1523.5" y="-7.5" font-family="Helvetica,sans-Serif" font-size="10.00">rapidjson/document.h</text>
</a>
</g>
</g>
<!-- Node9&#45;&gt;Node11 -->
<g id="edge11" class="edge">
<title>Node9&#45;&gt;Node11</title>
<path fill="none" stroke="midnightblue" d="M983.65,-61.17C1076.5,-54.31 1274.49,-38.98 1452.37,-20.08"/>
<polygon fill="midnightblue" stroke="midnightblue" points="1452.86,-23.55 1462.43,-19 1452.12,-16.59 1452.86,-23.55"/>
</g>
<!-- Node9&#45;&gt;Node12 -->
<g id="edge12" class="edge">
<title>Node9&#45;&gt;Node12</title>
<path fill="none" stroke="midnightblue" d="M877.36,-61.22C738.84,-51.38 367.69,-25.01 226.27,-14.96"/>
<polygon fill="midnightblue" stroke="midnightblue" points="226.32,-11.46 216.1,-14.24 225.82,-18.44 226.32,-11.46"/>
</g>
<!-- Node13 -->
<g id="node13" class="node">
<title>Node13</title>
<g id="a_node13"><a xlink:title=" ">
<polygon fill="white" stroke="#bfbfbf" points="855.5,-0.5 855.5,-19.5 1005.5,-19.5 1005.5,-0.5 855.5,-0.5"/>
<text text-anchor="middle" x="930.5" y="-7.5" font-family="Helvetica,sans-Serif" font-size="10.00">rapidjson/istreamwrapper.h</text>
</a>
</g>
</g>
<!-- Node9&#45;&gt;Node13 -->
<g id="edge13" class="edge">
<title>Node9&#45;&gt;Node13</title>
<path fill="none" stroke="midnightblue" d="M930.5,-56.08C930.5,-49.01 930.5,-38.86 930.5,-29.99"/>
<polygon fill="midnightblue" stroke="midnightblue" points="934,-29.75 930.5,-19.75 927,-29.75 934,-29.75"/>
</g>
<!-- Node14 -->
<g id="node14" class="node">
<title>Node14</title>
<g id="a_node14"><a xlink:title=" ">
<polygon fill="white" stroke="#bfbfbf" points="0,-0.5 0,-19.5 107,-19.5 107,-0.5 0,-0.5"/>
<text text-anchor="middle" x="53.5" y="-7.5" font-family="Helvetica,sans-Serif" font-size="10.00">rapidjson/pointer.h</text>
</a>
</g>
</g>
<!-- Node9&#45;&gt;Node14 -->
<g id="edge14" class="edge">
<title>Node9&#45;&gt;Node14</title>
<path fill="none" stroke="midnightblue" d="M877.41,-62.1C709.58,-52.93 197.24,-24.9 117.34,-19.81"/>
<polygon fill="midnightblue" stroke="midnightblue" points="117.45,-16.31 107.23,-19.1 116.96,-23.29 117.45,-16.31"/>
</g>
<!-- Node21&#45;&gt;Node8 -->
<g id="edge23" class="edge">
<title>Node21&#45;&gt;Node8</title>
<path fill="none" stroke="midnightblue" d="M784.1,-247.18C727.43,-237.26 637.55,-220.23 625.5,-210 589.77,-179.65 613.66,-150.2 586.5,-112 578.18,-100.29 566.19,-89.65 555.82,-81.66"/>
<polygon fill="midnightblue" stroke="midnightblue" points="557.74,-78.72 547.61,-75.6 553.58,-84.35 557.74,-78.72"/>
</g>
<!-- Node21&#45;&gt;Node9 -->
<g id="edge22" class="edge">
<title>Node21&#45;&gt;Node9</title>
<path fill="none" stroke="midnightblue" d="M820.61,-246.21C795.28,-222.64 732.36,-156.77 766.5,-112 778.99,-95.62 826.56,-83.73 867.28,-76.3"/>
<polygon fill="midnightblue" stroke="midnightblue" points="867.95,-79.74 877.19,-74.56 866.73,-72.85 867.95,-79.74"/>
</g>
<!-- Node22 -->
<g id="node22" class="node">
<title>Node22</title>
<g id="a_node22"><a xlink:title=" ">
<polygon fill="white" stroke="#bfbfbf" points="635,-179.5 635,-198.5 680,-198.5 680,-179.5 635,-179.5"/>
<text text-anchor="middle" x="657.5" y="-186.5" font-family="Helvetica,sans-Serif" font-size="10.00">utility</text>
</a>
</g>
</g>
<!-- Node21&#45;&gt;Node22 -->
<g id="edge24" class="edge">
<title>Node21&#45;&gt;Node22</title>
<path fill="none" stroke="midnightblue" d="M799.68,-246.49C771.74,-238.38 729.66,-225.18 694.5,-210 690.08,-208.09 685.49,-205.84 681.1,-203.55"/>
<polygon fill="midnightblue" stroke="midnightblue" points="682.43,-200.29 671.97,-198.59 679.08,-206.44 682.43,-200.29"/>
</g>
<!-- Node23 -->
<g id="node23" class="node">
<title>Node23</title>
<g id="a_node23"><a xlink:title=" ">
<polygon fill="white" stroke="#bfbfbf" points="634,-112.5 634,-131.5 681,-131.5 681,-112.5 634,-112.5"/>
<text text-anchor="middle" x="657.5" y="-119.5" font-family="Helvetica,sans-Serif" font-size="10.00">vector</text>
</a>
</g>
</g>
<!-- Node21&#45;&gt;Node23 -->
<g id="edge25" class="edge">
<title>Node21&#45;&gt;Node23</title>
<path fill="none" stroke="midnightblue" d="M804.29,-246.47C783.54,-238.93 754.49,-226.54 732.5,-210 705.93,-190.01 682.16,-159.16 668.81,-140.07"/>
<polygon fill="midnightblue" stroke="midnightblue" points="671.65,-138.03 663.13,-131.74 665.87,-141.98 671.65,-138.03"/>
</g>
<!-- Node21&#45;&gt;Node24 -->
<g id="edge26" class="edge">
<title>Node21&#45;&gt;Node24</title>
<path fill="none" stroke="midnightblue" d="M838.59,-246.23C848.04,-236 863.86,-218.86 875.55,-206.19"/>
<polygon fill="midnightblue" stroke="midnightblue" points="878.33,-208.35 882.54,-198.63 873.18,-203.6 878.33,-208.35"/>
</g>
<!-- Node24&#45;&gt;Node9 -->
<g id="edge27" class="edge">
<title>Node24&#45;&gt;Node9</title>
<path fill="none" stroke="midnightblue" d="M893.38,-179.3C899.86,-159.68 915.74,-111.64 924.49,-85.19"/>
<polygon fill="midnightblue" stroke="midnightblue" points="927.83,-86.22 927.65,-75.62 921.19,-84.02 927.83,-86.22"/>
</g>
<!-- Node24&#45;&gt;Node23 -->
<g id="edge29" class="edge">
<title>Node24&#45;&gt;Node23</title>
<path fill="none" stroke="midnightblue" d="M859.56,-179.37C815.8,-167.16 736.16,-144.94 691.03,-132.36"/>
<polygon fill="midnightblue" stroke="midnightblue" points="691.72,-128.91 681.15,-129.6 689.84,-135.66 691.72,-128.91"/>
</g>
<!-- Node24&#45;&gt;Node25 -->
<g id="edge28" class="edge">
<title>Node24&#45;&gt;Node25</title>
<path fill="none" stroke="midnightblue" d="M909.3,-179.44C918.31,-175.57 929.32,-171.17 939.5,-168 996.11,-150.38 1063.57,-136.98 1105.22,-129.55"/>
<polygon fill="midnightblue" stroke="midnightblue" points="1105.99,-132.97 1115.23,-127.79 1104.78,-126.08 1105.99,-132.97"/>
</g>
<!-- Node24&#45;&gt;Node26 -->
<g id="edge30" class="edge">
<title>Node24&#45;&gt;Node26</title>
<path fill="none" stroke="midnightblue" d="M881.33,-179.23C870.52,-168.9 852.35,-151.54 839.06,-138.83"/>
<polygon fill="midnightblue" stroke="midnightblue" points="841.17,-136.01 831.53,-131.63 836.34,-141.07 841.17,-136.01"/>
</g>
<!-- Node26&#45;&gt;Node8 -->
<g id="edge32" class="edge">
<title>Node26&#45;&gt;Node8</title>
<path fill="none" stroke="midnightblue" d="M776.87,-112.44C718.1,-101.43 617.48,-82.56 566.35,-72.97"/>
<polygon fill="midnightblue" stroke="midnightblue" points="566.99,-69.53 556.51,-71.13 565.7,-76.41 566.99,-69.53"/>
</g>
<!-- Node26&#45;&gt;Node9 -->
<g id="edge31" class="edge">
<title>Node26&#45;&gt;Node9</title>
<path fill="none" stroke="midnightblue" d="M839.85,-112.32C857.17,-103.66 884.02,-90.24 904,-80.25"/>
<polygon fill="midnightblue" stroke="midnightblue" points="905.81,-83.26 913.19,-75.65 902.68,-77 905.81,-83.26"/>
</g>
<!-- Node26&#45;&gt;Node18 -->
<g id="edge33" class="edge">
<title>Node26&#45;&gt;Node18</title>
<path fill="none" stroke="midnightblue" d="M804.59,-112.44C786.25,-103.68 757.49,-89.94 736.41,-79.86"/>
<polygon fill="midnightblue" stroke="midnightblue" points="737.85,-76.67 727.32,-75.52 734.83,-82.99 737.85,-76.67"/>
</g>
<!-- Node27&#45;&gt;Node5 -->
<g id="edge37" class="edge">
<title>Node27&#45;&gt;Node5</title>
<path fill="none" stroke="midnightblue" d="M1004.14,-179.43C1023.51,-164.17 1066.27,-131.98 1106.5,-112 1191.52,-69.78 1298.48,-38.01 1357.43,-22.18"/>
<polygon fill="midnightblue" stroke="midnightblue" points="1358.4,-25.55 1367.17,-19.6 1356.6,-18.78 1358.4,-25.55"/>
</g>
<!-- Node27&#45;&gt;Node8 -->
<g id="edge39" class="edge">
<title>Node27&#45;&gt;Node8</title>
<path fill="none" stroke="midnightblue" d="M983.9,-179.39C965.16,-163.14 921.77,-128.14 878.5,-112 821.62,-90.78 641.02,-75.08 566.81,-69.36"/>
<polygon fill="midnightblue" stroke="midnightblue" points="566.9,-65.86 556.66,-68.59 566.37,-72.84 566.9,-65.86"/>
</g>
<!-- Node27&#45;&gt;Node9 -->
<g id="edge38" class="edge">
<title>Node27&#45;&gt;Node9</title>
<path fill="none" stroke="midnightblue" d="M988.97,-179.3C978.66,-159.5 953.3,-110.78 939.61,-84.49"/>
<polygon fill="midnightblue" stroke="midnightblue" points="942.71,-82.88 934.99,-75.62 936.5,-86.11 942.71,-82.88"/>
</g>
<!-- Node27&#45;&gt;Node26 -->
<g id="edge40" class="edge">
<title>Node27&#45;&gt;Node26</title>
<path fill="none" stroke="midnightblue" d="M970.79,-179.37C940.94,-168.02 888.33,-148.02 854.47,-135.15"/>
<polygon fill="midnightblue" stroke="midnightblue" points="855.62,-131.85 845.03,-131.56 853.13,-138.39 855.62,-131.85"/>
</g>
<!-- Node29&#45;&gt;Node8 -->
<g id="edge47" class="edge">
<title>Node29&#45;&gt;Node8</title>
<path fill="none" stroke="midnightblue" d="M466.17,-168.44C469.81,-152.38 476.46,-129.51 487.5,-112 494.68,-100.62 505.35,-90.09 514.71,-82.08"/>
<polygon fill="midnightblue" stroke="midnightblue" points="516.95,-84.77 522.48,-75.73 512.52,-79.35 516.95,-84.77"/>
</g>
<!-- Node29&#45;&gt;Node17 -->
<g id="edge46" class="edge">
<title>Node29&#45;&gt;Node17</title>
<path fill="none" stroke="midnightblue" d="M489.8,-168.5C503.76,-158.53 520.44,-146.61 533.23,-137.48"/>
<polygon fill="midnightblue" stroke="midnightblue" points="535.28,-140.31 541.39,-131.65 531.21,-134.62 535.28,-140.31"/>
</g>
<!-- Node29&#45;&gt;Node18 -->
<g id="edge48" class="edge">
<title>Node29&#45;&gt;Node18</title>
<path fill="none" stroke="midnightblue" d="M472.39,-168.39C482.22,-150.92 498.93,-126.02 520.5,-112 560.18,-86.21 613.12,-75.18 652.88,-70.47"/>
<polygon fill="midnightblue" stroke="midnightblue" points="653.39,-73.93 662.95,-69.37 652.63,-66.97 653.39,-73.93"/>
</g>
<!-- Node29&#45;&gt;Node23 -->
<g id="edge50" class="edge">
<title>Node29&#45;&gt;Node23</title>
<path fill="none" stroke="midnightblue" d="M521.01,-168.5C554.58,-157.31 595.53,-143.66 623.77,-134.24"/>
<polygon fill="midnightblue" stroke="midnightblue" points="625.18,-137.46 633.56,-130.98 622.97,-130.82 625.18,-137.46"/>
</g>
<!-- Node30 -->
<g id="node30" class="node">
<title>Node30</title>
<g id="a_node30"><a xlink:title=" ">
<polygon fill="white" stroke="#bfbfbf" points="349.5,-112.5 349.5,-131.5 435.5,-131.5 435.5,-112.5 349.5,-112.5"/>
<text text-anchor="middle" x="392.5" y="-119.5" font-family="Helvetica,sans-Serif" font-size="10.00">unordered_set</text>
</a>
</g>
</g>
<!-- Node29&#45;&gt;Node30 -->
<g id="edge49" class="edge">
<title>Node29&#45;&gt;Node30</title>
<path fill="none" stroke="midnightblue" d="M441.5,-168.5C431.18,-158.92 418.91,-147.53 409.24,-138.54"/>
<polygon fill="midnightblue" stroke="midnightblue" points="411.53,-135.89 401.82,-131.65 406.76,-141.02 411.53,-135.89"/>
</g>
<!-- Node31&#45;&gt;Node5 -->
<g id="edge52" class="edge">
<title>Node31&#45;&gt;Node5</title>
<path fill="none" stroke="midnightblue" d="M1333.39,-179.48C1351.63,-170.52 1377.69,-154.57 1390.5,-132 1408.83,-99.71 1407.15,-54.61 1404.32,-29.59"/>
<polygon fill="midnightblue" stroke="midnightblue" points="1407.78,-29.08 1403,-19.62 1400.84,-30 1407.78,-29.08"/>
</g>
<!-- Node31&#45;&gt;Node9 -->
<g id="edge55" class="edge">
<title>Node31&#45;&gt;Node9</title>
<path fill="none" stroke="midnightblue" d="M1305.3,-179.2C1289.6,-162.95 1253.44,-128.41 1215.5,-112 1143.57,-80.9 1053.11,-71 993.64,-68.01"/>
<polygon fill="midnightblue" stroke="midnightblue" points="993.79,-64.52 983.64,-67.56 993.47,-71.51 993.79,-64.52"/>
</g>
<!-- Node31&#45;&gt;Node25 -->
<g id="edge54" class="edge">
<title>Node31&#45;&gt;Node25</title>
<path fill="none" stroke="midnightblue" d="M1291.06,-179.37C1261.68,-168.07 1210.01,-148.2 1176.53,-135.32"/>
<polygon fill="midnightblue" stroke="midnightblue" points="1177.36,-131.89 1166.77,-131.56 1174.84,-138.42 1177.36,-131.89"/>
</g>
<!-- Node32 -->
<g id="node32" class="node">
<title>Node32</title>
<g id="a_node32"><a xlink:title=" ">
<polygon fill="white" stroke="#bfbfbf" points="1267.5,-112.5 1267.5,-131.5 1381.5,-131.5 1381.5,-112.5 1267.5,-112.5"/>
<text text-anchor="middle" x="1324.5" y="-119.5" font-family="Helvetica,sans-Serif" font-size="10.00">boost/operators.hpp</text>
</a>
</g>
</g>
<!-- Node31&#45;&gt;Node32 -->
<g id="edge53" class="edge">
<title>Node31&#45;&gt;Node32</title>
<path fill="none" stroke="midnightblue" d="M1314.98,-179.23C1316.6,-169.68 1319.23,-154.12 1321.32,-141.78"/>
<polygon fill="midnightblue" stroke="midnightblue" points="1324.82,-142.07 1323.04,-131.63 1317.92,-140.9 1324.82,-142.07"/>
</g>
<!-- Node33&#45;&gt;Node3 -->
<g id="edge66" class="edge">
<title>Node33&#45;&gt;Node3</title>
<path fill="none" stroke="midnightblue" d="M667.5,-425.4C667.5,-417.47 667.5,-407.46 667.5,-398.86"/>
<polygon fill="midnightblue" stroke="midnightblue" points="671,-398.66 667.5,-388.66 664,-398.66 671,-398.66"/>
</g>
<!-- Node33&#45;&gt;Node5 -->
<g id="edge59" class="edge">
<title>Node33&#45;&gt;Node5</title>
<path fill="none" stroke="midnightblue" d="M736.38,-438.24C856.25,-435.13 1097.65,-424.53 1173.5,-389 1255.47,-350.61 1245.38,-299.35 1318.5,-246 1346.44,-225.61 1363.25,-234.67 1387.5,-210 1437.57,-159.06 1455.23,-124.05 1433.5,-56 1430.16,-45.54 1423.4,-35.43 1416.95,-27.45"/>
<polygon fill="midnightblue" stroke="midnightblue" points="1419.44,-24.98 1410.25,-19.71 1414.15,-29.56 1419.44,-24.98"/>
</g>
<!-- Node33&#45;&gt;Node8 -->
<g id="edge65" class="edge">
<title>Node33&#45;&gt;Node8</title>
<path fill="none" stroke="midnightblue" d="M598.83,-436.26C498.84,-427.17 319.23,-393.07 265.5,-266 243.28,-213.45 222.35,-190.96 313.5,-112 341.38,-87.85 447.96,-74.87 502.27,-69.7"/>
<polygon fill="midnightblue" stroke="midnightblue" points="502.76,-73.17 512.4,-68.77 502.12,-66.2 502.76,-73.17"/>
</g>
<!-- Node33&#45;&gt;Node11 -->
<g id="edge60" class="edge">
<title>Node33&#45;&gt;Node11</title>
<path fill="none" stroke="midnightblue" d="M736.31,-438.31C861.54,-435.27 1121.33,-424.74 1203.5,-389 1229.25,-377.8 1350,-247.89 1352.5,-246 1379.2,-225.91 1395.04,-233.79 1418.5,-210 1472.43,-155.32 1505.45,-67.27 1517.87,-29.34"/>
<polygon fill="midnightblue" stroke="midnightblue" points="1521.26,-30.25 1520.95,-19.66 1514.59,-28.13 1521.26,-30.25"/>
</g>
<!-- Node33&#45;&gt;Node12 -->
<g id="edge61" class="edge">
<title>Node33&#45;&gt;Node12</title>
<path fill="none" stroke="midnightblue" d="M598.76,-437.07C466.13,-431.78 184.95,-417.32 151.5,-389 126.73,-368.03 132.5,-350.95 132.5,-318.5 132.5,-318.5 132.5,-318.5 132.5,-121 132.5,-86.81 149.1,-49.76 160.36,-28.57"/>
<polygon fill="midnightblue" stroke="midnightblue" points="163.45,-30.22 165.22,-19.77 157.32,-26.83 163.45,-30.22"/>
</g>
<!-- Node33&#45;&gt;Node25 -->
<g id="edge64" class="edge">
<title>Node33&#45;&gt;Node25</title>
<path fill="none" stroke="midnightblue" d="M736.17,-438.7C883.88,-435.11 1218.5,-416.19 1218.5,-318.5 1218.5,-318.5 1218.5,-318.5 1218.5,-255 1218.5,-208 1182.36,-162.22 1160.59,-138.92"/>
<polygon fill="midnightblue" stroke="midnightblue" points="1163.04,-136.41 1153.57,-131.64 1158,-141.27 1163.04,-136.41"/>
</g>
<!-- Node34 -->
<g id="node34" class="node">
<title>Node34</title>
<g id="a_node34"><a xlink:title=" ">
<polygon fill="white" stroke="#bfbfbf" points="161,-369.5 161,-388.5 208,-388.5 208,-369.5 161,-369.5"/>
<text text-anchor="middle" x="184.5" y="-376.5" font-family="Helvetica,sans-Serif" font-size="10.00">cmath</text>
</a>
</g>
</g>
<!-- Node33&#45;&gt;Node34 -->
<g id="edge62" class="edge">
<title>Node33&#45;&gt;Node34</title>
<path fill="none" stroke="midnightblue" d="M598.97,-435.31C512.21,-429.23 358.1,-415.84 218.21,-389.07"/>
<polygon fill="midnightblue" stroke="midnightblue" points="218.65,-385.59 208.16,-387.12 217.31,-392.46 218.65,-385.59"/>
</g>
<!-- Node35 -->
<g id="node35" class="node">
<title>Node35</title>
<g id="a_node35"><a xlink:title=" ">
<polygon fill="white" stroke="#bfbfbf" points="226,-369.5 226,-388.5 351,-388.5 351,-369.5 226,-369.5"/>
<text text-anchor="middle" x="288.5" y="-376.5" font-family="Helvetica,sans-Serif" font-size="10.00">experimental/optional</text>
</a>
</g>
</g>
<!-- Node33&#45;&gt;Node35 -->
<g id="edge63" class="edge">
<title>Node33&#45;&gt;Node35</title>
<path fill="none" stroke="midnightblue" d="M598.87,-428.72C528.97,-417.75 421.41,-400.87 353.03,-390.13"/>
<polygon fill="midnightblue" stroke="midnightblue" points="353.24,-386.62 342.82,-388.53 352.16,-393.54 353.24,-386.62"/>
</g>
<!-- Node36&#45;&gt;Node12 -->
<g id="edge68" class="edge">
<title>Node36&#45;&gt;Node12</title>
<path fill="none" stroke="midnightblue" d="M546.87,-506.75C445.06,-503.59 255.81,-484.12 132.5,-389 104.32,-367.26 94.5,-354.1 94.5,-318.5 94.5,-318.5 94.5,-318.5 94.5,-121 94.5,-81.28 128.46,-45.5 150.98,-26.15"/>
<polygon fill="midnightblue" stroke="midnightblue" points="153.48,-28.63 158.96,-19.57 149.02,-23.24 153.48,-28.63"/>
</g>
<!-- Node36&#45;&gt;Node14 -->
<g id="edge69" class="edge">
<title>Node36&#45;&gt;Node14</title>
<path fill="none" stroke="midnightblue" d="M546.82,-505.03C398.14,-501.28 63.51,-489.22 24.5,-456 -2.01,-433.43 5.5,-414.82 5.5,-380 5.5,-380 5.5,-380 5.5,-121 5.5,-85.58 26.66,-48.71 40.88,-27.92"/>
<polygon fill="midnightblue" stroke="midnightblue" points="43.88,-29.74 46.83,-19.56 38.18,-25.68 43.88,-29.74"/>
</g>
<!-- Node36&#45;&gt;Node19 -->
<g id="edge70" class="edge">
<title>Node36&#45;&gt;Node19</title>
<path fill="none" stroke="midnightblue" d="M688.21,-504C850.3,-496.9 1242.31,-471.42 1340.5,-389 1374.63,-360.35 1383.47,-304.89 1385.73,-275.82"/>
<polygon fill="midnightblue" stroke="midnightblue" points="1389.23,-275.95 1386.33,-265.76 1382.24,-275.53 1389.23,-275.95"/>
</g>
<!-- Node36&#45;&gt;Node33 -->
<g id="edge71" class="edge">
<title>Node36&#45;&gt;Node33</title>
<path fill="none" stroke="midnightblue" d="M628.35,-492.4C634.84,-483.96 643.22,-473.07 650.56,-463.52"/>
<polygon fill="midnightblue" stroke="midnightblue" points="653.35,-465.64 656.67,-455.58 647.8,-461.37 653.35,-465.64"/>
</g>
<!-- Node37&#45;&gt;Node3 -->
<g id="edge75" class="edge">
<title>Node37&#45;&gt;Node3</title>
<path fill="none" stroke="midnightblue" d="M105.12,-435.96C195.57,-426.96 436.56,-402.98 571.88,-389.51"/>
<polygon fill="midnightblue" stroke="midnightblue" points="572.23,-393 581.84,-388.52 571.54,-386.03 572.23,-393"/>
</g>
<!-- Node37&#45;&gt;Node14 -->
<g id="edge76" class="edge">
<title>Node37&#45;&gt;Node14</title>
<path fill="none" stroke="midnightblue" d="M67.91,-430.73C64.43,-410.84 56.5,-360.76 56.5,-318.5 56.5,-318.5 56.5,-318.5 56.5,-121 56.5,-88.94 55.21,-51.63 54.32,-29.74"/>
<polygon fill="midnightblue" stroke="midnightblue" points="57.81,-29.4 53.89,-19.56 50.82,-29.69 57.81,-29.4"/>
</g>
</g>
</svg>
