<?xml version="1.0" encoding="UTF-8" standalone="no"?>
<!DOCTYPE svg PUBLIC "-//W3C//DTD SVG 1.1//EN"
 "http://www.w3.org/Graphics/SVG/1.1/DTD/svg11.dtd">
<!-- Generated by graphviz version 2.43.0 (0)
 -->
<!-- Title: joda::query::StaticEvalVisitor::getPred Pages: 1 -->
<svg width="462pt" height="110pt"
 viewBox="0.00 0.00 462.00 110.00" xmlns="http://www.w3.org/2000/svg" xmlns:xlink="http://www.w3.org/1999/xlink">
<g id="graph0" class="graph" transform="scale(1 1) rotate(0) translate(4 106)">
<title>joda::query::StaticEvalVisitor::getPred</title>
<polygon fill="white" stroke="transparent" points="-4,4 -4,-106 458,-106 458,4 -4,4"/>
<!-- Node1 -->
<g id="node1" class="node">
<title>Node1</title>
<g id="a_node1"><a xlink:title=" ">
<polygon fill="#bfbfbf" stroke="black" points="297,-17 297,-47 454,-47 454,-17 297,-17"/>
<text text-anchor="start" x="305" y="-35" font-family="Helvetica,sans-Serif" font-size="10.00">joda::query::StaticEvalVisitor</text>
<text text-anchor="middle" x="375.5" y="-24" font-family="Helvetica,sans-Serif" font-size="10.00">::getPred</text>
</a>
</g>
</g>
<!-- Node2 -->
<g id="node2" class="node">
<title>Node2</title>
<g id="a_node2"><a xlink:href="../../d7/d70/classjoda_1_1queryparsing_1_1QueryParser.html#ad7ad99bbf7427b020bc9969f445aa5fa" target="_top" xlink:title=" ">
<polygon fill="white" stroke="black" points="146,-39 146,-69 261,-69 261,-39 146,-39"/>
<text text-anchor="start" x="154" y="-57" font-family="Helvetica,sans-Serif" font-size="10.00">joda::queryparsing</text>
<text text-anchor="middle" x="203.5" y="-46" font-family="Helvetica,sans-Serif" font-size="10.00">::QueryParser::parse</text>
</a>
</g>
</g>
<!-- Node1&#45;&gt;Node2 -->
<g id="edge1" class="edge">
<title>Node1&#45;&gt;Node2</title>
<path fill="none" stroke="midnightblue" d="M287.02,-43.32C278.22,-44.46 269.44,-45.6 261.09,-46.68"/>
<polygon fill="midnightblue" stroke="midnightblue" points="287.49,-46.79 296.96,-42.03 286.6,-39.85 287.49,-46.79"/>
</g>
<!-- Node6 -->
<g id="node6" class="node">
<title>Node6</title>
<g id="a_node6"><a xlink:href="../../dc/da4/StaticEvalVisitorTest_8cpp.html#ac7ab9b5676337915407c2700a1f224d9" target="_top" xlink:title=" ">
<polygon fill="white" stroke="black" points="177.5,-0.5 177.5,-19.5 229.5,-19.5 229.5,-0.5 177.5,-0.5"/>
<text text-anchor="middle" x="203.5" y="-7.5" font-family="Helvetica,sans-Serif" font-size="10.00">TEST_F</text>
</a>
</g>
</g>
<!-- Node1&#45;&gt;Node6 -->
<g id="edge5" class="edge">
<title>Node1&#45;&gt;Node6</title>
<path fill="none" stroke="midnightblue" d="M286.95,-20.67C265.87,-17.94 245,-15.24 229.53,-13.24"/>
<polygon fill="midnightblue" stroke="midnightblue" points="286.6,-24.15 296.96,-21.97 287.49,-17.21 286.6,-24.15"/>
</g>
<!-- Node3 -->
<g id="node3" class="node">
<title>Node3</title>
<g id="a_node3"><a xlink:href="../../d5/de2/classjoda_1_1cli_1_1CLI.html#ab82ae55f90b80055700fa6e571a73a78" target="_top" xlink:title=" ">
<polygon fill="white" stroke="black" points="0,-82.5 0,-101.5 110,-101.5 110,-82.5 0,-82.5"/>
<text text-anchor="middle" x="55" y="-89.5" font-family="Helvetica,sans-Serif" font-size="10.00">joda::cli::CLI::query</text>
</a>
</g>
</g>
<!-- Node2&#45;&gt;Node3 -->
<g id="edge2" class="edge">
<title>Node2&#45;&gt;Node3</title>
<path fill="none" stroke="midnightblue" d="M135.78,-71.31C121.1,-75.11 106.06,-79.01 93.06,-82.39"/>
<polygon fill="midnightblue" stroke="midnightblue" points="137.06,-74.59 145.86,-68.69 135.3,-67.81 137.06,-74.59"/>
</g>
<!-- Node4 -->
<g id="node4" class="node">
<title>Node4</title>
<g id="a_node4"><a xlink:href="../../d5/de2/classjoda_1_1cli_1_1CLI.html#a648896c73ae7294e479215c14fa95065" target="_top" xlink:title=" ">
<polygon fill="white" stroke="black" points="3,-44.5 3,-63.5 107,-63.5 107,-44.5 3,-44.5"/>
<text text-anchor="middle" x="55" y="-51.5" font-family="Helvetica,sans-Serif" font-size="10.00">joda::cli::CLI::start</text>
</a>
</g>
</g>
<!-- Node2&#45;&gt;Node4 -->
<g id="edge3" class="edge">
<title>Node2&#45;&gt;Node4</title>
<path fill="none" stroke="midnightblue" d="M135.6,-54C126.07,-54 116.39,-54 107.22,-54"/>
<polygon fill="midnightblue" stroke="midnightblue" points="135.86,-57.5 145.86,-54 135.86,-50.5 135.86,-57.5"/>
</g>
<!-- Node5 -->
<g id="node5" class="node">
<title>Node5</title>
<g id="a_node5"><a xlink:href="../../d5/daa/AggregatorParsingTest_8cpp.html#a929c355f24d0d9e8eeceb02ebd2b0df5" target="_top" xlink:title=" ">
<polygon fill="white" stroke="black" points="16.5,-6.5 16.5,-25.5 93.5,-25.5 93.5,-6.5 16.5,-6.5"/>
<text text-anchor="middle" x="55" y="-13.5" font-family="Helvetica,sans-Serif" font-size="10.00">TYPED_TEST</text>
</a>
</g>
</g>
<!-- Node2&#45;&gt;Node5 -->
<g id="edge4" class="edge">
<title>Node2&#45;&gt;Node5</title>
<path fill="none" stroke="midnightblue" d="M135.78,-36.69C121.1,-32.89 106.06,-28.99 93.06,-25.61"/>
<polygon fill="midnightblue" stroke="midnightblue" points="135.3,-40.19 145.86,-39.31 137.06,-33.41 135.3,-40.19"/>
</g>
</g>
</svg>
