<?xml version="1.0" encoding="UTF-8" standalone="no"?>
<!DOCTYPE svg PUBLIC "-//W3C//DTD SVG 1.1//EN"
 "http://www.w3.org/Graphics/SVG/1.1/DTD/svg11.dtd">
<!-- Generated by graphviz version 2.43.0 (0)
 -->
<!-- Title: joda::query::StaticEvalVisitor::visit Pages: 1 -->
<svg width="365pt" height="137pt"
 viewBox="0.00 0.00 365.00 137.00" xmlns="http://www.w3.org/2000/svg" xmlns:xlink="http://www.w3.org/1999/xlink">
<g id="graph0" class="graph" transform="scale(1 1) rotate(0) translate(4 133)">
<title>joda::query::StaticEvalVisitor::visit</title>
<polygon fill="white" stroke="transparent" points="-4,4 -4,-133 361,-133 361,4 -4,4"/>
<!-- Node1 -->
<g id="node1" class="node">
<title>Node1</title>
<g id="a_node1"><a xlink:title=" ">
<polygon fill="#bfbfbf" stroke="black" points="0,-49.5 0,-79.5 157,-79.5 157,-49.5 0,-49.5"/>
<text text-anchor="start" x="8" y="-67.5" font-family="Helvetica,sans-Serif" font-size="10.00">joda::query::StaticEvalVisitor</text>
<text text-anchor="middle" x="78.5" y="-56.5" font-family="Helvetica,sans-Serif" font-size="10.00">::visit</text>
</a>
</g>
</g>
<!-- Node2 -->
<g id="node2" class="node">
<title>Node2</title>
<g id="a_node2"><a xlink:href="../../d5/d39/classjoda_1_1query_1_1EqualizePredicate.html#a68ee7878369efabfa8197372552802f2" target="_top" xlink:title=" ">
<polygon fill="white" stroke="black" points="193,-98.5 193,-128.5 357,-128.5 357,-98.5 193,-98.5"/>
<text text-anchor="start" x="201" y="-116.5" font-family="Helvetica,sans-Serif" font-size="10.00">joda::query::EqualizePredicate</text>
<text text-anchor="middle" x="275" y="-105.5" font-family="Helvetica,sans-Serif" font-size="10.00">::getLhs</text>
</a>
</g>
</g>
<!-- Node1&#45;&gt;Node2 -->
<g id="edge1" class="edge">
<title>Node1&#45;&gt;Node2</title>
<path fill="none" stroke="midnightblue" d="M139.18,-79.53C159.81,-84.73 183.1,-90.6 204.45,-95.98"/>
<polygon fill="midnightblue" stroke="midnightblue" points="203.88,-99.44 214.43,-98.49 205.59,-92.66 203.88,-99.44"/>
</g>
<!-- Node3 -->
<g id="node3" class="node">
<title>Node3</title>
<g id="a_node3"><a xlink:href="../../d5/d39/classjoda_1_1query_1_1EqualizePredicate.html#ae06a641608feaedb209cdb55910c5ab6" target="_top" xlink:title=" ">
<polygon fill="white" stroke="black" points="193,-49.5 193,-79.5 357,-79.5 357,-49.5 193,-49.5"/>
<text text-anchor="start" x="201" y="-67.5" font-family="Helvetica,sans-Serif" font-size="10.00">joda::query::EqualizePredicate</text>
<text text-anchor="middle" x="275" y="-56.5" font-family="Helvetica,sans-Serif" font-size="10.00">::getRhs</text>
</a>
</g>
</g>
<!-- Node1&#45;&gt;Node3 -->
<g id="edge2" class="edge">
<title>Node1&#45;&gt;Node3</title>
<path fill="none" stroke="midnightblue" d="M157.21,-64.5C165.65,-64.5 174.3,-64.5 182.88,-64.5"/>
<polygon fill="midnightblue" stroke="midnightblue" points="182.91,-68 192.91,-64.5 182.91,-61 182.91,-68"/>
</g>
<!-- Node4 -->
<g id="node4" class="node">
<title>Node4</title>
<g id="a_node4"><a xlink:href="../../d5/d39/classjoda_1_1query_1_1EqualizePredicate.html#ac3172c51a6e954039459bf2407d85f73" target="_top" xlink:title=" ">
<polygon fill="white" stroke="black" points="193,-0.5 193,-30.5 357,-30.5 357,-0.5 193,-0.5"/>
<text text-anchor="start" x="201" y="-18.5" font-family="Helvetica,sans-Serif" font-size="10.00">joda::query::EqualizePredicate</text>
<text text-anchor="middle" x="275" y="-7.5" font-family="Helvetica,sans-Serif" font-size="10.00">::isEqual</text>
</a>
</g>
</g>
<!-- Node1&#45;&gt;Node4 -->
<g id="edge3" class="edge">
<title>Node1&#45;&gt;Node4</title>
<path fill="none" stroke="midnightblue" d="M139.18,-49.47C159.81,-44.27 183.1,-38.4 204.45,-33.02"/>
<polygon fill="midnightblue" stroke="midnightblue" points="205.59,-36.34 214.43,-30.51 203.88,-29.56 205.59,-36.34"/>
</g>
</g>
</svg>
