<?xml version="1.0" encoding="UTF-8" standalone="no"?>
<!DOCTYPE svg PUBLIC "-//W3C//DTD SVG 1.1//EN"
 "http://www.w3.org/Graphics/SVG/1.1/DTD/svg11.dtd">
<!-- Generated by graphviz version 2.43.0 (0)
 -->
<!-- Title: CollectionTest Pages: 1 -->
<svg width="2390pt" height="595pt"
 viewBox="0.00 0.00 2390.00 595.15" xmlns="http://www.w3.org/2000/svg" xmlns:xlink="http://www.w3.org/1999/xlink">
<g id="graph0" class="graph" transform="scale(1 1) rotate(0) translate(4 591.15)">
<title>CollectionTest</title>
<polygon fill="white" stroke="transparent" points="-4,4 -4,-591.15 2386,-591.15 2386,4 -4,4"/>
<!-- Node1 -->
<g id="node1" class="node">
<title>Node1</title>
<g id="a_node1"><a xlink:title=" ">
<polygon fill="#bfbfbf" stroke="black" points="2297,-320.65 2297,-339.65 2382,-339.65 2382,-320.65 2297,-320.65"/>
<text text-anchor="middle" x="2339.5" y="-327.65" font-family="Helvetica,sans-Serif" font-size="10.00">CollectionTest</text>
</a>
</g>
</g>
<!-- Node2 -->
<g id="node2" class="node">
<title>Node2</title>
<g id="a_node2"><a xlink:title=" ">
<polygon fill="white" stroke="#bfbfbf" points="2140.5,-339.65 2140.5,-358.65 2176.5,-358.65 2176.5,-339.65 2140.5,-339.65"/>
<text text-anchor="middle" x="2158.5" y="-346.65" font-family="Helvetica,sans-Serif" font-size="10.00">Test</text>
</a>
</g>
</g>
<!-- Node2&#45;&gt;Node1 -->
<g id="edge1" class="edge">
<title>Node2&#45;&gt;Node1</title>
<path fill="none" stroke="midnightblue" d="M2186.98,-346.23C2216.31,-343.12 2263.11,-338.15 2296.94,-334.56"/>
<polygon fill="midnightblue" stroke="midnightblue" points="2186.24,-342.79 2176.66,-347.33 2186.98,-349.75 2186.24,-342.79"/>
</g>
<!-- Node3 -->
<g id="node3" class="node">
<title>Node3</title>
<g id="a_node3"><a xlink:href="../../da/d91/classStorageCollection.html" target="_top" xlink:title=" ">
<polygon fill="white" stroke="black" points="2107,-301.65 2107,-320.65 2210,-320.65 2210,-301.65 2107,-301.65"/>
<text text-anchor="middle" x="2158.5" y="-308.65" font-family="Helvetica,sans-Serif" font-size="10.00">StorageCollection</text>
</a>
</g>
</g>
<!-- Node3&#45;&gt;Node1 -->
<g id="edge2" class="edge">
<title>Node3&#45;&gt;Node1</title>
<path fill="none" stroke="#9a32cd" stroke-dasharray="5,2" d="M2220.39,-315.46C2239.21,-317 2259.98,-318.92 2279,-321.15 2284.81,-321.83 2290.93,-322.65 2296.94,-323.5"/>
<polygon fill="#9a32cd" stroke="#9a32cd" points="2220.41,-311.95 2210.16,-314.64 2219.85,-318.92 2220.41,-311.95"/>
<text text-anchor="middle" x="2253.5" y="-324.15" font-family="Helvetica,sans-Serif" font-size="10.00"> collection</text>
</g>
<!-- Node4 -->
<g id="node4" class="node">
<title>Node4</title>
<g id="a_node4"><a xlink:title=" ">
<polygon fill="white" stroke="#bfbfbf" points="1806,-261.65 1806,-302.65 1970,-302.65 1970,-261.65 1806,-261.65"/>
<text text-anchor="start" x="1814" y="-290.65" font-family="Helvetica,sans-Serif" font-size="10.00">std::unordered_map</text>
<text text-anchor="start" x="1814" y="-279.65" font-family="Helvetica,sans-Serif" font-size="10.00">&lt; std::string, std::</text>
<text text-anchor="middle" x="1888" y="-268.65" font-family="Helvetica,sans-Serif" font-size="10.00">shared_ptr&lt; JSONStorage &gt; &gt;</text>
</a>
</g>
</g>
<!-- Node4&#45;&gt;Node3 -->
<g id="edge3" class="edge">
<title>Node4&#45;&gt;Node3</title>
<path fill="none" stroke="#9a32cd" stroke-dasharray="5,2" d="M1980.05,-285.72C2014.32,-287.8 2053.57,-291.06 2089,-296.15 2098.64,-297.53 2108.94,-299.52 2118.56,-301.59"/>
<polygon fill="#9a32cd" stroke="#9a32cd" points="1980.24,-282.22 1970.05,-285.14 1979.83,-289.21 1980.24,-282.22"/>
<text text-anchor="middle" x="2053.5" y="-299.15" font-family="Helvetica,sans-Serif" font-size="10.00"> storages</text>
</g>
<!-- Node5 -->
<g id="node5" class="node">
<title>Node5</title>
<g id="a_node5"><a xlink:title=" ">
<polygon fill="white" stroke="#bfbfbf" points="1359,-324.65 1359,-343.65 1532,-343.65 1532,-324.65 1359,-324.65"/>
<text text-anchor="middle" x="1445.5" y="-331.65" font-family="Helvetica,sans-Serif" font-size="10.00">std::shared_ptr&lt; JSONStorage &gt;</text>
</a>
</g>
</g>
<!-- Node5&#45;&gt;Node4 -->
<g id="edge4" class="edge">
<title>Node5&#45;&gt;Node4</title>
<path fill="none" stroke="#9a32cd" stroke-dasharray="5,2" d="M1525.35,-323.3C1533.67,-322.21 1542,-321.14 1550,-320.15 1637.35,-309.32 1737.61,-298.18 1805.91,-290.78"/>
<polygon fill="#9a32cd" stroke="#9a32cd" points="1524.68,-319.86 1515.23,-324.64 1525.6,-326.8 1524.68,-319.86"/>
<text text-anchor="middle" x="1654" y="-323.15" font-family="Helvetica,sans-Serif" font-size="10.00"> elements</text>
</g>
<!-- Node19 -->
<g id="node19" class="node">
<title>Node19</title>
<g id="a_node19"><a xlink:title=" ">
<polygon fill="white" stroke="#bfbfbf" points="1803,-321.65 1803,-362.65 1973,-362.65 1973,-321.65 1803,-321.65"/>
<text text-anchor="start" x="1811" y="-350.65" font-family="Helvetica,sans-Serif" font-size="10.00">std::unordered_map</text>
<text text-anchor="start" x="1811" y="-339.65" font-family="Helvetica,sans-Serif" font-size="10.00">&lt; unsigned long, std</text>
<text text-anchor="middle" x="1888" y="-328.65" font-family="Helvetica,sans-Serif" font-size="10.00">::shared_ptr&lt; JSONStorage &gt; &gt;</text>
</a>
</g>
</g>
<!-- Node5&#45;&gt;Node19 -->
<g id="edge24" class="edge">
<title>Node5&#45;&gt;Node19</title>
<path fill="none" stroke="#9a32cd" stroke-dasharray="5,2" d="M1542.48,-335.89C1620.09,-337.3 1728.31,-339.27 1802.63,-340.62"/>
<polygon fill="#9a32cd" stroke="#9a32cd" points="1542.28,-332.39 1532.22,-335.71 1542.15,-339.39 1542.28,-332.39"/>
<text text-anchor="middle" x="1654" y="-342.15" font-family="Helvetica,sans-Serif" font-size="10.00"> elements</text>
</g>
<!-- Node6 -->
<g id="node6" class="node">
<title>Node6</title>
<g id="a_node6"><a xlink:href="../../d2/dcc/classJSONStorage.html" target="_top" xlink:title=" ">
<polygon fill="white" stroke="black" points="1122.5,-342.65 1122.5,-361.65 1200.5,-361.65 1200.5,-342.65 1122.5,-342.65"/>
<text text-anchor="middle" x="1161.5" y="-349.65" font-family="Helvetica,sans-Serif" font-size="10.00">JSONStorage</text>
</a>
</g>
</g>
<!-- Node6&#45;&gt;Node5 -->
<g id="edge5" class="edge">
<title>Node6&#45;&gt;Node5</title>
<path fill="none" stroke="#9a32cd" stroke-dasharray="5,2" d="M1210.69,-349.07C1251.25,-346.48 1310.25,-342.72 1358.83,-339.62"/>
<polygon fill="#9a32cd" stroke="#9a32cd" points="1210.29,-345.59 1200.53,-349.72 1210.73,-352.58 1210.29,-345.59"/>
<text text-anchor="middle" x="1297" y="-349.15" font-family="Helvetica,sans-Serif" font-size="10.00"> ptr</text>
</g>
<!-- Node7 -->
<g id="node7" class="node">
<title>Node7</title>
<g id="a_node7"><a xlink:title=" ">
<polygon fill="white" stroke="#bfbfbf" points="799,-364.15 799,-394.15 939,-394.15 939,-364.15 799,-364.15"/>
<text text-anchor="start" x="807" y="-382.15" font-family="Helvetica,sans-Serif" font-size="10.00">std::vector&lt; std::unique</text>
<text text-anchor="middle" x="869" y="-371.15" font-family="Helvetica,sans-Serif" font-size="10.00">_ptr&lt; JSONContainer &gt; &gt;</text>
</a>
</g>
</g>
<!-- Node7&#45;&gt;Node6 -->
<g id="edge6" class="edge">
<title>Node7&#45;&gt;Node6</title>
<path fill="none" stroke="#9a32cd" stroke-dasharray="5,2" d="M949.28,-376.3C986.07,-374.49 1030.35,-371.61 1070,-367.15 1087.25,-365.21 1106.22,-362.2 1122.31,-359.39"/>
<polygon fill="#9a32cd" stroke="#9a32cd" points="948.93,-372.81 939.11,-376.78 949.27,-379.8 948.93,-372.81"/>
<text text-anchor="middle" x="1028.5" y="-376.15" font-family="Helvetica,sans-Serif" font-size="10.00"> container</text>
</g>
<!-- Node8 -->
<g id="node8" class="node">
<title>Node8</title>
<g id="a_node8"><a xlink:title=" ">
<polygon fill="white" stroke="#bfbfbf" points="393,-363.65 393,-382.65 576,-382.65 576,-363.65 393,-363.65"/>
<text text-anchor="middle" x="484.5" y="-370.65" font-family="Helvetica,sans-Serif" font-size="10.00">std::unique_ptr&lt; JSONContainer &gt;</text>
</a>
</g>
</g>
<!-- Node8&#45;&gt;Node7 -->
<g id="edge7" class="edge">
<title>Node8&#45;&gt;Node7</title>
<path fill="none" stroke="#9a32cd" stroke-dasharray="5,2" d="M586.31,-374.73C653.34,-375.78 739.62,-377.14 798.94,-378.07"/>
<polygon fill="#9a32cd" stroke="#9a32cd" points="586.2,-371.23 576.15,-374.57 586.09,-378.23 586.2,-371.23"/>
<text text-anchor="middle" x="672.5" y="-380.15" font-family="Helvetica,sans-Serif" font-size="10.00"> elements</text>
</g>
<!-- Node9 -->
<g id="node9" class="node">
<title>Node9</title>
<g id="a_node9"><a xlink:href="../../d6/de9/classJSONContainer.html" target="_top" xlink:title=" ">
<polygon fill="white" stroke="black" points="97,-329.65 97,-348.65 185,-348.65 185,-329.65 97,-329.65"/>
<text text-anchor="middle" x="141" y="-336.65" font-family="Helvetica,sans-Serif" font-size="10.00">JSONContainer</text>
</a>
</g>
</g>
<!-- Node9&#45;&gt;Node8 -->
<g id="edge8" class="edge">
<title>Node9&#45;&gt;Node8</title>
<path fill="none" stroke="#9a32cd" stroke-dasharray="5,2" d="M195.44,-343.08C242.7,-346.72 313.51,-352.55 375,-359.15 387.37,-360.48 400.51,-362.04 413.22,-363.64"/>
<polygon fill="#9a32cd" stroke="#9a32cd" points="195.66,-339.59 185.43,-342.32 195.13,-346.57 195.66,-339.59"/>
<text text-anchor="middle" x="296.5" y="-362.15" font-family="Helvetica,sans-Serif" font-size="10.00"> ptr</text>
</g>
<!-- Node10 -->
<g id="node10" class="node">
<title>Node10</title>
<g id="a_node10"><a xlink:title="STL class.">
<polygon fill="white" stroke="#bfbfbf" points="82,-367.65 82,-386.65 200,-386.65 200,-367.65 82,-367.65"/>
<text text-anchor="middle" x="141" y="-374.65" font-family="Helvetica,sans-Serif" font-size="10.00">std::unique_ptr&lt; T &gt;</text>
</a>
</g>
</g>
<!-- Node10&#45;&gt;Node8 -->
<g id="edge9" class="edge">
<title>Node10&#45;&gt;Node8</title>
<path fill="none" stroke="orange" stroke-dasharray="5,2" d="M210.52,-376.35C262.96,-375.73 335.74,-374.88 392.97,-374.21"/>
<polygon fill="orange" stroke="orange" points="210.28,-372.85 200.32,-376.47 210.36,-379.85 210.28,-372.85"/>
<text text-anchor="middle" x="296.5" y="-379.15" font-family="Helvetica,sans-Serif" font-size="10.00"> &lt; JSONContainer &gt;</text>
</g>
<!-- Node25 -->
<g id="node25" class="node">
<title>Node25</title>
<g id="a_node25"><a xlink:title=" ">
<polygon fill="white" stroke="#bfbfbf" points="416,-402.15 416,-432.15 553,-432.15 553,-402.15 416,-402.15"/>
<text text-anchor="start" x="424" y="-420.15" font-family="Helvetica,sans-Serif" font-size="10.00">std::unique_ptr&lt; joda</text>
<text text-anchor="middle" x="484.5" y="-409.15" font-family="Helvetica,sans-Serif" font-size="10.00">::query::IValueProvider &gt;</text>
</a>
</g>
</g>
<!-- Node10&#45;&gt;Node25 -->
<g id="edge38" class="edge">
<title>Node10&#45;&gt;Node25</title>
<path fill="none" stroke="orange" stroke-dasharray="5,2" d="M200.19,-388.39C206.19,-389.39 212.21,-390.33 218,-391.15 285.07,-400.59 362.16,-407.73 415.93,-412.12"/>
<polygon fill="orange" stroke="orange" points="200.6,-384.91 190.15,-386.65 199.4,-391.8 200.6,-384.91"/>
<text text-anchor="middle" x="296.5" y="-410.15" font-family="Helvetica,sans-Serif" font-size="10.00"> &lt; joda::query::IValueProvider &gt;</text>
</g>
<!-- Node11 -->
<g id="node11" class="node">
<title>Node11</title>
<g id="a_node11"><a xlink:title=" ">
<polygon fill="white" stroke="#bfbfbf" points="0,-255.65 0,-274.65 29,-274.65 29,-255.65 0,-255.65"/>
<text text-anchor="middle" x="14.5" y="-262.65" font-family="Helvetica,sans-Serif" font-size="10.00">T</text>
</a>
</g>
</g>
<!-- Node11&#45;&gt;Node10 -->
<g id="edge10" class="edge">
<title>Node11&#45;&gt;Node10</title>
<path fill="none" stroke="#9a32cd" stroke-dasharray="5,2" d="M24.39,-284.05C35.19,-305.05 55.33,-338.57 82,-358.15 87.21,-361.97 93.23,-365.06 99.38,-367.53"/>
<polygon fill="#9a32cd" stroke="#9a32cd" points="27.42,-282.28 19.85,-274.86 21.14,-285.38 27.42,-282.28"/>
<text text-anchor="middle" x="55.5" y="-344.15" font-family="Helvetica,sans-Serif" font-size="10.00"> ptr</text>
</g>
<!-- Node12 -->
<g id="node12" class="node">
<title>Node12</title>
<g id="a_node12"><a xlink:title="STL class.">
<polygon fill="white" stroke="#bfbfbf" points="436,-496.65 436,-515.65 533,-515.65 533,-496.65 436,-496.65"/>
<text text-anchor="middle" x="484.5" y="-503.65" font-family="Helvetica,sans-Serif" font-size="10.00">std::vector&lt; T &gt;</text>
</a>
</g>
</g>
<!-- Node11&#45;&gt;Node12 -->
<g id="edge12" class="edge">
<title>Node11&#45;&gt;Node12</title>
<path fill="none" stroke="#9a32cd" stroke-dasharray="5,2" d="M19.03,-285.15C25.52,-315.28 42.52,-371.41 82,-396.15 196.07,-467.62 356.68,-493.32 435.73,-502.02"/>
<polygon fill="#9a32cd" stroke="#9a32cd" points="22.39,-284.13 17.02,-275 15.52,-285.48 22.39,-284.13"/>
<text text-anchor="middle" x="141" y="-452.15" font-family="Helvetica,sans-Serif" font-size="10.00"> elements</text>
</g>
<!-- Node16 -->
<g id="node16" class="node">
<title>Node16</title>
<g id="a_node16"><a xlink:title="STL class.">
<polygon fill="white" stroke="#bfbfbf" points="1102.5,-142.65 1102.5,-161.65 1220.5,-161.65 1220.5,-142.65 1102.5,-142.65"/>
<text text-anchor="middle" x="1161.5" y="-149.65" font-family="Helvetica,sans-Serif" font-size="10.00">std::shared_ptr&lt; T &gt;</text>
</a>
</g>
</g>
<!-- Node11&#45;&gt;Node16 -->
<g id="edge17" class="edge">
<title>Node11&#45;&gt;Node16</title>
<path fill="none" stroke="#9a32cd" stroke-dasharray="5,2" d="M25.54,-246.28C43.79,-214.85 85.61,-155.15 140,-155.15 140,-155.15 140,-155.15 870,-155.15 950.57,-155.15 1043.71,-153.98 1102.35,-153.1"/>
<polygon fill="#9a32cd" stroke="#9a32cd" points="22.27,-244.95 20.45,-255.39 28.38,-248.36 22.27,-244.95"/>
<text text-anchor="middle" x="484.5" y="-158.15" font-family="Helvetica,sans-Serif" font-size="10.00"> ptr</text>
</g>
<!-- Node17 -->
<g id="node17" class="node">
<title>Node17</title>
<g id="a_node17"><a xlink:title="STL class.">
<polygon fill="white" stroke="#bfbfbf" points="1388.5,-83.15 1388.5,-113.15 1502.5,-113.15 1502.5,-83.15 1388.5,-83.15"/>
<text text-anchor="start" x="1396.5" y="-101.15" font-family="Helvetica,sans-Serif" font-size="10.00">std::unordered_map</text>
<text text-anchor="middle" x="1445.5" y="-90.15" font-family="Helvetica,sans-Serif" font-size="10.00">&lt; K, T &gt;</text>
</a>
</g>
</g>
<!-- Node11&#45;&gt;Node17 -->
<g id="edge21" class="edge">
<title>Node11&#45;&gt;Node17</title>
<path fill="none" stroke="#9a32cd" stroke-dasharray="5,2" d="M20.01,-245.81C31.59,-201.64 66.71,-97.15 140,-97.15 140,-97.15 140,-97.15 1162.5,-97.15 1240.83,-97.15 1331.41,-97.54 1388.32,-97.83"/>
<polygon fill="#9a32cd" stroke="#9a32cd" points="16.58,-245.09 17.57,-255.64 23.38,-246.78 16.58,-245.09"/>
<text text-anchor="middle" x="672.5" y="-100.15" font-family="Helvetica,sans-Serif" font-size="10.00"> elements</text>
</g>
<!-- Node12&#45;&gt;Node7 -->
<g id="edge11" class="edge">
<title>Node12&#45;&gt;Node7</title>
<path fill="none" stroke="orange" stroke-dasharray="5,2" d="M534.5,-494.32C553.06,-490.1 574.43,-485.55 594,-482.15 628.65,-476.12 724.06,-484.76 751,-462.15 771.67,-444.8 749.41,-422.72 769,-404.15 777.36,-396.22 787.86,-390.71 798.87,-386.9"/>
<polygon fill="orange" stroke="orange" points="533.46,-490.97 524.5,-496.62 535.03,-497.79 533.46,-490.97"/>
<text text-anchor="start" x="624" y="-496.15" font-family="Helvetica,sans-Serif" font-size="10.00"> &lt; std::unique_ptr&lt;</text>
<text text-anchor="middle" x="672.5" y="-485.15" font-family="Helvetica,sans-Serif" font-size="10.00"> JSONContainer &gt; &gt;</text>
</g>
<!-- Node27 -->
<g id="node27" class="node">
<title>Node27</title>
<g id="a_node27"><a xlink:title=" ">
<polygon fill="white" stroke="#bfbfbf" points="769,-499.15 769,-529.15 969,-529.15 969,-499.15 769,-499.15"/>
<text text-anchor="start" x="777" y="-517.15" font-family="Helvetica,sans-Serif" font-size="10.00">std::vector&lt; std::unique</text>
<text text-anchor="middle" x="869" y="-506.15" font-family="Helvetica,sans-Serif" font-size="10.00">_ptr&lt; joda::query::IValueProvider &gt; &gt;</text>
</a>
</g>
</g>
<!-- Node12&#45;&gt;Node27 -->
<g id="edge37" class="edge">
<title>Node12&#45;&gt;Node27</title>
<path fill="none" stroke="orange" stroke-dasharray="5,2" d="M543.54,-507.36C603.23,-508.61 697.31,-510.58 768.83,-512.08"/>
<polygon fill="orange" stroke="orange" points="543.24,-503.86 533.17,-507.15 543.1,-510.85 543.24,-503.86"/>
<text text-anchor="start" x="594" y="-525.15" font-family="Helvetica,sans-Serif" font-size="10.00"> &lt; std::unique_ptr&lt;</text>
<text text-anchor="middle" x="672.5" y="-514.15" font-family="Helvetica,sans-Serif" font-size="10.00"> joda::query::IValueProvider &gt; &gt;</text>
</g>
<!-- Node28 -->
<g id="node28" class="node">
<title>Node28</title>
<g id="a_node28"><a xlink:title=" ">
<polygon fill="white" stroke="#bfbfbf" points="1091.5,-381.65 1091.5,-400.65 1231.5,-400.65 1231.5,-381.65 1091.5,-381.65"/>
<text text-anchor="middle" x="1161.5" y="-388.65" font-family="Helvetica,sans-Serif" font-size="10.00">std::vector&lt; std::string &gt;</text>
</a>
</g>
</g>
<!-- Node12&#45;&gt;Node28 -->
<g id="edge44" class="edge">
<title>Node12&#45;&gt;Node28</title>
<path fill="none" stroke="orange" stroke-dasharray="5,2" d="M518.11,-519.42C599.65,-550.38 816.77,-618.91 969,-539.15 981.45,-532.63 977.1,-523.12 987,-513.15 1036.94,-462.84 1109.88,-419.21 1142.99,-400.66"/>
<polygon fill="orange" stroke="orange" points="518.99,-516.01 508.41,-515.67 516.47,-522.54 518.99,-516.01"/>
<text text-anchor="middle" x="869" y="-579.15" font-family="Helvetica,sans-Serif" font-size="10.00"> &lt; std::string &gt;</text>
</g>
<!-- Node13 -->
<g id="node13" class="node">
<title>Node13</title>
<g id="a_node13"><a xlink:title="STL class.">
<polygon fill="white" stroke="#bfbfbf" points="834.5,-413.65 834.5,-432.65 903.5,-432.65 903.5,-413.65 834.5,-413.65"/>
<text text-anchor="middle" x="869" y="-420.65" font-family="Helvetica,sans-Serif" font-size="10.00">std::mutex</text>
</a>
</g>
</g>
<!-- Node13&#45;&gt;Node3 -->
<g id="edge22" class="edge">
<title>Node13&#45;&gt;Node3</title>
<path fill="none" stroke="#9a32cd" stroke-dasharray="5,2" d="M914.24,-429.51C931.36,-432.06 951.12,-435.11 969,-438.15 1054.38,-452.64 1073.9,-474.15 1160.5,-474.15 1160.5,-474.15 1160.5,-474.15 1889,-474.15 1989.6,-474.15 2019.48,-440.87 2089,-368.15 2101.91,-354.64 2093.25,-342.81 2107,-330.15 2111.2,-326.28 2116.27,-323.17 2121.55,-320.69"/>
<polygon fill="#9a32cd" stroke="#9a32cd" points="914.36,-425.99 903.95,-427.99 913.33,-432.91 914.36,-425.99"/>
<text text-anchor="middle" x="1445.5" y="-477.15" font-family="Helvetica,sans-Serif" font-size="10.00"> mut</text>
</g>
<!-- Node13&#45;&gt;Node6 -->
<g id="edge13" class="edge">
<title>Node13&#45;&gt;Node6</title>
<path fill="none" stroke="#9a32cd" stroke-dasharray="5,2" d="M913.73,-422.32C955.71,-419.99 1019.96,-412.32 1070,-388.15 1079.64,-383.49 1078.6,-377.26 1088,-372.15 1098.55,-366.41 1110.89,-362.22 1122.35,-359.19"/>
<polygon fill="#9a32cd" stroke="#9a32cd" points="913.38,-418.83 903.55,-422.81 913.71,-425.83 913.38,-418.83"/>
<text text-anchor="middle" x="1028.5" y="-415.15" font-family="Helvetica,sans-Serif" font-size="10.00"> documentMutex</text>
</g>
<!-- Node14 -->
<g id="node14" class="node">
<title>Node14</title>
<g id="a_node14"><a xlink:title="STL class.">
<polygon fill="white" stroke="#bfbfbf" points="836.5,-199.65 836.5,-218.65 901.5,-218.65 901.5,-199.65 836.5,-199.65"/>
<text text-anchor="middle" x="869" y="-206.65" font-family="Helvetica,sans-Serif" font-size="10.00">std::string</text>
</a>
</g>
</g>
<!-- Node14&#45;&gt;Node4 -->
<g id="edge18" class="edge">
<title>Node14&#45;&gt;Node4</title>
<path fill="none" stroke="#9a32cd" stroke-dasharray="5,2" d="M911.6,-200.54C994.78,-184.95 1186.85,-157.21 1341,-197.15 1349.86,-199.45 1350.62,-203.48 1359,-207.15 1440.88,-243.01 1462.01,-254.4 1550,-270.15 1636.44,-285.62 1737.28,-287.08 1805.97,-285.64"/>
<polygon fill="#9a32cd" stroke="#9a32cd" points="910.7,-197.15 901.54,-202.46 912.02,-204.02 910.7,-197.15"/>
<text text-anchor="middle" x="1297" y="-200.15" font-family="Helvetica,sans-Serif" font-size="10.00"> keys</text>
</g>
<!-- Node14&#45;&gt;Node6 -->
<g id="edge14" class="edge">
<title>Node14&#45;&gt;Node6</title>
<path fill="none" stroke="#9a32cd" stroke-dasharray="5,2" d="M912,-210.76C931.29,-213.49 953.31,-219.66 969,-233.15 985.02,-246.92 971.2,-263.12 987,-277.15 1015.62,-302.57 1034.68,-285.39 1070,-300.15 1098.42,-312.03 1129,-331.06 1146.34,-342.51"/>
<polygon fill="#9a32cd" stroke="#9a32cd" points="912.25,-207.27 901.92,-209.6 911.45,-214.22 912.25,-207.27"/>
<text text-anchor="middle" x="1028.5" y="-325.15" font-family="Helvetica,sans-Serif" font-size="10.00"> regtmpdir</text>
<text text-anchor="middle" x="1028.5" y="-314.15" font-family="Helvetica,sans-Serif" font-size="10.00">query</text>
<text text-anchor="middle" x="1028.5" y="-303.15" font-family="Helvetica,sans-Serif" font-size="10.00">name</text>
</g>
<!-- Node22 -->
<g id="node22" class="node">
<title>Node22</title>
<g id="a_node22"><a xlink:title=" ">
<polygon fill="white" stroke="#bfbfbf" points="1806.5,-184.65 1806.5,-225.65 1969.5,-225.65 1969.5,-184.65 1806.5,-184.65"/>
<text text-anchor="start" x="1814.5" y="-213.65" font-family="Helvetica,sans-Serif" font-size="10.00">std::unordered_map</text>
<text text-anchor="start" x="1814.5" y="-202.65" font-family="Helvetica,sans-Serif" font-size="10.00">&lt; std::string, std::</text>
<text text-anchor="middle" x="1888" y="-191.65" font-family="Helvetica,sans-Serif" font-size="10.00">shared_ptr&lt; JoinManager &gt; &gt;</text>
</a>
</g>
</g>
<!-- Node14&#45;&gt;Node22 -->
<g id="edge40" class="edge">
<title>Node14&#45;&gt;Node22</title>
<path fill="none" stroke="#9a32cd" stroke-dasharray="5,2" d="M911.49,-218.78C955.13,-228.34 1025.95,-242.27 1088,-247.15 1233.03,-258.57 1512.3,-282.85 1758,-245.15 1783.26,-241.27 1810.4,-233.45 1833.23,-225.74"/>
<polygon fill="#9a32cd" stroke="#9a32cd" points="912.05,-215.32 901.53,-216.57 910.54,-222.15 912.05,-215.32"/>
<text text-anchor="middle" x="1297" y="-265.15" font-family="Helvetica,sans-Serif" font-size="10.00"> keys</text>
</g>
<!-- Node24 -->
<g id="node24" class="node">
<title>Node24</title>
<g id="a_node24"><a xlink:href="../../d0/d3a/classJoinManager.html" target="_top" xlink:title=" ">
<polygon fill="white" stroke="black" points="1123,-218.65 1123,-237.65 1200,-237.65 1200,-218.65 1123,-218.65"/>
<text text-anchor="middle" x="1161.5" y="-225.65" font-family="Helvetica,sans-Serif" font-size="10.00">JoinManager</text>
</a>
</g>
</g>
<!-- Node14&#45;&gt;Node24 -->
<g id="edge32" class="edge">
<title>Node14&#45;&gt;Node24</title>
<path fill="none" stroke="#9a32cd" stroke-dasharray="5,2" d="M911.62,-209.43C952.12,-209.99 1015.38,-211.58 1070,-216.15 1087.37,-217.6 1106.53,-220.02 1122.72,-222.31"/>
<polygon fill="#9a32cd" stroke="#9a32cd" points="911.62,-205.93 901.58,-209.31 911.53,-212.93 911.62,-205.93"/>
<text text-anchor="middle" x="1028.5" y="-219.15" font-family="Helvetica,sans-Serif" font-size="10.00"> name</text>
</g>
<!-- Node14&#45;&gt;Node28 -->
<g id="edge43" class="edge">
<title>Node14&#45;&gt;Node28</title>
<path fill="none" stroke="#9a32cd" stroke-dasharray="5,2" d="M911.78,-209.19C931.76,-211.46 954.44,-217.69 969,-233.15 999.96,-266.02 956.2,-300.12 987,-333.15 1012.95,-360.98 1036.65,-335.83 1070,-354.15 1079.64,-359.45 1078.41,-365.75 1088,-371.15 1095.62,-375.44 1104.22,-378.86 1112.76,-381.56"/>
<polygon fill="#9a32cd" stroke="#9a32cd" points="911.89,-205.69 901.63,-208.34 911.31,-212.66 911.89,-205.69"/>
<text text-anchor="middle" x="1028.5" y="-357.15" font-family="Helvetica,sans-Serif" font-size="10.00"> elements</text>
</g>
<!-- Node15 -->
<g id="node15" class="node">
<title>Node15</title>
<g id="a_node15"><a xlink:title="STL class.">
<polygon fill="white" stroke="#bfbfbf" points="432.5,-194.15 432.5,-224.15 536.5,-224.15 536.5,-194.15 432.5,-194.15"/>
<text text-anchor="start" x="440.5" y="-212.15" font-family="Helvetica,sans-Serif" font-size="10.00">std::basic_string&lt;</text>
<text text-anchor="middle" x="484.5" y="-201.15" font-family="Helvetica,sans-Serif" font-size="10.00"> char &gt;</text>
</a>
</g>
</g>
<!-- Node15&#45;&gt;Node14 -->
<g id="edge15" class="edge">
<title>Node15&#45;&gt;Node14</title>
<path fill="none" stroke="midnightblue" d="M546.93,-209.15C629.42,-209.15 772.95,-209.15 836.35,-209.15"/>
<polygon fill="midnightblue" stroke="midnightblue" points="546.69,-205.65 536.69,-209.15 546.69,-212.65 546.69,-205.65"/>
</g>
<!-- Node16&#45;&gt;Node5 -->
<g id="edge16" class="edge">
<title>Node16&#45;&gt;Node5</title>
<path fill="none" stroke="orange" stroke-dasharray="5,2" d="M1230.67,-149.96C1273.42,-149.92 1323.61,-152.75 1341,-165.15 1357.54,-176.94 1349.29,-189.31 1359,-207.15 1384.04,-253.13 1421.18,-303.55 1436.96,-324.35"/>
<polygon fill="orange" stroke="orange" points="1230.53,-146.46 1220.55,-150.02 1230.58,-153.46 1230.53,-146.46"/>
<text text-anchor="middle" x="1297" y="-168.15" font-family="Helvetica,sans-Serif" font-size="10.00"> &lt; JSONStorage &gt;</text>
</g>
<!-- Node23 -->
<g id="node23" class="node">
<title>Node23</title>
<g id="a_node23"><a xlink:title=" ">
<polygon fill="white" stroke="#bfbfbf" points="1359,-178.65 1359,-197.65 1532,-197.65 1532,-178.65 1359,-178.65"/>
<text text-anchor="middle" x="1445.5" y="-185.65" font-family="Helvetica,sans-Serif" font-size="10.00">std::shared_ptr&lt; JoinManager &gt;</text>
</a>
</g>
</g>
<!-- Node16&#45;&gt;Node23 -->
<g id="edge39" class="edge">
<title>Node16&#45;&gt;Node23</title>
<path fill="none" stroke="orange" stroke-dasharray="5,2" d="M1200.18,-139.81C1236.68,-129.7 1293.35,-118.9 1341,-131.15 1376.76,-140.35 1413.4,-164.79 1432.01,-178.49"/>
<polygon fill="orange" stroke="orange" points="1199.08,-136.49 1190.44,-142.63 1201.02,-143.21 1199.08,-136.49"/>
<text text-anchor="middle" x="1297" y="-134.15" font-family="Helvetica,sans-Serif" font-size="10.00"> &lt; JoinManager &gt;</text>
</g>
<!-- Node17&#45;&gt;Node4 -->
<g id="edge19" class="edge">
<title>Node17&#45;&gt;Node4</title>
<path fill="none" stroke="orange" stroke-dasharray="5,2" d="M1512.41,-113.24C1524.88,-115.97 1537.82,-118.71 1550,-121.15 1642.07,-139.56 1689.85,-93.56 1758,-158.15 1783.51,-182.33 1753.36,-208.27 1776,-235.15 1785.44,-246.35 1798.01,-254.95 1811.3,-261.51"/>
<polygon fill="orange" stroke="orange" points="1513.06,-109.8 1502.54,-111.06 1511.55,-116.63 1513.06,-109.8"/>
<text text-anchor="start" x="1577" y="-172.15" font-family="Helvetica,sans-Serif" font-size="10.00"> &lt; std::string, std</text>
<text text-anchor="middle" x="1654" y="-161.15" font-family="Helvetica,sans-Serif" font-size="10.00">::shared_ptr&lt; JSONStorage &gt; &gt;</text>
</g>
<!-- Node17&#45;&gt;Node19 -->
<g id="edge25" class="edge">
<title>Node17&#45;&gt;Node19</title>
<path fill="none" stroke="orange" stroke-dasharray="5,2" d="M1476.92,-119.23C1494.38,-132.29 1515.94,-150.16 1532,-169.15 1542.29,-181.32 1537.66,-190.07 1550,-200.15 1625.56,-261.84 1686.32,-204 1758,-270.15 1772.93,-283.92 1760.66,-298.84 1776,-312.15 1783.84,-318.95 1793.07,-324.23 1802.81,-328.32"/>
<polygon fill="orange" stroke="orange" points="1478.86,-116.31 1468.73,-113.22 1474.72,-121.96 1478.86,-116.31"/>
<text text-anchor="start" x="1577" y="-284.15" font-family="Helvetica,sans-Serif" font-size="10.00"> &lt; unsigned long, std</text>
<text text-anchor="middle" x="1654" y="-273.15" font-family="Helvetica,sans-Serif" font-size="10.00">::shared_ptr&lt; JSONStorage &gt; &gt;</text>
</g>
<!-- Node17&#45;&gt;Node22 -->
<g id="edge41" class="edge">
<title>Node17&#45;&gt;Node22</title>
<path fill="none" stroke="orange" stroke-dasharray="5,2" d="M1512.81,-85.8C1577.43,-76.63 1677.46,-70.16 1758,-99.15 1770.38,-103.6 1830.05,-155.02 1863.73,-184.57"/>
<polygon fill="orange" stroke="orange" points="1512.12,-82.37 1502.75,-87.29 1513.15,-89.29 1512.12,-82.37"/>
<text text-anchor="start" x="1577.5" y="-113.15" font-family="Helvetica,sans-Serif" font-size="10.00"> &lt; std::string, std</text>
<text text-anchor="middle" x="1654" y="-102.15" font-family="Helvetica,sans-Serif" font-size="10.00">::shared_ptr&lt; JoinManager &gt; &gt;</text>
</g>
<!-- Node18 -->
<g id="node18" class="node">
<title>Node18</title>
<g id="a_node18"><a xlink:title=" ">
<polygon fill="white" stroke="#bfbfbf" points="1147,-38.65 1147,-57.65 1176,-57.65 1176,-38.65 1147,-38.65"/>
<text text-anchor="middle" x="1161.5" y="-45.65" font-family="Helvetica,sans-Serif" font-size="10.00">K</text>
</a>
</g>
</g>
<!-- Node18&#45;&gt;Node17 -->
<g id="edge20" class="edge">
<title>Node18&#45;&gt;Node17</title>
<path fill="none" stroke="#9a32cd" stroke-dasharray="5,2" d="M1185.99,-50.46C1220.25,-54.01 1285.86,-61.55 1341,-72.15 1356.83,-75.19 1373.85,-79.17 1389.43,-83.09"/>
<polygon fill="#9a32cd" stroke="#9a32cd" points="1186.32,-46.97 1176.02,-49.44 1185.61,-53.94 1186.32,-46.97"/>
<text text-anchor="middle" x="1297" y="-75.15" font-family="Helvetica,sans-Serif" font-size="10.00"> keys</text>
</g>
<!-- Node21 -->
<g id="node21" class="node">
<title>Node21</title>
<g id="a_node21"><a xlink:title="STL class.">
<polygon fill="white" stroke="#bfbfbf" points="1377,-4.65 1377,-23.65 1514,-23.65 1514,-4.65 1377,-4.65"/>
<text text-anchor="middle" x="1445.5" y="-11.65" font-family="Helvetica,sans-Serif" font-size="10.00">std::unordered_set&lt; K &gt;</text>
</a>
</g>
</g>
<!-- Node18&#45;&gt;Node21 -->
<g id="edge28" class="edge">
<title>Node18&#45;&gt;Node21</title>
<path fill="none" stroke="#9a32cd" stroke-dasharray="5,2" d="M1186.31,-44.51C1204.54,-41.77 1230.33,-38.02 1253,-35.15 1293.98,-29.96 1339.99,-24.89 1376.64,-21.03"/>
<polygon fill="#9a32cd" stroke="#9a32cd" points="1185.64,-41.07 1176.28,-46.02 1186.69,-47.99 1185.64,-41.07"/>
<text text-anchor="middle" x="1297" y="-38.15" font-family="Helvetica,sans-Serif" font-size="10.00"> keys</text>
</g>
<!-- Node19&#45;&gt;Node3 -->
<g id="edge23" class="edge">
<title>Node19&#45;&gt;Node3</title>
<path fill="none" stroke="#9a32cd" stroke-dasharray="5,2" d="M1983.37,-331.25C2024.91,-326.46 2072.05,-321.02 2106.8,-317"/>
<polygon fill="#9a32cd" stroke="#9a32cd" points="1982.75,-327.8 1973.22,-332.43 1983.55,-334.76 1982.75,-327.8"/>
<text text-anchor="middle" x="2053.5" y="-329.15" font-family="Helvetica,sans-Serif" font-size="10.00"> resultStorage</text>
</g>
<!-- Node20 -->
<g id="node20" class="node">
<title>Node20</title>
<g id="a_node20"><a xlink:title=" ">
<polygon fill="white" stroke="#bfbfbf" points="1776,-15.65 1776,-100.65 2000,-100.65 2000,-15.65 1776,-15.65"/>
<text text-anchor="start" x="1784" y="-88.65" font-family="Helvetica,sans-Serif" font-size="10.00">std::unordered_set</text>
<text text-anchor="start" x="1784" y="-77.65" font-family="Helvetica,sans-Serif" font-size="10.00">&lt; std::pair&lt; std::shared</text>
<text text-anchor="start" x="1784" y="-66.65" font-family="Helvetica,sans-Serif" font-size="10.00">_ptr&lt; JSONStorage &gt;, std</text>
<text text-anchor="start" x="1784" y="-55.65" font-family="Helvetica,sans-Serif" font-size="10.00">::shared_ptr&lt; JSONStorage</text>
<text text-anchor="start" x="1784" y="-44.65" font-family="Helvetica,sans-Serif" font-size="10.00"> &gt; &gt;, boost::hash&lt; std::pair</text>
<text text-anchor="start" x="1784" y="-33.65" font-family="Helvetica,sans-Serif" font-size="10.00">&lt; std::shared_ptr&lt; JSONStorage</text>
<text text-anchor="middle" x="1888" y="-22.65" font-family="Helvetica,sans-Serif" font-size="10.00"> &gt;, std::shared_ptr&lt; JSONStorage &gt; &gt; &gt; &gt;</text>
</a>
</g>
</g>
<!-- Node20&#45;&gt;Node3 -->
<g id="edge26" class="edge">
<title>Node20&#45;&gt;Node3</title>
<path fill="none" stroke="#9a32cd" stroke-dasharray="5,2" d="M1951.2,-107.34C1991.86,-140.5 2045.31,-186.1 2089,-230.15 2112.86,-254.21 2137.81,-285.53 2149.96,-301.24"/>
<polygon fill="#9a32cd" stroke="#9a32cd" points="1953.22,-104.46 1943.25,-100.87 1948.8,-109.9 1953.22,-104.46"/>
<text text-anchor="middle" x="2053.5" y="-233.15" font-family="Helvetica,sans-Serif" font-size="10.00"> dependencies</text>
</g>
<!-- Node21&#45;&gt;Node20 -->
<g id="edge27" class="edge">
<title>Node21&#45;&gt;Node20</title>
<path fill="none" stroke="orange" stroke-dasharray="5,2" d="M1524.58,-4.99C1587.99,0.5 1679.47,3.99 1758,-10.15 1765.88,-11.57 1773.9,-13.44 1781.9,-15.61"/>
<polygon fill="orange" stroke="orange" points="1523.9,-1.54 1514.25,-5.92 1524.53,-8.51 1523.9,-1.54"/>
<text text-anchor="start" x="1550" y="-68.15" font-family="Helvetica,sans-Serif" font-size="10.00"> &lt; std::pair&lt; std::shared</text>
<text text-anchor="start" x="1550" y="-57.15" font-family="Helvetica,sans-Serif" font-size="10.00">_ptr&lt; JSONStorage &gt;, std</text>
<text text-anchor="start" x="1550" y="-46.15" font-family="Helvetica,sans-Serif" font-size="10.00">::shared_ptr&lt; JSONStorage</text>
<text text-anchor="start" x="1550" y="-35.15" font-family="Helvetica,sans-Serif" font-size="10.00"> &gt; &gt;, boost::hash&lt; std::pair</text>
<text text-anchor="start" x="1550" y="-24.15" font-family="Helvetica,sans-Serif" font-size="10.00">&lt; std::shared_ptr&lt; JSONStorage</text>
<text text-anchor="middle" x="1654" y="-13.15" font-family="Helvetica,sans-Serif" font-size="10.00"> &gt;, std::shared_ptr&lt; JSONStorage &gt; &gt; &gt; &gt;</text>
</g>
<!-- Node22&#45;&gt;Node3 -->
<g id="edge29" class="edge">
<title>Node22&#45;&gt;Node3</title>
<path fill="none" stroke="#9a32cd" stroke-dasharray="5,2" d="M1969.34,-228.84C2006.36,-240.67 2050.53,-256.1 2089,-273.15 2107.9,-281.52 2128.5,-293.35 2142.13,-301.58"/>
<polygon fill="#9a32cd" stroke="#9a32cd" points="1970.18,-225.44 1959.59,-225.76 1968.07,-232.11 1970.18,-225.44"/>
<text text-anchor="middle" x="2053.5" y="-276.15" font-family="Helvetica,sans-Serif" font-size="10.00"> runningJoins</text>
</g>
<!-- Node23&#45;&gt;Node22 -->
<g id="edge30" class="edge">
<title>Node23&#45;&gt;Node22</title>
<path fill="none" stroke="#9a32cd" stroke-dasharray="5,2" d="M1542.31,-185.49C1603.96,-184.51 1685.79,-184.57 1758,-189.15 1773.65,-190.14 1790.31,-191.77 1806.28,-193.63"/>
<polygon fill="#9a32cd" stroke="#9a32cd" points="1542.14,-181.99 1532.2,-185.66 1542.26,-188.99 1542.14,-181.99"/>
<text text-anchor="middle" x="1654" y="-192.15" font-family="Helvetica,sans-Serif" font-size="10.00"> elements</text>
</g>
<!-- Node24&#45;&gt;Node23 -->
<g id="edge31" class="edge">
<title>Node24&#45;&gt;Node23</title>
<path fill="none" stroke="#9a32cd" stroke-dasharray="5,2" d="M1210.49,-224.74C1246.53,-221.83 1297.03,-217.02 1341,-210.15 1362.05,-206.86 1385.28,-202.03 1404.38,-197.74"/>
<polygon fill="#9a32cd" stroke="#9a32cd" points="1209.96,-221.27 1200.26,-225.54 1210.51,-228.25 1209.96,-221.27"/>
<text text-anchor="middle" x="1297" y="-223.15" font-family="Helvetica,sans-Serif" font-size="10.00"> ptr</text>
</g>
<!-- Node25&#45;&gt;Node24 -->
<g id="edge33" class="edge">
<title>Node25&#45;&gt;Node24</title>
<path fill="none" stroke="#9a32cd" stroke-dasharray="5,2" d="M562.49,-399.57C567.21,-397.38 571.76,-394.91 576,-392.15 586.59,-385.25 583.33,-376.92 594,-370.15 769.52,-258.8 1027.2,-234.73 1122.91,-229.55"/>
<polygon fill="#9a32cd" stroke="#9a32cd" points="561.11,-396.35 553.26,-403.46 563.83,-402.8 561.11,-396.35"/>
<text text-anchor="middle" x="869" y="-293.15" font-family="Helvetica,sans-Serif" font-size="10.00"> valProv</text>
</g>
<!-- Node25&#45;&gt;Node27 -->
<g id="edge36" class="edge">
<title>Node25&#45;&gt;Node27</title>
<path fill="none" stroke="#9a32cd" stroke-dasharray="5,2" d="M563.16,-425.35C638.69,-433.6 743.22,-445.83 751,-451.15 764.79,-460.57 756.04,-473.61 769,-484.15 776.59,-490.33 785.44,-495.23 794.66,-499.13"/>
<polygon fill="#9a32cd" stroke="#9a32cd" points="563.49,-421.87 553.17,-424.27 562.73,-428.83 563.49,-421.87"/>
<text text-anchor="middle" x="672.5" y="-454.15" font-family="Helvetica,sans-Serif" font-size="10.00"> elements</text>
</g>
<!-- Node26 -->
<g id="node26" class="node">
<title>Node26</title>
<g id="a_node26"><a xlink:href="../../d4/df5/classjoda_1_1query_1_1IValueProvider.html" target="_top" xlink:title=" ">
<polygon fill="white" stroke="black" points="1088,-512.65 1088,-531.65 1235,-531.65 1235,-512.65 1088,-512.65"/>
<text text-anchor="middle" x="1161.5" y="-519.65" font-family="Helvetica,sans-Serif" font-size="10.00">joda::query::IValueProvider</text>
</a>
</g>
</g>
<!-- Node26&#45;&gt;Node25 -->
<g id="edge34" class="edge">
<title>Node26&#45;&gt;Node25</title>
<path fill="none" stroke="#9a32cd" stroke-dasharray="5,2" d="M1098.47,-510.67C1065.2,-504.07 1023.63,-495.13 987,-485.15 978.86,-482.93 977.17,-481.25 969,-479.15 881.47,-456.58 853.42,-474.48 769,-442.15 760.24,-438.8 759.96,-433.93 751,-431.15 685.97,-410.99 607.74,-409.41 553.11,-411.7"/>
<polygon fill="#9a32cd" stroke="#9a32cd" points="1098.03,-514.15 1108.51,-512.64 1099.37,-507.28 1098.03,-514.15"/>
<text text-anchor="middle" x="869" y="-482.15" font-family="Helvetica,sans-Serif" font-size="10.00"> ptr</text>
</g>
<!-- Node27&#45;&gt;Node26 -->
<g id="edge35" class="edge">
<title>Node27&#45;&gt;Node26</title>
<path fill="none" stroke="#9a32cd" stroke-dasharray="5,2" d="M979.31,-517.16C1015.6,-518.16 1055.09,-519.25 1087.91,-520.15"/>
<polygon fill="#9a32cd" stroke="#9a32cd" points="979.25,-513.66 969.16,-516.88 979.06,-520.65 979.25,-513.66"/>
<text text-anchor="middle" x="1028.5" y="-522.15" font-family="Helvetica,sans-Serif" font-size="10.00"> params</text>
</g>
<!-- Node28&#45;&gt;Node3 -->
<g id="edge42" class="edge">
<title>Node28&#45;&gt;Node3</title>
<path fill="none" stroke="#9a32cd" stroke-dasharray="5,2" d="M1241.64,-397.49C1391.22,-407.67 1725.1,-421.87 2000,-372.15 2041.22,-364.69 2051.14,-359.06 2089,-341.15 2097.48,-337.14 2098.58,-334.26 2107,-330.15 2114.07,-326.7 2121.94,-323.46 2129.32,-320.68"/>
<polygon fill="#9a32cd" stroke="#9a32cd" points="1241.84,-393.99 1231.62,-396.79 1241.35,-400.97 1241.84,-393.99"/>
<text text-anchor="middle" x="1654" y="-410.15" font-family="Helvetica,sans-Serif" font-size="10.00"> storageInsertion</text>
</g>
</g>
</svg>
