<?xml version="1.0" encoding="UTF-8" standalone="no"?>
<!DOCTYPE svg PUBLIC "-//W3C//DTD SVG 1.1//EN"
 "http://www.w3.org/Graphics/SVG/1.1/DTD/svg11.dtd">
<!-- Generated by graphviz version 2.43.0 (0)
 -->
<!-- Title: joda::queryparsing::grammar::floatNumber Pages: 1 -->
<svg width="331pt" height="94pt"
 viewBox="0.00 0.00 331.00 94.00" xmlns="http://www.w3.org/2000/svg" xmlns:xlink="http://www.w3.org/1999/xlink">
<g id="graph0" class="graph" transform="scale(1 1) rotate(0) translate(4 90)">
<title>joda::queryparsing::grammar::floatNumber</title>
<polygon fill="white" stroke="transparent" points="-4,4 -4,-90 327,-90 327,4 -4,4"/>
<!-- Node1 -->
<g id="node1" class="node">
<title>Node1</title>
<g id="a_node1"><a xlink:title=" ">
<polygon fill="#bfbfbf" stroke="black" points="189,-28 189,-58 323,-58 323,-28 189,-28"/>
<text text-anchor="start" x="197" y="-46" font-family="Helvetica,sans-Serif" font-size="10.00">joda::queryparsing</text>
<text text-anchor="middle" x="256" y="-35" font-family="Helvetica,sans-Serif" font-size="10.00">::grammar::floatNumber</text>
</a>
</g>
</g>
<!-- Node2 -->
<g id="node2" class="node">
<title>Node2</title>
<g id="a_node2"><a xlink:title=" ">
<polygon fill="white" stroke="#bfbfbf" points="0,-0.5 0,-85.5 153,-85.5 153,-0.5 0,-0.5"/>
<text text-anchor="start" x="8" y="-73.5" font-family="Helvetica,sans-Serif" font-size="10.00">tao::pegtl::seq&lt; tao</text>
<text text-anchor="start" x="8" y="-62.5" font-family="Helvetica,sans-Serif" font-size="10.00">::pegtl::opt&lt; tao::pegtl</text>
<text text-anchor="start" x="8" y="-51.5" font-family="Helvetica,sans-Serif" font-size="10.00">::one&lt;&#39;+&#39;, &#39;&#45;&#39;&gt; &gt;, tao::</text>
<text text-anchor="start" x="8" y="-40.5" font-family="Helvetica,sans-Serif" font-size="10.00">pegtl::plus&lt; tao::pegtl::</text>
<text text-anchor="start" x="8" y="-29.5" font-family="Helvetica,sans-Serif" font-size="10.00">digit &gt;, tao::pegtl::one&lt;&#39;.&#39;&gt;</text>
<text text-anchor="start" x="8" y="-18.5" font-family="Helvetica,sans-Serif" font-size="10.00">, tao::pegtl::plus&lt; tao::pegtl</text>
<text text-anchor="middle" x="76.5" y="-7.5" font-family="Helvetica,sans-Serif" font-size="10.00">::digit &gt; &gt;</text>
</a>
</g>
</g>
<!-- Node2&#45;&gt;Node1 -->
<g id="edge1" class="edge">
<title>Node2&#45;&gt;Node1</title>
<path fill="none" stroke="midnightblue" d="M163.12,-43C171.75,-43 180.41,-43 188.79,-43"/>
<polygon fill="midnightblue" stroke="midnightblue" points="163.03,-39.5 153.03,-43 163.03,-46.5 163.03,-39.5"/>
</g>
</g>
</svg>
