<?xml version="1.0" encoding="UTF-8" standalone="no"?>
<!DOCTYPE svg PUBLIC "-//W3C//DTD SVG 1.1//EN"
 "http://www.w3.org/Graphics/SVG/1.1/DTD/svg11.dtd">
<!-- Generated by graphviz version 2.43.0 (0)
 -->
<!-- Title: joda::query::IsXBoolProvider&lt; T &gt; Pages: 1 -->
<svg width="370pt" height="384pt"
 viewBox="0.00 0.00 369.50 384.00" xmlns="http://www.w3.org/2000/svg" xmlns:xlink="http://www.w3.org/1999/xlink">
<g id="graph0" class="graph" transform="scale(1 1) rotate(0) translate(4 380)">
<title>joda::query::IsXBoolProvider&lt; T &gt;</title>
<polygon fill="white" stroke="transparent" points="-4,4 -4,-380 365.5,-380 365.5,4 -4,4"/>
<!-- Node1 -->
<g id="node1" class="node">
<title>Node1</title>
<g id="a_node1"><a xlink:title=" ">
<polygon fill="#bfbfbf" stroke="black" points="43.5,-0.5 43.5,-19.5 225.5,-19.5 225.5,-0.5 43.5,-0.5"/>
<text text-anchor="middle" x="134.5" y="-7.5" font-family="Helvetica,sans-Serif" font-size="10.00">joda::query::IsXBoolProvider&lt; T &gt;</text>
</a>
</g>
</g>
<!-- Node2 -->
<g id="node2" class="node">
<title>Node2</title>
<g id="a_node2"><a xlink:href="../../d4/df5/classjoda_1_1query_1_1IValueProvider.html" target="_top" xlink:title=" ">
<polygon fill="white" stroke="black" points="61,-57.5 61,-76.5 208,-76.5 208,-57.5 61,-57.5"/>
<text text-anchor="middle" x="134.5" y="-64.5" font-family="Helvetica,sans-Serif" font-size="10.00">joda::query::IValueProvider</text>
</a>
</g>
</g>
<!-- Node2&#45;&gt;Node1 -->
<g id="edge1" class="edge">
<title>Node2&#45;&gt;Node1</title>
<path fill="none" stroke="midnightblue" d="M134.5,-47.12C134.5,-37.82 134.5,-27.06 134.5,-19.71"/>
<polygon fill="midnightblue" stroke="midnightblue" points="131,-47.41 134.5,-57.41 138,-47.41 131,-47.41"/>
</g>
<!-- Node3 -->
<g id="node3" class="node">
<title>Node3</title>
<g id="a_node3"><a xlink:title=" ">
<polygon fill="white" stroke="#bfbfbf" points="34.5,-124.5 34.5,-154.5 234.5,-154.5 234.5,-124.5 34.5,-124.5"/>
<text text-anchor="start" x="42.5" y="-142.5" font-family="Helvetica,sans-Serif" font-size="10.00">std::vector&lt; std::unique</text>
<text text-anchor="middle" x="134.5" y="-131.5" font-family="Helvetica,sans-Serif" font-size="10.00">_ptr&lt; joda::query::IValueProvider &gt; &gt;</text>
</a>
</g>
</g>
<!-- Node3&#45;&gt;Node2 -->
<g id="edge2" class="edge">
<title>Node3&#45;&gt;Node2</title>
<path fill="none" stroke="#9a32cd" stroke-dasharray="5,2" d="M134.5,-114.09C134.5,-101.21 134.5,-86.2 134.5,-76.89"/>
<polygon fill="#9a32cd" stroke="#9a32cd" points="131,-114.23 134.5,-124.23 138,-114.23 131,-114.23"/>
<text text-anchor="middle" x="154.5" y="-98" font-family="Helvetica,sans-Serif" font-size="10.00"> params</text>
</g>
<!-- Node4 -->
<g id="node4" class="node">
<title>Node4</title>
<g id="a_node4"><a xlink:title=" ">
<polygon fill="white" stroke="#bfbfbf" points="0,-202.5 0,-232.5 137,-232.5 137,-202.5 0,-202.5"/>
<text text-anchor="start" x="8" y="-220.5" font-family="Helvetica,sans-Serif" font-size="10.00">std::unique_ptr&lt; joda</text>
<text text-anchor="middle" x="68.5" y="-209.5" font-family="Helvetica,sans-Serif" font-size="10.00">::query::IValueProvider &gt;</text>
</a>
</g>
</g>
<!-- Node4&#45;&gt;Node3 -->
<g id="edge3" class="edge">
<title>Node4&#45;&gt;Node3</title>
<path fill="none" stroke="#9a32cd" stroke-dasharray="5,2" d="M87.77,-194.31C98.87,-181.53 112.48,-165.86 122.14,-154.73"/>
<polygon fill="#9a32cd" stroke="#9a32cd" points="84.83,-192.36 80.91,-202.2 90.11,-196.95 84.83,-192.36"/>
<text text-anchor="middle" x="130" y="-176" font-family="Helvetica,sans-Serif" font-size="10.00"> elements</text>
</g>
<!-- Node5 -->
<g id="node5" class="node">
<title>Node5</title>
<g id="a_node5"><a xlink:title=" ">
<polygon fill="white" stroke="#bfbfbf" points="18.5,-289.5 18.5,-308.5 136.5,-308.5 136.5,-289.5 18.5,-289.5"/>
<text text-anchor="middle" x="77.5" y="-296.5" font-family="Helvetica,sans-Serif" font-size="10.00">std::unique_ptr&lt; T &gt;</text>
</a>
</g>
</g>
<!-- Node5&#45;&gt;Node4 -->
<g id="edge4" class="edge">
<title>Node5&#45;&gt;Node4</title>
<path fill="none" stroke="orange" stroke-dasharray="5,2" d="M27.56,-284.82C21.63,-281.26 16.33,-276.74 12.5,-271 7.57,-263.61 8.06,-258.7 12.5,-251 16.93,-243.3 23.96,-237.26 31.56,-232.59"/>
<polygon fill="orange" stroke="orange" points="26.11,-288 36.62,-289.38 29.26,-281.75 26.11,-288"/>
<text text-anchor="middle" x="91" y="-258.5" font-family="Helvetica,sans-Serif" font-size="10.00"> &lt; joda::query::IValueProvider &gt;</text>
</g>
<!-- Node6 -->
<g id="node6" class="node">
<title>Node6</title>
<g id="a_node6"><a xlink:title=" ">
<polygon fill="white" stroke="#bfbfbf" points="138,-356.5 138,-375.5 167,-375.5 167,-356.5 138,-356.5"/>
<text text-anchor="middle" x="152.5" y="-363.5" font-family="Helvetica,sans-Serif" font-size="10.00">T</text>
</a>
</g>
</g>
<!-- Node6&#45;&gt;Node5 -->
<g id="edge5" class="edge">
<title>Node6&#45;&gt;Node5</title>
<path fill="none" stroke="#9a32cd" stroke-dasharray="5,2" d="M134.45,-349.36C119.71,-336.58 99.41,-318.99 87.45,-308.63"/>
<polygon fill="#9a32cd" stroke="#9a32cd" points="132.54,-352.33 142.39,-356.23 137.12,-347.04 132.54,-352.33"/>
<text text-anchor="middle" x="128" y="-330" font-family="Helvetica,sans-Serif" font-size="10.00"> ptr</text>
</g>
<!-- Node7 -->
<g id="node7" class="node">
<title>Node7</title>
<g id="a_node7"><a xlink:title=" ">
<polygon fill="white" stroke="#bfbfbf" points="178,-251.5 178,-270.5 275,-270.5 275,-251.5 178,-251.5"/>
<text text-anchor="middle" x="226.5" y="-258.5" font-family="Helvetica,sans-Serif" font-size="10.00">std::vector&lt; T &gt;</text>
</a>
</g>
</g>
<!-- Node6&#45;&gt;Node7 -->
<g id="edge7" class="edge">
<title>Node6&#45;&gt;Node7</title>
<path fill="none" stroke="#9a32cd" stroke-dasharray="5,2" d="M164.68,-348.05C180.61,-325.88 207.93,-287.84 220.21,-270.76"/>
<polygon fill="#9a32cd" stroke="#9a32cd" points="161.8,-346.05 158.81,-356.22 167.49,-350.14 161.8,-346.05"/>
<text text-anchor="middle" x="204" y="-330" font-family="Helvetica,sans-Serif" font-size="10.00"> elements</text>
</g>
<!-- Node7&#45;&gt;Node3 -->
<g id="edge6" class="edge">
<title>Node7&#45;&gt;Node3</title>
<path fill="none" stroke="orange" stroke-dasharray="5,2" d="M213.71,-243.39C195.55,-219.8 162.59,-176.99 145.48,-154.76"/>
<polygon fill="orange" stroke="orange" points="211.01,-245.62 219.88,-251.41 216.56,-241.35 211.01,-245.62"/>
<text text-anchor="start" x="204.5" y="-220.5" font-family="Helvetica,sans-Serif" font-size="10.00"> &lt; std::unique_ptr&lt;</text>
<text text-anchor="middle" x="283" y="-209.5" font-family="Helvetica,sans-Serif" font-size="10.00"> joda::query::IValueProvider &gt; &gt;</text>
</g>
</g>
</svg>
