<?xml version="1.0" encoding="UTF-8" standalone="no"?>
<!DOCTYPE svg PUBLIC "-//W3C//DTD SVG 1.1//EN"
 "http://www.w3.org/Graphics/SVG/1.1/DTD/svg11.dtd">
<!-- Generated by graphviz version 2.43.0 (0)
 -->
<!-- Title: moodycamel::spsc_sema::LightweightSemaphore::wait Pages: 1 -->
<svg width="534pt" height="88pt"
 viewBox="0.00 0.00 534.00 88.00" xmlns="http://www.w3.org/2000/svg" xmlns:xlink="http://www.w3.org/1999/xlink">
<g id="graph0" class="graph" transform="scale(1 1) rotate(0) translate(4 84)">
<title>moodycamel::spsc_sema::LightweightSemaphore::wait</title>
<polygon fill="white" stroke="transparent" points="-4,4 -4,-84 530,-84 530,4 -4,4"/>
<!-- Node1 -->
<g id="node1" class="node">
<title>Node1</title>
<g id="a_node1"><a xlink:title=" ">
<polygon fill="#bfbfbf" stroke="black" points="0,-24.5 0,-54.5 162,-54.5 162,-24.5 0,-24.5"/>
<text text-anchor="start" x="8" y="-42.5" font-family="Helvetica,sans-Serif" font-size="10.00">moodycamel::spsc_sema</text>
<text text-anchor="middle" x="81" y="-31.5" font-family="Helvetica,sans-Serif" font-size="10.00">::LightweightSemaphore::wait</text>
</a>
</g>
</g>
<!-- Node2 -->
<g id="node2" class="node">
<title>Node2</title>
<g id="a_node2"><a xlink:href="../../da/d30/classmoodycamel_1_1spsc__sema_1_1LightweightSemaphore.html#a5b68a21a86def468f6f7676162e7417a" target="_top" xlink:title=" ">
<polygon fill="white" stroke="black" points="198,-19 198,-60 338,-60 338,-19 198,-19"/>
<text text-anchor="start" x="206" y="-48" font-family="Helvetica,sans-Serif" font-size="10.00">moodycamel::spsc_sema</text>
<text text-anchor="start" x="206" y="-37" font-family="Helvetica,sans-Serif" font-size="10.00">::LightweightSemaphore</text>
<text text-anchor="middle" x="268" y="-26" font-family="Helvetica,sans-Serif" font-size="10.00">::tryWait</text>
</a>
</g>
</g>
<!-- Node1&#45;&gt;Node2 -->
<g id="edge1" class="edge">
<title>Node1&#45;&gt;Node2</title>
<path fill="none" stroke="midnightblue" d="M162.07,-39.5C170.54,-39.5 179.15,-39.5 187.61,-39.5"/>
<polygon fill="midnightblue" stroke="midnightblue" points="187.84,-43 197.84,-39.5 187.84,-36 187.84,-43"/>
</g>
<!-- Node3 -->
<g id="node3" class="node">
<title>Node3</title>
<g id="a_node3"><a xlink:href="../../dc/d66/classmoodycamel_1_1weak__atomic.html#a8852716d0fae8add8a794d82f6623ef6" target="_top" xlink:title=" ">
<polygon fill="white" stroke="black" points="374,-49.5 374,-79.5 526,-79.5 526,-49.5 374,-49.5"/>
<text text-anchor="start" x="382" y="-67.5" font-family="Helvetica,sans-Serif" font-size="10.00">moodycamel::weak_atomic</text>
<text text-anchor="middle" x="450" y="-56.5" font-family="Helvetica,sans-Serif" font-size="10.00">::fetch_add_acquire</text>
</a>
</g>
</g>
<!-- Node2&#45;&gt;Node3 -->
<g id="edge2" class="edge">
<title>Node2&#45;&gt;Node3</title>
<path fill="none" stroke="midnightblue" d="M338.08,-49.09C346.49,-50.26 355.15,-51.47 363.76,-52.66"/>
<polygon fill="midnightblue" stroke="midnightblue" points="363.43,-56.15 373.82,-54.06 364.4,-49.22 363.43,-56.15"/>
</g>
<!-- Node4 -->
<g id="node4" class="node">
<title>Node4</title>
<g id="a_node4"><a xlink:href="../../dc/d66/classmoodycamel_1_1weak__atomic.html#a50e62633b557a82c043b2f59d7ac4c68" target="_top" xlink:title=" ">
<polygon fill="white" stroke="black" points="374,-0.5 374,-30.5 526,-30.5 526,-0.5 374,-0.5"/>
<text text-anchor="start" x="382" y="-18.5" font-family="Helvetica,sans-Serif" font-size="10.00">moodycamel::weak_atomic</text>
<text text-anchor="middle" x="450" y="-7.5" font-family="Helvetica,sans-Serif" font-size="10.00">::load</text>
</a>
</g>
</g>
<!-- Node2&#45;&gt;Node4 -->
<g id="edge3" class="edge">
<title>Node2&#45;&gt;Node4</title>
<path fill="none" stroke="midnightblue" d="M338.08,-30.29C346.49,-29.17 355.15,-28.01 363.76,-26.87"/>
<polygon fill="midnightblue" stroke="midnightblue" points="364.37,-30.31 373.82,-25.52 363.45,-23.38 364.37,-30.31"/>
</g>
</g>
</svg>
