<?xml version="1.0" encoding="UTF-8" standalone="no"?>
<!DOCTYPE svg PUBLIC "-//W3C//DTD SVG 1.1//EN"
 "http://www.w3.org/Graphics/SVG/1.1/DTD/svg11.dtd">
<!-- Generated by graphviz version 2.43.0 (0)
 -->
<!-- Title: moodycamel::ReaderWriterQueue::try_dequeue Pages: 1 -->
<svg width="381pt" height="137pt"
 viewBox="0.00 0.00 381.00 137.00" xmlns="http://www.w3.org/2000/svg" xmlns:xlink="http://www.w3.org/1999/xlink">
<g id="graph0" class="graph" transform="scale(1 1) rotate(0) translate(4 133)">
<title>moodycamel::ReaderWriterQueue::try_dequeue</title>
<polygon fill="white" stroke="transparent" points="-4,4 -4,-133 377,-133 377,4 -4,4"/>
<!-- Node1 -->
<g id="node1" class="node">
<title>Node1</title>
<g id="a_node1"><a xlink:title=" ">
<polygon fill="#bfbfbf" stroke="black" points="222,-49.5 222,-79.5 373,-79.5 373,-49.5 222,-49.5"/>
<text text-anchor="start" x="230" y="-67.5" font-family="Helvetica,sans-Serif" font-size="10.00">moodycamel::ReaderWriter</text>
<text text-anchor="middle" x="297.5" y="-56.5" font-family="Helvetica,sans-Serif" font-size="10.00">Queue::try_dequeue</text>
</a>
</g>
</g>
<!-- Node2 -->
<g id="node2" class="node">
<title>Node2</title>
<g id="a_node2"><a xlink:href="../../dc/d3e/classmoodycamel_1_1BlockingReaderWriterQueue.html#a991df0aff00ce8a7c341e9fdd577f9f8" target="_top" xlink:title=" ">
<polygon fill="white" stroke="black" points="11.5,-98.5 11.5,-128.5 174.5,-128.5 174.5,-98.5 11.5,-98.5"/>
<text text-anchor="start" x="19.5" y="-116.5" font-family="Helvetica,sans-Serif" font-size="10.00">moodycamel::BlockingReader</text>
<text text-anchor="middle" x="93" y="-105.5" font-family="Helvetica,sans-Serif" font-size="10.00">WriterQueue::try_dequeue</text>
</a>
</g>
</g>
<!-- Node1&#45;&gt;Node2 -->
<g id="edge1" class="edge">
<title>Node1&#45;&gt;Node2</title>
<path fill="none" stroke="midnightblue" d="M224.58,-81.9C202.17,-87.32 177.68,-93.25 156.02,-98.49"/>
<polygon fill="midnightblue" stroke="midnightblue" points="225.47,-85.29 234.37,-79.53 223.82,-78.48 225.47,-85.29"/>
</g>
<!-- Node3 -->
<g id="node3" class="node">
<title>Node3</title>
<g id="a_node3"><a xlink:href="../../dc/d3e/classmoodycamel_1_1BlockingReaderWriterQueue.html#a4616457ce44d363d52b068001c31ae36" target="_top" xlink:title=" ">
<polygon fill="white" stroke="black" points="11.5,-49.5 11.5,-79.5 174.5,-79.5 174.5,-49.5 11.5,-49.5"/>
<text text-anchor="start" x="19.5" y="-67.5" font-family="Helvetica,sans-Serif" font-size="10.00">moodycamel::BlockingReader</text>
<text text-anchor="middle" x="93" y="-56.5" font-family="Helvetica,sans-Serif" font-size="10.00">WriterQueue::wait_dequeue</text>
</a>
</g>
</g>
<!-- Node1&#45;&gt;Node3 -->
<g id="edge2" class="edge">
<title>Node1&#45;&gt;Node3</title>
<path fill="none" stroke="midnightblue" d="M211.71,-64.5C199.39,-64.5 186.74,-64.5 174.51,-64.5"/>
<polygon fill="midnightblue" stroke="midnightblue" points="211.96,-68 221.96,-64.5 211.96,-61 211.96,-68"/>
</g>
<!-- Node4 -->
<g id="node4" class="node">
<title>Node4</title>
<g id="a_node4"><a xlink:href="../../dc/d3e/classmoodycamel_1_1BlockingReaderWriterQueue.html#a9d8e2851b594285ea6b6a7a342249ead" target="_top" xlink:title=" ">
<polygon fill="white" stroke="black" points="0,-0.5 0,-30.5 186,-30.5 186,-0.5 0,-0.5"/>
<text text-anchor="start" x="8" y="-18.5" font-family="Helvetica,sans-Serif" font-size="10.00">moodycamel::BlockingReader</text>
<text text-anchor="middle" x="93" y="-7.5" font-family="Helvetica,sans-Serif" font-size="10.00">WriterQueue::wait_dequeue_timed</text>
</a>
</g>
</g>
<!-- Node1&#45;&gt;Node4 -->
<g id="edge3" class="edge">
<title>Node1&#45;&gt;Node4</title>
<path fill="none" stroke="midnightblue" d="M224.58,-47.1C202.17,-41.68 177.68,-35.75 156.02,-30.51"/>
<polygon fill="midnightblue" stroke="midnightblue" points="223.82,-50.52 234.37,-49.47 225.47,-43.71 223.82,-50.52"/>
</g>
</g>
</svg>
