<?xml version="1.0" encoding="UTF-8" standalone="no"?>
<!DOCTYPE svg PUBLIC "-//W3C//DTD SVG 1.1//EN"
 "http://www.w3.org/Graphics/SVG/1.1/DTD/svg11.dtd">
<!-- Generated by graphviz version 2.43.0 (0)
 -->
<!-- Title: moodycamel::ReaderWriterQueue::size_approx Pages: 1 -->
<svg width="347pt" height="78pt"
 viewBox="0.00 0.00 347.00 77.50" xmlns="http://www.w3.org/2000/svg" xmlns:xlink="http://www.w3.org/1999/xlink">
<g id="graph0" class="graph" transform="scale(1 1) rotate(0) translate(4 73.5)">
<title>moodycamel::ReaderWriterQueue::size_approx</title>
<polygon fill="white" stroke="transparent" points="-4,4 -4,-73.5 343,-73.5 343,4 -4,4"/>
<!-- Node1 -->
<g id="node1" class="node">
<title>Node1</title>
<g id="a_node1"><a xlink:title=" ">
<polygon fill="#bfbfbf" stroke="black" points="0,-22.5 0,-52.5 151,-52.5 151,-22.5 0,-22.5"/>
<text text-anchor="start" x="8" y="-40.5" font-family="Helvetica,sans-Serif" font-size="10.00">moodycamel::ReaderWriter</text>
<text text-anchor="middle" x="75.5" y="-29.5" font-family="Helvetica,sans-Serif" font-size="10.00">Queue::size_approx</text>
</a>
</g>
</g>
<!-- Node2 -->
<g id="node2" class="node">
<title>Node2</title>
<g id="a_node2"><a xlink:href="../../db/dc8/namespacemoodycamel.html#a959b29a846ef87a90719aabacd25d4d1" target="_top" xlink:title=" ">
<polygon fill="white" stroke="black" points="206.5,-50 206.5,-69 319.5,-69 319.5,-50 206.5,-50"/>
<text text-anchor="middle" x="263" y="-57" font-family="Helvetica,sans-Serif" font-size="10.00">moodycamel::fence</text>
</a>
</g>
</g>
<!-- Node1&#45;&gt;Node2 -->
<g id="edge1" class="edge">
<title>Node1&#45;&gt;Node2</title>
<path fill="none" stroke="midnightblue" d="M151.15,-46.35C166.12,-48.13 181.74,-49.98 196.38,-51.72"/>
<polygon fill="midnightblue" stroke="midnightblue" points="195.99,-55.2 206.33,-52.9 196.81,-48.24 195.99,-55.2"/>
</g>
<!-- Node3 -->
<g id="node3" class="node">
<title>Node3</title>
<g id="a_node3"><a xlink:href="../../dc/d66/classmoodycamel_1_1weak__atomic.html#a50e62633b557a82c043b2f59d7ac4c68" target="_top" xlink:title=" ">
<polygon fill="white" stroke="black" points="187,-0.5 187,-30.5 339,-30.5 339,-0.5 187,-0.5"/>
<text text-anchor="start" x="195" y="-18.5" font-family="Helvetica,sans-Serif" font-size="10.00">moodycamel::weak_atomic</text>
<text text-anchor="middle" x="263" y="-7.5" font-family="Helvetica,sans-Serif" font-size="10.00">::load</text>
</a>
</g>
</g>
<!-- Node1&#45;&gt;Node3 -->
<g id="edge2" class="edge">
<title>Node1&#45;&gt;Node3</title>
<path fill="none" stroke="midnightblue" d="M151.15,-28.65C159.61,-27.64 168.29,-26.61 176.88,-25.6"/>
<polygon fill="midnightblue" stroke="midnightblue" points="177.38,-29.06 186.9,-24.41 176.56,-22.11 177.38,-29.06"/>
</g>
</g>
</svg>
