<?xml version="1.0" encoding="UTF-8" standalone="no"?>
<!DOCTYPE svg PUBLIC "-//W3C//DTD SVG 1.1//EN"
 "http://www.w3.org/Graphics/SVG/1.1/DTD/svg11.dtd">
<!-- Generated by graphviz version 2.43.0 (0)
 -->
<!-- Title: /home/nico/projects/tmp&#45;joda&#45;dirs/JODA&#45;gh/libs/joda/core/modules/join/include/joda/join/FileJoinManager.h Pages: 1 -->
<svg width="700pt" height="250pt"
 viewBox="0.00 0.00 699.50 250.00" xmlns="http://www.w3.org/2000/svg" xmlns:xlink="http://www.w3.org/1999/xlink">
<g id="graph0" class="graph" transform="scale(1 1) rotate(0) translate(4 246)">
<title>/home/nico/projects/tmp&#45;joda&#45;dirs/JODA&#45;gh/libs/joda/core/modules/join/include/joda/join/FileJoinManager.h</title>
<polygon fill="white" stroke="transparent" points="-4,4 -4,-246 695.5,-246 695.5,4 -4,4"/>
<!-- Node1 -->
<g id="node1" class="node">
<title>Node1</title>
<g id="a_node1"><a xlink:title=" ">
<polygon fill="#bfbfbf" stroke="black" points="230.5,-178.5 230.5,-241.5 389.5,-241.5 389.5,-178.5 230.5,-178.5"/>
<text text-anchor="start" x="238.5" y="-229.5" font-family="Helvetica,sans-Serif" font-size="10.00">/home/nico/projects</text>
<text text-anchor="start" x="238.5" y="-218.5" font-family="Helvetica,sans-Serif" font-size="10.00">/tmp&#45;joda&#45;dirs/JODA</text>
<text text-anchor="start" x="238.5" y="-207.5" font-family="Helvetica,sans-Serif" font-size="10.00">&#45;gh/libs/joda/core/modules</text>
<text text-anchor="start" x="238.5" y="-196.5" font-family="Helvetica,sans-Serif" font-size="10.00">/join/include/joda/join/FileJoin</text>
<text text-anchor="middle" x="310" y="-185.5" font-family="Helvetica,sans-Serif" font-size="10.00">Manager.h</text>
</a>
</g>
</g>
<!-- Node2 -->
<g id="node2" class="node">
<title>Node2</title>
<g id="a_node2"><a xlink:href="../../d7/da2/JoinParser_8h.html" target="_top" xlink:title=" ">
<polygon fill="white" stroke="black" points="49,-89.5 49,-141.5 229,-141.5 229,-89.5 49,-89.5"/>
<text text-anchor="start" x="57" y="-129.5" font-family="Helvetica,sans-Serif" font-size="10.00">/home/nico/projects</text>
<text text-anchor="start" x="57" y="-118.5" font-family="Helvetica,sans-Serif" font-size="10.00">/tmp&#45;joda&#45;dirs/JODA</text>
<text text-anchor="start" x="57" y="-107.5" font-family="Helvetica,sans-Serif" font-size="10.00">&#45;gh/libs/joda/core/modules</text>
<text text-anchor="middle" x="139" y="-96.5" font-family="Helvetica,sans-Serif" font-size="10.00">/join/include/joda/join/JoinParser.h</text>
</a>
</g>
</g>
<!-- Node1&#45;&gt;Node2 -->
<g id="edge1" class="edge">
<title>Node1&#45;&gt;Node2</title>
<path fill="none" stroke="midnightblue" d="M244.6,-173.62C224.88,-162.95 203.65,-151.47 185.43,-141.62"/>
<polygon fill="midnightblue" stroke="midnightblue" points="243.07,-176.78 253.53,-178.46 246.4,-170.62 243.07,-176.78"/>
</g>
<!-- Node4 -->
<g id="node4" class="node">
<title>Node4</title>
<g id="a_node4"><a xlink:href="../../d2/d7a/QueryPlan_8cpp.html" target="_top" xlink:title=" ">
<polygon fill="white" stroke="black" points="164.5,-0.5 164.5,-52.5 349.5,-52.5 349.5,-0.5 164.5,-0.5"/>
<text text-anchor="start" x="172.5" y="-40.5" font-family="Helvetica,sans-Serif" font-size="10.00">/home/nico/projects</text>
<text text-anchor="start" x="172.5" y="-29.5" font-family="Helvetica,sans-Serif" font-size="10.00">/tmp&#45;joda&#45;dirs/JODA</text>
<text text-anchor="start" x="172.5" y="-18.5" font-family="Helvetica,sans-Serif" font-size="10.00">&#45;gh/libs/joda/core/modules</text>
<text text-anchor="middle" x="257" y="-7.5" font-family="Helvetica,sans-Serif" font-size="10.00">/queryexecution/src/QueryPlan.cpp</text>
</a>
</g>
</g>
<!-- Node1&#45;&gt;Node4 -->
<g id="edge5" class="edge">
<title>Node1&#45;&gt;Node4</title>
<path fill="none" stroke="midnightblue" d="M288.09,-169.19C283.93,-160.43 279.95,-151.05 277,-142 267.24,-112.07 261.95,-76.1 259.3,-52.56"/>
<polygon fill="midnightblue" stroke="midnightblue" points="285.08,-171 292.65,-178.42 291.36,-167.9 285.08,-171"/>
</g>
<!-- Node5 -->
<g id="node5" class="node">
<title>Node5</title>
<g id="a_node5"><a xlink:href="../../de/d52/FileJoinManager_8cpp.html" target="_top" xlink:title=" ">
<polygon fill="white" stroke="black" points="285.5,-89.5 285.5,-141.5 440.5,-141.5 440.5,-89.5 285.5,-89.5"/>
<text text-anchor="start" x="293.5" y="-129.5" font-family="Helvetica,sans-Serif" font-size="10.00">/home/nico/projects</text>
<text text-anchor="start" x="293.5" y="-118.5" font-family="Helvetica,sans-Serif" font-size="10.00">/tmp&#45;joda&#45;dirs/JODA</text>
<text text-anchor="start" x="293.5" y="-107.5" font-family="Helvetica,sans-Serif" font-size="10.00">&#45;gh/libs/joda/core/modules</text>
<text text-anchor="middle" x="363" y="-96.5" font-family="Helvetica,sans-Serif" font-size="10.00">/join/src/FileJoinManager.cpp</text>
</a>
</g>
</g>
<!-- Node1&#45;&gt;Node5 -->
<g id="edge4" class="edge">
<title>Node1&#45;&gt;Node5</title>
<path fill="none" stroke="midnightblue" d="M332.58,-169.59C337.98,-160.17 343.6,-150.35 348.52,-141.77"/>
<polygon fill="midnightblue" stroke="midnightblue" points="329.44,-168.04 327.5,-178.46 335.51,-171.52 329.44,-168.04"/>
</g>
<!-- Node6 -->
<g id="node6" class="node">
<title>Node6</title>
<g id="a_node6"><a xlink:href="../../dd/d24/StorageCollection_8cpp.html" target="_top" xlink:title=" ">
<polygon fill="white" stroke="black" points="458.5,-89.5 458.5,-141.5 691.5,-141.5 691.5,-89.5 458.5,-89.5"/>
<text text-anchor="start" x="466.5" y="-129.5" font-family="Helvetica,sans-Serif" font-size="10.00">/home/nico/projects</text>
<text text-anchor="start" x="466.5" y="-118.5" font-family="Helvetica,sans-Serif" font-size="10.00">/tmp&#45;joda&#45;dirs/JODA</text>
<text text-anchor="start" x="466.5" y="-107.5" font-family="Helvetica,sans-Serif" font-size="10.00">&#45;gh/libs/joda/core/modules</text>
<text text-anchor="middle" x="575" y="-96.5" font-family="Helvetica,sans-Serif" font-size="10.00">/storage/collection/src/StorageCollection.cpp</text>
</a>
</g>
</g>
<!-- Node1&#45;&gt;Node6 -->
<g id="edge6" class="edge">
<title>Node1&#45;&gt;Node6</title>
<path fill="none" stroke="midnightblue" d="M398.95,-177.95C432.88,-166.11 471.09,-152.77 503.22,-141.56"/>
<polygon fill="midnightblue" stroke="midnightblue" points="397.8,-174.65 389.51,-181.25 400.1,-181.26 397.8,-174.65"/>
</g>
<!-- Node3 -->
<g id="node3" class="node">
<title>Node3</title>
<g id="a_node3"><a xlink:href="../../d7/d2c/JoinParser_8cpp.html" target="_top" xlink:title=" ">
<polygon fill="white" stroke="black" points="0,-0.5 0,-52.5 146,-52.5 146,-0.5 0,-0.5"/>
<text text-anchor="start" x="8" y="-40.5" font-family="Helvetica,sans-Serif" font-size="10.00">/home/nico/projects</text>
<text text-anchor="start" x="8" y="-29.5" font-family="Helvetica,sans-Serif" font-size="10.00">/tmp&#45;joda&#45;dirs/JODA</text>
<text text-anchor="start" x="8" y="-18.5" font-family="Helvetica,sans-Serif" font-size="10.00">&#45;gh/libs/joda/core/modules</text>
<text text-anchor="middle" x="73" y="-7.5" font-family="Helvetica,sans-Serif" font-size="10.00">/join/src/JoinParser.cpp</text>
</a>
</g>
</g>
<!-- Node2&#45;&gt;Node3 -->
<g id="edge2" class="edge">
<title>Node2&#45;&gt;Node3</title>
<path fill="none" stroke="midnightblue" d="M113.75,-81.22C106.54,-71.72 98.82,-61.53 92.05,-52.61"/>
<polygon fill="midnightblue" stroke="midnightblue" points="111.08,-83.48 119.91,-89.34 116.65,-79.25 111.08,-83.48"/>
</g>
<!-- Node2&#45;&gt;Node4 -->
<g id="edge3" class="edge">
<title>Node2&#45;&gt;Node4</title>
<path fill="none" stroke="midnightblue" d="M181.43,-83.22C195.07,-73.16 209.99,-62.16 222.95,-52.61"/>
<polygon fill="midnightblue" stroke="midnightblue" points="179.1,-80.58 173.13,-89.34 183.26,-86.22 179.1,-80.58"/>
</g>
</g>
</svg>
