<?xml version="1.0" encoding="UTF-8" standalone="no"?>
<!DOCTYPE svg PUBLIC "-//W3C//DTD SVG 1.1//EN"
 "http://www.w3.org/Graphics/SVG/1.1/DTD/svg11.dtd">
<!-- Generated by graphviz version 2.43.0 (0)
 -->
<!-- Title: /home/nico/projects/JODA&#45;gh/libs/joda/core/modules/query/project/src/DeletePointerProjector.cpp Pages: 1 -->
<svg width="1394pt" height="609pt"
 viewBox="0.00 0.00 1393.52 609.00" xmlns="http://www.w3.org/2000/svg" xmlns:xlink="http://www.w3.org/1999/xlink">
<g id="graph0" class="graph" transform="scale(1 1) rotate(0) translate(4 605)">
<title>/home/nico/projects/JODA&#45;gh/libs/joda/core/modules/query/project/src/DeletePointerProjector.cpp</title>
<polygon fill="white" stroke="transparent" points="-4,4 -4,-605 1389.52,-605 1389.52,4 -4,4"/>
<!-- Node1 -->
<g id="node1" class="node">
<title>Node1</title>
<g id="a_node1"><a xlink:title=" ">
<polygon fill="#bfbfbf" stroke="black" points="1103.52,-548.5 1103.52,-600.5 1270.52,-600.5 1270.52,-548.5 1103.52,-548.5"/>
<text text-anchor="start" x="1111.52" y="-588.5" font-family="Helvetica,sans-Serif" font-size="10.00">/home/nico/projects</text>
<text text-anchor="start" x="1111.52" y="-577.5" font-family="Helvetica,sans-Serif" font-size="10.00">/JODA&#45;gh/libs/joda/core</text>
<text text-anchor="start" x="1111.52" y="-566.5" font-family="Helvetica,sans-Serif" font-size="10.00">/modules/query/project</text>
<text text-anchor="middle" x="1187.02" y="-555.5" font-family="Helvetica,sans-Serif" font-size="10.00">/src/DeletePointerProjector.cpp</text>
</a>
</g>
</g>
<!-- Node2 -->
<g id="node2" class="node">
<title>Node2</title>
<g id="a_node2"><a xlink:href="../../d5/d1a/DeletePointerProjector_8h.html" target="_top" xlink:title=" ">
<polygon fill="white" stroke="black" points="1118.02,-481.5 1118.02,-511.5 1256.02,-511.5 1256.02,-481.5 1118.02,-481.5"/>
<text text-anchor="start" x="1126.02" y="-499.5" font-family="Helvetica,sans-Serif" font-size="10.00">joda/query/project</text>
<text text-anchor="middle" x="1187.02" y="-488.5" font-family="Helvetica,sans-Serif" font-size="10.00">/DeletePointerProjector.h</text>
</a>
</g>
</g>
<!-- Node1&#45;&gt;Node2 -->
<g id="edge1" class="edge">
<title>Node1&#45;&gt;Node2</title>
<path fill="none" stroke="midnightblue" d="M1187.02,-548.19C1187.02,-539.79 1187.02,-530.44 1187.02,-522.09"/>
<polygon fill="midnightblue" stroke="midnightblue" points="1190.52,-521.85 1187.02,-511.85 1183.52,-521.85 1190.52,-521.85"/>
</g>
<!-- Node3 -->
<g id="node3" class="node">
<title>Node3</title>
<g id="a_node3"><a xlink:href="../../d6/d2b/IProjector_8h.html" target="_top" xlink:title=" ">
<polygon fill="white" stroke="black" points="1151.52,-425.5 1151.52,-444.5 1222.52,-444.5 1222.52,-425.5 1151.52,-425.5"/>
<text text-anchor="middle" x="1187.02" y="-432.5" font-family="Helvetica,sans-Serif" font-size="10.00">IProjector.h</text>
</a>
</g>
</g>
<!-- Node2&#45;&gt;Node3 -->
<g id="edge2" class="edge">
<title>Node2&#45;&gt;Node3</title>
<path fill="none" stroke="midnightblue" d="M1187.02,-481.4C1187.02,-473.47 1187.02,-463.46 1187.02,-454.86"/>
<polygon fill="midnightblue" stroke="midnightblue" points="1190.52,-454.66 1187.02,-444.66 1183.52,-454.66 1190.52,-454.66"/>
</g>
<!-- Node4 -->
<g id="node4" class="node">
<title>Node4</title>
<g id="a_node4"><a xlink:href="../../d1/dfd/RapidJsonDocument_8h.html" target="_top" xlink:title=" ">
<polygon fill="white" stroke="black" points="935.02,-369.5 935.02,-388.5 1135.02,-388.5 1135.02,-369.5 935.02,-369.5"/>
<text text-anchor="middle" x="1035.02" y="-376.5" font-family="Helvetica,sans-Serif" font-size="10.00">joda/document/RapidJsonDocument.h</text>
</a>
</g>
</g>
<!-- Node3&#45;&gt;Node4 -->
<g id="edge3" class="edge">
<title>Node3&#45;&gt;Node4</title>
<path fill="none" stroke="midnightblue" d="M1162.93,-425.44C1137.47,-416.4 1097.12,-402.06 1068.56,-391.92"/>
<polygon fill="midnightblue" stroke="midnightblue" points="1069.58,-388.57 1058.99,-388.52 1067.24,-395.16 1069.58,-388.57"/>
</g>
<!-- Node15 -->
<g id="node15" class="node">
<title>Node15</title>
<g id="a_node15"><a xlink:title=" ">
<polygon fill="white" stroke="#bfbfbf" points="1278.52,-0.5 1278.52,-19.5 1385.52,-19.5 1385.52,-0.5 1278.52,-0.5"/>
<text text-anchor="middle" x="1332.02" y="-7.5" font-family="Helvetica,sans-Serif" font-size="10.00">rapidjson/pointer.h</text>
</a>
</g>
</g>
<!-- Node3&#45;&gt;Node15 -->
<g id="edge57" class="edge">
<title>Node3&#45;&gt;Node15</title>
<path fill="none" stroke="midnightblue" d="M1218.88,-425.4C1263.45,-411.21 1339.02,-378.32 1339.02,-318.5 1339.02,-318.5 1339.02,-318.5 1339.02,-121 1339.02,-88.88 1336.01,-51.6 1333.94,-29.73"/>
<polygon fill="midnightblue" stroke="midnightblue" points="1337.4,-29.15 1332.93,-19.55 1330.43,-29.84 1337.4,-29.15"/>
</g>
<!-- Node5 -->
<g id="node5" class="node">
<title>Node5</title>
<g id="a_node5"><a xlink:href="../../d2/d0d/ViewLayer_8h.html" target="_top" xlink:title=" ">
<polygon fill="white" stroke="black" points="405.02,-302.5 405.02,-332.5 521.02,-332.5 521.02,-302.5 405.02,-302.5"/>
<text text-anchor="start" x="413.02" y="-320.5" font-family="Helvetica,sans-Serif" font-size="10.00">joda/document/view</text>
<text text-anchor="middle" x="463.02" y="-309.5" font-family="Helvetica,sans-Serif" font-size="10.00">/ViewLayer.h</text>
</a>
</g>
</g>
<!-- Node4&#45;&gt;Node5 -->
<g id="edge4" class="edge">
<title>Node4&#45;&gt;Node5</title>
<path fill="none" stroke="midnightblue" d="M953.06,-369.48C839.76,-357.69 637.3,-336.63 531.57,-325.63"/>
<polygon fill="midnightblue" stroke="midnightblue" points="531.65,-322.12 521.34,-324.57 530.92,-329.08 531.65,-322.12"/>
</g>
<!-- Node10 -->
<g id="node10" class="node">
<title>Node10</title>
<g id="a_node10"><a xlink:href="../../d6/d09/RJFwd_8h.html" target="_top" xlink:title=" ">
<polygon fill="white" stroke="black" points="782.02,-56.5 782.02,-75.5 888.02,-75.5 888.02,-56.5 782.02,-56.5"/>
<text text-anchor="middle" x="835.02" y="-63.5" font-family="Helvetica,sans-Serif" font-size="10.00">joda/misc/RJFwd.h</text>
</a>
</g>
</g>
<!-- Node4&#45;&gt;Node10 -->
<g id="edge56" class="edge">
<title>Node4&#45;&gt;Node10</title>
<path fill="none" stroke="midnightblue" d="M1027.76,-369.24C1020.48,-360.33 1009.07,-346 1000.02,-333 936.94,-242.38 870.05,-128.05 845.14,-84.73"/>
<polygon fill="midnightblue" stroke="midnightblue" points="848.11,-82.88 840.1,-75.94 842.04,-86.36 848.11,-82.88"/>
</g>
<!-- Node11 -->
<g id="node11" class="node">
<title>Node11</title>
<g id="a_node11"><a xlink:title=" ">
<polygon fill="white" stroke="#bfbfbf" points="948.02,-0.5 948.02,-19.5 1070.02,-19.5 1070.02,-0.5 948.02,-0.5"/>
<text text-anchor="middle" x="1009.02" y="-7.5" font-family="Helvetica,sans-Serif" font-size="10.00">rapidjson/allocators.h</text>
</a>
</g>
</g>
<!-- Node4&#45;&gt;Node11 -->
<g id="edge41" class="edge">
<title>Node4&#45;&gt;Node11</title>
<path fill="none" stroke="midnightblue" d="M1067.4,-369.4C1114.15,-354.8 1195.02,-320.38 1195.02,-257 1195.02,-257 1195.02,-257 1195.02,-121 1195.02,-62.99 1127.16,-34.93 1073.42,-21.8"/>
<polygon fill="midnightblue" stroke="midnightblue" points="1074.1,-18.36 1063.57,-19.52 1072.52,-25.18 1074.1,-18.36"/>
</g>
<!-- Node13 -->
<g id="node13" class="node">
<title>Node13</title>
<g id="a_node13"><a xlink:title=" ">
<polygon fill="white" stroke="#bfbfbf" points="1142.52,-0.5 1142.52,-19.5 1233.52,-19.5 1233.52,-0.5 1142.52,-0.5"/>
<text text-anchor="middle" x="1188.02" y="-7.5" font-family="Helvetica,sans-Serif" font-size="10.00">rapidjson/fwd.h</text>
</a>
</g>
</g>
<!-- Node4&#45;&gt;Node13 -->
<g id="edge42" class="edge">
<title>Node4&#45;&gt;Node13</title>
<path fill="none" stroke="midnightblue" d="M1086.78,-369.45C1145.45,-356.46 1233.02,-325.59 1233.02,-257 1233.02,-257 1233.02,-257 1233.02,-121 1233.02,-85.93 1213.18,-48.94 1199.85,-28.04"/>
<polygon fill="midnightblue" stroke="midnightblue" points="1202.72,-26.03 1194.28,-19.63 1196.88,-29.9 1202.72,-26.03"/>
</g>
<!-- Node25 -->
<g id="node25" class="node">
<title>Node25</title>
<g id="a_node25"><a xlink:title=" ">
<polygon fill="white" stroke="#bfbfbf" points="901.02,-112.5 901.02,-131.5 959.02,-131.5 959.02,-112.5 901.02,-112.5"/>
<text text-anchor="middle" x="930.02" y="-119.5" font-family="Helvetica,sans-Serif" font-size="10.00">memory</text>
</a>
</g>
</g>
<!-- Node4&#45;&gt;Node25 -->
<g id="edge44" class="edge">
<title>Node4&#45;&gt;Node25</title>
<path fill="none" stroke="midnightblue" d="M1031.4,-369.22C1016.32,-332.59 958.22,-191.5 937.45,-141.06"/>
<polygon fill="midnightblue" stroke="midnightblue" points="940.66,-139.65 933.62,-131.74 934.19,-142.32 940.66,-139.65"/>
</g>
<!-- Node28 -->
<g id="node28" class="node">
<title>Node28</title>
<g id="a_node28"><a xlink:title=" ">
<polygon fill="white" stroke="#bfbfbf" points="1261.02,-308 1261.02,-327 1311.02,-327 1311.02,-308 1261.02,-308"/>
<text text-anchor="middle" x="1286.02" y="-315" font-family="Helvetica,sans-Serif" font-size="10.00">atomic</text>
</a>
</g>
</g>
<!-- Node4&#45;&gt;Node28 -->
<g id="edge43" class="edge">
<title>Node4&#45;&gt;Node28</title>
<path fill="none" stroke="midnightblue" d="M1085.22,-369.49C1128.5,-361.65 1192.46,-348.84 1247.02,-333 1249.66,-332.23 1252.38,-331.37 1255.09,-330.47"/>
<polygon fill="midnightblue" stroke="midnightblue" points="1256.49,-333.68 1264.75,-327.05 1254.16,-327.08 1256.49,-333.68"/>
</g>
<!-- Node29 -->
<g id="node29" class="node">
<title>Node29</title>
<g id="a_node29"><a xlink:href="../../df/d13/FileNameRepo_8h.html" target="_top" xlink:title=" ">
<polygon fill="white" stroke="black" points="360.52,-168.5 360.52,-209.5 515.52,-209.5 515.52,-168.5 360.52,-168.5"/>
<text text-anchor="start" x="368.52" y="-197.5" font-family="Helvetica,sans-Serif" font-size="10.00">../../../../../misc</text>
<text text-anchor="start" x="368.52" y="-186.5" font-family="Helvetica,sans-Serif" font-size="10.00">/include/joda/misc/FileName</text>
<text text-anchor="middle" x="438.02" y="-175.5" font-family="Helvetica,sans-Serif" font-size="10.00">Repo.h</text>
</a>
</g>
</g>
<!-- Node4&#45;&gt;Node29 -->
<g id="edge45" class="edge">
<title>Node4&#45;&gt;Node29</title>
<path fill="none" stroke="midnightblue" d="M934.81,-377.41C765.16,-375.47 435.85,-367.27 396.02,-333 366.27,-307.41 365.84,-282.18 381.02,-246 385.67,-234.92 393.69,-224.92 402.28,-216.55"/>
<polygon fill="midnightblue" stroke="midnightblue" points="404.86,-218.94 409.91,-209.62 400.15,-213.76 404.86,-218.94"/>
</g>
<!-- Node31 -->
<g id="node31" class="node">
<title>Node31</title>
<g id="a_node31"><a xlink:href="../../d5/d6c/IOrigin_8h.html" target="_top" xlink:title=" ">
<polygon fill="white" stroke="black" points="1006.02,-179.5 1006.02,-198.5 1064.02,-198.5 1064.02,-179.5 1006.02,-179.5"/>
<text text-anchor="middle" x="1035.02" y="-186.5" font-family="Helvetica,sans-Serif" font-size="10.00">IOrigin.h</text>
</a>
</g>
</g>
<!-- Node4&#45;&gt;Node31 -->
<g id="edge51" class="edge">
<title>Node4&#45;&gt;Node31</title>
<path fill="none" stroke="midnightblue" d="M1035.02,-369.43C1035.02,-340.93 1035.02,-248.82 1035.02,-208.83"/>
<polygon fill="midnightblue" stroke="midnightblue" points="1038.52,-208.62 1035.02,-198.62 1031.52,-208.62 1038.52,-208.62"/>
</g>
<!-- Node6 -->
<g id="node6" class="node">
<title>Node6</title>
<g id="a_node6"><a xlink:title=" ">
<polygon fill="white" stroke="#bfbfbf" points="322.02,-0.5 322.02,-19.5 408.02,-19.5 408.02,-0.5 322.02,-0.5"/>
<text text-anchor="middle" x="365.02" y="-7.5" font-family="Helvetica,sans-Serif" font-size="10.00">glog/logging.h</text>
</a>
</g>
</g>
<!-- Node5&#45;&gt;Node6 -->
<g id="edge5" class="edge">
<title>Node5&#45;&gt;Node6</title>
<path fill="none" stroke="midnightblue" d="M404.99,-317.07C300.26,-316.94 85.23,-311.02 28.02,-266 -0.27,-243.74 0.02,-226 0.02,-190 0.02,-190 0.02,-190 0.02,-121 0.02,-56.69 210.34,-26.63 311.67,-15.88"/>
<polygon fill="midnightblue" stroke="midnightblue" points="312.13,-19.35 321.71,-14.84 311.41,-12.39 312.13,-19.35"/>
</g>
<!-- Node7 -->
<g id="node7" class="node">
<title>Node7</title>
<g id="a_node7"><a xlink:href="../../db/d16/config_8h.html" target="_top" xlink:title=" ">
<polygon fill="white" stroke="black" points="37.52,-246.5 37.52,-265.5 148.52,-265.5 148.52,-246.5 37.52,-246.5"/>
<text text-anchor="middle" x="93.02" y="-253.5" font-family="Helvetica,sans-Serif" font-size="10.00">joda/config/config.h</text>
</a>
</g>
</g>
<!-- Node5&#45;&gt;Node7 -->
<g id="edge6" class="edge">
<title>Node5&#45;&gt;Node7</title>
<path fill="none" stroke="midnightblue" d="M404.8,-307.14C337.1,-296.25 225.77,-278.35 156.07,-267.14"/>
<polygon fill="midnightblue" stroke="midnightblue" points="156.53,-263.67 146.1,-265.54 155.42,-270.58 156.53,-263.67"/>
</g>
<!-- Node5&#45;&gt;Node10 -->
<g id="edge9" class="edge">
<title>Node5&#45;&gt;Node10</title>
<path fill="none" stroke="midnightblue" d="M521.17,-314.9C609.38,-311.38 771.55,-300.3 817.02,-266 872.32,-224.28 852.3,-126.56 840.82,-85.59"/>
<polygon fill="midnightblue" stroke="midnightblue" points="844.12,-84.44 837.94,-75.84 837.41,-86.42 844.12,-84.44"/>
</g>
<!-- Node16 -->
<g id="node16" class="node">
<title>Node16</title>
<g id="a_node16"><a xlink:title=" ">
<polygon fill="white" stroke="#bfbfbf" points="398.52,-246.5 398.52,-265.5 527.52,-265.5 527.52,-246.5 398.52,-246.5"/>
<text text-anchor="middle" x="463.02" y="-253.5" font-family="Helvetica,sans-Serif" font-size="10.00">rapidjson/stringbuffer.h</text>
</a>
</g>
</g>
<!-- Node5&#45;&gt;Node16 -->
<g id="edge16" class="edge">
<title>Node5&#45;&gt;Node16</title>
<path fill="none" stroke="midnightblue" d="M463.02,-302.4C463.02,-294.47 463.02,-284.46 463.02,-275.86"/>
<polygon fill="midnightblue" stroke="midnightblue" points="466.52,-275.66 463.02,-265.66 459.52,-275.66 466.52,-275.66"/>
</g>
<!-- Node17 -->
<g id="node17" class="node">
<title>Node17</title>
<g id="a_node17"><a xlink:title=" ">
<polygon fill="white" stroke="#bfbfbf" points="546.02,-246.5 546.02,-265.5 610.02,-265.5 610.02,-246.5 546.02,-246.5"/>
<text text-anchor="middle" x="578.02" y="-253.5" font-family="Helvetica,sans-Serif" font-size="10.00">algorithm</text>
</a>
</g>
</g>
<!-- Node5&#45;&gt;Node17 -->
<g id="edge17" class="edge">
<title>Node5&#45;&gt;Node17</title>
<path fill="none" stroke="midnightblue" d="M490.27,-302.4C509.05,-292.68 533.84,-279.86 552.29,-270.31"/>
<polygon fill="midnightblue" stroke="midnightblue" points="554.01,-273.36 561.28,-265.66 550.79,-267.14 554.01,-273.36"/>
</g>
<!-- Node18 -->
<g id="node18" class="node">
<title>Node18</title>
<g id="a_node18"><a xlink:title=" ">
<polygon fill="white" stroke="#bfbfbf" points="617.02,-112.5 617.02,-131.5 665.02,-131.5 665.02,-112.5 617.02,-112.5"/>
<text text-anchor="middle" x="641.02" y="-119.5" font-family="Helvetica,sans-Serif" font-size="10.00">mutex</text>
</a>
</g>
</g>
<!-- Node5&#45;&gt;Node18 -->
<g id="edge18" class="edge">
<title>Node5&#45;&gt;Node18</title>
<path fill="none" stroke="midnightblue" d="M430.38,-302.48C403.85,-289.07 373.33,-267.73 390.02,-246 427.85,-196.76 469.16,-237.12 525.02,-210 564.2,-190.97 603.41,-157.92 624.71,-138.5"/>
<polygon fill="midnightblue" stroke="midnightblue" points="627.25,-140.91 632.2,-131.55 622.49,-135.78 627.25,-140.91"/>
</g>
<!-- Node19 -->
<g id="node19" class="node">
<title>Node19</title>
<g id="a_node19"><a xlink:title=" ">
<polygon fill="white" stroke="#bfbfbf" points="363.52,-56.5 363.52,-75.5 456.52,-75.5 456.52,-56.5 363.52,-56.5"/>
<text text-anchor="middle" x="410.02" y="-63.5" font-family="Helvetica,sans-Serif" font-size="10.00">unordered_map</text>
</a>
</g>
</g>
<!-- Node5&#45;&gt;Node19 -->
<g id="edge19" class="edge">
<title>Node5&#45;&gt;Node19</title>
<path fill="none" stroke="midnightblue" d="M404.78,-306.17C381.02,-298.93 355.54,-286.68 340.02,-266 298.76,-211.04 314.17,-168 354.02,-112 362.69,-99.81 375.53,-89.17 386.73,-81.29"/>
<polygon fill="midnightblue" stroke="midnightblue" points="388.88,-84.07 395.24,-75.6 384.98,-78.25 388.88,-84.07"/>
</g>
<!-- Node20 -->
<g id="node20" class="node">
<title>Node20</title>
<g id="a_node20"><a xlink:title=" ">
<polygon fill="white" stroke="#bfbfbf" points="628.52,-246.5 628.52,-265.5 679.52,-265.5 679.52,-246.5 628.52,-246.5"/>
<text text-anchor="middle" x="654.02" y="-253.5" font-family="Helvetica,sans-Serif" font-size="10.00">variant</text>
</a>
</g>
</g>
<!-- Node5&#45;&gt;Node20 -->
<g id="edge20" class="edge">
<title>Node5&#45;&gt;Node20</title>
<path fill="none" stroke="midnightblue" d="M508.28,-302.4C542.13,-291.86 587.74,-277.65 618.86,-267.95"/>
<polygon fill="midnightblue" stroke="midnightblue" points="619.92,-271.29 628.43,-264.97 617.84,-264.6 619.92,-271.29"/>
</g>
<!-- Node21 -->
<g id="node21" class="node">
<title>Node21</title>
<g id="a_node21"><a xlink:href="../../da/d3b/ObjectIterator_8h.html" target="_top" xlink:title=" ">
<polygon fill="white" stroke="black" points="698.02,-246.5 698.02,-265.5 790.02,-265.5 790.02,-246.5 698.02,-246.5"/>
<text text-anchor="middle" x="744.02" y="-253.5" font-family="Helvetica,sans-Serif" font-size="10.00">ObjectIterator.h</text>
</a>
</g>
</g>
<!-- Node5&#45;&gt;Node21 -->
<g id="edge21" class="edge">
<title>Node5&#45;&gt;Node21</title>
<path fill="none" stroke="midnightblue" d="M521.24,-304.17C572.12,-293.4 645.22,-277.92 693.63,-267.67"/>
<polygon fill="midnightblue" stroke="midnightblue" points="694.51,-271.06 703.57,-265.56 693.06,-264.21 694.51,-271.06"/>
</g>
<!-- Node24 -->
<g id="node24" class="node">
<title>Node24</title>
<g id="a_node24"><a xlink:href="../../d5/de2/ViewCursor_8h.html" target="_top" xlink:title=" ">
<polygon fill="white" stroke="black" points="753.02,-179.5 753.02,-198.5 833.02,-198.5 833.02,-179.5 753.02,-179.5"/>
<text text-anchor="middle" x="793.02" y="-186.5" font-family="Helvetica,sans-Serif" font-size="10.00">ViewCursor.h</text>
</a>
</g>
</g>
<!-- Node5&#45;&gt;Node24 -->
<g id="edge34" class="edge">
<title>Node5&#45;&gt;Node24</title>
<path fill="none" stroke="midnightblue" d="M521.16,-316.5C607.67,-315.11 763.85,-306.85 799.02,-266 812.61,-250.22 807.22,-225.13 801.06,-208.13"/>
<polygon fill="midnightblue" stroke="midnightblue" points="804.26,-206.72 797.28,-198.75 797.77,-209.33 804.26,-206.72"/>
</g>
<!-- Node26 -->
<g id="node26" class="node">
<title>Node26</title>
<g id="a_node26"><a xlink:href="../../d0/d10/ViewStructure_8h.html" target="_top" xlink:title=" ">
<polygon fill="white" stroke="black" points="363.02,-112.5 363.02,-131.5 457.02,-131.5 457.02,-112.5 363.02,-112.5"/>
<text text-anchor="middle" x="410.02" y="-119.5" font-family="Helvetica,sans-Serif" font-size="10.00">ViewStructure.h</text>
</a>
</g>
</g>
<!-- Node5&#45;&gt;Node26 -->
<g id="edge35" class="edge">
<title>Node5&#45;&gt;Node26</title>
<path fill="none" stroke="midnightblue" d="M406.3,-302.43C387.25,-294.81 367.86,-283.29 356.02,-266 331.38,-230.04 332.84,-207.15 352.02,-168 358.54,-154.68 371.11,-144.18 382.89,-136.68"/>
<polygon fill="midnightblue" stroke="midnightblue" points="384.79,-139.62 391.63,-131.53 381.24,-133.59 384.79,-139.62"/>
</g>
<!-- Node27 -->
<g id="node27" class="node">
<title>Node27</title>
<g id="a_node27"><a xlink:href="../../d8/dee/VirtualObject_8h.html" target="_top" xlink:title=" ">
<polygon fill="white" stroke="black" points="138.52,-179.5 138.52,-198.5 227.52,-198.5 227.52,-179.5 138.52,-179.5"/>
<text text-anchor="middle" x="183.02" y="-186.5" font-family="Helvetica,sans-Serif" font-size="10.00">VirtualObject.h</text>
</a>
</g>
</g>
<!-- Node5&#45;&gt;Node27 -->
<g id="edge36" class="edge">
<title>Node5&#45;&gt;Node27</title>
<path fill="none" stroke="midnightblue" d="M404.91,-313.89C357.77,-309.38 291.3,-297.42 242.02,-266 219.41,-251.59 201.96,-225.37 192.09,-207.82"/>
<polygon fill="midnightblue" stroke="midnightblue" points="194.98,-205.8 187.17,-198.64 188.81,-209.11 194.98,-205.8"/>
</g>
<!-- Node8 -->
<g id="node8" class="node">
<title>Node8</title>
<g id="a_node8"><a xlink:title=" ">
<polygon fill="white" stroke="#bfbfbf" points="66.02,-179.5 66.02,-198.5 120.02,-198.5 120.02,-179.5 66.02,-179.5"/>
<text text-anchor="middle" x="93.02" y="-186.5" font-family="Helvetica,sans-Serif" font-size="10.00">istream</text>
</a>
</g>
</g>
<!-- Node7&#45;&gt;Node8 -->
<g id="edge7" class="edge">
<title>Node7&#45;&gt;Node8</title>
<path fill="none" stroke="midnightblue" d="M93.02,-246.23C93.02,-236.68 93.02,-221.12 93.02,-208.78"/>
<polygon fill="midnightblue" stroke="midnightblue" points="96.52,-208.63 93.02,-198.63 89.52,-208.63 96.52,-208.63"/>
</g>
<!-- Node9 -->
<g id="node9" class="node">
<title>Node9</title>
<g id="a_node9"><a xlink:title=" ">
<polygon fill="white" stroke="#bfbfbf" points="237.02,-56.5 237.02,-75.5 281.02,-75.5 281.02,-56.5 237.02,-56.5"/>
<text text-anchor="middle" x="259.02" y="-63.5" font-family="Helvetica,sans-Serif" font-size="10.00">string</text>
</a>
</g>
</g>
<!-- Node7&#45;&gt;Node9 -->
<g id="edge8" class="edge">
<title>Node7&#45;&gt;Node9</title>
<path fill="none" stroke="midnightblue" d="M82.86,-246.19C74.11,-237.87 62.12,-224.54 57.02,-210 50.84,-192.39 47.2,-183.88 57.02,-168 94.39,-107.53 180.13,-82.06 227,-72.34"/>
<polygon fill="midnightblue" stroke="midnightblue" points="227.78,-75.75 236.92,-70.39 226.44,-68.88 227.78,-75.75"/>
</g>
<!-- Node10&#45;&gt;Node6 -->
<g id="edge10" class="edge">
<title>Node10&#45;&gt;Node6</title>
<path fill="none" stroke="midnightblue" d="M782.02,-58.91C691.63,-48.53 508.7,-27.51 418.19,-17.11"/>
<polygon fill="midnightblue" stroke="midnightblue" points="418.49,-13.62 408.15,-15.96 417.69,-20.57 418.49,-13.62"/>
</g>
<!-- Node10&#45;&gt;Node11 -->
<g id="edge11" class="edge">
<title>Node10&#45;&gt;Node11</title>
<path fill="none" stroke="midnightblue" d="M862.59,-56.44C892.12,-47.28 939.14,-32.69 971.9,-22.52"/>
<polygon fill="midnightblue" stroke="midnightblue" points="973.06,-25.82 981.58,-19.52 970.99,-19.14 973.06,-25.82"/>
</g>
<!-- Node12 -->
<g id="node12" class="node">
<title>Node12</title>
<g id="a_node12"><a xlink:title=" ">
<polygon fill="white" stroke="#bfbfbf" points="633.02,-0.5 633.02,-19.5 755.02,-19.5 755.02,-0.5 633.02,-0.5"/>
<text text-anchor="middle" x="694.02" y="-7.5" font-family="Helvetica,sans-Serif" font-size="10.00">rapidjson/document.h</text>
</a>
</g>
</g>
<!-- Node10&#45;&gt;Node12 -->
<g id="edge12" class="edge">
<title>Node10&#45;&gt;Node12</title>
<path fill="none" stroke="midnightblue" d="M812.68,-56.44C789.27,-47.48 752.28,-33.31 725.83,-23.18"/>
<polygon fill="midnightblue" stroke="midnightblue" points="726.85,-19.82 716.26,-19.52 724.34,-26.36 726.85,-19.82"/>
</g>
<!-- Node10&#45;&gt;Node13 -->
<g id="edge13" class="edge">
<title>Node10&#45;&gt;Node13</title>
<path fill="none" stroke="midnightblue" d="M888.25,-56.86C954.11,-46.78 1065.71,-29.71 1132.57,-19.48"/>
<polygon fill="midnightblue" stroke="midnightblue" points="1133.15,-22.93 1142.51,-17.96 1132.09,-16.01 1133.15,-22.93"/>
</g>
<!-- Node14 -->
<g id="node14" class="node">
<title>Node14</title>
<g id="a_node14"><a xlink:title=" ">
<polygon fill="white" stroke="#bfbfbf" points="773.02,-0.5 773.02,-19.5 923.02,-19.5 923.02,-0.5 773.02,-0.5"/>
<text text-anchor="middle" x="848.02" y="-7.5" font-family="Helvetica,sans-Serif" font-size="10.00">rapidjson/istreamwrapper.h</text>
</a>
</g>
</g>
<!-- Node10&#45;&gt;Node14 -->
<g id="edge14" class="edge">
<title>Node10&#45;&gt;Node14</title>
<path fill="none" stroke="midnightblue" d="M837.16,-56.08C838.89,-48.93 841.37,-38.64 843.52,-29.69"/>
<polygon fill="midnightblue" stroke="midnightblue" points="846.97,-30.29 845.91,-19.75 840.17,-28.65 846.97,-30.29"/>
</g>
<!-- Node10&#45;&gt;Node15 -->
<g id="edge15" class="edge">
<title>Node10&#45;&gt;Node15</title>
<path fill="none" stroke="midnightblue" d="M888.21,-59.22C980.35,-49.21 1169.29,-28.68 1268.3,-17.92"/>
<polygon fill="midnightblue" stroke="midnightblue" points="1268.9,-21.38 1278.46,-16.82 1268.14,-14.42 1268.9,-21.38"/>
</g>
<!-- Node21&#45;&gt;Node9 -->
<g id="edge23" class="edge">
<title>Node21&#45;&gt;Node9</title>
<path fill="none" stroke="midnightblue" d="M697.83,-247.25C694.85,-246.81 691.89,-246.39 689.02,-246 614.38,-235.91 416.21,-249.39 352.02,-210 304.37,-180.77 276.43,-116.91 265.04,-85.37"/>
<polygon fill="midnightblue" stroke="midnightblue" points="268.26,-83.99 261.69,-75.67 261.64,-86.27 268.26,-83.99"/>
</g>
<!-- Node21&#45;&gt;Node10 -->
<g id="edge22" class="edge">
<title>Node21&#45;&gt;Node10</title>
<path fill="none" stroke="midnightblue" d="M742.07,-246.48C738.82,-230.47 733.62,-195.07 744.02,-168 758.14,-131.24 792.51,-99.49 814.73,-81.84"/>
<polygon fill="midnightblue" stroke="midnightblue" points="817.08,-84.45 822.87,-75.58 812.81,-78.9 817.08,-84.45"/>
</g>
<!-- Node22 -->
<g id="node22" class="node">
<title>Node22</title>
<g id="a_node22"><a xlink:title=" ">
<polygon fill="white" stroke="#bfbfbf" points="613.52,-179.5 613.52,-198.5 658.52,-198.5 658.52,-179.5 613.52,-179.5"/>
<text text-anchor="middle" x="636.02" y="-186.5" font-family="Helvetica,sans-Serif" font-size="10.00">utility</text>
</a>
</g>
</g>
<!-- Node21&#45;&gt;Node22 -->
<g id="edge24" class="edge">
<title>Node21&#45;&gt;Node22</title>
<path fill="none" stroke="midnightblue" d="M729.45,-246.23C711.4,-235.37 680.41,-216.72 659.1,-203.89"/>
<polygon fill="midnightblue" stroke="midnightblue" points="660.73,-200.79 650.35,-198.63 657.12,-206.78 660.73,-200.79"/>
</g>
<!-- Node23 -->
<g id="node23" class="node">
<title>Node23</title>
<g id="a_node23"><a xlink:title=" ">
<polygon fill="white" stroke="#bfbfbf" points="683.52,-112.5 683.52,-131.5 730.52,-131.5 730.52,-112.5 683.52,-112.5"/>
<text text-anchor="middle" x="707.02" y="-119.5" font-family="Helvetica,sans-Serif" font-size="10.00">vector</text>
</a>
</g>
</g>
<!-- Node21&#45;&gt;Node23 -->
<g id="edge25" class="edge">
<title>Node21&#45;&gt;Node23</title>
<path fill="none" stroke="midnightblue" d="M735.15,-246.29C727.2,-237.84 716.05,-224.25 711.02,-210 703.09,-187.55 703.4,-159.81 704.82,-141.78"/>
<polygon fill="midnightblue" stroke="midnightblue" points="708.31,-142 705.8,-131.71 701.34,-141.32 708.31,-142"/>
</g>
<!-- Node21&#45;&gt;Node24 -->
<g id="edge26" class="edge">
<title>Node21&#45;&gt;Node24</title>
<path fill="none" stroke="midnightblue" d="M750.63,-246.23C758.19,-236.2 770.77,-219.51 780.26,-206.92"/>
<polygon fill="midnightblue" stroke="midnightblue" points="783.29,-208.72 786.51,-198.63 777.7,-204.51 783.29,-208.72"/>
</g>
<!-- Node24&#45;&gt;Node10 -->
<g id="edge27" class="edge">
<title>Node24&#45;&gt;Node10</title>
<path fill="none" stroke="midnightblue" d="M796.04,-179.3C802.85,-159.68 819.52,-111.64 828.7,-85.19"/>
<polygon fill="midnightblue" stroke="midnightblue" points="832.05,-86.22 832.02,-75.62 825.44,-83.92 832.05,-86.22"/>
</g>
<!-- Node24&#45;&gt;Node23 -->
<g id="edge29" class="edge">
<title>Node24&#45;&gt;Node23</title>
<path fill="none" stroke="midnightblue" d="M781.42,-179.23C767.36,-168.61 743.47,-150.55 726.55,-137.76"/>
<polygon fill="midnightblue" stroke="midnightblue" points="728.52,-134.86 718.43,-131.63 724.3,-140.45 728.52,-134.86"/>
</g>
<!-- Node24&#45;&gt;Node25 -->
<g id="edge28" class="edge">
<title>Node24&#45;&gt;Node25</title>
<path fill="none" stroke="midnightblue" d="M811.21,-179.37C834.55,-168.3 875.25,-148.99 902.41,-136.1"/>
<polygon fill="midnightblue" stroke="midnightblue" points="904.22,-139.12 911.75,-131.67 901.22,-132.79 904.22,-139.12"/>
</g>
<!-- Node24&#45;&gt;Node26 -->
<g id="edge30" class="edge">
<title>Node24&#45;&gt;Node26</title>
<path fill="none" stroke="midnightblue" d="M752.75,-181.17C684.47,-169.58 545.75,-146.04 467.35,-132.73"/>
<polygon fill="midnightblue" stroke="midnightblue" points="467.61,-129.22 457.16,-131 466.44,-136.12 467.61,-129.22"/>
</g>
<!-- Node26&#45;&gt;Node9 -->
<g id="edge32" class="edge">
<title>Node26&#45;&gt;Node9</title>
<path fill="none" stroke="midnightblue" d="M386.09,-112.44C360.35,-103.24 319.3,-88.56 290.85,-78.38"/>
<polygon fill="midnightblue" stroke="midnightblue" points="291.95,-75.06 281.36,-74.99 289.59,-81.65 291.95,-75.06"/>
</g>
<!-- Node26&#45;&gt;Node10 -->
<g id="edge31" class="edge">
<title>Node26&#45;&gt;Node10</title>
<path fill="none" stroke="midnightblue" d="M457.12,-115.01C533.76,-105.28 685.49,-86 771.55,-75.06"/>
<polygon fill="midnightblue" stroke="midnightblue" points="772.23,-78.51 781.71,-73.77 771.35,-71.56 772.23,-78.51"/>
</g>
<!-- Node26&#45;&gt;Node19 -->
<g id="edge33" class="edge">
<title>Node26&#45;&gt;Node19</title>
<path fill="none" stroke="midnightblue" d="M410.02,-112.08C410.02,-105.01 410.02,-94.86 410.02,-85.99"/>
<polygon fill="midnightblue" stroke="midnightblue" points="413.52,-85.75 410.02,-75.75 406.52,-85.75 413.52,-85.75"/>
</g>
<!-- Node27&#45;&gt;Node6 -->
<g id="edge37" class="edge">
<title>Node27&#45;&gt;Node6</title>
<path fill="none" stroke="midnightblue" d="M183,-179.47C183.48,-155.54 188.39,-87.47 228.02,-56 252.11,-36.86 284.65,-25.73 311.97,-19.32"/>
<polygon fill="midnightblue" stroke="midnightblue" points="312.75,-22.73 321.77,-17.17 311.25,-15.9 312.75,-22.73"/>
</g>
<!-- Node27&#45;&gt;Node9 -->
<g id="edge39" class="edge">
<title>Node27&#45;&gt;Node9</title>
<path fill="none" stroke="midnightblue" d="M184.17,-179.36C186.48,-164.53 192.73,-133.74 207.02,-112 214.81,-100.15 226.56,-89.62 236.92,-81.72"/>
<polygon fill="midnightblue" stroke="midnightblue" points="239.13,-84.44 245.18,-75.74 235.03,-78.77 239.13,-84.44"/>
</g>
<!-- Node27&#45;&gt;Node10 -->
<g id="edge38" class="edge">
<title>Node27&#45;&gt;Node10</title>
<path fill="none" stroke="midnightblue" d="M197.97,-179.34C226.97,-163 293.36,-127.86 354.02,-112 500.08,-73.81 678.54,-67.08 771.63,-66.45"/>
<polygon fill="midnightblue" stroke="midnightblue" points="771.75,-69.94 781.73,-66.4 771.72,-62.95 771.75,-69.94"/>
</g>
<!-- Node27&#45;&gt;Node26 -->
<g id="edge40" class="edge">
<title>Node27&#45;&gt;Node26</title>
<path fill="none" stroke="midnightblue" d="M213.16,-179.37C253.64,-167.78 325.64,-147.16 370.44,-134.33"/>
<polygon fill="midnightblue" stroke="midnightblue" points="371.46,-137.68 380.11,-131.56 369.53,-130.95 371.46,-137.68"/>
</g>
<!-- Node29&#45;&gt;Node9 -->
<g id="edge47" class="edge">
<title>Node29&#45;&gt;Node9</title>
<path fill="none" stroke="midnightblue" d="M408.42,-168.39C392.3,-157.68 372.03,-144.16 354.02,-132 328.43,-114.72 299.12,-94.61 279.9,-81.39"/>
<polygon fill="midnightblue" stroke="midnightblue" points="281.81,-78.46 271.59,-75.67 277.84,-84.22 281.81,-78.46"/>
</g>
<!-- Node29&#45;&gt;Node18 -->
<g id="edge46" class="edge">
<title>Node29&#45;&gt;Node18</title>
<path fill="none" stroke="midnightblue" d="M498.92,-168.5C534.34,-157.16 577.65,-143.29 607.08,-133.87"/>
<polygon fill="midnightblue" stroke="midnightblue" points="608.42,-137.11 616.87,-130.73 606.28,-130.45 608.42,-137.11"/>
</g>
<!-- Node29&#45;&gt;Node19 -->
<g id="edge48" class="edge">
<title>Node29&#45;&gt;Node19</title>
<path fill="none" stroke="midnightblue" d="M454,-168.22C464.54,-152.63 474.89,-130.51 466.02,-112 459.77,-98.95 447.68,-88.49 436.34,-80.95"/>
<polygon fill="midnightblue" stroke="midnightblue" points="437.87,-77.79 427.52,-75.54 434.21,-83.75 437.87,-77.79"/>
</g>
<!-- Node29&#45;&gt;Node23 -->
<g id="edge50" class="edge">
<title>Node29&#45;&gt;Node23</title>
<path fill="none" stroke="midnightblue" d="M515.77,-170.24C559.43,-160.1 615.14,-146.9 673.48,-132.07"/>
<polygon fill="midnightblue" stroke="midnightblue" points="674.43,-135.45 683.25,-129.58 672.7,-128.66 674.43,-135.45"/>
</g>
<!-- Node30 -->
<g id="node30" class="node">
<title>Node30</title>
<g id="a_node30"><a xlink:title=" ">
<polygon fill="white" stroke="#bfbfbf" points="513.02,-112.5 513.02,-131.5 599.02,-131.5 599.02,-112.5 513.02,-112.5"/>
<text text-anchor="middle" x="556.02" y="-119.5" font-family="Helvetica,sans-Serif" font-size="10.00">unordered_set</text>
</a>
</g>
</g>
<!-- Node29&#45;&gt;Node30 -->
<g id="edge49" class="edge">
<title>Node29&#45;&gt;Node30</title>
<path fill="none" stroke="midnightblue" d="M473.42,-168.5C492.04,-158.24 514.4,-145.93 531.16,-136.69"/>
<polygon fill="midnightblue" stroke="midnightblue" points="533.24,-139.54 540.31,-131.65 529.86,-133.41 533.24,-139.54"/>
</g>
<!-- Node31&#45;&gt;Node6 -->
<g id="edge52" class="edge">
<title>Node31&#45;&gt;Node6</title>
<path fill="none" stroke="midnightblue" d="M1029.52,-179.22C1013.15,-154.01 961.77,-81.57 897.02,-56 853.26,-38.72 544.25,-20.54 418.28,-13.76"/>
<polygon fill="midnightblue" stroke="midnightblue" points="418.27,-10.26 408.1,-13.22 417.9,-17.25 418.27,-10.26"/>
</g>
<!-- Node31&#45;&gt;Node10 -->
<g id="edge55" class="edge">
<title>Node31&#45;&gt;Node10</title>
<path fill="none" stroke="midnightblue" d="M1064.09,-179.79C1102.95,-167.42 1164.07,-142.21 1138.02,-112 1107.73,-76.88 978.06,-68.73 898.49,-67.1"/>
<polygon fill="midnightblue" stroke="midnightblue" points="898.15,-63.59 888.09,-66.92 898.03,-70.59 898.15,-63.59"/>
</g>
<!-- Node31&#45;&gt;Node25 -->
<g id="edge54" class="edge">
<title>Node31&#45;&gt;Node25</title>
<path fill="none" stroke="midnightblue" d="M1020.86,-179.23C1003.3,-168.37 973.17,-149.72 952.46,-136.89"/>
<polygon fill="midnightblue" stroke="midnightblue" points="954.3,-133.91 943.95,-131.63 950.61,-139.87 954.3,-133.91"/>
</g>
<!-- Node32 -->
<g id="node32" class="node">
<title>Node32</title>
<g id="a_node32"><a xlink:title=" ">
<polygon fill="white" stroke="#bfbfbf" points="1015.02,-112.5 1015.02,-131.5 1129.02,-131.5 1129.02,-112.5 1015.02,-112.5"/>
<text text-anchor="middle" x="1072.02" y="-119.5" font-family="Helvetica,sans-Serif" font-size="10.00">boost/operators.hpp</text>
</a>
</g>
</g>
<!-- Node31&#45;&gt;Node32 -->
<g id="edge53" class="edge">
<title>Node31&#45;&gt;Node32</title>
<path fill="none" stroke="midnightblue" d="M1040.01,-179.23C1045.61,-169.39 1054.85,-153.16 1061.97,-140.66"/>
<polygon fill="midnightblue" stroke="midnightblue" points="1065.2,-142.05 1067.11,-131.63 1059.12,-138.59 1065.2,-142.05"/>
</g>
</g>
</svg>
