<?xml version="1.0" encoding="UTF-8" standalone="no"?>
<!DOCTYPE svg PUBLIC "-//W3C//DTD SVG 1.1//EN"
 "http://www.w3.org/Graphics/SVG/1.1/DTD/svg11.dtd">
<!-- Generated by graphviz version 2.43.0 (0)
 -->
<!-- Title: joda::query::AtomProvider::getValue Pages: 1 -->
<svg width="700pt" height="137pt"
 viewBox="0.00 0.00 700.00 137.00" xmlns="http://www.w3.org/2000/svg" xmlns:xlink="http://www.w3.org/1999/xlink">
<g id="graph0" class="graph" transform="scale(1 1) rotate(0) translate(4 133)">
<title>joda::query::AtomProvider::getValue</title>
<polygon fill="white" stroke="transparent" points="-4,4 -4,-133 696,-133 696,4 -4,4"/>
<!-- Node1 -->
<g id="node1" class="node">
<title>Node1</title>
<g id="a_node1"><a xlink:title=" ">
<polygon fill="#bfbfbf" stroke="black" points="0,-49.5 0,-79.5 143,-79.5 143,-49.5 0,-49.5"/>
<text text-anchor="start" x="8" y="-67.5" font-family="Helvetica,sans-Serif" font-size="10.00">joda::query::AtomProvider</text>
<text text-anchor="middle" x="71.5" y="-56.5" font-family="Helvetica,sans-Serif" font-size="10.00">::getValue</text>
</a>
</g>
</g>
<!-- Node2 -->
<g id="node2" class="node">
<title>Node2</title>
<g id="a_node2"><a xlink:href="../../d4/df5/classjoda_1_1query_1_1IValueProvider.html#a2be55dc72b74ef1961453ab9d79fc121" target="_top" xlink:title=" ">
<polygon fill="white" stroke="black" points="179,-49.5 179,-79.5 326,-79.5 326,-49.5 179,-49.5"/>
<text text-anchor="start" x="187" y="-67.5" font-family="Helvetica,sans-Serif" font-size="10.00">joda::query::IValueProvider</text>
<text text-anchor="middle" x="252.5" y="-56.5" font-family="Helvetica,sans-Serif" font-size="10.00">::isAtom</text>
</a>
</g>
</g>
<!-- Node1&#45;&gt;Node2 -->
<g id="edge1" class="edge">
<title>Node1&#45;&gt;Node2</title>
<path fill="none" stroke="midnightblue" d="M143.25,-64.5C151.67,-64.5 160.33,-64.5 168.91,-64.5"/>
<polygon fill="midnightblue" stroke="midnightblue" points="168.92,-68 178.92,-64.5 168.92,-61 168.92,-68"/>
</g>
<!-- Node3 -->
<g id="node3" class="node">
<title>Node3</title>
<g id="a_node3"><a xlink:href="../../d4/df5/classjoda_1_1query_1_1IValueProvider.html#a76d7b247bd53ae37ccd91f8780d4962b" target="_top" xlink:title=" ">
<polygon fill="white" stroke="black" points="362,-98.5 362,-128.5 509,-128.5 509,-98.5 362,-98.5"/>
<text text-anchor="start" x="370" y="-116.5" font-family="Helvetica,sans-Serif" font-size="10.00">joda::query::IValueProvider</text>
<text text-anchor="middle" x="435.5" y="-105.5" font-family="Helvetica,sans-Serif" font-size="10.00">::isBool</text>
</a>
</g>
</g>
<!-- Node2&#45;&gt;Node3 -->
<g id="edge2" class="edge">
<title>Node2&#45;&gt;Node3</title>
<path fill="none" stroke="midnightblue" d="M309.28,-79.6C328.21,-84.73 349.52,-90.5 369.13,-95.8"/>
<polygon fill="midnightblue" stroke="midnightblue" points="368.33,-99.21 378.9,-98.45 370.16,-92.46 368.33,-99.21"/>
</g>
<!-- Node5 -->
<g id="node5" class="node">
<title>Node5</title>
<g id="a_node5"><a xlink:href="../../d4/df5/classjoda_1_1query_1_1IValueProvider.html#ad7a62a3523b14ac2c46165520cac2901" target="_top" xlink:title=" ">
<polygon fill="white" stroke="black" points="362,-49.5 362,-79.5 509,-79.5 509,-49.5 362,-49.5"/>
<text text-anchor="start" x="370" y="-67.5" font-family="Helvetica,sans-Serif" font-size="10.00">joda::query::IValueProvider</text>
<text text-anchor="middle" x="435.5" y="-56.5" font-family="Helvetica,sans-Serif" font-size="10.00">::isNumber</text>
</a>
</g>
</g>
<!-- Node2&#45;&gt;Node5 -->
<g id="edge4" class="edge">
<title>Node2&#45;&gt;Node5</title>
<path fill="none" stroke="midnightblue" d="M326.08,-64.5C334.56,-64.5 343.26,-64.5 351.87,-64.5"/>
<polygon fill="midnightblue" stroke="midnightblue" points="351.91,-68 361.91,-64.5 351.91,-61 351.91,-68"/>
</g>
<!-- Node6 -->
<g id="node6" class="node">
<title>Node6</title>
<g id="a_node6"><a xlink:href="../../d4/df5/classjoda_1_1query_1_1IValueProvider.html#ade80632b99c01d164cd8923e2b70f90e" target="_top" xlink:title=" ">
<polygon fill="white" stroke="black" points="362,-0.5 362,-30.5 509,-30.5 509,-0.5 362,-0.5"/>
<text text-anchor="start" x="370" y="-18.5" font-family="Helvetica,sans-Serif" font-size="10.00">joda::query::IValueProvider</text>
<text text-anchor="middle" x="435.5" y="-7.5" font-family="Helvetica,sans-Serif" font-size="10.00">::isString</text>
</a>
</g>
</g>
<!-- Node2&#45;&gt;Node6 -->
<g id="edge6" class="edge">
<title>Node2&#45;&gt;Node6</title>
<path fill="none" stroke="midnightblue" d="M309.28,-49.4C328.21,-44.27 349.52,-38.5 369.13,-33.2"/>
<polygon fill="midnightblue" stroke="midnightblue" points="370.16,-36.54 378.9,-30.55 368.33,-29.79 370.16,-36.54"/>
</g>
<!-- Node4 -->
<g id="node4" class="node">
<title>Node4</title>
<g id="a_node4"><a xlink:href="../../d4/df5/classjoda_1_1query_1_1IValueProvider.html#a7353bb4809b215603871f5ddaa353285" target="_top" xlink:title=" ">
<polygon fill="white" stroke="black" points="545,-49.5 545,-79.5 692,-79.5 692,-49.5 545,-49.5"/>
<text text-anchor="start" x="553" y="-67.5" font-family="Helvetica,sans-Serif" font-size="10.00">joda::query::IValueProvider</text>
<text text-anchor="middle" x="618.5" y="-56.5" font-family="Helvetica,sans-Serif" font-size="10.00">::getReturnType</text>
</a>
</g>
</g>
<!-- Node3&#45;&gt;Node4 -->
<g id="edge3" class="edge">
<title>Node3&#45;&gt;Node4</title>
<path fill="none" stroke="midnightblue" d="M492.28,-98.4C511.21,-93.27 532.52,-87.5 552.13,-82.2"/>
<polygon fill="midnightblue" stroke="midnightblue" points="553.16,-85.54 561.9,-79.55 551.33,-78.79 553.16,-85.54"/>
</g>
<!-- Node5&#45;&gt;Node4 -->
<g id="edge5" class="edge">
<title>Node5&#45;&gt;Node4</title>
<path fill="none" stroke="midnightblue" d="M509.08,-64.5C517.56,-64.5 526.26,-64.5 534.87,-64.5"/>
<polygon fill="midnightblue" stroke="midnightblue" points="534.91,-68 544.91,-64.5 534.91,-61 534.91,-68"/>
</g>
<!-- Node6&#45;&gt;Node4 -->
<g id="edge7" class="edge">
<title>Node6&#45;&gt;Node4</title>
<path fill="none" stroke="midnightblue" d="M492.28,-30.6C511.21,-35.73 532.52,-41.5 552.13,-46.8"/>
<polygon fill="midnightblue" stroke="midnightblue" points="551.33,-50.21 561.9,-49.45 553.16,-43.46 551.33,-50.21"/>
</g>
</g>
</svg>
