<?xml version="1.0" encoding="UTF-8" standalone="no"?>
<!DOCTYPE svg PUBLIC "-//W3C//DTD SVG 1.1//EN"
 "http://www.w3.org/Graphics/SVG/1.1/DTD/svg11.dtd">
<!-- Generated by graphviz version 2.43.0 (0)
 -->
<!-- Title: /home/nico/projects/tmp&#45;joda&#45;dirs/JODA&#45;gh/libs/joda/core/modules/concurrency/src/ThreadManager.cpp Pages: 1 -->
<svg width="594pt" height="240pt"
 viewBox="0.00 0.00 594.27 240.00" xmlns="http://www.w3.org/2000/svg" xmlns:xlink="http://www.w3.org/1999/xlink">
<g id="graph0" class="graph" transform="scale(1 1) rotate(0) translate(4 236)">
<title>/home/nico/projects/tmp&#45;joda&#45;dirs/JODA&#45;gh/libs/joda/core/modules/concurrency/src/ThreadManager.cpp</title>
<polygon fill="white" stroke="transparent" points="-4,4 -4,-236 590.27,-236 590.27,4 -4,4"/>
<!-- Node1 -->
<g id="node1" class="node">
<title>Node1</title>
<g id="a_node1"><a xlink:title=" ">
<polygon fill="#bfbfbf" stroke="black" points="209.77,-179.5 209.77,-231.5 404.77,-231.5 404.77,-179.5 209.77,-179.5"/>
<text text-anchor="start" x="217.77" y="-219.5" font-family="Helvetica,sans-Serif" font-size="10.00">/home/nico/projects</text>
<text text-anchor="start" x="217.77" y="-208.5" font-family="Helvetica,sans-Serif" font-size="10.00">/tmp&#45;joda&#45;dirs/JODA</text>
<text text-anchor="start" x="217.77" y="-197.5" font-family="Helvetica,sans-Serif" font-size="10.00">&#45;gh/libs/joda/core/modules</text>
<text text-anchor="middle" x="307.27" y="-186.5" font-family="Helvetica,sans-Serif" font-size="10.00">/concurrency/src/ThreadManager.cpp</text>
</a>
</g>
</g>
<!-- Node2 -->
<g id="node2" class="node">
<title>Node2</title>
<g id="a_node2"><a xlink:href="../../d0/daa/ThreadManager_8h.html" target="_top" xlink:title=" ">
<polygon fill="white" stroke="black" points="176.77,-112.5 176.77,-142.5 323.77,-142.5 323.77,-112.5 176.77,-112.5"/>
<text text-anchor="start" x="184.77" y="-130.5" font-family="Helvetica,sans-Serif" font-size="10.00">../include/joda/concurrency</text>
<text text-anchor="middle" x="250.27" y="-119.5" font-family="Helvetica,sans-Serif" font-size="10.00">/ThreadManager.h</text>
</a>
</g>
</g>
<!-- Node1&#45;&gt;Node2 -->
<g id="edge1" class="edge">
<title>Node1&#45;&gt;Node2</title>
<path fill="none" stroke="midnightblue" d="M288.29,-179.19C281.41,-170.03 273.71,-159.76 267.04,-150.86"/>
<polygon fill="midnightblue" stroke="midnightblue" points="269.83,-148.75 261.03,-142.85 264.23,-152.95 269.83,-148.75"/>
</g>
<!-- Node11 -->
<g id="node11" class="node">
<title>Node11</title>
<g id="a_node11"><a xlink:title=" ">
<polygon fill="white" stroke="#bfbfbf" points="341.77,-118 341.77,-137 388.77,-137 388.77,-118 341.77,-118"/>
<text text-anchor="middle" x="365.27" y="-125" font-family="Helvetica,sans-Serif" font-size="10.00">cmath</text>
</a>
</g>
</g>
<!-- Node1&#45;&gt;Node11 -->
<g id="edge11" class="edge">
<title>Node1&#45;&gt;Node11</title>
<path fill="none" stroke="midnightblue" d="M326.58,-179.19C335.06,-168.08 344.78,-155.34 352.36,-145.41"/>
<polygon fill="midnightblue" stroke="midnightblue" points="355.34,-147.28 358.62,-137.21 349.77,-143.04 355.34,-147.28"/>
</g>
<!-- Node3 -->
<g id="node3" class="node">
<title>Node3</title>
<g id="a_node3"><a xlink:title=" ">
<polygon fill="white" stroke="#bfbfbf" points="240.77,-0.5 240.77,-19.5 287.77,-19.5 287.77,-0.5 240.77,-0.5"/>
<text text-anchor="middle" x="264.27" y="-7.5" font-family="Helvetica,sans-Serif" font-size="10.00">glob.h</text>
</a>
</g>
</g>
<!-- Node2&#45;&gt;Node3 -->
<g id="edge2" class="edge">
<title>Node2&#45;&gt;Node3</title>
<path fill="none" stroke="midnightblue" d="M176.51,-121.44C112.13,-115.3 25.73,-102.31 4.27,-76 -1.35,-69.11 -1.46,-62.8 4.27,-56 32.78,-22.13 166.49,-13.75 230.26,-11.68"/>
<polygon fill="midnightblue" stroke="midnightblue" points="230.7,-15.17 240.6,-11.38 230.5,-8.17 230.7,-15.17"/>
</g>
<!-- Node4 -->
<g id="node4" class="node">
<title>Node4</title>
<g id="a_node4"><a xlink:title=" ">
<polygon fill="white" stroke="#bfbfbf" points="13.27,-56.5 13.27,-75.5 99.27,-75.5 99.27,-56.5 13.27,-56.5"/>
<text text-anchor="middle" x="56.27" y="-63.5" font-family="Helvetica,sans-Serif" font-size="10.00">glog/logging.h</text>
</a>
</g>
</g>
<!-- Node2&#45;&gt;Node4 -->
<g id="edge3" class="edge">
<title>Node2&#45;&gt;Node4</title>
<path fill="none" stroke="midnightblue" d="M204.29,-112.4C170.62,-102.07 125.49,-88.23 93.94,-78.56"/>
<polygon fill="midnightblue" stroke="midnightblue" points="94.8,-75.16 84.21,-75.57 92.75,-81.85 94.8,-75.16"/>
</g>
<!-- Node5 -->
<g id="node5" class="node">
<title>Node5</title>
<g id="a_node5"><a xlink:title=" ">
<polygon fill="white" stroke="#bfbfbf" points="117.27,-56.5 117.27,-75.5 175.27,-75.5 175.27,-56.5 117.27,-56.5"/>
<text text-anchor="middle" x="146.27" y="-63.5" font-family="Helvetica,sans-Serif" font-size="10.00">memory</text>
</a>
</g>
</g>
<!-- Node2&#45;&gt;Node5 -->
<g id="edge4" class="edge">
<title>Node2&#45;&gt;Node5</title>
<path fill="none" stroke="midnightblue" d="M225.62,-112.4C208.95,-102.86 187.04,-90.32 170.46,-80.84"/>
<polygon fill="midnightblue" stroke="midnightblue" points="171.82,-77.59 161.4,-75.66 168.34,-83.66 171.82,-77.59"/>
</g>
<!-- Node6 -->
<g id="node6" class="node">
<title>Node6</title>
<g id="a_node6"><a xlink:title=" ">
<polygon fill="white" stroke="#bfbfbf" points="193.27,-56.5 193.27,-75.5 241.27,-75.5 241.27,-56.5 193.27,-56.5"/>
<text text-anchor="middle" x="217.27" y="-63.5" font-family="Helvetica,sans-Serif" font-size="10.00">mutex</text>
</a>
</g>
</g>
<!-- Node2&#45;&gt;Node6 -->
<g id="edge5" class="edge">
<title>Node2&#45;&gt;Node6</title>
<path fill="none" stroke="midnightblue" d="M242.45,-112.4C237.8,-104.02 231.87,-93.33 226.93,-84.42"/>
<polygon fill="midnightblue" stroke="midnightblue" points="229.98,-82.71 222.07,-75.66 223.86,-86.1 229.98,-82.71"/>
</g>
<!-- Node7 -->
<g id="node7" class="node">
<title>Node7</title>
<g id="a_node7"><a xlink:title=" ">
<polygon fill="white" stroke="#bfbfbf" points="259.27,-56.5 259.27,-75.5 307.27,-75.5 307.27,-56.5 259.27,-56.5"/>
<text text-anchor="middle" x="283.27" y="-63.5" font-family="Helvetica,sans-Serif" font-size="10.00">thread</text>
</a>
</g>
</g>
<!-- Node2&#45;&gt;Node7 -->
<g id="edge6" class="edge">
<title>Node2&#45;&gt;Node7</title>
<path fill="none" stroke="midnightblue" d="M258.09,-112.4C262.73,-104.02 268.67,-93.33 273.6,-84.42"/>
<polygon fill="midnightblue" stroke="midnightblue" points="276.68,-86.1 278.46,-75.66 270.55,-82.71 276.68,-86.1"/>
</g>
<!-- Node8 -->
<g id="node8" class="node">
<title>Node8</title>
<g id="a_node8"><a xlink:title=" ">
<polygon fill="white" stroke="#bfbfbf" points="325.77,-56.5 325.77,-75.5 418.77,-75.5 418.77,-56.5 325.77,-56.5"/>
<text text-anchor="middle" x="372.27" y="-63.5" font-family="Helvetica,sans-Serif" font-size="10.00">unordered_map</text>
</a>
</g>
</g>
<!-- Node2&#45;&gt;Node8 -->
<g id="edge7" class="edge">
<title>Node2&#45;&gt;Node8</title>
<path fill="none" stroke="midnightblue" d="M279.18,-112.4C299.28,-102.59 325.89,-89.62 345.5,-80.05"/>
<polygon fill="midnightblue" stroke="midnightblue" points="347.06,-83.19 354.51,-75.66 343.99,-76.9 347.06,-83.19"/>
</g>
<!-- Node9 -->
<g id="node9" class="node">
<title>Node9</title>
<g id="a_node9"><a xlink:title=" ">
<polygon fill="white" stroke="#bfbfbf" points="436.77,-56.5 436.77,-75.5 483.77,-75.5 483.77,-56.5 436.77,-56.5"/>
<text text-anchor="middle" x="460.27" y="-63.5" font-family="Helvetica,sans-Serif" font-size="10.00">vector</text>
</a>
</g>
</g>
<!-- Node2&#45;&gt;Node9 -->
<g id="edge8" class="edge">
<title>Node2&#45;&gt;Node9</title>
<path fill="none" stroke="midnightblue" d="M299.77,-112.47C338.89,-101.39 392.44,-86.22 426.69,-76.51"/>
<polygon fill="midnightblue" stroke="midnightblue" points="428,-79.78 436.67,-73.69 426.09,-73.04 428,-79.78"/>
</g>
<!-- Node10 -->
<g id="node10" class="node">
<title>Node10</title>
<g id="a_node10"><a xlink:href="../../df/d44/IThreadUser_8h.html" target="_top" xlink:title=" ">
<polygon fill="white" stroke="black" points="502.27,-56.5 502.27,-75.5 586.27,-75.5 586.27,-56.5 502.27,-56.5"/>
<text text-anchor="middle" x="544.27" y="-63.5" font-family="Helvetica,sans-Serif" font-size="10.00">IThreadUser.h</text>
</a>
</g>
</g>
<!-- Node2&#45;&gt;Node10 -->
<g id="edge9" class="edge">
<title>Node2&#45;&gt;Node10</title>
<path fill="none" stroke="midnightblue" d="M319.57,-112.47C372.5,-101.76 444.3,-87.23 492.36,-77.51"/>
<polygon fill="midnightblue" stroke="midnightblue" points="493.13,-80.92 502.24,-75.51 491.74,-74.06 493.13,-80.92"/>
</g>
<!-- Node10&#45;&gt;Node3 -->
<g id="edge10" class="edge">
<title>Node10&#45;&gt;Node3</title>
<path fill="none" stroke="midnightblue" d="M502.04,-56.86C446.16,-46.08 348.76,-27.29 297.69,-17.45"/>
<polygon fill="midnightblue" stroke="midnightblue" points="298.3,-14 287.82,-15.54 296.98,-20.87 298.3,-14"/>
</g>
</g>
</svg>
