<?xml version="1.0" encoding="UTF-8" standalone="no"?>
<!DOCTYPE svg PUBLIC "-//W3C//DTD SVG 1.1//EN"
 "http://www.w3.org/Graphics/SVG/1.1/DTD/svg11.dtd">
<!-- Generated by graphviz version 2.43.0 (0)
 -->
<!-- Title: joda::query::StaticEvalVisitor Pages: 1 -->
<svg width="373pt" height="240pt"
 viewBox="0.00 0.00 373.00 240.00" xmlns="http://www.w3.org/2000/svg" xmlns:xlink="http://www.w3.org/1999/xlink">
<g id="graph0" class="graph" transform="scale(1 1) rotate(0) translate(4 236)">
<title>joda::query::StaticEvalVisitor</title>
<polygon fill="white" stroke="transparent" points="-4,4 -4,-236 369,-236 369,4 -4,4"/>
<!-- Node1 -->
<g id="node1" class="node">
<title>Node1</title>
<g id="a_node1"><a xlink:title=" ">
<polygon fill="#bfbfbf" stroke="black" points="45.5,-0.5 45.5,-19.5 202.5,-19.5 202.5,-0.5 45.5,-0.5"/>
<text text-anchor="middle" x="124" y="-7.5" font-family="Helvetica,sans-Serif" font-size="10.00">joda::query::StaticEvalVisitor</text>
</a>
</g>
</g>
<!-- Node2 -->
<g id="node2" class="node">
<title>Node2</title>
<g id="a_node2"><a xlink:href="../../d4/d83/classjoda_1_1query_1_1PredicateVisitor.html" target="_top" xlink:title=" ">
<polygon fill="white" stroke="black" points="0,-73 0,-92 154,-92 154,-73 0,-73"/>
<text text-anchor="middle" x="77" y="-80" font-family="Helvetica,sans-Serif" font-size="10.00">joda::query::PredicateVisitor</text>
</a>
</g>
</g>
<!-- Node2&#45;&gt;Node1 -->
<g id="edge1" class="edge">
<title>Node2&#45;&gt;Node1</title>
<path fill="none" stroke="midnightblue" d="M88.34,-64.5C97.75,-50.37 110.77,-30.85 118.19,-19.72"/>
<polygon fill="midnightblue" stroke="midnightblue" points="85.4,-62.59 82.76,-72.86 91.22,-66.48 85.4,-62.59"/>
</g>
<!-- Node3 -->
<g id="node3" class="node">
<title>Node3</title>
<g id="a_node3"><a xlink:title=" ">
<polygon fill="white" stroke="#bfbfbf" points="172,-67.5 172,-97.5 294,-97.5 294,-67.5 172,-67.5"/>
<text text-anchor="start" x="180" y="-85.5" font-family="Helvetica,sans-Serif" font-size="10.00">std::unique_ptr&lt; joda</text>
<text text-anchor="middle" x="233" y="-74.5" font-family="Helvetica,sans-Serif" font-size="10.00">::query::Predicate &gt;</text>
</a>
</g>
</g>
<!-- Node3&#45;&gt;Node1 -->
<g id="edge2" class="edge">
<title>Node3&#45;&gt;Node1</title>
<path fill="none" stroke="#9a32cd" stroke-dasharray="5,2" d="M202.71,-61.91C181.19,-47.99 153.34,-29.98 137.19,-19.53"/>
<polygon fill="#9a32cd" stroke="#9a32cd" points="200.91,-64.91 211.2,-67.4 204.71,-59.03 200.91,-64.91"/>
<text text-anchor="middle" x="193.5" y="-41" font-family="Helvetica,sans-Serif" font-size="10.00"> pred</text>
</g>
<!-- Node4 -->
<g id="node4" class="node">
<title>Node4</title>
<g id="a_node4"><a xlink:title=" ">
<polygon fill="white" stroke="#bfbfbf" points="174,-145.5 174,-164.5 292,-164.5 292,-145.5 174,-145.5"/>
<text text-anchor="middle" x="233" y="-152.5" font-family="Helvetica,sans-Serif" font-size="10.00">std::unique_ptr&lt; T &gt;</text>
</a>
</g>
</g>
<!-- Node4&#45;&gt;Node3 -->
<g id="edge3" class="edge">
<title>Node4&#45;&gt;Node3</title>
<path fill="none" stroke="orange" stroke-dasharray="5,2" d="M233,-135.24C233,-123.41 233,-108.38 233,-97.58"/>
<polygon fill="orange" stroke="orange" points="229.5,-135.36 233,-145.36 236.5,-135.36 229.5,-135.36"/>
<text text-anchor="middle" x="299" y="-119" font-family="Helvetica,sans-Serif" font-size="10.00"> &lt; joda::query::Predicate &gt;</text>
</g>
<!-- Node5 -->
<g id="node5" class="node">
<title>Node5</title>
<g id="a_node5"><a xlink:title=" ">
<polygon fill="white" stroke="#bfbfbf" points="218.5,-212.5 218.5,-231.5 247.5,-231.5 247.5,-212.5 218.5,-212.5"/>
<text text-anchor="middle" x="233" y="-219.5" font-family="Helvetica,sans-Serif" font-size="10.00">T</text>
</a>
</g>
</g>
<!-- Node5&#45;&gt;Node4 -->
<g id="edge4" class="edge">
<title>Node5&#45;&gt;Node4</title>
<path fill="none" stroke="#9a32cd" stroke-dasharray="5,2" d="M233,-202.04C233,-189.67 233,-174.12 233,-164.63"/>
<polygon fill="#9a32cd" stroke="#9a32cd" points="229.5,-202.23 233,-212.23 236.5,-202.23 229.5,-202.23"/>
<text text-anchor="middle" x="241.5" y="-186" font-family="Helvetica,sans-Serif" font-size="10.00"> ptr</text>
</g>
</g>
</svg>
