<?xml version="1.0" encoding="UTF-8" standalone="no"?>
<!DOCTYPE svg PUBLIC "-//W3C//DTD SVG 1.1//EN"
 "http://www.w3.org/Graphics/SVG/1.1/DTD/svg11.dtd">
<!-- Generated by graphviz version 2.43.0 (0)
 -->
<!-- Title: joda::query::StaticEvalVisitor Pages: 1 -->
<svg width="406pt" height="308pt"
 viewBox="0.00 0.00 406.00 308.00" xmlns="http://www.w3.org/2000/svg" xmlns:xlink="http://www.w3.org/1999/xlink">
<g id="graph0" class="graph" transform="scale(1 1) rotate(0) translate(4 304)">
<title>joda::query::StaticEvalVisitor</title>
<polygon fill="white" stroke="transparent" points="-4,4 -4,-304 402,-304 402,4 -4,4"/>
<!-- Node1 -->
<g id="node1" class="node">
<title>Node1</title>
<g id="a_node1"><a xlink:title=" ">
<polygon fill="#bfbfbf" stroke="black" points="45.5,-0.5 45.5,-19.5 202.5,-19.5 202.5,-0.5 45.5,-0.5"/>
<text text-anchor="middle" x="124" y="-7.5" font-family="Helvetica,sans-Serif" font-size="10.00">joda::query::StaticEvalVisitor</text>
</a>
</g>
</g>
<!-- Node2 -->
<g id="node2" class="node">
<title>Node2</title>
<g id="a_node2"><a xlink:href="../../d4/d83/classjoda_1_1query_1_1PredicateVisitor.html" target="_top" xlink:title=" ">
<polygon fill="white" stroke="black" points="0,-73 0,-92 154,-92 154,-73 0,-73"/>
<text text-anchor="middle" x="77" y="-80" font-family="Helvetica,sans-Serif" font-size="10.00">joda::query::PredicateVisitor</text>
</a>
</g>
</g>
<!-- Node2&#45;&gt;Node1 -->
<g id="edge1" class="edge">
<title>Node2&#45;&gt;Node1</title>
<path fill="none" stroke="midnightblue" d="M88.34,-64.5C97.75,-50.37 110.77,-30.85 118.19,-19.72"/>
<polygon fill="midnightblue" stroke="midnightblue" points="85.4,-62.59 82.76,-72.86 91.22,-66.48 85.4,-62.59"/>
</g>
<!-- Node3 -->
<g id="node3" class="node">
<title>Node3</title>
<g id="a_node3"><a xlink:title=" ">
<polygon fill="white" stroke="#bfbfbf" points="172,-67.5 172,-97.5 294,-97.5 294,-67.5 172,-67.5"/>
<text text-anchor="start" x="180" y="-85.5" font-family="Helvetica,sans-Serif" font-size="10.00">std::unique_ptr&lt; joda</text>
<text text-anchor="middle" x="233" y="-74.5" font-family="Helvetica,sans-Serif" font-size="10.00">::query::Predicate &gt;</text>
</a>
</g>
</g>
<!-- Node3&#45;&gt;Node1 -->
<g id="edge2" class="edge">
<title>Node3&#45;&gt;Node1</title>
<path fill="none" stroke="#9a32cd" stroke-dasharray="5,2" d="M202.71,-61.91C181.19,-47.99 153.34,-29.98 137.19,-19.53"/>
<polygon fill="#9a32cd" stroke="#9a32cd" points="200.91,-64.91 211.2,-67.4 204.71,-59.03 200.91,-64.91"/>
<text text-anchor="middle" x="193.5" y="-41" font-family="Helvetica,sans-Serif" font-size="10.00"> pred</text>
</g>
<!-- Node4 -->
<g id="node4" class="node">
<title>Node4</title>
<g id="a_node4"><a xlink:href="../../dc/d49/classjoda_1_1query_1_1Predicate.html" target="_top" xlink:title=" ">
<polygon fill="white" stroke="black" points="91,-145.5 91,-164.5 213,-164.5 213,-145.5 91,-145.5"/>
<text text-anchor="middle" x="152" y="-152.5" font-family="Helvetica,sans-Serif" font-size="10.00">joda::query::Predicate</text>
</a>
</g>
</g>
<!-- Node4&#45;&gt;Node3 -->
<g id="edge3" class="edge">
<title>Node4&#45;&gt;Node3</title>
<path fill="none" stroke="#9a32cd" stroke-dasharray="5,2" d="M169.48,-138.78C183.54,-126.55 203.13,-109.5 216.83,-97.58"/>
<polygon fill="#9a32cd" stroke="#9a32cd" points="167.18,-136.15 161.93,-145.36 171.77,-141.43 167.18,-136.15"/>
<text text-anchor="middle" x="202.5" y="-119" font-family="Helvetica,sans-Serif" font-size="10.00"> ptr</text>
</g>
<!-- Node5 -->
<g id="node5" class="node">
<title>Node5</title>
<g id="a_node5"><a xlink:title="STL class.">
<polygon fill="white" stroke="#bfbfbf" points="119.5,-212.5 119.5,-231.5 184.5,-231.5 184.5,-212.5 119.5,-212.5"/>
<text text-anchor="middle" x="152" y="-219.5" font-family="Helvetica,sans-Serif" font-size="10.00">std::string</text>
</a>
</g>
</g>
<!-- Node5&#45;&gt;Node4 -->
<g id="edge4" class="edge">
<title>Node5&#45;&gt;Node4</title>
<path fill="none" stroke="#9a32cd" stroke-dasharray="5,2" d="M152,-202.04C152,-189.67 152,-174.12 152,-164.63"/>
<polygon fill="#9a32cd" stroke="#9a32cd" points="148.5,-202.23 152,-212.23 155.5,-202.23 148.5,-202.23"/>
<text text-anchor="middle" x="164.5" y="-186" font-family="Helvetica,sans-Serif" font-size="10.00"> type</text>
</g>
<!-- Node6 -->
<g id="node6" class="node">
<title>Node6</title>
<g id="a_node6"><a xlink:title="STL class.">
<polygon fill="white" stroke="#bfbfbf" points="100,-269.5 100,-299.5 204,-299.5 204,-269.5 100,-269.5"/>
<text text-anchor="start" x="108" y="-287.5" font-family="Helvetica,sans-Serif" font-size="10.00">std::basic_string&lt;</text>
<text text-anchor="middle" x="152" y="-276.5" font-family="Helvetica,sans-Serif" font-size="10.00"> char &gt;</text>
</a>
</g>
</g>
<!-- Node6&#45;&gt;Node5 -->
<g id="edge5" class="edge">
<title>Node6&#45;&gt;Node5</title>
<path fill="none" stroke="midnightblue" d="M152,-259.35C152,-249.51 152,-238.78 152,-231.54"/>
<polygon fill="midnightblue" stroke="midnightblue" points="148.5,-259.47 152,-269.47 155.5,-259.47 148.5,-259.47"/>
</g>
<!-- Node7 -->
<g id="node7" class="node">
<title>Node7</title>
<g id="a_node7"><a xlink:title="STL class.">
<polygon fill="white" stroke="#bfbfbf" points="231,-145.5 231,-164.5 349,-164.5 349,-145.5 231,-145.5"/>
<text text-anchor="middle" x="290" y="-152.5" font-family="Helvetica,sans-Serif" font-size="10.00">std::unique_ptr&lt; T &gt;</text>
</a>
</g>
</g>
<!-- Node7&#45;&gt;Node3 -->
<g id="edge6" class="edge">
<title>Node7&#45;&gt;Node3</title>
<path fill="none" stroke="orange" stroke-dasharray="5,2" d="M276.57,-137.39C266.78,-125.28 253.66,-109.05 244.38,-97.58"/>
<polygon fill="orange" stroke="orange" points="274,-139.78 283.01,-145.36 279.45,-135.38 274,-139.78"/>
<text text-anchor="middle" x="332" y="-119" font-family="Helvetica,sans-Serif" font-size="10.00"> &lt; joda::query::Predicate &gt;</text>
</g>
<!-- Node8 -->
<g id="node8" class="node">
<title>Node8</title>
<g id="a_node8"><a xlink:title=" ">
<polygon fill="white" stroke="#bfbfbf" points="275.5,-212.5 275.5,-231.5 304.5,-231.5 304.5,-212.5 275.5,-212.5"/>
<text text-anchor="middle" x="290" y="-219.5" font-family="Helvetica,sans-Serif" font-size="10.00">T</text>
</a>
</g>
</g>
<!-- Node8&#45;&gt;Node7 -->
<g id="edge7" class="edge">
<title>Node8&#45;&gt;Node7</title>
<path fill="none" stroke="#9a32cd" stroke-dasharray="5,2" d="M290,-202.04C290,-189.67 290,-174.12 290,-164.63"/>
<polygon fill="#9a32cd" stroke="#9a32cd" points="286.5,-202.23 290,-212.23 293.5,-202.23 286.5,-202.23"/>
<text text-anchor="middle" x="298.5" y="-186" font-family="Helvetica,sans-Serif" font-size="10.00"> ptr</text>
</g>
</g>
</svg>
