<?xml version="1.0" encoding="UTF-8" standalone="no"?>
<!DOCTYPE svg PUBLIC "-//W3C//DTD SVG 1.1//EN"
 "http://www.w3.org/Graphics/SVG/1.1/DTD/svg11.dtd">
<!-- Generated by graphviz version 2.43.0 (0)
 -->
<!-- Title: joda::queryparsing::grammar::functionState Pages: 1 -->
<svg width="413pt" height="340pt"
 viewBox="0.00 0.00 413.00 340.00" xmlns="http://www.w3.org/2000/svg" xmlns:xlink="http://www.w3.org/1999/xlink">
<g id="graph0" class="graph" transform="scale(1 1) rotate(0) translate(4 336)">
<title>joda::queryparsing::grammar::functionState</title>
<polygon fill="white" stroke="transparent" points="-4,4 -4,-336 409,-336 409,4 -4,4"/>
<!-- Node1 -->
<g id="node1" class="node">
<title>Node1</title>
<g id="a_node1"><a xlink:title=" ">
<polygon fill="#bfbfbf" stroke="black" points="38.5,-78.5 38.5,-108.5 177.5,-108.5 177.5,-78.5 38.5,-78.5"/>
<text text-anchor="start" x="46.5" y="-96.5" font-family="Helvetica,sans-Serif" font-size="10.00">joda::queryparsing</text>
<text text-anchor="middle" x="108" y="-85.5" font-family="Helvetica,sans-Serif" font-size="10.00">::grammar::functionState</text>
</a>
</g>
</g>
<!-- Node2 -->
<g id="node2" class="node">
<title>Node2</title>
<g id="a_node2"><a xlink:title=" ">
<polygon fill="white" stroke="#bfbfbf" points="125,-156.5 125,-186.5 325,-186.5 325,-156.5 125,-156.5"/>
<text text-anchor="start" x="133" y="-174.5" font-family="Helvetica,sans-Serif" font-size="10.00">std::vector&lt; std::unique</text>
<text text-anchor="middle" x="225" y="-163.5" font-family="Helvetica,sans-Serif" font-size="10.00">_ptr&lt; joda::query::IValueProvider &gt; &gt;</text>
</a>
</g>
</g>
<!-- Node2&#45;&gt;Node1 -->
<g id="edge1" class="edge">
<title>Node2&#45;&gt;Node1</title>
<path fill="none" stroke="#9a32cd" stroke-dasharray="5,2" d="M199.97,-150.06C190.24,-142.47 178.83,-134.01 168,-127 157.85,-120.44 146.27,-113.94 136,-108.51"/>
<polygon fill="#9a32cd" stroke="#9a32cd" points="198.03,-152.99 208.05,-156.45 202.38,-147.5 198.03,-152.99"/>
<text text-anchor="middle" x="202" y="-130" font-family="Helvetica,sans-Serif" font-size="10.00"> params</text>
</g>
<!-- Node4 -->
<g id="node4" class="node">
<title>Node4</title>
<g id="a_node4"><a xlink:href="../../d4/df5/classjoda_1_1query_1_1IValueProvider.html" target="_top" xlink:title=" ">
<polygon fill="white" stroke="black" points="195.5,-84 195.5,-103 342.5,-103 342.5,-84 195.5,-84"/>
<text text-anchor="middle" x="269" y="-91" font-family="Helvetica,sans-Serif" font-size="10.00">joda::query::IValueProvider</text>
</a>
</g>
</g>
<!-- Node2&#45;&gt;Node4 -->
<g id="edge4" class="edge">
<title>Node2&#45;&gt;Node4</title>
<path fill="none" stroke="#9a32cd" stroke-dasharray="5,2" d="M238.35,-147.45C247.03,-132.45 257.85,-113.75 264.04,-103.06"/>
<polygon fill="#9a32cd" stroke="#9a32cd" points="235.26,-145.8 233.28,-156.2 241.32,-149.3 235.26,-145.8"/>
<text text-anchor="middle" x="269" y="-130" font-family="Helvetica,sans-Serif" font-size="10.00"> params</text>
</g>
<!-- Node3 -->
<g id="node3" class="node">
<title>Node3</title>
<g id="a_node3"><a xlink:title=" ">
<polygon fill="white" stroke="#bfbfbf" points="200.5,-0.5 200.5,-30.5 337.5,-30.5 337.5,-0.5 200.5,-0.5"/>
<text text-anchor="start" x="208.5" y="-18.5" font-family="Helvetica,sans-Serif" font-size="10.00">std::unique_ptr&lt; joda</text>
<text text-anchor="middle" x="269" y="-7.5" font-family="Helvetica,sans-Serif" font-size="10.00">::query::IValueProvider &gt;</text>
</a>
</g>
</g>
<!-- Node3&#45;&gt;Node2 -->
<g id="edge2" class="edge">
<title>Node3&#45;&gt;Node2</title>
<path fill="none" stroke="#9a32cd" stroke-dasharray="5,2" d="M306.88,-35.71C336.33,-53.35 369.47,-80.95 352,-109 337.3,-132.6 310.67,-147.37 285.58,-156.49"/>
<polygon fill="#9a32cd" stroke="#9a32cd" points="308.34,-32.51 297.92,-30.56 304.85,-38.58 308.34,-32.51"/>
<text text-anchor="middle" x="380.5" y="-91" font-family="Helvetica,sans-Serif" font-size="10.00"> elements</text>
</g>
<!-- Node4&#45;&gt;Node3 -->
<g id="edge3" class="edge">
<title>Node4&#45;&gt;Node3</title>
<path fill="none" stroke="#9a32cd" stroke-dasharray="5,2" d="M269,-73.78C269,-60.4 269,-42.69 269,-30.52"/>
<polygon fill="#9a32cd" stroke="#9a32cd" points="265.5,-73.78 269,-83.78 272.5,-73.78 265.5,-73.78"/>
<text text-anchor="middle" x="277.5" y="-52" font-family="Helvetica,sans-Serif" font-size="10.00"> ptr</text>
</g>
<!-- Node5 -->
<g id="node5" class="node">
<title>Node5</title>
<g id="a_node5"><a xlink:title="STL class.">
<polygon fill="white" stroke="#bfbfbf" points="0,-206.5 0,-225.5 118,-225.5 118,-206.5 0,-206.5"/>
<text text-anchor="middle" x="59" y="-213.5" font-family="Helvetica,sans-Serif" font-size="10.00">std::unique_ptr&lt; T &gt;</text>
</a>
</g>
</g>
<!-- Node5&#45;&gt;Node3 -->
<g id="edge5" class="edge">
<title>Node5&#45;&gt;Node3</title>
<path fill="none" stroke="orange" stroke-dasharray="5,2" d="M43.81,-198.85C31.19,-184.24 14.18,-161.47 7,-138 -0.21,-114.43 25.11,-81.28 29,-78 76.96,-37.62 148.1,-23.29 200.48,-18.43"/>
<polygon fill="orange" stroke="orange" points="41.35,-201.34 50.63,-206.45 46.56,-196.67 41.35,-201.34"/>
<text text-anchor="middle" x="85.5" y="-130" font-family="Helvetica,sans-Serif" font-size="10.00"> &lt; joda::query::IValueProvider &gt;</text>
</g>
<!-- Node6 -->
<g id="node6" class="node">
<title>Node6</title>
<g id="a_node6"><a xlink:title=" ">
<polygon fill="white" stroke="#bfbfbf" points="66.5,-312.5 66.5,-331.5 95.5,-331.5 95.5,-312.5 66.5,-312.5"/>
<text text-anchor="middle" x="81" y="-319.5" font-family="Helvetica,sans-Serif" font-size="10.00">T</text>
</a>
</g>
</g>
<!-- Node6&#45;&gt;Node5 -->
<g id="edge6" class="edge">
<title>Node6&#45;&gt;Node5</title>
<path fill="none" stroke="#9a32cd" stroke-dasharray="5,2" d="M77.07,-302.43C72.28,-279.77 64.37,-242.41 60.83,-225.63"/>
<polygon fill="#9a32cd" stroke="#9a32cd" points="73.71,-303.43 79.2,-312.49 80.55,-301.98 73.71,-303.43"/>
<text text-anchor="middle" x="84.5" y="-286" font-family="Helvetica,sans-Serif" font-size="10.00"> ptr</text>
</g>
<!-- Node7 -->
<g id="node7" class="node">
<title>Node7</title>
<g id="a_node7"><a xlink:title="STL class.">
<polygon fill="white" stroke="#bfbfbf" points="102.5,-245.5 102.5,-264.5 199.5,-264.5 199.5,-245.5 102.5,-245.5"/>
<text text-anchor="middle" x="151" y="-252.5" font-family="Helvetica,sans-Serif" font-size="10.00">std::vector&lt; T &gt;</text>
</a>
</g>
</g>
<!-- Node6&#45;&gt;Node7 -->
<g id="edge8" class="edge">
<title>Node6&#45;&gt;Node7</title>
<path fill="none" stroke="#9a32cd" stroke-dasharray="5,2" d="M97.85,-305.36C111.61,-292.58 130.55,-274.99 141.71,-264.63"/>
<polygon fill="#9a32cd" stroke="#9a32cd" points="95.39,-302.86 90.44,-312.23 100.15,-307.99 95.39,-302.86"/>
<text text-anchor="middle" x="145.5" y="-286" font-family="Helvetica,sans-Serif" font-size="10.00"> elements</text>
</g>
<!-- Node7&#45;&gt;Node2 -->
<g id="edge7" class="edge">
<title>Node7&#45;&gt;Node2</title>
<path fill="none" stroke="orange" stroke-dasharray="5,2" d="M165.72,-237.78C179.3,-222.83 199.27,-200.84 212.2,-186.6"/>
<polygon fill="orange" stroke="orange" points="163.05,-235.52 158.92,-245.28 168.23,-240.23 163.05,-235.52"/>
<text text-anchor="start" x="194" y="-219" font-family="Helvetica,sans-Serif" font-size="10.00"> &lt; std::unique_ptr&lt;</text>
<text text-anchor="middle" x="272.5" y="-208" font-family="Helvetica,sans-Serif" font-size="10.00"> joda::query::IValueProvider &gt; &gt;</text>
</g>
</g>
</svg>
