<?xml version="1.0" encoding="UTF-8" standalone="no"?>
<!DOCTYPE svg PUBLIC "-//W3C//DTD SVG 1.1//EN"
 "http://www.w3.org/Graphics/SVG/1.1/DTD/svg11.dtd">
<!-- Generated by graphviz version 2.43.0 (0)
 -->
<!-- Title: joda::query::BloomAttributeVisitor Pages: 1 -->
<svg width="352pt" height="251pt"
 viewBox="0.00 0.00 352.00 251.00" xmlns="http://www.w3.org/2000/svg" xmlns:xlink="http://www.w3.org/1999/xlink">
<g id="graph0" class="graph" transform="scale(1 1) rotate(0) translate(4 247)">
<title>joda::query::BloomAttributeVisitor</title>
<polygon fill="white" stroke="transparent" points="-4,4 -4,-247 348,-247 348,4 -4,4"/>
<!-- Node1 -->
<g id="node1" class="node">
<title>Node1</title>
<g id="a_node1"><a xlink:title=" ">
<polygon fill="#bfbfbf" stroke="black" points="17.5,-0.5 17.5,-30.5 168.5,-30.5 168.5,-0.5 17.5,-0.5"/>
<text text-anchor="start" x="25.5" y="-18.5" font-family="Helvetica,sans-Serif" font-size="10.00">joda::query::BloomAttribute</text>
<text text-anchor="middle" x="93" y="-7.5" font-family="Helvetica,sans-Serif" font-size="10.00">Visitor</text>
</a>
</g>
</g>
<!-- Node2 -->
<g id="node2" class="node">
<title>Node2</title>
<g id="a_node2"><a xlink:href="../../d4/d83/classjoda_1_1query_1_1PredicateVisitor.html" target="_top" xlink:title=" ">
<polygon fill="white" stroke="black" points="0,-78.5 0,-97.5 154,-97.5 154,-78.5 0,-78.5"/>
<text text-anchor="middle" x="77" y="-85.5" font-family="Helvetica,sans-Serif" font-size="10.00">joda::query::PredicateVisitor</text>
</a>
</g>
</g>
<!-- Node2&#45;&gt;Node1 -->
<g id="edge1" class="edge">
<title>Node2&#45;&gt;Node1</title>
<path fill="none" stroke="midnightblue" d="M81.18,-68.6C83.87,-56.72 87.33,-41.49 89.81,-30.58"/>
<polygon fill="midnightblue" stroke="midnightblue" points="77.76,-67.83 78.96,-78.36 84.59,-69.38 77.76,-67.83"/>
</g>
<!-- Node3 -->
<g id="node3" class="node">
<title>Node3</title>
<g id="a_node3"><a xlink:title=" ">
<polygon fill="white" stroke="#bfbfbf" points="172,-78.5 172,-97.5 312,-97.5 312,-78.5 172,-78.5"/>
<text text-anchor="middle" x="242" y="-85.5" font-family="Helvetica,sans-Serif" font-size="10.00">std::vector&lt; std::string &gt;</text>
</a>
</g>
</g>
<!-- Node3&#45;&gt;Node1 -->
<g id="edge2" class="edge">
<title>Node3&#45;&gt;Node1</title>
<path fill="none" stroke="#9a32cd" stroke-dasharray="5,2" d="M214.73,-74.1C188.65,-61.76 149.43,-43.2 122.6,-30.51"/>
<polygon fill="#9a32cd" stroke="#9a32cd" points="213.49,-77.38 224.03,-78.5 216.48,-71.06 213.49,-77.38"/>
<text text-anchor="middle" x="206.5" y="-52" font-family="Helvetica,sans-Serif" font-size="10.00"> attributes</text>
</g>
<!-- Node4 -->
<g id="node4" class="node">
<title>Node4</title>
<g id="a_node4"><a xlink:title=" ">
<polygon fill="white" stroke="#bfbfbf" points="157.5,-145.5 157.5,-164.5 222.5,-164.5 222.5,-145.5 157.5,-145.5"/>
<text text-anchor="middle" x="190" y="-152.5" font-family="Helvetica,sans-Serif" font-size="10.00">std::string</text>
</a>
</g>
</g>
<!-- Node4&#45;&gt;Node3 -->
<g id="edge3" class="edge">
<title>Node4&#45;&gt;Node3</title>
<path fill="none" stroke="#9a32cd" stroke-dasharray="5,2" d="M197.8,-135.8C201.06,-129.22 205.22,-121.95 210,-116 215.65,-108.98 223.33,-102.42 229.76,-97.53"/>
<polygon fill="#9a32cd" stroke="#9a32cd" points="194.43,-134.74 193.44,-145.28 200.79,-137.66 194.43,-134.74"/>
<text text-anchor="middle" x="234.5" y="-119" font-family="Helvetica,sans-Serif" font-size="10.00"> elements</text>
</g>
<!-- Node5 -->
<g id="node5" class="node">
<title>Node5</title>
<g id="a_node5"><a xlink:title=" ">
<polygon fill="white" stroke="#bfbfbf" points="138,-212.5 138,-242.5 242,-242.5 242,-212.5 138,-212.5"/>
<text text-anchor="start" x="146" y="-230.5" font-family="Helvetica,sans-Serif" font-size="10.00">std::basic_string&lt;</text>
<text text-anchor="middle" x="190" y="-219.5" font-family="Helvetica,sans-Serif" font-size="10.00"> Char &gt;</text>
</a>
</g>
</g>
<!-- Node5&#45;&gt;Node4 -->
<g id="edge4" class="edge">
<title>Node5&#45;&gt;Node4</title>
<path fill="none" stroke="midnightblue" d="M190,-202.09C190,-189.21 190,-174.2 190,-164.89"/>
<polygon fill="midnightblue" stroke="midnightblue" points="186.5,-202.23 190,-212.23 193.5,-202.23 186.5,-202.23"/>
</g>
<!-- Node6 -->
<g id="node6" class="node">
<title>Node6</title>
<g id="a_node6"><a xlink:title=" ">
<polygon fill="white" stroke="#bfbfbf" points="240.5,-145.5 240.5,-164.5 337.5,-164.5 337.5,-145.5 240.5,-145.5"/>
<text text-anchor="middle" x="289" y="-152.5" font-family="Helvetica,sans-Serif" font-size="10.00">std::vector&lt; T &gt;</text>
</a>
</g>
</g>
<!-- Node6&#45;&gt;Node3 -->
<g id="edge5" class="edge">
<title>Node6&#45;&gt;Node3</title>
<path fill="none" stroke="orange" stroke-dasharray="5,2" d="M276.64,-136.9C267.51,-124.27 255.45,-107.6 248.24,-97.63"/>
<polygon fill="orange" stroke="orange" points="273.97,-139.18 282.66,-145.23 279.64,-135.08 273.97,-139.18"/>
<text text-anchor="middle" x="306.5" y="-119" font-family="Helvetica,sans-Serif" font-size="10.00"> &lt; std::string &gt;</text>
</g>
<!-- Node7 -->
<g id="node7" class="node">
<title>Node7</title>
<g id="a_node7"><a xlink:title=" ">
<polygon fill="white" stroke="#bfbfbf" points="274.5,-218 274.5,-237 303.5,-237 303.5,-218 274.5,-218"/>
<text text-anchor="middle" x="289" y="-225" font-family="Helvetica,sans-Serif" font-size="10.00">T</text>
</a>
</g>
</g>
<!-- Node7&#45;&gt;Node6 -->
<g id="edge6" class="edge">
<title>Node7&#45;&gt;Node6</title>
<path fill="none" stroke="#9a32cd" stroke-dasharray="5,2" d="M289,-207.44C289,-193.53 289,-175.32 289,-164.72"/>
<polygon fill="#9a32cd" stroke="#9a32cd" points="285.5,-207.86 289,-217.86 292.5,-207.86 285.5,-207.86"/>
<text text-anchor="middle" x="313.5" y="-186" font-family="Helvetica,sans-Serif" font-size="10.00"> elements</text>
</g>
</g>
</svg>
