<?xml version="1.0" encoding="UTF-8" standalone="no"?>
<!DOCTYPE svg PUBLIC "-//W3C//DTD SVG 1.1//EN"
 "http://www.w3.org/Graphics/SVG/1.1/DTD/svg11.dtd">
<!-- Generated by graphviz version 2.43.0 (0)
 -->
<!-- Title: joda::queryparsing::grammar::pointer Pages: 1 -->
<svg width="510pt" height="284pt"
 viewBox="0.00 0.00 510.00 284.00" xmlns="http://www.w3.org/2000/svg" xmlns:xlink="http://www.w3.org/1999/xlink">
<g id="graph0" class="graph" transform="scale(1 1) rotate(0) translate(4 280)">
<title>joda::queryparsing::grammar::pointer</title>
<polygon fill="white" stroke="transparent" points="-4,4 -4,-280 506,-280 506,4 -4,4"/>
<!-- Node1 -->
<g id="node1" class="node">
<title>Node1</title>
<g id="a_node1"><a xlink:title=" ">
<polygon fill="#bfbfbf" stroke="black" points="191,-122.5 191,-152.5 299,-152.5 299,-122.5 191,-122.5"/>
<text text-anchor="start" x="199" y="-140.5" font-family="Helvetica,sans-Serif" font-size="10.00">joda::queryparsing</text>
<text text-anchor="middle" x="245" y="-129.5" font-family="Helvetica,sans-Serif" font-size="10.00">::grammar::pointer</text>
</a>
</g>
</g>
<!-- Node3 -->
<g id="node3" class="node">
<title>Node3</title>
<g id="a_node3"><a xlink:href="../../d2/dca/structjoda_1_1queryparsing_1_1grammar_1_1aggFromPointer.html" target="_top" xlink:title=" ">
<polygon fill="white" stroke="black" points="343,-245.5 343,-275.5 494,-275.5 494,-245.5 343,-245.5"/>
<text text-anchor="start" x="351" y="-263.5" font-family="Helvetica,sans-Serif" font-size="10.00">joda::queryparsing</text>
<text text-anchor="middle" x="418.5" y="-252.5" font-family="Helvetica,sans-Serif" font-size="10.00">::grammar::aggFromPointer</text>
</a>
</g>
</g>
<!-- Node1&#45;&gt;Node3 -->
<g id="edge2" class="edge">
<title>Node1&#45;&gt;Node3</title>
<path fill="none" stroke="midnightblue" d="M261.27,-160.99C277.12,-183.54 303.9,-216.97 335,-236.5 340.43,-239.91 346.37,-242.85 352.48,-245.39"/>
<polygon fill="midnightblue" stroke="midnightblue" points="264.1,-158.92 255.56,-152.64 258.32,-162.87 264.1,-158.92"/>
</g>
<!-- Node4 -->
<g id="node4" class="node">
<title>Node4</title>
<g id="a_node4"><a xlink:href="../../d5/da2/structjoda_1_1queryparsing_1_1grammar_1_1aggToPointer.html" target="_top" xlink:title=" ">
<polygon fill="white" stroke="black" points="350,-196.5 350,-226.5 487,-226.5 487,-196.5 350,-196.5"/>
<text text-anchor="start" x="358" y="-214.5" font-family="Helvetica,sans-Serif" font-size="10.00">joda::queryparsing</text>
<text text-anchor="middle" x="418.5" y="-203.5" font-family="Helvetica,sans-Serif" font-size="10.00">::grammar::aggToPointer</text>
</a>
</g>
</g>
<!-- Node1&#45;&gt;Node4 -->
<g id="edge3" class="edge">
<title>Node1&#45;&gt;Node4</title>
<path fill="none" stroke="midnightblue" d="M278.14,-157.92C294.67,-167.8 315.42,-179.28 335,-187.5 342.7,-190.73 350.98,-193.7 359.22,-196.36"/>
<polygon fill="midnightblue" stroke="midnightblue" points="279.79,-154.82 269.42,-152.62 276.15,-160.8 279.79,-154.82"/>
</g>
<!-- Node5 -->
<g id="node5" class="node">
<title>Node5</title>
<g id="a_node5"><a xlink:href="../../dd/d7f/structjoda_1_1queryparsing_1_1grammar_1_1funcPtr.html" target="_top" xlink:title=" ">
<polygon fill="white" stroke="black" points="364.5,-147.5 364.5,-177.5 472.5,-177.5 472.5,-147.5 364.5,-147.5"/>
<text text-anchor="start" x="372.5" y="-165.5" font-family="Helvetica,sans-Serif" font-size="10.00">joda::queryparsing</text>
<text text-anchor="middle" x="418.5" y="-154.5" font-family="Helvetica,sans-Serif" font-size="10.00">::grammar::funcPtr</text>
</a>
</g>
</g>
<!-- Node1&#45;&gt;Node5 -->
<g id="edge4" class="edge">
<title>Node1&#45;&gt;Node5</title>
<path fill="none" stroke="midnightblue" d="M309.45,-146.75C327.45,-149.37 346.87,-152.2 364.21,-154.73"/>
<polygon fill="midnightblue" stroke="midnightblue" points="309.72,-143.25 299.32,-145.27 308.71,-150.18 309.72,-143.25"/>
</g>
<!-- Node6 -->
<g id="node6" class="node">
<title>Node6</title>
<g id="a_node6"><a xlink:href="../../d0/d55/structjoda_1_1queryparsing_1_1grammar_1_1groupPointer.html" target="_top" xlink:title=" ">
<polygon fill="white" stroke="black" points="350.5,-98.5 350.5,-128.5 486.5,-128.5 486.5,-98.5 350.5,-98.5"/>
<text text-anchor="start" x="358.5" y="-116.5" font-family="Helvetica,sans-Serif" font-size="10.00">joda::queryparsing</text>
<text text-anchor="middle" x="418.5" y="-105.5" font-family="Helvetica,sans-Serif" font-size="10.00">::grammar::groupPointer</text>
</a>
</g>
</g>
<!-- Node1&#45;&gt;Node6 -->
<g id="edge5" class="edge">
<title>Node1&#45;&gt;Node6</title>
<path fill="none" stroke="midnightblue" d="M309.35,-128.63C322.69,-126.77 336.8,-124.79 350.28,-122.91"/>
<polygon fill="midnightblue" stroke="midnightblue" points="308.74,-125.19 299.32,-130.04 309.71,-132.12 308.74,-125.19"/>
</g>
<!-- Node7 -->
<g id="node7" class="node">
<title>Node7</title>
<g id="a_node7"><a xlink:href="../../d6/d46/structjoda_1_1queryparsing_1_1grammar_1_1projectFromPointer.html" target="_top" xlink:title=" ">
<polygon fill="white" stroke="black" points="335,-49.5 335,-79.5 502,-79.5 502,-49.5 335,-49.5"/>
<text text-anchor="start" x="343" y="-67.5" font-family="Helvetica,sans-Serif" font-size="10.00">joda::queryparsing</text>
<text text-anchor="middle" x="418.5" y="-56.5" font-family="Helvetica,sans-Serif" font-size="10.00">::grammar::projectFromPointer</text>
</a>
</g>
</g>
<!-- Node1&#45;&gt;Node7 -->
<g id="edge6" class="edge">
<title>Node1&#45;&gt;Node7</title>
<path fill="none" stroke="midnightblue" d="M278.54,-117.32C295.03,-107.69 315.62,-96.54 335,-88.5 342.85,-85.24 351.3,-82.25 359.69,-79.56"/>
<polygon fill="midnightblue" stroke="midnightblue" points="276.65,-114.37 269.84,-122.49 280.22,-120.39 276.65,-114.37"/>
</g>
<!-- Node8 -->
<g id="node8" class="node">
<title>Node8</title>
<g id="a_node8"><a xlink:href="../../df/d52/structjoda_1_1queryparsing_1_1grammar_1_1projectToPointer.html" target="_top" xlink:title=" ">
<polygon fill="white" stroke="black" points="342.5,-0.5 342.5,-30.5 494.5,-30.5 494.5,-0.5 342.5,-0.5"/>
<text text-anchor="start" x="350.5" y="-18.5" font-family="Helvetica,sans-Serif" font-size="10.00">joda::queryparsing</text>
<text text-anchor="middle" x="418.5" y="-7.5" font-family="Helvetica,sans-Serif" font-size="10.00">::grammar::projectToPointer</text>
</a>
</g>
</g>
<!-- Node1&#45;&gt;Node8 -->
<g id="edge7" class="edge">
<title>Node1&#45;&gt;Node8</title>
<path fill="none" stroke="midnightblue" d="M261.59,-113.88C277.51,-91.57 304.2,-58.74 335,-39.5 340.44,-36.1 346.38,-33.17 352.5,-30.64"/>
<polygon fill="midnightblue" stroke="midnightblue" points="258.68,-111.94 255.84,-122.15 264.42,-115.94 258.68,-111.94"/>
</g>
<!-- Node2 -->
<g id="node2" class="node">
<title>Node2</title>
<g id="a_node2"><a xlink:title=" ">
<polygon fill="white" stroke="#bfbfbf" points="0,-100.5 0,-174.5 155,-174.5 155,-100.5 0,-100.5"/>
<text text-anchor="start" x="8" y="-162.5" font-family="Helvetica,sans-Serif" font-size="10.00">tao::pegtl::seq&lt; tao</text>
<text text-anchor="start" x="8" y="-151.5" font-family="Helvetica,sans-Serif" font-size="10.00">::pegtl::one&lt;&#39;\&#39;&gt;, tao</text>
<text text-anchor="start" x="8" y="-140.5" font-family="Helvetica,sans-Serif" font-size="10.00">::pegtl::star&lt; tao::pegtl</text>
<text text-anchor="start" x="8" y="-129.5" font-family="Helvetica,sans-Serif" font-size="10.00">::seq&lt; tao::pegtl::one&lt;&#39;</text>
<text text-anchor="start" x="8" y="-118.5" font-family="Helvetica,sans-Serif" font-size="10.00">/&#39;&gt;, referenceToken &gt; &gt;, tao</text>
<text text-anchor="middle" x="77.5" y="-107.5" font-family="Helvetica,sans-Serif" font-size="10.00">::pegtl::one&lt;&#39;\&#39;&gt; &gt;</text>
</a>
</g>
</g>
<!-- Node2&#45;&gt;Node1 -->
<g id="edge1" class="edge">
<title>Node2&#45;&gt;Node1</title>
<path fill="none" stroke="midnightblue" d="M165.57,-137.5C174.19,-137.5 182.75,-137.5 190.87,-137.5"/>
<polygon fill="midnightblue" stroke="midnightblue" points="165.44,-134 155.44,-137.5 165.44,-141 165.44,-134"/>
</g>
</g>
</svg>
