<?xml version="1.0" encoding="UTF-8" standalone="no"?>
<!DOCTYPE svg PUBLIC "-//W3C//DTD SVG 1.1//EN"
 "http://www.w3.org/Graphics/SVG/1.1/DTD/svg11.dtd">
<!-- Generated by graphviz version 2.43.0 (0)
 -->
<!-- Title: joda::network::JodaServer::handleError Pages: 1 -->
<svg width="1040pt" height="282pt"
 viewBox="0.00 0.00 1040.00 281.50" xmlns="http://www.w3.org/2000/svg" xmlns:xlink="http://www.w3.org/1999/xlink">
<g id="graph0" class="graph" transform="scale(1 1) rotate(0) translate(4 277.5)">
<title>joda::network::JodaServer::handleError</title>
<polygon fill="white" stroke="transparent" points="-4,4 -4,-277.5 1036,-277.5 1036,4 -4,4"/>
<!-- Node1 -->
<g id="node1" class="node">
<title>Node1</title>
<g id="a_node1"><a xlink:title=" ">
<polygon fill="#bfbfbf" stroke="black" points="890,-115 890,-145 1032,-145 1032,-115 890,-115"/>
<text text-anchor="start" x="898" y="-133" font-family="Helvetica,sans-Serif" font-size="10.00">joda::network::JodaServer</text>
<text text-anchor="middle" x="961" y="-122" font-family="Helvetica,sans-Serif" font-size="10.00">::handleError</text>
</a>
</g>
</g>
<!-- Node2 -->
<g id="node2" class="node">
<title>Node2</title>
<g id="a_node2"><a xlink:href="../../de/d2d/classjoda_1_1network_1_1apiv2_1_1DeleteRequest.html#a7937841c57188e461f04be9aec58a938" target="_top" xlink:title=" ">
<polygon fill="white" stroke="black" points="697,-208 697,-238 852,-238 852,-208 697,-208"/>
<text text-anchor="start" x="705" y="-226" font-family="Helvetica,sans-Serif" font-size="10.00">joda::network::apiv2</text>
<text text-anchor="middle" x="774.5" y="-215" font-family="Helvetica,sans-Serif" font-size="10.00">::DeleteRequest::getHandler</text>
</a>
</g>
</g>
<!-- Node1&#45;&gt;Node2 -->
<g id="edge1" class="edge">
<title>Node1&#45;&gt;Node2</title>
<path fill="none" stroke="midnightblue" d="M931.97,-151.37C911.31,-166.33 882.03,-185.91 854,-199 846.9,-202.32 839.22,-205.32 831.55,-207.98"/>
<polygon fill="midnightblue" stroke="midnightblue" points="934.29,-154.01 940.28,-145.27 930.14,-148.37 934.29,-154.01"/>
</g>
<!-- Node8 -->
<g id="node8" class="node">
<title>Node8</title>
<g id="a_node8"><a xlink:href="../../de/d5e/classjoda_1_1network_1_1apiv2_1_1SystemRequest.html#a684e9624520540aab193f5ac193fb4b4" target="_top" xlink:title=" ">
<polygon fill="white" stroke="black" points="695,-159 695,-189 854,-189 854,-159 695,-159"/>
<text text-anchor="start" x="703" y="-177" font-family="Helvetica,sans-Serif" font-size="10.00">joda::network::apiv2</text>
<text text-anchor="middle" x="774.5" y="-166" font-family="Helvetica,sans-Serif" font-size="10.00">::SystemRequest::getHandler</text>
</a>
</g>
</g>
<!-- Node1&#45;&gt;Node8 -->
<g id="edge7" class="edge">
<title>Node1&#45;&gt;Node8</title>
<path fill="none" stroke="midnightblue" d="M887.14,-147.38C871.06,-151.21 854.16,-155.24 838.51,-158.97"/>
<polygon fill="midnightblue" stroke="midnightblue" points="888.11,-150.74 897.02,-145.02 886.48,-143.93 888.11,-150.74"/>
</g>
<!-- Node10 -->
<g id="node10" class="node">
<title>Node10</title>
<g id="a_node10"><a xlink:href="../../d1/d50/classjoda_1_1network_1_1apiv2_1_1JodaQueryRequest.html#a631c68c8098c888e45a67a7ed252f164" target="_top" xlink:title=" ">
<polygon fill="white" stroke="black" points="490.5,-106.5 490.5,-147.5 646.5,-147.5 646.5,-106.5 490.5,-106.5"/>
<text text-anchor="start" x="498.5" y="-135.5" font-family="Helvetica,sans-Serif" font-size="10.00">joda::network::apiv2</text>
<text text-anchor="start" x="498.5" y="-124.5" font-family="Helvetica,sans-Serif" font-size="10.00">::JodaQueryRequest::register</text>
<text text-anchor="middle" x="568.5" y="-113.5" font-family="Helvetica,sans-Serif" font-size="10.00">Endpoint</text>
</a>
</g>
</g>
<!-- Node1&#45;&gt;Node10 -->
<g id="edge9" class="edge">
<title>Node1&#45;&gt;Node10</title>
<path fill="none" stroke="midnightblue" d="M879.45,-129.38C811.15,-128.86 713.84,-128.11 646.56,-127.59"/>
<polygon fill="midnightblue" stroke="midnightblue" points="879.71,-132.88 889.74,-129.46 879.76,-125.88 879.71,-132.88"/>
</g>
<!-- Node11 -->
<g id="node11" class="node">
<title>Node11</title>
<g id="a_node11"><a xlink:href="../../d7/dbc/classjoda_1_1network_1_1apiv2_1_1JodaResultRequest.html#a8c0da8fa0d5e0c4e8f1c7b53d5ea5cb7" target="_top" xlink:title=" ">
<polygon fill="white" stroke="black" points="714.5,-60.5 714.5,-101.5 834.5,-101.5 834.5,-60.5 714.5,-60.5"/>
<text text-anchor="start" x="722.5" y="-89.5" font-family="Helvetica,sans-Serif" font-size="10.00">joda::network::apiv2</text>
<text text-anchor="start" x="722.5" y="-78.5" font-family="Helvetica,sans-Serif" font-size="10.00">::JodaResultRequest::</text>
<text text-anchor="middle" x="774.5" y="-67.5" font-family="Helvetica,sans-Serif" font-size="10.00">registerEndpoint</text>
</a>
</g>
</g>
<!-- Node1&#45;&gt;Node11 -->
<g id="edge11" class="edge">
<title>Node1&#45;&gt;Node11</title>
<path fill="none" stroke="midnightblue" d="M893.48,-112.33C874.22,-107.22 853.33,-101.67 834.56,-96.68"/>
<polygon fill="midnightblue" stroke="midnightblue" points="892.83,-115.78 903.39,-114.97 894.62,-109.02 892.83,-115.78"/>
</g>
<!-- Node12 -->
<g id="node12" class="node">
<title>Node12</title>
<g id="a_node12"><a xlink:href="../../d7/d6e/classjoda_1_1network_1_1apiv2_1_1JodaSourceRequest.html#a7308b830810159a078b37d147e99ab42" target="_top" xlink:title=" ">
<polygon fill="white" stroke="black" points="713.5,-0.5 713.5,-41.5 835.5,-41.5 835.5,-0.5 713.5,-0.5"/>
<text text-anchor="start" x="721.5" y="-29.5" font-family="Helvetica,sans-Serif" font-size="10.00">joda::network::apiv2</text>
<text text-anchor="start" x="721.5" y="-18.5" font-family="Helvetica,sans-Serif" font-size="10.00">::JodaSourceRequest::</text>
<text text-anchor="middle" x="774.5" y="-7.5" font-family="Helvetica,sans-Serif" font-size="10.00">registerEndpoint</text>
</a>
</g>
</g>
<!-- Node1&#45;&gt;Node12 -->
<g id="edge13" class="edge">
<title>Node1&#45;&gt;Node12</title>
<path fill="none" stroke="midnightblue" d="M935.34,-108.53C914.67,-91.31 883.83,-67.4 854,-51 847.86,-47.63 841.27,-44.46 834.6,-41.55"/>
<polygon fill="midnightblue" stroke="midnightblue" points="933.11,-111.23 943.01,-115 937.63,-105.88 933.11,-111.23"/>
</g>
<!-- Node3 -->
<g id="node3" class="node">
<title>Node3</title>
<g id="a_node3"><a xlink:href="../../de/d2d/classjoda_1_1network_1_1apiv2_1_1DeleteRequest.html#a6f26cc2d22ee53550cb69a9b44ae07ff" target="_top" xlink:title=" ">
<polygon fill="white" stroke="black" points="478,-243 478,-273 659,-273 659,-243 478,-243"/>
<text text-anchor="start" x="486" y="-261" font-family="Helvetica,sans-Serif" font-size="10.00">joda::network::apiv2</text>
<text text-anchor="middle" x="568.5" y="-250" font-family="Helvetica,sans-Serif" font-size="10.00">::DeleteRequest::registerEndpoint</text>
</a>
</g>
</g>
<!-- Node2&#45;&gt;Node3 -->
<g id="edge2" class="edge">
<title>Node2&#45;&gt;Node3</title>
<path fill="none" stroke="midnightblue" d="M686.8,-237.88C676.97,-239.56 666.95,-241.28 657.1,-242.97"/>
<polygon fill="midnightblue" stroke="midnightblue" points="687.69,-241.27 696.96,-236.13 686.51,-234.37 687.69,-241.27"/>
</g>
<!-- Node7 -->
<g id="node7" class="node">
<title>Node7</title>
<g id="a_node7"><a xlink:href="../../dd/d71/API2Test_8cpp.html#aff7e9d5bb0d79eba984298d2b28e9657" target="_top" xlink:title=" ">
<polygon fill="white" stroke="black" points="542.5,-204.5 542.5,-223.5 594.5,-223.5 594.5,-204.5 542.5,-204.5"/>
<text text-anchor="middle" x="568.5" y="-211.5" font-family="Helvetica,sans-Serif" font-size="10.00">TEST_F</text>
</a>
</g>
</g>
<!-- Node2&#45;&gt;Node7 -->
<g id="edge6" class="edge">
<title>Node2&#45;&gt;Node7</title>
<path fill="none" stroke="midnightblue" d="M686.68,-219.17C653.27,-217.7 617.65,-216.12 594.57,-215.11"/>
<polygon fill="midnightblue" stroke="midnightblue" points="686.81,-222.68 696.96,-219.62 687.12,-215.69 686.81,-222.68"/>
</g>
<!-- Node4 -->
<g id="node4" class="node">
<title>Node4</title>
<g id="a_node4"><a xlink:href="../../de/d20/classjoda_1_1network_1_1apiv2_1_1API.html#aa507e6df3a9365ad85cc2f9ceee7fde0" target="_top" xlink:title=" ">
<polygon fill="white" stroke="black" points="317,-87 317,-117 442,-117 442,-87 317,-87"/>
<text text-anchor="start" x="325" y="-105" font-family="Helvetica,sans-Serif" font-size="10.00">joda::network::apiv2</text>
<text text-anchor="middle" x="379.5" y="-94" font-family="Helvetica,sans-Serif" font-size="10.00">::API::registerEndpoint</text>
</a>
</g>
</g>
<!-- Node3&#45;&gt;Node4 -->
<g id="edge3" class="edge">
<title>Node3&#45;&gt;Node4</title>
<path fill="none" stroke="midnightblue" d="M487.05,-238.48C483.91,-236.8 480.88,-234.98 478,-233 433.36,-202.35 401.06,-144.51 387.53,-117.12"/>
<polygon fill="midnightblue" stroke="midnightblue" points="485.62,-241.67 496.15,-242.84 488.64,-235.36 485.62,-241.67"/>
</g>
<!-- Node5 -->
<g id="node5" class="node">
<title>Node5</title>
<g id="a_node5"><a xlink:href="../../d2/d58/classjoda_1_1network_1_1JodaServer.html#a6daa04d05fb0ea17cbc089d437b4e8f7" target="_top" xlink:title=" ">
<polygon fill="white" stroke="black" points="139,-87 139,-117 281,-117 281,-87 139,-87"/>
<text text-anchor="start" x="147" y="-105" font-family="Helvetica,sans-Serif" font-size="10.00">joda::network::JodaServer</text>
<text text-anchor="middle" x="210" y="-94" font-family="Helvetica,sans-Serif" font-size="10.00">::start</text>
</a>
</g>
</g>
<!-- Node4&#45;&gt;Node5 -->
<g id="edge4" class="edge">
<title>Node4&#45;&gt;Node5</title>
<path fill="none" stroke="midnightblue" d="M306.46,-102C298.05,-102 289.49,-102 281.11,-102"/>
<polygon fill="midnightblue" stroke="midnightblue" points="306.61,-105.5 316.61,-102 306.61,-98.5 306.61,-105.5"/>
</g>
<!-- Node6 -->
<g id="node6" class="node">
<title>Node6</title>
<g id="a_node6"><a xlink:href="../../d5/db5/classServerTest.html#ae8f344926e05c7c4262db83aa54a548a" target="_top" xlink:title=" ">
<polygon fill="white" stroke="black" points="0,-92.5 0,-111.5 103,-111.5 103,-92.5 0,-92.5"/>
<text text-anchor="middle" x="51.5" y="-99.5" font-family="Helvetica,sans-Serif" font-size="10.00">ServerTest::SetUp</text>
</a>
</g>
</g>
<!-- Node5&#45;&gt;Node6 -->
<g id="edge5" class="edge">
<title>Node5&#45;&gt;Node6</title>
<path fill="none" stroke="midnightblue" d="M128.79,-102C120.09,-102 111.43,-102 103.22,-102"/>
<polygon fill="midnightblue" stroke="midnightblue" points="128.99,-105.5 138.99,-102 128.99,-98.5 128.99,-105.5"/>
</g>
<!-- Node9 -->
<g id="node9" class="node">
<title>Node9</title>
<g id="a_node9"><a xlink:href="../../dd/d71/API2Test_8cpp.html#a38f21591608ce606752bbe555000f1f4" target="_top" xlink:title=" ">
<polygon fill="white" stroke="black" points="542.5,-166.5 542.5,-185.5 594.5,-185.5 594.5,-166.5 542.5,-166.5"/>
<text text-anchor="middle" x="568.5" y="-173.5" font-family="Helvetica,sans-Serif" font-size="10.00">TEST_F</text>
</a>
</g>
</g>
<!-- Node8&#45;&gt;Node9 -->
<g id="edge8" class="edge">
<title>Node8&#45;&gt;Node9</title>
<path fill="none" stroke="midnightblue" d="M684.79,-174.87C651.91,-175.19 617.15,-175.53 594.5,-175.75"/>
<polygon fill="midnightblue" stroke="midnightblue" points="684.95,-178.37 694.92,-174.77 684.89,-171.37 684.95,-178.37"/>
</g>
<!-- Node10&#45;&gt;Node4 -->
<g id="edge10" class="edge">
<title>Node10&#45;&gt;Node4</title>
<path fill="none" stroke="midnightblue" d="M480.1,-115.32C467.25,-113.6 454.24,-111.86 442.05,-110.23"/>
<polygon fill="midnightblue" stroke="midnightblue" points="479.98,-118.83 490.36,-116.69 480.91,-111.89 479.98,-118.83"/>
</g>
<!-- Node11&#45;&gt;Node4 -->
<g id="edge12" class="edge">
<title>Node11&#45;&gt;Node4</title>
<path fill="none" stroke="midnightblue" d="M704.06,-84.71C629.84,-88.68 513.29,-94.9 442.19,-98.7"/>
<polygon fill="midnightblue" stroke="midnightblue" points="704.44,-88.2 714.24,-84.17 704.07,-81.21 704.44,-88.2"/>
</g>
<!-- Node12&#45;&gt;Node4 -->
<g id="edge14" class="edge">
<title>Node12&#45;&gt;Node4</title>
<path fill="none" stroke="midnightblue" d="M703.19,-35.49C628.95,-50.79 513.05,-74.68 442.23,-89.28"/>
<polygon fill="midnightblue" stroke="midnightblue" points="704.3,-38.84 713.38,-33.39 702.88,-31.98 704.3,-38.84"/>
</g>
</g>
</svg>
