<?xml version="1.0" encoding="UTF-8" standalone="no"?>
<!DOCTYPE svg PUBLIC "-//W3C//DTD SVG 1.1//EN"
 "http://www.w3.org/Graphics/SVG/1.1/DTD/svg11.dtd">
<!-- Generated by graphviz version 2.43.0 (0)
 -->
<!-- Title: /home/nico/projects/JODA&#45;gh/libs/joda/core/modules/queryparsing/src/grammar/Agg.h Pages: 1 -->
<!--zoomable 417 -->
<svg id="main" version="1.1" xmlns="http://www.w3.org/2000/svg" xmlns:xlink="http://www.w3.org/1999/xlink" xml:space="preserve" onload="init(evt)">
<style type="text/css"><![CDATA[
.edge:hover path { stroke: red; }
.edge:hover polygon { stroke: red; fill: red; }
]]></style>
<script type="text/javascript"><![CDATA[
var edges = document.getElementsByTagName('g');
if (edges && edges.length) {
  for (var i=0;i<edges.length;i++) {
    if (edges[i].id.substr(0,4)=='edge') {
      edges[i].setAttribute('class','edge');
    }
  }
}
]]></script>
        <defs>
                <circle id="rim" cx="0" cy="0" r="7"/>
                <circle id="rim2" cx="0" cy="0" r="3.5"/>
                <g id="zoomPlus">
                        <use xlink:href="#rim" fill="#404040">
                                <set attributeName="fill" to="#808080" begin="zoomplus.mouseover" end="zoomplus.mouseout"/>
                        </use>
                        <path d="M-4,0h8M0,-4v8" fill="none" stroke="white" stroke-width="1.5" pointer-events="none"/>
                </g>
                <g id="zoomMin">
                        <use xlink:href="#rim" fill="#404040">
                                <set attributeName="fill" to="#808080" begin="zoomminus.mouseover" end="zoomminus.mouseout"/>
                        </use>
                        <path d="M-4,0h8" fill="none" stroke="white" stroke-width="1.5" pointer-events="none"/>
                </g>
                <g id="dirArrow">
                        <path fill="none" stroke="white" stroke-width="1.5" d="M0,-3.0v7 M-2.5,-0.5L0,-3.0L2.5,-0.5"/>
                </g>
               <g id="resetDef">
                       <use xlink:href="#rim2" fill="#404040">
                               <set attributeName="fill" to="#808080" begin="reset.mouseover" end="reset.mouseout"/>
                       </use>
               </g>
        </defs>

<script type="text/javascript">
var viewWidth = 1015;
var viewHeight = 417;
var sectionId = 'dynsection-1';
</script>
<script xlink:href="../../svgpan.js"/>
<svg id="graph" class="graph">
<g id="viewport">
<title>/home/nico/projects/JODA&#45;gh/libs/joda/core/modules/queryparsing/src/grammar/Agg.h</title>
<polygon fill="white" stroke="transparent" points="-4,4 -4,-413 1010.65,-413 1010.65,4 -4,4"/>
<!-- Node1 -->
<g id="node1" class="node">
<title>Node1</title>
<g id="a_node1"><a xlink:title=" ">
<polygon fill="#bfbfbf" stroke="black" points="430.69,-356.5 430.69,-408.5 576.69,-408.5 576.69,-356.5 430.69,-356.5"/>
<text text-anchor="start" x="438.69" y="-396.5" font-family="Helvetica,sans-Serif" font-size="10.00">/home/nico/projects</text>
<text text-anchor="start" x="438.69" y="-385.5" font-family="Helvetica,sans-Serif" font-size="10.00">/JODA&#45;gh/libs/joda/core</text>
<text text-anchor="start" x="438.69" y="-374.5" font-family="Helvetica,sans-Serif" font-size="10.00">/modules/queryparsing/src</text>
<text text-anchor="middle" x="503.69" y="-363.5" font-family="Helvetica,sans-Serif" font-size="10.00">/grammar/Agg.h</text>
</a>
</g>
</g>
<!-- Node2 -->
<g id="node2" class="node">
<title>Node2</title>
<g id="a_node2"><a xlink:href="../../d4/d03/Grammar_8h.html" target="_top" xlink:title=" ">
<polygon fill="white" stroke="black" points="430.69,-267.5 430.69,-319.5 576.69,-319.5 576.69,-267.5 430.69,-267.5"/>
<text text-anchor="start" x="438.69" y="-307.5" font-family="Helvetica,sans-Serif" font-size="10.00">/home/nico/projects</text>
<text text-anchor="start" x="438.69" y="-296.5" font-family="Helvetica,sans-Serif" font-size="10.00">/JODA&#45;gh/libs/joda/core</text>
<text text-anchor="start" x="438.69" y="-285.5" font-family="Helvetica,sans-Serif" font-size="10.00">/modules/queryparsing/src</text>
<text text-anchor="middle" x="503.69" y="-274.5" font-family="Helvetica,sans-Serif" font-size="10.00">/grammar/Grammar.h</text>
</a>
</g>
</g>
<!-- Node1&#45;&gt;Node2 -->
<g id="edge1" class="edge">
<title>Node1&#45;&gt;Node2</title>
<path fill="none" stroke="midnightblue" d="M503.69,-346.19C503.69,-337.28 503.69,-327.9 503.69,-319.61"/>
<polygon fill="midnightblue" stroke="midnightblue" points="500.19,-346.34 503.69,-356.34 507.19,-346.34 500.19,-346.34"/>
</g>
<!-- Node3 -->
<g id="node3" class="node">
<title>Node3</title>
<g id="a_node3"><a xlink:href="../../de/db3/Actions_8h.html" target="_top" xlink:title=" ">
<polygon fill="white" stroke="black" points="430.69,-89.5 430.69,-141.5 576.69,-141.5 576.69,-89.5 430.69,-89.5"/>
<text text-anchor="start" x="438.69" y="-129.5" font-family="Helvetica,sans-Serif" font-size="10.00">/home/nico/projects</text>
<text text-anchor="start" x="438.69" y="-118.5" font-family="Helvetica,sans-Serif" font-size="10.00">/JODA&#45;gh/libs/joda/core</text>
<text text-anchor="start" x="438.69" y="-107.5" font-family="Helvetica,sans-Serif" font-size="10.00">/modules/queryparsing/src</text>
<text text-anchor="middle" x="503.69" y="-96.5" font-family="Helvetica,sans-Serif" font-size="10.00">/actions/Actions.h</text>
</a>
</g>
</g>
<!-- Node2&#45;&gt;Node3 -->
<g id="edge2" class="edge">
<title>Node2&#45;&gt;Node3</title>
<path fill="none" stroke="midnightblue" d="M420.5,-288.02C287.28,-279.98 38.26,-261.09 11.69,-231 -3.9,-213.34 -3.9,-195.66 11.69,-178 38.95,-147.12 300.4,-128.04 430.67,-120.38"/>
<polygon fill="midnightblue" stroke="midnightblue" points="420.48,-291.52 430.67,-288.62 420.9,-284.54 420.48,-291.52"/>
</g>
<!-- Node5 -->
<g id="node5" class="node">
<title>Node5</title>
<g id="a_node5"><a xlink:href="../../d4/daf/Agg__Actions_8h.html" target="_top" xlink:title=" ">
<polygon fill="white" stroke="black" points="20.69,-178.5 20.69,-230.5 166.69,-230.5 166.69,-178.5 20.69,-178.5"/>
<text text-anchor="start" x="28.69" y="-218.5" font-family="Helvetica,sans-Serif" font-size="10.00">/home/nico/projects</text>
<text text-anchor="start" x="28.69" y="-207.5" font-family="Helvetica,sans-Serif" font-size="10.00">/JODA&#45;gh/libs/joda/core</text>
<text text-anchor="start" x="28.69" y="-196.5" font-family="Helvetica,sans-Serif" font-size="10.00">/modules/queryparsing/src</text>
<text text-anchor="middle" x="93.69" y="-185.5" font-family="Helvetica,sans-Serif" font-size="10.00">/actions/Agg_Actions.h</text>
</a>
</g>
</g>
<!-- Node2&#45;&gt;Node5 -->
<g id="edge4" class="edge">
<title>Node2&#45;&gt;Node5</title>
<path fill="none" stroke="midnightblue" d="M420.51,-279.65C353.86,-268.69 258.19,-251.49 175.69,-231 172.8,-230.28 169.86,-229.52 166.89,-228.73"/>
<polygon fill="midnightblue" stroke="midnightblue" points="420.11,-283.13 430.54,-281.28 421.23,-276.22 420.11,-283.13"/>
</g>
<!-- Node6 -->
<g id="node6" class="node">
<title>Node6</title>
<g id="a_node6"><a xlink:href="../../d0/d2e/As__Actions_8h.html" target="_top" xlink:title=" ">
<polygon fill="white" stroke="black" points="184.69,-178.5 184.69,-230.5 330.69,-230.5 330.69,-178.5 184.69,-178.5"/>
<text text-anchor="start" x="192.69" y="-218.5" font-family="Helvetica,sans-Serif" font-size="10.00">/home/nico/projects</text>
<text text-anchor="start" x="192.69" y="-207.5" font-family="Helvetica,sans-Serif" font-size="10.00">/JODA&#45;gh/libs/joda/core</text>
<text text-anchor="start" x="192.69" y="-196.5" font-family="Helvetica,sans-Serif" font-size="10.00">/modules/queryparsing/src</text>
<text text-anchor="middle" x="257.69" y="-185.5" font-family="Helvetica,sans-Serif" font-size="10.00">/actions/As_Actions.h</text>
</a>
</g>
</g>
<!-- Node2&#45;&gt;Node6 -->
<g id="edge6" class="edge">
<title>Node2&#45;&gt;Node6</title>
<path fill="none" stroke="midnightblue" d="M423.1,-264C392.55,-253.19 358.02,-240.98 328.44,-230.52"/>
<polygon fill="midnightblue" stroke="midnightblue" points="422.27,-267.42 432.87,-267.45 424.61,-260.82 422.27,-267.42"/>
</g>
<!-- Node7 -->
<g id="node7" class="node">
<title>Node7</title>
<g id="a_node7"><a xlink:href="../../d4/daf/Choose__Actions_8h.html" target="_top" xlink:title=" ">
<polygon fill="white" stroke="black" points="348.69,-178.5 348.69,-230.5 494.69,-230.5 494.69,-178.5 348.69,-178.5"/>
<text text-anchor="start" x="356.69" y="-218.5" font-family="Helvetica,sans-Serif" font-size="10.00">/home/nico/projects</text>
<text text-anchor="start" x="356.69" y="-207.5" font-family="Helvetica,sans-Serif" font-size="10.00">/JODA&#45;gh/libs/joda/core</text>
<text text-anchor="start" x="356.69" y="-196.5" font-family="Helvetica,sans-Serif" font-size="10.00">/modules/queryparsing/src</text>
<text text-anchor="middle" x="421.69" y="-185.5" font-family="Helvetica,sans-Serif" font-size="10.00">/actions/Choose_Actions.h</text>
</a>
</g>
</g>
<!-- Node2&#45;&gt;Node7 -->
<g id="edge8" class="edge">
<title>Node2&#45;&gt;Node7</title>
<path fill="none" stroke="midnightblue" d="M472.86,-259.79C463.76,-250.13 453.94,-239.71 445.36,-230.61"/>
<polygon fill="midnightblue" stroke="midnightblue" points="470.57,-262.46 479.97,-267.34 475.66,-257.66 470.57,-262.46"/>
</g>
<!-- Node8 -->
<g id="node8" class="node">
<title>Node8</title>
<g id="a_node8"><a xlink:href="../../d8/dc3/Delete__Actions_8h.html" target="_top" xlink:title=" ">
<polygon fill="white" stroke="black" points="512.69,-178.5 512.69,-230.5 658.69,-230.5 658.69,-178.5 512.69,-178.5"/>
<text text-anchor="start" x="520.69" y="-218.5" font-family="Helvetica,sans-Serif" font-size="10.00">/home/nico/projects</text>
<text text-anchor="start" x="520.69" y="-207.5" font-family="Helvetica,sans-Serif" font-size="10.00">/JODA&#45;gh/libs/joda/core</text>
<text text-anchor="start" x="520.69" y="-196.5" font-family="Helvetica,sans-Serif" font-size="10.00">/modules/queryparsing/src</text>
<text text-anchor="middle" x="585.69" y="-185.5" font-family="Helvetica,sans-Serif" font-size="10.00">/actions/Delete_Actions.h</text>
</a>
</g>
</g>
<!-- Node2&#45;&gt;Node8 -->
<g id="edge10" class="edge">
<title>Node2&#45;&gt;Node8</title>
<path fill="none" stroke="midnightblue" d="M534.52,-259.79C543.63,-250.13 553.45,-239.71 562.03,-230.61"/>
<polygon fill="midnightblue" stroke="midnightblue" points="531.72,-257.66 527.41,-267.34 536.82,-262.46 531.72,-257.66"/>
</g>
<!-- Node9 -->
<g id="node9" class="node">
<title>Node9</title>
<g id="a_node9"><a xlink:href="../../df/d48/Load__Actions_8h.html" target="_top" xlink:title=" ">
<polygon fill="white" stroke="black" points="676.69,-178.5 676.69,-230.5 822.69,-230.5 822.69,-178.5 676.69,-178.5"/>
<text text-anchor="start" x="684.69" y="-218.5" font-family="Helvetica,sans-Serif" font-size="10.00">/home/nico/projects</text>
<text text-anchor="start" x="684.69" y="-207.5" font-family="Helvetica,sans-Serif" font-size="10.00">/JODA&#45;gh/libs/joda/core</text>
<text text-anchor="start" x="684.69" y="-196.5" font-family="Helvetica,sans-Serif" font-size="10.00">/modules/queryparsing/src</text>
<text text-anchor="middle" x="749.69" y="-185.5" font-family="Helvetica,sans-Serif" font-size="10.00">/actions/Load_Actions.h</text>
</a>
</g>
</g>
<!-- Node2&#45;&gt;Node9 -->
<g id="edge12" class="edge">
<title>Node2&#45;&gt;Node9</title>
<path fill="none" stroke="midnightblue" d="M584.28,-264C614.84,-253.19 649.36,-240.98 678.94,-230.52"/>
<polygon fill="midnightblue" stroke="midnightblue" points="582.78,-260.82 574.52,-267.45 585.11,-267.42 582.78,-260.82"/>
</g>
<!-- Node10 -->
<g id="node10" class="node">
<title>Node10</title>
<g id="a_node10"><a xlink:href="../../d2/d4b/Store__Actions_8h.html" target="_top" xlink:title=" ">
<polygon fill="white" stroke="black" points="840.69,-178.5 840.69,-230.5 986.69,-230.5 986.69,-178.5 840.69,-178.5"/>
<text text-anchor="start" x="848.69" y="-218.5" font-family="Helvetica,sans-Serif" font-size="10.00">/home/nico/projects</text>
<text text-anchor="start" x="848.69" y="-207.5" font-family="Helvetica,sans-Serif" font-size="10.00">/JODA&#45;gh/libs/joda/core</text>
<text text-anchor="start" x="848.69" y="-196.5" font-family="Helvetica,sans-Serif" font-size="10.00">/modules/queryparsing/src</text>
<text text-anchor="middle" x="913.69" y="-185.5" font-family="Helvetica,sans-Serif" font-size="10.00">/actions/Store_Actions.h</text>
</a>
</g>
</g>
<!-- Node2&#45;&gt;Node10 -->
<g id="edge14" class="edge">
<title>Node2&#45;&gt;Node10</title>
<path fill="none" stroke="midnightblue" d="M586.87,-279.65C653.52,-268.69 749.19,-251.49 831.69,-231 834.59,-230.28 837.53,-229.52 840.49,-228.73"/>
<polygon fill="midnightblue" stroke="midnightblue" points="586.15,-276.22 576.84,-281.28 587.28,-283.13 586.15,-276.22"/>
</g>
<!-- Node11 -->
<g id="node11" class="node">
<title>Node11</title>
<g id="a_node11"><a xlink:href="../../d4/d6a/Control_8h.html" target="_top" xlink:title=" ">
<polygon fill="white" stroke="black" points="767.69,-89.5 767.69,-141.5 913.69,-141.5 913.69,-89.5 767.69,-89.5"/>
<text text-anchor="start" x="775.69" y="-129.5" font-family="Helvetica,sans-Serif" font-size="10.00">/home/nico/projects</text>
<text text-anchor="start" x="775.69" y="-118.5" font-family="Helvetica,sans-Serif" font-size="10.00">/JODA&#45;gh/libs/joda/core</text>
<text text-anchor="start" x="775.69" y="-107.5" font-family="Helvetica,sans-Serif" font-size="10.00">/modules/queryparsing/src</text>
<text text-anchor="middle" x="840.69" y="-96.5" font-family="Helvetica,sans-Serif" font-size="10.00">/Control.h</text>
</a>
</g>
</g>
<!-- Node2&#45;&gt;Node11 -->
<g id="edge16" class="edge">
<title>Node2&#45;&gt;Node11</title>
<path fill="none" stroke="midnightblue" d="M586.88,-288.02C720.11,-279.98 969.13,-261.09 995.69,-231 1011.28,-213.34 1008.92,-197.49 995.69,-178 977.15,-150.7 944.39,-135.51 913.74,-127.07"/>
<polygon fill="midnightblue" stroke="midnightblue" points="586.49,-284.54 576.71,-288.62 586.9,-291.52 586.49,-284.54"/>
</g>
<!-- Node4 -->
<g id="node4" class="node">
<title>Node4</title>
<g id="a_node4"><a xlink:href="../../d0/d62/QueryParser_8cpp.html" target="_top" xlink:title=" ">
<polygon fill="white" stroke="black" points="512.69,-0.5 512.69,-52.5 658.69,-52.5 658.69,-0.5 512.69,-0.5"/>
<text text-anchor="start" x="520.69" y="-40.5" font-family="Helvetica,sans-Serif" font-size="10.00">/home/nico/projects</text>
<text text-anchor="start" x="520.69" y="-29.5" font-family="Helvetica,sans-Serif" font-size="10.00">/JODA&#45;gh/libs/joda/core</text>
<text text-anchor="start" x="520.69" y="-18.5" font-family="Helvetica,sans-Serif" font-size="10.00">/modules/queryparsing/src</text>
<text text-anchor="middle" x="585.69" y="-7.5" font-family="Helvetica,sans-Serif" font-size="10.00">/QueryParser.cpp</text>
</a>
</g>
</g>
<!-- Node3&#45;&gt;Node4 -->
<g id="edge3" class="edge">
<title>Node3&#45;&gt;Node4</title>
<path fill="none" stroke="midnightblue" d="M534.52,-81.79C543.63,-72.13 553.45,-61.71 562.03,-52.61"/>
<polygon fill="midnightblue" stroke="midnightblue" points="531.72,-79.66 527.41,-89.34 536.82,-84.46 531.72,-79.66"/>
</g>
<!-- Node5&#45;&gt;Node3 -->
<g id="edge5" class="edge">
<title>Node5&#45;&gt;Node3</title>
<path fill="none" stroke="midnightblue" d="M176.71,-177.85C269.31,-155.24 366,-138.18 430.54,-127.72"/>
<polygon fill="midnightblue" stroke="midnightblue" points="175.76,-174.48 166.89,-180.27 177.44,-181.28 175.76,-174.48"/>
</g>
<!-- Node6&#45;&gt;Node3 -->
<g id="edge7" class="edge">
<title>Node6&#45;&gt;Node3</title>
<path fill="none" stroke="midnightblue" d="M338.28,-175C368.84,-164.19 403.36,-151.98 432.94,-141.52"/>
<polygon fill="midnightblue" stroke="midnightblue" points="336.78,-171.82 328.52,-178.45 339.11,-178.42 336.78,-171.82"/>
</g>
<!-- Node7&#45;&gt;Node3 -->
<g id="edge9" class="edge">
<title>Node7&#45;&gt;Node3</title>
<path fill="none" stroke="midnightblue" d="M452.52,-170.79C461.63,-161.13 471.45,-150.71 480.03,-141.61"/>
<polygon fill="midnightblue" stroke="midnightblue" points="449.72,-168.66 445.41,-178.34 454.82,-173.46 449.72,-168.66"/>
</g>
<!-- Node8&#45;&gt;Node3 -->
<g id="edge11" class="edge">
<title>Node8&#45;&gt;Node3</title>
<path fill="none" stroke="midnightblue" d="M554.86,-170.79C545.76,-161.13 535.94,-150.71 527.36,-141.61"/>
<polygon fill="midnightblue" stroke="midnightblue" points="552.57,-173.46 561.97,-178.34 557.66,-168.66 552.57,-173.46"/>
</g>
<!-- Node9&#45;&gt;Node3 -->
<g id="edge13" class="edge">
<title>Node9&#45;&gt;Node3</title>
<path fill="none" stroke="midnightblue" d="M669.1,-175C638.55,-164.19 604.02,-151.98 574.44,-141.52"/>
<polygon fill="midnightblue" stroke="midnightblue" points="668.27,-178.42 678.87,-178.45 670.61,-171.82 668.27,-178.42"/>
</g>
<!-- Node10&#45;&gt;Node3 -->
<g id="edge15" class="edge">
<title>Node10&#45;&gt;Node3</title>
<path fill="none" stroke="midnightblue" d="M830.68,-177.85C738.07,-155.24 641.38,-138.18 576.84,-127.72"/>
<polygon fill="midnightblue" stroke="midnightblue" points="829.95,-181.28 840.49,-180.27 831.62,-174.48 829.95,-181.28"/>
</g>
<!-- Node11&#45;&gt;Node4 -->
<g id="edge17" class="edge">
<title>Node11&#45;&gt;Node4</title>
<path fill="none" stroke="midnightblue" d="M757.86,-86.24C725.93,-75.35 689.72,-62.99 658.78,-52.43"/>
<polygon fill="midnightblue" stroke="midnightblue" points="757.02,-89.65 767.62,-89.57 759.28,-83.03 757.02,-89.65"/>
</g>
</g>
</svg>
        <g id="navigator" transform="translate(0 0)" fill="#404254">
                <rect fill="#f2f5e9" fill-opacity="0.5" stroke="#606060" stroke-width=".5" x="0" y="0" width="60" height="60"/>
                <use id="zoomplus" xlink:href="#zoomPlus" x="17" y="9" onmousedown="handleZoom(evt,'in')"/>
                <use id="zoomminus" xlink:href="#zoomMin" x="42" y="9" onmousedown="handleZoom(evt,'out')"/>
                <use id="reset" xlink:href="#resetDef" x="30" y="36" onmousedown="handleReset()"/>
                <g id="arrowUp" xlink:href="#dirArrow" transform="translate(30 24)" onmousedown="handlePan(0,-1)">
                  <use xlink:href="#rim" fill="#404040">
                        <set attributeName="fill" to="#808080" begin="arrowUp.mouseover" end="arrowUp.mouseout"/>
                  </use>
                  <path fill="none" stroke="white" stroke-width="1.5" d="M0,-3.0v7 M-2.5,-0.5L0,-3.0L2.5,-0.5"/>
                </g>
                <g id="arrowRight" xlink:href="#dirArrow" transform="rotate(90) translate(36 -43)" onmousedown="handlePan(1,0)">
                  <use xlink:href="#rim" fill="#404040">
                        <set attributeName="fill" to="#808080" begin="arrowRight.mouseover" end="arrowRight.mouseout"/>
                  </use>
                  <path fill="none" stroke="white" stroke-width="1.5" d="M0,-3.0v7 M-2.5,-0.5L0,-3.0L2.5,-0.5"/>
                </g>
                <g id="arrowDown" xlink:href="#dirArrow" transform="rotate(180) translate(-30 -48)" onmousedown="handlePan(0,1)">
                  <use xlink:href="#rim" fill="#404040">
                        <set attributeName="fill" to="#808080" begin="arrowDown.mouseover" end="arrowDown.mouseout"/>
                  </use>
                  <path fill="none" stroke="white" stroke-width="1.5" d="M0,-3.0v7 M-2.5,-0.5L0,-3.0L2.5,-0.5"/>
                </g>
                <g id="arrowLeft" xlink:href="#dirArrow" transform="rotate(270) translate(-36 17)" onmousedown="handlePan(-1,0)">
                  <use xlink:href="#rim" fill="#404040">
                        <set attributeName="fill" to="#808080" begin="arrowLeft.mouseover" end="arrowLeft.mouseout"/>
                  </use>
                  <path fill="none" stroke="white" stroke-width="1.5" d="M0,-3.0v7 M-2.5,-0.5L0,-3.0L2.5,-0.5"/>
                </g>
        </g>
        <svg viewBox="0 0 15 15" width="100%" height="30px" preserveAspectRatio="xMaxYMin meet">
         <g id="arrow_out" transform="scale(0.3 0.3)">
          <a xlink:href="Agg_8h__dep__incl_org.svg" target="_base">
           <rect id="button" ry="5" rx="5" y="6" x="6" height="38" width="38"
                fill="#f2f5e9" fill-opacity="0.5" stroke="#606060" stroke-width="1.0"/>
           <path id="arrow"
             d="M 11.500037,31.436501 C 11.940474,20.09759 22.043105,11.32322 32.158766,21.979434 L 37.068811,17.246167 C 37.068811,17.246167 37.088388,32 37.088388,32 L 22.160133,31.978069 C 22.160133,31.978069 26.997745,27.140456 26.997745,27.140456 C 18.528582,18.264221 13.291696,25.230495 11.500037,31.436501 z"
             style="fill:#404040;"/>
          </a>
         </g>
        </svg>
</svg>
