<?xml version="1.0" encoding="UTF-8" standalone="no"?>
<!DOCTYPE svg PUBLIC "-//W3C//DTD SVG 1.1//EN"
 "http://www.w3.org/Graphics/SVG/1.1/DTD/svg11.dtd">
<!-- Generated by graphviz version 2.43.0 (0)
 -->
<!-- Title: /home/nico/joda_tmp/tmp&#45;joda&#45;dirs/JODA&#45;gh/libs/joda/core/modules/queryparsing/src/grammar/Agg.h Pages: 1 -->
<svg width="1019pt" height="450pt"
 viewBox="0.00 0.00 1019.09 450.00" xmlns="http://www.w3.org/2000/svg" xmlns:xlink="http://www.w3.org/1999/xlink">
<g id="graph0" class="graph" transform="scale(1 1) rotate(0) translate(4 446)">
<title>/home/nico/joda_tmp/tmp&#45;joda&#45;dirs/JODA&#45;gh/libs/joda/core/modules/queryparsing/src/grammar/Agg.h</title>
<polygon fill="white" stroke="transparent" points="-4,4 -4,-446 1015.09,-446 1015.09,4 -4,4"/>
<!-- Node1 -->
<g id="node1" class="node">
<title>Node1</title>
<g id="a_node1"><a xlink:title=" ">
<polygon fill="#bfbfbf" stroke="black" points="416.53,-389.5 416.53,-441.5 595.53,-441.5 595.53,-389.5 416.53,-389.5"/>
<text text-anchor="start" x="424.53" y="-429.5" font-family="Helvetica,sans-Serif" font-size="10.00">/home/nico/joda_tmp</text>
<text text-anchor="start" x="424.53" y="-418.5" font-family="Helvetica,sans-Serif" font-size="10.00">/tmp&#45;joda&#45;dirs/JODA</text>
<text text-anchor="start" x="424.53" y="-407.5" font-family="Helvetica,sans-Serif" font-size="10.00">&#45;gh/libs/joda/core/modules</text>
<text text-anchor="middle" x="506.03" y="-396.5" font-family="Helvetica,sans-Serif" font-size="10.00">/queryparsing/src/grammar/Agg.h</text>
</a>
</g>
</g>
<!-- Node2 -->
<g id="node2" class="node">
<title>Node2</title>
<g id="a_node2"><a xlink:href="../../d4/d03/Grammar_8h.html" target="_top" xlink:title=" ">
<polygon fill="white" stroke="black" points="431.53,-289.5 431.53,-352.5 580.53,-352.5 580.53,-289.5 431.53,-289.5"/>
<text text-anchor="start" x="439.53" y="-340.5" font-family="Helvetica,sans-Serif" font-size="10.00">/home/nico/joda_tmp</text>
<text text-anchor="start" x="439.53" y="-329.5" font-family="Helvetica,sans-Serif" font-size="10.00">/tmp&#45;joda&#45;dirs/JODA</text>
<text text-anchor="start" x="439.53" y="-318.5" font-family="Helvetica,sans-Serif" font-size="10.00">&#45;gh/libs/joda/core/modules</text>
<text text-anchor="start" x="439.53" y="-307.5" font-family="Helvetica,sans-Serif" font-size="10.00">/queryparsing/src/grammar</text>
<text text-anchor="middle" x="506.03" y="-296.5" font-family="Helvetica,sans-Serif" font-size="10.00">/Grammar.h</text>
</a>
</g>
</g>
<!-- Node1&#45;&gt;Node2 -->
<g id="edge1" class="edge">
<title>Node1&#45;&gt;Node2</title>
<path fill="none" stroke="midnightblue" d="M506.03,-378.94C506.03,-370.23 506.03,-360.97 506.03,-352.51"/>
<polygon fill="midnightblue" stroke="midnightblue" points="502.53,-379.22 506.03,-389.22 509.53,-379.22 502.53,-379.22"/>
</g>
<!-- Node3 -->
<g id="node3" class="node">
<title>Node3</title>
<g id="a_node3"><a xlink:href="../../de/db3/Actions_8h.html" target="_top" xlink:title=" ">
<polygon fill="white" stroke="black" points="433.03,-89.5 433.03,-152.5 579.03,-152.5 579.03,-89.5 433.03,-89.5"/>
<text text-anchor="start" x="441.03" y="-140.5" font-family="Helvetica,sans-Serif" font-size="10.00">/home/nico/joda_tmp</text>
<text text-anchor="start" x="441.03" y="-129.5" font-family="Helvetica,sans-Serif" font-size="10.00">/tmp&#45;joda&#45;dirs/JODA</text>
<text text-anchor="start" x="441.03" y="-118.5" font-family="Helvetica,sans-Serif" font-size="10.00">&#45;gh/libs/joda/core/modules</text>
<text text-anchor="start" x="441.03" y="-107.5" font-family="Helvetica,sans-Serif" font-size="10.00">/queryparsing/src/actions</text>
<text text-anchor="middle" x="506.03" y="-96.5" font-family="Helvetica,sans-Serif" font-size="10.00">/Actions.h</text>
</a>
</g>
</g>
<!-- Node2&#45;&gt;Node3 -->
<g id="edge2" class="edge">
<title>Node2&#45;&gt;Node3</title>
<path fill="none" stroke="midnightblue" d="M421.24,-314.45C287.6,-304.83 40.36,-283.16 14.03,-253 -4.68,-231.57 -4.68,-210.43 14.03,-189 41.16,-157.93 302.68,-135.87 432.99,-126.71"/>
<polygon fill="midnightblue" stroke="midnightblue" points="421.22,-317.96 431.45,-315.18 421.72,-310.98 421.22,-317.96"/>
</g>
<!-- Node5 -->
<g id="node5" class="node">
<title>Node5</title>
<g id="a_node5"><a xlink:href="../../d4/daf/Agg__Actions_8h.html" target="_top" xlink:title=" ">
<polygon fill="white" stroke="black" points="23.03,-189.5 23.03,-252.5 169.03,-252.5 169.03,-189.5 23.03,-189.5"/>
<text text-anchor="start" x="31.03" y="-240.5" font-family="Helvetica,sans-Serif" font-size="10.00">/home/nico/joda_tmp</text>
<text text-anchor="start" x="31.03" y="-229.5" font-family="Helvetica,sans-Serif" font-size="10.00">/tmp&#45;joda&#45;dirs/JODA</text>
<text text-anchor="start" x="31.03" y="-218.5" font-family="Helvetica,sans-Serif" font-size="10.00">&#45;gh/libs/joda/core/modules</text>
<text text-anchor="start" x="31.03" y="-207.5" font-family="Helvetica,sans-Serif" font-size="10.00">/queryparsing/src/actions</text>
<text text-anchor="middle" x="96.03" y="-196.5" font-family="Helvetica,sans-Serif" font-size="10.00">/Agg_Actions.h</text>
</a>
</g>
</g>
<!-- Node2&#45;&gt;Node5 -->
<g id="edge4" class="edge">
<title>Node2&#45;&gt;Node5</title>
<path fill="none" stroke="midnightblue" d="M421.23,-306.52C354.46,-294.99 259.42,-276.53 178.03,-253 175.11,-252.15 172.14,-251.25 169.15,-250.31"/>
<polygon fill="midnightblue" stroke="midnightblue" points="420.83,-310 431.28,-308.24 422.01,-303.1 420.83,-310"/>
</g>
<!-- Node6 -->
<g id="node6" class="node">
<title>Node6</title>
<g id="a_node6"><a xlink:href="../../d0/d2e/As__Actions_8h.html" target="_top" xlink:title=" ">
<polygon fill="white" stroke="black" points="187.03,-189.5 187.03,-252.5 333.03,-252.5 333.03,-189.5 187.03,-189.5"/>
<text text-anchor="start" x="195.03" y="-240.5" font-family="Helvetica,sans-Serif" font-size="10.00">/home/nico/joda_tmp</text>
<text text-anchor="start" x="195.03" y="-229.5" font-family="Helvetica,sans-Serif" font-size="10.00">/tmp&#45;joda&#45;dirs/JODA</text>
<text text-anchor="start" x="195.03" y="-218.5" font-family="Helvetica,sans-Serif" font-size="10.00">&#45;gh/libs/joda/core/modules</text>
<text text-anchor="start" x="195.03" y="-207.5" font-family="Helvetica,sans-Serif" font-size="10.00">/queryparsing/src/actions</text>
<text text-anchor="middle" x="260.03" y="-196.5" font-family="Helvetica,sans-Serif" font-size="10.00">/As_Actions.h</text>
</a>
</g>
</g>
<!-- Node2&#45;&gt;Node6 -->
<g id="edge6" class="edge">
<title>Node2&#45;&gt;Node6</title>
<path fill="none" stroke="midnightblue" d="M421.6,-286.37C392.87,-274.92 361,-262.22 333.22,-251.16"/>
<polygon fill="midnightblue" stroke="midnightblue" points="420.63,-289.75 431.22,-290.2 423.23,-283.25 420.63,-289.75"/>
</g>
<!-- Node7 -->
<g id="node7" class="node">
<title>Node7</title>
<g id="a_node7"><a xlink:href="../../d4/daf/Choose__Actions_8h.html" target="_top" xlink:title=" ">
<polygon fill="white" stroke="black" points="351.03,-189.5 351.03,-252.5 497.03,-252.5 497.03,-189.5 351.03,-189.5"/>
<text text-anchor="start" x="359.03" y="-240.5" font-family="Helvetica,sans-Serif" font-size="10.00">/home/nico/joda_tmp</text>
<text text-anchor="start" x="359.03" y="-229.5" font-family="Helvetica,sans-Serif" font-size="10.00">/tmp&#45;joda&#45;dirs/JODA</text>
<text text-anchor="start" x="359.03" y="-218.5" font-family="Helvetica,sans-Serif" font-size="10.00">&#45;gh/libs/joda/core/modules</text>
<text text-anchor="start" x="359.03" y="-207.5" font-family="Helvetica,sans-Serif" font-size="10.00">/queryparsing/src/actions</text>
<text text-anchor="middle" x="424.03" y="-196.5" font-family="Helvetica,sans-Serif" font-size="10.00">/Choose_Actions.h</text>
</a>
</g>
</g>
<!-- Node2&#45;&gt;Node7 -->
<g id="edge8" class="edge">
<title>Node2&#45;&gt;Node7</title>
<path fill="none" stroke="midnightblue" d="M473.73,-281.4C465.74,-271.85 457.29,-261.74 449.66,-252.63"/>
<polygon fill="midnightblue" stroke="midnightblue" points="471.21,-283.84 480.31,-289.26 476.58,-279.35 471.21,-283.84"/>
</g>
<!-- Node8 -->
<g id="node8" class="node">
<title>Node8</title>
<g id="a_node8"><a xlink:href="../../d8/dc3/Delete__Actions_8h.html" target="_top" xlink:title=" ">
<polygon fill="white" stroke="black" points="515.03,-189.5 515.03,-252.5 661.03,-252.5 661.03,-189.5 515.03,-189.5"/>
<text text-anchor="start" x="523.03" y="-240.5" font-family="Helvetica,sans-Serif" font-size="10.00">/home/nico/joda_tmp</text>
<text text-anchor="start" x="523.03" y="-229.5" font-family="Helvetica,sans-Serif" font-size="10.00">/tmp&#45;joda&#45;dirs/JODA</text>
<text text-anchor="start" x="523.03" y="-218.5" font-family="Helvetica,sans-Serif" font-size="10.00">&#45;gh/libs/joda/core/modules</text>
<text text-anchor="start" x="523.03" y="-207.5" font-family="Helvetica,sans-Serif" font-size="10.00">/queryparsing/src/actions</text>
<text text-anchor="middle" x="588.03" y="-196.5" font-family="Helvetica,sans-Serif" font-size="10.00">/Delete_Actions.h</text>
</a>
</g>
</g>
<!-- Node2&#45;&gt;Node8 -->
<g id="edge10" class="edge">
<title>Node2&#45;&gt;Node8</title>
<path fill="none" stroke="midnightblue" d="M538.33,-281.4C546.32,-271.85 554.78,-261.74 562.4,-252.63"/>
<polygon fill="midnightblue" stroke="midnightblue" points="535.48,-279.35 531.75,-289.26 540.85,-283.84 535.48,-279.35"/>
</g>
<!-- Node9 -->
<g id="node9" class="node">
<title>Node9</title>
<g id="a_node9"><a xlink:href="../../df/d48/Load__Actions_8h.html" target="_top" xlink:title=" ">
<polygon fill="white" stroke="black" points="679.03,-189.5 679.03,-252.5 825.03,-252.5 825.03,-189.5 679.03,-189.5"/>
<text text-anchor="start" x="687.03" y="-240.5" font-family="Helvetica,sans-Serif" font-size="10.00">/home/nico/joda_tmp</text>
<text text-anchor="start" x="687.03" y="-229.5" font-family="Helvetica,sans-Serif" font-size="10.00">/tmp&#45;joda&#45;dirs/JODA</text>
<text text-anchor="start" x="687.03" y="-218.5" font-family="Helvetica,sans-Serif" font-size="10.00">&#45;gh/libs/joda/core/modules</text>
<text text-anchor="start" x="687.03" y="-207.5" font-family="Helvetica,sans-Serif" font-size="10.00">/queryparsing/src/actions</text>
<text text-anchor="middle" x="752.03" y="-196.5" font-family="Helvetica,sans-Serif" font-size="10.00">/Load_Actions.h</text>
</a>
</g>
</g>
<!-- Node2&#45;&gt;Node9 -->
<g id="edge12" class="edge">
<title>Node2&#45;&gt;Node9</title>
<path fill="none" stroke="midnightblue" d="M590.46,-286.37C619.2,-274.92 651.06,-262.22 678.84,-251.16"/>
<polygon fill="midnightblue" stroke="midnightblue" points="588.84,-283.25 580.84,-290.2 591.43,-289.75 588.84,-283.25"/>
</g>
<!-- Node10 -->
<g id="node10" class="node">
<title>Node10</title>
<g id="a_node10"><a xlink:href="../../d2/d4b/Store__Actions_8h.html" target="_top" xlink:title=" ">
<polygon fill="white" stroke="black" points="843.03,-189.5 843.03,-252.5 989.03,-252.5 989.03,-189.5 843.03,-189.5"/>
<text text-anchor="start" x="851.03" y="-240.5" font-family="Helvetica,sans-Serif" font-size="10.00">/home/nico/joda_tmp</text>
<text text-anchor="start" x="851.03" y="-229.5" font-family="Helvetica,sans-Serif" font-size="10.00">/tmp&#45;joda&#45;dirs/JODA</text>
<text text-anchor="start" x="851.03" y="-218.5" font-family="Helvetica,sans-Serif" font-size="10.00">&#45;gh/libs/joda/core/modules</text>
<text text-anchor="start" x="851.03" y="-207.5" font-family="Helvetica,sans-Serif" font-size="10.00">/queryparsing/src/actions</text>
<text text-anchor="middle" x="916.03" y="-196.5" font-family="Helvetica,sans-Serif" font-size="10.00">/Store_Actions.h</text>
</a>
</g>
</g>
<!-- Node2&#45;&gt;Node10 -->
<g id="edge14" class="edge">
<title>Node2&#45;&gt;Node10</title>
<path fill="none" stroke="midnightblue" d="M590.83,-306.52C657.6,-294.99 752.64,-276.53 834.03,-253 836.95,-252.15 839.92,-251.25 842.91,-250.31"/>
<polygon fill="midnightblue" stroke="midnightblue" points="590.05,-303.1 580.78,-308.24 591.23,-310 590.05,-303.1"/>
</g>
<!-- Node11 -->
<g id="node11" class="node">
<title>Node11</title>
<g id="a_node11"><a xlink:href="../../d4/d6a/Control_8h.html" target="_top" xlink:title=" ">
<polygon fill="white" stroke="black" points="770.03,-95 770.03,-147 918.03,-147 918.03,-95 770.03,-95"/>
<text text-anchor="start" x="778.03" y="-135" font-family="Helvetica,sans-Serif" font-size="10.00">/home/nico/joda_tmp</text>
<text text-anchor="start" x="778.03" y="-124" font-family="Helvetica,sans-Serif" font-size="10.00">/tmp&#45;joda&#45;dirs/JODA</text>
<text text-anchor="start" x="778.03" y="-113" font-family="Helvetica,sans-Serif" font-size="10.00">&#45;gh/libs/joda/core/modules</text>
<text text-anchor="middle" x="844.03" y="-102" font-family="Helvetica,sans-Serif" font-size="10.00">/queryparsing/src/Control.h</text>
</a>
</g>
</g>
<!-- Node2&#45;&gt;Node11 -->
<g id="edge16" class="edge">
<title>Node2&#45;&gt;Node11</title>
<path fill="none" stroke="midnightblue" d="M590.82,-314.45C724.46,-304.83 971.7,-283.16 998.03,-253 1016.74,-231.57 1013.62,-212.79 998.03,-189 980.13,-161.69 948.41,-145.45 918.4,-135.82"/>
<polygon fill="midnightblue" stroke="midnightblue" points="590.34,-310.98 580.61,-315.18 590.84,-317.96 590.34,-310.98"/>
</g>
<!-- Node4 -->
<g id="node4" class="node">
<title>Node4</title>
<g id="a_node4"><a xlink:href="../../d0/d62/QueryParser_8cpp.html" target="_top" xlink:title=" ">
<polygon fill="white" stroke="black" points="497.03,-0.5 497.03,-52.5 679.03,-52.5 679.03,-0.5 497.03,-0.5"/>
<text text-anchor="start" x="505.03" y="-40.5" font-family="Helvetica,sans-Serif" font-size="10.00">/home/nico/joda_tmp</text>
<text text-anchor="start" x="505.03" y="-29.5" font-family="Helvetica,sans-Serif" font-size="10.00">/tmp&#45;joda&#45;dirs/JODA</text>
<text text-anchor="start" x="505.03" y="-18.5" font-family="Helvetica,sans-Serif" font-size="10.00">&#45;gh/libs/joda/core/modules</text>
<text text-anchor="middle" x="588.03" y="-7.5" font-family="Helvetica,sans-Serif" font-size="10.00">/queryparsing/src/QueryParser.cpp</text>
</a>
</g>
</g>
<!-- Node3&#45;&gt;Node4 -->
<g id="edge3" class="edge">
<title>Node3&#45;&gt;Node4</title>
<path fill="none" stroke="midnightblue" d="M539.93,-81.75C548.6,-71.98 557.71,-61.71 565.63,-52.77"/>
<polygon fill="midnightblue" stroke="midnightblue" points="537.12,-79.65 533.11,-89.46 542.36,-84.29 537.12,-79.65"/>
</g>
<!-- Node5&#45;&gt;Node3 -->
<g id="edge5" class="edge">
<title>Node5&#45;&gt;Node3</title>
<path fill="none" stroke="midnightblue" d="M178.93,-188.89C271.2,-162.75 368.19,-144.43 432.91,-133.48"/>
<polygon fill="midnightblue" stroke="midnightblue" points="177.8,-185.57 169.15,-191.69 179.73,-192.3 177.8,-185.57"/>
</g>
<!-- Node6&#45;&gt;Node3 -->
<g id="edge7" class="edge">
<title>Node6&#45;&gt;Node3</title>
<path fill="none" stroke="midnightblue" d="M342.52,-187.14C371.73,-175.5 404.36,-162.5 432.75,-151.19"/>
<polygon fill="midnightblue" stroke="midnightblue" points="341.17,-183.91 333.17,-190.86 343.76,-190.41 341.17,-183.91"/>
</g>
<!-- Node7&#45;&gt;Node3 -->
<g id="edge9" class="edge">
<title>Node7&#45;&gt;Node3</title>
<path fill="none" stroke="midnightblue" d="M456.33,-181.4C464.32,-171.85 472.78,-161.74 480.4,-152.63"/>
<polygon fill="midnightblue" stroke="midnightblue" points="453.48,-179.35 449.75,-189.26 458.85,-183.84 453.48,-179.35"/>
</g>
<!-- Node8&#45;&gt;Node3 -->
<g id="edge11" class="edge">
<title>Node8&#45;&gt;Node3</title>
<path fill="none" stroke="midnightblue" d="M555.73,-181.4C547.74,-171.85 539.29,-161.74 531.66,-152.63"/>
<polygon fill="midnightblue" stroke="midnightblue" points="553.21,-183.84 562.31,-189.26 558.58,-179.35 553.21,-183.84"/>
</g>
<!-- Node9&#45;&gt;Node3 -->
<g id="edge13" class="edge">
<title>Node9&#45;&gt;Node3</title>
<path fill="none" stroke="midnightblue" d="M669.54,-187.14C640.33,-175.5 607.7,-162.5 579.32,-151.19"/>
<polygon fill="midnightblue" stroke="midnightblue" points="668.3,-190.41 678.89,-190.86 670.89,-183.91 668.3,-190.41"/>
</g>
<!-- Node10&#45;&gt;Node3 -->
<g id="edge15" class="edge">
<title>Node10&#45;&gt;Node3</title>
<path fill="none" stroke="midnightblue" d="M833.13,-188.89C740.86,-162.75 643.87,-144.43 579.15,-133.48"/>
<polygon fill="midnightblue" stroke="midnightblue" points="832.33,-192.3 842.91,-191.69 834.26,-185.57 832.33,-192.3"/>
</g>
<!-- Node11&#45;&gt;Node4 -->
<g id="edge17" class="edge">
<title>Node11&#45;&gt;Node4</title>
<path fill="none" stroke="midnightblue" d="M765.19,-91.51C730.73,-79.06 690.67,-64.59 657.36,-52.55"/>
<polygon fill="midnightblue" stroke="midnightblue" points="764.16,-94.86 774.75,-94.97 766.54,-88.28 764.16,-94.86"/>
</g>
</g>
</svg>
