<?xml version="1.0" encoding="UTF-8" standalone="no"?>
<!DOCTYPE svg PUBLIC "-//W3C//DTD SVG 1.1//EN"
 "http://www.w3.org/Graphics/SVG/1.1/DTD/svg11.dtd">
<!-- Generated by graphviz version 2.43.0 (0)
 -->
<!-- Title: /home/nico/projects/tmp&#45;joda&#45;dirs/JODA&#45;gh/libs/joda/core/modules/similarity/test/MeasureTest.cpp Pages: 1 -->
<!--zoomable 307 -->
<svg id="main" version="1.1" xmlns="http://www.w3.org/2000/svg" xmlns:xlink="http://www.w3.org/1999/xlink" xml:space="preserve" onload="init(evt)">
<style type="text/css"><![CDATA[
.edge:hover path { stroke: red; }
.edge:hover polygon { stroke: red; fill: red; }
]]></style>
<script type="text/javascript"><![CDATA[
var edges = document.getElementsByTagName('g');
if (edges && edges.length) {
  for (var i=0;i<edges.length;i++) {
    if (edges[i].id.substr(0,4)=='edge') {
      edges[i].setAttribute('class','edge');
    }
  }
}
]]></script>
        <defs>
                <circle id="rim" cx="0" cy="0" r="7"/>
                <circle id="rim2" cx="0" cy="0" r="3.5"/>
                <g id="zoomPlus">
                        <use xlink:href="#rim" fill="#404040">
                                <set attributeName="fill" to="#808080" begin="zoomplus.mouseover" end="zoomplus.mouseout"/>
                        </use>
                        <path d="M-4,0h8M0,-4v8" fill="none" stroke="white" stroke-width="1.5" pointer-events="none"/>
                </g>
                <g id="zoomMin">
                        <use xlink:href="#rim" fill="#404040">
                                <set attributeName="fill" to="#808080" begin="zoomminus.mouseover" end="zoomminus.mouseout"/>
                        </use>
                        <path d="M-4,0h8" fill="none" stroke="white" stroke-width="1.5" pointer-events="none"/>
                </g>
                <g id="dirArrow">
                        <path fill="none" stroke="white" stroke-width="1.5" d="M0,-3.0v7 M-2.5,-0.5L0,-3.0L2.5,-0.5"/>
                </g>
               <g id="resetDef">
                       <use xlink:href="#rim2" fill="#404040">
                               <set attributeName="fill" to="#808080" begin="reset.mouseover" end="reset.mouseout"/>
                       </use>
               </g>
        </defs>

<script type="text/javascript">
var viewWidth = 1111;
var viewHeight = 307;
var sectionId = 'dynsection-0';
</script>
<script xlink:href="../../svgpan.js"/>
<svg id="graph" class="graph">
<g id="viewport">
<title>/home/nico/projects/tmp&#45;joda&#45;dirs/JODA&#45;gh/libs/joda/core/modules/similarity/test/MeasureTest.cpp</title>
<polygon fill="white" stroke="transparent" points="-4,4 -4,-303 1106.9,-303 1106.9,4 -4,4"/>
<!-- Node1 -->
<g id="node1" class="node">
<title>Node1</title>
<g id="a_node1"><a xlink:title=" ">
<polygon fill="#bfbfbf" stroke="black" points="300,-246.5 300,-298.5 473,-298.5 473,-246.5 300,-246.5"/>
<text text-anchor="start" x="308" y="-286.5" font-family="Helvetica,sans-Serif" font-size="10.00">/home/nico/projects</text>
<text text-anchor="start" x="308" y="-275.5" font-family="Helvetica,sans-Serif" font-size="10.00">/tmp&#45;joda&#45;dirs/JODA</text>
<text text-anchor="start" x="308" y="-264.5" font-family="Helvetica,sans-Serif" font-size="10.00">&#45;gh/libs/joda/core/modules</text>
<text text-anchor="middle" x="386.5" y="-253.5" font-family="Helvetica,sans-Serif" font-size="10.00">/similarity/test/MeasureTest.cpp</text>
</a>
</g>
</g>
<!-- Node2 -->
<g id="node2" class="node">
<title>Node2</title>
<g id="a_node2"><a xlink:title=" ">
<polygon fill="white" stroke="#bfbfbf" points="232.5,-185 232.5,-204 310.5,-204 310.5,-185 232.5,-185"/>
<text text-anchor="middle" x="271.5" y="-192" font-family="Helvetica,sans-Serif" font-size="10.00">gtest/gtest.h</text>
</a>
</g>
</g>
<!-- Node1&#45;&gt;Node2 -->
<g id="edge1" class="edge">
<title>Node1&#45;&gt;Node2</title>
<path fill="none" stroke="midnightblue" d="M348.53,-246.4C330.04,-234.19 308.5,-219.95 292.91,-209.65"/>
<polygon fill="midnightblue" stroke="midnightblue" points="294.75,-206.67 284.48,-204.08 290.89,-212.51 294.75,-206.67"/>
</g>
<!-- Node3 -->
<g id="node3" class="node">
<title>Node3</title>
<g id="a_node3"><a xlink:href="../../d6/d09/RJFwd_8h.html" target="_top" xlink:title=" ">
<polygon fill="white" stroke="black" points="285.5,-56.5 285.5,-75.5 391.5,-75.5 391.5,-56.5 285.5,-56.5"/>
<text text-anchor="middle" x="338.5" y="-63.5" font-family="Helvetica,sans-Serif" font-size="10.00">joda/misc/RJFwd.h</text>
</a>
</g>
</g>
<!-- Node1&#45;&gt;Node3 -->
<g id="edge2" class="edge">
<title>Node1&#45;&gt;Node3</title>
<path fill="none" stroke="midnightblue" d="M372.54,-246.46C367.04,-235.56 361.17,-222.46 357.5,-210 344.75,-166.7 340.53,-113.48 339.16,-85.78"/>
<polygon fill="midnightblue" stroke="midnightblue" points="342.64,-85.41 338.72,-75.57 335.65,-85.71 342.64,-85.41"/>
</g>
<!-- Node10 -->
<g id="node10" class="node">
<title>Node10</title>
<g id="a_node10"><a xlink:href="../../d9/dfe/AttributeJaccard_8h.html" target="_top" xlink:title=" ">
<polygon fill="white" stroke="black" points="366.5,-179.5 366.5,-209.5 504.5,-209.5 504.5,-179.5 366.5,-179.5"/>
<text text-anchor="start" x="374.5" y="-197.5" font-family="Helvetica,sans-Serif" font-size="10.00">joda/similarity/measures</text>
<text text-anchor="middle" x="435.5" y="-186.5" font-family="Helvetica,sans-Serif" font-size="10.00">/AttributeJaccard.h</text>
</a>
</g>
</g>
<!-- Node1&#45;&gt;Node10 -->
<g id="edge9" class="edge">
<title>Node1&#45;&gt;Node10</title>
<path fill="none" stroke="midnightblue" d="M402.82,-246.19C408.6,-237.22 415.08,-227.18 420.72,-218.42"/>
<polygon fill="midnightblue" stroke="midnightblue" points="423.77,-220.15 426.25,-209.85 417.89,-216.35 423.77,-220.15"/>
</g>
<!-- Node18 -->
<g id="node18" class="node">
<title>Node18</title>
<g id="a_node18"><a xlink:href="../../d2/d73/PathJaccard_8h.html" target="_top" xlink:title=" ">
<polygon fill="white" stroke="black" points="702.5,-179.5 702.5,-209.5 840.5,-209.5 840.5,-179.5 702.5,-179.5"/>
<text text-anchor="start" x="710.5" y="-197.5" font-family="Helvetica,sans-Serif" font-size="10.00">joda/similarity/measures</text>
<text text-anchor="middle" x="771.5" y="-186.5" font-family="Helvetica,sans-Serif" font-size="10.00">/PathJaccard.h</text>
</a>
</g>
</g>
<!-- Node1&#45;&gt;Node18 -->
<g id="edge21" class="edge">
<title>Node1&#45;&gt;Node18</title>
<path fill="none" stroke="midnightblue" d="M473.38,-254.35C539.06,-241.38 628.51,-223.73 692.24,-211.15"/>
<polygon fill="midnightblue" stroke="midnightblue" points="693.11,-214.54 702.25,-209.17 691.76,-207.67 693.11,-214.54"/>
</g>
<!-- Node4 -->
<g id="node4" class="node">
<title>Node4</title>
<g id="a_node4"><a xlink:title=" ">
<polygon fill="white" stroke="#bfbfbf" points="234.5,-0.5 234.5,-19.5 320.5,-19.5 320.5,-0.5 234.5,-0.5"/>
<text text-anchor="middle" x="277.5" y="-7.5" font-family="Helvetica,sans-Serif" font-size="10.00">glog/logging.h</text>
</a>
</g>
</g>
<!-- Node3&#45;&gt;Node4 -->
<g id="edge3" class="edge">
<title>Node3&#45;&gt;Node4</title>
<path fill="none" stroke="midnightblue" d="M328.7,-56.32C319.68,-48.34 306.09,-36.31 295.18,-26.65"/>
<polygon fill="midnightblue" stroke="midnightblue" points="297.29,-23.84 287.48,-19.83 292.65,-29.08 297.29,-23.84"/>
</g>
<!-- Node5 -->
<g id="node5" class="node">
<title>Node5</title>
<g id="a_node5"><a xlink:title=" ">
<polygon fill="white" stroke="#bfbfbf" points="338.5,-0.5 338.5,-19.5 460.5,-19.5 460.5,-0.5 338.5,-0.5"/>
<text text-anchor="middle" x="399.5" y="-7.5" font-family="Helvetica,sans-Serif" font-size="10.00">rapidjson/allocators.h</text>
</a>
</g>
</g>
<!-- Node3&#45;&gt;Node5 -->
<g id="edge4" class="edge">
<title>Node3&#45;&gt;Node5</title>
<path fill="none" stroke="midnightblue" d="M348.3,-56.32C357.32,-48.34 370.91,-36.31 381.82,-26.65"/>
<polygon fill="midnightblue" stroke="midnightblue" points="384.35,-29.08 389.52,-19.83 379.71,-23.84 384.35,-29.08"/>
</g>
<!-- Node6 -->
<g id="node6" class="node">
<title>Node6</title>
<g id="a_node6"><a xlink:title=" ">
<polygon fill="white" stroke="#bfbfbf" points="478.5,-0.5 478.5,-19.5 600.5,-19.5 600.5,-0.5 478.5,-0.5"/>
<text text-anchor="middle" x="539.5" y="-7.5" font-family="Helvetica,sans-Serif" font-size="10.00">rapidjson/document.h</text>
</a>
</g>
</g>
<!-- Node3&#45;&gt;Node6 -->
<g id="edge5" class="edge">
<title>Node3&#45;&gt;Node6</title>
<path fill="none" stroke="midnightblue" d="M370.35,-56.44C404.9,-47.16 460.18,-32.31 498.08,-22.13"/>
<polygon fill="midnightblue" stroke="midnightblue" points="499.05,-25.49 507.8,-19.52 497.23,-18.73 499.05,-25.49"/>
</g>
<!-- Node7 -->
<g id="node7" class="node">
<title>Node7</title>
<g id="a_node7"><a xlink:title=" ">
<polygon fill="white" stroke="#bfbfbf" points="0,-0.5 0,-19.5 91,-19.5 91,-0.5 0,-0.5"/>
<text text-anchor="middle" x="45.5" y="-7.5" font-family="Helvetica,sans-Serif" font-size="10.00">rapidjson/fwd.h</text>
</a>
</g>
</g>
<!-- Node3&#45;&gt;Node7 -->
<g id="edge6" class="edge">
<title>Node3&#45;&gt;Node7</title>
<path fill="none" stroke="midnightblue" d="M292.07,-56.44C240.27,-46.9 156.5,-31.46 101.21,-21.27"/>
<polygon fill="midnightblue" stroke="midnightblue" points="101.7,-17.8 91.23,-19.43 100.43,-24.68 101.7,-17.8"/>
</g>
<!-- Node8 -->
<g id="node8" class="node">
<title>Node8</title>
<g id="a_node8"><a xlink:title=" ">
<polygon fill="white" stroke="#bfbfbf" points="618.5,-0.5 618.5,-19.5 768.5,-19.5 768.5,-0.5 618.5,-0.5"/>
<text text-anchor="middle" x="693.5" y="-7.5" font-family="Helvetica,sans-Serif" font-size="10.00">rapidjson/istreamwrapper.h</text>
</a>
</g>
</g>
<!-- Node3&#45;&gt;Node8 -->
<g id="edge7" class="edge">
<title>Node3&#45;&gt;Node8</title>
<path fill="none" stroke="midnightblue" d="M391.65,-56.92C454.48,-47.36 559.08,-31.45 627.16,-21.09"/>
<polygon fill="midnightblue" stroke="midnightblue" points="627.99,-24.51 637.35,-19.54 626.94,-17.59 627.99,-24.51"/>
</g>
<!-- Node9 -->
<g id="node9" class="node">
<title>Node9</title>
<g id="a_node9"><a xlink:title=" ">
<polygon fill="white" stroke="#bfbfbf" points="109,-0.5 109,-19.5 216,-19.5 216,-0.5 109,-0.5"/>
<text text-anchor="middle" x="162.5" y="-7.5" font-family="Helvetica,sans-Serif" font-size="10.00">rapidjson/pointer.h</text>
</a>
</g>
</g>
<!-- Node3&#45;&gt;Node9 -->
<g id="edge8" class="edge">
<title>Node3&#45;&gt;Node9</title>
<path fill="none" stroke="midnightblue" d="M310.61,-56.44C280.75,-47.28 233.19,-32.69 200.04,-22.52"/>
<polygon fill="midnightblue" stroke="midnightblue" points="200.84,-19.1 190.26,-19.52 198.79,-25.8 200.84,-19.1"/>
</g>
<!-- Node10&#45;&gt;Node3 -->
<g id="edge10" class="edge">
<title>Node10&#45;&gt;Node3</title>
<path fill="none" stroke="midnightblue" d="M424.75,-179.48C406.82,-156.1 370.9,-109.25 351.55,-84.02"/>
<polygon fill="midnightblue" stroke="midnightblue" points="354.1,-81.59 345.24,-75.79 348.55,-85.85 354.1,-81.59"/>
</g>
<!-- Node10&#45;&gt;Node8 -->
<g id="edge11" class="edge">
<title>Node10&#45;&gt;Node8</title>
<path fill="none" stroke="midnightblue" d="M438.42,-179.43C445.12,-150.95 464.47,-86.62 507.5,-56 527.05,-42.09 583.72,-29.56 629.42,-21.27"/>
<polygon fill="midnightblue" stroke="midnightblue" points="630.05,-24.71 639.29,-19.52 628.83,-17.82 630.05,-24.71"/>
</g>
<!-- Node11 -->
<g id="node11" class="node">
<title>Node11</title>
<g id="a_node11"><a xlink:href="../../de/d72/RJAttributeReader_8h.html" target="_top" xlink:title=" ">
<polygon fill="white" stroke="black" points="678.5,-112.5 678.5,-142.5 800.5,-142.5 800.5,-112.5 678.5,-112.5"/>
<text text-anchor="start" x="686.5" y="-130.5" font-family="Helvetica,sans-Serif" font-size="10.00">../../../../src/RJAttribute</text>
<text text-anchor="middle" x="739.5" y="-119.5" font-family="Helvetica,sans-Serif" font-size="10.00">Reader.h</text>
</a>
</g>
</g>
<!-- Node10&#45;&gt;Node11 -->
<g id="edge12" class="edge">
<title>Node10&#45;&gt;Node11</title>
<path fill="none" stroke="midnightblue" d="M501.09,-179.48C550.43,-168.93 617.95,-154.49 668.54,-143.67"/>
<polygon fill="midnightblue" stroke="midnightblue" points="669.38,-147.07 678.43,-141.56 667.92,-140.23 669.38,-147.07"/>
</g>
<!-- Node16 -->
<g id="node16" class="node">
<title>Node16</title>
<g id="a_node16"><a xlink:href="../../d3/d25/IJSONSimilarityMeasure_8h.html" target="_top" xlink:title=" ">
<polygon fill="white" stroke="black" points="480.5,-118 480.5,-137 622.5,-137 622.5,-118 480.5,-118"/>
<text text-anchor="middle" x="551.5" y="-125" font-family="Helvetica,sans-Serif" font-size="10.00">IJSONSimilarityMeasure.h</text>
</a>
</g>
</g>
<!-- Node10&#45;&gt;Node16 -->
<g id="edge17" class="edge">
<title>Node10&#45;&gt;Node16</title>
<path fill="none" stroke="midnightblue" d="M460.67,-179.4C480.48,-168.29 507.92,-152.92 527.44,-141.98"/>
<polygon fill="midnightblue" stroke="midnightblue" points="529.31,-144.95 536.32,-137.01 525.88,-138.84 529.31,-144.95"/>
</g>
<!-- Node12 -->
<g id="node12" class="node">
<title>Node12</title>
<g id="a_node12"><a xlink:title=" ">
<polygon fill="white" stroke="#bfbfbf" points="760.5,-56.5 760.5,-75.5 864.5,-75.5 864.5,-56.5 760.5,-56.5"/>
<text text-anchor="middle" x="812.5" y="-63.5" font-family="Helvetica,sans-Serif" font-size="10.00">rapidjson/reader.h</text>
</a>
</g>
</g>
<!-- Node11&#45;&gt;Node12 -->
<g id="edge13" class="edge">
<title>Node11&#45;&gt;Node12</title>
<path fill="none" stroke="midnightblue" d="M756.8,-112.4C767.95,-103.31 782.45,-91.49 793.86,-82.19"/>
<polygon fill="midnightblue" stroke="midnightblue" points="796.34,-84.69 801.88,-75.66 791.92,-79.26 796.34,-84.69"/>
</g>
<!-- Node13 -->
<g id="node13" class="node">
<title>Node13</title>
<g id="a_node13"><a xlink:title=" ">
<polygon fill="white" stroke="#bfbfbf" points="710.5,-56.5 710.5,-75.5 742.5,-75.5 742.5,-56.5 710.5,-56.5"/>
<text text-anchor="middle" x="726.5" y="-63.5" font-family="Helvetica,sans-Serif" font-size="10.00">set</text>
</a>
</g>
</g>
<!-- Node11&#45;&gt;Node13 -->
<g id="edge14" class="edge">
<title>Node11&#45;&gt;Node13</title>
<path fill="none" stroke="midnightblue" d="M736.42,-112.4C734.67,-104.38 732.45,-94.23 730.56,-85.57"/>
<polygon fill="midnightblue" stroke="midnightblue" points="733.95,-84.68 728.39,-75.66 727.11,-86.17 733.95,-84.68"/>
</g>
<!-- Node14 -->
<g id="node14" class="node">
<title>Node14</title>
<g id="a_node14"><a xlink:title=" ">
<polygon fill="white" stroke="#bfbfbf" points="638.5,-56.5 638.5,-75.5 682.5,-75.5 682.5,-56.5 638.5,-56.5"/>
<text text-anchor="middle" x="660.5" y="-63.5" font-family="Helvetica,sans-Serif" font-size="10.00">string</text>
</a>
</g>
</g>
<!-- Node11&#45;&gt;Node14 -->
<g id="edge15" class="edge">
<title>Node11&#45;&gt;Node14</title>
<path fill="none" stroke="midnightblue" d="M720.78,-112.4C708.59,-103.22 692.71,-91.26 680.31,-81.92"/>
<polygon fill="midnightblue" stroke="midnightblue" points="682.09,-78.88 672,-75.66 677.88,-84.47 682.09,-78.88"/>
</g>
<!-- Node15 -->
<g id="node15" class="node">
<title>Node15</title>
<g id="a_node15"><a xlink:title=" ">
<polygon fill="white" stroke="#bfbfbf" points="883,-56.5 883,-75.5 930,-75.5 930,-56.5 883,-56.5"/>
<text text-anchor="middle" x="906.5" y="-63.5" font-family="Helvetica,sans-Serif" font-size="10.00">vector</text>
</a>
</g>
</g>
<!-- Node11&#45;&gt;Node15 -->
<g id="edge16" class="edge">
<title>Node11&#45;&gt;Node15</title>
<path fill="none" stroke="midnightblue" d="M779.08,-112.4C807.77,-102.18 846.13,-88.51 873.25,-78.85"/>
<polygon fill="midnightblue" stroke="midnightblue" points="874.44,-82.14 882.69,-75.48 872.09,-75.54 874.44,-82.14"/>
</g>
<!-- Node16&#45;&gt;Node3 -->
<g id="edge18" class="edge">
<title>Node16&#45;&gt;Node3</title>
<path fill="none" stroke="midnightblue" d="M520.98,-117.98C483.58,-107.53 420.07,-89.79 378.71,-78.23"/>
<polygon fill="midnightblue" stroke="midnightblue" points="379.53,-74.83 368.96,-75.51 377.65,-81.57 379.53,-74.83"/>
</g>
<!-- Node16&#45;&gt;Node14 -->
<g id="edge19" class="edge">
<title>Node16&#45;&gt;Node14</title>
<path fill="none" stroke="midnightblue" d="M567.12,-117.98C585.09,-108.17 614.82,-91.93 635.91,-80.42"/>
<polygon fill="midnightblue" stroke="midnightblue" points="637.81,-83.37 644.91,-75.51 634.46,-77.23 637.81,-83.37"/>
</g>
<!-- Node17 -->
<g id="node17" class="node">
<title>Node17</title>
<g id="a_node17"><a xlink:title=" ">
<polygon fill="white" stroke="#bfbfbf" points="517,-56.5 517,-75.5 586,-75.5 586,-56.5 517,-56.5"/>
<text text-anchor="middle" x="551.5" y="-63.5" font-family="Helvetica,sans-Serif" font-size="10.00">type_traits</text>
</a>
</g>
</g>
<!-- Node16&#45;&gt;Node17 -->
<g id="edge20" class="edge">
<title>Node16&#45;&gt;Node17</title>
<path fill="none" stroke="midnightblue" d="M551.5,-117.98C551.5,-109.58 551.5,-96.48 551.5,-85.66"/>
<polygon fill="midnightblue" stroke="midnightblue" points="555,-85.51 551.5,-75.51 548,-85.51 555,-85.51"/>
</g>
<!-- Node18&#45;&gt;Node3 -->
<g id="edge22" class="edge">
<title>Node18&#45;&gt;Node3</title>
<path fill="none" stroke="midnightblue" d="M702.45,-188.81C640.5,-182.99 547.85,-170.26 471.5,-143 428.67,-127.71 383.72,-98.93 358.59,-81.51"/>
<polygon fill="midnightblue" stroke="midnightblue" points="360.46,-78.55 350.26,-75.66 356.43,-84.27 360.46,-78.55"/>
</g>
<!-- Node18&#45;&gt;Node8 -->
<g id="edge23" class="edge">
<title>Node18&#45;&gt;Node8</title>
<path fill="none" stroke="midnightblue" d="M840.59,-192.88C926.05,-190.47 1064.23,-180.67 1096.5,-143 1105.46,-132.54 1104.44,-123.26 1096.5,-112 1060.21,-60.53 885.93,-32.28 778.79,-19.53"/>
<polygon fill="midnightblue" stroke="midnightblue" points="778.97,-16.03 768.63,-18.34 778.16,-22.98 778.97,-16.03"/>
</g>
<!-- Node18&#45;&gt;Node14 -->
<g id="edge25" class="edge">
<title>Node18&#45;&gt;Node14</title>
<path fill="none" stroke="midnightblue" d="M719.92,-179.43C701.14,-171.71 681.58,-160.11 669.5,-143 657.8,-126.42 656.86,-102.57 658,-86.02"/>
<polygon fill="midnightblue" stroke="midnightblue" points="661.5,-86.22 659.02,-75.92 654.53,-85.52 661.5,-86.22"/>
</g>
<!-- Node18&#45;&gt;Node15 -->
<g id="edge26" class="edge">
<title>Node18&#45;&gt;Node15</title>
<path fill="none" stroke="midnightblue" d="M840.51,-185.72C893.56,-178.15 960.57,-164.58 977.5,-143 986,-132.16 984.14,-124.07 977.5,-112 969.31,-97.11 953.87,-86.45 939.48,-79.26"/>
<polygon fill="midnightblue" stroke="midnightblue" points="940.8,-76.02 930.26,-75.02 937.88,-82.38 940.8,-76.02"/>
</g>
<!-- Node18&#45;&gt;Node16 -->
<g id="edge31" class="edge">
<title>Node18&#45;&gt;Node16</title>
<path fill="none" stroke="midnightblue" d="M724.03,-179.48C684.08,-167.67 627.66,-151 590.35,-139.98"/>
<polygon fill="midnightblue" stroke="midnightblue" points="590.95,-136.51 580.37,-137.03 588.96,-143.22 590.95,-136.51"/>
</g>
<!-- Node19 -->
<g id="node19" class="node">
<title>Node19</title>
<g id="a_node19"><a xlink:title=" ">
<polygon fill="white" stroke="#bfbfbf" points="1023.5,-118 1023.5,-137 1087.5,-137 1087.5,-118 1023.5,-118"/>
<text text-anchor="middle" x="1055.5" y="-125" font-family="Helvetica,sans-Serif" font-size="10.00">algorithm</text>
</a>
</g>
</g>
<!-- Node18&#45;&gt;Node19 -->
<g id="edge24" class="edge">
<title>Node18&#45;&gt;Node19</title>
<path fill="none" stroke="midnightblue" d="M840.65,-180.65C888.37,-171.34 953.13,-157.83 1009.5,-143 1012.92,-142.1 1016.47,-141.1 1020.01,-140.06"/>
<polygon fill="midnightblue" stroke="midnightblue" points="1021.29,-143.33 1029.84,-137.07 1019.25,-136.63 1021.29,-143.33"/>
</g>
<!-- Node20 -->
<g id="node20" class="node">
<title>Node20</title>
<g id="a_node20"><a xlink:href="../../d0/dc3/RJPathsReader_8h.html" target="_top" xlink:title=" ">
<polygon fill="white" stroke="black" points="819,-118 819,-137 968,-137 968,-118 819,-118"/>
<text text-anchor="middle" x="893.5" y="-125" font-family="Helvetica,sans-Serif" font-size="10.00">../../../../src/RJPathsReader.h</text>
</a>
</g>
</g>
<!-- Node18&#45;&gt;Node20 -->
<g id="edge27" class="edge">
<title>Node18&#45;&gt;Node20</title>
<path fill="none" stroke="midnightblue" d="M797.97,-179.4C818.9,-168.24 847.93,-152.78 868.47,-141.83"/>
<polygon fill="midnightblue" stroke="midnightblue" points="870.35,-144.8 877.53,-137.01 867.06,-138.62 870.35,-144.8"/>
</g>
<!-- Node20&#45;&gt;Node12 -->
<g id="edge28" class="edge">
<title>Node20&#45;&gt;Node12</title>
<path fill="none" stroke="midnightblue" d="M881.89,-117.98C869.02,-108.52 848.03,-93.1 832.49,-81.69"/>
<polygon fill="midnightblue" stroke="midnightblue" points="834.22,-78.61 824.08,-75.51 830.07,-84.25 834.22,-78.61"/>
</g>
<!-- Node20&#45;&gt;Node14 -->
<g id="edge29" class="edge">
<title>Node20&#45;&gt;Node14</title>
<path fill="none" stroke="midnightblue" d="M860.12,-117.98C815.38,-106.55 736.53,-86.42 692.51,-75.17"/>
<polygon fill="midnightblue" stroke="midnightblue" points="693.19,-71.73 682.63,-72.65 691.45,-78.52 693.19,-71.73"/>
</g>
<!-- Node20&#45;&gt;Node15 -->
<g id="edge30" class="edge">
<title>Node20&#45;&gt;Node15</title>
<path fill="none" stroke="midnightblue" d="M895.36,-117.98C897.22,-109.49 900.12,-96.2 902.5,-85.32"/>
<polygon fill="midnightblue" stroke="midnightblue" points="905.93,-86.03 904.64,-75.51 899.09,-84.53 905.93,-86.03"/>
</g>
</g>
</svg>
        <g id="navigator" transform="translate(0 0)" fill="#404254">
                <rect fill="#f2f5e9" fill-opacity="0.5" stroke="#606060" stroke-width=".5" x="0" y="0" width="60" height="60"/>
                <use id="zoomplus" xlink:href="#zoomPlus" x="17" y="9" onmousedown="handleZoom(evt,'in')"/>
                <use id="zoomminus" xlink:href="#zoomMin" x="42" y="9" onmousedown="handleZoom(evt,'out')"/>
                <use id="reset" xlink:href="#resetDef" x="30" y="36" onmousedown="handleReset()"/>
                <g id="arrowUp" xlink:href="#dirArrow" transform="translate(30 24)" onmousedown="handlePan(0,-1)">
                  <use xlink:href="#rim" fill="#404040">
                        <set attributeName="fill" to="#808080" begin="arrowUp.mouseover" end="arrowUp.mouseout"/>
                  </use>
                  <path fill="none" stroke="white" stroke-width="1.5" d="M0,-3.0v7 M-2.5,-0.5L0,-3.0L2.5,-0.5"/>
                </g>
                <g id="arrowRight" xlink:href="#dirArrow" transform="rotate(90) translate(36 -43)" onmousedown="handlePan(1,0)">
                  <use xlink:href="#rim" fill="#404040">
                        <set attributeName="fill" to="#808080" begin="arrowRight.mouseover" end="arrowRight.mouseout"/>
                  </use>
                  <path fill="none" stroke="white" stroke-width="1.5" d="M0,-3.0v7 M-2.5,-0.5L0,-3.0L2.5,-0.5"/>
                </g>
                <g id="arrowDown" xlink:href="#dirArrow" transform="rotate(180) translate(-30 -48)" onmousedown="handlePan(0,1)">
                  <use xlink:href="#rim" fill="#404040">
                        <set attributeName="fill" to="#808080" begin="arrowDown.mouseover" end="arrowDown.mouseout"/>
                  </use>
                  <path fill="none" stroke="white" stroke-width="1.5" d="M0,-3.0v7 M-2.5,-0.5L0,-3.0L2.5,-0.5"/>
                </g>
                <g id="arrowLeft" xlink:href="#dirArrow" transform="rotate(270) translate(-36 17)" onmousedown="handlePan(-1,0)">
                  <use xlink:href="#rim" fill="#404040">
                        <set attributeName="fill" to="#808080" begin="arrowLeft.mouseover" end="arrowLeft.mouseout"/>
                  </use>
                  <path fill="none" stroke="white" stroke-width="1.5" d="M0,-3.0v7 M-2.5,-0.5L0,-3.0L2.5,-0.5"/>
                </g>
        </g>
        <svg viewBox="0 0 15 15" width="100%" height="30px" preserveAspectRatio="xMaxYMin meet">
         <g id="arrow_out" transform="scale(0.3 0.3)">
          <a xlink:href="MeasureTest_8cpp__incl_org.svg" target="_base">
           <rect id="button" ry="5" rx="5" y="6" x="6" height="38" width="38"
                fill="#f2f5e9" fill-opacity="0.5" stroke="#606060" stroke-width="1.0"/>
           <path id="arrow"
             d="M 11.500037,31.436501 C 11.940474,20.09759 22.043105,11.32322 32.158766,21.979434 L 37.068811,17.246167 C 37.068811,17.246167 37.088388,32 37.088388,32 L 22.160133,31.978069 C 22.160133,31.978069 26.997745,27.140456 26.997745,27.140456 C 18.528582,18.264221 13.291696,25.230495 11.500037,31.436501 z"
             style="fill:#404040;"/>
          </a>
         </g>
        </svg>
</svg>
