<?xml version="1.0" encoding="UTF-8" standalone="no"?>
<!DOCTYPE svg PUBLIC "-//W3C//DTD SVG 1.1//EN"
 "http://www.w3.org/Graphics/SVG/1.1/DTD/svg11.dtd">
<!-- Generated by graphviz version 2.43.0 (0)
 -->
<!-- Title: /home/nico/projects/JODA&#45;gh/libs/joda/core/modules/query/include/joda/query/Query.h Pages: 1 -->
<svg width="1847pt" height="328pt"
 viewBox="0.00 0.00 1846.52 328.00" xmlns="http://www.w3.org/2000/svg" xmlns:xlink="http://www.w3.org/1999/xlink">
<g id="graph0" class="graph" transform="scale(1 1) rotate(0) translate(4 324)">
<title>/home/nico/projects/JODA&#45;gh/libs/joda/core/modules/query/include/joda/query/Query.h</title>
<polygon fill="white" stroke="transparent" points="-4,4 -4,-324 1842.52,-324 1842.52,4 -4,4"/>
<!-- Node1 -->
<g id="node1" class="node">
<title>Node1</title>
<g id="a_node1"><a xlink:title=" ">
<polygon fill="#bfbfbf" stroke="black" points="927.52,-267.5 927.52,-319.5 1058.52,-319.5 1058.52,-267.5 927.52,-267.5"/>
<text text-anchor="start" x="935.52" y="-307.5" font-family="Helvetica,sans-Serif" font-size="10.00">/home/nico/projects</text>
<text text-anchor="start" x="935.52" y="-296.5" font-family="Helvetica,sans-Serif" font-size="10.00">/JODA&#45;gh/libs/joda/core</text>
<text text-anchor="start" x="935.52" y="-285.5" font-family="Helvetica,sans-Serif" font-size="10.00">/modules/query/include</text>
<text text-anchor="middle" x="993.02" y="-274.5" font-family="Helvetica,sans-Serif" font-size="10.00">/joda/query/Query.h</text>
</a>
</g>
</g>
<!-- Node2 -->
<g id="node2" class="node">
<title>Node2</title>
<g id="a_node2"><a xlink:href="../../d2/da6/CLI_8h.html" target="_top" xlink:title=" ">
<polygon fill="white" stroke="black" points="580.02,-78.5 580.02,-130.5 718.02,-130.5 718.02,-78.5 580.02,-78.5"/>
<text text-anchor="start" x="588.02" y="-118.5" font-family="Helvetica,sans-Serif" font-size="10.00">/home/nico/projects</text>
<text text-anchor="start" x="588.02" y="-107.5" font-family="Helvetica,sans-Serif" font-size="10.00">/JODA&#45;gh/libs/joda/core</text>
<text text-anchor="start" x="588.02" y="-96.5" font-family="Helvetica,sans-Serif" font-size="10.00">/modules/cli/include/joda</text>
<text text-anchor="middle" x="649.02" y="-85.5" font-family="Helvetica,sans-Serif" font-size="10.00">/cli/CLI.h</text>
</a>
</g>
</g>
<!-- Node1&#45;&gt;Node2 -->
<g id="edge1" class="edge">
<title>Node1&#45;&gt;Node2</title>
<path fill="none" stroke="midnightblue" d="M917.04,-293.11C805.63,-292.19 606.22,-283.09 561.02,-231 542.38,-209.52 547.87,-192.22 561.02,-167 568.77,-152.12 581.95,-140.11 595.78,-130.78"/>
<polygon fill="midnightblue" stroke="midnightblue" points="917.19,-296.61 927.21,-293.17 917.24,-289.61 917.19,-296.61"/>
</g>
<!-- Node5 -->
<g id="node5" class="node">
<title>Node5</title>
<g id="a_node5"><a xlink:href="../../dc/da4/StaticEvalVisitorTest_8cpp.html" target="_top" xlink:title=" ">
<polygon fill="white" stroke="black" points="904.02,-167.5 904.02,-230.5 1082.02,-230.5 1082.02,-167.5 904.02,-167.5"/>
<text text-anchor="start" x="912.02" y="-218.5" font-family="Helvetica,sans-Serif" font-size="10.00">/home/nico/projects</text>
<text text-anchor="start" x="912.02" y="-207.5" font-family="Helvetica,sans-Serif" font-size="10.00">/JODA&#45;gh/libs/joda/core</text>
<text text-anchor="start" x="912.02" y="-196.5" font-family="Helvetica,sans-Serif" font-size="10.00">/modules/query/predicate</text>
<text text-anchor="start" x="912.02" y="-185.5" font-family="Helvetica,sans-Serif" font-size="10.00">/src/visitors/test/StaticEvalVisitor</text>
<text text-anchor="middle" x="993.02" y="-174.5" font-family="Helvetica,sans-Serif" font-size="10.00">Test.cpp</text>
</a>
</g>
</g>
<!-- Node1&#45;&gt;Node5 -->
<g id="edge4" class="edge">
<title>Node1&#45;&gt;Node5</title>
<path fill="none" stroke="midnightblue" d="M993.02,-256.94C993.02,-248.23 993.02,-238.97 993.02,-230.51"/>
<polygon fill="midnightblue" stroke="midnightblue" points="989.52,-257.22 993.02,-267.22 996.52,-257.22 989.52,-257.22"/>
</g>
<!-- Node6 -->
<g id="node6" class="node">
<title>Node6</title>
<g id="a_node6"><a xlink:href="../../de/d9f/Query_8cpp.html" target="_top" xlink:title=" ">
<polygon fill="white" stroke="black" points="1100.52,-178.5 1100.52,-219.5 1261.52,-219.5 1261.52,-178.5 1100.52,-178.5"/>
<text text-anchor="start" x="1108.52" y="-207.5" font-family="Helvetica,sans-Serif" font-size="10.00">/home/nico/projects</text>
<text text-anchor="start" x="1108.52" y="-196.5" font-family="Helvetica,sans-Serif" font-size="10.00">/JODA&#45;gh/libs/joda/core</text>
<text text-anchor="middle" x="1181.02" y="-185.5" font-family="Helvetica,sans-Serif" font-size="10.00">/modules/query/src/Query.cpp</text>
</a>
</g>
</g>
<!-- Node1&#45;&gt;Node6 -->
<g id="edge5" class="edge">
<title>Node1&#45;&gt;Node6</title>
<path fill="none" stroke="midnightblue" d="M1053.05,-262.96C1081.84,-248.8 1115.54,-232.22 1141.13,-219.63"/>
<polygon fill="midnightblue" stroke="midnightblue" points="1051.32,-259.91 1043.89,-267.47 1054.41,-266.19 1051.32,-259.91"/>
</g>
<!-- Node7 -->
<g id="node7" class="node">
<title>Node7</title>
<g id="a_node7"><a xlink:href="../../dc/d6d/QueryPlan_8h.html" target="_top" xlink:title=" ">
<polygon fill="white" stroke="black" points="570.52,-167.5 570.52,-230.5 727.52,-230.5 727.52,-167.5 570.52,-167.5"/>
<text text-anchor="start" x="578.52" y="-218.5" font-family="Helvetica,sans-Serif" font-size="10.00">/home/nico/projects</text>
<text text-anchor="start" x="578.52" y="-207.5" font-family="Helvetica,sans-Serif" font-size="10.00">/JODA&#45;gh/libs/joda/core</text>
<text text-anchor="start" x="578.52" y="-196.5" font-family="Helvetica,sans-Serif" font-size="10.00">/modules/queryexecution</text>
<text text-anchor="start" x="578.52" y="-185.5" font-family="Helvetica,sans-Serif" font-size="10.00">/include/joda/queryexecution</text>
<text text-anchor="middle" x="649.02" y="-174.5" font-family="Helvetica,sans-Serif" font-size="10.00">/QueryPlan.h</text>
</a>
</g>
</g>
<!-- Node1&#45;&gt;Node7 -->
<g id="edge6" class="edge">
<title>Node1&#45;&gt;Node7</title>
<path fill="none" stroke="midnightblue" d="M917.29,-276.46C866.04,-265.08 797.02,-248.72 737.02,-231 733.91,-230.08 730.75,-229.12 727.57,-228.12"/>
<polygon fill="midnightblue" stroke="midnightblue" points="916.77,-279.93 927.29,-278.67 918.28,-273.09 916.77,-279.93"/>
</g>
<!-- Node10 -->
<g id="node10" class="node">
<title>Node10</title>
<g id="a_node10"><a xlink:href="../../d0/da0/CacheExecutor_8cpp.html" target="_top" xlink:title=" ">
<polygon fill="white" stroke="black" points="1279.52,-173 1279.52,-225 1452.52,-225 1452.52,-173 1279.52,-173"/>
<text text-anchor="start" x="1287.52" y="-213" font-family="Helvetica,sans-Serif" font-size="10.00">/home/nico/projects</text>
<text text-anchor="start" x="1287.52" y="-202" font-family="Helvetica,sans-Serif" font-size="10.00">/JODA&#45;gh/libs/joda/core</text>
<text text-anchor="start" x="1287.52" y="-191" font-family="Helvetica,sans-Serif" font-size="10.00">/modules/queryexecution</text>
<text text-anchor="middle" x="1366.02" y="-180" font-family="Helvetica,sans-Serif" font-size="10.00">/src/executor/CacheExecutor.cpp</text>
</a>
</g>
</g>
<!-- Node1&#45;&gt;Node10 -->
<g id="edge10" class="edge">
<title>Node1&#45;&gt;Node10</title>
<path fill="none" stroke="midnightblue" d="M1068.49,-277.88C1124.68,-266.5 1203.09,-249.55 1271.02,-231 1277.71,-229.17 1284.63,-227.16 1291.55,-225.06"/>
<polygon fill="midnightblue" stroke="midnightblue" points="1067.73,-274.47 1058.62,-279.87 1069.11,-281.33 1067.73,-274.47"/>
</g>
<!-- Node11 -->
<g id="node11" class="node">
<title>Node11</title>
<g id="a_node11"><a xlink:href="../../dc/d3b/ConstExecutor_8cpp.html" target="_top" xlink:title=" ">
<polygon fill="white" stroke="black" points="1470.52,-173 1470.52,-225 1641.52,-225 1641.52,-173 1470.52,-173"/>
<text text-anchor="start" x="1478.52" y="-213" font-family="Helvetica,sans-Serif" font-size="10.00">/home/nico/projects</text>
<text text-anchor="start" x="1478.52" y="-202" font-family="Helvetica,sans-Serif" font-size="10.00">/JODA&#45;gh/libs/joda/core</text>
<text text-anchor="start" x="1478.52" y="-191" font-family="Helvetica,sans-Serif" font-size="10.00">/modules/queryexecution</text>
<text text-anchor="middle" x="1556.02" y="-180" font-family="Helvetica,sans-Serif" font-size="10.00">/src/executor/ConstExecutor.cpp</text>
</a>
</g>
</g>
<!-- Node1&#45;&gt;Node11 -->
<g id="edge11" class="edge">
<title>Node1&#45;&gt;Node11</title>
<path fill="none" stroke="midnightblue" d="M1068.77,-286.98C1162.14,-279.17 1325.24,-262.23 1462.02,-231 1469.47,-229.3 1477.18,-227.25 1484.82,-225.03"/>
<polygon fill="midnightblue" stroke="midnightblue" points="1068.25,-283.51 1058.57,-287.82 1068.82,-290.49 1068.25,-283.51"/>
</g>
<!-- Node12 -->
<g id="node12" class="node">
<title>Node12</title>
<g id="a_node12"><a xlink:href="../../d8/d4c/DefaultExecutor_8cpp.html" target="_top" xlink:title=" ">
<polygon fill="white" stroke="black" points="1659.52,-173 1659.52,-225 1838.52,-225 1838.52,-173 1659.52,-173"/>
<text text-anchor="start" x="1667.52" y="-213" font-family="Helvetica,sans-Serif" font-size="10.00">/home/nico/projects</text>
<text text-anchor="start" x="1667.52" y="-202" font-family="Helvetica,sans-Serif" font-size="10.00">/JODA&#45;gh/libs/joda/core</text>
<text text-anchor="start" x="1667.52" y="-191" font-family="Helvetica,sans-Serif" font-size="10.00">/modules/queryexecution</text>
<text text-anchor="middle" x="1749.02" y="-180" font-family="Helvetica,sans-Serif" font-size="10.00">/src/executor/DefaultExecutor.cpp</text>
</a>
</g>
</g>
<!-- Node1&#45;&gt;Node12 -->
<g id="edge12" class="edge">
<title>Node1&#45;&gt;Node12</title>
<path fill="none" stroke="midnightblue" d="M1068.68,-290.66C1191.86,-286.49 1442.93,-273.13 1651.02,-231 1659.06,-229.37 1667.38,-227.33 1675.61,-225.07"/>
<polygon fill="midnightblue" stroke="midnightblue" points="1068.48,-287.16 1058.6,-290.99 1068.71,-294.16 1068.48,-287.16"/>
</g>
<!-- Node13 -->
<g id="node13" class="node">
<title>Node13</title>
<g id="a_node13"><a xlink:href="../../d8/d5f/QueryThread_8h.html" target="_top" xlink:title=" ">
<polygon fill="white" stroke="black" points="746.02,-173 746.02,-225 886.02,-225 886.02,-173 746.02,-173"/>
<text text-anchor="start" x="754.02" y="-213" font-family="Helvetica,sans-Serif" font-size="10.00">/home/nico/projects</text>
<text text-anchor="start" x="754.02" y="-202" font-family="Helvetica,sans-Serif" font-size="10.00">/JODA&#45;gh/libs/joda/core</text>
<text text-anchor="start" x="754.02" y="-191" font-family="Helvetica,sans-Serif" font-size="10.00">/modules/queryexecution</text>
<text text-anchor="middle" x="816.02" y="-180" font-family="Helvetica,sans-Serif" font-size="10.00">/src/QueryThread.h</text>
</a>
</g>
</g>
<!-- Node1&#45;&gt;Node13 -->
<g id="edge13" class="edge">
<title>Node1&#45;&gt;Node13</title>
<path fill="none" stroke="midnightblue" d="M936.05,-262.73C912.79,-250.58 886.19,-236.67 863.95,-225.05"/>
<polygon fill="midnightblue" stroke="midnightblue" points="934.64,-265.94 945.12,-267.47 937.88,-259.73 934.64,-265.94"/>
</g>
<!-- Node15 -->
<g id="node15" class="node">
<title>Node15</title>
<g id="a_node15"><a xlink:href="../../dc/d60/QueryParser_8h.html" target="_top" xlink:title=" ">
<polygon fill="white" stroke="black" points="243.02,-173 243.02,-225 421.02,-225 421.02,-173 243.02,-173"/>
<text text-anchor="start" x="251.02" y="-213" font-family="Helvetica,sans-Serif" font-size="10.00">/home/nico/projects</text>
<text text-anchor="start" x="251.02" y="-202" font-family="Helvetica,sans-Serif" font-size="10.00">/JODA&#45;gh/libs/joda/core</text>
<text text-anchor="start" x="251.02" y="-191" font-family="Helvetica,sans-Serif" font-size="10.00">/modules/queryparsing/include</text>
<text text-anchor="middle" x="332.02" y="-180" font-family="Helvetica,sans-Serif" font-size="10.00">/joda/queryparsing/QueryParser.h</text>
</a>
</g>
</g>
<!-- Node1&#45;&gt;Node15 -->
<g id="edge16" class="edge">
<title>Node1&#45;&gt;Node15</title>
<path fill="none" stroke="midnightblue" d="M917.43,-283.1C825.35,-271.51 665.11,-250.9 528.02,-231 493.07,-225.93 454.69,-219.95 421.22,-214.6"/>
<polygon fill="midnightblue" stroke="midnightblue" points="917.13,-286.59 927.49,-284.37 918,-279.65 917.13,-286.59"/>
</g>
<!-- Node3 -->
<g id="node3" class="node">
<title>Node3</title>
<g id="a_node3"><a xlink:href="../../df/d21/CLI_8cpp.html" target="_top" xlink:title=" ">
<polygon fill="white" stroke="black" points="165.52,-0.5 165.52,-41.5 296.52,-41.5 296.52,-0.5 165.52,-0.5"/>
<text text-anchor="start" x="173.52" y="-29.5" font-family="Helvetica,sans-Serif" font-size="10.00">/home/nico/projects</text>
<text text-anchor="start" x="173.52" y="-18.5" font-family="Helvetica,sans-Serif" font-size="10.00">/JODA&#45;gh/libs/joda/core</text>
<text text-anchor="middle" x="231.02" y="-7.5" font-family="Helvetica,sans-Serif" font-size="10.00">/modules/cli/src/CLI.cpp</text>
</a>
</g>
</g>
<!-- Node2&#45;&gt;Node3 -->
<g id="edge2" class="edge">
<title>Node2&#45;&gt;Node3</title>
<path fill="none" stroke="midnightblue" d="M569.87,-77.87C469.75,-53.96 363.51,-38.4 296.8,-29.8"/>
<polygon fill="midnightblue" stroke="midnightblue" points="569.31,-81.33 579.85,-80.28 570.96,-74.53 569.31,-81.33"/>
</g>
<!-- Node4 -->
<g id="node4" class="node">
<title>Node4</title>
<g id="a_node4"><a xlink:href="../../da/d36/CLICompletion_8cpp.html" target="_top" xlink:title=" ">
<polygon fill="white" stroke="black" points="421.02,-0.5 421.02,-41.5 609.02,-41.5 609.02,-0.5 421.02,-0.5"/>
<text text-anchor="start" x="429.02" y="-29.5" font-family="Helvetica,sans-Serif" font-size="10.00">/home/nico/projects</text>
<text text-anchor="start" x="429.02" y="-18.5" font-family="Helvetica,sans-Serif" font-size="10.00">/JODA&#45;gh/libs/joda/core</text>
<text text-anchor="middle" x="515.02" y="-7.5" font-family="Helvetica,sans-Serif" font-size="10.00">/modules/cli/src/CLICompletion.cpp</text>
</a>
</g>
</g>
<!-- Node2&#45;&gt;Node4 -->
<g id="edge3" class="edge">
<title>Node2&#45;&gt;Node4</title>
<path fill="none" stroke="midnightblue" d="M598.89,-73.01C581.69,-62.55 562.89,-51.12 547.46,-41.73"/>
<polygon fill="midnightblue" stroke="midnightblue" points="597.36,-76.18 607.72,-78.38 601,-70.2 597.36,-76.18"/>
</g>
<!-- Node7&#45;&gt;Node2 -->
<g id="edge7" class="edge">
<title>Node7&#45;&gt;Node2</title>
<path fill="none" stroke="midnightblue" d="M649.02,-157.42C649.02,-148.36 649.02,-139 649.02,-130.77"/>
<polygon fill="midnightblue" stroke="midnightblue" points="645.52,-157.46 649.02,-167.46 652.52,-157.46 645.52,-157.46"/>
</g>
<!-- Node8 -->
<g id="node8" class="node">
<title>Node8</title>
<g id="a_node8"><a xlink:href="../../d4/dbf/JodaQueryRequest_8cpp.html" target="_top" xlink:title=" ">
<polygon fill="white" stroke="black" points="410.02,-78.5 410.02,-130.5 562.02,-130.5 562.02,-78.5 410.02,-78.5"/>
<text text-anchor="start" x="418.02" y="-118.5" font-family="Helvetica,sans-Serif" font-size="10.00">/home/nico/projects</text>
<text text-anchor="start" x="418.02" y="-107.5" font-family="Helvetica,sans-Serif" font-size="10.00">/JODA&#45;gh/libs/joda/core</text>
<text text-anchor="start" x="418.02" y="-96.5" font-family="Helvetica,sans-Serif" font-size="10.00">/modules/network/src/apiv2</text>
<text text-anchor="middle" x="486.02" y="-85.5" font-family="Helvetica,sans-Serif" font-size="10.00">/JodaQueryRequest.cpp</text>
</a>
</g>
</g>
<!-- Node7&#45;&gt;Node8 -->
<g id="edge8" class="edge">
<title>Node7&#45;&gt;Node8</title>
<path fill="none" stroke="midnightblue" d="M586.42,-162.48C567.7,-151.85 547.56,-140.42 530.27,-130.62"/>
<polygon fill="midnightblue" stroke="midnightblue" points="584.77,-165.56 595.19,-167.46 588.22,-159.48 584.77,-165.56"/>
</g>
<!-- Node9 -->
<g id="node9" class="node">
<title>Node9</title>
<g id="a_node9"><a xlink:href="../../d2/d7a/QueryPlan_8cpp.html" target="_top" xlink:title=" ">
<polygon fill="white" stroke="black" points="736.02,-78.5 736.02,-130.5 876.02,-130.5 876.02,-78.5 736.02,-78.5"/>
<text text-anchor="start" x="744.02" y="-118.5" font-family="Helvetica,sans-Serif" font-size="10.00">/home/nico/projects</text>
<text text-anchor="start" x="744.02" y="-107.5" font-family="Helvetica,sans-Serif" font-size="10.00">/JODA&#45;gh/libs/joda/core</text>
<text text-anchor="start" x="744.02" y="-96.5" font-family="Helvetica,sans-Serif" font-size="10.00">/modules/queryexecution</text>
<text text-anchor="middle" x="806.02" y="-85.5" font-family="Helvetica,sans-Serif" font-size="10.00">/src/QueryPlan.cpp</text>
</a>
</g>
</g>
<!-- Node7&#45;&gt;Node9 -->
<g id="edge9" class="edge">
<title>Node7&#45;&gt;Node9</title>
<path fill="none" stroke="midnightblue" d="M709.56,-162.33C727.52,-151.75 746.82,-140.38 763.39,-130.62"/>
<polygon fill="midnightblue" stroke="midnightblue" points="707.7,-159.36 700.86,-167.46 711.25,-165.39 707.7,-159.36"/>
</g>
<!-- Node13&#45;&gt;Node9 -->
<g id="edge14" class="edge">
<title>Node13&#45;&gt;Node9</title>
<path fill="none" stroke="midnightblue" d="M812.18,-162.49C811.04,-151.91 809.81,-140.53 808.75,-130.75"/>
<polygon fill="midnightblue" stroke="midnightblue" points="808.73,-163.16 813.29,-172.72 815.69,-162.41 808.73,-163.16"/>
</g>
<!-- Node14 -->
<g id="node14" class="node">
<title>Node14</title>
<g id="a_node14"><a xlink:href="../../da/d11/QueryThread_8cpp.html" target="_top" xlink:title=" ">
<polygon fill="white" stroke="black" points="894.02,-78.5 894.02,-130.5 1034.02,-130.5 1034.02,-78.5 894.02,-78.5"/>
<text text-anchor="start" x="902.02" y="-118.5" font-family="Helvetica,sans-Serif" font-size="10.00">/home/nico/projects</text>
<text text-anchor="start" x="902.02" y="-107.5" font-family="Helvetica,sans-Serif" font-size="10.00">/JODA&#45;gh/libs/joda/core</text>
<text text-anchor="start" x="902.02" y="-96.5" font-family="Helvetica,sans-Serif" font-size="10.00">/modules/queryexecution</text>
<text text-anchor="middle" x="964.02" y="-85.5" font-family="Helvetica,sans-Serif" font-size="10.00">/src/QueryThread.cpp</text>
</a>
</g>
</g>
<!-- Node13&#45;&gt;Node14 -->
<g id="edge15" class="edge">
<title>Node13&#45;&gt;Node14</title>
<path fill="none" stroke="midnightblue" d="M864.69,-167.58C883.88,-155.58 905.67,-141.97 923.93,-130.55"/>
<polygon fill="midnightblue" stroke="midnightblue" points="862.69,-164.7 856.07,-172.97 866.4,-170.64 862.69,-164.7"/>
</g>
<!-- Node15&#45;&gt;Node3 -->
<g id="edge17" class="edge">
<title>Node15&#45;&gt;Node3</title>
<path fill="none" stroke="midnightblue" d="M232.9,-190.77C149.2,-182.35 38.67,-165.01 11.02,-131 -3.84,-112.72 -3.44,-96.6 11.02,-78 29.92,-53.69 107.7,-38.19 165.45,-29.81"/>
<polygon fill="midnightblue" stroke="midnightblue" points="232.67,-194.26 242.97,-191.75 233.35,-187.29 232.67,-194.26"/>
</g>
<!-- Node15&#45;&gt;Node4 -->
<g id="edge18" class="edge">
<title>Node15&#45;&gt;Node4</title>
<path fill="none" stroke="midnightblue" d="M348.88,-163.7C364.48,-132.99 387.27,-90.88 401.02,-78 417.51,-62.55 439.07,-50.49 459,-41.59"/>
<polygon fill="midnightblue" stroke="midnightblue" points="345.66,-162.31 344.29,-172.82 351.91,-165.46 345.66,-162.31"/>
</g>
<!-- Node15&#45;&gt;Node8 -->
<g id="edge19" class="edge">
<title>Node15&#45;&gt;Node8</title>
<path fill="none" stroke="midnightblue" d="M382.39,-167.74C402.43,-155.71 425.22,-142.02 444.31,-130.55"/>
<polygon fill="midnightblue" stroke="midnightblue" points="380.46,-164.82 373.69,-172.97 384.07,-170.82 380.46,-164.82"/>
</g>
<!-- Node16 -->
<g id="node16" class="node">
<title>Node16</title>
<g id="a_node16"><a xlink:href="../../d5/daa/AggregatorParsingTest_8cpp.html" target="_top" xlink:title=" ">
<polygon fill="white" stroke="black" points="20.02,-78.5 20.02,-130.5 190.02,-130.5 190.02,-78.5 20.02,-78.5"/>
<text text-anchor="start" x="28.02" y="-118.5" font-family="Helvetica,sans-Serif" font-size="10.00">/home/nico/projects</text>
<text text-anchor="start" x="28.02" y="-107.5" font-family="Helvetica,sans-Serif" font-size="10.00">/JODA&#45;gh/libs/joda/core</text>
<text text-anchor="start" x="28.02" y="-96.5" font-family="Helvetica,sans-Serif" font-size="10.00">/modules/query/aggregate</text>
<text text-anchor="middle" x="105.02" y="-85.5" font-family="Helvetica,sans-Serif" font-size="10.00">/test/AggregatorParsingTest.cpp</text>
</a>
</g>
</g>
<!-- Node15&#45;&gt;Node16 -->
<g id="edge20" class="edge">
<title>Node15&#45;&gt;Node16</title>
<path fill="none" stroke="midnightblue" d="M261.33,-169.19C230.95,-156.82 195.78,-142.48 166.5,-130.55"/>
<polygon fill="midnightblue" stroke="midnightblue" points="260.01,-172.44 270.59,-172.97 262.65,-165.95 260.01,-172.44"/>
</g>
<!-- Node17 -->
<g id="node17" class="node">
<title>Node17</title>
<g id="a_node17"><a xlink:href="../../d0/d62/QueryParser_8cpp.html" target="_top" xlink:title=" ">
<polygon fill="white" stroke="black" points="208.02,-78.5 208.02,-130.5 354.02,-130.5 354.02,-78.5 208.02,-78.5"/>
<text text-anchor="start" x="216.02" y="-118.5" font-family="Helvetica,sans-Serif" font-size="10.00">/home/nico/projects</text>
<text text-anchor="start" x="216.02" y="-107.5" font-family="Helvetica,sans-Serif" font-size="10.00">/JODA&#45;gh/libs/joda/core</text>
<text text-anchor="start" x="216.02" y="-96.5" font-family="Helvetica,sans-Serif" font-size="10.00">/modules/queryparsing/src</text>
<text text-anchor="middle" x="281.02" y="-85.5" font-family="Helvetica,sans-Serif" font-size="10.00">/QueryParser.cpp</text>
</a>
</g>
</g>
<!-- Node15&#45;&gt;Node17 -->
<g id="edge21" class="edge">
<title>Node15&#45;&gt;Node17</title>
<path fill="none" stroke="midnightblue" d="M313.17,-163.81C307.13,-152.86 300.56,-140.94 294.94,-130.75"/>
<polygon fill="midnightblue" stroke="midnightblue" points="310.19,-165.66 318.08,-172.72 316.32,-162.28 310.19,-165.66"/>
</g>
</g>
</svg>
