<?xml version="1.0" encoding="UTF-8" standalone="no"?>
<!DOCTYPE svg PUBLIC "-//W3C//DTD SVG 1.1//EN"
 "http://www.w3.org/Graphics/SVG/1.1/DTD/svg11.dtd">
<!-- Generated by graphviz version 2.43.0 (0)
 -->
<!-- Title: /home/nico/joda_tmp/tmp&#45;joda&#45;dirs/JODA&#45;gh/libs/joda/core/modules/query/include/joda/query/Query.h Pages: 1 -->
<!--zoomable 361 -->
<svg id="main" version="1.1" xmlns="http://www.w3.org/2000/svg" xmlns:xlink="http://www.w3.org/1999/xlink" xml:space="preserve" onload="init(evt)">
<style type="text/css"><![CDATA[
.edge:hover path { stroke: red; }
.edge:hover polygon { stroke: red; fill: red; }
]]></style>
<script type="text/javascript"><![CDATA[
var edges = document.getElementsByTagName('g');
if (edges && edges.length) {
  for (var i=0;i<edges.length;i++) {
    if (edges[i].id.substr(0,4)=='edge') {
      edges[i].setAttribute('class','edge');
    }
  }
}
]]></script>
        <defs>
                <circle id="rim" cx="0" cy="0" r="7"/>
                <circle id="rim2" cx="0" cy="0" r="3.5"/>
                <g id="zoomPlus">
                        <use xlink:href="#rim" fill="#404040">
                                <set attributeName="fill" to="#808080" begin="zoomplus.mouseover" end="zoomplus.mouseout"/>
                        </use>
                        <path d="M-4,0h8M0,-4v8" fill="none" stroke="white" stroke-width="1.5" pointer-events="none"/>
                </g>
                <g id="zoomMin">
                        <use xlink:href="#rim" fill="#404040">
                                <set attributeName="fill" to="#808080" begin="zoomminus.mouseover" end="zoomminus.mouseout"/>
                        </use>
                        <path d="M-4,0h8" fill="none" stroke="white" stroke-width="1.5" pointer-events="none"/>
                </g>
                <g id="dirArrow">
                        <path fill="none" stroke="white" stroke-width="1.5" d="M0,-3.0v7 M-2.5,-0.5L0,-3.0L2.5,-0.5"/>
                </g>
               <g id="resetDef">
                       <use xlink:href="#rim2" fill="#404040">
                               <set attributeName="fill" to="#808080" begin="reset.mouseover" end="reset.mouseout"/>
                       </use>
               </g>
        </defs>

<script type="text/javascript">
var viewWidth = 1930;
var viewHeight = 361;
var sectionId = 'dynsection-1';
</script>
<script xlink:href="../../svgpan.js"/>
<svg id="graph" class="graph">
<g id="viewport">
<title>/home/nico/joda_tmp/tmp&#45;joda&#45;dirs/JODA&#45;gh/libs/joda/core/modules/query/include/joda/query/Query.h</title>
<polygon fill="white" stroke="transparent" points="-4,4 -4,-357 1926.03,-357 1926.03,4 -4,4"/>
<!-- Node1 -->
<g id="node1" class="node">
<title>Node1</title>
<g id="a_node1"><a xlink:title=" ">
<polygon fill="#bfbfbf" stroke="black" points="1078.53,-289.5 1078.53,-352.5 1224.53,-352.5 1224.53,-289.5 1078.53,-289.5"/>
<text text-anchor="start" x="1086.53" y="-340.5" font-family="Helvetica,sans-Serif" font-size="10.00">/home/nico/joda_tmp</text>
<text text-anchor="start" x="1086.53" y="-329.5" font-family="Helvetica,sans-Serif" font-size="10.00">/tmp&#45;joda&#45;dirs/JODA</text>
<text text-anchor="start" x="1086.53" y="-318.5" font-family="Helvetica,sans-Serif" font-size="10.00">&#45;gh/libs/joda/core/modules</text>
<text text-anchor="start" x="1086.53" y="-307.5" font-family="Helvetica,sans-Serif" font-size="10.00">/query/include/joda/query</text>
<text text-anchor="middle" x="1151.53" y="-296.5" font-family="Helvetica,sans-Serif" font-size="10.00">/Query.h</text>
</a>
</g>
</g>
<!-- Node2 -->
<g id="node2" class="node">
<title>Node2</title>
<g id="a_node2"><a xlink:href="../../d2/da6/CLI_8h.html" target="_top" xlink:title=" ">
<polygon fill="white" stroke="black" points="696.53,-95 696.53,-147 842.53,-147 842.53,-95 696.53,-95"/>
<text text-anchor="start" x="704.53" y="-135" font-family="Helvetica,sans-Serif" font-size="10.00">/home/nico/joda_tmp</text>
<text text-anchor="start" x="704.53" y="-124" font-family="Helvetica,sans-Serif" font-size="10.00">/tmp&#45;joda&#45;dirs/JODA</text>
<text text-anchor="start" x="704.53" y="-113" font-family="Helvetica,sans-Serif" font-size="10.00">&#45;gh/libs/joda/core/modules</text>
<text text-anchor="middle" x="769.53" y="-102" font-family="Helvetica,sans-Serif" font-size="10.00">/cli/include/joda/cli/CLI.h</text>
</a>
</g>
</g>
<!-- Node1&#45;&gt;Node2 -->
<g id="edge1" class="edge">
<title>Node1&#45;&gt;Node2</title>
<path fill="none" stroke="midnightblue" d="M1068.15,-320.64C946.8,-319.59 730.61,-309.56 681.53,-253 662.89,-231.51 668.91,-214.49 681.53,-189 690.06,-171.79 705.35,-157.81 720.82,-147.15"/>
<polygon fill="midnightblue" stroke="midnightblue" points="1068.49,-324.14 1078.51,-320.71 1068.54,-317.14 1068.49,-324.14"/>
</g>
<!-- Node5 -->
<g id="node5" class="node">
<title>Node5</title>
<g id="a_node5"><a xlink:href="../../dc/da4/StaticEvalVisitorTest_8cpp.html" target="_top" xlink:title=" ">
<polygon fill="white" stroke="black" points="1071.03,-189.5 1071.03,-252.5 1232.03,-252.5 1232.03,-189.5 1071.03,-189.5"/>
<text text-anchor="start" x="1079.03" y="-240.5" font-family="Helvetica,sans-Serif" font-size="10.00">/home/nico/joda_tmp</text>
<text text-anchor="start" x="1079.03" y="-229.5" font-family="Helvetica,sans-Serif" font-size="10.00">/tmp&#45;joda&#45;dirs/JODA</text>
<text text-anchor="start" x="1079.03" y="-218.5" font-family="Helvetica,sans-Serif" font-size="10.00">&#45;gh/libs/joda/core/modules</text>
<text text-anchor="start" x="1079.03" y="-207.5" font-family="Helvetica,sans-Serif" font-size="10.00">/query/predicate/src/visitors</text>
<text text-anchor="middle" x="1151.53" y="-196.5" font-family="Helvetica,sans-Serif" font-size="10.00">/test/StaticEvalVisitorTest.cpp</text>
</a>
</g>
</g>
<!-- Node1&#45;&gt;Node5 -->
<g id="edge4" class="edge">
<title>Node1&#45;&gt;Node5</title>
<path fill="none" stroke="midnightblue" d="M1151.53,-279.1C1151.53,-270.24 1151.53,-261.01 1151.53,-252.63"/>
<polygon fill="midnightblue" stroke="midnightblue" points="1148.03,-279.26 1151.53,-289.26 1155.03,-279.26 1148.03,-279.26"/>
</g>
<!-- Node6 -->
<g id="node6" class="node">
<title>Node6</title>
<g id="a_node6"><a xlink:href="../../de/d9f/Query_8cpp.html" target="_top" xlink:title=" ">
<polygon fill="white" stroke="black" points="1250.53,-195 1250.53,-247 1396.53,-247 1396.53,-195 1250.53,-195"/>
<text text-anchor="start" x="1258.53" y="-235" font-family="Helvetica,sans-Serif" font-size="10.00">/home/nico/joda_tmp</text>
<text text-anchor="start" x="1258.53" y="-224" font-family="Helvetica,sans-Serif" font-size="10.00">/tmp&#45;joda&#45;dirs/JODA</text>
<text text-anchor="start" x="1258.53" y="-213" font-family="Helvetica,sans-Serif" font-size="10.00">&#45;gh/libs/joda/core/modules</text>
<text text-anchor="middle" x="1323.53" y="-202" font-family="Helvetica,sans-Serif" font-size="10.00">/query/src/Query.cpp</text>
</a>
</g>
</g>
<!-- Node1&#45;&gt;Node6 -->
<g id="edge5" class="edge">
<title>Node1&#45;&gt;Node6</title>
<path fill="none" stroke="midnightblue" d="M1214.3,-284.24C1235.95,-271.9 1259.74,-258.35 1279.56,-247.05"/>
<polygon fill="midnightblue" stroke="midnightblue" points="1212.44,-281.27 1205.48,-289.26 1215.91,-287.35 1212.44,-281.27"/>
</g>
<!-- Node7 -->
<g id="node7" class="node">
<title>Node7</title>
<g id="a_node7"><a xlink:href="../../dc/d6d/QueryPlan_8h.html" target="_top" xlink:title=" ">
<polygon fill="white" stroke="black" points="691.03,-189.5 691.03,-252.5 848.03,-252.5 848.03,-189.5 691.03,-189.5"/>
<text text-anchor="start" x="699.03" y="-240.5" font-family="Helvetica,sans-Serif" font-size="10.00">/home/nico/joda_tmp</text>
<text text-anchor="start" x="699.03" y="-229.5" font-family="Helvetica,sans-Serif" font-size="10.00">/tmp&#45;joda&#45;dirs/JODA</text>
<text text-anchor="start" x="699.03" y="-218.5" font-family="Helvetica,sans-Serif" font-size="10.00">&#45;gh/libs/joda/core/modules</text>
<text text-anchor="start" x="699.03" y="-207.5" font-family="Helvetica,sans-Serif" font-size="10.00">/queryexecution/include/joda</text>
<text text-anchor="middle" x="769.53" y="-196.5" font-family="Helvetica,sans-Serif" font-size="10.00">/queryexecution/QueryPlan.h</text>
</a>
</g>
</g>
<!-- Node1&#45;&gt;Node7 -->
<g id="edge6" class="edge">
<title>Node1&#45;&gt;Node7</title>
<path fill="none" stroke="midnightblue" d="M1068.4,-303.71C1009.16,-291.46 927.9,-273.34 857.53,-253 854.42,-252.1 851.26,-251.15 848.07,-250.17"/>
<polygon fill="midnightblue" stroke="midnightblue" points="1067.95,-307.19 1078.45,-305.77 1069.36,-300.33 1067.95,-307.19"/>
</g>
<!-- Node10 -->
<g id="node10" class="node">
<title>Node10</title>
<g id="a_node10"><a xlink:href="../../d0/da0/CacheExecutor_8cpp.html" target="_top" xlink:title=" ">
<polygon fill="white" stroke="black" points="1415.03,-189.5 1415.03,-252.5 1572.03,-252.5 1572.03,-189.5 1415.03,-189.5"/>
<text text-anchor="start" x="1423.03" y="-240.5" font-family="Helvetica,sans-Serif" font-size="10.00">/home/nico/joda_tmp</text>
<text text-anchor="start" x="1423.03" y="-229.5" font-family="Helvetica,sans-Serif" font-size="10.00">/tmp&#45;joda&#45;dirs/JODA</text>
<text text-anchor="start" x="1423.03" y="-218.5" font-family="Helvetica,sans-Serif" font-size="10.00">&#45;gh/libs/joda/core/modules</text>
<text text-anchor="start" x="1423.03" y="-207.5" font-family="Helvetica,sans-Serif" font-size="10.00">/queryexecution/src/executor</text>
<text text-anchor="middle" x="1493.53" y="-196.5" font-family="Helvetica,sans-Serif" font-size="10.00">/CacheExecutor.cpp</text>
</a>
</g>
</g>
<!-- Node1&#45;&gt;Node10 -->
<g id="edge10" class="edge">
<title>Node1&#45;&gt;Node10</title>
<path fill="none" stroke="midnightblue" d="M1234.55,-299.9C1284.41,-287.39 1348.93,-270.4 1405.53,-253 1408.63,-252.05 1411.78,-251.06 1414.96,-250.03"/>
<polygon fill="midnightblue" stroke="midnightblue" points="1233.64,-296.52 1224.79,-302.35 1235.34,-303.32 1233.64,-296.52"/>
</g>
<!-- Node11 -->
<g id="node11" class="node">
<title>Node11</title>
<g id="a_node11"><a xlink:href="../../dc/d3b/ConstExecutor_8cpp.html" target="_top" xlink:title=" ">
<polygon fill="white" stroke="black" points="1590.03,-189.5 1590.03,-252.5 1747.03,-252.5 1747.03,-189.5 1590.03,-189.5"/>
<text text-anchor="start" x="1598.03" y="-240.5" font-family="Helvetica,sans-Serif" font-size="10.00">/home/nico/joda_tmp</text>
<text text-anchor="start" x="1598.03" y="-229.5" font-family="Helvetica,sans-Serif" font-size="10.00">/tmp&#45;joda&#45;dirs/JODA</text>
<text text-anchor="start" x="1598.03" y="-218.5" font-family="Helvetica,sans-Serif" font-size="10.00">&#45;gh/libs/joda/core/modules</text>
<text text-anchor="start" x="1598.03" y="-207.5" font-family="Helvetica,sans-Serif" font-size="10.00">/queryexecution/src/executor</text>
<text text-anchor="middle" x="1668.53" y="-196.5" font-family="Helvetica,sans-Serif" font-size="10.00">/ConstExecutor.cpp</text>
</a>
</g>
</g>
<!-- Node1&#45;&gt;Node11 -->
<g id="edge11" class="edge">
<title>Node1&#45;&gt;Node11</title>
<path fill="none" stroke="midnightblue" d="M1234.77,-311.72C1322.07,-301.95 1462.84,-283.11 1581.53,-253 1584.33,-252.29 1587.17,-251.53 1590.02,-250.72"/>
<polygon fill="midnightblue" stroke="midnightblue" points="1234.21,-308.26 1224.65,-312.84 1234.97,-315.22 1234.21,-308.26"/>
</g>
<!-- Node12 -->
<g id="node12" class="node">
<title>Node12</title>
<g id="a_node12"><a xlink:href="../../d8/d4c/DefaultExecutor_8cpp.html" target="_top" xlink:title=" ">
<polygon fill="white" stroke="black" points="1765.03,-189.5 1765.03,-252.5 1922.03,-252.5 1922.03,-189.5 1765.03,-189.5"/>
<text text-anchor="start" x="1773.03" y="-240.5" font-family="Helvetica,sans-Serif" font-size="10.00">/home/nico/joda_tmp</text>
<text text-anchor="start" x="1773.03" y="-229.5" font-family="Helvetica,sans-Serif" font-size="10.00">/tmp&#45;joda&#45;dirs/JODA</text>
<text text-anchor="start" x="1773.03" y="-218.5" font-family="Helvetica,sans-Serif" font-size="10.00">&#45;gh/libs/joda/core/modules</text>
<text text-anchor="start" x="1773.03" y="-207.5" font-family="Helvetica,sans-Serif" font-size="10.00">/queryexecution/src/executor</text>
<text text-anchor="middle" x="1843.53" y="-196.5" font-family="Helvetica,sans-Serif" font-size="10.00">/DefaultExecutor.cpp</text>
</a>
</g>
</g>
<!-- Node1&#45;&gt;Node12 -->
<g id="edge12" class="edge">
<title>Node1&#45;&gt;Node12</title>
<path fill="none" stroke="midnightblue" d="M1234.63,-316.89C1352.19,-311.12 1573.16,-295.22 1756.53,-253 1759.19,-252.39 1761.88,-251.72 1764.58,-251.01"/>
<polygon fill="midnightblue" stroke="midnightblue" points="1234.44,-313.4 1224.62,-317.37 1234.78,-320.39 1234.44,-313.4"/>
</g>
<!-- Node13 -->
<g id="node13" class="node">
<title>Node13</title>
<g id="a_node13"><a xlink:href="../../d8/d5f/QueryThread_8h.html" target="_top" xlink:title=" ">
<polygon fill="white" stroke="black" points="866.03,-195 866.03,-247 1053.03,-247 1053.03,-195 866.03,-195"/>
<text text-anchor="start" x="874.03" y="-235" font-family="Helvetica,sans-Serif" font-size="10.00">/home/nico/joda_tmp</text>
<text text-anchor="start" x="874.03" y="-224" font-family="Helvetica,sans-Serif" font-size="10.00">/tmp&#45;joda&#45;dirs/JODA</text>
<text text-anchor="start" x="874.03" y="-213" font-family="Helvetica,sans-Serif" font-size="10.00">&#45;gh/libs/joda/core/modules</text>
<text text-anchor="middle" x="959.53" y="-202" font-family="Helvetica,sans-Serif" font-size="10.00">/queryexecution/src/QueryThread.h</text>
</a>
</g>
</g>
<!-- Node1&#45;&gt;Node13 -->
<g id="edge13" class="edge">
<title>Node1&#45;&gt;Node13</title>
<path fill="none" stroke="midnightblue" d="M1082.37,-284.7C1058.01,-272.26 1031.13,-258.55 1008.75,-247.12"/>
<polygon fill="midnightblue" stroke="midnightblue" points="1081.08,-287.97 1091.57,-289.4 1084.26,-281.73 1081.08,-287.97"/>
</g>
<!-- Node15 -->
<g id="node15" class="node">
<title>Node15</title>
<g id="a_node15"><a xlink:href="../../dc/d60/QueryParser_8h.html" target="_top" xlink:title=" ">
<polygon fill="white" stroke="black" points="294.53,-189.5 294.53,-252.5 448.53,-252.5 448.53,-189.5 294.53,-189.5"/>
<text text-anchor="start" x="302.53" y="-240.5" font-family="Helvetica,sans-Serif" font-size="10.00">/home/nico/joda_tmp</text>
<text text-anchor="start" x="302.53" y="-229.5" font-family="Helvetica,sans-Serif" font-size="10.00">/tmp&#45;joda&#45;dirs/JODA</text>
<text text-anchor="start" x="302.53" y="-218.5" font-family="Helvetica,sans-Serif" font-size="10.00">&#45;gh/libs/joda/core/modules</text>
<text text-anchor="start" x="302.53" y="-207.5" font-family="Helvetica,sans-Serif" font-size="10.00">/queryparsing/include/joda</text>
<text text-anchor="middle" x="371.53" y="-196.5" font-family="Helvetica,sans-Serif" font-size="10.00">/queryparsing/QueryParser.h</text>
</a>
</g>
</g>
<!-- Node1&#45;&gt;Node15 -->
<g id="edge16" class="edge">
<title>Node1&#45;&gt;Node15</title>
<path fill="none" stroke="midnightblue" d="M1068.3,-309.54C916.27,-290.44 595.82,-250.18 448.54,-231.67"/>
<polygon fill="midnightblue" stroke="midnightblue" points="1068.15,-313.05 1078.5,-310.82 1069.02,-306.11 1068.15,-313.05"/>
</g>
<!-- Node3 -->
<g id="node3" class="node">
<title>Node3</title>
<g id="a_node3"><a xlink:href="../../df/d21/CLI_8cpp.html" target="_top" xlink:title=" ">
<polygon fill="white" stroke="black" points="226.53,-0.5 226.53,-52.5 372.53,-52.5 372.53,-0.5 226.53,-0.5"/>
<text text-anchor="start" x="234.53" y="-40.5" font-family="Helvetica,sans-Serif" font-size="10.00">/home/nico/joda_tmp</text>
<text text-anchor="start" x="234.53" y="-29.5" font-family="Helvetica,sans-Serif" font-size="10.00">/tmp&#45;joda&#45;dirs/JODA</text>
<text text-anchor="start" x="234.53" y="-18.5" font-family="Helvetica,sans-Serif" font-size="10.00">&#45;gh/libs/joda/core/modules</text>
<text text-anchor="middle" x="299.53" y="-7.5" font-family="Helvetica,sans-Serif" font-size="10.00">/cli/src/CLI.cpp</text>
</a>
</g>
</g>
<!-- Node2&#45;&gt;Node3 -->
<g id="edge2" class="edge">
<title>Node2&#45;&gt;Node3</title>
<path fill="none" stroke="midnightblue" d="M697.67,-91.89C694.26,-90.86 690.87,-89.89 687.53,-89 579.75,-60.41 451.38,-43.25 372.68,-34.59"/>
<polygon fill="midnightblue" stroke="midnightblue" points="696.7,-95.26 707.29,-94.97 698.83,-88.59 696.7,-95.26"/>
</g>
<!-- Node4 -->
<g id="node4" class="node">
<title>Node4</title>
<g id="a_node4"><a xlink:href="../../da/d36/CLICompletion_8cpp.html" target="_top" xlink:title=" ">
<polygon fill="white" stroke="black" points="526.53,-0.5 526.53,-52.5 672.53,-52.5 672.53,-0.5 526.53,-0.5"/>
<text text-anchor="start" x="534.53" y="-40.5" font-family="Helvetica,sans-Serif" font-size="10.00">/home/nico/joda_tmp</text>
<text text-anchor="start" x="534.53" y="-29.5" font-family="Helvetica,sans-Serif" font-size="10.00">/tmp&#45;joda&#45;dirs/JODA</text>
<text text-anchor="start" x="534.53" y="-18.5" font-family="Helvetica,sans-Serif" font-size="10.00">&#45;gh/libs/joda/core/modules</text>
<text text-anchor="middle" x="599.53" y="-7.5" font-family="Helvetica,sans-Serif" font-size="10.00">/cli/src/CLICompletion.cpp</text>
</a>
</g>
</g>
<!-- Node2&#45;&gt;Node4 -->
<g id="edge3" class="edge">
<title>Node2&#45;&gt;Node4</title>
<path fill="none" stroke="midnightblue" d="M714.53,-90.07C692.26,-77.95 666.84,-64.12 645.58,-52.55"/>
<polygon fill="midnightblue" stroke="midnightblue" points="713.07,-93.26 723.53,-94.97 716.42,-87.11 713.07,-93.26"/>
</g>
<!-- Node7&#45;&gt;Node2 -->
<g id="edge7" class="edge">
<title>Node7&#45;&gt;Node2</title>
<path fill="none" stroke="midnightblue" d="M769.53,-179.08C769.53,-168.21 769.53,-156.79 769.53,-147.05"/>
<polygon fill="midnightblue" stroke="midnightblue" points="766.03,-179.26 769.53,-189.26 773.03,-179.26 766.03,-179.26"/>
</g>
<!-- Node8 -->
<g id="node8" class="node">
<title>Node8</title>
<g id="a_node8"><a xlink:href="../../d4/dbf/JodaQueryRequest_8cpp.html" target="_top" xlink:title=" ">
<polygon fill="white" stroke="black" points="458.53,-95 458.53,-147 678.53,-147 678.53,-95 458.53,-95"/>
<text text-anchor="start" x="466.53" y="-135" font-family="Helvetica,sans-Serif" font-size="10.00">/home/nico/joda_tmp</text>
<text text-anchor="start" x="466.53" y="-124" font-family="Helvetica,sans-Serif" font-size="10.00">/tmp&#45;joda&#45;dirs/JODA</text>
<text text-anchor="start" x="466.53" y="-113" font-family="Helvetica,sans-Serif" font-size="10.00">&#45;gh/libs/joda/core/modules</text>
<text text-anchor="middle" x="568.53" y="-102" font-family="Helvetica,sans-Serif" font-size="10.00">/network/src/apiv2/JodaQueryRequest.cpp</text>
</a>
</g>
</g>
<!-- Node7&#45;&gt;Node8 -->
<g id="edge8" class="edge">
<title>Node7&#45;&gt;Node8</title>
<path fill="none" stroke="midnightblue" d="M697.47,-184.86C671.87,-172.38 643.59,-158.6 620.06,-147.12"/>
<polygon fill="midnightblue" stroke="midnightblue" points="696.24,-188.16 706.76,-189.4 699.31,-181.87 696.24,-188.16"/>
</g>
<!-- Node9 -->
<g id="node9" class="node">
<title>Node9</title>
<g id="a_node9"><a xlink:href="../../d2/d7a/QueryPlan_8cpp.html" target="_top" xlink:title=" ">
<polygon fill="white" stroke="black" points="861.03,-95 861.03,-147 1046.03,-147 1046.03,-95 861.03,-95"/>
<text text-anchor="start" x="869.03" y="-135" font-family="Helvetica,sans-Serif" font-size="10.00">/home/nico/joda_tmp</text>
<text text-anchor="start" x="869.03" y="-124" font-family="Helvetica,sans-Serif" font-size="10.00">/tmp&#45;joda&#45;dirs/JODA</text>
<text text-anchor="start" x="869.03" y="-113" font-family="Helvetica,sans-Serif" font-size="10.00">&#45;gh/libs/joda/core/modules</text>
<text text-anchor="middle" x="953.53" y="-102" font-family="Helvetica,sans-Serif" font-size="10.00">/queryexecution/src/QueryPlan.cpp</text>
</a>
</g>
</g>
<!-- Node7&#45;&gt;Node9 -->
<g id="edge9" class="edge">
<title>Node7&#45;&gt;Node9</title>
<path fill="none" stroke="midnightblue" d="M836.12,-184.53C859.39,-172.14 885.01,-158.49 906.37,-147.12"/>
<polygon fill="midnightblue" stroke="midnightblue" points="834.18,-181.61 827,-189.4 837.47,-187.78 834.18,-181.61"/>
</g>
<!-- Node13&#45;&gt;Node9 -->
<g id="edge14" class="edge">
<title>Node13&#45;&gt;Node9</title>
<path fill="none" stroke="midnightblue" d="M957.37,-184.7C956.61,-172.28 955.77,-158.57 955.07,-147.15"/>
<polygon fill="midnightblue" stroke="midnightblue" points="953.89,-185 957.99,-194.76 960.87,-184.57 953.89,-185"/>
</g>
<!-- Node14 -->
<g id="node14" class="node">
<title>Node14</title>
<g id="a_node14"><a xlink:href="../../da/d11/QueryThread_8cpp.html" target="_top" xlink:title=" ">
<polygon fill="white" stroke="black" points="1064.53,-95 1064.53,-147 1262.53,-147 1262.53,-95 1064.53,-95"/>
<text text-anchor="start" x="1072.53" y="-135" font-family="Helvetica,sans-Serif" font-size="10.00">/home/nico/joda_tmp</text>
<text text-anchor="start" x="1072.53" y="-124" font-family="Helvetica,sans-Serif" font-size="10.00">/tmp&#45;joda&#45;dirs/JODA</text>
<text text-anchor="start" x="1072.53" y="-113" font-family="Helvetica,sans-Serif" font-size="10.00">&#45;gh/libs/joda/core/modules</text>
<text text-anchor="middle" x="1163.53" y="-102" font-family="Helvetica,sans-Serif" font-size="10.00">/queryexecution/src/QueryThread.cpp</text>
</a>
</g>
</g>
<!-- Node13&#45;&gt;Node14 -->
<g id="edge15" class="edge">
<title>Node13&#45;&gt;Node14</title>
<path fill="none" stroke="midnightblue" d="M1020.97,-190.49C1049.82,-176.63 1083.83,-160.29 1111.4,-147.04"/>
<polygon fill="midnightblue" stroke="midnightblue" points="1019.3,-187.4 1011.81,-194.89 1022.33,-193.71 1019.3,-187.4"/>
</g>
<!-- Node15&#45;&gt;Node3 -->
<g id="edge17" class="edge">
<title>Node15&#45;&gt;Node3</title>
<path fill="none" stroke="midnightblue" d="M284.31,-216.08C189.6,-209.79 47.29,-193.66 13.53,-153 -4.63,-131.11 -4.34,-111.13 13.53,-89 39.82,-56.46 150.73,-40.33 226.45,-32.97"/>
<polygon fill="midnightblue" stroke="midnightblue" points="284.26,-219.59 294.47,-216.73 284.71,-212.6 284.26,-219.59"/>
</g>
<!-- Node15&#45;&gt;Node4 -->
<g id="edge18" class="edge">
<title>Node15&#45;&gt;Node4</title>
<path fill="none" stroke="midnightblue" d="M395.13,-180.51C400.53,-171.47 406.23,-161.9 411.53,-153 428.46,-124.58 424.49,-110.61 449.53,-89 471.48,-70.06 500.05,-56.4 526.36,-46.85"/>
<polygon fill="midnightblue" stroke="midnightblue" points="391.99,-178.94 389.87,-189.32 398,-182.53 391.99,-178.94"/>
</g>
<!-- Node15&#45;&gt;Node8 -->
<g id="edge19" class="edge">
<title>Node15&#45;&gt;Node8</title>
<path fill="none" stroke="midnightblue" d="M442.17,-184.86C467.25,-172.38 494.97,-158.6 518.04,-147.12"/>
<polygon fill="midnightblue" stroke="midnightblue" points="440.45,-181.81 433.06,-189.4 443.57,-188.07 440.45,-181.81"/>
</g>
<!-- Node16 -->
<g id="node16" class="node">
<title>Node16</title>
<g id="a_node16"><a xlink:href="../../d5/daa/AggregatorParsingTest_8cpp.html" target="_top" xlink:title=" ">
<polygon fill="white" stroke="black" points="23.03,-89.5 23.03,-152.5 202.03,-152.5 202.03,-89.5 23.03,-89.5"/>
<text text-anchor="start" x="31.03" y="-140.5" font-family="Helvetica,sans-Serif" font-size="10.00">/home/nico/joda_tmp</text>
<text text-anchor="start" x="31.03" y="-129.5" font-family="Helvetica,sans-Serif" font-size="10.00">/tmp&#45;joda&#45;dirs/JODA</text>
<text text-anchor="start" x="31.03" y="-118.5" font-family="Helvetica,sans-Serif" font-size="10.00">&#45;gh/libs/joda/core/modules</text>
<text text-anchor="start" x="31.03" y="-107.5" font-family="Helvetica,sans-Serif" font-size="10.00">/query/aggregate/test/Aggregator</text>
<text text-anchor="middle" x="112.53" y="-96.5" font-family="Helvetica,sans-Serif" font-size="10.00">ParsingTest.cpp</text>
</a>
</g>
</g>
<!-- Node15&#45;&gt;Node16 -->
<g id="edge20" class="edge">
<title>Node15&#45;&gt;Node16</title>
<path fill="none" stroke="midnightblue" d="M285.04,-187.27C255.43,-176.07 222.43,-163.58 193.29,-152.56"/>
<polygon fill="midnightblue" stroke="midnightblue" points="283.94,-190.6 294.53,-190.86 286.41,-184.05 283.94,-190.6"/>
</g>
<!-- Node17 -->
<g id="node17" class="node">
<title>Node17</title>
<g id="a_node17"><a xlink:href="../../d0/d62/QueryParser_8cpp.html" target="_top" xlink:title=" ">
<polygon fill="white" stroke="black" points="220.53,-95 220.53,-147 402.53,-147 402.53,-95 220.53,-95"/>
<text text-anchor="start" x="228.53" y="-135" font-family="Helvetica,sans-Serif" font-size="10.00">/home/nico/joda_tmp</text>
<text text-anchor="start" x="228.53" y="-124" font-family="Helvetica,sans-Serif" font-size="10.00">/tmp&#45;joda&#45;dirs/JODA</text>
<text text-anchor="start" x="228.53" y="-113" font-family="Helvetica,sans-Serif" font-size="10.00">&#45;gh/libs/joda/core/modules</text>
<text text-anchor="middle" x="311.53" y="-102" font-family="Helvetica,sans-Serif" font-size="10.00">/queryparsing/src/QueryParser.cpp</text>
</a>
</g>
</g>
<!-- Node15&#45;&gt;Node17 -->
<g id="edge21" class="edge">
<title>Node15&#45;&gt;Node17</title>
<path fill="none" stroke="midnightblue" d="M347.3,-180.42C340.4,-169.15 333.08,-157.2 326.87,-147.05"/>
<polygon fill="midnightblue" stroke="midnightblue" points="344.51,-182.56 352.72,-189.26 350.48,-178.9 344.51,-182.56"/>
</g>
</g>
</svg>
        <g id="navigator" transform="translate(0 0)" fill="#404254">
                <rect fill="#f2f5e9" fill-opacity="0.5" stroke="#606060" stroke-width=".5" x="0" y="0" width="60" height="60"/>
                <use id="zoomplus" xlink:href="#zoomPlus" x="17" y="9" onmousedown="handleZoom(evt,'in')"/>
                <use id="zoomminus" xlink:href="#zoomMin" x="42" y="9" onmousedown="handleZoom(evt,'out')"/>
                <use id="reset" xlink:href="#resetDef" x="30" y="36" onmousedown="handleReset()"/>
                <g id="arrowUp" xlink:href="#dirArrow" transform="translate(30 24)" onmousedown="handlePan(0,-1)">
                  <use xlink:href="#rim" fill="#404040">
                        <set attributeName="fill" to="#808080" begin="arrowUp.mouseover" end="arrowUp.mouseout"/>
                  </use>
                  <path fill="none" stroke="white" stroke-width="1.5" d="M0,-3.0v7 M-2.5,-0.5L0,-3.0L2.5,-0.5"/>
                </g>
                <g id="arrowRight" xlink:href="#dirArrow" transform="rotate(90) translate(36 -43)" onmousedown="handlePan(1,0)">
                  <use xlink:href="#rim" fill="#404040">
                        <set attributeName="fill" to="#808080" begin="arrowRight.mouseover" end="arrowRight.mouseout"/>
                  </use>
                  <path fill="none" stroke="white" stroke-width="1.5" d="M0,-3.0v7 M-2.5,-0.5L0,-3.0L2.5,-0.5"/>
                </g>
                <g id="arrowDown" xlink:href="#dirArrow" transform="rotate(180) translate(-30 -48)" onmousedown="handlePan(0,1)">
                  <use xlink:href="#rim" fill="#404040">
                        <set attributeName="fill" to="#808080" begin="arrowDown.mouseover" end="arrowDown.mouseout"/>
                  </use>
                  <path fill="none" stroke="white" stroke-width="1.5" d="M0,-3.0v7 M-2.5,-0.5L0,-3.0L2.5,-0.5"/>
                </g>
                <g id="arrowLeft" xlink:href="#dirArrow" transform="rotate(270) translate(-36 17)" onmousedown="handlePan(-1,0)">
                  <use xlink:href="#rim" fill="#404040">
                        <set attributeName="fill" to="#808080" begin="arrowLeft.mouseover" end="arrowLeft.mouseout"/>
                  </use>
                  <path fill="none" stroke="white" stroke-width="1.5" d="M0,-3.0v7 M-2.5,-0.5L0,-3.0L2.5,-0.5"/>
                </g>
        </g>
        <svg viewBox="0 0 15 15" width="100%" height="30px" preserveAspectRatio="xMaxYMin meet">
         <g id="arrow_out" transform="scale(0.3 0.3)">
          <a xlink:href="Query_8h__dep__incl_org.svg" target="_base">
           <rect id="button" ry="5" rx="5" y="6" x="6" height="38" width="38"
                fill="#f2f5e9" fill-opacity="0.5" stroke="#606060" stroke-width="1.0"/>
           <path id="arrow"
             d="M 11.500037,31.436501 C 11.940474,20.09759 22.043105,11.32322 32.158766,21.979434 L 37.068811,17.246167 C 37.068811,17.246167 37.088388,32 37.088388,32 L 22.160133,31.978069 C 22.160133,31.978069 26.997745,27.140456 26.997745,27.140456 C 18.528582,18.264221 13.291696,25.230495 11.500037,31.436501 z"
             style="fill:#404040;"/>
          </a>
         </g>
        </svg>
</svg>
