<?xml version="1.0" encoding="UTF-8" standalone="no"?>
<!DOCTYPE svg PUBLIC "-//W3C//DTD SVG 1.1//EN"
 "http://www.w3.org/Graphics/SVG/1.1/DTD/svg11.dtd">
<!-- Generated by graphviz version 2.43.0 (0)
 -->
<!-- Title: joda::docparsing::JSONStreamParser&lt; Scheduler &gt; Pages: 1 -->
<svg width="256pt" height="207pt"
 viewBox="0.00 0.00 256.00 207.00" xmlns="http://www.w3.org/2000/svg" xmlns:xlink="http://www.w3.org/1999/xlink">
<g id="graph0" class="graph" transform="scale(1 1) rotate(0) translate(4 203)">
<title>joda::docparsing::JSONStreamParser&lt; Scheduler &gt;</title>
<polygon fill="white" stroke="transparent" points="-4,4 -4,-203 252,-203 252,4 -4,4"/>
<!-- Node1 -->
<g id="node1" class="node">
<title>Node1</title>
<g id="a_node1"><a xlink:title=" ">
<polygon fill="#bfbfbf" stroke="black" points="12,-0.5 12,-30.5 174,-30.5 174,-0.5 12,-0.5"/>
<text text-anchor="start" x="20" y="-18.5" font-family="Helvetica,sans-Serif" font-size="10.00">joda::docparsing::JSONStream</text>
<text text-anchor="middle" x="93" y="-7.5" font-family="Helvetica,sans-Serif" font-size="10.00">Parser&lt; Scheduler &gt;</text>
</a>
</g>
</g>
<!-- Node2 -->
<g id="node2" class="node">
<title>Node2</title>
<g id="a_node2"><a xlink:href="../../db/de4/classIWorkerThread.html" target="_top" xlink:title=" ">
<polygon fill="white" stroke="black" points="0,-68.5 0,-109.5 186,-109.5 186,-68.5 0,-68.5"/>
<text text-anchor="start" x="8" y="-97.5" font-family="Helvetica,sans-Serif" font-size="10.00">IWorkerThread&lt; JsonTextStream</text>
<text text-anchor="start" x="8" y="-86.5" font-family="Helvetica,sans-Serif" font-size="10.00">ParserQueue, JsonContainerQueue,</text>
<text text-anchor="middle" x="93" y="-75.5" font-family="Helvetica,sans-Serif" font-size="10.00"> size_t &gt;</text>
</a>
</g>
</g>
<!-- Node2&#45;&gt;Node1 -->
<g id="edge1" class="edge">
<title>Node2&#45;&gt;Node1</title>
<path fill="none" stroke="midnightblue" d="M93,-58.16C93,-48.69 93,-38.65 93,-30.8"/>
<polygon fill="midnightblue" stroke="midnightblue" points="89.5,-58.46 93,-68.46 96.5,-58.46 89.5,-58.46"/>
</g>
<!-- Node3 -->
<g id="node3" class="node">
<title>Node3</title>
<g id="a_node3"><a xlink:href="../../db/de4/classIWorkerThread.html" target="_top" xlink:title=" ">
<polygon fill="white" stroke="black" points="11,-168.5 11,-198.5 175,-198.5 175,-168.5 11,-168.5"/>
<text text-anchor="start" x="19" y="-186.5" font-family="Helvetica,sans-Serif" font-size="10.00">IWorkerThread&lt; IQueueStruct,</text>
<text text-anchor="middle" x="93" y="-175.5" font-family="Helvetica,sans-Serif" font-size="10.00"> OQueueStruct, WConfig &gt;</text>
</a>
</g>
</g>
<!-- Node3&#45;&gt;Node2 -->
<g id="edge2" class="edge">
<title>Node3&#45;&gt;Node2</title>
<path fill="none" stroke="orange" stroke-dasharray="5,2" d="M93,-158.28C93,-143.14 93,-123.88 93,-109.68"/>
<polygon fill="orange" stroke="orange" points="89.5,-158.45 93,-168.45 96.5,-158.45 89.5,-158.45"/>
<text text-anchor="start" x="93" y="-142" font-family="Helvetica,sans-Serif" font-size="10.00"> &lt; JsonTextStreamParserQueue,</text>
<text text-anchor="middle" x="170.5" y="-131" font-family="Helvetica,sans-Serif" font-size="10.00"> JsonContainerQueue, size_t &gt;</text>
</g>
</g>
</svg>
