<?xml version="1.0" encoding="UTF-8" standalone="no"?>
<!DOCTYPE svg PUBLIC "-//W3C//DTD SVG 1.1//EN"
 "http://www.w3.org/Graphics/SVG/1.1/DTD/svg11.dtd">
<!-- Generated by graphviz version 2.43.0 (0)
 -->
<!-- Title: /home/nico/projects/JODA&#45;gh/libs/joda/core/modules/similarity/src/RJPathsReader.cpp Pages: 1 -->
<svg width="304pt" height="173pt"
 viewBox="0.00 0.00 304.00 173.00" xmlns="http://www.w3.org/2000/svg" xmlns:xlink="http://www.w3.org/1999/xlink">
<g id="graph0" class="graph" transform="scale(1 1) rotate(0) translate(4 169)">
<title>/home/nico/projects/JODA&#45;gh/libs/joda/core/modules/similarity/src/RJPathsReader.cpp</title>
<polygon fill="white" stroke="transparent" points="-4,4 -4,-169 300,-169 300,4 -4,4"/>
<!-- Node1 -->
<g id="node1" class="node">
<title>Node1</title>
<g id="a_node1"><a xlink:title=" ">
<polygon fill="#bfbfbf" stroke="black" points="134,-112.5 134,-164.5 262,-164.5 262,-112.5 134,-112.5"/>
<text text-anchor="start" x="142" y="-152.5" font-family="Helvetica,sans-Serif" font-size="10.00">/home/nico/projects</text>
<text text-anchor="start" x="142" y="-141.5" font-family="Helvetica,sans-Serif" font-size="10.00">/JODA&#45;gh/libs/joda/core</text>
<text text-anchor="start" x="142" y="-130.5" font-family="Helvetica,sans-Serif" font-size="10.00">/modules/similarity/src</text>
<text text-anchor="middle" x="198" y="-119.5" font-family="Helvetica,sans-Serif" font-size="10.00">/RJPathsReader.cpp</text>
</a>
</g>
</g>
<!-- Node2 -->
<g id="node2" class="node">
<title>Node2</title>
<g id="a_node2"><a xlink:href="../../d0/dc3/RJPathsReader_8h.html" target="_top" xlink:title=" ">
<polygon fill="white" stroke="black" points="96.5,-56.5 96.5,-75.5 191.5,-75.5 191.5,-56.5 96.5,-56.5"/>
<text text-anchor="middle" x="144" y="-63.5" font-family="Helvetica,sans-Serif" font-size="10.00">RJPathsReader.h</text>
</a>
</g>
</g>
<!-- Node1&#45;&gt;Node2 -->
<g id="edge1" class="edge">
<title>Node1&#45;&gt;Node2</title>
<path fill="none" stroke="midnightblue" d="M178.81,-112.45C171.52,-102.93 163.4,-92.33 156.84,-83.76"/>
<polygon fill="midnightblue" stroke="midnightblue" points="159.52,-81.51 150.66,-75.7 153.96,-85.76 159.52,-81.51"/>
</g>
<!-- Node6 -->
<g id="node6" class="node">
<title>Node6</title>
<g id="a_node6"><a xlink:title=" ">
<polygon fill="white" stroke="#bfbfbf" points="210,-56.5 210,-75.5 296,-75.5 296,-56.5 210,-56.5"/>
<text text-anchor="middle" x="253" y="-63.5" font-family="Helvetica,sans-Serif" font-size="10.00">glog/logging.h</text>
</a>
</g>
</g>
<!-- Node1&#45;&gt;Node6 -->
<g id="edge5" class="edge">
<title>Node1&#45;&gt;Node6</title>
<path fill="none" stroke="midnightblue" d="M217.55,-112.45C224.97,-102.93 233.24,-92.33 239.93,-83.76"/>
<polygon fill="midnightblue" stroke="midnightblue" points="242.82,-85.73 246.22,-75.7 237.31,-81.43 242.82,-85.73"/>
</g>
<!-- Node3 -->
<g id="node3" class="node">
<title>Node3</title>
<g id="a_node3"><a xlink:title=" ">
<polygon fill="white" stroke="#bfbfbf" points="0,-0.5 0,-19.5 104,-19.5 104,-0.5 0,-0.5"/>
<text text-anchor="middle" x="52" y="-7.5" font-family="Helvetica,sans-Serif" font-size="10.00">rapidjson/reader.h</text>
</a>
</g>
</g>
<!-- Node2&#45;&gt;Node3 -->
<g id="edge2" class="edge">
<title>Node2&#45;&gt;Node3</title>
<path fill="none" stroke="midnightblue" d="M129.22,-56.32C114.73,-47.82 92.43,-34.73 75.51,-24.8"/>
<polygon fill="midnightblue" stroke="midnightblue" points="77.14,-21.7 66.74,-19.65 73.6,-27.74 77.14,-21.7"/>
</g>
<!-- Node4 -->
<g id="node4" class="node">
<title>Node4</title>
<g id="a_node4"><a xlink:title=" ">
<polygon fill="white" stroke="#bfbfbf" points="122,-0.5 122,-19.5 166,-19.5 166,-0.5 122,-0.5"/>
<text text-anchor="middle" x="144" y="-7.5" font-family="Helvetica,sans-Serif" font-size="10.00">string</text>
</a>
</g>
</g>
<!-- Node2&#45;&gt;Node4 -->
<g id="edge3" class="edge">
<title>Node2&#45;&gt;Node4</title>
<path fill="none" stroke="midnightblue" d="M144,-56.08C144,-49.01 144,-38.86 144,-29.99"/>
<polygon fill="midnightblue" stroke="midnightblue" points="147.5,-29.75 144,-19.75 140.5,-29.75 147.5,-29.75"/>
</g>
<!-- Node5 -->
<g id="node5" class="node">
<title>Node5</title>
<g id="a_node5"><a xlink:title=" ">
<polygon fill="white" stroke="#bfbfbf" points="184.5,-0.5 184.5,-19.5 231.5,-19.5 231.5,-0.5 184.5,-0.5"/>
<text text-anchor="middle" x="208" y="-7.5" font-family="Helvetica,sans-Serif" font-size="10.00">vector</text>
</a>
</g>
</g>
<!-- Node2&#45;&gt;Node5 -->
<g id="edge4" class="edge">
<title>Node2&#45;&gt;Node5</title>
<path fill="none" stroke="midnightblue" d="M154.28,-56.32C163.84,-48.26 178.28,-36.08 189.78,-26.37"/>
<polygon fill="midnightblue" stroke="midnightblue" points="192.14,-28.96 197.53,-19.83 187.63,-23.61 192.14,-28.96"/>
</g>
</g>
</svg>
