<?xml version="1.0" encoding="UTF-8" standalone="no"?>
<!DOCTYPE svg PUBLIC "-//W3C//DTD SVG 1.1//EN"
 "http://www.w3.org/Graphics/SVG/1.1/DTD/svg11.dtd">
<!-- Generated by graphviz version 2.43.0 (0)
 -->
<!-- Title: joda::queryparsing::grammar::loadFilesliteral Pages: 1 -->
<svg width="358pt" height="72pt"
 viewBox="0.00 0.00 358.00 72.00" xmlns="http://www.w3.org/2000/svg" xmlns:xlink="http://www.w3.org/1999/xlink">
<g id="graph0" class="graph" transform="scale(1 1) rotate(0) translate(4 68)">
<title>joda::queryparsing::grammar::loadFilesliteral</title>
<polygon fill="white" stroke="transparent" points="-4,4 -4,-68 354,-68 354,4 -4,4"/>
<!-- Node1 -->
<g id="node1" class="node">
<title>Node1</title>
<g id="a_node1"><a xlink:title=" ">
<polygon fill="#bfbfbf" stroke="black" points="204,-17 204,-47 350,-47 350,-17 204,-17"/>
<text text-anchor="start" x="212" y="-35" font-family="Helvetica,sans-Serif" font-size="10.00">joda::queryparsing</text>
<text text-anchor="middle" x="277" y="-24" font-family="Helvetica,sans-Serif" font-size="10.00">::grammar::loadFilesliteral</text>
</a>
</g>
</g>
<!-- Node2 -->
<g id="node2" class="node">
<title>Node2</title>
<g id="a_node2"><a xlink:title=" ">
<polygon fill="white" stroke="#bfbfbf" points="0,-0.5 0,-63.5 168,-63.5 168,-0.5 0,-0.5"/>
<text text-anchor="start" x="8" y="-51.5" font-family="Helvetica,sans-Serif" font-size="10.00">tao::pegtl::seq&lt; tao</text>
<text text-anchor="start" x="8" y="-40.5" font-family="Helvetica,sans-Serif" font-size="10.00">::pegtl::must&lt; loadFileLiteral</text>
<text text-anchor="start" x="8" y="-29.5" font-family="Helvetica,sans-Serif" font-size="10.00">Start &gt;, tao::pegtl::must</text>
<text text-anchor="start" x="8" y="-18.5" font-family="Helvetica,sans-Serif" font-size="10.00">&lt; loadFileName &gt;, tao::pegtl</text>
<text text-anchor="middle" x="84" y="-7.5" font-family="Helvetica,sans-Serif" font-size="10.00">::must&lt; loadFileLiteralEnd &gt; &gt;</text>
</a>
</g>
</g>
<!-- Node2&#45;&gt;Node1 -->
<g id="edge1" class="edge">
<title>Node2&#45;&gt;Node1</title>
<path fill="none" stroke="midnightblue" d="M178.27,-32C186.86,-32 195.47,-32 203.83,-32"/>
<polygon fill="midnightblue" stroke="midnightblue" points="178.22,-28.5 168.22,-32 178.22,-35.5 178.22,-28.5"/>
</g>
</g>
</svg>
