<?xml version="1.0" encoding="UTF-8" standalone="no"?>
<!DOCTYPE svg PUBLIC "-//W3C//DTD SVG 1.1//EN"
 "http://www.w3.org/Graphics/SVG/1.1/DTD/svg11.dtd">
<!-- Generated by graphviz version 2.43.0 (0)
 -->
<!-- Title: joda::query::EqualizePredicate Pages: 1 -->
<svg width="374pt" height="262pt"
 viewBox="0.00 0.00 374.00 262.00" xmlns="http://www.w3.org/2000/svg" xmlns:xlink="http://www.w3.org/1999/xlink">
<g id="graph0" class="graph" transform="scale(1 1) rotate(0) translate(4 258)">
<title>joda::query::EqualizePredicate</title>
<polygon fill="white" stroke="transparent" points="-4,4 -4,-258 370,-258 370,4 -4,4"/>
<!-- Node1 -->
<g id="node1" class="node">
<title>Node1</title>
<g id="a_node1"><a xlink:title=" ">
<polygon fill="#bfbfbf" stroke="black" points="52,-0.5 52,-19.5 216,-19.5 216,-0.5 52,-0.5"/>
<text text-anchor="middle" x="134" y="-7.5" font-family="Helvetica,sans-Serif" font-size="10.00">joda::query::EqualizePredicate</text>
</a>
</g>
</g>
<!-- Node2 -->
<g id="node2" class="node">
<title>Node2</title>
<g id="a_node2"><a xlink:href="../../dc/d49/classjoda_1_1query_1_1Predicate.html" target="_top" xlink:title=" ">
<polygon fill="white" stroke="black" points="0,-84 0,-103 122,-103 122,-84 0,-84"/>
<text text-anchor="middle" x="61" y="-91" font-family="Helvetica,sans-Serif" font-size="10.00">joda::query::Predicate</text>
</a>
</g>
</g>
<!-- Node2&#45;&gt;Node1 -->
<g id="edge1" class="edge">
<title>Node2&#45;&gt;Node1</title>
<path fill="none" stroke="midnightblue" d="M75.56,-76.24C90.82,-59.21 114.2,-33.1 126.24,-19.66"/>
<polygon fill="midnightblue" stroke="midnightblue" points="72.88,-73.99 68.81,-83.78 78.09,-78.66 72.88,-73.99"/>
</g>
<!-- Node3 -->
<g id="node3" class="node">
<title>Node3</title>
<g id="a_node3"><a xlink:title=" ">
<polygon fill="white" stroke="#bfbfbf" points="28.5,-156.5 28.5,-175.5 93.5,-175.5 93.5,-156.5 28.5,-156.5"/>
<text text-anchor="middle" x="61" y="-163.5" font-family="Helvetica,sans-Serif" font-size="10.00">std::string</text>
</a>
</g>
</g>
<!-- Node3&#45;&gt;Node2 -->
<g id="edge2" class="edge">
<title>Node3&#45;&gt;Node2</title>
<path fill="none" stroke="#9a32cd" stroke-dasharray="5,2" d="M61,-145.94C61,-132.03 61,-113.82 61,-103.22"/>
<polygon fill="#9a32cd" stroke="#9a32cd" points="57.5,-146.36 61,-156.36 64.5,-146.36 57.5,-146.36"/>
<text text-anchor="middle" x="73.5" y="-130" font-family="Helvetica,sans-Serif" font-size="10.00"> type</text>
</g>
<!-- Node4 -->
<g id="node4" class="node">
<title>Node4</title>
<g id="a_node4"><a xlink:title=" ">
<polygon fill="white" stroke="#bfbfbf" points="9,-223.5 9,-253.5 113,-253.5 113,-223.5 9,-223.5"/>
<text text-anchor="start" x="17" y="-241.5" font-family="Helvetica,sans-Serif" font-size="10.00">std::basic_string&lt;</text>
<text text-anchor="middle" x="61" y="-230.5" font-family="Helvetica,sans-Serif" font-size="10.00"> Char &gt;</text>
</a>
</g>
</g>
<!-- Node4&#45;&gt;Node3 -->
<g id="edge3" class="edge">
<title>Node4&#45;&gt;Node3</title>
<path fill="none" stroke="midnightblue" d="M61,-213.09C61,-200.21 61,-185.2 61,-175.89"/>
<polygon fill="midnightblue" stroke="midnightblue" points="57.5,-213.23 61,-223.23 64.5,-213.23 57.5,-213.23"/>
</g>
<!-- Node5 -->
<g id="node5" class="node">
<title>Node5</title>
<g id="a_node5"><a xlink:title=" ">
<polygon fill="white" stroke="#bfbfbf" points="140.5,-78.5 140.5,-108.5 277.5,-108.5 277.5,-78.5 140.5,-78.5"/>
<text text-anchor="start" x="148.5" y="-96.5" font-family="Helvetica,sans-Serif" font-size="10.00">std::unique_ptr&lt; joda</text>
<text text-anchor="middle" x="209" y="-85.5" font-family="Helvetica,sans-Serif" font-size="10.00">::query::IValueProvider &gt;</text>
</a>
</g>
</g>
<!-- Node5&#45;&gt;Node1 -->
<g id="edge4" class="edge">
<title>Node5&#45;&gt;Node1</title>
<path fill="none" stroke="#9a32cd" stroke-dasharray="5,2" d="M188.82,-70.57C173.37,-53.78 152.9,-31.53 141.86,-19.54"/>
<polygon fill="#9a32cd" stroke="#9a32cd" points="186.59,-73.32 195.94,-78.3 191.74,-68.58 186.59,-73.32"/>
<text text-anchor="middle" x="188" y="-52" font-family="Helvetica,sans-Serif" font-size="10.00"> lhs</text>
<text text-anchor="middle" x="188" y="-41" font-family="Helvetica,sans-Serif" font-size="10.00">rhs</text>
</g>
<!-- Node6 -->
<g id="node6" class="node">
<title>Node6</title>
<g id="a_node6"><a xlink:title=" ">
<polygon fill="white" stroke="#bfbfbf" points="150,-156.5 150,-175.5 268,-175.5 268,-156.5 150,-156.5"/>
<text text-anchor="middle" x="209" y="-163.5" font-family="Helvetica,sans-Serif" font-size="10.00">std::unique_ptr&lt; T &gt;</text>
</a>
</g>
</g>
<!-- Node6&#45;&gt;Node5 -->
<g id="edge5" class="edge">
<title>Node6&#45;&gt;Node5</title>
<path fill="none" stroke="orange" stroke-dasharray="5,2" d="M209,-146.24C209,-134.41 209,-119.38 209,-108.58"/>
<polygon fill="orange" stroke="orange" points="205.5,-146.36 209,-156.36 212.5,-146.36 205.5,-146.36"/>
<text text-anchor="middle" x="287.5" y="-130" font-family="Helvetica,sans-Serif" font-size="10.00"> &lt; joda::query::IValueProvider &gt;</text>
</g>
<!-- Node7 -->
<g id="node7" class="node">
<title>Node7</title>
<g id="a_node7"><a xlink:title=" ">
<polygon fill="white" stroke="#bfbfbf" points="194.5,-229 194.5,-248 223.5,-248 223.5,-229 194.5,-229"/>
<text text-anchor="middle" x="209" y="-236" font-family="Helvetica,sans-Serif" font-size="10.00">T</text>
</a>
</g>
</g>
<!-- Node7&#45;&gt;Node6 -->
<g id="edge6" class="edge">
<title>Node7&#45;&gt;Node6</title>
<path fill="none" stroke="#9a32cd" stroke-dasharray="5,2" d="M209,-218.44C209,-204.53 209,-186.32 209,-175.72"/>
<polygon fill="#9a32cd" stroke="#9a32cd" points="205.5,-218.86 209,-228.86 212.5,-218.86 205.5,-218.86"/>
<text text-anchor="middle" x="217.5" y="-197" font-family="Helvetica,sans-Serif" font-size="10.00"> ptr</text>
</g>
</g>
</svg>
