<?xml version="1.0" encoding="UTF-8" standalone="no"?>
<!DOCTYPE svg PUBLIC "-//W3C//DTD SVG 1.1//EN"
 "http://www.w3.org/Graphics/SVG/1.1/DTD/svg11.dtd">
<!-- Generated by graphviz version 2.43.0 (0)
 -->
<!-- Title: /home/nico/projects/tmp&#45;joda&#45;dirs/JODA&#45;gh/libs/joda/core/modules/similarity/src/RJPathsReader.h Pages: 1 -->
<svg width="916pt" height="539pt"
 viewBox="0.00 0.00 915.50 539.00" xmlns="http://www.w3.org/2000/svg" xmlns:xlink="http://www.w3.org/1999/xlink">
<g id="graph0" class="graph" transform="scale(1 1) rotate(0) translate(4 535)">
<title>/home/nico/projects/tmp&#45;joda&#45;dirs/JODA&#45;gh/libs/joda/core/modules/similarity/src/RJPathsReader.h</title>
<polygon fill="white" stroke="transparent" points="-4,4 -4,-535 911.5,-535 911.5,4 -4,4"/>
<!-- Node1 -->
<g id="node1" class="node">
<title>Node1</title>
<g id="a_node1"><a xlink:title=" ">
<polygon fill="#bfbfbf" stroke="black" points="557.5,-478.5 557.5,-530.5 722.5,-530.5 722.5,-478.5 557.5,-478.5"/>
<text text-anchor="start" x="565.5" y="-518.5" font-family="Helvetica,sans-Serif" font-size="10.00">/home/nico/projects</text>
<text text-anchor="start" x="565.5" y="-507.5" font-family="Helvetica,sans-Serif" font-size="10.00">/tmp&#45;joda&#45;dirs/JODA</text>
<text text-anchor="start" x="565.5" y="-496.5" font-family="Helvetica,sans-Serif" font-size="10.00">&#45;gh/libs/joda/core/modules</text>
<text text-anchor="middle" x="640" y="-485.5" font-family="Helvetica,sans-Serif" font-size="10.00">/similarity/src/RJPathsReader.h</text>
</a>
</g>
</g>
<!-- Node2 -->
<g id="node2" class="node">
<title>Node2</title>
<g id="a_node2"><a xlink:href="../../d2/d73/PathJaccard_8h.html" target="_top" xlink:title=" ">
<polygon fill="white" stroke="black" points="349.5,-378.5 349.5,-441.5 534.5,-441.5 534.5,-378.5 349.5,-378.5"/>
<text text-anchor="start" x="357.5" y="-429.5" font-family="Helvetica,sans-Serif" font-size="10.00">/home/nico/projects</text>
<text text-anchor="start" x="357.5" y="-418.5" font-family="Helvetica,sans-Serif" font-size="10.00">/tmp&#45;joda&#45;dirs/JODA</text>
<text text-anchor="start" x="357.5" y="-407.5" font-family="Helvetica,sans-Serif" font-size="10.00">&#45;gh/libs/joda/core/modules</text>
<text text-anchor="start" x="357.5" y="-396.5" font-family="Helvetica,sans-Serif" font-size="10.00">/similarity/include/joda</text>
<text text-anchor="middle" x="442" y="-385.5" font-family="Helvetica,sans-Serif" font-size="10.00">/similarity/measures/PathJaccard.h</text>
</a>
</g>
</g>
<!-- Node1&#45;&gt;Node2 -->
<g id="edge1" class="edge">
<title>Node1&#45;&gt;Node2</title>
<path fill="none" stroke="midnightblue" d="M577.11,-474.12C554.96,-463.77 530.01,-452.12 507.63,-441.66"/>
<polygon fill="midnightblue" stroke="midnightblue" points="575.88,-477.41 586.42,-478.47 578.84,-471.06 575.88,-477.41"/>
</g>
<!-- Node13 -->
<g id="node13" class="node">
<title>Node13</title>
<g id="a_node13"><a xlink:href="../../d1/d21/RJPathsReader_8cpp.html" target="_top" xlink:title=" ">
<polygon fill="white" stroke="black" points="552,-384 552,-436 728,-436 728,-384 552,-384"/>
<text text-anchor="start" x="560" y="-424" font-family="Helvetica,sans-Serif" font-size="10.00">/home/nico/projects</text>
<text text-anchor="start" x="560" y="-413" font-family="Helvetica,sans-Serif" font-size="10.00">/tmp&#45;joda&#45;dirs/JODA</text>
<text text-anchor="start" x="560" y="-402" font-family="Helvetica,sans-Serif" font-size="10.00">&#45;gh/libs/joda/core/modules</text>
<text text-anchor="middle" x="640" y="-391" font-family="Helvetica,sans-Serif" font-size="10.00">/similarity/src/RJPathsReader.cpp</text>
</a>
</g>
</g>
<!-- Node1&#45;&gt;Node13 -->
<g id="edge12" class="edge">
<title>Node1&#45;&gt;Node13</title>
<path fill="none" stroke="midnightblue" d="M640,-467.99C640,-457.41 640,-446.03 640,-436.25"/>
<polygon fill="midnightblue" stroke="midnightblue" points="636.5,-468.22 640,-478.22 643.5,-468.22 636.5,-468.22"/>
</g>
<!-- Node14 -->
<g id="node14" class="node">
<title>Node14</title>
<g id="a_node14"><a xlink:href="../../d0/d67/RJPathTest_8cpp.html" target="_top" xlink:title=" ">
<polygon fill="white" stroke="black" points="746.5,-384 746.5,-436 907.5,-436 907.5,-384 746.5,-384"/>
<text text-anchor="start" x="754.5" y="-424" font-family="Helvetica,sans-Serif" font-size="10.00">/home/nico/projects</text>
<text text-anchor="start" x="754.5" y="-413" font-family="Helvetica,sans-Serif" font-size="10.00">/tmp&#45;joda&#45;dirs/JODA</text>
<text text-anchor="start" x="754.5" y="-402" font-family="Helvetica,sans-Serif" font-size="10.00">&#45;gh/libs/joda/core/modules</text>
<text text-anchor="middle" x="827" y="-391" font-family="Helvetica,sans-Serif" font-size="10.00">/similarity/test/RJPathTest.cpp</text>
</a>
</g>
</g>
<!-- Node1&#45;&gt;Node14 -->
<g id="edge13" class="edge">
<title>Node1&#45;&gt;Node14</title>
<path fill="none" stroke="midnightblue" d="M699.86,-473.89C724.51,-461.7 752.75,-447.73 776.35,-436.05"/>
<polygon fill="midnightblue" stroke="midnightblue" points="698.02,-470.9 690.6,-478.47 701.12,-477.17 698.02,-470.9"/>
</g>
<!-- Node3 -->
<g id="node3" class="node">
<title>Node3</title>
<g id="a_node3"><a xlink:href="../../dc/d98/ReaderParser_8h.html" target="_top" xlink:title=" ">
<polygon fill="white" stroke="black" points="196,-278.5 196,-341.5 342,-341.5 342,-278.5 196,-278.5"/>
<text text-anchor="start" x="204" y="-329.5" font-family="Helvetica,sans-Serif" font-size="10.00">/home/nico/projects</text>
<text text-anchor="start" x="204" y="-318.5" font-family="Helvetica,sans-Serif" font-size="10.00">/tmp&#45;joda&#45;dirs/JODA</text>
<text text-anchor="start" x="204" y="-307.5" font-family="Helvetica,sans-Serif" font-size="10.00">&#45;gh/libs/joda/core/modules</text>
<text text-anchor="start" x="204" y="-296.5" font-family="Helvetica,sans-Serif" font-size="10.00">/parser/include/joda/parser</text>
<text text-anchor="middle" x="269" y="-285.5" font-family="Helvetica,sans-Serif" font-size="10.00">/ReaderParser.h</text>
</a>
</g>
</g>
<!-- Node2&#45;&gt;Node3 -->
<g id="edge2" class="edge">
<title>Node2&#45;&gt;Node3</title>
<path fill="none" stroke="midnightblue" d="M378.89,-373.25C360.58,-362.88 340.77,-351.65 323.07,-341.63"/>
<polygon fill="midnightblue" stroke="midnightblue" points="377.31,-376.38 387.74,-378.26 380.76,-370.29 377.31,-376.38"/>
</g>
<!-- Node11 -->
<g id="node11" class="node">
<title>Node11</title>
<g id="a_node11"><a xlink:href="../../db/da6/PathJaccard_8cpp.html" target="_top" xlink:title=" ">
<polygon fill="white" stroke="black" points="360.5,-284 360.5,-336 523.5,-336 523.5,-284 360.5,-284"/>
<text text-anchor="start" x="368.5" y="-324" font-family="Helvetica,sans-Serif" font-size="10.00">/home/nico/projects</text>
<text text-anchor="start" x="368.5" y="-313" font-family="Helvetica,sans-Serif" font-size="10.00">/tmp&#45;joda&#45;dirs/JODA</text>
<text text-anchor="start" x="368.5" y="-302" font-family="Helvetica,sans-Serif" font-size="10.00">&#45;gh/libs/joda/core/modules</text>
<text text-anchor="middle" x="442" y="-291" font-family="Helvetica,sans-Serif" font-size="10.00">/similarity/src/PathJaccard.cpp</text>
</a>
</g>
</g>
<!-- Node2&#45;&gt;Node11 -->
<g id="edge10" class="edge">
<title>Node2&#45;&gt;Node11</title>
<path fill="none" stroke="midnightblue" d="M442,-368.08C442,-357.21 442,-345.79 442,-336.05"/>
<polygon fill="midnightblue" stroke="midnightblue" points="438.5,-368.26 442,-378.26 445.5,-368.26 438.5,-368.26"/>
</g>
<!-- Node12 -->
<g id="node12" class="node">
<title>Node12</title>
<g id="a_node12"><a xlink:href="../../dc/db3/MeasureTest_8cpp.html" target="_top" xlink:title=" ">
<polygon fill="white" stroke="black" points="541.5,-284 541.5,-336 714.5,-336 714.5,-284 541.5,-284"/>
<text text-anchor="start" x="549.5" y="-324" font-family="Helvetica,sans-Serif" font-size="10.00">/home/nico/projects</text>
<text text-anchor="start" x="549.5" y="-313" font-family="Helvetica,sans-Serif" font-size="10.00">/tmp&#45;joda&#45;dirs/JODA</text>
<text text-anchor="start" x="549.5" y="-302" font-family="Helvetica,sans-Serif" font-size="10.00">&#45;gh/libs/joda/core/modules</text>
<text text-anchor="middle" x="628" y="-291" font-family="Helvetica,sans-Serif" font-size="10.00">/similarity/test/MeasureTest.cpp</text>
</a>
</g>
</g>
<!-- Node2&#45;&gt;Node12 -->
<g id="edge11" class="edge">
<title>Node2&#45;&gt;Node12</title>
<path fill="none" stroke="midnightblue" d="M509,-373.7C532.6,-361.26 558.64,-347.55 580.32,-336.12"/>
<polygon fill="midnightblue" stroke="midnightblue" points="507.3,-370.64 500.09,-378.4 510.57,-376.83 507.3,-370.64"/>
</g>
<!-- Node4 -->
<g id="node4" class="node">
<title>Node4</title>
<g id="a_node4"><a xlink:href="../../da/d7c/ReaderParser_8cpp.html" target="_top" xlink:title=" ">
<polygon fill="white" stroke="black" points="104.5,-184 104.5,-236 259.5,-236 259.5,-184 104.5,-184"/>
<text text-anchor="start" x="112.5" y="-224" font-family="Helvetica,sans-Serif" font-size="10.00">/home/nico/projects</text>
<text text-anchor="start" x="112.5" y="-213" font-family="Helvetica,sans-Serif" font-size="10.00">/tmp&#45;joda&#45;dirs/JODA</text>
<text text-anchor="start" x="112.5" y="-202" font-family="Helvetica,sans-Serif" font-size="10.00">&#45;gh/libs/joda/core/modules</text>
<text text-anchor="middle" x="182" y="-191" font-family="Helvetica,sans-Serif" font-size="10.00">/parser/src/ReaderParser.cpp</text>
</a>
</g>
</g>
<!-- Node3&#45;&gt;Node4 -->
<g id="edge3" class="edge">
<title>Node3&#45;&gt;Node4</title>
<path fill="none" stroke="midnightblue" d="M235.05,-270.76C224.7,-259.1 213.6,-246.6 204.24,-236.05"/>
<polygon fill="midnightblue" stroke="midnightblue" points="232.46,-273.11 241.71,-278.26 237.69,-268.46 232.46,-273.11"/>
</g>
<!-- Node5 -->
<g id="node5" class="node">
<title>Node5</title>
<g id="a_node5"><a xlink:href="../../dc/d6d/QueryPlan_8h.html" target="_top" xlink:title=" ">
<polygon fill="white" stroke="black" points="277.5,-178.5 277.5,-241.5 434.5,-241.5 434.5,-178.5 277.5,-178.5"/>
<text text-anchor="start" x="285.5" y="-229.5" font-family="Helvetica,sans-Serif" font-size="10.00">/home/nico/projects</text>
<text text-anchor="start" x="285.5" y="-218.5" font-family="Helvetica,sans-Serif" font-size="10.00">/tmp&#45;joda&#45;dirs/JODA</text>
<text text-anchor="start" x="285.5" y="-207.5" font-family="Helvetica,sans-Serif" font-size="10.00">&#45;gh/libs/joda/core/modules</text>
<text text-anchor="start" x="285.5" y="-196.5" font-family="Helvetica,sans-Serif" font-size="10.00">/queryexecution/include/joda</text>
<text text-anchor="middle" x="356" y="-185.5" font-family="Helvetica,sans-Serif" font-size="10.00">/queryexecution/QueryPlan.h</text>
</a>
</g>
</g>
<!-- Node3&#45;&gt;Node5 -->
<g id="edge4" class="edge">
<title>Node3&#45;&gt;Node5</title>
<path fill="none" stroke="midnightblue" d="M303.01,-270.69C311.57,-261.05 320.64,-250.83 328.81,-241.63"/>
<polygon fill="midnightblue" stroke="midnightblue" points="300.31,-268.46 296.29,-278.26 305.54,-273.11 300.31,-268.46"/>
</g>
<!-- Node6 -->
<g id="node6" class="node">
<title>Node6</title>
<g id="a_node6"><a xlink:href="../../d2/da6/CLI_8h.html" target="_top" xlink:title=" ">
<polygon fill="white" stroke="black" points="82,-89.5 82,-141.5 228,-141.5 228,-89.5 82,-89.5"/>
<text text-anchor="start" x="90" y="-129.5" font-family="Helvetica,sans-Serif" font-size="10.00">/home/nico/projects</text>
<text text-anchor="start" x="90" y="-118.5" font-family="Helvetica,sans-Serif" font-size="10.00">/tmp&#45;joda&#45;dirs/JODA</text>
<text text-anchor="start" x="90" y="-107.5" font-family="Helvetica,sans-Serif" font-size="10.00">&#45;gh/libs/joda/core/modules</text>
<text text-anchor="middle" x="155" y="-96.5" font-family="Helvetica,sans-Serif" font-size="10.00">/cli/include/joda/cli/CLI.h</text>
</a>
</g>
</g>
<!-- Node5&#45;&gt;Node6 -->
<g id="edge5" class="edge">
<title>Node5&#45;&gt;Node6</title>
<path fill="none" stroke="midnightblue" d="M280.37,-174.2C256.84,-163.37 231.37,-151.65 209.57,-141.62"/>
<polygon fill="midnightblue" stroke="midnightblue" points="279.08,-177.45 289.63,-178.46 282.01,-171.1 279.08,-177.45"/>
</g>
<!-- Node9 -->
<g id="node9" class="node">
<title>Node9</title>
<g id="a_node9"><a xlink:href="../../d4/dbf/JodaQueryRequest_8cpp.html" target="_top" xlink:title=" ">
<polygon fill="white" stroke="black" points="246,-89.5 246,-141.5 466,-141.5 466,-89.5 246,-89.5"/>
<text text-anchor="start" x="254" y="-129.5" font-family="Helvetica,sans-Serif" font-size="10.00">/home/nico/projects</text>
<text text-anchor="start" x="254" y="-118.5" font-family="Helvetica,sans-Serif" font-size="10.00">/tmp&#45;joda&#45;dirs/JODA</text>
<text text-anchor="start" x="254" y="-107.5" font-family="Helvetica,sans-Serif" font-size="10.00">&#45;gh/libs/joda/core/modules</text>
<text text-anchor="middle" x="356" y="-96.5" font-family="Helvetica,sans-Serif" font-size="10.00">/network/src/apiv2/JodaQueryRequest.cpp</text>
</a>
</g>
</g>
<!-- Node5&#45;&gt;Node9 -->
<g id="edge8" class="edge">
<title>Node5&#45;&gt;Node9</title>
<path fill="none" stroke="midnightblue" d="M356,-168.42C356,-159.36 356,-150 356,-141.77"/>
<polygon fill="midnightblue" stroke="midnightblue" points="352.5,-168.46 356,-178.46 359.5,-168.46 352.5,-168.46"/>
</g>
<!-- Node10 -->
<g id="node10" class="node">
<title>Node10</title>
<g id="a_node10"><a xlink:href="../../d2/d7a/QueryPlan_8cpp.html" target="_top" xlink:title=" ">
<polygon fill="white" stroke="black" points="484.5,-89.5 484.5,-141.5 669.5,-141.5 669.5,-89.5 484.5,-89.5"/>
<text text-anchor="start" x="492.5" y="-129.5" font-family="Helvetica,sans-Serif" font-size="10.00">/home/nico/projects</text>
<text text-anchor="start" x="492.5" y="-118.5" font-family="Helvetica,sans-Serif" font-size="10.00">/tmp&#45;joda&#45;dirs/JODA</text>
<text text-anchor="start" x="492.5" y="-107.5" font-family="Helvetica,sans-Serif" font-size="10.00">&#45;gh/libs/joda/core/modules</text>
<text text-anchor="middle" x="577" y="-96.5" font-family="Helvetica,sans-Serif" font-size="10.00">/queryexecution/src/QueryPlan.cpp</text>
</a>
</g>
</g>
<!-- Node5&#45;&gt;Node10 -->
<g id="edge9" class="edge">
<title>Node5&#45;&gt;Node10</title>
<path fill="none" stroke="midnightblue" d="M438.47,-174.48C464.53,-163.58 492.82,-151.74 516.99,-141.62"/>
<polygon fill="midnightblue" stroke="midnightblue" points="436.85,-171.37 428.98,-178.46 439.55,-177.82 436.85,-171.37"/>
</g>
<!-- Node7 -->
<g id="node7" class="node">
<title>Node7</title>
<g id="a_node7"><a xlink:href="../../df/d21/CLI_8cpp.html" target="_top" xlink:title=" ">
<polygon fill="white" stroke="black" points="0,-0.5 0,-52.5 146,-52.5 146,-0.5 0,-0.5"/>
<text text-anchor="start" x="8" y="-40.5" font-family="Helvetica,sans-Serif" font-size="10.00">/home/nico/projects</text>
<text text-anchor="start" x="8" y="-29.5" font-family="Helvetica,sans-Serif" font-size="10.00">/tmp&#45;joda&#45;dirs/JODA</text>
<text text-anchor="start" x="8" y="-18.5" font-family="Helvetica,sans-Serif" font-size="10.00">&#45;gh/libs/joda/core/modules</text>
<text text-anchor="middle" x="73" y="-7.5" font-family="Helvetica,sans-Serif" font-size="10.00">/cli/src/CLI.cpp</text>
</a>
</g>
</g>
<!-- Node6&#45;&gt;Node7 -->
<g id="edge6" class="edge">
<title>Node6&#45;&gt;Node7</title>
<path fill="none" stroke="midnightblue" d="M124.17,-81.79C115.06,-72.13 105.24,-61.71 96.66,-52.61"/>
<polygon fill="midnightblue" stroke="midnightblue" points="121.88,-84.46 131.28,-89.34 126.97,-79.66 121.88,-84.46"/>
</g>
<!-- Node8 -->
<g id="node8" class="node">
<title>Node8</title>
<g id="a_node8"><a xlink:href="../../da/d36/CLICompletion_8cpp.html" target="_top" xlink:title=" ">
<polygon fill="white" stroke="black" points="164,-0.5 164,-52.5 310,-52.5 310,-0.5 164,-0.5"/>
<text text-anchor="start" x="172" y="-40.5" font-family="Helvetica,sans-Serif" font-size="10.00">/home/nico/projects</text>
<text text-anchor="start" x="172" y="-29.5" font-family="Helvetica,sans-Serif" font-size="10.00">/tmp&#45;joda&#45;dirs/JODA</text>
<text text-anchor="start" x="172" y="-18.5" font-family="Helvetica,sans-Serif" font-size="10.00">&#45;gh/libs/joda/core/modules</text>
<text text-anchor="middle" x="237" y="-7.5" font-family="Helvetica,sans-Serif" font-size="10.00">/cli/src/CLICompletion.cpp</text>
</a>
</g>
</g>
<!-- Node6&#45;&gt;Node8 -->
<g id="edge7" class="edge">
<title>Node6&#45;&gt;Node8</title>
<path fill="none" stroke="midnightblue" d="M185.83,-81.79C194.94,-72.13 204.76,-61.71 213.34,-52.61"/>
<polygon fill="midnightblue" stroke="midnightblue" points="183.03,-79.66 178.72,-89.34 188.12,-84.46 183.03,-79.66"/>
</g>
</g>
</svg>
