<?xml version="1.0" encoding="UTF-8" standalone="no"?>
<!DOCTYPE svg PUBLIC "-//W3C//DTD SVG 1.1//EN"
 "http://www.w3.org/Graphics/SVG/1.1/DTD/svg11.dtd">
<!-- Generated by graphviz version 2.43.0 (0)
 -->
<!-- Title: joda::query::IAggregator Pages: 1 -->
<svg width="376pt" height="230pt"
 viewBox="0.00 0.00 376.00 229.50" xmlns="http://www.w3.org/2000/svg" xmlns:xlink="http://www.w3.org/1999/xlink">
<g id="graph0" class="graph" transform="scale(1 1) rotate(0) translate(4 225.5)">
<title>joda::query::IAggregator</title>
<polygon fill="white" stroke="transparent" points="-4,4 -4,-225.5 372,-225.5 372,4 -4,4"/>
<!-- Node1 -->
<g id="node1" class="node">
<title>Node1</title>
<g id="a_node1"><a xlink:title=" ">
<polygon fill="#bfbfbf" stroke="black" points="0,-95.5 0,-114.5 134,-114.5 134,-95.5 0,-95.5"/>
<text text-anchor="middle" x="67" y="-102.5" font-family="Helvetica,sans-Serif" font-size="10.00">joda::query::IAggregator</text>
</a>
</g>
</g>
<!-- Node2 -->
<g id="node2" class="node">
<title>Node2</title>
<g id="a_node2"><a xlink:href="../../db/d14/classjoda_1_1query_1_1AttributeStatAggregator.html" target="_top" xlink:title=" ">
<polygon fill="white" stroke="black" points="199.5,-191 199.5,-221 338.5,-221 338.5,-191 199.5,-191"/>
<text text-anchor="start" x="207.5" y="-209" font-family="Helvetica,sans-Serif" font-size="10.00">joda::query::AttributeStat</text>
<text text-anchor="middle" x="269" y="-198" font-family="Helvetica,sans-Serif" font-size="10.00">Aggregator</text>
</a>
</g>
</g>
<!-- Node1&#45;&gt;Node2 -->
<g id="edge1" class="edge">
<title>Node1&#45;&gt;Node2</title>
<path fill="none" stroke="midnightblue" d="M85.52,-121.47C104.79,-138.73 137.39,-165.44 170,-181 179.19,-185.38 189.25,-189.07 199.31,-192.14"/>
<polygon fill="midnightblue" stroke="midnightblue" points="87.86,-118.87 78.11,-114.71 83.14,-124.04 87.86,-118.87"/>
</g>
<!-- Node3 -->
<g id="node3" class="node">
<title>Node3</title>
<g id="a_node3"><a xlink:href="../../dc/de2/classjoda_1_1query_1_1CollectAggregator.html" target="_top" xlink:title=" ">
<polygon fill="white" stroke="black" points="187,-152.5 187,-171.5 351,-171.5 351,-152.5 187,-152.5"/>
<text text-anchor="middle" x="269" y="-159.5" font-family="Helvetica,sans-Serif" font-size="10.00">joda::query::CollectAggregator</text>
</a>
</g>
</g>
<!-- Node1&#45;&gt;Node3 -->
<g id="edge2" class="edge">
<title>Node1&#45;&gt;Node3</title>
<path fill="none" stroke="midnightblue" d="M99.82,-118.4C119.72,-126.4 146.03,-136.26 170,-143 182.93,-146.64 197.01,-149.81 210.37,-152.47"/>
<polygon fill="midnightblue" stroke="midnightblue" points="100.91,-115.07 90.33,-114.54 98.27,-121.55 100.91,-115.07"/>
</g>
<!-- Node4 -->
<g id="node4" class="node">
<title>Node4</title>
<g id="a_node4"><a xlink:href="../../df/d90/classjoda_1_1query_1_1CountAggregator.html" target="_top" xlink:title=" ">
<polygon fill="white" stroke="black" points="189.5,-114.5 189.5,-133.5 348.5,-133.5 348.5,-114.5 189.5,-114.5"/>
<text text-anchor="middle" x="269" y="-121.5" font-family="Helvetica,sans-Serif" font-size="10.00">joda::query::CountAggregator</text>
</a>
</g>
</g>
<!-- Node1&#45;&gt;Node4 -->
<g id="edge3" class="edge">
<title>Node1&#45;&gt;Node4</title>
<path fill="none" stroke="midnightblue" d="M144.11,-112.23C158.86,-113.63 174.33,-115.1 189.16,-116.51"/>
<polygon fill="midnightblue" stroke="midnightblue" points="144.33,-108.74 134.04,-111.27 143.67,-115.7 144.33,-108.74"/>
</g>
<!-- Node5 -->
<g id="node5" class="node">
<title>Node5</title>
<g id="a_node5"><a xlink:href="../../d7/d28/classjoda_1_1query_1_1DistinctAggregator.html" target="_top" xlink:title=" ">
<polygon fill="white" stroke="black" points="185,-76.5 185,-95.5 353,-95.5 353,-76.5 185,-76.5"/>
<text text-anchor="middle" x="269" y="-83.5" font-family="Helvetica,sans-Serif" font-size="10.00">joda::query::DistinctAggregator</text>
</a>
</g>
</g>
<!-- Node1&#45;&gt;Node5 -->
<g id="edge4" class="edge">
<title>Node1&#45;&gt;Node5</title>
<path fill="none" stroke="midnightblue" d="M144.11,-97.77C157.45,-96.5 171.39,-95.18 184.91,-93.89"/>
<polygon fill="midnightblue" stroke="midnightblue" points="143.67,-94.3 134.04,-98.73 144.33,-101.26 143.67,-94.3"/>
</g>
<!-- Node6 -->
<g id="node6" class="node">
<title>Node6</title>
<g id="a_node6"><a xlink:href="../../de/d3a/classjoda_1_1query_1_1GroupAggregator.html" target="_top" xlink:title=" ">
<polygon fill="white" stroke="black" points="189,-38.5 189,-57.5 349,-57.5 349,-38.5 189,-38.5"/>
<text text-anchor="middle" x="269" y="-45.5" font-family="Helvetica,sans-Serif" font-size="10.00">joda::query::GroupAggregator</text>
</a>
</g>
</g>
<!-- Node1&#45;&gt;Node6 -->
<g id="edge5" class="edge">
<title>Node1&#45;&gt;Node6</title>
<path fill="none" stroke="midnightblue" d="M99.82,-91.6C119.72,-83.6 146.03,-73.74 170,-67 182.93,-63.36 197.01,-60.19 210.37,-57.53"/>
<polygon fill="midnightblue" stroke="midnightblue" points="98.27,-88.45 90.33,-95.46 100.91,-94.93 98.27,-88.45"/>
</g>
<!-- Node7 -->
<g id="node7" class="node">
<title>Node7</title>
<g id="a_node7"><a xlink:href="../../d0/d92/classjoda_1_1query_1_1NumberAggregator.html" target="_top" xlink:title=" ">
<polygon fill="white" stroke="black" points="170,-0.5 170,-19.5 368,-19.5 368,-0.5 170,-0.5"/>
<text text-anchor="middle" x="269" y="-7.5" font-family="Helvetica,sans-Serif" font-size="10.00">joda::query::NumberAggregator&lt; T &gt;</text>
</a>
</g>
</g>
<!-- Node1&#45;&gt;Node7 -->
<g id="edge6" class="edge">
<title>Node1&#45;&gt;Node7</title>
<path fill="none" stroke="midnightblue" d="M85.04,-88.44C104.13,-70.87 136.77,-43.68 170,-29 178.8,-25.11 188.39,-22.02 198.01,-19.56"/>
<polygon fill="midnightblue" stroke="midnightblue" points="82.62,-85.91 77.73,-95.31 87.41,-91.01 82.62,-85.91"/>
</g>
</g>
</svg>
