<?xml version="1.0" encoding="UTF-8" standalone="no"?>
<!DOCTYPE svg PUBLIC "-//W3C//DTD SVG 1.1//EN"
 "http://www.w3.org/Graphics/SVG/1.1/DTD/svg11.dtd">
<!-- Generated by graphviz version 2.43.0 (0)
 -->
<!-- Title: /home/nico/projects/tmp&#45;joda&#45;dirs/JODA&#45;gh/libs/joda/core/modules/storage/document/include/joda/document/view/VirtualObject.cpp Pages: 1 -->
<svg width="777pt" height="296pt"
 viewBox="0.00 0.00 777.00 296.00" xmlns="http://www.w3.org/2000/svg" xmlns:xlink="http://www.w3.org/1999/xlink">
<g id="graph0" class="graph" transform="scale(1 1) rotate(0) translate(4 292)">
<title>/home/nico/projects/tmp&#45;joda&#45;dirs/JODA&#45;gh/libs/joda/core/modules/storage/document/include/joda/document/view/VirtualObject.cpp</title>
<polygon fill="white" stroke="transparent" points="-4,4 -4,-292 773,-292 773,4 -4,4"/>
<!-- Node1 -->
<g id="node1" class="node">
<title>Node1</title>
<g id="a_node1"><a xlink:title=" ">
<polygon fill="#bfbfbf" stroke="black" points="232,-224.5 232,-287.5 438,-287.5 438,-224.5 232,-224.5"/>
<text text-anchor="start" x="240" y="-275.5" font-family="Helvetica,sans-Serif" font-size="10.00">/home/nico/projects</text>
<text text-anchor="start" x="240" y="-264.5" font-family="Helvetica,sans-Serif" font-size="10.00">/tmp&#45;joda&#45;dirs/JODA</text>
<text text-anchor="start" x="240" y="-253.5" font-family="Helvetica,sans-Serif" font-size="10.00">&#45;gh/libs/joda/core/modules</text>
<text text-anchor="start" x="240" y="-242.5" font-family="Helvetica,sans-Serif" font-size="10.00">/storage/document/include</text>
<text text-anchor="middle" x="335" y="-231.5" font-family="Helvetica,sans-Serif" font-size="10.00">/joda/document/view/VirtualObject.cpp</text>
</a>
</g>
</g>
<!-- Node2 -->
<g id="node2" class="node">
<title>Node2</title>
<g id="a_node2"><a xlink:href="../../d8/dee/VirtualObject_8h.html" target="_top" xlink:title=" ">
<polygon fill="white" stroke="black" points="290.5,-168.5 290.5,-187.5 379.5,-187.5 379.5,-168.5 290.5,-168.5"/>
<text text-anchor="middle" x="335" y="-175.5" font-family="Helvetica,sans-Serif" font-size="10.00">VirtualObject.h</text>
</a>
</g>
</g>
<!-- Node1&#45;&gt;Node2 -->
<g id="edge1" class="edge">
<title>Node1&#45;&gt;Node2</title>
<path fill="none" stroke="midnightblue" d="M335,-224.09C335,-215.15 335,-205.67 335,-197.72"/>
<polygon fill="midnightblue" stroke="midnightblue" points="338.5,-197.72 335,-187.72 331.5,-197.72 338.5,-197.72"/>
</g>
<!-- Node3 -->
<g id="node3" class="node">
<title>Node3</title>
<g id="a_node3"><a xlink:title=" ">
<polygon fill="white" stroke="#bfbfbf" points="0,-0.5 0,-19.5 86,-19.5 86,-0.5 0,-0.5"/>
<text text-anchor="middle" x="43" y="-7.5" font-family="Helvetica,sans-Serif" font-size="10.00">glog/logging.h</text>
</a>
</g>
</g>
<!-- Node2&#45;&gt;Node3 -->
<g id="edge2" class="edge">
<title>Node2&#45;&gt;Node3</title>
<path fill="none" stroke="midnightblue" d="M319.71,-168.31C271.91,-141.14 125.03,-57.64 66.98,-24.63"/>
<polygon fill="midnightblue" stroke="midnightblue" points="68.56,-21.5 58.14,-19.61 65.1,-27.59 68.56,-21.5"/>
</g>
<!-- Node4 -->
<g id="node4" class="node">
<title>Node4</title>
<g id="a_node4"><a xlink:href="../../d6/d09/RJFwd_8h.html" target="_top" xlink:title=" ">
<polygon fill="white" stroke="black" points="237,-56.5 237,-75.5 343,-75.5 343,-56.5 237,-56.5"/>
<text text-anchor="middle" x="290" y="-63.5" font-family="Helvetica,sans-Serif" font-size="10.00">joda/misc/RJFwd.h</text>
</a>
</g>
</g>
<!-- Node2&#45;&gt;Node4 -->
<g id="edge3" class="edge">
<title>Node2&#45;&gt;Node4</title>
<path fill="none" stroke="midnightblue" d="M331.47,-168.37C324.14,-150.46 307.15,-108.92 297.34,-84.95"/>
<polygon fill="midnightblue" stroke="midnightblue" points="300.54,-83.52 293.51,-75.59 294.06,-86.17 300.54,-83.52"/>
</g>
<!-- Node10 -->
<g id="node10" class="node">
<title>Node10</title>
<g id="a_node10"><a xlink:title=" ">
<polygon fill="white" stroke="#bfbfbf" points="473,-56.5 473,-75.5 517,-75.5 517,-56.5 473,-56.5"/>
<text text-anchor="middle" x="495" y="-63.5" font-family="Helvetica,sans-Serif" font-size="10.00">string</text>
</a>
</g>
</g>
<!-- Node2&#45;&gt;Node10 -->
<g id="edge10" class="edge">
<title>Node2&#45;&gt;Node10</title>
<path fill="none" stroke="midnightblue" d="M372.31,-168.45C396.33,-161.57 427.21,-150.02 450,-132 466.09,-119.27 478.74,-99.24 486.47,-84.78"/>
<polygon fill="midnightblue" stroke="midnightblue" points="489.62,-86.32 491.02,-75.82 483.38,-83.15 489.62,-86.32"/>
</g>
<!-- Node11 -->
<g id="node11" class="node">
<title>Node11</title>
<g id="a_node11"><a xlink:href="../../d0/d10/ViewStructure_8h.html" target="_top" xlink:title=" ">
<polygon fill="white" stroke="black" points="347,-112.5 347,-131.5 441,-131.5 441,-112.5 347,-112.5"/>
<text text-anchor="middle" x="394" y="-119.5" font-family="Helvetica,sans-Serif" font-size="10.00">ViewStructure.h</text>
</a>
</g>
</g>
<!-- Node2&#45;&gt;Node11 -->
<g id="edge11" class="edge">
<title>Node2&#45;&gt;Node11</title>
<path fill="none" stroke="midnightblue" d="M344.48,-168.32C353.2,-160.34 366.34,-148.31 376.9,-138.65"/>
<polygon fill="midnightblue" stroke="midnightblue" points="379.33,-141.17 384.35,-131.83 374.61,-136 379.33,-141.17"/>
</g>
<!-- Node4&#45;&gt;Node3 -->
<g id="edge4" class="edge">
<title>Node4&#45;&gt;Node3</title>
<path fill="none" stroke="midnightblue" d="M250.86,-56.44C207.77,-47.02 138.44,-31.87 91.83,-21.68"/>
<polygon fill="midnightblue" stroke="midnightblue" points="92.47,-18.23 81.95,-19.52 90.98,-25.07 92.47,-18.23"/>
</g>
<!-- Node5 -->
<g id="node5" class="node">
<title>Node5</title>
<g id="a_node5"><a xlink:title=" ">
<polygon fill="white" stroke="#bfbfbf" points="647,-0.5 647,-19.5 769,-19.5 769,-0.5 647,-0.5"/>
<text text-anchor="middle" x="708" y="-7.5" font-family="Helvetica,sans-Serif" font-size="10.00">rapidjson/allocators.h</text>
</a>
</g>
</g>
<!-- Node4&#45;&gt;Node5 -->
<g id="edge5" class="edge">
<title>Node4&#45;&gt;Node5</title>
<path fill="none" stroke="midnightblue" d="M343.27,-57.33C346.56,-56.87 349.82,-56.43 353,-56 476.32,-39.4 509.67,-36.29 636.79,-20.15"/>
<polygon fill="midnightblue" stroke="midnightblue" points="637.44,-23.6 646.92,-18.86 636.56,-16.65 637.44,-23.6"/>
</g>
<!-- Node6 -->
<g id="node6" class="node">
<title>Node6</title>
<g id="a_node6"><a xlink:title=" ">
<polygon fill="white" stroke="#bfbfbf" points="104,-0.5 104,-19.5 226,-19.5 226,-0.5 104,-0.5"/>
<text text-anchor="middle" x="165" y="-7.5" font-family="Helvetica,sans-Serif" font-size="10.00">rapidjson/document.h</text>
</a>
</g>
</g>
<!-- Node4&#45;&gt;Node6 -->
<g id="edge6" class="edge">
<title>Node4&#45;&gt;Node6</title>
<path fill="none" stroke="midnightblue" d="M270.19,-56.44C249.71,-47.6 217.52,-33.69 194.14,-23.59"/>
<polygon fill="midnightblue" stroke="midnightblue" points="195.28,-20.27 184.71,-19.52 192.51,-26.7 195.28,-20.27"/>
</g>
<!-- Node7 -->
<g id="node7" class="node">
<title>Node7</title>
<g id="a_node7"><a xlink:title=" ">
<polygon fill="white" stroke="#bfbfbf" points="244.5,-0.5 244.5,-19.5 335.5,-19.5 335.5,-0.5 244.5,-0.5"/>
<text text-anchor="middle" x="290" y="-7.5" font-family="Helvetica,sans-Serif" font-size="10.00">rapidjson/fwd.h</text>
</a>
</g>
</g>
<!-- Node4&#45;&gt;Node7 -->
<g id="edge7" class="edge">
<title>Node4&#45;&gt;Node7</title>
<path fill="none" stroke="midnightblue" d="M290,-56.08C290,-49.01 290,-38.86 290,-29.99"/>
<polygon fill="midnightblue" stroke="midnightblue" points="293.5,-29.75 290,-19.75 286.5,-29.75 293.5,-29.75"/>
</g>
<!-- Node8 -->
<g id="node8" class="node">
<title>Node8</title>
<g id="a_node8"><a xlink:title=" ">
<polygon fill="white" stroke="#bfbfbf" points="354,-0.5 354,-19.5 504,-19.5 504,-0.5 354,-0.5"/>
<text text-anchor="middle" x="429" y="-7.5" font-family="Helvetica,sans-Serif" font-size="10.00">rapidjson/istreamwrapper.h</text>
</a>
</g>
</g>
<!-- Node4&#45;&gt;Node8 -->
<g id="edge8" class="edge">
<title>Node4&#45;&gt;Node8</title>
<path fill="none" stroke="midnightblue" d="M312.02,-56.44C335.1,-47.48 371.56,-33.31 397.64,-23.18"/>
<polygon fill="midnightblue" stroke="midnightblue" points="399.02,-26.4 407.08,-19.52 396.49,-19.88 399.02,-26.4"/>
</g>
<!-- Node9 -->
<g id="node9" class="node">
<title>Node9</title>
<g id="a_node9"><a xlink:title=" ">
<polygon fill="white" stroke="#bfbfbf" points="521.5,-0.5 521.5,-19.5 628.5,-19.5 628.5,-0.5 521.5,-0.5"/>
<text text-anchor="middle" x="575" y="-7.5" font-family="Helvetica,sans-Serif" font-size="10.00">rapidjson/pointer.h</text>
</a>
</g>
</g>
<!-- Node4&#45;&gt;Node9 -->
<g id="edge9" class="edge">
<title>Node4&#45;&gt;Node9</title>
<path fill="none" stroke="midnightblue" d="M335.16,-56.44C385.29,-46.94 466.22,-31.61 520.01,-21.42"/>
<polygon fill="midnightblue" stroke="midnightblue" points="520.88,-24.82 530.05,-19.52 519.58,-17.94 520.88,-24.82"/>
</g>
<!-- Node11&#45;&gt;Node4 -->
<g id="edge12" class="edge">
<title>Node11&#45;&gt;Node4</title>
<path fill="none" stroke="midnightblue" d="M377.29,-112.32C360.69,-103.7 335,-90.36 315.78,-80.39"/>
<polygon fill="midnightblue" stroke="midnightblue" points="317.16,-77.16 306.67,-75.65 313.93,-83.37 317.16,-77.16"/>
</g>
<!-- Node11&#45;&gt;Node10 -->
<g id="edge13" class="edge">
<title>Node11&#45;&gt;Node10</title>
<path fill="none" stroke="midnightblue" d="M410.23,-112.32C426.35,-103.7 451.3,-90.36 469.96,-80.39"/>
<polygon fill="midnightblue" stroke="midnightblue" points="471.64,-83.46 478.81,-75.65 468.34,-77.28 471.64,-83.46"/>
</g>
<!-- Node12 -->
<g id="node12" class="node">
<title>Node12</title>
<g id="a_node12"><a xlink:title=" ">
<polygon fill="white" stroke="#bfbfbf" points="361.5,-56.5 361.5,-75.5 454.5,-75.5 454.5,-56.5 361.5,-56.5"/>
<text text-anchor="middle" x="408" y="-63.5" font-family="Helvetica,sans-Serif" font-size="10.00">unordered_map</text>
</a>
</g>
</g>
<!-- Node11&#45;&gt;Node12 -->
<g id="edge14" class="edge">
<title>Node11&#45;&gt;Node12</title>
<path fill="none" stroke="midnightblue" d="M396.31,-112.08C398.17,-104.93 400.84,-94.64 403.15,-85.69"/>
<polygon fill="midnightblue" stroke="midnightblue" points="406.61,-86.31 405.73,-75.75 399.83,-84.55 406.61,-86.31"/>
</g>
</g>
</svg>
