<?xml version="1.0" encoding="UTF-8" standalone="no"?>
<!DOCTYPE svg PUBLIC "-//W3C//DTD SVG 1.1//EN"
 "http://www.w3.org/Graphics/SVG/1.1/DTD/svg11.dtd">
<!-- Generated by graphviz version 2.43.0 (0)
 -->
<!-- Title: /home/nico/projects/JODA&#45;gh/libs/joda/core/modules/parser/src/parsers/JSONMetaParser.h Pages: 1 -->
<svg width="208pt" height="139pt"
 viewBox="0.00 0.00 208.00 139.00" xmlns="http://www.w3.org/2000/svg" xmlns:xlink="http://www.w3.org/1999/xlink">
<g id="graph0" class="graph" transform="scale(1 1) rotate(0) translate(4 135)">
<title>/home/nico/projects/JODA&#45;gh/libs/joda/core/modules/parser/src/parsers/JSONMetaParser.h</title>
<polygon fill="white" stroke="transparent" points="-4,4 -4,-135 204,-135 204,4 -4,4"/>
<!-- Node1 -->
<g id="node1" class="node">
<title>Node1</title>
<g id="a_node1"><a xlink:title=" ">
<polygon fill="#bfbfbf" stroke="black" points="24,-78.5 24,-130.5 176,-130.5 176,-78.5 24,-78.5"/>
<text text-anchor="start" x="32" y="-118.5" font-family="Helvetica,sans-Serif" font-size="10.00">/home/nico/projects</text>
<text text-anchor="start" x="32" y="-107.5" font-family="Helvetica,sans-Serif" font-size="10.00">/JODA&#45;gh/libs/joda/core</text>
<text text-anchor="start" x="32" y="-96.5" font-family="Helvetica,sans-Serif" font-size="10.00">/modules/parser/src/parsers</text>
<text text-anchor="middle" x="100" y="-85.5" font-family="Helvetica,sans-Serif" font-size="10.00">/JSONMetaParser.h</text>
</a>
</g>
</g>
<!-- Node2 -->
<g id="node2" class="node">
<title>Node2</title>
<g id="a_node2"><a xlink:href="../../da/d7c/ReaderParser_8cpp.html" target="_top" xlink:title=" ">
<polygon fill="white" stroke="black" points="0,-0.5 0,-41.5 200,-41.5 200,-0.5 0,-0.5"/>
<text text-anchor="start" x="8" y="-29.5" font-family="Helvetica,sans-Serif" font-size="10.00">/home/nico/projects</text>
<text text-anchor="start" x="8" y="-18.5" font-family="Helvetica,sans-Serif" font-size="10.00">/JODA&#45;gh/libs/joda/core</text>
<text text-anchor="middle" x="100" y="-7.5" font-family="Helvetica,sans-Serif" font-size="10.00">/modules/parser/src/ReaderParser.cpp</text>
</a>
</g>
</g>
<!-- Node1&#45;&gt;Node2 -->
<g id="edge1" class="edge">
<title>Node1&#45;&gt;Node2</title>
<path fill="none" stroke="midnightblue" d="M100,-68.15C100,-59.05 100,-49.6 100,-41.63"/>
<polygon fill="midnightblue" stroke="midnightblue" points="96.5,-68.16 100,-78.16 103.5,-68.16 96.5,-68.16"/>
</g>
</g>
</svg>
