<?xml version="1.0" encoding="UTF-8" standalone="no"?>
<!DOCTYPE svg PUBLIC "-//W3C//DTD SVG 1.1//EN"
 "http://www.w3.org/Graphics/SVG/1.1/DTD/svg11.dtd">
<!-- Generated by graphviz version 2.43.0 (0)
 -->
<!-- Title: /home/nico/projects/tmp&#45;joda&#45;dirs/JODA&#45;gh/libs/joda/core/modules/query/values/src/INListProvider.cpp Pages: 1 -->
<svg width="1726pt" height="598pt"
 viewBox="0.00 0.00 1726.47 598.00" xmlns="http://www.w3.org/2000/svg" xmlns:xlink="http://www.w3.org/1999/xlink">
<g id="graph0" class="graph" transform="scale(1 1) rotate(0) translate(4 594)">
<title>/home/nico/projects/tmp&#45;joda&#45;dirs/JODA&#45;gh/libs/joda/core/modules/query/values/src/INListProvider.cpp</title>
<polygon fill="white" stroke="transparent" points="-4,4 -4,-594 1722.47,-594 1722.47,4 -4,4"/>
<!-- Node1 -->
<g id="node1" class="node">
<title>Node1</title>
<g id="a_node1"><a xlink:title=" ">
<polygon fill="#bfbfbf" stroke="black" points="1527.47,-537.5 1527.47,-589.5 1718.47,-589.5 1718.47,-537.5 1527.47,-537.5"/>
<text text-anchor="start" x="1535.47" y="-577.5" font-family="Helvetica,sans-Serif" font-size="10.00">/home/nico/projects</text>
<text text-anchor="start" x="1535.47" y="-566.5" font-family="Helvetica,sans-Serif" font-size="10.00">/tmp&#45;joda&#45;dirs/JODA</text>
<text text-anchor="start" x="1535.47" y="-555.5" font-family="Helvetica,sans-Serif" font-size="10.00">&#45;gh/libs/joda/core/modules</text>
<text text-anchor="middle" x="1622.97" y="-544.5" font-family="Helvetica,sans-Serif" font-size="10.00">/query/values/src/INListProvider.cpp</text>
</a>
</g>
</g>
<!-- Node2 -->
<g id="node2" class="node">
<title>Node2</title>
<g id="a_node2"><a xlink:href="../../d5/dfb/INListProvider_8h.html" target="_top" xlink:title=" ">
<polygon fill="white" stroke="black" points="1510.47,-470.5 1510.47,-500.5 1641.47,-500.5 1641.47,-470.5 1510.47,-470.5"/>
<text text-anchor="start" x="1518.47" y="-488.5" font-family="Helvetica,sans-Serif" font-size="10.00">../include/joda/query</text>
<text text-anchor="middle" x="1575.97" y="-477.5" font-family="Helvetica,sans-Serif" font-size="10.00">/values/INListProvider.h</text>
</a>
</g>
</g>
<!-- Node1&#45;&gt;Node2 -->
<g id="edge1" class="edge">
<title>Node1&#45;&gt;Node2</title>
<path fill="none" stroke="midnightblue" d="M1607.32,-537.19C1601.78,-528.22 1595.57,-518.18 1590.15,-509.42"/>
<polygon fill="midnightblue" stroke="midnightblue" points="1593.08,-507.51 1584.85,-500.85 1587.13,-511.19 1593.08,-507.51"/>
</g>
<!-- Node3 -->
<g id="node3" class="node">
<title>Node3</title>
<g id="a_node3"><a xlink:title=" ">
<polygon fill="white" stroke="#bfbfbf" points="1501.47,-0.5 1501.47,-19.5 1592.47,-19.5 1592.47,-0.5 1501.47,-0.5"/>
<text text-anchor="middle" x="1546.97" y="-7.5" font-family="Helvetica,sans-Serif" font-size="10.00">rapidjson/fwd.h</text>
</a>
</g>
</g>
<!-- Node1&#45;&gt;Node3 -->
<g id="edge66" class="edge">
<title>Node1&#45;&gt;Node3</title>
<path fill="none" stroke="midnightblue" d="M1637.33,-537.03C1651.15,-510.08 1669.97,-465.87 1669.97,-425 1669.97,-425 1669.97,-425 1669.97,-121 1669.97,-72.48 1616.14,-40.01 1579.7,-23.6"/>
<polygon fill="midnightblue" stroke="midnightblue" points="1580.97,-20.33 1570.4,-19.58 1578.19,-26.76 1580.97,-20.33"/>
</g>
<!-- Node2&#45;&gt;Node3 -->
<g id="edge2" class="edge">
<title>Node2&#45;&gt;Node3</title>
<path fill="none" stroke="midnightblue" d="M1585.94,-470.31C1599.74,-449.24 1622.97,-407.97 1622.97,-369 1622.97,-369 1622.97,-369 1622.97,-121 1622.97,-81.28 1589.01,-45.5 1566.49,-26.15"/>
<polygon fill="midnightblue" stroke="midnightblue" points="1568.46,-23.24 1558.52,-19.57 1564,-28.63 1568.46,-23.24"/>
</g>
<!-- Node4 -->
<g id="node4" class="node">
<title>Node4</title>
<g id="a_node4"><a xlink:title=" ">
<polygon fill="white" stroke="#bfbfbf" points="1356.97,-224.5 1356.97,-243.5 1442.97,-243.5 1442.97,-224.5 1356.97,-224.5"/>
<text text-anchor="middle" x="1399.97" y="-231.5" font-family="Helvetica,sans-Serif" font-size="10.00">unordered_set</text>
</a>
</g>
</g>
<!-- Node2&#45;&gt;Node4 -->
<g id="edge3" class="edge">
<title>Node2&#45;&gt;Node4</title>
<path fill="none" stroke="midnightblue" d="M1566.59,-470.35C1550.95,-446.85 1518.45,-398.36 1489.97,-358 1462.91,-319.63 1430.12,-275.36 1412.55,-251.8"/>
<polygon fill="midnightblue" stroke="midnightblue" points="1415.2,-249.49 1406.41,-243.57 1409.59,-253.68 1415.2,-249.49"/>
</g>
<!-- Node5 -->
<g id="node5" class="node">
<title>Node5</title>
<g id="a_node5"><a xlink:href="../../dd/d50/IValueProvider_8h.html" target="_top" xlink:title=" ">
<polygon fill="white" stroke="black" points="1266.47,-414.5 1266.47,-433.5 1361.47,-433.5 1361.47,-414.5 1266.47,-414.5"/>
<text text-anchor="middle" x="1313.97" y="-421.5" font-family="Helvetica,sans-Serif" font-size="10.00">IValueProvider.h</text>
</a>
</g>
</g>
<!-- Node2&#45;&gt;Node5 -->
<g id="edge4" class="edge">
<title>Node2&#45;&gt;Node5</title>
<path fill="none" stroke="midnightblue" d="M1514.22,-470.47C1467.44,-459.85 1404.13,-445.47 1361.31,-435.75"/>
<polygon fill="midnightblue" stroke="midnightblue" points="1361.96,-432.31 1351.43,-433.51 1360.41,-439.13 1361.96,-432.31"/>
</g>
<!-- Node5&#45;&gt;Node3 -->
<g id="edge7" class="edge">
<title>Node5&#45;&gt;Node3</title>
<path fill="none" stroke="midnightblue" d="M1361.55,-423.43C1404.89,-421.42 1468.44,-412.15 1510.97,-378 1540.12,-354.6 1546.97,-339.38 1546.97,-302 1546.97,-302 1546.97,-302 1546.97,-121 1546.97,-88.95 1546.97,-51.64 1546.97,-29.75"/>
<polygon fill="midnightblue" stroke="midnightblue" points="1550.47,-29.56 1546.97,-19.56 1543.47,-29.56 1550.47,-29.56"/>
</g>
<!-- Node6 -->
<g id="node6" class="node">
<title>Node6</title>
<g id="a_node6"><a xlink:title=" ">
<polygon fill="white" stroke="#bfbfbf" points="333.97,-0.5 333.97,-19.5 419.97,-19.5 419.97,-0.5 333.97,-0.5"/>
<text text-anchor="middle" x="376.97" y="-7.5" font-family="Helvetica,sans-Serif" font-size="10.00">glog/logging.h</text>
</a>
</g>
</g>
<!-- Node5&#45;&gt;Node6 -->
<g id="edge5" class="edge">
<title>Node5&#45;&gt;Node6</title>
<path fill="none" stroke="midnightblue" d="M1266.34,-422.06C1095.4,-418.51 513.22,-404.68 328.97,-378 189.44,-357.8 20.97,-442.99 20.97,-302 20.97,-302 20.97,-302 20.97,-121 20.97,-58.44 224.17,-27.62 323.53,-16.29"/>
<polygon fill="midnightblue" stroke="midnightblue" points="324.13,-19.75 333.68,-15.16 323.35,-12.79 324.13,-19.75"/>
</g>
<!-- Node7 -->
<g id="node7" class="node">
<title>Node7</title>
<g id="a_node7"><a xlink:title=" ">
<polygon fill="white" stroke="#bfbfbf" points="1048.97,-0.5 1048.97,-19.5 1170.97,-19.5 1170.97,-0.5 1048.97,-0.5"/>
<text text-anchor="middle" x="1109.97" y="-7.5" font-family="Helvetica,sans-Serif" font-size="10.00">rapidjson/document.h</text>
</a>
</g>
</g>
<!-- Node5&#45;&gt;Node7 -->
<g id="edge6" class="edge">
<title>Node5&#45;&gt;Node7</title>
<path fill="none" stroke="midnightblue" d="M1361.73,-416.38C1407.48,-409.08 1472.13,-395.94 1489.97,-378 1514.53,-353.31 1508.97,-336.82 1508.97,-302 1508.97,-302 1508.97,-302 1508.97,-177 1508.97,-87.13 1429.23,-92.2 1346.97,-56 1294.19,-32.77 1229.62,-21.51 1181.21,-16.06"/>
<polygon fill="midnightblue" stroke="midnightblue" points="1181.45,-12.57 1171.14,-14.99 1180.71,-19.53 1181.45,-12.57"/>
</g>
<!-- Node8 -->
<g id="node8" class="node">
<title>Node8</title>
<g id="a_node8"><a xlink:title=" ">
<polygon fill="white" stroke="#bfbfbf" points="1290.47,-358.5 1290.47,-377.5 1337.47,-377.5 1337.47,-358.5 1290.47,-358.5"/>
<text text-anchor="middle" x="1313.97" y="-365.5" font-family="Helvetica,sans-Serif" font-size="10.00">cmath</text>
</a>
</g>
</g>
<!-- Node5&#45;&gt;Node8 -->
<g id="edge8" class="edge">
<title>Node5&#45;&gt;Node8</title>
<path fill="none" stroke="midnightblue" d="M1313.97,-414.08C1313.97,-407.01 1313.97,-396.86 1313.97,-387.99"/>
<polygon fill="midnightblue" stroke="midnightblue" points="1317.47,-387.75 1313.97,-377.75 1310.47,-387.75 1317.47,-387.75"/>
</g>
<!-- Node9 -->
<g id="node9" class="node">
<title>Node9</title>
<g id="a_node9"><a xlink:title=" ">
<polygon fill="white" stroke="#bfbfbf" points="1355.47,-358.5 1355.47,-377.5 1480.47,-377.5 1480.47,-358.5 1355.47,-358.5"/>
<text text-anchor="middle" x="1417.97" y="-365.5" font-family="Helvetica,sans-Serif" font-size="10.00">experimental/optional</text>
</a>
</g>
</g>
<!-- Node5&#45;&gt;Node9 -->
<g id="edge9" class="edge">
<title>Node5&#45;&gt;Node9</title>
<path fill="none" stroke="midnightblue" d="M1330.68,-414.32C1347.29,-405.7 1372.98,-392.36 1392.2,-382.39"/>
<polygon fill="midnightblue" stroke="midnightblue" points="1394.04,-385.37 1401.31,-377.65 1390.82,-379.16 1394.04,-385.37"/>
</g>
<!-- Node10 -->
<g id="node10" class="node">
<title>Node10</title>
<g id="a_node10"><a xlink:title=" ">
<polygon fill="white" stroke="#bfbfbf" points="256.97,-112.5 256.97,-131.5 314.97,-131.5 314.97,-112.5 256.97,-112.5"/>
<text text-anchor="middle" x="285.97" y="-119.5" font-family="Helvetica,sans-Serif" font-size="10.00">memory</text>
</a>
</g>
</g>
<!-- Node5&#45;&gt;Node10 -->
<g id="edge10" class="edge">
<title>Node5&#45;&gt;Node10</title>
<path fill="none" stroke="midnightblue" d="M1266.43,-422.33C1087.46,-419.59 460.13,-407.91 375.97,-378 336.44,-363.95 322.58,-357.35 299.97,-322 263.61,-265.15 274.49,-179.56 281.76,-141.91"/>
<polygon fill="midnightblue" stroke="midnightblue" points="285.25,-142.35 283.85,-131.85 278.39,-140.93 285.25,-142.35"/>
</g>
<!-- Node11 -->
<g id="node11" class="node">
<title>Node11</title>
<g id="a_node11"><a xlink:title=" ">
<polygon fill="white" stroke="#bfbfbf" points="1005.97,-56.5 1005.97,-75.5 1049.97,-75.5 1049.97,-56.5 1005.97,-56.5"/>
<text text-anchor="middle" x="1027.97" y="-63.5" font-family="Helvetica,sans-Serif" font-size="10.00">string</text>
</a>
</g>
</g>
<!-- Node5&#45;&gt;Node11 -->
<g id="edge11" class="edge">
<title>Node5&#45;&gt;Node11</title>
<path fill="none" stroke="midnightblue" d="M1305.84,-414.5C1298.25,-405.99 1287.31,-392.18 1281.97,-378 1266.56,-337.02 1282.62,-322.47 1271.97,-280 1258.34,-225.63 1250.64,-210.41 1213.97,-168 1188.81,-138.9 1181.14,-131.49 1147.97,-112 1119.99,-95.56 1084.92,-83.24 1059.94,-75.69"/>
<polygon fill="midnightblue" stroke="midnightblue" points="1060.81,-72.3 1050.23,-72.84 1058.84,-79.01 1060.81,-72.3"/>
</g>
<!-- Node12 -->
<g id="node12" class="node">
<title>Node12</title>
<g id="a_node12"><a xlink:href="../../d1/dfd/RapidJsonDocument_8h.html" target="_top" xlink:title=" ">
<polygon fill="white" stroke="black" points="384.97,-358.5 384.97,-377.5 584.97,-377.5 584.97,-358.5 384.97,-358.5"/>
<text text-anchor="middle" x="484.97" y="-365.5" font-family="Helvetica,sans-Serif" font-size="10.00">joda/document/RapidJsonDocument.h</text>
</a>
</g>
</g>
<!-- Node5&#45;&gt;Node12 -->
<g id="edge12" class="edge">
<title>Node5&#45;&gt;Node12</title>
<path fill="none" stroke="midnightblue" d="M1266.43,-419.9C1137.44,-411.5 778.35,-388.11 595.3,-376.19"/>
<polygon fill="midnightblue" stroke="midnightblue" points="595.32,-372.68 585.11,-375.52 594.86,-379.67 595.32,-372.68"/>
</g>
<!-- Node12&#45;&gt;Node3 -->
<g id="edge51" class="edge">
<title>Node12&#45;&gt;Node3</title>
<path fill="none" stroke="midnightblue" d="M585.04,-365.64C766.85,-362.44 1144.39,-352.28 1271.97,-322 1356.81,-301.87 1391,-306.32 1451.97,-244 1468.02,-227.6 1521.7,-81.24 1540.44,-29.23"/>
<polygon fill="midnightblue" stroke="midnightblue" points="1543.8,-30.24 1543.89,-19.65 1537.21,-27.88 1543.8,-30.24"/>
</g>
<!-- Node12&#45;&gt;Node10 -->
<g id="edge53" class="edge">
<title>Node12&#45;&gt;Node10</title>
<path fill="none" stroke="midnightblue" d="M396.33,-358.48C371.53,-351.97 346.58,-340.85 328.97,-322 281.52,-271.21 281.6,-181.02 284.19,-141.93"/>
<polygon fill="midnightblue" stroke="midnightblue" points="287.71,-141.79 285.02,-131.55 280.73,-141.23 287.71,-141.79"/>
</g>
<!-- Node13 -->
<g id="node13" class="node">
<title>Node13</title>
<g id="a_node13"><a xlink:href="../../d2/d0d/ViewLayer_8h.html" target="_top" xlink:title=" ">
<polygon fill="white" stroke="black" points="616.97,-286 616.97,-316 732.97,-316 732.97,-286 616.97,-286"/>
<text text-anchor="start" x="624.97" y="-304" font-family="Helvetica,sans-Serif" font-size="10.00">joda/document/view</text>
<text text-anchor="middle" x="674.97" y="-293" font-family="Helvetica,sans-Serif" font-size="10.00">/ViewLayer.h</text>
</a>
</g>
</g>
<!-- Node12&#45;&gt;Node13 -->
<g id="edge13" class="edge">
<title>Node12&#45;&gt;Node13</title>
<path fill="none" stroke="midnightblue" d="M510.21,-358.37C539.21,-348.45 587.55,-331.91 624.39,-319.31"/>
<polygon fill="midnightblue" stroke="midnightblue" points="625.64,-322.58 633.97,-316.03 623.38,-315.95 625.64,-322.58"/>
</g>
<!-- Node16 -->
<g id="node16" class="node">
<title>Node16</title>
<g id="a_node16"><a xlink:href="../../d6/d09/RJFwd_8h.html" target="_top" xlink:title=" ">
<polygon fill="white" stroke="black" points="438.97,-56.5 438.97,-75.5 544.97,-75.5 544.97,-56.5 438.97,-56.5"/>
<text text-anchor="middle" x="491.97" y="-63.5" font-family="Helvetica,sans-Serif" font-size="10.00">joda/misc/RJFwd.h</text>
</a>
</g>
</g>
<!-- Node12&#45;&gt;Node16 -->
<g id="edge65" class="edge">
<title>Node12&#45;&gt;Node16</title>
<path fill="none" stroke="midnightblue" d="M462.79,-358.49C422.85,-341.56 342.97,-299.63 342.97,-235 342.97,-235 342.97,-235 342.97,-177 342.97,-123.94 404.89,-93.58 448.89,-78.7"/>
<polygon fill="midnightblue" stroke="midnightblue" points="450.1,-81.99 458.54,-75.59 447.94,-75.33 450.1,-81.99"/>
</g>
<!-- Node17 -->
<g id="node17" class="node">
<title>Node17</title>
<g id="a_node17"><a xlink:title=" ">
<polygon fill="white" stroke="#bfbfbf" points="55.97,-0.5 55.97,-19.5 177.97,-19.5 177.97,-0.5 55.97,-0.5"/>
<text text-anchor="middle" x="116.97" y="-7.5" font-family="Helvetica,sans-Serif" font-size="10.00">rapidjson/allocators.h</text>
</a>
</g>
</g>
<!-- Node12&#45;&gt;Node17 -->
<g id="edge50" class="edge">
<title>Node12&#45;&gt;Node17</title>
<path fill="none" stroke="midnightblue" d="M390.04,-358.47C349.39,-352.14 302.32,-341.14 262.97,-322 145.89,-265.03 123.74,-231.69 39.97,-132 16.29,-103.81 -13.55,-86.57 6.97,-56 17.89,-39.73 35.85,-29.34 54.11,-22.71"/>
<polygon fill="midnightblue" stroke="midnightblue" points="55.25,-26.02 63.66,-19.57 53.06,-19.37 55.25,-26.02"/>
</g>
<!-- Node31 -->
<g id="node31" class="node">
<title>Node31</title>
<g id="a_node31"><a xlink:title=" ">
<polygon fill="white" stroke="#bfbfbf" points="459.97,-291.5 459.97,-310.5 509.97,-310.5 509.97,-291.5 459.97,-291.5"/>
<text text-anchor="middle" x="484.97" y="-298.5" font-family="Helvetica,sans-Serif" font-size="10.00">atomic</text>
</a>
</g>
</g>
<!-- Node12&#45;&gt;Node31 -->
<g id="edge52" class="edge">
<title>Node12&#45;&gt;Node31</title>
<path fill="none" stroke="midnightblue" d="M484.97,-358.23C484.97,-348.68 484.97,-333.12 484.97,-320.78"/>
<polygon fill="midnightblue" stroke="midnightblue" points="488.47,-320.63 484.97,-310.63 481.47,-320.63 488.47,-320.63"/>
</g>
<!-- Node32 -->
<g id="node32" class="node">
<title>Node32</title>
<g id="a_node32"><a xlink:href="../../df/d13/FileNameRepo_8h.html" target="_top" xlink:title=" ">
<polygon fill="white" stroke="black" points="1107.47,-280.5 1107.47,-321.5 1262.47,-321.5 1262.47,-280.5 1107.47,-280.5"/>
<text text-anchor="start" x="1115.47" y="-309.5" font-family="Helvetica,sans-Serif" font-size="10.00">../../../../../misc</text>
<text text-anchor="start" x="1115.47" y="-298.5" font-family="Helvetica,sans-Serif" font-size="10.00">/include/joda/misc/FileName</text>
<text text-anchor="middle" x="1184.97" y="-287.5" font-family="Helvetica,sans-Serif" font-size="10.00">Repo.h</text>
</a>
</g>
</g>
<!-- Node12&#45;&gt;Node32 -->
<g id="edge54" class="edge">
<title>Node12&#45;&gt;Node32</title>
<path fill="none" stroke="midnightblue" d="M576.85,-358.47C712.32,-345.89 963.97,-322.52 1097.11,-310.16"/>
<polygon fill="midnightblue" stroke="midnightblue" points="1097.64,-313.63 1107.27,-309.22 1096.99,-306.66 1097.64,-313.63"/>
</g>
<!-- Node33 -->
<g id="node33" class="node">
<title>Node33</title>
<g id="a_node33"><a xlink:href="../../d5/d6c/IOrigin_8h.html" target="_top" xlink:title=" ">
<polygon fill="white" stroke="black" points="133.97,-168.5 133.97,-187.5 191.97,-187.5 191.97,-168.5 133.97,-168.5"/>
<text text-anchor="middle" x="162.97" y="-175.5" font-family="Helvetica,sans-Serif" font-size="10.00">IOrigin.h</text>
</a>
</g>
</g>
<!-- Node12&#45;&gt;Node33 -->
<g id="edge60" class="edge">
<title>Node12&#45;&gt;Node33</title>
<path fill="none" stroke="midnightblue" d="M384.81,-360.83C352.15,-354.62 317.5,-343.08 290.97,-322 253.01,-291.82 276.28,-259.26 242.97,-224 229.84,-210.09 211.42,-199.33 195.57,-191.82"/>
<polygon fill="midnightblue" stroke="midnightblue" points="196.66,-188.47 186.1,-187.57 193.79,-194.86 196.66,-188.47"/>
</g>
<!-- Node13&#45;&gt;Node6 -->
<g id="edge14" class="edge">
<title>Node13&#45;&gt;Node6</title>
<path fill="none" stroke="midnightblue" d="M616.95,-295.4C567.59,-289.38 496.29,-275.57 441.97,-244 407.72,-224.09 380.97,-218.62 380.97,-179 380.97,-179 380.97,-179 380.97,-121 380.97,-88.93 379.26,-51.63 378.07,-29.74"/>
<polygon fill="midnightblue" stroke="midnightblue" points="381.55,-29.34 377.5,-19.55 374.57,-29.73 381.55,-29.34"/>
</g>
<!-- Node14 -->
<g id="node14" class="node">
<title>Node14</title>
<g id="a_node14"><a xlink:href="../../db/d16/config_8h.html" target="_top" xlink:title=" ">
<polygon fill="white" stroke="black" points="1009.47,-224.5 1009.47,-243.5 1120.47,-243.5 1120.47,-224.5 1009.47,-224.5"/>
<text text-anchor="middle" x="1064.97" y="-231.5" font-family="Helvetica,sans-Serif" font-size="10.00">joda/config/config.h</text>
</a>
</g>
</g>
<!-- Node13&#45;&gt;Node14 -->
<g id="edge15" class="edge">
<title>Node13&#45;&gt;Node14</title>
<path fill="none" stroke="midnightblue" d="M733.36,-290.27C806.12,-278.14 929.87,-257.52 1003.87,-245.18"/>
<polygon fill="midnightblue" stroke="midnightblue" points="1004.68,-248.6 1013.97,-243.5 1003.53,-241.69 1004.68,-248.6"/>
</g>
<!-- Node13&#45;&gt;Node16 -->
<g id="edge18" class="edge">
<title>Node13&#45;&gt;Node16</title>
<path fill="none" stroke="midnightblue" d="M616.78,-296.89C571.6,-291.74 509.64,-278.36 466.97,-244 438.82,-221.32 429.19,-203.07 437.97,-168 445.99,-136.01 466.29,-103.08 479.59,-83.85"/>
<polygon fill="midnightblue" stroke="midnightblue" points="482.53,-85.75 485.47,-75.58 476.82,-81.7 482.53,-85.75"/>
</g>
<!-- Node20 -->
<g id="node20" class="node">
<title>Node20</title>
<g id="a_node20"><a xlink:title=" ">
<polygon fill="white" stroke="#bfbfbf" points="741.47,-224.5 741.47,-243.5 870.47,-243.5 870.47,-224.5 741.47,-224.5"/>
<text text-anchor="middle" x="805.97" y="-231.5" font-family="Helvetica,sans-Serif" font-size="10.00">rapidjson/stringbuffer.h</text>
</a>
</g>
</g>
<!-- Node13&#45;&gt;Node20 -->
<g id="edge25" class="edge">
<title>Node13&#45;&gt;Node20</title>
<path fill="none" stroke="midnightblue" d="M703.4,-285.9C726.08,-274.64 757.6,-259 779.7,-248.04"/>
<polygon fill="midnightblue" stroke="midnightblue" points="781.43,-251.09 788.83,-243.51 778.32,-244.82 781.43,-251.09"/>
</g>
<!-- Node21 -->
<g id="node21" class="node">
<title>Node21</title>
<g id="a_node21"><a xlink:title=" ">
<polygon fill="white" stroke="#bfbfbf" points="888.97,-224.5 888.97,-243.5 952.97,-243.5 952.97,-224.5 888.97,-224.5"/>
<text text-anchor="middle" x="920.97" y="-231.5" font-family="Helvetica,sans-Serif" font-size="10.00">algorithm</text>
</a>
</g>
</g>
<!-- Node13&#45;&gt;Node21 -->
<g id="edge26" class="edge">
<title>Node13&#45;&gt;Node21</title>
<path fill="none" stroke="midnightblue" d="M728.05,-285.98C773.2,-274.05 837.17,-257.14 878.86,-246.13"/>
<polygon fill="midnightblue" stroke="midnightblue" points="879.92,-249.47 888.7,-243.53 878.13,-242.7 879.92,-249.47"/>
</g>
<!-- Node22 -->
<g id="node22" class="node">
<title>Node22</title>
<g id="a_node22"><a xlink:title=" ">
<polygon fill="white" stroke="#bfbfbf" points="1176.97,-224.5 1176.97,-243.5 1224.97,-243.5 1224.97,-224.5 1176.97,-224.5"/>
<text text-anchor="middle" x="1200.97" y="-231.5" font-family="Helvetica,sans-Serif" font-size="10.00">mutex</text>
</a>
</g>
</g>
<!-- Node13&#45;&gt;Node22 -->
<g id="edge27" class="edge">
<title>Node13&#45;&gt;Node22</title>
<path fill="none" stroke="midnightblue" d="M733.14,-295.57C824.94,-288.07 1008.84,-271 1162.97,-244 1164.25,-243.78 1165.55,-243.54 1166.86,-243.28"/>
<polygon fill="midnightblue" stroke="midnightblue" points="1167.88,-246.64 1176.94,-241.15 1166.43,-239.8 1167.88,-246.64"/>
</g>
<!-- Node23 -->
<g id="node23" class="node">
<title>Node23</title>
<g id="a_node23"><a xlink:title=" ">
<polygon fill="white" stroke="#bfbfbf" points="1244.47,-56.5 1244.47,-75.5 1337.47,-75.5 1337.47,-56.5 1244.47,-56.5"/>
<text text-anchor="middle" x="1290.97" y="-63.5" font-family="Helvetica,sans-Serif" font-size="10.00">unordered_map</text>
</a>
</g>
</g>
<!-- Node13&#45;&gt;Node23 -->
<g id="edge28" class="edge">
<title>Node13&#45;&gt;Node23</title>
<path fill="none" stroke="midnightblue" d="M733.35,-297.83C840.11,-293.06 1062.12,-279.12 1129.97,-244 1202.81,-206.3 1259.06,-121.47 1280.99,-84.63"/>
<polygon fill="midnightblue" stroke="midnightblue" points="1284.24,-86 1286.25,-75.59 1278.19,-82.48 1284.24,-86"/>
</g>
<!-- Node24 -->
<g id="node24" class="node">
<title>Node24</title>
<g id="a_node24"><a xlink:title=" ">
<polygon fill="white" stroke="#bfbfbf" points="485.47,-224.5 485.47,-243.5 536.47,-243.5 536.47,-224.5 485.47,-224.5"/>
<text text-anchor="middle" x="510.97" y="-231.5" font-family="Helvetica,sans-Serif" font-size="10.00">variant</text>
</a>
</g>
</g>
<!-- Node13&#45;&gt;Node24 -->
<g id="edge29" class="edge">
<title>Node13&#45;&gt;Node24</title>
<path fill="none" stroke="midnightblue" d="M639.39,-285.9C610.36,-274.39 569.76,-258.3 542.03,-247.31"/>
<polygon fill="midnightblue" stroke="midnightblue" points="543.02,-243.94 532.44,-243.51 540.45,-250.45 543.02,-243.94"/>
</g>
<!-- Node25 -->
<g id="node25" class="node">
<title>Node25</title>
<g id="a_node25"><a xlink:href="../../da/d3b/ObjectIterator_8h.html" target="_top" xlink:title=" ">
<polygon fill="white" stroke="black" points="554.97,-224.5 554.97,-243.5 646.97,-243.5 646.97,-224.5 554.97,-224.5"/>
<text text-anchor="middle" x="600.97" y="-231.5" font-family="Helvetica,sans-Serif" font-size="10.00">ObjectIterator.h</text>
</a>
</g>
</g>
<!-- Node13&#45;&gt;Node25 -->
<g id="edge30" class="edge">
<title>Node13&#45;&gt;Node25</title>
<path fill="none" stroke="midnightblue" d="M658.92,-285.9C647.04,-275.46 630.86,-261.25 618.62,-250.5"/>
<polygon fill="midnightblue" stroke="midnightblue" points="620.7,-247.66 610.87,-243.69 616.08,-252.92 620.7,-247.66"/>
</g>
<!-- Node28 -->
<g id="node28" class="node">
<title>Node28</title>
<g id="a_node28"><a xlink:href="../../d5/de2/ViewCursor_8h.html" target="_top" xlink:title=" ">
<polygon fill="white" stroke="black" points="446.97,-168.5 446.97,-187.5 526.97,-187.5 526.97,-168.5 446.97,-168.5"/>
<text text-anchor="middle" x="486.97" y="-175.5" font-family="Helvetica,sans-Serif" font-size="10.00">ViewCursor.h</text>
</a>
</g>
</g>
<!-- Node13&#45;&gt;Node28 -->
<g id="edge43" class="edge">
<title>Node13&#45;&gt;Node28</title>
<path fill="none" stroke="midnightblue" d="M616.63,-291.39C564.53,-282.36 493.89,-266.37 476.97,-244 466.78,-230.52 471.72,-210.89 477.7,-196.73"/>
<polygon fill="midnightblue" stroke="midnightblue" points="480.93,-198.09 482.04,-187.56 474.6,-195.1 480.93,-198.09"/>
</g>
<!-- Node29 -->
<g id="node29" class="node">
<title>Node29</title>
<g id="a_node29"><a xlink:href="../../d0/d10/ViewStructure_8h.html" target="_top" xlink:title=" ">
<polygon fill="white" stroke="black" points="827.97,-112.5 827.97,-131.5 921.97,-131.5 921.97,-112.5 827.97,-112.5"/>
<text text-anchor="middle" x="874.97" y="-119.5" font-family="Helvetica,sans-Serif" font-size="10.00">ViewStructure.h</text>
</a>
</g>
</g>
<!-- Node13&#45;&gt;Node29 -->
<g id="edge44" class="edge">
<title>Node13&#45;&gt;Node29</title>
<path fill="none" stroke="midnightblue" d="M681.9,-285.88C691.13,-268.59 709.11,-239.67 732.97,-224 788.48,-187.55 837.07,-240.3 877.97,-188 888.18,-174.95 885.71,-155.53 881.74,-141.31"/>
<polygon fill="midnightblue" stroke="midnightblue" points="885.02,-140.07 878.59,-131.65 878.36,-142.24 885.02,-140.07"/>
</g>
<!-- Node30 -->
<g id="node30" class="node">
<title>Node30</title>
<g id="a_node30"><a xlink:href="../../d8/dee/VirtualObject_8h.html" target="_top" xlink:title=" ">
<polygon fill="white" stroke="black" points="779.47,-168.5 779.47,-187.5 868.47,-187.5 868.47,-168.5 779.47,-168.5"/>
<text text-anchor="middle" x="823.97" y="-175.5" font-family="Helvetica,sans-Serif" font-size="10.00">VirtualObject.h</text>
</a>
</g>
</g>
<!-- Node13&#45;&gt;Node30 -->
<g id="edge45" class="edge">
<title>Node13&#45;&gt;Node30</title>
<path fill="none" stroke="midnightblue" d="M675.76,-285.77C677.44,-268.91 682.68,-240.96 698.97,-224 717.52,-204.71 744.93,-193.66 769.36,-187.34"/>
<polygon fill="midnightblue" stroke="midnightblue" points="770.33,-190.71 779.25,-185 768.71,-183.9 770.33,-190.71"/>
</g>
<!-- Node14&#45;&gt;Node11 -->
<g id="edge17" class="edge">
<title>Node14&#45;&gt;Node11</title>
<path fill="none" stroke="midnightblue" d="M1062.99,-224.08C1057.16,-197.95 1040.06,-121.21 1032.12,-85.58"/>
<polygon fill="midnightblue" stroke="midnightblue" points="1035.48,-84.57 1029.88,-75.57 1028.64,-86.09 1035.48,-84.57"/>
</g>
<!-- Node15 -->
<g id="node15" class="node">
<title>Node15</title>
<g id="a_node15"><a xlink:title=" ">
<polygon fill="white" stroke="#bfbfbf" points="982.97,-168.5 982.97,-187.5 1036.97,-187.5 1036.97,-168.5 982.97,-168.5"/>
<text text-anchor="middle" x="1009.97" y="-175.5" font-family="Helvetica,sans-Serif" font-size="10.00">istream</text>
</a>
</g>
</g>
<!-- Node14&#45;&gt;Node15 -->
<g id="edge16" class="edge">
<title>Node14&#45;&gt;Node15</title>
<path fill="none" stroke="midnightblue" d="M1055.89,-224.08C1047.8,-216.14 1035.78,-204.34 1026.06,-194.8"/>
<polygon fill="midnightblue" stroke="midnightblue" points="1028.48,-192.26 1018.89,-187.75 1023.57,-197.25 1028.48,-192.26"/>
</g>
<!-- Node16&#45;&gt;Node3 -->
<g id="edge22" class="edge">
<title>Node16&#45;&gt;Node3</title>
<path fill="none" stroke="midnightblue" d="M545.02,-62.29C724.44,-53.1 1307.69,-23.25 1491.18,-13.86"/>
<polygon fill="midnightblue" stroke="midnightblue" points="1491.6,-17.34 1501.41,-13.33 1491.25,-10.35 1491.6,-17.34"/>
</g>
<!-- Node16&#45;&gt;Node6 -->
<g id="edge19" class="edge">
<title>Node16&#45;&gt;Node6</title>
<path fill="none" stroke="midnightblue" d="M473.75,-56.44C455.08,-47.68 425.82,-33.94 404.36,-23.86"/>
<polygon fill="midnightblue" stroke="midnightblue" points="405.65,-20.6 395.11,-19.52 402.68,-26.93 405.65,-20.6"/>
</g>
<!-- Node16&#45;&gt;Node7 -->
<g id="edge21" class="edge">
<title>Node16&#45;&gt;Node7</title>
<path fill="none" stroke="midnightblue" d="M545.2,-60.35C656.41,-50.63 913.43,-28.17 1038.72,-17.23"/>
<polygon fill="midnightblue" stroke="midnightblue" points="1039.31,-20.69 1048.97,-16.33 1038.7,-13.71 1039.31,-20.69"/>
</g>
<!-- Node16&#45;&gt;Node17 -->
<g id="edge20" class="edge">
<title>Node16&#45;&gt;Node17</title>
<path fill="none" stroke="midnightblue" d="M438.64,-57.32C372.4,-47.78 259.24,-31.49 186.32,-20.99"/>
<polygon fill="midnightblue" stroke="midnightblue" points="186.7,-17.51 176.31,-19.54 185.71,-24.43 186.7,-17.51"/>
</g>
<!-- Node18 -->
<g id="node18" class="node">
<title>Node18</title>
<g id="a_node18"><a xlink:title=" ">
<polygon fill="white" stroke="#bfbfbf" points="563.97,-0.5 563.97,-19.5 713.97,-19.5 713.97,-0.5 563.97,-0.5"/>
<text text-anchor="middle" x="638.97" y="-7.5" font-family="Helvetica,sans-Serif" font-size="10.00">rapidjson/istreamwrapper.h</text>
</a>
</g>
</g>
<!-- Node16&#45;&gt;Node18 -->
<g id="edge23" class="edge">
<title>Node16&#45;&gt;Node18</title>
<path fill="none" stroke="midnightblue" d="M515.27,-56.44C539.78,-47.44 578.57,-33.19 606.17,-23.05"/>
<polygon fill="midnightblue" stroke="midnightblue" points="607.61,-26.25 615.79,-19.52 605.2,-19.68 607.61,-26.25"/>
</g>
<!-- Node19 -->
<g id="node19" class="node">
<title>Node19</title>
<g id="a_node19"><a xlink:title=" ">
<polygon fill="white" stroke="#bfbfbf" points="438.47,-0.5 438.47,-19.5 545.47,-19.5 545.47,-0.5 438.47,-0.5"/>
<text text-anchor="middle" x="491.97" y="-7.5" font-family="Helvetica,sans-Serif" font-size="10.00">rapidjson/pointer.h</text>
</a>
</g>
</g>
<!-- Node16&#45;&gt;Node19 -->
<g id="edge24" class="edge">
<title>Node16&#45;&gt;Node19</title>
<path fill="none" stroke="midnightblue" d="M491.97,-56.08C491.97,-49.01 491.97,-38.86 491.97,-29.99"/>
<polygon fill="midnightblue" stroke="midnightblue" points="495.47,-29.75 491.97,-19.75 488.47,-29.75 495.47,-29.75"/>
</g>
<!-- Node25&#45;&gt;Node11 -->
<g id="edge32" class="edge">
<title>Node25&#45;&gt;Node11</title>
<path fill="none" stroke="midnightblue" d="M613.59,-224.22C646.08,-202.03 735.91,-143.21 818.97,-112 879.22,-89.36 953.75,-76.75 995.56,-70.96"/>
<polygon fill="midnightblue" stroke="midnightblue" points="996.26,-74.4 1005.71,-69.6 995.33,-67.46 996.26,-74.4"/>
</g>
<!-- Node25&#45;&gt;Node16 -->
<g id="edge31" class="edge">
<title>Node25&#45;&gt;Node16</title>
<path fill="none" stroke="midnightblue" d="M611.94,-224.18C625.58,-212.07 646.12,-189.35 637.97,-168 620.23,-121.47 566.73,-93.45 529.68,-79.1"/>
<polygon fill="midnightblue" stroke="midnightblue" points="530.77,-75.77 520.17,-75.58 528.33,-82.33 530.77,-75.77"/>
</g>
<!-- Node26 -->
<g id="node26" class="node">
<title>Node26</title>
<g id="a_node26"><a xlink:title=" ">
<polygon fill="white" stroke="#bfbfbf" points="583.47,-168.5 583.47,-187.5 628.47,-187.5 628.47,-168.5 583.47,-168.5"/>
<text text-anchor="middle" x="605.97" y="-175.5" font-family="Helvetica,sans-Serif" font-size="10.00">utility</text>
</a>
</g>
</g>
<!-- Node25&#45;&gt;Node26 -->
<g id="edge33" class="edge">
<title>Node25&#45;&gt;Node26</title>
<path fill="none" stroke="midnightblue" d="M601.8,-224.08C602.46,-217.01 603.4,-206.86 604.22,-197.99"/>
<polygon fill="midnightblue" stroke="midnightblue" points="607.73,-198.03 605.16,-187.75 600.76,-197.39 607.73,-198.03"/>
</g>
<!-- Node27 -->
<g id="node27" class="node">
<title>Node27</title>
<g id="a_node27"><a xlink:title=" ">
<polygon fill="white" stroke="#bfbfbf" points="531.47,-112.5 531.47,-131.5 578.47,-131.5 578.47,-112.5 531.47,-112.5"/>
<text text-anchor="middle" x="554.97" y="-119.5" font-family="Helvetica,sans-Serif" font-size="10.00">vector</text>
</a>
</g>
</g>
<!-- Node25&#45;&gt;Node27 -->
<g id="edge34" class="edge">
<title>Node25&#45;&gt;Node27</title>
<path fill="none" stroke="midnightblue" d="M595.18,-224.34C589.46,-215.5 580.75,-201.23 574.97,-188 568.34,-172.78 562.96,-154.67 559.46,-141.43"/>
<polygon fill="midnightblue" stroke="midnightblue" points="562.82,-140.47 556.97,-131.63 556.04,-142.19 562.82,-140.47"/>
</g>
<!-- Node25&#45;&gt;Node28 -->
<g id="edge35" class="edge">
<title>Node25&#45;&gt;Node28</title>
<path fill="none" stroke="midnightblue" d="M582.91,-224.44C564.4,-215.68 535.39,-201.94 514.12,-191.86"/>
<polygon fill="midnightblue" stroke="midnightblue" points="515.49,-188.63 504.95,-187.52 512.49,-194.96 515.49,-188.63"/>
</g>
<!-- Node28&#45;&gt;Node10 -->
<g id="edge37" class="edge">
<title>Node28&#45;&gt;Node10</title>
<path fill="none" stroke="midnightblue" d="M455.13,-168.44C419.76,-158.94 362.68,-143.61 324.75,-133.42"/>
<polygon fill="midnightblue" stroke="midnightblue" points="325.63,-130.03 315.06,-130.82 323.81,-136.79 325.63,-130.03"/>
</g>
<!-- Node28&#45;&gt;Node16 -->
<g id="edge36" class="edge">
<title>Node28&#45;&gt;Node16</title>
<path fill="none" stroke="midnightblue" d="M487.37,-168.37C488.17,-150.62 490.04,-109.67 491.13,-85.6"/>
<polygon fill="midnightblue" stroke="midnightblue" points="494.63,-85.74 491.58,-75.59 487.63,-85.42 494.63,-85.74"/>
</g>
<!-- Node28&#45;&gt;Node27 -->
<g id="edge38" class="edge">
<title>Node28&#45;&gt;Node27</title>
<path fill="none" stroke="midnightblue" d="M497.9,-168.32C508.15,-160.18 523.7,-147.84 535.98,-138.09"/>
<polygon fill="midnightblue" stroke="midnightblue" points="538.2,-140.79 543.85,-131.83 533.84,-135.31 538.2,-140.79"/>
</g>
<!-- Node28&#45;&gt;Node29 -->
<g id="edge39" class="edge">
<title>Node28&#45;&gt;Node29</title>
<path fill="none" stroke="midnightblue" d="M527.04,-171.42C596.15,-161.81 738.03,-142.06 817.6,-130.98"/>
<polygon fill="midnightblue" stroke="midnightblue" points="818.51,-134.39 827.93,-129.55 817.55,-127.46 818.51,-134.39"/>
</g>
<!-- Node29&#45;&gt;Node11 -->
<g id="edge41" class="edge">
<title>Node29&#45;&gt;Node11</title>
<path fill="none" stroke="midnightblue" d="M899.22,-112.44C925.45,-103.19 967.38,-88.39 996.22,-78.21"/>
<polygon fill="midnightblue" stroke="midnightblue" points="997.57,-81.44 1005.83,-74.82 995.24,-74.84 997.57,-81.44"/>
</g>
<!-- Node29&#45;&gt;Node16 -->
<g id="edge40" class="edge">
<title>Node29&#45;&gt;Node16</title>
<path fill="none" stroke="midnightblue" d="M827.63,-114.32C758.96,-104.64 631.6,-86.69 555.04,-75.89"/>
<polygon fill="midnightblue" stroke="midnightblue" points="555.44,-72.41 545.05,-74.48 554.46,-79.34 555.44,-72.41"/>
</g>
<!-- Node29&#45;&gt;Node23 -->
<g id="edge42" class="edge">
<title>Node29&#45;&gt;Node23</title>
<path fill="none" stroke="midnightblue" d="M922.29,-114.86C999.36,-104.85 1151.68,-85.08 1234.37,-74.35"/>
<polygon fill="midnightblue" stroke="midnightblue" points="1234.87,-77.81 1244.34,-73.05 1233.97,-70.87 1234.87,-77.81"/>
</g>
<!-- Node30&#45;&gt;Node6 -->
<g id="edge46" class="edge">
<title>Node30&#45;&gt;Node6</title>
<path fill="none" stroke="midnightblue" d="M809.26,-168.37C786.64,-155.28 741.76,-130.03 701.97,-112 637.92,-82.96 621.05,-77.14 553.97,-56 511.18,-42.51 461.6,-30.18 425.82,-21.85"/>
<polygon fill="midnightblue" stroke="midnightblue" points="426.18,-18.35 415.65,-19.51 424.61,-25.17 426.18,-18.35"/>
</g>
<!-- Node30&#45;&gt;Node11 -->
<g id="edge48" class="edge">
<title>Node30&#45;&gt;Node11</title>
<path fill="none" stroke="midnightblue" d="M847.96,-168.43C870.05,-160.19 903.48,-146.82 930.97,-132 959.17,-116.81 989.5,-95.61 1008.6,-81.61"/>
<polygon fill="midnightblue" stroke="midnightblue" points="1010.83,-84.32 1016.78,-75.55 1006.66,-78.69 1010.83,-84.32"/>
</g>
<!-- Node30&#45;&gt;Node16 -->
<g id="edge47" class="edge">
<title>Node30&#45;&gt;Node16</title>
<path fill="none" stroke="midnightblue" d="M804.68,-168.43C774.45,-155.21 713.9,-129.53 660.97,-112 620.49,-98.59 573.55,-86.35 539.43,-78.03"/>
<polygon fill="midnightblue" stroke="midnightblue" points="539.82,-74.52 529.27,-75.58 538.17,-81.33 539.82,-74.52"/>
</g>
<!-- Node30&#45;&gt;Node29 -->
<g id="edge49" class="edge">
<title>Node30&#45;&gt;Node29</title>
<path fill="none" stroke="midnightblue" d="M832.4,-168.08C839.82,-160.22 850.83,-148.57 859.79,-139.08"/>
<polygon fill="midnightblue" stroke="midnightblue" points="862.39,-141.42 866.71,-131.75 857.3,-136.62 862.39,-141.42"/>
</g>
<!-- Node32&#45;&gt;Node4 -->
<g id="edge58" class="edge">
<title>Node32&#45;&gt;Node4</title>
<path fill="none" stroke="midnightblue" d="M1249.48,-280.5C1286.2,-269.4 1330.94,-255.87 1362.04,-246.47"/>
<polygon fill="midnightblue" stroke="midnightblue" points="1363.08,-249.81 1371.64,-243.57 1361.05,-243.11 1363.08,-249.81"/>
</g>
<!-- Node32&#45;&gt;Node11 -->
<g id="edge56" class="edge">
<title>Node32&#45;&gt;Node11</title>
<path fill="none" stroke="midnightblue" d="M1211.01,-280.41C1227.48,-265.47 1243.94,-244.12 1233.97,-224 1197.2,-149.73 1106.6,-101.03 1058.74,-79.57"/>
<polygon fill="midnightblue" stroke="midnightblue" points="1060.06,-76.32 1049.49,-75.52 1057.25,-82.74 1060.06,-76.32"/>
</g>
<!-- Node32&#45;&gt;Node22 -->
<g id="edge55" class="edge">
<title>Node32&#45;&gt;Node22</title>
<path fill="none" stroke="midnightblue" d="M1189.78,-280.5C1191.87,-271.97 1194.33,-262.01 1196.4,-253.59"/>
<polygon fill="midnightblue" stroke="midnightblue" points="1199.85,-254.2 1198.84,-243.65 1193.06,-252.53 1199.85,-254.2"/>
</g>
<!-- Node32&#45;&gt;Node23 -->
<g id="edge57" class="edge">
<title>Node32&#45;&gt;Node23</title>
<path fill="none" stroke="midnightblue" d="M1221.4,-280.44C1251.81,-261.54 1292.17,-229.68 1304.97,-188 1314.9,-155.71 1310.05,-145.39 1304.97,-112 1303.61,-103 1300.78,-93.33 1298.03,-85.26"/>
<polygon fill="midnightblue" stroke="midnightblue" points="1301.29,-83.98 1294.57,-75.78 1294.71,-86.37 1301.29,-83.98"/>
</g>
<!-- Node32&#45;&gt;Node27 -->
<g id="edge59" class="edge">
<title>Node32&#45;&gt;Node27</title>
<path fill="none" stroke="midnightblue" d="M1110.06,-280.48C1076.25,-270.84 1036.1,-258.22 1000.97,-244 982.92,-236.69 980.4,-230.31 961.97,-224 880.25,-196 854.9,-208.47 770.97,-188 705.6,-172.05 630.67,-148.23 588.47,-134.29"/>
<polygon fill="midnightblue" stroke="midnightblue" points="589.31,-130.88 578.72,-131.05 587.11,-137.52 589.31,-130.88"/>
</g>
<!-- Node33&#45;&gt;Node6 -->
<g id="edge61" class="edge">
<title>Node33&#45;&gt;Node6</title>
<path fill="none" stroke="midnightblue" d="M168.12,-168.18C176.2,-154.85 192.93,-129.29 211.97,-112 254.71,-73.21 314.42,-40.99 349.06,-23.99"/>
<polygon fill="midnightblue" stroke="midnightblue" points="350.65,-27.11 358.13,-19.61 347.6,-20.81 350.65,-27.11"/>
</g>
<!-- Node33&#45;&gt;Node10 -->
<g id="edge63" class="edge">
<title>Node33&#45;&gt;Node10</title>
<path fill="none" stroke="midnightblue" d="M182.46,-168.44C202.62,-159.6 234.3,-145.69 257.31,-135.59"/>
<polygon fill="midnightblue" stroke="midnightblue" points="258.83,-138.74 266.58,-131.52 256.01,-132.33 258.83,-138.74"/>
</g>
<!-- Node33&#45;&gt;Node16 -->
<g id="edge64" class="edge">
<title>Node33&#45;&gt;Node16</title>
<path fill="none" stroke="midnightblue" d="M171.48,-168.22C185.83,-153.98 216.39,-126.01 247.97,-112 305.99,-86.26 378.06,-75.24 428.78,-70.53"/>
<polygon fill="midnightblue" stroke="midnightblue" points="429.29,-73.99 438.95,-69.64 428.68,-67.02 429.29,-73.99"/>
</g>
<!-- Node34 -->
<g id="node34" class="node">
<title>Node34</title>
<g id="a_node34"><a xlink:title=" ">
<polygon fill="white" stroke="#bfbfbf" points="48.97,-112.5 48.97,-131.5 162.97,-131.5 162.97,-112.5 48.97,-112.5"/>
<text text-anchor="middle" x="105.97" y="-119.5" font-family="Helvetica,sans-Serif" font-size="10.00">boost/operators.hpp</text>
</a>
</g>
</g>
<!-- Node33&#45;&gt;Node34 -->
<g id="edge62" class="edge">
<title>Node33&#45;&gt;Node34</title>
<path fill="none" stroke="midnightblue" d="M153.82,-168.32C145.47,-160.42 132.94,-148.55 122.8,-138.94"/>
<polygon fill="midnightblue" stroke="midnightblue" points="124.97,-136.17 115.3,-131.83 120.15,-141.25 124.97,-136.17"/>
</g>
</g>
</svg>
