<?xml version="1.0" encoding="UTF-8" standalone="no"?>
<!DOCTYPE svg PUBLIC "-//W3C//DTD SVG 1.1//EN"
 "http://www.w3.org/Graphics/SVG/1.1/DTD/svg11.dtd">
<!-- Generated by graphviz version 2.43.0 (0)
 -->
<!-- Title: /home/nico/projects/JODA&#45;gh/libs/joda/core/modules/query/values/include/joda/query/values/PointerProvider.h Pages: 1 -->
<!--zoomable 542 -->
<svg id="main" version="1.1" xmlns="http://www.w3.org/2000/svg" xmlns:xlink="http://www.w3.org/1999/xlink" xml:space="preserve" onload="init(evt)">
<style type="text/css"><![CDATA[
.edge:hover path { stroke: red; }
.edge:hover polygon { stroke: red; fill: red; }
]]></style>
<script type="text/javascript"><![CDATA[
var edges = document.getElementsByTagName('g');
if (edges && edges.length) {
  for (var i=0;i<edges.length;i++) {
    if (edges[i].id.substr(0,4)=='edge') {
      edges[i].setAttribute('class','edge');
    }
  }
}
]]></script>
        <defs>
                <circle id="rim" cx="0" cy="0" r="7"/>
                <circle id="rim2" cx="0" cy="0" r="3.5"/>
                <g id="zoomPlus">
                        <use xlink:href="#rim" fill="#404040">
                                <set attributeName="fill" to="#808080" begin="zoomplus.mouseover" end="zoomplus.mouseout"/>
                        </use>
                        <path d="M-4,0h8M0,-4v8" fill="none" stroke="white" stroke-width="1.5" pointer-events="none"/>
                </g>
                <g id="zoomMin">
                        <use xlink:href="#rim" fill="#404040">
                                <set attributeName="fill" to="#808080" begin="zoomminus.mouseover" end="zoomminus.mouseout"/>
                        </use>
                        <path d="M-4,0h8" fill="none" stroke="white" stroke-width="1.5" pointer-events="none"/>
                </g>
                <g id="dirArrow">
                        <path fill="none" stroke="white" stroke-width="1.5" d="M0,-3.0v7 M-2.5,-0.5L0,-3.0L2.5,-0.5"/>
                </g>
               <g id="resetDef">
                       <use xlink:href="#rim2" fill="#404040">
                               <set attributeName="fill" to="#808080" begin="reset.mouseover" end="reset.mouseout"/>
                       </use>
               </g>
        </defs>

<script type="text/javascript">
var viewWidth = 1474;
var viewHeight = 542;
var sectionId = 'dynsection-0';
</script>
<script xlink:href="../../svgpan.js"/>
<svg id="graph" class="graph">
<g id="viewport">
<title>/home/nico/projects/JODA&#45;gh/libs/joda/core/modules/query/values/include/joda/query/values/PointerProvider.h</title>
<polygon fill="white" stroke="transparent" points="-4,4 -4,-538 1470,-538 1470,4 -4,4"/>
<!-- Node1 -->
<g id="node1" class="node">
<title>Node1</title>
<g id="a_node1"><a xlink:title=" ">
<polygon fill="#bfbfbf" stroke="black" points="70.5,-481.5 70.5,-533.5 263.5,-533.5 263.5,-481.5 70.5,-481.5"/>
<text text-anchor="start" x="78.5" y="-521.5" font-family="Helvetica,sans-Serif" font-size="10.00">/home/nico/projects</text>
<text text-anchor="start" x="78.5" y="-510.5" font-family="Helvetica,sans-Serif" font-size="10.00">/JODA&#45;gh/libs/joda/core</text>
<text text-anchor="start" x="78.5" y="-499.5" font-family="Helvetica,sans-Serif" font-size="10.00">/modules/query/values/include</text>
<text text-anchor="middle" x="167" y="-488.5" font-family="Helvetica,sans-Serif" font-size="10.00">/joda/query/values/PointerProvider.h</text>
</a>
</g>
</g>
<!-- Node2 -->
<g id="node2" class="node">
<title>Node2</title>
<g id="a_node2"><a xlink:title=" ">
<polygon fill="white" stroke="#bfbfbf" points="31.5,-0.5 31.5,-19.5 122.5,-19.5 122.5,-0.5 31.5,-0.5"/>
<text text-anchor="middle" x="77" y="-7.5" font-family="Helvetica,sans-Serif" font-size="10.00">rapidjson/fwd.h</text>
</a>
</g>
</g>
<!-- Node1&#45;&gt;Node2 -->
<g id="edge1" class="edge">
<title>Node1&#45;&gt;Node2</title>
<path fill="none" stroke="midnightblue" d="M90.34,-481.34C46.44,-461.6 0,-429.1 0,-380 0,-380 0,-380 0,-121 0,-80.93 34.71,-45.08 57.53,-25.84"/>
<polygon fill="midnightblue" stroke="midnightblue" points="59.74,-28.55 65.31,-19.53 55.33,-23.11 59.74,-28.55"/>
</g>
<!-- Node3 -->
<g id="node3" class="node">
<title>Node3</title>
<g id="a_node3"><a xlink:title=" ">
<polygon fill="white" stroke="#bfbfbf" points="142.5,-0.5 142.5,-19.5 249.5,-19.5 249.5,-0.5 142.5,-0.5"/>
<text text-anchor="middle" x="196" y="-7.5" font-family="Helvetica,sans-Serif" font-size="10.00">rapidjson/pointer.h</text>
</a>
</g>
</g>
<!-- Node1&#45;&gt;Node3 -->
<g id="edge2" class="edge">
<title>Node1&#45;&gt;Node3</title>
<path fill="none" stroke="midnightblue" d="M115.27,-481.43C79.39,-460.02 38,-425.48 38,-380 38,-380 38,-380 38,-255 38,-153.73 135.09,-61.29 177.05,-26.07"/>
<polygon fill="midnightblue" stroke="midnightblue" points="179.39,-28.68 184.89,-19.62 174.94,-23.27 179.39,-28.68"/>
</g>
<!-- Node4 -->
<g id="node4" class="node">
<title>Node4</title>
<g id="a_node4"><a xlink:title=" ">
<polygon fill="white" stroke="#bfbfbf" points="1386.5,-246.5 1386.5,-265.5 1437.5,-265.5 1437.5,-246.5 1386.5,-246.5"/>
<text text-anchor="middle" x="1412" y="-253.5" font-family="Helvetica,sans-Serif" font-size="10.00">variant</text>
</a>
</g>
</g>
<!-- Node1&#45;&gt;Node4 -->
<g id="edge3" class="edge">
<title>Node1&#45;&gt;Node4</title>
<path fill="none" stroke="midnightblue" d="M263.53,-504.29C540.23,-497.01 1321.49,-469.46 1401,-389 1430.68,-358.97 1423.44,-304.1 1416.98,-275.48"/>
<polygon fill="midnightblue" stroke="midnightblue" points="1420.33,-274.46 1414.53,-265.59 1413.53,-276.14 1420.33,-274.46"/>
</g>
<!-- Node5 -->
<g id="node5" class="node">
<title>Node5</title>
<g id="a_node5"><a xlink:href="../../dd/d50/IValueProvider_8h.html" target="_top" xlink:title=" ">
<polygon fill="white" stroke="black" points="248.5,-425.5 248.5,-444.5 343.5,-444.5 343.5,-425.5 248.5,-425.5"/>
<text text-anchor="middle" x="296" y="-432.5" font-family="Helvetica,sans-Serif" font-size="10.00">IValueProvider.h</text>
</a>
</g>
</g>
<!-- Node1&#45;&gt;Node5 -->
<g id="edge4" class="edge">
<title>Node1&#45;&gt;Node5</title>
<path fill="none" stroke="midnightblue" d="M212.84,-481.45C232.58,-470.66 254.86,-458.48 271.39,-449.45"/>
<polygon fill="midnightblue" stroke="midnightblue" points="273.3,-452.39 280.4,-444.53 269.94,-446.25 273.3,-452.39"/>
</g>
<!-- Node5&#45;&gt;Node2 -->
<g id="edge7" class="edge">
<title>Node5&#45;&gt;Node2</title>
<path fill="none" stroke="midnightblue" d="M248.3,-429.01C196,-422.59 116.63,-409.72 95,-389 71.57,-366.55 76,-350.95 76,-318.5 76,-318.5 76,-318.5 76,-121 76,-88.95 76.43,-51.64 76.73,-29.75"/>
<polygon fill="midnightblue" stroke="midnightblue" points="80.23,-29.61 76.87,-19.56 73.23,-29.51 80.23,-29.61"/>
</g>
<!-- Node6 -->
<g id="node6" class="node">
<title>Node6</title>
<g id="a_node6"><a xlink:title=" ">
<polygon fill="white" stroke="#bfbfbf" points="717,-0.5 717,-19.5 803,-19.5 803,-0.5 717,-0.5"/>
<text text-anchor="middle" x="760" y="-7.5" font-family="Helvetica,sans-Serif" font-size="10.00">glog/logging.h</text>
</a>
</g>
</g>
<!-- Node5&#45;&gt;Node6 -->
<g id="edge5" class="edge">
<title>Node5&#45;&gt;Node6</title>
<path fill="none" stroke="midnightblue" d="M343.5,-434.2C542.62,-434.73 1304.18,-433.79 1401,-389 1439.68,-371.1 1466,-361.12 1466,-318.5 1466,-318.5 1466,-318.5 1466,-121 1466,-55 978.05,-22.71 813.47,-13.7"/>
<polygon fill="midnightblue" stroke="midnightblue" points="813.28,-10.18 803.1,-13.14 812.9,-17.17 813.28,-10.18"/>
</g>
<!-- Node7 -->
<g id="node7" class="node">
<title>Node7</title>
<g id="a_node7"><a xlink:title=" ">
<polygon fill="white" stroke="#bfbfbf" points="269,-0.5 269,-19.5 391,-19.5 391,-0.5 269,-0.5"/>
<text text-anchor="middle" x="330" y="-7.5" font-family="Helvetica,sans-Serif" font-size="10.00">rapidjson/document.h</text>
</a>
</g>
</g>
<!-- Node5&#45;&gt;Node7 -->
<g id="edge6" class="edge">
<title>Node5&#45;&gt;Node7</title>
<path fill="none" stroke="midnightblue" d="M289.5,-425.42C261.39,-387.2 154.15,-229.23 209,-112 228.25,-70.85 273.43,-40.59 302.8,-24.41"/>
<polygon fill="midnightblue" stroke="midnightblue" points="304.55,-27.44 311.73,-19.65 301.26,-21.26 304.55,-27.44"/>
</g>
<!-- Node8 -->
<g id="node8" class="node">
<title>Node8</title>
<g id="a_node8"><a xlink:title=" ">
<polygon fill="white" stroke="#bfbfbf" points="1344.5,-369.5 1344.5,-388.5 1391.5,-388.5 1391.5,-369.5 1344.5,-369.5"/>
<text text-anchor="middle" x="1368" y="-376.5" font-family="Helvetica,sans-Serif" font-size="10.00">cmath</text>
</a>
</g>
</g>
<!-- Node5&#45;&gt;Node8 -->
<g id="edge8" class="edge">
<title>Node5&#45;&gt;Node8</title>
<path fill="none" stroke="midnightblue" d="M343.54,-433.12C519.78,-429.69 1135.56,-416.01 1330,-389 1331.47,-388.8 1332.96,-388.56 1334.47,-388.3"/>
<polygon fill="midnightblue" stroke="midnightblue" points="1335.29,-391.71 1344.41,-386.32 1333.92,-384.84 1335.29,-391.71"/>
</g>
<!-- Node9 -->
<g id="node9" class="node">
<title>Node9</title>
<g id="a_node9"><a xlink:title=" ">
<polygon fill="white" stroke="#bfbfbf" points="104.5,-369.5 104.5,-388.5 229.5,-388.5 229.5,-369.5 104.5,-369.5"/>
<text text-anchor="middle" x="167" y="-376.5" font-family="Helvetica,sans-Serif" font-size="10.00">experimental/optional</text>
</a>
</g>
</g>
<!-- Node5&#45;&gt;Node9 -->
<g id="edge9" class="edge">
<title>Node5&#45;&gt;Node9</title>
<path fill="none" stroke="midnightblue" d="M275.56,-425.44C254.33,-416.56 220.9,-402.56 196.75,-392.45"/>
<polygon fill="midnightblue" stroke="midnightblue" points="197.92,-389.15 187.34,-388.52 195.22,-395.61 197.92,-389.15"/>
</g>
<!-- Node10 -->
<g id="node10" class="node">
<title>Node10</title>
<g id="a_node10"><a xlink:title=" ">
<polygon fill="white" stroke="#bfbfbf" points="388,-112.5 388,-131.5 446,-131.5 446,-112.5 388,-112.5"/>
<text text-anchor="middle" x="417" y="-119.5" font-family="Helvetica,sans-Serif" font-size="10.00">memory</text>
</a>
</g>
</g>
<!-- Node5&#45;&gt;Node10 -->
<g id="edge10" class="edge">
<title>Node5&#45;&gt;Node10</title>
<path fill="none" stroke="midnightblue" d="M299.36,-425.36C315.71,-383.34 387.04,-200 409.91,-141.21"/>
<polygon fill="midnightblue" stroke="midnightblue" points="413.23,-142.34 413.6,-131.75 406.71,-139.8 413.23,-142.34"/>
</g>
<!-- Node11 -->
<g id="node11" class="node">
<title>Node11</title>
<g id="a_node11"><a xlink:title=" ">
<polygon fill="white" stroke="#bfbfbf" points="1119,-56.5 1119,-75.5 1163,-75.5 1163,-56.5 1119,-56.5"/>
<text text-anchor="middle" x="1141" y="-63.5" font-family="Helvetica,sans-Serif" font-size="10.00">string</text>
</a>
</g>
</g>
<!-- Node5&#45;&gt;Node11 -->
<g id="edge11" class="edge">
<title>Node5&#45;&gt;Node11</title>
<path fill="none" stroke="midnightblue" d="M343.57,-430.86C524.07,-418.26 1165.22,-367.12 1339,-266 1398.65,-231.29 1413.72,-154.06 1359,-112 1330.28,-89.92 1226.68,-76.04 1173.3,-70.2"/>
<polygon fill="midnightblue" stroke="midnightblue" points="1173.65,-66.72 1163.33,-69.14 1172.91,-73.68 1173.65,-66.72"/>
</g>
<!-- Node12 -->
<g id="node12" class="node">
<title>Node12</title>
<g id="a_node12"><a xlink:href="../../d1/dfd/RapidJsonDocument_8h.html" target="_top" xlink:title=" ">
<polygon fill="white" stroke="black" points="348,-369.5 348,-388.5 548,-388.5 548,-369.5 348,-369.5"/>
<text text-anchor="middle" x="448" y="-376.5" font-family="Helvetica,sans-Serif" font-size="10.00">joda/document/RapidJsonDocument.h</text>
</a>
</g>
</g>
<!-- Node5&#45;&gt;Node12 -->
<g id="edge12" class="edge">
<title>Node5&#45;&gt;Node12</title>
<path fill="none" stroke="midnightblue" d="M320.08,-425.44C345.54,-416.4 385.89,-402.06 414.46,-391.92"/>
<polygon fill="midnightblue" stroke="midnightblue" points="415.78,-395.16 424.03,-388.52 413.43,-388.57 415.78,-395.16"/>
</g>
<!-- Node12&#45;&gt;Node2 -->
<g id="edge51" class="edge">
<title>Node12&#45;&gt;Node2</title>
<path fill="none" stroke="midnightblue" d="M430.15,-369.35C414.11,-361.14 390.33,-347.88 372,-333 247.59,-232.01 127.54,-78.31 89.44,-27.76"/>
<polygon fill="midnightblue" stroke="midnightblue" points="92.09,-25.46 83.3,-19.55 86.49,-29.66 92.09,-25.46"/>
</g>
<!-- Node12&#45;&gt;Node10 -->
<g id="edge53" class="edge">
<title>Node12&#45;&gt;Node10</title>
<path fill="none" stroke="midnightblue" d="M444.62,-369.18C441.33,-360.22 436.49,-345.85 434,-333 420.58,-263.66 417.73,-179.44 417.14,-142.24"/>
<polygon fill="midnightblue" stroke="midnightblue" points="420.64,-141.86 417.02,-131.9 413.64,-141.94 420.64,-141.86"/>
</g>
<!-- Node13 -->
<g id="node13" class="node">
<title>Node13</title>
<g id="a_node13"><a xlink:href="../../d2/d0d/ViewLayer_8h.html" target="_top" xlink:title=" ">
<polygon fill="white" stroke="black" points="810,-302.5 810,-332.5 926,-332.5 926,-302.5 810,-302.5"/>
<text text-anchor="start" x="818" y="-320.5" font-family="Helvetica,sans-Serif" font-size="10.00">joda/document/view</text>
<text text-anchor="middle" x="868" y="-309.5" font-family="Helvetica,sans-Serif" font-size="10.00">/ViewLayer.h</text>
</a>
</g>
</g>
<!-- Node12&#45;&gt;Node13 -->
<g id="edge13" class="edge">
<title>Node12&#45;&gt;Node13</title>
<path fill="none" stroke="midnightblue" d="M508.18,-369.48C585.4,-358.54 719.01,-339.61 799.88,-328.15"/>
<polygon fill="midnightblue" stroke="midnightblue" points="800.55,-331.59 809.96,-326.72 799.57,-324.66 800.55,-331.59"/>
</g>
<!-- Node16 -->
<g id="node16" class="node">
<title>Node16</title>
<g id="a_node16"><a xlink:href="../../d6/d09/RJFwd_8h.html" target="_top" xlink:title=" ">
<polygon fill="white" stroke="black" points="540,-56.5 540,-75.5 646,-75.5 646,-56.5 540,-56.5"/>
<text text-anchor="middle" x="593" y="-63.5" font-family="Helvetica,sans-Serif" font-size="10.00">joda/misc/RJFwd.h</text>
</a>
</g>
</g>
<!-- Node12&#45;&gt;Node16 -->
<g id="edge65" class="edge">
<title>Node12&#45;&gt;Node16</title>
<path fill="none" stroke="midnightblue" d="M450.33,-369.45C454.29,-355.26 462.78,-326.03 472,-302 505.62,-214.41 515.84,-192.52 564,-112 569.62,-102.61 576.2,-92.34 581.67,-83.99"/>
<polygon fill="midnightblue" stroke="midnightblue" points="584.67,-85.79 587.27,-75.52 578.83,-81.93 584.67,-85.79"/>
</g>
<!-- Node17 -->
<g id="node17" class="node">
<title>Node17</title>
<g id="a_node17"><a xlink:title=" ">
<polygon fill="white" stroke="#bfbfbf" points="409,-0.5 409,-19.5 531,-19.5 531,-0.5 409,-0.5"/>
<text text-anchor="middle" x="470" y="-7.5" font-family="Helvetica,sans-Serif" font-size="10.00">rapidjson/allocators.h</text>
</a>
</g>
</g>
<!-- Node12&#45;&gt;Node17 -->
<g id="edge50" class="edge">
<title>Node12&#45;&gt;Node17</title>
<path fill="none" stroke="midnightblue" d="M454.37,-369.23C460.26,-360.53 468.61,-346.57 472,-333 475.34,-319.63 472.05,-315.78 472,-302 471.65,-199.29 470.59,-76.19 470.17,-29.86"/>
<polygon fill="midnightblue" stroke="midnightblue" points="473.67,-29.54 470.08,-19.57 466.67,-29.6 473.67,-29.54"/>
</g>
<!-- Node29 -->
<g id="node29" class="node">
<title>Node29</title>
<g id="a_node29"><a xlink:title=" ">
<polygon fill="white" stroke="#bfbfbf" points="514,-308 514,-327 564,-327 564,-308 514,-308"/>
<text text-anchor="middle" x="539" y="-315" font-family="Helvetica,sans-Serif" font-size="10.00">atomic</text>
</a>
</g>
</g>
<!-- Node12&#45;&gt;Node29 -->
<g id="edge52" class="edge">
<title>Node12&#45;&gt;Node29</title>
<path fill="none" stroke="midnightblue" d="M461.04,-369.48C475.77,-359.84 499.97,-344.02 517.51,-332.55"/>
<polygon fill="midnightblue" stroke="midnightblue" points="519.53,-335.41 525.99,-327.01 515.7,-329.55 519.53,-335.41"/>
</g>
<!-- Node30 -->
<g id="node30" class="node">
<title>Node30</title>
<g id="a_node30"><a xlink:href="../../df/d13/FileNameRepo_8h.html" target="_top" xlink:title=" ">
<polygon fill="white" stroke="black" points="1134.5,-168.5 1134.5,-209.5 1289.5,-209.5 1289.5,-168.5 1134.5,-168.5"/>
<text text-anchor="start" x="1142.5" y="-197.5" font-family="Helvetica,sans-Serif" font-size="10.00">../../../../../misc</text>
<text text-anchor="start" x="1142.5" y="-186.5" font-family="Helvetica,sans-Serif" font-size="10.00">/include/joda/misc/FileName</text>
<text text-anchor="middle" x="1212" y="-175.5" font-family="Helvetica,sans-Serif" font-size="10.00">Repo.h</text>
</a>
</g>
</g>
<!-- Node12&#45;&gt;Node30 -->
<g id="edge54" class="edge">
<title>Node12&#45;&gt;Node30</title>
<path fill="none" stroke="midnightblue" d="M548.35,-377.58C647.87,-375.11 804.01,-365.66 935,-333 1009.8,-314.35 1026.84,-302.03 1095,-266 1123.48,-250.94 1153.95,-231.02 1176.65,-215.34"/>
<polygon fill="midnightblue" stroke="midnightblue" points="1178.75,-218.15 1184.95,-209.57 1174.75,-212.41 1178.75,-218.15"/>
</g>
<!-- Node32 -->
<g id="node32" class="node">
<title>Node32</title>
<g id="a_node32"><a xlink:href="../../d5/d6c/IOrigin_8h.html" target="_top" xlink:title=" ">
<polygon fill="white" stroke="black" points="286,-179.5 286,-198.5 344,-198.5 344,-179.5 286,-179.5"/>
<text text-anchor="middle" x="315" y="-186.5" font-family="Helvetica,sans-Serif" font-size="10.00">IOrigin.h</text>
</a>
</g>
</g>
<!-- Node12&#45;&gt;Node32 -->
<g id="edge60" class="edge">
<title>Node12&#45;&gt;Node32</title>
<path fill="none" stroke="midnightblue" d="M435.8,-369.36C424.53,-360.97 407.8,-347.41 396,-333 362.81,-292.49 335.57,-236.56 322.82,-208.14"/>
<polygon fill="midnightblue" stroke="midnightblue" points="325.89,-206.43 318.65,-198.69 319.48,-209.25 325.89,-206.43"/>
</g>
<!-- Node13&#45;&gt;Node4 -->
<g id="edge29" class="edge">
<title>Node13&#45;&gt;Node4</title>
<path fill="none" stroke="midnightblue" d="M926.04,-310.58C1014.98,-301.43 1190.31,-283.14 1339,-266 1351.17,-264.6 1364.46,-262.98 1376.33,-261.51"/>
<polygon fill="midnightblue" stroke="midnightblue" points="1376.85,-264.98 1386.34,-260.26 1375.98,-258.03 1376.85,-264.98"/>
</g>
<!-- Node13&#45;&gt;Node6 -->
<g id="edge14" class="edge">
<title>Node13&#45;&gt;Node6</title>
<path fill="none" stroke="midnightblue" d="M809.87,-311.28C743.15,-304.26 638.91,-289.83 608,-266 586.12,-249.13 587.15,-236.94 581,-210 576.84,-191.8 573.3,-185 581,-168 612.57,-98.31 692.06,-47.33 733.67,-24.43"/>
<polygon fill="midnightblue" stroke="midnightblue" points="735.51,-27.41 742.66,-19.59 732.2,-21.24 735.51,-27.41"/>
</g>
<!-- Node14 -->
<g id="node14" class="node">
<title>Node14</title>
<g id="a_node14"><a xlink:href="../../db/d16/config_8h.html" target="_top" xlink:title=" ">
<polygon fill="white" stroke="black" points="1218.5,-246.5 1218.5,-265.5 1329.5,-265.5 1329.5,-246.5 1218.5,-246.5"/>
<text text-anchor="middle" x="1274" y="-253.5" font-family="Helvetica,sans-Serif" font-size="10.00">joda/config/config.h</text>
</a>
</g>
</g>
<!-- Node13&#45;&gt;Node14 -->
<g id="edge15" class="edge">
<title>Node13&#45;&gt;Node14</title>
<path fill="none" stroke="midnightblue" d="M926.17,-307.98C1000.77,-297.04 1129.81,-278.13 1208.01,-266.67"/>
<polygon fill="midnightblue" stroke="midnightblue" points="1208.83,-270.09 1218.22,-265.17 1207.82,-263.16 1208.83,-270.09"/>
</g>
<!-- Node13&#45;&gt;Node16 -->
<g id="edge18" class="edge">
<title>Node13&#45;&gt;Node16</title>
<path fill="none" stroke="midnightblue" d="M809.87,-315.99C726.94,-313.89 581.02,-304.64 548,-266 519.7,-232.89 538.94,-210.6 548,-168 548.06,-167.73 572.05,-113.94 584.97,-84.98"/>
<polygon fill="midnightblue" stroke="midnightblue" points="588.29,-86.14 589.17,-75.58 581.9,-83.29 588.29,-86.14"/>
</g>
<!-- Node19 -->
<g id="node19" class="node">
<title>Node19</title>
<g id="a_node19"><a xlink:title=" ">
<polygon fill="white" stroke="#bfbfbf" points="628.5,-246.5 628.5,-265.5 757.5,-265.5 757.5,-246.5 628.5,-246.5"/>
<text text-anchor="middle" x="693" y="-253.5" font-family="Helvetica,sans-Serif" font-size="10.00">rapidjson/stringbuffer.h</text>
</a>
</g>
</g>
<!-- Node13&#45;&gt;Node19 -->
<g id="edge25" class="edge">
<title>Node13&#45;&gt;Node19</title>
<path fill="none" stroke="midnightblue" d="M826.53,-302.4C796.42,-292.16 756.15,-278.47 727.73,-268.81"/>
<polygon fill="midnightblue" stroke="midnightblue" points="728.8,-265.48 718.21,-265.57 726.55,-272.1 728.8,-265.48"/>
</g>
<!-- Node20 -->
<g id="node20" class="node">
<title>Node20</title>
<g id="a_node20"><a xlink:title=" ">
<polygon fill="white" stroke="#bfbfbf" points="776,-246.5 776,-265.5 840,-265.5 840,-246.5 776,-246.5"/>
<text text-anchor="middle" x="808" y="-253.5" font-family="Helvetica,sans-Serif" font-size="10.00">algorithm</text>
</a>
</g>
</g>
<!-- Node13&#45;&gt;Node20 -->
<g id="edge26" class="edge">
<title>Node13&#45;&gt;Node20</title>
<path fill="none" stroke="midnightblue" d="M853.78,-302.4C844.79,-293.49 833.16,-281.95 823.87,-272.74"/>
<polygon fill="midnightblue" stroke="midnightblue" points="826.3,-270.21 816.73,-265.66 821.37,-275.18 826.3,-270.21"/>
</g>
<!-- Node21 -->
<g id="node21" class="node">
<title>Node21</title>
<g id="a_node21"><a xlink:title=" ">
<polygon fill="white" stroke="#bfbfbf" points="1098,-112.5 1098,-131.5 1146,-131.5 1146,-112.5 1098,-112.5"/>
<text text-anchor="middle" x="1122" y="-119.5" font-family="Helvetica,sans-Serif" font-size="10.00">mutex</text>
</a>
</g>
</g>
<!-- Node13&#45;&gt;Node21 -->
<g id="edge27" class="edge">
<title>Node13&#45;&gt;Node21</title>
<path fill="none" stroke="midnightblue" d="M926.24,-308.48C979.02,-300.11 1051.71,-285.49 1073,-266 1109.05,-233.01 1118.58,-172.35 1121.1,-141.73"/>
<polygon fill="midnightblue" stroke="midnightblue" points="1124.6,-141.79 1121.76,-131.59 1117.62,-141.34 1124.6,-141.79"/>
</g>
<!-- Node22 -->
<g id="node22" class="node">
<title>Node22</title>
<g id="a_node22"><a xlink:title=" ">
<polygon fill="white" stroke="#bfbfbf" points="881.5,-56.5 881.5,-75.5 974.5,-75.5 974.5,-56.5 881.5,-56.5"/>
<text text-anchor="middle" x="928" y="-63.5" font-family="Helvetica,sans-Serif" font-size="10.00">unordered_map</text>
</a>
</g>
</g>
<!-- Node13&#45;&gt;Node22 -->
<g id="edge28" class="edge">
<title>Node13&#45;&gt;Node22</title>
<path fill="none" stroke="midnightblue" d="M874.48,-302.16C878.78,-292.18 884.31,-278.48 888,-266 907.22,-201.05 920.13,-121.46 925.37,-85.82"/>
<polygon fill="midnightblue" stroke="midnightblue" points="928.84,-86.26 926.8,-75.87 921.91,-85.27 928.84,-86.26"/>
</g>
<!-- Node23 -->
<g id="node23" class="node">
<title>Node23</title>
<g id="a_node23"><a xlink:href="../../da/d3b/ObjectIterator_8h.html" target="_top" xlink:title=" ">
<polygon fill="white" stroke="black" points="972,-246.5 972,-265.5 1064,-265.5 1064,-246.5 972,-246.5"/>
<text text-anchor="middle" x="1018" y="-253.5" font-family="Helvetica,sans-Serif" font-size="10.00">ObjectIterator.h</text>
</a>
</g>
</g>
<!-- Node13&#45;&gt;Node23 -->
<g id="edge30" class="edge">
<title>Node13&#45;&gt;Node23</title>
<path fill="none" stroke="midnightblue" d="M903.55,-302.4C928.83,-292.37 962.47,-279.03 986.73,-269.4"/>
<polygon fill="midnightblue" stroke="midnightblue" points="988.17,-272.6 996.17,-265.66 985.59,-266.09 988.17,-272.6"/>
</g>
<!-- Node26 -->
<g id="node26" class="node">
<title>Node26</title>
<g id="a_node26"><a xlink:href="../../d5/de2/ViewCursor_8h.html" target="_top" xlink:title=" ">
<polygon fill="white" stroke="black" points="590,-179.5 590,-198.5 670,-198.5 670,-179.5 590,-179.5"/>
<text text-anchor="middle" x="630" y="-186.5" font-family="Helvetica,sans-Serif" font-size="10.00">ViewCursor.h</text>
</a>
</g>
</g>
<!-- Node13&#45;&gt;Node26 -->
<g id="edge43" class="edge">
<title>Node13&#45;&gt;Node26</title>
<path fill="none" stroke="midnightblue" d="M809.97,-312.95C744.34,-307.59 643.52,-294.8 620,-266 606.75,-249.78 613.57,-224.79 620.79,-207.94"/>
<polygon fill="midnightblue" stroke="midnightblue" points="624.07,-209.18 625.16,-198.65 617.73,-206.2 624.07,-209.18"/>
</g>
<!-- Node27 -->
<g id="node27" class="node">
<title>Node27</title>
<g id="a_node27"><a xlink:href="../../d0/d10/ViewStructure_8h.html" target="_top" xlink:title=" ">
<polygon fill="white" stroke="black" points="806,-112.5 806,-131.5 900,-131.5 900,-112.5 806,-112.5"/>
<text text-anchor="middle" x="853" y="-119.5" font-family="Helvetica,sans-Serif" font-size="10.00">ViewStructure.h</text>
</a>
</g>
</g>
<!-- Node13&#45;&gt;Node27 -->
<g id="edge44" class="edge">
<title>Node13&#45;&gt;Node27</title>
<path fill="none" stroke="midnightblue" d="M870.22,-302.41C873.99,-275.84 880.36,-216.62 871,-168 869.21,-158.7 865.52,-148.89 861.94,-140.8"/>
<polygon fill="midnightblue" stroke="midnightblue" points="865.06,-139.21 857.62,-131.66 858.73,-142.2 865.06,-139.21"/>
</g>
<!-- Node28 -->
<g id="node28" class="node">
<title>Node28</title>
<g id="a_node28"><a xlink:href="../../d8/dee/VirtualObject_8h.html" target="_top" xlink:title=" ">
<polygon fill="white" stroke="black" points="772.5,-179.5 772.5,-198.5 861.5,-198.5 861.5,-179.5 772.5,-179.5"/>
<text text-anchor="middle" x="817" y="-186.5" font-family="Helvetica,sans-Serif" font-size="10.00">VirtualObject.h</text>
</a>
</g>
</g>
<!-- Node13&#45;&gt;Node28 -->
<g id="edge45" class="edge">
<title>Node13&#45;&gt;Node28</title>
<path fill="none" stroke="midnightblue" d="M865.31,-302.37C862.29,-287.89 856.78,-264.87 849,-246 843.39,-232.39 835.1,-217.99 828.36,-207.2"/>
<polygon fill="midnightblue" stroke="midnightblue" points="831.29,-205.28 822.95,-198.76 825.4,-209.06 831.29,-205.28"/>
</g>
<!-- Node14&#45;&gt;Node11 -->
<g id="edge17" class="edge">
<title>Node14&#45;&gt;Node11</title>
<path fill="none" stroke="midnightblue" d="M1316.39,-246.45C1336.58,-240.02 1358.91,-228.93 1371,-210 1381.05,-194.27 1376.26,-185.91 1371,-168 1362.66,-139.61 1359.19,-129.04 1335,-112 1285.99,-77.47 1214.36,-69.07 1173.25,-67.25"/>
<polygon fill="midnightblue" stroke="midnightblue" points="1173.35,-63.75 1163.24,-66.91 1173.11,-70.75 1173.35,-63.75"/>
</g>
<!-- Node15 -->
<g id="node15" class="node">
<title>Node15</title>
<g id="a_node15"><a xlink:title=" ">
<polygon fill="white" stroke="#bfbfbf" points="1308,-179.5 1308,-198.5 1362,-198.5 1362,-179.5 1308,-179.5"/>
<text text-anchor="middle" x="1335" y="-186.5" font-family="Helvetica,sans-Serif" font-size="10.00">istream</text>
</a>
</g>
</g>
<!-- Node14&#45;&gt;Node15 -->
<g id="edge16" class="edge">
<title>Node14&#45;&gt;Node15</title>
<path fill="none" stroke="midnightblue" d="M1282.23,-246.23C1291.83,-236 1307.91,-218.86 1319.8,-206.19"/>
<polygon fill="midnightblue" stroke="midnightblue" points="1322.61,-208.31 1326.9,-198.63 1317.51,-203.52 1322.61,-208.31"/>
</g>
<!-- Node16&#45;&gt;Node2 -->
<g id="edge22" class="edge">
<title>Node16&#45;&gt;Node2</title>
<path fill="none" stroke="midnightblue" d="M539.76,-60.87C453.95,-53.97 279.83,-38.96 133,-20 132.89,-19.99 132.79,-19.97 132.68,-19.96"/>
<polygon fill="midnightblue" stroke="midnightblue" points="132.89,-16.45 122.5,-18.55 131.93,-23.39 132.89,-16.45"/>
</g>
<!-- Node16&#45;&gt;Node3 -->
<g id="edge24" class="edge">
<title>Node16&#45;&gt;Node3</title>
<path fill="none" stroke="midnightblue" d="M539.93,-57.92C474.2,-49.13 358.82,-33.63 260,-20 259.9,-19.99 259.79,-19.97 259.69,-19.96"/>
<polygon fill="midnightblue" stroke="midnightblue" points="260.16,-16.49 249.77,-18.58 259.2,-23.42 260.16,-16.49"/>
</g>
<!-- Node16&#45;&gt;Node6 -->
<g id="edge19" class="edge">
<title>Node16&#45;&gt;Node6</title>
<path fill="none" stroke="midnightblue" d="M619.46,-56.44C647.68,-47.32 692.54,-32.81 723.97,-22.65"/>
<polygon fill="midnightblue" stroke="midnightblue" points="725.22,-25.92 733.66,-19.52 723.07,-19.26 725.22,-25.92"/>
</g>
<!-- Node16&#45;&gt;Node7 -->
<g id="edge21" class="edge">
<title>Node16&#45;&gt;Node7</title>
<path fill="none" stroke="midnightblue" d="M551.33,-56.44C505.25,-46.98 431,-31.74 381.37,-21.55"/>
<polygon fill="midnightblue" stroke="midnightblue" points="381.98,-18.1 371.48,-19.52 380.57,-24.96 381.98,-18.1"/>
</g>
<!-- Node16&#45;&gt;Node17 -->
<g id="edge20" class="edge">
<title>Node16&#45;&gt;Node17</title>
<path fill="none" stroke="midnightblue" d="M573.51,-56.44C553.36,-47.6 521.68,-33.69 498.67,-23.59"/>
<polygon fill="midnightblue" stroke="midnightblue" points="499.96,-20.33 489.4,-19.52 497.15,-26.74 499.96,-20.33"/>
</g>
<!-- Node18 -->
<g id="node18" class="node">
<title>Node18</title>
<g id="a_node18"><a xlink:title=" ">
<polygon fill="white" stroke="#bfbfbf" points="549,-0.5 549,-19.5 699,-19.5 699,-0.5 549,-0.5"/>
<text text-anchor="middle" x="624" y="-7.5" font-family="Helvetica,sans-Serif" font-size="10.00">rapidjson/istreamwrapper.h</text>
</a>
</g>
</g>
<!-- Node16&#45;&gt;Node18 -->
<g id="edge23" class="edge">
<title>Node16&#45;&gt;Node18</title>
<path fill="none" stroke="midnightblue" d="M598.12,-56.08C602.41,-48.61 608.66,-37.72 613.94,-28.52"/>
<polygon fill="midnightblue" stroke="midnightblue" points="617.03,-30.17 618.98,-19.75 610.96,-26.68 617.03,-30.17"/>
</g>
<!-- Node23&#45;&gt;Node11 -->
<g id="edge32" class="edge">
<title>Node23&#45;&gt;Node11</title>
<path fill="none" stroke="midnightblue" d="M1024.76,-246.4C1031.48,-237.59 1041.78,-223.35 1049,-210 1071.36,-168.61 1061.57,-150.22 1089,-112 1097.37,-100.33 1109.36,-89.69 1119.72,-81.69"/>
<polygon fill="midnightblue" stroke="midnightblue" points="1121.96,-84.39 1127.92,-75.62 1117.8,-78.76 1121.96,-84.39"/>
</g>
<!-- Node23&#45;&gt;Node16 -->
<g id="edge31" class="edge">
<title>Node23&#45;&gt;Node16</title>
<path fill="none" stroke="midnightblue" d="M971.83,-253.92C919.23,-251.11 831.8,-241.58 764,-210 696.34,-178.48 633.57,-113.29 606.73,-83.05"/>
<polygon fill="midnightblue" stroke="midnightblue" points="609.35,-80.73 600.13,-75.51 604.08,-85.34 609.35,-80.73"/>
</g>
<!-- Node24 -->
<g id="node24" class="node">
<title>Node24</title>
<g id="a_node24"><a xlink:title=" ">
<polygon fill="white" stroke="#bfbfbf" points="994.5,-179.5 994.5,-198.5 1039.5,-198.5 1039.5,-179.5 994.5,-179.5"/>
<text text-anchor="middle" x="1017" y="-186.5" font-family="Helvetica,sans-Serif" font-size="10.00">utility</text>
</a>
</g>
</g>
<!-- Node23&#45;&gt;Node24 -->
<g id="edge33" class="edge">
<title>Node23&#45;&gt;Node24</title>
<path fill="none" stroke="midnightblue" d="M1017.87,-246.23C1017.72,-236.68 1017.48,-221.12 1017.29,-208.78"/>
<polygon fill="midnightblue" stroke="midnightblue" points="1020.79,-208.57 1017.13,-198.63 1013.79,-208.68 1020.79,-208.57"/>
</g>
<!-- Node25 -->
<g id="node25" class="node">
<title>Node25</title>
<g id="a_node25"><a xlink:title=" ">
<polygon fill="white" stroke="#bfbfbf" points="994.5,-112.5 994.5,-131.5 1041.5,-131.5 1041.5,-112.5 994.5,-112.5"/>
<text text-anchor="middle" x="1018" y="-119.5" font-family="Helvetica,sans-Serif" font-size="10.00">vector</text>
</a>
</g>
</g>
<!-- Node23&#45;&gt;Node25 -->
<g id="edge34" class="edge">
<title>Node23&#45;&gt;Node25</title>
<path fill="none" stroke="midnightblue" d="M1009.25,-246.29C1001.44,-237.84 990.55,-224.25 986,-210 980.32,-192.22 980.32,-185.78 986,-168 989.34,-157.54 996.1,-147.43 1002.55,-139.45"/>
<polygon fill="midnightblue" stroke="midnightblue" points="1005.35,-141.56 1009.25,-131.71 1000.06,-136.98 1005.35,-141.56"/>
</g>
<!-- Node23&#45;&gt;Node26 -->
<g id="edge35" class="edge">
<title>Node23&#45;&gt;Node26</title>
<path fill="none" stroke="midnightblue" d="M971.74,-252.01C906.71,-247.07 784.91,-235.16 684,-210 675.88,-207.98 667.3,-205.14 659.43,-202.24"/>
<polygon fill="midnightblue" stroke="midnightblue" points="660.51,-198.9 649.93,-198.58 658,-205.44 660.51,-198.9"/>
</g>
<!-- Node26&#45;&gt;Node10 -->
<g id="edge37" class="edge">
<title>Node26&#45;&gt;Node10</title>
<path fill="none" stroke="midnightblue" d="M601.72,-179.37C563.89,-167.83 496.75,-147.34 454.67,-134.5"/>
<polygon fill="midnightblue" stroke="midnightblue" points="455.65,-131.13 445.06,-131.56 453.61,-137.83 455.65,-131.13"/>
</g>
<!-- Node26&#45;&gt;Node16 -->
<g id="edge36" class="edge">
<title>Node26&#45;&gt;Node16</title>
<path fill="none" stroke="midnightblue" d="M627.34,-179.3C621.34,-159.68 606.65,-111.64 598.56,-85.19"/>
<polygon fill="midnightblue" stroke="midnightblue" points="601.91,-84.16 595.64,-75.62 595.21,-86.21 601.91,-84.16"/>
</g>
<!-- Node26&#45;&gt;Node25 -->
<g id="edge38" class="edge">
<title>Node26&#45;&gt;Node25</title>
<path fill="none" stroke="midnightblue" d="M670.06,-181.29C746.67,-168.45 912.68,-140.64 984.15,-128.67"/>
<polygon fill="midnightblue" stroke="midnightblue" points="985.1,-132.06 994.39,-126.96 983.94,-125.16 985.1,-132.06"/>
</g>
<!-- Node26&#45;&gt;Node27 -->
<g id="edge39" class="edge">
<title>Node26&#45;&gt;Node27</title>
<path fill="none" stroke="midnightblue" d="M659.61,-179.37C699.29,-167.8 769.81,-147.25 813.84,-134.41"/>
<polygon fill="midnightblue" stroke="midnightblue" points="815,-137.72 823.62,-131.56 813.04,-131 815,-137.72"/>
</g>
<!-- Node27&#45;&gt;Node11 -->
<g id="edge41" class="edge">
<title>Node27&#45;&gt;Node11</title>
<path fill="none" stroke="midnightblue" d="M898.63,-112.44C957.4,-101.43 1058.02,-82.56 1109.15,-72.97"/>
<polygon fill="midnightblue" stroke="midnightblue" points="1109.8,-76.41 1118.99,-71.13 1108.51,-69.53 1109.8,-76.41"/>
</g>
<!-- Node27&#45;&gt;Node16 -->
<g id="edge40" class="edge">
<title>Node27&#45;&gt;Node16</title>
<path fill="none" stroke="midnightblue" d="M811.8,-112.44C766.35,-103 693.16,-87.8 644.09,-77.61"/>
<polygon fill="midnightblue" stroke="midnightblue" points="644.51,-74.12 634.01,-75.52 643.08,-80.98 644.51,-74.12"/>
</g>
<!-- Node27&#45;&gt;Node22 -->
<g id="edge42" class="edge">
<title>Node27&#45;&gt;Node22</title>
<path fill="none" stroke="midnightblue" d="M865.05,-112.32C876.46,-104.11 893.83,-91.6 907.43,-81.81"/>
<polygon fill="midnightblue" stroke="midnightblue" points="909.66,-84.52 915.73,-75.83 905.57,-78.84 909.66,-84.52"/>
</g>
<!-- Node28&#45;&gt;Node6 -->
<g id="edge46" class="edge">
<title>Node28&#45;&gt;Node6</title>
<path fill="none" stroke="midnightblue" d="M813.76,-179.31C809.69,-168.34 802.58,-148.86 797,-132 785.01,-95.82 772.28,-53.09 765.31,-29.32"/>
<polygon fill="midnightblue" stroke="midnightblue" points="768.63,-28.17 762.47,-19.55 761.91,-30.13 768.63,-28.17"/>
</g>
<!-- Node28&#45;&gt;Node11 -->
<g id="edge48" class="edge">
<title>Node28&#45;&gt;Node11</title>
<path fill="none" stroke="midnightblue" d="M833.94,-179.42C864.02,-164.41 928.94,-133 986,-112 1027.7,-96.66 1077.21,-83.05 1108.86,-74.92"/>
<polygon fill="midnightblue" stroke="midnightblue" points="1110.04,-78.24 1118.87,-72.38 1108.31,-71.45 1110.04,-78.24"/>
</g>
<!-- Node28&#45;&gt;Node16 -->
<g id="edge47" class="edge">
<title>Node28&#45;&gt;Node16</title>
<path fill="none" stroke="midnightblue" d="M801.61,-179.5C776.01,-165.38 723.05,-136.24 678,-112 658.09,-101.29 635.46,-89.31 618.56,-80.41"/>
<polygon fill="midnightblue" stroke="midnightblue" points="619.81,-77.12 609.33,-75.56 616.55,-83.31 619.81,-77.12"/>
</g>
<!-- Node28&#45;&gt;Node27 -->
<g id="edge49" class="edge">
<title>Node28&#45;&gt;Node27</title>
<path fill="none" stroke="midnightblue" d="M821.86,-179.23C827.31,-169.39 836.3,-153.16 843.22,-140.66"/>
<polygon fill="midnightblue" stroke="midnightblue" points="846.44,-142.07 848.22,-131.63 840.31,-138.68 846.44,-142.07"/>
</g>
<!-- Node30&#45;&gt;Node11 -->
<g id="edge56" class="edge">
<title>Node30&#45;&gt;Node11</title>
<path fill="none" stroke="midnightblue" d="M1208.63,-168.44C1205.23,-152.38 1198.89,-129.51 1188,-112 1180.89,-100.57 1170.22,-90.04 1160.85,-82.04"/>
<polygon fill="midnightblue" stroke="midnightblue" points="1163.03,-79.3 1153.06,-75.7 1158.61,-84.73 1163.03,-79.3"/>
</g>
<!-- Node30&#45;&gt;Node21 -->
<g id="edge55" class="edge">
<title>Node30&#45;&gt;Node21</title>
<path fill="none" stroke="midnightblue" d="M1185,-168.5C1171.33,-158.63 1155.01,-146.84 1142.41,-137.74"/>
<polygon fill="midnightblue" stroke="midnightblue" points="1144.14,-134.67 1133.98,-131.65 1140.04,-140.34 1144.14,-134.67"/>
</g>
<!-- Node30&#45;&gt;Node22 -->
<g id="edge57" class="edge">
<title>Node30&#45;&gt;Node22</title>
<path fill="none" stroke="midnightblue" d="M1202.49,-168.2C1192.97,-150.6 1176.64,-125.61 1155,-112 1103.41,-79.55 1033.24,-69.75 984.64,-67.16"/>
<polygon fill="midnightblue" stroke="midnightblue" points="984.75,-63.66 974.61,-66.71 984.44,-70.66 984.75,-63.66"/>
</g>
<!-- Node30&#45;&gt;Node25 -->
<g id="edge59" class="edge">
<title>Node30&#45;&gt;Node25</title>
<path fill="none" stroke="midnightblue" d="M1153.79,-168.5C1120.39,-157.31 1079.65,-143.66 1051.55,-134.24"/>
<polygon fill="midnightblue" stroke="midnightblue" points="1052.41,-130.84 1041.81,-130.98 1050.18,-137.47 1052.41,-130.84"/>
</g>
<!-- Node31 -->
<g id="node31" class="node">
<title>Node31</title>
<g id="a_node31"><a xlink:title=" ">
<polygon fill="white" stroke="#bfbfbf" points="1240,-112.5 1240,-131.5 1326,-131.5 1326,-112.5 1240,-112.5"/>
<text text-anchor="middle" x="1283" y="-119.5" font-family="Helvetica,sans-Serif" font-size="10.00">unordered_set</text>
</a>
</g>
</g>
<!-- Node30&#45;&gt;Node31 -->
<g id="edge58" class="edge">
<title>Node30&#45;&gt;Node31</title>
<path fill="none" stroke="midnightblue" d="M1233.3,-168.5C1243.77,-158.92 1256.21,-147.53 1266.02,-138.54"/>
<polygon fill="midnightblue" stroke="midnightblue" points="1268.54,-140.99 1273.55,-131.65 1263.81,-135.82 1268.54,-140.99"/>
</g>
<!-- Node32&#45;&gt;Node6 -->
<g id="edge61" class="edge">
<title>Node32&#45;&gt;Node6</title>
<path fill="none" stroke="midnightblue" d="M344.27,-180.09C373.8,-171.27 419.92,-155.13 455,-132 494.88,-105.7 488.85,-78.47 531,-56 538.76,-51.86 641.43,-32.62 706.63,-20.68"/>
<polygon fill="midnightblue" stroke="midnightblue" points="707.54,-24.07 716.75,-18.83 706.29,-17.18 707.54,-24.07"/>
</g>
<!-- Node32&#45;&gt;Node10 -->
<g id="edge63" class="edge">
<title>Node32&#45;&gt;Node10</title>
<path fill="none" stroke="midnightblue" d="M328.76,-179.23C345.73,-168.42 374.81,-149.88 394.93,-137.07"/>
<polygon fill="midnightblue" stroke="midnightblue" points="396.91,-139.95 403.46,-131.63 393.15,-134.05 396.91,-139.95"/>
</g>
<!-- Node32&#45;&gt;Node16 -->
<g id="edge64" class="edge">
<title>Node32&#45;&gt;Node16</title>
<path fill="none" stroke="midnightblue" d="M319.67,-179.31C328.79,-163.25 350.58,-129 379,-112 424.79,-84.61 484.81,-73.73 529.63,-69.49"/>
<polygon fill="midnightblue" stroke="midnightblue" points="530.15,-72.96 539.81,-68.61 529.55,-65.98 530.15,-72.96"/>
</g>
<!-- Node33 -->
<g id="node33" class="node">
<title>Node33</title>
<g id="a_node33"><a xlink:title=" ">
<polygon fill="white" stroke="#bfbfbf" points="218,-112.5 218,-131.5 332,-131.5 332,-112.5 218,-112.5"/>
<text text-anchor="middle" x="275" y="-119.5" font-family="Helvetica,sans-Serif" font-size="10.00">boost/operators.hpp</text>
</a>
</g>
</g>
<!-- Node32&#45;&gt;Node33 -->
<g id="edge62" class="edge">
<title>Node32&#45;&gt;Node33</title>
<path fill="none" stroke="midnightblue" d="M309.61,-179.23C303.49,-169.29 293.36,-152.84 285.64,-140.29"/>
<polygon fill="midnightblue" stroke="midnightblue" points="288.53,-138.31 280.31,-131.63 282.57,-141.98 288.53,-138.31"/>
</g>
</g>
</svg>
        <g id="navigator" transform="translate(0 0)" fill="#404254">
                <rect fill="#f2f5e9" fill-opacity="0.5" stroke="#606060" stroke-width=".5" x="0" y="0" width="60" height="60"/>
                <use id="zoomplus" xlink:href="#zoomPlus" x="17" y="9" onmousedown="handleZoom(evt,'in')"/>
                <use id="zoomminus" xlink:href="#zoomMin" x="42" y="9" onmousedown="handleZoom(evt,'out')"/>
                <use id="reset" xlink:href="#resetDef" x="30" y="36" onmousedown="handleReset()"/>
                <g id="arrowUp" xlink:href="#dirArrow" transform="translate(30 24)" onmousedown="handlePan(0,-1)">
                  <use xlink:href="#rim" fill="#404040">
                        <set attributeName="fill" to="#808080" begin="arrowUp.mouseover" end="arrowUp.mouseout"/>
                  </use>
                  <path fill="none" stroke="white" stroke-width="1.5" d="M0,-3.0v7 M-2.5,-0.5L0,-3.0L2.5,-0.5"/>
                </g>
                <g id="arrowRight" xlink:href="#dirArrow" transform="rotate(90) translate(36 -43)" onmousedown="handlePan(1,0)">
                  <use xlink:href="#rim" fill="#404040">
                        <set attributeName="fill" to="#808080" begin="arrowRight.mouseover" end="arrowRight.mouseout"/>
                  </use>
                  <path fill="none" stroke="white" stroke-width="1.5" d="M0,-3.0v7 M-2.5,-0.5L0,-3.0L2.5,-0.5"/>
                </g>
                <g id="arrowDown" xlink:href="#dirArrow" transform="rotate(180) translate(-30 -48)" onmousedown="handlePan(0,1)">
                  <use xlink:href="#rim" fill="#404040">
                        <set attributeName="fill" to="#808080" begin="arrowDown.mouseover" end="arrowDown.mouseout"/>
                  </use>
                  <path fill="none" stroke="white" stroke-width="1.5" d="M0,-3.0v7 M-2.5,-0.5L0,-3.0L2.5,-0.5"/>
                </g>
                <g id="arrowLeft" xlink:href="#dirArrow" transform="rotate(270) translate(-36 17)" onmousedown="handlePan(-1,0)">
                  <use xlink:href="#rim" fill="#404040">
                        <set attributeName="fill" to="#808080" begin="arrowLeft.mouseover" end="arrowLeft.mouseout"/>
                  </use>
                  <path fill="none" stroke="white" stroke-width="1.5" d="M0,-3.0v7 M-2.5,-0.5L0,-3.0L2.5,-0.5"/>
                </g>
        </g>
        <svg viewBox="0 0 15 15" width="100%" height="30px" preserveAspectRatio="xMaxYMin meet">
         <g id="arrow_out" transform="scale(0.3 0.3)">
          <a xlink:href="PointerProvider_8h__incl_org.svg" target="_base">
           <rect id="button" ry="5" rx="5" y="6" x="6" height="38" width="38"
                fill="#f2f5e9" fill-opacity="0.5" stroke="#606060" stroke-width="1.0"/>
           <path id="arrow"
             d="M 11.500037,31.436501 C 11.940474,20.09759 22.043105,11.32322 32.158766,21.979434 L 37.068811,17.246167 C 37.068811,17.246167 37.088388,32 37.088388,32 L 22.160133,31.978069 C 22.160133,31.978069 26.997745,27.140456 26.997745,27.140456 C 18.528582,18.264221 13.291696,25.230495 11.500037,31.436501 z"
             style="fill:#404040;"/>
          </a>
         </g>
        </svg>
</svg>
