<?xml version="1.0" encoding="UTF-8" standalone="no"?>
<!DOCTYPE svg PUBLIC "-//W3C//DTD SVG 1.1//EN"
 "http://www.w3.org/Graphics/SVG/1.1/DTD/svg11.dtd">
<!-- Generated by graphviz version 2.43.0 (0)
 -->
<!-- Title: /home/nico/joda_tmp/tmp&#45;joda&#45;dirs/JODA&#45;gh/libs/joda/core/modules/query/values/include/joda/query/values/PointerProvider.h Pages: 1 -->
<!--zoomable 553 -->
<svg id="main" version="1.1" xmlns="http://www.w3.org/2000/svg" xmlns:xlink="http://www.w3.org/1999/xlink" xml:space="preserve" onload="init(evt)">
<style type="text/css"><![CDATA[
.edge:hover path { stroke: red; }
.edge:hover polygon { stroke: red; fill: red; }
]]></style>
<script type="text/javascript"><![CDATA[
var edges = document.getElementsByTagName('g');
if (edges && edges.length) {
  for (var i=0;i<edges.length;i++) {
    if (edges[i].id.substr(0,4)=='edge') {
      edges[i].setAttribute('class','edge');
    }
  }
}
]]></script>
        <defs>
                <circle id="rim" cx="0" cy="0" r="7"/>
                <circle id="rim2" cx="0" cy="0" r="3.5"/>
                <g id="zoomPlus">
                        <use xlink:href="#rim" fill="#404040">
                                <set attributeName="fill" to="#808080" begin="zoomplus.mouseover" end="zoomplus.mouseout"/>
                        </use>
                        <path d="M-4,0h8M0,-4v8" fill="none" stroke="white" stroke-width="1.5" pointer-events="none"/>
                </g>
                <g id="zoomMin">
                        <use xlink:href="#rim" fill="#404040">
                                <set attributeName="fill" to="#808080" begin="zoomminus.mouseover" end="zoomminus.mouseout"/>
                        </use>
                        <path d="M-4,0h8" fill="none" stroke="white" stroke-width="1.5" pointer-events="none"/>
                </g>
                <g id="dirArrow">
                        <path fill="none" stroke="white" stroke-width="1.5" d="M0,-3.0v7 M-2.5,-0.5L0,-3.0L2.5,-0.5"/>
                </g>
               <g id="resetDef">
                       <use xlink:href="#rim2" fill="#404040">
                               <set attributeName="fill" to="#808080" begin="reset.mouseover" end="reset.mouseout"/>
                       </use>
               </g>
        </defs>

<script type="text/javascript">
var viewWidth = 1623;
var viewHeight = 553;
var sectionId = 'dynsection-0';
</script>
<script xlink:href="../../svgpan.js"/>
<svg id="graph" class="graph">
<g id="viewport">
<title>/home/nico/joda_tmp/tmp&#45;joda&#45;dirs/JODA&#45;gh/libs/joda/core/modules/query/values/include/joda/query/values/PointerProvider.h</title>
<polygon fill="white" stroke="transparent" points="-4,4 -4,-549 1618.5,-549 1618.5,4 -4,4"/>
<!-- Node1 -->
<g id="node1" class="node">
<title>Node1</title>
<g id="a_node1"><a xlink:title=" ">
<polygon fill="#bfbfbf" stroke="black" points="907.5,-481.5 907.5,-544.5 1076.5,-544.5 1076.5,-481.5 907.5,-481.5"/>
<text text-anchor="start" x="915.5" y="-532.5" font-family="Helvetica,sans-Serif" font-size="10.00">/home/nico/joda_tmp</text>
<text text-anchor="start" x="915.5" y="-521.5" font-family="Helvetica,sans-Serif" font-size="10.00">/tmp&#45;joda&#45;dirs/JODA</text>
<text text-anchor="start" x="915.5" y="-510.5" font-family="Helvetica,sans-Serif" font-size="10.00">&#45;gh/libs/joda/core/modules</text>
<text text-anchor="start" x="915.5" y="-499.5" font-family="Helvetica,sans-Serif" font-size="10.00">/query/values/include/joda</text>
<text text-anchor="middle" x="992" y="-488.5" font-family="Helvetica,sans-Serif" font-size="10.00">/query/values/PointerProvider.h</text>
</a>
</g>
</g>
<!-- Node2 -->
<g id="node2" class="node">
<title>Node2</title>
<g id="a_node2"><a xlink:title=" ">
<polygon fill="white" stroke="#bfbfbf" points="11.5,-0.5 11.5,-19.5 102.5,-19.5 102.5,-0.5 11.5,-0.5"/>
<text text-anchor="middle" x="57" y="-7.5" font-family="Helvetica,sans-Serif" font-size="10.00">rapidjson/fwd.h</text>
</a>
</g>
</g>
<!-- Node1&#45;&gt;Node2 -->
<g id="edge1" class="edge">
<title>Node1&#45;&gt;Node2</title>
<path fill="none" stroke="midnightblue" d="M907.42,-509.58C667.53,-501.6 0,-471.21 0,-380 0,-380 0,-380 0,-121 0,-84.3 25.32,-47.66 42.21,-27.3"/>
<polygon fill="midnightblue" stroke="midnightblue" points="44.95,-29.48 48.83,-19.62 39.65,-24.9 44.95,-29.48"/>
</g>
<!-- Node3 -->
<g id="node3" class="node">
<title>Node3</title>
<g id="a_node3"><a xlink:title=" ">
<polygon fill="white" stroke="#bfbfbf" points="1507.5,-0.5 1507.5,-19.5 1614.5,-19.5 1614.5,-0.5 1507.5,-0.5"/>
<text text-anchor="middle" x="1561" y="-7.5" font-family="Helvetica,sans-Serif" font-size="10.00">rapidjson/pointer.h</text>
</a>
</g>
</g>
<!-- Node1&#45;&gt;Node3 -->
<g id="edge2" class="edge">
<title>Node1&#45;&gt;Node3</title>
<path fill="none" stroke="midnightblue" d="M1076.73,-511.27C1245.17,-507.52 1606,-486.99 1606,-380 1606,-380 1606,-380 1606,-121 1606,-85.93 1586.16,-48.94 1572.83,-28.04"/>
<polygon fill="midnightblue" stroke="midnightblue" points="1575.7,-26.03 1567.26,-19.63 1569.87,-29.9 1575.7,-26.03"/>
</g>
<!-- Node4 -->
<g id="node4" class="node">
<title>Node4</title>
<g id="a_node4"><a xlink:title=" ">
<polygon fill="white" stroke="#bfbfbf" points="241.5,-246.5 241.5,-265.5 292.5,-265.5 292.5,-246.5 241.5,-246.5"/>
<text text-anchor="middle" x="267" y="-253.5" font-family="Helvetica,sans-Serif" font-size="10.00">variant</text>
</a>
</g>
</g>
<!-- Node1&#45;&gt;Node4 -->
<g id="edge3" class="edge">
<title>Node1&#45;&gt;Node4</title>
<path fill="none" stroke="midnightblue" d="M907.41,-482.25C748.02,-426.19 409.45,-307.1 301.11,-269"/>
<polygon fill="midnightblue" stroke="midnightblue" points="301.95,-265.58 291.35,-265.57 299.63,-272.19 301.95,-265.58"/>
</g>
<!-- Node5 -->
<g id="node5" class="node">
<title>Node5</title>
<g id="a_node5"><a xlink:href="../../dd/d50/IValueProvider_8h.html" target="_top" xlink:title=" ">
<polygon fill="white" stroke="black" points="1235.5,-425.5 1235.5,-444.5 1330.5,-444.5 1330.5,-425.5 1235.5,-425.5"/>
<text text-anchor="middle" x="1283" y="-432.5" font-family="Helvetica,sans-Serif" font-size="10.00">IValueProvider.h</text>
</a>
</g>
</g>
<!-- Node1&#45;&gt;Node5 -->
<g id="edge4" class="edge">
<title>Node1&#45;&gt;Node5</title>
<path fill="none" stroke="midnightblue" d="M1076.56,-489.92C1130.31,-475.88 1197.61,-458.3 1240.46,-447.11"/>
<polygon fill="midnightblue" stroke="midnightblue" points="1241.49,-450.46 1250.28,-444.55 1239.72,-443.69 1241.49,-450.46"/>
</g>
<!-- Node5&#45;&gt;Node2 -->
<g id="edge7" class="edge">
<title>Node5&#45;&gt;Node2</title>
<path fill="none" stroke="midnightblue" d="M1235.42,-433.13C1038.55,-429.38 293.32,-413.66 191,-389 118.21,-371.46 38,-393.37 38,-318.5 38,-318.5 38,-318.5 38,-121 38,-88.49 46.16,-51.35 51.78,-29.61"/>
<polygon fill="midnightblue" stroke="midnightblue" points="55.22,-30.32 54.44,-19.75 48.46,-28.5 55.22,-30.32"/>
</g>
<!-- Node6 -->
<g id="node6" class="node">
<title>Node6</title>
<g id="a_node6"><a xlink:title=" ">
<polygon fill="white" stroke="#bfbfbf" points="1149,-0.5 1149,-19.5 1235,-19.5 1235,-0.5 1149,-0.5"/>
<text text-anchor="middle" x="1192" y="-7.5" font-family="Helvetica,sans-Serif" font-size="10.00">glog/logging.h</text>
</a>
</g>
</g>
<!-- Node5&#45;&gt;Node6 -->
<g id="edge5" class="edge">
<title>Node5&#45;&gt;Node6</title>
<path fill="none" stroke="midnightblue" d="M1289.71,-425.4C1323.87,-381.17 1475.86,-178.8 1450,-112 1437.85,-80.61 1428.16,-72.82 1399,-56 1373.31,-41.19 1297.86,-27.18 1245.52,-18.84"/>
<polygon fill="midnightblue" stroke="midnightblue" points="1245.81,-15.34 1235.39,-17.25 1244.72,-22.26 1245.81,-15.34"/>
</g>
<!-- Node7 -->
<g id="node7" class="node">
<title>Node7</title>
<g id="a_node7"><a xlink:title=" ">
<polygon fill="white" stroke="#bfbfbf" points="1299,-0.5 1299,-19.5 1421,-19.5 1421,-0.5 1299,-0.5"/>
<text text-anchor="middle" x="1360" y="-7.5" font-family="Helvetica,sans-Serif" font-size="10.00">rapidjson/document.h</text>
</a>
</g>
</g>
<!-- Node5&#45;&gt;Node7 -->
<g id="edge6" class="edge">
<title>Node5&#45;&gt;Node7</title>
<path fill="none" stroke="midnightblue" d="M1330.6,-431.98C1398.31,-428.14 1517.72,-417.43 1549,-389 1573.02,-367.18 1568,-350.95 1568,-318.5 1568,-318.5 1568,-318.5 1568,-121 1568,-57.44 1491.17,-30.51 1430.9,-19.16"/>
<polygon fill="midnightblue" stroke="midnightblue" points="1431.46,-15.7 1421,-17.41 1430.24,-22.6 1431.46,-15.7"/>
</g>
<!-- Node8 -->
<g id="node8" class="node">
<title>Node8</title>
<g id="a_node8"><a xlink:title=" ">
<polygon fill="white" stroke="#bfbfbf" points="1349.5,-369.5 1349.5,-388.5 1396.5,-388.5 1396.5,-369.5 1349.5,-369.5"/>
<text text-anchor="middle" x="1373" y="-376.5" font-family="Helvetica,sans-Serif" font-size="10.00">cmath</text>
</a>
</g>
</g>
<!-- Node5&#45;&gt;Node8 -->
<g id="edge8" class="edge">
<title>Node5&#45;&gt;Node8</title>
<path fill="none" stroke="midnightblue" d="M1297.46,-425.32C1311.5,-416.9 1333.05,-403.97 1349.54,-394.07"/>
<polygon fill="midnightblue" stroke="midnightblue" points="1351.8,-396.8 1358.58,-388.65 1348.2,-390.8 1351.8,-396.8"/>
</g>
<!-- Node9 -->
<g id="node9" class="node">
<title>Node9</title>
<g id="a_node9"><a xlink:title=" ">
<polygon fill="white" stroke="#bfbfbf" points="1414.5,-369.5 1414.5,-388.5 1539.5,-388.5 1539.5,-369.5 1414.5,-369.5"/>
<text text-anchor="middle" x="1477" y="-376.5" font-family="Helvetica,sans-Serif" font-size="10.00">experimental/optional</text>
</a>
</g>
</g>
<!-- Node5&#45;&gt;Node9 -->
<g id="edge9" class="edge">
<title>Node5&#45;&gt;Node9</title>
<path fill="none" stroke="midnightblue" d="M1313.74,-425.44C1346.94,-416.2 1399.99,-401.44 1436.56,-391.26"/>
<polygon fill="midnightblue" stroke="midnightblue" points="1437.71,-394.57 1446.4,-388.52 1435.83,-387.83 1437.71,-394.57"/>
</g>
<!-- Node10 -->
<g id="node10" class="node">
<title>Node10</title>
<g id="a_node10"><a xlink:title=" ">
<polygon fill="white" stroke="#bfbfbf" points="1197,-112.5 1197,-131.5 1255,-131.5 1255,-112.5 1197,-112.5"/>
<text text-anchor="middle" x="1226" y="-119.5" font-family="Helvetica,sans-Serif" font-size="10.00">memory</text>
</a>
</g>
</g>
<!-- Node5&#45;&gt;Node10 -->
<g id="edge10" class="edge">
<title>Node5&#45;&gt;Node10</title>
<path fill="none" stroke="midnightblue" d="M1281.42,-425.36C1273.75,-383.51 1240.39,-201.52 1229.47,-141.95"/>
<polygon fill="midnightblue" stroke="midnightblue" points="1232.85,-140.95 1227.6,-131.75 1225.96,-142.22 1232.85,-140.95"/>
</g>
<!-- Node11 -->
<g id="node11" class="node">
<title>Node11</title>
<g id="a_node11"><a xlink:title=" ">
<polygon fill="white" stroke="#bfbfbf" points="414,-56.5 414,-75.5 458,-75.5 458,-56.5 414,-56.5"/>
<text text-anchor="middle" x="436" y="-63.5" font-family="Helvetica,sans-Serif" font-size="10.00">string</text>
</a>
</g>
</g>
<!-- Node5&#45;&gt;Node11 -->
<g id="edge11" class="edge">
<title>Node5&#45;&gt;Node11</title>
<path fill="none" stroke="midnightblue" d="M1235.36,-434.38C1016.02,-435.5 114,-433.15 114,-318.5 114,-318.5 114,-318.5 114,-188 114,-153.18 107.21,-135.39 133,-112 172.17,-76.48 333.32,-68.99 403.31,-67.42"/>
<polygon fill="midnightblue" stroke="midnightblue" points="403.8,-70.91 413.73,-67.21 403.66,-63.91 403.8,-70.91"/>
</g>
<!-- Node12 -->
<g id="node12" class="node">
<title>Node12</title>
<g id="a_node12"><a xlink:href="../../d1/dfd/RapidJsonDocument_8h.html" target="_top" xlink:title=" ">
<polygon fill="white" stroke="black" points="1016,-369.5 1016,-388.5 1216,-388.5 1216,-369.5 1016,-369.5"/>
<text text-anchor="middle" x="1116" y="-376.5" font-family="Helvetica,sans-Serif" font-size="10.00">joda/document/RapidJsonDocument.h</text>
</a>
</g>
</g>
<!-- Node5&#45;&gt;Node12 -->
<g id="edge12" class="edge">
<title>Node5&#45;&gt;Node12</title>
<path fill="none" stroke="midnightblue" d="M1256.54,-425.44C1228.32,-416.32 1183.46,-401.81 1152.03,-391.65"/>
<polygon fill="midnightblue" stroke="midnightblue" points="1152.93,-388.26 1142.34,-388.52 1150.78,-394.92 1152.93,-388.26"/>
</g>
<!-- Node12&#45;&gt;Node2 -->
<g id="edge52" class="edge">
<title>Node12&#45;&gt;Node2</title>
<path fill="none" stroke="midnightblue" d="M1015.71,-377.24C837.05,-375.03 470.92,-366.44 348,-333 241.77,-304.1 201.69,-296.03 133,-210 88.04,-153.69 67.49,-67.82 60.24,-30"/>
<polygon fill="midnightblue" stroke="midnightblue" points="63.64,-29.11 58.41,-19.9 56.75,-30.36 63.64,-29.11"/>
</g>
<!-- Node12&#45;&gt;Node10 -->
<g id="edge54" class="edge">
<title>Node12&#45;&gt;Node10</title>
<path fill="none" stroke="midnightblue" d="M1136.48,-369.47C1151.69,-362.07 1171.68,-349.88 1183,-333 1223.66,-272.36 1227.25,-181.34 1226.71,-142.11"/>
<polygon fill="midnightblue" stroke="midnightblue" points="1230.21,-141.8 1226.46,-131.89 1223.21,-141.97 1230.21,-141.8"/>
</g>
<!-- Node13 -->
<g id="node13" class="node">
<title>Node13</title>
<g id="a_node13"><a xlink:href="../../d2/d0d/ViewLayer_8h.html" target="_top" xlink:title=" ">
<polygon fill="white" stroke="black" points="730,-302.5 730,-332.5 846,-332.5 846,-302.5 730,-302.5"/>
<text text-anchor="start" x="738" y="-320.5" font-family="Helvetica,sans-Serif" font-size="10.00">joda/document/view</text>
<text text-anchor="middle" x="788" y="-309.5" font-family="Helvetica,sans-Serif" font-size="10.00">/ViewLayer.h</text>
</a>
</g>
</g>
<!-- Node12&#45;&gt;Node13 -->
<g id="edge13" class="edge">
<title>Node12&#45;&gt;Node13</title>
<path fill="none" stroke="midnightblue" d="M1069.01,-369.48C1013.27,-359.36 919.9,-342.43 856.21,-330.87"/>
<polygon fill="midnightblue" stroke="midnightblue" points="856.72,-327.41 846.25,-329.07 855.47,-334.3 856.72,-327.41"/>
</g>
<!-- Node16 -->
<g id="node16" class="node">
<title>Node16</title>
<g id="a_node16"><a xlink:href="../../d6/d09/RJFwd_8h.html" target="_top" xlink:title=" ">
<polygon fill="white" stroke="black" points="959,-56.5 959,-75.5 1065,-75.5 1065,-56.5 959,-56.5"/>
<text text-anchor="middle" x="1012" y="-63.5" font-family="Helvetica,sans-Serif" font-size="10.00">joda/misc/RJFwd.h</text>
</a>
</g>
</g>
<!-- Node12&#45;&gt;Node16 -->
<g id="edge66" class="edge">
<title>Node12&#45;&gt;Node16</title>
<path fill="none" stroke="midnightblue" d="M1125.29,-369.39C1133.58,-361.02 1145.14,-347.48 1150,-333 1154.38,-319.94 1153.44,-315.34 1150,-302 1126.58,-211.2 1056.7,-120.13 1026.34,-83.64"/>
<polygon fill="midnightblue" stroke="midnightblue" points="1028.66,-80.95 1019.53,-75.57 1023.31,-85.47 1028.66,-80.95"/>
</g>
<!-- Node17 -->
<g id="node17" class="node">
<title>Node17</title>
<g id="a_node17"><a xlink:title=" ">
<polygon fill="white" stroke="#bfbfbf" points="1009,-0.5 1009,-19.5 1131,-19.5 1131,-0.5 1009,-0.5"/>
<text text-anchor="middle" x="1070" y="-7.5" font-family="Helvetica,sans-Serif" font-size="10.00">rapidjson/allocators.h</text>
</a>
</g>
</g>
<!-- Node12&#45;&gt;Node17 -->
<g id="edge51" class="edge">
<title>Node12&#45;&gt;Node17</title>
<path fill="none" stroke="midnightblue" d="M1106.81,-369.36C1098.58,-360.97 1087.06,-347.41 1082,-333 1041.16,-216.8 1081.23,-178.95 1074,-56 1073.49,-47.38 1072.68,-37.85 1071.92,-29.79"/>
<polygon fill="midnightblue" stroke="midnightblue" points="1075.38,-29.22 1070.92,-19.62 1068.42,-29.91 1075.38,-29.22"/>
</g>
<!-- Node30 -->
<g id="node30" class="node">
<title>Node30</title>
<g id="a_node30"><a xlink:title=" ">
<polygon fill="white" stroke="#bfbfbf" points="1091,-308 1091,-327 1141,-327 1141,-308 1091,-308"/>
<text text-anchor="middle" x="1116" y="-315" font-family="Helvetica,sans-Serif" font-size="10.00">atomic</text>
</a>
</g>
</g>
<!-- Node12&#45;&gt;Node30 -->
<g id="edge53" class="edge">
<title>Node12&#45;&gt;Node30</title>
<path fill="none" stroke="midnightblue" d="M1116,-369.48C1116,-361.08 1116,-347.98 1116,-337.16"/>
<polygon fill="midnightblue" stroke="midnightblue" points="1119.5,-337.01 1116,-327.01 1112.5,-337.01 1119.5,-337.01"/>
</g>
<!-- Node31 -->
<g id="node31" class="node">
<title>Node31</title>
<g id="a_node31"><a xlink:href="../../df/d13/FileNameRepo_8h.html" target="_top" xlink:title=" ">
<polygon fill="white" stroke="black" points="142.5,-168.5 142.5,-209.5 297.5,-209.5 297.5,-168.5 142.5,-168.5"/>
<text text-anchor="start" x="150.5" y="-197.5" font-family="Helvetica,sans-Serif" font-size="10.00">../../../../../misc</text>
<text text-anchor="start" x="150.5" y="-186.5" font-family="Helvetica,sans-Serif" font-size="10.00">/include/joda/misc/FileName</text>
<text text-anchor="middle" x="220" y="-175.5" font-family="Helvetica,sans-Serif" font-size="10.00">Repo.h</text>
</a>
</g>
</g>
<!-- Node12&#45;&gt;Node31 -->
<g id="edge55" class="edge">
<title>Node12&#45;&gt;Node31</title>
<path fill="none" stroke="midnightblue" d="M1015.95,-372.06C796.36,-358.09 287.28,-320.17 232,-266 220.06,-254.3 216.93,-235.88 216.84,-220.11"/>
<polygon fill="midnightblue" stroke="midnightblue" points="220.35,-219.84 217.2,-209.72 213.36,-219.6 220.35,-219.84"/>
</g>
<!-- Node33 -->
<g id="node33" class="node">
<title>Node33</title>
<g id="a_node33"><a xlink:href="../../d5/d6c/IOrigin_8h.html" target="_top" xlink:title=" ">
<polygon fill="white" stroke="black" points="1273,-179.5 1273,-198.5 1331,-198.5 1331,-179.5 1273,-179.5"/>
<text text-anchor="middle" x="1302" y="-186.5" font-family="Helvetica,sans-Serif" font-size="10.00">IOrigin.h</text>
</a>
</g>
</g>
<!-- Node12&#45;&gt;Node33 -->
<g id="edge61" class="edge">
<title>Node12&#45;&gt;Node33</title>
<path fill="none" stroke="midnightblue" d="M1150.34,-369.47C1172.53,-362.57 1200.9,-350.99 1221,-333 1260.57,-297.58 1285.42,-238.06 1296.04,-208.22"/>
<polygon fill="midnightblue" stroke="midnightblue" points="1299.38,-209.26 1299.3,-198.67 1292.76,-207 1299.38,-209.26"/>
</g>
<!-- Node13&#45;&gt;Node4 -->
<g id="edge29" class="edge">
<title>Node13&#45;&gt;Node4</title>
<path fill="none" stroke="midnightblue" d="M729.96,-312.6C639.26,-306.02 458.62,-290.93 307,-266 305.55,-265.76 304.08,-265.5 302.59,-265.23"/>
<polygon fill="midnightblue" stroke="midnightblue" points="303.23,-261.79 292.73,-263.25 301.85,-268.65 303.23,-261.79"/>
</g>
<!-- Node13&#45;&gt;Node6 -->
<g id="edge14" class="edge">
<title>Node13&#45;&gt;Node6</title>
<path fill="none" stroke="midnightblue" d="M846.02,-309.87C908.62,-301.81 1003.33,-286.66 1033,-266 1121.18,-204.6 1170.39,-76.94 1186.26,-29.38"/>
<polygon fill="midnightblue" stroke="midnightblue" points="1189.61,-30.39 1189.36,-19.8 1182.95,-28.23 1189.61,-30.39"/>
</g>
<!-- Node14 -->
<g id="node14" class="node">
<title>Node14</title>
<g id="a_node14"><a xlink:href="../../db/d16/config_8h.html" target="_top" xlink:title=" ">
<polygon fill="white" stroke="black" points="349.5,-246.5 349.5,-265.5 460.5,-265.5 460.5,-246.5 349.5,-246.5"/>
<text text-anchor="middle" x="405" y="-253.5" font-family="Helvetica,sans-Serif" font-size="10.00">joda/config/config.h</text>
</a>
</g>
</g>
<!-- Node13&#45;&gt;Node14 -->
<g id="edge15" class="edge">
<title>Node13&#45;&gt;Node14</title>
<path fill="none" stroke="midnightblue" d="M729.83,-307.46C659.88,-296.6 542.81,-278.41 469.96,-267.09"/>
<polygon fill="midnightblue" stroke="midnightblue" points="470.4,-263.62 459.98,-265.54 469.33,-270.54 470.4,-263.62"/>
</g>
<!-- Node13&#45;&gt;Node16 -->
<g id="edge18" class="edge">
<title>Node13&#45;&gt;Node16</title>
<path fill="none" stroke="midnightblue" d="M846.12,-309.4C903.55,-301.33 986.29,-286.57 1011,-266 1064.13,-221.76 1034.81,-125.08 1019.47,-84.98"/>
<polygon fill="midnightblue" stroke="midnightblue" points="1022.72,-83.66 1015.77,-75.67 1016.21,-86.25 1022.72,-83.66"/>
</g>
<!-- Node19 -->
<g id="node19" class="node">
<title>Node19</title>
<g id="a_node19"><a xlink:title=" ">
<polygon fill="white" stroke="#bfbfbf" points="665.5,-246.5 665.5,-265.5 794.5,-265.5 794.5,-246.5 665.5,-246.5"/>
<text text-anchor="middle" x="730" y="-253.5" font-family="Helvetica,sans-Serif" font-size="10.00">rapidjson/stringbuffer.h</text>
</a>
</g>
</g>
<!-- Node13&#45;&gt;Node19 -->
<g id="edge25" class="edge">
<title>Node13&#45;&gt;Node19</title>
<path fill="none" stroke="midnightblue" d="M774.25,-302.4C765.65,-293.58 754.55,-282.18 745.61,-273.02"/>
<polygon fill="midnightblue" stroke="midnightblue" points="747.93,-270.38 738.44,-265.66 742.91,-275.26 747.93,-270.38"/>
</g>
<!-- Node20 -->
<g id="node20" class="node">
<title>Node20</title>
<g id="a_node20"><a xlink:title=" ">
<polygon fill="white" stroke="#bfbfbf" points="813,-246.5 813,-265.5 877,-265.5 877,-246.5 813,-246.5"/>
<text text-anchor="middle" x="845" y="-253.5" font-family="Helvetica,sans-Serif" font-size="10.00">algorithm</text>
</a>
</g>
</g>
<!-- Node13&#45;&gt;Node20 -->
<g id="edge26" class="edge">
<title>Node13&#45;&gt;Node20</title>
<path fill="none" stroke="midnightblue" d="M801.51,-302.4C809.96,-293.58 820.88,-282.18 829.66,-273.02"/>
<polygon fill="midnightblue" stroke="midnightblue" points="832.32,-275.3 836.71,-265.66 827.26,-270.46 832.32,-275.3"/>
</g>
<!-- Node21 -->
<g id="node21" class="node">
<title>Node21</title>
<g id="a_node21"><a xlink:title=" ">
<polygon fill="white" stroke="#bfbfbf" points="322,-112.5 322,-131.5 370,-131.5 370,-112.5 322,-112.5"/>
<text text-anchor="middle" x="346" y="-119.5" font-family="Helvetica,sans-Serif" font-size="10.00">mutex</text>
</a>
</g>
</g>
<!-- Node13&#45;&gt;Node21 -->
<g id="edge27" class="edge">
<title>Node13&#45;&gt;Node21</title>
<path fill="none" stroke="midnightblue" d="M729.92,-314.19C614.59,-309.01 365.56,-294.6 340,-266 309.05,-231.36 326.5,-171.05 338.17,-141.04"/>
<polygon fill="midnightblue" stroke="midnightblue" points="341.41,-142.35 341.97,-131.77 334.94,-139.7 341.41,-142.35"/>
</g>
<!-- Node22 -->
<g id="node22" class="node">
<title>Node22</title>
<g id="a_node22"><a xlink:title=" ">
<polygon fill="white" stroke="#bfbfbf" points="673.5,-56.5 673.5,-75.5 766.5,-75.5 766.5,-56.5 673.5,-56.5"/>
<text text-anchor="middle" x="720" y="-63.5" font-family="Helvetica,sans-Serif" font-size="10.00">unordered_map</text>
</a>
</g>
</g>
<!-- Node13&#45;&gt;Node22 -->
<g id="edge28" class="edge">
<title>Node13&#45;&gt;Node22</title>
<path fill="none" stroke="midnightblue" d="M846,-314.22C904.81,-309.27 983.99,-293.81 960,-246 947.91,-221.9 797.81,-119.32 741.32,-81.27"/>
<polygon fill="midnightblue" stroke="midnightblue" points="743.04,-78.22 732.79,-75.54 739.14,-84.03 743.04,-78.22"/>
</g>
<!-- Node23 -->
<g id="node23" class="node">
<title>Node23</title>
<g id="a_node23"><a xlink:title=" ">
<polygon fill="white" stroke="#bfbfbf" points="895,-246.5 895,-265.5 951,-265.5 951,-246.5 895,-246.5"/>
<text text-anchor="middle" x="923" y="-253.5" font-family="Helvetica,sans-Serif" font-size="10.00">optional</text>
</a>
</g>
</g>
<!-- Node13&#45;&gt;Node23 -->
<g id="edge30" class="edge">
<title>Node13&#45;&gt;Node23</title>
<path fill="none" stroke="midnightblue" d="M819.99,-302.4C842.44,-292.51 872.21,-279.38 893.98,-269.79"/>
<polygon fill="midnightblue" stroke="midnightblue" points="895.62,-272.89 903.36,-265.66 892.79,-266.49 895.62,-272.89"/>
</g>
<!-- Node24 -->
<g id="node24" class="node">
<title>Node24</title>
<g id="a_node24"><a xlink:href="../../da/d3b/ObjectIterator_8h.html" target="_top" xlink:title=" ">
<polygon fill="white" stroke="black" points="479,-246.5 479,-265.5 571,-265.5 571,-246.5 479,-246.5"/>
<text text-anchor="middle" x="525" y="-253.5" font-family="Helvetica,sans-Serif" font-size="10.00">ObjectIterator.h</text>
</a>
</g>
</g>
<!-- Node13&#45;&gt;Node24 -->
<g id="edge31" class="edge">
<title>Node13&#45;&gt;Node24</title>
<path fill="none" stroke="midnightblue" d="M729.96,-303.37C682.66,-292.67 616.7,-277.75 572.51,-267.75"/>
<polygon fill="midnightblue" stroke="midnightblue" points="573.12,-264.3 562.6,-265.51 571.58,-271.13 573.12,-264.3"/>
</g>
<!-- Node27 -->
<g id="node27" class="node">
<title>Node27</title>
<g id="a_node27"><a xlink:href="../../d5/de2/ViewCursor_8h.html" target="_top" xlink:title=" ">
<polygon fill="white" stroke="black" points="680,-179.5 680,-198.5 760,-198.5 760,-179.5 680,-179.5"/>
<text text-anchor="middle" x="720" y="-186.5" font-family="Helvetica,sans-Serif" font-size="10.00">ViewCursor.h</text>
</a>
</g>
</g>
<!-- Node13&#45;&gt;Node27 -->
<g id="edge44" class="edge">
<title>Node13&#45;&gt;Node27</title>
<path fill="none" stroke="midnightblue" d="M729.95,-309.42C702.74,-302.87 672.69,-290.26 656,-266 640.13,-242.94 670.1,-218.58 694.16,-203.83"/>
<polygon fill="midnightblue" stroke="midnightblue" points="696.12,-206.74 702.99,-198.67 692.59,-200.7 696.12,-206.74"/>
</g>
<!-- Node28 -->
<g id="node28" class="node">
<title>Node28</title>
<g id="a_node28"><a xlink:href="../../d0/d10/ViewStructure_8h.html" target="_top" xlink:title=" ">
<polygon fill="white" stroke="black" points="673,-112.5 673,-131.5 767,-131.5 767,-112.5 673,-112.5"/>
<text text-anchor="middle" x="720" y="-119.5" font-family="Helvetica,sans-Serif" font-size="10.00">ViewStructure.h</text>
</a>
</g>
</g>
<!-- Node13&#45;&gt;Node28 -->
<g id="edge45" class="edge">
<title>Node13&#45;&gt;Node28</title>
<path fill="none" stroke="midnightblue" d="M729.77,-311.05C700.11,-304.99 666.49,-292.32 648,-266 632.07,-243.33 639.43,-218.66 671,-168 678.28,-156.32 689.39,-145.77 699.19,-137.83"/>
<polygon fill="midnightblue" stroke="midnightblue" points="701.56,-140.42 707.34,-131.55 697.28,-134.88 701.56,-140.42"/>
</g>
<!-- Node29 -->
<g id="node29" class="node">
<title>Node29</title>
<g id="a_node29"><a xlink:href="../../d8/dee/VirtualObject_8h.html" target="_top" xlink:title=" ">
<polygon fill="white" stroke="black" points="937.5,-179.5 937.5,-198.5 1026.5,-198.5 1026.5,-179.5 937.5,-179.5"/>
<text text-anchor="middle" x="982" y="-186.5" font-family="Helvetica,sans-Serif" font-size="10.00">VirtualObject.h</text>
</a>
</g>
</g>
<!-- Node13&#45;&gt;Node29 -->
<g id="edge46" class="edge">
<title>Node13&#45;&gt;Node29</title>
<path fill="none" stroke="midnightblue" d="M846.25,-310.12C900.3,-302.86 975.03,-288.94 993,-266 1005.94,-249.49 998.82,-224.56 991.41,-207.81"/>
<polygon fill="midnightblue" stroke="midnightblue" points="994.44,-206.05 986.93,-198.57 988.14,-209.1 994.44,-206.05"/>
</g>
<!-- Node14&#45;&gt;Node11 -->
<g id="edge17" class="edge">
<title>Node14&#45;&gt;Node11</title>
<path fill="none" stroke="midnightblue" d="M399.36,-246.48C393.95,-237.74 386.14,-223.56 383,-210 378.79,-191.81 378.53,-186.12 383,-168 390.86,-136.11 410.78,-103.15 423.84,-83.89"/>
<polygon fill="midnightblue" stroke="midnightblue" points="426.77,-85.8 429.61,-75.6 421.02,-81.8 426.77,-85.8"/>
</g>
<!-- Node15 -->
<g id="node15" class="node">
<title>Node15</title>
<g id="a_node15"><a xlink:title=" ">
<polygon fill="white" stroke="#bfbfbf" points="392,-179.5 392,-198.5 446,-198.5 446,-179.5 392,-179.5"/>
<text text-anchor="middle" x="419" y="-186.5" font-family="Helvetica,sans-Serif" font-size="10.00">istream</text>
</a>
</g>
</g>
<!-- Node14&#45;&gt;Node15 -->
<g id="edge16" class="edge">
<title>Node14&#45;&gt;Node15</title>
<path fill="none" stroke="midnightblue" d="M406.89,-246.23C408.97,-236.59 412.37,-220.8 415.04,-208.41"/>
<polygon fill="midnightblue" stroke="midnightblue" points="418.46,-209.14 417.14,-198.63 411.61,-207.67 418.46,-209.14"/>
</g>
<!-- Node16&#45;&gt;Node2 -->
<g id="edge22" class="edge">
<title>Node16&#45;&gt;Node2</title>
<path fill="none" stroke="midnightblue" d="M958.95,-62C792.73,-52.6 282.99,-23.78 112.9,-14.16"/>
<polygon fill="midnightblue" stroke="midnightblue" points="112.85,-10.65 102.67,-13.58 112.46,-17.64 112.85,-10.65"/>
</g>
<!-- Node16&#45;&gt;Node3 -->
<g id="edge24" class="edge">
<title>Node16&#45;&gt;Node3</title>
<path fill="none" stroke="midnightblue" d="M1065.14,-59.77C1166.68,-49.79 1387.87,-28.03 1497.2,-17.28"/>
<polygon fill="midnightblue" stroke="midnightblue" points="1497.82,-20.73 1507.43,-16.27 1497.13,-13.77 1497.82,-20.73"/>
</g>
<!-- Node16&#45;&gt;Node6 -->
<g id="edge19" class="edge">
<title>Node16&#45;&gt;Node6</title>
<path fill="none" stroke="midnightblue" d="M1040.52,-56.44C1071.07,-47.28 1119.71,-32.69 1153.6,-22.52"/>
<polygon fill="midnightblue" stroke="midnightblue" points="1155.04,-25.74 1163.61,-19.52 1153.03,-19.04 1155.04,-25.74"/>
</g>
<!-- Node16&#45;&gt;Node7 -->
<g id="edge21" class="edge">
<title>Node16&#45;&gt;Node7</title>
<path fill="none" stroke="midnightblue" d="M1065.23,-56.74C1126.99,-47.16 1228.8,-31.36 1295.13,-21.07"/>
<polygon fill="midnightblue" stroke="midnightblue" points="1295.7,-24.52 1305.05,-19.53 1294.63,-17.6 1295.7,-24.52"/>
</g>
<!-- Node16&#45;&gt;Node17 -->
<g id="edge20" class="edge">
<title>Node16&#45;&gt;Node17</title>
<path fill="none" stroke="midnightblue" d="M1021.32,-56.32C1029.89,-48.34 1042.81,-36.31 1053.19,-26.65"/>
<polygon fill="midnightblue" stroke="midnightblue" points="1055.58,-29.21 1060.51,-19.83 1050.81,-24.09 1055.58,-29.21"/>
</g>
<!-- Node18 -->
<g id="node18" class="node">
<title>Node18</title>
<g id="a_node18"><a xlink:title=" ">
<polygon fill="white" stroke="#bfbfbf" points="841,-0.5 841,-19.5 991,-19.5 991,-0.5 841,-0.5"/>
<text text-anchor="middle" x="916" y="-7.5" font-family="Helvetica,sans-Serif" font-size="10.00">rapidjson/istreamwrapper.h</text>
</a>
</g>
</g>
<!-- Node16&#45;&gt;Node18 -->
<g id="edge23" class="edge">
<title>Node16&#45;&gt;Node18</title>
<path fill="none" stroke="midnightblue" d="M996.58,-56.32C981.46,-47.82 958.18,-34.73 940.53,-24.8"/>
<polygon fill="midnightblue" stroke="midnightblue" points="941.82,-21.51 931.39,-19.65 938.39,-27.61 941.82,-21.51"/>
</g>
<!-- Node24&#45;&gt;Node11 -->
<g id="edge33" class="edge">
<title>Node24&#45;&gt;Node11</title>
<path fill="none" stroke="midnightblue" d="M517.97,-246.44C511,-237.68 500.34,-223.47 493,-210 469.75,-167.32 450.77,-113.11 441.72,-85.29"/>
<polygon fill="midnightblue" stroke="midnightblue" points="445.04,-84.16 438.66,-75.7 438.37,-86.29 445.04,-84.16"/>
</g>
<!-- Node24&#45;&gt;Node16 -->
<g id="edge32" class="edge">
<title>Node24&#45;&gt;Node16</title>
<path fill="none" stroke="midnightblue" d="M534.99,-246.27C545.06,-237.38 560.93,-223.07 574,-210 615.82,-168.18 611.5,-139.22 664,-112 712.2,-87.01 862,-75 948.54,-70.02"/>
<polygon fill="midnightblue" stroke="midnightblue" points="948.98,-73.5 958.77,-69.44 948.59,-66.51 948.98,-73.5"/>
</g>
<!-- Node25 -->
<g id="node25" class="node">
<title>Node25</title>
<g id="a_node25"><a xlink:title=" ">
<polygon fill="white" stroke="#bfbfbf" points="502.5,-179.5 502.5,-198.5 547.5,-198.5 547.5,-179.5 502.5,-179.5"/>
<text text-anchor="middle" x="525" y="-186.5" font-family="Helvetica,sans-Serif" font-size="10.00">utility</text>
</a>
</g>
</g>
<!-- Node24&#45;&gt;Node25 -->
<g id="edge34" class="edge">
<title>Node24&#45;&gt;Node25</title>
<path fill="none" stroke="midnightblue" d="M525,-246.23C525,-236.68 525,-221.12 525,-208.78"/>
<polygon fill="midnightblue" stroke="midnightblue" points="528.5,-208.63 525,-198.63 521.5,-208.63 528.5,-208.63"/>
</g>
<!-- Node26 -->
<g id="node26" class="node">
<title>Node26</title>
<g id="a_node26"><a xlink:title=" ">
<polygon fill="white" stroke="#bfbfbf" points="538.5,-112.5 538.5,-131.5 585.5,-131.5 585.5,-112.5 538.5,-112.5"/>
<text text-anchor="middle" x="562" y="-119.5" font-family="Helvetica,sans-Serif" font-size="10.00">vector</text>
</a>
</g>
</g>
<!-- Node24&#45;&gt;Node26 -->
<g id="edge35" class="edge">
<title>Node24&#45;&gt;Node26</title>
<path fill="none" stroke="midnightblue" d="M532.98,-246.49C540.41,-237.98 551.06,-224.15 556,-210 563.86,-187.5 564.32,-159.77 563.51,-141.76"/>
<polygon fill="midnightblue" stroke="midnightblue" points="567,-141.46 562.88,-131.7 560.01,-141.9 567,-141.46"/>
</g>
<!-- Node24&#45;&gt;Node27 -->
<g id="edge36" class="edge">
<title>Node24&#45;&gt;Node27</title>
<path fill="none" stroke="midnightblue" d="M550.89,-246.37C585.23,-234.92 645.96,-214.68 684.53,-201.82"/>
<polygon fill="midnightblue" stroke="midnightblue" points="685.93,-205.05 694.31,-198.56 683.72,-198.41 685.93,-205.05"/>
</g>
<!-- Node27&#45;&gt;Node10 -->
<g id="edge38" class="edge">
<title>Node27&#45;&gt;Node10</title>
<path fill="none" stroke="midnightblue" d="M760.13,-182.85C855.09,-170.65 1092.68,-140.13 1186.75,-128.04"/>
<polygon fill="midnightblue" stroke="midnightblue" points="1187.24,-131.51 1196.71,-126.76 1186.35,-124.56 1187.24,-131.51"/>
</g>
<!-- Node27&#45;&gt;Node16 -->
<g id="edge37" class="edge">
<title>Node27&#45;&gt;Node16</title>
<path fill="none" stroke="midnightblue" d="M740.53,-179.49C791.2,-158.5 922.35,-104.15 981.85,-79.49"/>
<polygon fill="midnightblue" stroke="midnightblue" points="983.2,-82.72 991.1,-75.66 980.52,-76.26 983.2,-82.72"/>
</g>
<!-- Node27&#45;&gt;Node26 -->
<g id="edge39" class="edge">
<title>Node27&#45;&gt;Node26</title>
<path fill="none" stroke="midnightblue" d="M699.02,-179.37C671.75,-168.15 623.93,-148.48 592.61,-135.59"/>
<polygon fill="midnightblue" stroke="midnightblue" points="593.65,-132.24 583.07,-131.67 590.98,-138.71 593.65,-132.24"/>
</g>
<!-- Node27&#45;&gt;Node28 -->
<g id="edge40" class="edge">
<title>Node27&#45;&gt;Node28</title>
<path fill="none" stroke="midnightblue" d="M720,-179.23C720,-169.68 720,-154.12 720,-141.78"/>
<polygon fill="midnightblue" stroke="midnightblue" points="723.5,-141.63 720,-131.63 716.5,-141.63 723.5,-141.63"/>
</g>
<!-- Node28&#45;&gt;Node11 -->
<g id="edge42" class="edge">
<title>Node28&#45;&gt;Node11</title>
<path fill="none" stroke="midnightblue" d="M675,-112.44C617.32,-101.48 518.74,-82.73 468.11,-73.1"/>
<polygon fill="midnightblue" stroke="midnightblue" points="468.54,-69.62 458.06,-71.19 467.23,-76.5 468.54,-69.62"/>
</g>
<!-- Node28&#45;&gt;Node16 -->
<g id="edge41" class="edge">
<title>Node28&#45;&gt;Node16</title>
<path fill="none" stroke="midnightblue" d="M766.27,-112.44C817.74,-102.92 900.89,-87.55 956,-77.36"/>
<polygon fill="midnightblue" stroke="midnightblue" points="956.75,-80.78 965.95,-75.52 955.48,-73.89 956.75,-80.78"/>
</g>
<!-- Node28&#45;&gt;Node22 -->
<g id="edge43" class="edge">
<title>Node28&#45;&gt;Node22</title>
<path fill="none" stroke="midnightblue" d="M720,-112.08C720,-105.01 720,-94.86 720,-85.99"/>
<polygon fill="midnightblue" stroke="midnightblue" points="723.5,-85.75 720,-75.75 716.5,-85.75 723.5,-85.75"/>
</g>
<!-- Node29&#45;&gt;Node6 -->
<g id="edge47" class="edge">
<title>Node29&#45;&gt;Node6</title>
<path fill="none" stroke="midnightblue" d="M992.13,-179.46C1025.31,-151.5 1131.06,-62.37 1173.81,-26.33"/>
<polygon fill="midnightblue" stroke="midnightblue" points="1176.09,-28.99 1181.48,-19.87 1171.58,-23.64 1176.09,-28.99"/>
</g>
<!-- Node29&#45;&gt;Node11 -->
<g id="edge49" class="edge">
<title>Node29&#45;&gt;Node11</title>
<path fill="none" stroke="midnightblue" d="M963.13,-179.42C927.4,-163.54 847.05,-129.58 776,-112 665.04,-84.55 529.3,-72.96 468.34,-68.89"/>
<polygon fill="midnightblue" stroke="midnightblue" points="468.4,-65.38 458.19,-68.23 467.95,-72.37 468.4,-65.38"/>
</g>
<!-- Node29&#45;&gt;Node16 -->
<g id="edge48" class="edge">
<title>Node29&#45;&gt;Node16</title>
<path fill="none" stroke="midnightblue" d="M984.16,-179.3C989,-159.76 1000.83,-112.06 1007.4,-85.55"/>
<polygon fill="midnightblue" stroke="midnightblue" points="1010.85,-86.17 1009.86,-75.62 1004.06,-84.49 1010.85,-86.17"/>
</g>
<!-- Node29&#45;&gt;Node28 -->
<g id="edge50" class="edge">
<title>Node29&#45;&gt;Node28</title>
<path fill="none" stroke="midnightblue" d="M947.48,-179.44C900.45,-167.77 816.2,-146.87 764.49,-134.04"/>
<polygon fill="midnightblue" stroke="midnightblue" points="765.15,-130.59 754.6,-131.58 763.46,-137.39 765.15,-130.59"/>
</g>
<!-- Node31&#45;&gt;Node11 -->
<g id="edge57" class="edge">
<title>Node31&#45;&gt;Node11</title>
<path fill="none" stroke="midnightblue" d="M230.75,-168.3C241.16,-151.01 258.51,-126.44 280,-112 317.89,-86.54 370.29,-75.28 403.66,-70.45"/>
<polygon fill="midnightblue" stroke="midnightblue" points="404.34,-73.89 413.78,-69.09 403.41,-66.95 404.34,-73.89"/>
</g>
<!-- Node31&#45;&gt;Node21 -->
<g id="edge56" class="edge">
<title>Node31&#45;&gt;Node21</title>
<path fill="none" stroke="midnightblue" d="M257.8,-168.5C277.87,-158.15 302.01,-145.69 319.96,-136.43"/>
<polygon fill="midnightblue" stroke="midnightblue" points="321.94,-139.35 329.23,-131.65 318.74,-133.13 321.94,-139.35"/>
</g>
<!-- Node31&#45;&gt;Node22 -->
<g id="edge58" class="edge">
<title>Node31&#45;&gt;Node22</title>
<path fill="none" stroke="midnightblue" d="M241.29,-168.17C263.5,-147.95 297.24,-118.62 313,-112 374.82,-86.04 566.5,-73.9 663.11,-69.32"/>
<polygon fill="midnightblue" stroke="midnightblue" points="663.46,-72.8 673.29,-68.84 663.13,-65.81 663.46,-72.8"/>
</g>
<!-- Node31&#45;&gt;Node26 -->
<g id="edge60" class="edge">
<title>Node31&#45;&gt;Node26</title>
<path fill="none" stroke="midnightblue" d="M297.61,-173.25C370.22,-159.45 475.24,-139.49 528.42,-129.38"/>
<polygon fill="midnightblue" stroke="midnightblue" points="529.17,-132.8 538.34,-127.5 527.87,-125.92 529.17,-132.8"/>
</g>
<!-- Node32 -->
<g id="node32" class="node">
<title>Node32</title>
<g id="a_node32"><a xlink:title=" ">
<polygon fill="white" stroke="#bfbfbf" points="142,-112.5 142,-131.5 228,-131.5 228,-112.5 142,-112.5"/>
<text text-anchor="middle" x="185" y="-119.5" font-family="Helvetica,sans-Serif" font-size="10.00">unordered_set</text>
</a>
</g>
</g>
<!-- Node31&#45;&gt;Node32 -->
<g id="edge59" class="edge">
<title>Node31&#45;&gt;Node32</title>
<path fill="none" stroke="midnightblue" d="M209.5,-168.5C204.7,-159.59 199.06,-149.11 194.4,-140.46"/>
<polygon fill="midnightblue" stroke="midnightblue" points="197.48,-138.8 189.66,-131.65 191.32,-142.12 197.48,-138.8"/>
</g>
<!-- Node33&#45;&gt;Node6 -->
<g id="edge62" class="edge">
<title>Node33&#45;&gt;Node6</title>
<path fill="none" stroke="midnightblue" d="M1331.2,-183.45C1377.9,-174.85 1461.49,-153.26 1434,-112 1392.09,-49.09 1302.75,-25.3 1245.13,-16.35"/>
<polygon fill="midnightblue" stroke="midnightblue" points="1245.51,-12.87 1235.11,-14.89 1244.5,-19.79 1245.51,-12.87"/>
</g>
<!-- Node33&#45;&gt;Node10 -->
<g id="edge64" class="edge">
<title>Node33&#45;&gt;Node10</title>
<path fill="none" stroke="midnightblue" d="M1291.75,-179.23C1279.56,-168.81 1258.98,-151.21 1244.09,-138.47"/>
<polygon fill="midnightblue" stroke="midnightblue" points="1245.96,-135.47 1236.09,-131.63 1241.41,-140.79 1245.96,-135.47"/>
</g>
<!-- Node33&#45;&gt;Node16 -->
<g id="edge65" class="edge">
<title>Node33&#45;&gt;Node16</title>
<path fill="none" stroke="midnightblue" d="M1300.32,-179.3C1296.72,-163.23 1286.69,-128.96 1264,-112 1234.86,-90.21 1139.9,-77.89 1075.24,-71.83"/>
<polygon fill="midnightblue" stroke="midnightblue" points="1075.42,-68.33 1065.14,-70.91 1074.78,-75.31 1075.42,-68.33"/>
</g>
<!-- Node34 -->
<g id="node34" class="node">
<title>Node34</title>
<g id="a_node34"><a xlink:title=" ">
<polygon fill="white" stroke="#bfbfbf" points="1311,-112.5 1311,-131.5 1425,-131.5 1425,-112.5 1311,-112.5"/>
<text text-anchor="middle" x="1368" y="-119.5" font-family="Helvetica,sans-Serif" font-size="10.00">boost/operators.hpp</text>
</a>
</g>
</g>
<!-- Node33&#45;&gt;Node34 -->
<g id="edge63" class="edge">
<title>Node33&#45;&gt;Node34</title>
<path fill="none" stroke="midnightblue" d="M1310.9,-179.23C1321.39,-168.9 1339.02,-151.54 1351.92,-138.83"/>
<polygon fill="midnightblue" stroke="midnightblue" points="1354.57,-141.14 1359.24,-131.63 1349.66,-136.15 1354.57,-141.14"/>
</g>
</g>
</svg>
        <g id="navigator" transform="translate(0 0)" fill="#404254">
                <rect fill="#f2f5e9" fill-opacity="0.5" stroke="#606060" stroke-width=".5" x="0" y="0" width="60" height="60"/>
                <use id="zoomplus" xlink:href="#zoomPlus" x="17" y="9" onmousedown="handleZoom(evt,'in')"/>
                <use id="zoomminus" xlink:href="#zoomMin" x="42" y="9" onmousedown="handleZoom(evt,'out')"/>
                <use id="reset" xlink:href="#resetDef" x="30" y="36" onmousedown="handleReset()"/>
                <g id="arrowUp" xlink:href="#dirArrow" transform="translate(30 24)" onmousedown="handlePan(0,-1)">
                  <use xlink:href="#rim" fill="#404040">
                        <set attributeName="fill" to="#808080" begin="arrowUp.mouseover" end="arrowUp.mouseout"/>
                  </use>
                  <path fill="none" stroke="white" stroke-width="1.5" d="M0,-3.0v7 M-2.5,-0.5L0,-3.0L2.5,-0.5"/>
                </g>
                <g id="arrowRight" xlink:href="#dirArrow" transform="rotate(90) translate(36 -43)" onmousedown="handlePan(1,0)">
                  <use xlink:href="#rim" fill="#404040">
                        <set attributeName="fill" to="#808080" begin="arrowRight.mouseover" end="arrowRight.mouseout"/>
                  </use>
                  <path fill="none" stroke="white" stroke-width="1.5" d="M0,-3.0v7 M-2.5,-0.5L0,-3.0L2.5,-0.5"/>
                </g>
                <g id="arrowDown" xlink:href="#dirArrow" transform="rotate(180) translate(-30 -48)" onmousedown="handlePan(0,1)">
                  <use xlink:href="#rim" fill="#404040">
                        <set attributeName="fill" to="#808080" begin="arrowDown.mouseover" end="arrowDown.mouseout"/>
                  </use>
                  <path fill="none" stroke="white" stroke-width="1.5" d="M0,-3.0v7 M-2.5,-0.5L0,-3.0L2.5,-0.5"/>
                </g>
                <g id="arrowLeft" xlink:href="#dirArrow" transform="rotate(270) translate(-36 17)" onmousedown="handlePan(-1,0)">
                  <use xlink:href="#rim" fill="#404040">
                        <set attributeName="fill" to="#808080" begin="arrowLeft.mouseover" end="arrowLeft.mouseout"/>
                  </use>
                  <path fill="none" stroke="white" stroke-width="1.5" d="M0,-3.0v7 M-2.5,-0.5L0,-3.0L2.5,-0.5"/>
                </g>
        </g>
        <svg viewBox="0 0 15 15" width="100%" height="30px" preserveAspectRatio="xMaxYMin meet">
         <g id="arrow_out" transform="scale(0.3 0.3)">
          <a xlink:href="PointerProvider_8h__incl_org.svg" target="_base">
           <rect id="button" ry="5" rx="5" y="6" x="6" height="38" width="38"
                fill="#f2f5e9" fill-opacity="0.5" stroke="#606060" stroke-width="1.0"/>
           <path id="arrow"
             d="M 11.500037,31.436501 C 11.940474,20.09759 22.043105,11.32322 32.158766,21.979434 L 37.068811,17.246167 C 37.068811,17.246167 37.088388,32 37.088388,32 L 22.160133,31.978069 C 22.160133,31.978069 26.997745,27.140456 26.997745,27.140456 C 18.528582,18.264221 13.291696,25.230495 11.500037,31.436501 z"
             style="fill:#404040;"/>
          </a>
         </g>
        </svg>
</svg>
