<?xml version="1.0" encoding="UTF-8" standalone="no"?>
<!DOCTYPE svg PUBLIC "-//W3C//DTD SVG 1.1//EN"
 "http://www.w3.org/Graphics/SVG/1.1/DTD/svg11.dtd">
<!-- Generated by graphviz version 2.43.0 (0)
 -->
<!-- Title: /home/nico/projects/JODA&#45;gh/libs/joda/core/modules/parser/src/parsers/ContainerScheduler/DefaultContainerScheduler.h Pages: 1 -->
<svg width="720pt" height="250pt"
 viewBox="0.00 0.00 719.50 250.00" xmlns="http://www.w3.org/2000/svg" xmlns:xlink="http://www.w3.org/1999/xlink">
<g id="graph0" class="graph" transform="scale(1 1) rotate(0) translate(4 246)">
<title>/home/nico/projects/JODA&#45;gh/libs/joda/core/modules/parser/src/parsers/ContainerScheduler/DefaultContainerScheduler.h</title>
<polygon fill="white" stroke="transparent" points="-4,4 -4,-246 715.5,-246 715.5,4 -4,4"/>
<!-- Node1 -->
<g id="node1" class="node">
<title>Node1</title>
<g id="a_node1"><a xlink:title=" ">
<polygon fill="#bfbfbf" stroke="black" points="280,-178.5 280,-241.5 481,-241.5 481,-178.5 280,-178.5"/>
<text text-anchor="start" x="288" y="-229.5" font-family="Helvetica,sans-Serif" font-size="10.00">/home/nico/projects</text>
<text text-anchor="start" x="288" y="-218.5" font-family="Helvetica,sans-Serif" font-size="10.00">/JODA&#45;gh/libs/joda/core</text>
<text text-anchor="start" x="288" y="-207.5" font-family="Helvetica,sans-Serif" font-size="10.00">/modules/parser/src/parsers</text>
<text text-anchor="start" x="288" y="-196.5" font-family="Helvetica,sans-Serif" font-size="10.00">/ContainerScheduler/DefaultContainer</text>
<text text-anchor="middle" x="380.5" y="-185.5" font-family="Helvetica,sans-Serif" font-size="10.00">Scheduler.h</text>
</a>
</g>
</g>
<!-- Node2 -->
<g id="node2" class="node">
<title>Node2</title>
<g id="a_node2"><a xlink:href="../../d0/dc4/DefaultContainerScheduler_8cpp.html" target="_top" xlink:title=" ">
<polygon fill="white" stroke="black" points="0,-78.5 0,-141.5 201,-141.5 201,-78.5 0,-78.5"/>
<text text-anchor="start" x="8" y="-129.5" font-family="Helvetica,sans-Serif" font-size="10.00">/home/nico/projects</text>
<text text-anchor="start" x="8" y="-118.5" font-family="Helvetica,sans-Serif" font-size="10.00">/JODA&#45;gh/libs/joda/core</text>
<text text-anchor="start" x="8" y="-107.5" font-family="Helvetica,sans-Serif" font-size="10.00">/modules/parser/src/parsers</text>
<text text-anchor="start" x="8" y="-96.5" font-family="Helvetica,sans-Serif" font-size="10.00">/ContainerScheduler/DefaultContainer</text>
<text text-anchor="middle" x="100.5" y="-85.5" font-family="Helvetica,sans-Serif" font-size="10.00">Scheduler.cpp</text>
</a>
</g>
</g>
<!-- Node1&#45;&gt;Node2 -->
<g id="edge1" class="edge">
<title>Node1&#45;&gt;Node2</title>
<path fill="none" stroke="midnightblue" d="M283.51,-175.05C252.39,-164.16 218.14,-152.17 187.76,-141.54"/>
<polygon fill="midnightblue" stroke="midnightblue" points="282.46,-178.4 293.06,-178.4 284.78,-171.79 282.46,-178.4"/>
</g>
<!-- Node3 -->
<g id="node3" class="node">
<title>Node3</title>
<g id="a_node3"><a xlink:href="../../d6/df8/JSONMetaParser_8h.html" target="_top" xlink:title=" ">
<polygon fill="white" stroke="black" points="219.5,-84 219.5,-136 371.5,-136 371.5,-84 219.5,-84"/>
<text text-anchor="start" x="227.5" y="-124" font-family="Helvetica,sans-Serif" font-size="10.00">/home/nico/projects</text>
<text text-anchor="start" x="227.5" y="-113" font-family="Helvetica,sans-Serif" font-size="10.00">/JODA&#45;gh/libs/joda/core</text>
<text text-anchor="start" x="227.5" y="-102" font-family="Helvetica,sans-Serif" font-size="10.00">/modules/parser/src/parsers</text>
<text text-anchor="middle" x="295.5" y="-91" font-family="Helvetica,sans-Serif" font-size="10.00">/JSONMetaParser.h</text>
</a>
</g>
</g>
<!-- Node1&#45;&gt;Node3 -->
<g id="edge2" class="edge">
<title>Node1&#45;&gt;Node3</title>
<path fill="none" stroke="midnightblue" d="M347.04,-170.42C337.02,-158.87 326.29,-146.5 317.23,-136.05"/>
<polygon fill="midnightblue" stroke="midnightblue" points="344.64,-173 353.84,-178.26 349.93,-168.41 344.64,-173"/>
</g>
<!-- Node5 -->
<g id="node5" class="node">
<title>Node5</title>
<g id="a_node5"><a xlink:href="../../d6/d28/JSONStreamParser_8h.html" target="_top" xlink:title=" ">
<polygon fill="white" stroke="black" points="389.5,-84 389.5,-136 541.5,-136 541.5,-84 389.5,-84"/>
<text text-anchor="start" x="397.5" y="-124" font-family="Helvetica,sans-Serif" font-size="10.00">/home/nico/projects</text>
<text text-anchor="start" x="397.5" y="-113" font-family="Helvetica,sans-Serif" font-size="10.00">/JODA&#45;gh/libs/joda/core</text>
<text text-anchor="start" x="397.5" y="-102" font-family="Helvetica,sans-Serif" font-size="10.00">/modules/parser/src/parsers</text>
<text text-anchor="middle" x="465.5" y="-91" font-family="Helvetica,sans-Serif" font-size="10.00">/JSONStreamParser.h</text>
</a>
</g>
</g>
<!-- Node1&#45;&gt;Node5 -->
<g id="edge4" class="edge">
<title>Node1&#45;&gt;Node5</title>
<path fill="none" stroke="midnightblue" d="M413.96,-170.42C423.98,-158.87 434.71,-146.5 443.77,-136.05"/>
<polygon fill="midnightblue" stroke="midnightblue" points="411.07,-168.41 407.16,-178.26 416.36,-173 411.07,-168.41"/>
</g>
<!-- Node6 -->
<g id="node6" class="node">
<title>Node6</title>
<g id="a_node6"><a xlink:href="../../d5/deb/JSONTextParser_8h.html" target="_top" xlink:title=" ">
<polygon fill="white" stroke="black" points="559.5,-84 559.5,-136 711.5,-136 711.5,-84 559.5,-84"/>
<text text-anchor="start" x="567.5" y="-124" font-family="Helvetica,sans-Serif" font-size="10.00">/home/nico/projects</text>
<text text-anchor="start" x="567.5" y="-113" font-family="Helvetica,sans-Serif" font-size="10.00">/JODA&#45;gh/libs/joda/core</text>
<text text-anchor="start" x="567.5" y="-102" font-family="Helvetica,sans-Serif" font-size="10.00">/modules/parser/src/parsers</text>
<text text-anchor="middle" x="635.5" y="-91" font-family="Helvetica,sans-Serif" font-size="10.00">/JSONTextParser.h</text>
</a>
</g>
</g>
<!-- Node1&#45;&gt;Node6 -->
<g id="edge6" class="edge">
<title>Node1&#45;&gt;Node6</title>
<path fill="none" stroke="midnightblue" d="M469.8,-174.68C502.82,-161.99 539.62,-147.85 570.14,-136.12"/>
<polygon fill="midnightblue" stroke="midnightblue" points="468.21,-171.54 460.13,-178.4 470.72,-178.07 468.21,-171.54"/>
</g>
<!-- Node4 -->
<g id="node4" class="node">
<title>Node4</title>
<g id="a_node4"><a xlink:href="../../da/d7c/ReaderParser_8cpp.html" target="_top" xlink:title=" ">
<polygon fill="white" stroke="black" points="365.5,-0.5 365.5,-41.5 565.5,-41.5 565.5,-0.5 365.5,-0.5"/>
<text text-anchor="start" x="373.5" y="-29.5" font-family="Helvetica,sans-Serif" font-size="10.00">/home/nico/projects</text>
<text text-anchor="start" x="373.5" y="-18.5" font-family="Helvetica,sans-Serif" font-size="10.00">/JODA&#45;gh/libs/joda/core</text>
<text text-anchor="middle" x="465.5" y="-7.5" font-family="Helvetica,sans-Serif" font-size="10.00">/modules/parser/src/ReaderParser.cpp</text>
</a>
</g>
</g>
<!-- Node3&#45;&gt;Node4 -->
<g id="edge3" class="edge">
<title>Node3&#45;&gt;Node4</title>
<path fill="none" stroke="midnightblue" d="M353.8,-79.16C378.08,-66.74 405.59,-52.66 427.24,-41.58"/>
<polygon fill="midnightblue" stroke="midnightblue" points="351.98,-76.16 344.67,-83.84 355.17,-82.4 351.98,-76.16"/>
</g>
<!-- Node5&#45;&gt;Node4 -->
<g id="edge5" class="edge">
<title>Node5&#45;&gt;Node4</title>
<path fill="none" stroke="midnightblue" d="M465.5,-73.66C465.5,-62.71 465.5,-51.05 465.5,-41.58"/>
<polygon fill="midnightblue" stroke="midnightblue" points="462,-73.84 465.5,-83.84 469,-73.84 462,-73.84"/>
</g>
<!-- Node6&#45;&gt;Node4 -->
<g id="edge7" class="edge">
<title>Node6&#45;&gt;Node4</title>
<path fill="none" stroke="midnightblue" d="M577.2,-79.16C552.92,-66.74 525.41,-52.66 503.76,-41.58"/>
<polygon fill="midnightblue" stroke="midnightblue" points="575.83,-82.4 586.33,-83.84 579.02,-76.16 575.83,-82.4"/>
</g>
</g>
</svg>
