<?xml version="1.0" encoding="UTF-8" standalone="no"?>
<!DOCTYPE svg PUBLIC "-//W3C//DTD SVG 1.1//EN"
 "http://www.w3.org/Graphics/SVG/1.1/DTD/svg11.dtd">
<!-- Generated by graphviz version 2.43.0 (0)
 -->
<!-- Title: joda::network::client::JodaServerAPIErrorException Pages: 1 -->
<svg width="170pt" height="218pt"
 viewBox="0.00 0.00 170.00 218.00" xmlns="http://www.w3.org/2000/svg" xmlns:xlink="http://www.w3.org/1999/xlink">
<g id="graph0" class="graph" transform="scale(1 1) rotate(0) translate(4 214)">
<title>joda::network::client::JodaServerAPIErrorException</title>
<polygon fill="white" stroke="transparent" points="-4,4 -4,-214 166,-214 166,4 -4,4"/>
<!-- Node1 -->
<g id="node1" class="node">
<title>Node1</title>
<g id="a_node1"><a xlink:title=" ">
<polygon fill="#bfbfbf" stroke="black" points="0,-0.5 0,-30.5 162,-30.5 162,-0.5 0,-0.5"/>
<text text-anchor="start" x="8" y="-18.5" font-family="Helvetica,sans-Serif" font-size="10.00">joda::network::client</text>
<text text-anchor="middle" x="81" y="-7.5" font-family="Helvetica,sans-Serif" font-size="10.00">::JodaServerAPIErrorException</text>
</a>
</g>
</g>
<!-- Node2 -->
<g id="node2" class="node">
<title>Node2</title>
<g id="a_node2"><a xlink:href="../../d1/df6/classjoda_1_1network_1_1client_1_1JodaServerException.html" target="_top" xlink:title=" ">
<polygon fill="white" stroke="black" points="19.5,-67.5 19.5,-97.5 142.5,-97.5 142.5,-67.5 19.5,-67.5"/>
<text text-anchor="start" x="27.5" y="-85.5" font-family="Helvetica,sans-Serif" font-size="10.00">joda::network::client</text>
<text text-anchor="middle" x="81" y="-74.5" font-family="Helvetica,sans-Serif" font-size="10.00">::JodaServerException</text>
</a>
</g>
</g>
<!-- Node2&#45;&gt;Node1 -->
<g id="edge1" class="edge">
<title>Node2&#45;&gt;Node1</title>
<path fill="none" stroke="midnightblue" d="M81,-57.11C81,-48.15 81,-38.32 81,-30.58"/>
<polygon fill="midnightblue" stroke="midnightblue" points="77.5,-57.4 81,-67.4 84.5,-57.4 77.5,-57.4"/>
</g>
<!-- Node3 -->
<g id="node3" class="node">
<title>Node3</title>
<g id="a_node3"><a xlink:title=" ">
<polygon fill="white" stroke="#bfbfbf" points="29,-134.5 29,-153.5 133,-153.5 133,-134.5 29,-134.5"/>
<text text-anchor="middle" x="81" y="-141.5" font-family="Helvetica,sans-Serif" font-size="10.00">std::runtime_error</text>
</a>
</g>
</g>
<!-- Node3&#45;&gt;Node2 -->
<g id="edge2" class="edge">
<title>Node3&#45;&gt;Node2</title>
<path fill="none" stroke="midnightblue" d="M81,-124.23C81,-115.59 81,-105.5 81,-97.52"/>
<polygon fill="midnightblue" stroke="midnightblue" points="77.5,-124.48 81,-134.48 84.5,-124.48 77.5,-124.48"/>
</g>
<!-- Node4 -->
<g id="node4" class="node">
<title>Node4</title>
<g id="a_node4"><a xlink:title=" ">
<polygon fill="white" stroke="#bfbfbf" points="38,-190.5 38,-209.5 124,-209.5 124,-190.5 38,-190.5"/>
<text text-anchor="middle" x="81" y="-197.5" font-family="Helvetica,sans-Serif" font-size="10.00">std::exception</text>
</a>
</g>
</g>
<!-- Node4&#45;&gt;Node3 -->
<g id="edge3" class="edge">
<title>Node4&#45;&gt;Node3</title>
<path fill="none" stroke="midnightblue" d="M81,-179.8C81,-170.91 81,-160.78 81,-153.75"/>
<polygon fill="midnightblue" stroke="midnightblue" points="77.5,-180.08 81,-190.08 84.5,-180.08 77.5,-180.08"/>
</g>
</g>
</svg>
