<?xml version="1.0" encoding="UTF-8" standalone="no"?>
<!DOCTYPE svg PUBLIC "-//W3C//DTD SVG 1.1//EN"
 "http://www.w3.org/Graphics/SVG/1.1/DTD/svg11.dtd">
<!-- Generated by graphviz version 2.43.0 (0)
 -->
<!-- Title: RecurringTimer::start Pages: 1 -->
<svg width="274pt" height="78pt"
 viewBox="0.00 0.00 274.00 77.50" xmlns="http://www.w3.org/2000/svg" xmlns:xlink="http://www.w3.org/1999/xlink">
<g id="graph0" class="graph" transform="scale(1 1) rotate(0) translate(4 73.5)">
<title>RecurringTimer::start</title>
<polygon fill="white" stroke="transparent" points="-4,4 -4,-73.5 270,-73.5 270,4 -4,4"/>
<!-- Node1 -->
<g id="node1" class="node">
<title>Node1</title>
<g id="a_node1"><a xlink:title=" ">
<polygon fill="#bfbfbf" stroke="black" points="146,-22.5 146,-41.5 266,-41.5 266,-22.5 146,-22.5"/>
<text text-anchor="middle" x="206" y="-29.5" font-family="Helvetica,sans-Serif" font-size="10.00">RecurringTimer::start</text>
</a>
</g>
</g>
<!-- Node2 -->
<g id="node2" class="node">
<title>Node2</title>
<g id="a_node2"><a xlink:href="../../d9/d71/classIExportDestination.html#a9376079c654ceef8e4c1524684b2e85a" target="_top" xlink:title=" ">
<polygon fill="white" stroke="black" points="1.5,-39 1.5,-69 108.5,-69 108.5,-39 1.5,-39"/>
<text text-anchor="start" x="9.5" y="-57" font-family="Helvetica,sans-Serif" font-size="10.00">IExportDestination</text>
<text text-anchor="middle" x="55" y="-46" font-family="Helvetica,sans-Serif" font-size="10.00">::consume</text>
</a>
</g>
</g>
<!-- Node1&#45;&gt;Node2 -->
<g id="edge1" class="edge">
<title>Node1&#45;&gt;Node2</title>
<path fill="none" stroke="midnightblue" d="M135.6,-42.25C126.6,-43.58 117.51,-44.92 108.84,-46.2"/>
<polygon fill="midnightblue" stroke="midnightblue" points="136.3,-45.68 145.68,-40.76 135.28,-38.76 136.3,-45.68"/>
</g>
<!-- Node3 -->
<g id="node3" class="node">
<title>Node3</title>
<g id="a_node3"><a xlink:href="../../da/dcb/classQueryThread.html#a646d5ddb6815199a41b91d5569897980" target="_top" xlink:title=" ">
<polygon fill="white" stroke="black" points="0,-0.5 0,-19.5 110,-19.5 110,-0.5 0,-0.5"/>
<text text-anchor="middle" x="55" y="-7.5" font-family="Helvetica,sans-Serif" font-size="10.00">QueryThread::work</text>
</a>
</g>
</g>
<!-- Node1&#45;&gt;Node3 -->
<g id="edge2" class="edge">
<title>Node1&#45;&gt;Node3</title>
<path fill="none" stroke="midnightblue" d="M135.73,-21.77C127.19,-20.51 118.55,-19.24 110.28,-18.01"/>
<polygon fill="midnightblue" stroke="midnightblue" points="135.28,-25.24 145.68,-23.24 136.3,-18.32 135.28,-25.24"/>
</g>
</g>
</svg>
