<?xml version="1.0" encoding="UTF-8" standalone="no"?>
<!DOCTYPE svg PUBLIC "-//W3C//DTD SVG 1.1//EN"
 "http://www.w3.org/Graphics/SVG/1.1/DTD/svg11.dtd">
<!-- Generated by graphviz version 2.43.0 (0)
 -->
<!-- Title: /home/nico/joda_tmp/tmp&#45;joda&#45;dirs/JODA&#45;gh/libs/joda/core/modules/parser/include/joda/parser/ReaderFlags.h Pages: 1 -->
<svg width="824pt" height="240pt"
 viewBox="0.00 0.00 824.00 240.00" xmlns="http://www.w3.org/2000/svg" xmlns:xlink="http://www.w3.org/1999/xlink">
<g id="graph0" class="graph" transform="scale(1 1) rotate(0) translate(4 236)">
<title>/home/nico/joda_tmp/tmp&#45;joda&#45;dirs/JODA&#45;gh/libs/joda/core/modules/parser/include/joda/parser/ReaderFlags.h</title>
<polygon fill="white" stroke="transparent" points="-4,4 -4,-236 820,-236 820,4 -4,4"/>
<!-- Node1 -->
<g id="node1" class="node">
<title>Node1</title>
<g id="a_node1"><a xlink:title=" ">
<polygon fill="#bfbfbf" stroke="black" points="371,-168.5 371,-231.5 517,-231.5 517,-168.5 371,-168.5"/>
<text text-anchor="start" x="379" y="-219.5" font-family="Helvetica,sans-Serif" font-size="10.00">/home/nico/joda_tmp</text>
<text text-anchor="start" x="379" y="-208.5" font-family="Helvetica,sans-Serif" font-size="10.00">/tmp&#45;joda&#45;dirs/JODA</text>
<text text-anchor="start" x="379" y="-197.5" font-family="Helvetica,sans-Serif" font-size="10.00">&#45;gh/libs/joda/core/modules</text>
<text text-anchor="start" x="379" y="-186.5" font-family="Helvetica,sans-Serif" font-size="10.00">/parser/include/joda/parser</text>
<text text-anchor="middle" x="444" y="-175.5" font-family="Helvetica,sans-Serif" font-size="10.00">/ReaderFlags.h</text>
</a>
</g>
</g>
<!-- Node2 -->
<g id="node2" class="node">
<title>Node2</title>
<g id="a_node2"><a xlink:href="../../df/db0/Queue_8h.html" target="_top" xlink:title=" ">
<polygon fill="white" stroke="black" points="372.5,-112.5 372.5,-131.5 515.5,-131.5 515.5,-112.5 372.5,-112.5"/>
<text text-anchor="middle" x="444" y="-119.5" font-family="Helvetica,sans-Serif" font-size="10.00">joda/concurrency/Queue.h</text>
</a>
</g>
</g>
<!-- Node1&#45;&gt;Node2 -->
<g id="edge1" class="edge">
<title>Node1&#45;&gt;Node2</title>
<path fill="none" stroke="midnightblue" d="M444,-168.09C444,-159.15 444,-149.67 444,-141.72"/>
<polygon fill="midnightblue" stroke="midnightblue" points="447.5,-141.72 444,-131.72 440.5,-141.72 447.5,-141.72"/>
</g>
<!-- Node3 -->
<g id="node3" class="node">
<title>Node3</title>
<g id="a_node3"><a xlink:title=" ">
<polygon fill="white" stroke="#bfbfbf" points="243,-56.5 243,-75.5 329,-75.5 329,-56.5 243,-56.5"/>
<text text-anchor="middle" x="286" y="-63.5" font-family="Helvetica,sans-Serif" font-size="10.00">glog/logging.h</text>
</a>
</g>
</g>
<!-- Node2&#45;&gt;Node3 -->
<g id="edge2" class="edge">
<title>Node2&#45;&gt;Node3</title>
<path fill="none" stroke="midnightblue" d="M418.96,-112.44C392.38,-103.36 350.19,-88.94 320.48,-78.78"/>
<polygon fill="midnightblue" stroke="midnightblue" points="321.51,-75.44 310.92,-75.52 319.25,-82.06 321.51,-75.44"/>
</g>
<!-- Node4 -->
<g id="node4" class="node">
<title>Node4</title>
<g id="a_node4"><a xlink:href="../../da/da5/concurrentqueue_8h.html" target="_top" xlink:title=" ">
<polygon fill="white" stroke="black" points="347,-56.5 347,-75.5 541,-75.5 541,-56.5 347,-56.5"/>
<text text-anchor="middle" x="444" y="-63.5" font-family="Helvetica,sans-Serif" font-size="10.00">joda/concurrency/concurrentqueue.h</text>
</a>
</g>
</g>
<!-- Node2&#45;&gt;Node4 -->
<g id="edge3" class="edge">
<title>Node2&#45;&gt;Node4</title>
<path fill="none" stroke="midnightblue" d="M444,-112.08C444,-105.01 444,-94.86 444,-85.99"/>
<polygon fill="midnightblue" stroke="midnightblue" points="447.5,-85.75 444,-75.75 440.5,-85.75 447.5,-85.75"/>
</g>
<!-- Node11 -->
<g id="node11" class="node">
<title>Node11</title>
<g id="a_node11"><a xlink:title=" ">
<polygon fill="white" stroke="#bfbfbf" points="766,-0.5 766,-19.5 816,-19.5 816,-0.5 766,-0.5"/>
<text text-anchor="middle" x="791" y="-7.5" font-family="Helvetica,sans-Serif" font-size="10.00">cstdint</text>
</a>
</g>
</g>
<!-- Node2&#45;&gt;Node11 -->
<g id="edge16" class="edge">
<title>Node2&#45;&gt;Node11</title>
<path fill="none" stroke="midnightblue" d="M470.94,-112.46C533.17,-92.73 686.85,-44.01 756.14,-22.05"/>
<polygon fill="midnightblue" stroke="midnightblue" points="757.25,-25.37 765.73,-19.01 755.14,-18.7 757.25,-25.37"/>
</g>
<!-- Node5 -->
<g id="node5" class="node">
<title>Node5</title>
<g id="a_node5"><a xlink:title=" ">
<polygon fill="white" stroke="#bfbfbf" points="0,-0.5 0,-19.5 50,-19.5 50,-0.5 0,-0.5"/>
<text text-anchor="middle" x="25" y="-7.5" font-family="Helvetica,sans-Serif" font-size="10.00">atomic</text>
</a>
</g>
</g>
<!-- Node4&#45;&gt;Node5 -->
<g id="edge4" class="edge">
<title>Node4&#45;&gt;Node5</title>
<path fill="none" stroke="midnightblue" d="M358.91,-56.48C268.09,-47.15 129.02,-32.12 60.19,-19.94"/>
<polygon fill="midnightblue" stroke="midnightblue" points="60.63,-16.46 50.16,-18.09 59.36,-23.34 60.63,-16.46"/>
</g>
<!-- Node6 -->
<g id="node6" class="node">
<title>Node6</title>
<g id="a_node6"><a xlink:title=" ">
<polygon fill="white" stroke="#bfbfbf" points="68,-0.5 68,-19.5 120,-19.5 120,-0.5 68,-0.5"/>
<text text-anchor="middle" x="94" y="-7.5" font-family="Helvetica,sans-Serif" font-size="10.00">cassert</text>
</a>
</g>
</g>
<!-- Node4&#45;&gt;Node6 -->
<g id="edge5" class="edge">
<title>Node4&#45;&gt;Node6</title>
<path fill="none" stroke="midnightblue" d="M367.86,-56.5C306.19,-49.07 216.92,-37.08 130.3,-20.08"/>
<polygon fill="midnightblue" stroke="midnightblue" points="130.79,-16.61 120.3,-18.09 129.43,-23.48 130.79,-16.61"/>
</g>
<!-- Node7 -->
<g id="node7" class="node">
<title>Node7</title>
<g id="a_node7"><a xlink:title=" ">
<polygon fill="white" stroke="#bfbfbf" points="138,-0.5 138,-19.5 202,-19.5 202,-0.5 138,-0.5"/>
<text text-anchor="middle" x="170" y="-7.5" font-family="Helvetica,sans-Serif" font-size="10.00">algorithm</text>
</a>
</g>
</g>
<!-- Node4&#45;&gt;Node7 -->
<g id="edge6" class="edge">
<title>Node4&#45;&gt;Node7</title>
<path fill="none" stroke="midnightblue" d="M397.95,-56.46C353.02,-48.05 282.46,-34.63 212.13,-20.2"/>
<polygon fill="midnightblue" stroke="midnightblue" points="212.71,-16.74 202.21,-18.15 211.3,-23.6 212.71,-16.74"/>
</g>
<!-- Node8 -->
<g id="node8" class="node">
<title>Node8</title>
<g id="a_node8"><a xlink:title=" ">
<polygon fill="white" stroke="#bfbfbf" points="220,-0.5 220,-19.5 262,-19.5 262,-0.5 220,-0.5"/>
<text text-anchor="middle" x="241" y="-7.5" font-family="Helvetica,sans-Serif" font-size="10.00">array</text>
</a>
</g>
</g>
<!-- Node4&#45;&gt;Node8 -->
<g id="edge7" class="edge">
<title>Node4&#45;&gt;Node8</title>
<path fill="none" stroke="midnightblue" d="M409.76,-56.49C376.84,-48.22 325.44,-35.08 272.23,-20.27"/>
<polygon fill="midnightblue" stroke="midnightblue" points="272.85,-16.81 262.28,-17.49 270.96,-23.55 272.85,-16.81"/>
</g>
<!-- Node9 -->
<g id="node9" class="node">
<title>Node9</title>
<g id="a_node9"><a xlink:title=" ">
<polygon fill="white" stroke="#bfbfbf" points="280,-0.5 280,-19.5 330,-19.5 330,-0.5 280,-0.5"/>
<text text-anchor="middle" x="305" y="-7.5" font-family="Helvetica,sans-Serif" font-size="10.00">climits</text>
</a>
</g>
</g>
<!-- Node4&#45;&gt;Node9 -->
<g id="edge8" class="edge">
<title>Node4&#45;&gt;Node9</title>
<path fill="none" stroke="midnightblue" d="M421.98,-56.44C398.9,-47.48 362.44,-33.31 336.36,-23.18"/>
<polygon fill="midnightblue" stroke="midnightblue" points="337.51,-19.88 326.92,-19.52 334.98,-26.4 337.51,-19.88"/>
</g>
<!-- Node10 -->
<g id="node10" class="node">
<title>Node10</title>
<g id="a_node10"><a xlink:title=" ">
<polygon fill="white" stroke="#bfbfbf" points="348.5,-0.5 348.5,-19.5 401.5,-19.5 401.5,-0.5 348.5,-0.5"/>
<text text-anchor="middle" x="375" y="-7.5" font-family="Helvetica,sans-Serif" font-size="10.00">cstddef</text>
</a>
</g>
</g>
<!-- Node4&#45;&gt;Node10 -->
<g id="edge9" class="edge">
<title>Node4&#45;&gt;Node10</title>
<path fill="none" stroke="midnightblue" d="M432.91,-56.32C422.51,-48.18 406.74,-35.84 394.28,-26.09"/>
<polygon fill="midnightblue" stroke="midnightblue" points="396.32,-23.24 386.29,-19.83 392.01,-28.75 396.32,-23.24"/>
</g>
<!-- Node4&#45;&gt;Node11 -->
<g id="edge10" class="edge">
<title>Node4&#45;&gt;Node11</title>
<path fill="none" stroke="midnightblue" d="M520.64,-56.5C581.91,-49.12 670.14,-37.21 755.92,-20.02"/>
<polygon fill="midnightblue" stroke="midnightblue" points="756.72,-23.43 765.83,-18.01 755.33,-16.57 756.72,-23.43"/>
</g>
<!-- Node12 -->
<g id="node12" class="node">
<title>Node12</title>
<g id="a_node12"><a xlink:title=" ">
<polygon fill="white" stroke="#bfbfbf" points="419.5,-0.5 419.5,-19.5 468.5,-19.5 468.5,-0.5 419.5,-0.5"/>
<text text-anchor="middle" x="444" y="-7.5" font-family="Helvetica,sans-Serif" font-size="10.00">cstdlib</text>
</a>
</g>
</g>
<!-- Node4&#45;&gt;Node12 -->
<g id="edge11" class="edge">
<title>Node4&#45;&gt;Node12</title>
<path fill="none" stroke="midnightblue" d="M444,-56.08C444,-49.01 444,-38.86 444,-29.99"/>
<polygon fill="midnightblue" stroke="midnightblue" points="447.5,-29.75 444,-19.75 440.5,-29.75 447.5,-29.75"/>
</g>
<!-- Node13 -->
<g id="node13" class="node">
<title>Node13</title>
<g id="a_node13"><a xlink:title=" ">
<polygon fill="white" stroke="#bfbfbf" points="487,-0.5 487,-19.5 531,-19.5 531,-0.5 487,-0.5"/>
<text text-anchor="middle" x="509" y="-7.5" font-family="Helvetica,sans-Serif" font-size="10.00">limits</text>
</a>
</g>
</g>
<!-- Node4&#45;&gt;Node13 -->
<g id="edge12" class="edge">
<title>Node4&#45;&gt;Node13</title>
<path fill="none" stroke="midnightblue" d="M454.44,-56.32C464.15,-48.26 478.82,-36.08 490.5,-26.37"/>
<polygon fill="midnightblue" stroke="midnightblue" points="492.91,-28.92 498.37,-19.83 488.44,-23.53 492.91,-28.92"/>
</g>
<!-- Node14 -->
<g id="node14" class="node">
<title>Node14</title>
<g id="a_node14"><a xlink:title=" ">
<polygon fill="white" stroke="#bfbfbf" points="549,-0.5 549,-19.5 597,-19.5 597,-0.5 549,-0.5"/>
<text text-anchor="middle" x="573" y="-7.5" font-family="Helvetica,sans-Serif" font-size="10.00">thread</text>
</a>
</g>
</g>
<!-- Node4&#45;&gt;Node14 -->
<g id="edge13" class="edge">
<title>Node4&#45;&gt;Node14</title>
<path fill="none" stroke="midnightblue" d="M464.44,-56.44C485.67,-47.56 519.1,-33.56 543.25,-23.45"/>
<polygon fill="midnightblue" stroke="midnightblue" points="544.78,-26.61 552.66,-19.52 542.08,-20.15 544.78,-26.61"/>
</g>
<!-- Node15 -->
<g id="node15" class="node">
<title>Node15</title>
<g id="a_node15"><a xlink:title=" ">
<polygon fill="white" stroke="#bfbfbf" points="615.5,-0.5 615.5,-19.5 684.5,-19.5 684.5,-0.5 615.5,-0.5"/>
<text text-anchor="middle" x="650" y="-7.5" font-family="Helvetica,sans-Serif" font-size="10.00">type_traits</text>
</a>
</g>
</g>
<!-- Node4&#45;&gt;Node15 -->
<g id="edge14" class="edge">
<title>Node4&#45;&gt;Node15</title>
<path fill="none" stroke="midnightblue" d="M476.64,-56.44C512.05,-47.16 568.71,-32.31 607.55,-22.13"/>
<polygon fill="midnightblue" stroke="midnightblue" points="608.73,-25.44 617.51,-19.52 606.95,-18.67 608.73,-25.44"/>
</g>
<!-- Node16 -->
<g id="node16" class="node">
<title>Node16</title>
<g id="a_node16"><a xlink:title=" ">
<polygon fill="white" stroke="#bfbfbf" points="702.5,-0.5 702.5,-19.5 747.5,-19.5 747.5,-0.5 702.5,-0.5"/>
<text text-anchor="middle" x="725" y="-7.5" font-family="Helvetica,sans-Serif" font-size="10.00">utility</text>
</a>
</g>
</g>
<!-- Node4&#45;&gt;Node16 -->
<g id="edge15" class="edge">
<title>Node4&#45;&gt;Node16</title>
<path fill="none" stroke="midnightblue" d="M500.94,-56.49C549.55,-48.83 621.49,-36.57 692.39,-20.2"/>
<polygon fill="midnightblue" stroke="midnightblue" points="693.44,-23.55 702.39,-17.86 691.85,-16.73 693.44,-23.55"/>
</g>
</g>
</svg>
