<?xml version="1.0" encoding="UTF-8" standalone="no"?>
<!DOCTYPE svg PUBLIC "-//W3C//DTD SVG 1.1//EN"
 "http://www.w3.org/Graphics/SVG/1.1/DTD/svg11.dtd">
<!-- Generated by graphviz version 2.43.0 (0)
 -->
<!-- Title: /home/nico/joda_tmp/tmp&#45;joda&#45;dirs/JODA&#45;gh/libs/joda/core/modules/queryparsing/src/states/Delete_State.h Pages: 1 -->
<!--zoomable 620 -->
<svg id="main" version="1.1" xmlns="http://www.w3.org/2000/svg" xmlns:xlink="http://www.w3.org/1999/xlink" xml:space="preserve" onload="init(evt)">
<style type="text/css"><![CDATA[
.edge:hover path { stroke: red; }
.edge:hover polygon { stroke: red; fill: red; }
]]></style>
<script type="text/javascript"><![CDATA[
var edges = document.getElementsByTagName('g');
if (edges && edges.length) {
  for (var i=0;i<edges.length;i++) {
    if (edges[i].id.substr(0,4)=='edge') {
      edges[i].setAttribute('class','edge');
    }
  }
}
]]></script>
        <defs>
                <circle id="rim" cx="0" cy="0" r="7"/>
                <circle id="rim2" cx="0" cy="0" r="3.5"/>
                <g id="zoomPlus">
                        <use xlink:href="#rim" fill="#404040">
                                <set attributeName="fill" to="#808080" begin="zoomplus.mouseover" end="zoomplus.mouseout"/>
                        </use>
                        <path d="M-4,0h8M0,-4v8" fill="none" stroke="white" stroke-width="1.5" pointer-events="none"/>
                </g>
                <g id="zoomMin">
                        <use xlink:href="#rim" fill="#404040">
                                <set attributeName="fill" to="#808080" begin="zoomminus.mouseover" end="zoomminus.mouseout"/>
                        </use>
                        <path d="M-4,0h8" fill="none" stroke="white" stroke-width="1.5" pointer-events="none"/>
                </g>
                <g id="dirArrow">
                        <path fill="none" stroke="white" stroke-width="1.5" d="M0,-3.0v7 M-2.5,-0.5L0,-3.0L2.5,-0.5"/>
                </g>
               <g id="resetDef">
                       <use xlink:href="#rim2" fill="#404040">
                               <set attributeName="fill" to="#808080" begin="reset.mouseover" end="reset.mouseout"/>
                       </use>
               </g>
        </defs>

<script type="text/javascript">
var viewWidth = 1494;
var viewHeight = 620;
var sectionId = 'dynsection-0';
</script>
<script xlink:href="../../svgpan.js"/>
<svg id="graph" class="graph">
<g id="viewport">
<title>/home/nico/joda_tmp/tmp&#45;joda&#45;dirs/JODA&#45;gh/libs/joda/core/modules/queryparsing/src/states/Delete_State.h</title>
<polygon fill="white" stroke="transparent" points="-4,4 -4,-616 1490,-616 1490,4 -4,4"/>
<!-- Node1 -->
<g id="node1" class="node">
<title>Node1</title>
<g id="a_node1"><a xlink:title=" ">
<polygon fill="#bfbfbf" stroke="black" points="1145,-548.5 1145,-611.5 1291,-611.5 1291,-548.5 1145,-548.5"/>
<text text-anchor="start" x="1153" y="-599.5" font-family="Helvetica,sans-Serif" font-size="10.00">/home/nico/joda_tmp</text>
<text text-anchor="start" x="1153" y="-588.5" font-family="Helvetica,sans-Serif" font-size="10.00">/tmp&#45;joda&#45;dirs/JODA</text>
<text text-anchor="start" x="1153" y="-577.5" font-family="Helvetica,sans-Serif" font-size="10.00">&#45;gh/libs/joda/core/modules</text>
<text text-anchor="start" x="1153" y="-566.5" font-family="Helvetica,sans-Serif" font-size="10.00">/queryparsing/src/states</text>
<text text-anchor="middle" x="1218" y="-555.5" font-family="Helvetica,sans-Serif" font-size="10.00">/Delete_State.h</text>
</a>
</g>
</g>
<!-- Node2 -->
<g id="node2" class="node">
<title>Node2</title>
<g id="a_node2"><a xlink:href="../../dc/dbc/Query__State_8h.html" target="_top" xlink:title=" ">
<polygon fill="white" stroke="black" points="1175,-492.5 1175,-511.5 1261,-511.5 1261,-492.5 1175,-492.5"/>
<text text-anchor="middle" x="1218" y="-499.5" font-family="Helvetica,sans-Serif" font-size="10.00">Query_State.h</text>
</a>
</g>
</g>
<!-- Node1&#45;&gt;Node2 -->
<g id="edge1" class="edge">
<title>Node1&#45;&gt;Node2</title>
<path fill="none" stroke="midnightblue" d="M1218,-548.09C1218,-539.15 1218,-529.67 1218,-521.72"/>
<polygon fill="midnightblue" stroke="midnightblue" points="1221.5,-521.72 1218,-511.72 1214.5,-521.72 1221.5,-521.72"/>
</g>
<!-- Node3 -->
<g id="node3" class="node">
<title>Node3</title>
<g id="a_node3"><a xlink:href="../../db/d52/Predicate_8h.html" target="_top" xlink:title=" ">
<polygon fill="white" stroke="black" points="1110.5,-425.5 1110.5,-455.5 1227.5,-455.5 1227.5,-425.5 1110.5,-425.5"/>
<text text-anchor="start" x="1118.5" y="-443.5" font-family="Helvetica,sans-Serif" font-size="10.00">joda/query/predicate</text>
<text text-anchor="middle" x="1169" y="-432.5" font-family="Helvetica,sans-Serif" font-size="10.00">/Predicate.h</text>
</a>
</g>
</g>
<!-- Node2&#45;&gt;Node3 -->
<g id="edge2" class="edge">
<title>Node2&#45;&gt;Node3</title>
<path fill="none" stroke="midnightblue" d="M1210.98,-492.48C1204.72,-484.87 1195.27,-473.4 1186.92,-463.26"/>
<polygon fill="midnightblue" stroke="midnightblue" points="1189.61,-461.02 1180.55,-455.52 1184.2,-465.47 1189.61,-461.02"/>
</g>
<!-- Node36 -->
<g id="node36" class="node">
<title>Node36</title>
<g id="a_node36"><a xlink:title=" ">
<polygon fill="white" stroke="#bfbfbf" points="1245.5,-431 1245.5,-450 1288.5,-450 1288.5,-431 1245.5,-431"/>
<text text-anchor="middle" x="1267" y="-438" font-family="Helvetica,sans-Serif" font-size="10.00">stack</text>
</a>
</g>
</g>
<!-- Node2&#45;&gt;Node36 -->
<g id="edge62" class="edge">
<title>Node2&#45;&gt;Node36</title>
<path fill="none" stroke="midnightblue" d="M1225.02,-492.48C1232.44,-483.46 1244.33,-469.02 1253.57,-457.81"/>
<polygon fill="midnightblue" stroke="midnightblue" points="1256.34,-459.95 1259.99,-450.01 1250.93,-455.5 1256.34,-459.95"/>
</g>
<!-- Node4 -->
<g id="node4" class="node">
<title>Node4</title>
<g id="a_node4"><a xlink:title=" ">
<polygon fill="white" stroke="#bfbfbf" points="1154,-112.5 1154,-131.5 1212,-131.5 1212,-112.5 1154,-112.5"/>
<text text-anchor="middle" x="1183" y="-119.5" font-family="Helvetica,sans-Serif" font-size="10.00">memory</text>
</a>
</g>
</g>
<!-- Node3&#45;&gt;Node4 -->
<g id="edge3" class="edge">
<title>Node3&#45;&gt;Node4</title>
<path fill="none" stroke="midnightblue" d="M1227.73,-426.01C1247.11,-418.47 1266.6,-406.84 1278,-389 1332.56,-303.59 1237.1,-182.71 1198.3,-139.3"/>
<polygon fill="midnightblue" stroke="midnightblue" points="1200.88,-136.94 1191.55,-131.91 1195.7,-141.66 1200.88,-136.94"/>
</g>
<!-- Node5 -->
<g id="node5" class="node">
<title>Node5</title>
<g id="a_node5"><a xlink:href="../../d3/dc8/PredicateVisitor_8h.html" target="_top" xlink:title=" ">
<polygon fill="white" stroke="black" points="949,-369.5 949,-388.5 1051,-388.5 1051,-369.5 949,-369.5"/>
<text text-anchor="middle" x="1000" y="-376.5" font-family="Helvetica,sans-Serif" font-size="10.00">PredicateVisitor.h</text>
</a>
</g>
</g>
<!-- Node3&#45;&gt;Node5 -->
<g id="edge4" class="edge">
<title>Node3&#45;&gt;Node5</title>
<path fill="none" stroke="midnightblue" d="M1128.95,-425.4C1100.09,-415.24 1061.55,-401.67 1034.15,-392.02"/>
<polygon fill="midnightblue" stroke="midnightblue" points="1035.19,-388.68 1024.59,-388.66 1032.86,-395.28 1035.19,-388.68"/>
</g>
<!-- Node7 -->
<g id="node7" class="node">
<title>Node7</title>
<g id="a_node7"><a xlink:href="../../d1/dfd/RapidJsonDocument_8h.html" target="_top" xlink:title=" ">
<polygon fill="white" stroke="black" points="1069,-369.5 1069,-388.5 1269,-388.5 1269,-369.5 1069,-369.5"/>
<text text-anchor="middle" x="1169" y="-376.5" font-family="Helvetica,sans-Serif" font-size="10.00">joda/document/RapidJsonDocument.h</text>
</a>
</g>
</g>
<!-- Node3&#45;&gt;Node7 -->
<g id="edge7" class="edge">
<title>Node3&#45;&gt;Node7</title>
<path fill="none" stroke="midnightblue" d="M1169,-425.4C1169,-417.47 1169,-407.46 1169,-398.86"/>
<polygon fill="midnightblue" stroke="midnightblue" points="1172.5,-398.66 1169,-388.66 1165.5,-398.66 1172.5,-398.66"/>
</g>
<!-- Node5&#45;&gt;Node4 -->
<g id="edge6" class="edge">
<title>Node5&#45;&gt;Node4</title>
<path fill="none" stroke="midnightblue" d="M1013.24,-369.39C1038.42,-352.42 1093.56,-312.24 1126,-266 1154.05,-226.02 1171.1,-170.25 1178.56,-141.61"/>
<polygon fill="midnightblue" stroke="midnightblue" points="1182,-142.28 1181.03,-131.73 1175.21,-140.59 1182,-142.28"/>
</g>
<!-- Node6 -->
<g id="node6" class="node">
<title>Node6</title>
<g id="a_node6"><a xlink:title=" ">
<polygon fill="white" stroke="#bfbfbf" points="0,-308 0,-327 52,-327 52,-308 0,-308"/>
<text text-anchor="middle" x="26" y="-315" font-family="Helvetica,sans-Serif" font-size="10.00">cassert</text>
</a>
</g>
</g>
<!-- Node5&#45;&gt;Node6 -->
<g id="edge5" class="edge">
<title>Node5&#45;&gt;Node6</title>
<path fill="none" stroke="midnightblue" d="M948.97,-377.55C779.59,-375.73 237.11,-367.32 66,-333 62.56,-332.31 59.03,-331.38 55.55,-330.32"/>
<polygon fill="midnightblue" stroke="midnightblue" points="56.61,-326.98 46.01,-327.08 54.36,-333.61 56.61,-326.98"/>
</g>
<!-- Node7&#45;&gt;Node4 -->
<g id="edge49" class="edge">
<title>Node7&#45;&gt;Node4</title>
<path fill="none" stroke="midnightblue" d="M1169.48,-369.22C1171.48,-332.82 1179.14,-193.27 1181.96,-142.02"/>
<polygon fill="midnightblue" stroke="midnightblue" points="1185.47,-141.92 1182.52,-131.74 1178.48,-141.53 1185.47,-141.92"/>
</g>
<!-- Node8 -->
<g id="node8" class="node">
<title>Node8</title>
<g id="a_node8"><a xlink:href="../../d2/d0d/ViewLayer_8h.html" target="_top" xlink:title=" ">
<polygon fill="white" stroke="black" points="689,-302.5 689,-332.5 805,-332.5 805,-302.5 689,-302.5"/>
<text text-anchor="start" x="697" y="-320.5" font-family="Helvetica,sans-Serif" font-size="10.00">joda/document/view</text>
<text text-anchor="middle" x="747" y="-309.5" font-family="Helvetica,sans-Serif" font-size="10.00">/ViewLayer.h</text>
</a>
</g>
</g>
<!-- Node7&#45;&gt;Node8 -->
<g id="edge8" class="edge">
<title>Node7&#45;&gt;Node8</title>
<path fill="none" stroke="midnightblue" d="M1108.54,-369.48C1030.95,-358.54 896.7,-339.61 815.44,-328.15"/>
<polygon fill="midnightblue" stroke="midnightblue" points="815.7,-324.65 805.31,-326.72 814.73,-331.58 815.7,-324.65"/>
</g>
<!-- Node13 -->
<g id="node13" class="node">
<title>Node13</title>
<g id="a_node13"><a xlink:href="../../d6/d09/RJFwd_8h.html" target="_top" xlink:title=" ">
<polygon fill="white" stroke="black" points="921,-56.5 921,-75.5 1027,-75.5 1027,-56.5 921,-56.5"/>
<text text-anchor="middle" x="974" y="-63.5" font-family="Helvetica,sans-Serif" font-size="10.00">joda/misc/RJFwd.h</text>
</a>
</g>
</g>
<!-- Node7&#45;&gt;Node13 -->
<g id="edge61" class="edge">
<title>Node7&#45;&gt;Node13</title>
<path fill="none" stroke="midnightblue" d="M1175.05,-369.41C1199.67,-333.34 1287.92,-192.21 1221,-112 1198.04,-84.48 1102.65,-73.75 1037.36,-69.59"/>
<polygon fill="midnightblue" stroke="midnightblue" points="1037.35,-66.08 1027.16,-68.98 1036.93,-73.07 1037.35,-66.08"/>
</g>
<!-- Node14 -->
<g id="node14" class="node">
<title>Node14</title>
<g id="a_node14"><a xlink:title=" ">
<polygon fill="white" stroke="#bfbfbf" points="295,-0.5 295,-19.5 417,-19.5 417,-0.5 295,-0.5"/>
<text text-anchor="middle" x="356" y="-7.5" font-family="Helvetica,sans-Serif" font-size="10.00">rapidjson/allocators.h</text>
</a>
</g>
</g>
<!-- Node7&#45;&gt;Node14 -->
<g id="edge46" class="edge">
<title>Node7&#45;&gt;Node14</title>
<path fill="none" stroke="midnightblue" d="M1068.92,-369.64C1065.92,-369.42 1062.94,-369.21 1060,-369 950.68,-361.27 80,-366.6 80,-257 80,-257 80,-257 80,-121 80,-74.13 219.08,-38.37 299.78,-21.57"/>
<polygon fill="midnightblue" stroke="midnightblue" points="300.71,-24.95 309.8,-19.52 299.3,-18.09 300.71,-24.95"/>
</g>
<!-- Node16 -->
<g id="node16" class="node">
<title>Node16</title>
<g id="a_node16"><a xlink:title=" ">
<polygon fill="white" stroke="#bfbfbf" points="1326.5,-0.5 1326.5,-19.5 1417.5,-19.5 1417.5,-0.5 1326.5,-0.5"/>
<text text-anchor="middle" x="1372" y="-7.5" font-family="Helvetica,sans-Serif" font-size="10.00">rapidjson/fwd.h</text>
</a>
</g>
</g>
<!-- Node7&#45;&gt;Node16 -->
<g id="edge47" class="edge">
<title>Node7&#45;&gt;Node16</title>
<path fill="none" stroke="midnightblue" d="M1219.93,-369.44C1309.54,-352.92 1486,-313.26 1486,-257 1486,-257 1486,-257 1486,-121 1486,-74.11 1435.45,-40.89 1401.67,-23.93"/>
<polygon fill="midnightblue" stroke="midnightblue" points="1403.17,-20.77 1392.64,-19.58 1400.13,-27.07 1403.17,-20.77"/>
</g>
<!-- Node31 -->
<g id="node31" class="node">
<title>Node31</title>
<g id="a_node31"><a xlink:title=" ">
<polygon fill="white" stroke="#bfbfbf" points="1105,-308 1105,-327 1155,-327 1155,-308 1105,-308"/>
<text text-anchor="middle" x="1130" y="-315" font-family="Helvetica,sans-Serif" font-size="10.00">atomic</text>
</a>
</g>
</g>
<!-- Node7&#45;&gt;Node31 -->
<g id="edge48" class="edge">
<title>Node7&#45;&gt;Node31</title>
<path fill="none" stroke="midnightblue" d="M1163.41,-369.48C1157.62,-360.64 1148.41,-346.59 1141.13,-335.48"/>
<polygon fill="midnightblue" stroke="midnightblue" points="1143.99,-333.45 1135.58,-327.01 1138.13,-337.29 1143.99,-333.45"/>
</g>
<!-- Node32 -->
<g id="node32" class="node">
<title>Node32</title>
<g id="a_node32"><a xlink:href="../../df/d13/FileNameRepo_8h.html" target="_top" xlink:title=" ">
<polygon fill="white" stroke="black" points="146.5,-168.5 146.5,-209.5 301.5,-209.5 301.5,-168.5 146.5,-168.5"/>
<text text-anchor="start" x="154.5" y="-197.5" font-family="Helvetica,sans-Serif" font-size="10.00">../../../../../misc</text>
<text text-anchor="start" x="154.5" y="-186.5" font-family="Helvetica,sans-Serif" font-size="10.00">/include/joda/misc/FileName</text>
<text text-anchor="middle" x="224" y="-175.5" font-family="Helvetica,sans-Serif" font-size="10.00">Repo.h</text>
</a>
</g>
</g>
<!-- Node7&#45;&gt;Node32 -->
<g id="edge50" class="edge">
<title>Node7&#45;&gt;Node32</title>
<path fill="none" stroke="midnightblue" d="M1070.66,-369.5C938.98,-358.03 717.52,-338.41 680,-333 527.56,-311.03 482.61,-324.17 340,-266 309.36,-253.5 278.18,-232.52 255.88,-215.76"/>
<polygon fill="midnightblue" stroke="midnightblue" points="257.86,-212.87 247.78,-209.57 253.6,-218.43 257.86,-212.87"/>
</g>
<!-- Node34 -->
<g id="node34" class="node">
<title>Node34</title>
<g id="a_node34"><a xlink:href="../../d5/d6c/IOrigin_8h.html" target="_top" xlink:title=" ">
<polygon fill="white" stroke="black" points="1287,-179.5 1287,-198.5 1345,-198.5 1345,-179.5 1287,-179.5"/>
<text text-anchor="middle" x="1316" y="-186.5" font-family="Helvetica,sans-Serif" font-size="10.00">IOrigin.h</text>
</a>
</g>
</g>
<!-- Node7&#45;&gt;Node34 -->
<g id="edge56" class="edge">
<title>Node7&#45;&gt;Node34</title>
<path fill="none" stroke="midnightblue" d="M1185.76,-369.43C1200.13,-361.47 1220.73,-348.51 1235,-333 1270.63,-294.28 1296.97,-237.12 1308.9,-208.2"/>
<polygon fill="midnightblue" stroke="midnightblue" points="1312.28,-209.17 1312.76,-198.59 1305.79,-206.57 1312.28,-209.17"/>
</g>
<!-- Node9 -->
<g id="node9" class="node">
<title>Node9</title>
<g id="a_node9"><a xlink:title=" ">
<polygon fill="white" stroke="#bfbfbf" points="684,-0.5 684,-19.5 770,-19.5 770,-0.5 684,-0.5"/>
<text text-anchor="middle" x="727" y="-7.5" font-family="Helvetica,sans-Serif" font-size="10.00">glog/logging.h</text>
</a>
</g>
</g>
<!-- Node8&#45;&gt;Node9 -->
<g id="edge9" class="edge">
<title>Node8&#45;&gt;Node9</title>
<path fill="none" stroke="midnightblue" d="M750.9,-302.48C753.49,-292.42 756.66,-278.49 758,-266 758.95,-257.16 758.58,-254.87 758,-246 752.69,-165.1 737.19,-69.54 730.33,-29.79"/>
<polygon fill="midnightblue" stroke="midnightblue" points="733.78,-29.17 728.61,-19.92 726.88,-30.38 733.78,-29.17"/>
</g>
<!-- Node10 -->
<g id="node10" class="node">
<title>Node10</title>
<g id="a_node10"><a xlink:href="../../db/d16/config_8h.html" target="_top" xlink:title=" ">
<polygon fill="white" stroke="black" points="408.5,-246.5 408.5,-265.5 519.5,-265.5 519.5,-246.5 408.5,-246.5"/>
<text text-anchor="middle" x="464" y="-253.5" font-family="Helvetica,sans-Serif" font-size="10.00">joda/config/config.h</text>
</a>
</g>
</g>
<!-- Node8&#45;&gt;Node10 -->
<g id="edge10" class="edge">
<title>Node8&#45;&gt;Node10</title>
<path fill="none" stroke="midnightblue" d="M688.71,-304.24C637.5,-293.48 563.74,-277.97 514.87,-267.7"/>
<polygon fill="midnightblue" stroke="midnightblue" points="515.35,-264.22 504.84,-265.59 513.91,-271.07 515.35,-264.22"/>
</g>
<!-- Node8&#45;&gt;Node13 -->
<g id="edge13" class="edge">
<title>Node8&#45;&gt;Node13</title>
<path fill="none" stroke="midnightblue" d="M805.23,-310.42C868.62,-302.81 964.85,-288.04 994,-266 1030.23,-238.61 1033.17,-212.27 1023,-168 1015.79,-136.64 997.5,-103.72 985.42,-84.3"/>
<polygon fill="midnightblue" stroke="midnightblue" points="988.25,-82.22 979.91,-75.68 982.35,-85.99 988.25,-82.22"/>
</g>
<!-- Node19 -->
<g id="node19" class="node">
<title>Node19</title>
<g id="a_node19"><a xlink:title=" ">
<polygon fill="white" stroke="#bfbfbf" points="537.5,-246.5 537.5,-265.5 666.5,-265.5 666.5,-246.5 537.5,-246.5"/>
<text text-anchor="middle" x="602" y="-253.5" font-family="Helvetica,sans-Serif" font-size="10.00">rapidjson/stringbuffer.h</text>
</a>
</g>
</g>
<!-- Node8&#45;&gt;Node19 -->
<g id="edge20" class="edge">
<title>Node8&#45;&gt;Node19</title>
<path fill="none" stroke="midnightblue" d="M712.64,-302.4C688.31,-292.42 655.97,-279.15 632.54,-269.53"/>
<polygon fill="midnightblue" stroke="midnightblue" points="633.68,-266.22 623.1,-265.66 631.02,-272.69 633.68,-266.22"/>
</g>
<!-- Node20 -->
<g id="node20" class="node">
<title>Node20</title>
<g id="a_node20"><a xlink:title=" ">
<polygon fill="white" stroke="#bfbfbf" points="685,-246.5 685,-265.5 749,-265.5 749,-246.5 685,-246.5"/>
<text text-anchor="middle" x="717" y="-253.5" font-family="Helvetica,sans-Serif" font-size="10.00">algorithm</text>
</a>
</g>
</g>
<!-- Node8&#45;&gt;Node20 -->
<g id="edge21" class="edge">
<title>Node8&#45;&gt;Node20</title>
<path fill="none" stroke="midnightblue" d="M739.89,-302.4C735.71,-294.11 730.39,-283.55 725.93,-274.71"/>
<polygon fill="midnightblue" stroke="midnightblue" points="728.99,-273.01 721.37,-265.66 722.74,-276.16 728.99,-273.01"/>
</g>
<!-- Node21 -->
<g id="node21" class="node">
<title>Node21</title>
<g id="a_node21"><a xlink:title=" ">
<polygon fill="white" stroke="#bfbfbf" points="326,-112.5 326,-131.5 374,-131.5 374,-112.5 326,-112.5"/>
<text text-anchor="middle" x="350" y="-119.5" font-family="Helvetica,sans-Serif" font-size="10.00">mutex</text>
</a>
</g>
</g>
<!-- Node8&#45;&gt;Node21 -->
<g id="edge22" class="edge">
<title>Node8&#45;&gt;Node21</title>
<path fill="none" stroke="midnightblue" d="M688.74,-317.25C591.6,-317.18 402.68,-311.08 357,-266 323.91,-233.34 335.44,-172.08 344.05,-141.43"/>
<polygon fill="midnightblue" stroke="midnightblue" points="347.46,-142.23 347,-131.64 340.76,-140.2 347.46,-142.23"/>
</g>
<!-- Node22 -->
<g id="node22" class="node">
<title>Node22</title>
<g id="a_node22"><a xlink:title=" ">
<polygon fill="white" stroke="#bfbfbf" points="213.5,-56.5 213.5,-75.5 306.5,-75.5 306.5,-56.5 213.5,-56.5"/>
<text text-anchor="middle" x="260" y="-63.5" font-family="Helvetica,sans-Serif" font-size="10.00">unordered_map</text>
</a>
</g>
</g>
<!-- Node8&#45;&gt;Node22 -->
<g id="edge23" class="edge">
<title>Node8&#45;&gt;Node22</title>
<path fill="none" stroke="midnightblue" d="M688.92,-315.88C549.64,-312.99 203.27,-297.03 137,-210 110.61,-175.35 112.05,-147.7 137,-112 152.11,-90.38 178.79,-79.11 203.44,-73.26"/>
<polygon fill="midnightblue" stroke="midnightblue" points="204.43,-76.63 213.48,-71.13 202.98,-69.78 204.43,-76.63"/>
</g>
<!-- Node23 -->
<g id="node23" class="node">
<title>Node23</title>
<g id="a_node23"><a xlink:title=" ">
<polygon fill="white" stroke="#bfbfbf" points="915.5,-246.5 915.5,-265.5 966.5,-265.5 966.5,-246.5 915.5,-246.5"/>
<text text-anchor="middle" x="941" y="-253.5" font-family="Helvetica,sans-Serif" font-size="10.00">variant</text>
</a>
</g>
</g>
<!-- Node8&#45;&gt;Node23 -->
<g id="edge24" class="edge">
<title>Node8&#45;&gt;Node23</title>
<path fill="none" stroke="midnightblue" d="M792.98,-302.4C827.45,-291.83 873.95,-277.56 905.57,-267.87"/>
<polygon fill="midnightblue" stroke="midnightblue" points="906.75,-271.17 915.28,-264.89 904.69,-264.47 906.75,-271.17"/>
</g>
<!-- Node24 -->
<g id="node24" class="node">
<title>Node24</title>
<g id="a_node24"><a xlink:title=" ">
<polygon fill="white" stroke="#bfbfbf" points="1061,-246.5 1061,-265.5 1117,-265.5 1117,-246.5 1061,-246.5"/>
<text text-anchor="middle" x="1089" y="-253.5" font-family="Helvetica,sans-Serif" font-size="10.00">optional</text>
</a>
</g>
</g>
<!-- Node8&#45;&gt;Node24 -->
<g id="edge25" class="edge">
<title>Node8&#45;&gt;Node24</title>
<path fill="none" stroke="midnightblue" d="M805.21,-307.49C865.75,-297.93 963.22,-282.02 1047,-266 1048.24,-265.76 1049.49,-265.52 1050.76,-265.27"/>
<polygon fill="midnightblue" stroke="midnightblue" points="1051.47,-268.7 1060.57,-263.27 1050.07,-261.84 1051.47,-268.7"/>
</g>
<!-- Node25 -->
<g id="node25" class="node">
<title>Node25</title>
<g id="a_node25"><a xlink:href="../../da/d3b/ObjectIterator_8h.html" target="_top" xlink:title=" ">
<polygon fill="white" stroke="black" points="805,-246.5 805,-265.5 897,-265.5 897,-246.5 805,-246.5"/>
<text text-anchor="middle" x="851" y="-253.5" font-family="Helvetica,sans-Serif" font-size="10.00">ObjectIterator.h</text>
</a>
</g>
</g>
<!-- Node8&#45;&gt;Node25 -->
<g id="edge26" class="edge">
<title>Node8&#45;&gt;Node25</title>
<path fill="none" stroke="midnightblue" d="M771.65,-302.4C788.32,-292.86 810.23,-280.32 826.81,-270.84"/>
<polygon fill="midnightblue" stroke="midnightblue" points="828.93,-273.66 835.87,-265.66 825.45,-267.59 828.93,-273.66"/>
</g>
<!-- Node28 -->
<g id="node28" class="node">
<title>Node28</title>
<g id="a_node28"><a xlink:href="../../d5/de2/ViewCursor_8h.html" target="_top" xlink:title=" ">
<polygon fill="white" stroke="black" points="934,-179.5 934,-198.5 1014,-198.5 1014,-179.5 934,-179.5"/>
<text text-anchor="middle" x="974" y="-186.5" font-family="Helvetica,sans-Serif" font-size="10.00">ViewCursor.h</text>
</a>
</g>
</g>
<!-- Node8&#45;&gt;Node28 -->
<g id="edge39" class="edge">
<title>Node8&#45;&gt;Node28</title>
<path fill="none" stroke="midnightblue" d="M805.01,-311.78C865.4,-305.52 954.06,-292.08 975,-266 987.87,-249.96 984.7,-225.28 980.25,-208.43"/>
<polygon fill="midnightblue" stroke="midnightblue" points="983.54,-207.21 977.29,-198.65 976.84,-209.24 983.54,-207.21"/>
</g>
<!-- Node29 -->
<g id="node29" class="node">
<title>Node29</title>
<g id="a_node29"><a xlink:href="../../d0/d10/ViewStructure_8h.html" target="_top" xlink:title=" ">
<polygon fill="white" stroke="black" points="468,-112.5 468,-131.5 562,-131.5 562,-112.5 468,-112.5"/>
<text text-anchor="middle" x="515" y="-119.5" font-family="Helvetica,sans-Serif" font-size="10.00">ViewStructure.h</text>
</a>
</g>
</g>
<!-- Node8&#45;&gt;Node29 -->
<g id="edge40" class="edge">
<title>Node8&#45;&gt;Node29</title>
<path fill="none" stroke="midnightblue" d="M688.99,-316.85C599.9,-316 435.8,-308.53 399,-266 368.41,-230.65 436.39,-228.98 456,-210 477.56,-189.13 495.77,-159.17 506.03,-140.41"/>
<polygon fill="midnightblue" stroke="midnightblue" points="509.17,-141.98 510.77,-131.5 502.99,-138.69 509.17,-141.98"/>
</g>
<!-- Node30 -->
<g id="node30" class="node">
<title>Node30</title>
<g id="a_node30"><a xlink:href="../../d8/dee/VirtualObject_8h.html" target="_top" xlink:title=" ">
<polygon fill="white" stroke="black" points="358.5,-179.5 358.5,-198.5 447.5,-198.5 447.5,-179.5 358.5,-179.5"/>
<text text-anchor="middle" x="403" y="-186.5" font-family="Helvetica,sans-Serif" font-size="10.00">VirtualObject.h</text>
</a>
</g>
</g>
<!-- Node8&#45;&gt;Node30 -->
<g id="edge41" class="edge">
<title>Node8&#45;&gt;Node30</title>
<path fill="none" stroke="midnightblue" d="M688.65,-312.94C587.17,-306.15 386.91,-289.87 366,-266 350.29,-248.07 369.41,-222.3 385.49,-205.85"/>
<polygon fill="midnightblue" stroke="midnightblue" points="388.22,-208.08 392.97,-198.61 383.35,-203.05 388.22,-208.08"/>
</g>
<!-- Node11 -->
<g id="node11" class="node">
<title>Node11</title>
<g id="a_node11"><a xlink:title=" ">
<polygon fill="white" stroke="#bfbfbf" points="618,-179.5 618,-198.5 672,-198.5 672,-179.5 618,-179.5"/>
<text text-anchor="middle" x="645" y="-186.5" font-family="Helvetica,sans-Serif" font-size="10.00">istream</text>
</a>
</g>
</g>
<!-- Node10&#45;&gt;Node11 -->
<g id="edge11" class="edge">
<title>Node10&#45;&gt;Node11</title>
<path fill="none" stroke="midnightblue" d="M494.76,-246.49C523.43,-238.24 567.17,-224.81 604,-210 609.1,-207.95 614.46,-205.54 619.55,-203.11"/>
<polygon fill="midnightblue" stroke="midnightblue" points="621.45,-206.08 628.88,-198.52 618.36,-199.79 621.45,-206.08"/>
</g>
<!-- Node12 -->
<g id="node12" class="node">
<title>Node12</title>
<g id="a_node12"><a xlink:title=" ">
<polygon fill="white" stroke="#bfbfbf" points="493,-56.5 493,-75.5 537,-75.5 537,-56.5 493,-56.5"/>
<text text-anchor="middle" x="515" y="-63.5" font-family="Helvetica,sans-Serif" font-size="10.00">string</text>
</a>
</g>
</g>
<!-- Node10&#45;&gt;Node12 -->
<g id="edge12" class="edge">
<title>Node10&#45;&gt;Node12</title>
<path fill="none" stroke="midnightblue" d="M475.67,-246.46C499.17,-228.46 551.56,-183.96 571,-132 574.11,-123.67 574.84,-120.02 571,-112 564.75,-98.95 552.66,-88.49 541.32,-80.95"/>
<polygon fill="midnightblue" stroke="midnightblue" points="542.85,-77.79 532.5,-75.54 539.19,-83.75 542.85,-77.79"/>
</g>
<!-- Node13&#45;&gt;Node9 -->
<g id="edge14" class="edge">
<title>Node13&#45;&gt;Node9</title>
<path fill="none" stroke="midnightblue" d="M934.86,-56.44C891.77,-47.02 822.44,-31.87 775.83,-21.68"/>
<polygon fill="midnightblue" stroke="midnightblue" points="776.47,-18.23 765.95,-19.52 774.98,-25.07 776.47,-18.23"/>
</g>
<!-- Node13&#45;&gt;Node14 -->
<g id="edge15" class="edge">
<title>Node13&#45;&gt;Node14</title>
<path fill="none" stroke="midnightblue" d="M920.77,-60.35C809.57,-50.63 552.55,-28.17 427.25,-17.23"/>
<polygon fill="midnightblue" stroke="midnightblue" points="427.27,-13.71 417,-16.33 426.66,-20.69 427.27,-13.71"/>
</g>
<!-- Node15 -->
<g id="node15" class="node">
<title>Node15</title>
<g id="a_node15"><a xlink:title=" ">
<polygon fill="white" stroke="#bfbfbf" points="914,-0.5 914,-19.5 1036,-19.5 1036,-0.5 914,-0.5"/>
<text text-anchor="middle" x="975" y="-7.5" font-family="Helvetica,sans-Serif" font-size="10.00">rapidjson/document.h</text>
</a>
</g>
</g>
<!-- Node13&#45;&gt;Node15 -->
<g id="edge16" class="edge">
<title>Node13&#45;&gt;Node15</title>
<path fill="none" stroke="midnightblue" d="M974.17,-56.08C974.3,-49.01 974.48,-38.86 974.65,-29.99"/>
<polygon fill="midnightblue" stroke="midnightblue" points="978.15,-29.81 974.84,-19.75 971.15,-29.68 978.15,-29.81"/>
</g>
<!-- Node13&#45;&gt;Node16 -->
<g id="edge17" class="edge">
<title>Node13&#45;&gt;Node16</title>
<path fill="none" stroke="midnightblue" d="M1027.26,-57.77C1102.67,-47.54 1239.89,-28.92 1316.5,-18.53"/>
<polygon fill="midnightblue" stroke="midnightblue" points="1317.01,-21.99 1326.44,-17.18 1316.06,-15.06 1317.01,-21.99"/>
</g>
<!-- Node17 -->
<g id="node17" class="node">
<title>Node17</title>
<g id="a_node17"><a xlink:title=" ">
<polygon fill="white" stroke="#bfbfbf" points="1054,-0.5 1054,-19.5 1204,-19.5 1204,-0.5 1054,-0.5"/>
<text text-anchor="middle" x="1129" y="-7.5" font-family="Helvetica,sans-Serif" font-size="10.00">rapidjson/istreamwrapper.h</text>
</a>
</g>
</g>
<!-- Node13&#45;&gt;Node17 -->
<g id="edge18" class="edge">
<title>Node13&#45;&gt;Node17</title>
<path fill="none" stroke="midnightblue" d="M998.56,-56.44C1024.52,-47.4 1065.67,-33.06 1094.8,-22.92"/>
<polygon fill="midnightblue" stroke="midnightblue" points="1096.26,-26.11 1104.55,-19.52 1093.96,-19.5 1096.26,-26.11"/>
</g>
<!-- Node18 -->
<g id="node18" class="node">
<title>Node18</title>
<g id="a_node18"><a xlink:title=" ">
<polygon fill="white" stroke="#bfbfbf" points="788.5,-0.5 788.5,-19.5 895.5,-19.5 895.5,-0.5 788.5,-0.5"/>
<text text-anchor="middle" x="842" y="-7.5" font-family="Helvetica,sans-Serif" font-size="10.00">rapidjson/pointer.h</text>
</a>
</g>
</g>
<!-- Node13&#45;&gt;Node18 -->
<g id="edge19" class="edge">
<title>Node13&#45;&gt;Node18</title>
<path fill="none" stroke="midnightblue" d="M953.08,-56.44C931.26,-47.52 896.85,-33.44 872.11,-23.32"/>
<polygon fill="midnightblue" stroke="midnightblue" points="873.4,-20.06 862.82,-19.52 870.75,-26.54 873.4,-20.06"/>
</g>
<!-- Node25&#45;&gt;Node12 -->
<g id="edge28" class="edge">
<title>Node25&#45;&gt;Node12</title>
<path fill="none" stroke="midnightblue" d="M835.69,-246.43C782.34,-216.58 604.33,-116.98 539.17,-80.52"/>
<polygon fill="midnightblue" stroke="midnightblue" points="540.84,-77.45 530.4,-75.62 537.42,-83.55 540.84,-77.45"/>
</g>
<!-- Node25&#45;&gt;Node13 -->
<g id="edge27" class="edge">
<title>Node25&#45;&gt;Node13</title>
<path fill="none" stroke="midnightblue" d="M850.05,-246.27C848.66,-229.9 847.57,-193.92 861,-168 881.24,-128.92 923.28,-97.79 949.98,-80.9"/>
<polygon fill="midnightblue" stroke="midnightblue" points="952.04,-83.75 958.73,-75.53 948.38,-77.78 952.04,-83.75"/>
</g>
<!-- Node26 -->
<g id="node26" class="node">
<title>Node26</title>
<g id="a_node26"><a xlink:title=" ">
<polygon fill="white" stroke="#bfbfbf" points="870.5,-179.5 870.5,-198.5 915.5,-198.5 915.5,-179.5 870.5,-179.5"/>
<text text-anchor="middle" x="893" y="-186.5" font-family="Helvetica,sans-Serif" font-size="10.00">utility</text>
</a>
</g>
</g>
<!-- Node25&#45;&gt;Node26 -->
<g id="edge29" class="edge">
<title>Node25&#45;&gt;Node26</title>
<path fill="none" stroke="midnightblue" d="M856.66,-246.23C863.09,-236.29 873.72,-219.84 881.83,-207.29"/>
<polygon fill="midnightblue" stroke="midnightblue" points="884.94,-208.93 887.43,-198.63 879.06,-205.13 884.94,-208.93"/>
</g>
<!-- Node27 -->
<g id="node27" class="node">
<title>Node27</title>
<g id="a_node27"><a xlink:title=" ">
<polygon fill="white" stroke="#bfbfbf" points="793.5,-112.5 793.5,-131.5 840.5,-131.5 840.5,-112.5 793.5,-112.5"/>
<text text-anchor="middle" x="817" y="-119.5" font-family="Helvetica,sans-Serif" font-size="10.00">vector</text>
</a>
</g>
</g>
<!-- Node25&#45;&gt;Node27 -->
<g id="edge30" class="edge">
<title>Node25&#45;&gt;Node27</title>
<path fill="none" stroke="midnightblue" d="M845.47,-246.42C840.09,-237.64 832.14,-223.41 828,-210 820.97,-187.21 818.43,-159.72 817.51,-141.83"/>
<polygon fill="midnightblue" stroke="midnightblue" points="821,-141.46 817.11,-131.6 814,-141.73 821,-141.46"/>
</g>
<!-- Node25&#45;&gt;Node28 -->
<g id="edge31" class="edge">
<title>Node25&#45;&gt;Node28</title>
<path fill="none" stroke="midnightblue" d="M867.33,-246.37C888.1,-235.39 924.19,-216.32 948.57,-203.44"/>
<polygon fill="midnightblue" stroke="midnightblue" points="950.39,-206.43 957.6,-198.67 947.12,-200.25 950.39,-206.43"/>
</g>
<!-- Node28&#45;&gt;Node4 -->
<g id="edge33" class="edge">
<title>Node28&#45;&gt;Node4</title>
<path fill="none" stroke="midnightblue" d="M1001.75,-179.37C1038.79,-167.85 1104.47,-147.42 1145.78,-134.58"/>
<polygon fill="midnightblue" stroke="midnightblue" points="1146.96,-137.88 1155.46,-131.56 1144.88,-131.19 1146.96,-137.88"/>
</g>
<!-- Node28&#45;&gt;Node13 -->
<g id="edge32" class="edge">
<title>Node28&#45;&gt;Node13</title>
<path fill="none" stroke="midnightblue" d="M974,-179.3C974,-159.85 974,-112.49 974,-85.9"/>
<polygon fill="midnightblue" stroke="midnightblue" points="977.5,-85.62 974,-75.62 970.5,-85.62 977.5,-85.62"/>
</g>
<!-- Node28&#45;&gt;Node27 -->
<g id="edge34" class="edge">
<title>Node28&#45;&gt;Node27</title>
<path fill="none" stroke="midnightblue" d="M953.15,-179.37C926.06,-168.15 878.54,-148.48 847.42,-135.59"/>
<polygon fill="midnightblue" stroke="midnightblue" points="848.51,-132.26 837.93,-131.67 845.84,-138.73 848.51,-132.26"/>
</g>
<!-- Node28&#45;&gt;Node29 -->
<g id="edge35" class="edge">
<title>Node28&#45;&gt;Node29</title>
<path fill="none" stroke="midnightblue" d="M955.87,-179.37C946.55,-175.29 934.88,-170.72 924,-168 801.14,-137.28 652.29,-127.52 572.37,-124.43"/>
<polygon fill="midnightblue" stroke="midnightblue" points="572.15,-120.92 562.03,-124.06 571.9,-127.92 572.15,-120.92"/>
</g>
<!-- Node29&#45;&gt;Node12 -->
<g id="edge37" class="edge">
<title>Node29&#45;&gt;Node12</title>
<path fill="none" stroke="midnightblue" d="M515,-112.08C515,-105.01 515,-94.86 515,-85.99"/>
<polygon fill="midnightblue" stroke="midnightblue" points="518.5,-85.75 515,-75.75 511.5,-85.75 518.5,-85.75"/>
</g>
<!-- Node29&#45;&gt;Node13 -->
<g id="edge36" class="edge">
<title>Node29&#45;&gt;Node13</title>
<path fill="none" stroke="midnightblue" d="M562.39,-115.42C645.51,-105.65 817.59,-85.4 910.76,-74.44"/>
<polygon fill="midnightblue" stroke="midnightblue" points="911.37,-77.89 920.89,-73.25 910.55,-70.94 911.37,-77.89"/>
</g>
<!-- Node29&#45;&gt;Node22 -->
<g id="edge38" class="edge">
<title>Node29&#45;&gt;Node22</title>
<path fill="none" stroke="midnightblue" d="M474.59,-112.44C430.02,-103 358.23,-87.8 310.11,-77.61"/>
<polygon fill="midnightblue" stroke="midnightblue" points="310.72,-74.16 300.22,-75.52 309.27,-81.01 310.72,-74.16"/>
</g>
<!-- Node30&#45;&gt;Node9 -->
<g id="edge42" class="edge">
<title>Node30&#45;&gt;Node9</title>
<path fill="none" stroke="midnightblue" d="M405.31,-179.2C412.3,-154.56 435.76,-84.82 484,-56 542.41,-21.11 621.69,-12.18 673.58,-10.43"/>
<polygon fill="midnightblue" stroke="midnightblue" points="673.99,-13.92 683.9,-10.17 673.82,-6.92 673.99,-13.92"/>
</g>
<!-- Node30&#45;&gt;Node12 -->
<g id="edge44" class="edge">
<title>Node30&#45;&gt;Node12</title>
<path fill="none" stroke="midnightblue" d="M408.24,-179.47C417.47,-164.8 437.67,-134.24 459,-112 469.63,-100.92 482.98,-90.09 493.98,-81.83"/>
<polygon fill="midnightblue" stroke="midnightblue" points="496.21,-84.54 502.21,-75.81 492.07,-78.9 496.21,-84.54"/>
</g>
<!-- Node30&#45;&gt;Node13 -->
<g id="edge43" class="edge">
<title>Node30&#45;&gt;Node13</title>
<path fill="none" stroke="midnightblue" d="M443.15,-179.49C544.7,-157.97 811.6,-101.41 923.49,-77.7"/>
<polygon fill="midnightblue" stroke="midnightblue" points="924.45,-81.08 933.51,-75.58 923,-74.23 924.45,-81.08"/>
</g>
<!-- Node30&#45;&gt;Node29 -->
<g id="edge45" class="edge">
<title>Node30&#45;&gt;Node29</title>
<path fill="none" stroke="midnightblue" d="M418.1,-179.23C436.91,-168.32 469.25,-149.55 491.36,-136.72"/>
<polygon fill="midnightblue" stroke="midnightblue" points="493.24,-139.67 500.13,-131.63 489.73,-133.62 493.24,-139.67"/>
</g>
<!-- Node32&#45;&gt;Node12 -->
<g id="edge52" class="edge">
<title>Node32&#45;&gt;Node12</title>
<path fill="none" stroke="midnightblue" d="M242.44,-168.47C259.99,-151.05 287.96,-126.18 317,-112 371.52,-85.37 442.23,-74.21 482.72,-69.75"/>
<polygon fill="midnightblue" stroke="midnightblue" points="483.23,-73.22 492.81,-68.71 482.51,-66.25 483.23,-73.22"/>
</g>
<!-- Node32&#45;&gt;Node21 -->
<g id="edge51" class="edge">
<title>Node32&#45;&gt;Node21</title>
<path fill="none" stroke="midnightblue" d="M261.8,-168.5C281.87,-158.15 306.01,-145.69 323.96,-136.43"/>
<polygon fill="midnightblue" stroke="midnightblue" points="325.94,-139.35 333.23,-131.65 322.74,-133.13 325.94,-139.35"/>
</g>
<!-- Node32&#45;&gt;Node22 -->
<g id="edge53" class="edge">
<title>Node32&#45;&gt;Node22</title>
<path fill="none" stroke="midnightblue" d="M230.03,-168.32C233.3,-157.59 237.4,-144.07 241,-132 245.67,-116.33 250.87,-98.51 254.65,-85.49"/>
<polygon fill="midnightblue" stroke="midnightblue" points="258.03,-86.42 257.45,-75.84 251.3,-84.47 258.03,-86.42"/>
</g>
<!-- Node32&#45;&gt;Node27 -->
<g id="edge55" class="edge">
<title>Node32&#45;&gt;Node27</title>
<path fill="none" stroke="midnightblue" d="M301.57,-174.81C317.25,-172.37 333.63,-169.97 349,-168 511,-147.27 705.66,-131.46 782.96,-125.54"/>
<polygon fill="midnightblue" stroke="midnightblue" points="783.37,-129.01 793.08,-124.77 782.84,-122.04 783.37,-129.01"/>
</g>
<!-- Node33 -->
<g id="node33" class="node">
<title>Node33</title>
<g id="a_node33"><a xlink:title=" ">
<polygon fill="white" stroke="#bfbfbf" points="146,-112.5 146,-131.5 232,-131.5 232,-112.5 146,-112.5"/>
<text text-anchor="middle" x="189" y="-119.5" font-family="Helvetica,sans-Serif" font-size="10.00">unordered_set</text>
</a>
</g>
</g>
<!-- Node32&#45;&gt;Node33 -->
<g id="edge54" class="edge">
<title>Node32&#45;&gt;Node33</title>
<path fill="none" stroke="midnightblue" d="M213.5,-168.5C208.7,-159.59 203.06,-149.11 198.4,-140.46"/>
<polygon fill="midnightblue" stroke="midnightblue" points="201.48,-138.8 193.66,-131.65 195.32,-142.12 201.48,-138.8"/>
</g>
<!-- Node34&#45;&gt;Node4 -->
<g id="edge59" class="edge">
<title>Node34&#45;&gt;Node4</title>
<path fill="none" stroke="midnightblue" d="M1298.34,-179.37C1275.68,-168.3 1236.17,-148.99 1209.8,-136.1"/>
<polygon fill="midnightblue" stroke="midnightblue" points="1211.26,-132.91 1200.73,-131.67 1208.18,-139.2 1211.26,-132.91"/>
</g>
<!-- Node34&#45;&gt;Node9 -->
<g id="edge57" class="edge">
<title>Node34&#45;&gt;Node9</title>
<path fill="none" stroke="midnightblue" d="M1314.47,-179.42C1311.17,-163.53 1301.85,-129.56 1280,-112 1106.13,27.75 1005.64,-52.57 780.25,-20.1"/>
<polygon fill="midnightblue" stroke="midnightblue" points="780.52,-16.6 770.11,-18.57 779.48,-23.52 780.52,-16.6"/>
</g>
<!-- Node34&#45;&gt;Node13 -->
<g id="edge60" class="edge">
<title>Node34&#45;&gt;Node13</title>
<path fill="none" stroke="midnightblue" d="M1311.62,-179.19C1303.04,-162.91 1282.32,-128.33 1254,-112 1218.07,-91.29 1108.17,-78.35 1037.22,-71.92"/>
<polygon fill="midnightblue" stroke="midnightblue" points="1037.32,-68.42 1027.05,-71.02 1036.7,-75.39 1037.32,-68.42"/>
</g>
<!-- Node35 -->
<g id="node35" class="node">
<title>Node35</title>
<g id="a_node35"><a xlink:title=" ">
<polygon fill="white" stroke="#bfbfbf" points="1344,-112.5 1344,-131.5 1458,-131.5 1458,-112.5 1344,-112.5"/>
<text text-anchor="middle" x="1401" y="-119.5" font-family="Helvetica,sans-Serif" font-size="10.00">boost/operators.hpp</text>
</a>
</g>
</g>
<!-- Node34&#45;&gt;Node35 -->
<g id="edge58" class="edge">
<title>Node34&#45;&gt;Node35</title>
<path fill="none" stroke="midnightblue" d="M1327.46,-179.23C1341.36,-168.61 1364.98,-150.55 1381.69,-137.76"/>
<polygon fill="midnightblue" stroke="midnightblue" points="1383.9,-140.48 1389.72,-131.63 1379.65,-134.92 1383.9,-140.48"/>
</g>
</g>
</svg>
        <g id="navigator" transform="translate(0 0)" fill="#404254">
                <rect fill="#f2f5e9" fill-opacity="0.5" stroke="#606060" stroke-width=".5" x="0" y="0" width="60" height="60"/>
                <use id="zoomplus" xlink:href="#zoomPlus" x="17" y="9" onmousedown="handleZoom(evt,'in')"/>
                <use id="zoomminus" xlink:href="#zoomMin" x="42" y="9" onmousedown="handleZoom(evt,'out')"/>
                <use id="reset" xlink:href="#resetDef" x="30" y="36" onmousedown="handleReset()"/>
                <g id="arrowUp" xlink:href="#dirArrow" transform="translate(30 24)" onmousedown="handlePan(0,-1)">
                  <use xlink:href="#rim" fill="#404040">
                        <set attributeName="fill" to="#808080" begin="arrowUp.mouseover" end="arrowUp.mouseout"/>
                  </use>
                  <path fill="none" stroke="white" stroke-width="1.5" d="M0,-3.0v7 M-2.5,-0.5L0,-3.0L2.5,-0.5"/>
                </g>
                <g id="arrowRight" xlink:href="#dirArrow" transform="rotate(90) translate(36 -43)" onmousedown="handlePan(1,0)">
                  <use xlink:href="#rim" fill="#404040">
                        <set attributeName="fill" to="#808080" begin="arrowRight.mouseover" end="arrowRight.mouseout"/>
                  </use>
                  <path fill="none" stroke="white" stroke-width="1.5" d="M0,-3.0v7 M-2.5,-0.5L0,-3.0L2.5,-0.5"/>
                </g>
                <g id="arrowDown" xlink:href="#dirArrow" transform="rotate(180) translate(-30 -48)" onmousedown="handlePan(0,1)">
                  <use xlink:href="#rim" fill="#404040">
                        <set attributeName="fill" to="#808080" begin="arrowDown.mouseover" end="arrowDown.mouseout"/>
                  </use>
                  <path fill="none" stroke="white" stroke-width="1.5" d="M0,-3.0v7 M-2.5,-0.5L0,-3.0L2.5,-0.5"/>
                </g>
                <g id="arrowLeft" xlink:href="#dirArrow" transform="rotate(270) translate(-36 17)" onmousedown="handlePan(-1,0)">
                  <use xlink:href="#rim" fill="#404040">
                        <set attributeName="fill" to="#808080" begin="arrowLeft.mouseover" end="arrowLeft.mouseout"/>
                  </use>
                  <path fill="none" stroke="white" stroke-width="1.5" d="M0,-3.0v7 M-2.5,-0.5L0,-3.0L2.5,-0.5"/>
                </g>
        </g>
        <svg viewBox="0 0 15 15" width="100%" height="30px" preserveAspectRatio="xMaxYMin meet">
         <g id="arrow_out" transform="scale(0.3 0.3)">
          <a xlink:href="Delete__State_8h__incl_org.svg" target="_base">
           <rect id="button" ry="5" rx="5" y="6" x="6" height="38" width="38"
                fill="#f2f5e9" fill-opacity="0.5" stroke="#606060" stroke-width="1.0"/>
           <path id="arrow"
             d="M 11.500037,31.436501 C 11.940474,20.09759 22.043105,11.32322 32.158766,21.979434 L 37.068811,17.246167 C 37.068811,17.246167 37.088388,32 37.088388,32 L 22.160133,31.978069 C 22.160133,31.978069 26.997745,27.140456 26.997745,27.140456 C 18.528582,18.264221 13.291696,25.230495 11.500037,31.436501 z"
             style="fill:#404040;"/>
          </a>
         </g>
        </svg>
</svg>
