<?xml version="1.0" encoding="UTF-8" standalone="no"?>
<!DOCTYPE svg PUBLIC "-//W3C//DTD SVG 1.1//EN"
 "http://www.w3.org/Graphics/SVG/1.1/DTD/svg11.dtd">
<!-- Generated by graphviz version 2.43.0 (0)
 -->
<!-- Title: StorageExport::getTemporaryResultID Pages: 1 -->
<svg width="327pt" height="88pt"
 viewBox="0.00 0.00 327.00 88.00" xmlns="http://www.w3.org/2000/svg" xmlns:xlink="http://www.w3.org/1999/xlink">
<g id="graph0" class="graph" transform="scale(1 1) rotate(0) translate(4 84)">
<title>StorageExport::getTemporaryResultID</title>
<polygon fill="white" stroke="transparent" points="-4,4 -4,-84 323,-84 323,4 -4,4"/>
<!-- Node1 -->
<g id="node1" class="node">
<title>Node1</title>
<g id="a_node1"><a xlink:title=" ">
<polygon fill="#bfbfbf" stroke="black" points="0,-24.5 0,-54.5 159,-54.5 159,-24.5 0,-24.5"/>
<text text-anchor="start" x="8" y="-42.5" font-family="Helvetica,sans-Serif" font-size="10.00">StorageExport::getTemporary</text>
<text text-anchor="middle" x="79.5" y="-31.5" font-family="Helvetica,sans-Serif" font-size="10.00">ResultID</text>
</a>
</g>
</g>
<!-- Node2 -->
<g id="node2" class="node">
<title>Node2</title>
<g id="a_node2"><a xlink:href="../../da/d91/classStorageCollection.html#a16dae9e53a04213d4e9db4576fff5503" target="_top" xlink:title=" ">
<polygon fill="white" stroke="black" points="195,-49.5 195,-79.5 319,-79.5 319,-49.5 195,-49.5"/>
<text text-anchor="start" x="203" y="-67.5" font-family="Helvetica,sans-Serif" font-size="10.00">StorageCollection::</text>
<text text-anchor="middle" x="257" y="-56.5" font-family="Helvetica,sans-Serif" font-size="10.00">addTemporaryStorage</text>
</a>
</g>
</g>
<!-- Node1&#45;&gt;Node2 -->
<g id="edge1" class="edge">
<title>Node1&#45;&gt;Node2</title>
<path fill="none" stroke="midnightblue" d="M159.01,-50.68C167.67,-51.92 176.45,-53.17 185.01,-54.39"/>
<polygon fill="midnightblue" stroke="midnightblue" points="184.54,-57.86 194.93,-55.8 185.53,-50.93 184.54,-57.86"/>
</g>
<!-- Node3 -->
<g id="node3" class="node">
<title>Node3</title>
<g id="a_node3"><a xlink:href="../../da/d91/classStorageCollection.html#a8eab1f456e898e39c546d49b17374990" target="_top" xlink:title=" ">
<polygon fill="white" stroke="black" points="202.5,-0.5 202.5,-30.5 311.5,-30.5 311.5,-0.5 202.5,-0.5"/>
<text text-anchor="start" x="210.5" y="-18.5" font-family="Helvetica,sans-Serif" font-size="10.00">StorageCollection::</text>
<text text-anchor="middle" x="257" y="-7.5" font-family="Helvetica,sans-Serif" font-size="10.00">getInstance</text>
</a>
</g>
</g>
<!-- Node1&#45;&gt;Node3 -->
<g id="edge2" class="edge">
<title>Node1&#45;&gt;Node3</title>
<path fill="none" stroke="midnightblue" d="M159.01,-28.76C170.15,-27.24 181.48,-25.69 192.29,-24.21"/>
<polygon fill="midnightblue" stroke="midnightblue" points="193.03,-27.64 202.47,-22.82 192.09,-20.71 193.03,-27.64"/>
</g>
</g>
</svg>
