<?xml version="1.0" encoding="UTF-8" standalone="no"?>
<!DOCTYPE svg PUBLIC "-//W3C//DTD SVG 1.1//EN"
 "http://www.w3.org/Graphics/SVG/1.1/DTD/svg11.dtd">
<!-- Generated by graphviz version 2.43.0 (0)
 -->
<!-- Title: joda::query::UnaryStringProvider::getValue Pages: 1 -->
<svg width="691pt" height="137pt"
 viewBox="0.00 0.00 691.00 137.00" xmlns="http://www.w3.org/2000/svg" xmlns:xlink="http://www.w3.org/1999/xlink">
<g id="graph0" class="graph" transform="scale(1 1) rotate(0) translate(4 133)">
<title>joda::query::UnaryStringProvider::getValue</title>
<polygon fill="white" stroke="transparent" points="-4,4 -4,-133 687,-133 687,4 -4,4"/>
<!-- Node1 -->
<g id="node1" class="node">
<title>Node1</title>
<g id="a_node1"><a xlink:title=" ">
<polygon fill="#bfbfbf" stroke="black" points="0,-49.5 0,-79.5 134,-79.5 134,-49.5 0,-49.5"/>
<text text-anchor="start" x="8" y="-67.5" font-family="Helvetica,sans-Serif" font-size="10.00">joda::query::UnaryString</text>
<text text-anchor="middle" x="67" y="-56.5" font-family="Helvetica,sans-Serif" font-size="10.00">Provider::getValue</text>
</a>
</g>
</g>
<!-- Node2 -->
<g id="node2" class="node">
<title>Node2</title>
<g id="a_node2"><a xlink:href="../../d4/df5/classjoda_1_1query_1_1IValueProvider.html#a2be55dc72b74ef1961453ab9d79fc121" target="_top" xlink:title=" ">
<polygon fill="white" stroke="black" points="170,-49.5 170,-79.5 317,-79.5 317,-49.5 170,-49.5"/>
<text text-anchor="start" x="178" y="-67.5" font-family="Helvetica,sans-Serif" font-size="10.00">joda::query::IValueProvider</text>
<text text-anchor="middle" x="243.5" y="-56.5" font-family="Helvetica,sans-Serif" font-size="10.00">::isAtom</text>
</a>
</g>
</g>
<!-- Node1&#45;&gt;Node2 -->
<g id="edge1" class="edge">
<title>Node1&#45;&gt;Node2</title>
<path fill="none" stroke="midnightblue" d="M134.47,-64.5C142.69,-64.5 151.16,-64.5 159.59,-64.5"/>
<polygon fill="midnightblue" stroke="midnightblue" points="159.82,-68 169.82,-64.5 159.82,-61 159.82,-68"/>
</g>
<!-- Node3 -->
<g id="node3" class="node">
<title>Node3</title>
<g id="a_node3"><a xlink:href="../../d4/df5/classjoda_1_1query_1_1IValueProvider.html#a76d7b247bd53ae37ccd91f8780d4962b" target="_top" xlink:title=" ">
<polygon fill="white" stroke="black" points="353,-98.5 353,-128.5 500,-128.5 500,-98.5 353,-98.5"/>
<text text-anchor="start" x="361" y="-116.5" font-family="Helvetica,sans-Serif" font-size="10.00">joda::query::IValueProvider</text>
<text text-anchor="middle" x="426.5" y="-105.5" font-family="Helvetica,sans-Serif" font-size="10.00">::isBool</text>
</a>
</g>
</g>
<!-- Node2&#45;&gt;Node3 -->
<g id="edge2" class="edge">
<title>Node2&#45;&gt;Node3</title>
<path fill="none" stroke="midnightblue" d="M300.28,-79.6C319.21,-84.73 340.52,-90.5 360.13,-95.8"/>
<polygon fill="midnightblue" stroke="midnightblue" points="359.33,-99.21 369.9,-98.45 361.16,-92.46 359.33,-99.21"/>
</g>
<!-- Node5 -->
<g id="node5" class="node">
<title>Node5</title>
<g id="a_node5"><a xlink:href="../../d4/df5/classjoda_1_1query_1_1IValueProvider.html#ad7a62a3523b14ac2c46165520cac2901" target="_top" xlink:title=" ">
<polygon fill="white" stroke="black" points="353,-49.5 353,-79.5 500,-79.5 500,-49.5 353,-49.5"/>
<text text-anchor="start" x="361" y="-67.5" font-family="Helvetica,sans-Serif" font-size="10.00">joda::query::IValueProvider</text>
<text text-anchor="middle" x="426.5" y="-56.5" font-family="Helvetica,sans-Serif" font-size="10.00">::isNumber</text>
</a>
</g>
</g>
<!-- Node2&#45;&gt;Node5 -->
<g id="edge4" class="edge">
<title>Node2&#45;&gt;Node5</title>
<path fill="none" stroke="midnightblue" d="M317.08,-64.5C325.56,-64.5 334.26,-64.5 342.87,-64.5"/>
<polygon fill="midnightblue" stroke="midnightblue" points="342.91,-68 352.91,-64.5 342.91,-61 342.91,-68"/>
</g>
<!-- Node6 -->
<g id="node6" class="node">
<title>Node6</title>
<g id="a_node6"><a xlink:href="../../d4/df5/classjoda_1_1query_1_1IValueProvider.html#ade80632b99c01d164cd8923e2b70f90e" target="_top" xlink:title=" ">
<polygon fill="white" stroke="black" points="353,-0.5 353,-30.5 500,-30.5 500,-0.5 353,-0.5"/>
<text text-anchor="start" x="361" y="-18.5" font-family="Helvetica,sans-Serif" font-size="10.00">joda::query::IValueProvider</text>
<text text-anchor="middle" x="426.5" y="-7.5" font-family="Helvetica,sans-Serif" font-size="10.00">::isString</text>
</a>
</g>
</g>
<!-- Node2&#45;&gt;Node6 -->
<g id="edge6" class="edge">
<title>Node2&#45;&gt;Node6</title>
<path fill="none" stroke="midnightblue" d="M300.28,-49.4C319.21,-44.27 340.52,-38.5 360.13,-33.2"/>
<polygon fill="midnightblue" stroke="midnightblue" points="361.16,-36.54 369.9,-30.55 359.33,-29.79 361.16,-36.54"/>
</g>
<!-- Node4 -->
<g id="node4" class="node">
<title>Node4</title>
<g id="a_node4"><a xlink:href="../../d4/df5/classjoda_1_1query_1_1IValueProvider.html#a7353bb4809b215603871f5ddaa353285" target="_top" xlink:title=" ">
<polygon fill="white" stroke="black" points="536,-49.5 536,-79.5 683,-79.5 683,-49.5 536,-49.5"/>
<text text-anchor="start" x="544" y="-67.5" font-family="Helvetica,sans-Serif" font-size="10.00">joda::query::IValueProvider</text>
<text text-anchor="middle" x="609.5" y="-56.5" font-family="Helvetica,sans-Serif" font-size="10.00">::getReturnType</text>
</a>
</g>
</g>
<!-- Node3&#45;&gt;Node4 -->
<g id="edge3" class="edge">
<title>Node3&#45;&gt;Node4</title>
<path fill="none" stroke="midnightblue" d="M483.28,-98.4C502.21,-93.27 523.52,-87.5 543.13,-82.2"/>
<polygon fill="midnightblue" stroke="midnightblue" points="544.16,-85.54 552.9,-79.55 542.33,-78.79 544.16,-85.54"/>
</g>
<!-- Node5&#45;&gt;Node4 -->
<g id="edge5" class="edge">
<title>Node5&#45;&gt;Node4</title>
<path fill="none" stroke="midnightblue" d="M500.08,-64.5C508.56,-64.5 517.26,-64.5 525.87,-64.5"/>
<polygon fill="midnightblue" stroke="midnightblue" points="525.91,-68 535.91,-64.5 525.91,-61 525.91,-68"/>
</g>
<!-- Node6&#45;&gt;Node4 -->
<g id="edge7" class="edge">
<title>Node6&#45;&gt;Node4</title>
<path fill="none" stroke="midnightblue" d="M483.28,-30.6C502.21,-35.73 523.52,-41.5 543.13,-46.8"/>
<polygon fill="midnightblue" stroke="midnightblue" points="542.33,-50.21 552.9,-49.45 544.16,-43.46 542.33,-50.21"/>
</g>
</g>
</svg>
