<?xml version="1.0" encoding="UTF-8" standalone="no"?>
<!DOCTYPE svg PUBLIC "-//W3C//DTD SVG 1.1//EN"
 "http://www.w3.org/Graphics/SVG/1.1/DTD/svg11.dtd">
<!-- Generated by graphviz version 2.43.0 (0)
 -->
<!-- Title: joda::query::UnaryStringProvider::UnaryStringProvider Pages: 1 -->
<svg width="734pt" height="186pt"
 viewBox="0.00 0.00 734.00 186.00" xmlns="http://www.w3.org/2000/svg" xmlns:xlink="http://www.w3.org/1999/xlink">
<g id="graph0" class="graph" transform="scale(1 1) rotate(0) translate(4 182)">
<title>joda::query::UnaryStringProvider::UnaryStringProvider</title>
<polygon fill="white" stroke="transparent" points="-4,4 -4,-182 730,-182 730,4 -4,4"/>
<!-- Node1 -->
<g id="node1" class="node">
<title>Node1</title>
<g id="a_node1"><a xlink:title=" ">
<polygon fill="#bfbfbf" stroke="black" points="0,-98.5 0,-128.5 161,-128.5 161,-98.5 0,-98.5"/>
<text text-anchor="start" x="8" y="-116.5" font-family="Helvetica,sans-Serif" font-size="10.00">joda::query::UnaryString</text>
<text text-anchor="middle" x="80.5" y="-105.5" font-family="Helvetica,sans-Serif" font-size="10.00">Provider::UnaryStringProvider</text>
</a>
</g>
</g>
<!-- Node2 -->
<g id="node2" class="node">
<title>Node2</title>
<g id="a_node2"><a xlink:href="../../df/dc9/classjoda_1_1query_1_1UnaryStringProvider.html#a25a6eb1676a89bbf4599768ecc7a02f4" target="_top" xlink:title=" ">
<polygon fill="white" stroke="black" points="197,-147.5 197,-177.5 360,-177.5 360,-147.5 197,-147.5"/>
<text text-anchor="start" x="205" y="-165.5" font-family="Helvetica,sans-Serif" font-size="10.00">joda::query::UnaryString</text>
<text text-anchor="middle" x="278.5" y="-154.5" font-family="Helvetica,sans-Serif" font-size="10.00">Provider::checkAllParamTypes</text>
</a>
</g>
</g>
<!-- Node1&#45;&gt;Node2 -->
<g id="edge1" class="edge">
<title>Node1&#45;&gt;Node2</title>
<path fill="none" stroke="midnightblue" d="M141.64,-128.53C162.52,-133.76 186.11,-139.65 207.71,-145.05"/>
<polygon fill="midnightblue" stroke="midnightblue" points="206.92,-148.46 217.48,-147.49 208.62,-141.67 206.92,-148.46"/>
</g>
<!-- Node4 -->
<g id="node4" class="node">
<title>Node4</title>
<g id="a_node4"><a xlink:href="../../d4/df5/classjoda_1_1query_1_1IValueProvider.html#a2310d3dc6335655f3a216322539dfa64" target="_top" xlink:title=" ">
<polygon fill="white" stroke="black" points="205,-98.5 205,-128.5 352,-128.5 352,-98.5 205,-98.5"/>
<text text-anchor="start" x="213" y="-116.5" font-family="Helvetica,sans-Serif" font-size="10.00">joda::query::IValueProvider</text>
<text text-anchor="middle" x="278.5" y="-105.5" font-family="Helvetica,sans-Serif" font-size="10.00">::checkParamSize</text>
</a>
</g>
</g>
<!-- Node1&#45;&gt;Node4 -->
<g id="edge3" class="edge">
<title>Node1&#45;&gt;Node4</title>
<path fill="none" stroke="midnightblue" d="M161.22,-113.5C172.26,-113.5 183.61,-113.5 194.7,-113.5"/>
<polygon fill="midnightblue" stroke="midnightblue" points="194.8,-117 204.8,-113.5 194.8,-110 194.8,-117"/>
</g>
<!-- Node5 -->
<g id="node5" class="node">
<title>Node5</title>
<g id="a_node5"><a xlink:href="../../d4/df5/classjoda_1_1query_1_1IValueProvider.html#a2be55dc72b74ef1961453ab9d79fc121" target="_top" xlink:title=" ">
<polygon fill="white" stroke="black" points="205,-49.5 205,-79.5 352,-79.5 352,-49.5 205,-49.5"/>
<text text-anchor="start" x="213" y="-67.5" font-family="Helvetica,sans-Serif" font-size="10.00">joda::query::IValueProvider</text>
<text text-anchor="middle" x="278.5" y="-56.5" font-family="Helvetica,sans-Serif" font-size="10.00">::isAtom</text>
</a>
</g>
</g>
<!-- Node1&#45;&gt;Node5 -->
<g id="edge4" class="edge">
<title>Node1&#45;&gt;Node5</title>
<path fill="none" stroke="midnightblue" d="M141.64,-98.47C162.52,-93.24 186.11,-87.35 207.71,-81.95"/>
<polygon fill="midnightblue" stroke="midnightblue" points="208.62,-85.33 217.48,-79.51 206.92,-78.54 208.62,-85.33"/>
</g>
<!-- Node3 -->
<g id="node3" class="node">
<title>Node3</title>
<g id="a_node3"><a xlink:href="../../d4/df5/classjoda_1_1query_1_1IValueProvider.html#a7d30b7bd59391b93f085dee6ad823ef3" target="_top" xlink:title=" ">
<polygon fill="white" stroke="black" points="396,-147.5 396,-177.5 543,-177.5 543,-147.5 396,-147.5"/>
<text text-anchor="start" x="404" y="-165.5" font-family="Helvetica,sans-Serif" font-size="10.00">joda::query::IValueProvider</text>
<text text-anchor="middle" x="469.5" y="-154.5" font-family="Helvetica,sans-Serif" font-size="10.00">::checkParamType</text>
</a>
</g>
</g>
<!-- Node2&#45;&gt;Node3 -->
<g id="edge2" class="edge">
<title>Node2&#45;&gt;Node3</title>
<path fill="none" stroke="midnightblue" d="M360.2,-162.5C368.62,-162.5 377.18,-162.5 385.62,-162.5"/>
<polygon fill="midnightblue" stroke="midnightblue" points="385.84,-166 395.84,-162.5 385.84,-159 385.84,-166"/>
</g>
<!-- Node6 -->
<g id="node6" class="node">
<title>Node6</title>
<g id="a_node6"><a xlink:href="../../d4/df5/classjoda_1_1query_1_1IValueProvider.html#a76d7b247bd53ae37ccd91f8780d4962b" target="_top" xlink:title=" ">
<polygon fill="white" stroke="black" points="396,-98.5 396,-128.5 543,-128.5 543,-98.5 396,-98.5"/>
<text text-anchor="start" x="404" y="-116.5" font-family="Helvetica,sans-Serif" font-size="10.00">joda::query::IValueProvider</text>
<text text-anchor="middle" x="469.5" y="-105.5" font-family="Helvetica,sans-Serif" font-size="10.00">::isBool</text>
</a>
</g>
</g>
<!-- Node5&#45;&gt;Node6 -->
<g id="edge5" class="edge">
<title>Node5&#45;&gt;Node6</title>
<path fill="none" stroke="midnightblue" d="M337.49,-79.53C357.54,-84.73 380.17,-90.6 400.92,-95.98"/>
<polygon fill="midnightblue" stroke="midnightblue" points="400.06,-99.37 410.62,-98.49 401.82,-92.6 400.06,-99.37"/>
</g>
<!-- Node8 -->
<g id="node8" class="node">
<title>Node8</title>
<g id="a_node8"><a xlink:href="../../d4/df5/classjoda_1_1query_1_1IValueProvider.html#ad7a62a3523b14ac2c46165520cac2901" target="_top" xlink:title=" ">
<polygon fill="white" stroke="black" points="396,-49.5 396,-79.5 543,-79.5 543,-49.5 396,-49.5"/>
<text text-anchor="start" x="404" y="-67.5" font-family="Helvetica,sans-Serif" font-size="10.00">joda::query::IValueProvider</text>
<text text-anchor="middle" x="469.5" y="-56.5" font-family="Helvetica,sans-Serif" font-size="10.00">::isNumber</text>
</a>
</g>
</g>
<!-- Node5&#45;&gt;Node8 -->
<g id="edge7" class="edge">
<title>Node5&#45;&gt;Node8</title>
<path fill="none" stroke="midnightblue" d="M352.03,-64.5C363.03,-64.5 374.45,-64.5 385.65,-64.5"/>
<polygon fill="midnightblue" stroke="midnightblue" points="385.85,-68 395.85,-64.5 385.85,-61 385.85,-68"/>
</g>
<!-- Node9 -->
<g id="node9" class="node">
<title>Node9</title>
<g id="a_node9"><a xlink:href="../../d4/df5/classjoda_1_1query_1_1IValueProvider.html#ade80632b99c01d164cd8923e2b70f90e" target="_top" xlink:title=" ">
<polygon fill="white" stroke="black" points="396,-0.5 396,-30.5 543,-30.5 543,-0.5 396,-0.5"/>
<text text-anchor="start" x="404" y="-18.5" font-family="Helvetica,sans-Serif" font-size="10.00">joda::query::IValueProvider</text>
<text text-anchor="middle" x="469.5" y="-7.5" font-family="Helvetica,sans-Serif" font-size="10.00">::isString</text>
</a>
</g>
</g>
<!-- Node5&#45;&gt;Node9 -->
<g id="edge9" class="edge">
<title>Node5&#45;&gt;Node9</title>
<path fill="none" stroke="midnightblue" d="M337.49,-49.47C357.54,-44.27 380.17,-38.4 400.92,-33.02"/>
<polygon fill="midnightblue" stroke="midnightblue" points="401.82,-36.4 410.62,-30.51 400.06,-29.63 401.82,-36.4"/>
</g>
<!-- Node7 -->
<g id="node7" class="node">
<title>Node7</title>
<g id="a_node7"><a xlink:href="../../d4/df5/classjoda_1_1query_1_1IValueProvider.html#a7353bb4809b215603871f5ddaa353285" target="_top" xlink:title=" ">
<polygon fill="white" stroke="black" points="579,-49.5 579,-79.5 726,-79.5 726,-49.5 579,-49.5"/>
<text text-anchor="start" x="587" y="-67.5" font-family="Helvetica,sans-Serif" font-size="10.00">joda::query::IValueProvider</text>
<text text-anchor="middle" x="652.5" y="-56.5" font-family="Helvetica,sans-Serif" font-size="10.00">::getReturnType</text>
</a>
</g>
</g>
<!-- Node6&#45;&gt;Node7 -->
<g id="edge6" class="edge">
<title>Node6&#45;&gt;Node7</title>
<path fill="none" stroke="midnightblue" d="M526.28,-98.4C545.21,-93.27 566.52,-87.5 586.13,-82.2"/>
<polygon fill="midnightblue" stroke="midnightblue" points="587.16,-85.54 595.9,-79.55 585.33,-78.79 587.16,-85.54"/>
</g>
<!-- Node8&#45;&gt;Node7 -->
<g id="edge8" class="edge">
<title>Node8&#45;&gt;Node7</title>
<path fill="none" stroke="midnightblue" d="M543.08,-64.5C551.56,-64.5 560.26,-64.5 568.87,-64.5"/>
<polygon fill="midnightblue" stroke="midnightblue" points="568.91,-68 578.91,-64.5 568.91,-61 568.91,-68"/>
</g>
<!-- Node9&#45;&gt;Node7 -->
<g id="edge10" class="edge">
<title>Node9&#45;&gt;Node7</title>
<path fill="none" stroke="midnightblue" d="M526.28,-30.6C545.21,-35.73 566.52,-41.5 586.13,-46.8"/>
<polygon fill="midnightblue" stroke="midnightblue" points="585.33,-50.21 595.9,-49.45 587.16,-43.46 585.33,-50.21"/>
</g>
</g>
</svg>
