<?xml version="1.0" encoding="UTF-8" standalone="no"?>
<!DOCTYPE svg PUBLIC "-//W3C//DTD SVG 1.1//EN"
 "http://www.w3.org/Graphics/SVG/1.1/DTD/svg11.dtd">
<!-- Generated by graphviz version 2.43.0 (0)
 -->
<!-- Title: JODA_SHARED_QUEUE&lt; payload_t, flag, queue_trait &gt; Pages: 1 -->
<svg width="891pt" height="179pt"
 viewBox="0.00 0.00 891.00 179.00" xmlns="http://www.w3.org/2000/svg" xmlns:xlink="http://www.w3.org/1999/xlink">
<g id="graph0" class="graph" transform="scale(1 1) rotate(0) translate(4 175)">
<title>JODA_SHARED_QUEUE&lt; payload_t, flag, queue_trait &gt;</title>
<polygon fill="white" stroke="transparent" points="-4,4 -4,-175 887,-175 887,4 -4,4"/>
<!-- Node1 -->
<g id="node1" class="node">
<title>Node1</title>
<g id="a_node1"><a xlink:title=" ">
<polygon fill="#bfbfbf" stroke="black" points="748,-69.5 748,-110.5 883,-110.5 883,-69.5 748,-69.5"/>
<text text-anchor="start" x="756" y="-98.5" font-family="Helvetica,sans-Serif" font-size="10.00">JODA_SHARED_QUEUE&lt;</text>
<text text-anchor="start" x="756" y="-87.5" font-family="Helvetica,sans-Serif" font-size="10.00"> payload_t, flag, queue</text>
<text text-anchor="middle" x="815.5" y="-76.5" font-family="Helvetica,sans-Serif" font-size="10.00">_trait &gt;</text>
</a>
</g>
</g>
<!-- Node2 -->
<g id="node2" class="node">
<title>Node2</title>
<g id="a_node2"><a xlink:title=" ">
<polygon fill="white" stroke="#bfbfbf" points="487,-151.5 487,-170.5 602,-170.5 602,-151.5 487,-151.5"/>
<text text-anchor="middle" x="544.5" y="-158.5" font-family="Helvetica,sans-Serif" font-size="10.00">std::atomic&lt; bool &gt;</text>
</a>
</g>
</g>
<!-- Node2&#45;&gt;Node1 -->
<g id="edge1" class="edge">
<title>Node2&#45;&gt;Node1</title>
<path fill="none" stroke="#9a32cd" stroke-dasharray="5,2" d="M612.54,-156.03C648.08,-152.11 692.1,-145.17 730,-133 747.24,-127.46 765.27,-118.75 780.22,-110.6"/>
<polygon fill="#9a32cd" stroke="#9a32cd" points="611.86,-152.58 602.28,-157.11 612.59,-159.55 611.86,-152.58"/>
<text text-anchor="middle" x="691.5" y="-153" font-family="Helvetica,sans-Serif" font-size="10.00"> finishedWriting</text>
</g>
<!-- Node3 -->
<g id="node3" class="node">
<title>Node3</title>
<g id="a_node3"><a xlink:title=" ">
<polygon fill="white" stroke="#bfbfbf" points="117.5,-110.5 117.5,-129.5 217.5,-129.5 217.5,-110.5 117.5,-110.5"/>
<text text-anchor="middle" x="167.5" y="-117.5" font-family="Helvetica,sans-Serif" font-size="10.00">std::atomic&lt; T &gt;</text>
</a>
</g>
</g>
<!-- Node3&#45;&gt;Node2 -->
<g id="edge2" class="edge">
<title>Node3&#45;&gt;Node2</title>
<path fill="none" stroke="orange" stroke-dasharray="5,2" d="M227.81,-129.2C241.94,-131.24 256.99,-133.31 271,-135 345.43,-143.99 431.6,-151.77 486.78,-156.42"/>
<polygon fill="orange" stroke="orange" points="228.1,-125.7 217.7,-127.71 227.09,-132.63 228.1,-125.7"/>
<text text-anchor="middle" x="353.5" y="-154" font-family="Helvetica,sans-Serif" font-size="10.00"> &lt; bool &gt;</text>
</g>
<!-- Node7 -->
<g id="node7" class="node">
<title>Node7</title>
<g id="a_node7"><a xlink:title=" ">
<polygon fill="white" stroke="#bfbfbf" points="483.5,-110.5 483.5,-129.5 605.5,-129.5 605.5,-110.5 483.5,-110.5"/>
<text text-anchor="middle" x="544.5" y="-117.5" font-family="Helvetica,sans-Serif" font-size="10.00">std::atomic&lt; size_t &gt;</text>
</a>
</g>
</g>
<!-- Node3&#45;&gt;Node7 -->
<g id="edge7" class="edge">
<title>Node3&#45;&gt;Node7</title>
<path fill="none" stroke="orange" stroke-dasharray="5,2" d="M227.91,-120C297.78,-120 413.1,-120 483.3,-120"/>
<polygon fill="orange" stroke="orange" points="227.52,-116.5 217.52,-120 227.52,-123.5 227.52,-116.5"/>
<text text-anchor="middle" x="353.5" y="-123" font-family="Helvetica,sans-Serif" font-size="10.00"> &lt; size_t &gt;</text>
</g>
<!-- Node8 -->
<g id="node8" class="node">
<title>Node8</title>
<g id="a_node8"><a xlink:title=" ">
<polygon fill="white" stroke="#bfbfbf" points="481,-61 481,-91 608,-91 608,-61 481,-61"/>
<text text-anchor="start" x="489" y="-79" font-family="Helvetica,sans-Serif" font-size="10.00">std::atomic&lt; unsigned</text>
<text text-anchor="middle" x="544.5" y="-68" font-family="Helvetica,sans-Serif" font-size="10.00"> long &gt;</text>
</a>
</g>
</g>
<!-- Node3&#45;&gt;Node8 -->
<g id="edge9" class="edge">
<title>Node3&#45;&gt;Node8</title>
<path fill="none" stroke="orange" stroke-dasharray="5,2" d="M227.82,-110.91C241.96,-108.86 257,-106.77 271,-105 342.86,-95.92 425.63,-87.38 480.92,-81.96"/>
<polygon fill="orange" stroke="orange" points="227.1,-107.48 217.71,-112.4 228.12,-114.41 227.1,-107.48"/>
<text text-anchor="middle" x="353.5" y="-108" font-family="Helvetica,sans-Serif" font-size="10.00"> &lt; unsigned long &gt;</text>
</g>
<!-- Node4 -->
<g id="node4" class="node">
<title>Node4</title>
<g id="a_node4"><a xlink:title=" ">
<polygon fill="white" stroke="#bfbfbf" points="0,-110.5 0,-129.5 29,-129.5 29,-110.5 0,-110.5"/>
<text text-anchor="middle" x="14.5" y="-117.5" font-family="Helvetica,sans-Serif" font-size="10.00">T</text>
</a>
</g>
</g>
<!-- Node4&#45;&gt;Node3 -->
<g id="edge3" class="edge">
<title>Node4&#45;&gt;Node3</title>
<path fill="none" stroke="#9a32cd" stroke-dasharray="5,2" d="M39.34,-120C60.19,-120 91.14,-120 117.28,-120"/>
<polygon fill="#9a32cd" stroke="#9a32cd" points="39.17,-116.5 29.17,-120 39.17,-123.5 39.17,-116.5"/>
<text text-anchor="middle" x="55.5" y="-123" font-family="Helvetica,sans-Serif" font-size="10.00"> ptr</text>
</g>
<!-- Node5 -->
<g id="node5" class="node">
<title>Node5</title>
<g id="a_node5"><a xlink:href="../../d8/dc8/classmoodycamel_1_1ConcurrentQueue.html" target="_top" xlink:title=" ">
<polygon fill="white" stroke="black" points="454,-0.5 454,-41.5 635,-41.5 635,-0.5 454,-0.5"/>
<text text-anchor="start" x="462" y="-29.5" font-family="Helvetica,sans-Serif" font-size="10.00">moodycamel::ConcurrentQueue</text>
<text text-anchor="start" x="462" y="-18.5" font-family="Helvetica,sans-Serif" font-size="10.00">&lt; payload_t, moodycamel</text>
<text text-anchor="middle" x="544.5" y="-7.5" font-family="Helvetica,sans-Serif" font-size="10.00">::ConcurrentQueueDefaultTraits &gt;</text>
</a>
</g>
</g>
<!-- Node5&#45;&gt;Node1 -->
<g id="edge4" class="edge">
<title>Node5&#45;&gt;Node1</title>
<path fill="none" stroke="#9a32cd" stroke-dasharray="5,2" d="M645.29,-27.35C673.16,-30.9 703.15,-36.42 730,-45 748.21,-50.82 767.11,-60.49 782.41,-69.38"/>
<polygon fill="#9a32cd" stroke="#9a32cd" points="645.48,-23.85 635.13,-26.13 644.64,-30.8 645.48,-23.85"/>
<text text-anchor="middle" x="691.5" y="-48" font-family="Helvetica,sans-Serif" font-size="10.00"> queue</text>
</g>
<!-- Node6 -->
<g id="node6" class="node">
<title>Node6</title>
<g id="a_node6"><a xlink:href="../../d8/dc8/classmoodycamel_1_1ConcurrentQueue.html" target="_top" xlink:title=" ">
<polygon fill="white" stroke="black" points="82,-6 82,-36 253,-36 253,-6 82,-6"/>
<text text-anchor="start" x="90" y="-24" font-family="Helvetica,sans-Serif" font-size="10.00">moodycamel::ConcurrentQueue</text>
<text text-anchor="middle" x="167.5" y="-13" font-family="Helvetica,sans-Serif" font-size="10.00">&lt; T, Traits &gt;</text>
</a>
</g>
</g>
<!-- Node6&#45;&gt;Node5 -->
<g id="edge5" class="edge">
<title>Node6&#45;&gt;Node5</title>
<path fill="none" stroke="orange" stroke-dasharray="5,2" d="M263.48,-21C321.97,-21 396.5,-21 453.95,-21"/>
<polygon fill="orange" stroke="orange" points="263.12,-17.5 253.12,-21 263.12,-24.5 263.12,-17.5"/>
<text text-anchor="start" x="271" y="-35" font-family="Helvetica,sans-Serif" font-size="10.00"> &lt; payload_t, moodycamel</text>
<text text-anchor="middle" x="353.5" y="-24" font-family="Helvetica,sans-Serif" font-size="10.00">::ConcurrentQueueDefaultTraits &gt;</text>
</g>
<!-- Node7&#45;&gt;Node1 -->
<g id="edge6" class="edge">
<title>Node7&#45;&gt;Node1</title>
<path fill="none" stroke="#9a32cd" stroke-dasharray="5,2" d="M615.65,-112.18C656.38,-107.63 707.4,-101.94 747.56,-97.47"/>
<polygon fill="#9a32cd" stroke="#9a32cd" points="615.08,-108.72 605.53,-113.3 615.86,-115.67 615.08,-108.72"/>
<text text-anchor="middle" x="691.5" y="-121" font-family="Helvetica,sans-Serif" font-size="10.00"> added</text>
<text text-anchor="middle" x="691.5" y="-110" font-family="Helvetica,sans-Serif" font-size="10.00">removed</text>
</g>
<!-- Node8&#45;&gt;Node1 -->
<g id="edge8" class="edge">
<title>Node8&#45;&gt;Node1</title>
<path fill="none" stroke="#9a32cd" stroke-dasharray="5,2" d="M618.47,-63.35C652.51,-59.36 693.48,-57.31 730,-63 739.28,-64.45 748.94,-66.74 758.26,-69.39"/>
<polygon fill="#9a32cd" stroke="#9a32cd" points="617.62,-59.92 608.14,-64.64 618.49,-66.87 617.62,-59.92"/>
<text text-anchor="middle" x="691.5" y="-88" font-family="Helvetica,sans-Serif" font-size="10.00"> finished</text>
<text text-anchor="middle" x="691.5" y="-77" font-family="Helvetica,sans-Serif" font-size="10.00">inQueue</text>
<text text-anchor="middle" x="691.5" y="-66" font-family="Helvetica,sans-Serif" font-size="10.00">registered</text>
</g>
</g>
</svg>
