<?xml version="1.0" encoding="UTF-8" standalone="no"?>
<!DOCTYPE svg PUBLIC "-//W3C//DTD SVG 1.1//EN"
 "http://www.w3.org/Graphics/SVG/1.1/DTD/svg11.dtd">
<!-- Generated by graphviz version 2.43.0 (0)
 -->
<!-- Title: joda::docparsing::ReaderParser::parse Pages: 1 -->
<svg width="325pt" height="50pt"
 viewBox="0.00 0.00 325.00 50.00" xmlns="http://www.w3.org/2000/svg" xmlns:xlink="http://www.w3.org/1999/xlink">
<g id="graph0" class="graph" transform="scale(1 1) rotate(0) translate(4 46)">
<title>joda::docparsing::ReaderParser::parse</title>
<polygon fill="white" stroke="transparent" points="-4,4 -4,-46 321,-46 321,4 -4,4"/>
<!-- Node1 -->
<g id="node1" class="node">
<title>Node1</title>
<g id="a_node1"><a xlink:title=" ">
<polygon fill="#bfbfbf" stroke="black" points="0,-6 0,-36 137,-36 137,-6 0,-6"/>
<text text-anchor="start" x="8" y="-24" font-family="Helvetica,sans-Serif" font-size="10.00">joda::docparsing::Reader</text>
<text text-anchor="middle" x="68.5" y="-13" font-family="Helvetica,sans-Serif" font-size="10.00">Parser::parse</text>
</a>
</g>
</g>
<!-- Node2 -->
<g id="node2" class="node">
<title>Node2</title>
<g id="a_node2"><a xlink:href="../../dd/d1e/structJODA__CONTAINER__QUEUE_3_01JODA__JSON__CONTAINER__FLAG_01_4.html#a8fa9c7590cd168dc44aa135e6948eeb6" target="_top" xlink:title=" ">
<polygon fill="white" stroke="black" points="173,-0.5 173,-41.5 317,-41.5 317,-0.5 173,-0.5"/>
<text text-anchor="start" x="181" y="-29.5" font-family="Helvetica,sans-Serif" font-size="10.00">JODA_CONTAINER_QUEUE</text>
<text text-anchor="start" x="181" y="-18.5" font-family="Helvetica,sans-Serif" font-size="10.00">&lt; JODA_JSON_CONTAINER</text>
<text text-anchor="middle" x="245" y="-7.5" font-family="Helvetica,sans-Serif" font-size="10.00">_FLAG &gt;::getQueue</text>
</a>
</g>
</g>
<!-- Node1&#45;&gt;Node2 -->
<g id="edge1" class="edge">
<title>Node1&#45;&gt;Node2</title>
<path fill="none" stroke="midnightblue" d="M137.47,-21C145.7,-21 154.17,-21 162.57,-21"/>
<polygon fill="midnightblue" stroke="midnightblue" points="162.76,-24.5 172.76,-21 162.76,-17.5 162.76,-24.5"/>
</g>
</g>
</svg>
