<?xml version="1.0" encoding="UTF-8" standalone="no"?>
<!DOCTYPE svg PUBLIC "-//W3C//DTD SVG 1.1//EN"
 "http://www.w3.org/Graphics/SVG/1.1/DTD/svg11.dtd">
<!-- Generated by graphviz version 2.43.0 (0)
 -->
<!-- Title: /home/nico/projects/JODA&#45;gh/libs/joda/core/modules/query/values/include/joda/query/values/MemberCountProvider.h Pages: 1 -->
<svg width="1570pt" height="710pt"
 viewBox="0.00 0.00 1570.00 710.00" xmlns="http://www.w3.org/2000/svg" xmlns:xlink="http://www.w3.org/1999/xlink">
<g id="graph0" class="graph" transform="scale(1 1) rotate(0) translate(4 706)">
<title>/home/nico/projects/JODA&#45;gh/libs/joda/core/modules/query/values/include/joda/query/values/MemberCountProvider.h</title>
<polygon fill="white" stroke="transparent" points="-4,4 -4,-706 1566,-706 1566,4 -4,4"/>
<!-- Node1 -->
<g id="node1" class="node">
<title>Node1</title>
<g id="a_node1"><a xlink:title=" ">
<polygon fill="#bfbfbf" stroke="black" points="392.5,-649.5 392.5,-701.5 619.5,-701.5 619.5,-649.5 392.5,-649.5"/>
<text text-anchor="start" x="400.5" y="-689.5" font-family="Helvetica,sans-Serif" font-size="10.00">/home/nico/projects</text>
<text text-anchor="start" x="400.5" y="-678.5" font-family="Helvetica,sans-Serif" font-size="10.00">/JODA&#45;gh/libs/joda/core</text>
<text text-anchor="start" x="400.5" y="-667.5" font-family="Helvetica,sans-Serif" font-size="10.00">/modules/query/values/include</text>
<text text-anchor="middle" x="506" y="-656.5" font-family="Helvetica,sans-Serif" font-size="10.00">/joda/query/values/MemberCountProvider.h</text>
</a>
</g>
</g>
<!-- Node2 -->
<g id="node2" class="node">
<title>Node2</title>
<g id="a_node2"><a xlink:href="../../de/dd8/UnaryPointerAcceptProvider_8h.html" target="_top" xlink:title=" ">
<polygon fill="white" stroke="black" points="371,-593.5 371,-612.5 533,-612.5 533,-593.5 371,-593.5"/>
<text text-anchor="middle" x="452" y="-600.5" font-family="Helvetica,sans-Serif" font-size="10.00">UnaryPointerAcceptProvider.h</text>
</a>
</g>
</g>
<!-- Node1&#45;&gt;Node2 -->
<g id="edge1" class="edge">
<title>Node1&#45;&gt;Node2</title>
<path fill="none" stroke="midnightblue" d="M486.81,-649.45C479.52,-639.93 471.4,-629.33 464.84,-620.76"/>
<polygon fill="midnightblue" stroke="midnightblue" points="467.52,-618.51 458.66,-612.7 461.96,-622.76 467.52,-618.51"/>
</g>
<!-- Node36 -->
<g id="node36" class="node">
<title>Node36</title>
<g id="a_node36"><a xlink:href="../../d9/d8f/ValueAccepter_8h.html" target="_top" xlink:title=" ">
<polygon fill="white" stroke="black" points="513.5,-537.5 513.5,-556.5 608.5,-556.5 608.5,-537.5 513.5,-537.5"/>
<text text-anchor="middle" x="561" y="-544.5" font-family="Helvetica,sans-Serif" font-size="10.00">ValueAccepter.h</text>
</a>
</g>
</g>
<!-- Node1&#45;&gt;Node36 -->
<g id="edge75" class="edge">
<title>Node1&#45;&gt;Node36</title>
<path fill="none" stroke="midnightblue" d="M522.7,-649.2C529.34,-638.37 536.66,-625.38 542,-613 548.54,-597.82 553.63,-579.7 556.89,-566.46"/>
<polygon fill="midnightblue" stroke="midnightblue" points="560.31,-567.18 559.19,-556.65 553.5,-565.59 560.31,-567.18"/>
</g>
<!-- Node3 -->
<g id="node3" class="node">
<title>Node3</title>
<g id="a_node3"><a xlink:href="../../dd/d50/IValueProvider_8h.html" target="_top" xlink:title=" ">
<polygon fill="white" stroke="black" points="326.5,-425.5 326.5,-444.5 421.5,-444.5 421.5,-425.5 326.5,-425.5"/>
<text text-anchor="middle" x="374" y="-432.5" font-family="Helvetica,sans-Serif" font-size="10.00">IValueProvider.h</text>
</a>
</g>
</g>
<!-- Node2&#45;&gt;Node3 -->
<g id="edge2" class="edge">
<title>Node2&#45;&gt;Node3</title>
<path fill="none" stroke="midnightblue" d="M446.04,-593.46C434.43,-576.53 408.58,-537.19 393,-501 386.46,-485.81 381.37,-467.7 378.12,-454.45"/>
<polygon fill="midnightblue" stroke="midnightblue" points="381.51,-453.58 375.82,-444.65 374.69,-455.18 381.51,-453.58"/>
</g>
<!-- Node35 -->
<g id="node35" class="node">
<title>Node35</title>
<g id="a_node35"><a xlink:href="../../de/d9e/PointerProvider_8h.html" target="_top" xlink:title=" ">
<polygon fill="white" stroke="black" points="402,-481.5 402,-500.5 502,-500.5 502,-481.5 402,-481.5"/>
<text text-anchor="middle" x="452" y="-488.5" font-family="Helvetica,sans-Serif" font-size="10.00">PointerProvider.h</text>
</a>
</g>
</g>
<!-- Node2&#45;&gt;Node35 -->
<g id="edge64" class="edge">
<title>Node2&#45;&gt;Node35</title>
<path fill="none" stroke="midnightblue" d="M452,-593.37C452,-575.62 452,-534.67 452,-510.6"/>
<polygon fill="midnightblue" stroke="midnightblue" points="455.5,-510.59 452,-500.59 448.5,-510.59 455.5,-510.59"/>
</g>
<!-- Node2&#45;&gt;Node36 -->
<g id="edge69" class="edge">
<title>Node2&#45;&gt;Node36</title>
<path fill="none" stroke="midnightblue" d="M469.51,-593.32C487.07,-584.62 514.33,-571.12 534.53,-561.11"/>
<polygon fill="midnightblue" stroke="midnightblue" points="536.12,-564.23 543.53,-556.65 533.02,-557.96 536.12,-564.23"/>
</g>
<!-- Node4 -->
<g id="node4" class="node">
<title>Node4</title>
<g id="a_node4"><a xlink:title=" ">
<polygon fill="white" stroke="#bfbfbf" points="645,-0.5 645,-19.5 731,-19.5 731,-0.5 645,-0.5"/>
<text text-anchor="middle" x="688" y="-7.5" font-family="Helvetica,sans-Serif" font-size="10.00">glog/logging.h</text>
</a>
</g>
</g>
<!-- Node3&#45;&gt;Node4 -->
<g id="edge3" class="edge">
<title>Node3&#45;&gt;Node4</title>
<path fill="none" stroke="midnightblue" d="M421.66,-429.84C474.28,-424.16 554.06,-411.95 573,-389 635.56,-313.21 548.77,-261.18 580,-168 595.91,-120.53 616.74,-117.33 645,-76 655.94,-60 668.1,-41.56 676.69,-28.41"/>
<polygon fill="midnightblue" stroke="midnightblue" points="679.72,-30.18 682.24,-19.89 673.85,-26.36 679.72,-30.18"/>
</g>
<!-- Node5 -->
<g id="node5" class="node">
<title>Node5</title>
<g id="a_node5"><a xlink:title=" ">
<polygon fill="white" stroke="#bfbfbf" points="172,-0.5 172,-19.5 294,-19.5 294,-0.5 172,-0.5"/>
<text text-anchor="middle" x="233" y="-7.5" font-family="Helvetica,sans-Serif" font-size="10.00">rapidjson/document.h</text>
</a>
</g>
</g>
<!-- Node3&#45;&gt;Node5 -->
<g id="edge4" class="edge">
<title>Node3&#45;&gt;Node5</title>
<path fill="none" stroke="midnightblue" d="M326.18,-427.95C279.55,-421.04 213.21,-408.14 196,-389 183.45,-375.05 176,-288.47 176,-190 176,-190 176,-190 176,-121 176,-84.3 201.32,-47.66 218.21,-27.3"/>
<polygon fill="midnightblue" stroke="midnightblue" points="220.95,-29.48 224.83,-19.62 215.65,-24.9 220.95,-29.48"/>
</g>
<!-- Node6 -->
<g id="node6" class="node">
<title>Node6</title>
<g id="a_node6"><a xlink:title=" ">
<polygon fill="white" stroke="#bfbfbf" points="56.5,-0.5 56.5,-19.5 147.5,-19.5 147.5,-0.5 56.5,-0.5"/>
<text text-anchor="middle" x="102" y="-7.5" font-family="Helvetica,sans-Serif" font-size="10.00">rapidjson/fwd.h</text>
</a>
</g>
</g>
<!-- Node3&#45;&gt;Node6 -->
<g id="edge5" class="edge">
<title>Node3&#45;&gt;Node6</title>
<path fill="none" stroke="midnightblue" d="M326.4,-434.18C284.65,-431.9 224.59,-422.37 185,-389 111.47,-327.01 100,-286.17 100,-190 100,-190 100,-190 100,-121 100,-88.94 100.86,-51.64 101.45,-29.75"/>
<polygon fill="midnightblue" stroke="midnightblue" points="104.96,-29.65 101.74,-19.56 97.96,-29.45 104.96,-29.65"/>
</g>
<!-- Node7 -->
<g id="node7" class="node">
<title>Node7</title>
<g id="a_node7"><a xlink:title=" ">
<polygon fill="white" stroke="#bfbfbf" points="28.5,-369.5 28.5,-388.5 75.5,-388.5 75.5,-369.5 28.5,-369.5"/>
<text text-anchor="middle" x="52" y="-376.5" font-family="Helvetica,sans-Serif" font-size="10.00">cmath</text>
</a>
</g>
</g>
<!-- Node3&#45;&gt;Node7 -->
<g id="edge6" class="edge">
<title>Node3&#45;&gt;Node7</title>
<path fill="none" stroke="midnightblue" d="M326.32,-427.57C269.74,-419.67 172.65,-405.31 90,-389 88.54,-388.71 87.06,-388.41 85.56,-388.09"/>
<polygon fill="midnightblue" stroke="midnightblue" points="86.18,-384.64 75.66,-385.89 84.66,-391.48 86.18,-384.64"/>
</g>
<!-- Node8 -->
<g id="node8" class="node">
<title>Node8</title>
<g id="a_node8"><a xlink:title=" ">
<polygon fill="white" stroke="#bfbfbf" points="220.5,-369.5 220.5,-388.5 345.5,-388.5 345.5,-369.5 220.5,-369.5"/>
<text text-anchor="middle" x="283" y="-376.5" font-family="Helvetica,sans-Serif" font-size="10.00">experimental/optional</text>
</a>
</g>
</g>
<!-- Node3&#45;&gt;Node8 -->
<g id="edge7" class="edge">
<title>Node3&#45;&gt;Node8</title>
<path fill="none" stroke="midnightblue" d="M359.38,-425.32C345.05,-416.82 322.99,-403.73 306.25,-393.8"/>
<polygon fill="midnightblue" stroke="midnightblue" points="307.97,-390.75 297.58,-388.65 304.4,-396.77 307.97,-390.75"/>
</g>
<!-- Node9 -->
<g id="node9" class="node">
<title>Node9</title>
<g id="a_node9"><a xlink:title=" ">
<polygon fill="white" stroke="#bfbfbf" points="280,-112.5 280,-131.5 338,-131.5 338,-112.5 280,-112.5"/>
<text text-anchor="middle" x="309" y="-119.5" font-family="Helvetica,sans-Serif" font-size="10.00">memory</text>
</a>
</g>
</g>
<!-- Node3&#45;&gt;Node9 -->
<g id="edge8" class="edge">
<title>Node3&#45;&gt;Node9</title>
<path fill="none" stroke="midnightblue" d="M326.4,-427.31C283.47,-420.19 225,-407.39 211,-389 149.1,-307.7 252.06,-183.31 293.19,-139.2"/>
<polygon fill="midnightblue" stroke="midnightblue" points="295.96,-141.36 300.31,-131.7 290.89,-136.54 295.96,-141.36"/>
</g>
<!-- Node10 -->
<g id="node10" class="node">
<title>Node10</title>
<g id="a_node10"><a xlink:title=" ">
<polygon fill="white" stroke="#bfbfbf" points="972,-56.5 972,-75.5 1016,-75.5 1016,-56.5 972,-56.5"/>
<text text-anchor="middle" x="994" y="-63.5" font-family="Helvetica,sans-Serif" font-size="10.00">string</text>
</a>
</g>
</g>
<!-- Node3&#45;&gt;Node10 -->
<g id="edge9" class="edge">
<title>Node3&#45;&gt;Node10</title>
<path fill="none" stroke="midnightblue" d="M421.81,-431.01C471.15,-426.55 549.51,-415.6 612,-389 730.54,-338.54 766.01,-315.46 840,-210 867.74,-170.46 852.01,-145.31 887,-112 907.85,-92.15 938.75,-80.44 961.99,-73.97"/>
<polygon fill="midnightblue" stroke="midnightblue" points="962.95,-77.33 971.75,-71.43 961.19,-70.56 962.95,-77.33"/>
</g>
<!-- Node11 -->
<g id="node11" class="node">
<title>Node11</title>
<g id="a_node11"><a xlink:href="../../d1/dfd/RapidJsonDocument_8h.html" target="_top" xlink:title=" ">
<polygon fill="white" stroke="black" points="364,-369.5 364,-388.5 564,-388.5 564,-369.5 364,-369.5"/>
<text text-anchor="middle" x="464" y="-376.5" font-family="Helvetica,sans-Serif" font-size="10.00">joda/document/RapidJsonDocument.h</text>
</a>
</g>
</g>
<!-- Node3&#45;&gt;Node11 -->
<g id="edge10" class="edge">
<title>Node3&#45;&gt;Node11</title>
<path fill="none" stroke="midnightblue" d="M388.46,-425.32C402.5,-416.9 424.05,-403.97 440.54,-394.07"/>
<polygon fill="midnightblue" stroke="midnightblue" points="442.8,-396.8 449.58,-388.65 439.2,-390.8 442.8,-396.8"/>
</g>
<!-- Node11&#45;&gt;Node6 -->
<g id="edge49" class="edge">
<title>Node11&#45;&gt;Node6</title>
<path fill="none" stroke="midnightblue" d="M396.45,-369.5C300.97,-353.27 138,-308.25 138,-190 138,-190 138,-190 138,-121 138,-86.98 122.26,-49.85 111.59,-28.6"/>
<polygon fill="midnightblue" stroke="midnightblue" points="114.59,-26.77 106.86,-19.53 108.38,-30.01 114.59,-26.77"/>
</g>
<!-- Node11&#45;&gt;Node9 -->
<g id="edge51" class="edge">
<title>Node11&#45;&gt;Node9</title>
<path fill="none" stroke="midnightblue" d="M458.66,-369.22C436.31,-332.44 349.92,-190.32 319.59,-140.43"/>
<polygon fill="midnightblue" stroke="midnightblue" points="322.5,-138.47 314.31,-131.74 316.52,-142.1 322.5,-138.47"/>
</g>
<!-- Node12 -->
<g id="node12" class="node">
<title>Node12</title>
<g id="a_node12"><a xlink:href="../../d2/d0d/ViewLayer_8h.html" target="_top" xlink:title=" ">
<polygon fill="white" stroke="black" points="906,-302.5 906,-332.5 1022,-332.5 1022,-302.5 906,-302.5"/>
<text text-anchor="start" x="914" y="-320.5" font-family="Helvetica,sans-Serif" font-size="10.00">joda/document/view</text>
<text text-anchor="middle" x="964" y="-309.5" font-family="Helvetica,sans-Serif" font-size="10.00">/ViewLayer.h</text>
</a>
</g>
</g>
<!-- Node11&#45;&gt;Node12 -->
<g id="edge11" class="edge">
<title>Node11&#45;&gt;Node12</title>
<path fill="none" stroke="midnightblue" d="M535.64,-369.48C631.78,-358.03 801.34,-337.86 895.73,-326.62"/>
<polygon fill="midnightblue" stroke="midnightblue" points="896.22,-330.09 905.74,-325.43 895.39,-323.14 896.22,-330.09"/>
</g>
<!-- Node15 -->
<g id="node15" class="node">
<title>Node15</title>
<g id="a_node15"><a xlink:href="../../d6/d09/RJFwd_8h.html" target="_top" xlink:title=" ">
<polygon fill="white" stroke="black" points="478,-56.5 478,-75.5 584,-75.5 584,-56.5 478,-56.5"/>
<text text-anchor="middle" x="531" y="-63.5" font-family="Helvetica,sans-Serif" font-size="10.00">joda/misc/RJFwd.h</text>
</a>
</g>
</g>
<!-- Node11&#45;&gt;Node15 -->
<g id="edge63" class="edge">
<title>Node11&#45;&gt;Node15</title>
<path fill="none" stroke="midnightblue" d="M448.83,-369.4C390.8,-335.46 190.16,-208.03 271,-112 295.62,-82.75 398.69,-72.51 467.42,-68.93"/>
<polygon fill="midnightblue" stroke="midnightblue" points="467.9,-72.41 477.72,-68.43 467.56,-65.42 467.9,-72.41"/>
</g>
<!-- Node16 -->
<g id="node16" class="node">
<title>Node16</title>
<g id="a_node16"><a xlink:title=" ">
<polygon fill="white" stroke="#bfbfbf" points="315,-0.5 315,-19.5 437,-19.5 437,-0.5 315,-0.5"/>
<text text-anchor="middle" x="376" y="-7.5" font-family="Helvetica,sans-Serif" font-size="10.00">rapidjson/allocators.h</text>
</a>
</g>
</g>
<!-- Node11&#45;&gt;Node16 -->
<g id="edge48" class="edge">
<title>Node11&#45;&gt;Node16</title>
<path fill="none" stroke="midnightblue" d="M429.5,-369.47C360.92,-350.23 214,-296.57 214,-190 214,-190 214,-190 214,-121 214,-65.93 278.86,-36.51 326.5,-22.33"/>
<polygon fill="midnightblue" stroke="midnightblue" points="327.7,-25.63 336.37,-19.53 325.79,-18.89 327.7,-25.63"/>
</g>
<!-- Node30 -->
<g id="node30" class="node">
<title>Node30</title>
<g id="a_node30"><a xlink:title=" ">
<polygon fill="white" stroke="#bfbfbf" points="488,-308 488,-327 538,-327 538,-308 488,-308"/>
<text text-anchor="middle" x="513" y="-315" font-family="Helvetica,sans-Serif" font-size="10.00">atomic</text>
</a>
</g>
</g>
<!-- Node11&#45;&gt;Node30 -->
<g id="edge50" class="edge">
<title>Node11&#45;&gt;Node30</title>
<path fill="none" stroke="midnightblue" d="M471.02,-369.48C478.44,-360.46 490.33,-346.02 499.57,-334.81"/>
<polygon fill="midnightblue" stroke="midnightblue" points="502.34,-336.95 505.99,-327.01 496.93,-332.5 502.34,-336.95"/>
</g>
<!-- Node31 -->
<g id="node31" class="node">
<title>Node31</title>
<g id="a_node31"><a xlink:href="../../df/d13/FileNameRepo_8h.html" target="_top" xlink:title=" ">
<polygon fill="white" stroke="black" points="1232.5,-168.5 1232.5,-209.5 1387.5,-209.5 1387.5,-168.5 1232.5,-168.5"/>
<text text-anchor="start" x="1240.5" y="-197.5" font-family="Helvetica,sans-Serif" font-size="10.00">../../../../../misc</text>
<text text-anchor="start" x="1240.5" y="-186.5" font-family="Helvetica,sans-Serif" font-size="10.00">/include/joda/misc/FileName</text>
<text text-anchor="middle" x="1310" y="-175.5" font-family="Helvetica,sans-Serif" font-size="10.00">Repo.h</text>
</a>
</g>
</g>
<!-- Node11&#45;&gt;Node31 -->
<g id="edge52" class="edge">
<title>Node11&#45;&gt;Node31</title>
<path fill="none" stroke="midnightblue" d="M564.07,-375.79C677.93,-371.95 869.07,-361.48 1031,-333 1086.17,-323.3 1231.11,-302.03 1274,-266 1288.12,-254.14 1297.07,-235.47 1302.52,-219.61"/>
<polygon fill="midnightblue" stroke="midnightblue" points="1305.97,-220.28 1305.61,-209.69 1299.29,-218.2 1305.97,-220.28"/>
</g>
<!-- Node33 -->
<g id="node33" class="node">
<title>Node33</title>
<g id="a_node33"><a xlink:href="../../d5/d6c/IOrigin_8h.html" target="_top" xlink:title=" ">
<polygon fill="white" stroke="black" points="431,-179.5 431,-198.5 489,-198.5 489,-179.5 431,-179.5"/>
<text text-anchor="middle" x="460" y="-186.5" font-family="Helvetica,sans-Serif" font-size="10.00">IOrigin.h</text>
</a>
</g>
</g>
<!-- Node11&#45;&gt;Node33 -->
<g id="edge58" class="edge">
<title>Node11&#45;&gt;Node33</title>
<path fill="none" stroke="midnightblue" d="M463.82,-369.43C463.21,-340.93 461.25,-248.82 460.4,-208.83"/>
<polygon fill="midnightblue" stroke="midnightblue" points="463.9,-208.54 460.18,-198.62 456.9,-208.69 463.9,-208.54"/>
</g>
<!-- Node12&#45;&gt;Node4 -->
<g id="edge12" class="edge">
<title>Node12&#45;&gt;Node4</title>
<path fill="none" stroke="midnightblue" d="M1022.13,-313.72C1151.93,-305.92 1454,-278.3 1454,-190 1454,-190 1454,-190 1454,-121 1454,-90.77 1457.76,-74.68 1434,-56 1406.83,-34.64 908.1,-17.66 741.6,-12.57"/>
<polygon fill="midnightblue" stroke="midnightblue" points="741.23,-9.06 731.13,-12.25 741.02,-16.05 741.23,-9.06"/>
</g>
<!-- Node13 -->
<g id="node13" class="node">
<title>Node13</title>
<g id="a_node13"><a xlink:href="../../db/d16/config_8h.html" target="_top" xlink:title=" ">
<polygon fill="white" stroke="black" points="908.5,-246.5 908.5,-265.5 1019.5,-265.5 1019.5,-246.5 908.5,-246.5"/>
<text text-anchor="middle" x="964" y="-253.5" font-family="Helvetica,sans-Serif" font-size="10.00">joda/config/config.h</text>
</a>
</g>
</g>
<!-- Node12&#45;&gt;Node13 -->
<g id="edge13" class="edge">
<title>Node12&#45;&gt;Node13</title>
<path fill="none" stroke="midnightblue" d="M964,-302.4C964,-294.47 964,-284.46 964,-275.86"/>
<polygon fill="midnightblue" stroke="midnightblue" points="967.5,-275.66 964,-265.66 960.5,-275.66 967.5,-275.66"/>
</g>
<!-- Node12&#45;&gt;Node15 -->
<g id="edge16" class="edge">
<title>Node12&#45;&gt;Node15</title>
<path fill="none" stroke="midnightblue" d="M905.64,-313.76C778.91,-306.5 484.86,-282.1 422,-210 393.28,-177.06 389.26,-148.02 414,-112 426.44,-93.88 447.28,-83.05 467.95,-76.59"/>
<polygon fill="midnightblue" stroke="midnightblue" points="469.05,-79.91 477.73,-73.83 467.15,-73.18 469.05,-79.91"/>
</g>
<!-- Node19 -->
<g id="node19" class="node">
<title>Node19</title>
<g id="a_node19"><a xlink:title=" ">
<polygon fill="white" stroke="#bfbfbf" points="1037.5,-246.5 1037.5,-265.5 1166.5,-265.5 1166.5,-246.5 1037.5,-246.5"/>
<text text-anchor="middle" x="1102" y="-253.5" font-family="Helvetica,sans-Serif" font-size="10.00">rapidjson/stringbuffer.h</text>
</a>
</g>
</g>
<!-- Node12&#45;&gt;Node19 -->
<g id="edge23" class="edge">
<title>Node12&#45;&gt;Node19</title>
<path fill="none" stroke="midnightblue" d="M996.7,-302.4C1019.75,-292.46 1050.36,-279.26 1072.63,-269.66"/>
<polygon fill="midnightblue" stroke="midnightblue" points="1074.12,-272.83 1081.92,-265.66 1071.35,-266.4 1074.12,-272.83"/>
</g>
<!-- Node20 -->
<g id="node20" class="node">
<title>Node20</title>
<g id="a_node20"><a xlink:title=" ">
<polygon fill="white" stroke="#bfbfbf" points="1185,-246.5 1185,-265.5 1249,-265.5 1249,-246.5 1185,-246.5"/>
<text text-anchor="middle" x="1217" y="-253.5" font-family="Helvetica,sans-Serif" font-size="10.00">algorithm</text>
</a>
</g>
</g>
<!-- Node12&#45;&gt;Node20 -->
<g id="edge24" class="edge">
<title>Node12&#45;&gt;Node20</title>
<path fill="none" stroke="midnightblue" d="M1022.04,-302.85C1068.68,-291.88 1133.07,-276.74 1174.87,-266.91"/>
<polygon fill="midnightblue" stroke="midnightblue" points="1175.79,-270.29 1184.73,-264.59 1174.19,-263.47 1175.79,-270.29"/>
</g>
<!-- Node21 -->
<g id="node21" class="node">
<title>Node21</title>
<g id="a_node21"><a xlink:title=" ">
<polygon fill="white" stroke="#bfbfbf" points="1160,-112.5 1160,-131.5 1208,-131.5 1208,-112.5 1160,-112.5"/>
<text text-anchor="middle" x="1184" y="-119.5" font-family="Helvetica,sans-Serif" font-size="10.00">mutex</text>
</a>
</g>
</g>
<!-- Node12&#45;&gt;Node21 -->
<g id="edge25" class="edge">
<title>Node12&#45;&gt;Node21</title>
<path fill="none" stroke="midnightblue" d="M1022.27,-315.05C1099.22,-311.77 1228.46,-301.05 1258,-266 1279.54,-240.45 1225.88,-212.79 1224,-210 1209.07,-187.89 1197.14,-159.3 1190.31,-141.06"/>
<polygon fill="midnightblue" stroke="midnightblue" points="1193.6,-139.84 1186.9,-131.63 1187.01,-142.23 1193.6,-139.84"/>
</g>
<!-- Node22 -->
<g id="node22" class="node">
<title>Node22</title>
<g id="a_node22"><a xlink:title=" ">
<polygon fill="white" stroke="#bfbfbf" points="1331.5,-56.5 1331.5,-75.5 1424.5,-75.5 1424.5,-56.5 1331.5,-56.5"/>
<text text-anchor="middle" x="1378" y="-63.5" font-family="Helvetica,sans-Serif" font-size="10.00">unordered_map</text>
</a>
</g>
</g>
<!-- Node12&#45;&gt;Node22 -->
<g id="edge26" class="edge">
<title>Node12&#45;&gt;Node22</title>
<path fill="none" stroke="midnightblue" d="M1022.42,-311.74C1131,-301.45 1356.58,-272.82 1397,-210 1422.11,-170.98 1400.93,-113.55 1387.3,-84.79"/>
<polygon fill="midnightblue" stroke="midnightblue" points="1390.31,-82.97 1382.73,-75.58 1384.04,-86.09 1390.31,-82.97"/>
</g>
<!-- Node23 -->
<g id="node23" class="node">
<title>Node23</title>
<g id="a_node23"><a xlink:title=" ">
<polygon fill="white" stroke="#bfbfbf" points="1482.5,-246.5 1482.5,-265.5 1533.5,-265.5 1533.5,-246.5 1482.5,-246.5"/>
<text text-anchor="middle" x="1508" y="-253.5" font-family="Helvetica,sans-Serif" font-size="10.00">variant</text>
</a>
</g>
</g>
<!-- Node12&#45;&gt;Node23 -->
<g id="edge27" class="edge">
<title>Node12&#45;&gt;Node23</title>
<path fill="none" stroke="midnightblue" d="M1022.12,-312.98C1116.23,-306.76 1307.62,-291.98 1468,-266 1469.45,-265.77 1470.92,-265.51 1472.41,-265.24"/>
<polygon fill="midnightblue" stroke="midnightblue" points="1473.15,-268.66 1482.27,-263.27 1471.78,-261.8 1473.15,-268.66"/>
</g>
<!-- Node24 -->
<g id="node24" class="node">
<title>Node24</title>
<g id="a_node24"><a xlink:href="../../da/d3b/ObjectIterator_8h.html" target="_top" xlink:title=" ">
<polygon fill="white" stroke="black" points="684,-246.5 684,-265.5 776,-265.5 776,-246.5 684,-246.5"/>
<text text-anchor="middle" x="730" y="-253.5" font-family="Helvetica,sans-Serif" font-size="10.00">ObjectIterator.h</text>
</a>
</g>
</g>
<!-- Node12&#45;&gt;Node24 -->
<g id="edge28" class="edge">
<title>Node12&#45;&gt;Node24</title>
<path fill="none" stroke="midnightblue" d="M908.84,-302.47C867.41,-291.94 811.47,-277.72 773.25,-268"/>
<polygon fill="midnightblue" stroke="midnightblue" points="774.01,-264.58 763.45,-265.51 772.28,-271.36 774.01,-264.58"/>
</g>
<!-- Node27 -->
<g id="node27" class="node">
<title>Node27</title>
<g id="a_node27"><a xlink:href="../../d5/de2/ViewCursor_8h.html" target="_top" xlink:title=" ">
<polygon fill="white" stroke="black" points="589,-179.5 589,-198.5 669,-198.5 669,-179.5 589,-179.5"/>
<text text-anchor="middle" x="629" y="-186.5" font-family="Helvetica,sans-Serif" font-size="10.00">ViewCursor.h</text>
</a>
</g>
</g>
<!-- Node12&#45;&gt;Node27 -->
<g id="edge41" class="edge">
<title>Node12&#45;&gt;Node27</title>
<path fill="none" stroke="midnightblue" d="M905.93,-312.03C832.64,-305.44 711.68,-291.08 675,-266 654.76,-252.16 641.91,-226.19 635.09,-208.5"/>
<polygon fill="midnightblue" stroke="midnightblue" points="638.26,-206.98 631.6,-198.74 631.67,-209.34 638.26,-206.98"/>
</g>
<!-- Node28 -->
<g id="node28" class="node">
<title>Node28</title>
<g id="a_node28"><a xlink:href="../../d0/d10/ViewStructure_8h.html" target="_top" xlink:title=" ">
<polygon fill="white" stroke="black" points="896,-112.5 896,-131.5 990,-131.5 990,-112.5 896,-112.5"/>
<text text-anchor="middle" x="943" y="-119.5" font-family="Helvetica,sans-Serif" font-size="10.00">ViewStructure.h</text>
</a>
</g>
</g>
<!-- Node12&#45;&gt;Node28 -->
<g id="edge42" class="edge">
<title>Node12&#45;&gt;Node28</title>
<path fill="none" stroke="midnightblue" d="M931.41,-302.44C916.53,-294.16 900.38,-282.12 892,-266 880.26,-243.43 915.22,-173.59 933.13,-140.6"/>
<polygon fill="midnightblue" stroke="midnightblue" points="936.31,-142.09 938.07,-131.64 930.18,-138.71 936.31,-142.09"/>
</g>
<!-- Node29 -->
<g id="node29" class="node">
<title>Node29</title>
<g id="a_node29"><a xlink:href="../../d8/dee/VirtualObject_8h.html" target="_top" xlink:title=" ">
<polygon fill="white" stroke="black" points="942.5,-179.5 942.5,-198.5 1031.5,-198.5 1031.5,-179.5 942.5,-179.5"/>
<text text-anchor="middle" x="987" y="-186.5" font-family="Helvetica,sans-Serif" font-size="10.00">VirtualObject.h</text>
</a>
</g>
</g>
<!-- Node12&#45;&gt;Node29 -->
<g id="edge43" class="edge">
<title>Node12&#45;&gt;Node29</title>
<path fill="none" stroke="midnightblue" d="M935.81,-302.49C913.44,-289.32 887.81,-268.35 900,-246 911.11,-225.63 933.16,-211.56 952.28,-202.62"/>
<polygon fill="midnightblue" stroke="midnightblue" points="953.89,-205.73 961.65,-198.52 951.09,-199.32 953.89,-205.73"/>
</g>
<!-- Node13&#45;&gt;Node10 -->
<g id="edge15" class="edge">
<title>Node13&#45;&gt;Node10</title>
<path fill="none" stroke="midnightblue" d="M1014.04,-246.46C1052.49,-238.75 1101,-226.16 1113,-210 1149.76,-160.49 1065.51,-105.29 1020.29,-80.43"/>
<polygon fill="midnightblue" stroke="midnightblue" points="1021.76,-77.24 1011.29,-75.6 1018.44,-83.41 1021.76,-77.24"/>
</g>
<!-- Node14 -->
<g id="node14" class="node">
<title>Node14</title>
<g id="a_node14"><a xlink:title=" ">
<polygon fill="white" stroke="#bfbfbf" points="1050,-179.5 1050,-198.5 1104,-198.5 1104,-179.5 1050,-179.5"/>
<text text-anchor="middle" x="1077" y="-186.5" font-family="Helvetica,sans-Serif" font-size="10.00">istream</text>
</a>
</g>
</g>
<!-- Node13&#45;&gt;Node14 -->
<g id="edge14" class="edge">
<title>Node13&#45;&gt;Node14</title>
<path fill="none" stroke="midnightblue" d="M979.24,-246.23C998.22,-235.32 1030.85,-216.55 1053.15,-203.72"/>
<polygon fill="midnightblue" stroke="midnightblue" points="1055.08,-206.65 1062,-198.63 1051.59,-200.58 1055.08,-206.65"/>
</g>
<!-- Node15&#45;&gt;Node4 -->
<g id="edge17" class="edge">
<title>Node15&#45;&gt;Node4</title>
<path fill="none" stroke="midnightblue" d="M555.88,-56.44C582.29,-47.36 624.22,-32.94 653.74,-22.78"/>
<polygon fill="midnightblue" stroke="midnightblue" points="654.92,-26.08 663.24,-19.52 652.64,-19.46 654.92,-26.08"/>
</g>
<!-- Node15&#45;&gt;Node5 -->
<g id="edge19" class="edge">
<title>Node15&#45;&gt;Node5</title>
<path fill="none" stroke="midnightblue" d="M483.78,-56.44C431.25,-46.92 346.39,-31.55 290.15,-21.36"/>
<polygon fill="midnightblue" stroke="midnightblue" points="290.46,-17.86 280,-19.52 289.21,-24.74 290.46,-17.86"/>
</g>
<!-- Node15&#45;&gt;Node6 -->
<g id="edge20" class="edge">
<title>Node15&#45;&gt;Node6</title>
<path fill="none" stroke="midnightblue" d="M477.93,-58.93C406.35,-50.65 274.95,-35.1 163,-20 161.29,-19.77 159.55,-19.53 157.79,-19.29"/>
<polygon fill="midnightblue" stroke="midnightblue" points="158.01,-15.78 147.62,-17.86 157.03,-22.72 158.01,-15.78"/>
</g>
<!-- Node15&#45;&gt;Node16 -->
<g id="edge18" class="edge">
<title>Node15&#45;&gt;Node16</title>
<path fill="none" stroke="midnightblue" d="M506.44,-56.44C480.48,-47.4 439.33,-33.06 410.2,-22.92"/>
<polygon fill="midnightblue" stroke="midnightblue" points="411.04,-19.5 400.45,-19.52 408.74,-26.11 411.04,-19.5"/>
</g>
<!-- Node17 -->
<g id="node17" class="node">
<title>Node17</title>
<g id="a_node17"><a xlink:title=" ">
<polygon fill="white" stroke="#bfbfbf" points="456,-0.5 456,-19.5 606,-19.5 606,-0.5 456,-0.5"/>
<text text-anchor="middle" x="531" y="-7.5" font-family="Helvetica,sans-Serif" font-size="10.00">rapidjson/istreamwrapper.h</text>
</a>
</g>
</g>
<!-- Node15&#45;&gt;Node17 -->
<g id="edge21" class="edge">
<title>Node15&#45;&gt;Node17</title>
<path fill="none" stroke="midnightblue" d="M531,-56.08C531,-49.01 531,-38.86 531,-29.99"/>
<polygon fill="midnightblue" stroke="midnightblue" points="534.5,-29.75 531,-19.75 527.5,-29.75 534.5,-29.75"/>
</g>
<!-- Node18 -->
<g id="node18" class="node">
<title>Node18</title>
<g id="a_node18"><a xlink:title=" ">
<polygon fill="white" stroke="#bfbfbf" points="1128.5,-0.5 1128.5,-19.5 1235.5,-19.5 1235.5,-0.5 1128.5,-0.5"/>
<text text-anchor="middle" x="1182" y="-7.5" font-family="Helvetica,sans-Serif" font-size="10.00">rapidjson/pointer.h</text>
</a>
</g>
</g>
<!-- Node15&#45;&gt;Node18 -->
<g id="edge22" class="edge">
<title>Node15&#45;&gt;Node18</title>
<path fill="none" stroke="midnightblue" d="M584.27,-60.58C703.28,-50.71 990.28,-26.9 1118.4,-16.28"/>
<polygon fill="midnightblue" stroke="midnightblue" points="1118.77,-19.76 1128.45,-15.44 1118.19,-12.78 1118.77,-19.76"/>
</g>
<!-- Node24&#45;&gt;Node10 -->
<g id="edge30" class="edge">
<title>Node24&#45;&gt;Node10</title>
<path fill="none" stroke="midnightblue" d="M758.84,-246.43C777.95,-239.42 802.3,-227.72 818,-210 848.77,-175.27 820.52,-144.13 854,-112 883.37,-83.81 930.48,-73.28 961.83,-69.34"/>
<polygon fill="midnightblue" stroke="midnightblue" points="962.25,-72.82 971.8,-68.25 961.48,-65.86 962.25,-72.82"/>
</g>
<!-- Node24&#45;&gt;Node15 -->
<g id="edge29" class="edge">
<title>Node24&#45;&gt;Node15</title>
<path fill="none" stroke="midnightblue" d="M726.04,-246.18C718.36,-229.67 700.21,-193.46 678,-168 643.5,-128.46 590.26,-97.01 558.21,-80.26"/>
<polygon fill="midnightblue" stroke="midnightblue" points="559.48,-76.99 548.98,-75.55 556.29,-83.22 559.48,-76.99"/>
</g>
<!-- Node25 -->
<g id="node25" class="node">
<title>Node25</title>
<g id="a_node25"><a xlink:title=" ">
<polygon fill="white" stroke="#bfbfbf" points="763.5,-179.5 763.5,-198.5 808.5,-198.5 808.5,-179.5 763.5,-179.5"/>
<text text-anchor="middle" x="786" y="-186.5" font-family="Helvetica,sans-Serif" font-size="10.00">utility</text>
</a>
</g>
</g>
<!-- Node24&#45;&gt;Node25 -->
<g id="edge31" class="edge">
<title>Node24&#45;&gt;Node25</title>
<path fill="none" stroke="midnightblue" d="M737.55,-246.23C746.28,-236.1 760.85,-219.19 771.74,-206.56"/>
<polygon fill="midnightblue" stroke="midnightblue" points="774.69,-208.49 778.57,-198.63 769.39,-203.92 774.69,-208.49"/>
</g>
<!-- Node26 -->
<g id="node26" class="node">
<title>Node26</title>
<g id="a_node26"><a xlink:title=" ">
<polygon fill="white" stroke="#bfbfbf" points="754.5,-112.5 754.5,-131.5 801.5,-131.5 801.5,-112.5 754.5,-112.5"/>
<text text-anchor="middle" x="778" y="-119.5" font-family="Helvetica,sans-Serif" font-size="10.00">vector</text>
</a>
</g>
</g>
<!-- Node24&#45;&gt;Node26 -->
<g id="edge32" class="edge">
<title>Node24&#45;&gt;Node26</title>
<path fill="none" stroke="midnightblue" d="M731.88,-246.42C735.48,-230.61 743.97,-195.92 755,-168 758.67,-158.72 763.62,-148.8 767.98,-140.64"/>
<polygon fill="midnightblue" stroke="midnightblue" points="771.13,-142.18 772.9,-131.73 765,-138.8 771.13,-142.18"/>
</g>
<!-- Node24&#45;&gt;Node27 -->
<g id="edge33" class="edge">
<title>Node24&#45;&gt;Node27</title>
<path fill="none" stroke="midnightblue" d="M716.38,-246.23C699.57,-235.42 670.77,-216.88 650.86,-204.07"/>
<polygon fill="midnightblue" stroke="midnightblue" points="652.71,-201.1 642.41,-198.63 648.92,-206.98 652.71,-201.1"/>
</g>
<!-- Node27&#45;&gt;Node9 -->
<g id="edge35" class="edge">
<title>Node27&#45;&gt;Node9</title>
<path fill="none" stroke="midnightblue" d="M588.8,-179.83C527.07,-167.3 409.68,-143.45 348.42,-131.01"/>
<polygon fill="midnightblue" stroke="midnightblue" points="348.88,-127.53 338.38,-128.97 347.48,-134.39 348.88,-127.53"/>
</g>
<!-- Node27&#45;&gt;Node15 -->
<g id="edge34" class="edge">
<title>Node27&#45;&gt;Node15</title>
<path fill="none" stroke="midnightblue" d="M625.7,-179.33C619.74,-164.45 606.13,-133.58 588,-112 578.15,-100.27 564.8,-89.54 553.51,-81.5"/>
<polygon fill="midnightblue" stroke="midnightblue" points="555.22,-78.42 544.99,-75.66 551.26,-84.2 555.22,-78.42"/>
</g>
<!-- Node27&#45;&gt;Node26 -->
<g id="edge36" class="edge">
<title>Node27&#45;&gt;Node26</title>
<path fill="none" stroke="midnightblue" d="M648.79,-179.37C674.39,-168.2 719.21,-148.65 748.75,-135.76"/>
<polygon fill="midnightblue" stroke="midnightblue" points="750.37,-138.87 758.13,-131.67 747.57,-132.46 750.37,-138.87"/>
</g>
<!-- Node27&#45;&gt;Node28 -->
<g id="edge37" class="edge">
<title>Node27&#45;&gt;Node28</title>
<path fill="none" stroke="midnightblue" d="M669.09,-179.7C725.86,-167.95 829.69,-146.46 891.92,-133.57"/>
<polygon fill="midnightblue" stroke="midnightblue" points="892.82,-136.96 901.91,-131.51 891.4,-130.11 892.82,-136.96"/>
</g>
<!-- Node28&#45;&gt;Node10 -->
<g id="edge39" class="edge">
<title>Node28&#45;&gt;Node10</title>
<path fill="none" stroke="midnightblue" d="M951.42,-112.08C958.85,-104.22 969.85,-92.57 978.81,-83.08"/>
<polygon fill="midnightblue" stroke="midnightblue" points="981.41,-85.42 985.74,-75.75 976.32,-80.62 981.41,-85.42"/>
</g>
<!-- Node28&#45;&gt;Node15 -->
<g id="edge38" class="edge">
<title>Node28&#45;&gt;Node15</title>
<path fill="none" stroke="midnightblue" d="M895.74,-114.81C821.48,-105.07 677.38,-86.19 594.26,-75.29"/>
<polygon fill="midnightblue" stroke="midnightblue" points="594.56,-71.8 584.19,-73.97 593.65,-78.74 594.56,-71.8"/>
</g>
<!-- Node28&#45;&gt;Node22 -->
<g id="edge40" class="edge">
<title>Node28&#45;&gt;Node22</title>
<path fill="none" stroke="midnightblue" d="M990.38,-115.12C1071,-105.11 1234.52,-84.81 1321.16,-74.06"/>
<polygon fill="midnightblue" stroke="midnightblue" points="1321.84,-77.5 1331.34,-72.79 1320.98,-70.55 1321.84,-77.5"/>
</g>
<!-- Node29&#45;&gt;Node4 -->
<g id="edge44" class="edge">
<title>Node29&#45;&gt;Node4</title>
<path fill="none" stroke="midnightblue" d="M1001.61,-179.46C1016.22,-169.97 1037.8,-153.17 1047,-132 1058.13,-106.39 1025.89,-56.7 1025,-56 981.96,-22.28 824.71,-13.8 741.1,-11.68"/>
<polygon fill="midnightblue" stroke="midnightblue" points="741.11,-8.18 731.04,-11.45 740.95,-15.18 741.11,-8.18"/>
</g>
<!-- Node29&#45;&gt;Node10 -->
<g id="edge46" class="edge">
<title>Node29&#45;&gt;Node10</title>
<path fill="none" stroke="midnightblue" d="M997.23,-179.34C1008.25,-169.28 1025.13,-151.53 1032,-132 1034.95,-123.62 1035.05,-120.35 1032,-112 1027.94,-100.91 1019.81,-90.67 1012.11,-82.76"/>
<polygon fill="midnightblue" stroke="midnightblue" points="1014.36,-80.07 1004.71,-75.7 1009.53,-85.14 1014.36,-80.07"/>
</g>
<!-- Node29&#45;&gt;Node15 -->
<g id="edge45" class="edge">
<title>Node29&#45;&gt;Node15</title>
<path fill="none" stroke="midnightblue" d="M992.38,-179.2C1001.19,-163.55 1016.07,-130.79 999,-112 972.3,-82.61 715.82,-71.9 594.28,-68.45"/>
<polygon fill="midnightblue" stroke="midnightblue" points="594.1,-64.95 584.01,-68.17 593.91,-71.94 594.1,-64.95"/>
</g>
<!-- Node29&#45;&gt;Node28 -->
<g id="edge47" class="edge">
<title>Node29&#45;&gt;Node28</title>
<path fill="none" stroke="midnightblue" d="M981.07,-179.23C974.27,-169.2 962.98,-152.51 954.45,-139.92"/>
<polygon fill="midnightblue" stroke="midnightblue" points="957.34,-137.95 948.84,-131.63 951.55,-141.87 957.34,-137.95"/>
</g>
<!-- Node31&#45;&gt;Node10 -->
<g id="edge54" class="edge">
<title>Node31&#45;&gt;Node10</title>
<path fill="none" stroke="midnightblue" d="M1291.64,-168.3C1274.14,-150.77 1246.21,-125.83 1217,-112 1153.71,-82.04 1071.13,-71.99 1026.33,-68.65"/>
<polygon fill="midnightblue" stroke="midnightblue" points="1026.53,-65.16 1016.32,-67.97 1026.06,-72.14 1026.53,-65.16"/>
</g>
<!-- Node31&#45;&gt;Node21 -->
<g id="edge53" class="edge">
<title>Node31&#45;&gt;Node21</title>
<path fill="none" stroke="midnightblue" d="M1272.2,-168.5C1252.13,-158.15 1227.99,-145.69 1210.04,-136.43"/>
<polygon fill="midnightblue" stroke="midnightblue" points="1211.26,-133.13 1200.77,-131.65 1208.06,-139.35 1211.26,-133.13"/>
</g>
<!-- Node31&#45;&gt;Node22 -->
<g id="edge55" class="edge">
<title>Node31&#45;&gt;Node22</title>
<path fill="none" stroke="midnightblue" d="M1330.98,-168.38C1340.69,-158.31 1351.67,-145.37 1359,-132 1366.95,-117.5 1371.9,-99.32 1374.75,-85.87"/>
<polygon fill="midnightblue" stroke="midnightblue" points="1378.22,-86.36 1376.66,-75.88 1371.34,-85.04 1378.22,-86.36"/>
</g>
<!-- Node31&#45;&gt;Node26 -->
<g id="edge57" class="edge">
<title>Node31&#45;&gt;Node26</title>
<path fill="none" stroke="midnightblue" d="M1232.36,-178.51C1114.54,-164.12 895.47,-137.35 811.73,-127.12"/>
<polygon fill="midnightblue" stroke="midnightblue" points="812.1,-123.64 801.75,-125.9 811.25,-130.59 812.1,-123.64"/>
</g>
<!-- Node32 -->
<g id="node32" class="node">
<title>Node32</title>
<g id="a_node32"><a xlink:title=" ">
<polygon fill="white" stroke="#bfbfbf" points="1264,-112.5 1264,-131.5 1350,-131.5 1350,-112.5 1264,-112.5"/>
<text text-anchor="middle" x="1307" y="-119.5" font-family="Helvetica,sans-Serif" font-size="10.00">unordered_set</text>
</a>
</g>
</g>
<!-- Node31&#45;&gt;Node32 -->
<g id="edge56" class="edge">
<title>Node31&#45;&gt;Node32</title>
<path fill="none" stroke="midnightblue" d="M1309.1,-168.5C1308.71,-160.07 1308.26,-150.24 1307.87,-141.87"/>
<polygon fill="midnightblue" stroke="midnightblue" points="1311.36,-141.48 1307.4,-131.65 1304.36,-141.8 1311.36,-141.48"/>
</g>
<!-- Node33&#45;&gt;Node4 -->
<g id="edge59" class="edge">
<title>Node33&#45;&gt;Node4</title>
<path fill="none" stroke="midnightblue" d="M476.78,-179.46C496.29,-169.24 529.11,-151.09 555,-132 600.82,-98.21 648.86,-51.15 672.7,-26.88"/>
<polygon fill="midnightblue" stroke="midnightblue" points="675.34,-29.18 679.82,-19.58 670.33,-24.29 675.34,-29.18"/>
</g>
<!-- Node33&#45;&gt;Node9 -->
<g id="edge61" class="edge">
<title>Node33&#45;&gt;Node9</title>
<path fill="none" stroke="midnightblue" d="M439.95,-179.37C414,-168.2 368.58,-148.65 338.64,-135.76"/>
<polygon fill="midnightblue" stroke="midnightblue" points="339.7,-132.41 329.13,-131.67 336.94,-138.84 339.7,-132.41"/>
</g>
<!-- Node33&#45;&gt;Node15 -->
<g id="edge62" class="edge">
<title>Node33&#45;&gt;Node15</title>
<path fill="none" stroke="midnightblue" d="M449.82,-179.15C434.25,-164.54 407.86,-134.71 423,-112 433.79,-95.81 451.63,-85.44 469.73,-78.79"/>
<polygon fill="midnightblue" stroke="midnightblue" points="471.08,-82.03 479.47,-75.56 468.88,-75.39 471.08,-82.03"/>
</g>
<!-- Node34 -->
<g id="node34" class="node">
<title>Node34</title>
<g id="a_node34"><a xlink:title=" ">
<polygon fill="white" stroke="#bfbfbf" points="432,-112.5 432,-131.5 546,-131.5 546,-112.5 432,-112.5"/>
<text text-anchor="middle" x="489" y="-119.5" font-family="Helvetica,sans-Serif" font-size="10.00">boost/operators.hpp</text>
</a>
</g>
</g>
<!-- Node33&#45;&gt;Node34 -->
<g id="edge60" class="edge">
<title>Node33&#45;&gt;Node34</title>
<path fill="none" stroke="midnightblue" d="M463.91,-179.23C468.26,-169.49 475.4,-153.48 480.96,-141.03"/>
<polygon fill="midnightblue" stroke="midnightblue" points="484.27,-142.19 485.15,-131.63 477.88,-139.33 484.27,-142.19"/>
</g>
<!-- Node35&#45;&gt;Node3 -->
<g id="edge68" class="edge">
<title>Node35&#45;&gt;Node3</title>
<path fill="none" stroke="midnightblue" d="M439.47,-481.32C427.41,-472.98 408.97,-460.21 394.73,-450.35"/>
<polygon fill="midnightblue" stroke="midnightblue" points="396.72,-447.47 386.5,-444.65 392.73,-453.22 396.72,-447.47"/>
</g>
<!-- Node35&#45;&gt;Node6 -->
<g id="edge65" class="edge">
<title>Node35&#45;&gt;Node6</title>
<path fill="none" stroke="midnightblue" d="M401.9,-488.35C284.22,-483.11 0,-461.97 0,-380 0,-380 0,-380 0,-121 0,-76.39 45.66,-42.23 75.88,-24.51"/>
<polygon fill="midnightblue" stroke="midnightblue" points="77.7,-27.5 84.7,-19.55 74.27,-21.4 77.7,-27.5"/>
</g>
<!-- Node35&#45;&gt;Node18 -->
<g id="edge66" class="edge">
<title>Node35&#45;&gt;Node18</title>
<path fill="none" stroke="midnightblue" d="M502.21,-490.33C718.78,-490.42 1562,-476.68 1562,-257 1562,-257 1562,-257 1562,-121 1562,-55.96 1354.02,-26.95 1245.79,-16.26"/>
<polygon fill="midnightblue" stroke="midnightblue" points="1245.93,-12.75 1235.64,-15.28 1245.26,-19.72 1245.93,-12.75"/>
</g>
<!-- Node35&#45;&gt;Node23 -->
<g id="edge67" class="edge">
<title>Node35&#45;&gt;Node23</title>
<path fill="none" stroke="midnightblue" d="M491.24,-481.41C626.76,-451.74 1087.62,-350.72 1468,-266 1469.43,-265.68 1470.89,-265.35 1472.37,-265.02"/>
<polygon fill="midnightblue" stroke="midnightblue" points="1473.19,-268.43 1482.18,-262.83 1471.66,-261.6 1473.19,-268.43"/>
</g>
<!-- Node36&#45;&gt;Node3 -->
<g id="edge72" class="edge">
<title>Node36&#45;&gt;Node3</title>
<path fill="none" stroke="midnightblue" d="M556.43,-537.06C548.86,-523.1 532.38,-496.14 511,-481 487.45,-464.32 457.33,-453.54 431.33,-446.72"/>
<polygon fill="midnightblue" stroke="midnightblue" points="432.14,-443.32 421.59,-444.3 430.45,-450.11 432.14,-443.32"/>
</g>
<!-- Node36&#45;&gt;Node11 -->
<g id="edge70" class="edge">
<title>Node36&#45;&gt;Node11</title>
<path fill="none" stroke="midnightblue" d="M558.24,-537.3C554.04,-524.56 545.42,-500.23 535,-481 517.91,-449.46 492.82,-415.99 477.49,-396.6"/>
<polygon fill="midnightblue" stroke="midnightblue" points="480.18,-394.35 471.2,-388.73 474.72,-398.73 480.18,-394.35"/>
</g>
<!-- Node36&#45;&gt;Node15 -->
<g id="edge71" class="edge">
<title>Node36&#45;&gt;Node15</title>
<path fill="none" stroke="midnightblue" d="M561.91,-537.16C564.33,-513.3 570.84,-445.55 573,-389 577.7,-265.72 589.09,-230.57 555,-112 552.22,-102.34 547.19,-92.39 542.44,-84.32"/>
<polygon fill="midnightblue" stroke="midnightblue" points="545.41,-82.47 537.16,-75.82 539.47,-86.16 545.41,-82.47"/>
</g>
<!-- Node36&#45;&gt;Node23 -->
<g id="edge74" class="edge">
<title>Node36&#45;&gt;Node23</title>
<path fill="none" stroke="midnightblue" d="M608.76,-545.62C803.07,-543.46 1524,-529.18 1524,-436 1524,-436 1524,-436 1524,-378 1524,-341.58 1516.79,-299.52 1512.05,-275.81"/>
<polygon fill="midnightblue" stroke="midnightblue" points="1515.42,-274.83 1509.96,-265.75 1508.57,-276.26 1515.42,-274.83"/>
</g>
<!-- Node36&#45;&gt;Node35 -->
<g id="edge73" class="edge">
<title>Node36&#45;&gt;Node35</title>
<path fill="none" stroke="midnightblue" d="M543.49,-537.32C525.93,-528.62 498.67,-515.12 478.47,-505.11"/>
<polygon fill="midnightblue" stroke="midnightblue" points="479.98,-501.96 469.47,-500.65 476.88,-508.23 479.98,-501.96"/>
</g>
</g>
</svg>
