<?xml version="1.0" encoding="UTF-8" standalone="no"?>
<!DOCTYPE svg PUBLIC "-//W3C//DTD SVG 1.1//EN"
 "http://www.w3.org/Graphics/SVG/1.1/DTD/svg11.dtd">
<!-- Generated by graphviz version 2.43.0 (0)
 -->
<!-- Title: TEST_F Pages: 1 -->
<svg width="260pt" height="104pt"
 viewBox="0.00 0.00 260.00 104.00" xmlns="http://www.w3.org/2000/svg" xmlns:xlink="http://www.w3.org/1999/xlink">
<g id="graph0" class="graph" transform="scale(1 1) rotate(0) translate(4 100)">
<title>TEST_F</title>
<polygon fill="white" stroke="transparent" points="-4,4 -4,-100 256,-100 256,4 -4,4"/>
<!-- Node1 -->
<g id="node1" class="node">
<title>Node1</title>
<g id="a_node1"><a xlink:title=" ">
<polygon fill="#bfbfbf" stroke="black" points="0,-38.5 0,-57.5 52,-57.5 52,-38.5 0,-38.5"/>
<text text-anchor="middle" x="26" y="-45.5" font-family="Helvetica,sans-Serif" font-size="10.00">TEST_F</text>
</a>
</g>
</g>
<!-- Node2 -->
<g id="node2" class="node">
<title>Node2</title>
<g id="a_node2"><a xlink:href="../../d4/df8/classIValueTestHelper.html#a1acee691cb1e478c673dde7117affae6" target="_top" xlink:title=" ">
<polygon fill="white" stroke="black" points="92.5,-76.5 92.5,-95.5 247.5,-95.5 247.5,-76.5 92.5,-76.5"/>
<text text-anchor="middle" x="170" y="-83.5" font-family="Helvetica,sans-Serif" font-size="10.00">IValueTestHelper::getPointer</text>
</a>
</g>
</g>
<!-- Node1&#45;&gt;Node2 -->
<g id="edge1" class="edge">
<title>Node1&#45;&gt;Node2</title>
<path fill="none" stroke="midnightblue" d="M52.11,-56.26C63.08,-59.76 76.12,-63.76 88,-67 96.9,-69.43 106.41,-71.83 115.66,-74.06"/>
<polygon fill="midnightblue" stroke="midnightblue" points="115.02,-77.51 125.56,-76.41 116.64,-70.7 115.02,-77.51"/>
</g>
<!-- Node3 -->
<g id="node3" class="node">
<title>Node3</title>
<g id="a_node3"><a xlink:href="../../d4/df8/classIValueTestHelper.html#a43477fe9bf66573fffbe42ab808cc5cd" target="_top" xlink:title=" ">
<polygon fill="white" stroke="black" points="88,-38.5 88,-57.5 252,-57.5 252,-38.5 88,-38.5"/>
<text text-anchor="middle" x="170" y="-45.5" font-family="Helvetica,sans-Serif" font-size="10.00">IValueTestHelper::getStringVal</text>
</a>
</g>
</g>
<!-- Node1&#45;&gt;Node3 -->
<g id="edge2" class="edge">
<title>Node1&#45;&gt;Node3</title>
<path fill="none" stroke="midnightblue" d="M52.06,-48C59.6,-48 68.36,-48 77.62,-48"/>
<polygon fill="midnightblue" stroke="midnightblue" points="77.83,-51.5 87.83,-48 77.83,-44.5 77.83,-51.5"/>
</g>
<!-- Node4 -->
<g id="node4" class="node">
<title>Node4</title>
<g id="a_node4"><a xlink:href="../../d4/df8/classIValueTestHelper.html#a3e04ba5c44f1f8d8ef5320ebde55c720" target="_top" xlink:title=" ">
<polygon fill="white" stroke="black" points="102,-0.5 102,-19.5 238,-19.5 238,-0.5 102,-0.5"/>
<text text-anchor="middle" x="170" y="-7.5" font-family="Helvetica,sans-Serif" font-size="10.00">IValueTestHelper::param</text>
</a>
</g>
</g>
<!-- Node1&#45;&gt;Node4 -->
<g id="edge3" class="edge">
<title>Node1&#45;&gt;Node4</title>
<path fill="none" stroke="midnightblue" d="M52.11,-39.74C63.08,-36.24 76.12,-32.24 88,-29 96.9,-26.57 106.41,-24.17 115.66,-21.94"/>
<polygon fill="midnightblue" stroke="midnightblue" points="116.64,-25.3 125.56,-19.59 115.02,-18.49 116.64,-25.3"/>
</g>
</g>
</svg>
