<?xml version="1.0" encoding="UTF-8" standalone="no"?>
<!DOCTYPE svg PUBLIC "-//W3C//DTD SVG 1.1//EN"
 "http://www.w3.org/Graphics/SVG/1.1/DTD/svg11.dtd">
<!-- Generated by graphviz version 2.43.0 (0)
 -->
<!-- Title: moodycamel::BlockingReaderWriterQueue::try_dequeue Pages: 1 -->
<svg width="546pt" height="118pt"
 viewBox="0.00 0.00 546.00 118.00" xmlns="http://www.w3.org/2000/svg" xmlns:xlink="http://www.w3.org/1999/xlink">
<g id="graph0" class="graph" transform="scale(1 1) rotate(0) translate(4 114)">
<title>moodycamel::BlockingReaderWriterQueue::try_dequeue</title>
<polygon fill="white" stroke="transparent" points="-4,4 -4,-114 542,-114 542,4 -4,4"/>
<!-- Node1 -->
<g id="node1" class="node">
<title>Node1</title>
<g id="a_node1"><a xlink:title=" ">
<polygon fill="#bfbfbf" stroke="black" points="0,-51.5 0,-81.5 163,-81.5 163,-51.5 0,-51.5"/>
<text text-anchor="start" x="8" y="-69.5" font-family="Helvetica,sans-Serif" font-size="10.00">moodycamel::BlockingReader</text>
<text text-anchor="middle" x="81.5" y="-58.5" font-family="Helvetica,sans-Serif" font-size="10.00">WriterQueue::try_dequeue</text>
</a>
</g>
</g>
<!-- Node2 -->
<g id="node2" class="node">
<title>Node2</title>
<g id="a_node2"><a xlink:href="../../da/d5a/classmoodycamel_1_1ReaderWriterQueue.html#ae7ada3411e98c5d1aab09ec6945a6a9e" target="_top" xlink:title=" ">
<polygon fill="white" stroke="black" points="199,-79.5 199,-109.5 350,-109.5 350,-79.5 199,-79.5"/>
<text text-anchor="start" x="207" y="-97.5" font-family="Helvetica,sans-Serif" font-size="10.00">moodycamel::ReaderWriter</text>
<text text-anchor="middle" x="274.5" y="-86.5" font-family="Helvetica,sans-Serif" font-size="10.00">Queue::try_dequeue</text>
</a>
</g>
</g>
<!-- Node1&#45;&gt;Node2 -->
<g id="edge1" class="edge">
<title>Node1&#45;&gt;Node2</title>
<path fill="none" stroke="midnightblue" d="M163.22,-78.33C171.71,-79.58 180.36,-80.85 188.89,-82.1"/>
<polygon fill="midnightblue" stroke="midnightblue" points="188.43,-85.57 198.84,-83.55 189.45,-78.64 188.43,-85.57"/>
</g>
<!-- Node3 -->
<g id="node3" class="node">
<title>Node3</title>
<g id="a_node3"><a xlink:href="../../da/d30/classmoodycamel_1_1spsc__sema_1_1LightweightSemaphore.html#a5b68a21a86def468f6f7676162e7417a" target="_top" xlink:title=" ">
<polygon fill="white" stroke="black" points="204.5,-19 204.5,-60 344.5,-60 344.5,-19 204.5,-19"/>
<text text-anchor="start" x="212.5" y="-48" font-family="Helvetica,sans-Serif" font-size="10.00">moodycamel::spsc_sema</text>
<text text-anchor="start" x="212.5" y="-37" font-family="Helvetica,sans-Serif" font-size="10.00">::LightweightSemaphore</text>
<text text-anchor="middle" x="274.5" y="-26" font-family="Helvetica,sans-Serif" font-size="10.00">::tryWait</text>
</a>
</g>
</g>
<!-- Node1&#45;&gt;Node3 -->
<g id="edge2" class="edge">
<title>Node1&#45;&gt;Node3</title>
<path fill="none" stroke="midnightblue" d="M163.22,-55.09C173.46,-53.64 183.92,-52.16 194.13,-50.72"/>
<polygon fill="midnightblue" stroke="midnightblue" points="194.83,-54.16 204.24,-49.29 193.85,-47.22 194.83,-54.16"/>
</g>
<!-- Node4 -->
<g id="node4" class="node">
<title>Node4</title>
<g id="a_node4"><a xlink:href="../../dc/d66/classmoodycamel_1_1weak__atomic.html#a8852716d0fae8add8a794d82f6623ef6" target="_top" xlink:title=" ">
<polygon fill="white" stroke="black" points="386,-49.5 386,-79.5 538,-79.5 538,-49.5 386,-49.5"/>
<text text-anchor="start" x="394" y="-67.5" font-family="Helvetica,sans-Serif" font-size="10.00">moodycamel::weak_atomic</text>
<text text-anchor="middle" x="462" y="-56.5" font-family="Helvetica,sans-Serif" font-size="10.00">::fetch_add_acquire</text>
</a>
</g>
</g>
<!-- Node3&#45;&gt;Node4 -->
<g id="edge3" class="edge">
<title>Node3&#45;&gt;Node4</title>
<path fill="none" stroke="midnightblue" d="M344.57,-48.81C354.8,-50.19 365.44,-51.62 375.94,-53.04"/>
<polygon fill="midnightblue" stroke="midnightblue" points="375.58,-56.52 385.96,-54.39 376.51,-49.58 375.58,-56.52"/>
</g>
<!-- Node5 -->
<g id="node5" class="node">
<title>Node5</title>
<g id="a_node5"><a xlink:href="../../dc/d66/classmoodycamel_1_1weak__atomic.html#a50e62633b557a82c043b2f59d7ac4c68" target="_top" xlink:title=" ">
<polygon fill="white" stroke="black" points="386,-0.5 386,-30.5 538,-30.5 538,-0.5 386,-0.5"/>
<text text-anchor="start" x="394" y="-18.5" font-family="Helvetica,sans-Serif" font-size="10.00">moodycamel::weak_atomic</text>
<text text-anchor="middle" x="462" y="-7.5" font-family="Helvetica,sans-Serif" font-size="10.00">::load</text>
</a>
</g>
</g>
<!-- Node3&#45;&gt;Node5 -->
<g id="edge4" class="edge">
<title>Node3&#45;&gt;Node5</title>
<path fill="none" stroke="midnightblue" d="M344.57,-30.56C354.8,-29.24 365.44,-27.86 375.94,-26.5"/>
<polygon fill="midnightblue" stroke="midnightblue" points="376.49,-29.96 385.96,-25.21 375.59,-23.02 376.49,-29.96"/>
</g>
</g>
</svg>
