<?xml version="1.0" encoding="UTF-8" standalone="no"?>
<!DOCTYPE svg PUBLIC "-//W3C//DTD SVG 1.1//EN"
 "http://www.w3.org/Graphics/SVG/1.1/DTD/svg11.dtd">
<!-- Generated by graphviz version 2.43.0 (0)
 -->
<!-- Title: moodycamel::BlockingReaderWriterQueue::wait_dequeue_timed Pages: 1 -->
<svg width="756pt" height="176pt"
 viewBox="0.00 0.00 756.00 175.50" xmlns="http://www.w3.org/2000/svg" xmlns:xlink="http://www.w3.org/1999/xlink">
<g id="graph0" class="graph" transform="scale(1 1) rotate(0) translate(4 171.5)">
<title>moodycamel::BlockingReaderWriterQueue::wait_dequeue_timed</title>
<polygon fill="white" stroke="transparent" points="-4,4 -4,-171.5 752,-171.5 752,4 -4,4"/>
<!-- Node1 -->
<g id="node1" class="node">
<title>Node1</title>
<g id="a_node1"><a xlink:title=" ">
<polygon fill="#bfbfbf" stroke="black" points="0,-49 0,-79 186,-79 186,-49 0,-49"/>
<text text-anchor="start" x="8" y="-67" font-family="Helvetica,sans-Serif" font-size="10.00">moodycamel::BlockingReader</text>
<text text-anchor="middle" x="93" y="-56" font-family="Helvetica,sans-Serif" font-size="10.00">WriterQueue::wait_dequeue_timed</text>
</a>
</g>
</g>
<!-- Node2 -->
<g id="node2" class="node">
<title>Node2</title>
<g id="a_node2"><a xlink:href="../../da/d5a/classmoodycamel_1_1ReaderWriterQueue.html#ae7ada3411e98c5d1aab09ec6945a6a9e" target="_top" xlink:title=" ">
<polygon fill="white" stroke="black" points="227.5,-83 227.5,-113 378.5,-113 378.5,-83 227.5,-83"/>
<text text-anchor="start" x="235.5" y="-101" font-family="Helvetica,sans-Serif" font-size="10.00">moodycamel::ReaderWriter</text>
<text text-anchor="middle" x="303" y="-90" font-family="Helvetica,sans-Serif" font-size="10.00">Queue::try_dequeue</text>
</a>
</g>
</g>
<!-- Node1&#45;&gt;Node2 -->
<g id="edge1" class="edge">
<title>Node1&#45;&gt;Node2</title>
<path fill="none" stroke="midnightblue" d="M185.84,-79.01C196.39,-80.74 207.12,-82.49 217.57,-84.2"/>
<polygon fill="midnightblue" stroke="midnightblue" points="217.06,-87.66 227.49,-85.82 218.19,-80.75 217.06,-87.66"/>
</g>
<!-- Node6 -->
<g id="node6" class="node">
<title>Node6</title>
<g id="a_node6"><a xlink:href="../../da/d30/classmoodycamel_1_1spsc__sema_1_1LightweightSemaphore.html#a9098a9e78b1782399c32783c4c5031a3" target="_top" xlink:title=" ">
<polygon fill="white" stroke="black" points="222,-25 222,-55 384,-55 384,-25 222,-25"/>
<text text-anchor="start" x="230" y="-43" font-family="Helvetica,sans-Serif" font-size="10.00">moodycamel::spsc_sema</text>
<text text-anchor="middle" x="303" y="-32" font-family="Helvetica,sans-Serif" font-size="10.00">::LightweightSemaphore::wait</text>
</a>
</g>
</g>
<!-- Node1&#45;&gt;Node6 -->
<g id="edge5" class="edge">
<title>Node1&#45;&gt;Node6</title>
<path fill="none" stroke="midnightblue" d="M186.14,-53.37C194.73,-52.38 203.43,-51.37 212,-50.38"/>
<polygon fill="midnightblue" stroke="midnightblue" points="212.46,-53.85 221.99,-49.23 211.66,-46.9 212.46,-53.85"/>
</g>
<!-- Node3 -->
<g id="node3" class="node">
<title>Node3</title>
<g id="a_node3"><a xlink:href="../../db/dc8/namespacemoodycamel.html#ac79319754b39eda6c5519aee144f0ea2" target="_top" xlink:title=" ">
<polygon fill="white" stroke="black" points="425.5,-137 425.5,-167 554.5,-167 554.5,-137 425.5,-137"/>
<text text-anchor="start" x="433.5" y="-155" font-family="Helvetica,sans-Serif" font-size="10.00">moodycamel::compiler</text>
<text text-anchor="middle" x="490" y="-144" font-family="Helvetica,sans-Serif" font-size="10.00">_fence</text>
</a>
</g>
</g>
<!-- Node2&#45;&gt;Node3 -->
<g id="edge2" class="edge">
<title>Node2&#45;&gt;Node3</title>
<path fill="none" stroke="midnightblue" d="M355.53,-113.04C377.89,-119.57 404.25,-127.26 427.61,-134.08"/>
<polygon fill="midnightblue" stroke="midnightblue" points="426.84,-137.5 437.42,-136.95 428.8,-130.78 426.84,-137.5"/>
</g>
<!-- Node4 -->
<g id="node4" class="node">
<title>Node4</title>
<g id="a_node4"><a xlink:href="../../db/dc8/namespacemoodycamel.html#a959b29a846ef87a90719aabacd25d4d1" target="_top" xlink:title=" ">
<polygon fill="white" stroke="black" points="433.5,-98.5 433.5,-117.5 546.5,-117.5 546.5,-98.5 433.5,-98.5"/>
<text text-anchor="middle" x="490" y="-105.5" font-family="Helvetica,sans-Serif" font-size="10.00">moodycamel::fence</text>
</a>
</g>
</g>
<!-- Node2&#45;&gt;Node4 -->
<g id="edge3" class="edge">
<title>Node2&#45;&gt;Node4</title>
<path fill="none" stroke="midnightblue" d="M378.71,-102.04C393.4,-102.83 408.71,-103.66 423.08,-104.44"/>
<polygon fill="midnightblue" stroke="midnightblue" points="423.18,-107.95 433.36,-104.99 423.56,-100.96 423.18,-107.95"/>
</g>
<!-- Node5 -->
<g id="node5" class="node">
<title>Node5</title>
<g id="a_node5"><a xlink:href="../../dc/d66/classmoodycamel_1_1weak__atomic.html#a50e62633b557a82c043b2f59d7ac4c68" target="_top" xlink:title=" ">
<polygon fill="white" stroke="black" points="596,-55 596,-85 748,-85 748,-55 596,-55"/>
<text text-anchor="start" x="604" y="-73" font-family="Helvetica,sans-Serif" font-size="10.00">moodycamel::weak_atomic</text>
<text text-anchor="middle" x="672" y="-62" font-family="Helvetica,sans-Serif" font-size="10.00">::load</text>
</a>
</g>
</g>
<!-- Node2&#45;&gt;Node5 -->
<g id="edge4" class="edge">
<title>Node2&#45;&gt;Node5</title>
<path fill="none" stroke="midnightblue" d="M378.57,-92.19C392.34,-91.13 406.61,-90.03 420,-89 475.12,-84.78 537.06,-80.09 585.61,-76.42"/>
<polygon fill="midnightblue" stroke="midnightblue" points="586.05,-79.9 595.76,-75.66 585.53,-72.92 586.05,-79.9"/>
</g>
<!-- Node7 -->
<g id="node7" class="node">
<title>Node7</title>
<g id="a_node7"><a xlink:href="../../da/d30/classmoodycamel_1_1spsc__sema_1_1LightweightSemaphore.html#a5b68a21a86def468f6f7676162e7417a" target="_top" xlink:title=" ">
<polygon fill="white" stroke="black" points="420,-0.5 420,-41.5 560,-41.5 560,-0.5 420,-0.5"/>
<text text-anchor="start" x="428" y="-29.5" font-family="Helvetica,sans-Serif" font-size="10.00">moodycamel::spsc_sema</text>
<text text-anchor="start" x="428" y="-18.5" font-family="Helvetica,sans-Serif" font-size="10.00">::LightweightSemaphore</text>
<text text-anchor="middle" x="490" y="-7.5" font-family="Helvetica,sans-Serif" font-size="10.00">::tryWait</text>
</a>
</g>
</g>
<!-- Node6&#45;&gt;Node7 -->
<g id="edge6" class="edge">
<title>Node6&#45;&gt;Node7</title>
<path fill="none" stroke="midnightblue" d="M384.07,-31.78C392.63,-30.9 401.34,-30 409.89,-29.12"/>
<polygon fill="midnightblue" stroke="midnightblue" points="410.25,-32.61 419.84,-28.1 409.53,-25.64 410.25,-32.61"/>
</g>
<!-- Node7&#45;&gt;Node5 -->
<g id="edge8" class="edge">
<title>Node7&#45;&gt;Node5</title>
<path fill="none" stroke="midnightblue" d="M560.08,-39.8C575.2,-43.92 591.17,-48.27 606.12,-52.34"/>
<polygon fill="midnightblue" stroke="midnightblue" points="605.22,-55.72 615.79,-54.97 607.06,-48.97 605.22,-55.72"/>
</g>
<!-- Node8 -->
<g id="node8" class="node">
<title>Node8</title>
<g id="a_node8"><a xlink:href="../../dc/d66/classmoodycamel_1_1weak__atomic.html#a8852716d0fae8add8a794d82f6623ef6" target="_top" xlink:title=" ">
<polygon fill="white" stroke="black" points="596,-6 596,-36 748,-36 748,-6 596,-6"/>
<text text-anchor="start" x="604" y="-24" font-family="Helvetica,sans-Serif" font-size="10.00">moodycamel::weak_atomic</text>
<text text-anchor="middle" x="672" y="-13" font-family="Helvetica,sans-Serif" font-size="10.00">::fetch_add_acquire</text>
</a>
</g>
</g>
<!-- Node7&#45;&gt;Node8 -->
<g id="edge7" class="edge">
<title>Node7&#45;&gt;Node8</title>
<path fill="none" stroke="midnightblue" d="M560.08,-21C568.49,-21 577.15,-21 585.76,-21"/>
<polygon fill="midnightblue" stroke="midnightblue" points="585.82,-24.5 595.82,-21 585.82,-17.5 585.82,-24.5"/>
</g>
</g>
</svg>
