<?xml version="1.0" encoding="UTF-8" standalone="no"?>
<!DOCTYPE svg PUBLIC "-//W3C//DTD SVG 1.1//EN"
 "http://www.w3.org/Graphics/SVG/1.1/DTD/svg11.dtd">
<!-- Generated by graphviz version 2.43.0 (0)
 -->
<!-- Title: moodycamel::BlockingReaderWriterQueue::enqueue Pages: 1 -->
<svg width="546pt" height="100pt"
 viewBox="0.00 0.00 546.00 99.50" xmlns="http://www.w3.org/2000/svg" xmlns:xlink="http://www.w3.org/1999/xlink">
<g id="graph0" class="graph" transform="scale(1 1) rotate(0) translate(4 95.5)">
<title>moodycamel::BlockingReaderWriterQueue::enqueue</title>
<polygon fill="white" stroke="transparent" points="-4,4 -4,-95.5 542,-95.5 542,4 -4,4"/>
<!-- Node1 -->
<g id="node1" class="node">
<title>Node1</title>
<g id="a_node1"><a xlink:title=" ">
<polygon fill="#bfbfbf" stroke="black" points="0,-33 0,-63 163,-63 163,-33 0,-33"/>
<text text-anchor="start" x="8" y="-51" font-family="Helvetica,sans-Serif" font-size="10.00">moodycamel::BlockingReader</text>
<text text-anchor="middle" x="81.5" y="-40" font-family="Helvetica,sans-Serif" font-size="10.00">WriterQueue::enqueue</text>
</a>
</g>
</g>
<!-- Node2 -->
<g id="node2" class="node">
<title>Node2</title>
<g id="a_node2"><a xlink:href="../../da/d5a/classmoodycamel_1_1ReaderWriterQueue.html#a6524c9cce29e24151fdf18eb5b0a8c7c" target="_top" xlink:title=" ">
<polygon fill="white" stroke="black" points="199,-61 199,-91 350,-91 350,-61 199,-61"/>
<text text-anchor="start" x="207" y="-79" font-family="Helvetica,sans-Serif" font-size="10.00">moodycamel::ReaderWriter</text>
<text text-anchor="middle" x="274.5" y="-68" font-family="Helvetica,sans-Serif" font-size="10.00">Queue::enqueue</text>
</a>
</g>
</g>
<!-- Node1&#45;&gt;Node2 -->
<g id="edge1" class="edge">
<title>Node1&#45;&gt;Node2</title>
<path fill="none" stroke="midnightblue" d="M163.22,-59.83C171.71,-61.08 180.36,-62.35 188.89,-63.6"/>
<polygon fill="midnightblue" stroke="midnightblue" points="188.43,-67.07 198.84,-65.05 189.45,-60.14 188.43,-67.07"/>
</g>
<!-- Node3 -->
<g id="node3" class="node">
<title>Node3</title>
<g id="a_node3"><a xlink:href="../../da/d30/classmoodycamel_1_1spsc__sema_1_1LightweightSemaphore.html#ae7ec1057eebb1de0dd3869d66c9ac4be" target="_top" xlink:title=" ">
<polygon fill="white" stroke="black" points="204.5,-0.5 204.5,-41.5 344.5,-41.5 344.5,-0.5 204.5,-0.5"/>
<text text-anchor="start" x="212.5" y="-29.5" font-family="Helvetica,sans-Serif" font-size="10.00">moodycamel::spsc_sema</text>
<text text-anchor="start" x="212.5" y="-18.5" font-family="Helvetica,sans-Serif" font-size="10.00">::LightweightSemaphore</text>
<text text-anchor="middle" x="274.5" y="-7.5" font-family="Helvetica,sans-Serif" font-size="10.00">::signal</text>
</a>
</g>
</g>
<!-- Node1&#45;&gt;Node3 -->
<g id="edge2" class="edge">
<title>Node1&#45;&gt;Node3</title>
<path fill="none" stroke="midnightblue" d="M163.22,-36.59C173.46,-35.14 183.92,-33.66 194.13,-32.22"/>
<polygon fill="midnightblue" stroke="midnightblue" points="194.83,-35.66 204.24,-30.79 193.85,-28.72 194.83,-35.66"/>
</g>
<!-- Node4 -->
<g id="node4" class="node">
<title>Node4</title>
<g id="a_node4"><a xlink:href="../../dc/d66/classmoodycamel_1_1weak__atomic.html#a1d0d744f380b967b1542e30e592e47af" target="_top" xlink:title=" ">
<polygon fill="white" stroke="black" points="386,-6 386,-36 538,-36 538,-6 386,-6"/>
<text text-anchor="start" x="394" y="-24" font-family="Helvetica,sans-Serif" font-size="10.00">moodycamel::weak_atomic</text>
<text text-anchor="middle" x="462" y="-13" font-family="Helvetica,sans-Serif" font-size="10.00">::fetch_add_release</text>
</a>
</g>
</g>
<!-- Node3&#45;&gt;Node4 -->
<g id="edge3" class="edge">
<title>Node3&#45;&gt;Node4</title>
<path fill="none" stroke="midnightblue" d="M344.57,-21C354.8,-21 365.44,-21 375.94,-21"/>
<polygon fill="midnightblue" stroke="midnightblue" points="375.96,-24.5 385.96,-21 375.96,-17.5 375.96,-24.5"/>
</g>
</g>
</svg>
