<?xml version="1.0" encoding="UTF-8" standalone="no"?>
<!DOCTYPE svg PUBLIC "-//W3C//DTD SVG 1.1//EN"
 "http://www.w3.org/Graphics/SVG/1.1/DTD/svg11.dtd">
<!-- Generated by graphviz version 2.43.0 (0)
 -->
<!-- Title: moodycamel::BlockingReaderWriterQueue::wait_dequeue Pages: 1 -->
<svg width="733pt" height="112pt"
 viewBox="0.00 0.00 733.00 112.00" xmlns="http://www.w3.org/2000/svg" xmlns:xlink="http://www.w3.org/1999/xlink">
<g id="graph0" class="graph" transform="scale(1 1) rotate(0) translate(4 108)">
<title>moodycamel::BlockingReaderWriterQueue::wait_dequeue</title>
<polygon fill="white" stroke="transparent" points="-4,4 -4,-108 729,-108 729,4 -4,4"/>
<!-- Node1 -->
<g id="node1" class="node">
<title>Node1</title>
<g id="a_node1"><a xlink:title=" ">
<polygon fill="#bfbfbf" stroke="black" points="0,-48.5 0,-78.5 163,-78.5 163,-48.5 0,-48.5"/>
<text text-anchor="start" x="8" y="-66.5" font-family="Helvetica,sans-Serif" font-size="10.00">moodycamel::BlockingReader</text>
<text text-anchor="middle" x="81.5" y="-55.5" font-family="Helvetica,sans-Serif" font-size="10.00">WriterQueue::wait_dequeue</text>
</a>
</g>
</g>
<!-- Node2 -->
<g id="node2" class="node">
<title>Node2</title>
<g id="a_node2"><a xlink:href="../../da/d5a/classmoodycamel_1_1ReaderWriterQueue.html#ae7ada3411e98c5d1aab09ec6945a6a9e" target="_top" xlink:title=" ">
<polygon fill="white" stroke="black" points="204.5,-73.5 204.5,-103.5 355.5,-103.5 355.5,-73.5 204.5,-73.5"/>
<text text-anchor="start" x="212.5" y="-91.5" font-family="Helvetica,sans-Serif" font-size="10.00">moodycamel::ReaderWriter</text>
<text text-anchor="middle" x="280" y="-80.5" font-family="Helvetica,sans-Serif" font-size="10.00">Queue::try_dequeue</text>
</a>
</g>
</g>
<!-- Node1&#45;&gt;Node2 -->
<g id="edge1" class="edge">
<title>Node1&#45;&gt;Node2</title>
<path fill="none" stroke="midnightblue" d="M163.27,-73.78C173.44,-75.07 183.86,-76.4 194.08,-77.7"/>
<polygon fill="midnightblue" stroke="midnightblue" points="193.86,-81.2 204.22,-78.99 194.74,-74.25 193.86,-81.2"/>
</g>
<!-- Node3 -->
<g id="node3" class="node">
<title>Node3</title>
<g id="a_node3"><a xlink:href="../../da/d30/classmoodycamel_1_1spsc__sema_1_1LightweightSemaphore.html#a9098a9e78b1782399c32783c4c5031a3" target="_top" xlink:title=" ">
<polygon fill="white" stroke="black" points="199,-24.5 199,-54.5 361,-54.5 361,-24.5 199,-24.5"/>
<text text-anchor="start" x="207" y="-42.5" font-family="Helvetica,sans-Serif" font-size="10.00">moodycamel::spsc_sema</text>
<text text-anchor="middle" x="280" y="-31.5" font-family="Helvetica,sans-Serif" font-size="10.00">::LightweightSemaphore::wait</text>
</a>
</g>
</g>
<!-- Node1&#45;&gt;Node3 -->
<g id="edge2" class="edge">
<title>Node1&#45;&gt;Node3</title>
<path fill="none" stroke="midnightblue" d="M163.27,-53.63C171.72,-52.6 180.34,-51.55 188.88,-50.51"/>
<polygon fill="midnightblue" stroke="midnightblue" points="189.35,-53.98 198.86,-49.29 188.51,-47.03 189.35,-53.98"/>
</g>
<!-- Node4 -->
<g id="node4" class="node">
<title>Node4</title>
<g id="a_node4"><a xlink:href="../../da/d30/classmoodycamel_1_1spsc__sema_1_1LightweightSemaphore.html#a5b68a21a86def468f6f7676162e7417a" target="_top" xlink:title=" ">
<polygon fill="white" stroke="black" points="397,-19 397,-60 537,-60 537,-19 397,-19"/>
<text text-anchor="start" x="405" y="-48" font-family="Helvetica,sans-Serif" font-size="10.00">moodycamel::spsc_sema</text>
<text text-anchor="start" x="405" y="-37" font-family="Helvetica,sans-Serif" font-size="10.00">::LightweightSemaphore</text>
<text text-anchor="middle" x="467" y="-26" font-family="Helvetica,sans-Serif" font-size="10.00">::tryWait</text>
</a>
</g>
</g>
<!-- Node3&#45;&gt;Node4 -->
<g id="edge3" class="edge">
<title>Node3&#45;&gt;Node4</title>
<path fill="none" stroke="midnightblue" d="M361.07,-39.5C369.54,-39.5 378.15,-39.5 386.61,-39.5"/>
<polygon fill="midnightblue" stroke="midnightblue" points="386.84,-43 396.84,-39.5 386.84,-36 386.84,-43"/>
</g>
<!-- Node5 -->
<g id="node5" class="node">
<title>Node5</title>
<g id="a_node5"><a xlink:href="../../dc/d66/classmoodycamel_1_1weak__atomic.html#a8852716d0fae8add8a794d82f6623ef6" target="_top" xlink:title=" ">
<polygon fill="white" stroke="black" points="573,-49.5 573,-79.5 725,-79.5 725,-49.5 573,-49.5"/>
<text text-anchor="start" x="581" y="-67.5" font-family="Helvetica,sans-Serif" font-size="10.00">moodycamel::weak_atomic</text>
<text text-anchor="middle" x="649" y="-56.5" font-family="Helvetica,sans-Serif" font-size="10.00">::fetch_add_acquire</text>
</a>
</g>
</g>
<!-- Node4&#45;&gt;Node5 -->
<g id="edge4" class="edge">
<title>Node4&#45;&gt;Node5</title>
<path fill="none" stroke="midnightblue" d="M537.08,-49.09C545.49,-50.26 554.15,-51.47 562.76,-52.66"/>
<polygon fill="midnightblue" stroke="midnightblue" points="562.43,-56.15 572.82,-54.06 563.4,-49.22 562.43,-56.15"/>
</g>
<!-- Node6 -->
<g id="node6" class="node">
<title>Node6</title>
<g id="a_node6"><a xlink:href="../../dc/d66/classmoodycamel_1_1weak__atomic.html#a50e62633b557a82c043b2f59d7ac4c68" target="_top" xlink:title=" ">
<polygon fill="white" stroke="black" points="573,-0.5 573,-30.5 725,-30.5 725,-0.5 573,-0.5"/>
<text text-anchor="start" x="581" y="-18.5" font-family="Helvetica,sans-Serif" font-size="10.00">moodycamel::weak_atomic</text>
<text text-anchor="middle" x="649" y="-7.5" font-family="Helvetica,sans-Serif" font-size="10.00">::load</text>
</a>
</g>
</g>
<!-- Node4&#45;&gt;Node6 -->
<g id="edge5" class="edge">
<title>Node4&#45;&gt;Node6</title>
<path fill="none" stroke="midnightblue" d="M537.08,-30.29C545.49,-29.17 554.15,-28.01 562.76,-26.87"/>
<polygon fill="midnightblue" stroke="midnightblue" points="563.37,-30.31 572.82,-25.52 562.45,-23.38 563.37,-30.31"/>
</g>
</g>
</svg>
