<?xml version="1.0" encoding="UTF-8" standalone="no"?>
<!DOCTYPE svg PUBLIC "-//W3C//DTD SVG 1.1//EN"
 "http://www.w3.org/Graphics/SVG/1.1/DTD/svg11.dtd">
<!-- Generated by graphviz version 2.43.0 (0)
 -->
<!-- Title: joda::query::CountAggregator::getName Pages: 1 -->
<svg width="362pt" height="88pt"
 viewBox="0.00 0.00 362.00 88.00" xmlns="http://www.w3.org/2000/svg" xmlns:xlink="http://www.w3.org/1999/xlink">
<g id="graph0" class="graph" transform="scale(1 1) rotate(0) translate(4 84)">
<title>joda::query::CountAggregator::getName</title>
<polygon fill="white" stroke="transparent" points="-4,4 -4,-84 358,-84 358,4 -4,4"/>
<!-- Node1 -->
<g id="node1" class="node">
<title>Node1</title>
<g id="a_node1"><a xlink:title=" ">
<polygon fill="#bfbfbf" stroke="black" points="195,-24.5 195,-54.5 354,-54.5 354,-24.5 195,-24.5"/>
<text text-anchor="start" x="203" y="-42.5" font-family="Helvetica,sans-Serif" font-size="10.00">joda::query::CountAggregator</text>
<text text-anchor="middle" x="274.5" y="-31.5" font-family="Helvetica,sans-Serif" font-size="10.00">::getName</text>
</a>
</g>
</g>
<!-- Node2 -->
<g id="node2" class="node">
<title>Node2</title>
<g id="a_node2"><a xlink:href="../../df/d90/classjoda_1_1query_1_1CountAggregator.html#a25f23b20f69d88e6bce2c0c9aac7ab25" target="_top" xlink:title=" ">
<polygon fill="white" stroke="black" points="0,-49.5 0,-79.5 159,-79.5 159,-49.5 0,-49.5"/>
<text text-anchor="start" x="8" y="-67.5" font-family="Helvetica,sans-Serif" font-size="10.00">joda::query::CountAggregator</text>
<text text-anchor="middle" x="79.5" y="-56.5" font-family="Helvetica,sans-Serif" font-size="10.00">::CountAggregator</text>
</a>
</g>
</g>
<!-- Node1&#45;&gt;Node2 -->
<g id="edge1" class="edge">
<title>Node1&#45;&gt;Node2</title>
<path fill="none" stroke="midnightblue" d="M184.98,-50.97C176.39,-52.08 167.72,-53.2 159.24,-54.3"/>
<polygon fill="midnightblue" stroke="midnightblue" points="185.53,-54.42 195,-49.67 184.63,-47.48 185.53,-54.42"/>
</g>
<!-- Node3 -->
<g id="node3" class="node">
<title>Node3</title>
<g id="a_node3"><a xlink:href="../../df/d90/classjoda_1_1query_1_1CountAggregator.html#ae2292232379d36e00f803cff07315606" target="_top" xlink:title=" ">
<polygon fill="white" stroke="black" points="0,-0.5 0,-30.5 159,-30.5 159,-0.5 0,-0.5"/>
<text text-anchor="start" x="8" y="-18.5" font-family="Helvetica,sans-Serif" font-size="10.00">joda::query::CountAggregator</text>
<text text-anchor="middle" x="79.5" y="-7.5" font-family="Helvetica,sans-Serif" font-size="10.00">::merge</text>
</a>
</g>
</g>
<!-- Node1&#45;&gt;Node3 -->
<g id="edge2" class="edge">
<title>Node1&#45;&gt;Node3</title>
<path fill="none" stroke="midnightblue" d="M184.98,-28.49C176.39,-27.42 167.72,-26.35 159.24,-25.29"/>
<polygon fill="midnightblue" stroke="midnightblue" points="184.64,-31.98 195,-29.74 185.51,-25.03 184.64,-31.98"/>
</g>
</g>
</svg>
