<?xml version="1.0" encoding="UTF-8" standalone="no"?>
<!DOCTYPE svg PUBLIC "-//W3C//DTD SVG 1.1//EN"
 "http://www.w3.org/Graphics/SVG/1.1/DTD/svg11.dtd">
<!-- Generated by graphviz version 2.43.0 (0)
 -->
<!-- Title: /home/nico/projects/JODA&#45;gh/libs/joda/core/modules/query/values/include/joda/query/values/SeqNumberProvider.h Pages: 1 -->
<!--zoomable 542 -->
<svg id="main" version="1.1" xmlns="http://www.w3.org/2000/svg" xmlns:xlink="http://www.w3.org/1999/xlink" xml:space="preserve" onload="init(evt)">
<style type="text/css"><![CDATA[
.edge:hover path { stroke: red; }
.edge:hover polygon { stroke: red; fill: red; }
]]></style>
<script type="text/javascript"><![CDATA[
var edges = document.getElementsByTagName('g');
if (edges && edges.length) {
  for (var i=0;i<edges.length;i++) {
    if (edges[i].id.substr(0,4)=='edge') {
      edges[i].setAttribute('class','edge');
    }
  }
}
]]></script>
        <defs>
                <circle id="rim" cx="0" cy="0" r="7"/>
                <circle id="rim2" cx="0" cy="0" r="3.5"/>
                <g id="zoomPlus">
                        <use xlink:href="#rim" fill="#404040">
                                <set attributeName="fill" to="#808080" begin="zoomplus.mouseover" end="zoomplus.mouseout"/>
                        </use>
                        <path d="M-4,0h8M0,-4v8" fill="none" stroke="white" stroke-width="1.5" pointer-events="none"/>
                </g>
                <g id="zoomMin">
                        <use xlink:href="#rim" fill="#404040">
                                <set attributeName="fill" to="#808080" begin="zoomminus.mouseover" end="zoomminus.mouseout"/>
                        </use>
                        <path d="M-4,0h8" fill="none" stroke="white" stroke-width="1.5" pointer-events="none"/>
                </g>
                <g id="dirArrow">
                        <path fill="none" stroke="white" stroke-width="1.5" d="M0,-3.0v7 M-2.5,-0.5L0,-3.0L2.5,-0.5"/>
                </g>
               <g id="resetDef">
                       <use xlink:href="#rim2" fill="#404040">
                               <set attributeName="fill" to="#808080" begin="reset.mouseover" end="reset.mouseout"/>
                       </use>
               </g>
        </defs>

<script type="text/javascript">
var viewWidth = 1522;
var viewHeight = 542;
var sectionId = 'dynsection-0';
</script>
<script xlink:href="../../svgpan.js"/>
<svg id="graph" class="graph">
<g id="viewport">
<title>/home/nico/projects/JODA&#45;gh/libs/joda/core/modules/query/values/include/joda/query/values/SeqNumberProvider.h</title>
<polygon fill="white" stroke="transparent" points="-4,4 -4,-538 1518,-538 1518,4 -4,4"/>
<!-- Node1 -->
<g id="node1" class="node">
<title>Node1</title>
<g id="a_node1"><a xlink:title=" ">
<polygon fill="#bfbfbf" stroke="black" points="451.5,-481.5 451.5,-533.5 666.5,-533.5 666.5,-481.5 451.5,-481.5"/>
<text text-anchor="start" x="459.5" y="-521.5" font-family="Helvetica,sans-Serif" font-size="10.00">/home/nico/projects</text>
<text text-anchor="start" x="459.5" y="-510.5" font-family="Helvetica,sans-Serif" font-size="10.00">/JODA&#45;gh/libs/joda/core</text>
<text text-anchor="start" x="459.5" y="-499.5" font-family="Helvetica,sans-Serif" font-size="10.00">/modules/query/values/include</text>
<text text-anchor="middle" x="559" y="-488.5" font-family="Helvetica,sans-Serif" font-size="10.00">/joda/query/values/SeqNumberProvider.h</text>
</a>
</g>
</g>
<!-- Node2 -->
<g id="node2" class="node">
<title>Node2</title>
<g id="a_node2"><a xlink:title=" ">
<polygon fill="white" stroke="#bfbfbf" points="0,-308 0,-327 50,-327 50,-308 0,-308"/>
<text text-anchor="middle" x="25" y="-315" font-family="Helvetica,sans-Serif" font-size="10.00">atomic</text>
</a>
</g>
</g>
<!-- Node1&#45;&gt;Node2 -->
<g id="edge1" class="edge">
<title>Node1&#45;&gt;Node2</title>
<path fill="none" stroke="midnightblue" d="M451.38,-505.46C343.33,-499.21 177.09,-474.85 64,-389 46.98,-376.08 36.39,-353.48 30.61,-337.35"/>
<polygon fill="midnightblue" stroke="midnightblue" points="33.8,-335.83 27.36,-327.41 27.14,-338.01 33.8,-335.83"/>
</g>
<!-- Node3 -->
<g id="node3" class="node">
<title>Node3</title>
<g id="a_node3"><a xlink:href="../../dd/d50/IValueProvider_8h.html" target="_top" xlink:title=" ">
<polygon fill="white" stroke="black" points="1047.5,-425.5 1047.5,-444.5 1142.5,-444.5 1142.5,-425.5 1047.5,-425.5"/>
<text text-anchor="middle" x="1095" y="-432.5" font-family="Helvetica,sans-Serif" font-size="10.00">IValueProvider.h</text>
</a>
</g>
</g>
<!-- Node1&#45;&gt;Node3 -->
<g id="edge2" class="edge">
<title>Node1&#45;&gt;Node3</title>
<path fill="none" stroke="midnightblue" d="M666.5,-492.36C778.21,-477.67 948.81,-455.23 1037.28,-443.59"/>
<polygon fill="midnightblue" stroke="midnightblue" points="1037.94,-447.04 1047.4,-442.26 1037.03,-440.1 1037.94,-447.04"/>
</g>
<!-- Node4 -->
<g id="node4" class="node">
<title>Node4</title>
<g id="a_node4"><a xlink:title=" ">
<polygon fill="white" stroke="#bfbfbf" points="1288,-0.5 1288,-19.5 1374,-19.5 1374,-0.5 1288,-0.5"/>
<text text-anchor="middle" x="1331" y="-7.5" font-family="Helvetica,sans-Serif" font-size="10.00">glog/logging.h</text>
</a>
</g>
</g>
<!-- Node3&#45;&gt;Node4 -->
<g id="edge3" class="edge">
<title>Node3&#45;&gt;Node4</title>
<path fill="none" stroke="midnightblue" d="M1142.56,-426.98C1231.7,-412.49 1415,-375.72 1415,-318.5 1415,-318.5 1415,-318.5 1415,-121 1415,-79.73 1377.19,-44.32 1352.31,-25.49"/>
<polygon fill="midnightblue" stroke="midnightblue" points="1354.27,-22.59 1344.12,-19.54 1350.15,-28.25 1354.27,-22.59"/>
</g>
<!-- Node5 -->
<g id="node5" class="node">
<title>Node5</title>
<g id="a_node5"><a xlink:title=" ">
<polygon fill="white" stroke="#bfbfbf" points="1392,-0.5 1392,-19.5 1514,-19.5 1514,-0.5 1392,-0.5"/>
<text text-anchor="middle" x="1453" y="-7.5" font-family="Helvetica,sans-Serif" font-size="10.00">rapidjson/document.h</text>
</a>
</g>
</g>
<!-- Node3&#45;&gt;Node5 -->
<g id="edge4" class="edge">
<title>Node3&#45;&gt;Node5</title>
<path fill="none" stroke="midnightblue" d="M1142.72,-431.61C1195.24,-427.62 1281.32,-417.03 1350,-389 1401.36,-368.04 1453,-373.97 1453,-318.5 1453,-318.5 1453,-318.5 1453,-121 1453,-88.95 1453,-51.64 1453,-29.75"/>
<polygon fill="midnightblue" stroke="midnightblue" points="1456.5,-29.56 1453,-19.56 1449.5,-29.56 1456.5,-29.56"/>
</g>
<!-- Node6 -->
<g id="node6" class="node">
<title>Node6</title>
<g id="a_node6"><a xlink:title=" ">
<polygon fill="white" stroke="#bfbfbf" points="70.5,-0.5 70.5,-19.5 161.5,-19.5 161.5,-0.5 70.5,-0.5"/>
<text text-anchor="middle" x="116" y="-7.5" font-family="Helvetica,sans-Serif" font-size="10.00">rapidjson/fwd.h</text>
</a>
</g>
</g>
<!-- Node3&#45;&gt;Node6 -->
<g id="edge5" class="edge">
<title>Node3&#45;&gt;Node6</title>
<path fill="none" stroke="midnightblue" d="M1047.31,-433.66C846.25,-431.62 78,-417.34 78,-318.5 78,-318.5 78,-318.5 78,-121 78,-86.81 94.6,-49.76 105.86,-28.57"/>
<polygon fill="midnightblue" stroke="midnightblue" points="108.95,-30.22 110.72,-19.77 102.82,-26.83 108.95,-30.22"/>
</g>
<!-- Node7 -->
<g id="node7" class="node">
<title>Node7</title>
<g id="a_node7"><a xlink:title=" ">
<polygon fill="white" stroke="#bfbfbf" points="1071.5,-369.5 1071.5,-388.5 1118.5,-388.5 1118.5,-369.5 1071.5,-369.5"/>
<text text-anchor="middle" x="1095" y="-376.5" font-family="Helvetica,sans-Serif" font-size="10.00">cmath</text>
</a>
</g>
</g>
<!-- Node3&#45;&gt;Node7 -->
<g id="edge6" class="edge">
<title>Node3&#45;&gt;Node7</title>
<path fill="none" stroke="midnightblue" d="M1095,-425.08C1095,-418.01 1095,-407.86 1095,-398.99"/>
<polygon fill="midnightblue" stroke="midnightblue" points="1098.5,-398.75 1095,-388.75 1091.5,-398.75 1098.5,-398.75"/>
</g>
<!-- Node8 -->
<g id="node8" class="node">
<title>Node8</title>
<g id="a_node8"><a xlink:title=" ">
<polygon fill="white" stroke="#bfbfbf" points="1136.5,-369.5 1136.5,-388.5 1261.5,-388.5 1261.5,-369.5 1136.5,-369.5"/>
<text text-anchor="middle" x="1199" y="-376.5" font-family="Helvetica,sans-Serif" font-size="10.00">experimental/optional</text>
</a>
</g>
</g>
<!-- Node3&#45;&gt;Node8 -->
<g id="edge7" class="edge">
<title>Node3&#45;&gt;Node8</title>
<path fill="none" stroke="midnightblue" d="M1111.71,-425.32C1128.31,-416.7 1154,-403.36 1173.22,-393.39"/>
<polygon fill="midnightblue" stroke="midnightblue" points="1175.07,-396.37 1182.33,-388.65 1171.84,-390.16 1175.07,-396.37"/>
</g>
<!-- Node9 -->
<g id="node9" class="node">
<title>Node9</title>
<g id="a_node9"><a xlink:title=" ">
<polygon fill="white" stroke="#bfbfbf" points="1083,-112.5 1083,-131.5 1141,-131.5 1141,-112.5 1083,-112.5"/>
<text text-anchor="middle" x="1112" y="-119.5" font-family="Helvetica,sans-Serif" font-size="10.00">memory</text>
</a>
</g>
</g>
<!-- Node3&#45;&gt;Node9 -->
<g id="edge8" class="edge">
<title>Node3&#45;&gt;Node9</title>
<path fill="none" stroke="midnightblue" d="M1142.86,-428.35C1189.42,-421.76 1255.38,-409.12 1271,-389 1340.06,-300.06 1189.91,-178.74 1132.84,-137.45"/>
<polygon fill="midnightblue" stroke="midnightblue" points="1134.7,-134.47 1124.52,-131.52 1130.63,-140.17 1134.7,-134.47"/>
</g>
<!-- Node10 -->
<g id="node10" class="node">
<title>Node10</title>
<g id="a_node10"><a xlink:title=" ">
<polygon fill="white" stroke="#bfbfbf" points="679,-56.5 679,-75.5 723,-75.5 723,-56.5 679,-56.5"/>
<text text-anchor="middle" x="701" y="-63.5" font-family="Helvetica,sans-Serif" font-size="10.00">string</text>
</a>
</g>
</g>
<!-- Node3&#45;&gt;Node10 -->
<g id="edge9" class="edge">
<title>Node3&#45;&gt;Node10</title>
<path fill="none" stroke="midnightblue" d="M1087.99,-425.44C1081.03,-416.66 1070.38,-402.45 1063,-389 1010.42,-293.15 1039.34,-237.56 955,-168 887.18,-112.07 784.52,-84.2 732.95,-73.06"/>
<polygon fill="midnightblue" stroke="midnightblue" points="733.55,-69.61 723.04,-71 732.12,-76.47 733.55,-69.61"/>
</g>
<!-- Node11 -->
<g id="node11" class="node">
<title>Node11</title>
<g id="a_node11"><a xlink:href="../../d1/dfd/RapidJsonDocument_8h.html" target="_top" xlink:title=" ">
<polygon fill="white" stroke="black" points="499,-369.5 499,-388.5 699,-388.5 699,-369.5 499,-369.5"/>
<text text-anchor="middle" x="599" y="-376.5" font-family="Helvetica,sans-Serif" font-size="10.00">joda/document/RapidJsonDocument.h</text>
</a>
</g>
</g>
<!-- Node3&#45;&gt;Node11 -->
<g id="edge10" class="edge">
<title>Node3&#45;&gt;Node11</title>
<path fill="none" stroke="midnightblue" d="M1047.44,-428.82C964.52,-419.79 792.32,-401.05 687.09,-389.59"/>
<polygon fill="midnightblue" stroke="midnightblue" points="687.44,-386.11 677.12,-388.5 686.68,-393.07 687.44,-386.11"/>
</g>
<!-- Node11&#45;&gt;Node2 -->
<g id="edge50" class="edge">
<title>Node11&#45;&gt;Node2</title>
<path fill="none" stroke="midnightblue" d="M498.72,-371.75C398.12,-364.82 238.87,-352.04 102,-333 88.29,-331.09 73.3,-328.41 60.23,-325.87"/>
<polygon fill="midnightblue" stroke="midnightblue" points="60.71,-322.4 50.22,-323.88 59.34,-329.26 60.71,-322.4"/>
</g>
<!-- Node11&#45;&gt;Node6 -->
<g id="edge49" class="edge">
<title>Node11&#45;&gt;Node6</title>
<path fill="none" stroke="midnightblue" d="M498.62,-374.79C395.13,-370.11 241.68,-358.93 189,-333 146.98,-312.32 116,-303.84 116,-257 116,-257 116,-257 116,-121 116,-88.95 116,-51.64 116,-29.75"/>
<polygon fill="midnightblue" stroke="midnightblue" points="119.5,-29.56 116,-19.56 112.5,-29.56 119.5,-29.56"/>
</g>
<!-- Node11&#45;&gt;Node9 -->
<g id="edge51" class="edge">
<title>Node11&#45;&gt;Node9</title>
<path fill="none" stroke="midnightblue" d="M699.25,-374.95C831.01,-369.97 1048.99,-358.04 1076,-333 1130.06,-282.89 1121.77,-183.56 1115.44,-141.99"/>
<polygon fill="midnightblue" stroke="midnightblue" points="1118.86,-141.17 1113.76,-131.88 1111.95,-142.32 1118.86,-141.17"/>
</g>
<!-- Node12 -->
<g id="node12" class="node">
<title>Node12</title>
<g id="a_node12"><a xlink:href="../../d2/d0d/ViewLayer_8h.html" target="_top" xlink:title=" ">
<polygon fill="white" stroke="black" points="541,-302.5 541,-332.5 657,-332.5 657,-302.5 541,-302.5"/>
<text text-anchor="start" x="549" y="-320.5" font-family="Helvetica,sans-Serif" font-size="10.00">joda/document/view</text>
<text text-anchor="middle" x="599" y="-309.5" font-family="Helvetica,sans-Serif" font-size="10.00">/ViewLayer.h</text>
</a>
</g>
</g>
<!-- Node11&#45;&gt;Node12 -->
<g id="edge11" class="edge">
<title>Node11&#45;&gt;Node12</title>
<path fill="none" stroke="midnightblue" d="M599,-369.48C599,-362.47 599,-352.19 599,-342.7"/>
<polygon fill="midnightblue" stroke="midnightblue" points="602.5,-342.52 599,-332.52 595.5,-342.52 602.5,-342.52"/>
</g>
<!-- Node15 -->
<g id="node15" class="node">
<title>Node15</title>
<g id="a_node15"><a xlink:href="../../d6/d09/RJFwd_8h.html" target="_top" xlink:title=" ">
<polygon fill="white" stroke="black" points="845,-56.5 845,-75.5 951,-75.5 951,-56.5 845,-56.5"/>
<text text-anchor="middle" x="898" y="-63.5" font-family="Helvetica,sans-Serif" font-size="10.00">joda/misc/RJFwd.h</text>
</a>
</g>
</g>
<!-- Node11&#45;&gt;Node15 -->
<g id="edge63" class="edge">
<title>Node11&#45;&gt;Node15</title>
<path fill="none" stroke="midnightblue" d="M671.67,-369.48C781.43,-354.95 981.27,-321.45 1024,-266 1032.81,-254.57 1053.47,-249.84 1022,-168 1005.56,-125.26 958.83,-95.67 927.67,-80.02"/>
<polygon fill="midnightblue" stroke="midnightblue" points="929.07,-76.81 918.55,-75.62 926.03,-83.12 929.07,-76.81"/>
</g>
<!-- Node16 -->
<g id="node16" class="node">
<title>Node16</title>
<g id="a_node16"><a xlink:title=" ">
<polygon fill="white" stroke="#bfbfbf" points="369,-0.5 369,-19.5 491,-19.5 491,-0.5 369,-0.5"/>
<text text-anchor="middle" x="430" y="-7.5" font-family="Helvetica,sans-Serif" font-size="10.00">rapidjson/allocators.h</text>
</a>
</g>
</g>
<!-- Node11&#45;&gt;Node16 -->
<g id="edge48" class="edge">
<title>Node11&#45;&gt;Node16</title>
<path fill="none" stroke="midnightblue" d="M498.86,-370.86C367.63,-358.7 154,-328.01 154,-257 154,-257 154,-257 154,-121 154,-74.13 293.08,-38.37 373.78,-21.57"/>
<polygon fill="midnightblue" stroke="midnightblue" points="374.71,-24.95 383.8,-19.52 373.3,-18.09 374.71,-24.95"/>
</g>
<!-- Node30 -->
<g id="node30" class="node">
<title>Node30</title>
<g id="a_node30"><a xlink:href="../../df/d13/FileNameRepo_8h.html" target="_top" xlink:title=" ">
<polygon fill="white" stroke="black" points="220.5,-168.5 220.5,-209.5 375.5,-209.5 375.5,-168.5 220.5,-168.5"/>
<text text-anchor="start" x="228.5" y="-197.5" font-family="Helvetica,sans-Serif" font-size="10.00">../../../../../misc</text>
<text text-anchor="start" x="228.5" y="-186.5" font-family="Helvetica,sans-Serif" font-size="10.00">/include/joda/misc/FileName</text>
<text text-anchor="middle" x="298" y="-175.5" font-family="Helvetica,sans-Serif" font-size="10.00">Repo.h</text>
</a>
</g>
</g>
<!-- Node11&#45;&gt;Node30 -->
<g id="edge52" class="edge">
<title>Node11&#45;&gt;Node30</title>
<path fill="none" stroke="midnightblue" d="M575.32,-369.42C532.35,-353.21 439.72,-315.22 372,-266 352.85,-252.08 334.26,-232.97 320.51,-217.39"/>
<polygon fill="midnightblue" stroke="midnightblue" points="322.97,-214.89 313.78,-209.62 317.68,-219.47 322.97,-214.89"/>
</g>
<!-- Node32 -->
<g id="node32" class="node">
<title>Node32</title>
<g id="a_node32"><a xlink:href="../../d5/d6c/IOrigin_8h.html" target="_top" xlink:title=" ">
<polygon fill="white" stroke="black" points="1242,-179.5 1242,-198.5 1300,-198.5 1300,-179.5 1242,-179.5"/>
<text text-anchor="middle" x="1271" y="-186.5" font-family="Helvetica,sans-Serif" font-size="10.00">IOrigin.h</text>
</a>
</g>
</g>
<!-- Node11&#45;&gt;Node32 -->
<g id="edge58" class="edge">
<title>Node11&#45;&gt;Node32</title>
<path fill="none" stroke="midnightblue" d="M699.09,-376.63C827.36,-373.62 1041.77,-363.95 1114,-333 1179.08,-305.11 1234.87,-238.59 1258.68,-207.09"/>
<polygon fill="midnightblue" stroke="midnightblue" points="1261.64,-208.98 1264.78,-198.86 1256.02,-204.82 1261.64,-208.98"/>
</g>
<!-- Node12&#45;&gt;Node4 -->
<g id="edge12" class="edge">
<title>Node12&#45;&gt;Node4</title>
<path fill="none" stroke="midnightblue" d="M657.15,-315.51C808.8,-311.76 1211.35,-293.95 1309,-210 1362.46,-164.04 1358.98,-125.47 1347,-56 1345.43,-46.91 1342.21,-37.22 1339.06,-29.17"/>
<polygon fill="midnightblue" stroke="midnightblue" points="1342.19,-27.6 1335.11,-19.72 1335.74,-30.3 1342.19,-27.6"/>
</g>
<!-- Node13 -->
<g id="node13" class="node">
<title>Node13</title>
<g id="a_node13"><a xlink:href="../../db/d16/config_8h.html" target="_top" xlink:title=" ">
<polygon fill="white" stroke="black" points="585.5,-246.5 585.5,-265.5 696.5,-265.5 696.5,-246.5 585.5,-246.5"/>
<text text-anchor="middle" x="641" y="-253.5" font-family="Helvetica,sans-Serif" font-size="10.00">joda/config/config.h</text>
</a>
</g>
</g>
<!-- Node12&#45;&gt;Node13 -->
<g id="edge13" class="edge">
<title>Node12&#45;&gt;Node13</title>
<path fill="none" stroke="midnightblue" d="M608.95,-302.4C614.99,-293.84 622.74,-282.87 629.1,-273.86"/>
<polygon fill="midnightblue" stroke="midnightblue" points="631.98,-275.85 634.89,-265.66 626.26,-271.81 631.98,-275.85"/>
</g>
<!-- Node12&#45;&gt;Node15 -->
<g id="edge16" class="edge">
<title>Node12&#45;&gt;Node15</title>
<path fill="none" stroke="midnightblue" d="M657.37,-313.45C764.21,-307.26 982.37,-291.62 1005,-266 1057.47,-206.6 960.48,-117.02 917.26,-81.88"/>
<polygon fill="midnightblue" stroke="midnightblue" points="919.39,-79.11 909.39,-75.61 915.02,-84.58 919.39,-79.11"/>
</g>
<!-- Node19 -->
<g id="node19" class="node">
<title>Node19</title>
<g id="a_node19"><a xlink:title=" ">
<polygon fill="white" stroke="#bfbfbf" points="714.5,-246.5 714.5,-265.5 843.5,-265.5 843.5,-246.5 714.5,-246.5"/>
<text text-anchor="middle" x="779" y="-253.5" font-family="Helvetica,sans-Serif" font-size="10.00">rapidjson/stringbuffer.h</text>
</a>
</g>
</g>
<!-- Node12&#45;&gt;Node19 -->
<g id="edge23" class="edge">
<title>Node12&#45;&gt;Node19</title>
<path fill="none" stroke="midnightblue" d="M641.66,-302.4C672.63,-292.16 714.05,-278.47 743.28,-268.81"/>
<polygon fill="midnightblue" stroke="midnightblue" points="744.67,-272.03 753.07,-265.57 742.48,-265.39 744.67,-272.03"/>
</g>
<!-- Node20 -->
<g id="node20" class="node">
<title>Node20</title>
<g id="a_node20"><a xlink:title=" ">
<polygon fill="white" stroke="#bfbfbf" points="862,-246.5 862,-265.5 926,-265.5 926,-246.5 862,-246.5"/>
<text text-anchor="middle" x="894" y="-253.5" font-family="Helvetica,sans-Serif" font-size="10.00">algorithm</text>
</a>
</g>
</g>
<!-- Node12&#45;&gt;Node20 -->
<g id="edge24" class="edge">
<title>Node12&#45;&gt;Node20</title>
<path fill="none" stroke="midnightblue" d="M657.07,-305.29C706.38,-295.7 779.29,-281.34 851.99,-266.18"/>
<polygon fill="midnightblue" stroke="midnightblue" points="852.71,-269.61 861.78,-264.13 851.28,-262.75 852.71,-269.61"/>
</g>
<!-- Node21 -->
<g id="node21" class="node">
<title>Node21</title>
<g id="a_node21"><a xlink:title=" ">
<polygon fill="white" stroke="#bfbfbf" points="400,-112.5 400,-131.5 448,-131.5 448,-112.5 400,-112.5"/>
<text text-anchor="middle" x="424" y="-119.5" font-family="Helvetica,sans-Serif" font-size="10.00">mutex</text>
</a>
</g>
</g>
<!-- Node12&#45;&gt;Node21 -->
<g id="edge25" class="edge">
<title>Node12&#45;&gt;Node21</title>
<path fill="none" stroke="midnightblue" d="M540.87,-311.24C482.65,-304.62 398.9,-290.98 379,-266 373.46,-259.05 377.45,-254.75 379,-246 385.91,-206.99 404.26,-164.11 415.27,-140.7"/>
<polygon fill="midnightblue" stroke="midnightblue" points="418.44,-142.18 419.62,-131.65 412.13,-139.15 418.44,-142.18"/>
</g>
<!-- Node22 -->
<g id="node22" class="node">
<title>Node22</title>
<g id="a_node22"><a xlink:title=" ">
<polygon fill="white" stroke="#bfbfbf" points="287.5,-56.5 287.5,-75.5 380.5,-75.5 380.5,-56.5 287.5,-56.5"/>
<text text-anchor="middle" x="334" y="-63.5" font-family="Helvetica,sans-Serif" font-size="10.00">unordered_map</text>
</a>
</g>
</g>
<!-- Node12&#45;&gt;Node22 -->
<g id="edge26" class="edge">
<title>Node12&#45;&gt;Node22</title>
<path fill="none" stroke="midnightblue" d="M540.65,-309.44C441.99,-296.12 249.2,-263.73 211,-210 185.76,-174.5 186.05,-147.7 211,-112 226.11,-90.38 252.79,-79.11 277.44,-73.26"/>
<polygon fill="midnightblue" stroke="midnightblue" points="278.43,-76.63 287.48,-71.13 276.98,-69.78 278.43,-76.63"/>
</g>
<!-- Node23 -->
<g id="node23" class="node">
<title>Node23</title>
<g id="a_node23"><a xlink:title=" ">
<polygon fill="white" stroke="#bfbfbf" points="944.5,-246.5 944.5,-265.5 995.5,-265.5 995.5,-246.5 944.5,-246.5"/>
<text text-anchor="middle" x="970" y="-253.5" font-family="Helvetica,sans-Serif" font-size="10.00">variant</text>
</a>
</g>
</g>
<!-- Node12&#45;&gt;Node23 -->
<g id="edge27" class="edge">
<title>Node12&#45;&gt;Node23</title>
<path fill="none" stroke="midnightblue" d="M657.29,-309.58C722.45,-301.44 831.25,-286.61 934.48,-265.91"/>
<polygon fill="midnightblue" stroke="midnightblue" points="935.35,-269.31 944.46,-263.89 933.96,-262.45 935.35,-269.31"/>
</g>
<!-- Node24 -->
<g id="node24" class="node">
<title>Node24</title>
<g id="a_node24"><a xlink:href="../../da/d3b/ObjectIterator_8h.html" target="_top" xlink:title=" ">
<polygon fill="white" stroke="black" points="399,-246.5 399,-265.5 491,-265.5 491,-246.5 399,-246.5"/>
<text text-anchor="middle" x="445" y="-253.5" font-family="Helvetica,sans-Serif" font-size="10.00">ObjectIterator.h</text>
</a>
</g>
</g>
<!-- Node12&#45;&gt;Node24 -->
<g id="edge28" class="edge">
<title>Node12&#45;&gt;Node24</title>
<path fill="none" stroke="midnightblue" d="M562.5,-302.4C536.43,-292.33 501.71,-278.91 476.78,-269.28"/>
<polygon fill="midnightblue" stroke="midnightblue" points="478,-266 467.41,-265.66 475.47,-272.53 478,-266"/>
</g>
<!-- Node27 -->
<g id="node27" class="node">
<title>Node27</title>
<g id="a_node27"><a xlink:href="../../d5/de2/ViewCursor_8h.html" target="_top" xlink:title=" ">
<polygon fill="white" stroke="black" points="610,-179.5 610,-198.5 690,-198.5 690,-179.5 610,-179.5"/>
<text text-anchor="middle" x="650" y="-186.5" font-family="Helvetica,sans-Serif" font-size="10.00">ViewCursor.h</text>
</a>
</g>
</g>
<!-- Node12&#45;&gt;Node27 -->
<g id="edge41" class="edge">
<title>Node12&#45;&gt;Node27</title>
<path fill="none" stroke="midnightblue" d="M574.65,-302.44C554.23,-288.75 530.29,-266.99 543,-246 547.53,-238.51 591.65,-216.98 621.8,-202.9"/>
<polygon fill="midnightblue" stroke="midnightblue" points="623.43,-206 631.03,-198.62 620.49,-199.65 623.43,-206"/>
</g>
<!-- Node28 -->
<g id="node28" class="node">
<title>Node28</title>
<g id="a_node28"><a xlink:href="../../d0/d10/ViewStructure_8h.html" target="_top" xlink:title=" ">
<polygon fill="white" stroke="black" points="598,-112.5 598,-131.5 692,-131.5 692,-112.5 598,-112.5"/>
<text text-anchor="middle" x="645" y="-119.5" font-family="Helvetica,sans-Serif" font-size="10.00">ViewStructure.h</text>
</a>
</g>
</g>
<!-- Node12&#45;&gt;Node28 -->
<g id="edge42" class="edge">
<title>Node12&#45;&gt;Node28</title>
<path fill="none" stroke="midnightblue" d="M540.95,-317.07C467.66,-315.45 355.08,-303.87 390,-246 432.09,-176.24 526.6,-145.25 587.98,-132.07"/>
<polygon fill="midnightblue" stroke="midnightblue" points="588.82,-135.47 597.91,-130.03 587.41,-128.61 588.82,-135.47"/>
</g>
<!-- Node29 -->
<g id="node29" class="node">
<title>Node29</title>
<g id="a_node29"><a xlink:href="../../d8/dee/VirtualObject_8h.html" target="_top" xlink:title=" ">
<polygon fill="white" stroke="black" points="708.5,-179.5 708.5,-198.5 797.5,-198.5 797.5,-179.5 708.5,-179.5"/>
<text text-anchor="middle" x="753" y="-186.5" font-family="Helvetica,sans-Serif" font-size="10.00">VirtualObject.h</text>
</a>
</g>
</g>
<!-- Node12&#45;&gt;Node29 -->
<g id="edge43" class="edge">
<title>Node12&#45;&gt;Node29</title>
<path fill="none" stroke="midnightblue" d="M587.64,-302.25C576.98,-287.04 564.41,-262.84 577,-246 610.85,-200.72 645.35,-227.83 699,-210 706.31,-207.57 714.1,-204.8 721.43,-202.1"/>
<polygon fill="midnightblue" stroke="midnightblue" points="722.9,-205.29 731.05,-198.51 720.46,-198.73 722.9,-205.29"/>
</g>
<!-- Node13&#45;&gt;Node10 -->
<g id="edge15" class="edge">
<title>Node13&#45;&gt;Node10</title>
<path fill="none" stroke="midnightblue" d="M696.67,-247.25C739.47,-240.01 793.48,-227.67 807,-210 842.87,-163.11 766.17,-106.56 724.93,-80.89"/>
<polygon fill="midnightblue" stroke="midnightblue" points="726.61,-77.81 716.25,-75.61 722.98,-83.8 726.61,-77.81"/>
</g>
<!-- Node14 -->
<g id="node14" class="node">
<title>Node14</title>
<g id="a_node14"><a xlink:title=" ">
<polygon fill="white" stroke="#bfbfbf" points="892,-179.5 892,-198.5 946,-198.5 946,-179.5 892,-179.5"/>
<text text-anchor="middle" x="919" y="-186.5" font-family="Helvetica,sans-Serif" font-size="10.00">istream</text>
</a>
</g>
</g>
<!-- Node13&#45;&gt;Node14 -->
<g id="edge14" class="edge">
<title>Node13&#45;&gt;Node14</title>
<path fill="none" stroke="midnightblue" d="M694.98,-246.46C754.07,-236.82 844.81,-221.03 878,-210 883.54,-208.16 889.29,-205.72 894.68,-203.18"/>
<polygon fill="midnightblue" stroke="midnightblue" points="896.45,-206.2 903.83,-198.6 893.32,-199.94 896.45,-206.2"/>
</g>
<!-- Node15&#45;&gt;Node4 -->
<g id="edge17" class="edge">
<title>Node15&#45;&gt;Node4</title>
<path fill="none" stroke="midnightblue" d="M951.02,-57.82C955.75,-57.2 960.46,-56.58 965,-56 1076.21,-41.69 1206.55,-25.9 1277.8,-17.35"/>
<polygon fill="midnightblue" stroke="midnightblue" points="1278.37,-20.81 1287.88,-16.14 1277.53,-13.86 1278.37,-20.81"/>
</g>
<!-- Node15&#45;&gt;Node5 -->
<g id="edge19" class="edge">
<title>Node15&#45;&gt;Node5</title>
<path fill="none" stroke="midnightblue" d="M951.17,-60.69C1038.65,-53.45 1218.67,-37.99 1381.71,-20.11"/>
<polygon fill="midnightblue" stroke="midnightblue" points="1382.38,-23.56 1391.93,-18.98 1381.61,-16.6 1382.38,-23.56"/>
</g>
<!-- Node15&#45;&gt;Node6 -->
<g id="edge20" class="edge">
<title>Node15&#45;&gt;Node6</title>
<path fill="none" stroke="midnightblue" d="M844.86,-61.33C703.03,-51.54 316.46,-24.84 171.71,-14.85"/>
<polygon fill="midnightblue" stroke="midnightblue" points="171.93,-11.35 161.71,-14.16 171.45,-18.34 171.93,-11.35"/>
</g>
<!-- Node15&#45;&gt;Node16 -->
<g id="edge18" class="edge">
<title>Node15&#45;&gt;Node16</title>
<path fill="none" stroke="midnightblue" d="M844.77,-58.86C760.4,-49.12 595.86,-30.14 501.36,-19.23"/>
<polygon fill="midnightblue" stroke="midnightblue" points="501.65,-15.74 491.31,-18.07 500.85,-22.7 501.65,-15.74"/>
</g>
<!-- Node17 -->
<g id="node17" class="node">
<title>Node17</title>
<g id="a_node17"><a xlink:title=" ">
<polygon fill="white" stroke="#bfbfbf" points="897,-0.5 897,-19.5 1047,-19.5 1047,-0.5 897,-0.5"/>
<text text-anchor="middle" x="972" y="-7.5" font-family="Helvetica,sans-Serif" font-size="10.00">rapidjson/istreamwrapper.h</text>
</a>
</g>
</g>
<!-- Node15&#45;&gt;Node17 -->
<g id="edge21" class="edge">
<title>Node15&#45;&gt;Node17</title>
<path fill="none" stroke="midnightblue" d="M909.89,-56.32C921.15,-48.11 938.29,-35.6 951.71,-25.81"/>
<polygon fill="midnightblue" stroke="midnightblue" points="953.88,-28.56 959.89,-19.83 949.75,-22.9 953.88,-28.56"/>
</g>
<!-- Node18 -->
<g id="node18" class="node">
<title>Node18</title>
<g id="a_node18"><a xlink:title=" ">
<polygon fill="white" stroke="#bfbfbf" points="771.5,-0.5 771.5,-19.5 878.5,-19.5 878.5,-0.5 771.5,-0.5"/>
<text text-anchor="middle" x="825" y="-7.5" font-family="Helvetica,sans-Serif" font-size="10.00">rapidjson/pointer.h</text>
</a>
</g>
</g>
<!-- Node15&#45;&gt;Node18 -->
<g id="edge22" class="edge">
<title>Node15&#45;&gt;Node18</title>
<path fill="none" stroke="midnightblue" d="M886.27,-56.32C875.16,-48.11 858.26,-35.6 845.02,-25.81"/>
<polygon fill="midnightblue" stroke="midnightblue" points="847.06,-22.97 836.94,-19.83 842.9,-28.59 847.06,-22.97"/>
</g>
<!-- Node24&#45;&gt;Node10 -->
<g id="edge30" class="edge">
<title>Node24&#45;&gt;Node10</title>
<path fill="none" stroke="midnightblue" d="M445.17,-246.16C446.17,-220.67 452.82,-146.64 496,-112 522.34,-90.87 617.97,-76.75 668.77,-70.57"/>
<polygon fill="midnightblue" stroke="midnightblue" points="669.37,-74.02 678.89,-69.37 668.55,-67.07 669.37,-74.02"/>
</g>
<!-- Node24&#45;&gt;Node15 -->
<g id="edge29" class="edge">
<title>Node24&#45;&gt;Node15</title>
<path fill="none" stroke="midnightblue" d="M491.01,-251.48C582.51,-244.15 780.77,-226.59 807,-210 853.94,-180.31 881.13,-116.67 892.18,-85.28"/>
<polygon fill="midnightblue" stroke="midnightblue" points="895.55,-86.22 895.42,-75.63 888.92,-83.99 895.55,-86.22"/>
</g>
<!-- Node25 -->
<g id="node25" class="node">
<title>Node25</title>
<g id="a_node25"><a xlink:title=" ">
<polygon fill="white" stroke="#bfbfbf" points="546.5,-179.5 546.5,-198.5 591.5,-198.5 591.5,-179.5 546.5,-179.5"/>
<text text-anchor="middle" x="569" y="-186.5" font-family="Helvetica,sans-Serif" font-size="10.00">utility</text>
</a>
</g>
</g>
<!-- Node24&#45;&gt;Node25 -->
<g id="edge31" class="edge">
<title>Node24&#45;&gt;Node25</title>
<path fill="none" stroke="midnightblue" d="M461.73,-246.46C479.28,-237.48 507.65,-222.88 532,-210 535.92,-207.93 540.07,-205.71 544.11,-203.54"/>
<polygon fill="midnightblue" stroke="midnightblue" points="546.06,-206.46 553.19,-198.63 542.73,-200.3 546.06,-206.46"/>
</g>
<!-- Node26 -->
<g id="node26" class="node">
<title>Node26</title>
<g id="a_node26"><a xlink:title=" ">
<polygon fill="white" stroke="#bfbfbf" points="504.5,-112.5 504.5,-131.5 551.5,-131.5 551.5,-112.5 504.5,-112.5"/>
<text text-anchor="middle" x="528" y="-119.5" font-family="Helvetica,sans-Serif" font-size="10.00">vector</text>
</a>
</g>
</g>
<!-- Node24&#45;&gt;Node26 -->
<g id="edge32" class="edge">
<title>Node24&#45;&gt;Node26</title>
<path fill="none" stroke="midnightblue" d="M450.45,-246.34C463.99,-224.8 499.39,-168.5 517.3,-140.02"/>
<polygon fill="midnightblue" stroke="midnightblue" points="520.28,-141.85 522.64,-131.52 514.36,-138.12 520.28,-141.85"/>
</g>
<!-- Node24&#45;&gt;Node27 -->
<g id="edge33" class="edge">
<title>Node24&#45;&gt;Node27</title>
<path fill="none" stroke="midnightblue" d="M478.49,-246.45C510.3,-238.06 559.33,-224.47 601,-210 607.38,-207.78 614.14,-205.19 620.52,-202.62"/>
<polygon fill="midnightblue" stroke="midnightblue" points="622.24,-205.7 630.16,-198.66 619.58,-199.23 622.24,-205.7"/>
</g>
<!-- Node27&#45;&gt;Node9 -->
<g id="edge35" class="edge">
<title>Node27&#45;&gt;Node9</title>
<path fill="none" stroke="midnightblue" d="M668.12,-179.36C677.45,-175.28 689.11,-170.72 700,-168 833.91,-134.57 998.45,-125.97 1072.54,-123.76"/>
<polygon fill="midnightblue" stroke="midnightblue" points="1072.9,-127.25 1082.81,-123.48 1072.71,-120.26 1072.9,-127.25"/>
</g>
<!-- Node27&#45;&gt;Node15 -->
<g id="edge34" class="edge">
<title>Node27&#45;&gt;Node15</title>
<path fill="none" stroke="midnightblue" d="M667.44,-179.49C710.11,-158.67 820.03,-105.04 871.13,-80.11"/>
<polygon fill="midnightblue" stroke="midnightblue" points="872.8,-83.19 880.25,-75.66 869.73,-76.9 872.8,-83.19"/>
</g>
<!-- Node27&#45;&gt;Node26 -->
<g id="edge36" class="edge">
<title>Node27&#45;&gt;Node26</title>
<path fill="none" stroke="midnightblue" d="M633.8,-179.37C613.2,-168.39 577.41,-149.32 553.22,-136.44"/>
<polygon fill="midnightblue" stroke="midnightblue" points="554.74,-133.28 544.27,-131.67 551.45,-139.46 554.74,-133.28"/>
</g>
<!-- Node27&#45;&gt;Node28 -->
<g id="edge37" class="edge">
<title>Node27&#45;&gt;Node28</title>
<path fill="none" stroke="midnightblue" d="M649.33,-179.23C648.59,-169.68 647.39,-154.12 646.44,-141.78"/>
<polygon fill="midnightblue" stroke="midnightblue" points="649.92,-141.33 645.66,-131.63 642.94,-141.87 649.92,-141.33"/>
</g>
<!-- Node28&#45;&gt;Node10 -->
<g id="edge39" class="edge">
<title>Node28&#45;&gt;Node10</title>
<path fill="none" stroke="midnightblue" d="M654,-112.32C662.19,-104.42 674.51,-92.55 684.47,-82.94"/>
<polygon fill="midnightblue" stroke="midnightblue" points="687.07,-85.29 691.84,-75.83 682.21,-80.26 687.07,-85.29"/>
</g>
<!-- Node28&#45;&gt;Node15 -->
<g id="edge38" class="edge">
<title>Node28&#45;&gt;Node15</title>
<path fill="none" stroke="midnightblue" d="M685.09,-112.44C729.32,-103 800.54,-87.8 848.28,-77.61"/>
<polygon fill="midnightblue" stroke="midnightblue" points="849.05,-81.03 858.1,-75.52 847.59,-74.18 849.05,-81.03"/>
</g>
<!-- Node28&#45;&gt;Node22 -->
<g id="edge40" class="edge">
<title>Node28&#45;&gt;Node22</title>
<path fill="none" stroke="midnightblue" d="M597.77,-112.8C542.19,-103.15 449.98,-87.14 390.62,-76.83"/>
<polygon fill="midnightblue" stroke="midnightblue" points="391.11,-73.36 380.66,-75.1 389.91,-80.26 391.11,-73.36"/>
</g>
<!-- Node29&#45;&gt;Node4 -->
<g id="edge44" class="edge">
<title>Node29&#45;&gt;Node4</title>
<path fill="none" stroke="midnightblue" d="M780.88,-179.46C875.58,-150.46 1185.03,-55.7 1293.23,-22.56"/>
<polygon fill="midnightblue" stroke="midnightblue" points="1294.53,-25.83 1303.06,-19.55 1292.48,-19.14 1294.53,-25.83"/>
</g>
<!-- Node29&#45;&gt;Node10 -->
<g id="edge46" class="edge">
<title>Node29&#45;&gt;Node10</title>
<path fill="none" stroke="midnightblue" d="M749.26,-179.3C740.79,-159.59 720,-111.21 708.67,-84.84"/>
<polygon fill="midnightblue" stroke="midnightblue" points="711.87,-83.43 704.71,-75.62 705.44,-86.19 711.87,-83.43"/>
</g>
<!-- Node29&#45;&gt;Node15 -->
<g id="edge45" class="edge">
<title>Node29&#45;&gt;Node15</title>
<path fill="none" stroke="midnightblue" d="M763.43,-179.3C787.88,-158.89 849.17,-107.75 879.87,-82.13"/>
<polygon fill="midnightblue" stroke="midnightblue" points="882.23,-84.72 887.67,-75.62 877.75,-79.34 882.23,-84.72"/>
</g>
<!-- Node29&#45;&gt;Node28 -->
<g id="edge47" class="edge">
<title>Node29&#45;&gt;Node28</title>
<path fill="none" stroke="midnightblue" d="M738.43,-179.23C720.38,-168.37 689.39,-149.72 668.08,-136.89"/>
<polygon fill="midnightblue" stroke="midnightblue" points="669.71,-133.79 659.33,-131.63 666.1,-139.78 669.71,-133.79"/>
</g>
<!-- Node30&#45;&gt;Node10 -->
<g id="edge54" class="edge">
<title>Node30&#45;&gt;Node10</title>
<path fill="none" stroke="midnightblue" d="M315.86,-168.27C333.21,-150.46 361.23,-125.1 391,-112 485.65,-70.34 610.74,-65.74 668.82,-66.13"/>
<polygon fill="midnightblue" stroke="midnightblue" points="668.82,-69.63 678.86,-66.25 668.9,-62.63 668.82,-69.63"/>
</g>
<!-- Node30&#45;&gt;Node21 -->
<g id="edge53" class="edge">
<title>Node30&#45;&gt;Node21</title>
<path fill="none" stroke="midnightblue" d="M335.8,-168.5C355.87,-158.15 380.01,-145.69 397.96,-136.43"/>
<polygon fill="midnightblue" stroke="midnightblue" points="399.94,-139.35 407.23,-131.65 396.74,-133.13 399.94,-139.35"/>
</g>
<!-- Node30&#45;&gt;Node22 -->
<g id="edge55" class="edge">
<title>Node30&#45;&gt;Node22</title>
<path fill="none" stroke="midnightblue" d="M304.03,-168.32C307.3,-157.59 311.4,-144.07 315,-132 319.67,-116.33 324.87,-98.51 328.65,-85.49"/>
<polygon fill="midnightblue" stroke="midnightblue" points="332.03,-86.42 331.45,-75.84 325.3,-84.47 332.03,-86.42"/>
</g>
<!-- Node30&#45;&gt;Node26 -->
<g id="edge57" class="edge">
<title>Node30&#45;&gt;Node26</title>
<path fill="none" stroke="midnightblue" d="M367.01,-168.5C409.22,-156.57 461.33,-141.84 494.61,-132.44"/>
<polygon fill="midnightblue" stroke="midnightblue" points="495.63,-135.78 504.31,-129.7 493.73,-129.05 495.63,-135.78"/>
</g>
<!-- Node31 -->
<g id="node31" class="node">
<title>Node31</title>
<g id="a_node31"><a xlink:title=" ">
<polygon fill="white" stroke="#bfbfbf" points="220,-112.5 220,-131.5 306,-131.5 306,-112.5 220,-112.5"/>
<text text-anchor="middle" x="263" y="-119.5" font-family="Helvetica,sans-Serif" font-size="10.00">unordered_set</text>
</a>
</g>
</g>
<!-- Node30&#45;&gt;Node31 -->
<g id="edge56" class="edge">
<title>Node30&#45;&gt;Node31</title>
<path fill="none" stroke="midnightblue" d="M287.5,-168.5C282.7,-159.59 277.06,-149.11 272.4,-140.46"/>
<polygon fill="midnightblue" stroke="midnightblue" points="275.48,-138.8 267.66,-131.65 269.32,-142.12 275.48,-138.8"/>
</g>
<!-- Node32&#45;&gt;Node4 -->
<g id="edge59" class="edge">
<title>Node32&#45;&gt;Node4</title>
<path fill="none" stroke="midnightblue" d="M1281.78,-179.41C1293.46,-169.41 1311.56,-151.71 1320,-132 1334.48,-98.19 1334.34,-54.3 1332.78,-29.74"/>
<polygon fill="midnightblue" stroke="midnightblue" points="1336.26,-29.35 1331.98,-19.65 1329.28,-29.9 1336.26,-29.35"/>
</g>
<!-- Node32&#45;&gt;Node9 -->
<g id="edge61" class="edge">
<title>Node32&#45;&gt;Node9</title>
<path fill="none" stroke="midnightblue" d="M1253.12,-179.37C1245.44,-175.74 1236.33,-171.55 1228,-168 1200.18,-156.15 1168.09,-143.8 1144.73,-135.04"/>
<polygon fill="midnightblue" stroke="midnightblue" points="1145.88,-131.74 1135.29,-131.52 1143.44,-138.3 1145.88,-131.74"/>
</g>
<!-- Node32&#45;&gt;Node15 -->
<g id="edge62" class="edge">
<title>Node32&#45;&gt;Node15</title>
<path fill="none" stroke="midnightblue" d="M1258.71,-179.43C1232.76,-161.47 1172.91,-120.85 1150,-112 1088.4,-88.2 1013.41,-76.86 961.33,-71.55"/>
<polygon fill="midnightblue" stroke="midnightblue" points="961.52,-68.05 951.22,-70.56 960.84,-75.02 961.52,-68.05"/>
</g>
<!-- Node33 -->
<g id="node33" class="node">
<title>Node33</title>
<g id="a_node33"><a xlink:title=" ">
<polygon fill="white" stroke="#bfbfbf" points="1197,-112.5 1197,-131.5 1311,-131.5 1311,-112.5 1197,-112.5"/>
<text text-anchor="middle" x="1254" y="-119.5" font-family="Helvetica,sans-Serif" font-size="10.00">boost/operators.hpp</text>
</a>
</g>
</g>
<!-- Node32&#45;&gt;Node33 -->
<g id="edge60" class="edge">
<title>Node32&#45;&gt;Node33</title>
<path fill="none" stroke="midnightblue" d="M1268.71,-179.23C1266.18,-169.59 1262.06,-153.8 1258.81,-141.41"/>
<polygon fill="midnightblue" stroke="midnightblue" points="1262.17,-140.42 1256.26,-131.63 1255.4,-142.19 1262.17,-140.42"/>
</g>
</g>
</svg>
        <g id="navigator" transform="translate(0 0)" fill="#404254">
                <rect fill="#f2f5e9" fill-opacity="0.5" stroke="#606060" stroke-width=".5" x="0" y="0" width="60" height="60"/>
                <use id="zoomplus" xlink:href="#zoomPlus" x="17" y="9" onmousedown="handleZoom(evt,'in')"/>
                <use id="zoomminus" xlink:href="#zoomMin" x="42" y="9" onmousedown="handleZoom(evt,'out')"/>
                <use id="reset" xlink:href="#resetDef" x="30" y="36" onmousedown="handleReset()"/>
                <g id="arrowUp" xlink:href="#dirArrow" transform="translate(30 24)" onmousedown="handlePan(0,-1)">
                  <use xlink:href="#rim" fill="#404040">
                        <set attributeName="fill" to="#808080" begin="arrowUp.mouseover" end="arrowUp.mouseout"/>
                  </use>
                  <path fill="none" stroke="white" stroke-width="1.5" d="M0,-3.0v7 M-2.5,-0.5L0,-3.0L2.5,-0.5"/>
                </g>
                <g id="arrowRight" xlink:href="#dirArrow" transform="rotate(90) translate(36 -43)" onmousedown="handlePan(1,0)">
                  <use xlink:href="#rim" fill="#404040">
                        <set attributeName="fill" to="#808080" begin="arrowRight.mouseover" end="arrowRight.mouseout"/>
                  </use>
                  <path fill="none" stroke="white" stroke-width="1.5" d="M0,-3.0v7 M-2.5,-0.5L0,-3.0L2.5,-0.5"/>
                </g>
                <g id="arrowDown" xlink:href="#dirArrow" transform="rotate(180) translate(-30 -48)" onmousedown="handlePan(0,1)">
                  <use xlink:href="#rim" fill="#404040">
                        <set attributeName="fill" to="#808080" begin="arrowDown.mouseover" end="arrowDown.mouseout"/>
                  </use>
                  <path fill="none" stroke="white" stroke-width="1.5" d="M0,-3.0v7 M-2.5,-0.5L0,-3.0L2.5,-0.5"/>
                </g>
                <g id="arrowLeft" xlink:href="#dirArrow" transform="rotate(270) translate(-36 17)" onmousedown="handlePan(-1,0)">
                  <use xlink:href="#rim" fill="#404040">
                        <set attributeName="fill" to="#808080" begin="arrowLeft.mouseover" end="arrowLeft.mouseout"/>
                  </use>
                  <path fill="none" stroke="white" stroke-width="1.5" d="M0,-3.0v7 M-2.5,-0.5L0,-3.0L2.5,-0.5"/>
                </g>
        </g>
        <svg viewBox="0 0 15 15" width="100%" height="30px" preserveAspectRatio="xMaxYMin meet">
         <g id="arrow_out" transform="scale(0.3 0.3)">
          <a xlink:href="SeqNumberProvider_8h__incl_org.svg" target="_base">
           <rect id="button" ry="5" rx="5" y="6" x="6" height="38" width="38"
                fill="#f2f5e9" fill-opacity="0.5" stroke="#606060" stroke-width="1.0"/>
           <path id="arrow"
             d="M 11.500037,31.436501 C 11.940474,20.09759 22.043105,11.32322 32.158766,21.979434 L 37.068811,17.246167 C 37.068811,17.246167 37.088388,32 37.088388,32 L 22.160133,31.978069 C 22.160133,31.978069 26.997745,27.140456 26.997745,27.140456 C 18.528582,18.264221 13.291696,25.230495 11.500037,31.436501 z"
             style="fill:#404040;"/>
          </a>
         </g>
        </svg>
</svg>
