<?xml version="1.0" encoding="UTF-8" standalone="no"?>
<!DOCTYPE svg PUBLIC "-//W3C//DTD SVG 1.1//EN"
 "http://www.w3.org/Graphics/SVG/1.1/DTD/svg11.dtd">
<!-- Generated by graphviz version 2.43.0 (0)
 -->
<!-- Title: joda::query::IValueProvider::equal Pages: 1 -->
<!--zoomable 186 -->
<svg id="main" version="1.1" xmlns="http://www.w3.org/2000/svg" xmlns:xlink="http://www.w3.org/1999/xlink" xml:space="preserve" onload="init(evt)">
<style type="text/css"><![CDATA[
.edge:hover path { stroke: red; }
.edge:hover polygon { stroke: red; fill: red; }
]]></style>
<script type="text/javascript"><![CDATA[
var edges = document.getElementsByTagName('g');
if (edges && edges.length) {
  for (var i=0;i<edges.length;i++) {
    if (edges[i].id.substr(0,4)=='edge') {
      edges[i].setAttribute('class','edge');
    }
  }
}
]]></script>
        <defs>
                <circle id="rim" cx="0" cy="0" r="7"/>
                <circle id="rim2" cx="0" cy="0" r="3.5"/>
                <g id="zoomPlus">
                        <use xlink:href="#rim" fill="#404040">
                                <set attributeName="fill" to="#808080" begin="zoomplus.mouseover" end="zoomplus.mouseout"/>
                        </use>
                        <path d="M-4,0h8M0,-4v8" fill="none" stroke="white" stroke-width="1.5" pointer-events="none"/>
                </g>
                <g id="zoomMin">
                        <use xlink:href="#rim" fill="#404040">
                                <set attributeName="fill" to="#808080" begin="zoomminus.mouseover" end="zoomminus.mouseout"/>
                        </use>
                        <path d="M-4,0h8" fill="none" stroke="white" stroke-width="1.5" pointer-events="none"/>
                </g>
                <g id="dirArrow">
                        <path fill="none" stroke="white" stroke-width="1.5" d="M0,-3.0v7 M-2.5,-0.5L0,-3.0L2.5,-0.5"/>
                </g>
               <g id="resetDef">
                       <use xlink:href="#rim2" fill="#404040">
                               <set attributeName="fill" to="#808080" begin="reset.mouseover" end="reset.mouseout"/>
                       </use>
               </g>
        </defs>

<script type="text/javascript">
var viewWidth = 704;
var viewHeight = 186;
var sectionId = 'dynsection-9';
</script>
<script xlink:href="../../svgpan.js"/>
<svg id="graph" class="graph">
<g id="viewport">
<title>joda::query::IValueProvider::equal</title>
<polygon fill="white" stroke="transparent" points="-4,4 -4,-182 700,-182 700,4 -4,4"/>
<!-- Node1 -->
<g id="node1" class="node">
<title>Node1</title>
<g id="a_node1"><a xlink:title=" ">
<polygon fill="#bfbfbf" stroke="black" points="0,-98.5 0,-128.5 147,-128.5 147,-98.5 0,-98.5"/>
<text text-anchor="start" x="8" y="-116.5" font-family="Helvetica,sans-Serif" font-size="10.00">joda::query::IValueProvider</text>
<text text-anchor="middle" x="73.5" y="-105.5" font-family="Helvetica,sans-Serif" font-size="10.00">::equal</text>
</a>
</g>
</g>
<!-- Node2 -->
<g id="node2" class="node">
<title>Node2</title>
<g id="a_node2"><a xlink:href="../../d4/df5/classjoda_1_1query_1_1IValueProvider.html#a80a3903341583c4ebdc90bcbfbe2a33f" target="_top" xlink:title=" ">
<polygon fill="white" stroke="black" points="183,-147.5 183,-177.5 330,-177.5 330,-147.5 183,-147.5"/>
<text text-anchor="start" x="191" y="-165.5" font-family="Helvetica,sans-Serif" font-size="10.00">joda::query::IValueProvider</text>
<text text-anchor="middle" x="256.5" y="-154.5" font-family="Helvetica,sans-Serif" font-size="10.00">::getAtomValue</text>
</a>
</g>
</g>
<!-- Node1&#45;&gt;Node2 -->
<g id="edge1" class="edge">
<title>Node1&#45;&gt;Node2</title>
<path fill="none" stroke="midnightblue" d="M130.28,-128.6C149.21,-133.73 170.52,-139.5 190.13,-144.8"/>
<polygon fill="midnightblue" stroke="midnightblue" points="189.33,-148.21 199.9,-147.45 191.16,-141.46 189.33,-148.21"/>
</g>
<!-- Node3 -->
<g id="node3" class="node">
<title>Node3</title>
<g id="a_node3"><a xlink:href="../../d4/df5/classjoda_1_1query_1_1IValueProvider.html#ad3d4d9768cd365cefc3f35f40efc3929" target="_top" xlink:title=" ">
<polygon fill="white" stroke="black" points="183,-98.5 183,-128.5 330,-128.5 330,-98.5 183,-98.5"/>
<text text-anchor="start" x="191" y="-116.5" font-family="Helvetica,sans-Serif" font-size="10.00">joda::query::IValueProvider</text>
<text text-anchor="middle" x="256.5" y="-105.5" font-family="Helvetica,sans-Serif" font-size="10.00">::getValue</text>
</a>
</g>
</g>
<!-- Node1&#45;&gt;Node3 -->
<g id="edge2" class="edge">
<title>Node1&#45;&gt;Node3</title>
<path fill="none" stroke="midnightblue" d="M147.08,-113.5C155.56,-113.5 164.26,-113.5 172.87,-113.5"/>
<polygon fill="midnightblue" stroke="midnightblue" points="172.91,-117 182.91,-113.5 172.91,-110 172.91,-117"/>
</g>
<!-- Node4 -->
<g id="node4" class="node">
<title>Node4</title>
<g id="a_node4"><a xlink:href="../../d4/df5/classjoda_1_1query_1_1IValueProvider.html#a2be55dc72b74ef1961453ab9d79fc121" target="_top" xlink:title=" ">
<polygon fill="white" stroke="black" points="183,-49.5 183,-79.5 330,-79.5 330,-49.5 183,-49.5"/>
<text text-anchor="start" x="191" y="-67.5" font-family="Helvetica,sans-Serif" font-size="10.00">joda::query::IValueProvider</text>
<text text-anchor="middle" x="256.5" y="-56.5" font-family="Helvetica,sans-Serif" font-size="10.00">::isAtom</text>
</a>
</g>
</g>
<!-- Node1&#45;&gt;Node4 -->
<g id="edge3" class="edge">
<title>Node1&#45;&gt;Node4</title>
<path fill="none" stroke="midnightblue" d="M130.28,-98.4C149.21,-93.27 170.52,-87.5 190.13,-82.2"/>
<polygon fill="midnightblue" stroke="midnightblue" points="191.16,-85.54 199.9,-79.55 189.33,-78.79 191.16,-85.54"/>
</g>
<!-- Node5 -->
<g id="node5" class="node">
<title>Node5</title>
<g id="a_node5"><a xlink:href="../../d4/df5/classjoda_1_1query_1_1IValueProvider.html#a76d7b247bd53ae37ccd91f8780d4962b" target="_top" xlink:title=" ">
<polygon fill="white" stroke="black" points="366,-98.5 366,-128.5 513,-128.5 513,-98.5 366,-98.5"/>
<text text-anchor="start" x="374" y="-116.5" font-family="Helvetica,sans-Serif" font-size="10.00">joda::query::IValueProvider</text>
<text text-anchor="middle" x="439.5" y="-105.5" font-family="Helvetica,sans-Serif" font-size="10.00">::isBool</text>
</a>
</g>
</g>
<!-- Node4&#45;&gt;Node5 -->
<g id="edge4" class="edge">
<title>Node4&#45;&gt;Node5</title>
<path fill="none" stroke="midnightblue" d="M313.28,-79.6C332.21,-84.73 353.52,-90.5 373.13,-95.8"/>
<polygon fill="midnightblue" stroke="midnightblue" points="372.33,-99.21 382.9,-98.45 374.16,-92.46 372.33,-99.21"/>
</g>
<!-- Node7 -->
<g id="node7" class="node">
<title>Node7</title>
<g id="a_node7"><a xlink:href="../../d4/df5/classjoda_1_1query_1_1IValueProvider.html#ad7a62a3523b14ac2c46165520cac2901" target="_top" xlink:title=" ">
<polygon fill="white" stroke="black" points="366,-49.5 366,-79.5 513,-79.5 513,-49.5 366,-49.5"/>
<text text-anchor="start" x="374" y="-67.5" font-family="Helvetica,sans-Serif" font-size="10.00">joda::query::IValueProvider</text>
<text text-anchor="middle" x="439.5" y="-56.5" font-family="Helvetica,sans-Serif" font-size="10.00">::isNumber</text>
</a>
</g>
</g>
<!-- Node4&#45;&gt;Node7 -->
<g id="edge6" class="edge">
<title>Node4&#45;&gt;Node7</title>
<path fill="none" stroke="midnightblue" d="M330.08,-64.5C338.56,-64.5 347.26,-64.5 355.87,-64.5"/>
<polygon fill="midnightblue" stroke="midnightblue" points="355.91,-68 365.91,-64.5 355.91,-61 355.91,-68"/>
</g>
<!-- Node8 -->
<g id="node8" class="node">
<title>Node8</title>
<g id="a_node8"><a xlink:href="../../d4/df5/classjoda_1_1query_1_1IValueProvider.html#ade80632b99c01d164cd8923e2b70f90e" target="_top" xlink:title=" ">
<polygon fill="white" stroke="black" points="366,-0.5 366,-30.5 513,-30.5 513,-0.5 366,-0.5"/>
<text text-anchor="start" x="374" y="-18.5" font-family="Helvetica,sans-Serif" font-size="10.00">joda::query::IValueProvider</text>
<text text-anchor="middle" x="439.5" y="-7.5" font-family="Helvetica,sans-Serif" font-size="10.00">::isString</text>
</a>
</g>
</g>
<!-- Node4&#45;&gt;Node8 -->
<g id="edge8" class="edge">
<title>Node4&#45;&gt;Node8</title>
<path fill="none" stroke="midnightblue" d="M313.28,-49.4C332.21,-44.27 353.52,-38.5 373.13,-33.2"/>
<polygon fill="midnightblue" stroke="midnightblue" points="374.16,-36.54 382.9,-30.55 372.33,-29.79 374.16,-36.54"/>
</g>
<!-- Node6 -->
<g id="node6" class="node">
<title>Node6</title>
<g id="a_node6"><a xlink:href="../../d4/df5/classjoda_1_1query_1_1IValueProvider.html#a7353bb4809b215603871f5ddaa353285" target="_top" xlink:title=" ">
<polygon fill="white" stroke="black" points="549,-49.5 549,-79.5 696,-79.5 696,-49.5 549,-49.5"/>
<text text-anchor="start" x="557" y="-67.5" font-family="Helvetica,sans-Serif" font-size="10.00">joda::query::IValueProvider</text>
<text text-anchor="middle" x="622.5" y="-56.5" font-family="Helvetica,sans-Serif" font-size="10.00">::getReturnType</text>
</a>
</g>
</g>
<!-- Node5&#45;&gt;Node6 -->
<g id="edge5" class="edge">
<title>Node5&#45;&gt;Node6</title>
<path fill="none" stroke="midnightblue" d="M496.28,-98.4C515.21,-93.27 536.52,-87.5 556.13,-82.2"/>
<polygon fill="midnightblue" stroke="midnightblue" points="557.16,-85.54 565.9,-79.55 555.33,-78.79 557.16,-85.54"/>
</g>
<!-- Node7&#45;&gt;Node6 -->
<g id="edge7" class="edge">
<title>Node7&#45;&gt;Node6</title>
<path fill="none" stroke="midnightblue" d="M513.08,-64.5C521.56,-64.5 530.26,-64.5 538.87,-64.5"/>
<polygon fill="midnightblue" stroke="midnightblue" points="538.91,-68 548.91,-64.5 538.91,-61 538.91,-68"/>
</g>
<!-- Node8&#45;&gt;Node6 -->
<g id="edge9" class="edge">
<title>Node8&#45;&gt;Node6</title>
<path fill="none" stroke="midnightblue" d="M496.28,-30.6C515.21,-35.73 536.52,-41.5 556.13,-46.8"/>
<polygon fill="midnightblue" stroke="midnightblue" points="555.33,-50.21 565.9,-49.45 557.16,-43.46 555.33,-50.21"/>
</g>
</g>
</svg>
        <g id="navigator" transform="translate(0 0)" fill="#404254">
                <rect fill="#f2f5e9" fill-opacity="0.5" stroke="#606060" stroke-width=".5" x="0" y="0" width="60" height="60"/>
                <use id="zoomplus" xlink:href="#zoomPlus" x="17" y="9" onmousedown="handleZoom(evt,'in')"/>
                <use id="zoomminus" xlink:href="#zoomMin" x="42" y="9" onmousedown="handleZoom(evt,'out')"/>
                <use id="reset" xlink:href="#resetDef" x="30" y="36" onmousedown="handleReset()"/>
                <g id="arrowUp" xlink:href="#dirArrow" transform="translate(30 24)" onmousedown="handlePan(0,-1)">
                  <use xlink:href="#rim" fill="#404040">
                        <set attributeName="fill" to="#808080" begin="arrowUp.mouseover" end="arrowUp.mouseout"/>
                  </use>
                  <path fill="none" stroke="white" stroke-width="1.5" d="M0,-3.0v7 M-2.5,-0.5L0,-3.0L2.5,-0.5"/>
                </g>
                <g id="arrowRight" xlink:href="#dirArrow" transform="rotate(90) translate(36 -43)" onmousedown="handlePan(1,0)">
                  <use xlink:href="#rim" fill="#404040">
                        <set attributeName="fill" to="#808080" begin="arrowRight.mouseover" end="arrowRight.mouseout"/>
                  </use>
                  <path fill="none" stroke="white" stroke-width="1.5" d="M0,-3.0v7 M-2.5,-0.5L0,-3.0L2.5,-0.5"/>
                </g>
                <g id="arrowDown" xlink:href="#dirArrow" transform="rotate(180) translate(-30 -48)" onmousedown="handlePan(0,1)">
                  <use xlink:href="#rim" fill="#404040">
                        <set attributeName="fill" to="#808080" begin="arrowDown.mouseover" end="arrowDown.mouseout"/>
                  </use>
                  <path fill="none" stroke="white" stroke-width="1.5" d="M0,-3.0v7 M-2.5,-0.5L0,-3.0L2.5,-0.5"/>
                </g>
                <g id="arrowLeft" xlink:href="#dirArrow" transform="rotate(270) translate(-36 17)" onmousedown="handlePan(-1,0)">
                  <use xlink:href="#rim" fill="#404040">
                        <set attributeName="fill" to="#808080" begin="arrowLeft.mouseover" end="arrowLeft.mouseout"/>
                  </use>
                  <path fill="none" stroke="white" stroke-width="1.5" d="M0,-3.0v7 M-2.5,-0.5L0,-3.0L2.5,-0.5"/>
                </g>
        </g>
        <svg viewBox="0 0 15 15" width="100%" height="30px" preserveAspectRatio="xMaxYMin meet">
         <g id="arrow_out" transform="scale(0.3 0.3)">
          <a xlink:href="classjoda_1_1query_1_1IValueProvider_a69086ef410b985f3ed293719be610a11_cgraph_org.svg" target="_base">
           <rect id="button" ry="5" rx="5" y="6" x="6" height="38" width="38"
                fill="#f2f5e9" fill-opacity="0.5" stroke="#606060" stroke-width="1.0"/>
           <path id="arrow"
             d="M 11.500037,31.436501 C 11.940474,20.09759 22.043105,11.32322 32.158766,21.979434 L 37.068811,17.246167 C 37.068811,17.246167 37.088388,32 37.088388,32 L 22.160133,31.978069 C 22.160133,31.978069 26.997745,27.140456 26.997745,27.140456 C 18.528582,18.264221 13.291696,25.230495 11.500037,31.436501 z"
             style="fill:#404040;"/>
          </a>
         </g>
        </svg>
</svg>
