<?xml version="1.0" encoding="UTF-8" standalone="no"?>
<!DOCTYPE svg PUBLIC "-//W3C//DTD SVG 1.1//EN"
 "http://www.w3.org/Graphics/SVG/1.1/DTD/svg11.dtd">
<!-- Generated by graphviz version 2.43.0 (0)
 -->
<!-- Title: joda::query::IValueProvider::toString Pages: 1 -->
<svg width="498pt" height="357pt"
 viewBox="0.00 0.00 498.00 357.00" xmlns="http://www.w3.org/2000/svg" xmlns:xlink="http://www.w3.org/1999/xlink">
<g id="graph0" class="graph" transform="scale(1 1) rotate(0) translate(4 353)">
<title>joda::query::IValueProvider::toString</title>
<polygon fill="white" stroke="transparent" points="-4,4 -4,-353 494,-353 494,4 -4,4"/>
<!-- Node1 -->
<g id="node1" class="node">
<title>Node1</title>
<g id="a_node1"><a xlink:title=" ">
<polygon fill="#bfbfbf" stroke="black" points="343,-147.5 343,-177.5 490,-177.5 490,-147.5 343,-147.5"/>
<text text-anchor="start" x="351" y="-165.5" font-family="Helvetica,sans-Serif" font-size="10.00">joda::query::IValueProvider</text>
<text text-anchor="middle" x="416.5" y="-154.5" font-family="Helvetica,sans-Serif" font-size="10.00">::toString</text>
</a>
</g>
</g>
<!-- Node2 -->
<g id="node2" class="node">
<title>Node2</title>
<g id="a_node2"><a xlink:href="../../da/d91/classStorageCollection.html#a6e29c4548ae3acafde0e4ef0fb6a441b" target="_top" xlink:title=" ">
<polygon fill="white" stroke="black" points="171.5,-294.5 171.5,-324.5 280.5,-324.5 280.5,-294.5 171.5,-294.5"/>
<text text-anchor="start" x="179.5" y="-312.5" font-family="Helvetica,sans-Serif" font-size="10.00">StorageCollection::</text>
<text text-anchor="middle" x="226" y="-301.5" font-family="Helvetica,sans-Serif" font-size="10.00">getJoinName</text>
</a>
</g>
</g>
<!-- Node1&#45;&gt;Node2 -->
<g id="edge1" class="edge">
<title>Node1&#45;&gt;Node2</title>
<path fill="none" stroke="midnightblue" d="M400.43,-186.51C381.79,-214.3 347.5,-259.56 307,-285.5 299.06,-290.58 290,-294.63 280.89,-297.85"/>
<polygon fill="midnightblue" stroke="midnightblue" points="403.58,-188.09 406.14,-177.81 397.73,-184.25 403.58,-188.09"/>
</g>
<!-- Node5 -->
<g id="node5" class="node">
<title>Node5</title>
<g id="a_node5"><a xlink:href="../../db/d82/classjoda_1_1query_1_1BinaryNumberProvider.html#a37969973c4627dbbd1ae357a73ee888b" target="_top" xlink:title=" ">
<polygon fill="white" stroke="black" points="152.5,-245.5 152.5,-275.5 299.5,-275.5 299.5,-245.5 152.5,-245.5"/>
<text text-anchor="start" x="160.5" y="-263.5" font-family="Helvetica,sans-Serif" font-size="10.00">joda::query::BinaryNumber</text>
<text text-anchor="middle" x="226" y="-252.5" font-family="Helvetica,sans-Serif" font-size="10.00">Provider::toString</text>
</a>
</g>
</g>
<!-- Node1&#45;&gt;Node5 -->
<g id="edge4" class="edge">
<title>Node1&#45;&gt;Node5</title>
<path fill="none" stroke="midnightblue" d="M388.83,-184.14C367.69,-200.41 336.85,-222.27 307,-236.5 300.06,-239.81 292.57,-242.78 285.05,-245.4"/>
<polygon fill="midnightblue" stroke="midnightblue" points="391.27,-186.68 396.99,-177.76 386.96,-181.16 391.27,-186.68"/>
</g>
<!-- Node6 -->
<g id="node6" class="node">
<title>Node6</title>
<g id="a_node6"><a xlink:href="../../d7/ddd/classjoda_1_1query_1_1BinaryStringProvider.html#a96a5fee56254e203613a16ab2e165b6d" target="_top" xlink:title=" ">
<polygon fill="white" stroke="black" points="157.5,-196.5 157.5,-226.5 294.5,-226.5 294.5,-196.5 157.5,-196.5"/>
<text text-anchor="start" x="165.5" y="-214.5" font-family="Helvetica,sans-Serif" font-size="10.00">joda::query::BinaryString</text>
<text text-anchor="middle" x="226" y="-203.5" font-family="Helvetica,sans-Serif" font-size="10.00">Provider::toString</text>
</a>
</g>
</g>
<!-- Node1&#45;&gt;Node6 -->
<g id="edge5" class="edge">
<title>Node1&#45;&gt;Node6</title>
<path fill="none" stroke="midnightblue" d="M347.71,-180.12C327.08,-185.48 304.62,-191.32 284.73,-196.49"/>
<polygon fill="midnightblue" stroke="midnightblue" points="348.86,-183.44 357.66,-177.53 347.1,-176.66 348.86,-183.44"/>
</g>
<!-- Node7 -->
<g id="node7" class="node">
<title>Node7</title>
<g id="a_node7"><a xlink:href="../../df/d80/classjoda_1_1query_1_1TemplateProvider.html#a83b79d24ecfaba4f750fc891afc281df" target="_top" xlink:title=" ">
<polygon fill="white" stroke="black" points="145,-147.5 145,-177.5 307,-177.5 307,-147.5 145,-147.5"/>
<text text-anchor="start" x="153" y="-165.5" font-family="Helvetica,sans-Serif" font-size="10.00">joda::query::TemplateProvider</text>
<text text-anchor="middle" x="226" y="-154.5" font-family="Helvetica,sans-Serif" font-size="10.00">::toString</text>
</a>
</g>
</g>
<!-- Node1&#45;&gt;Node7 -->
<g id="edge6" class="edge">
<title>Node1&#45;&gt;Node7</title>
<path fill="none" stroke="midnightblue" d="M332.63,-162.5C324.15,-162.5 315.54,-162.5 307.1,-162.5"/>
<polygon fill="midnightblue" stroke="midnightblue" points="332.89,-166 342.89,-162.5 332.89,-159 332.89,-166"/>
</g>
<!-- Node8 -->
<g id="node8" class="node">
<title>Node8</title>
<g id="a_node8"><a xlink:href="../../d3/d31/classjoda_1_1query_1_1UnaryNumberProvider.html#a61daf18c3fdb8c5b13de340f1f182aeb" target="_top" xlink:title=" ">
<polygon fill="white" stroke="black" points="153.5,-98.5 153.5,-128.5 298.5,-128.5 298.5,-98.5 153.5,-98.5"/>
<text text-anchor="start" x="161.5" y="-116.5" font-family="Helvetica,sans-Serif" font-size="10.00">joda::query::UnaryNumber</text>
<text text-anchor="middle" x="226" y="-105.5" font-family="Helvetica,sans-Serif" font-size="10.00">Provider::toString</text>
</a>
</g>
</g>
<!-- Node1&#45;&gt;Node8 -->
<g id="edge7" class="edge">
<title>Node1&#45;&gt;Node8</title>
<path fill="none" stroke="midnightblue" d="M347.71,-144.88C327.08,-139.52 304.62,-133.68 284.73,-128.51"/>
<polygon fill="midnightblue" stroke="midnightblue" points="347.1,-148.34 357.66,-147.47 348.86,-141.56 347.1,-148.34"/>
</g>
<!-- Node9 -->
<g id="node9" class="node">
<title>Node9</title>
<g id="a_node9"><a xlink:href="../../d9/d28/classjoda_1_1query_1_1UnaryPointerAcceptProvider.html#abfdc93ac700cf50374f5c7d0c1c89c2d" target="_top" xlink:title=" ">
<polygon fill="white" stroke="black" points="156,-49.5 156,-79.5 296,-79.5 296,-49.5 156,-49.5"/>
<text text-anchor="start" x="164" y="-67.5" font-family="Helvetica,sans-Serif" font-size="10.00">joda::query::UnaryPointer</text>
<text text-anchor="middle" x="226" y="-56.5" font-family="Helvetica,sans-Serif" font-size="10.00">AcceptProvider::toString</text>
</a>
</g>
</g>
<!-- Node1&#45;&gt;Node9 -->
<g id="edge8" class="edge">
<title>Node1&#45;&gt;Node9</title>
<path fill="none" stroke="midnightblue" d="M388.35,-140.98C367.18,-125.02 336.5,-103.66 307,-89.5 299.26,-85.78 290.84,-82.45 282.46,-79.53"/>
<polygon fill="midnightblue" stroke="midnightblue" points="386.47,-143.94 396.54,-147.24 390.72,-138.38 386.47,-143.94"/>
</g>
<!-- Node10 -->
<g id="node10" class="node">
<title>Node10</title>
<g id="a_node10"><a xlink:href="../../df/dc9/classjoda_1_1query_1_1UnaryStringProvider.html#a56e23b8000b44d8232a92f6982bc1c74" target="_top" xlink:title=" ">
<polygon fill="white" stroke="black" points="159,-0.5 159,-30.5 293,-30.5 293,-0.5 159,-0.5"/>
<text text-anchor="start" x="167" y="-18.5" font-family="Helvetica,sans-Serif" font-size="10.00">joda::query::UnaryString</text>
<text text-anchor="middle" x="226" y="-7.5" font-family="Helvetica,sans-Serif" font-size="10.00">Provider::toString</text>
</a>
</g>
</g>
<!-- Node1&#45;&gt;Node10 -->
<g id="edge9" class="edge">
<title>Node1&#45;&gt;Node10</title>
<path fill="none" stroke="midnightblue" d="M400.34,-138.76C381.6,-111.28 347.22,-66.47 307,-40.5 301.01,-36.63 294.38,-33.33 287.58,-30.52"/>
<polygon fill="midnightblue" stroke="midnightblue" points="397.61,-140.99 406.08,-147.37 403.44,-137.11 397.61,-140.99"/>
</g>
<!-- Node3 -->
<g id="node3" class="node">
<title>Node3</title>
<g id="a_node3"><a xlink:href="../../da/d91/classStorageCollection.html#aaef3f44a8d24f533bd2ce3f5210e3e32" target="_top" xlink:title=" ">
<polygon fill="white" stroke="black" points="0,-318.5 0,-348.5 109,-348.5 109,-318.5 0,-318.5"/>
<text text-anchor="start" x="8" y="-336.5" font-family="Helvetica,sans-Serif" font-size="10.00">StorageCollection::</text>
<text text-anchor="middle" x="54.5" y="-325.5" font-family="Helvetica,sans-Serif" font-size="10.00">getOrStartJoin</text>
</a>
</g>
</g>
<!-- Node2&#45;&gt;Node3 -->
<g id="edge2" class="edge">
<title>Node2&#45;&gt;Node3</title>
<path fill="none" stroke="midnightblue" d="M161.39,-318.51C144.16,-320.95 125.69,-323.56 109.07,-325.91"/>
<polygon fill="midnightblue" stroke="midnightblue" points="161.96,-321.96 171.37,-317.09 160.98,-315.03 161.96,-321.96"/>
</g>
<!-- Node4 -->
<g id="node4" class="node">
<title>Node4</title>
<g id="a_node4"><a xlink:href="../../da/d91/classStorageCollection.html#afdb551a2d1b47e9a9e6c3c3e276cfe94" target="_top" xlink:title=" ">
<polygon fill="white" stroke="black" points="0,-269.5 0,-299.5 109,-299.5 109,-269.5 0,-269.5"/>
<text text-anchor="start" x="8" y="-287.5" font-family="Helvetica,sans-Serif" font-size="10.00">StorageCollection::</text>
<text text-anchor="middle" x="54.5" y="-276.5" font-family="Helvetica,sans-Serif" font-size="10.00">stopJoin</text>
</a>
</g>
</g>
<!-- Node2&#45;&gt;Node4 -->
<g id="edge3" class="edge">
<title>Node2&#45;&gt;Node4</title>
<path fill="none" stroke="midnightblue" d="M161.39,-300.12C144.16,-297.58 125.69,-294.85 109.07,-292.4"/>
<polygon fill="midnightblue" stroke="midnightblue" points="160.97,-303.59 171.37,-301.59 161.99,-296.67 160.97,-303.59"/>
</g>
</g>
</svg>
