<?xml version="1.0" encoding="UTF-8" standalone="no"?>
<!DOCTYPE svg PUBLIC "-//W3C//DTD SVG 1.1//EN"
 "http://www.w3.org/Graphics/SVG/1.1/DTD/svg11.dtd">
<!-- Generated by graphviz version 2.43.0 (0)
 -->
<!-- Title: joda::query::IValueProvider::checkParamType Pages: 1 -->
<svg width="594pt" height="590pt"
 viewBox="0.00 0.00 594.00 589.50" xmlns="http://www.w3.org/2000/svg" xmlns:xlink="http://www.w3.org/1999/xlink">
<g id="graph0" class="graph" transform="scale(1 1) rotate(0) translate(4 585.5)">
<title>joda::query::IValueProvider::checkParamType</title>
<polygon fill="white" stroke="transparent" points="-4,4 -4,-585.5 590,-585.5 590,4 -4,4"/>
<!-- Node1 -->
<g id="node1" class="node">
<title>Node1</title>
<g id="a_node1"><a xlink:title=" ">
<polygon fill="#bfbfbf" stroke="black" points="439,-281 439,-311 586,-311 586,-281 439,-281"/>
<text text-anchor="start" x="447" y="-299" font-family="Helvetica,sans-Serif" font-size="10.00">joda::query::IValueProvider</text>
<text text-anchor="middle" x="512.5" y="-288" font-family="Helvetica,sans-Serif" font-size="10.00">::checkParamType</text>
</a>
</g>
</g>
<!-- Node2 -->
<g id="node2" class="node">
<title>Node2</title>
<g id="a_node2"><a xlink:href="../../d4/d1f/classjoda_1_1query_1_1ArraySizeProvider.html#a153685086fb7223de75170df421c0b0e" target="_top" xlink:title=" ">
<polygon fill="white" stroke="black" points="224.5,-551 224.5,-581 388.5,-581 388.5,-551 224.5,-551"/>
<text text-anchor="start" x="232.5" y="-569" font-family="Helvetica,sans-Serif" font-size="10.00">joda::query::ArraySizeProvider</text>
<text text-anchor="middle" x="306.5" y="-558" font-family="Helvetica,sans-Serif" font-size="10.00">::ArraySizeProvider</text>
</a>
</g>
</g>
<!-- Node1&#45;&gt;Node2 -->
<g id="edge1" class="edge">
<title>Node1&#45;&gt;Node2</title>
<path fill="none" stroke="midnightblue" d="M507.83,-321.11C499.16,-371.09 472.63,-483.25 403,-542 398.69,-545.64 393.9,-548.74 388.83,-551.37"/>
<polygon fill="midnightblue" stroke="midnightblue" points="511.3,-321.59 509.46,-311.16 504.39,-320.46 511.3,-321.59"/>
</g>
<!-- Node3 -->
<g id="node3" class="node">
<title>Node3</title>
<g id="a_node3"><a xlink:href="../../db/d82/classjoda_1_1query_1_1BinaryNumberProvider.html#aa8e0e5966a69e1fa303d2b9d4b867921" target="_top" xlink:title=" ">
<polygon fill="white" stroke="black" points="225,-502 225,-532 388,-532 388,-502 225,-502"/>
<text text-anchor="start" x="233" y="-520" font-family="Helvetica,sans-Serif" font-size="10.00">joda::query::BinaryNumber</text>
<text text-anchor="middle" x="306.5" y="-509" font-family="Helvetica,sans-Serif" font-size="10.00">Provider::checkAllParamTypes</text>
</a>
</g>
</g>
<!-- Node1&#45;&gt;Node3 -->
<g id="edge2" class="edge">
<title>Node1&#45;&gt;Node3</title>
<path fill="none" stroke="midnightblue" d="M504.92,-320.79C492.42,-362.89 461.15,-448.17 403,-493 398.4,-496.55 393.33,-499.58 388.01,-502.16"/>
<polygon fill="midnightblue" stroke="midnightblue" points="508.31,-321.64 507.7,-311.06 501.58,-319.72 508.31,-321.64"/>
</g>
<!-- Node5 -->
<g id="node5" class="node">
<title>Node5</title>
<g id="a_node5"><a xlink:href="../../d7/ddd/classjoda_1_1query_1_1BinaryStringProvider.html#a62910570b9fe8b51a4bf1e567038cd0d" target="_top" xlink:title=" ">
<polygon fill="white" stroke="black" points="225,-453 225,-483 388,-483 388,-453 225,-453"/>
<text text-anchor="start" x="233" y="-471" font-family="Helvetica,sans-Serif" font-size="10.00">joda::query::BinaryString</text>
<text text-anchor="middle" x="306.5" y="-460" font-family="Helvetica,sans-Serif" font-size="10.00">Provider::checkAllParamTypes</text>
</a>
</g>
</g>
<!-- Node1&#45;&gt;Node5 -->
<g id="edge4" class="edge">
<title>Node1&#45;&gt;Node5</title>
<path fill="none" stroke="midnightblue" d="M500.38,-320.32C483.93,-353.5 449.92,-412.44 403,-444 397.89,-447.44 392.33,-450.38 386.55,-452.9"/>
<polygon fill="midnightblue" stroke="midnightblue" points="503.54,-321.83 504.73,-311.3 497.24,-318.78 503.54,-321.83"/>
</g>
<!-- Node7 -->
<g id="node7" class="node">
<title>Node7</title>
<g id="a_node7"><a xlink:href="../../d3/d31/classjoda_1_1query_1_1UnaryNumberProvider.html#aada8ea711775613aa2a6ecdceb3d161a" target="_top" xlink:title=" ">
<polygon fill="white" stroke="black" points="225,-404 225,-434 388,-434 388,-404 225,-404"/>
<text text-anchor="start" x="233" y="-422" font-family="Helvetica,sans-Serif" font-size="10.00">joda::query::UnaryNumber</text>
<text text-anchor="middle" x="306.5" y="-411" font-family="Helvetica,sans-Serif" font-size="10.00">Provider::checkAllParamTypes</text>
</a>
</g>
</g>
<!-- Node1&#45;&gt;Node7 -->
<g id="edge6" class="edge">
<title>Node1&#45;&gt;Node7</title>
<path fill="none" stroke="midnightblue" d="M492.36,-318.73C472.31,-341.11 438.8,-374.66 403,-394 395.84,-397.87 388.05,-401.16 380.1,-403.96"/>
<polygon fill="midnightblue" stroke="midnightblue" points="495.15,-320.86 499.12,-311.04 489.89,-316.24 495.15,-320.86"/>
</g>
<!-- Node9 -->
<g id="node9" class="node">
<title>Node9</title>
<g id="a_node9"><a xlink:href="../../df/dc9/classjoda_1_1query_1_1UnaryStringProvider.html#a25a6eb1676a89bbf4599768ecc7a02f4" target="_top" xlink:title=" ">
<polygon fill="white" stroke="black" points="225,-355 225,-385 388,-385 388,-355 225,-355"/>
<text text-anchor="start" x="233" y="-373" font-family="Helvetica,sans-Serif" font-size="10.00">joda::query::UnaryString</text>
<text text-anchor="middle" x="306.5" y="-362" font-family="Helvetica,sans-Serif" font-size="10.00">Provider::checkAllParamTypes</text>
</a>
</g>
</g>
<!-- Node1&#45;&gt;Node9 -->
<g id="edge8" class="edge">
<title>Node1&#45;&gt;Node9</title>
<path fill="none" stroke="midnightblue" d="M472.4,-315.58C452.05,-325.28 426.55,-336.67 403,-345 392.82,-348.6 381.87,-351.95 371.14,-354.94"/>
<polygon fill="midnightblue" stroke="midnightblue" points="474.17,-318.61 481.66,-311.12 471.13,-312.31 474.17,-318.61"/>
</g>
<!-- Node11 -->
<g id="node11" class="node">
<title>Node11</title>
<g id="a_node11"><a xlink:href="../../da/d38/classjoda_1_1query_1_1INListProvider.html#a94ad5b505ba21beeb2de02ebc58da1ff" target="_top" xlink:title=" ">
<polygon fill="white" stroke="black" points="234,-306 234,-336 379,-336 379,-306 234,-306"/>
<text text-anchor="start" x="242" y="-324" font-family="Helvetica,sans-Serif" font-size="10.00">joda::query::INListProvider</text>
<text text-anchor="middle" x="306.5" y="-313" font-family="Helvetica,sans-Serif" font-size="10.00">::INListProvider</text>
</a>
</g>
</g>
<!-- Node1&#45;&gt;Node11 -->
<g id="edge10" class="edge">
<title>Node1&#45;&gt;Node11</title>
<path fill="none" stroke="midnightblue" d="M428.62,-306.16C412.25,-308.16 395.2,-310.25 379.23,-312.21"/>
<polygon fill="midnightblue" stroke="midnightblue" points="429.22,-309.61 438.72,-304.92 428.36,-302.66 429.22,-309.61"/>
</g>
<!-- Node12 -->
<g id="node12" class="node">
<title>Node12</title>
<g id="a_node12"><a xlink:href="../../d0/da0/classjoda_1_1query_1_1ListAttributesProvider.html#a972474061a7231d19d5a2142945b2c23" target="_top" xlink:title=" ">
<polygon fill="white" stroke="black" points="222,-257 222,-287 391,-287 391,-257 222,-257"/>
<text text-anchor="start" x="230" y="-275" font-family="Helvetica,sans-Serif" font-size="10.00">joda::query::ListAttributes</text>
<text text-anchor="middle" x="306.5" y="-264" font-family="Helvetica,sans-Serif" font-size="10.00">Provider::ListAttributesProvider</text>
</a>
</g>
</g>
<!-- Node1&#45;&gt;Node12 -->
<g id="edge11" class="edge">
<title>Node1&#45;&gt;Node12</title>
<path fill="none" stroke="midnightblue" d="M428.45,-286.23C416.11,-284.78 403.39,-283.28 391.03,-281.83"/>
<polygon fill="midnightblue" stroke="midnightblue" points="428.37,-289.74 438.72,-287.44 429.19,-282.79 428.37,-289.74"/>
</g>
<!-- Node13 -->
<g id="node13" class="node">
<title>Node13</title>
<g id="a_node13"><a xlink:href="../../d2/d94/classjoda_1_1query_1_1RegexExtractProvider.html#a15773f43d2dde722c43f25aa90c0481f" target="_top" xlink:title=" ">
<polygon fill="white" stroke="black" points="222,-208 222,-238 391,-238 391,-208 222,-208"/>
<text text-anchor="start" x="230" y="-226" font-family="Helvetica,sans-Serif" font-size="10.00">joda::query::RegexExtract</text>
<text text-anchor="middle" x="306.5" y="-215" font-family="Helvetica,sans-Serif" font-size="10.00">Provider::RegexExtractProvider</text>
</a>
</g>
</g>
<!-- Node1&#45;&gt;Node13 -->
<g id="edge12" class="edge">
<title>Node1&#45;&gt;Node13</title>
<path fill="none" stroke="midnightblue" d="M472.44,-276.32C452.09,-266.6 426.59,-255.22 403,-247 393.64,-243.74 383.61,-240.72 373.71,-238.01"/>
<polygon fill="midnightblue" stroke="midnightblue" points="471.16,-279.59 481.69,-280.8 474.21,-273.29 471.16,-279.59"/>
</g>
<!-- Node14 -->
<g id="node14" class="node">
<title>Node14</title>
<g id="a_node14"><a xlink:href="../../de/dcb/classjoda_1_1query_1_1RegexProvider.html#a664084311533ac9ce45466d5edb116d8" target="_top" xlink:title=" ">
<polygon fill="white" stroke="black" points="232.5,-159 232.5,-189 380.5,-189 380.5,-159 232.5,-159"/>
<text text-anchor="start" x="240.5" y="-177" font-family="Helvetica,sans-Serif" font-size="10.00">joda::query::RegexProvider</text>
<text text-anchor="middle" x="306.5" y="-166" font-family="Helvetica,sans-Serif" font-size="10.00">::RegexProvider</text>
</a>
</g>
</g>
<!-- Node1&#45;&gt;Node14 -->
<g id="edge13" class="edge">
<title>Node1&#45;&gt;Node14</title>
<path fill="none" stroke="midnightblue" d="M492.4,-273.19C472.38,-250.76 438.9,-217.17 403,-198 395.99,-194.26 388.37,-191.08 380.6,-188.39"/>
<polygon fill="midnightblue" stroke="midnightblue" points="489.93,-275.68 499.15,-280.91 495.2,-271.07 489.93,-275.68"/>
</g>
<!-- Node15 -->
<g id="node15" class="node">
<title>Node15</title>
<g id="a_node15"><a xlink:href="../../db/df6/classjoda_1_1query_1_1RegexReplaceProvider.html#a9de8515320a31553d09b1f928a8462d3" target="_top" xlink:title=" ">
<polygon fill="white" stroke="black" points="220,-110 220,-140 393,-140 393,-110 220,-110"/>
<text text-anchor="start" x="228" y="-128" font-family="Helvetica,sans-Serif" font-size="10.00">joda::query::RegexReplace</text>
<text text-anchor="middle" x="306.5" y="-117" font-family="Helvetica,sans-Serif" font-size="10.00">Provider::RegexReplaceProvider</text>
</a>
</g>
</g>
<!-- Node1&#45;&gt;Node15 -->
<g id="edge14" class="edge">
<title>Node1&#45;&gt;Node15</title>
<path fill="none" stroke="midnightblue" d="M500.12,-271.42C483.54,-238.38 449.56,-180.21 403,-149 397.89,-145.57 392.33,-142.64 386.54,-140.12"/>
<polygon fill="midnightblue" stroke="midnightblue" points="497.17,-273.35 504.71,-280.81 503.46,-270.28 497.17,-273.35"/>
</g>
<!-- Node16 -->
<g id="node16" class="node">
<title>Node16</title>
<g id="a_node16"><a xlink:href="../../db/d5d/classjoda_1_1query_1_1SubStringProvider.html#ade595e9eb6f50c8cf4a09fbbe6520669" target="_top" xlink:title=" ">
<polygon fill="white" stroke="black" points="224.5,-61 224.5,-91 388.5,-91 388.5,-61 224.5,-61"/>
<text text-anchor="start" x="232.5" y="-79" font-family="Helvetica,sans-Serif" font-size="10.00">joda::query::SubStringProvider</text>
<text text-anchor="middle" x="306.5" y="-68" font-family="Helvetica,sans-Serif" font-size="10.00">::SubStringProvider</text>
</a>
</g>
</g>
<!-- Node1&#45;&gt;Node16 -->
<g id="edge15" class="edge">
<title>Node1&#45;&gt;Node16</title>
<path fill="none" stroke="midnightblue" d="M504.79,-271.03C492.17,-229.03 460.83,-144.49 403,-100 398.53,-96.56 393.62,-93.61 388.47,-91.08"/>
<polygon fill="midnightblue" stroke="midnightblue" points="501.46,-272.11 507.6,-280.74 508.18,-270.16 501.46,-272.11"/>
</g>
<!-- Node17 -->
<g id="node17" class="node">
<title>Node17</title>
<g id="a_node17"><a xlink:href="../../d9/d28/classjoda_1_1query_1_1UnaryPointerAcceptProvider.html#a3cc82be7317c6ee5e6261af06348bd3e" target="_top" xlink:title=" ">
<polygon fill="white" stroke="black" points="210,-0.5 210,-41.5 403,-41.5 403,-0.5 210,-0.5"/>
<text text-anchor="start" x="218" y="-29.5" font-family="Helvetica,sans-Serif" font-size="10.00">joda::query::UnaryPointer</text>
<text text-anchor="start" x="218" y="-18.5" font-family="Helvetica,sans-Serif" font-size="10.00">AcceptProvider::UnaryPointerAccept</text>
<text text-anchor="middle" x="306.5" y="-7.5" font-family="Helvetica,sans-Serif" font-size="10.00">Provider</text>
</a>
</g>
</g>
<!-- Node1&#45;&gt;Node17 -->
<g id="edge16" class="edge">
<title>Node1&#45;&gt;Node17</title>
<path fill="none" stroke="midnightblue" d="M507.38,-270.66C498,-221.17 470.41,-111.22 403,-51 399.11,-47.53 394.82,-44.46 390.28,-41.74"/>
<polygon fill="midnightblue" stroke="midnightblue" points="503.99,-271.59 509.2,-280.81 510.88,-270.35 503.99,-271.59"/>
</g>
<!-- Node4 -->
<g id="node4" class="node">
<title>Node4</title>
<g id="a_node4"><a xlink:href="../../db/d82/classjoda_1_1query_1_1BinaryNumberProvider.html#a991c0da782c87c123ad706df0030e916" target="_top" xlink:title=" ">
<polygon fill="white" stroke="black" points="0,-502 0,-532 174,-532 174,-502 0,-502"/>
<text text-anchor="start" x="8" y="-520" font-family="Helvetica,sans-Serif" font-size="10.00">joda::query::BinaryNumber</text>
<text text-anchor="middle" x="87" y="-509" font-family="Helvetica,sans-Serif" font-size="10.00">Provider::BinaryNumberProvider</text>
</a>
</g>
</g>
<!-- Node3&#45;&gt;Node4 -->
<g id="edge3" class="edge">
<title>Node3&#45;&gt;Node4</title>
<path fill="none" stroke="midnightblue" d="M214.63,-517C201.18,-517 187.36,-517 174.02,-517"/>
<polygon fill="midnightblue" stroke="midnightblue" points="214.82,-520.5 224.82,-517 214.82,-513.5 214.82,-520.5"/>
</g>
<!-- Node6 -->
<g id="node6" class="node">
<title>Node6</title>
<g id="a_node6"><a xlink:href="../../d7/ddd/classjoda_1_1query_1_1BinaryStringProvider.html#a8d07b9593aeaac55257819c08bae48df" target="_top" xlink:title=" ">
<polygon fill="white" stroke="black" points="5,-453 5,-483 169,-483 169,-453 5,-453"/>
<text text-anchor="start" x="13" y="-471" font-family="Helvetica,sans-Serif" font-size="10.00">joda::query::BinaryString</text>
<text text-anchor="middle" x="87" y="-460" font-family="Helvetica,sans-Serif" font-size="10.00">Provider::BinaryStringProvider</text>
</a>
</g>
</g>
<!-- Node5&#45;&gt;Node6 -->
<g id="edge5" class="edge">
<title>Node5&#45;&gt;Node6</title>
<path fill="none" stroke="midnightblue" d="M214.52,-468C199.5,-468 184.03,-468 169.28,-468"/>
<polygon fill="midnightblue" stroke="midnightblue" points="214.82,-471.5 224.82,-468 214.82,-464.5 214.82,-471.5"/>
</g>
<!-- Node8 -->
<g id="node8" class="node">
<title>Node8</title>
<g id="a_node8"><a xlink:href="../../d3/d31/classjoda_1_1query_1_1UnaryNumberProvider.html#a054c1595e5da686cb1514007e52adefc" target="_top" xlink:title=" ">
<polygon fill="white" stroke="black" points="1,-404 1,-434 173,-434 173,-404 1,-404"/>
<text text-anchor="start" x="9" y="-422" font-family="Helvetica,sans-Serif" font-size="10.00">joda::query::UnaryNumber</text>
<text text-anchor="middle" x="87" y="-411" font-family="Helvetica,sans-Serif" font-size="10.00">Provider::UnaryNumberProvider</text>
</a>
</g>
</g>
<!-- Node7&#45;&gt;Node8 -->
<g id="edge7" class="edge">
<title>Node7&#45;&gt;Node8</title>
<path fill="none" stroke="midnightblue" d="M214.48,-419C200.83,-419 186.81,-419 173.29,-419"/>
<polygon fill="midnightblue" stroke="midnightblue" points="214.82,-422.5 224.82,-419 214.82,-415.5 214.82,-422.5"/>
</g>
<!-- Node10 -->
<g id="node10" class="node">
<title>Node10</title>
<g id="a_node10"><a xlink:href="../../df/dc9/classjoda_1_1query_1_1UnaryStringProvider.html#a6c380d6ded33e105d6d25170e8c1bb68" target="_top" xlink:title=" ">
<polygon fill="white" stroke="black" points="6.5,-355 6.5,-385 167.5,-385 167.5,-355 6.5,-355"/>
<text text-anchor="start" x="14.5" y="-373" font-family="Helvetica,sans-Serif" font-size="10.00">joda::query::UnaryString</text>
<text text-anchor="middle" x="87" y="-362" font-family="Helvetica,sans-Serif" font-size="10.00">Provider::UnaryStringProvider</text>
</a>
</g>
</g>
<!-- Node9&#45;&gt;Node10 -->
<g id="edge9" class="edge">
<title>Node9&#45;&gt;Node10</title>
<path fill="none" stroke="midnightblue" d="M214.68,-370C199.13,-370 183.07,-370 167.83,-370"/>
<polygon fill="midnightblue" stroke="midnightblue" points="214.82,-373.5 224.82,-370 214.82,-366.5 214.82,-373.5"/>
</g>
</g>
</svg>
