<?xml version="1.0" encoding="UTF-8" standalone="no"?>
<!DOCTYPE svg PUBLIC "-//W3C//DTD SVG 1.1//EN"
 "http://www.w3.org/Graphics/SVG/1.1/DTD/svg11.dtd">
<!-- Generated by graphviz version 2.43.0 (0)
 -->
<!-- Title: joda::query::IValueProvider::duplicateParameters Pages: 1 -->
<!--zoomable 774 -->
<svg id="main" version="1.1" xmlns="http://www.w3.org/2000/svg" xmlns:xlink="http://www.w3.org/1999/xlink" xml:space="preserve" onload="init(evt)">
<style type="text/css"><![CDATA[
.edge:hover path { stroke: red; }
.edge:hover polygon { stroke: red; fill: red; }
]]></style>
<script type="text/javascript"><![CDATA[
var edges = document.getElementsByTagName('g');
if (edges && edges.length) {
  for (var i=0;i<edges.length;i++) {
    if (edges[i].id.substr(0,4)=='edge') {
      edges[i].setAttribute('class','edge');
    }
  }
}
]]></script>
        <defs>
                <circle id="rim" cx="0" cy="0" r="7"/>
                <circle id="rim2" cx="0" cy="0" r="3.5"/>
                <g id="zoomPlus">
                        <use xlink:href="#rim" fill="#404040">
                                <set attributeName="fill" to="#808080" begin="zoomplus.mouseover" end="zoomplus.mouseout"/>
                        </use>
                        <path d="M-4,0h8M0,-4v8" fill="none" stroke="white" stroke-width="1.5" pointer-events="none"/>
                </g>
                <g id="zoomMin">
                        <use xlink:href="#rim" fill="#404040">
                                <set attributeName="fill" to="#808080" begin="zoomminus.mouseover" end="zoomminus.mouseout"/>
                        </use>
                        <path d="M-4,0h8" fill="none" stroke="white" stroke-width="1.5" pointer-events="none"/>
                </g>
                <g id="dirArrow">
                        <path fill="none" stroke="white" stroke-width="1.5" d="M0,-3.0v7 M-2.5,-0.5L0,-3.0L2.5,-0.5"/>
                </g>
               <g id="resetDef">
                       <use xlink:href="#rim2" fill="#404040">
                               <set attributeName="fill" to="#808080" begin="reset.mouseover" end="reset.mouseout"/>
                       </use>
               </g>
        </defs>

<script type="text/javascript">
var viewWidth = 355;
var viewHeight = 774;
var sectionId = 'dynsection-8';
</script>
<script xlink:href="../../svgpan.js"/>
<svg id="graph" class="graph">
<g id="viewport">
<title>joda::query::IValueProvider::duplicateParameters</title>
<polygon fill="white" stroke="transparent" points="-4,4 -4,-770 351,-770 351,4 -4,4"/>
<!-- Node1 -->
<g id="node1" class="node">
<title>Node1</title>
<g id="a_node1"><a xlink:title=" ">
<polygon fill="#bfbfbf" stroke="black" points="200,-367.5 200,-397.5 347,-397.5 347,-367.5 200,-367.5"/>
<text text-anchor="start" x="208" y="-385.5" font-family="Helvetica,sans-Serif" font-size="10.00">joda::query::IValueProvider</text>
<text text-anchor="middle" x="273.5" y="-374.5" font-family="Helvetica,sans-Serif" font-size="10.00">::duplicateParameters</text>
</a>
</g>
</g>
<!-- Node2 -->
<g id="node2" class="node">
<title>Node2</title>
<g id="a_node2"><a xlink:href="../../d4/d1f/classjoda_1_1query_1_1ArraySizeProvider.html#a81f8a5e37a308e2461e3ea87c6bad745" target="_top" xlink:title=" ">
<polygon fill="white" stroke="black" points="0,-735.5 0,-765.5 164,-765.5 164,-735.5 0,-735.5"/>
<text text-anchor="start" x="8" y="-753.5" font-family="Helvetica,sans-Serif" font-size="10.00">joda::query::ArraySizeProvider</text>
<text text-anchor="middle" x="82" y="-742.5" font-family="Helvetica,sans-Serif" font-size="10.00">::duplicate</text>
</a>
</g>
</g>
<!-- Node1&#45;&gt;Node2 -->
<g id="edge1" class="edge">
<title>Node1&#45;&gt;Node2</title>
<path fill="none" stroke="midnightblue" d="M272.17,-408.01C269.95,-471.3 255.22,-636.86 164,-726.5 160.55,-729.89 156.64,-732.81 152.45,-735.32"/>
<polygon fill="midnightblue" stroke="midnightblue" points="275.68,-407.85 272.45,-397.76 268.68,-407.66 275.68,-407.85"/>
</g>
<!-- Node3 -->
<g id="node3" class="node">
<title>Node3</title>
<g id="a_node3"><a xlink:href="../../db/d82/classjoda_1_1query_1_1BinaryNumberProvider.html#ad12095a74e243305cf96c7c91d7f9624" target="_top" xlink:title=" ">
<polygon fill="white" stroke="black" points="8.5,-686.5 8.5,-716.5 155.5,-716.5 155.5,-686.5 8.5,-686.5"/>
<text text-anchor="start" x="16.5" y="-704.5" font-family="Helvetica,sans-Serif" font-size="10.00">joda::query::BinaryNumber</text>
<text text-anchor="middle" x="82" y="-693.5" font-family="Helvetica,sans-Serif" font-size="10.00">Provider::duplicate</text>
</a>
</g>
</g>
<!-- Node1&#45;&gt;Node3 -->
<g id="edge2" class="edge">
<title>Node1&#45;&gt;Node3</title>
<path fill="none" stroke="midnightblue" d="M270.64,-407.82C265.09,-464.57 243.68,-602.79 164,-677.5 160.36,-680.91 156.26,-683.84 151.89,-686.35"/>
<polygon fill="midnightblue" stroke="midnightblue" points="274.15,-407.87 271.55,-397.6 267.18,-407.25 274.15,-407.87"/>
</g>
<!-- Node4 -->
<g id="node4" class="node">
<title>Node4</title>
<g id="a_node4"><a xlink:href="../../d7/ddd/classjoda_1_1query_1_1BinaryStringProvider.html#a5cc04a4207f2a53f09dc51c09acf7b92" target="_top" xlink:title=" ">
<polygon fill="white" stroke="black" points="13.5,-637.5 13.5,-667.5 150.5,-667.5 150.5,-637.5 13.5,-637.5"/>
<text text-anchor="start" x="21.5" y="-655.5" font-family="Helvetica,sans-Serif" font-size="10.00">joda::query::BinaryString</text>
<text text-anchor="middle" x="82" y="-644.5" font-family="Helvetica,sans-Serif" font-size="10.00">Provider::duplicate</text>
</a>
</g>
</g>
<!-- Node1&#45;&gt;Node4 -->
<g id="edge3" class="edge">
<title>Node1&#45;&gt;Node4</title>
<path fill="none" stroke="midnightblue" d="M268.62,-407.37C259.57,-456.9 232.39,-568.31 164,-628.5 160.04,-631.99 155.59,-634.97 150.86,-637.52"/>
<polygon fill="midnightblue" stroke="midnightblue" points="272.07,-407.96 270.33,-397.51 265.17,-406.76 272.07,-407.96"/>
</g>
<!-- Node5 -->
<g id="node5" class="node">
<title>Node5</title>
<g id="a_node5"><a xlink:href="../../d5/d66/classjoda_1_1query_1_1FileNameProvider.html#a3618c1c0f15ab71e1db3beafae99e594" target="_top" xlink:title=" ">
<polygon fill="white" stroke="black" points="0,-588.5 0,-618.5 164,-618.5 164,-588.5 0,-588.5"/>
<text text-anchor="start" x="8" y="-606.5" font-family="Helvetica,sans-Serif" font-size="10.00">joda::query::FileNameProvider</text>
<text text-anchor="middle" x="82" y="-595.5" font-family="Helvetica,sans-Serif" font-size="10.00">::duplicate</text>
</a>
</g>
</g>
<!-- Node1&#45;&gt;Node5 -->
<g id="edge4" class="edge">
<title>Node1&#45;&gt;Node5</title>
<path fill="none" stroke="midnightblue" d="M265.62,-407.34C252.76,-449.16 221.06,-533.57 164,-579.5 159.77,-582.9 155.08,-585.82 150.13,-588.33"/>
<polygon fill="midnightblue" stroke="midnightblue" points="269,-408.25 268.49,-397.67 262.29,-406.26 269,-408.25"/>
</g>
<!-- Node6 -->
<g id="node6" class="node">
<title>Node6</title>
<g id="a_node6"><a xlink:href="../../d1/dc3/classjoda_1_1query_1_1FilePosProvider.html#a182af4516e1c531a8a8eaabe036c751e" target="_top" xlink:title=" ">
<polygon fill="white" stroke="black" points="6,-539.5 6,-569.5 158,-569.5 158,-539.5 6,-539.5"/>
<text text-anchor="start" x="14" y="-557.5" font-family="Helvetica,sans-Serif" font-size="10.00">joda::query::FilePosProvider</text>
<text text-anchor="middle" x="82" y="-546.5" font-family="Helvetica,sans-Serif" font-size="10.00">::duplicate</text>
</a>
</g>
</g>
<!-- Node1&#45;&gt;Node6 -->
<g id="edge5" class="edge">
<title>Node1&#45;&gt;Node6</title>
<path fill="none" stroke="midnightblue" d="M260.98,-406.97C244.22,-439.91 210.05,-498.1 164,-530.5 159.08,-533.96 153.66,-536.93 148.03,-539.47"/>
<polygon fill="midnightblue" stroke="midnightblue" points="264.31,-408.13 265.61,-397.62 258.03,-405.02 264.31,-408.13"/>
</g>
<!-- Node7 -->
<g id="node7" class="node">
<title>Node7</title>
<g id="a_node7"><a xlink:href="../../d3/d59/classjoda_1_1query_1_1IDProvider.html#a1b21547f89332ad4d725b0573ae0f880" target="_top" xlink:title=" ">
<polygon fill="white" stroke="black" points="18,-490.5 18,-520.5 146,-520.5 146,-490.5 18,-490.5"/>
<text text-anchor="start" x="26" y="-508.5" font-family="Helvetica,sans-Serif" font-size="10.00">joda::query::IDProvider</text>
<text text-anchor="middle" x="82" y="-497.5" font-family="Helvetica,sans-Serif" font-size="10.00">::duplicate</text>
</a>
</g>
</g>
<!-- Node1&#45;&gt;Node7 -->
<g id="edge6" class="edge">
<title>Node1&#45;&gt;Node7</title>
<path fill="none" stroke="midnightblue" d="M253.28,-405.23C233.16,-427.66 199.6,-461.41 164,-481.5 158,-484.89 151.47,-487.84 144.81,-490.41"/>
<polygon fill="midnightblue" stroke="midnightblue" points="256.08,-407.35 260.06,-397.53 250.82,-402.72 256.08,-407.35"/>
</g>
<!-- Node8 -->
<g id="node8" class="node">
<title>Node8</title>
<g id="a_node8"><a xlink:href="../../da/d38/classjoda_1_1query_1_1INListProvider.html#a1cbea7600c88c3d537c1c42270d27f03" target="_top" xlink:title=" ">
<polygon fill="white" stroke="black" points="9.5,-441.5 9.5,-471.5 154.5,-471.5 154.5,-441.5 9.5,-441.5"/>
<text text-anchor="start" x="17.5" y="-459.5" font-family="Helvetica,sans-Serif" font-size="10.00">joda::query::INListProvider</text>
<text text-anchor="middle" x="82" y="-448.5" font-family="Helvetica,sans-Serif" font-size="10.00">::duplicate</text>
</a>
</g>
</g>
<!-- Node1&#45;&gt;Node8 -->
<g id="edge7" class="edge">
<title>Node1&#45;&gt;Node8</title>
<path fill="none" stroke="midnightblue" d="M233.6,-402.08C213.18,-411.93 187.57,-423.63 164,-432.5 155.63,-435.65 146.64,-438.66 137.82,-441.42"/>
<polygon fill="midnightblue" stroke="midnightblue" points="235.14,-405.22 242.6,-397.69 232.07,-398.93 235.14,-405.22"/>
</g>
<!-- Node9 -->
<g id="node9" class="node">
<title>Node9</title>
<g id="a_node9"><a xlink:href="../../d8/dcb/classjoda_1_1query_1_1IsXBoolProvider.html#a6f400f03734dcbf60f980e4f14bae876" target="_top" xlink:title=" ">
<polygon fill="white" stroke="black" points="5,-392.5 5,-422.5 159,-422.5 159,-392.5 5,-392.5"/>
<text text-anchor="start" x="13" y="-410.5" font-family="Helvetica,sans-Serif" font-size="10.00">joda::query::IsXBoolProvider</text>
<text text-anchor="middle" x="82" y="-399.5" font-family="Helvetica,sans-Serif" font-size="10.00">::duplicate</text>
</a>
</g>
</g>
<!-- Node1&#45;&gt;Node9 -->
<g id="edge8" class="edge">
<title>Node1&#45;&gt;Node9</title>
<path fill="none" stroke="midnightblue" d="M189.74,-393.42C179.62,-394.75 169.32,-396.11 159.3,-397.43"/>
<polygon fill="midnightblue" stroke="midnightblue" points="190.32,-396.87 199.78,-392.09 189.4,-389.93 190.32,-396.87"/>
</g>
<!-- Node10 -->
<g id="node10" class="node">
<title>Node10</title>
<g id="a_node10"><a xlink:href="../../d2/d94/classjoda_1_1query_1_1RegexExtractProvider.html#a5dd7165bdeb77751fff503a3d62a09c1" target="_top" xlink:title=" ">
<polygon fill="white" stroke="black" points="11,-343.5 11,-373.5 153,-373.5 153,-343.5 11,-343.5"/>
<text text-anchor="start" x="19" y="-361.5" font-family="Helvetica,sans-Serif" font-size="10.00">joda::query::RegexExtract</text>
<text text-anchor="middle" x="82" y="-350.5" font-family="Helvetica,sans-Serif" font-size="10.00">Provider::duplicate</text>
</a>
</g>
</g>
<!-- Node1&#45;&gt;Node10 -->
<g id="edge9" class="edge">
<title>Node1&#45;&gt;Node10</title>
<path fill="none" stroke="midnightblue" d="M189.61,-372C177.41,-370.46 164.94,-368.88 153.03,-367.37"/>
<polygon fill="midnightblue" stroke="midnightblue" points="189.42,-375.51 199.78,-373.29 190.3,-368.56 189.42,-375.51"/>
</g>
<!-- Node11 -->
<g id="node11" class="node">
<title>Node11</title>
<g id="a_node11"><a xlink:href="../../db/df6/classjoda_1_1query_1_1RegexReplaceProvider.html#a8b2adea9d58bc403ee11aaf5bd18bd7b" target="_top" xlink:title=" ">
<polygon fill="white" stroke="black" points="9,-294.5 9,-324.5 155,-324.5 155,-294.5 9,-294.5"/>
<text text-anchor="start" x="17" y="-312.5" font-family="Helvetica,sans-Serif" font-size="10.00">joda::query::RegexReplace</text>
<text text-anchor="middle" x="82" y="-301.5" font-family="Helvetica,sans-Serif" font-size="10.00">Provider::duplicate</text>
</a>
</g>
</g>
<!-- Node1&#45;&gt;Node11 -->
<g id="edge10" class="edge">
<title>Node1&#45;&gt;Node11</title>
<path fill="none" stroke="midnightblue" d="M231.89,-363.18C211.71,-353.93 186.82,-343.03 164,-334.5 154.76,-331.05 144.81,-327.69 135.16,-324.61"/>
<polygon fill="midnightblue" stroke="midnightblue" points="230.55,-366.42 241.1,-367.44 233.49,-360.06 230.55,-366.42"/>
</g>
<!-- Node12 -->
<g id="node12" class="node">
<title>Node12</title>
<g id="a_node12"><a xlink:href="../../db/d5d/classjoda_1_1query_1_1SubStringProvider.html#af521aff721430341b2e046e5271cf2f0" target="_top" xlink:title=" ">
<polygon fill="white" stroke="black" points="0,-245.5 0,-275.5 164,-275.5 164,-245.5 0,-245.5"/>
<text text-anchor="start" x="8" y="-263.5" font-family="Helvetica,sans-Serif" font-size="10.00">joda::query::SubStringProvider</text>
<text text-anchor="middle" x="82" y="-252.5" font-family="Helvetica,sans-Serif" font-size="10.00">::duplicate</text>
</a>
</g>
</g>
<!-- Node1&#45;&gt;Node12 -->
<g id="edge11" class="edge">
<title>Node1&#45;&gt;Node12</title>
<path fill="none" stroke="midnightblue" d="M252.8,-359.96C232.54,-338.07 199.07,-305.32 164,-285.5 157.34,-281.73 150.04,-278.47 142.64,-275.65"/>
<polygon fill="midnightblue" stroke="midnightblue" points="250.33,-362.45 259.64,-367.49 255.51,-357.74 250.33,-362.45"/>
</g>
<!-- Node13 -->
<g id="node13" class="node">
<title>Node13</title>
<g id="a_node13"><a xlink:href="../../df/d80/classjoda_1_1query_1_1TemplateProvider.html#a1697307b32bd296b2099de8d754db8f0" target="_top" xlink:title=" ">
<polygon fill="white" stroke="black" points="1,-196.5 1,-226.5 163,-226.5 163,-196.5 1,-196.5"/>
<text text-anchor="start" x="9" y="-214.5" font-family="Helvetica,sans-Serif" font-size="10.00">joda::query::TemplateProvider</text>
<text text-anchor="middle" x="82" y="-203.5" font-family="Helvetica,sans-Serif" font-size="10.00">::duplicate</text>
</a>
</g>
</g>
<!-- Node1&#45;&gt;Node13 -->
<g id="edge12" class="edge">
<title>Node1&#45;&gt;Node13</title>
<path fill="none" stroke="midnightblue" d="M260.58,-357.94C243.57,-325.44 209.33,-268.56 164,-236.5 158.59,-232.68 152.58,-229.42 146.35,-226.66"/>
<polygon fill="midnightblue" stroke="midnightblue" points="257.63,-359.86 265.29,-367.18 263.87,-356.68 257.63,-359.86"/>
</g>
<!-- Node14 -->
<g id="node14" class="node">
<title>Node14</title>
<g id="a_node14"><a xlink:href="../../d8/d7c/classjoda_1_1query_1_1TypeProvider.html#a4d5001854f9e69828b7a5c8fdeca3adb" target="_top" xlink:title=" ">
<polygon fill="white" stroke="black" points="12,-147.5 12,-177.5 152,-177.5 152,-147.5 12,-147.5"/>
<text text-anchor="start" x="20" y="-165.5" font-family="Helvetica,sans-Serif" font-size="10.00">joda::query::TypeProvider</text>
<text text-anchor="middle" x="82" y="-154.5" font-family="Helvetica,sans-Serif" font-size="10.00">::duplicate</text>
</a>
</g>
</g>
<!-- Node1&#45;&gt;Node14 -->
<g id="edge13" class="edge">
<title>Node1&#45;&gt;Node14</title>
<path fill="none" stroke="midnightblue" d="M265.4,-357.67C252.28,-316.27 220.32,-233.16 164,-187.5 159.2,-183.61 153.79,-180.32 148.11,-177.54"/>
<polygon fill="midnightblue" stroke="midnightblue" points="262.06,-358.72 268.33,-367.25 268.75,-356.67 262.06,-358.72"/>
</g>
<!-- Node15 -->
<g id="node15" class="node">
<title>Node15</title>
<g id="a_node15"><a xlink:href="../../d3/d31/classjoda_1_1query_1_1UnaryNumberProvider.html#a80bb108c92c05e919e11e80b340a6b15" target="_top" xlink:title=" ">
<polygon fill="white" stroke="black" points="9.5,-98.5 9.5,-128.5 154.5,-128.5 154.5,-98.5 9.5,-98.5"/>
<text text-anchor="start" x="17.5" y="-116.5" font-family="Helvetica,sans-Serif" font-size="10.00">joda::query::UnaryNumber</text>
<text text-anchor="middle" x="82" y="-105.5" font-family="Helvetica,sans-Serif" font-size="10.00">Provider::duplicate</text>
</a>
</g>
</g>
<!-- Node1&#45;&gt;Node15 -->
<g id="edge14" class="edge">
<title>Node1&#45;&gt;Node15</title>
<path fill="none" stroke="midnightblue" d="M268.37,-357.23C258.98,-307.89 231.37,-198.29 164,-138.5 159.6,-134.59 154.59,-131.3 149.28,-128.51"/>
<polygon fill="midnightblue" stroke="midnightblue" points="264.98,-358.13 270.2,-367.35 271.87,-356.89 264.98,-358.13"/>
</g>
<!-- Node16 -->
<g id="node16" class="node">
<title>Node16</title>
<g id="a_node16"><a xlink:href="../../d9/d28/classjoda_1_1query_1_1UnaryPointerAcceptProvider.html#ac4aaffd18fb9da7675a5076dae6dfdc9" target="_top" xlink:title=" ">
<polygon fill="white" stroke="black" points="11.5,-49.5 11.5,-79.5 152.5,-79.5 152.5,-49.5 11.5,-49.5"/>
<text text-anchor="start" x="19.5" y="-67.5" font-family="Helvetica,sans-Serif" font-size="10.00">joda::query::UnaryPointer</text>
<text text-anchor="middle" x="82" y="-56.5" font-family="Helvetica,sans-Serif" font-size="10.00">AcceptProvider::duplicate</text>
</a>
</g>
</g>
<!-- Node1&#45;&gt;Node16 -->
<g id="edge15" class="edge">
<title>Node1&#45;&gt;Node16</title>
<path fill="none" stroke="midnightblue" d="M270.48,-357.01C264.63,-300.53 242.68,-163.95 164,-89.5 159.94,-85.66 155.3,-82.4 150.34,-79.65"/>
<polygon fill="midnightblue" stroke="midnightblue" points="267.02,-357.57 271.45,-367.2 273.99,-356.91 267.02,-357.57"/>
</g>
<!-- Node17 -->
<g id="node17" class="node">
<title>Node17</title>
<g id="a_node17"><a xlink:href="../../df/dc9/classjoda_1_1query_1_1UnaryStringProvider.html#a8f3d329ff32187b26a7a6dfe37def62d" target="_top" xlink:title=" ">
<polygon fill="white" stroke="black" points="15,-0.5 15,-30.5 149,-30.5 149,-0.5 15,-0.5"/>
<text text-anchor="start" x="23" y="-18.5" font-family="Helvetica,sans-Serif" font-size="10.00">joda::query::UnaryString</text>
<text text-anchor="middle" x="82" y="-7.5" font-family="Helvetica,sans-Serif" font-size="10.00">Provider::duplicate</text>
</a>
</g>
</g>
<!-- Node1&#45;&gt;Node17 -->
<g id="edge16" class="edge">
<title>Node1&#45;&gt;Node17</title>
<path fill="none" stroke="midnightblue" d="M272.06,-357.2C269.58,-294.42 254.31,-130.11 164,-40.5 159.72,-36.25 154.73,-32.72 149.37,-29.79"/>
<polygon fill="midnightblue" stroke="midnightblue" points="268.57,-357.49 272.39,-367.37 275.57,-357.26 268.57,-357.49"/>
</g>
</g>
</svg>
        <g id="navigator" transform="translate(0 0)" fill="#404254">
                <rect fill="#f2f5e9" fill-opacity="0.5" stroke="#606060" stroke-width=".5" x="0" y="0" width="60" height="60"/>
                <use id="zoomplus" xlink:href="#zoomPlus" x="17" y="9" onmousedown="handleZoom(evt,'in')"/>
                <use id="zoomminus" xlink:href="#zoomMin" x="42" y="9" onmousedown="handleZoom(evt,'out')"/>
                <use id="reset" xlink:href="#resetDef" x="30" y="36" onmousedown="handleReset()"/>
                <g id="arrowUp" xlink:href="#dirArrow" transform="translate(30 24)" onmousedown="handlePan(0,-1)">
                  <use xlink:href="#rim" fill="#404040">
                        <set attributeName="fill" to="#808080" begin="arrowUp.mouseover" end="arrowUp.mouseout"/>
                  </use>
                  <path fill="none" stroke="white" stroke-width="1.5" d="M0,-3.0v7 M-2.5,-0.5L0,-3.0L2.5,-0.5"/>
                </g>
                <g id="arrowRight" xlink:href="#dirArrow" transform="rotate(90) translate(36 -43)" onmousedown="handlePan(1,0)">
                  <use xlink:href="#rim" fill="#404040">
                        <set attributeName="fill" to="#808080" begin="arrowRight.mouseover" end="arrowRight.mouseout"/>
                  </use>
                  <path fill="none" stroke="white" stroke-width="1.5" d="M0,-3.0v7 M-2.5,-0.5L0,-3.0L2.5,-0.5"/>
                </g>
                <g id="arrowDown" xlink:href="#dirArrow" transform="rotate(180) translate(-30 -48)" onmousedown="handlePan(0,1)">
                  <use xlink:href="#rim" fill="#404040">
                        <set attributeName="fill" to="#808080" begin="arrowDown.mouseover" end="arrowDown.mouseout"/>
                  </use>
                  <path fill="none" stroke="white" stroke-width="1.5" d="M0,-3.0v7 M-2.5,-0.5L0,-3.0L2.5,-0.5"/>
                </g>
                <g id="arrowLeft" xlink:href="#dirArrow" transform="rotate(270) translate(-36 17)" onmousedown="handlePan(-1,0)">
                  <use xlink:href="#rim" fill="#404040">
                        <set attributeName="fill" to="#808080" begin="arrowLeft.mouseover" end="arrowLeft.mouseout"/>
                  </use>
                  <path fill="none" stroke="white" stroke-width="1.5" d="M0,-3.0v7 M-2.5,-0.5L0,-3.0L2.5,-0.5"/>
                </g>
        </g>
        <svg viewBox="0 0 15 15" width="100%" height="30px" preserveAspectRatio="xMaxYMin meet">
         <g id="arrow_out" transform="scale(0.3 0.3)">
          <a xlink:href="classjoda_1_1query_1_1IValueProvider_a31a0845e8439d4d4c40a6d4ce774cae9_icgraph_org.svg" target="_base">
           <rect id="button" ry="5" rx="5" y="6" x="6" height="38" width="38"
                fill="#f2f5e9" fill-opacity="0.5" stroke="#606060" stroke-width="1.0"/>
           <path id="arrow"
             d="M 11.500037,31.436501 C 11.940474,20.09759 22.043105,11.32322 32.158766,21.979434 L 37.068811,17.246167 C 37.068811,17.246167 37.088388,32 37.088388,32 L 22.160133,31.978069 C 22.160133,31.978069 26.997745,27.140456 26.997745,27.140456 C 18.528582,18.264221 13.291696,25.230495 11.500037,31.436501 z"
             style="fill:#404040;"/>
          </a>
         </g>
        </svg>
</svg>
