<?xml version="1.0" encoding="UTF-8" standalone="no"?>
<!DOCTYPE svg PUBLIC "-//W3C//DTD SVG 1.1//EN"
 "http://www.w3.org/Graphics/SVG/1.1/DTD/svg11.dtd">
<!-- Generated by graphviz version 2.43.0 (0)
 -->
<!-- Title: joda::query::RegexProvider::RegexProvider Pages: 1 -->
<svg width="340pt" height="186pt"
 viewBox="0.00 0.00 340.00 186.00" xmlns="http://www.w3.org/2000/svg" xmlns:xlink="http://www.w3.org/1999/xlink">
<g id="graph0" class="graph" transform="scale(1 1) rotate(0) translate(4 182)">
<title>joda::query::RegexProvider::RegexProvider</title>
<polygon fill="white" stroke="transparent" points="-4,4 -4,-182 336,-182 336,4 -4,4"/>
<!-- Node1 -->
<g id="node1" class="node">
<title>Node1</title>
<g id="a_node1"><a xlink:title=" ">
<polygon fill="#bfbfbf" stroke="black" points="0,-73.5 0,-103.5 148,-103.5 148,-73.5 0,-73.5"/>
<text text-anchor="start" x="8" y="-91.5" font-family="Helvetica,sans-Serif" font-size="10.00">joda::query::RegexProvider</text>
<text text-anchor="middle" x="74" y="-80.5" font-family="Helvetica,sans-Serif" font-size="10.00">::RegexProvider</text>
</a>
</g>
</g>
<!-- Node2 -->
<g id="node2" class="node">
<title>Node2</title>
<g id="a_node2"><a xlink:href="../../d4/df5/classjoda_1_1query_1_1IValueProvider.html#a2310d3dc6335655f3a216322539dfa64" target="_top" xlink:title=" ">
<polygon fill="white" stroke="black" points="184.5,-147.5 184.5,-177.5 331.5,-177.5 331.5,-147.5 184.5,-147.5"/>
<text text-anchor="start" x="192.5" y="-165.5" font-family="Helvetica,sans-Serif" font-size="10.00">joda::query::IValueProvider</text>
<text text-anchor="middle" x="258" y="-154.5" font-family="Helvetica,sans-Serif" font-size="10.00">::checkParamSize</text>
</a>
</g>
</g>
<!-- Node1&#45;&gt;Node2 -->
<g id="edge1" class="edge">
<title>Node1&#45;&gt;Node2</title>
<path fill="none" stroke="midnightblue" d="M105.61,-103.66C127.24,-114.1 157.06,-127.93 184,-138.5 188.77,-140.37 193.75,-142.22 198.77,-144.01"/>
<polygon fill="midnightblue" stroke="midnightblue" points="197.83,-147.39 208.43,-147.38 200.14,-140.78 197.83,-147.39"/>
</g>
<!-- Node3 -->
<g id="node3" class="node">
<title>Node3</title>
<g id="a_node3"><a xlink:href="../../d4/df5/classjoda_1_1query_1_1IValueProvider.html#a7d30b7bd59391b93f085dee6ad823ef3" target="_top" xlink:title=" ">
<polygon fill="white" stroke="black" points="184.5,-98.5 184.5,-128.5 331.5,-128.5 331.5,-98.5 184.5,-98.5"/>
<text text-anchor="start" x="192.5" y="-116.5" font-family="Helvetica,sans-Serif" font-size="10.00">joda::query::IValueProvider</text>
<text text-anchor="middle" x="258" y="-105.5" font-family="Helvetica,sans-Serif" font-size="10.00">::checkParamType</text>
</a>
</g>
</g>
<!-- Node1&#45;&gt;Node3 -->
<g id="edge2" class="edge">
<title>Node1&#45;&gt;Node3</title>
<path fill="none" stroke="midnightblue" d="M148.24,-98.56C156.76,-99.73 165.49,-100.93 174.13,-102.12"/>
<polygon fill="midnightblue" stroke="midnightblue" points="173.82,-105.61 184.21,-103.5 174.78,-98.67 173.82,-105.61"/>
</g>
<!-- Node4 -->
<g id="node4" class="node">
<title>Node4</title>
<g id="a_node4"><a xlink:href="../../de/dcb/classjoda_1_1query_1_1RegexProvider.html#a13bca4f1bff929ae871f9d885051195f" target="_top" xlink:title=" ">
<polygon fill="white" stroke="black" points="184,-49.5 184,-79.5 332,-79.5 332,-49.5 184,-49.5"/>
<text text-anchor="start" x="192" y="-67.5" font-family="Helvetica,sans-Serif" font-size="10.00">joda::query::RegexProvider</text>
<text text-anchor="middle" x="258" y="-56.5" font-family="Helvetica,sans-Serif" font-size="10.00">::getName</text>
</a>
</g>
</g>
<!-- Node1&#45;&gt;Node4 -->
<g id="edge3" class="edge">
<title>Node1&#45;&gt;Node4</title>
<path fill="none" stroke="midnightblue" d="M148.24,-78.84C156.69,-77.73 165.35,-76.59 173.92,-75.46"/>
<polygon fill="midnightblue" stroke="midnightblue" points="174.45,-78.92 183.91,-74.14 173.54,-71.98 174.45,-78.92"/>
</g>
<!-- Node5 -->
<g id="node5" class="node">
<title>Node5</title>
<g id="a_node5"><a xlink:href="../../de/dcb/classjoda_1_1query_1_1RegexProvider.html#a0e0497c32440c283ba6fca754f422162" target="_top" xlink:title=" ">
<polygon fill="white" stroke="black" points="184,-0.5 184,-30.5 332,-30.5 332,-0.5 184,-0.5"/>
<text text-anchor="start" x="192" y="-18.5" font-family="Helvetica,sans-Serif" font-size="10.00">joda::query::RegexProvider</text>
<text text-anchor="middle" x="258" y="-7.5" font-family="Helvetica,sans-Serif" font-size="10.00">::isConst</text>
</a>
</g>
</g>
<!-- Node1&#45;&gt;Node5 -->
<g id="edge4" class="edge">
<title>Node1&#45;&gt;Node5</title>
<path fill="none" stroke="midnightblue" d="M107.13,-73.49C128.68,-63.64 157.81,-50.73 184,-40.5 189.73,-38.26 195.76,-36.02 201.79,-33.85"/>
<polygon fill="midnightblue" stroke="midnightblue" points="202.96,-37.15 211.22,-30.51 200.63,-30.55 202.96,-37.15"/>
</g>
</g>
</svg>
