<?xml version="1.0" encoding="UTF-8" standalone="no"?>
<!DOCTYPE svg PUBLIC "-//W3C//DTD SVG 1.1//EN"
 "http://www.w3.org/Graphics/SVG/1.1/DTD/svg11.dtd">
<!-- Generated by graphviz version 2.43.0 (0)
 -->
<!-- Title: joda::queryparsing::QueryParser::getLastErrorColor Pages: 1 -->
<svg width="301pt" height="50pt"
 viewBox="0.00 0.00 301.00 50.00" xmlns="http://www.w3.org/2000/svg" xmlns:xlink="http://www.w3.org/1999/xlink">
<g id="graph0" class="graph" transform="scale(1 1) rotate(0) translate(4 46)">
<title>joda::queryparsing::QueryParser::getLastErrorColor</title>
<polygon fill="white" stroke="transparent" points="-4,4 -4,-46 297,-46 297,4 -4,4"/>
<!-- Node1 -->
<g id="node1" class="node">
<title>Node1</title>
<g id="a_node1"><a xlink:title=" ">
<polygon fill="#bfbfbf" stroke="black" points="146,-0.5 146,-41.5 293,-41.5 293,-0.5 146,-0.5"/>
<text text-anchor="start" x="154" y="-29.5" font-family="Helvetica,sans-Serif" font-size="10.00">joda::queryparsing</text>
<text text-anchor="start" x="154" y="-18.5" font-family="Helvetica,sans-Serif" font-size="10.00">::QueryParser::getLastError</text>
<text text-anchor="middle" x="219.5" y="-7.5" font-family="Helvetica,sans-Serif" font-size="10.00">Color</text>
</a>
</g>
</g>
<!-- Node2 -->
<g id="node2" class="node">
<title>Node2</title>
<g id="a_node2"><a xlink:href="../../d5/de2/classjoda_1_1cli_1_1CLI.html#ab82ae55f90b80055700fa6e571a73a78" target="_top" xlink:title=" ">
<polygon fill="white" stroke="black" points="0,-11.5 0,-30.5 110,-30.5 110,-11.5 0,-11.5"/>
<text text-anchor="middle" x="55" y="-18.5" font-family="Helvetica,sans-Serif" font-size="10.00">joda::cli::CLI::query</text>
</a>
</g>
</g>
<!-- Node1&#45;&gt;Node2 -->
<g id="edge1" class="edge">
<title>Node1&#45;&gt;Node2</title>
<path fill="none" stroke="midnightblue" d="M135.64,-21C126.98,-21 118.34,-21 110.11,-21"/>
<polygon fill="midnightblue" stroke="midnightblue" points="135.81,-24.5 145.81,-21 135.81,-17.5 135.81,-24.5"/>
</g>
</g>
</svg>
