<?xml version="1.0" encoding="UTF-8" standalone="no"?>
<!DOCTYPE svg PUBLIC "-//W3C//DTD SVG 1.1//EN"
 "http://www.w3.org/Graphics/SVG/1.1/DTD/svg11.dtd">
<!-- Generated by graphviz version 2.43.0 (0)
 -->
<!-- Title: TEST_F Pages: 1 -->
<svg width="254pt" height="204pt"
 viewBox="0.00 0.00 254.00 203.50" xmlns="http://www.w3.org/2000/svg" xmlns:xlink="http://www.w3.org/1999/xlink">
<g id="graph0" class="graph" transform="scale(1 1) rotate(0) translate(4 199.5)">
<title>TEST_F</title>
<polygon fill="white" stroke="transparent" points="-4,4 -4,-199.5 250,-199.5 250,4 -4,4"/>
<!-- Node1 -->
<g id="node1" class="node">
<title>Node1</title>
<g id="a_node1"><a xlink:title=" ">
<polygon fill="#bfbfbf" stroke="black" points="0,-88.5 0,-107.5 52,-107.5 52,-88.5 0,-88.5"/>
<text text-anchor="middle" x="26" y="-95.5" font-family="Helvetica,sans-Serif" font-size="10.00">TEST_F</text>
</a>
</g>
</g>
<!-- Node2 -->
<g id="node2" class="node">
<title>Node2</title>
<g id="a_node2"><a xlink:href="../../d0/d07/classjoda_1_1query_1_1IAggregator.html#acf4ebc0f99c7ee935ac9c997a58e94ee" target="_top" xlink:title=" ">
<polygon fill="white" stroke="black" points="100,-165 100,-195 234,-195 234,-165 100,-165"/>
<text text-anchor="start" x="108" y="-183" font-family="Helvetica,sans-Serif" font-size="10.00">joda::query::IAggregator</text>
<text text-anchor="middle" x="167" y="-172" font-family="Helvetica,sans-Serif" font-size="10.00">::duplicate</text>
</a>
</g>
</g>
<!-- Node1&#45;&gt;Node2 -->
<g id="edge1" class="edge">
<title>Node1&#45;&gt;Node2</title>
<path fill="none" stroke="midnightblue" d="M35.07,-107.87C45.89,-120.49 66.25,-142.23 88,-155 91.66,-157.15 95.52,-159.13 99.49,-160.96"/>
<polygon fill="midnightblue" stroke="midnightblue" points="98.33,-164.28 108.91,-164.97 101.07,-157.83 98.33,-164.28"/>
</g>
<!-- Node3 -->
<g id="node3" class="node">
<title>Node3</title>
<g id="a_node3"><a xlink:href="../../d4/df8/classIValueTestHelper.html#a3702ba323364c4c37fa5664906eb3770" target="_top" xlink:title=" ">
<polygon fill="white" stroke="black" points="88,-126.5 88,-145.5 246,-145.5 246,-126.5 88,-126.5"/>
<text text-anchor="middle" x="167" y="-133.5" font-family="Helvetica,sans-Serif" font-size="10.00">IValueTestHelper::getNumVal</text>
</a>
</g>
</g>
<!-- Node1&#45;&gt;Node3 -->
<g id="edge2" class="edge">
<title>Node1&#45;&gt;Node3</title>
<path fill="none" stroke="midnightblue" d="M52.12,-106.22C63.09,-109.7 76.14,-113.71 88,-117 96.59,-119.38 105.75,-121.76 114.67,-123.98"/>
<polygon fill="midnightblue" stroke="midnightblue" points="114.04,-127.43 124.58,-126.43 115.71,-120.64 114.04,-127.43"/>
</g>
<!-- Node4 -->
<g id="node4" class="node">
<title>Node4</title>
<g id="a_node4"><a xlink:href="../../d4/df8/classIValueTestHelper.html#a1acee691cb1e478c673dde7117affae6" target="_top" xlink:title=" ">
<polygon fill="white" stroke="black" points="89.5,-88.5 89.5,-107.5 244.5,-107.5 244.5,-88.5 89.5,-88.5"/>
<text text-anchor="middle" x="167" y="-95.5" font-family="Helvetica,sans-Serif" font-size="10.00">IValueTestHelper::getPointer</text>
</a>
</g>
</g>
<!-- Node1&#45;&gt;Node4 -->
<g id="edge3" class="edge">
<title>Node1&#45;&gt;Node4</title>
<path fill="none" stroke="midnightblue" d="M52.17,-98C60.07,-98 69.28,-98 78.97,-98"/>
<polygon fill="midnightblue" stroke="midnightblue" points="79.21,-101.5 89.21,-98 79.21,-94.5 79.21,-101.5"/>
</g>
<!-- Node5 -->
<g id="node5" class="node">
<title>Node5</title>
<g id="a_node5"><a xlink:href="../../d0/d07/classjoda_1_1query_1_1IAggregator.html#ad59945fd55bae4cb27aa5fbb3badad98" target="_top" xlink:title=" ">
<polygon fill="white" stroke="black" points="100,-39 100,-69 234,-69 234,-39 100,-39"/>
<text text-anchor="start" x="108" y="-57" font-family="Helvetica,sans-Serif" font-size="10.00">joda::query::IAggregator</text>
<text text-anchor="middle" x="167" y="-46" font-family="Helvetica,sans-Serif" font-size="10.00">::merge</text>
</a>
</g>
</g>
<!-- Node1&#45;&gt;Node5 -->
<g id="edge4" class="edge">
<title>Node1&#45;&gt;Node5</title>
<path fill="none" stroke="midnightblue" d="M52.17,-90.03C68.04,-85.01 89.2,-78.31 108.96,-72.05"/>
<polygon fill="midnightblue" stroke="midnightblue" points="110.05,-75.38 118.53,-69.03 107.94,-68.71 110.05,-75.38"/>
</g>
<!-- Node6 -->
<g id="node6" class="node">
<title>Node6</title>
<g id="a_node6"><a xlink:href="../../d4/df8/classIValueTestHelper.html#a3e04ba5c44f1f8d8ef5320ebde55c720" target="_top" xlink:title=" ">
<polygon fill="white" stroke="black" points="99,-0.5 99,-19.5 235,-19.5 235,-0.5 99,-0.5"/>
<text text-anchor="middle" x="167" y="-7.5" font-family="Helvetica,sans-Serif" font-size="10.00">IValueTestHelper::param</text>
</a>
</g>
</g>
<!-- Node1&#45;&gt;Node6 -->
<g id="edge5" class="edge">
<title>Node1&#45;&gt;Node6</title>
<path fill="none" stroke="midnightblue" d="M32.84,-88.48C42.45,-73.64 63.05,-45.14 88,-30 92.37,-27.35 97.08,-25.05 101.95,-23.05"/>
<polygon fill="midnightblue" stroke="midnightblue" points="103.27,-26.29 111.46,-19.57 100.86,-19.72 103.27,-26.29"/>
</g>
</g>
</svg>
