<?xml version="1.0" encoding="UTF-8" standalone="no"?>
<!DOCTYPE svg PUBLIC "-//W3C//DTD SVG 1.1//EN"
 "http://www.w3.org/Graphics/SVG/1.1/DTD/svg11.dtd">
<!-- Generated by graphviz version 2.43.0 (0)
 -->
<!-- Title: TEST_F Pages: 1 -->
<svg width="251pt" height="66pt"
 viewBox="0.00 0.00 251.00 66.00" xmlns="http://www.w3.org/2000/svg" xmlns:xlink="http://www.w3.org/1999/xlink">
<g id="graph0" class="graph" transform="scale(1 1) rotate(0) translate(4 62)">
<title>TEST_F</title>
<polygon fill="white" stroke="transparent" points="-4,4 -4,-62 247,-62 247,4 -4,4"/>
<!-- Node1 -->
<g id="node1" class="node">
<title>Node1</title>
<g id="a_node1"><a xlink:title=" ">
<polygon fill="#bfbfbf" stroke="black" points="0,-19.5 0,-38.5 52,-38.5 52,-19.5 0,-19.5"/>
<text text-anchor="middle" x="26" y="-26.5" font-family="Helvetica,sans-Serif" font-size="10.00">TEST_F</text>
</a>
</g>
</g>
<!-- Node2 -->
<g id="node2" class="node">
<title>Node2</title>
<g id="a_node2"><a xlink:href="../../d4/df8/classIValueTestHelper.html#a1acee691cb1e478c673dde7117affae6" target="_top" xlink:title=" ">
<polygon fill="white" stroke="black" points="88,-38.5 88,-57.5 243,-57.5 243,-38.5 88,-38.5"/>
<text text-anchor="middle" x="165.5" y="-45.5" font-family="Helvetica,sans-Serif" font-size="10.00">IValueTestHelper::getPointer</text>
</a>
</g>
</g>
<!-- Node1&#45;&gt;Node2 -->
<g id="edge1" class="edge">
<title>Node1&#45;&gt;Node2</title>
<path fill="none" stroke="midnightblue" d="M52.22,-32.48C61.85,-33.82 73.42,-35.41 85.41,-37.07"/>
<polygon fill="midnightblue" stroke="midnightblue" points="85.17,-40.57 95.56,-38.47 86.13,-33.64 85.17,-40.57"/>
</g>
<!-- Node3 -->
<g id="node3" class="node">
<title>Node3</title>
<g id="a_node3"><a xlink:href="../../d4/df8/classIValueTestHelper.html#a3e04ba5c44f1f8d8ef5320ebde55c720" target="_top" xlink:title=" ">
<polygon fill="white" stroke="black" points="97.5,-0.5 97.5,-19.5 233.5,-19.5 233.5,-0.5 97.5,-0.5"/>
<text text-anchor="middle" x="165.5" y="-7.5" font-family="Helvetica,sans-Serif" font-size="10.00">IValueTestHelper::param</text>
</a>
</g>
</g>
<!-- Node1&#45;&gt;Node3 -->
<g id="edge2" class="edge">
<title>Node1&#45;&gt;Node3</title>
<path fill="none" stroke="midnightblue" d="M52.22,-25.52C62.31,-24.12 74.53,-22.43 87.15,-20.69"/>
<polygon fill="midnightblue" stroke="midnightblue" points="87.89,-24.12 97.31,-19.28 86.93,-17.19 87.89,-24.12"/>
</g>
</g>
</svg>
