<?xml version="1.0" encoding="UTF-8" standalone="no"?>
<!DOCTYPE svg PUBLIC "-//W3C//DTD SVG 1.1//EN"
 "http://www.w3.org/Graphics/SVG/1.1/DTD/svg11.dtd">
<!-- Generated by graphviz version 2.43.0 (0)
 -->
<!-- Title: moodycamel::weak_atomic&lt; T &gt; Pages: 1 -->
<svg width="437pt" height="137pt"
 viewBox="0.00 0.00 437.00 137.00" xmlns="http://www.w3.org/2000/svg" xmlns:xlink="http://www.w3.org/1999/xlink">
<g id="graph0" class="graph" transform="scale(1 1) rotate(0) translate(4 133)">
<title>moodycamel::weak_atomic&lt; T &gt;</title>
<polygon fill="white" stroke="transparent" points="-4,4 -4,-133 433,-133 433,4 -4,4"/>
<!-- Node1 -->
<g id="node1" class="node">
<title>Node1</title>
<g id="a_node1"><a xlink:title=" ">
<polygon fill="#bfbfbf" stroke="black" points="0,-55 0,-74 180,-74 180,-55 0,-55"/>
<text text-anchor="middle" x="90" y="-62" font-family="Helvetica,sans-Serif" font-size="10.00">moodycamel::weak_atomic&lt; T &gt;</text>
</a>
</g>
</g>
<!-- Node2 -->
<g id="node2" class="node">
<title>Node2</title>
<g id="a_node2"><a xlink:href="../../dc/d66/classmoodycamel_1_1weak__atomic.html" target="_top" xlink:title=" ">
<polygon fill="white" stroke="black" points="277,-98.5 277,-128.5 429,-128.5 429,-98.5 277,-98.5"/>
<text text-anchor="start" x="285" y="-116.5" font-family="Helvetica,sans-Serif" font-size="10.00">moodycamel::weak_atomic</text>
<text text-anchor="middle" x="353" y="-105.5" font-family="Helvetica,sans-Serif" font-size="10.00">&lt; ssize_t &gt;</text>
</a>
</g>
</g>
<!-- Node1&#45;&gt;Node2 -->
<g id="edge1" class="edge">
<title>Node1&#45;&gt;Node2</title>
<path fill="none" stroke="orange" stroke-dasharray="5,2" d="M151.85,-75.92C189.13,-82.92 237.14,-91.94 276.79,-99.38"/>
<polygon fill="orange" stroke="orange" points="152.11,-72.41 141.63,-74.01 150.82,-79.29 152.11,-72.41"/>
<text text-anchor="middle" x="228.5" y="-97.5" font-family="Helvetica,sans-Serif" font-size="10.00"> &lt; ssize_t &gt;</text>
</g>
<!-- Node3 -->
<g id="node3" class="node">
<title>Node3</title>
<g id="a_node3"><a xlink:href="../../dc/d66/classmoodycamel_1_1weak__atomic.html" target="_top" xlink:title=" ">
<polygon fill="white" stroke="black" points="277,-49.5 277,-79.5 429,-79.5 429,-49.5 277,-49.5"/>
<text text-anchor="start" x="285" y="-67.5" font-family="Helvetica,sans-Serif" font-size="10.00">moodycamel::weak_atomic</text>
<text text-anchor="middle" x="353" y="-56.5" font-family="Helvetica,sans-Serif" font-size="10.00">&lt; size_t &gt;</text>
</a>
</g>
</g>
<!-- Node1&#45;&gt;Node3 -->
<g id="edge2" class="edge">
<title>Node1&#45;&gt;Node3</title>
<path fill="none" stroke="orange" stroke-dasharray="5,2" d="M190.15,-64.5C218.88,-64.5 249.77,-64.5 276.77,-64.5"/>
<polygon fill="orange" stroke="orange" points="190.09,-61 180.09,-64.5 190.09,-68 190.09,-61"/>
<text text-anchor="middle" x="228.5" y="-67.5" font-family="Helvetica,sans-Serif" font-size="10.00"> &lt; size_t &gt;</text>
</g>
<!-- Node4 -->
<g id="node4" class="node">
<title>Node4</title>
<g id="a_node4"><a xlink:href="../../dc/d66/classmoodycamel_1_1weak__atomic.html" target="_top" xlink:title=" ">
<polygon fill="white" stroke="black" points="277,-0.5 277,-30.5 429,-30.5 429,-0.5 277,-0.5"/>
<text text-anchor="start" x="285" y="-18.5" font-family="Helvetica,sans-Serif" font-size="10.00">moodycamel::weak_atomic</text>
<text text-anchor="middle" x="353" y="-7.5" font-family="Helvetica,sans-Serif" font-size="10.00">&lt; Block * &gt;</text>
</a>
</g>
</g>
<!-- Node1&#45;&gt;Node4 -->
<g id="edge3" class="edge">
<title>Node1&#45;&gt;Node4</title>
<path fill="none" stroke="orange" stroke-dasharray="5,2" d="M151.85,-53.08C189.13,-46.08 237.14,-37.06 276.79,-29.62"/>
<polygon fill="orange" stroke="orange" points="150.82,-49.71 141.63,-54.99 152.11,-56.59 150.82,-49.71"/>
<text text-anchor="middle" x="228.5" y="-46.5" font-family="Helvetica,sans-Serif" font-size="10.00"> &lt; Block * &gt;</text>
</g>
</g>
</svg>
