<?xml version="1.0" encoding="UTF-8" standalone="no"?>
<!DOCTYPE svg PUBLIC "-//W3C//DTD SVG 1.1//EN"
 "http://www.w3.org/Graphics/SVG/1.1/DTD/svg11.dtd">
<!-- Generated by graphviz version 2.43.0 (0)
 -->
<!-- Title: FileNameRepo Pages: 1 -->
<svg width="741pt" height="151pt"
 viewBox="0.00 0.00 741.00 151.00" xmlns="http://www.w3.org/2000/svg" xmlns:xlink="http://www.w3.org/1999/xlink">
<g id="graph0" class="graph" transform="scale(1 1) rotate(0) translate(4 147)">
<title>FileNameRepo</title>
<polygon fill="white" stroke="transparent" points="-4,4 -4,-147 737,-147 737,4 -4,4"/>
<!-- Node1 -->
<g id="node1" class="node">
<title>Node1</title>
<g id="a_node1"><a xlink:title=" ">
<polygon fill="#bfbfbf" stroke="black" points="645,-79.5 645,-98.5 733,-98.5 733,-79.5 645,-79.5"/>
<text text-anchor="middle" x="689" y="-86.5" font-family="Helvetica,sans-Serif" font-size="10.00">FileNameRepo</text>
</a>
</g>
</g>
<!-- Node2 -->
<g id="node2" class="node">
<title>Node2</title>
<g id="a_node2"><a xlink:title=" ">
<polygon fill="white" stroke="#bfbfbf" points="479,-123.5 479,-142.5 548,-142.5 548,-123.5 479,-123.5"/>
<text text-anchor="middle" x="513.5" y="-130.5" font-family="Helvetica,sans-Serif" font-size="10.00">std::mutex</text>
</a>
</g>
</g>
<!-- Node2&#45;&gt;Node1 -->
<g id="edge1" class="edge">
<title>Node2&#45;&gt;Node1</title>
<path fill="none" stroke="#9a32cd" stroke-dasharray="5,2" d="M558.41,-121.86C586.76,-114.67 623.27,-105.42 650.31,-98.56"/>
<polygon fill="#9a32cd" stroke="#9a32cd" points="557.2,-118.56 548.36,-124.41 558.92,-125.35 557.2,-118.56"/>
<text text-anchor="middle" x="610.5" y="-115" font-family="Helvetica,sans-Serif" font-size="10.00"> mut</text>
</g>
<!-- Node3 -->
<g id="node3" class="node">
<title>Node3</title>
<g id="a_node3"><a xlink:title=" ">
<polygon fill="white" stroke="#bfbfbf" points="451,-25 451,-55 576,-55 576,-25 451,-25"/>
<text text-anchor="start" x="459" y="-43" font-family="Helvetica,sans-Serif" font-size="10.00">std::unordered_map</text>
<text text-anchor="middle" x="513.5" y="-32" font-family="Helvetica,sans-Serif" font-size="10.00">&lt; FILEID, std::string &gt;</text>
</a>
</g>
</g>
<!-- Node3&#45;&gt;Node1 -->
<g id="edge2" class="edge">
<title>Node3&#45;&gt;Node1</title>
<path fill="none" stroke="#9a32cd" stroke-dasharray="5,2" d="M577.74,-57.86C603.67,-65.18 632.62,-73.36 654.36,-79.5"/>
<polygon fill="#9a32cd" stroke="#9a32cd" points="578.55,-54.45 567.97,-55.1 576.64,-61.19 578.55,-54.45"/>
<text text-anchor="middle" x="610.5" y="-75" font-family="Helvetica,sans-Serif" font-size="10.00"> id_file</text>
</g>
<!-- Node4 -->
<g id="node4" class="node">
<title>Node4</title>
<g id="a_node4"><a xlink:title=" ">
<polygon fill="white" stroke="#bfbfbf" points="213.5,-88.5 213.5,-107.5 278.5,-107.5 278.5,-88.5 213.5,-88.5"/>
<text text-anchor="middle" x="246" y="-95.5" font-family="Helvetica,sans-Serif" font-size="10.00">std::string</text>
</a>
</g>
</g>
<!-- Node4&#45;&gt;Node3 -->
<g id="edge3" class="edge">
<title>Node4&#45;&gt;Node3</title>
<path fill="none" stroke="#9a32cd" stroke-dasharray="5,2" d="M288.48,-88.16C299.07,-85.73 310.44,-83.2 321,-81 370.58,-70.66 383.53,-70.85 433,-60 439.95,-58.48 447.22,-56.78 454.42,-55.05"/>
<polygon fill="#9a32cd" stroke="#9a32cd" points="287.58,-84.78 278.63,-90.44 289.16,-91.6 287.58,-84.78"/>
<text text-anchor="middle" x="377" y="-84" font-family="Helvetica,sans-Serif" font-size="10.00"> elements</text>
</g>
<!-- Node9 -->
<g id="node9" class="node">
<title>Node9</title>
<g id="a_node9"><a xlink:title=" ">
<polygon fill="white" stroke="#bfbfbf" points="451,-74 451,-104 576,-104 576,-74 451,-74"/>
<text text-anchor="start" x="459" y="-92" font-family="Helvetica,sans-Serif" font-size="10.00">std::unordered_map</text>
<text text-anchor="middle" x="513.5" y="-81" font-family="Helvetica,sans-Serif" font-size="10.00">&lt; std::string, FILEID &gt;</text>
</a>
</g>
</g>
<!-- Node4&#45;&gt;Node9 -->
<g id="edge9" class="edge">
<title>Node4&#45;&gt;Node9</title>
<path fill="none" stroke="#9a32cd" stroke-dasharray="5,2" d="M288.71,-97.6C326.41,-97.11 383.44,-96.09 433,-94 438.8,-93.76 444.84,-93.46 450.88,-93.13"/>
<polygon fill="#9a32cd" stroke="#9a32cd" points="288.56,-94.1 278.61,-97.72 288.65,-101.1 288.56,-94.1"/>
<text text-anchor="middle" x="377" y="-100" font-family="Helvetica,sans-Serif" font-size="10.00"> keys</text>
</g>
<!-- Node5 -->
<g id="node5" class="node">
<title>Node5</title>
<g id="a_node5"><a xlink:title=" ">
<polygon fill="white" stroke="#bfbfbf" points="0,-83 0,-113 104,-113 104,-83 0,-83"/>
<text text-anchor="start" x="8" y="-101" font-family="Helvetica,sans-Serif" font-size="10.00">std::basic_string&lt;</text>
<text text-anchor="middle" x="52" y="-90" font-family="Helvetica,sans-Serif" font-size="10.00"> Char &gt;</text>
</a>
</g>
</g>
<!-- Node5&#45;&gt;Node4 -->
<g id="edge4" class="edge">
<title>Node5&#45;&gt;Node4</title>
<path fill="none" stroke="midnightblue" d="M114.23,-98C147.25,-98 186.63,-98 213.48,-98"/>
<polygon fill="midnightblue" stroke="midnightblue" points="114.2,-94.5 104.2,-98 114.2,-101.5 114.2,-94.5"/>
</g>
<!-- Node6 -->
<g id="node6" class="node">
<title>Node6</title>
<g id="a_node6"><a xlink:title=" ">
<polygon fill="white" stroke="#bfbfbf" points="189,-11 189,-41 303,-41 303,-11 189,-11"/>
<text text-anchor="start" x="197" y="-29" font-family="Helvetica,sans-Serif" font-size="10.00">std::unordered_map</text>
<text text-anchor="middle" x="246" y="-18" font-family="Helvetica,sans-Serif" font-size="10.00">&lt; K, T &gt;</text>
</a>
</g>
</g>
<!-- Node6&#45;&gt;Node3 -->
<g id="edge5" class="edge">
<title>Node6&#45;&gt;Node3</title>
<path fill="none" stroke="orange" stroke-dasharray="5,2" d="M313.32,-15.32C348.96,-11.28 393.57,-8.95 433,-15 446.3,-17.04 460.43,-20.9 473.03,-24.98"/>
<polygon fill="orange" stroke="orange" points="312.55,-11.89 303.04,-16.56 313.39,-18.84 312.55,-11.89"/>
<text text-anchor="middle" x="377" y="-18" font-family="Helvetica,sans-Serif" font-size="10.00"> &lt; FILEID, std::string &gt;</text>
</g>
<!-- Node6&#45;&gt;Node9 -->
<g id="edge10" class="edge">
<title>Node6&#45;&gt;Node9</title>
<path fill="none" stroke="orange" stroke-dasharray="5,2" d="M313.29,-29.06C357.89,-31.96 412.22,-37.35 433,-47 442.98,-51.63 441.74,-58.05 451,-64 456.72,-67.68 463.07,-70.99 469.46,-73.91"/>
<polygon fill="orange" stroke="orange" points="313.26,-25.56 303.06,-28.43 312.82,-32.54 313.26,-25.56"/>
<text text-anchor="middle" x="377" y="-50" font-family="Helvetica,sans-Serif" font-size="10.00"> &lt; std::string, FILEID &gt;</text>
</g>
<!-- Node7 -->
<g id="node7" class="node">
<title>Node7</title>
<g id="a_node7"><a xlink:title=" ">
<polygon fill="white" stroke="#bfbfbf" points="37.5,-0.5 37.5,-19.5 66.5,-19.5 66.5,-0.5 37.5,-0.5"/>
<text text-anchor="middle" x="52" y="-7.5" font-family="Helvetica,sans-Serif" font-size="10.00">K</text>
</a>
</g>
</g>
<!-- Node7&#45;&gt;Node6 -->
<g id="edge6" class="edge">
<title>Node7&#45;&gt;Node6</title>
<path fill="none" stroke="#9a32cd" stroke-dasharray="5,2" d="M77.08,-10.28C100.96,-10.73 138.58,-11.91 171,-15 176.82,-15.55 182.88,-16.25 188.91,-17.03"/>
<polygon fill="#9a32cd" stroke="#9a32cd" points="76.89,-6.78 66.84,-10.12 76.78,-13.78 76.89,-6.78"/>
<text text-anchor="middle" x="146.5" y="-18" font-family="Helvetica,sans-Serif" font-size="10.00"> keys</text>
</g>
<!-- Node8 -->
<g id="node8" class="node">
<title>Node8</title>
<g id="a_node8"><a xlink:title=" ">
<polygon fill="white" stroke="#bfbfbf" points="37.5,-38.5 37.5,-57.5 66.5,-57.5 66.5,-38.5 37.5,-38.5"/>
<text text-anchor="middle" x="52" y="-45.5" font-family="Helvetica,sans-Serif" font-size="10.00">T</text>
</a>
</g>
</g>
<!-- Node8&#45;&gt;Node6 -->
<g id="edge7" class="edge">
<title>Node8&#45;&gt;Node6</title>
<path fill="none" stroke="#9a32cd" stroke-dasharray="5,2" d="M76.45,-45.31C104.19,-42.13 151.31,-36.73 188.69,-32.45"/>
<polygon fill="#9a32cd" stroke="#9a32cd" points="76.04,-41.84 66.5,-46.45 76.83,-48.79 76.04,-41.84"/>
<text text-anchor="middle" x="146.5" y="-43" font-family="Helvetica,sans-Serif" font-size="10.00"> elements</text>
</g>
<!-- Node9&#45;&gt;Node1 -->
<g id="edge8" class="edge">
<title>Node9&#45;&gt;Node1</title>
<path fill="none" stroke="#9a32cd" stroke-dasharray="5,2" d="M586.41,-89C606.24,-89 627.13,-89 644.78,-89"/>
<polygon fill="#9a32cd" stroke="#9a32cd" points="586.16,-85.5 576.16,-89 586.16,-92.5 586.16,-85.5"/>
<text text-anchor="middle" x="610.5" y="-92" font-family="Helvetica,sans-Serif" font-size="10.00"> file_id</text>
</g>
</g>
</svg>
