<?xml version="1.0" encoding="UTF-8" standalone="no"?>
<!DOCTYPE svg PUBLIC "-//W3C//DTD SVG 1.1//EN"
 "http://www.w3.org/Graphics/SVG/1.1/DTD/svg11.dtd">
<!-- Generated by graphviz version 2.43.0 (0)
 -->
<!-- Title: QueryPlan::QueryPlan Pages: 1 -->
<svg width="304pt" height="186pt"
 viewBox="0.00 0.00 304.00 186.00" xmlns="http://www.w3.org/2000/svg" xmlns:xlink="http://www.w3.org/1999/xlink">
<g id="graph0" class="graph" transform="scale(1 1) rotate(0) translate(4 182)">
<title>QueryPlan::QueryPlan</title>
<polygon fill="white" stroke="transparent" points="-4,4 -4,-182 300,-182 300,4 -4,4"/>
<!-- Node1 -->
<g id="node1" class="node">
<title>Node1</title>
<g id="a_node1"><a xlink:title=" ">
<polygon fill="#bfbfbf" stroke="black" points="0,-79 0,-98 123,-98 123,-79 0,-79"/>
<text text-anchor="middle" x="61.5" y="-86" font-family="Helvetica,sans-Serif" font-size="10.00">QueryPlan::QueryPlan</text>
</a>
</g>
</g>
<!-- Node2 -->
<g id="node2" class="node">
<title>Node2</title>
<g id="a_node2"><a xlink:href="../../da/d91/classStorageCollection.html#a8eab1f456e898e39c546d49b17374990" target="_top" xlink:title=" ">
<polygon fill="white" stroke="black" points="173,-147.5 173,-177.5 282,-177.5 282,-147.5 173,-147.5"/>
<text text-anchor="start" x="181" y="-165.5" font-family="Helvetica,sans-Serif" font-size="10.00">StorageCollection::</text>
<text text-anchor="middle" x="227.5" y="-154.5" font-family="Helvetica,sans-Serif" font-size="10.00">getInstance</text>
</a>
</g>
</g>
<!-- Node1&#45;&gt;Node2 -->
<g id="edge1" class="edge">
<title>Node1&#45;&gt;Node2</title>
<path fill="none" stroke="midnightblue" d="M79.24,-98.07C98.22,-108.7 130.27,-126.02 159,-138.5 163.15,-140.3 167.49,-142.08 171.88,-143.8"/>
<polygon fill="midnightblue" stroke="midnightblue" points="170.92,-147.18 181.51,-147.47 173.41,-140.64 170.92,-147.18"/>
</g>
<!-- Node3 -->
<g id="node3" class="node">
<title>Node3</title>
<g id="a_node3"><a xlink:href="../../da/d91/classStorageCollection.html#a42d2dd552cbf57b46e0b37fdedf97f6e" target="_top" xlink:title=" ">
<polygon fill="white" stroke="black" points="173,-98.5 173,-128.5 282,-128.5 282,-98.5 173,-98.5"/>
<text text-anchor="start" x="181" y="-116.5" font-family="Helvetica,sans-Serif" font-size="10.00">StorageCollection::</text>
<text text-anchor="middle" x="227.5" y="-105.5" font-family="Helvetica,sans-Serif" font-size="10.00">getOrAddStorage</text>
</a>
</g>
</g>
<!-- Node1&#45;&gt;Node3 -->
<g id="edge2" class="edge">
<title>Node1&#45;&gt;Node3</title>
<path fill="none" stroke="midnightblue" d="M123.1,-97.74C135.99,-99.7 149.64,-101.78 162.64,-103.77"/>
<polygon fill="midnightblue" stroke="midnightblue" points="162.49,-107.28 172.91,-105.33 163.55,-100.36 162.49,-107.28"/>
</g>
<!-- Node4 -->
<g id="node4" class="node">
<title>Node4</title>
<g id="a_node4"><a xlink:href="../../da/d91/classStorageCollection.html#a74560564956e813e4a38eab2efd401e3" target="_top" xlink:title=" ">
<polygon fill="white" stroke="black" points="173,-49.5 173,-79.5 282,-79.5 282,-49.5 173,-49.5"/>
<text text-anchor="start" x="181" y="-67.5" font-family="Helvetica,sans-Serif" font-size="10.00">StorageCollection::</text>
<text text-anchor="middle" x="227.5" y="-56.5" font-family="Helvetica,sans-Serif" font-size="10.00">getStorage</text>
</a>
</g>
</g>
<!-- Node1&#45;&gt;Node4 -->
<g id="edge3" class="edge">
<title>Node1&#45;&gt;Node4</title>
<path fill="none" stroke="midnightblue" d="M123.1,-79.63C135.99,-77.75 149.64,-75.75 162.64,-73.85"/>
<polygon fill="midnightblue" stroke="midnightblue" points="163.52,-77.25 172.91,-72.34 162.5,-70.33 163.52,-77.25"/>
</g>
<!-- Node5 -->
<g id="node5" class="node">
<title>Node5</title>
<g id="a_node5"><a xlink:href="../../d8/d55/classjoda_1_1docparsing_1_1ReaderParser.html#acaa2878a323c80b64444da383f78772e" target="_top" xlink:title=" ">
<polygon fill="white" stroke="black" points="159,-0.5 159,-30.5 296,-30.5 296,-0.5 159,-0.5"/>
<text text-anchor="start" x="167" y="-18.5" font-family="Helvetica,sans-Serif" font-size="10.00">joda::docparsing::Reader</text>
<text text-anchor="middle" x="227.5" y="-7.5" font-family="Helvetica,sans-Serif" font-size="10.00">Parser::setMaxThreads</text>
</a>
</g>
</g>
<!-- Node1&#45;&gt;Node5 -->
<g id="edge4" class="edge">
<title>Node1&#45;&gt;Node5</title>
<path fill="none" stroke="midnightblue" d="M80.37,-78.89C99.54,-68.76 131.01,-52.61 159,-40.5 163.95,-38.36 169.14,-36.23 174.36,-34.17"/>
<polygon fill="midnightblue" stroke="midnightblue" points="175.67,-37.42 183.74,-30.55 173.15,-30.89 175.67,-37.42"/>
</g>
</g>
</svg>
