<?xml version="1.0" encoding="UTF-8" standalone="no"?>
<!DOCTYPE svg PUBLIC "-//W3C//DTD SVG 1.1//EN"
 "http://www.w3.org/Graphics/SVG/1.1/DTD/svg11.dtd">
<!-- Generated by graphviz version 2.43.0 (0)
 -->
<!-- Title: QueryPlan::executeQuery Pages: 1 -->
<svg width="933pt" height="700pt"
 viewBox="0.00 0.00 933.00 699.89" xmlns="http://www.w3.org/2000/svg" xmlns:xlink="http://www.w3.org/1999/xlink">
<g id="graph0" class="graph" transform="scale(1 1) rotate(0) translate(4 695.89)">
<title>QueryPlan::executeQuery</title>
<polygon fill="white" stroke="transparent" points="-4,4 -4,-695.89 929,-695.89 929,4 -4,4"/>
<!-- Node1 -->
<g id="node1" class="node">
<title>Node1</title>
<g id="a_node1"><a xlink:title=" ">
<polygon fill="#bfbfbf" stroke="black" points="0,-351.89 0,-370.89 140,-370.89 140,-351.89 0,-351.89"/>
<text text-anchor="middle" x="70" y="-358.89" font-family="Helvetica,sans-Serif" font-size="10.00">QueryPlan::executeQuery</text>
</a>
</g>
</g>
<!-- Node2 -->
<g id="node2" class="node">
<title>Node2</title>
<g id="a_node2"><a xlink:href="../../d2/dde/structQueryThreadConfig.html#aded9d0bd5dac77dfe37b8adc48360058" target="_top" xlink:title=" ">
<polygon fill="white" stroke="black" points="210,-661.39 210,-691.39 326,-691.39 326,-661.39 210,-661.39"/>
<text text-anchor="start" x="218" y="-679.39" font-family="Helvetica,sans-Serif" font-size="10.00">QueryThreadConfig::</text>
<text text-anchor="middle" x="268" y="-668.39" font-family="Helvetica,sans-Serif" font-size="10.00">addExecutor</text>
</a>
</g>
</g>
<!-- Node1&#45;&gt;Node2 -->
<g id="edge1" class="edge">
<title>Node1&#45;&gt;Node2</title>
<path fill="none" stroke="midnightblue" d="M71.63,-371.11C74.75,-411.16 92,-565.25 176,-646.39 182.93,-653.09 191.37,-658.28 200.3,-662.32"/>
<polygon fill="midnightblue" stroke="midnightblue" points="199.15,-665.63 209.73,-666.13 201.77,-659.14 199.15,-665.63"/>
</g>
<!-- Node3 -->
<g id="node3" class="node">
<title>Node3</title>
<g id="a_node3"><a xlink:href="../../dc/de9/classQueryPlan.html#a9277d75dcf13ced118c6c0cfdd349d8f" target="_top" xlink:title=" ">
<polygon fill="white" stroke="black" points="176,-573.39 176,-603.39 360,-603.39 360,-573.39 176,-573.39"/>
<text text-anchor="start" x="184" y="-591.39" font-family="Helvetica,sans-Serif" font-size="10.00">QueryPlan::addGenericBenchmark</text>
<text text-anchor="middle" x="268" y="-580.39" font-family="Helvetica,sans-Serif" font-size="10.00">Information</text>
</a>
</g>
</g>
<!-- Node1&#45;&gt;Node3 -->
<g id="edge2" class="edge">
<title>Node1&#45;&gt;Node3</title>
<path fill="none" stroke="midnightblue" d="M73.43,-371.25C81.81,-403.21 112.55,-504.98 176,-558.39 180.76,-562.4 186.07,-565.88 191.67,-568.9"/>
<polygon fill="midnightblue" stroke="midnightblue" points="190.15,-572.05 200.67,-573.26 193.21,-565.75 190.15,-572.05"/>
</g>
<!-- Node4 -->
<g id="node4" class="node">
<title>Node4</title>
<g id="a_node4"><a xlink:href="../../dc/d7d/classBenchmark.html#ac22236ce3203544c99403fdd41f2ff2d" target="_top" xlink:title=" ">
<polygon fill="white" stroke="black" points="418,-622.89 418,-641.89 541,-641.89 541,-622.89 418,-622.89"/>
<text text-anchor="middle" x="479.5" y="-629.89" font-family="Helvetica,sans-Serif" font-size="10.00">Benchmark::addValue</text>
</a>
</g>
</g>
<!-- Node1&#45;&gt;Node4 -->
<g id="edge8" class="edge">
<title>Node1&#45;&gt;Node4</title>
<path fill="none" stroke="midnightblue" d="M71.59,-371.09C74.5,-409.61 90.9,-552.73 176,-613.39 211.83,-638.94 329.95,-639.22 407.55,-636.34"/>
<polygon fill="midnightblue" stroke="midnightblue" points="407.89,-639.83 417.74,-635.93 407.61,-632.83 407.89,-639.83"/>
</g>
<!-- Node6 -->
<g id="node6" class="node">
<title>Node6</title>
<g id="a_node6"><a xlink:href="../../da/d91/classStorageCollection.html#a8eab1f456e898e39c546d49b17374990" target="_top" xlink:title=" ">
<polygon fill="white" stroke="black" points="425,-535.39 425,-565.39 534,-565.39 534,-535.39 425,-535.39"/>
<text text-anchor="start" x="433" y="-553.39" font-family="Helvetica,sans-Serif" font-size="10.00">StorageCollection::</text>
<text text-anchor="middle" x="479.5" y="-542.39" font-family="Helvetica,sans-Serif" font-size="10.00">getInstance</text>
</a>
</g>
</g>
<!-- Node1&#45;&gt;Node6 -->
<g id="edge21" class="edge">
<title>Node1&#45;&gt;Node6</title>
<path fill="none" stroke="midnightblue" d="M74.27,-371.26C84.26,-399.68 117.32,-481.94 176,-517.39 248.86,-561.42 349.84,-563.1 414.68,-558.29"/>
<polygon fill="midnightblue" stroke="midnightblue" points="415.08,-561.77 424.76,-557.47 414.51,-554.8 415.08,-561.77"/>
</g>
<!-- Node9 -->
<g id="node9" class="node">
<title>Node9</title>
<g id="a_node9"><a xlink:href="../../dc/de9/classQueryPlan.html#aa16031eccff01572dec59f8fb8cef83a" target="_top" xlink:title=" ">
<polygon fill="white" stroke="black" points="207,-458.89 207,-477.89 329,-477.89 329,-458.89 207,-458.89"/>
<text text-anchor="middle" x="268" y="-465.89" font-family="Helvetica,sans-Serif" font-size="10.00">QueryPlan::aggregate</text>
</a>
</g>
</g>
<!-- Node1&#45;&gt;Node9 -->
<g id="edge9" class="edge">
<title>Node1&#45;&gt;Node9</title>
<path fill="none" stroke="midnightblue" d="M80.46,-371.17C97.8,-388.5 136.51,-424.66 176,-444.39 185.41,-449.1 195.85,-452.96 206.2,-456.09"/>
<polygon fill="midnightblue" stroke="midnightblue" points="205.49,-459.53 216.06,-458.88 207.4,-452.79 205.49,-459.53"/>
</g>
<!-- Node10 -->
<g id="node10" class="node">
<title>Node10</title>
<g id="a_node10"><a xlink:href="../../dc/dea/classTimer.html#a9e7ab8b695c469647044e65dcbaac031" target="_top" xlink:title=" ">
<polygon fill="white" stroke="black" points="413.5,-496.89 413.5,-515.89 545.5,-515.89 545.5,-496.89 413.5,-496.89"/>
<text text-anchor="middle" x="479.5" y="-503.89" font-family="Helvetica,sans-Serif" font-size="10.00">Timer::durationSeconds</text>
</a>
</g>
</g>
<!-- Node1&#45;&gt;Node10 -->
<g id="edge19" class="edge">
<title>Node1&#45;&gt;Node10</title>
<path fill="none" stroke="midnightblue" d="M75.46,-370.9C87.58,-395.44 123.69,-460.86 176,-487.39 249.06,-524.45 345.12,-523.46 409.2,-517"/>
<polygon fill="midnightblue" stroke="midnightblue" points="409.63,-520.47 419.2,-515.92 408.88,-513.52 409.63,-520.47"/>
</g>
<!-- Node15 -->
<g id="node15" class="node">
<title>Node15</title>
<g id="a_node15"><a xlink:href="../../dc/dea/classTimer.html#a63f0eb44b27402196590a03781515dba" target="_top" xlink:title=" ">
<polygon fill="white" stroke="black" points="443.5,-370.89 443.5,-389.89 515.5,-389.89 515.5,-370.89 443.5,-370.89"/>
<text text-anchor="middle" x="479.5" y="-377.89" font-family="Helvetica,sans-Serif" font-size="10.00">Timer::stop</text>
</a>
</g>
</g>
<!-- Node1&#45;&gt;Node15 -->
<g id="edge35" class="edge">
<title>Node1&#45;&gt;Node15</title>
<path fill="none" stroke="midnightblue" d="M85.53,-370.91C105.12,-383.1 141.54,-403.61 176,-411.39 255.77,-429.42 279.12,-423.48 360,-411.39 376.55,-408.92 379.86,-404.81 396,-400.39 408.1,-397.08 421.29,-393.76 433.49,-390.8"/>
<polygon fill="midnightblue" stroke="midnightblue" points="434.55,-394.14 443.46,-388.41 432.92,-387.34 434.55,-394.14"/>
</g>
<!-- Node17 -->
<g id="node17" class="node">
<title>Node17</title>
<g id="a_node17"><a xlink:href="../../da/db8/classjoda_1_1filesystem_1_1DirectoryRegister.html#ad6c244dafab20276bc4173bcbc71d50d" target="_top" xlink:title=" ">
<polygon fill="white" stroke="black" points="195,-371.39 195,-401.39 341,-401.39 341,-371.39 195,-371.39"/>
<text text-anchor="start" x="203" y="-389.39" font-family="Helvetica,sans-Serif" font-size="10.00">joda::filesystem::Directory</text>
<text text-anchor="middle" x="268" y="-378.39" font-family="Helvetica,sans-Serif" font-size="10.00">Register::getInstance</text>
</a>
</g>
</g>
<!-- Node1&#45;&gt;Node17 -->
<g id="edge20" class="edge">
<title>Node1&#45;&gt;Node17</title>
<path fill="none" stroke="midnightblue" d="M140.1,-370.21C154.52,-372.05 169.85,-374 184.69,-375.9"/>
<polygon fill="midnightblue" stroke="midnightblue" points="184.51,-379.4 194.87,-377.2 185.4,-372.46 184.51,-379.4"/>
</g>
<!-- Node18 -->
<g id="node18" class="node">
<title>Node18</title>
<g id="a_node18"><a xlink:href="../../d8/d55/classjoda_1_1docparsing_1_1ReaderParser.html#a2eae974a88f0e50dbca63b2f83d7750d" target="_top" xlink:title=" ">
<polygon fill="white" stroke="black" points="199.5,-322.39 199.5,-352.39 336.5,-352.39 336.5,-322.39 199.5,-322.39"/>
<text text-anchor="start" x="207.5" y="-340.39" font-family="Helvetica,sans-Serif" font-size="10.00">joda::docparsing::Reader</text>
<text text-anchor="middle" x="268" y="-329.39" font-family="Helvetica,sans-Serif" font-size="10.00">Parser::getMaxThreads</text>
</a>
</g>
</g>
<!-- Node1&#45;&gt;Node18 -->
<g id="edge22" class="edge">
<title>Node1&#45;&gt;Node18</title>
<path fill="none" stroke="midnightblue" d="M140.1,-352.93C155.98,-350.99 172.98,-348.91 189.2,-346.92"/>
<polygon fill="midnightblue" stroke="midnightblue" points="189.68,-350.39 199.18,-345.7 188.83,-343.44 189.68,-350.39"/>
</g>
<!-- Node19 -->
<g id="node19" class="node">
<title>Node19</title>
<g id="a_node19"><a xlink:href="../../d1/d92/classStorageExport.html#a37af608c9bbeedc3eb35e2950d4e9d65" target="_top" xlink:title=" ">
<polygon fill="white" stroke="black" points="201.5,-283.89 201.5,-302.89 334.5,-302.89 334.5,-283.89 201.5,-283.89"/>
<text text-anchor="middle" x="268" y="-290.89" font-family="Helvetica,sans-Serif" font-size="10.00">StorageExport::getStore</text>
</a>
</g>
</g>
<!-- Node1&#45;&gt;Node19 -->
<g id="edge23" class="edge">
<title>Node1&#45;&gt;Node19</title>
<path fill="none" stroke="midnightblue" d="M88.74,-351.87C109.24,-341.2 144.25,-324.01 176,-313.39 185.11,-310.35 194.89,-307.64 204.54,-305.28"/>
<polygon fill="midnightblue" stroke="midnightblue" points="205.57,-308.63 214.51,-302.94 203.97,-301.82 205.57,-308.63"/>
</g>
<!-- Node20 -->
<g id="node20" class="node">
<title>Node20</title>
<g id="a_node20"><a xlink:href="../../da/db8/classjoda_1_1filesystem_1_1DirectoryRegister.html#a6ee5587d4d1920f50d3d9721ead6a6da" target="_top" xlink:title=" ">
<polygon fill="white" stroke="black" points="195,-234.39 195,-264.39 341,-264.39 341,-234.39 195,-234.39"/>
<text text-anchor="start" x="203" y="-252.39" font-family="Helvetica,sans-Serif" font-size="10.00">joda::filesystem::Directory</text>
<text text-anchor="middle" x="268" y="-241.39" font-family="Helvetica,sans-Serif" font-size="10.00">Register::getUniqueDir</text>
</a>
</g>
</g>
<!-- Node1&#45;&gt;Node20 -->
<g id="edge24" class="edge">
<title>Node1&#45;&gt;Node20</title>
<path fill="none" stroke="midnightblue" d="M79.85,-351.74C96.78,-333.83 135.68,-295.38 176,-274.39 180.31,-272.15 184.85,-270.09 189.5,-268.2"/>
<polygon fill="midnightblue" stroke="midnightblue" points="191.05,-271.36 199.17,-264.56 188.58,-264.81 191.05,-271.36"/>
</g>
<!-- Node21 -->
<g id="node21" class="node">
<title>Node21</title>
<g id="a_node21"><a xlink:href="../../da/d84/classMemoryJoinManager.html#a9384307220ee175ff53abe017e13e184" target="_top" xlink:title=" ">
<polygon fill="white" stroke="black" points="206,-185.39 206,-215.39 330,-215.39 330,-185.39 206,-185.39"/>
<text text-anchor="start" x="214" y="-203.39" font-family="Helvetica,sans-Serif" font-size="10.00">MemoryJoinManager::</text>
<text text-anchor="middle" x="268" y="-192.39" font-family="Helvetica,sans-Serif" font-size="10.00">loadJoin</text>
</a>
</g>
</g>
<!-- Node1&#45;&gt;Node21 -->
<g id="edge25" class="edge">
<title>Node1&#45;&gt;Node21</title>
<path fill="none" stroke="midnightblue" d="M75.61,-351.77C88.07,-326.83 124.96,-259.62 176,-225.39 182.17,-221.25 189.02,-217.8 196.1,-214.91"/>
<polygon fill="midnightblue" stroke="midnightblue" points="197.69,-218.05 205.87,-211.31 195.27,-211.48 197.69,-218.05"/>
</g>
<!-- Node22 -->
<g id="node22" class="node">
<title>Node22</title>
<g id="a_node22"><a xlink:href="../../d1/df6/classJoinParser.html#acb1407f19bba042e2ef5da32838a755b" target="_top" xlink:title=" ">
<polygon fill="white" stroke="black" points="219,-146.89 219,-165.89 317,-165.89 317,-146.89 219,-146.89"/>
<text text-anchor="middle" x="268" y="-153.89" font-family="Helvetica,sans-Serif" font-size="10.00">JoinParser::parse</text>
</a>
</g>
</g>
<!-- Node1&#45;&gt;Node22 -->
<g id="edge26" class="edge">
<title>Node1&#45;&gt;Node22</title>
<path fill="none" stroke="midnightblue" d="M73.42,-351.88C81.76,-321.06 112.4,-223.3 176,-176.39 185.66,-169.27 197.37,-164.59 209.13,-161.55"/>
<polygon fill="midnightblue" stroke="midnightblue" points="209.97,-164.95 218.97,-159.35 208.45,-158.11 209.97,-164.95"/>
</g>
<!-- Node26 -->
<g id="node26" class="node">
<title>Node26</title>
<g id="a_node26"><a xlink:href="../../d8/d55/classjoda_1_1docparsing_1_1ReaderParser.html#af811423a643fc416776da0a311cc013d" target="_top" xlink:title=" ">
<polygon fill="white" stroke="black" points="199.5,-97.39 199.5,-127.39 336.5,-127.39 336.5,-97.39 199.5,-97.39"/>
<text text-anchor="start" x="207.5" y="-115.39" font-family="Helvetica,sans-Serif" font-size="10.00">joda::docparsing::Reader</text>
<text text-anchor="middle" x="268" y="-104.39" font-family="Helvetica,sans-Serif" font-size="10.00">Parser::parse</text>
</a>
</g>
</g>
<!-- Node1&#45;&gt;Node26 -->
<g id="edge30" class="edge">
<title>Node1&#45;&gt;Node26</title>
<path fill="none" stroke="midnightblue" d="M72.61,-351.56C78.84,-316.64 104.73,-197.46 176,-137.39 180.23,-133.83 184.92,-130.77 189.89,-128.15"/>
<polygon fill="midnightblue" stroke="midnightblue" points="191.48,-131.27 199.08,-123.88 188.53,-124.92 191.48,-131.27"/>
</g>
<!-- Node28 -->
<g id="node28" class="node">
<title>Node28</title>
<g id="a_node28"><a xlink:href="../../da/db8/classjoda_1_1filesystem_1_1DirectoryRegister.html#a642377350d6f8f06d873cd3be8e1b34c" target="_top" xlink:title=" ">
<polygon fill="white" stroke="black" points="195,-48.39 195,-78.39 341,-78.39 341,-48.39 195,-48.39"/>
<text text-anchor="start" x="203" y="-66.39" font-family="Helvetica,sans-Serif" font-size="10.00">joda::filesystem::Directory</text>
<text text-anchor="middle" x="268" y="-55.39" font-family="Helvetica,sans-Serif" font-size="10.00">Register::registerDirectory</text>
</a>
</g>
</g>
<!-- Node1&#45;&gt;Node28 -->
<g id="edge32" class="edge">
<title>Node1&#45;&gt;Node28</title>
<path fill="none" stroke="midnightblue" d="M71.65,-351.65C74.84,-312.16 92.21,-162.59 176,-87.39 178.99,-84.71 182.25,-82.32 185.7,-80.19"/>
<polygon fill="midnightblue" stroke="midnightblue" points="187.44,-83.23 194.6,-75.42 184.13,-77.06 187.44,-83.23"/>
</g>
<!-- Node29 -->
<g id="node29" class="node">
<title>Node29</title>
<g id="a_node29"><a xlink:href="../../dc/dea/classTimer.html#a3a8b5272198d029779dc9302a54305a8" target="_top" xlink:title=" ">
<polygon fill="white" stroke="black" points="442.5,-19.89 442.5,-38.89 516.5,-38.89 516.5,-19.89 442.5,-19.89"/>
<text text-anchor="middle" x="479.5" y="-26.89" font-family="Helvetica,sans-Serif" font-size="10.00">Timer::start</text>
</a>
</g>
</g>
<!-- Node1&#45;&gt;Node29 -->
<g id="edge33" class="edge">
<title>Node1&#45;&gt;Node29</title>
<path fill="none" stroke="midnightblue" d="M70.58,-351.83C69.18,-307.17 69.83,-117.96 176,-38.39 253.07,19.36 374.85,-0.98 437.81,-17.19"/>
<polygon fill="midnightblue" stroke="midnightblue" points="437.2,-20.64 447.76,-19.84 439,-13.88 437.2,-20.64"/>
</g>
<!-- Node3&#45;&gt;Node4 -->
<g id="edge3" class="edge">
<title>Node3&#45;&gt;Node4</title>
<path fill="none" stroke="midnightblue" d="M340.51,-603.41C367.62,-609.11 398.03,-615.49 423.39,-620.82"/>
<polygon fill="midnightblue" stroke="midnightblue" points="422.7,-624.25 433.21,-622.88 424.14,-617.4 422.7,-624.25"/>
</g>
<!-- Node3&#45;&gt;Node6 -->
<g id="edge5" class="edge">
<title>Node3&#45;&gt;Node6</title>
<path fill="none" stroke="midnightblue" d="M351.8,-573.38C372.84,-569.56 395.11,-565.52 415.01,-561.91"/>
<polygon fill="midnightblue" stroke="midnightblue" points="415.67,-565.35 424.88,-560.12 414.42,-558.46 415.67,-565.35"/>
</g>
<!-- Node7 -->
<g id="node7" class="node">
<title>Node7</title>
<g id="a_node7"><a xlink:href="../../d5/da6/classMemoryUtility.html#a32c182de948c197cb2a0dc6e77d3ba50" target="_top" xlink:title=" ">
<polygon fill="white" stroke="black" points="396,-584.89 396,-603.89 563,-603.89 563,-584.89 396,-584.89"/>
<text text-anchor="middle" x="479.5" y="-591.89" font-family="Helvetica,sans-Serif" font-size="10.00">MemoryUtility::procRamUsage</text>
</a>
</g>
</g>
<!-- Node3&#45;&gt;Node7 -->
<g id="edge6" class="edge">
<title>Node3&#45;&gt;Node7</title>
<path fill="none" stroke="midnightblue" d="M360.28,-591.01C368.67,-591.25 377.17,-591.49 385.58,-591.73"/>
<polygon fill="midnightblue" stroke="midnightblue" points="385.66,-595.24 395.76,-592.03 385.86,-588.24 385.66,-595.24"/>
</g>
<!-- Node5 -->
<g id="node5" class="node">
<title>Node5</title>
<g id="a_node5"><a xlink:href="../../dc/d7d/classBenchmark.html#ac396492508c31b10c7c015ec60fd8c70" target="_top" xlink:title=" ">
<polygon fill="white" stroke="black" points="617.5,-625.89 617.5,-644.89 751.5,-644.89 751.5,-625.89 617.5,-625.89"/>
<text text-anchor="middle" x="684.5" y="-632.89" font-family="Helvetica,sans-Serif" font-size="10.00">Benchmark::addValueAt</text>
</a>
</g>
</g>
<!-- Node4&#45;&gt;Node5 -->
<g id="edge4" class="edge">
<title>Node4&#45;&gt;Node5</title>
<path fill="none" stroke="midnightblue" d="M541.13,-633.29C561.81,-633.6 585.2,-633.94 606.96,-634.26"/>
<polygon fill="midnightblue" stroke="midnightblue" points="607.11,-637.77 617.16,-634.41 607.21,-630.77 607.11,-637.77"/>
</g>
<!-- Node8 -->
<g id="node8" class="node">
<title>Node8</title>
<g id="a_node8"><a xlink:href="../../d8/de6/classMemoryUtility_1_1MemorySize.html#acd361f01fb75b6de07861540e42c8ba3" target="_top" xlink:title=" ">
<polygon fill="white" stroke="black" points="608,-576.39 608,-606.39 761,-606.39 761,-576.39 608,-576.39"/>
<text text-anchor="start" x="616" y="-594.39" font-family="Helvetica,sans-Serif" font-size="10.00">MemoryUtility::MemorySize</text>
<text text-anchor="middle" x="684.5" y="-583.39" font-family="Helvetica,sans-Serif" font-size="10.00">::convertToBytes</text>
</a>
</g>
</g>
<!-- Node7&#45;&gt;Node8 -->
<g id="edge7" class="edge">
<title>Node7&#45;&gt;Node8</title>
<path fill="none" stroke="midnightblue" d="M563.07,-593.17C574.53,-593.01 586.32,-592.83 597.84,-592.66"/>
<polygon fill="midnightblue" stroke="midnightblue" points="597.93,-596.16 607.87,-592.51 597.82,-589.16 597.93,-596.16"/>
</g>
<!-- Node9&#45;&gt;Node4 -->
<g id="edge10" class="edge">
<title>Node9&#45;&gt;Node4</title>
<path fill="none" stroke="midnightblue" d="M278.99,-478.1C296.22,-495.02 332.31,-531.27 360,-564.39 377.33,-585.13 373.42,-598.55 396,-613.39 399.83,-615.92 403.96,-618.11 408.25,-620.01"/>
<polygon fill="midnightblue" stroke="midnightblue" points="407.26,-623.38 417.85,-623.72 409.79,-616.85 407.26,-623.38"/>
</g>
<!-- Node9&#45;&gt;Node10 -->
<g id="edge11" class="edge">
<title>Node9&#45;&gt;Node10</title>
<path fill="none" stroke="midnightblue" d="M321.6,-477.93C350.24,-483.13 385.86,-489.59 415.92,-495.04"/>
<polygon fill="midnightblue" stroke="midnightblue" points="415.42,-498.51 425.88,-496.85 416.67,-491.62 415.42,-498.51"/>
</g>
<!-- Node11 -->
<g id="node11" class="node">
<title>Node11</title>
<g id="a_node11"><a xlink:href="../../d1/d30/structJODA__SHARED__QUEUE.html#aa46e31bf2003b52b17f54522a8ec2e1c" target="_top" xlink:title=" ">
<polygon fill="white" stroke="black" points="618,-453.39 618,-483.39 751,-483.39 751,-453.39 618,-453.39"/>
<text text-anchor="start" x="626" y="-471.39" font-family="Helvetica,sans-Serif" font-size="10.00">JODA_SHARED_QUEUE::</text>
<text text-anchor="middle" x="684.5" y="-460.39" font-family="Helvetica,sans-Serif" font-size="10.00">isFinished</text>
</a>
</g>
</g>
<!-- Node9&#45;&gt;Node11 -->
<g id="edge12" class="edge">
<title>Node9&#45;&gt;Node11</title>
<path fill="none" stroke="midnightblue" d="M329.27,-468.39C402.91,-468.39 527.56,-468.39 607.65,-468.39"/>
<polygon fill="midnightblue" stroke="midnightblue" points="607.67,-471.9 617.67,-468.39 607.67,-464.9 607.67,-471.9"/>
</g>
<!-- Node12 -->
<g id="node12" class="node">
<title>Node12</title>
<g id="a_node12"><a xlink:href="../../d1/d30/structJODA__SHARED__QUEUE.html#a85346f08f256c2b939e9fef99004d2cf" target="_top" xlink:title=" ">
<polygon fill="white" stroke="black" points="413,-409.39 413,-439.39 546,-439.39 546,-409.39 413,-409.39"/>
<text text-anchor="start" x="421" y="-427.39" font-family="Helvetica,sans-Serif" font-size="10.00">JODA_SHARED_QUEUE::</text>
<text text-anchor="middle" x="479.5" y="-416.39" font-family="Helvetica,sans-Serif" font-size="10.00">retrieve</text>
</a>
</g>
</g>
<!-- Node9&#45;&gt;Node12 -->
<g id="edge13" class="edge">
<title>Node9&#45;&gt;Node12</title>
<path fill="none" stroke="midnightblue" d="M314.46,-458.85C340.3,-453.42 373.32,-446.49 402.95,-440.26"/>
<polygon fill="midnightblue" stroke="midnightblue" points="403.79,-443.66 412.85,-438.18 402.35,-436.81 403.79,-443.66"/>
</g>
<!-- Node9&#45;&gt;Node15 -->
<g id="edge17" class="edge">
<title>Node9&#45;&gt;Node15</title>
<path fill="none" stroke="midnightblue" d="M327.12,-458.88C338.58,-455.44 350.11,-450.76 360,-444.39 381.25,-430.73 374.61,-413.85 396,-400.39 407.12,-393.4 420.51,-388.85 433.23,-385.89"/>
<polygon fill="midnightblue" stroke="midnightblue" points="434.13,-389.28 443.23,-383.84 432.73,-382.42 434.13,-389.28"/>
</g>
<!-- Node12&#45;&gt;Node11 -->
<g id="edge14" class="edge">
<title>Node12&#45;&gt;Node11</title>
<path fill="none" stroke="midnightblue" d="M546.13,-438.62C565.84,-442.89 587.62,-447.61 607.92,-452.01"/>
<polygon fill="midnightblue" stroke="midnightblue" points="607.24,-455.45 617.75,-454.14 608.72,-448.6 607.24,-455.45"/>
</g>
<!-- Node13 -->
<g id="node13" class="node">
<title>Node13</title>
<g id="a_node13"><a xlink:href="../../d8/dc8/classmoodycamel_1_1ConcurrentQueue.html#a1895c8a6120aef578fe01db53879517b" target="_top" xlink:title=" ">
<polygon fill="white" stroke="black" points="599,-404.39 599,-434.39 770,-434.39 770,-404.39 599,-404.39"/>
<text text-anchor="start" x="607" y="-422.39" font-family="Helvetica,sans-Serif" font-size="10.00">moodycamel::ConcurrentQueue</text>
<text text-anchor="middle" x="684.5" y="-411.39" font-family="Helvetica,sans-Serif" font-size="10.00">::try_dequeue</text>
</a>
</g>
</g>
<!-- Node12&#45;&gt;Node13 -->
<g id="edge15" class="edge">
<title>Node12&#45;&gt;Node13</title>
<path fill="none" stroke="midnightblue" d="M546.13,-422.78C559.64,-422.45 574.13,-422.09 588.45,-421.74"/>
<polygon fill="midnightblue" stroke="midnightblue" points="588.92,-425.23 598.83,-421.48 588.75,-418.23 588.92,-425.23"/>
</g>
<!-- Node14 -->
<g id="node14" class="node">
<title>Node14</title>
<g id="a_node14"><a xlink:href="../../d6/d0f/namespacemoodycamel_1_1details.html#a40f7377af074d1cd282e22f75674c59d" target="_top" xlink:title=" ">
<polygon fill="white" stroke="black" points="806,-404.39 806,-434.39 925,-434.39 925,-404.39 806,-404.39"/>
<text text-anchor="start" x="814" y="-422.39" font-family="Helvetica,sans-Serif" font-size="10.00">moodycamel::details</text>
<text text-anchor="middle" x="865.5" y="-411.39" font-family="Helvetica,sans-Serif" font-size="10.00">::likely</text>
</a>
</g>
</g>
<!-- Node13&#45;&gt;Node14 -->
<g id="edge16" class="edge">
<title>Node13&#45;&gt;Node14</title>
<path fill="none" stroke="midnightblue" d="M770.02,-419.39C778.64,-419.39 787.33,-419.39 795.75,-419.39"/>
<polygon fill="midnightblue" stroke="midnightblue" points="795.88,-422.9 805.88,-419.39 795.88,-415.9 795.88,-422.9"/>
</g>
<!-- Node16 -->
<g id="node16" class="node">
<title>Node16</title>
<g id="a_node16"><a xlink:href="../../dc/dea/classTimer.html#a0fae1afda64fd39330f8fac6a550d514" target="_top" xlink:title=" ">
<polygon fill="white" stroke="black" points="649,-197.89 649,-216.89 720,-216.89 720,-197.89 649,-197.89"/>
<text text-anchor="middle" x="684.5" y="-204.89" font-family="Helvetica,sans-Serif" font-size="10.00">Timer::now</text>
</a>
</g>
</g>
<!-- Node15&#45;&gt;Node16 -->
<g id="edge18" class="edge">
<title>Node15&#45;&gt;Node16</title>
<path fill="none" stroke="midnightblue" d="M491.7,-370.85C524.83,-342.62 622.6,-259.3 664.3,-223.76"/>
<polygon fill="midnightblue" stroke="midnightblue" points="666.74,-226.28 672.08,-217.13 662.2,-220.95 666.74,-226.28"/>
</g>
<!-- Node23 -->
<g id="node23" class="node">
<title>Node23</title>
<g id="a_node23"><a xlink:href="../../db/de7/classFileJoinManager.html#a6b5420c569e92016dcbfcf04932e4d30" target="_top" xlink:title=" ">
<polygon fill="white" stroke="black" points="402,-215.89 402,-234.89 557,-234.89 557,-215.89 402,-215.89"/>
<text text-anchor="middle" x="479.5" y="-222.89" font-family="Helvetica,sans-Serif" font-size="10.00">FileJoinManager::getBaseDir</text>
</a>
</g>
</g>
<!-- Node22&#45;&gt;Node23 -->
<g id="edge27" class="edge">
<title>Node22&#45;&gt;Node23</title>
<path fill="none" stroke="midnightblue" d="M317.2,-162.54C331.46,-165.52 346.78,-169.92 360,-176.39 378.7,-185.56 377.34,-197.14 396,-206.39 400.86,-208.8 406.02,-210.91 411.31,-212.76"/>
<polygon fill="midnightblue" stroke="midnightblue" points="410.34,-216.12 420.93,-215.8 412.45,-209.45 410.34,-216.12"/>
</g>
<!-- Node24 -->
<g id="node24" class="node">
<title>Node24</title>
<g id="a_node24"><a xlink:href="../../d8/d9a/classjoda_1_1filesystem_1_1DirectoryFileScanner.html#aace017254d35bc695ff5f8f441bdf759" target="_top" xlink:title=" ">
<polygon fill="white" stroke="black" points="406.5,-166.39 406.5,-196.39 552.5,-196.39 552.5,-166.39 406.5,-166.39"/>
<text text-anchor="start" x="414.5" y="-184.39" font-family="Helvetica,sans-Serif" font-size="10.00">joda::filesystem::Directory</text>
<text text-anchor="middle" x="479.5" y="-173.39" font-family="Helvetica,sans-Serif" font-size="10.00">FileScanner::getFilesInDir</text>
</a>
</g>
</g>
<!-- Node22&#45;&gt;Node24 -->
<g id="edge28" class="edge">
<title>Node22&#45;&gt;Node24</title>
<path fill="none" stroke="midnightblue" d="M317.06,-162.13C340.52,-164.93 369.41,-168.38 396.23,-171.58"/>
<polygon fill="midnightblue" stroke="midnightblue" points="396.05,-175.08 406.4,-172.79 396.88,-168.13 396.05,-175.08"/>
</g>
<!-- Node25 -->
<g id="node25" class="node">
<title>Node25</title>
<g id="a_node25"><a xlink:href="../../d0/d3a/classJoinManager.html#a04430b335027df7bb5cf5f41e880cbf2" target="_top" xlink:title=" ">
<polygon fill="white" stroke="black" points="415.5,-127.89 415.5,-146.89 543.5,-146.89 543.5,-127.89 415.5,-127.89"/>
<text text-anchor="middle" x="479.5" y="-134.89" font-family="Helvetica,sans-Serif" font-size="10.00">JoinManager::getName</text>
</a>
</g>
</g>
<!-- Node22&#45;&gt;Node25 -->
<g id="edge29" class="edge">
<title>Node22&#45;&gt;Node25</title>
<path fill="none" stroke="midnightblue" d="M317.06,-152.04C343.11,-149.67 375.84,-146.71 405.01,-144.06"/>
<polygon fill="midnightblue" stroke="midnightblue" points="405.52,-147.53 415.16,-143.14 404.89,-140.56 405.52,-147.53"/>
</g>
<!-- Node27 -->
<g id="node27" class="node">
<title>Node27</title>
<g id="a_node27"><a xlink:href="../../dd/d1e/structJODA__CONTAINER__QUEUE_3_01JODA__JSON__CONTAINER__FLAG_01_4.html#a8fa9c7590cd168dc44aa135e6948eeb6" target="_top" xlink:title=" ">
<polygon fill="white" stroke="black" points="407.5,-67.89 407.5,-108.89 551.5,-108.89 551.5,-67.89 407.5,-67.89"/>
<text text-anchor="start" x="415.5" y="-96.89" font-family="Helvetica,sans-Serif" font-size="10.00">JODA_CONTAINER_QUEUE</text>
<text text-anchor="start" x="415.5" y="-85.89" font-family="Helvetica,sans-Serif" font-size="10.00">&lt; JODA_JSON_CONTAINER</text>
<text text-anchor="middle" x="479.5" y="-74.89" font-family="Helvetica,sans-Serif" font-size="10.00">_FLAG &gt;::getQueue</text>
</a>
</g>
</g>
<!-- Node26&#45;&gt;Node27 -->
<g id="edge31" class="edge">
<title>Node26&#45;&gt;Node27</title>
<path fill="none" stroke="midnightblue" d="M336.73,-104.64C356.06,-102.42 377.32,-99.99 397.36,-97.69"/>
<polygon fill="midnightblue" stroke="midnightblue" points="397.86,-101.16 407.4,-96.54 397.07,-94.2 397.86,-101.16"/>
</g>
<!-- Node29&#45;&gt;Node16 -->
<g id="edge34" class="edge">
<title>Node29&#45;&gt;Node16</title>
<path fill="none" stroke="midnightblue" d="M516.67,-37.42C531.89,-41.94 549.23,-48.68 563,-58.39 614.02,-94.39 655,-157.69 673.24,-188.92"/>
<polygon fill="midnightblue" stroke="midnightblue" points="670.34,-190.91 678.34,-197.85 676.42,-187.43 670.34,-190.91"/>
</g>
</g>
</svg>
