<?xml version="1.0" encoding="UTF-8" standalone="no"?>
<!DOCTYPE svg PUBLIC "-//W3C//DTD SVG 1.1//EN"
 "http://www.w3.org/Graphics/SVG/1.1/DTD/svg11.dtd">
<!-- Generated by graphviz version 2.43.0 (0)
 -->
<!-- Title: QueryPlan::aggregate Pages: 1 -->
<svg width="661pt" height="194pt"
 viewBox="0.00 0.00 661.00 194.00" xmlns="http://www.w3.org/2000/svg" xmlns:xlink="http://www.w3.org/1999/xlink">
<g id="graph0" class="graph" transform="scale(1 1) rotate(0) translate(4 190)">
<title>QueryPlan::aggregate</title>
<polygon fill="white" stroke="transparent" points="-4,4 -4,-190 657,-190 657,4 -4,4"/>
<!-- Node1 -->
<g id="node1" class="node">
<title>Node1</title>
<g id="a_node1"><a xlink:title=" ">
<polygon fill="#bfbfbf" stroke="black" points="0,-90.5 0,-109.5 122,-109.5 122,-90.5 0,-90.5"/>
<text text-anchor="middle" x="61" y="-97.5" font-family="Helvetica,sans-Serif" font-size="10.00">QueryPlan::aggregate</text>
</a>
</g>
</g>
<!-- Node2 -->
<g id="node2" class="node">
<title>Node2</title>
<g id="a_node2"><a xlink:href="../../dc/d7d/classBenchmark.html#ac22236ce3203544c99403fdd41f2ff2d" target="_top" xlink:title=" ">
<polygon fill="white" stroke="black" points="163,-166.5 163,-185.5 286,-185.5 286,-166.5 163,-166.5"/>
<text text-anchor="middle" x="224.5" y="-173.5" font-family="Helvetica,sans-Serif" font-size="10.00">Benchmark::addValue</text>
</a>
</g>
</g>
<!-- Node1&#45;&gt;Node2 -->
<g id="edge1" class="edge">
<title>Node1&#45;&gt;Node2</title>
<path fill="none" stroke="midnightblue" d="M75.71,-109.67C93.83,-122.07 127.06,-143.59 158,-157 163.36,-159.32 169.08,-161.46 174.84,-163.39"/>
<polygon fill="midnightblue" stroke="midnightblue" points="173.89,-166.76 184.48,-166.44 176,-160.09 173.89,-166.76"/>
</g>
<!-- Node4 -->
<g id="node4" class="node">
<title>Node4</title>
<g id="a_node4"><a xlink:href="../../dc/dea/classTimer.html#a9e7ab8b695c469647044e65dcbaac031" target="_top" xlink:title=" ">
<polygon fill="white" stroke="black" points="158.5,-128.5 158.5,-147.5 290.5,-147.5 290.5,-128.5 158.5,-128.5"/>
<text text-anchor="middle" x="224.5" y="-135.5" font-family="Helvetica,sans-Serif" font-size="10.00">Timer::durationSeconds</text>
</a>
</g>
</g>
<!-- Node1&#45;&gt;Node4 -->
<g id="edge3" class="edge">
<title>Node1&#45;&gt;Node4</title>
<path fill="none" stroke="midnightblue" d="M102.75,-109.59C124.16,-114.63 150.59,-120.84 173.25,-126.18"/>
<polygon fill="midnightblue" stroke="midnightblue" points="172.5,-129.6 183.04,-128.48 174.11,-122.78 172.5,-129.6"/>
</g>
<!-- Node5 -->
<g id="node5" class="node">
<title>Node5</title>
<g id="a_node5"><a xlink:href="../../d1/d30/structJODA__SHARED__QUEUE.html#aa46e31bf2003b52b17f54522a8ec2e1c" target="_top" xlink:title=" ">
<polygon fill="white" stroke="black" points="346,-88 346,-118 479,-118 479,-88 346,-88"/>
<text text-anchor="start" x="354" y="-106" font-family="Helvetica,sans-Serif" font-size="10.00">JODA_SHARED_QUEUE::</text>
<text text-anchor="middle" x="412.5" y="-95" font-family="Helvetica,sans-Serif" font-size="10.00">isFinished</text>
</a>
</g>
</g>
<!-- Node1&#45;&gt;Node5 -->
<g id="edge4" class="edge">
<title>Node1&#45;&gt;Node5</title>
<path fill="none" stroke="midnightblue" d="M122.08,-100.52C181.27,-101.02 271.89,-101.8 335.93,-102.35"/>
<polygon fill="midnightblue" stroke="midnightblue" points="335.94,-105.85 345.97,-102.44 336,-98.85 335.94,-105.85"/>
</g>
<!-- Node6 -->
<g id="node6" class="node">
<title>Node6</title>
<g id="a_node6"><a xlink:href="../../d1/d30/structJODA__SHARED__QUEUE.html#a85346f08f256c2b939e9fef99004d2cf" target="_top" xlink:title=" ">
<polygon fill="white" stroke="black" points="158,-41 158,-71 291,-71 291,-41 158,-41"/>
<text text-anchor="start" x="166" y="-59" font-family="Helvetica,sans-Serif" font-size="10.00">JODA_SHARED_QUEUE::</text>
<text text-anchor="middle" x="224.5" y="-48" font-family="Helvetica,sans-Serif" font-size="10.00">retrieve</text>
</a>
</g>
</g>
<!-- Node1&#45;&gt;Node6 -->
<g id="edge5" class="edge">
<title>Node1&#45;&gt;Node6</title>
<path fill="none" stroke="midnightblue" d="M97.04,-90.45C114.98,-85.57 137.41,-79.45 158.38,-73.74"/>
<polygon fill="midnightblue" stroke="midnightblue" points="159.47,-77.07 168.2,-71.07 157.63,-70.32 159.47,-77.07"/>
</g>
<!-- Node9 -->
<g id="node9" class="node">
<title>Node9</title>
<g id="a_node9"><a xlink:href="../../dc/dea/classTimer.html#a63f0eb44b27402196590a03781515dba" target="_top" xlink:title=" ">
<polygon fill="white" stroke="black" points="188.5,-2.5 188.5,-21.5 260.5,-21.5 260.5,-2.5 188.5,-2.5"/>
<text text-anchor="middle" x="224.5" y="-9.5" font-family="Helvetica,sans-Serif" font-size="10.00">Timer::stop</text>
</a>
</g>
</g>
<!-- Node1&#45;&gt;Node9 -->
<g id="edge9" class="edge">
<title>Node1&#45;&gt;Node9</title>
<path fill="none" stroke="midnightblue" d="M72.73,-90.38C89.68,-75.63 124.22,-47.43 158,-31 164.51,-27.83 171.66,-25.09 178.76,-22.76"/>
<polygon fill="midnightblue" stroke="midnightblue" points="179.81,-26.1 188.34,-19.82 177.76,-19.4 179.81,-26.1"/>
</g>
<!-- Node3 -->
<g id="node3" class="node">
<title>Node3</title>
<g id="a_node3"><a xlink:href="../../dc/d7d/classBenchmark.html#ac396492508c31b10c7c015ec60fd8c70" target="_top" xlink:title=" ">
<polygon fill="white" stroke="black" points="345.5,-166.5 345.5,-185.5 479.5,-185.5 479.5,-166.5 345.5,-166.5"/>
<text text-anchor="middle" x="412.5" y="-173.5" font-family="Helvetica,sans-Serif" font-size="10.00">Benchmark::addValueAt</text>
</a>
</g>
</g>
<!-- Node2&#45;&gt;Node3 -->
<g id="edge2" class="edge">
<title>Node2&#45;&gt;Node3</title>
<path fill="none" stroke="midnightblue" d="M286.15,-176C301.86,-176 318.98,-176 335.38,-176"/>
<polygon fill="midnightblue" stroke="midnightblue" points="335.48,-179.5 345.48,-176 335.48,-172.5 335.48,-179.5"/>
</g>
<!-- Node6&#45;&gt;Node5 -->
<g id="edge6" class="edge">
<title>Node6&#45;&gt;Node5</title>
<path fill="none" stroke="midnightblue" d="M284.86,-71C303.15,-75.62 323.44,-80.75 342.33,-85.52"/>
<polygon fill="midnightblue" stroke="midnightblue" points="341.51,-88.92 352.06,-87.98 343.23,-82.14 341.51,-88.92"/>
</g>
<!-- Node7 -->
<g id="node7" class="node">
<title>Node7</title>
<g id="a_node7"><a xlink:href="../../d8/dc8/classmoodycamel_1_1ConcurrentQueue.html#a1895c8a6120aef578fe01db53879517b" target="_top" xlink:title=" ">
<polygon fill="white" stroke="black" points="327,-39 327,-69 498,-69 498,-39 327,-39"/>
<text text-anchor="start" x="335" y="-57" font-family="Helvetica,sans-Serif" font-size="10.00">moodycamel::ConcurrentQueue</text>
<text text-anchor="middle" x="412.5" y="-46" font-family="Helvetica,sans-Serif" font-size="10.00">::try_dequeue</text>
</a>
</g>
</g>
<!-- Node6&#45;&gt;Node7 -->
<g id="edge7" class="edge">
<title>Node6&#45;&gt;Node7</title>
<path fill="none" stroke="midnightblue" d="M291.08,-55.29C299.42,-55.21 308.09,-55.11 316.78,-55.02"/>
<polygon fill="midnightblue" stroke="midnightblue" points="317,-58.52 326.97,-54.91 316.93,-51.52 317,-58.52"/>
</g>
<!-- Node8 -->
<g id="node8" class="node">
<title>Node8</title>
<g id="a_node8"><a xlink:href="../../d6/d0f/namespacemoodycamel_1_1details.html#a40f7377af074d1cd282e22f75674c59d" target="_top" xlink:title=" ">
<polygon fill="white" stroke="black" points="534,-39 534,-69 653,-69 653,-39 534,-39"/>
<text text-anchor="start" x="542" y="-57" font-family="Helvetica,sans-Serif" font-size="10.00">moodycamel::details</text>
<text text-anchor="middle" x="593.5" y="-46" font-family="Helvetica,sans-Serif" font-size="10.00">::likely</text>
</a>
</g>
</g>
<!-- Node7&#45;&gt;Node8 -->
<g id="edge8" class="edge">
<title>Node7&#45;&gt;Node8</title>
<path fill="none" stroke="midnightblue" d="M498.02,-54C506.64,-54 515.33,-54 523.75,-54"/>
<polygon fill="midnightblue" stroke="midnightblue" points="523.88,-57.5 533.88,-54 523.88,-50.5 523.88,-57.5"/>
</g>
<!-- Node10 -->
<g id="node10" class="node">
<title>Node10</title>
<g id="a_node10"><a xlink:href="../../dc/dea/classTimer.html#a0fae1afda64fd39330f8fac6a550d514" target="_top" xlink:title=" ">
<polygon fill="white" stroke="black" points="377,-0.5 377,-19.5 448,-19.5 448,-0.5 377,-0.5"/>
<text text-anchor="middle" x="412.5" y="-7.5" font-family="Helvetica,sans-Serif" font-size="10.00">Timer::now</text>
</a>
</g>
</g>
<!-- Node9&#45;&gt;Node10 -->
<g id="edge10" class="edge">
<title>Node9&#45;&gt;Node10</title>
<path fill="none" stroke="midnightblue" d="M260.92,-11.62C290.98,-11.3 334.26,-10.83 366.71,-10.48"/>
<polygon fill="midnightblue" stroke="midnightblue" points="366.88,-13.98 376.84,-10.37 366.8,-6.98 366.88,-13.98"/>
</g>
</g>
</svg>
