<?xml version="1.0" encoding="UTF-8" standalone="no"?>
<!DOCTYPE svg PUBLIC "-//W3C//DTD SVG 1.1//EN"
 "http://www.w3.org/Graphics/SVG/1.1/DTD/svg11.dtd">
<!-- Generated by graphviz version 2.43.0 (0)
 -->
<!-- Title: joda::query::CollectAggregator::CollectAggregator Pages: 1 -->
<svg width="512pt" height="39pt"
 viewBox="0.00 0.00 512.00 39.00" xmlns="http://www.w3.org/2000/svg" xmlns:xlink="http://www.w3.org/1999/xlink">
<g id="graph0" class="graph" transform="scale(1 1) rotate(0) translate(4 35)">
<title>joda::query::CollectAggregator::CollectAggregator</title>
<polygon fill="white" stroke="transparent" points="-4,4 -4,-35 508,-35 508,4 -4,4"/>
<!-- Node1 -->
<g id="node1" class="node">
<title>Node1</title>
<g id="a_node1"><a xlink:title=" ">
<polygon fill="#bfbfbf" stroke="black" points="0,-0.5 0,-30.5 164,-30.5 164,-0.5 0,-0.5"/>
<text text-anchor="start" x="8" y="-18.5" font-family="Helvetica,sans-Serif" font-size="10.00">joda::query::CollectAggregator</text>
<text text-anchor="middle" x="82" y="-7.5" font-family="Helvetica,sans-Serif" font-size="10.00">::CollectAggregator</text>
</a>
</g>
</g>
<!-- Node2 -->
<g id="node2" class="node">
<title>Node2</title>
<g id="a_node2"><a xlink:href="../../d0/d07/classjoda_1_1query_1_1IAggregator.html#aba27ef46536f274a20557423c99520cd" target="_top" xlink:title=" ">
<polygon fill="white" stroke="black" points="200,-0.5 200,-30.5 334,-30.5 334,-0.5 200,-0.5"/>
<text text-anchor="start" x="208" y="-18.5" font-family="Helvetica,sans-Serif" font-size="10.00">joda::query::IAggregator</text>
<text text-anchor="middle" x="267" y="-7.5" font-family="Helvetica,sans-Serif" font-size="10.00">::checkParamSize</text>
</a>
</g>
</g>
<!-- Node1&#45;&gt;Node2 -->
<g id="edge1" class="edge">
<title>Node1&#45;&gt;Node2</title>
<path fill="none" stroke="midnightblue" d="M164.07,-15.5C172.56,-15.5 181.18,-15.5 189.62,-15.5"/>
<polygon fill="midnightblue" stroke="midnightblue" points="189.81,-19 199.81,-15.5 189.81,-12 189.81,-19"/>
</g>
<!-- Node3 -->
<g id="node3" class="node">
<title>Node3</title>
<g id="a_node3"><a xlink:href="../../d0/d07/classjoda_1_1query_1_1IAggregator.html#aebc573da9756fc6f3eb3b0bbeafc4a4b" target="_top" xlink:title=" ">
<polygon fill="white" stroke="black" points="370,-0.5 370,-30.5 504,-30.5 504,-0.5 370,-0.5"/>
<text text-anchor="start" x="378" y="-18.5" font-family="Helvetica,sans-Serif" font-size="10.00">joda::query::IAggregator</text>
<text text-anchor="middle" x="437" y="-7.5" font-family="Helvetica,sans-Serif" font-size="10.00">::getName</text>
</a>
</g>
</g>
<!-- Node2&#45;&gt;Node3 -->
<g id="edge2" class="edge">
<title>Node2&#45;&gt;Node3</title>
<path fill="none" stroke="midnightblue" d="M334.4,-15.5C342.68,-15.5 351.2,-15.5 359.62,-15.5"/>
<polygon fill="midnightblue" stroke="midnightblue" points="359.81,-19 369.81,-15.5 359.81,-12 359.81,-19"/>
</g>
</g>
</svg>
