<?xml version="1.0" encoding="UTF-8" standalone="no"?>
<!DOCTYPE svg PUBLIC "-//W3C//DTD SVG 1.1//EN"
 "http://www.w3.org/Graphics/SVG/1.1/DTD/svg11.dtd">
<!-- Generated by graphviz version 2.43.0 (0)
 -->
<!-- Title: /home/nico/projects/JODA&#45;gh/libs/joda/core/modules/queryparsing/include/joda/queryparsing/QueryParser.h Pages: 1 -->
<svg width="868pt" height="150pt"
 viewBox="0.00 0.00 867.50 150.00" xmlns="http://www.w3.org/2000/svg" xmlns:xlink="http://www.w3.org/1999/xlink">
<g id="graph0" class="graph" transform="scale(1 1) rotate(0) translate(4 146)">
<title>/home/nico/projects/JODA&#45;gh/libs/joda/core/modules/queryparsing/include/joda/queryparsing/QueryParser.h</title>
<polygon fill="white" stroke="transparent" points="-4,4 -4,-146 863.5,-146 863.5,4 -4,4"/>
<!-- Node1 -->
<g id="node1" class="node">
<title>Node1</title>
<g id="a_node1"><a xlink:title=" ">
<polygon fill="#bfbfbf" stroke="black" points="342.5,-89.5 342.5,-141.5 520.5,-141.5 520.5,-89.5 342.5,-89.5"/>
<text text-anchor="start" x="350.5" y="-129.5" font-family="Helvetica,sans-Serif" font-size="10.00">/home/nico/projects</text>
<text text-anchor="start" x="350.5" y="-118.5" font-family="Helvetica,sans-Serif" font-size="10.00">/JODA&#45;gh/libs/joda/core</text>
<text text-anchor="start" x="350.5" y="-107.5" font-family="Helvetica,sans-Serif" font-size="10.00">/modules/queryparsing/include</text>
<text text-anchor="middle" x="431.5" y="-96.5" font-family="Helvetica,sans-Serif" font-size="10.00">/joda/queryparsing/QueryParser.h</text>
</a>
</g>
</g>
<!-- Node2 -->
<g id="node2" class="node">
<title>Node2</title>
<g id="a_node2"><a xlink:href="../../df/d21/CLI_8cpp.html" target="_top" xlink:title=" ">
<polygon fill="white" stroke="black" points="0,-6 0,-47 131,-47 131,-6 0,-6"/>
<text text-anchor="start" x="8" y="-35" font-family="Helvetica,sans-Serif" font-size="10.00">/home/nico/projects</text>
<text text-anchor="start" x="8" y="-24" font-family="Helvetica,sans-Serif" font-size="10.00">/JODA&#45;gh/libs/joda/core</text>
<text text-anchor="middle" x="65.5" y="-13" font-family="Helvetica,sans-Serif" font-size="10.00">/modules/cli/src/CLI.cpp</text>
</a>
</g>
</g>
<!-- Node1&#45;&gt;Node2 -->
<g id="edge1" class="edge">
<title>Node1&#45;&gt;Node2</title>
<path fill="none" stroke="midnightblue" d="M332.31,-96.59C275.72,-85.61 203.68,-70.35 140.5,-53 134,-51.22 127.24,-49.18 120.56,-47.05"/>
<polygon fill="midnightblue" stroke="midnightblue" points="331.85,-100.06 342.33,-98.52 333.17,-93.19 331.85,-100.06"/>
</g>
<!-- Node3 -->
<g id="node3" class="node">
<title>Node3</title>
<g id="a_node3"><a xlink:href="../../da/d36/CLICompletion_8cpp.html" target="_top" xlink:title=" ">
<polygon fill="white" stroke="black" points="149.5,-6 149.5,-47 337.5,-47 337.5,-6 149.5,-6"/>
<text text-anchor="start" x="157.5" y="-35" font-family="Helvetica,sans-Serif" font-size="10.00">/home/nico/projects</text>
<text text-anchor="start" x="157.5" y="-24" font-family="Helvetica,sans-Serif" font-size="10.00">/JODA&#45;gh/libs/joda/core</text>
<text text-anchor="middle" x="243.5" y="-13" font-family="Helvetica,sans-Serif" font-size="10.00">/modules/cli/src/CLICompletion.cpp</text>
</a>
</g>
</g>
<!-- Node1&#45;&gt;Node3 -->
<g id="edge2" class="edge">
<title>Node1&#45;&gt;Node3</title>
<path fill="none" stroke="midnightblue" d="M367.99,-85.11C340.95,-72.59 310.13,-58.34 285.93,-47.13"/>
<polygon fill="midnightblue" stroke="midnightblue" points="366.83,-88.43 377.37,-89.45 369.77,-82.08 366.83,-88.43"/>
</g>
<!-- Node4 -->
<g id="node4" class="node">
<title>Node4</title>
<g id="a_node4"><a xlink:href="../../d4/dbf/JodaQueryRequest_8cpp.html" target="_top" xlink:title=" ">
<polygon fill="white" stroke="black" points="355.5,-0.5 355.5,-52.5 507.5,-52.5 507.5,-0.5 355.5,-0.5"/>
<text text-anchor="start" x="363.5" y="-40.5" font-family="Helvetica,sans-Serif" font-size="10.00">/home/nico/projects</text>
<text text-anchor="start" x="363.5" y="-29.5" font-family="Helvetica,sans-Serif" font-size="10.00">/JODA&#45;gh/libs/joda/core</text>
<text text-anchor="start" x="363.5" y="-18.5" font-family="Helvetica,sans-Serif" font-size="10.00">/modules/network/src/apiv2</text>
<text text-anchor="middle" x="431.5" y="-7.5" font-family="Helvetica,sans-Serif" font-size="10.00">/JodaQueryRequest.cpp</text>
</a>
</g>
</g>
<!-- Node1&#45;&gt;Node4 -->
<g id="edge3" class="edge">
<title>Node1&#45;&gt;Node4</title>
<path fill="none" stroke="midnightblue" d="M431.5,-79.19C431.5,-70.28 431.5,-60.9 431.5,-52.61"/>
<polygon fill="midnightblue" stroke="midnightblue" points="428,-79.34 431.5,-89.34 435,-79.34 428,-79.34"/>
</g>
<!-- Node5 -->
<g id="node5" class="node">
<title>Node5</title>
<g id="a_node5"><a xlink:href="../../d5/daa/AggregatorParsingTest_8cpp.html" target="_top" xlink:title=" ">
<polygon fill="white" stroke="black" points="525.5,-0.5 525.5,-52.5 695.5,-52.5 695.5,-0.5 525.5,-0.5"/>
<text text-anchor="start" x="533.5" y="-40.5" font-family="Helvetica,sans-Serif" font-size="10.00">/home/nico/projects</text>
<text text-anchor="start" x="533.5" y="-29.5" font-family="Helvetica,sans-Serif" font-size="10.00">/JODA&#45;gh/libs/joda/core</text>
<text text-anchor="start" x="533.5" y="-18.5" font-family="Helvetica,sans-Serif" font-size="10.00">/modules/query/aggregate</text>
<text text-anchor="middle" x="610.5" y="-7.5" font-family="Helvetica,sans-Serif" font-size="10.00">/test/AggregatorParsingTest.cpp</text>
</a>
</g>
</g>
<!-- Node1&#45;&gt;Node5 -->
<g id="edge4" class="edge">
<title>Node1&#45;&gt;Node5</title>
<path fill="none" stroke="midnightblue" d="M492.37,-84.92C513.98,-74.41 538.07,-62.7 558.84,-52.61"/>
<polygon fill="midnightblue" stroke="midnightblue" points="490.74,-81.82 483.27,-89.34 493.8,-88.11 490.74,-81.82"/>
</g>
<!-- Node6 -->
<g id="node6" class="node">
<title>Node6</title>
<g id="a_node6"><a xlink:href="../../d0/d62/QueryParser_8cpp.html" target="_top" xlink:title=" ">
<polygon fill="white" stroke="black" points="713.5,-0.5 713.5,-52.5 859.5,-52.5 859.5,-0.5 713.5,-0.5"/>
<text text-anchor="start" x="721.5" y="-40.5" font-family="Helvetica,sans-Serif" font-size="10.00">/home/nico/projects</text>
<text text-anchor="start" x="721.5" y="-29.5" font-family="Helvetica,sans-Serif" font-size="10.00">/JODA&#45;gh/libs/joda/core</text>
<text text-anchor="start" x="721.5" y="-18.5" font-family="Helvetica,sans-Serif" font-size="10.00">/modules/queryparsing/src</text>
<text text-anchor="middle" x="786.5" y="-7.5" font-family="Helvetica,sans-Serif" font-size="10.00">/QueryParser.cpp</text>
</a>
</g>
</g>
<!-- Node1&#45;&gt;Node6 -->
<g id="edge5" class="edge">
<title>Node1&#45;&gt;Node6</title>
<path fill="none" stroke="midnightblue" d="M530.66,-94.16C582.67,-82.99 647.29,-68.31 704.5,-53 707.38,-52.23 710.31,-51.42 713.27,-50.59"/>
<polygon fill="midnightblue" stroke="midnightblue" points="529.82,-90.76 520.77,-96.27 531.28,-97.6 529.82,-90.76"/>
</g>
</g>
</svg>
