<?xml version="1.0" encoding="UTF-8" standalone="no"?>
<!DOCTYPE svg PUBLIC "-//W3C//DTD SVG 1.1//EN"
 "http://www.w3.org/Graphics/SVG/1.1/DTD/svg11.dtd">
<!-- Generated by graphviz version 2.43.0 (0)
 -->
<!-- Title: joda::queryparsing::grammar::varExp Pages: 1 -->
<svg width="188pt" height="184pt"
 viewBox="0.00 0.00 188.00 184.00" xmlns="http://www.w3.org/2000/svg" xmlns:xlink="http://www.w3.org/1999/xlink">
<g id="graph0" class="graph" transform="scale(1 1) rotate(0) translate(4 180)">
<title>joda::queryparsing::grammar::varExp</title>
<polygon fill="white" stroke="transparent" points="-4,4 -4,-180 184,-180 184,4 -4,4"/>
<!-- Node1 -->
<g id="node1" class="node">
<title>Node1</title>
<g id="a_node1"><a xlink:title=" ">
<polygon fill="#bfbfbf" stroke="black" points="36.5,-67.5 36.5,-97.5 143.5,-97.5 143.5,-67.5 36.5,-67.5"/>
<text text-anchor="start" x="44.5" y="-85.5" font-family="Helvetica,sans-Serif" font-size="10.00">joda::queryparsing</text>
<text text-anchor="middle" x="90" y="-74.5" font-family="Helvetica,sans-Serif" font-size="10.00">::grammar::varExp</text>
</a>
</g>
</g>
<!-- Node3 -->
<g id="node3" class="node">
<title>Node3</title>
<g id="a_node3"><a xlink:href="../../d4/ddc/structjoda_1_1queryparsing_1_1grammar_1_1atomFunc.html" target="_top" xlink:title=" ">
<polygon fill="white" stroke="black" points="29,-0.5 29,-30.5 151,-30.5 151,-0.5 29,-0.5"/>
<text text-anchor="start" x="37" y="-18.5" font-family="Helvetica,sans-Serif" font-size="10.00">joda::queryparsing</text>
<text text-anchor="middle" x="90" y="-7.5" font-family="Helvetica,sans-Serif" font-size="10.00">::grammar::atomFunc</text>
</a>
</g>
</g>
<!-- Node1&#45;&gt;Node3 -->
<g id="edge2" class="edge">
<title>Node1&#45;&gt;Node3</title>
<path fill="none" stroke="midnightblue" d="M90,-57.11C90,-48.15 90,-38.32 90,-30.58"/>
<polygon fill="midnightblue" stroke="midnightblue" points="86.5,-57.4 90,-67.4 93.5,-57.4 86.5,-57.4"/>
</g>
<!-- Node2 -->
<g id="node2" class="node">
<title>Node2</title>
<g id="a_node2"><a xlink:title=" ">
<polygon fill="white" stroke="#bfbfbf" points="0,-134.5 0,-175.5 180,-175.5 180,-134.5 0,-134.5"/>
<text text-anchor="start" x="8" y="-163.5" font-family="Helvetica,sans-Serif" font-size="10.00">tao::pegtl::sor&lt; numberAtom,</text>
<text text-anchor="start" x="8" y="-152.5" font-family="Helvetica,sans-Serif" font-size="10.00"> stringAtom, boolAtom, nullAtom,</text>
<text text-anchor="middle" x="90" y="-141.5" font-family="Helvetica,sans-Serif" font-size="10.00"> pointer &gt;</text>
</a>
</g>
</g>
<!-- Node2&#45;&gt;Node1 -->
<g id="edge1" class="edge">
<title>Node2&#45;&gt;Node1</title>
<path fill="none" stroke="midnightblue" d="M90,-124.08C90,-115.01 90,-105.45 90,-97.89"/>
<polygon fill="midnightblue" stroke="midnightblue" points="86.5,-124.36 90,-134.36 93.5,-124.36 86.5,-124.36"/>
</g>
</g>
</svg>
