<?xml version="1.0" encoding="UTF-8" standalone="no"?>
<!DOCTYPE svg PUBLIC "-//W3C//DTD SVG 1.1//EN"
 "http://www.w3.org/Graphics/SVG/1.1/DTD/svg11.dtd">
<!-- Generated by graphviz version 2.43.0 (0)
 -->
<!-- Title: bloom_filter::contains Pages: 1 -->
<svg width="290pt" height="78pt"
 viewBox="0.00 0.00 290.00 77.50" xmlns="http://www.w3.org/2000/svg" xmlns:xlink="http://www.w3.org/1999/xlink">
<g id="graph0" class="graph" transform="scale(1 1) rotate(0) translate(4 73.5)">
<title>bloom_filter::contains</title>
<polygon fill="white" stroke="transparent" points="-4,4 -4,-73.5 286,-73.5 286,4 -4,4"/>
<!-- Node1 -->
<g id="node1" class="node">
<title>Node1</title>
<g id="a_node1"><a xlink:title=" ">
<polygon fill="#bfbfbf" stroke="black" points="0,-22.5 0,-41.5 122,-41.5 122,-22.5 0,-22.5"/>
<text text-anchor="middle" x="61" y="-29.5" font-family="Helvetica,sans-Serif" font-size="10.00">bloom_filter::contains</text>
</a>
</g>
</g>
<!-- Node2 -->
<g id="node2" class="node">
<title>Node2</title>
<g id="a_node2"><a xlink:href="../../d5/dd5/classbloom__filter.html#ab8516aca4a78ddec2f060ec2c243758a" target="_top" xlink:title=" ">
<polygon fill="white" stroke="black" points="158,-39 158,-69 282,-69 282,-39 158,-39"/>
<text text-anchor="start" x="166" y="-57" font-family="Helvetica,sans-Serif" font-size="10.00">bloom_filter::compute</text>
<text text-anchor="middle" x="220" y="-46" font-family="Helvetica,sans-Serif" font-size="10.00">_indices</text>
</a>
</g>
</g>
<!-- Node1&#45;&gt;Node2 -->
<g id="edge1" class="edge">
<title>Node1&#45;&gt;Node2</title>
<path fill="none" stroke="midnightblue" d="M122.25,-40.44C130.64,-41.62 139.33,-42.84 147.89,-44.04"/>
<polygon fill="midnightblue" stroke="midnightblue" points="147.48,-47.51 157.87,-45.43 148.45,-40.58 147.48,-47.51"/>
</g>
<!-- Node3 -->
<g id="node3" class="node">
<title>Node3</title>
<g id="a_node3"><a xlink:href="../../d5/dd5/classbloom__filter.html#ac86d96ac2b6850c17b5de5373ee14eaa" target="_top" xlink:title=" ">
<polygon fill="white" stroke="black" points="159,-0.5 159,-19.5 281,-19.5 281,-0.5 159,-0.5"/>
<text text-anchor="middle" x="220" y="-7.5" font-family="Helvetica,sans-Serif" font-size="10.00">bloom_filter::hash_ap</text>
</a>
</g>
</g>
<!-- Node1&#45;&gt;Node3 -->
<g id="edge2" class="edge">
<title>Node1&#45;&gt;Node3</title>
<path fill="none" stroke="midnightblue" d="M122.25,-23.56C130.98,-22.33 140.04,-21.06 148.94,-19.82"/>
<polygon fill="midnightblue" stroke="midnightblue" points="149.49,-23.27 158.91,-18.42 148.52,-16.34 149.49,-23.27"/>
</g>
</g>
</svg>
