<?xml version="1.0" encoding="UTF-8" standalone="no"?>
<!DOCTYPE svg PUBLIC "-//W3C//DTD SVG 1.1//EN"
 "http://www.w3.org/Graphics/SVG/1.1/DTD/svg11.dtd">
<!-- Generated by graphviz version 2.43.0 (0)
 -->
<!-- Title: bloom_filter::contains Pages: 1 -->
<svg width="342pt" height="142pt"
 viewBox="0.00 0.00 342.00 142.00" xmlns="http://www.w3.org/2000/svg" xmlns:xlink="http://www.w3.org/1999/xlink">
<g id="graph0" class="graph" transform="scale(1 1) rotate(0) translate(4 138)">
<title>bloom_filter::contains</title>
<polygon fill="white" stroke="transparent" points="-4,4 -4,-138 338,-138 338,4 -4,4"/>
<!-- Node1 -->
<g id="node1" class="node">
<title>Node1</title>
<g id="a_node1"><a xlink:title=" ">
<polygon fill="#bfbfbf" stroke="black" points="212,-57.5 212,-76.5 334,-76.5 334,-57.5 212,-57.5"/>
<text text-anchor="middle" x="273" y="-64.5" font-family="Helvetica,sans-Serif" font-size="10.00">bloom_filter::contains</text>
</a>
</g>
</g>
<!-- Node2 -->
<g id="node2" class="node">
<title>Node2</title>
<g id="a_node2"><a xlink:href="../../d5/dd5/classbloom__filter.html#a48a871b218458b9370a1d1444239b529" target="_top" xlink:title=" ">
<polygon fill="white" stroke="black" points="27,-114.5 27,-133.5 149,-133.5 149,-114.5 27,-114.5"/>
<text text-anchor="middle" x="88" y="-121.5" font-family="Helvetica,sans-Serif" font-size="10.00">bloom_filter::contains</text>
</a>
</g>
</g>
<!-- Node1&#45;&gt;Node2 -->
<g id="edge1" class="edge">
<title>Node1&#45;&gt;Node2</title>
<path fill="none" stroke="midnightblue" d="M241.19,-80.67C222.58,-88.56 198.24,-98.22 176,-105 164.32,-108.56 151.56,-111.74 139.5,-114.42"/>
<polygon fill="midnightblue" stroke="midnightblue" points="242.82,-83.78 250.62,-76.62 240.05,-77.35 242.82,-83.78"/>
</g>
<!-- Node3 -->
<g id="node3" class="node">
<title>Node3</title>
<g id="a_node3"><a xlink:href="../../d5/dd5/classbloom__filter.html#a014e41db998f7bfa25b3487ebaa27266" target="_top" xlink:title=" ">
<polygon fill="white" stroke="black" points="18,-76.5 18,-95.5 158,-95.5 158,-76.5 18,-76.5"/>
<text text-anchor="middle" x="88" y="-83.5" font-family="Helvetica,sans-Serif" font-size="10.00">bloom_filter::contains_all</text>
</a>
</g>
</g>
<!-- Node1&#45;&gt;Node3 -->
<g id="edge2" class="edge">
<title>Node1&#45;&gt;Node3</title>
<path fill="none" stroke="midnightblue" d="M201.58,-74.31C187.31,-75.79 172.32,-77.35 158.09,-78.83"/>
<polygon fill="midnightblue" stroke="midnightblue" points="202.24,-77.76 211.83,-73.25 201.52,-70.8 202.24,-77.76"/>
</g>
<!-- Node4 -->
<g id="node4" class="node">
<title>Node4</title>
<g id="a_node4"><a xlink:href="../../d5/dd5/classbloom__filter.html#a69e72741d969266c988f495cbc69d68e" target="_top" xlink:title=" ">
<polygon fill="white" stroke="black" points="12,-38.5 12,-57.5 164,-57.5 164,-38.5 12,-38.5"/>
<text text-anchor="middle" x="88" y="-45.5" font-family="Helvetica,sans-Serif" font-size="10.00">bloom_filter::contains_none</text>
</a>
</g>
</g>
<!-- Node1&#45;&gt;Node4 -->
<g id="edge3" class="edge">
<title>Node1&#45;&gt;Node4</title>
<path fill="none" stroke="midnightblue" d="M201.68,-59.7C189.42,-58.43 176.63,-57.1 164.24,-55.81"/>
<polygon fill="midnightblue" stroke="midnightblue" points="201.52,-63.2 211.83,-60.75 202.24,-56.24 201.52,-63.2"/>
</g>
<!-- Node5 -->
<g id="node5" class="node">
<title>Node5</title>
<g id="a_node5"><a xlink:href="../../d6/de9/classJSONContainer.html#a3db93fa0afdcfe7e205735dc2f63dfeb" target="_top" xlink:title=" ">
<polygon fill="white" stroke="black" points="0,-0.5 0,-19.5 176,-19.5 176,-0.5 0,-0.5"/>
<text text-anchor="middle" x="88" y="-7.5" font-family="Helvetica,sans-Serif" font-size="10.00">JSONContainer::probContainsAttr</text>
</a>
</g>
</g>
<!-- Node1&#45;&gt;Node5 -->
<g id="edge4" class="edge">
<title>Node1&#45;&gt;Node5</title>
<path fill="none" stroke="midnightblue" d="M241.19,-53.33C222.58,-45.44 198.24,-35.78 176,-29 164.32,-25.44 151.56,-22.26 139.5,-19.58"/>
<polygon fill="midnightblue" stroke="midnightblue" points="240.05,-56.65 250.62,-57.38 242.82,-50.22 240.05,-56.65"/>
</g>
</g>
</svg>
