<?xml version="1.0" encoding="UTF-8" standalone="no"?>
<!DOCTYPE svg PUBLIC "-//W3C//DTD SVG 1.1//EN"
 "http://www.w3.org/Graphics/SVG/1.1/DTD/svg11.dtd">
<!-- Generated by graphviz version 2.43.0 (0)
 -->
<!-- Title: joda::query::PointerProvider Pages: 1 -->
<svg width="1317pt" height="122pt"
 viewBox="0.00 0.00 1317.00 122.00" xmlns="http://www.w3.org/2000/svg" xmlns:xlink="http://www.w3.org/1999/xlink">
<g id="graph0" class="graph" transform="scale(1 1) rotate(0) translate(4 118)">
<title>joda::query::PointerProvider</title>
<polygon fill="white" stroke="transparent" points="-4,4 -4,-118 1313,-118 1313,4 -4,4"/>
<!-- Node1 -->
<g id="node1" class="node">
<title>Node1</title>
<g id="a_node1"><a xlink:title=" ">
<polygon fill="#bfbfbf" stroke="black" points="1157,-30 1157,-49 1309,-49 1309,-30 1157,-30"/>
<text text-anchor="middle" x="1233" y="-37" font-family="Helvetica,sans-Serif" font-size="10.00">joda::query::PointerProvider</text>
</a>
</g>
</g>
<!-- Node2 -->
<g id="node2" class="node">
<title>Node2</title>
<g id="a_node2"><a xlink:href="../../d4/df5/classjoda_1_1query_1_1IValueProvider.html" target="_top" xlink:title=" ">
<polygon fill="white" stroke="black" points="943,-52 943,-71 1090,-71 1090,-52 943,-52"/>
<text text-anchor="middle" x="1016.5" y="-59" font-family="Helvetica,sans-Serif" font-size="10.00">joda::query::IValueProvider</text>
</a>
</g>
</g>
<!-- Node2&#45;&gt;Node1 -->
<g id="edge1" class="edge">
<title>Node2&#45;&gt;Node1</title>
<path fill="none" stroke="midnightblue" d="M1100.08,-53.03C1118.78,-51.11 1138.53,-49.09 1156.89,-47.2"/>
<polygon fill="midnightblue" stroke="midnightblue" points="1099.71,-49.55 1090.12,-54.05 1100.42,-56.51 1099.71,-49.55"/>
</g>
<!-- Node3 -->
<g id="node3" class="node">
<title>Node3</title>
<g id="a_node3"><a xlink:title=" ">
<polygon fill="white" stroke="#bfbfbf" points="667,-49.5 667,-79.5 867,-79.5 867,-49.5 667,-49.5"/>
<text text-anchor="start" x="675" y="-67.5" font-family="Helvetica,sans-Serif" font-size="10.00">std::vector&lt; std::unique</text>
<text text-anchor="middle" x="767" y="-56.5" font-family="Helvetica,sans-Serif" font-size="10.00">_ptr&lt; joda::query::IValueProvider &gt; &gt;</text>
</a>
</g>
</g>
<!-- Node3&#45;&gt;Node2 -->
<g id="edge2" class="edge">
<title>Node3&#45;&gt;Node2</title>
<path fill="none" stroke="#9a32cd" stroke-dasharray="5,2" d="M877.38,-63.17C899.56,-62.91 922.37,-62.63 942.9,-62.38"/>
<polygon fill="#9a32cd" stroke="#9a32cd" points="877.2,-59.68 867.24,-63.3 877.28,-66.68 877.2,-59.68"/>
<text text-anchor="middle" x="905" y="-65.5" font-family="Helvetica,sans-Serif" font-size="10.00"> params</text>
</g>
<!-- Node4 -->
<g id="node4" class="node">
<title>Node4</title>
<g id="a_node4"><a xlink:title=" ">
<polygon fill="white" stroke="#bfbfbf" points="435,-83.5 435,-113.5 572,-113.5 572,-83.5 435,-83.5"/>
<text text-anchor="start" x="443" y="-101.5" font-family="Helvetica,sans-Serif" font-size="10.00">std::unique_ptr&lt; joda</text>
<text text-anchor="middle" x="503.5" y="-90.5" font-family="Helvetica,sans-Serif" font-size="10.00">::query::IValueProvider &gt;</text>
</a>
</g>
</g>
<!-- Node4&#45;&gt;Node3 -->
<g id="edge3" class="edge">
<title>Node4&#45;&gt;Node3</title>
<path fill="none" stroke="#9a32cd" stroke-dasharray="5,2" d="M582.15,-88.4C608.63,-84.96 638.61,-81.06 666.56,-77.43"/>
<polygon fill="#9a32cd" stroke="#9a32cd" points="581.65,-84.94 572.18,-89.7 582.55,-91.88 581.65,-84.94"/>
<text text-anchor="middle" x="624.5" y="-88.5" font-family="Helvetica,sans-Serif" font-size="10.00"> elements</text>
</g>
<!-- Node5 -->
<g id="node5" class="node">
<title>Node5</title>
<g id="a_node5"><a xlink:title=" ">
<polygon fill="white" stroke="#bfbfbf" points="114,-86 114,-105 232,-105 232,-86 114,-86"/>
<text text-anchor="middle" x="173" y="-93" font-family="Helvetica,sans-Serif" font-size="10.00">std::unique_ptr&lt; T &gt;</text>
</a>
</g>
</g>
<!-- Node5&#45;&gt;Node4 -->
<g id="edge4" class="edge">
<title>Node5&#45;&gt;Node4</title>
<path fill="none" stroke="orange" stroke-dasharray="5,2" d="M242.61,-96.13C299.04,-96.64 378.58,-97.37 434.77,-97.88"/>
<polygon fill="orange" stroke="orange" points="242.38,-92.62 232.35,-96.03 242.32,-99.62 242.38,-92.62"/>
<text text-anchor="middle" x="328.5" y="-100.5" font-family="Helvetica,sans-Serif" font-size="10.00"> &lt; joda::query::IValueProvider &gt;</text>
</g>
<!-- Node6 -->
<g id="node6" class="node">
<title>Node6</title>
<g id="a_node6"><a xlink:title=" ">
<polygon fill="white" stroke="#bfbfbf" points="0,-63 0,-82 29,-82 29,-63 0,-63"/>
<text text-anchor="middle" x="14.5" y="-70" font-family="Helvetica,sans-Serif" font-size="10.00">T</text>
</a>
</g>
</g>
<!-- Node6&#45;&gt;Node5 -->
<g id="edge5" class="edge">
<title>Node6&#45;&gt;Node5</title>
<path fill="none" stroke="#9a32cd" stroke-dasharray="5,2" d="M39.05,-75.96C58.79,-78.86 87.84,-83.13 113.75,-86.94"/>
<polygon fill="#9a32cd" stroke="#9a32cd" points="39.52,-72.49 29.11,-74.5 38.5,-79.42 39.52,-72.49"/>
<text text-anchor="middle" x="71.5" y="-86.5" font-family="Helvetica,sans-Serif" font-size="10.00"> ptr</text>
</g>
<!-- Node7 -->
<g id="node7" class="node">
<title>Node7</title>
<g id="a_node7"><a xlink:title=" ">
<polygon fill="white" stroke="#bfbfbf" points="280,-42 280,-61 377,-61 377,-42 280,-42"/>
<text text-anchor="middle" x="328.5" y="-49" font-family="Helvetica,sans-Serif" font-size="10.00">std::vector&lt; T &gt;</text>
</a>
</g>
</g>
<!-- Node6&#45;&gt;Node7 -->
<g id="edge7" class="edge">
<title>Node6&#45;&gt;Node7</title>
<path fill="none" stroke="#9a32cd" stroke-dasharray="5,2" d="M38.68,-63.53C41.45,-62.72 44.27,-62.01 47,-61.5 127.69,-46.33 223.68,-46.8 279.87,-48.89"/>
<polygon fill="#9a32cd" stroke="#9a32cd" points="37.42,-60.26 29.06,-66.76 39.65,-66.9 37.42,-60.26"/>
<text text-anchor="middle" x="71.5" y="-64.5" font-family="Helvetica,sans-Serif" font-size="10.00"> elements</text>
</g>
<!-- Node7&#45;&gt;Node3 -->
<g id="edge6" class="edge">
<title>Node7&#45;&gt;Node3</title>
<path fill="none" stroke="orange" stroke-dasharray="5,2" d="M387.66,-50.72C438.85,-50.28 515.4,-50.2 582,-52.5 609.51,-53.45 639.31,-55.12 666.74,-56.91"/>
<polygon fill="orange" stroke="orange" points="387.42,-47.22 377.45,-50.82 387.49,-54.22 387.42,-47.22"/>
<text text-anchor="start" x="425" y="-66.5" font-family="Helvetica,sans-Serif" font-size="10.00"> &lt; std::unique_ptr&lt;</text>
<text text-anchor="middle" x="503.5" y="-55.5" font-family="Helvetica,sans-Serif" font-size="10.00"> joda::query::IValueProvider &gt; &gt;</text>
</g>
<!-- Node8 -->
<g id="node8" class="node">
<title>Node8</title>
<g id="a_node8"><a xlink:title=" ">
<polygon fill="white" stroke="#bfbfbf" points="984,-11 984,-30 1049,-30 1049,-11 984,-11"/>
<text text-anchor="middle" x="1016.5" y="-18" font-family="Helvetica,sans-Serif" font-size="10.00">std::string</text>
</a>
</g>
</g>
<!-- Node8&#45;&gt;Node1 -->
<g id="edge8" class="edge">
<title>Node8&#45;&gt;Node1</title>
<path fill="none" stroke="#9a32cd" stroke-dasharray="5,2" d="M1059.51,-23.81C1082.92,-25.69 1112.58,-28.13 1139,-30.5 1144.82,-31.02 1150.84,-31.57 1156.89,-32.14"/>
<polygon fill="#9a32cd" stroke="#9a32cd" points="1059.48,-20.29 1049.23,-22.99 1058.92,-27.27 1059.48,-20.29"/>
<text text-anchor="middle" x="1123.5" y="-33.5" font-family="Helvetica,sans-Serif" font-size="10.00"> ptrStr</text>
</g>
<!-- Node9 -->
<g id="node9" class="node">
<title>Node9</title>
<g id="a_node9"><a xlink:title=" ">
<polygon fill="white" stroke="#bfbfbf" points="715,-0.5 715,-30.5 819,-30.5 819,-0.5 715,-0.5"/>
<text text-anchor="start" x="723" y="-18.5" font-family="Helvetica,sans-Serif" font-size="10.00">std::basic_string&lt;</text>
<text text-anchor="middle" x="767" y="-7.5" font-family="Helvetica,sans-Serif" font-size="10.00"> Char &gt;</text>
</a>
</g>
</g>
<!-- Node9&#45;&gt;Node8 -->
<g id="edge9" class="edge">
<title>Node9&#45;&gt;Node8</title>
<path fill="none" stroke="midnightblue" d="M829.46,-16.74C878.46,-17.73 945.09,-19.08 983.88,-19.86"/>
<polygon fill="midnightblue" stroke="midnightblue" points="829.35,-13.24 819.28,-16.54 829.21,-20.24 829.35,-13.24"/>
</g>
</g>
</svg>
