<?xml version="1.0" encoding="UTF-8" standalone="no"?>
<!DOCTYPE svg PUBLIC "-//W3C//DTD SVG 1.1//EN"
 "http://www.w3.org/Graphics/SVG/1.1/DTD/svg11.dtd">
<!-- Generated by graphviz version 2.43.0 (0)
 -->
<!-- Title: VirtualObject::size Pages: 1 -->
<svg width="365pt" height="88pt"
 viewBox="0.00 0.00 365.00 88.00" xmlns="http://www.w3.org/2000/svg" xmlns:xlink="http://www.w3.org/1999/xlink">
<g id="graph0" class="graph" transform="scale(1 1) rotate(0) translate(4 84)">
<title>VirtualObject::size</title>
<polygon fill="white" stroke="transparent" points="-4,4 -4,-84 361,-84 361,4 -4,4"/>
<!-- Node1 -->
<g id="node1" class="node">
<title>Node1</title>
<g id="a_node1"><a xlink:title=" ">
<polygon fill="#bfbfbf" stroke="black" points="251,-35.5 251,-54.5 357,-54.5 357,-35.5 251,-35.5"/>
<text text-anchor="middle" x="304" y="-42.5" font-family="Helvetica,sans-Serif" font-size="10.00">VirtualObject::size</text>
</a>
</g>
</g>
<!-- Node2 -->
<g id="node2" class="node">
<title>Node2</title>
<g id="a_node2"><a xlink:href="../../db/db6/VirtualObjectTest_8cpp.html#afd63d60ec45c8f357eddfc9e0d667462" target="_top" xlink:title=" ">
<polygon fill="white" stroke="black" points="81.5,-60.5 81.5,-79.5 133.5,-79.5 133.5,-60.5 81.5,-60.5"/>
<text text-anchor="middle" x="107.5" y="-67.5" font-family="Helvetica,sans-Serif" font-size="10.00">TEST_F</text>
</a>
</g>
</g>
<!-- Node1&#45;&gt;Node2 -->
<g id="edge1" class="edge">
<title>Node1&#45;&gt;Node2</title>
<path fill="none" stroke="midnightblue" d="M240.86,-52.99C204.57,-57.65 160.73,-63.29 133.74,-66.76"/>
<polygon fill="midnightblue" stroke="midnightblue" points="241.41,-56.45 250.88,-51.7 240.51,-49.5 241.41,-56.45"/>
</g>
<!-- Node3 -->
<g id="node3" class="node">
<title>Node3</title>
<g id="a_node3"><a xlink:href="../../df/d74/classjoda_1_1query_1_1providers_1_1membercount_1_1MemberCountCalculator.html#a25fa8f538c55f8d876444fa9d1ce9d68" target="_top" xlink:title=" ">
<polygon fill="white" stroke="black" points="0,-0.5 0,-41.5 215,-41.5 215,-0.5 0,-0.5"/>
<text text-anchor="start" x="8" y="-29.5" font-family="Helvetica,sans-Serif" font-size="10.00">joda::query::providers</text>
<text text-anchor="start" x="8" y="-18.5" font-family="Helvetica,sans-Serif" font-size="10.00">::membercount::MemberCountCalculator</text>
<text text-anchor="middle" x="107.5" y="-7.5" font-family="Helvetica,sans-Serif" font-size="10.00">::virtualObject</text>
</a>
</g>
</g>
<!-- Node1&#45;&gt;Node3 -->
<g id="edge2" class="edge">
<title>Node1&#45;&gt;Node3</title>
<path fill="none" stroke="midnightblue" d="M240.71,-37.31C232.5,-36.3 223.91,-35.24 215.22,-34.17"/>
<polygon fill="midnightblue" stroke="midnightblue" points="240.52,-40.82 250.88,-38.57 241.38,-33.87 240.52,-40.82"/>
</g>
</g>
</svg>
