<?xml version="1.0" encoding="UTF-8" standalone="no"?>
<!DOCTYPE svg PUBLIC "-//W3C//DTD SVG 1.1//EN"
 "http://www.w3.org/Graphics/SVG/1.1/DTD/svg11.dtd">
<!-- Generated by graphviz version 2.43.0 (0)
 -->
<!-- Title: QueryPlan Pages: 1 -->
<svg width="744pt" height="176pt"
 viewBox="0.00 0.00 744.00 176.00" xmlns="http://www.w3.org/2000/svg" xmlns:xlink="http://www.w3.org/1999/xlink">
<g id="graph0" class="graph" transform="scale(1 1) rotate(0) translate(4 172)">
<title>QueryPlan</title>
<polygon fill="white" stroke="transparent" points="-4,4 -4,-172 740,-172 740,4 -4,4"/>
<!-- Node1 -->
<g id="node1" class="node">
<title>Node1</title>
<g id="a_node1"><a xlink:title=" ">
<polygon fill="#bfbfbf" stroke="black" points="669,-69 669,-88 736,-88 736,-69 669,-69"/>
<text text-anchor="middle" x="702.5" y="-76" font-family="Helvetica,sans-Serif" font-size="10.00">QueryPlan</text>
</a>
</g>
</g>
<!-- Node2 -->
<g id="node2" class="node">
<title>Node2</title>
<g id="a_node2"><a xlink:title=" ">
<polygon fill="white" stroke="#bfbfbf" points="396,-137.5 396,-167.5 521,-167.5 521,-137.5 396,-137.5"/>
<text text-anchor="start" x="404" y="-155.5" font-family="Helvetica,sans-Serif" font-size="10.00">std::unique_ptr&lt; JODA</text>
<text text-anchor="middle" x="458.5" y="-144.5" font-family="Helvetica,sans-Serif" font-size="10.00">_SHARED_QUEUE &gt;</text>
</a>
</g>
</g>
<!-- Node2&#45;&gt;Node1 -->
<g id="edge1" class="edge">
<title>Node2&#45;&gt;Node1</title>
<path fill="none" stroke="#9a32cd" stroke-dasharray="5,2" d="M531.24,-140.06C567.81,-132.53 612.55,-121.46 651,-106.5 663.52,-101.63 676.77,-94.19 686.55,-88.2"/>
<polygon fill="#9a32cd" stroke="#9a32cd" points="530.27,-136.69 521.16,-142.1 531.65,-143.55 530.27,-136.69"/>
<text text-anchor="middle" x="607" y="-157.5" font-family="Helvetica,sans-Serif" font-size="10.00"> aggregatorQueue</text>
<text text-anchor="middle" x="607" y="-146.5" font-family="Helvetica,sans-Serif" font-size="10.00">loadQueue</text>
<text text-anchor="middle" x="607" y="-135.5" font-family="Helvetica,sans-Serif" font-size="10.00">storeQueue</text>
</g>
<!-- Node3 -->
<g id="node3" class="node">
<title>Node3</title>
<g id="a_node3"><a xlink:title=" ">
<polygon fill="white" stroke="#bfbfbf" points="82,-135 82,-154 200,-154 200,-135 82,-135"/>
<text text-anchor="middle" x="141" y="-142" font-family="Helvetica,sans-Serif" font-size="10.00">std::unique_ptr&lt; T &gt;</text>
</a>
</g>
</g>
<!-- Node3&#45;&gt;Node2 -->
<g id="edge2" class="edge">
<title>Node3&#45;&gt;Node2</title>
<path fill="none" stroke="orange" stroke-dasharray="5,2" d="M210.28,-146.23C265.47,-147.63 342.49,-149.58 395.83,-150.94"/>
<polygon fill="orange" stroke="orange" points="210.32,-142.73 200.24,-145.98 210.14,-149.73 210.32,-142.73"/>
<text text-anchor="middle" x="286" y="-152.5" font-family="Helvetica,sans-Serif" font-size="10.00"> &lt; JODA_SHARED_QUEUE &gt;</text>
</g>
<!-- Node4 -->
<g id="node4" class="node">
<title>Node4</title>
<g id="a_node4"><a xlink:title=" ">
<polygon fill="white" stroke="#bfbfbf" points="0,-113 0,-132 29,-132 29,-113 0,-113"/>
<text text-anchor="middle" x="14.5" y="-120" font-family="Helvetica,sans-Serif" font-size="10.00">T</text>
</a>
</g>
</g>
<!-- Node4&#45;&gt;Node3 -->
<g id="edge3" class="edge">
<title>Node4&#45;&gt;Node3</title>
<path fill="none" stroke="#9a32cd" stroke-dasharray="5,2" d="M39.45,-126.73C52.72,-129.08 69.78,-132.09 86.07,-134.97"/>
<polygon fill="#9a32cd" stroke="#9a32cd" points="39.76,-123.23 29.3,-124.94 38.54,-130.13 39.76,-123.23"/>
<text text-anchor="middle" x="55.5" y="-133.5" font-family="Helvetica,sans-Serif" font-size="10.00"> ptr</text>
</g>
<!-- Node6 -->
<g id="node6" class="node">
<title>Node6</title>
<g id="a_node6"><a xlink:title=" ">
<polygon fill="white" stroke="#bfbfbf" points="82,-94 82,-113 200,-113 200,-94 82,-94"/>
<text text-anchor="middle" x="141" y="-101" font-family="Helvetica,sans-Serif" font-size="10.00">std::shared_ptr&lt; T &gt;</text>
</a>
</g>
</g>
<!-- Node4&#45;&gt;Node6 -->
<g id="edge6" class="edge">
<title>Node4&#45;&gt;Node6</title>
<path fill="none" stroke="#9a32cd" stroke-dasharray="5,2" d="M38.37,-110.33C41.22,-109.2 44.13,-108.21 47,-107.5 58.14,-104.73 70.25,-103.19 81.94,-102.41"/>
<polygon fill="#9a32cd" stroke="#9a32cd" points="36.81,-107.19 29.16,-114.52 39.71,-113.56 36.81,-107.19"/>
<text text-anchor="middle" x="55.5" y="-110.5" font-family="Helvetica,sans-Serif" font-size="10.00"> ptr</text>
</g>
<!-- Node5 -->
<g id="node5" class="node">
<title>Node5</title>
<g id="a_node5"><a xlink:title=" ">
<polygon fill="white" stroke="#bfbfbf" points="397.5,-88.5 397.5,-118.5 519.5,-118.5 519.5,-88.5 397.5,-88.5"/>
<text text-anchor="start" x="405.5" y="-106.5" font-family="Helvetica,sans-Serif" font-size="10.00">std::shared_ptr&lt; joda</text>
<text text-anchor="middle" x="458.5" y="-95.5" font-family="Helvetica,sans-Serif" font-size="10.00">::query::Query &gt;</text>
</a>
</g>
</g>
<!-- Node5&#45;&gt;Node1 -->
<g id="edge4" class="edge">
<title>Node5&#45;&gt;Node1</title>
<path fill="none" stroke="#9a32cd" stroke-dasharray="5,2" d="M529.81,-96.24C575.66,-91.5 633.35,-85.54 668.82,-81.88"/>
<polygon fill="#9a32cd" stroke="#9a32cd" points="529.22,-92.78 519.63,-97.29 529.94,-99.74 529.22,-92.78"/>
<text text-anchor="middle" x="607" y="-94.5" font-family="Helvetica,sans-Serif" font-size="10.00"> q</text>
</g>
<!-- Node6&#45;&gt;Node5 -->
<g id="edge5" class="edge">
<title>Node6&#45;&gt;Node5</title>
<path fill="none" stroke="orange" stroke-dasharray="5,2" d="M210.37,-103.5C266.12,-103.5 344.09,-103.5 397.46,-103.5"/>
<polygon fill="orange" stroke="orange" points="210.24,-100 200.24,-103.5 210.24,-107 210.24,-100"/>
<text text-anchor="middle" x="286" y="-106.5" font-family="Helvetica,sans-Serif" font-size="10.00"> &lt; joda::query::Query &gt;</text>
</g>
<!-- Node7 -->
<g id="node7" class="node">
<title>Node7</title>
<g id="a_node7"><a xlink:title=" ">
<polygon fill="white" stroke="#bfbfbf" points="372,-50 372,-69 545,-69 545,-50 372,-50"/>
<text text-anchor="middle" x="458.5" y="-57" font-family="Helvetica,sans-Serif" font-size="10.00">std::shared_ptr&lt; JSONStorage &gt;</text>
</a>
</g>
</g>
<!-- Node6&#45;&gt;Node7 -->
<g id="edge8" class="edge">
<title>Node6&#45;&gt;Node7</title>
<path fill="none" stroke="orange" stroke-dasharray="5,2" d="M197.37,-92.07C204.3,-90.79 211.31,-89.56 218,-88.5 268.88,-80.41 326.15,-73.4 371.93,-68.3"/>
<polygon fill="orange" stroke="orange" points="196.49,-88.68 187.31,-93.98 197.79,-95.56 196.49,-88.68"/>
<text text-anchor="middle" x="286" y="-91.5" font-family="Helvetica,sans-Serif" font-size="10.00"> &lt; JSONStorage &gt;</text>
</g>
<!-- Node7&#45;&gt;Node1 -->
<g id="edge7" class="edge">
<title>Node7&#45;&gt;Node1</title>
<path fill="none" stroke="#9a32cd" stroke-dasharray="5,2" d="M555.34,-60.26C586,-61.37 620.01,-63.51 651,-67.5 656.78,-68.25 662.89,-69.32 668.77,-70.51"/>
<polygon fill="#9a32cd" stroke="#9a32cd" points="555.2,-56.75 545.09,-59.92 554.97,-63.75 555.2,-56.75"/>
<text text-anchor="middle" x="607" y="-70.5" font-family="Helvetica,sans-Serif" font-size="10.00"> load</text>
</g>
<!-- Node8 -->
<g id="node8" class="node">
<title>Node8</title>
<g id="a_node8"><a xlink:href="../../d8/d55/classjoda_1_1docparsing_1_1ReaderParser.html" target="_top" xlink:title=" ">
<polygon fill="white" stroke="black" points="390,-0.5 390,-30.5 527,-30.5 527,-0.5 390,-0.5"/>
<text text-anchor="start" x="398" y="-18.5" font-family="Helvetica,sans-Serif" font-size="10.00">joda::docparsing::Reader</text>
<text text-anchor="middle" x="458.5" y="-7.5" font-family="Helvetica,sans-Serif" font-size="10.00">Parser</text>
</a>
</g>
</g>
<!-- Node8&#45;&gt;Node1 -->
<g id="edge9" class="edge">
<title>Node8&#45;&gt;Node1</title>
<path fill="none" stroke="#9a32cd" stroke-dasharray="5,2" d="M537.64,-20.22C573.14,-24.25 615.12,-31.7 651,-45.5 665.47,-51.06 680.09,-61.22 689.84,-68.81"/>
<polygon fill="#9a32cd" stroke="#9a32cd" points="537.64,-16.7 527.32,-19.12 536.9,-23.66 537.64,-16.7"/>
<text text-anchor="middle" x="607" y="-48.5" font-family="Helvetica,sans-Serif" font-size="10.00"> parser</text>
</g>
</g>
</svg>
