<?xml version="1.0" encoding="UTF-8" standalone="no"?>
<!DOCTYPE svg PUBLIC "-//W3C//DTD SVG 1.1//EN"
 "http://www.w3.org/Graphics/SVG/1.1/DTD/svg11.dtd">
<!-- Generated by graphviz version 2.43.0 (0)
 -->
<!-- Title: /home/nico/joda_tmp/tmp&#45;joda&#45;dirs/JODA&#45;gh/libs/joda/core/modules/query/values/include/joda/query/values/FilePosProvider.h Pages: 1 -->
<!--zoomable 531 -->
<svg id="main" version="1.1" xmlns="http://www.w3.org/2000/svg" xmlns:xlink="http://www.w3.org/1999/xlink" xml:space="preserve" onload="init(evt)">
<style type="text/css"><![CDATA[
.edge:hover path { stroke: red; }
.edge:hover polygon { stroke: red; fill: red; }
]]></style>
<script type="text/javascript"><![CDATA[
var edges = document.getElementsByTagName('g');
if (edges && edges.length) {
  for (var i=0;i<edges.length;i++) {
    if (edges[i].id.substr(0,4)=='edge') {
      edges[i].setAttribute('class','edge');
    }
  }
}
]]></script>
        <defs>
                <circle id="rim" cx="0" cy="0" r="7"/>
                <circle id="rim2" cx="0" cy="0" r="3.5"/>
                <g id="zoomPlus">
                        <use xlink:href="#rim" fill="#404040">
                                <set attributeName="fill" to="#808080" begin="zoomplus.mouseover" end="zoomplus.mouseout"/>
                        </use>
                        <path d="M-4,0h8M0,-4v8" fill="none" stroke="white" stroke-width="1.5" pointer-events="none"/>
                </g>
                <g id="zoomMin">
                        <use xlink:href="#rim" fill="#404040">
                                <set attributeName="fill" to="#808080" begin="zoomminus.mouseover" end="zoomminus.mouseout"/>
                        </use>
                        <path d="M-4,0h8" fill="none" stroke="white" stroke-width="1.5" pointer-events="none"/>
                </g>
                <g id="dirArrow">
                        <path fill="none" stroke="white" stroke-width="1.5" d="M0,-3.0v7 M-2.5,-0.5L0,-3.0L2.5,-0.5"/>
                </g>
               <g id="resetDef">
                       <use xlink:href="#rim2" fill="#404040">
                               <set attributeName="fill" to="#808080" begin="reset.mouseover" end="reset.mouseout"/>
                       </use>
               </g>
        </defs>

<script type="text/javascript">
var viewWidth = 1568;
var viewHeight = 531;
var sectionId = 'dynsection-0';
</script>
<script xlink:href="../../svgpan.js"/>
<svg id="graph" class="graph">
<g id="viewport">
<title>/home/nico/joda_tmp/tmp&#45;joda&#45;dirs/JODA&#45;gh/libs/joda/core/modules/query/values/include/joda/query/values/FilePosProvider.h</title>
<polygon fill="white" stroke="transparent" points="-4,4 -4,-527 1564,-527 1564,4 -4,4"/>
<!-- Node1 -->
<g id="node1" class="node">
<title>Node1</title>
<g id="a_node1"><a xlink:title=" ">
<polygon fill="#bfbfbf" stroke="black" points="371.5,-459.5 371.5,-522.5 540.5,-522.5 540.5,-459.5 371.5,-459.5"/>
<text text-anchor="start" x="379.5" y="-510.5" font-family="Helvetica,sans-Serif" font-size="10.00">/home/nico/joda_tmp</text>
<text text-anchor="start" x="379.5" y="-499.5" font-family="Helvetica,sans-Serif" font-size="10.00">/tmp&#45;joda&#45;dirs/JODA</text>
<text text-anchor="start" x="379.5" y="-488.5" font-family="Helvetica,sans-Serif" font-size="10.00">&#45;gh/libs/joda/core/modules</text>
<text text-anchor="start" x="379.5" y="-477.5" font-family="Helvetica,sans-Serif" font-size="10.00">/query/values/include/joda</text>
<text text-anchor="middle" x="456" y="-466.5" font-family="Helvetica,sans-Serif" font-size="10.00">/query/values/FilePosProvider.h</text>
</a>
</g>
</g>
<!-- Node2 -->
<g id="node2" class="node">
<title>Node2</title>
<g id="a_node2"><a xlink:href="../../df/dd3/FileOrigin_8h.html" target="_top" xlink:title=" ">
<polygon fill="white" stroke="black" points="235,-286 235,-305 383,-305 383,-286 235,-286"/>
<text text-anchor="middle" x="309" y="-293" font-family="Helvetica,sans-Serif" font-size="10.00">joda/document/FileOrigin.h</text>
</a>
</g>
</g>
<!-- Node1&#45;&gt;Node2 -->
<g id="edge1" class="edge">
<title>Node1&#45;&gt;Node2</title>
<path fill="none" stroke="midnightblue" d="M432.71,-459.34C401.33,-418.04 346.57,-345.96 321.81,-313.36"/>
<polygon fill="midnightblue" stroke="midnightblue" points="324.5,-311.12 315.67,-305.27 318.93,-315.35 324.5,-311.12"/>
</g>
<!-- Node20 -->
<g id="node20" class="node">
<title>Node20</title>
<g id="a_node20"><a xlink:href="../../dd/d50/IValueProvider_8h.html" target="_top" xlink:title=" ">
<polygon fill="white" stroke="black" points="491.5,-403.5 491.5,-422.5 586.5,-422.5 586.5,-403.5 491.5,-403.5"/>
<text text-anchor="middle" x="539" y="-410.5" font-family="Helvetica,sans-Serif" font-size="10.00">IValueProvider.h</text>
</a>
</g>
</g>
<!-- Node1&#45;&gt;Node20 -->
<g id="edge23" class="edge">
<title>Node1&#45;&gt;Node20</title>
<path fill="none" stroke="midnightblue" d="M489.76,-459.09C500.87,-448.92 512.74,-438.04 522.05,-429.52"/>
<polygon fill="midnightblue" stroke="midnightblue" points="524.47,-432.05 529.48,-422.72 519.74,-426.89 524.47,-432.05"/>
</g>
<!-- Node3 -->
<g id="node3" class="node">
<title>Node3</title>
<g id="a_node3"><a xlink:href="../../de/d5e/IDPositionOrigin_8h.html" target="_top" xlink:title=" ">
<polygon fill="white" stroke="black" points="279,-224.5 279,-243.5 383,-243.5 383,-224.5 279,-224.5"/>
<text text-anchor="middle" x="331" y="-231.5" font-family="Helvetica,sans-Serif" font-size="10.00">IDPositionOrigin.h</text>
</a>
</g>
</g>
<!-- Node2&#45;&gt;Node3 -->
<g id="edge2" class="edge">
<title>Node2&#45;&gt;Node3</title>
<path fill="none" stroke="midnightblue" d="M312.15,-285.98C315.32,-277.4 320.3,-263.93 324.35,-252.98"/>
<polygon fill="midnightblue" stroke="midnightblue" points="327.67,-254.1 327.85,-243.51 321.1,-251.67 327.67,-254.1"/>
</g>
<!-- Node4 -->
<g id="node4" class="node">
<title>Node4</title>
<g id="a_node4"><a xlink:href="../../df/d13/FileNameRepo_8h.html" target="_top" xlink:title=" ">
<polygon fill="white" stroke="black" points="582.5,-168.5 582.5,-187.5 729.5,-187.5 729.5,-168.5 582.5,-168.5"/>
<text text-anchor="middle" x="656" y="-175.5" font-family="Helvetica,sans-Serif" font-size="10.00">joda/misc/FileNameRepo.h</text>
</a>
</g>
</g>
<!-- Node2&#45;&gt;Node4 -->
<g id="edge21" class="edge">
<title>Node2&#45;&gt;Node4</title>
<path fill="none" stroke="midnightblue" d="M334.8,-285.91C396.03,-265.53 550.22,-214.21 620.32,-190.88"/>
<polygon fill="midnightblue" stroke="midnightblue" points="621.65,-194.12 630.03,-187.64 619.44,-187.48 621.65,-194.12"/>
</g>
<!-- Node10 -->
<g id="node10" class="node">
<title>Node10</title>
<g id="a_node10"><a xlink:href="../../d5/d6c/IOrigin_8h.html" target="_top" xlink:title=" ">
<polygon fill="white" stroke="black" points="325,-168.5 325,-187.5 383,-187.5 383,-168.5 325,-168.5"/>
<text text-anchor="middle" x="354" y="-175.5" font-family="Helvetica,sans-Serif" font-size="10.00">IOrigin.h</text>
</a>
</g>
</g>
<!-- Node2&#45;&gt;Node10 -->
<g id="edge20" class="edge">
<title>Node2&#45;&gt;Node10</title>
<path fill="none" stroke="midnightblue" d="M298.09,-285.93C282.43,-272.55 256.85,-245.96 270,-224 279.88,-207.51 298.09,-196.72 315.04,-189.85"/>
<polygon fill="midnightblue" stroke="midnightblue" points="316.63,-192.99 324.8,-186.24 314.21,-186.42 316.63,-192.99"/>
</g>
<!-- Node14 -->
<g id="node14" class="node">
<title>Node14</title>
<g id="a_node14"><a xlink:href="../../d6/d09/RJFwd_8h.html" target="_top" xlink:title=" ">
<polygon fill="white" stroke="black" points="330,-56.5 330,-75.5 436,-75.5 436,-56.5 330,-56.5"/>
<text text-anchor="middle" x="383" y="-63.5" font-family="Helvetica,sans-Serif" font-size="10.00">joda/misc/RJFwd.h</text>
</a>
</g>
</g>
<!-- Node2&#45;&gt;Node14 -->
<g id="edge22" class="edge">
<title>Node2&#45;&gt;Node14</title>
<path fill="none" stroke="midnightblue" d="M299.51,-285.75C270.6,-258.07 188.22,-170.73 232,-112 252.21,-84.89 288.11,-73.47 319.84,-68.91"/>
<polygon fill="midnightblue" stroke="midnightblue" points="320.47,-72.35 329.97,-67.65 319.62,-65.41 320.47,-72.35"/>
</g>
<!-- Node3&#45;&gt;Node4 -->
<g id="edge3" class="edge">
<title>Node3&#45;&gt;Node4</title>
<path fill="none" stroke="midnightblue" d="M382.5,-224.44C440.14,-214.87 533.49,-199.36 594.81,-189.17"/>
<polygon fill="midnightblue" stroke="midnightblue" points="595.45,-192.61 604.74,-187.52 594.31,-185.7 595.45,-192.61"/>
</g>
<!-- Node3&#45;&gt;Node10 -->
<g id="edge9" class="edge">
<title>Node3&#45;&gt;Node10</title>
<path fill="none" stroke="midnightblue" d="M334.8,-224.08C337.91,-216.77 342.42,-206.18 346.29,-197.1"/>
<polygon fill="midnightblue" stroke="midnightblue" points="349.57,-198.32 350.27,-187.75 343.13,-195.58 349.57,-198.32"/>
</g>
<!-- Node5 -->
<g id="node5" class="node">
<title>Node5</title>
<g id="a_node5"><a xlink:title=" ">
<polygon fill="white" stroke="#bfbfbf" points="563,-112.5 563,-131.5 611,-131.5 611,-112.5 563,-112.5"/>
<text text-anchor="middle" x="587" y="-119.5" font-family="Helvetica,sans-Serif" font-size="10.00">mutex</text>
</a>
</g>
</g>
<!-- Node4&#45;&gt;Node5 -->
<g id="edge4" class="edge">
<title>Node4&#45;&gt;Node5</title>
<path fill="none" stroke="midnightblue" d="M644.91,-168.32C634.51,-160.18 618.74,-147.84 606.28,-138.09"/>
<polygon fill="midnightblue" stroke="midnightblue" points="608.32,-135.24 598.29,-131.83 604.01,-140.75 608.32,-135.24"/>
</g>
<!-- Node6 -->
<g id="node6" class="node">
<title>Node6</title>
<g id="a_node6"><a xlink:title=" ">
<polygon fill="white" stroke="#bfbfbf" points="1194,-56.5 1194,-75.5 1238,-75.5 1238,-56.5 1194,-56.5"/>
<text text-anchor="middle" x="1216" y="-63.5" font-family="Helvetica,sans-Serif" font-size="10.00">string</text>
</a>
</g>
</g>
<!-- Node4&#45;&gt;Node6 -->
<g id="edge5" class="edge">
<title>Node4&#45;&gt;Node6</title>
<path fill="none" stroke="midnightblue" d="M696.72,-168.45C734.06,-160.27 790.72,-146.99 839,-132 863.05,-124.54 867.6,-118.21 892,-112 946.96,-98 1113.41,-78.45 1183.9,-70.54"/>
<polygon fill="midnightblue" stroke="midnightblue" points="1184.42,-74 1193.97,-69.41 1183.65,-67.04 1184.42,-74"/>
</g>
<!-- Node7 -->
<g id="node7" class="node">
<title>Node7</title>
<g id="a_node7"><a xlink:title=" ">
<polygon fill="white" stroke="#bfbfbf" points="1024.5,-56.5 1024.5,-75.5 1117.5,-75.5 1117.5,-56.5 1024.5,-56.5"/>
<text text-anchor="middle" x="1071" y="-63.5" font-family="Helvetica,sans-Serif" font-size="10.00">unordered_map</text>
</a>
</g>
</g>
<!-- Node4&#45;&gt;Node7 -->
<g id="edge6" class="edge">
<title>Node4&#45;&gt;Node7</title>
<path fill="none" stroke="midnightblue" d="M679.71,-168.49C717.21,-155.23 792.67,-129.36 858,-112 910.42,-98.07 970.99,-85.62 1014.11,-77.36"/>
<polygon fill="midnightblue" stroke="midnightblue" points="1014.96,-80.76 1024.14,-75.46 1013.66,-73.89 1014.96,-80.76"/>
</g>
<!-- Node8 -->
<g id="node8" class="node">
<title>Node8</title>
<g id="a_node8"><a xlink:title=" ">
<polygon fill="white" stroke="#bfbfbf" points="629,-112.5 629,-131.5 715,-131.5 715,-112.5 629,-112.5"/>
<text text-anchor="middle" x="672" y="-119.5" font-family="Helvetica,sans-Serif" font-size="10.00">unordered_set</text>
</a>
</g>
</g>
<!-- Node4&#45;&gt;Node8 -->
<g id="edge7" class="edge">
<title>Node4&#45;&gt;Node8</title>
<path fill="none" stroke="midnightblue" d="M658.64,-168.08C660.79,-160.85 663.88,-150.41 666.55,-141.4"/>
<polygon fill="midnightblue" stroke="midnightblue" points="669.92,-142.33 669.41,-131.75 663.21,-140.34 669.92,-142.33"/>
</g>
<!-- Node9 -->
<g id="node9" class="node">
<title>Node9</title>
<g id="a_node9"><a xlink:title=" ">
<polygon fill="white" stroke="#bfbfbf" points="900.5,-112.5 900.5,-131.5 947.5,-131.5 947.5,-112.5 900.5,-112.5"/>
<text text-anchor="middle" x="924" y="-119.5" font-family="Helvetica,sans-Serif" font-size="10.00">vector</text>
</a>
</g>
</g>
<!-- Node4&#45;&gt;Node9 -->
<g id="edge8" class="edge">
<title>Node4&#45;&gt;Node9</title>
<path fill="none" stroke="midnightblue" d="M702.37,-168.48C748.9,-159.81 822.57,-145.71 886,-132 887.45,-131.69 888.93,-131.36 890.42,-131.03"/>
<polygon fill="midnightblue" stroke="midnightblue" points="891.35,-134.41 900.32,-128.76 889.79,-127.58 891.35,-134.41"/>
</g>
<!-- Node11 -->
<g id="node11" class="node">
<title>Node11</title>
<g id="a_node11"><a xlink:title=" ">
<polygon fill="white" stroke="#bfbfbf" points="953,-0.5 953,-19.5 1039,-19.5 1039,-0.5 953,-0.5"/>
<text text-anchor="middle" x="996" y="-7.5" font-family="Helvetica,sans-Serif" font-size="10.00">glog/logging.h</text>
</a>
</g>
</g>
<!-- Node10&#45;&gt;Node11 -->
<g id="edge10" class="edge">
<title>Node10&#45;&gt;Node11</title>
<path fill="none" stroke="midnightblue" d="M362.62,-168.22C377.17,-153.96 408.12,-125.99 440,-112 530.35,-72.36 821.95,-32.66 942.79,-17.47"/>
<polygon fill="midnightblue" stroke="midnightblue" points="943.42,-20.91 952.91,-16.2 942.55,-13.97 943.42,-20.91"/>
</g>
<!-- Node12 -->
<g id="node12" class="node">
<title>Node12</title>
<g id="a_node12"><a xlink:title=" ">
<polygon fill="white" stroke="#bfbfbf" points="241,-112.5 241,-131.5 355,-131.5 355,-112.5 241,-112.5"/>
<text text-anchor="middle" x="298" y="-119.5" font-family="Helvetica,sans-Serif" font-size="10.00">boost/operators.hpp</text>
</a>
</g>
</g>
<!-- Node10&#45;&gt;Node12 -->
<g id="edge11" class="edge">
<title>Node10&#45;&gt;Node12</title>
<path fill="none" stroke="midnightblue" d="M345,-168.32C336.81,-160.42 324.49,-148.55 314.53,-138.94"/>
<polygon fill="midnightblue" stroke="midnightblue" points="316.79,-136.26 307.16,-131.83 311.93,-141.29 316.79,-136.26"/>
</g>
<!-- Node13 -->
<g id="node13" class="node">
<title>Node13</title>
<g id="a_node13"><a xlink:title=" ">
<polygon fill="white" stroke="#bfbfbf" points="449,-112.5 449,-131.5 507,-131.5 507,-112.5 449,-112.5"/>
<text text-anchor="middle" x="478" y="-119.5" font-family="Helvetica,sans-Serif" font-size="10.00">memory</text>
</a>
</g>
</g>
<!-- Node10&#45;&gt;Node13 -->
<g id="edge12" class="edge">
<title>Node10&#45;&gt;Node13</title>
<path fill="none" stroke="midnightblue" d="M373.65,-168.44C393.96,-159.6 425.9,-145.69 449.1,-135.59"/>
<polygon fill="midnightblue" stroke="midnightblue" points="450.67,-138.72 458.44,-131.52 447.88,-132.3 450.67,-138.72"/>
</g>
<!-- Node10&#45;&gt;Node14 -->
<g id="edge13" class="edge">
<title>Node10&#45;&gt;Node14</title>
<path fill="none" stroke="midnightblue" d="M356.28,-168.37C360.98,-150.54 371.85,-109.3 378.18,-85.27"/>
<polygon fill="midnightblue" stroke="midnightblue" points="381.57,-86.15 380.73,-75.59 374.8,-84.37 381.57,-86.15"/>
</g>
<!-- Node14&#45;&gt;Node11 -->
<g id="edge14" class="edge">
<title>Node14&#45;&gt;Node11</title>
<path fill="none" stroke="midnightblue" d="M436.36,-57.58C440.97,-57.02 445.57,-56.48 450,-56 630.19,-36.49 844.65,-21.09 942.53,-14.49"/>
<polygon fill="midnightblue" stroke="midnightblue" points="943.01,-17.97 952.75,-13.81 942.54,-10.98 943.01,-17.97"/>
</g>
<!-- Node15 -->
<g id="node15" class="node">
<title>Node15</title>
<g id="a_node15"><a xlink:title=" ">
<polygon fill="white" stroke="#bfbfbf" points="718,-0.5 718,-19.5 840,-19.5 840,-0.5 718,-0.5"/>
<text text-anchor="middle" x="779" y="-7.5" font-family="Helvetica,sans-Serif" font-size="10.00">rapidjson/allocators.h</text>
</a>
</g>
</g>
<!-- Node14&#45;&gt;Node15 -->
<g id="edge15" class="edge">
<title>Node14&#45;&gt;Node15</title>
<path fill="none" stroke="midnightblue" d="M436.41,-57.72C506.41,-48.17 629.45,-31.39 707.46,-20.76"/>
<polygon fill="midnightblue" stroke="midnightblue" points="708.25,-24.18 717.68,-19.36 707.3,-17.24 708.25,-24.18"/>
</g>
<!-- Node16 -->
<g id="node16" class="node">
<title>Node16</title>
<g id="a_node16"><a xlink:title=" ">
<polygon fill="white" stroke="#bfbfbf" points="0,-0.5 0,-19.5 122,-19.5 122,-0.5 0,-0.5"/>
<text text-anchor="middle" x="61" y="-7.5" font-family="Helvetica,sans-Serif" font-size="10.00">rapidjson/document.h</text>
</a>
</g>
</g>
<!-- Node14&#45;&gt;Node16 -->
<g id="edge16" class="edge">
<title>Node14&#45;&gt;Node16</title>
<path fill="none" stroke="midnightblue" d="M331.98,-56.44C274.98,-46.89 182.76,-31.42 122,-21.23"/>
<polygon fill="midnightblue" stroke="midnightblue" points="122.22,-17.72 111.78,-19.52 121.07,-24.62 122.22,-17.72"/>
</g>
<!-- Node17 -->
<g id="node17" class="node">
<title>Node17</title>
<g id="a_node17"><a xlink:title=" ">
<polygon fill="white" stroke="#bfbfbf" points="140.5,-0.5 140.5,-19.5 231.5,-19.5 231.5,-0.5 140.5,-0.5"/>
<text text-anchor="middle" x="186" y="-7.5" font-family="Helvetica,sans-Serif" font-size="10.00">rapidjson/fwd.h</text>
</a>
</g>
</g>
<!-- Node14&#45;&gt;Node17 -->
<g id="edge17" class="edge">
<title>Node14&#45;&gt;Node17</title>
<path fill="none" stroke="midnightblue" d="M351.78,-56.44C318.07,-47.2 264.2,-32.44 227.07,-22.26"/>
<polygon fill="midnightblue" stroke="midnightblue" points="227.64,-18.78 217.07,-19.52 225.79,-25.54 227.64,-18.78"/>
</g>
<!-- Node18 -->
<g id="node18" class="node">
<title>Node18</title>
<g id="a_node18"><a xlink:title=" ">
<polygon fill="white" stroke="#bfbfbf" points="415,-0.5 415,-19.5 565,-19.5 565,-0.5 415,-0.5"/>
<text text-anchor="middle" x="490" y="-7.5" font-family="Helvetica,sans-Serif" font-size="10.00">rapidjson/istreamwrapper.h</text>
</a>
</g>
</g>
<!-- Node14&#45;&gt;Node18 -->
<g id="edge18" class="edge">
<title>Node14&#45;&gt;Node18</title>
<path fill="none" stroke="midnightblue" d="M400.19,-56.32C417.35,-47.66 443.95,-34.24 463.75,-24.25"/>
<polygon fill="midnightblue" stroke="midnightblue" points="465.5,-27.28 472.85,-19.65 462.35,-21.04 465.5,-27.28"/>
</g>
<!-- Node19 -->
<g id="node19" class="node">
<title>Node19</title>
<g id="a_node19"><a xlink:title=" ">
<polygon fill="white" stroke="#bfbfbf" points="289.5,-0.5 289.5,-19.5 396.5,-19.5 396.5,-0.5 289.5,-0.5"/>
<text text-anchor="middle" x="343" y="-7.5" font-family="Helvetica,sans-Serif" font-size="10.00">rapidjson/pointer.h</text>
</a>
</g>
</g>
<!-- Node14&#45;&gt;Node19 -->
<g id="edge19" class="edge">
<title>Node14&#45;&gt;Node19</title>
<path fill="none" stroke="midnightblue" d="M376.39,-56.08C370.74,-48.46 362.46,-37.26 355.55,-27.94"/>
<polygon fill="midnightblue" stroke="midnightblue" points="358.25,-25.7 349.48,-19.75 352.62,-29.87 358.25,-25.7"/>
</g>
<!-- Node20&#45;&gt;Node6 -->
<g id="edge30" class="edge">
<title>Node20&#45;&gt;Node6</title>
<path fill="none" stroke="midnightblue" d="M586.51,-411.25C778.14,-407.59 1484,-387.92 1484,-296.5 1484,-296.5 1484,-296.5 1484,-177 1484,-109.61 1409.41,-137.43 1347,-112 1337.59,-108.16 1283.45,-89.76 1247.78,-77.71"/>
<polygon fill="midnightblue" stroke="midnightblue" points="1248.86,-74.38 1238.26,-74.5 1246.62,-81.01 1248.86,-74.38"/>
</g>
<!-- Node20&#45;&gt;Node11 -->
<g id="edge24" class="edge">
<title>Node20&#45;&gt;Node11</title>
<path fill="none" stroke="midnightblue" d="M586.54,-411.69C787.86,-409.73 1560,-395.78 1560,-296.5 1560,-296.5 1560,-296.5 1560,-121 1560,-17.59 1190.13,-9.53 1049.44,-10.2"/>
<polygon fill="midnightblue" stroke="midnightblue" points="1049.3,-6.7 1039.32,-10.27 1049.34,-13.7 1049.3,-6.7"/>
</g>
<!-- Node20&#45;&gt;Node13 -->
<g id="edge29" class="edge">
<title>Node20&#45;&gt;Node13</title>
<path fill="none" stroke="midnightblue" d="M494.77,-403.5C472.44,-397.04 446.63,-385.91 430,-367 408.57,-342.63 411,-328.95 411,-296.5 411,-296.5 411,-296.5 411,-233 411,-194.7 440.99,-158.42 460.84,-138.59"/>
<polygon fill="midnightblue" stroke="midnightblue" points="463.33,-141.05 468.11,-131.6 458.48,-136 463.33,-141.05"/>
</g>
<!-- Node20&#45;&gt;Node16 -->
<g id="edge25" class="edge">
<title>Node20&#45;&gt;Node16</title>
<path fill="none" stroke="midnightblue" d="M491.48,-410.19C399.94,-406.12 202.74,-394.38 141,-367 97.68,-347.78 61,-343.89 61,-296.5 61,-296.5 61,-296.5 61,-121 61,-88.95 61,-51.64 61,-29.75"/>
<polygon fill="midnightblue" stroke="midnightblue" points="64.5,-29.56 61,-19.56 57.5,-29.56 64.5,-29.56"/>
</g>
<!-- Node20&#45;&gt;Node17 -->
<g id="edge26" class="edge">
<title>Node20&#45;&gt;Node17</title>
<path fill="none" stroke="midnightblue" d="M491.49,-409.58C377.72,-402.51 99,-376.96 99,-296.5 99,-296.5 99,-296.5 99,-121 99,-79.4 137.75,-44.33 163.53,-25.6"/>
<polygon fill="midnightblue" stroke="midnightblue" points="165.82,-28.27 172.02,-19.68 161.82,-22.53 165.82,-28.27"/>
</g>
<!-- Node21 -->
<g id="node21" class="node">
<title>Node21</title>
<g id="a_node21"><a xlink:title=" ">
<polygon fill="white" stroke="#bfbfbf" points="657.5,-347.5 657.5,-366.5 704.5,-366.5 704.5,-347.5 657.5,-347.5"/>
<text text-anchor="middle" x="681" y="-354.5" font-family="Helvetica,sans-Serif" font-size="10.00">cmath</text>
</a>
</g>
</g>
<!-- Node20&#45;&gt;Node21 -->
<g id="edge27" class="edge">
<title>Node20&#45;&gt;Node21</title>
<path fill="none" stroke="midnightblue" d="M561.5,-403.44C585.08,-394.48 622.32,-380.31 648.96,-370.18"/>
<polygon fill="midnightblue" stroke="midnightblue" points="650.5,-373.34 658.6,-366.52 648.01,-366.8 650.5,-373.34"/>
</g>
<!-- Node22 -->
<g id="node22" class="node">
<title>Node22</title>
<g id="a_node22"><a xlink:title=" ">
<polygon fill="white" stroke="#bfbfbf" points="722.5,-347.5 722.5,-366.5 847.5,-366.5 847.5,-347.5 722.5,-347.5"/>
<text text-anchor="middle" x="785" y="-354.5" font-family="Helvetica,sans-Serif" font-size="10.00">experimental/optional</text>
</a>
</g>
</g>
<!-- Node20&#45;&gt;Node22 -->
<g id="edge28" class="edge">
<title>Node20&#45;&gt;Node22</title>
<path fill="none" stroke="midnightblue" d="M577.98,-403.44C620.89,-394.02 689.95,-378.87 736.37,-368.68"/>
<polygon fill="midnightblue" stroke="midnightblue" points="737.19,-372.08 746.2,-366.52 735.69,-365.24 737.19,-372.08"/>
</g>
<!-- Node23 -->
<g id="node23" class="node">
<title>Node23</title>
<g id="a_node23"><a xlink:href="../../d1/dfd/RapidJsonDocument_8h.html" target="_top" xlink:title=" ">
<polygon fill="white" stroke="black" points="439,-347.5 439,-366.5 639,-366.5 639,-347.5 439,-347.5"/>
<text text-anchor="middle" x="539" y="-354.5" font-family="Helvetica,sans-Serif" font-size="10.00">joda/document/RapidJsonDocument.h</text>
</a>
</g>
</g>
<!-- Node20&#45;&gt;Node23 -->
<g id="edge31" class="edge">
<title>Node20&#45;&gt;Node23</title>
<path fill="none" stroke="midnightblue" d="M539,-403.08C539,-396.01 539,-385.86 539,-376.99"/>
<polygon fill="midnightblue" stroke="midnightblue" points="542.5,-376.75 539,-366.75 535.5,-376.75 542.5,-376.75"/>
</g>
<!-- Node23&#45;&gt;Node4 -->
<g id="edge68" class="edge">
<title>Node23&#45;&gt;Node4</title>
<path fill="none" stroke="midnightblue" d="M560.71,-347.5C576.95,-340.11 598.59,-327.92 612,-311 639.04,-276.87 649.82,-225.36 653.83,-197.87"/>
<polygon fill="midnightblue" stroke="midnightblue" points="657.33,-198.04 655.16,-187.68 650.39,-197.14 657.33,-198.04"/>
</g>
<!-- Node23&#45;&gt;Node10 -->
<g id="edge69" class="edge">
<title>Node23&#45;&gt;Node10</title>
<path fill="none" stroke="midnightblue" d="M530.08,-347.46C500.97,-319.61 408.46,-231.11 370.5,-194.79"/>
<polygon fill="midnightblue" stroke="midnightblue" points="372.91,-192.25 363.27,-187.87 368.08,-197.31 372.91,-192.25"/>
</g>
<!-- Node23&#45;&gt;Node13 -->
<g id="edge67" class="edge">
<title>Node23&#45;&gt;Node13</title>
<path fill="none" stroke="midnightblue" d="M536.76,-347.43C527.92,-313.68 495.4,-189.47 482.92,-141.8"/>
<polygon fill="midnightblue" stroke="midnightblue" points="486.25,-140.68 480.33,-131.9 479.48,-142.46 486.25,-140.68"/>
</g>
<!-- Node23&#45;&gt;Node14 -->
<g id="edge70" class="edge">
<title>Node23&#45;&gt;Node14</title>
<path fill="none" stroke="midnightblue" d="M438.81,-350.4C360.98,-344.44 260.62,-332.77 226,-311 191.56,-289.35 175,-275.68 175,-235 175,-235 175,-235 175,-177 175,-110.64 258.76,-84.2 319.98,-73.75"/>
<polygon fill="midnightblue" stroke="midnightblue" points="320.65,-77.18 329.97,-72.14 319.55,-70.27 320.65,-77.18"/>
</g>
<!-- Node23&#45;&gt;Node15 -->
<g id="edge64" class="edge">
<title>Node23&#45;&gt;Node15</title>
<path fill="none" stroke="midnightblue" d="M631.81,-347.46C720.93,-339.04 859.3,-325.37 979,-311 1195.49,-285.02 1273.02,-347.37 1465,-244 1498.83,-225.78 1522,-217.42 1522,-179 1522,-179 1522,-179 1522,-121 1522,-114.05 1509.26,-97.7 1247,-56 1107.34,-33.79 942.36,-21.03 850.3,-15.1"/>
<polygon fill="midnightblue" stroke="midnightblue" points="850.46,-11.61 840.26,-14.47 850.02,-18.59 850.46,-11.61"/>
</g>
<!-- Node23&#45;&gt;Node17 -->
<g id="edge65" class="edge">
<title>Node23&#45;&gt;Node17</title>
<path fill="none" stroke="midnightblue" d="M438.76,-352.83C348.85,-348.29 224.95,-337.34 184,-311 150.6,-289.52 137,-274.72 137,-235 137,-235 137,-235 137,-121 137,-85.47 158.6,-48.63 173.12,-27.88"/>
<polygon fill="midnightblue" stroke="midnightblue" points="176.13,-29.69 179.19,-19.54 170.47,-25.57 176.13,-29.69"/>
</g>
<!-- Node24 -->
<g id="node24" class="node">
<title>Node24</title>
<g id="a_node24"><a xlink:href="../../d2/d0d/ViewLayer_8h.html" target="_top" xlink:title=" ">
<polygon fill="white" stroke="black" points="854,-280.5 854,-310.5 970,-310.5 970,-280.5 854,-280.5"/>
<text text-anchor="start" x="862" y="-298.5" font-family="Helvetica,sans-Serif" font-size="10.00">joda/document/view</text>
<text text-anchor="middle" x="912" y="-287.5" font-family="Helvetica,sans-Serif" font-size="10.00">/ViewLayer.h</text>
</a>
</g>
</g>
<!-- Node23&#45;&gt;Node24 -->
<g id="edge32" class="edge">
<title>Node23&#45;&gt;Node24</title>
<path fill="none" stroke="midnightblue" d="M592.44,-347.48C658.62,-336.92 771.45,-318.92 843.81,-307.38"/>
<polygon fill="midnightblue" stroke="midnightblue" points="844.42,-310.82 853.74,-305.79 843.32,-303.91 844.42,-310.82"/>
</g>
<!-- Node36 -->
<g id="node36" class="node">
<title>Node36</title>
<g id="a_node36"><a xlink:title=" ">
<polygon fill="white" stroke="#bfbfbf" points="553,-286 553,-305 603,-305 603,-286 553,-286"/>
<text text-anchor="middle" x="578" y="-293" font-family="Helvetica,sans-Serif" font-size="10.00">atomic</text>
</a>
</g>
</g>
<!-- Node23&#45;&gt;Node36 -->
<g id="edge66" class="edge">
<title>Node23&#45;&gt;Node36</title>
<path fill="none" stroke="midnightblue" d="M544.59,-347.48C550.38,-338.64 559.59,-324.59 566.87,-313.48"/>
<polygon fill="midnightblue" stroke="midnightblue" points="569.87,-315.29 572.42,-305.01 564.01,-311.45 569.87,-315.29"/>
</g>
<!-- Node24&#45;&gt;Node5 -->
<g id="edge40" class="edge">
<title>Node24&#45;&gt;Node5</title>
<path fill="none" stroke="midnightblue" d="M853.8,-285.37C765.1,-270.06 603.17,-236.07 573,-188 564.01,-173.68 569.89,-154.47 576.57,-140.65"/>
<polygon fill="midnightblue" stroke="midnightblue" points="579.73,-142.16 581.37,-131.69 573.56,-138.85 579.73,-142.16"/>
</g>
<!-- Node24&#45;&gt;Node7 -->
<g id="edge41" class="edge">
<title>Node24&#45;&gt;Node7</title>
<path fill="none" stroke="midnightblue" d="M970.21,-294.82C1059.13,-293.92 1222.36,-286.36 1259,-244 1264.82,-237.28 1263.23,-231.82 1259,-224 1245.11,-198.3 1226.73,-206.35 1204,-188 1166.59,-157.79 1162.9,-143.99 1127,-112 1115.24,-101.52 1101.46,-90.44 1090.51,-81.89"/>
<polygon fill="midnightblue" stroke="midnightblue" points="1092.48,-78.99 1082.43,-75.64 1088.2,-84.52 1092.48,-78.99"/>
</g>
<!-- Node24&#45;&gt;Node11 -->
<g id="edge33" class="edge">
<title>Node24&#45;&gt;Node11</title>
<path fill="none" stroke="midnightblue" d="M895.86,-280.27C881.35,-265.7 864.03,-242.61 876,-224 896.87,-191.55 930.58,-217.87 955,-188 993.39,-141.05 997.24,-64.78 996.78,-29.72"/>
<polygon fill="midnightblue" stroke="midnightblue" points="1000.27,-29.41 996.5,-19.51 993.28,-29.6 1000.27,-29.41"/>
</g>
<!-- Node24&#45;&gt;Node14 -->
<g id="edge37" class="edge">
<title>Node24&#45;&gt;Node14</title>
<path fill="none" stroke="midnightblue" d="M853.78,-294.58C792.58,-292.41 695.07,-282.43 621,-244 589.76,-227.79 587.11,-215.39 565,-188 539.76,-156.73 547.7,-136.71 516,-112 494.88,-95.53 467.39,-84.91 442.89,-78.15"/>
<polygon fill="midnightblue" stroke="midnightblue" points="443.52,-74.7 432.96,-75.57 441.76,-81.48 443.52,-74.7"/>
</g>
<!-- Node25 -->
<g id="node25" class="node">
<title>Node25</title>
<g id="a_node25"><a xlink:href="../../db/d16/config_8h.html" target="_top" xlink:title=" ">
<polygon fill="white" stroke="black" points="1344.5,-224.5 1344.5,-243.5 1455.5,-243.5 1455.5,-224.5 1344.5,-224.5"/>
<text text-anchor="middle" x="1400" y="-231.5" font-family="Helvetica,sans-Serif" font-size="10.00">joda/config/config.h</text>
</a>
</g>
</g>
<!-- Node24&#45;&gt;Node25 -->
<g id="edge34" class="edge">
<title>Node24&#45;&gt;Node25</title>
<path fill="none" stroke="midnightblue" d="M970.17,-287.61C1050.94,-278.02 1201.61,-260.01 1330,-244 1331.3,-243.84 1332.61,-243.67 1333.94,-243.51"/>
<polygon fill="midnightblue" stroke="midnightblue" points="1334.74,-246.93 1344.22,-242.21 1333.86,-239.99 1334.74,-246.93"/>
</g>
<!-- Node27 -->
<g id="node27" class="node">
<title>Node27</title>
<g id="a_node27"><a xlink:title=" ">
<polygon fill="white" stroke="#bfbfbf" points="894.5,-224.5 894.5,-243.5 1023.5,-243.5 1023.5,-224.5 894.5,-224.5"/>
<text text-anchor="middle" x="959" y="-231.5" font-family="Helvetica,sans-Serif" font-size="10.00">rapidjson/stringbuffer.h</text>
</a>
</g>
</g>
<!-- Node24&#45;&gt;Node27 -->
<g id="edge38" class="edge">
<title>Node24&#45;&gt;Node27</title>
<path fill="none" stroke="midnightblue" d="M923.14,-280.4C929.97,-271.75 938.74,-260.64 945.91,-251.58"/>
<polygon fill="midnightblue" stroke="midnightblue" points="948.71,-253.67 952.16,-243.66 943.22,-249.34 948.71,-253.67"/>
</g>
<!-- Node28 -->
<g id="node28" class="node">
<title>Node28</title>
<g id="a_node28"><a xlink:title=" ">
<polygon fill="white" stroke="#bfbfbf" points="1042,-224.5 1042,-243.5 1106,-243.5 1106,-224.5 1042,-224.5"/>
<text text-anchor="middle" x="1074" y="-231.5" font-family="Helvetica,sans-Serif" font-size="10.00">algorithm</text>
</a>
</g>
</g>
<!-- Node24&#45;&gt;Node28 -->
<g id="edge39" class="edge">
<title>Node24&#45;&gt;Node28</title>
<path fill="none" stroke="midnightblue" d="M950.39,-280.4C977.94,-270.28 1014.67,-256.79 1040.92,-247.15"/>
<polygon fill="midnightblue" stroke="midnightblue" points="1042.25,-250.39 1050.43,-243.66 1039.83,-243.82 1042.25,-250.39"/>
</g>
<!-- Node29 -->
<g id="node29" class="node">
<title>Node29</title>
<g id="a_node29"><a xlink:title=" ">
<polygon fill="white" stroke="#bfbfbf" points="1124.5,-224.5 1124.5,-243.5 1175.5,-243.5 1175.5,-224.5 1124.5,-224.5"/>
<text text-anchor="middle" x="1150" y="-231.5" font-family="Helvetica,sans-Serif" font-size="10.00">variant</text>
</a>
</g>
</g>
<!-- Node24&#45;&gt;Node29 -->
<g id="edge42" class="edge">
<title>Node24&#45;&gt;Node29</title>
<path fill="none" stroke="midnightblue" d="M968.91,-280.47C1007.31,-270.97 1059.4,-258.03 1114.45,-244.13"/>
<polygon fill="midnightblue" stroke="midnightblue" points="1115.56,-247.46 1124.39,-241.61 1113.84,-240.67 1115.56,-247.46"/>
</g>
<!-- Node30 -->
<g id="node30" class="node">
<title>Node30</title>
<g id="a_node30"><a xlink:title=" ">
<polygon fill="white" stroke="#bfbfbf" points="1194,-224.5 1194,-243.5 1250,-243.5 1250,-224.5 1194,-224.5"/>
<text text-anchor="middle" x="1222" y="-231.5" font-family="Helvetica,sans-Serif" font-size="10.00">optional</text>
</a>
</g>
</g>
<!-- Node24&#45;&gt;Node30 -->
<g id="edge43" class="edge">
<title>Node24&#45;&gt;Node30</title>
<path fill="none" stroke="midnightblue" d="M970.23,-284.7C1023.36,-275.53 1104.27,-261.03 1183.59,-244.21"/>
<polygon fill="midnightblue" stroke="midnightblue" points="1184.71,-247.55 1193.76,-242.04 1183.25,-240.71 1184.71,-247.55"/>
</g>
<!-- Node31 -->
<g id="node31" class="node">
<title>Node31</title>
<g id="a_node31"><a xlink:href="../../da/d3b/ObjectIterator_8h.html" target="_top" xlink:title=" ">
<polygon fill="white" stroke="black" points="708,-224.5 708,-243.5 800,-243.5 800,-224.5 708,-224.5"/>
<text text-anchor="middle" x="754" y="-231.5" font-family="Helvetica,sans-Serif" font-size="10.00">ObjectIterator.h</text>
</a>
</g>
</g>
<!-- Node24&#45;&gt;Node31 -->
<g id="edge44" class="edge">
<title>Node24&#45;&gt;Node31</title>
<path fill="none" stroke="midnightblue" d="M874.56,-280.4C847.81,-270.33 812.18,-256.91 786.6,-247.28"/>
<polygon fill="midnightblue" stroke="midnightblue" points="787.58,-243.91 776.99,-243.66 785.12,-250.46 787.58,-243.91"/>
</g>
<!-- Node33 -->
<g id="node33" class="node">
<title>Node33</title>
<g id="a_node33"><a xlink:href="../../d5/de2/ViewCursor_8h.html" target="_top" xlink:title=" ">
<polygon fill="white" stroke="black" points="786,-168.5 786,-187.5 866,-187.5 866,-168.5 786,-168.5"/>
<text text-anchor="middle" x="826" y="-175.5" font-family="Helvetica,sans-Serif" font-size="10.00">ViewCursor.h</text>
</a>
</g>
</g>
<!-- Node24&#45;&gt;Node33 -->
<g id="edge57" class="edge">
<title>Node24&#45;&gt;Node33</title>
<path fill="none" stroke="midnightblue" d="M853.87,-288.75C797.58,-281.83 718,-268.04 699,-244 674.36,-212.84 730.43,-195.21 775.76,-186.39"/>
<polygon fill="midnightblue" stroke="midnightblue" points="776.62,-189.79 785.82,-184.54 775.35,-182.91 776.62,-189.79"/>
</g>
<!-- Node34 -->
<g id="node34" class="node">
<title>Node34</title>
<g id="a_node34"><a xlink:href="../../d0/d10/ViewStructure_8h.html" target="_top" xlink:title=" ">
<polygon fill="white" stroke="black" points="1024,-112.5 1024,-131.5 1118,-131.5 1118,-112.5 1024,-112.5"/>
<text text-anchor="middle" x="1071" y="-119.5" font-family="Helvetica,sans-Serif" font-size="10.00">ViewStructure.h</text>
</a>
</g>
</g>
<!-- Node24&#45;&gt;Node34 -->
<g id="edge58" class="edge">
<title>Node24&#45;&gt;Node34</title>
<path fill="none" stroke="midnightblue" d="M899.36,-280.36C887.44,-265.23 873.15,-241.11 886,-224 920.46,-178.11 961.07,-217.99 1010,-188 1030.32,-175.54 1048.27,-154.55 1059.35,-139.79"/>
<polygon fill="midnightblue" stroke="midnightblue" points="1062.29,-141.7 1065.32,-131.55 1056.62,-137.6 1062.29,-141.7"/>
</g>
<!-- Node35 -->
<g id="node35" class="node">
<title>Node35</title>
<g id="a_node35"><a xlink:href="../../d8/dee/VirtualObject_8h.html" target="_top" xlink:title=" ">
<polygon fill="white" stroke="black" points="1212.5,-168.5 1212.5,-187.5 1301.5,-187.5 1301.5,-168.5 1212.5,-168.5"/>
<text text-anchor="middle" x="1257" y="-175.5" font-family="Helvetica,sans-Serif" font-size="10.00">VirtualObject.h</text>
</a>
</g>
</g>
<!-- Node24&#45;&gt;Node35 -->
<g id="edge59" class="edge">
<title>Node24&#45;&gt;Node35</title>
<path fill="none" stroke="midnightblue" d="M970.2,-290.93C1071.42,-284.12 1271.14,-267.81 1292,-244 1305.04,-229.11 1289.62,-208.54 1275.32,-194.55"/>
<polygon fill="midnightblue" stroke="midnightblue" points="1277.42,-191.72 1267.68,-187.54 1272.68,-196.88 1277.42,-191.72"/>
</g>
<!-- Node25&#45;&gt;Node6 -->
<g id="edge36" class="edge">
<title>Node25&#45;&gt;Node6</title>
<path fill="none" stroke="midnightblue" d="M1399.74,-224.11C1398.93,-210.69 1395.7,-185.01 1383,-168 1348.39,-121.64 1285.66,-92.19 1247.71,-77.72"/>
<polygon fill="midnightblue" stroke="midnightblue" points="1248.77,-74.38 1238.17,-74.2 1246.34,-80.94 1248.77,-74.38"/>
</g>
<!-- Node26 -->
<g id="node26" class="node">
<title>Node26</title>
<g id="a_node26"><a xlink:title=" ">
<polygon fill="white" stroke="#bfbfbf" points="1320,-168.5 1320,-187.5 1374,-187.5 1374,-168.5 1320,-168.5"/>
<text text-anchor="middle" x="1347" y="-175.5" font-family="Helvetica,sans-Serif" font-size="10.00">istream</text>
</a>
</g>
</g>
<!-- Node25&#45;&gt;Node26 -->
<g id="edge35" class="edge">
<title>Node25&#45;&gt;Node26</title>
<path fill="none" stroke="midnightblue" d="M1391.25,-224.08C1383.53,-216.22 1372.1,-204.57 1362.78,-195.08"/>
<polygon fill="midnightblue" stroke="midnightblue" points="1365.09,-192.44 1355.59,-187.75 1360.1,-197.34 1365.09,-192.44"/>
</g>
<!-- Node31&#45;&gt;Node6 -->
<g id="edge46" class="edge">
<title>Node31&#45;&gt;Node6</title>
<path fill="none" stroke="midnightblue" d="M800.13,-226.82C872.88,-215.72 1017.25,-188.14 1127,-132 1153.69,-118.35 1181.05,-97.06 1198.26,-82.59"/>
<polygon fill="midnightblue" stroke="midnightblue" points="1200.96,-84.89 1206.28,-75.73 1196.41,-79.57 1200.96,-84.89"/>
</g>
<!-- Node31&#45;&gt;Node9 -->
<g id="edge48" class="edge">
<title>Node31&#45;&gt;Node9</title>
<path fill="none" stroke="midnightblue" d="M800.13,-224.83C852.05,-215.17 930.34,-199.01 939,-188 949.7,-174.39 942.79,-154.51 935.18,-140.32"/>
<polygon fill="midnightblue" stroke="midnightblue" points="938.11,-138.39 930.02,-131.56 932.08,-141.95 938.11,-138.39"/>
</g>
<!-- Node31&#45;&gt;Node14 -->
<g id="edge45" class="edge">
<title>Node31&#45;&gt;Node14</title>
<path fill="none" stroke="midnightblue" d="M754.82,-224.35C756.42,-201.94 757.27,-141.68 724,-112 684.14,-76.44 533.43,-68.6 446.29,-67.11"/>
<polygon fill="midnightblue" stroke="midnightblue" points="446.3,-63.61 436.25,-66.96 446.2,-70.61 446.3,-63.61"/>
</g>
<!-- Node32 -->
<g id="node32" class="node">
<title>Node32</title>
<g id="a_node32"><a xlink:title=" ">
<polygon fill="white" stroke="#bfbfbf" points="884.5,-168.5 884.5,-187.5 929.5,-187.5 929.5,-168.5 884.5,-168.5"/>
<text text-anchor="middle" x="907" y="-175.5" font-family="Helvetica,sans-Serif" font-size="10.00">utility</text>
</a>
</g>
</g>
<!-- Node31&#45;&gt;Node32 -->
<g id="edge47" class="edge">
<title>Node31&#45;&gt;Node32</title>
<path fill="none" stroke="midnightblue" d="M778.24,-224.44C804.32,-215.24 845.92,-200.56 874.75,-190.38"/>
<polygon fill="midnightblue" stroke="midnightblue" points="876.1,-193.62 884.37,-186.99 873.77,-187.02 876.1,-193.62"/>
</g>
<!-- Node31&#45;&gt;Node33 -->
<g id="edge49" class="edge">
<title>Node31&#45;&gt;Node33</title>
<path fill="none" stroke="midnightblue" d="M765.57,-224.32C776.42,-216.18 792.88,-203.84 805.88,-194.09"/>
<polygon fill="midnightblue" stroke="midnightblue" points="808.32,-196.63 814.22,-187.83 804.12,-191.03 808.32,-196.63"/>
</g>
<!-- Node33&#45;&gt;Node9 -->
<g id="edge52" class="edge">
<title>Node33&#45;&gt;Node9</title>
<path fill="none" stroke="midnightblue" d="M841.75,-168.32C857.32,-159.74 881.38,-146.49 899.46,-136.52"/>
<polygon fill="midnightblue" stroke="midnightblue" points="901.22,-139.55 908.29,-131.65 897.85,-133.42 901.22,-139.55"/>
</g>
<!-- Node33&#45;&gt;Node13 -->
<g id="edge51" class="edge">
<title>Node33&#45;&gt;Node13</title>
<path fill="none" stroke="midnightblue" d="M785.74,-170.75C718.49,-160.32 584.11,-139.47 517.42,-129.12"/>
<polygon fill="midnightblue" stroke="midnightblue" points="517.74,-125.62 507.32,-127.55 516.67,-132.54 517.74,-125.62"/>
</g>
<!-- Node33&#45;&gt;Node14 -->
<g id="edge50" class="edge">
<title>Node33&#45;&gt;Node14</title>
<path fill="none" stroke="midnightblue" d="M821.73,-168.46C814.01,-154.03 796.25,-125.14 772,-112 717.28,-82.36 541.87,-72.1 446.39,-68.66"/>
<polygon fill="midnightblue" stroke="midnightblue" points="446.39,-65.16 436.28,-68.31 446.15,-72.15 446.39,-65.16"/>
</g>
<!-- Node33&#45;&gt;Node34 -->
<g id="edge53" class="edge">
<title>Node33&#45;&gt;Node34</title>
<path fill="none" stroke="midnightblue" d="M864.82,-168.44C907.56,-159.02 976.33,-143.87 1022.57,-133.68"/>
<polygon fill="midnightblue" stroke="midnightblue" points="1023.35,-137.09 1032.36,-131.52 1021.84,-130.25 1023.35,-137.09"/>
</g>
<!-- Node34&#45;&gt;Node6 -->
<g id="edge55" class="edge">
<title>Node34&#45;&gt;Node6</title>
<path fill="none" stroke="midnightblue" d="M1093.98,-112.44C1118.3,-103.39 1156.87,-89.02 1184.13,-78.87"/>
<polygon fill="midnightblue" stroke="midnightblue" points="1185.46,-82.11 1193.61,-75.34 1183.02,-75.55 1185.46,-82.11"/>
</g>
<!-- Node34&#45;&gt;Node7 -->
<g id="edge56" class="edge">
<title>Node34&#45;&gt;Node7</title>
<path fill="none" stroke="midnightblue" d="M1071,-112.08C1071,-105.01 1071,-94.86 1071,-85.99"/>
<polygon fill="midnightblue" stroke="midnightblue" points="1074.5,-85.75 1071,-75.75 1067.5,-85.75 1074.5,-85.75"/>
</g>
<!-- Node34&#45;&gt;Node14 -->
<g id="edge54" class="edge">
<title>Node34&#45;&gt;Node14</title>
<path fill="none" stroke="midnightblue" d="M1023.86,-117.27C1003.32,-115.65 978.97,-113.73 957,-112 771.35,-97.39 551.93,-80.22 446.2,-71.94"/>
<polygon fill="midnightblue" stroke="midnightblue" points="446.26,-68.44 436.02,-71.15 445.72,-75.42 446.26,-68.44"/>
</g>
<!-- Node35&#45;&gt;Node6 -->
<g id="edge62" class="edge">
<title>Node35&#45;&gt;Node6</title>
<path fill="none" stroke="midnightblue" d="M1254.56,-168.49C1250.91,-155.97 1243.63,-131.94 1236,-112 1232.52,-102.9 1228.18,-92.99 1224.43,-84.79"/>
<polygon fill="midnightblue" stroke="midnightblue" points="1227.5,-83.1 1220.11,-75.51 1221.16,-86.06 1227.5,-83.1"/>
</g>
<!-- Node35&#45;&gt;Node11 -->
<g id="edge60" class="edge">
<title>Node35&#45;&gt;Node11</title>
<path fill="none" stroke="midnightblue" d="M1259.47,-168.27C1265.15,-146.19 1276.46,-87.62 1247,-56 1220.82,-27.91 1114.87,-17.22 1049.28,-13.26"/>
<polygon fill="midnightblue" stroke="midnightblue" points="1049.3,-9.75 1039.12,-12.67 1048.9,-16.74 1049.3,-9.75"/>
</g>
<!-- Node35&#45;&gt;Node14 -->
<g id="edge61" class="edge">
<title>Node35&#45;&gt;Node14</title>
<path fill="none" stroke="midnightblue" d="M1244.05,-168.28C1221.45,-153.58 1172.82,-124.29 1127,-112 999.4,-77.78 602.05,-69.52 446.42,-67.58"/>
<polygon fill="midnightblue" stroke="midnightblue" points="446.12,-64.07 436.08,-67.45 446.04,-71.07 446.12,-64.07"/>
</g>
<!-- Node35&#45;&gt;Node34 -->
<g id="edge63" class="edge">
<title>Node35&#45;&gt;Node34</title>
<path fill="none" stroke="midnightblue" d="M1227.53,-168.44C1195.83,-159.24 1145.27,-144.56 1110.23,-134.39"/>
<polygon fill="midnightblue" stroke="midnightblue" points="1110.91,-130.94 1100.33,-131.52 1108.96,-137.67 1110.91,-130.94"/>
</g>
</g>
</svg>
        <g id="navigator" transform="translate(0 0)" fill="#404254">
                <rect fill="#f2f5e9" fill-opacity="0.5" stroke="#606060" stroke-width=".5" x="0" y="0" width="60" height="60"/>
                <use id="zoomplus" xlink:href="#zoomPlus" x="17" y="9" onmousedown="handleZoom(evt,'in')"/>
                <use id="zoomminus" xlink:href="#zoomMin" x="42" y="9" onmousedown="handleZoom(evt,'out')"/>
                <use id="reset" xlink:href="#resetDef" x="30" y="36" onmousedown="handleReset()"/>
                <g id="arrowUp" xlink:href="#dirArrow" transform="translate(30 24)" onmousedown="handlePan(0,-1)">
                  <use xlink:href="#rim" fill="#404040">
                        <set attributeName="fill" to="#808080" begin="arrowUp.mouseover" end="arrowUp.mouseout"/>
                  </use>
                  <path fill="none" stroke="white" stroke-width="1.5" d="M0,-3.0v7 M-2.5,-0.5L0,-3.0L2.5,-0.5"/>
                </g>
                <g id="arrowRight" xlink:href="#dirArrow" transform="rotate(90) translate(36 -43)" onmousedown="handlePan(1,0)">
                  <use xlink:href="#rim" fill="#404040">
                        <set attributeName="fill" to="#808080" begin="arrowRight.mouseover" end="arrowRight.mouseout"/>
                  </use>
                  <path fill="none" stroke="white" stroke-width="1.5" d="M0,-3.0v7 M-2.5,-0.5L0,-3.0L2.5,-0.5"/>
                </g>
                <g id="arrowDown" xlink:href="#dirArrow" transform="rotate(180) translate(-30 -48)" onmousedown="handlePan(0,1)">
                  <use xlink:href="#rim" fill="#404040">
                        <set attributeName="fill" to="#808080" begin="arrowDown.mouseover" end="arrowDown.mouseout"/>
                  </use>
                  <path fill="none" stroke="white" stroke-width="1.5" d="M0,-3.0v7 M-2.5,-0.5L0,-3.0L2.5,-0.5"/>
                </g>
                <g id="arrowLeft" xlink:href="#dirArrow" transform="rotate(270) translate(-36 17)" onmousedown="handlePan(-1,0)">
                  <use xlink:href="#rim" fill="#404040">
                        <set attributeName="fill" to="#808080" begin="arrowLeft.mouseover" end="arrowLeft.mouseout"/>
                  </use>
                  <path fill="none" stroke="white" stroke-width="1.5" d="M0,-3.0v7 M-2.5,-0.5L0,-3.0L2.5,-0.5"/>
                </g>
        </g>
        <svg viewBox="0 0 15 15" width="100%" height="30px" preserveAspectRatio="xMaxYMin meet">
         <g id="arrow_out" transform="scale(0.3 0.3)">
          <a xlink:href="FilePosProvider_8h__incl_org.svg" target="_base">
           <rect id="button" ry="5" rx="5" y="6" x="6" height="38" width="38"
                fill="#f2f5e9" fill-opacity="0.5" stroke="#606060" stroke-width="1.0"/>
           <path id="arrow"
             d="M 11.500037,31.436501 C 11.940474,20.09759 22.043105,11.32322 32.158766,21.979434 L 37.068811,17.246167 C 37.068811,17.246167 37.088388,32 37.088388,32 L 22.160133,31.978069 C 22.160133,31.978069 26.997745,27.140456 26.997745,27.140456 C 18.528582,18.264221 13.291696,25.230495 11.500037,31.436501 z"
             style="fill:#404040;"/>
          </a>
         </g>
        </svg>
</svg>
