<?xml version="1.0" encoding="UTF-8" standalone="no"?>
<!DOCTYPE svg PUBLIC "-//W3C//DTD SVG 1.1//EN"
 "http://www.w3.org/Graphics/SVG/1.1/DTD/svg11.dtd">
<!-- Generated by graphviz version 2.43.0 (0)
 -->
<!-- Title: joda::query::UnaryStringProvider&lt; Calc &gt; Pages: 1 -->
<!--zoomable 260 -->
<svg id="main" version="1.1" xmlns="http://www.w3.org/2000/svg" xmlns:xlink="http://www.w3.org/1999/xlink" xml:space="preserve" onload="init(evt)">
<style type="text/css"><![CDATA[
.edge:hover path { stroke: red; }
.edge:hover polygon { stroke: red; fill: red; }
]]></style>
<script type="text/javascript"><![CDATA[
var edges = document.getElementsByTagName('g');
if (edges && edges.length) {
  for (var i=0;i<edges.length;i++) {
    if (edges[i].id.substr(0,4)=='edge') {
      edges[i].setAttribute('class','edge');
    }
  }
}
]]></script>
        <defs>
                <circle id="rim" cx="0" cy="0" r="7"/>
                <circle id="rim2" cx="0" cy="0" r="3.5"/>
                <g id="zoomPlus">
                        <use xlink:href="#rim" fill="#404040">
                                <set attributeName="fill" to="#808080" begin="zoomplus.mouseover" end="zoomplus.mouseout"/>
                        </use>
                        <path d="M-4,0h8M0,-4v8" fill="none" stroke="white" stroke-width="1.5" pointer-events="none"/>
                </g>
                <g id="zoomMin">
                        <use xlink:href="#rim" fill="#404040">
                                <set attributeName="fill" to="#808080" begin="zoomminus.mouseover" end="zoomminus.mouseout"/>
                        </use>
                        <path d="M-4,0h8" fill="none" stroke="white" stroke-width="1.5" pointer-events="none"/>
                </g>
                <g id="dirArrow">
                        <path fill="none" stroke="white" stroke-width="1.5" d="M0,-3.0v7 M-2.5,-0.5L0,-3.0L2.5,-0.5"/>
                </g>
               <g id="resetDef">
                       <use xlink:href="#rim2" fill="#404040">
                               <set attributeName="fill" to="#808080" begin="reset.mouseover" end="reset.mouseout"/>
                       </use>
               </g>
        </defs>

<script type="text/javascript">
var viewWidth = 588;
var viewHeight = 260;
var sectionId = 'dynsection-1';
</script>
<script xlink:href="../../svgpan.js"/>
<svg id="graph" class="graph">
<g id="viewport">
<title>joda::query::UnaryStringProvider&lt; Calc &gt;</title>
<polygon fill="white" stroke="transparent" points="-4,4 -4,-256 584.47,-256 584.47,4 -4,4"/>
<!-- Node1 -->
<g id="node1" class="node">
<title>Node1</title>
<g id="a_node1"><a xlink:title=" ">
<polygon fill="#bfbfbf" stroke="black" points="56.47,-78.5 56.47,-108.5 190.47,-108.5 190.47,-78.5 56.47,-78.5"/>
<text text-anchor="start" x="64.47" y="-96.5" font-family="Helvetica,sans-Serif" font-size="10.00">joda::query::UnaryString</text>
<text text-anchor="middle" x="123.47" y="-85.5" font-family="Helvetica,sans-Serif" font-size="10.00">Provider&lt; Calc &gt;</text>
</a>
</g>
</g>
<!-- Node2 -->
<g id="node2" class="node">
<title>Node2</title>
<g id="a_node2"><a xlink:href="../../d4/df5/classjoda_1_1query_1_1IValueProvider.html" target="_top" xlink:title=" ">
<polygon fill="white" stroke="black" points="49.97,-165.5 49.97,-184.5 196.97,-184.5 196.97,-165.5 49.97,-165.5"/>
<text text-anchor="middle" x="123.47" y="-172.5" font-family="Helvetica,sans-Serif" font-size="10.00">joda::query::IValueProvider</text>
</a>
</g>
</g>
<!-- Node2&#45;&gt;Node1 -->
<g id="edge1" class="edge">
<title>Node2&#45;&gt;Node1</title>
<path fill="none" stroke="midnightblue" d="M123.47,-155.33C123.47,-141.01 123.47,-121.56 123.47,-108.54"/>
<polygon fill="midnightblue" stroke="midnightblue" points="119.97,-155.49 123.47,-165.49 126.97,-155.49 119.97,-155.49"/>
</g>
<!-- Node4 -->
<g id="node4" class="node">
<title>Node4</title>
<g id="a_node4"><a xlink:title=" ">
<polygon fill="white" stroke="#bfbfbf" points="208.97,-78.5 208.97,-108.5 345.97,-108.5 345.97,-78.5 208.97,-78.5"/>
<text text-anchor="start" x="216.97" y="-96.5" font-family="Helvetica,sans-Serif" font-size="10.00">std::unique_ptr&lt; joda</text>
<text text-anchor="middle" x="277.47" y="-85.5" font-family="Helvetica,sans-Serif" font-size="10.00">::query::IValueProvider &gt;</text>
</a>
</g>
</g>
<!-- Node2&#45;&gt;Node4 -->
<g id="edge4" class="edge">
<title>Node2&#45;&gt;Node4</title>
<path fill="none" stroke="#9a32cd" stroke-dasharray="5,2" d="M149.1,-160.77C177.08,-146.33 221.69,-123.3 250.27,-108.54"/>
<polygon fill="#9a32cd" stroke="#9a32cd" points="147.23,-157.79 139.95,-165.49 150.45,-164.01 147.23,-157.79"/>
<text text-anchor="middle" x="222.97" y="-134.5" font-family="Helvetica,sans-Serif" font-size="10.00"> ptr</text>
</g>
<!-- Node3 -->
<g id="node3" class="node">
<title>Node3</title>
<g id="a_node3"><a xlink:title=" ">
<polygon fill="white" stroke="#bfbfbf" points="177.47,-0.5 177.47,-30.5 377.47,-30.5 377.47,-0.5 177.47,-0.5"/>
<text text-anchor="start" x="185.47" y="-18.5" font-family="Helvetica,sans-Serif" font-size="10.00">std::vector&lt; std::unique</text>
<text text-anchor="middle" x="277.47" y="-7.5" font-family="Helvetica,sans-Serif" font-size="10.00">_ptr&lt; joda::query::IValueProvider &gt; &gt;</text>
</a>
</g>
</g>
<!-- Node3&#45;&gt;Node2 -->
<g id="edge2" class="edge">
<title>Node3&#45;&gt;Node2</title>
<path fill="none" stroke="#9a32cd" stroke-dasharray="5,2" d="M167.2,-27.72C101.76,-36.9 27.72,-52.62 7.47,-78 -23.18,-116.42 53.75,-150.18 96.78,-165.41"/>
<polygon fill="#9a32cd" stroke="#9a32cd" points="167.76,-31.17 177.2,-26.35 166.82,-24.23 167.76,-31.17"/>
<text text-anchor="middle" x="27.47" y="-91" font-family="Helvetica,sans-Serif" font-size="10.00"> params</text>
</g>
<!-- Node4&#45;&gt;Node3 -->
<g id="edge3" class="edge">
<title>Node4&#45;&gt;Node3</title>
<path fill="none" stroke="#9a32cd" stroke-dasharray="5,2" d="M277.47,-68.09C277.47,-55.76 277.47,-41.22 277.47,-30.73"/>
<polygon fill="#9a32cd" stroke="#9a32cd" points="273.97,-68.2 277.47,-78.2 280.97,-68.21 273.97,-68.2"/>
<text text-anchor="middle" x="301.97" y="-52" font-family="Helvetica,sans-Serif" font-size="10.00"> elements</text>
</g>
<!-- Node5 -->
<g id="node5" class="node">
<title>Node5</title>
<g id="a_node5"><a xlink:title="STL class.">
<polygon fill="white" stroke="#bfbfbf" points="238.47,-165.5 238.47,-184.5 356.47,-184.5 356.47,-165.5 238.47,-165.5"/>
<text text-anchor="middle" x="297.47" y="-172.5" font-family="Helvetica,sans-Serif" font-size="10.00">std::unique_ptr&lt; T &gt;</text>
</a>
</g>
</g>
<!-- Node5&#45;&gt;Node4 -->
<g id="edge5" class="edge">
<title>Node5&#45;&gt;Node4</title>
<path fill="none" stroke="orange" stroke-dasharray="5,2" d="M265.65,-160.09C260.77,-156.54 256.39,-152.21 253.47,-147 246.43,-134.41 254.9,-119.37 263.66,-108.62"/>
<polygon fill="orange" stroke="orange" points="263.82,-163.08 274.17,-165.35 267.5,-157.12 263.82,-163.08"/>
<text text-anchor="middle" x="331.97" y="-134.5" font-family="Helvetica,sans-Serif" font-size="10.00"> &lt; joda::query::IValueProvider &gt;</text>
</g>
<!-- Node6 -->
<g id="node6" class="node">
<title>Node6</title>
<g id="a_node6"><a xlink:title=" ">
<polygon fill="white" stroke="#bfbfbf" points="337.97,-232.5 337.97,-251.5 366.97,-251.5 366.97,-232.5 337.97,-232.5"/>
<text text-anchor="middle" x="352.47" y="-239.5" font-family="Helvetica,sans-Serif" font-size="10.00">T</text>
</a>
</g>
</g>
<!-- Node6&#45;&gt;Node5 -->
<g id="edge6" class="edge">
<title>Node6&#45;&gt;Node5</title>
<path fill="none" stroke="#9a32cd" stroke-dasharray="5,2" d="M338.32,-224.27C327.59,-211.6 313.3,-194.7 304.77,-184.63"/>
<polygon fill="#9a32cd" stroke="#9a32cd" points="335.92,-226.86 345.06,-232.23 341.27,-222.34 335.92,-226.86"/>
<text text-anchor="middle" x="335.97" y="-206" font-family="Helvetica,sans-Serif" font-size="10.00"> ptr</text>
</g>
<!-- Node7 -->
<g id="node7" class="node">
<title>Node7</title>
<g id="a_node7"><a xlink:title="STL class.">
<polygon fill="white" stroke="#bfbfbf" points="418.97,-127.5 418.97,-146.5 515.97,-146.5 515.97,-127.5 418.97,-127.5"/>
<text text-anchor="middle" x="467.47" y="-134.5" font-family="Helvetica,sans-Serif" font-size="10.00">std::vector&lt; T &gt;</text>
</a>
</g>
</g>
<!-- Node6&#45;&gt;Node7 -->
<g id="edge8" class="edge">
<title>Node6&#45;&gt;Node7</title>
<path fill="none" stroke="#9a32cd" stroke-dasharray="5,2" d="M369.77,-225.51C394.25,-203.58 438.19,-164.22 457.69,-146.76"/>
<polygon fill="#9a32cd" stroke="#9a32cd" points="367.39,-222.94 362.28,-232.22 372.06,-228.15 367.39,-222.94"/>
<text text-anchor="middle" x="416.97" y="-206" font-family="Helvetica,sans-Serif" font-size="10.00"> elements</text>
</g>
<!-- Node7&#45;&gt;Node3 -->
<g id="edge7" class="edge">
<title>Node7&#45;&gt;Node3</title>
<path fill="none" stroke="orange" stroke-dasharray="5,2" d="M445.22,-121.72C418.17,-104.39 371.1,-74.35 330.47,-49 320.77,-42.94 310.01,-36.33 300.74,-30.66"/>
<polygon fill="orange" stroke="orange" points="443.6,-124.84 453.91,-127.29 447.38,-118.94 443.6,-124.84"/>
<text text-anchor="start" x="423.47" y="-96.5" font-family="Helvetica,sans-Serif" font-size="10.00"> &lt; std::unique_ptr&lt;</text>
<text text-anchor="middle" x="501.97" y="-85.5" font-family="Helvetica,sans-Serif" font-size="10.00"> joda::query::IValueProvider &gt; &gt;</text>
</g>
</g>
</svg>
        <g id="navigator" transform="translate(0 0)" fill="#404254">
                <rect fill="#f2f5e9" fill-opacity="0.5" stroke="#606060" stroke-width=".5" x="0" y="0" width="60" height="60"/>
                <use id="zoomplus" xlink:href="#zoomPlus" x="17" y="9" onmousedown="handleZoom(evt,'in')"/>
                <use id="zoomminus" xlink:href="#zoomMin" x="42" y="9" onmousedown="handleZoom(evt,'out')"/>
                <use id="reset" xlink:href="#resetDef" x="30" y="36" onmousedown="handleReset()"/>
                <g id="arrowUp" xlink:href="#dirArrow" transform="translate(30 24)" onmousedown="handlePan(0,-1)">
                  <use xlink:href="#rim" fill="#404040">
                        <set attributeName="fill" to="#808080" begin="arrowUp.mouseover" end="arrowUp.mouseout"/>
                  </use>
                  <path fill="none" stroke="white" stroke-width="1.5" d="M0,-3.0v7 M-2.5,-0.5L0,-3.0L2.5,-0.5"/>
                </g>
                <g id="arrowRight" xlink:href="#dirArrow" transform="rotate(90) translate(36 -43)" onmousedown="handlePan(1,0)">
                  <use xlink:href="#rim" fill="#404040">
                        <set attributeName="fill" to="#808080" begin="arrowRight.mouseover" end="arrowRight.mouseout"/>
                  </use>
                  <path fill="none" stroke="white" stroke-width="1.5" d="M0,-3.0v7 M-2.5,-0.5L0,-3.0L2.5,-0.5"/>
                </g>
                <g id="arrowDown" xlink:href="#dirArrow" transform="rotate(180) translate(-30 -48)" onmousedown="handlePan(0,1)">
                  <use xlink:href="#rim" fill="#404040">
                        <set attributeName="fill" to="#808080" begin="arrowDown.mouseover" end="arrowDown.mouseout"/>
                  </use>
                  <path fill="none" stroke="white" stroke-width="1.5" d="M0,-3.0v7 M-2.5,-0.5L0,-3.0L2.5,-0.5"/>
                </g>
                <g id="arrowLeft" xlink:href="#dirArrow" transform="rotate(270) translate(-36 17)" onmousedown="handlePan(-1,0)">
                  <use xlink:href="#rim" fill="#404040">
                        <set attributeName="fill" to="#808080" begin="arrowLeft.mouseover" end="arrowLeft.mouseout"/>
                  </use>
                  <path fill="none" stroke="white" stroke-width="1.5" d="M0,-3.0v7 M-2.5,-0.5L0,-3.0L2.5,-0.5"/>
                </g>
        </g>
        <svg viewBox="0 0 15 15" width="100%" height="30px" preserveAspectRatio="xMaxYMin meet">
         <g id="arrow_out" transform="scale(0.3 0.3)">
          <a xlink:href="classjoda_1_1query_1_1UnaryStringProvider__coll__graph_org.svg" target="_base">
           <rect id="button" ry="5" rx="5" y="6" x="6" height="38" width="38"
                fill="#f2f5e9" fill-opacity="0.5" stroke="#606060" stroke-width="1.0"/>
           <path id="arrow"
             d="M 11.500037,31.436501 C 11.940474,20.09759 22.043105,11.32322 32.158766,21.979434 L 37.068811,17.246167 C 37.068811,17.246167 37.088388,32 37.088388,32 L 22.160133,31.978069 C 22.160133,31.978069 26.997745,27.140456 26.997745,27.140456 C 18.528582,18.264221 13.291696,25.230495 11.500037,31.436501 z"
             style="fill:#404040;"/>
          </a>
         </g>
        </svg>
</svg>
