<?xml version="1.0" encoding="UTF-8" standalone="no"?>
<!DOCTYPE svg PUBLIC "-//W3C//DTD SVG 1.1//EN"
 "http://www.w3.org/Graphics/SVG/1.1/DTD/svg11.dtd">
<!-- Generated by graphviz version 2.43.0 (0)
 -->
<!-- Title: /home/nico/projects/JODA&#45;gh/libs/joda/core/modules/storage/document/src/BloomAttributeHandler.h Pages: 1 -->
<svg width="345pt" height="150pt"
 viewBox="0.00 0.00 344.50 150.00" xmlns="http://www.w3.org/2000/svg" xmlns:xlink="http://www.w3.org/1999/xlink">
<g id="graph0" class="graph" transform="scale(1 1) rotate(0) translate(4 146)">
<title>/home/nico/projects/JODA&#45;gh/libs/joda/core/modules/storage/document/src/BloomAttributeHandler.h</title>
<polygon fill="white" stroke="transparent" points="-4,4 -4,-146 340.5,-146 340.5,4 -4,4"/>
<!-- Node1 -->
<g id="node1" class="node">
<title>Node1</title>
<g id="a_node1"><a xlink:title=" ">
<polygon fill="#bfbfbf" stroke="black" points="84,-89.5 84,-141.5 242,-141.5 242,-89.5 84,-89.5"/>
<text text-anchor="start" x="92" y="-129.5" font-family="Helvetica,sans-Serif" font-size="10.00">/home/nico/projects</text>
<text text-anchor="start" x="92" y="-118.5" font-family="Helvetica,sans-Serif" font-size="10.00">/JODA&#45;gh/libs/joda/core</text>
<text text-anchor="start" x="92" y="-107.5" font-family="Helvetica,sans-Serif" font-size="10.00">/modules/storage/document</text>
<text text-anchor="middle" x="163" y="-96.5" font-family="Helvetica,sans-Serif" font-size="10.00">/src/BloomAttributeHandler.h</text>
</a>
</g>
</g>
<!-- Node2 -->
<g id="node2" class="node">
<title>Node2</title>
<g id="a_node2"><a xlink:href="../../df/d5a/JSONContainer_8cpp.html" target="_top" xlink:title=" ">
<polygon fill="white" stroke="black" points="0,-0.5 0,-52.5 150,-52.5 150,-0.5 0,-0.5"/>
<text text-anchor="start" x="8" y="-40.5" font-family="Helvetica,sans-Serif" font-size="10.00">/home/nico/projects</text>
<text text-anchor="start" x="8" y="-29.5" font-family="Helvetica,sans-Serif" font-size="10.00">/JODA&#45;gh/libs/joda/core</text>
<text text-anchor="start" x="8" y="-18.5" font-family="Helvetica,sans-Serif" font-size="10.00">/modules/storage/container</text>
<text text-anchor="middle" x="75" y="-7.5" font-family="Helvetica,sans-Serif" font-size="10.00">/src/JSONContainer.cpp</text>
</a>
</g>
</g>
<!-- Node1&#45;&gt;Node2 -->
<g id="edge1" class="edge">
<title>Node1&#45;&gt;Node2</title>
<path fill="none" stroke="midnightblue" d="M130.2,-82.08C120.35,-72.34 109.69,-61.8 100.4,-52.61"/>
<polygon fill="midnightblue" stroke="midnightblue" points="127.97,-84.79 137.55,-89.34 132.9,-79.82 127.97,-84.79"/>
</g>
<!-- Node3 -->
<g id="node3" class="node">
<title>Node3</title>
<g id="a_node3"><a xlink:href="../../de/de8/BloomAttributeHandler_8cpp.html" target="_top" xlink:title=" ">
<polygon fill="white" stroke="black" points="167.5,-0.5 167.5,-52.5 336.5,-52.5 336.5,-0.5 167.5,-0.5"/>
<text text-anchor="start" x="175.5" y="-40.5" font-family="Helvetica,sans-Serif" font-size="10.00">/home/nico/projects</text>
<text text-anchor="start" x="175.5" y="-29.5" font-family="Helvetica,sans-Serif" font-size="10.00">/JODA&#45;gh/libs/joda/core</text>
<text text-anchor="start" x="175.5" y="-18.5" font-family="Helvetica,sans-Serif" font-size="10.00">/modules/storage/document</text>
<text text-anchor="middle" x="252" y="-7.5" font-family="Helvetica,sans-Serif" font-size="10.00">/src/BloomAttributeHandler.cpp</text>
</a>
</g>
</g>
<!-- Node1&#45;&gt;Node3 -->
<g id="edge2" class="edge">
<title>Node1&#45;&gt;Node3</title>
<path fill="none" stroke="midnightblue" d="M196.17,-82.08C206.13,-72.34 216.91,-61.8 226.32,-52.61"/>
<polygon fill="midnightblue" stroke="midnightblue" points="193.45,-79.84 188.74,-89.34 198.34,-84.85 193.45,-79.84"/>
</g>
</g>
</svg>
