<?xml version="1.0" encoding="UTF-8" standalone="no"?>
<!DOCTYPE svg PUBLIC "-//W3C//DTD SVG 1.1//EN"
 "http://www.w3.org/Graphics/SVG/1.1/DTD/svg11.dtd">
<!-- Generated by graphviz version 2.43.0 (0)
 -->
<!-- Title: /home/nico/projects/JODA&#45;gh/libs/joda/core/modules/query/predicate/include/joda/query/predicate/AttributeVisitor.h Pages: 1 -->
<svg width="358pt" height="161pt"
 viewBox="0.00 0.00 357.50 161.00" xmlns="http://www.w3.org/2000/svg" xmlns:xlink="http://www.w3.org/1999/xlink">
<g id="graph0" class="graph" transform="scale(1 1) rotate(0) translate(4 157)">
<title>/home/nico/projects/JODA&#45;gh/libs/joda/core/modules/query/predicate/include/joda/query/predicate/AttributeVisitor.h</title>
<polygon fill="white" stroke="transparent" points="-4,4 -4,-157 353.5,-157 353.5,4 -4,4"/>
<!-- Node1 -->
<g id="node1" class="node">
<title>Node1</title>
<g id="a_node1"><a xlink:title=" ">
<polygon fill="#bfbfbf" stroke="black" points="98,-89.5 98,-152.5 256,-152.5 256,-89.5 98,-89.5"/>
<text text-anchor="start" x="106" y="-140.5" font-family="Helvetica,sans-Serif" font-size="10.00">/home/nico/projects</text>
<text text-anchor="start" x="106" y="-129.5" font-family="Helvetica,sans-Serif" font-size="10.00">/JODA&#45;gh/libs/joda/core</text>
<text text-anchor="start" x="106" y="-118.5" font-family="Helvetica,sans-Serif" font-size="10.00">/modules/query/predicate</text>
<text text-anchor="start" x="106" y="-107.5" font-family="Helvetica,sans-Serif" font-size="10.00">/include/joda/query/predicate</text>
<text text-anchor="middle" x="177" y="-96.5" font-family="Helvetica,sans-Serif" font-size="10.00">/AttributeVisitor.h</text>
</a>
</g>
</g>
<!-- Node2 -->
<g id="node2" class="node">
<title>Node2</title>
<g id="a_node2"><a xlink:href="../../d8/d59/AttributeVisitor_8cpp.html" target="_top" xlink:title=" ">
<polygon fill="white" stroke="black" points="0,-0.5 0,-52.5 170,-52.5 170,-0.5 0,-0.5"/>
<text text-anchor="start" x="8" y="-40.5" font-family="Helvetica,sans-Serif" font-size="10.00">/home/nico/projects</text>
<text text-anchor="start" x="8" y="-29.5" font-family="Helvetica,sans-Serif" font-size="10.00">/JODA&#45;gh/libs/joda/core</text>
<text text-anchor="start" x="8" y="-18.5" font-family="Helvetica,sans-Serif" font-size="10.00">/modules/query/predicate</text>
<text text-anchor="middle" x="85" y="-7.5" font-family="Helvetica,sans-Serif" font-size="10.00">/src/visitors/AttributeVisitor.cpp</text>
</a>
</g>
</g>
<!-- Node1&#45;&gt;Node2 -->
<g id="edge1" class="edge">
<title>Node1&#45;&gt;Node2</title>
<path fill="none" stroke="midnightblue" d="M139.54,-82.33C129.64,-72.38 119.2,-61.88 110.13,-52.77"/>
<polygon fill="midnightblue" stroke="midnightblue" points="137.09,-84.83 146.62,-89.46 142.05,-79.9 137.09,-84.83"/>
</g>
<!-- Node3 -->
<g id="node3" class="node">
<title>Node3</title>
<g id="a_node3"><a xlink:href="../../de/d9f/Query_8cpp.html" target="_top" xlink:title=" ">
<polygon fill="white" stroke="black" points="188.5,-6 188.5,-47 349.5,-47 349.5,-6 188.5,-6"/>
<text text-anchor="start" x="196.5" y="-35" font-family="Helvetica,sans-Serif" font-size="10.00">/home/nico/projects</text>
<text text-anchor="start" x="196.5" y="-24" font-family="Helvetica,sans-Serif" font-size="10.00">/JODA&#45;gh/libs/joda/core</text>
<text text-anchor="middle" x="269" y="-13" font-family="Helvetica,sans-Serif" font-size="10.00">/modules/query/src/Query.cpp</text>
</a>
</g>
</g>
<!-- Node1&#45;&gt;Node3 -->
<g id="edge2" class="edge">
<title>Node1&#45;&gt;Node3</title>
<path fill="none" stroke="midnightblue" d="M214.66,-82.13C226.57,-70.16 239.25,-57.41 249.36,-47.25"/>
<polygon fill="midnightblue" stroke="midnightblue" points="211.95,-79.9 207.38,-89.46 216.91,-84.83 211.95,-79.9"/>
</g>
</g>
</svg>
