<?xml version="1.0" encoding="UTF-8" standalone="no"?>
<!DOCTYPE svg PUBLIC "-//W3C//DTD SVG 1.1//EN"
 "http://www.w3.org/Graphics/SVG/1.1/DTD/svg11.dtd">
<!-- Generated by graphviz version 2.43.0 (0)
 -->
<!-- Title: /home/nico/joda_tmp/tmp&#45;joda&#45;dirs/JODA&#45;gh/libs/joda/core/modules/query/values/src/SeqNumberProvider.cpp Pages: 1 -->
<!--zoomable 609 -->
<svg id="main" version="1.1" xmlns="http://www.w3.org/2000/svg" xmlns:xlink="http://www.w3.org/1999/xlink" xml:space="preserve" onload="init(evt)">
<style type="text/css"><![CDATA[
.edge:hover path { stroke: red; }
.edge:hover polygon { stroke: red; fill: red; }
]]></style>
<script type="text/javascript"><![CDATA[
var edges = document.getElementsByTagName('g');
if (edges && edges.length) {
  for (var i=0;i<edges.length;i++) {
    if (edges[i].id.substr(0,4)=='edge') {
      edges[i].setAttribute('class','edge');
    }
  }
}
]]></script>
        <defs>
                <circle id="rim" cx="0" cy="0" r="7"/>
                <circle id="rim2" cx="0" cy="0" r="3.5"/>
                <g id="zoomPlus">
                        <use xlink:href="#rim" fill="#404040">
                                <set attributeName="fill" to="#808080" begin="zoomplus.mouseover" end="zoomplus.mouseout"/>
                        </use>
                        <path d="M-4,0h8M0,-4v8" fill="none" stroke="white" stroke-width="1.5" pointer-events="none"/>
                </g>
                <g id="zoomMin">
                        <use xlink:href="#rim" fill="#404040">
                                <set attributeName="fill" to="#808080" begin="zoomminus.mouseover" end="zoomminus.mouseout"/>
                        </use>
                        <path d="M-4,0h8" fill="none" stroke="white" stroke-width="1.5" pointer-events="none"/>
                </g>
                <g id="dirArrow">
                        <path fill="none" stroke="white" stroke-width="1.5" d="M0,-3.0v7 M-2.5,-0.5L0,-3.0L2.5,-0.5"/>
                </g>
               <g id="resetDef">
                       <use xlink:href="#rim2" fill="#404040">
                               <set attributeName="fill" to="#808080" begin="reset.mouseover" end="reset.mouseout"/>
                       </use>
               </g>
        </defs>

<script type="text/javascript">
var viewWidth = 1704;
var viewHeight = 609;
var sectionId = 'dynsection-0';
</script>
<script xlink:href="../../svgpan.js"/>
<svg id="graph" class="graph">
<g id="viewport">
<title>/home/nico/joda_tmp/tmp&#45;joda&#45;dirs/JODA&#45;gh/libs/joda/core/modules/query/values/src/SeqNumberProvider.cpp</title>
<polygon fill="white" stroke="transparent" points="-4,4 -4,-605 1699.5,-605 1699.5,4 -4,4"/>
<!-- Node1 -->
<g id="node1" class="node">
<title>Node1</title>
<g id="a_node1"><a xlink:title=" ">
<polygon fill="#bfbfbf" stroke="black" points="1475.5,-548.5 1475.5,-600.5 1695.5,-600.5 1695.5,-548.5 1475.5,-548.5"/>
<text text-anchor="start" x="1483.5" y="-588.5" font-family="Helvetica,sans-Serif" font-size="10.00">/home/nico/joda_tmp</text>
<text text-anchor="start" x="1483.5" y="-577.5" font-family="Helvetica,sans-Serif" font-size="10.00">/tmp&#45;joda&#45;dirs/JODA</text>
<text text-anchor="start" x="1483.5" y="-566.5" font-family="Helvetica,sans-Serif" font-size="10.00">&#45;gh/libs/joda/core/modules</text>
<text text-anchor="middle" x="1585.5" y="-555.5" font-family="Helvetica,sans-Serif" font-size="10.00">/query/values/src/SeqNumberProvider.cpp</text>
</a>
</g>
</g>
<!-- Node2 -->
<g id="node2" class="node">
<title>Node2</title>
<g id="a_node2"><a xlink:title=" ">
<polygon fill="white" stroke="#bfbfbf" points="1101,-179.5 1101,-198.5 1146,-198.5 1146,-179.5 1101,-179.5"/>
<text text-anchor="middle" x="1123.5" y="-186.5" font-family="Helvetica,sans-Serif" font-size="10.00">utility</text>
</a>
</g>
</g>
<!-- Node1&#45;&gt;Node2 -->
<g id="edge1" class="edge">
<title>Node1&#45;&gt;Node2</title>
<path fill="none" stroke="midnightblue" d="M1604.37,-548.24C1611.18,-537.62 1618.04,-524.78 1621.5,-512 1625.11,-498.7 1624.77,-494.38 1621.5,-481 1600.23,-393.91 1598.17,-358.42 1528.5,-302 1469.86,-254.51 1241.52,-210.64 1156.04,-195.54"/>
<polygon fill="midnightblue" stroke="midnightblue" points="1156.57,-192.08 1146.12,-193.81 1155.36,-198.98 1156.57,-192.08"/>
</g>
<!-- Node3 -->
<g id="node3" class="node">
<title>Node3</title>
<g id="a_node3"><a xlink:href="../../dd/d7b/SeqNumberProvider_8h.html" target="_top" xlink:title=" ">
<polygon fill="white" stroke="black" points="1451,-481.5 1451,-511.5 1612,-511.5 1612,-481.5 1451,-481.5"/>
<text text-anchor="start" x="1459" y="-499.5" font-family="Helvetica,sans-Serif" font-size="10.00">../include/joda/query</text>
<text text-anchor="middle" x="1531.5" y="-488.5" font-family="Helvetica,sans-Serif" font-size="10.00">/values/SeqNumberProvider.h</text>
</a>
</g>
</g>
<!-- Node1&#45;&gt;Node3 -->
<g id="edge2" class="edge">
<title>Node1&#45;&gt;Node3</title>
<path fill="none" stroke="midnightblue" d="M1567.52,-548.19C1561.08,-539.13 1553.86,-528.97 1547.59,-520.14"/>
<polygon fill="midnightblue" stroke="midnightblue" points="1550.34,-517.97 1541.69,-511.85 1544.63,-522.02 1550.34,-517.97"/>
</g>
<!-- Node4 -->
<g id="node4" class="node">
<title>Node4</title>
<g id="a_node4"><a xlink:title=" ">
<polygon fill="white" stroke="#bfbfbf" points="1469.5,-308 1469.5,-327 1519.5,-327 1519.5,-308 1469.5,-308"/>
<text text-anchor="middle" x="1494.5" y="-315" font-family="Helvetica,sans-Serif" font-size="10.00">atomic</text>
</a>
</g>
</g>
<!-- Node3&#45;&gt;Node4 -->
<g id="edge3" class="edge">
<title>Node3&#45;&gt;Node4</title>
<path fill="none" stroke="midnightblue" d="M1528.53,-481.31C1521.91,-449.63 1505.92,-373.11 1498.45,-337.42"/>
<polygon fill="midnightblue" stroke="midnightblue" points="1501.83,-336.45 1496.36,-327.37 1494.98,-337.88 1501.83,-336.45"/>
</g>
<!-- Node5 -->
<g id="node5" class="node">
<title>Node5</title>
<g id="a_node5"><a xlink:href="../../dd/d50/IValueProvider_8h.html" target="_top" xlink:title=" ">
<polygon fill="white" stroke="black" points="1165,-425.5 1165,-444.5 1260,-444.5 1260,-425.5 1165,-425.5"/>
<text text-anchor="middle" x="1212.5" y="-432.5" font-family="Helvetica,sans-Serif" font-size="10.00">IValueProvider.h</text>
</a>
</g>
</g>
<!-- Node3&#45;&gt;Node5 -->
<g id="edge4" class="edge">
<title>Node3&#45;&gt;Node5</title>
<path fill="none" stroke="midnightblue" d="M1456.31,-481.47C1398.63,-470.72 1320.31,-456.11 1268.17,-446.38"/>
<polygon fill="midnightblue" stroke="midnightblue" points="1268.58,-442.9 1258.11,-444.51 1267.29,-449.78 1268.58,-442.9"/>
</g>
<!-- Node6 -->
<g id="node6" class="node">
<title>Node6</title>
<g id="a_node6"><a xlink:title=" ">
<polygon fill="white" stroke="#bfbfbf" points="799.5,-0.5 799.5,-19.5 885.5,-19.5 885.5,-0.5 799.5,-0.5"/>
<text text-anchor="middle" x="842.5" y="-7.5" font-family="Helvetica,sans-Serif" font-size="10.00">glog/logging.h</text>
</a>
</g>
</g>
<!-- Node5&#45;&gt;Node6 -->
<g id="edge5" class="edge">
<title>Node5&#45;&gt;Node6</title>
<path fill="none" stroke="midnightblue" d="M1164.77,-434.19C1007.56,-434.38 507.29,-431.56 352.5,-389 287.61,-371.16 218.5,-385.8 218.5,-318.5 218.5,-318.5 218.5,-318.5 218.5,-121 218.5,-82.28 241.82,-73.22 276.5,-56 365.51,-11.81 665.4,-9.31 788.79,-10.25"/>
<polygon fill="midnightblue" stroke="midnightblue" points="789.09,-13.75 799.12,-10.34 789.15,-6.75 789.09,-13.75"/>
</g>
<!-- Node7 -->
<g id="node7" class="node">
<title>Node7</title>
<g id="a_node7"><a xlink:title=" ">
<polygon fill="white" stroke="#bfbfbf" points="1437.5,-0.5 1437.5,-19.5 1559.5,-19.5 1559.5,-0.5 1437.5,-0.5"/>
<text text-anchor="middle" x="1498.5" y="-7.5" font-family="Helvetica,sans-Serif" font-size="10.00">rapidjson/document.h</text>
</a>
</g>
</g>
<!-- Node5&#45;&gt;Node7 -->
<g id="edge6" class="edge">
<title>Node5&#45;&gt;Node7</title>
<path fill="none" stroke="midnightblue" d="M1260.1,-430.95C1309.23,-426.45 1387.26,-415.47 1449.5,-389 1489.1,-372.16 1508.74,-371.23 1528.5,-333 1582.41,-228.7 1528.22,-79.93 1506.57,-28.94"/>
<polygon fill="midnightblue" stroke="midnightblue" points="1509.7,-27.37 1502.5,-19.6 1503.29,-30.16 1509.7,-27.37"/>
</g>
<!-- Node8 -->
<g id="node8" class="node">
<title>Node8</title>
<g id="a_node8"><a xlink:title=" ">
<polygon fill="white" stroke="#bfbfbf" points="1578,-0.5 1578,-19.5 1669,-19.5 1669,-0.5 1578,-0.5"/>
<text text-anchor="middle" x="1623.5" y="-7.5" font-family="Helvetica,sans-Serif" font-size="10.00">rapidjson/fwd.h</text>
</a>
</g>
</g>
<!-- Node5&#45;&gt;Node8 -->
<g id="edge7" class="edge">
<title>Node5&#45;&gt;Node8</title>
<path fill="none" stroke="midnightblue" d="M1260.05,-434.64C1368.24,-433.36 1623.5,-413.74 1623.5,-257 1623.5,-257 1623.5,-257 1623.5,-121 1623.5,-88.95 1623.5,-51.64 1623.5,-29.75"/>
<polygon fill="midnightblue" stroke="midnightblue" points="1627,-29.56 1623.5,-19.56 1620,-29.56 1627,-29.56"/>
</g>
<!-- Node9 -->
<g id="node9" class="node">
<title>Node9</title>
<g id="a_node9"><a xlink:title=" ">
<polygon fill="white" stroke="#bfbfbf" points="0,-369.5 0,-388.5 47,-388.5 47,-369.5 0,-369.5"/>
<text text-anchor="middle" x="23.5" y="-376.5" font-family="Helvetica,sans-Serif" font-size="10.00">cmath</text>
</a>
</g>
</g>
<!-- Node5&#45;&gt;Node9 -->
<g id="edge8" class="edge">
<title>Node5&#45;&gt;Node9</title>
<path fill="none" stroke="midnightblue" d="M1164.88,-433.64C978.05,-432 294.28,-423.8 57.07,-388.84"/>
<polygon fill="midnightblue" stroke="midnightblue" points="57.54,-385.37 47.13,-387.31 56.48,-392.29 57.54,-385.37"/>
</g>
<!-- Node10 -->
<g id="node10" class="node">
<title>Node10</title>
<g id="a_node10"><a xlink:title=" ">
<polygon fill="white" stroke="#bfbfbf" points="65,-369.5 65,-388.5 190,-388.5 190,-369.5 65,-369.5"/>
<text text-anchor="middle" x="127.5" y="-376.5" font-family="Helvetica,sans-Serif" font-size="10.00">experimental/optional</text>
</a>
</g>
</g>
<!-- Node5&#45;&gt;Node10 -->
<g id="edge9" class="edge">
<title>Node5&#45;&gt;Node10</title>
<path fill="none" stroke="midnightblue" d="M1164.93,-433.09C1020.38,-430.06 573.58,-418.77 204.5,-389 203.03,-388.88 201.55,-388.76 200.06,-388.63"/>
<polygon fill="midnightblue" stroke="midnightblue" points="200.36,-385.14 190.08,-387.69 199.71,-392.11 200.36,-385.14"/>
</g>
<!-- Node11 -->
<g id="node11" class="node">
<title>Node11</title>
<g id="a_node11"><a xlink:title=" ">
<polygon fill="white" stroke="#bfbfbf" points="1088.5,-112.5 1088.5,-131.5 1146.5,-131.5 1146.5,-112.5 1088.5,-112.5"/>
<text text-anchor="middle" x="1117.5" y="-119.5" font-family="Helvetica,sans-Serif" font-size="10.00">memory</text>
</a>
</g>
</g>
<!-- Node5&#45;&gt;Node11 -->
<g id="edge10" class="edge">
<title>Node5&#45;&gt;Node11</title>
<path fill="none" stroke="midnightblue" d="M1212.5,-425.31C1212.5,-406.06 1212.5,-358.4 1212.5,-318.5 1212.5,-318.5 1212.5,-318.5 1212.5,-255 1212.5,-212.98 1201.15,-201.28 1175.5,-168 1166.08,-155.77 1152.59,-145.04 1140.99,-137.13"/>
<polygon fill="midnightblue" stroke="midnightblue" points="1142.87,-134.18 1132.58,-131.65 1139.05,-140.04 1142.87,-134.18"/>
</g>
<!-- Node12 -->
<g id="node12" class="node">
<title>Node12</title>
<g id="a_node12"><a xlink:title=" ">
<polygon fill="white" stroke="#bfbfbf" points="593.5,-56.5 593.5,-75.5 637.5,-75.5 637.5,-56.5 593.5,-56.5"/>
<text text-anchor="middle" x="615.5" y="-63.5" font-family="Helvetica,sans-Serif" font-size="10.00">string</text>
</a>
</g>
</g>
<!-- Node5&#45;&gt;Node12 -->
<g id="edge11" class="edge">
<title>Node5&#45;&gt;Node12</title>
<path fill="none" stroke="midnightblue" d="M1164.76,-433.31C971.38,-429.9 256.5,-411.02 256.5,-318.5 256.5,-318.5 256.5,-318.5 256.5,-188 256.5,-133.93 302.17,-134.14 351.5,-112 429.52,-76.99 531.7,-69.06 583.05,-67.37"/>
<polygon fill="midnightblue" stroke="midnightblue" points="583.31,-70.86 593.21,-67.09 583.12,-63.86 583.31,-70.86"/>
</g>
<!-- Node13 -->
<g id="node13" class="node">
<title>Node13</title>
<g id="a_node13"><a xlink:href="../../d1/dfd/RapidJsonDocument_8h.html" target="_top" xlink:title=" ">
<polygon fill="white" stroke="black" points="1240.5,-369.5 1240.5,-388.5 1440.5,-388.5 1440.5,-369.5 1240.5,-369.5"/>
<text text-anchor="middle" x="1340.5" y="-376.5" font-family="Helvetica,sans-Serif" font-size="10.00">joda/document/RapidJsonDocument.h</text>
</a>
</g>
</g>
<!-- Node5&#45;&gt;Node13 -->
<g id="edge12" class="edge">
<title>Node5&#45;&gt;Node13</title>
<path fill="none" stroke="midnightblue" d="M1232.78,-425.44C1253.85,-416.56 1287.02,-402.56 1310.99,-392.45"/>
<polygon fill="midnightblue" stroke="midnightblue" points="1312.46,-395.63 1320.31,-388.52 1309.74,-389.18 1312.46,-395.63"/>
</g>
<!-- Node13&#45;&gt;Node4 -->
<g id="edge53" class="edge">
<title>Node13&#45;&gt;Node4</title>
<path fill="none" stroke="midnightblue" d="M1362.56,-369.48C1388.87,-359.31 1433.01,-342.26 1462.92,-330.7"/>
<polygon fill="midnightblue" stroke="midnightblue" points="1464.41,-333.88 1472.48,-327.01 1461.89,-327.35 1464.41,-333.88"/>
</g>
<!-- Node13&#45;&gt;Node8 -->
<g id="edge52" class="edge">
<title>Node13&#45;&gt;Node8</title>
<path fill="none" stroke="midnightblue" d="M1351.45,-369.3C1362.01,-360.65 1378.16,-346.72 1390.5,-333 1487.15,-225.47 1581.68,-78.25 1612.81,-28.35"/>
<polygon fill="midnightblue" stroke="midnightblue" points="1615.87,-30.05 1618.17,-19.71 1609.93,-26.36 1615.87,-30.05"/>
</g>
<!-- Node13&#45;&gt;Node11 -->
<g id="edge54" class="edge">
<title>Node13&#45;&gt;Node11</title>
<path fill="none" stroke="midnightblue" d="M1336.6,-369.02C1320.78,-332.89 1260.58,-198.65 1226.5,-168 1215.25,-157.88 1180.64,-144.44 1153.4,-134.89"/>
<polygon fill="midnightblue" stroke="midnightblue" points="1154.35,-131.52 1143.76,-131.56 1152.07,-138.13 1154.35,-131.52"/>
</g>
<!-- Node14 -->
<g id="node14" class="node">
<title>Node14</title>
<g id="a_node14"><a xlink:href="../../d2/d0d/ViewLayer_8h.html" target="_top" xlink:title=" ">
<polygon fill="white" stroke="black" points="767.5,-302.5 767.5,-332.5 883.5,-332.5 883.5,-302.5 767.5,-302.5"/>
<text text-anchor="start" x="775.5" y="-320.5" font-family="Helvetica,sans-Serif" font-size="10.00">joda/document/view</text>
<text text-anchor="middle" x="825.5" y="-309.5" font-family="Helvetica,sans-Serif" font-size="10.00">/ViewLayer.h</text>
</a>
</g>
</g>
<!-- Node13&#45;&gt;Node14 -->
<g id="edge13" class="edge">
<title>Node13&#45;&gt;Node14</title>
<path fill="none" stroke="midnightblue" d="M1266.71,-369.48C1166.92,-357.95 990.31,-337.54 893.56,-326.36"/>
<polygon fill="midnightblue" stroke="midnightblue" points="893.93,-322.88 883.6,-325.21 893.13,-329.84 893.93,-322.88"/>
</g>
<!-- Node17 -->
<g id="node17" class="node">
<title>Node17</title>
<g id="a_node17"><a xlink:href="../../d6/d09/RJFwd_8h.html" target="_top" xlink:title=" ">
<polygon fill="white" stroke="black" points="1187.5,-56.5 1187.5,-75.5 1293.5,-75.5 1293.5,-56.5 1187.5,-56.5"/>
<text text-anchor="middle" x="1240.5" y="-63.5" font-family="Helvetica,sans-Serif" font-size="10.00">joda/misc/RJFwd.h</text>
</a>
</g>
</g>
<!-- Node13&#45;&gt;Node17 -->
<g id="edge66" class="edge">
<title>Node13&#45;&gt;Node17</title>
<path fill="none" stroke="midnightblue" d="M1343.84,-369.13C1356.78,-333.09 1400.09,-195.57 1341.5,-112 1330.3,-96.02 1312.06,-85.63 1294.15,-78.92"/>
<polygon fill="midnightblue" stroke="midnightblue" points="1294.87,-75.47 1284.27,-75.56 1292.61,-82.1 1294.87,-75.47"/>
</g>
<!-- Node18 -->
<g id="node18" class="node">
<title>Node18</title>
<g id="a_node18"><a xlink:title=" ">
<polygon fill="white" stroke="#bfbfbf" points="1297.5,-0.5 1297.5,-19.5 1419.5,-19.5 1419.5,-0.5 1297.5,-0.5"/>
<text text-anchor="middle" x="1358.5" y="-7.5" font-family="Helvetica,sans-Serif" font-size="10.00">rapidjson/allocators.h</text>
</a>
</g>
</g>
<!-- Node13&#45;&gt;Node18 -->
<g id="edge51" class="edge">
<title>Node13&#45;&gt;Node18</title>
<path fill="none" stroke="midnightblue" d="M1348.44,-369.42C1355.9,-360.87 1366.74,-347.01 1372.5,-333 1383.98,-305.09 1381.05,-296.08 1383.5,-266 1390.72,-177.46 1371.46,-71.89 1362.64,-29.73"/>
<polygon fill="midnightblue" stroke="midnightblue" points="1366.03,-28.84 1360.51,-19.8 1359.19,-30.31 1366.03,-28.84"/>
</g>
<!-- Node32 -->
<g id="node32" class="node">
<title>Node32</title>
<g id="a_node32"><a xlink:href="../../df/d13/FileNameRepo_8h.html" target="_top" xlink:title=" ">
<polygon fill="white" stroke="black" points="323,-168.5 323,-209.5 478,-209.5 478,-168.5 323,-168.5"/>
<text text-anchor="start" x="331" y="-197.5" font-family="Helvetica,sans-Serif" font-size="10.00">../../../../../misc</text>
<text text-anchor="start" x="331" y="-186.5" font-family="Helvetica,sans-Serif" font-size="10.00">/include/joda/misc/FileName</text>
<text text-anchor="middle" x="400.5" y="-175.5" font-family="Helvetica,sans-Serif" font-size="10.00">Repo.h</text>
</a>
</g>
</g>
<!-- Node13&#45;&gt;Node32 -->
<g id="edge55" class="edge">
<title>Node13&#45;&gt;Node32</title>
<path fill="none" stroke="midnightblue" d="M1240.37,-373.93C1005.74,-363.34 436.07,-331.12 381.5,-266 370.5,-252.88 374.92,-234.29 382.24,-218.78"/>
<polygon fill="midnightblue" stroke="midnightblue" points="385.51,-220.07 387.07,-209.59 379.32,-216.82 385.51,-220.07"/>
</g>
<!-- Node34 -->
<g id="node34" class="node">
<title>Node34</title>
<g id="a_node34"><a xlink:href="../../d5/d6c/IOrigin_8h.html" target="_top" xlink:title=" ">
<polygon fill="white" stroke="black" points="1278.5,-179.5 1278.5,-198.5 1336.5,-198.5 1336.5,-179.5 1278.5,-179.5"/>
<text text-anchor="middle" x="1307.5" y="-186.5" font-family="Helvetica,sans-Serif" font-size="10.00">IOrigin.h</text>
</a>
</g>
</g>
<!-- Node13&#45;&gt;Node34 -->
<g id="edge61" class="edge">
<title>Node13&#45;&gt;Node34</title>
<path fill="none" stroke="midnightblue" d="M1339,-369.43C1333.98,-340.87 1317.76,-248.43 1310.76,-208.57"/>
<polygon fill="midnightblue" stroke="midnightblue" points="1314.19,-207.86 1309.01,-198.62 1307.29,-209.07 1314.19,-207.86"/>
</g>
<!-- Node14&#45;&gt;Node6 -->
<g id="edge14" class="edge">
<title>Node14&#45;&gt;Node6</title>
<path fill="none" stroke="midnightblue" d="M826.3,-302.17C829.07,-252.28 838.32,-86.15 841.45,-29.85"/>
<polygon fill="midnightblue" stroke="midnightblue" points="844.96,-29.76 842.02,-19.58 837.97,-29.37 844.96,-29.76"/>
</g>
<!-- Node15 -->
<g id="node15" class="node">
<title>Node15</title>
<g id="a_node15"><a xlink:href="../../db/d16/config_8h.html" target="_top" xlink:title=" ">
<polygon fill="white" stroke="black" points="399,-246.5 399,-265.5 510,-265.5 510,-246.5 399,-246.5"/>
<text text-anchor="middle" x="454.5" y="-253.5" font-family="Helvetica,sans-Serif" font-size="10.00">joda/config/config.h</text>
</a>
</g>
</g>
<!-- Node14&#45;&gt;Node15 -->
<g id="edge15" class="edge">
<title>Node14&#45;&gt;Node15</title>
<path fill="none" stroke="midnightblue" d="M767.12,-307.14C699.24,-296.25 587.61,-278.35 517.72,-267.14"/>
<polygon fill="midnightblue" stroke="midnightblue" points="518.16,-263.66 507.73,-265.54 517.05,-270.58 518.16,-263.66"/>
</g>
<!-- Node14&#45;&gt;Node17 -->
<g id="edge18" class="edge">
<title>Node14&#45;&gt;Node17</title>
<path fill="none" stroke="midnightblue" d="M883.74,-313.71C962.11,-308.85 1096.04,-296.26 1133.5,-266 1168.22,-237.95 1179.37,-205.72 1155.5,-168 1135.51,-136.42 1099.49,-163.58 1079.5,-132 1074.75,-124.49 1074.13,-119.08 1079.5,-112 1091.63,-96.01 1137.63,-84.17 1177.37,-76.65"/>
<polygon fill="midnightblue" stroke="midnightblue" points="1178.11,-80.08 1187.32,-74.84 1176.85,-73.19 1178.11,-80.08"/>
</g>
<!-- Node21 -->
<g id="node21" class="node">
<title>Node21</title>
<g id="a_node21"><a xlink:title=" ">
<polygon fill="white" stroke="#bfbfbf" points="567,-246.5 567,-265.5 696,-265.5 696,-246.5 567,-246.5"/>
<text text-anchor="middle" x="631.5" y="-253.5" font-family="Helvetica,sans-Serif" font-size="10.00">rapidjson/stringbuffer.h</text>
</a>
</g>
</g>
<!-- Node14&#45;&gt;Node21 -->
<g id="edge25" class="edge">
<title>Node14&#45;&gt;Node21</title>
<path fill="none" stroke="midnightblue" d="M779.52,-302.4C745.86,-292.07 700.72,-278.23 669.18,-268.56"/>
<polygon fill="midnightblue" stroke="midnightblue" points="670.03,-265.16 659.45,-265.57 667.98,-271.85 670.03,-265.16"/>
</g>
<!-- Node22 -->
<g id="node22" class="node">
<title>Node22</title>
<g id="a_node22"><a xlink:title=" ">
<polygon fill="white" stroke="#bfbfbf" points="714.5,-246.5 714.5,-265.5 778.5,-265.5 778.5,-246.5 714.5,-246.5"/>
<text text-anchor="middle" x="746.5" y="-253.5" font-family="Helvetica,sans-Serif" font-size="10.00">algorithm</text>
</a>
</g>
</g>
<!-- Node14&#45;&gt;Node22 -->
<g id="edge26" class="edge">
<title>Node14&#45;&gt;Node22</title>
<path fill="none" stroke="midnightblue" d="M806.78,-302.4C794.59,-293.22 778.71,-281.26 766.31,-271.92"/>
<polygon fill="midnightblue" stroke="midnightblue" points="768.09,-268.88 758,-265.66 763.88,-274.47 768.09,-268.88"/>
</g>
<!-- Node23 -->
<g id="node23" class="node">
<title>Node23</title>
<g id="a_node23"><a xlink:title=" ">
<polygon fill="white" stroke="#bfbfbf" points="502.5,-112.5 502.5,-131.5 550.5,-131.5 550.5,-112.5 502.5,-112.5"/>
<text text-anchor="middle" x="526.5" y="-119.5" font-family="Helvetica,sans-Serif" font-size="10.00">mutex</text>
</a>
</g>
</g>
<!-- Node14&#45;&gt;Node23 -->
<g id="edge27" class="edge">
<title>Node14&#45;&gt;Node23</title>
<path fill="none" stroke="midnightblue" d="M767.24,-313.99C654.25,-308.52 414.21,-293.74 389.5,-266 383.59,-259.36 384.42,-253.3 389.5,-246 415.76,-208.25 452.78,-241.26 486.5,-210 506.46,-191.49 517.26,-161.06 522.44,-141.53"/>
<polygon fill="midnightblue" stroke="midnightblue" points="525.87,-142.25 524.82,-131.71 519.06,-140.61 525.87,-142.25"/>
</g>
<!-- Node24 -->
<g id="node24" class="node">
<title>Node24</title>
<g id="a_node24"><a xlink:title=" ">
<polygon fill="white" stroke="#bfbfbf" points="286,-56.5 286,-75.5 379,-75.5 379,-56.5 286,-56.5"/>
<text text-anchor="middle" x="332.5" y="-63.5" font-family="Helvetica,sans-Serif" font-size="10.00">unordered_map</text>
</a>
</g>
</g>
<!-- Node14&#45;&gt;Node24 -->
<g id="edge28" class="edge">
<title>Node14&#45;&gt;Node24</title>
<path fill="none" stroke="midnightblue" d="M767.36,-313.98C663.29,-308.8 449.71,-294.93 381.5,-266 345.46,-250.71 330.21,-245.41 313.5,-210 293.88,-168.43 312.16,-112.96 324.08,-84.89"/>
<polygon fill="midnightblue" stroke="midnightblue" points="327.37,-86.12 328.25,-75.56 320.97,-83.26 327.37,-86.12"/>
</g>
<!-- Node25 -->
<g id="node25" class="node">
<title>Node25</title>
<g id="a_node25"><a xlink:title=" ">
<polygon fill="white" stroke="#bfbfbf" points="873,-246.5 873,-265.5 924,-265.5 924,-246.5 873,-246.5"/>
<text text-anchor="middle" x="898.5" y="-253.5" font-family="Helvetica,sans-Serif" font-size="10.00">variant</text>
</a>
</g>
</g>
<!-- Node14&#45;&gt;Node25 -->
<g id="edge29" class="edge">
<title>Node14&#45;&gt;Node25</title>
<path fill="none" stroke="midnightblue" d="M842.8,-302.4C853.95,-293.31 868.45,-281.49 879.86,-272.19"/>
<polygon fill="midnightblue" stroke="midnightblue" points="882.34,-274.69 887.88,-265.66 877.92,-269.26 882.34,-274.69"/>
</g>
<!-- Node26 -->
<g id="node26" class="node">
<title>Node26</title>
<g id="a_node26"><a xlink:title=" ">
<polygon fill="white" stroke="#bfbfbf" points="942.5,-246.5 942.5,-265.5 998.5,-265.5 998.5,-246.5 942.5,-246.5"/>
<text text-anchor="middle" x="970.5" y="-253.5" font-family="Helvetica,sans-Serif" font-size="10.00">optional</text>
</a>
</g>
</g>
<!-- Node14&#45;&gt;Node26 -->
<g id="edge30" class="edge">
<title>Node14&#45;&gt;Node26</title>
<path fill="none" stroke="midnightblue" d="M859.86,-302.4C884.19,-292.42 916.53,-279.15 939.96,-269.53"/>
<polygon fill="midnightblue" stroke="midnightblue" points="941.48,-272.69 949.4,-265.66 938.82,-266.22 941.48,-272.69"/>
</g>
<!-- Node27 -->
<g id="node27" class="node">
<title>Node27</title>
<g id="a_node27"><a xlink:href="../../da/d3b/ObjectIterator_8h.html" target="_top" xlink:title=" ">
<polygon fill="white" stroke="black" points="1016.5,-246.5 1016.5,-265.5 1108.5,-265.5 1108.5,-246.5 1016.5,-246.5"/>
<text text-anchor="middle" x="1062.5" y="-253.5" font-family="Helvetica,sans-Serif" font-size="10.00">ObjectIterator.h</text>
</a>
</g>
</g>
<!-- Node14&#45;&gt;Node27 -->
<g id="edge31" class="edge">
<title>Node14&#45;&gt;Node27</title>
<path fill="none" stroke="midnightblue" d="M881.37,-302.47C923.32,-291.94 979.99,-277.72 1018.69,-268"/>
<polygon fill="midnightblue" stroke="midnightblue" points="1019.77,-271.34 1028.62,-265.51 1018.07,-264.55 1019.77,-271.34"/>
</g>
<!-- Node29 -->
<g id="node29" class="node">
<title>Node29</title>
<g id="a_node29"><a xlink:href="../../d5/de2/ViewCursor_8h.html" target="_top" xlink:title=" ">
<polygon fill="white" stroke="black" points="1002.5,-179.5 1002.5,-198.5 1082.5,-198.5 1082.5,-179.5 1002.5,-179.5"/>
<text text-anchor="middle" x="1042.5" y="-186.5" font-family="Helvetica,sans-Serif" font-size="10.00">ViewCursor.h</text>
</a>
</g>
</g>
<!-- Node14&#45;&gt;Node29 -->
<g id="edge44" class="edge">
<title>Node14&#45;&gt;Node29</title>
<path fill="none" stroke="midnightblue" d="M883.71,-314.98C960.18,-311.61 1088.22,-300.78 1117.5,-266 1137.13,-242.68 1100.61,-217.97 1071.97,-203.27"/>
<polygon fill="midnightblue" stroke="midnightblue" points="1073.17,-199.96 1062.65,-198.68 1070.08,-206.24 1073.17,-199.96"/>
</g>
<!-- Node30 -->
<g id="node30" class="node">
<title>Node30</title>
<g id="a_node30"><a xlink:href="../../d0/d10/ViewStructure_8h.html" target="_top" xlink:title=" ">
<polygon fill="white" stroke="black" points="606.5,-112.5 606.5,-131.5 700.5,-131.5 700.5,-112.5 606.5,-112.5"/>
<text text-anchor="middle" x="653.5" y="-119.5" font-family="Helvetica,sans-Serif" font-size="10.00">ViewStructure.h</text>
</a>
</g>
</g>
<!-- Node14&#45;&gt;Node30 -->
<g id="edge45" class="edge">
<title>Node14&#45;&gt;Node30</title>
<path fill="none" stroke="midnightblue" d="M767.5,-313.96C696.84,-309.51 583.64,-297.53 557.5,-266 522.75,-224.09 598.32,-256.82 635.5,-210 650.98,-190.5 654.1,-161.01 654.29,-141.87"/>
<polygon fill="midnightblue" stroke="midnightblue" points="657.78,-141.66 654.12,-131.71 650.78,-141.77 657.78,-141.66"/>
</g>
<!-- Node31 -->
<g id="node31" class="node">
<title>Node31</title>
<g id="a_node31"><a xlink:href="../../d8/dee/VirtualObject_8h.html" target="_top" xlink:title=" ">
<polygon fill="white" stroke="black" points="722,-179.5 722,-198.5 811,-198.5 811,-179.5 722,-179.5"/>
<text text-anchor="middle" x="766.5" y="-186.5" font-family="Helvetica,sans-Serif" font-size="10.00">VirtualObject.h</text>
</a>
</g>
</g>
<!-- Node14&#45;&gt;Node31 -->
<g id="edge46" class="edge">
<title>Node14&#45;&gt;Node31</title>
<path fill="none" stroke="midnightblue" d="M818.96,-302.48C808.2,-279.41 786.78,-233.48 774.91,-208.03"/>
<polygon fill="midnightblue" stroke="midnightblue" points="778,-206.37 770.6,-198.79 771.65,-209.33 778,-206.37"/>
</g>
<!-- Node15&#45;&gt;Node12 -->
<g id="edge17" class="edge">
<title>Node15&#45;&gt;Node12</title>
<path fill="none" stroke="midnightblue" d="M470.43,-246.5C484.65,-238.39 505.49,-225.19 520.5,-210 559.31,-170.72 591.7,-113.41 606.63,-84.73"/>
<polygon fill="midnightblue" stroke="midnightblue" points="609.89,-86.04 611.33,-75.55 603.66,-82.86 609.89,-86.04"/>
</g>
<!-- Node16 -->
<g id="node16" class="node">
<title>Node16</title>
<g id="a_node16"><a xlink:title=" ">
<polygon fill="white" stroke="#bfbfbf" points="572.5,-179.5 572.5,-198.5 626.5,-198.5 626.5,-179.5 572.5,-179.5"/>
<text text-anchor="middle" x="599.5" y="-186.5" font-family="Helvetica,sans-Serif" font-size="10.00">istream</text>
</a>
</g>
</g>
<!-- Node15&#45;&gt;Node16 -->
<g id="edge16" class="edge">
<title>Node15&#45;&gt;Node16</title>
<path fill="none" stroke="midnightblue" d="M474.95,-246.48C496.01,-237.62 529.72,-223.24 558.5,-210 563.32,-207.78 568.43,-205.35 573.34,-202.98"/>
<polygon fill="midnightblue" stroke="midnightblue" points="574.98,-206.08 582.43,-198.54 571.91,-199.79 574.98,-206.08"/>
</g>
<!-- Node17&#45;&gt;Node6 -->
<g id="edge19" class="edge">
<title>Node17&#45;&gt;Node6</title>
<path fill="none" stroke="midnightblue" d="M1187.24,-57.77C1111.17,-47.45 972.22,-28.6 896.01,-18.26"/>
<polygon fill="midnightblue" stroke="midnightblue" points="896.07,-14.74 885.69,-16.86 895.13,-21.67 896.07,-14.74"/>
</g>
<!-- Node17&#45;&gt;Node7 -->
<g id="edge21" class="edge">
<title>Node17&#45;&gt;Node7</title>
<path fill="none" stroke="midnightblue" d="M1281.38,-56.44C1326.48,-47 1399.11,-31.8 1447.8,-21.61"/>
<polygon fill="midnightblue" stroke="midnightblue" points="1448.74,-24.99 1457.81,-19.52 1447.31,-18.14 1448.74,-24.99"/>
</g>
<!-- Node17&#45;&gt;Node8 -->
<g id="edge22" class="edge">
<title>Node17&#45;&gt;Node8</title>
<path fill="none" stroke="midnightblue" d="M1293.68,-58.13C1356.58,-49.92 1464.71,-35.49 1567.92,-20.05"/>
<polygon fill="midnightblue" stroke="midnightblue" points="1568.53,-23.5 1577.9,-18.56 1567.49,-16.58 1568.53,-23.5"/>
</g>
<!-- Node17&#45;&gt;Node18 -->
<g id="edge20" class="edge">
<title>Node17&#45;&gt;Node18</title>
<path fill="none" stroke="midnightblue" d="M1259.2,-56.44C1278.44,-47.64 1308.65,-33.81 1330.7,-23.72"/>
<polygon fill="midnightblue" stroke="midnightblue" points="1332.25,-26.86 1339.89,-19.52 1329.34,-20.5 1332.25,-26.86"/>
</g>
<!-- Node19 -->
<g id="node19" class="node">
<title>Node19</title>
<g id="a_node19"><a xlink:title=" ">
<polygon fill="white" stroke="#bfbfbf" points="1004.5,-0.5 1004.5,-19.5 1154.5,-19.5 1154.5,-0.5 1004.5,-0.5"/>
<text text-anchor="middle" x="1079.5" y="-7.5" font-family="Helvetica,sans-Serif" font-size="10.00">rapidjson/istreamwrapper.h</text>
</a>
</g>
</g>
<!-- Node17&#45;&gt;Node19 -->
<g id="edge23" class="edge">
<title>Node17&#45;&gt;Node19</title>
<path fill="none" stroke="midnightblue" d="M1214.99,-56.44C1187.9,-47.36 1144.91,-32.94 1114.63,-22.78"/>
<polygon fill="midnightblue" stroke="midnightblue" points="1115.49,-19.38 1104.89,-19.52 1113.26,-26.01 1115.49,-19.38"/>
</g>
<!-- Node20 -->
<g id="node20" class="node">
<title>Node20</title>
<g id="a_node20"><a xlink:title=" ">
<polygon fill="white" stroke="#bfbfbf" points="1172,-0.5 1172,-19.5 1279,-19.5 1279,-0.5 1172,-0.5"/>
<text text-anchor="middle" x="1225.5" y="-7.5" font-family="Helvetica,sans-Serif" font-size="10.00">rapidjson/pointer.h</text>
</a>
</g>
</g>
<!-- Node17&#45;&gt;Node20 -->
<g id="edge24" class="edge">
<title>Node17&#45;&gt;Node20</title>
<path fill="none" stroke="midnightblue" d="M1238.02,-56.08C1236.01,-48.85 1233.11,-38.41 1230.61,-29.4"/>
<polygon fill="midnightblue" stroke="midnightblue" points="1233.98,-28.45 1227.93,-19.75 1227.24,-30.32 1233.98,-28.45"/>
</g>
<!-- Node27&#45;&gt;Node2 -->
<g id="edge34" class="edge">
<title>Node27&#45;&gt;Node2</title>
<path fill="none" stroke="midnightblue" d="M1070.73,-246.23C1080.33,-236 1096.41,-218.86 1108.3,-206.19"/>
<polygon fill="midnightblue" stroke="midnightblue" points="1111.11,-208.31 1115.4,-198.63 1106.01,-203.52 1111.11,-208.31"/>
</g>
<!-- Node27&#45;&gt;Node12 -->
<g id="edge33" class="edge">
<title>Node27&#45;&gt;Node12</title>
<path fill="none" stroke="midnightblue" d="M1035.42,-246.36C1009.48,-237.86 969.4,-224.14 935.5,-210 843.03,-171.43 824.44,-151.79 732.5,-112 704.01,-99.67 670.95,-87.11 647.26,-78.41"/>
<polygon fill="midnightblue" stroke="midnightblue" points="648.31,-75.06 637.71,-74.92 645.91,-81.64 648.31,-75.06"/>
</g>
<!-- Node27&#45;&gt;Node17 -->
<g id="edge32" class="edge">
<title>Node27&#45;&gt;Node17</title>
<path fill="none" stroke="midnightblue" d="M1038.71,-246.5C1022.78,-239.41 1003.04,-227.61 993.5,-210 971.17,-168.78 993.49,-137.99 1032.5,-112 1075.43,-83.4 1133.4,-72.61 1177.24,-68.71"/>
<polygon fill="midnightblue" stroke="midnightblue" points="1177.52,-72.2 1187.22,-67.92 1176.97,-65.22 1177.52,-72.2"/>
</g>
<!-- Node28 -->
<g id="node28" class="node">
<title>Node28</title>
<g id="a_node28"><a xlink:title=" ">
<polygon fill="white" stroke="#bfbfbf" points="909,-112.5 909,-131.5 956,-131.5 956,-112.5 909,-112.5"/>
<text text-anchor="middle" x="932.5" y="-119.5" font-family="Helvetica,sans-Serif" font-size="10.00">vector</text>
</a>
</g>
</g>
<!-- Node27&#45;&gt;Node28 -->
<g id="edge35" class="edge">
<title>Node27&#45;&gt;Node28</title>
<path fill="none" stroke="midnightblue" d="M1024.44,-246.46C1002.98,-239.83 977.21,-228.55 960.5,-210 943.27,-190.87 936.63,-161.05 934.08,-141.76"/>
<polygon fill="midnightblue" stroke="midnightblue" points="937.53,-141.12 932.98,-131.55 930.57,-141.87 937.53,-141.12"/>
</g>
<!-- Node27&#45;&gt;Node29 -->
<g id="edge36" class="edge">
<title>Node27&#45;&gt;Node29</title>
<path fill="none" stroke="midnightblue" d="M1059.8,-246.23C1056.83,-236.59 1051.98,-220.8 1048.16,-208.41"/>
<polygon fill="midnightblue" stroke="midnightblue" points="1051.44,-207.16 1045.15,-198.63 1044.75,-209.21 1051.44,-207.16"/>
</g>
<!-- Node29&#45;&gt;Node11 -->
<g id="edge38" class="edge">
<title>Node29&#45;&gt;Node11</title>
<path fill="none" stroke="midnightblue" d="M1052.61,-179.23C1064.65,-168.81 1084.95,-151.21 1099.65,-138.47"/>
<polygon fill="midnightblue" stroke="midnightblue" points="1102.28,-140.82 1107.55,-131.63 1097.7,-135.53 1102.28,-140.82"/>
</g>
<!-- Node29&#45;&gt;Node17 -->
<g id="edge37" class="edge">
<title>Node29&#45;&gt;Node17</title>
<path fill="none" stroke="midnightblue" d="M1039.94,-179.29C1035.98,-163.78 1030.37,-131.24 1046.5,-112 1063.18,-92.11 1127.03,-80.07 1176.99,-73.52"/>
<polygon fill="midnightblue" stroke="midnightblue" points="1177.61,-76.96 1187.09,-72.24 1176.73,-70.02 1177.61,-76.96"/>
</g>
<!-- Node29&#45;&gt;Node28 -->
<g id="edge39" class="edge">
<title>Node29&#45;&gt;Node28</title>
<path fill="none" stroke="midnightblue" d="M1027.66,-179.23C1009.19,-168.32 977.43,-149.55 955.72,-136.72"/>
<polygon fill="midnightblue" stroke="midnightblue" points="957.49,-133.7 947.1,-131.63 953.93,-139.73 957.49,-133.7"/>
</g>
<!-- Node29&#45;&gt;Node30 -->
<g id="edge40" class="edge">
<title>Node29&#45;&gt;Node30</title>
<path fill="none" stroke="midnightblue" d="M1002.34,-181.29C932.9,-169.69 790.22,-145.85 710.53,-132.53"/>
<polygon fill="midnightblue" stroke="midnightblue" points="711.1,-129.08 700.66,-130.88 709.95,-135.98 711.1,-129.08"/>
</g>
<!-- Node30&#45;&gt;Node12 -->
<g id="edge42" class="edge">
<title>Node30&#45;&gt;Node12</title>
<path fill="none" stroke="midnightblue" d="M647.23,-112.08C641.86,-104.46 633.98,-93.26 627.42,-83.94"/>
<polygon fill="midnightblue" stroke="midnightblue" points="630.28,-81.91 621.66,-75.75 624.55,-85.94 630.28,-81.91"/>
</g>
<!-- Node30&#45;&gt;Node17 -->
<g id="edge41" class="edge">
<title>Node30&#45;&gt;Node17</title>
<path fill="none" stroke="midnightblue" d="M700.54,-116.67C805.49,-107.02 1058.81,-83.71 1177.35,-72.81"/>
<polygon fill="midnightblue" stroke="midnightblue" points="1177.72,-76.29 1187.36,-71.89 1177.08,-69.32 1177.72,-76.29"/>
</g>
<!-- Node30&#45;&gt;Node24 -->
<g id="edge43" class="edge">
<title>Node30&#45;&gt;Node24</title>
<path fill="none" stroke="midnightblue" d="M606.48,-113.09C548.74,-103.38 450.9,-86.92 389.1,-76.52"/>
<polygon fill="midnightblue" stroke="midnightblue" points="389.57,-73.05 379.12,-74.84 388.4,-79.95 389.57,-73.05"/>
</g>
<!-- Node31&#45;&gt;Node6 -->
<g id="edge47" class="edge">
<title>Node31&#45;&gt;Node6</title>
<path fill="none" stroke="midnightblue" d="M770.17,-179.46C781.87,-152.19 818.55,-66.78 834.71,-29.13"/>
<polygon fill="midnightblue" stroke="midnightblue" points="837.96,-30.44 838.69,-19.87 831.53,-27.68 837.96,-30.44"/>
</g>
<!-- Node31&#45;&gt;Node12 -->
<g id="edge49" class="edge">
<title>Node31&#45;&gt;Node12</title>
<path fill="none" stroke="midnightblue" d="M761.92,-179.41C753.39,-164.11 733.73,-131.87 709.5,-112 691.03,-96.86 666.62,-85.37 647.3,-77.79"/>
<polygon fill="midnightblue" stroke="midnightblue" points="648.32,-74.43 637.72,-74.18 645.85,-80.98 648.32,-74.43"/>
</g>
<!-- Node31&#45;&gt;Node17 -->
<g id="edge48" class="edge">
<title>Node31&#45;&gt;Node17</title>
<path fill="none" stroke="midnightblue" d="M777.96,-179.44C800.25,-163.28 851.56,-128.42 900.5,-112 993.39,-80.83 1107.34,-71.14 1176.9,-68.19"/>
<polygon fill="midnightblue" stroke="midnightblue" points="1177.4,-71.68 1187.25,-67.79 1177.12,-64.68 1177.4,-71.68"/>
</g>
<!-- Node31&#45;&gt;Node30 -->
<g id="edge50" class="edge">
<title>Node31&#45;&gt;Node30</title>
<path fill="none" stroke="midnightblue" d="M751.26,-179.23C732.28,-168.32 699.65,-149.55 677.35,-136.72"/>
<polygon fill="midnightblue" stroke="midnightblue" points="678.91,-133.58 668.5,-131.63 675.42,-139.65 678.91,-133.58"/>
</g>
<!-- Node32&#45;&gt;Node12 -->
<g id="edge57" class="edge">
<title>Node32&#45;&gt;Node12</title>
<path fill="none" stroke="midnightblue" d="M420.45,-168.35C438.36,-151.57 465.98,-127.73 493.5,-112 522.27,-95.56 558.15,-83.18 583.54,-75.61"/>
<polygon fill="midnightblue" stroke="midnightblue" points="584.75,-78.9 593.38,-72.75 582.81,-72.17 584.75,-78.9"/>
</g>
<!-- Node32&#45;&gt;Node23 -->
<g id="edge56" class="edge">
<title>Node32&#45;&gt;Node23</title>
<path fill="none" stroke="midnightblue" d="M438.3,-168.5C458.37,-158.15 482.51,-145.69 500.46,-136.43"/>
<polygon fill="midnightblue" stroke="midnightblue" points="502.44,-139.35 509.73,-131.65 499.24,-133.13 502.44,-139.35"/>
</g>
<!-- Node32&#45;&gt;Node24 -->
<g id="edge58" class="edge">
<title>Node32&#45;&gt;Node24</title>
<path fill="none" stroke="midnightblue" d="M379.52,-168.38C369.81,-158.31 358.83,-145.37 351.5,-132 343.55,-117.5 338.6,-99.32 335.75,-85.87"/>
<polygon fill="midnightblue" stroke="midnightblue" points="339.16,-85.04 333.84,-75.88 332.28,-86.36 339.16,-85.04"/>
</g>
<!-- Node32&#45;&gt;Node28 -->
<g id="edge60" class="edge">
<title>Node32&#45;&gt;Node28</title>
<path fill="none" stroke="midnightblue" d="M478.02,-178.48C505.07,-175.16 535.62,-171.41 563.5,-168 686.99,-152.89 833.73,-135.02 898.69,-127.12"/>
<polygon fill="midnightblue" stroke="midnightblue" points="899.25,-130.57 908.76,-125.89 898.41,-123.62 899.25,-130.57"/>
</g>
<!-- Node33 -->
<g id="node33" class="node">
<title>Node33</title>
<g id="a_node33"><a xlink:title=" ">
<polygon fill="white" stroke="#bfbfbf" points="360.5,-112.5 360.5,-131.5 446.5,-131.5 446.5,-112.5 360.5,-112.5"/>
<text text-anchor="middle" x="403.5" y="-119.5" font-family="Helvetica,sans-Serif" font-size="10.00">unordered_set</text>
</a>
</g>
</g>
<!-- Node32&#45;&gt;Node33 -->
<g id="edge59" class="edge">
<title>Node32&#45;&gt;Node33</title>
<path fill="none" stroke="midnightblue" d="M401.4,-168.5C401.79,-160.07 402.24,-150.24 402.63,-141.87"/>
<polygon fill="midnightblue" stroke="midnightblue" points="406.14,-141.8 403.1,-131.65 399.14,-141.48 406.14,-141.8"/>
</g>
<!-- Node34&#45;&gt;Node6 -->
<g id="edge62" class="edge">
<title>Node34&#45;&gt;Node6</title>
<path fill="none" stroke="midnightblue" d="M1289.65,-179.42C1267.15,-168.56 1227.31,-149.19 1193.5,-132 1176.49,-123.35 1173.09,-119.4 1155.5,-112 1061.28,-72.35 945.76,-38.76 884.81,-22.15"/>
<polygon fill="midnightblue" stroke="midnightblue" points="885.72,-18.77 875.16,-19.53 883.89,-25.52 885.72,-18.77"/>
</g>
<!-- Node34&#45;&gt;Node11 -->
<g id="edge64" class="edge">
<title>Node34&#45;&gt;Node11</title>
<path fill="none" stroke="midnightblue" d="M1290.58,-179.47C1282.75,-175.69 1273.26,-171.36 1264.5,-168 1228.45,-154.18 1186.21,-141.61 1156.28,-133.29"/>
<polygon fill="midnightblue" stroke="midnightblue" points="1157.2,-129.91 1146.63,-130.63 1155.34,-136.66 1157.2,-129.91"/>
</g>
<!-- Node34&#45;&gt;Node17 -->
<g id="edge65" class="edge">
<title>Node34&#45;&gt;Node17</title>
<path fill="none" stroke="midnightblue" d="M1313.42,-179.38C1322.78,-164.59 1338.65,-133.84 1325.5,-112 1316.21,-96.57 1299.67,-86.16 1283.63,-79.27"/>
<polygon fill="midnightblue" stroke="midnightblue" points="1284.89,-76.01 1274.3,-75.61 1282.33,-82.52 1284.89,-76.01"/>
</g>
<!-- Node35 -->
<g id="node35" class="node">
<title>Node35</title>
<g id="a_node35"><a xlink:title=" ">
<polygon fill="white" stroke="#bfbfbf" points="1202.5,-112.5 1202.5,-131.5 1316.5,-131.5 1316.5,-112.5 1202.5,-112.5"/>
<text text-anchor="middle" x="1259.5" y="-119.5" font-family="Helvetica,sans-Serif" font-size="10.00">boost/operators.hpp</text>
</a>
</g>
</g>
<!-- Node34&#45;&gt;Node35 -->
<g id="edge63" class="edge">
<title>Node34&#45;&gt;Node35</title>
<path fill="none" stroke="midnightblue" d="M1301.03,-179.23C1293.61,-169.2 1281.3,-152.51 1272,-139.92"/>
<polygon fill="midnightblue" stroke="midnightblue" points="1274.63,-137.59 1265.87,-131.63 1269,-141.75 1274.63,-137.59"/>
</g>
</g>
</svg>
        <g id="navigator" transform="translate(0 0)" fill="#404254">
                <rect fill="#f2f5e9" fill-opacity="0.5" stroke="#606060" stroke-width=".5" x="0" y="0" width="60" height="60"/>
                <use id="zoomplus" xlink:href="#zoomPlus" x="17" y="9" onmousedown="handleZoom(evt,'in')"/>
                <use id="zoomminus" xlink:href="#zoomMin" x="42" y="9" onmousedown="handleZoom(evt,'out')"/>
                <use id="reset" xlink:href="#resetDef" x="30" y="36" onmousedown="handleReset()"/>
                <g id="arrowUp" xlink:href="#dirArrow" transform="translate(30 24)" onmousedown="handlePan(0,-1)">
                  <use xlink:href="#rim" fill="#404040">
                        <set attributeName="fill" to="#808080" begin="arrowUp.mouseover" end="arrowUp.mouseout"/>
                  </use>
                  <path fill="none" stroke="white" stroke-width="1.5" d="M0,-3.0v7 M-2.5,-0.5L0,-3.0L2.5,-0.5"/>
                </g>
                <g id="arrowRight" xlink:href="#dirArrow" transform="rotate(90) translate(36 -43)" onmousedown="handlePan(1,0)">
                  <use xlink:href="#rim" fill="#404040">
                        <set attributeName="fill" to="#808080" begin="arrowRight.mouseover" end="arrowRight.mouseout"/>
                  </use>
                  <path fill="none" stroke="white" stroke-width="1.5" d="M0,-3.0v7 M-2.5,-0.5L0,-3.0L2.5,-0.5"/>
                </g>
                <g id="arrowDown" xlink:href="#dirArrow" transform="rotate(180) translate(-30 -48)" onmousedown="handlePan(0,1)">
                  <use xlink:href="#rim" fill="#404040">
                        <set attributeName="fill" to="#808080" begin="arrowDown.mouseover" end="arrowDown.mouseout"/>
                  </use>
                  <path fill="none" stroke="white" stroke-width="1.5" d="M0,-3.0v7 M-2.5,-0.5L0,-3.0L2.5,-0.5"/>
                </g>
                <g id="arrowLeft" xlink:href="#dirArrow" transform="rotate(270) translate(-36 17)" onmousedown="handlePan(-1,0)">
                  <use xlink:href="#rim" fill="#404040">
                        <set attributeName="fill" to="#808080" begin="arrowLeft.mouseover" end="arrowLeft.mouseout"/>
                  </use>
                  <path fill="none" stroke="white" stroke-width="1.5" d="M0,-3.0v7 M-2.5,-0.5L0,-3.0L2.5,-0.5"/>
                </g>
        </g>
        <svg viewBox="0 0 15 15" width="100%" height="30px" preserveAspectRatio="xMaxYMin meet">
         <g id="arrow_out" transform="scale(0.3 0.3)">
          <a xlink:href="SeqNumberProvider_8cpp__incl_org.svg" target="_base">
           <rect id="button" ry="5" rx="5" y="6" x="6" height="38" width="38"
                fill="#f2f5e9" fill-opacity="0.5" stroke="#606060" stroke-width="1.0"/>
           <path id="arrow"
             d="M 11.500037,31.436501 C 11.940474,20.09759 22.043105,11.32322 32.158766,21.979434 L 37.068811,17.246167 C 37.068811,17.246167 37.088388,32 37.088388,32 L 22.160133,31.978069 C 22.160133,31.978069 26.997745,27.140456 26.997745,27.140456 C 18.528582,18.264221 13.291696,25.230495 11.500037,31.436501 z"
             style="fill:#404040;"/>
          </a>
         </g>
        </svg>
</svg>
