<?xml version="1.0" encoding="UTF-8" standalone="no"?>
<!DOCTYPE svg PUBLIC "-//W3C//DTD SVG 1.1//EN"
 "http://www.w3.org/Graphics/SVG/1.1/DTD/svg11.dtd">
<!-- Generated by graphviz version 2.43.0 (0)
 -->
<!-- Title: /home/nico/projects/JODA&#45;gh/libs/joda/core/modules/query/values/src/SeqNumberProvider.cpp Pages: 1 -->
<svg width="1489pt" height="609pt"
 viewBox="0.00 0.00 1488.66 609.00" xmlns="http://www.w3.org/2000/svg" xmlns:xlink="http://www.w3.org/1999/xlink">
<g id="graph0" class="graph" transform="scale(1 1) rotate(0) translate(4 605)">
<title>/home/nico/projects/JODA&#45;gh/libs/joda/core/modules/query/values/src/SeqNumberProvider.cpp</title>
<polygon fill="white" stroke="transparent" points="-4,4 -4,-605 1484.66,-605 1484.66,4 -4,4"/>
<!-- Node1 -->
<g id="node1" class="node">
<title>Node1</title>
<g id="a_node1"><a xlink:title=" ">
<polygon fill="#bfbfbf" stroke="black" points="0,-548.5 0,-600.5 145,-600.5 145,-548.5 0,-548.5"/>
<text text-anchor="start" x="8" y="-588.5" font-family="Helvetica,sans-Serif" font-size="10.00">/home/nico/projects</text>
<text text-anchor="start" x="8" y="-577.5" font-family="Helvetica,sans-Serif" font-size="10.00">/JODA&#45;gh/libs/joda/core</text>
<text text-anchor="start" x="8" y="-566.5" font-family="Helvetica,sans-Serif" font-size="10.00">/modules/query/values/src</text>
<text text-anchor="middle" x="72.5" y="-555.5" font-family="Helvetica,sans-Serif" font-size="10.00">/SeqNumberProvider.cpp</text>
</a>
</g>
</g>
<!-- Node2 -->
<g id="node2" class="node">
<title>Node2</title>
<g id="a_node2"><a xlink:title=" ">
<polygon fill="white" stroke="#bfbfbf" points="501,-179.5 501,-198.5 546,-198.5 546,-179.5 501,-179.5"/>
<text text-anchor="middle" x="523.5" y="-186.5" font-family="Helvetica,sans-Serif" font-size="10.00">utility</text>
</a>
</g>
</g>
<!-- Node1&#45;&gt;Node2 -->
<g id="edge1" class="edge">
<title>Node1&#45;&gt;Node2</title>
<path fill="none" stroke="midnightblue" d="M52.86,-548.42C40.78,-529.84 29.09,-503.89 37.5,-481 73.48,-383.03 103.08,-360.51 189.5,-302 287.4,-235.71 427.9,-205.67 490.84,-194.93"/>
<polygon fill="midnightblue" stroke="midnightblue" points="491.67,-198.35 500.96,-193.26 490.52,-191.44 491.67,-198.35"/>
</g>
<!-- Node3 -->
<g id="node3" class="node">
<title>Node3</title>
<g id="a_node3"><a xlink:href="../../dd/d7b/SeqNumberProvider_8h.html" target="_top" xlink:title=" ">
<polygon fill="white" stroke="black" points="47,-481.5 47,-511.5 208,-511.5 208,-481.5 47,-481.5"/>
<text text-anchor="start" x="55" y="-499.5" font-family="Helvetica,sans-Serif" font-size="10.00">../include/joda/query</text>
<text text-anchor="middle" x="127.5" y="-488.5" font-family="Helvetica,sans-Serif" font-size="10.00">/values/SeqNumberProvider.h</text>
</a>
</g>
</g>
<!-- Node1&#45;&gt;Node3 -->
<g id="edge2" class="edge">
<title>Node1&#45;&gt;Node3</title>
<path fill="none" stroke="midnightblue" d="M90.81,-548.19C97.38,-539.13 104.73,-528.97 111.12,-520.14"/>
<polygon fill="midnightblue" stroke="midnightblue" points="114.09,-522 117.12,-511.85 108.42,-517.89 114.09,-522"/>
</g>
<!-- Node4 -->
<g id="node4" class="node">
<title>Node4</title>
<g id="a_node4"><a xlink:title=" ">
<polygon fill="white" stroke="#bfbfbf" points="198.5,-308 198.5,-327 248.5,-327 248.5,-308 198.5,-308"/>
<text text-anchor="middle" x="223.5" y="-315" font-family="Helvetica,sans-Serif" font-size="10.00">atomic</text>
</a>
</g>
</g>
<!-- Node3&#45;&gt;Node4 -->
<g id="edge3" class="edge">
<title>Node3&#45;&gt;Node4</title>
<path fill="none" stroke="midnightblue" d="M126.86,-481.33C126.42,-456.53 128.58,-404.49 151.5,-369 161.92,-352.85 179.51,-340.38 194.68,-331.86"/>
<polygon fill="midnightblue" stroke="midnightblue" points="196.53,-334.85 203.74,-327.08 193.26,-328.66 196.53,-334.85"/>
</g>
<!-- Node5 -->
<g id="node5" class="node">
<title>Node5</title>
<g id="a_node5"><a xlink:href="../../dd/d50/IValueProvider_8h.html" target="_top" xlink:title=" ">
<polygon fill="white" stroke="black" points="241,-425.5 241,-444.5 336,-444.5 336,-425.5 241,-425.5"/>
<text text-anchor="middle" x="288.5" y="-432.5" font-family="Helvetica,sans-Serif" font-size="10.00">IValueProvider.h</text>
</a>
</g>
</g>
<!-- Node3&#45;&gt;Node5 -->
<g id="edge4" class="edge">
<title>Node3&#45;&gt;Node5</title>
<path fill="none" stroke="midnightblue" d="M165.65,-481.4C193.03,-471.28 229.54,-457.79 255.63,-448.15"/>
<polygon fill="midnightblue" stroke="midnightblue" points="256.91,-451.41 265.07,-444.66 254.48,-444.84 256.91,-451.41"/>
</g>
<!-- Node6 -->
<g id="node6" class="node">
<title>Node6</title>
<g id="a_node6"><a xlink:title=" ">
<polygon fill="white" stroke="#bfbfbf" points="289.5,-0.5 289.5,-19.5 375.5,-19.5 375.5,-0.5 289.5,-0.5"/>
<text text-anchor="middle" x="332.5" y="-7.5" font-family="Helvetica,sans-Serif" font-size="10.00">glog/logging.h</text>
</a>
</g>
</g>
<!-- Node5&#45;&gt;Node6 -->
<g id="edge5" class="edge">
<title>Node5&#45;&gt;Node6</title>
<path fill="none" stroke="midnightblue" d="M241,-432.22C208.82,-428.3 168.18,-417.52 145.5,-389 68.77,-292.55 96.71,-229.94 132.5,-112 141.09,-83.69 144.66,-73.52 168.5,-56 200.74,-32.32 244.79,-21.1 279.12,-15.78"/>
<polygon fill="midnightblue" stroke="midnightblue" points="280.03,-19.19 289.43,-14.32 279.04,-12.26 280.03,-19.19"/>
</g>
<!-- Node7 -->
<g id="node7" class="node">
<title>Node7</title>
<g id="a_node7"><a xlink:title=" ">
<polygon fill="white" stroke="#bfbfbf" points="1003.5,-0.5 1003.5,-19.5 1125.5,-19.5 1125.5,-0.5 1003.5,-0.5"/>
<text text-anchor="middle" x="1064.5" y="-7.5" font-family="Helvetica,sans-Serif" font-size="10.00">rapidjson/document.h</text>
</a>
</g>
</g>
<!-- Node5&#45;&gt;Node7 -->
<g id="edge6" class="edge">
<title>Node5&#45;&gt;Node7</title>
<path fill="none" stroke="midnightblue" d="M336.19,-433.66C549.9,-431.95 1410.92,-422.98 1456.5,-389 1483.04,-369.22 1480.5,-351.6 1480.5,-318.5 1480.5,-318.5 1480.5,-318.5 1480.5,-255 1480.5,-97.17 1254.94,-39.47 1136,-20.03"/>
<polygon fill="midnightblue" stroke="midnightblue" points="1136.31,-16.53 1125.88,-18.42 1135.21,-23.44 1136.31,-16.53"/>
</g>
<!-- Node8 -->
<g id="node8" class="node">
<title>Node8</title>
<g id="a_node8"><a xlink:title=" ">
<polygon fill="white" stroke="#bfbfbf" points="1321,-0.5 1321,-19.5 1412,-19.5 1412,-0.5 1321,-0.5"/>
<text text-anchor="middle" x="1366.5" y="-7.5" font-family="Helvetica,sans-Serif" font-size="10.00">rapidjson/fwd.h</text>
</a>
</g>
</g>
<!-- Node5&#45;&gt;Node8 -->
<g id="edge7" class="edge">
<title>Node5&#45;&gt;Node8</title>
<path fill="none" stroke="midnightblue" d="M336.25,-434.32C554.03,-435.14 1442.5,-431.57 1442.5,-318.5 1442.5,-318.5 1442.5,-318.5 1442.5,-121 1442.5,-81.28 1408.54,-45.5 1386.02,-26.15"/>
<polygon fill="midnightblue" stroke="midnightblue" points="1387.98,-23.24 1378.04,-19.57 1383.52,-28.63 1387.98,-23.24"/>
</g>
<!-- Node9 -->
<g id="node9" class="node">
<title>Node9</title>
<g id="a_node9"><a xlink:title=" ">
<polygon fill="white" stroke="#bfbfbf" points="161,-369.5 161,-388.5 208,-388.5 208,-369.5 161,-369.5"/>
<text text-anchor="middle" x="184.5" y="-376.5" font-family="Helvetica,sans-Serif" font-size="10.00">cmath</text>
</a>
</g>
</g>
<!-- Node5&#45;&gt;Node9 -->
<g id="edge8" class="edge">
<title>Node5&#45;&gt;Node9</title>
<path fill="none" stroke="midnightblue" d="M271.79,-425.32C255.19,-416.7 229.5,-403.36 210.28,-393.39"/>
<polygon fill="midnightblue" stroke="midnightblue" points="211.66,-390.16 201.17,-388.65 208.43,-396.37 211.66,-390.16"/>
</g>
<!-- Node10 -->
<g id="node10" class="node">
<title>Node10</title>
<g id="a_node10"><a xlink:title=" ">
<polygon fill="white" stroke="#bfbfbf" points="226,-369.5 226,-388.5 351,-388.5 351,-369.5 226,-369.5"/>
<text text-anchor="middle" x="288.5" y="-376.5" font-family="Helvetica,sans-Serif" font-size="10.00">experimental/optional</text>
</a>
</g>
</g>
<!-- Node5&#45;&gt;Node10 -->
<g id="edge9" class="edge">
<title>Node5&#45;&gt;Node10</title>
<path fill="none" stroke="midnightblue" d="M288.5,-425.08C288.5,-418.01 288.5,-407.86 288.5,-398.99"/>
<polygon fill="midnightblue" stroke="midnightblue" points="292,-398.75 288.5,-388.75 285,-398.75 292,-398.75"/>
</g>
<!-- Node11 -->
<g id="node11" class="node">
<title>Node11</title>
<g id="a_node11"><a xlink:title=" ">
<polygon fill="white" stroke="#bfbfbf" points="318.5,-112.5 318.5,-131.5 376.5,-131.5 376.5,-112.5 318.5,-112.5"/>
<text text-anchor="middle" x="347.5" y="-119.5" font-family="Helvetica,sans-Serif" font-size="10.00">memory</text>
</a>
</g>
</g>
<!-- Node5&#45;&gt;Node11 -->
<g id="edge10" class="edge">
<title>Node5&#45;&gt;Node11</title>
<path fill="none" stroke="midnightblue" d="M240.93,-431.97C209.99,-427.87 171.76,-416.98 151.5,-389 146.29,-381.8 149.23,-377.59 151.5,-369 179.45,-263.07 283.97,-172.09 327.88,-137.68"/>
<polygon fill="midnightblue" stroke="midnightblue" points="330.03,-140.44 335.81,-131.57 325.75,-134.9 330.03,-140.44"/>
</g>
<!-- Node12 -->
<g id="node12" class="node">
<title>Node12</title>
<g id="a_node12"><a xlink:title=" ">
<polygon fill="white" stroke="#bfbfbf" points="878.5,-56.5 878.5,-75.5 922.5,-75.5 922.5,-56.5 878.5,-56.5"/>
<text text-anchor="middle" x="900.5" y="-63.5" font-family="Helvetica,sans-Serif" font-size="10.00">string</text>
</a>
</g>
</g>
<!-- Node5&#45;&gt;Node12 -->
<g id="edge11" class="edge">
<title>Node5&#45;&gt;Node12</title>
<path fill="none" stroke="midnightblue" d="M336.1,-434.07C520.12,-433.2 1180.82,-419.32 1303.5,-266 1321.54,-243.45 1318.9,-122.34 1309.5,-112 1254.82,-51.85 1031.26,-88.72 932.74,-75.42"/>
<polygon fill="midnightblue" stroke="midnightblue" points="933.19,-71.95 922.76,-73.81 932.08,-78.86 933.19,-71.95"/>
</g>
<!-- Node13 -->
<g id="node13" class="node">
<title>Node13</title>
<g id="a_node13"><a xlink:href="../../d1/dfd/RapidJsonDocument_8h.html" target="_top" xlink:title=" ">
<polygon fill="white" stroke="black" points="369.5,-369.5 369.5,-388.5 569.5,-388.5 569.5,-369.5 369.5,-369.5"/>
<text text-anchor="middle" x="469.5" y="-376.5" font-family="Helvetica,sans-Serif" font-size="10.00">joda/document/RapidJsonDocument.h</text>
</a>
</g>
</g>
<!-- Node5&#45;&gt;Node13 -->
<g id="edge12" class="edge">
<title>Node5&#45;&gt;Node13</title>
<path fill="none" stroke="midnightblue" d="M317.18,-425.44C348.03,-416.24 397.23,-401.56 431.33,-391.39"/>
<polygon fill="midnightblue" stroke="midnightblue" points="432.37,-394.73 440.95,-388.52 430.37,-388.02 432.37,-394.73"/>
</g>
<!-- Node13&#45;&gt;Node4 -->
<g id="edge52" class="edge">
<title>Node13&#45;&gt;Node4</title>
<path fill="none" stroke="midnightblue" d="M420.91,-369.46C378.65,-361.55 315.97,-348.67 262.5,-333 259.86,-332.23 257.15,-331.36 254.43,-330.45"/>
<polygon fill="midnightblue" stroke="midnightblue" points="255.37,-327.07 244.77,-327.03 253.03,-333.67 255.37,-327.07"/>
</g>
<!-- Node13&#45;&gt;Node8 -->
<g id="edge51" class="edge">
<title>Node13&#45;&gt;Node8</title>
<path fill="none" stroke="midnightblue" d="M569.79,-374.81C803.86,-366.03 1366.5,-336.65 1366.5,-257 1366.5,-257 1366.5,-257 1366.5,-121 1366.5,-88.95 1366.5,-51.64 1366.5,-29.75"/>
<polygon fill="midnightblue" stroke="midnightblue" points="1370,-29.56 1366.5,-19.56 1363,-29.56 1370,-29.56"/>
</g>
<!-- Node13&#45;&gt;Node11 -->
<g id="edge53" class="edge">
<title>Node13&#45;&gt;Node11</title>
<path fill="none" stroke="midnightblue" d="M437.77,-369.48C418.77,-362.72 395.81,-351.28 382.5,-333 339.53,-273.98 342.03,-181.04 345.42,-141.64"/>
<polygon fill="midnightblue" stroke="midnightblue" points="348.91,-141.92 346.4,-131.62 341.94,-141.23 348.91,-141.92"/>
</g>
<!-- Node14 -->
<g id="node14" class="node">
<title>Node14</title>
<g id="a_node14"><a xlink:href="../../d2/d0d/ViewLayer_8h.html" target="_top" xlink:title=" ">
<polygon fill="white" stroke="black" points="727.5,-302.5 727.5,-332.5 843.5,-332.5 843.5,-302.5 727.5,-302.5"/>
<text text-anchor="start" x="735.5" y="-320.5" font-family="Helvetica,sans-Serif" font-size="10.00">joda/document/view</text>
<text text-anchor="middle" x="785.5" y="-309.5" font-family="Helvetica,sans-Serif" font-size="10.00">/ViewLayer.h</text>
</a>
</g>
</g>
<!-- Node13&#45;&gt;Node14 -->
<g id="edge13" class="edge">
<title>Node13&#45;&gt;Node14</title>
<path fill="none" stroke="midnightblue" d="M514.78,-369.48C567.8,-359.49 656.17,-342.85 717.45,-331.31"/>
<polygon fill="midnightblue" stroke="midnightblue" points="718.25,-334.72 727.43,-329.43 716.95,-327.85 718.25,-334.72"/>
</g>
<!-- Node17 -->
<g id="node17" class="node">
<title>Node17</title>
<g id="a_node17"><a xlink:href="../../d6/d09/RJFwd_8h.html" target="_top" xlink:title=" ">
<polygon fill="white" stroke="black" points="555.5,-56.5 555.5,-75.5 661.5,-75.5 661.5,-56.5 555.5,-56.5"/>
<text text-anchor="middle" x="608.5" y="-63.5" font-family="Helvetica,sans-Serif" font-size="10.00">joda/misc/RJFwd.h</text>
</a>
</g>
</g>
<!-- Node13&#45;&gt;Node17 -->
<g id="edge65" class="edge">
<title>Node13&#45;&gt;Node17</title>
<path fill="none" stroke="midnightblue" d="M468.58,-369.39C465.75,-340.35 458.59,-243.64 479.5,-168 487.02,-140.79 488.89,-131.3 509.5,-112 525.77,-96.76 548.08,-86.01 567.41,-78.84"/>
<polygon fill="midnightblue" stroke="midnightblue" points="568.63,-82.13 576.91,-75.51 566.31,-75.52 568.63,-82.13"/>
</g>
<!-- Node18 -->
<g id="node18" class="node">
<title>Node18</title>
<g id="a_node18"><a xlink:title=" ">
<polygon fill="white" stroke="#bfbfbf" points="393.5,-0.5 393.5,-19.5 515.5,-19.5 515.5,-0.5 393.5,-0.5"/>
<text text-anchor="middle" x="454.5" y="-7.5" font-family="Helvetica,sans-Serif" font-size="10.00">rapidjson/allocators.h</text>
</a>
</g>
</g>
<!-- Node13&#45;&gt;Node18 -->
<g id="edge50" class="edge">
<title>Node13&#45;&gt;Node18</title>
<path fill="none" stroke="midnightblue" d="M408.41,-369.49C374.03,-362.94 331.19,-351.72 296.5,-333 287.53,-328.16 165.82,-218.69 160.5,-210 137.24,-172.01 113.25,-147.99 139.5,-112 169.92,-70.3 312.92,-37.36 395.41,-21.44"/>
<polygon fill="midnightblue" stroke="midnightblue" points="396.23,-24.85 405.4,-19.54 394.93,-17.97 396.23,-24.85"/>
</g>
<!-- Node31 -->
<g id="node31" class="node">
<title>Node31</title>
<g id="a_node31"><a xlink:href="../../df/d13/FileNameRepo_8h.html" target="_top" xlink:title=" ">
<polygon fill="white" stroke="black" points="1145,-168.5 1145,-209.5 1300,-209.5 1300,-168.5 1145,-168.5"/>
<text text-anchor="start" x="1153" y="-197.5" font-family="Helvetica,sans-Serif" font-size="10.00">../../../../../misc</text>
<text text-anchor="start" x="1153" y="-186.5" font-family="Helvetica,sans-Serif" font-size="10.00">/include/joda/misc/FileName</text>
<text text-anchor="middle" x="1222.5" y="-175.5" font-family="Helvetica,sans-Serif" font-size="10.00">Repo.h</text>
</a>
</g>
</g>
<!-- Node13&#45;&gt;Node31 -->
<g id="edge54" class="edge">
<title>Node13&#45;&gt;Node31</title>
<path fill="none" stroke="midnightblue" d="M569.72,-371.62C777.82,-357.35 1241.33,-319.82 1287.5,-266 1301.91,-249.21 1285.86,-230.3 1266.11,-215.54"/>
<polygon fill="midnightblue" stroke="midnightblue" points="1268,-212.59 1257.81,-209.7 1263.97,-218.32 1268,-212.59"/>
</g>
<!-- Node33 -->
<g id="node33" class="node">
<title>Node33</title>
<g id="a_node33"><a xlink:href="../../d5/d6c/IOrigin_8h.html" target="_top" xlink:title=" ">
<polygon fill="white" stroke="black" points="169.5,-179.5 169.5,-198.5 227.5,-198.5 227.5,-179.5 169.5,-179.5"/>
<text text-anchor="middle" x="198.5" y="-186.5" font-family="Helvetica,sans-Serif" font-size="10.00">IOrigin.h</text>
</a>
</g>
</g>
<!-- Node13&#45;&gt;Node33 -->
<g id="edge60" class="edge">
<title>Node13&#45;&gt;Node33</title>
<path fill="none" stroke="midnightblue" d="M431.67,-369.47C405.07,-362.38 369.41,-350.57 341.5,-333 285.22,-297.58 233.94,-236.29 211.07,-206.8"/>
<polygon fill="midnightblue" stroke="midnightblue" points="213.76,-204.56 204.91,-198.74 208.2,-208.81 213.76,-204.56"/>
</g>
<!-- Node14&#45;&gt;Node6 -->
<g id="edge14" class="edge">
<title>Node14&#45;&gt;Node6</title>
<path fill="none" stroke="midnightblue" d="M727.23,-310.31C660.21,-302.34 555.1,-286.98 521.5,-266 471.99,-235.09 374.99,-80.71 343.01,-28.38"/>
<polygon fill="midnightblue" stroke="midnightblue" points="345.85,-26.32 337.66,-19.6 339.87,-29.96 345.85,-26.32"/>
</g>
<!-- Node15 -->
<g id="node15" class="node">
<title>Node15</title>
<g id="a_node15"><a xlink:href="../../db/d16/config_8h.html" target="_top" xlink:title=" ">
<polygon fill="white" stroke="black" points="852,-246.5 852,-265.5 963,-265.5 963,-246.5 852,-246.5"/>
<text text-anchor="middle" x="907.5" y="-253.5" font-family="Helvetica,sans-Serif" font-size="10.00">joda/config/config.h</text>
</a>
</g>
</g>
<!-- Node14&#45;&gt;Node15 -->
<g id="edge15" class="edge">
<title>Node14&#45;&gt;Node15</title>
<path fill="none" stroke="midnightblue" d="M814.41,-302.4C834.52,-292.59 861.12,-279.62 880.74,-270.05"/>
<polygon fill="midnightblue" stroke="midnightblue" points="882.29,-273.19 889.75,-265.66 879.23,-266.9 882.29,-273.19"/>
</g>
<!-- Node14&#45;&gt;Node17 -->
<g id="edge18" class="edge">
<title>Node14&#45;&gt;Node17</title>
<path fill="none" stroke="midnightblue" d="M727.32,-314.58C657.63,-308.74 543.87,-287.15 492.5,-210 458.83,-159.43 539.09,-105.13 582.67,-80.51"/>
<polygon fill="midnightblue" stroke="midnightblue" points="584.54,-83.48 591.61,-75.58 581.16,-77.34 584.54,-83.48"/>
</g>
<!-- Node21 -->
<g id="node21" class="node">
<title>Node21</title>
<g id="a_node21"><a xlink:title=" ">
<polygon fill="white" stroke="#bfbfbf" points="981,-246.5 981,-265.5 1110,-265.5 1110,-246.5 981,-246.5"/>
<text text-anchor="middle" x="1045.5" y="-253.5" font-family="Helvetica,sans-Serif" font-size="10.00">rapidjson/stringbuffer.h</text>
</a>
</g>
</g>
<!-- Node14&#45;&gt;Node21 -->
<g id="edge25" class="edge">
<title>Node14&#45;&gt;Node21</title>
<path fill="none" stroke="midnightblue" d="M843.53,-303.22C890.18,-292.54 954.89,-277.74 998.38,-267.78"/>
<polygon fill="midnightblue" stroke="midnightblue" points="999.17,-271.19 1008.14,-265.55 997.61,-264.37 999.17,-271.19"/>
</g>
<!-- Node22 -->
<g id="node22" class="node">
<title>Node22</title>
<g id="a_node22"><a xlink:title=" ">
<polygon fill="white" stroke="#bfbfbf" points="1128.5,-246.5 1128.5,-265.5 1192.5,-265.5 1192.5,-246.5 1128.5,-246.5"/>
<text text-anchor="middle" x="1160.5" y="-253.5" font-family="Helvetica,sans-Serif" font-size="10.00">algorithm</text>
</a>
</g>
</g>
<!-- Node14&#45;&gt;Node22 -->
<g id="edge26" class="edge">
<title>Node14&#45;&gt;Node22</title>
<path fill="none" stroke="midnightblue" d="M843.62,-308.9C908.32,-300.17 1016.19,-284.83 1118.44,-266.1"/>
<polygon fill="midnightblue" stroke="midnightblue" points="1119.11,-269.53 1128.31,-264.28 1117.84,-262.65 1119.11,-269.53"/>
</g>
<!-- Node23 -->
<g id="node23" class="node">
<title>Node23</title>
<g id="a_node23"><a xlink:title=" ">
<polygon fill="white" stroke="#bfbfbf" points="1072.5,-112.5 1072.5,-131.5 1120.5,-131.5 1120.5,-112.5 1072.5,-112.5"/>
<text text-anchor="middle" x="1096.5" y="-119.5" font-family="Helvetica,sans-Serif" font-size="10.00">mutex</text>
</a>
</g>
</g>
<!-- Node14&#45;&gt;Node23 -->
<g id="edge27" class="edge">
<title>Node14&#45;&gt;Node23</title>
<path fill="none" stroke="midnightblue" d="M843.78,-314.73C966.64,-310.41 1243.31,-297.27 1271.5,-266 1277.45,-259.4 1276.92,-253.05 1271.5,-246 1233.67,-196.76 1183.99,-250.01 1136.5,-210 1115.57,-192.37 1105.02,-161.44 1100.15,-141.6"/>
<polygon fill="midnightblue" stroke="midnightblue" points="1103.53,-140.65 1097.96,-131.64 1096.69,-142.16 1103.53,-140.65"/>
</g>
<!-- Node24 -->
<g id="node24" class="node">
<title>Node24</title>
<g id="a_node24"><a xlink:title=" ">
<polygon fill="white" stroke="#bfbfbf" points="941,-56.5 941,-75.5 1034,-75.5 1034,-56.5 941,-56.5"/>
<text text-anchor="middle" x="987.5" y="-63.5" font-family="Helvetica,sans-Serif" font-size="10.00">unordered_map</text>
</a>
</g>
</g>
<!-- Node14&#45;&gt;Node24 -->
<g id="edge28" class="edge">
<title>Node14&#45;&gt;Node24</title>
<path fill="none" stroke="midnightblue" d="M796.94,-302.37C831.75,-259.37 936.32,-130.22 973.88,-83.82"/>
<polygon fill="midnightblue" stroke="midnightblue" points="976.7,-85.9 980.27,-75.93 971.26,-81.5 976.7,-85.9"/>
</g>
<!-- Node25 -->
<g id="node25" class="node">
<title>Node25</title>
<g id="a_node25"><a xlink:title=" ">
<polygon fill="white" stroke="#bfbfbf" points="1211,-246.5 1211,-265.5 1262,-265.5 1262,-246.5 1211,-246.5"/>
<text text-anchor="middle" x="1236.5" y="-253.5" font-family="Helvetica,sans-Serif" font-size="10.00">variant</text>
</a>
</g>
</g>
<!-- Node14&#45;&gt;Node25 -->
<g id="edge29" class="edge">
<title>Node14&#45;&gt;Node25</title>
<path fill="none" stroke="midnightblue" d="M843.74,-311.85C922.56,-305.03 1067.65,-290.57 1200.99,-265.85"/>
<polygon fill="midnightblue" stroke="midnightblue" points="1201.79,-269.26 1210.97,-263.98 1200.5,-262.38 1201.79,-269.26"/>
</g>
<!-- Node26 -->
<g id="node26" class="node">
<title>Node26</title>
<g id="a_node26"><a xlink:href="../../da/d3b/ObjectIterator_8h.html" target="_top" xlink:title=" ">
<polygon fill="white" stroke="black" points="665.5,-246.5 665.5,-265.5 757.5,-265.5 757.5,-246.5 665.5,-246.5"/>
<text text-anchor="middle" x="711.5" y="-253.5" font-family="Helvetica,sans-Serif" font-size="10.00">ObjectIterator.h</text>
</a>
</g>
</g>
<!-- Node14&#45;&gt;Node26 -->
<g id="edge30" class="edge">
<title>Node14&#45;&gt;Node26</title>
<path fill="none" stroke="midnightblue" d="M767.96,-302.4C756.66,-293.31 741.96,-281.49 730.39,-272.19"/>
<polygon fill="midnightblue" stroke="midnightblue" points="732.25,-269.2 722.27,-265.66 727.87,-274.65 732.25,-269.2"/>
</g>
<!-- Node28 -->
<g id="node28" class="node">
<title>Node28</title>
<g id="a_node28"><a xlink:href="../../d5/de2/ViewCursor_8h.html" target="_top" xlink:title=" ">
<polygon fill="white" stroke="black" points="671.5,-179.5 671.5,-198.5 751.5,-198.5 751.5,-179.5 671.5,-179.5"/>
<text text-anchor="middle" x="711.5" y="-186.5" font-family="Helvetica,sans-Serif" font-size="10.00">ViewCursor.h</text>
</a>
</g>
</g>
<!-- Node14&#45;&gt;Node28 -->
<g id="edge43" class="edge">
<title>Node14&#45;&gt;Node28</title>
<path fill="none" stroke="midnightblue" d="M727.4,-308.73C701.15,-302 672.5,-289.44 656.5,-266 641.57,-244.13 667.79,-219.38 688.92,-204.23"/>
<polygon fill="midnightblue" stroke="midnightblue" points="690.95,-207.08 697.24,-198.55 687,-201.3 690.95,-207.08"/>
</g>
<!-- Node29 -->
<g id="node29" class="node">
<title>Node29</title>
<g id="a_node29"><a xlink:href="../../d0/d10/ViewStructure_8h.html" target="_top" xlink:title=" ">
<polygon fill="white" stroke="black" points="712.5,-112.5 712.5,-131.5 806.5,-131.5 806.5,-112.5 712.5,-112.5"/>
<text text-anchor="middle" x="759.5" y="-119.5" font-family="Helvetica,sans-Serif" font-size="10.00">ViewStructure.h</text>
</a>
</g>
</g>
<!-- Node14&#45;&gt;Node29 -->
<g id="edge44" class="edge">
<title>Node14&#45;&gt;Node29</title>
<path fill="none" stroke="midnightblue" d="M789.7,-302.11C796.88,-275.03 809.26,-215 793.5,-168 789.9,-157.25 782.6,-147.02 775.68,-139.04"/>
<polygon fill="midnightblue" stroke="midnightblue" points="778.15,-136.56 768.79,-131.61 773.02,-141.32 778.15,-136.56"/>
</g>
<!-- Node30 -->
<g id="node30" class="node">
<title>Node30</title>
<g id="a_node30"><a xlink:href="../../d8/dee/VirtualObject_8h.html" target="_top" xlink:title=" ">
<polygon fill="white" stroke="black" points="564,-179.5 564,-198.5 653,-198.5 653,-179.5 564,-179.5"/>
<text text-anchor="middle" x="608.5" y="-186.5" font-family="Helvetica,sans-Serif" font-size="10.00">VirtualObject.h</text>
</a>
</g>
</g>
<!-- Node14&#45;&gt;Node30 -->
<g id="edge45" class="edge">
<title>Node14&#45;&gt;Node30</title>
<path fill="none" stroke="midnightblue" d="M727.41,-305.49C700.61,-298.01 669.87,-285.77 647.5,-266 630.09,-250.61 619.38,-225.59 613.69,-208.49"/>
<polygon fill="midnightblue" stroke="midnightblue" points="616.93,-207.12 610.66,-198.58 610.24,-209.17 616.93,-207.12"/>
</g>
<!-- Node15&#45;&gt;Node12 -->
<g id="edge17" class="edge">
<title>Node15&#45;&gt;Node12</title>
<path fill="none" stroke="midnightblue" d="M909.24,-246.42C910.97,-237.4 913.51,-222.77 914.5,-210 917.86,-166.57 921.04,-155.06 914.5,-112 913.13,-103 910.31,-93.33 907.55,-85.26"/>
<polygon fill="midnightblue" stroke="midnightblue" points="910.81,-83.98 904.1,-75.78 904.23,-86.37 910.81,-83.98"/>
</g>
<!-- Node16 -->
<g id="node16" class="node">
<title>Node16</title>
<g id="a_node16"><a xlink:title=" ">
<polygon fill="white" stroke="#bfbfbf" points="1004.5,-179.5 1004.5,-198.5 1058.5,-198.5 1058.5,-179.5 1004.5,-179.5"/>
<text text-anchor="middle" x="1031.5" y="-186.5" font-family="Helvetica,sans-Serif" font-size="10.00">istream</text>
</a>
</g>
</g>
<!-- Node15&#45;&gt;Node16 -->
<g id="edge16" class="edge">
<title>Node15&#45;&gt;Node16</title>
<path fill="none" stroke="midnightblue" d="M923.97,-246.37C944.9,-235.39 981.28,-216.32 1005.86,-203.44"/>
<polygon fill="midnightblue" stroke="midnightblue" points="1007.73,-206.41 1014.97,-198.67 1004.48,-200.21 1007.73,-206.41"/>
</g>
<!-- Node17&#45;&gt;Node6 -->
<g id="edge19" class="edge">
<title>Node17&#45;&gt;Node6</title>
<path fill="none" stroke="midnightblue" d="M564.77,-56.44C516.17,-46.94 437.71,-31.58 385.62,-21.39"/>
<polygon fill="midnightblue" stroke="midnightblue" points="386.06,-17.91 375.57,-19.43 384.72,-24.78 386.06,-17.91"/>
</g>
<!-- Node17&#45;&gt;Node7 -->
<g id="edge21" class="edge">
<title>Node17&#45;&gt;Node7</title>
<path fill="none" stroke="midnightblue" d="M661.7,-58.7C743.79,-48.98 901.42,-30.31 993.27,-19.44"/>
<polygon fill="midnightblue" stroke="midnightblue" points="993.79,-22.9 1003.31,-18.25 992.97,-15.95 993.79,-22.9"/>
</g>
<!-- Node17&#45;&gt;Node8 -->
<g id="edge22" class="edge">
<title>Node17&#45;&gt;Node8</title>
<path fill="none" stroke="midnightblue" d="M661.8,-61.2C800.04,-51.35 1169.16,-25.06 1310.43,-14.99"/>
<polygon fill="midnightblue" stroke="midnightblue" points="1310.88,-18.47 1320.6,-14.27 1310.38,-11.49 1310.88,-18.47"/>
</g>
<!-- Node17&#45;&gt;Node18 -->
<g id="edge20" class="edge">
<title>Node17&#45;&gt;Node18</title>
<path fill="none" stroke="midnightblue" d="M584.1,-56.44C558.3,-47.4 517.42,-33.06 488.48,-22.92"/>
<polygon fill="midnightblue" stroke="midnightblue" points="489.38,-19.52 478.79,-19.52 487.07,-26.13 489.38,-19.52"/>
</g>
<!-- Node19 -->
<g id="node19" class="node">
<title>Node19</title>
<g id="a_node19"><a xlink:title=" ">
<polygon fill="white" stroke="#bfbfbf" points="533.5,-0.5 533.5,-19.5 683.5,-19.5 683.5,-0.5 533.5,-0.5"/>
<text text-anchor="middle" x="608.5" y="-7.5" font-family="Helvetica,sans-Serif" font-size="10.00">rapidjson/istreamwrapper.h</text>
</a>
</g>
</g>
<!-- Node17&#45;&gt;Node19 -->
<g id="edge23" class="edge">
<title>Node17&#45;&gt;Node19</title>
<path fill="none" stroke="midnightblue" d="M608.5,-56.08C608.5,-49.01 608.5,-38.86 608.5,-29.99"/>
<polygon fill="midnightblue" stroke="midnightblue" points="612,-29.75 608.5,-19.75 605,-29.75 612,-29.75"/>
</g>
<!-- Node20 -->
<g id="node20" class="node">
<title>Node20</title>
<g id="a_node20"><a xlink:title=" ">
<polygon fill="white" stroke="#bfbfbf" points="701,-0.5 701,-19.5 808,-19.5 808,-0.5 701,-0.5"/>
<text text-anchor="middle" x="754.5" y="-7.5" font-family="Helvetica,sans-Serif" font-size="10.00">rapidjson/pointer.h</text>
</a>
</g>
</g>
<!-- Node17&#45;&gt;Node20 -->
<g id="edge24" class="edge">
<title>Node17&#45;&gt;Node20</title>
<path fill="none" stroke="midnightblue" d="M631.63,-56.44C655.98,-47.44 694.51,-33.19 721.92,-23.05"/>
<polygon fill="midnightblue" stroke="midnightblue" points="723.31,-26.27 731.47,-19.52 720.88,-19.7 723.31,-26.27"/>
</g>
<!-- Node26&#45;&gt;Node2 -->
<g id="edge33" class="edge">
<title>Node26&#45;&gt;Node2</title>
<path fill="none" stroke="midnightblue" d="M670.33,-246.43C638.23,-238.96 592.95,-226.71 555.5,-210 551.7,-208.31 547.83,-206.22 544.14,-204.05"/>
<polygon fill="midnightblue" stroke="midnightblue" points="545.84,-200.99 535.52,-198.62 542.12,-206.91 545.84,-200.99"/>
</g>
<!-- Node26&#45;&gt;Node12 -->
<g id="edge32" class="edge">
<title>Node26&#45;&gt;Node12</title>
<path fill="none" stroke="midnightblue" d="M746.1,-246.46C769.62,-239.44 800.51,-227.72 823.5,-210 857.71,-183.62 862.25,-170.67 881.5,-132 888.87,-117.2 893.87,-99.05 896.89,-85.69"/>
<polygon fill="midnightblue" stroke="midnightblue" points="900.34,-86.28 898.96,-75.78 893.49,-84.85 900.34,-86.28"/>
</g>
<!-- Node26&#45;&gt;Node17 -->
<g id="edge31" class="edge">
<title>Node26&#45;&gt;Node17</title>
<path fill="none" stroke="midnightblue" d="M726.16,-246.4C737.91,-238.58 753.53,-225.86 760.5,-210 768.01,-192.91 769.51,-184.35 760.5,-168 746.04,-141.76 728.54,-148.46 703.5,-132 677.55,-114.94 648.1,-94.64 628.96,-81.32"/>
<polygon fill="midnightblue" stroke="midnightblue" points="630.9,-78.41 620.7,-75.56 626.9,-84.15 630.9,-78.41"/>
</g>
<!-- Node27 -->
<g id="node27" class="node">
<title>Node27</title>
<g id="a_node27"><a xlink:title=" ">
<polygon fill="white" stroke="#bfbfbf" points="825,-112.5 825,-131.5 872,-131.5 872,-112.5 825,-112.5"/>
<text text-anchor="middle" x="848.5" y="-119.5" font-family="Helvetica,sans-Serif" font-size="10.00">vector</text>
</a>
</g>
</g>
<!-- Node26&#45;&gt;Node27 -->
<g id="edge34" class="edge">
<title>Node26&#45;&gt;Node27</title>
<path fill="none" stroke="midnightblue" d="M733.98,-246.36C751.65,-238.76 776.11,-226.35 793.5,-210 814.81,-189.97 831.36,-159.98 840.52,-140.96"/>
<polygon fill="midnightblue" stroke="midnightblue" points="843.8,-142.2 844.83,-131.66 837.45,-139.26 843.8,-142.2"/>
</g>
<!-- Node26&#45;&gt;Node28 -->
<g id="edge35" class="edge">
<title>Node26&#45;&gt;Node28</title>
<path fill="none" stroke="midnightblue" d="M711.5,-246.23C711.5,-236.68 711.5,-221.12 711.5,-208.78"/>
<polygon fill="midnightblue" stroke="midnightblue" points="715,-208.63 711.5,-198.63 708,-208.63 715,-208.63"/>
</g>
<!-- Node28&#45;&gt;Node11 -->
<g id="edge37" class="edge">
<title>Node28&#45;&gt;Node11</title>
<path fill="none" stroke="midnightblue" d="M693.26,-179.3C684.19,-175.31 672.96,-170.84 662.5,-168 565.42,-141.69 447.1,-130.04 386.85,-125.51"/>
<polygon fill="midnightblue" stroke="midnightblue" points="386.87,-122 376.65,-124.77 386.37,-128.98 386.87,-122"/>
</g>
<!-- Node28&#45;&gt;Node17 -->
<g id="edge36" class="edge">
<title>Node28&#45;&gt;Node17</title>
<path fill="none" stroke="midnightblue" d="M704.09,-179.3C687.02,-159.24 644.67,-109.49 622.51,-83.46"/>
<polygon fill="midnightblue" stroke="midnightblue" points="624.99,-80.97 615.84,-75.62 619.66,-85.51 624.99,-80.97"/>
</g>
<!-- Node28&#45;&gt;Node27 -->
<g id="edge38" class="edge">
<title>Node28&#45;&gt;Node27</title>
<path fill="none" stroke="midnightblue" d="M729.69,-179.37C753.03,-168.3 793.73,-148.99 820.89,-136.1"/>
<polygon fill="midnightblue" stroke="midnightblue" points="822.7,-139.12 830.23,-131.67 819.7,-132.79 822.7,-139.12"/>
</g>
<!-- Node28&#45;&gt;Node29 -->
<g id="edge39" class="edge">
<title>Node28&#45;&gt;Node29</title>
<path fill="none" stroke="midnightblue" d="M717.97,-179.23C725.39,-169.2 737.7,-152.51 747,-139.92"/>
<polygon fill="midnightblue" stroke="midnightblue" points="750,-141.75 753.13,-131.63 744.37,-137.59 750,-141.75"/>
</g>
<!-- Node29&#45;&gt;Node12 -->
<g id="edge41" class="edge">
<title>Node29&#45;&gt;Node12</title>
<path fill="none" stroke="midnightblue" d="M781.84,-112.44C805.25,-103.48 842.24,-89.31 868.69,-79.18"/>
<polygon fill="midnightblue" stroke="midnightblue" points="870.18,-82.36 878.26,-75.52 867.67,-75.82 870.18,-82.36"/>
</g>
<!-- Node29&#45;&gt;Node17 -->
<g id="edge40" class="edge">
<title>Node29&#45;&gt;Node17</title>
<path fill="none" stroke="midnightblue" d="M735.57,-112.44C710.28,-103.4 670.2,-89.06 641.82,-78.92"/>
<polygon fill="midnightblue" stroke="midnightblue" points="642.91,-75.59 632.31,-75.52 640.55,-82.18 642.91,-75.59"/>
</g>
<!-- Node29&#45;&gt;Node24 -->
<g id="edge42" class="edge">
<title>Node29&#45;&gt;Node24</title>
<path fill="none" stroke="midnightblue" d="M795.63,-112.44C835.15,-103.08 898.6,-88.06 941.61,-77.87"/>
<polygon fill="midnightblue" stroke="midnightblue" points="942.62,-81.23 951.54,-75.52 941,-74.42 942.62,-81.23"/>
</g>
<!-- Node30&#45;&gt;Node6 -->
<g id="edge46" class="edge">
<title>Node30&#45;&gt;Node6</title>
<path fill="none" stroke="midnightblue" d="M595.19,-179.46C551.11,-151.2 409.62,-60.46 354.64,-25.2"/>
<polygon fill="midnightblue" stroke="midnightblue" points="356.31,-22.11 346,-19.66 352.53,-28 356.31,-22.11"/>
</g>
<!-- Node30&#45;&gt;Node12 -->
<g id="edge48" class="edge">
<title>Node30&#45;&gt;Node12</title>
<path fill="none" stroke="midnightblue" d="M616.5,-179.43C631.8,-163.56 666.98,-129.63 703.5,-112 757.88,-85.75 828.19,-74.46 868.42,-69.87"/>
<polygon fill="midnightblue" stroke="midnightblue" points="868.89,-73.34 878.46,-68.8 868.14,-66.38 868.89,-73.34"/>
</g>
<!-- Node30&#45;&gt;Node17 -->
<g id="edge47" class="edge">
<title>Node30&#45;&gt;Node17</title>
<path fill="none" stroke="midnightblue" d="M604.92,-179.14C599.65,-164.99 590.79,-136.41 594.5,-112 595.87,-103 598.69,-93.33 601.45,-85.26"/>
<polygon fill="midnightblue" stroke="midnightblue" points="604.77,-86.37 604.9,-75.78 598.19,-83.98 604.77,-86.37"/>
</g>
<!-- Node30&#45;&gt;Node29 -->
<g id="edge49" class="edge">
<title>Node30&#45;&gt;Node29</title>
<path fill="none" stroke="midnightblue" d="M628.55,-179.37C654.5,-168.2 699.92,-148.65 729.86,-135.76"/>
<polygon fill="midnightblue" stroke="midnightblue" points="731.56,-138.84 739.37,-131.67 728.8,-132.41 731.56,-138.84"/>
</g>
<!-- Node31&#45;&gt;Node12 -->
<g id="edge56" class="edge">
<title>Node31&#45;&gt;Node12</title>
<path fill="none" stroke="midnightblue" d="M1201.11,-168.39C1178.82,-148.35 1145.02,-119.17 1129.5,-112 1051.55,-75.97 1021.35,-94.64 932.74,-75.78"/>
<polygon fill="midnightblue" stroke="midnightblue" points="933.33,-72.32 922.81,-73.56 931.81,-79.16 933.33,-72.32"/>
</g>
<!-- Node31&#45;&gt;Node23 -->
<g id="edge55" class="edge">
<title>Node31&#45;&gt;Node23</title>
<path fill="none" stroke="midnightblue" d="M1184.7,-168.5C1164.63,-158.15 1140.49,-145.69 1122.54,-136.43"/>
<polygon fill="midnightblue" stroke="midnightblue" points="1123.76,-133.13 1113.27,-131.65 1120.56,-139.35 1123.76,-133.13"/>
</g>
<!-- Node31&#45;&gt;Node24 -->
<g id="edge57" class="edge">
<title>Node31&#45;&gt;Node24</title>
<path fill="none" stroke="midnightblue" d="M1212.05,-168.48C1201.73,-151.08 1184.34,-126.22 1162.5,-112 1127.05,-88.92 1080.41,-77.67 1044.18,-72.19"/>
<polygon fill="midnightblue" stroke="midnightblue" points="1044.65,-68.72 1034.26,-70.79 1043.68,-75.65 1044.65,-68.72"/>
</g>
<!-- Node31&#45;&gt;Node27 -->
<g id="edge59" class="edge">
<title>Node31&#45;&gt;Node27</title>
<path fill="none" stroke="midnightblue" d="M1144.55,-174.45C1063.57,-160.38 940.64,-139.01 881.96,-128.82"/>
<polygon fill="midnightblue" stroke="midnightblue" points="882.56,-125.37 872.11,-127.1 881.36,-132.26 882.56,-125.37"/>
</g>
<!-- Node32 -->
<g id="node32" class="node">
<title>Node32</title>
<g id="a_node32"><a xlink:title=" ">
<polygon fill="white" stroke="#bfbfbf" points="1214.5,-112.5 1214.5,-131.5 1300.5,-131.5 1300.5,-112.5 1214.5,-112.5"/>
<text text-anchor="middle" x="1257.5" y="-119.5" font-family="Helvetica,sans-Serif" font-size="10.00">unordered_set</text>
</a>
</g>
</g>
<!-- Node31&#45;&gt;Node32 -->
<g id="edge58" class="edge">
<title>Node31&#45;&gt;Node32</title>
<path fill="none" stroke="midnightblue" d="M1233,-168.5C1237.8,-159.59 1243.44,-149.11 1248.1,-140.46"/>
<polygon fill="midnightblue" stroke="midnightblue" points="1251.18,-142.12 1252.84,-131.65 1245.02,-138.8 1251.18,-142.12"/>
</g>
<!-- Node33&#45;&gt;Node6 -->
<g id="edge61" class="edge">
<title>Node33&#45;&gt;Node6</title>
<path fill="none" stroke="midnightblue" d="M182.98,-179.36C160.62,-165.75 123.67,-138.15 139.5,-112 169.97,-61.67 234.69,-35.21 280.77,-22.2"/>
<polygon fill="midnightblue" stroke="midnightblue" points="281.85,-25.53 290.6,-19.54 280.03,-18.77 281.85,-25.53"/>
</g>
<!-- Node33&#45;&gt;Node11 -->
<g id="edge63" class="edge">
<title>Node33&#45;&gt;Node11</title>
<path fill="none" stroke="midnightblue" d="M216.43,-179.5C224.12,-175.89 233.22,-171.68 241.5,-168 266.89,-156.71 295.96,-144.41 317.22,-135.53"/>
<polygon fill="midnightblue" stroke="midnightblue" points="318.81,-138.66 326.69,-131.59 316.12,-132.2 318.81,-138.66"/>
</g>
<!-- Node33&#45;&gt;Node17 -->
<g id="edge64" class="edge">
<title>Node33&#45;&gt;Node17</title>
<path fill="none" stroke="midnightblue" d="M209.7,-179.37C233.35,-161.3 287.98,-120.47 309.5,-112 387.01,-81.5 483.3,-71.52 545.31,-68.34"/>
<polygon fill="midnightblue" stroke="midnightblue" points="545.52,-71.84 555.34,-67.87 545.19,-64.84 545.52,-71.84"/>
</g>
<!-- Node34 -->
<g id="node34" class="node">
<title>Node34</title>
<g id="a_node34"><a xlink:title=" ">
<polygon fill="white" stroke="#bfbfbf" points="148.5,-112.5 148.5,-131.5 262.5,-131.5 262.5,-112.5 148.5,-112.5"/>
<text text-anchor="middle" x="205.5" y="-119.5" font-family="Helvetica,sans-Serif" font-size="10.00">boost/operators.hpp</text>
</a>
</g>
</g>
<!-- Node33&#45;&gt;Node34 -->
<g id="edge62" class="edge">
<title>Node33&#45;&gt;Node34</title>
<path fill="none" stroke="midnightblue" d="M199.44,-179.23C200.47,-169.68 202.15,-154.12 203.48,-141.78"/>
<polygon fill="midnightblue" stroke="midnightblue" points="206.98,-141.94 204.57,-131.63 200.02,-141.2 206.98,-141.94"/>
</g>
</g>
</svg>
