<?xml version="1.0" encoding="UTF-8" standalone="no"?>
<!DOCTYPE svg PUBLIC "-//W3C//DTD SVG 1.1//EN"
 "http://www.w3.org/Graphics/SVG/1.1/DTD/svg11.dtd">
<!-- Generated by graphviz version 2.43.0 (0)
 -->
<!-- Title: /home/nico/joda_tmp/tmp&#45;joda&#45;dirs/JODA&#45;gh/libs/joda/core/modules/storage/document/include/joda/document/RapidJsonDocument.h Pages: 1 -->
<svg width="1290pt" height="441pt"
 viewBox="0.00 0.00 1289.50 441.00" xmlns="http://www.w3.org/2000/svg" xmlns:xlink="http://www.w3.org/1999/xlink">
<g id="graph0" class="graph" transform="scale(1 1) rotate(0) translate(4 437)">
<title>/home/nico/joda_tmp/tmp&#45;joda&#45;dirs/JODA&#45;gh/libs/joda/core/modules/storage/document/include/joda/document/RapidJsonDocument.h</title>
<polygon fill="white" stroke="transparent" points="-4,4 -4,-437 1285.5,-437 1285.5,4 -4,4"/>
<!-- Node1 -->
<g id="node1" class="node">
<title>Node1</title>
<g id="a_node1"><a xlink:title=" ">
<polygon fill="#bfbfbf" stroke="black" points="199.5,-369.5 199.5,-432.5 402.5,-432.5 402.5,-369.5 199.5,-369.5"/>
<text text-anchor="start" x="207.5" y="-420.5" font-family="Helvetica,sans-Serif" font-size="10.00">/home/nico/joda_tmp</text>
<text text-anchor="start" x="207.5" y="-409.5" font-family="Helvetica,sans-Serif" font-size="10.00">/tmp&#45;joda&#45;dirs/JODA</text>
<text text-anchor="start" x="207.5" y="-398.5" font-family="Helvetica,sans-Serif" font-size="10.00">&#45;gh/libs/joda/core/modules</text>
<text text-anchor="start" x="207.5" y="-387.5" font-family="Helvetica,sans-Serif" font-size="10.00">/storage/document/include</text>
<text text-anchor="middle" x="301" y="-376.5" font-family="Helvetica,sans-Serif" font-size="10.00">/joda/document/RapidJsonDocument.h</text>
</a>
</g>
</g>
<!-- Node2 -->
<g id="node2" class="node">
<title>Node2</title>
<g id="a_node2"><a xlink:href="../../d2/d0d/ViewLayer_8h.html" target="_top" xlink:title=" ">
<polygon fill="white" stroke="black" points="714,-302.5 714,-332.5 830,-332.5 830,-302.5 714,-302.5"/>
<text text-anchor="start" x="722" y="-320.5" font-family="Helvetica,sans-Serif" font-size="10.00">joda/document/view</text>
<text text-anchor="middle" x="772" y="-309.5" font-family="Helvetica,sans-Serif" font-size="10.00">/ViewLayer.h</text>
</a>
</g>
</g>
<!-- Node1&#45;&gt;Node2 -->
<g id="edge1" class="edge">
<title>Node1&#45;&gt;Node2</title>
<path fill="none" stroke="midnightblue" d="M402.62,-382.42C493.59,-366.67 624.48,-344.03 703.56,-330.34"/>
<polygon fill="midnightblue" stroke="midnightblue" points="704.63,-333.71 713.89,-328.56 703.44,-326.81 704.63,-333.71"/>
</g>
<!-- Node7 -->
<g id="node7" class="node">
<title>Node7</title>
<g id="a_node7"><a xlink:href="../../d6/d09/RJFwd_8h.html" target="_top" xlink:title=" ">
<polygon fill="white" stroke="black" points="318,-56.5 318,-75.5 424,-75.5 424,-56.5 318,-56.5"/>
<text text-anchor="middle" x="371" y="-63.5" font-family="Helvetica,sans-Serif" font-size="10.00">joda/misc/RJFwd.h</text>
</a>
</g>
</g>
<!-- Node1&#45;&gt;Node7 -->
<g id="edge54" class="edge">
<title>Node1&#45;&gt;Node7</title>
<path fill="none" stroke="midnightblue" d="M227.16,-369.32C183.63,-345.8 137,-308.56 137,-257 137,-257 137,-257 137,-188 137,-153.18 130.91,-136.14 156,-112 177.41,-91.4 252.39,-79.21 307.81,-72.82"/>
<polygon fill="midnightblue" stroke="midnightblue" points="308.37,-76.28 317.92,-71.69 307.59,-69.32 308.37,-76.28"/>
</g>
<!-- Node8 -->
<g id="node8" class="node">
<title>Node8</title>
<g id="a_node8"><a xlink:title=" ">
<polygon fill="white" stroke="#bfbfbf" points="0,-0.5 0,-19.5 122,-19.5 122,-0.5 0,-0.5"/>
<text text-anchor="middle" x="61" y="-7.5" font-family="Helvetica,sans-Serif" font-size="10.00">rapidjson/allocators.h</text>
</a>
</g>
</g>
<!-- Node1&#45;&gt;Node8 -->
<g id="edge39" class="edge">
<title>Node1&#45;&gt;Node8</title>
<path fill="none" stroke="midnightblue" d="M199.22,-380.76C133.81,-361.82 61,-325.39 61,-257 61,-257 61,-257 61,-121 61,-88.95 61,-51.64 61,-29.75"/>
<polygon fill="midnightblue" stroke="midnightblue" points="64.5,-29.56 61,-19.56 57.5,-29.56 64.5,-29.56"/>
</g>
<!-- Node10 -->
<g id="node10" class="node">
<title>Node10</title>
<g id="a_node10"><a xlink:title=" ">
<polygon fill="white" stroke="#bfbfbf" points="140.5,-0.5 140.5,-19.5 231.5,-19.5 231.5,-0.5 140.5,-0.5"/>
<text text-anchor="middle" x="186" y="-7.5" font-family="Helvetica,sans-Serif" font-size="10.00">rapidjson/fwd.h</text>
</a>
</g>
</g>
<!-- Node1&#45;&gt;Node10 -->
<g id="edge40" class="edge">
<title>Node1&#45;&gt;Node10</title>
<path fill="none" stroke="midnightblue" d="M199.41,-369.49C149.11,-347.47 99,-311.78 99,-257 99,-257 99,-257 99,-121 99,-79.4 137.75,-44.33 163.53,-25.6"/>
<polygon fill="midnightblue" stroke="midnightblue" points="165.82,-28.27 172.02,-19.68 161.82,-22.53 165.82,-28.27"/>
</g>
<!-- Node23 -->
<g id="node23" class="node">
<title>Node23</title>
<g id="a_node23"><a xlink:title=" ">
<polygon fill="white" stroke="#bfbfbf" points="373,-112.5 373,-131.5 431,-131.5 431,-112.5 373,-112.5"/>
<text text-anchor="middle" x="402" y="-119.5" font-family="Helvetica,sans-Serif" font-size="10.00">memory</text>
</a>
</g>
</g>
<!-- Node1&#45;&gt;Node23 -->
<g id="edge42" class="edge">
<title>Node1&#45;&gt;Node23</title>
<path fill="none" stroke="midnightblue" d="M305.44,-369.49C310.62,-337.91 320.49,-287.47 336,-246 350.86,-206.28 376.25,-163.39 390.82,-140.22"/>
<polygon fill="midnightblue" stroke="midnightblue" points="393.92,-141.88 396.35,-131.57 388.01,-138.11 393.92,-141.88"/>
</g>
<!-- Node26 -->
<g id="node26" class="node">
<title>Node26</title>
<g id="a_node26"><a xlink:title=" ">
<polygon fill="white" stroke="#bfbfbf" points="1224,-308 1224,-327 1274,-327 1274,-308 1224,-308"/>
<text text-anchor="middle" x="1249" y="-315" font-family="Helvetica,sans-Serif" font-size="10.00">atomic</text>
</a>
</g>
</g>
<!-- Node1&#45;&gt;Node26 -->
<g id="edge41" class="edge">
<title>Node1&#45;&gt;Node26</title>
<path fill="none" stroke="midnightblue" d="M402.81,-396.11C606.72,-387.74 1058.58,-366.03 1210,-333 1213.08,-332.33 1216.24,-331.47 1219.36,-330.5"/>
<polygon fill="midnightblue" stroke="midnightblue" points="1220.78,-333.71 1229.08,-327.14 1218.49,-327.09 1220.78,-333.71"/>
</g>
<!-- Node27 -->
<g id="node27" class="node">
<title>Node27</title>
<g id="a_node27"><a xlink:href="../../df/d13/FileNameRepo_8h.html" target="_top" xlink:title=" ">
<polygon fill="white" stroke="black" points="1105.5,-168.5 1105.5,-209.5 1260.5,-209.5 1260.5,-168.5 1105.5,-168.5"/>
<text text-anchor="start" x="1113.5" y="-197.5" font-family="Helvetica,sans-Serif" font-size="10.00">../../../../../misc</text>
<text text-anchor="start" x="1113.5" y="-186.5" font-family="Helvetica,sans-Serif" font-size="10.00">/include/joda/misc/FileName</text>
<text text-anchor="middle" x="1183" y="-175.5" font-family="Helvetica,sans-Serif" font-size="10.00">Repo.h</text>
</a>
</g>
</g>
<!-- Node1&#45;&gt;Node27 -->
<g id="edge43" class="edge">
<title>Node1&#45;&gt;Node27</title>
<path fill="none" stroke="midnightblue" d="M402.75,-399.35C609.63,-395.75 1068.53,-375.3 1172,-266 1183.39,-253.96 1186.32,-235.7 1186.31,-220.09"/>
<polygon fill="midnightblue" stroke="midnightblue" points="1189.79,-219.67 1185.9,-209.81 1182.8,-219.95 1189.79,-219.67"/>
</g>
<!-- Node29 -->
<g id="node29" class="node">
<title>Node29</title>
<g id="a_node29"><a xlink:href="../../d5/d6c/IOrigin_8h.html" target="_top" xlink:title=" ">
<polygon fill="white" stroke="black" points="239,-179.5 239,-198.5 297,-198.5 297,-179.5 239,-179.5"/>
<text text-anchor="middle" x="268" y="-186.5" font-family="Helvetica,sans-Serif" font-size="10.00">IOrigin.h</text>
</a>
</g>
</g>
<!-- Node1&#45;&gt;Node29 -->
<g id="edge49" class="edge">
<title>Node1&#45;&gt;Node29</title>
<path fill="none" stroke="midnightblue" d="M296.2,-369.46C289.27,-325.33 276.65,-245.02 270.94,-208.71"/>
<polygon fill="midnightblue" stroke="midnightblue" points="274.36,-207.91 269.35,-198.57 267.44,-208.99 274.36,-207.91"/>
</g>
<!-- Node3 -->
<g id="node3" class="node">
<title>Node3</title>
<g id="a_node3"><a xlink:title=" ">
<polygon fill="white" stroke="#bfbfbf" points="694,-0.5 694,-19.5 780,-19.5 780,-0.5 694,-0.5"/>
<text text-anchor="middle" x="737" y="-7.5" font-family="Helvetica,sans-Serif" font-size="10.00">glog/logging.h</text>
</a>
</g>
</g>
<!-- Node2&#45;&gt;Node3 -->
<g id="edge2" class="edge">
<title>Node2&#45;&gt;Node3</title>
<path fill="none" stroke="midnightblue" d="M830.15,-312.64C928.51,-305.52 1119.03,-288.91 1139,-266 1144.84,-259.3 1142.71,-254.08 1139,-246 1128.73,-223.66 1114.01,-227.75 1097,-210 1058.68,-170.01 1064.96,-144.36 1020,-112 949.35,-61.16 850.58,-33.69 790.36,-20.72"/>
<polygon fill="midnightblue" stroke="midnightblue" points="790.81,-17.24 780.3,-18.61 789.37,-24.09 790.81,-17.24"/>
</g>
<!-- Node4 -->
<g id="node4" class="node">
<title>Node4</title>
<g id="a_node4"><a xlink:href="../../db/d16/config_8h.html" target="_top" xlink:title=" ">
<polygon fill="white" stroke="black" points="674.5,-246.5 674.5,-265.5 785.5,-265.5 785.5,-246.5 674.5,-246.5"/>
<text text-anchor="middle" x="730" y="-253.5" font-family="Helvetica,sans-Serif" font-size="10.00">joda/config/config.h</text>
</a>
</g>
</g>
<!-- Node2&#45;&gt;Node4 -->
<g id="edge3" class="edge">
<title>Node2&#45;&gt;Node4</title>
<path fill="none" stroke="midnightblue" d="M762.05,-302.4C756.01,-293.84 748.26,-282.87 741.9,-273.86"/>
<polygon fill="midnightblue" stroke="midnightblue" points="744.74,-271.81 736.11,-265.66 739.02,-275.85 744.74,-271.81"/>
</g>
<!-- Node2&#45;&gt;Node7 -->
<g id="edge6" class="edge">
<title>Node2&#45;&gt;Node7</title>
<path fill="none" stroke="midnightblue" d="M713.84,-309.82C662.1,-302.71 584.93,-289.21 521,-266 514.88,-263.78 421.33,-215.6 418,-210 408.46,-193.96 412.94,-185.97 418,-168 425.24,-142.26 452.74,-135.51 440,-112 432.25,-97.7 417.77,-87.22 404.06,-79.99"/>
<polygon fill="midnightblue" stroke="midnightblue" points="405.31,-76.71 394.79,-75.5 402.26,-83.01 405.31,-76.71"/>
</g>
<!-- Node13 -->
<g id="node13" class="node">
<title>Node13</title>
<g id="a_node13"><a xlink:title=" ">
<polygon fill="white" stroke="#bfbfbf" points="918.5,-246.5 918.5,-265.5 1047.5,-265.5 1047.5,-246.5 918.5,-246.5"/>
<text text-anchor="middle" x="983" y="-253.5" font-family="Helvetica,sans-Serif" font-size="10.00">rapidjson/stringbuffer.h</text>
</a>
</g>
</g>
<!-- Node2&#45;&gt;Node13 -->
<g id="edge13" class="edge">
<title>Node2&#45;&gt;Node13</title>
<path fill="none" stroke="midnightblue" d="M821.74,-302.47C858.77,-292.03 908.68,-277.96 943.12,-268.25"/>
<polygon fill="midnightblue" stroke="midnightblue" points="944.16,-271.59 952.83,-265.51 942.26,-264.85 944.16,-271.59"/>
</g>
<!-- Node14 -->
<g id="node14" class="node">
<title>Node14</title>
<g id="a_node14"><a xlink:title=" ">
<polygon fill="white" stroke="#bfbfbf" points="1066,-246.5 1066,-265.5 1130,-265.5 1130,-246.5 1066,-246.5"/>
<text text-anchor="middle" x="1098" y="-253.5" font-family="Helvetica,sans-Serif" font-size="10.00">algorithm</text>
</a>
</g>
</g>
<!-- Node2&#45;&gt;Node14 -->
<g id="edge14" class="edge">
<title>Node2&#45;&gt;Node14</title>
<path fill="none" stroke="midnightblue" d="M830.26,-306.89C885.76,-297.58 971.88,-282.7 1055.84,-266.17"/>
<polygon fill="midnightblue" stroke="midnightblue" points="1056.67,-269.57 1065.8,-264.2 1055.31,-262.71 1056.67,-269.57"/>
</g>
<!-- Node15 -->
<g id="node15" class="node">
<title>Node15</title>
<g id="a_node15"><a xlink:title=" ">
<polygon fill="white" stroke="#bfbfbf" points="963,-112.5 963,-131.5 1011,-131.5 1011,-112.5 963,-112.5"/>
<text text-anchor="middle" x="987" y="-119.5" font-family="Helvetica,sans-Serif" font-size="10.00">mutex</text>
</a>
</g>
</g>
<!-- Node2&#45;&gt;Node15 -->
<g id="edge15" class="edge">
<title>Node2&#45;&gt;Node15</title>
<path fill="none" stroke="midnightblue" d="M805.55,-302.49C825.43,-293.45 850.65,-280.66 871,-266 919.71,-230.92 959.37,-170.37 977.05,-140.58"/>
<polygon fill="midnightblue" stroke="midnightblue" points="980.19,-142.15 982.19,-131.74 974.14,-138.63 980.19,-142.15"/>
</g>
<!-- Node16 -->
<g id="node16" class="node">
<title>Node16</title>
<g id="a_node16"><a xlink:title=" ">
<polygon fill="white" stroke="#bfbfbf" points="1188.5,-56.5 1188.5,-75.5 1281.5,-75.5 1281.5,-56.5 1188.5,-56.5"/>
<text text-anchor="middle" x="1235" y="-63.5" font-family="Helvetica,sans-Serif" font-size="10.00">unordered_map</text>
</a>
</g>
</g>
<!-- Node2&#45;&gt;Node16 -->
<g id="edge16" class="edge">
<title>Node2&#45;&gt;Node16</title>
<path fill="none" stroke="midnightblue" d="M830.2,-316.23C909.5,-314.29 1054.99,-305.08 1172,-266 1219.58,-250.11 1244.82,-253.39 1270,-210 1293.75,-169.07 1264.83,-112.53 1247.01,-84.38"/>
<polygon fill="midnightblue" stroke="midnightblue" points="1249.7,-82.1 1241.27,-75.68 1243.86,-85.96 1249.7,-82.1"/>
</g>
<!-- Node17 -->
<g id="node17" class="node">
<title>Node17</title>
<g id="a_node17"><a xlink:title=" ">
<polygon fill="white" stroke="#bfbfbf" points="344.5,-246.5 344.5,-265.5 395.5,-265.5 395.5,-246.5 344.5,-246.5"/>
<text text-anchor="middle" x="370" y="-253.5" font-family="Helvetica,sans-Serif" font-size="10.00">variant</text>
</a>
</g>
</g>
<!-- Node2&#45;&gt;Node17 -->
<g id="edge17" class="edge">
<title>Node2&#45;&gt;Node17</title>
<path fill="none" stroke="midnightblue" d="M713.82,-310.58C643.21,-302.94 520.43,-288.16 405.56,-265.89"/>
<polygon fill="midnightblue" stroke="midnightblue" points="406.02,-262.42 395.54,-263.93 404.68,-269.29 406.02,-262.42"/>
</g>
<!-- Node18 -->
<g id="node18" class="node">
<title>Node18</title>
<g id="a_node18"><a xlink:title=" ">
<polygon fill="white" stroke="#bfbfbf" points="414,-246.5 414,-265.5 470,-265.5 470,-246.5 414,-246.5"/>
<text text-anchor="middle" x="442" y="-253.5" font-family="Helvetica,sans-Serif" font-size="10.00">optional</text>
</a>
</g>
</g>
<!-- Node2&#45;&gt;Node18 -->
<g id="edge18" class="edge">
<title>Node2&#45;&gt;Node18</title>
<path fill="none" stroke="midnightblue" d="M713.96,-306.98C655.71,-297.27 563.47,-281.48 484,-266 482.76,-265.76 481.51,-265.51 480.24,-265.26"/>
<polygon fill="midnightblue" stroke="midnightblue" points="480.94,-261.83 470.44,-263.24 479.53,-268.68 480.94,-261.83"/>
</g>
<!-- Node19 -->
<g id="node19" class="node">
<title>Node19</title>
<g id="a_node19"><a xlink:href="../../da/d3b/ObjectIterator_8h.html" target="_top" xlink:title=" ">
<polygon fill="white" stroke="black" points="564,-246.5 564,-265.5 656,-265.5 656,-246.5 564,-246.5"/>
<text text-anchor="middle" x="610" y="-253.5" font-family="Helvetica,sans-Serif" font-size="10.00">ObjectIterator.h</text>
</a>
</g>
</g>
<!-- Node2&#45;&gt;Node19 -->
<g id="edge19" class="edge">
<title>Node2&#45;&gt;Node19</title>
<path fill="none" stroke="midnightblue" d="M733.61,-302.4C706.06,-292.28 669.33,-278.79 643.08,-269.15"/>
<polygon fill="midnightblue" stroke="midnightblue" points="644.17,-265.82 633.57,-265.66 641.75,-272.39 644.17,-265.82"/>
</g>
<!-- Node22 -->
<g id="node22" class="node">
<title>Node22</title>
<g id="a_node22"><a xlink:href="../../d5/de2/ViewCursor_8h.html" target="_top" xlink:title=" ">
<polygon fill="white" stroke="black" points="427,-179.5 427,-198.5 507,-198.5 507,-179.5 427,-179.5"/>
<text text-anchor="middle" x="467" y="-186.5" font-family="Helvetica,sans-Serif" font-size="10.00">ViewCursor.h</text>
</a>
</g>
</g>
<!-- Node2&#45;&gt;Node22 -->
<g id="edge32" class="edge">
<title>Node2&#45;&gt;Node22</title>
<path fill="none" stroke="midnightblue" d="M713.65,-310.66C668.4,-304.34 605.16,-291.51 555,-266 525.31,-250.9 497.34,-223.69 481.2,-206.26"/>
<polygon fill="midnightblue" stroke="midnightblue" points="483.57,-203.66 474.27,-198.58 478.37,-208.35 483.57,-203.66"/>
</g>
<!-- Node24 -->
<g id="node24" class="node">
<title>Node24</title>
<g id="a_node24"><a xlink:href="../../d0/d10/ViewStructure_8h.html" target="_top" xlink:title=" ">
<polygon fill="white" stroke="black" points="851,-112.5 851,-131.5 945,-131.5 945,-112.5 851,-112.5"/>
<text text-anchor="middle" x="898" y="-119.5" font-family="Helvetica,sans-Serif" font-size="10.00">ViewStructure.h</text>
</a>
</g>
</g>
<!-- Node2&#45;&gt;Node24 -->
<g id="edge33" class="edge">
<title>Node2&#45;&gt;Node24</title>
<path fill="none" stroke="midnightblue" d="M792.65,-302.32C829.99,-276.47 905.49,-223.13 912,-210 922.96,-187.9 914.56,-159.12 906.84,-140.85"/>
<polygon fill="midnightblue" stroke="midnightblue" points="909.98,-139.3 902.63,-131.66 903.61,-142.21 909.98,-139.3"/>
</g>
<!-- Node25 -->
<g id="node25" class="node">
<title>Node25</title>
<g id="a_node25"><a xlink:href="../../d8/dee/VirtualObject_8h.html" target="_top" xlink:title=" ">
<polygon fill="white" stroke="black" points="813.5,-179.5 813.5,-198.5 902.5,-198.5 902.5,-179.5 813.5,-179.5"/>
<text text-anchor="middle" x="858" y="-186.5" font-family="Helvetica,sans-Serif" font-size="10.00">VirtualObject.h</text>
</a>
</g>
</g>
<!-- Node2&#45;&gt;Node25 -->
<g id="edge34" class="edge">
<title>Node2&#45;&gt;Node25</title>
<path fill="none" stroke="midnightblue" d="M781.53,-302.48C797.35,-279.21 829,-232.66 846.2,-207.36"/>
<polygon fill="midnightblue" stroke="midnightblue" points="849.3,-209.03 852.03,-198.79 843.51,-205.09 849.3,-209.03"/>
</g>
<!-- Node5 -->
<g id="node5" class="node">
<title>Node5</title>
<g id="a_node5"><a xlink:title=" ">
<polygon fill="white" stroke="#bfbfbf" points="703,-179.5 703,-198.5 757,-198.5 757,-179.5 703,-179.5"/>
<text text-anchor="middle" x="730" y="-186.5" font-family="Helvetica,sans-Serif" font-size="10.00">istream</text>
</a>
</g>
</g>
<!-- Node4&#45;&gt;Node5 -->
<g id="edge4" class="edge">
<title>Node4&#45;&gt;Node5</title>
<path fill="none" stroke="midnightblue" d="M730,-246.23C730,-236.68 730,-221.12 730,-208.78"/>
<polygon fill="midnightblue" stroke="midnightblue" points="733.5,-208.63 730,-198.63 726.5,-208.63 733.5,-208.63"/>
</g>
<!-- Node6 -->
<g id="node6" class="node">
<title>Node6</title>
<g id="a_node6"><a xlink:title=" ">
<polygon fill="white" stroke="#bfbfbf" points="801,-56.5 801,-75.5 845,-75.5 845,-56.5 801,-56.5"/>
<text text-anchor="middle" x="823" y="-63.5" font-family="Helvetica,sans-Serif" font-size="10.00">string</text>
</a>
</g>
</g>
<!-- Node4&#45;&gt;Node6 -->
<g id="edge5" class="edge">
<title>Node4&#45;&gt;Node6</title>
<path fill="none" stroke="midnightblue" d="M738.29,-246.27C746.2,-237.6 758.05,-223.66 766,-210 790.45,-167.99 808.92,-113.5 817.58,-85.46"/>
<polygon fill="midnightblue" stroke="midnightblue" points="820.96,-86.37 820.5,-75.79 814.26,-84.35 820.96,-86.37"/>
</g>
<!-- Node7&#45;&gt;Node3 -->
<g id="edge7" class="edge">
<title>Node7&#45;&gt;Node3</title>
<path fill="none" stroke="midnightblue" d="M424.22,-57.15C493.52,-46.92 613.99,-29.15 683.45,-18.9"/>
<polygon fill="midnightblue" stroke="midnightblue" points="684.35,-22.31 693.73,-17.38 683.33,-15.38 684.35,-22.31"/>
</g>
<!-- Node7&#45;&gt;Node8 -->
<g id="edge8" class="edge">
<title>Node7&#45;&gt;Node8</title>
<path fill="none" stroke="midnightblue" d="M321.88,-56.44C267.12,-46.9 178.59,-31.48 120.09,-21.29"/>
<polygon fill="midnightblue" stroke="midnightblue" points="120.34,-17.78 109.89,-19.52 119.14,-24.68 120.34,-17.78"/>
</g>
<!-- Node9 -->
<g id="node9" class="node">
<title>Node9</title>
<g id="a_node9"><a xlink:title=" ">
<polygon fill="white" stroke="#bfbfbf" points="375,-0.5 375,-19.5 497,-19.5 497,-0.5 375,-0.5"/>
<text text-anchor="middle" x="436" y="-7.5" font-family="Helvetica,sans-Serif" font-size="10.00">rapidjson/document.h</text>
</a>
</g>
</g>
<!-- Node7&#45;&gt;Node9 -->
<g id="edge9" class="edge">
<title>Node7&#45;&gt;Node9</title>
<path fill="none" stroke="midnightblue" d="M381.44,-56.32C391.15,-48.26 405.82,-36.08 417.5,-26.37"/>
<polygon fill="midnightblue" stroke="midnightblue" points="419.91,-28.92 425.37,-19.83 415.44,-23.53 419.91,-28.92"/>
</g>
<!-- Node7&#45;&gt;Node10 -->
<g id="edge10" class="edge">
<title>Node7&#45;&gt;Node10</title>
<path fill="none" stroke="midnightblue" d="M341.69,-56.44C310.16,-47.24 259.87,-32.56 225.01,-22.39"/>
<polygon fill="midnightblue" stroke="midnightblue" points="225.76,-18.96 215.18,-19.52 223.8,-25.68 225.76,-18.96"/>
</g>
<!-- Node11 -->
<g id="node11" class="node">
<title>Node11</title>
<g id="a_node11"><a xlink:title=" ">
<polygon fill="white" stroke="#bfbfbf" points="515,-0.5 515,-19.5 665,-19.5 665,-0.5 515,-0.5"/>
<text text-anchor="middle" x="590" y="-7.5" font-family="Helvetica,sans-Serif" font-size="10.00">rapidjson/istreamwrapper.h</text>
</a>
</g>
</g>
<!-- Node7&#45;&gt;Node11 -->
<g id="edge11" class="edge">
<title>Node7&#45;&gt;Node11</title>
<path fill="none" stroke="midnightblue" d="M405.7,-56.44C443.58,-47.1 504.35,-32.12 545.66,-21.93"/>
<polygon fill="midnightblue" stroke="midnightblue" points="546.59,-25.31 555.46,-19.52 544.91,-18.51 546.59,-25.31"/>
</g>
<!-- Node12 -->
<g id="node12" class="node">
<title>Node12</title>
<g id="a_node12"><a xlink:title=" ">
<polygon fill="white" stroke="#bfbfbf" points="249.5,-0.5 249.5,-19.5 356.5,-19.5 356.5,-0.5 249.5,-0.5"/>
<text text-anchor="middle" x="303" y="-7.5" font-family="Helvetica,sans-Serif" font-size="10.00">rapidjson/pointer.h</text>
</a>
</g>
</g>
<!-- Node7&#45;&gt;Node12 -->
<g id="edge12" class="edge">
<title>Node7&#45;&gt;Node12</title>
<path fill="none" stroke="midnightblue" d="M360.07,-56.32C349.83,-48.18 334.28,-35.84 322,-26.09"/>
<polygon fill="midnightblue" stroke="midnightblue" points="324.13,-23.31 314.12,-19.83 319.78,-28.79 324.13,-23.31"/>
</g>
<!-- Node19&#45;&gt;Node6 -->
<g id="edge21" class="edge">
<title>Node19&#45;&gt;Node6</title>
<path fill="none" stroke="midnightblue" d="M605.63,-246.31C601.44,-237.44 595.4,-223.14 593,-210 584.77,-164.93 588.18,-139.27 625,-112 674.38,-75.42 748.32,-67.79 790.48,-66.65"/>
<polygon fill="midnightblue" stroke="midnightblue" points="790.78,-70.14 800.73,-66.48 790.67,-63.15 790.78,-70.14"/>
</g>
<!-- Node19&#45;&gt;Node7 -->
<g id="edge20" class="edge">
<title>Node19&#45;&gt;Node7</title>
<path fill="none" stroke="midnightblue" d="M604.94,-246.27C590.27,-221.7 545.24,-151.2 490,-112 468.17,-96.51 440.34,-85.6 417.08,-78.41"/>
<polygon fill="midnightblue" stroke="midnightblue" points="418.01,-75.03 407.43,-75.55 416.02,-81.74 418.01,-75.03"/>
</g>
<!-- Node20 -->
<g id="node20" class="node">
<title>Node20</title>
<g id="a_node20"><a xlink:title=" ">
<polygon fill="white" stroke="#bfbfbf" points="601.5,-179.5 601.5,-198.5 646.5,-198.5 646.5,-179.5 601.5,-179.5"/>
<text text-anchor="middle" x="624" y="-186.5" font-family="Helvetica,sans-Serif" font-size="10.00">utility</text>
</a>
</g>
</g>
<!-- Node19&#45;&gt;Node20 -->
<g id="edge22" class="edge">
<title>Node19&#45;&gt;Node20</title>
<path fill="none" stroke="midnightblue" d="M611.89,-246.23C613.97,-236.59 617.37,-220.8 620.04,-208.41"/>
<polygon fill="midnightblue" stroke="midnightblue" points="623.46,-209.14 622.14,-198.63 616.61,-207.67 623.46,-209.14"/>
</g>
<!-- Node21 -->
<g id="node21" class="node">
<title>Node21</title>
<g id="a_node21"><a xlink:title=" ">
<polygon fill="white" stroke="#bfbfbf" points="633.5,-112.5 633.5,-131.5 680.5,-131.5 680.5,-112.5 633.5,-112.5"/>
<text text-anchor="middle" x="657" y="-119.5" font-family="Helvetica,sans-Serif" font-size="10.00">vector</text>
</a>
</g>
</g>
<!-- Node19&#45;&gt;Node21 -->
<g id="edge23" class="edge">
<title>Node19&#45;&gt;Node21</title>
<path fill="none" stroke="midnightblue" d="M623.3,-246.49C634.36,-238.55 649.33,-225.61 656,-210 665.44,-187.92 663.54,-159.7 660.74,-141.49"/>
<polygon fill="midnightblue" stroke="midnightblue" points="664.18,-140.83 658.98,-131.59 657.29,-142.05 664.18,-140.83"/>
</g>
<!-- Node19&#45;&gt;Node22 -->
<g id="edge24" class="edge">
<title>Node19&#45;&gt;Node22</title>
<path fill="none" stroke="midnightblue" d="M591.01,-246.37C566.54,-235.25 523.8,-215.82 495.44,-202.93"/>
<polygon fill="midnightblue" stroke="midnightblue" points="496.62,-199.62 486.07,-198.67 493.72,-205.99 496.62,-199.62"/>
</g>
<!-- Node22&#45;&gt;Node7 -->
<g id="edge25" class="edge">
<title>Node22&#45;&gt;Node7</title>
<path fill="none" stroke="midnightblue" d="M470.92,-179.17C476.98,-164.06 486.59,-132.85 473,-112 462.52,-95.92 444.86,-85.55 427.15,-78.87"/>
<polygon fill="midnightblue" stroke="midnightblue" points="427.95,-75.45 417.36,-75.53 425.69,-82.07 427.95,-75.45"/>
</g>
<!-- Node22&#45;&gt;Node21 -->
<g id="edge27" class="edge">
<title>Node22&#45;&gt;Node21</title>
<path fill="none" stroke="midnightblue" d="M492.23,-179.37C526.15,-167.77 586.5,-147.12 623.99,-134.29"/>
<polygon fill="midnightblue" stroke="midnightblue" points="625.13,-137.6 633.46,-131.05 622.86,-130.98 625.13,-137.6"/>
</g>
<!-- Node22&#45;&gt;Node23 -->
<g id="edge26" class="edge">
<title>Node22&#45;&gt;Node23</title>
<path fill="none" stroke="midnightblue" d="M458.23,-179.23C447.9,-168.9 430.54,-151.54 417.83,-138.83"/>
<polygon fill="midnightblue" stroke="midnightblue" points="420.17,-136.22 410.63,-131.63 415.22,-141.17 420.17,-136.22"/>
</g>
<!-- Node22&#45;&gt;Node24 -->
<g id="edge28" class="edge">
<title>Node22&#45;&gt;Node24</title>
<path fill="none" stroke="midnightblue" d="M507.27,-181.49C532,-177.53 564.32,-172.39 593,-168 679.27,-154.79 779.39,-140.15 840.71,-131.26"/>
<polygon fill="midnightblue" stroke="midnightblue" points="841.56,-134.68 850.95,-129.78 840.55,-127.75 841.56,-134.68"/>
</g>
<!-- Node24&#45;&gt;Node6 -->
<g id="edge30" class="edge">
<title>Node24&#45;&gt;Node6</title>
<path fill="none" stroke="midnightblue" d="M885.95,-112.32C874.54,-104.11 857.17,-91.6 843.57,-81.81"/>
<polygon fill="midnightblue" stroke="midnightblue" points="845.43,-78.84 835.27,-75.83 841.34,-84.52 845.43,-78.84"/>
</g>
<!-- Node24&#45;&gt;Node7 -->
<g id="edge29" class="edge">
<title>Node24&#45;&gt;Node7</title>
<path fill="none" stroke="midnightblue" d="M850.77,-116.16C755.68,-106.42 541.15,-84.43 434.16,-73.47"/>
<polygon fill="midnightblue" stroke="midnightblue" points="434.45,-69.98 424.14,-72.45 433.74,-76.95 434.45,-69.98"/>
</g>
<!-- Node24&#45;&gt;Node16 -->
<g id="edge31" class="edge">
<title>Node24&#45;&gt;Node16</title>
<path fill="none" stroke="midnightblue" d="M945.05,-113.44C948.08,-112.95 951.08,-112.47 954,-112 1031.61,-99.55 1121.29,-85.19 1178.06,-76.11"/>
<polygon fill="midnightblue" stroke="midnightblue" points="1178.94,-79.51 1188.26,-74.48 1177.83,-72.6 1178.94,-79.51"/>
</g>
<!-- Node25&#45;&gt;Node3 -->
<g id="edge35" class="edge">
<title>Node25&#45;&gt;Node3</title>
<path fill="none" stroke="midnightblue" d="M852.16,-179.46C833.36,-151.96 774.13,-65.32 748.74,-28.18"/>
<polygon fill="midnightblue" stroke="midnightblue" points="751.6,-26.15 743.06,-19.87 745.82,-30.1 751.6,-26.15"/>
</g>
<!-- Node25&#45;&gt;Node6 -->
<g id="edge37" class="edge">
<title>Node25&#45;&gt;Node6</title>
<path fill="none" stroke="midnightblue" d="M855.48,-179.3C849.83,-159.76 836.04,-112.06 828.36,-85.55"/>
<polygon fill="midnightblue" stroke="midnightblue" points="831.64,-84.26 825.49,-75.62 824.91,-86.2 831.64,-84.26"/>
</g>
<!-- Node25&#45;&gt;Node7 -->
<g id="edge36" class="edge">
<title>Node25&#45;&gt;Node7</title>
<path fill="none" stroke="midnightblue" d="M838.48,-179.36C813.84,-168.43 770.21,-148.99 733,-132 713.83,-123.25 710.21,-117.98 690,-112 603.58,-86.42 499.58,-75.22 434.36,-70.42"/>
<polygon fill="midnightblue" stroke="midnightblue" points="434.45,-66.92 424.23,-69.71 433.96,-73.9 434.45,-66.92"/>
</g>
<!-- Node25&#45;&gt;Node24 -->
<g id="edge38" class="edge">
<title>Node25&#45;&gt;Node24</title>
<path fill="none" stroke="midnightblue" d="M863.39,-179.23C869.51,-169.29 879.64,-152.84 887.36,-140.29"/>
<polygon fill="midnightblue" stroke="midnightblue" points="890.43,-141.98 892.69,-131.63 884.47,-138.31 890.43,-141.98"/>
</g>
<!-- Node27&#45;&gt;Node6 -->
<g id="edge45" class="edge">
<title>Node27&#45;&gt;Node6</title>
<path fill="none" stroke="midnightblue" d="M1146.7,-168.35C1114.26,-151.46 1065.04,-127.45 1020,-112 963.46,-92.61 894.92,-79.09 855.4,-72.23"/>
<polygon fill="midnightblue" stroke="midnightblue" points="855.73,-68.73 845.29,-70.5 854.56,-75.63 855.73,-68.73"/>
</g>
<!-- Node27&#45;&gt;Node15 -->
<g id="edge44" class="edge">
<title>Node27&#45;&gt;Node15</title>
<path fill="none" stroke="midnightblue" d="M1124.19,-168.5C1090.45,-157.31 1049.28,-143.66 1020.9,-134.24"/>
<polygon fill="midnightblue" stroke="midnightblue" points="1021.65,-130.8 1011.06,-130.98 1019.45,-137.45 1021.65,-130.8"/>
</g>
<!-- Node27&#45;&gt;Node16 -->
<g id="edge46" class="edge">
<title>Node27&#45;&gt;Node16</title>
<path fill="none" stroke="midnightblue" d="M1196.16,-168.42C1202.78,-157.95 1210.53,-144.63 1216,-132 1222.57,-116.83 1227.65,-98.71 1230.9,-85.46"/>
<polygon fill="midnightblue" stroke="midnightblue" points="1234.33,-86.18 1233.19,-75.65 1227.51,-84.59 1234.33,-86.18"/>
</g>
<!-- Node27&#45;&gt;Node21 -->
<g id="edge48" class="edge">
<title>Node27&#45;&gt;Node21</title>
<path fill="none" stroke="midnightblue" d="M1105.39,-178.41C988.9,-164.01 773.68,-137.42 690.78,-127.17"/>
<polygon fill="midnightblue" stroke="midnightblue" points="691.01,-123.68 680.66,-125.92 690.15,-130.62 691.01,-123.68"/>
</g>
<!-- Node28 -->
<g id="node28" class="node">
<title>Node28</title>
<g id="a_node28"><a xlink:title=" ">
<polygon fill="white" stroke="#bfbfbf" points="1121,-112.5 1121,-131.5 1207,-131.5 1207,-112.5 1121,-112.5"/>
<text text-anchor="middle" x="1164" y="-119.5" font-family="Helvetica,sans-Serif" font-size="10.00">unordered_set</text>
</a>
</g>
</g>
<!-- Node27&#45;&gt;Node28 -->
<g id="edge47" class="edge">
<title>Node27&#45;&gt;Node28</title>
<path fill="none" stroke="midnightblue" d="M1177.3,-168.5C1174.78,-159.87 1171.83,-149.79 1169.35,-141.31"/>
<polygon fill="midnightblue" stroke="midnightblue" points="1172.69,-140.27 1166.53,-131.65 1165.98,-142.23 1172.69,-140.27"/>
</g>
<!-- Node29&#45;&gt;Node3 -->
<g id="edge50" class="edge">
<title>Node29&#45;&gt;Node3</title>
<path fill="none" stroke="midnightblue" d="M276.41,-179.32C292.15,-163.59 327.75,-130.28 364,-112 470.56,-58.27 609.13,-30.44 683.77,-18.46"/>
<polygon fill="midnightblue" stroke="midnightblue" points="684.53,-21.89 693.87,-16.88 683.45,-14.97 684.53,-21.89"/>
</g>
<!-- Node29&#45;&gt;Node7 -->
<g id="edge53" class="edge">
<title>Node29&#45;&gt;Node7</title>
<path fill="none" stroke="midnightblue" d="M274.9,-179.49C286.39,-165.35 310.24,-136.19 331,-112 339.27,-102.36 348.7,-91.74 356.33,-83.23"/>
<polygon fill="midnightblue" stroke="midnightblue" points="359.16,-85.32 363.24,-75.55 353.95,-80.64 359.16,-85.32"/>
</g>
<!-- Node29&#45;&gt;Node23 -->
<g id="edge52" class="edge">
<title>Node29&#45;&gt;Node23</title>
<path fill="none" stroke="midnightblue" d="M285.79,-179.37C308.62,-168.3 348.43,-148.99 375,-136.1"/>
<polygon fill="midnightblue" stroke="midnightblue" points="376.66,-139.18 384.13,-131.67 373.61,-132.88 376.66,-139.18"/>
</g>
<!-- Node30 -->
<g id="node30" class="node">
<title>Node30</title>
<g id="a_node30"><a xlink:title=" ">
<polygon fill="white" stroke="#bfbfbf" points="165,-112.5 165,-131.5 279,-131.5 279,-112.5 165,-112.5"/>
<text text-anchor="middle" x="222" y="-119.5" font-family="Helvetica,sans-Serif" font-size="10.00">boost/operators.hpp</text>
</a>
</g>
</g>
<!-- Node29&#45;&gt;Node30 -->
<g id="edge51" class="edge">
<title>Node29&#45;&gt;Node30</title>
<path fill="none" stroke="midnightblue" d="M261.8,-179.23C254.69,-169.2 242.89,-152.51 233.98,-139.92"/>
<polygon fill="midnightblue" stroke="midnightblue" points="236.74,-137.77 228.11,-131.63 231.03,-141.81 236.74,-137.77"/>
</g>
</g>
</svg>
