<?xml version="1.0" encoding="UTF-8" standalone="no"?>
<!DOCTYPE svg PUBLIC "-//W3C//DTD SVG 1.1//EN"
 "http://www.w3.org/Graphics/SVG/1.1/DTD/svg11.dtd">
<!-- Generated by graphviz version 2.43.0 (0)
 -->
<!-- Title: MemoryJoinManager Pages: 1 -->
<svg width="1128pt" height="253pt"
 viewBox="0.00 0.00 1128.00 253.00" xmlns="http://www.w3.org/2000/svg" xmlns:xlink="http://www.w3.org/1999/xlink">
<g id="graph0" class="graph" transform="scale(1 1) rotate(0) translate(4 249)">
<title>MemoryJoinManager</title>
<polygon fill="white" stroke="transparent" points="-4,4 -4,-249 1124,-249 1124,4 -4,4"/>
<!-- Node1 -->
<g id="node1" class="node">
<title>Node1</title>
<g id="a_node1"><a xlink:title=" ">
<polygon fill="#bfbfbf" stroke="black" points="1002,-110 1002,-129 1120,-129 1120,-110 1002,-110"/>
<text text-anchor="middle" x="1061" y="-117" font-family="Helvetica,sans-Serif" font-size="10.00">MemoryJoinManager</text>
</a>
</g>
</g>
<!-- Node2 -->
<g id="node2" class="node">
<title>Node2</title>
<g id="a_node2"><a xlink:href="../../d0/d3a/classJoinManager.html" target="_top" xlink:title=" ">
<polygon fill="white" stroke="black" points="808,-208 808,-227 885,-227 885,-208 808,-208"/>
<text text-anchor="middle" x="846.5" y="-215" font-family="Helvetica,sans-Serif" font-size="10.00">JoinManager</text>
</a>
</g>
</g>
<!-- Node2&#45;&gt;Node1 -->
<g id="edge1" class="edge">
<title>Node2&#45;&gt;Node1</title>
<path fill="none" stroke="midnightblue" d="M895.45,-210.44C908.86,-207.6 923.26,-203.73 936,-198.5 980.63,-180.19 1026.95,-145.85 1048.14,-129.14"/>
<polygon fill="midnightblue" stroke="midnightblue" points="894.55,-207.05 885.42,-212.41 895.91,-213.92 894.55,-207.05"/>
</g>
<!-- Node3 -->
<g id="node3" class="node">
<title>Node3</title>
<g id="a_node3"><a xlink:title=" ">
<polygon fill="white" stroke="#bfbfbf" points="440,-220 440,-239 505,-239 505,-220 440,-220"/>
<text text-anchor="middle" x="472.5" y="-227" font-family="Helvetica,sans-Serif" font-size="10.00">std::string</text>
</a>
</g>
</g>
<!-- Node3&#45;&gt;Node2 -->
<g id="edge2" class="edge">
<title>Node3&#45;&gt;Node2</title>
<path fill="none" stroke="#9a32cd" stroke-dasharray="5,2" d="M515.42,-228.15C588.46,-225.79 737.92,-220.97 807.85,-218.71"/>
<polygon fill="#9a32cd" stroke="#9a32cd" points="515.1,-224.66 505.22,-228.48 515.32,-231.65 515.1,-224.66"/>
<text text-anchor="middle" x="654.5" y="-228.5" font-family="Helvetica,sans-Serif" font-size="10.00"> name</text>
</g>
<!-- Node14 -->
<g id="node14" class="node">
<title>Node14</title>
<g id="a_node14"><a xlink:title=" ">
<polygon fill="white" stroke="#bfbfbf" points="789.5,-148 789.5,-189 903.5,-189 903.5,-148 789.5,-148"/>
<text text-anchor="start" x="797.5" y="-177" font-family="Helvetica,sans-Serif" font-size="10.00">std::unordered_map</text>
<text text-anchor="start" x="797.5" y="-166" font-family="Helvetica,sans-Serif" font-size="10.00">&lt; std::string, JODA</text>
<text text-anchor="middle" x="846.5" y="-155" font-family="Helvetica,sans-Serif" font-size="10.00">_JOINID &gt;</text>
</a>
</g>
</g>
<!-- Node3&#45;&gt;Node14 -->
<g id="edge17" class="edge">
<title>Node3&#45;&gt;Node14</title>
<path fill="none" stroke="#9a32cd" stroke-dasharray="5,2" d="M515.17,-218.51C532.1,-214.32 551.89,-209.77 570,-206.5 644.48,-193.04 664.06,-196.13 739,-185.5 755.41,-183.17 773.2,-180.42 789.45,-177.82"/>
<polygon fill="#9a32cd" stroke="#9a32cd" points="513.89,-215.22 505.04,-221.05 515.59,-222.01 513.89,-215.22"/>
<text text-anchor="middle" x="654.5" y="-209.5" font-family="Helvetica,sans-Serif" font-size="10.00"> keys</text>
</g>
<!-- Node4 -->
<g id="node4" class="node">
<title>Node4</title>
<g id="a_node4"><a xlink:title=" ">
<polygon fill="white" stroke="#bfbfbf" points="89,-214.5 89,-244.5 193,-244.5 193,-214.5 89,-214.5"/>
<text text-anchor="start" x="97" y="-232.5" font-family="Helvetica,sans-Serif" font-size="10.00">std::basic_string&lt;</text>
<text text-anchor="middle" x="141" y="-221.5" font-family="Helvetica,sans-Serif" font-size="10.00"> Char &gt;</text>
</a>
</g>
</g>
<!-- Node4&#45;&gt;Node3 -->
<g id="edge3" class="edge">
<title>Node4&#45;&gt;Node3</title>
<path fill="none" stroke="midnightblue" d="M203.14,-229.5C273.15,-229.5 385.19,-229.5 439.68,-229.5"/>
<polygon fill="midnightblue" stroke="midnightblue" points="203.12,-226 193.12,-229.5 203.12,-233 203.12,-226"/>
</g>
<!-- Node5 -->
<g id="node5" class="node">
<title>Node5</title>
<g id="a_node5"><a xlink:title=" ">
<polygon fill="white" stroke="#bfbfbf" points="404,-158.5 404,-188.5 541,-188.5 541,-158.5 404,-158.5"/>
<text text-anchor="start" x="412" y="-176.5" font-family="Helvetica,sans-Serif" font-size="10.00">std::unique_ptr&lt; joda</text>
<text text-anchor="middle" x="472.5" y="-165.5" font-family="Helvetica,sans-Serif" font-size="10.00">::query::IValueProvider &gt;</text>
</a>
</g>
</g>
<!-- Node5&#45;&gt;Node2 -->
<g id="edge4" class="edge">
<title>Node5&#45;&gt;Node2</title>
<path fill="none" stroke="#9a32cd" stroke-dasharray="5,2" d="M551.14,-166.27C617.54,-161.45 707.27,-158.56 739,-174.5 750.91,-180.49 745.77,-191.31 757,-198.5 772.09,-208.16 791.29,-212.98 807.95,-215.36"/>
<polygon fill="#9a32cd" stroke="#9a32cd" points="550.82,-162.78 541.11,-167.03 551.34,-169.76 550.82,-162.78"/>
<text text-anchor="middle" x="654.5" y="-177.5" font-family="Helvetica,sans-Serif" font-size="10.00"> valProv</text>
</g>
<!-- Node6 -->
<g id="node6" class="node">
<title>Node6</title>
<g id="a_node6"><a xlink:title=" ">
<polygon fill="white" stroke="#bfbfbf" points="82,-116 82,-135 200,-135 200,-116 82,-116"/>
<text text-anchor="middle" x="141" y="-123" font-family="Helvetica,sans-Serif" font-size="10.00">std::unique_ptr&lt; T &gt;</text>
</a>
</g>
</g>
<!-- Node6&#45;&gt;Node5 -->
<g id="edge5" class="edge">
<title>Node6&#45;&gt;Node5</title>
<path fill="none" stroke="orange" stroke-dasharray="5,2" d="M201.69,-136.78C207.2,-137.74 212.7,-138.66 218,-139.5 280.82,-149.49 352.71,-158.95 403.85,-165.34"/>
<polygon fill="orange" stroke="orange" points="202.27,-133.33 191.82,-135.04 201.05,-140.22 202.27,-133.33"/>
<text text-anchor="middle" x="296.5" y="-164.5" font-family="Helvetica,sans-Serif" font-size="10.00"> &lt; joda::query::IValueProvider &gt;</text>
</g>
<!-- Node13 -->
<g id="node13" class="node">
<title>Node13</title>
<g id="a_node13"><a xlink:title=" ">
<polygon fill="white" stroke="#bfbfbf" points="393,-109.5 393,-139.5 552,-139.5 552,-109.5 393,-109.5"/>
<text text-anchor="start" x="401" y="-127.5" font-family="Helvetica,sans-Serif" font-size="10.00">std::unique_ptr&lt; MemoryJoin</text>
<text text-anchor="middle" x="472.5" y="-116.5" font-family="Helvetica,sans-Serif" font-size="10.00">Doc &gt;</text>
</a>
</g>
</g>
<!-- Node6&#45;&gt;Node13 -->
<g id="edge14" class="edge">
<title>Node6&#45;&gt;Node13</title>
<path fill="none" stroke="orange" stroke-dasharray="5,2" d="M210.16,-125.29C263.33,-125.13 337.25,-124.91 392.91,-124.74"/>
<polygon fill="orange" stroke="orange" points="210.14,-121.79 200.15,-125.32 210.16,-128.79 210.14,-121.79"/>
<text text-anchor="middle" x="296.5" y="-127.5" font-family="Helvetica,sans-Serif" font-size="10.00"> &lt; MemoryJoinDoc &gt;</text>
</g>
<!-- Node7 -->
<g id="node7" class="node">
<title>Node7</title>
<g id="a_node7"><a xlink:title=" ">
<polygon fill="white" stroke="#bfbfbf" points="0,-55 0,-74 29,-74 29,-55 0,-55"/>
<text text-anchor="middle" x="14.5" y="-62" font-family="Helvetica,sans-Serif" font-size="10.00">T</text>
</a>
</g>
</g>
<!-- Node7&#45;&gt;Node6 -->
<g id="edge6" class="edge">
<title>Node7&#45;&gt;Node6</title>
<path fill="none" stroke="#9a32cd" stroke-dasharray="5,2" d="M37.15,-80.09C49.78,-88.7 66.29,-99.11 82,-106.5 89.57,-110.07 98,-113.24 106.02,-115.92"/>
<polygon fill="#9a32cd" stroke="#9a32cd" points="38.9,-77.05 28.69,-74.21 34.9,-82.8 38.9,-77.05"/>
<text text-anchor="middle" x="55.5" y="-98.5" font-family="Helvetica,sans-Serif" font-size="10.00"> ptr</text>
</g>
<!-- Node9 -->
<g id="node9" class="node">
<title>Node9</title>
<g id="a_node9"><a xlink:title=" ">
<polygon fill="white" stroke="#bfbfbf" points="415.5,-34.5 415.5,-64.5 529.5,-64.5 529.5,-34.5 415.5,-34.5"/>
<text text-anchor="start" x="423.5" y="-52.5" font-family="Helvetica,sans-Serif" font-size="10.00">std::unordered_map</text>
<text text-anchor="middle" x="472.5" y="-41.5" font-family="Helvetica,sans-Serif" font-size="10.00">&lt; K, T &gt;</text>
</a>
</g>
</g>
<!-- Node7&#45;&gt;Node9 -->
<g id="edge10" class="edge">
<title>Node7&#45;&gt;Node9</title>
<path fill="none" stroke="#9a32cd" stroke-dasharray="5,2" d="M39.4,-61.49C52.05,-60.02 67.84,-58.39 82,-57.5 200.47,-50.06 339.56,-49.06 415.32,-49.17"/>
<polygon fill="#9a32cd" stroke="#9a32cd" points="38.74,-58.05 29.23,-62.71 39.57,-65 38.74,-58.05"/>
<text text-anchor="middle" x="141" y="-60.5" font-family="Helvetica,sans-Serif" font-size="10.00"> elements</text>
</g>
<!-- Node8 -->
<g id="node8" class="node">
<title>Node8</title>
<g id="a_node8"><a xlink:title=" ">
<polygon fill="white" stroke="#bfbfbf" points="782.5,-0.5 782.5,-30.5 910.5,-30.5 910.5,-0.5 782.5,-0.5"/>
<text text-anchor="start" x="790.5" y="-18.5" font-family="Helvetica,sans-Serif" font-size="10.00">std::unordered_map</text>
<text text-anchor="middle" x="846.5" y="-7.5" font-family="Helvetica,sans-Serif" font-size="10.00">&lt; long, JODA_JOINID &gt;</text>
</a>
</g>
</g>
<!-- Node8&#45;&gt;Node1 -->
<g id="edge7" class="edge">
<title>Node8&#45;&gt;Node1</title>
<path fill="none" stroke="#9a32cd" stroke-dasharray="5,2" d="M919.38,-33.86C925.08,-35.9 930.68,-38.12 936,-40.5 979.79,-60.12 1026.14,-93.53 1047.67,-109.89"/>
<polygon fill="#9a32cd" stroke="#9a32cd" points="920.33,-30.49 909.74,-30.59 918.08,-37.12 920.33,-30.49"/>
<text text-anchor="middle" x="969" y="-67.5" font-family="Helvetica,sans-Serif" font-size="10.00"> lMap</text>
</g>
<!-- Node9&#45;&gt;Node8 -->
<g id="edge8" class="edge">
<title>Node9&#45;&gt;Node8</title>
<path fill="none" stroke="orange" stroke-dasharray="5,2" d="M539.68,-35.2C549.8,-33.38 560.15,-31.73 570,-30.5 642.48,-21.44 726.37,-17.85 782.36,-16.43"/>
<polygon fill="orange" stroke="orange" points="538.86,-31.79 529.67,-37.06 540.14,-38.68 538.86,-31.79"/>
<text text-anchor="middle" x="654.5" y="-33.5" font-family="Helvetica,sans-Serif" font-size="10.00"> &lt; long, JODA_JOINID &gt;</text>
</g>
<!-- Node12 -->
<g id="node12" class="node">
<title>Node12</title>
<g id="a_node12"><a xlink:title=" ">
<polygon fill="white" stroke="#bfbfbf" points="757,-50 757,-91 936,-91 936,-50 757,-50"/>
<text text-anchor="start" x="765" y="-79" font-family="Helvetica,sans-Serif" font-size="10.00">std::unordered_map</text>
<text text-anchor="start" x="765" y="-68" font-family="Helvetica,sans-Serif" font-size="10.00">&lt; JODA_JOINID, std::</text>
<text text-anchor="middle" x="846.5" y="-57" font-family="Helvetica,sans-Serif" font-size="10.00">unique_ptr&lt; MemoryJoinDoc &gt; &gt;</text>
</a>
</g>
</g>
<!-- Node9&#45;&gt;Node12 -->
<g id="edge15" class="edge">
<title>Node9&#45;&gt;Node12</title>
<path fill="none" stroke="orange" stroke-dasharray="5,2" d="M539.68,-46.42C593.49,-44.72 671.32,-44.07 739,-50.5 744.81,-51.05 750.77,-51.76 756.76,-52.59"/>
<polygon fill="orange" stroke="orange" points="539.46,-42.93 529.59,-46.76 539.7,-49.92 539.46,-42.93"/>
<text text-anchor="start" x="570" y="-64.5" font-family="Helvetica,sans-Serif" font-size="10.00"> &lt; JODA_JOINID, std</text>
<text text-anchor="middle" x="654.5" y="-53.5" font-family="Helvetica,sans-Serif" font-size="10.00">::unique_ptr&lt; MemoryJoinDoc &gt; &gt;</text>
</g>
<!-- Node9&#45;&gt;Node14 -->
<g id="edge18" class="edge">
<title>Node9&#45;&gt;Node14</title>
<path fill="none" stroke="orange" stroke-dasharray="5,2" d="M539.66,-66.39C549.78,-68.65 560.14,-70.78 570,-72.5 607.23,-79 709.11,-68.37 739,-91.5 756.69,-105.19 740.88,-122.99 757,-138.5 766,-147.16 777.6,-153.32 789.41,-157.71"/>
<polygon fill="orange" stroke="orange" points="540.17,-62.92 529.65,-64.1 538.61,-69.74 540.17,-62.92"/>
<text text-anchor="start" x="607.5" y="-105.5" font-family="Helvetica,sans-Serif" font-size="10.00"> &lt; std::string, JODA</text>
<text text-anchor="middle" x="654.5" y="-94.5" font-family="Helvetica,sans-Serif" font-size="10.00">_JOINID &gt;</text>
</g>
<!-- Node10 -->
<g id="node10" class="node">
<title>Node10</title>
<g id="a_node10"><a xlink:title=" ">
<polygon fill="white" stroke="#bfbfbf" points="126.5,-78 126.5,-97 155.5,-97 155.5,-78 126.5,-78"/>
<text text-anchor="middle" x="141" y="-85" font-family="Helvetica,sans-Serif" font-size="10.00">K</text>
</a>
</g>
</g>
<!-- Node10&#45;&gt;Node9 -->
<g id="edge9" class="edge">
<title>Node10&#45;&gt;Node9</title>
<path fill="none" stroke="#9a32cd" stroke-dasharray="5,2" d="M165.77,-85.16C207.95,-80.97 298.62,-71.74 375,-62.5 388.09,-60.92 402.16,-59.09 415.4,-57.32"/>
<polygon fill="#9a32cd" stroke="#9a32cd" points="165.28,-81.7 155.67,-86.16 165.97,-88.66 165.28,-81.7"/>
<text text-anchor="middle" x="296.5" y="-82.5" font-family="Helvetica,sans-Serif" font-size="10.00"> keys</text>
</g>
<!-- Node11 -->
<g id="node11" class="node">
<title>Node11</title>
<g id="a_node11"><a xlink:title=" ">
<polygon fill="white" stroke="#bfbfbf" points="812,-110 812,-129 881,-129 881,-110 812,-110"/>
<text text-anchor="middle" x="846.5" y="-117" font-family="Helvetica,sans-Serif" font-size="10.00">std::mutex</text>
</a>
</g>
</g>
<!-- Node11&#45;&gt;Node1 -->
<g id="edge11" class="edge">
<title>Node11&#45;&gt;Node1</title>
<path fill="none" stroke="#9a32cd" stroke-dasharray="5,2" d="M891.51,-119.5C923.4,-119.5 966.85,-119.5 1001.63,-119.5"/>
<polygon fill="#9a32cd" stroke="#9a32cd" points="891.17,-116 881.17,-119.5 891.17,-123 891.17,-116"/>
<text text-anchor="middle" x="969" y="-122.5" font-family="Helvetica,sans-Serif" font-size="10.00"> mut</text>
</g>
<!-- Node12&#45;&gt;Node1 -->
<g id="edge12" class="edge">
<title>Node12&#45;&gt;Node1</title>
<path fill="none" stroke="#9a32cd" stroke-dasharray="5,2" d="M945.89,-93.19C971.59,-99.11 997.91,-105.18 1018.79,-110"/>
<polygon fill="#9a32cd" stroke="#9a32cd" points="946.61,-89.76 936.08,-90.93 945.04,-96.58 946.61,-89.76"/>
<text text-anchor="middle" x="969" y="-103.5" font-family="Helvetica,sans-Serif" font-size="10.00"> docs</text>
</g>
<!-- Node13&#45;&gt;Node12 -->
<g id="edge13" class="edge">
<title>Node13&#45;&gt;Node12</title>
<path fill="none" stroke="#9a32cd" stroke-dasharray="5,2" d="M562.16,-137.65C615.39,-141.84 683.35,-140.48 739,-117.5 749.17,-113.3 747.57,-106.17 757,-100.5 762.7,-97.07 768.84,-93.97 775.14,-91.18"/>
<polygon fill="#9a32cd" stroke="#9a32cd" points="562.32,-134.15 552.06,-136.78 561.72,-141.13 562.32,-134.15"/>
<text text-anchor="middle" x="654.5" y="-142.5" font-family="Helvetica,sans-Serif" font-size="10.00"> elements</text>
</g>
<!-- Node14&#45;&gt;Node1 -->
<g id="edge16" class="edge">
<title>Node14&#45;&gt;Node1</title>
<path fill="none" stroke="#9a32cd" stroke-dasharray="5,2" d="M913.58,-153.26C947.95,-145.34 988.91,-135.89 1018.75,-129.01"/>
<polygon fill="#9a32cd" stroke="#9a32cd" points="912.57,-149.9 903.61,-155.56 914.14,-156.73 912.57,-149.9"/>
<text text-anchor="middle" x="969" y="-145.5" font-family="Helvetica,sans-Serif" font-size="10.00"> sMap</text>
</g>
</g>
</svg>
