<?xml version="1.0" encoding="UTF-8" standalone="no"?>
<!DOCTYPE svg PUBLIC "-//W3C//DTD SVG 1.1//EN"
 "http://www.w3.org/Graphics/SVG/1.1/DTD/svg11.dtd">
<!-- Generated by graphviz version 2.43.0 (0)
 -->
<!-- Title: /home/nico/joda_tmp/tmp&#45;joda&#45;dirs/JODA&#45;gh/libs/joda/core/modules/filesystem/include/joda/fs/DirectoryFileScanner.h Pages: 1 -->
<svg width="944pt" height="172pt"
 viewBox="0.00 0.00 944.00 172.00" xmlns="http://www.w3.org/2000/svg" xmlns:xlink="http://www.w3.org/1999/xlink">
<g id="graph0" class="graph" transform="scale(1 1) rotate(0) translate(4 168)">
<title>/home/nico/joda_tmp/tmp&#45;joda&#45;dirs/JODA&#45;gh/libs/joda/core/modules/filesystem/include/joda/fs/DirectoryFileScanner.h</title>
<polygon fill="white" stroke="transparent" points="-4,4 -4,-168 940,-168 940,4 -4,4"/>
<!-- Node1 -->
<g id="node1" class="node">
<title>Node1</title>
<g id="a_node1"><a xlink:title=" ">
<polygon fill="#bfbfbf" stroke="black" points="446,-100.5 446,-163.5 592,-163.5 592,-100.5 446,-100.5"/>
<text text-anchor="start" x="454" y="-151.5" font-family="Helvetica,sans-Serif" font-size="10.00">/home/nico/joda_tmp</text>
<text text-anchor="start" x="454" y="-140.5" font-family="Helvetica,sans-Serif" font-size="10.00">/tmp&#45;joda&#45;dirs/JODA</text>
<text text-anchor="start" x="454" y="-129.5" font-family="Helvetica,sans-Serif" font-size="10.00">&#45;gh/libs/joda/core/modules</text>
<text text-anchor="start" x="454" y="-118.5" font-family="Helvetica,sans-Serif" font-size="10.00">/filesystem/include/joda</text>
<text text-anchor="middle" x="519" y="-107.5" font-family="Helvetica,sans-Serif" font-size="10.00">/fs/DirectoryFileScanner.h</text>
</a>
</g>
</g>
<!-- Node2 -->
<g id="node2" class="node">
<title>Node2</title>
<g id="a_node2"><a xlink:href="../../dc/d61/DirectoryFileScanner_8cpp.html" target="_top" xlink:title=" ">
<polygon fill="white" stroke="black" points="0,-6 0,-58 212,-58 212,-6 0,-6"/>
<text text-anchor="start" x="8" y="-46" font-family="Helvetica,sans-Serif" font-size="10.00">/home/nico/joda_tmp</text>
<text text-anchor="start" x="8" y="-35" font-family="Helvetica,sans-Serif" font-size="10.00">/tmp&#45;joda&#45;dirs/JODA</text>
<text text-anchor="start" x="8" y="-24" font-family="Helvetica,sans-Serif" font-size="10.00">&#45;gh/libs/joda/core/modules</text>
<text text-anchor="middle" x="106" y="-13" font-family="Helvetica,sans-Serif" font-size="10.00">/filesystem/src/DirectoryFileScanner.cpp</text>
</a>
</g>
</g>
<!-- Node1&#45;&gt;Node2 -->
<g id="edge1" class="edge">
<title>Node1&#45;&gt;Node2</title>
<path fill="none" stroke="midnightblue" d="M436.14,-113.35C376.23,-100.35 293.42,-81.89 221,-64 213.37,-62.12 205.47,-60.11 197.56,-58.05"/>
<polygon fill="midnightblue" stroke="midnightblue" points="435.42,-116.78 445.93,-115.47 436.9,-109.93 435.42,-116.78"/>
</g>
<!-- Node3 -->
<g id="node3" class="node">
<title>Node3</title>
<g id="a_node3"><a xlink:href="../../de/dbc/DirectoryFileScannerTest_8cpp.html" target="_top" xlink:title=" ">
<polygon fill="white" stroke="black" points="230.5,-0.5 230.5,-63.5 427.5,-63.5 427.5,-0.5 230.5,-0.5"/>
<text text-anchor="start" x="238.5" y="-51.5" font-family="Helvetica,sans-Serif" font-size="10.00">/home/nico/joda_tmp</text>
<text text-anchor="start" x="238.5" y="-40.5" font-family="Helvetica,sans-Serif" font-size="10.00">/tmp&#45;joda&#45;dirs/JODA</text>
<text text-anchor="start" x="238.5" y="-29.5" font-family="Helvetica,sans-Serif" font-size="10.00">&#45;gh/libs/joda/core/modules</text>
<text text-anchor="start" x="238.5" y="-18.5" font-family="Helvetica,sans-Serif" font-size="10.00">/filesystem/test/DirectoryFileScanner</text>
<text text-anchor="middle" x="329" y="-7.5" font-family="Helvetica,sans-Serif" font-size="10.00">Test.cpp</text>
</a>
</g>
</g>
<!-- Node1&#45;&gt;Node3 -->
<g id="edge2" class="edge">
<title>Node1&#45;&gt;Node3</title>
<path fill="none" stroke="midnightblue" d="M450.72,-95.78C430.27,-85.23 408.03,-73.76 388.21,-63.54"/>
<polygon fill="midnightblue" stroke="midnightblue" points="449.17,-98.92 459.66,-100.4 452.38,-92.7 449.17,-98.92"/>
</g>
<!-- Node4 -->
<g id="node4" class="node">
<title>Node4</title>
<g id="a_node4"><a xlink:href="../../d7/d2c/JoinParser_8cpp.html" target="_top" xlink:title=" ">
<polygon fill="white" stroke="black" points="446,-6 446,-58 592,-58 592,-6 446,-6"/>
<text text-anchor="start" x="454" y="-46" font-family="Helvetica,sans-Serif" font-size="10.00">/home/nico/joda_tmp</text>
<text text-anchor="start" x="454" y="-35" font-family="Helvetica,sans-Serif" font-size="10.00">/tmp&#45;joda&#45;dirs/JODA</text>
<text text-anchor="start" x="454" y="-24" font-family="Helvetica,sans-Serif" font-size="10.00">&#45;gh/libs/joda/core/modules</text>
<text text-anchor="middle" x="519" y="-13" font-family="Helvetica,sans-Serif" font-size="10.00">/join/src/JoinParser.cpp</text>
</a>
</g>
</g>
<!-- Node1&#45;&gt;Node4 -->
<g id="edge3" class="edge">
<title>Node1&#45;&gt;Node4</title>
<path fill="none" stroke="midnightblue" d="M519,-90.08C519,-79.21 519,-67.79 519,-58.05"/>
<polygon fill="midnightblue" stroke="midnightblue" points="515.5,-90.26 519,-100.26 522.5,-90.26 515.5,-90.26"/>
</g>
<!-- Node5 -->
<g id="node5" class="node">
<title>Node5</title>
<g id="a_node5"><a xlink:href="../../da/d9b/JSONFileDirectorySource_8cpp.html" target="_top" xlink:title=" ">
<polygon fill="white" stroke="black" points="610.5,-0.5 610.5,-63.5 769.5,-63.5 769.5,-0.5 610.5,-0.5"/>
<text text-anchor="start" x="618.5" y="-51.5" font-family="Helvetica,sans-Serif" font-size="10.00">/home/nico/joda_tmp</text>
<text text-anchor="start" x="618.5" y="-40.5" font-family="Helvetica,sans-Serif" font-size="10.00">/tmp&#45;joda&#45;dirs/JODA</text>
<text text-anchor="start" x="618.5" y="-29.5" font-family="Helvetica,sans-Serif" font-size="10.00">&#45;gh/libs/joda/core/modules</text>
<text text-anchor="start" x="618.5" y="-18.5" font-family="Helvetica,sans-Serif" font-size="10.00">/parser/src/readers/sources</text>
<text text-anchor="middle" x="690" y="-7.5" font-family="Helvetica,sans-Serif" font-size="10.00">/JSONFileDirectorySource.cpp</text>
</a>
</g>
</g>
<!-- Node1&#45;&gt;Node5 -->
<g id="edge4" class="edge">
<title>Node1&#45;&gt;Node5</title>
<path fill="none" stroke="midnightblue" d="M581.38,-95.25C599.48,-84.88 619.06,-73.65 636.55,-63.63"/>
<polygon fill="midnightblue" stroke="midnightblue" points="579.57,-92.25 572.64,-100.26 583.05,-98.33 579.57,-92.25"/>
</g>
<!-- Node6 -->
<g id="node6" class="node">
<title>Node6</title>
<g id="a_node6"><a xlink:href="../../d2/de2/JSONFileSource_8cpp.html" target="_top" xlink:title=" ">
<polygon fill="white" stroke="black" points="788,-0.5 788,-63.5 936,-63.5 936,-0.5 788,-0.5"/>
<text text-anchor="start" x="796" y="-51.5" font-family="Helvetica,sans-Serif" font-size="10.00">/home/nico/joda_tmp</text>
<text text-anchor="start" x="796" y="-40.5" font-family="Helvetica,sans-Serif" font-size="10.00">/tmp&#45;joda&#45;dirs/JODA</text>
<text text-anchor="start" x="796" y="-29.5" font-family="Helvetica,sans-Serif" font-size="10.00">&#45;gh/libs/joda/core/modules</text>
<text text-anchor="start" x="796" y="-18.5" font-family="Helvetica,sans-Serif" font-size="10.00">/parser/src/readers/sources</text>
<text text-anchor="middle" x="862" y="-7.5" font-family="Helvetica,sans-Serif" font-size="10.00">/JSONFileSource.cpp</text>
</a>
</g>
</g>
<!-- Node1&#45;&gt;Node6 -->
<g id="edge5" class="edge">
<title>Node1&#45;&gt;Node6</title>
<path fill="none" stroke="midnightblue" d="M601.88,-112C653.26,-99.64 720.41,-82.43 779,-64 781.93,-63.08 784.92,-62.11 787.92,-61.11"/>
<polygon fill="midnightblue" stroke="midnightblue" points="601.06,-108.6 592.15,-114.33 602.69,-115.41 601.06,-108.6"/>
</g>
</g>
</svg>
