<?xml version="1.0" encoding="UTF-8" standalone="no"?>
<!DOCTYPE svg PUBLIC "-//W3C//DTD SVG 1.1//EN"
 "http://www.w3.org/Graphics/SVG/1.1/DTD/svg11.dtd">
<!-- Generated by graphviz version 2.43.0 (0)
 -->
<!-- Title: /home/nico/projects/tmp&#45;joda&#45;dirs/JODA&#45;gh/libs/joda/core/modules/similarity/test/RJPathTest.cpp Pages: 1 -->
<svg width="430pt" height="173pt"
 viewBox="0.00 0.00 430.00 173.00" xmlns="http://www.w3.org/2000/svg" xmlns:xlink="http://www.w3.org/1999/xlink">
<g id="graph0" class="graph" transform="scale(1 1) rotate(0) translate(4 169)">
<title>/home/nico/projects/tmp&#45;joda&#45;dirs/JODA&#45;gh/libs/joda/core/modules/similarity/test/RJPathTest.cpp</title>
<polygon fill="white" stroke="transparent" points="-4,4 -4,-169 426,-169 426,4 -4,4"/>
<!-- Node1 -->
<g id="node1" class="node">
<title>Node1</title>
<g id="a_node1"><a xlink:title=" ">
<polygon fill="#bfbfbf" stroke="black" points="132.5,-112.5 132.5,-164.5 293.5,-164.5 293.5,-112.5 132.5,-112.5"/>
<text text-anchor="start" x="140.5" y="-152.5" font-family="Helvetica,sans-Serif" font-size="10.00">/home/nico/projects</text>
<text text-anchor="start" x="140.5" y="-141.5" font-family="Helvetica,sans-Serif" font-size="10.00">/tmp&#45;joda&#45;dirs/JODA</text>
<text text-anchor="start" x="140.5" y="-130.5" font-family="Helvetica,sans-Serif" font-size="10.00">&#45;gh/libs/joda/core/modules</text>
<text text-anchor="middle" x="213" y="-119.5" font-family="Helvetica,sans-Serif" font-size="10.00">/similarity/test/RJPathTest.cpp</text>
</a>
</g>
</g>
<!-- Node2 -->
<g id="node2" class="node">
<title>Node2</title>
<g id="a_node2"><a xlink:title=" ">
<polygon fill="white" stroke="#bfbfbf" points="0,-56.5 0,-75.5 78,-75.5 78,-56.5 0,-56.5"/>
<text text-anchor="middle" x="39" y="-63.5" font-family="Helvetica,sans-Serif" font-size="10.00">gtest/gtest.h</text>
</a>
</g>
</g>
<!-- Node1&#45;&gt;Node2 -->
<g id="edge1" class="edge">
<title>Node1&#45;&gt;Node2</title>
<path fill="none" stroke="midnightblue" d="M151.16,-112.45C123.43,-101.21 91.95,-88.45 69.42,-79.33"/>
<polygon fill="midnightblue" stroke="midnightblue" points="70.63,-76.04 60.05,-75.53 68,-82.53 70.63,-76.04"/>
</g>
<!-- Node3 -->
<g id="node3" class="node">
<title>Node3</title>
<g id="a_node3"><a xlink:href="../../dd/d27/Timer_8h.html" target="_top" xlink:title=" ">
<polygon fill="white" stroke="black" points="96,-56.5 96,-75.5 200,-75.5 200,-56.5 96,-56.5"/>
<text text-anchor="middle" x="148" y="-63.5" font-family="Helvetica,sans-Serif" font-size="10.00">joda/misc/Timer.h</text>
</a>
</g>
</g>
<!-- Node1&#45;&gt;Node3 -->
<g id="edge2" class="edge">
<title>Node1&#45;&gt;Node3</title>
<path fill="none" stroke="midnightblue" d="M189.9,-112.45C180.94,-102.73 170.94,-91.88 162.95,-83.22"/>
<polygon fill="midnightblue" stroke="midnightblue" points="165.37,-80.68 156.02,-75.7 160.22,-85.42 165.37,-80.68"/>
</g>
<!-- Node6 -->
<g id="node6" class="node">
<title>Node6</title>
<g id="a_node6"><a xlink:title=" ">
<polygon fill="white" stroke="#bfbfbf" points="318,-0.5 318,-19.5 422,-19.5 422,-0.5 318,-0.5"/>
<text text-anchor="middle" x="370" y="-7.5" font-family="Helvetica,sans-Serif" font-size="10.00">rapidjson/reader.h</text>
</a>
</g>
</g>
<!-- Node1&#45;&gt;Node6 -->
<g id="edge5" class="edge">
<title>Node1&#45;&gt;Node6</title>
<path fill="none" stroke="midnightblue" d="M293.62,-114.14C313.93,-105.01 334.15,-92.62 349,-76 360.47,-63.16 365.69,-43.98 368.05,-29.78"/>
<polygon fill="midnightblue" stroke="midnightblue" points="371.55,-30.05 369.4,-19.67 364.61,-29.12 371.55,-30.05"/>
</g>
<!-- Node7 -->
<g id="node7" class="node">
<title>Node7</title>
<g id="a_node7"><a xlink:href="../../d0/dc3/RJPathsReader_8h.html" target="_top" xlink:title=" ">
<polygon fill="white" stroke="black" points="218,-56.5 218,-75.5 340,-75.5 340,-56.5 218,-56.5"/>
<text text-anchor="middle" x="279" y="-63.5" font-family="Helvetica,sans-Serif" font-size="10.00">../src/RJPathsReader.h</text>
</a>
</g>
</g>
<!-- Node1&#45;&gt;Node7 -->
<g id="edge6" class="edge">
<title>Node1&#45;&gt;Node7</title>
<path fill="none" stroke="midnightblue" d="M236.45,-112.45C245.55,-102.73 255.71,-91.88 263.82,-83.22"/>
<polygon fill="midnightblue" stroke="midnightblue" points="266.58,-85.39 270.86,-75.7 261.47,-80.6 266.58,-85.39"/>
</g>
<!-- Node4 -->
<g id="node4" class="node">
<title>Node4</title>
<g id="a_node4"><a xlink:title=" ">
<polygon fill="white" stroke="#bfbfbf" points="122,-0.5 122,-19.5 172,-19.5 172,-0.5 122,-0.5"/>
<text text-anchor="middle" x="147" y="-7.5" font-family="Helvetica,sans-Serif" font-size="10.00">chrono</text>
</a>
</g>
</g>
<!-- Node3&#45;&gt;Node4 -->
<g id="edge3" class="edge">
<title>Node3&#45;&gt;Node4</title>
<path fill="none" stroke="midnightblue" d="M147.83,-56.08C147.7,-49.01 147.52,-38.86 147.35,-29.99"/>
<polygon fill="midnightblue" stroke="midnightblue" points="150.85,-29.68 147.16,-19.75 143.85,-29.81 150.85,-29.68"/>
</g>
<!-- Node5 -->
<g id="node5" class="node">
<title>Node5</title>
<g id="a_node5"><a xlink:title=" ">
<polygon fill="white" stroke="#bfbfbf" points="190,-0.5 190,-19.5 234,-19.5 234,-0.5 190,-0.5"/>
<text text-anchor="middle" x="212" y="-7.5" font-family="Helvetica,sans-Serif" font-size="10.00">string</text>
</a>
</g>
</g>
<!-- Node3&#45;&gt;Node5 -->
<g id="edge4" class="edge">
<title>Node3&#45;&gt;Node5</title>
<path fill="none" stroke="midnightblue" d="M158.28,-56.32C167.84,-48.26 182.28,-36.08 193.78,-26.37"/>
<polygon fill="midnightblue" stroke="midnightblue" points="196.14,-28.96 201.53,-19.83 191.63,-23.61 196.14,-28.96"/>
</g>
<!-- Node7&#45;&gt;Node5 -->
<g id="edge8" class="edge">
<title>Node7&#45;&gt;Node5</title>
<path fill="none" stroke="midnightblue" d="M268.24,-56.32C258.23,-48.26 243.11,-36.08 231.07,-26.37"/>
<polygon fill="midnightblue" stroke="midnightblue" points="232.94,-23.38 222.96,-19.83 228.55,-28.83 232.94,-23.38"/>
</g>
<!-- Node7&#45;&gt;Node6 -->
<g id="edge7" class="edge">
<title>Node7&#45;&gt;Node6</title>
<path fill="none" stroke="midnightblue" d="M293.62,-56.32C307.95,-47.82 330.01,-34.73 346.75,-24.8"/>
<polygon fill="midnightblue" stroke="midnightblue" points="348.6,-27.77 355.42,-19.65 345.03,-21.75 348.6,-27.77"/>
</g>
<!-- Node8 -->
<g id="node8" class="node">
<title>Node8</title>
<g id="a_node8"><a xlink:title=" ">
<polygon fill="white" stroke="#bfbfbf" points="252.5,-0.5 252.5,-19.5 299.5,-19.5 299.5,-0.5 252.5,-0.5"/>
<text text-anchor="middle" x="276" y="-7.5" font-family="Helvetica,sans-Serif" font-size="10.00">vector</text>
</a>
</g>
</g>
<!-- Node7&#45;&gt;Node8 -->
<g id="edge9" class="edge">
<title>Node7&#45;&gt;Node8</title>
<path fill="none" stroke="midnightblue" d="M278.5,-56.08C278.11,-49.01 277.55,-38.86 277.05,-29.99"/>
<polygon fill="midnightblue" stroke="midnightblue" points="280.54,-29.54 276.49,-19.75 273.55,-29.93 280.54,-29.54"/>
</g>
</g>
</svg>
