<?xml version="1.0" encoding="UTF-8" standalone="no"?>
<!DOCTYPE svg PUBLIC "-//W3C//DTD SVG 1.1//EN"
 "http://www.w3.org/Graphics/SVG/1.1/DTD/svg11.dtd">
<!-- Generated by graphviz version 2.43.0 (0)
 -->
<!-- Title: joda::query::AttributeStatAggregator::merge Pages: 1 -->
<svg width="739pt" height="124pt"
 viewBox="0.00 0.00 739.00 123.50" xmlns="http://www.w3.org/2000/svg" xmlns:xlink="http://www.w3.org/1999/xlink">
<g id="graph0" class="graph" transform="scale(1 1) rotate(0) translate(4 119.5)">
<title>joda::query::AttributeStatAggregator::merge</title>
<polygon fill="white" stroke="transparent" points="-4,4 -4,-119.5 735,-119.5 735,4 -4,4"/>
<!-- Node1 -->
<g id="node1" class="node">
<title>Node1</title>
<g id="a_node1"><a xlink:title=" ">
<polygon fill="#bfbfbf" stroke="black" points="0,-60 0,-90 139,-90 139,-60 0,-60"/>
<text text-anchor="start" x="8" y="-78" font-family="Helvetica,sans-Serif" font-size="10.00">joda::query::AttributeStat</text>
<text text-anchor="middle" x="69.5" y="-67" font-family="Helvetica,sans-Serif" font-size="10.00">Aggregator::merge</text>
</a>
</g>
</g>
<!-- Node2 -->
<g id="node2" class="node">
<title>Node2</title>
<g id="a_node2"><a xlink:href="../../db/d14/classjoda_1_1query_1_1AttributeStatAggregator.html#a3e78d4e95b5ae62df70cc99121bae1cb" target="_top" xlink:title=" ">
<polygon fill="white" stroke="black" points="198.5,-85 198.5,-115 337.5,-115 337.5,-85 198.5,-85"/>
<text text-anchor="start" x="206.5" y="-103" font-family="Helvetica,sans-Serif" font-size="10.00">joda::query::AttributeStat</text>
<text text-anchor="middle" x="268" y="-92" font-family="Helvetica,sans-Serif" font-size="10.00">Aggregator::getName</text>
</a>
</g>
</g>
<!-- Node1&#45;&gt;Node2 -->
<g id="edge1" class="edge">
<title>Node1&#45;&gt;Node2</title>
<path fill="none" stroke="midnightblue" d="M139.23,-83.74C155.08,-85.76 172.07,-87.92 188.31,-89.99"/>
<polygon fill="midnightblue" stroke="midnightblue" points="187.95,-93.47 198.31,-91.26 188.83,-86.53 187.95,-93.47"/>
</g>
<!-- Node3 -->
<g id="node3" class="node">
<title>Node3</title>
<g id="a_node3"><a xlink:href="../../d7/da6/classjoda_1_1query_1_1AttributeStatAggregator_1_1AttStatHandler.html#a7881fe8341242c38b94dcddcd82a8d50" target="_top" xlink:title=" ">
<polygon fill="white" stroke="black" points="175,-36 175,-66 361,-66 361,-36 175,-36"/>
<text text-anchor="start" x="183" y="-54" font-family="Helvetica,sans-Serif" font-size="10.00">joda::query::AttributeStat</text>
<text text-anchor="middle" x="268" y="-43" font-family="Helvetica,sans-Serif" font-size="10.00">Aggregator::AttStatHandler::merge</text>
</a>
</g>
</g>
<!-- Node1&#45;&gt;Node3 -->
<g id="edge2" class="edge">
<title>Node1&#45;&gt;Node3</title>
<path fill="none" stroke="midnightblue" d="M139.23,-66.61C147.5,-65.6 156.08,-64.55 164.7,-63.49"/>
<polygon fill="midnightblue" stroke="midnightblue" points="165.33,-66.94 174.83,-62.26 164.48,-60 165.33,-66.94"/>
</g>
<!-- Node4 -->
<g id="node4" class="node">
<title>Node4</title>
<g id="a_node4"><a xlink:href="../../d0/d84/structjoda_1_1query_1_1AttributeStatAggregator_1_1AttStatHandler_1_1Node.html#a4784b9e7c8a14ecd9716412bf73c9223" target="_top" xlink:title=" ">
<polygon fill="white" stroke="black" points="397,-30.5 397,-71.5 546,-71.5 546,-30.5 397,-30.5"/>
<text text-anchor="start" x="405" y="-59.5" font-family="Helvetica,sans-Serif" font-size="10.00">joda::query::AttributeStat</text>
<text text-anchor="start" x="405" y="-48.5" font-family="Helvetica,sans-Serif" font-size="10.00">Aggregator::AttStatHandler</text>
<text text-anchor="middle" x="471.5" y="-37.5" font-family="Helvetica,sans-Serif" font-size="10.00">::Node::merge</text>
</a>
</g>
</g>
<!-- Node3&#45;&gt;Node4 -->
<g id="edge3" class="edge">
<title>Node3&#45;&gt;Node4</title>
<path fill="none" stroke="midnightblue" d="M361.2,-51C369.67,-51 378.23,-51 386.62,-51"/>
<polygon fill="midnightblue" stroke="midnightblue" points="386.76,-54.5 396.76,-51 386.76,-47.5 386.76,-54.5"/>
</g>
<!-- Node5 -->
<g id="node5" class="node">
<title>Node5</title>
<g id="a_node5"><a xlink:href="../../d0/d84/structjoda_1_1query_1_1AttributeStatAggregator_1_1AttStatHandler_1_1Node.html#a38c99bbea0af7ea9b2d255bcd03e13dc" target="_top" xlink:title=" ">
<polygon fill="white" stroke="black" points="582,-60.5 582,-101.5 731,-101.5 731,-60.5 582,-60.5"/>
<text text-anchor="start" x="590" y="-89.5" font-family="Helvetica,sans-Serif" font-size="10.00">joda::query::AttributeStat</text>
<text text-anchor="start" x="590" y="-78.5" font-family="Helvetica,sans-Serif" font-size="10.00">Aggregator::AttStatHandler</text>
<text text-anchor="middle" x="656.5" y="-67.5" font-family="Helvetica,sans-Serif" font-size="10.00">::Node::findArrElt</text>
</a>
</g>
</g>
<!-- Node4&#45;&gt;Node5 -->
<g id="edge4" class="edge">
<title>Node4&#45;&gt;Node5</title>
<path fill="none" stroke="midnightblue" d="M546.14,-63.07C554.57,-64.45 563.2,-65.87 571.74,-67.27"/>
<polygon fill="midnightblue" stroke="midnightblue" points="571.28,-70.74 581.71,-68.9 572.41,-63.83 571.28,-70.74"/>
</g>
<!-- Node6 -->
<g id="node6" class="node">
<title>Node6</title>
<g id="a_node6"><a xlink:href="../../d0/d84/structjoda_1_1query_1_1AttributeStatAggregator_1_1AttStatHandler_1_1Node.html#a66d861a1e6b0ca89a88848c832b07e03" target="_top" xlink:title=" ">
<polygon fill="white" stroke="black" points="582,-0.5 582,-41.5 731,-41.5 731,-0.5 582,-0.5"/>
<text text-anchor="start" x="590" y="-29.5" font-family="Helvetica,sans-Serif" font-size="10.00">joda::query::AttributeStat</text>
<text text-anchor="start" x="590" y="-18.5" font-family="Helvetica,sans-Serif" font-size="10.00">Aggregator::AttStatHandler</text>
<text text-anchor="middle" x="656.5" y="-7.5" font-family="Helvetica,sans-Serif" font-size="10.00">::Node::findChild</text>
</a>
</g>
</g>
<!-- Node4&#45;&gt;Node6 -->
<g id="edge5" class="edge">
<title>Node4&#45;&gt;Node6</title>
<path fill="none" stroke="midnightblue" d="M546.14,-38.93C554.57,-37.55 563.2,-36.13 571.74,-34.73"/>
<polygon fill="midnightblue" stroke="midnightblue" points="572.41,-38.17 581.71,-33.1 571.28,-31.26 572.41,-38.17"/>
</g>
</g>
</svg>
