<?xml version="1.0" encoding="UTF-8" standalone="no"?>
<!DOCTYPE svg PUBLIC "-//W3C//DTD SVG 1.1//EN"
 "http://www.w3.org/Graphics/SVG/1.1/DTD/svg11.dtd">
<!-- Generated by graphviz version 2.43.0 (0)
 -->
<!-- Title: /home/nico/joda_tmp/tmp&#45;joda&#45;dirs/JODA&#45;gh/libs/joda/core/modules/query/predicate/include/joda/query/predicate/EqualizePredicate.h Pages: 1 -->
<svg width="2863pt" height="472pt"
 viewBox="0.00 0.00 2862.72 472.00" xmlns="http://www.w3.org/2000/svg" xmlns:xlink="http://www.w3.org/1999/xlink">
<g id="graph0" class="graph" transform="scale(1 1) rotate(0) translate(4 468)">
<title>/home/nico/joda_tmp/tmp&#45;joda&#45;dirs/JODA&#45;gh/libs/joda/core/modules/query/predicate/include/joda/query/predicate/EqualizePredicate.h</title>
<polygon fill="white" stroke="transparent" points="-4,4 -4,-468 2858.72,-468 2858.72,4 -4,4"/>
<!-- Node1 -->
<g id="node1" class="node">
<title>Node1</title>
<g id="a_node1"><a xlink:title=" ">
<polygon fill="#bfbfbf" stroke="black" points="817.5,-400.5 817.5,-463.5 1036.5,-463.5 1036.5,-400.5 817.5,-400.5"/>
<text text-anchor="start" x="825.5" y="-451.5" font-family="Helvetica,sans-Serif" font-size="10.00">/home/nico/joda_tmp</text>
<text text-anchor="start" x="825.5" y="-440.5" font-family="Helvetica,sans-Serif" font-size="10.00">/tmp&#45;joda&#45;dirs/JODA</text>
<text text-anchor="start" x="825.5" y="-429.5" font-family="Helvetica,sans-Serif" font-size="10.00">&#45;gh/libs/joda/core/modules</text>
<text text-anchor="start" x="825.5" y="-418.5" font-family="Helvetica,sans-Serif" font-size="10.00">/query/predicate/include</text>
<text text-anchor="middle" x="927" y="-407.5" font-family="Helvetica,sans-Serif" font-size="10.00">/joda/query/predicate/EqualizePredicate.h</text>
</a>
</g>
</g>
<!-- Node2 -->
<g id="node2" class="node">
<title>Node2</title>
<g id="a_node2"><a xlink:href="../../da/d19/BloomAttributeVisitor_8h.html" target="_top" xlink:title=" ">
<polygon fill="white" stroke="black" points="170.5,-289.5 170.5,-363.5 367.5,-363.5 367.5,-289.5 170.5,-289.5"/>
<text text-anchor="start" x="178.5" y="-351.5" font-family="Helvetica,sans-Serif" font-size="10.00">/home/nico/joda_tmp</text>
<text text-anchor="start" x="178.5" y="-340.5" font-family="Helvetica,sans-Serif" font-size="10.00">/tmp&#45;joda&#45;dirs/JODA</text>
<text text-anchor="start" x="178.5" y="-329.5" font-family="Helvetica,sans-Serif" font-size="10.00">&#45;gh/libs/joda/core/modules</text>
<text text-anchor="start" x="178.5" y="-318.5" font-family="Helvetica,sans-Serif" font-size="10.00">/query/predicate/include</text>
<text text-anchor="start" x="178.5" y="-307.5" font-family="Helvetica,sans-Serif" font-size="10.00">/joda/query/predicate/BloomAttribute</text>
<text text-anchor="middle" x="269" y="-296.5" font-family="Helvetica,sans-Serif" font-size="10.00">Visitor.h</text>
</a>
</g>
</g>
<!-- Node1&#45;&gt;Node2 -->
<g id="edge1" class="edge">
<title>Node1&#45;&gt;Node2</title>
<path fill="none" stroke="midnightblue" d="M807.3,-418.52C704.84,-407.02 553.63,-388.1 423,-364 405.03,-360.68 386.01,-356.63 367.69,-352.44"/>
<polygon fill="midnightblue" stroke="midnightblue" points="807.04,-422.01 817.37,-419.64 807.82,-415.06 807.04,-422.01"/>
</g>
<!-- Node3 -->
<g id="node3" class="node">
<title>Node3</title>
<g id="a_node3"><a xlink:href="../../dc/dc6/BloomAttributeVisitor_8cpp.html" target="_top" xlink:title=" ">
<polygon fill="white" stroke="black" points="0,-189.5 0,-252.5 152,-252.5 152,-189.5 0,-189.5"/>
<text text-anchor="start" x="8" y="-240.5" font-family="Helvetica,sans-Serif" font-size="10.00">/home/nico/joda_tmp</text>
<text text-anchor="start" x="8" y="-229.5" font-family="Helvetica,sans-Serif" font-size="10.00">/tmp&#45;joda&#45;dirs/JODA</text>
<text text-anchor="start" x="8" y="-218.5" font-family="Helvetica,sans-Serif" font-size="10.00">&#45;gh/libs/joda/core/modules</text>
<text text-anchor="start" x="8" y="-207.5" font-family="Helvetica,sans-Serif" font-size="10.00">/query/predicate/src/visitors</text>
<text text-anchor="middle" x="76" y="-196.5" font-family="Helvetica,sans-Serif" font-size="10.00">/BloomAttributeVisitor.cpp</text>
</a>
</g>
</g>
<!-- Node1&#45;&gt;Node3 -->
<g id="edge22" class="edge">
<title>Node1&#45;&gt;Node3</title>
<path fill="none" stroke="midnightblue" d="M807.44,-426.49C605.72,-418 214.41,-397.44 161,-364 120.45,-338.62 96.69,-286.18 85.04,-252.62"/>
<polygon fill="midnightblue" stroke="midnightblue" points="807.36,-429.99 817.5,-426.91 807.65,-422.99 807.36,-429.99"/>
</g>
<!-- Node5 -->
<g id="node5" class="node">
<title>Node5</title>
<g id="a_node5"><a xlink:href="../../dc/d21/CopyPredicateVisitor_8h.html" target="_top" xlink:title=" ">
<polygon fill="white" stroke="black" points="503,-289.5 503,-363.5 697,-363.5 697,-289.5 503,-289.5"/>
<text text-anchor="start" x="511" y="-351.5" font-family="Helvetica,sans-Serif" font-size="10.00">/home/nico/joda_tmp</text>
<text text-anchor="start" x="511" y="-340.5" font-family="Helvetica,sans-Serif" font-size="10.00">/tmp&#45;joda&#45;dirs/JODA</text>
<text text-anchor="start" x="511" y="-329.5" font-family="Helvetica,sans-Serif" font-size="10.00">&#45;gh/libs/joda/core/modules</text>
<text text-anchor="start" x="511" y="-318.5" font-family="Helvetica,sans-Serif" font-size="10.00">/query/predicate/include</text>
<text text-anchor="start" x="511" y="-307.5" font-family="Helvetica,sans-Serif" font-size="10.00">/joda/query/predicate/CopyPredicate</text>
<text text-anchor="middle" x="600" y="-296.5" font-family="Helvetica,sans-Serif" font-size="10.00">Visitor.h</text>
</a>
</g>
</g>
<!-- Node1&#45;&gt;Node5 -->
<g id="edge4" class="edge">
<title>Node1&#45;&gt;Node5</title>
<path fill="none" stroke="midnightblue" d="M813.64,-397.52C779.01,-387.05 740.87,-375.28 706,-364 703.13,-363.07 700.22,-362.12 697.28,-361.16"/>
<polygon fill="midnightblue" stroke="midnightblue" points="812.73,-400.9 823.31,-400.44 814.75,-394.2 812.73,-400.9"/>
</g>
<!-- Node6 -->
<g id="node6" class="node">
<title>Node6</title>
<g id="a_node6"><a xlink:href="../../d4/ddd/CopyPredicateVisitor_8cpp.html" target="_top" xlink:title=" ">
<polygon fill="white" stroke="black" points="386,-189.5 386,-252.5 538,-252.5 538,-189.5 386,-189.5"/>
<text text-anchor="start" x="394" y="-240.5" font-family="Helvetica,sans-Serif" font-size="10.00">/home/nico/joda_tmp</text>
<text text-anchor="start" x="394" y="-229.5" font-family="Helvetica,sans-Serif" font-size="10.00">/tmp&#45;joda&#45;dirs/JODA</text>
<text text-anchor="start" x="394" y="-218.5" font-family="Helvetica,sans-Serif" font-size="10.00">&#45;gh/libs/joda/core/modules</text>
<text text-anchor="start" x="394" y="-207.5" font-family="Helvetica,sans-Serif" font-size="10.00">/query/predicate/src/visitors</text>
<text text-anchor="middle" x="462" y="-196.5" font-family="Helvetica,sans-Serif" font-size="10.00">/CopyPredicateVisitor.cpp</text>
</a>
</g>
</g>
<!-- Node1&#45;&gt;Node6 -->
<g id="edge23" class="edge">
<title>Node1&#45;&gt;Node6</title>
<path fill="none" stroke="midnightblue" d="M807.18,-429.32C689.13,-424.94 520.22,-410.45 476,-364 448.07,-334.66 450.11,-284.88 455.22,-252.73"/>
<polygon fill="midnightblue" stroke="midnightblue" points="807.25,-432.82 817.36,-429.68 807.49,-425.83 807.25,-432.82"/>
</g>
<!-- Node8 -->
<g id="node8" class="node">
<title>Node8</title>
<g id="a_node8"><a xlink:href="../../df/d93/PredFWD_8h.html" target="_top" xlink:title=" ">
<polygon fill="white" stroke="black" points="944.5,-295 944.5,-358 1121.5,-358 1121.5,-295 944.5,-295"/>
<text text-anchor="start" x="952.5" y="-346" font-family="Helvetica,sans-Serif" font-size="10.00">/home/nico/joda_tmp</text>
<text text-anchor="start" x="952.5" y="-335" font-family="Helvetica,sans-Serif" font-size="10.00">/tmp&#45;joda&#45;dirs/JODA</text>
<text text-anchor="start" x="952.5" y="-324" font-family="Helvetica,sans-Serif" font-size="10.00">&#45;gh/libs/joda/core/modules</text>
<text text-anchor="start" x="952.5" y="-313" font-family="Helvetica,sans-Serif" font-size="10.00">/query/predicate/include</text>
<text text-anchor="middle" x="1033" y="-302" font-family="Helvetica,sans-Serif" font-size="10.00">/joda/query/predicate/PredFWD.h</text>
</a>
</g>
</g>
<!-- Node1&#45;&gt;Node8 -->
<g id="edge7" class="edge">
<title>Node1&#45;&gt;Node8</title>
<path fill="none" stroke="midnightblue" d="M965.68,-393.23C977.43,-381.76 990.2,-369.29 1001.42,-358.33"/>
<polygon fill="midnightblue" stroke="midnightblue" points="963.23,-390.74 958.52,-400.23 968.12,-395.74 963.23,-390.74"/>
</g>
<!-- Node10 -->
<g id="node10" class="node">
<title>Node10</title>
<g id="a_node10"><a xlink:href="../../d9/d60/StaticEvalVisitor_8h.html" target="_top" xlink:title=" ">
<polygon fill="white" stroke="black" points="715,-295 715,-358 927,-358 927,-295 715,-295"/>
<text text-anchor="start" x="723" y="-346" font-family="Helvetica,sans-Serif" font-size="10.00">/home/nico/joda_tmp</text>
<text text-anchor="start" x="723" y="-335" font-family="Helvetica,sans-Serif" font-size="10.00">/tmp&#45;joda&#45;dirs/JODA</text>
<text text-anchor="start" x="723" y="-324" font-family="Helvetica,sans-Serif" font-size="10.00">&#45;gh/libs/joda/core/modules</text>
<text text-anchor="start" x="723" y="-313" font-family="Helvetica,sans-Serif" font-size="10.00">/query/predicate/include</text>
<text text-anchor="middle" x="821" y="-302" font-family="Helvetica,sans-Serif" font-size="10.00">/joda/query/predicate/StaticEvalVisitor.h</text>
</a>
</g>
</g>
<!-- Node1&#45;&gt;Node10 -->
<g id="edge9" class="edge">
<title>Node1&#45;&gt;Node10</title>
<path fill="none" stroke="midnightblue" d="M888.32,-393.23C876.57,-381.76 863.8,-369.29 852.58,-358.33"/>
<polygon fill="midnightblue" stroke="midnightblue" points="885.88,-395.74 895.48,-400.23 890.77,-390.74 885.88,-395.74"/>
</g>
<!-- Node11 -->
<g id="node11" class="node">
<title>Node11</title>
<g id="a_node11"><a xlink:href="../../d7/dcb/StaticEvalVisitor_8cpp.html" target="_top" xlink:title=" ">
<polygon fill="white" stroke="black" points="556,-189.5 556,-252.5 708,-252.5 708,-189.5 556,-189.5"/>
<text text-anchor="start" x="564" y="-240.5" font-family="Helvetica,sans-Serif" font-size="10.00">/home/nico/joda_tmp</text>
<text text-anchor="start" x="564" y="-229.5" font-family="Helvetica,sans-Serif" font-size="10.00">/tmp&#45;joda&#45;dirs/JODA</text>
<text text-anchor="start" x="564" y="-218.5" font-family="Helvetica,sans-Serif" font-size="10.00">&#45;gh/libs/joda/core/modules</text>
<text text-anchor="start" x="564" y="-207.5" font-family="Helvetica,sans-Serif" font-size="10.00">/query/predicate/src/visitors</text>
<text text-anchor="middle" x="632" y="-196.5" font-family="Helvetica,sans-Serif" font-size="10.00">/StaticEvalVisitor.cpp</text>
</a>
</g>
</g>
<!-- Node1&#45;&gt;Node11 -->
<g id="edge24" class="edge">
<title>Node1&#45;&gt;Node11</title>
<path fill="none" stroke="midnightblue" d="M807.06,-429.31C693.17,-424.85 533.65,-410.25 494,-364 472.31,-338.69 476.31,-317.25 494,-289 501.74,-276.64 528.1,-262.6 555.75,-250.57"/>
<polygon fill="midnightblue" stroke="midnightblue" points="807.12,-432.81 817.24,-429.68 807.38,-425.82 807.12,-432.81"/>
</g>
<!-- Node13 -->
<g id="node13" class="node">
<title>Node13</title>
<g id="a_node13"><a xlink:href="../../d2/d3e/ToStringVisitor_8h.html" target="_top" xlink:title=" ">
<polygon fill="white" stroke="black" points="1140,-295 1140,-358 1342,-358 1342,-295 1140,-295"/>
<text text-anchor="start" x="1148" y="-346" font-family="Helvetica,sans-Serif" font-size="10.00">/home/nico/joda_tmp</text>
<text text-anchor="start" x="1148" y="-335" font-family="Helvetica,sans-Serif" font-size="10.00">/tmp&#45;joda&#45;dirs/JODA</text>
<text text-anchor="start" x="1148" y="-324" font-family="Helvetica,sans-Serif" font-size="10.00">&#45;gh/libs/joda/core/modules</text>
<text text-anchor="start" x="1148" y="-313" font-family="Helvetica,sans-Serif" font-size="10.00">/query/predicate/include</text>
<text text-anchor="middle" x="1241" y="-302" font-family="Helvetica,sans-Serif" font-size="10.00">/joda/query/predicate/ToStringVisitor.h</text>
</a>
</g>
</g>
<!-- Node1&#45;&gt;Node13 -->
<g id="edge13" class="edge">
<title>Node1&#45;&gt;Node13</title>
<path fill="none" stroke="midnightblue" d="M1030.11,-397.2C1062.41,-386.6 1098.2,-374.83 1131,-364 1136.83,-362.08 1142.83,-360.09 1148.88,-358.09"/>
<polygon fill="midnightblue" stroke="midnightblue" points="1028.61,-394.01 1020.2,-400.46 1030.79,-400.66 1028.61,-394.01"/>
</g>
<!-- Node16 -->
<g id="node16" class="node">
<title>Node16</title>
<g id="a_node16"><a xlink:href="../../d2/d8c/ToStringVisitor_8cpp.html" target="_top" xlink:title=" ">
<polygon fill="white" stroke="black" points="1659,-189.5 1659,-252.5 1811,-252.5 1811,-189.5 1659,-189.5"/>
<text text-anchor="start" x="1667" y="-240.5" font-family="Helvetica,sans-Serif" font-size="10.00">/home/nico/joda_tmp</text>
<text text-anchor="start" x="1667" y="-229.5" font-family="Helvetica,sans-Serif" font-size="10.00">/tmp&#45;joda&#45;dirs/JODA</text>
<text text-anchor="start" x="1667" y="-218.5" font-family="Helvetica,sans-Serif" font-size="10.00">&#45;gh/libs/joda/core/modules</text>
<text text-anchor="start" x="1667" y="-207.5" font-family="Helvetica,sans-Serif" font-size="10.00">/query/predicate/src/visitors</text>
<text text-anchor="middle" x="1735" y="-196.5" font-family="Helvetica,sans-Serif" font-size="10.00">/ToStringVisitor.cpp</text>
</a>
</g>
</g>
<!-- Node1&#45;&gt;Node16 -->
<g id="edge25" class="edge">
<title>Node1&#45;&gt;Node16</title>
<path fill="none" stroke="midnightblue" d="M1046.52,-424.17C1154.54,-415.88 1303.64,-398.48 1351,-364 1381.21,-342.01 1358.58,-310.7 1389,-289 1484.34,-221.01 1536.35,-281.22 1650,-253 1652.9,-252.28 1655.83,-251.5 1658.78,-250.66"/>
<polygon fill="midnightblue" stroke="midnightblue" points="1046.24,-420.68 1036.53,-424.92 1046.76,-427.66 1046.24,-420.68"/>
</g>
<!-- Node18 -->
<g id="node18" class="node">
<title>Node18</title>
<g id="a_node18"><a xlink:href="../../de/df3/EqualizePredicate_8cpp.html" target="_top" xlink:title=" ">
<polygon fill="white" stroke="black" points="1398,-300.5 1398,-352.5 1622,-352.5 1622,-300.5 1398,-300.5"/>
<text text-anchor="start" x="1406" y="-340.5" font-family="Helvetica,sans-Serif" font-size="10.00">/home/nico/joda_tmp</text>
<text text-anchor="start" x="1406" y="-329.5" font-family="Helvetica,sans-Serif" font-size="10.00">/tmp&#45;joda&#45;dirs/JODA</text>
<text text-anchor="start" x="1406" y="-318.5" font-family="Helvetica,sans-Serif" font-size="10.00">&#45;gh/libs/joda/core/modules</text>
<text text-anchor="middle" x="1510" y="-307.5" font-family="Helvetica,sans-Serif" font-size="10.00">/query/predicate/src/EqualizePredicate.cpp</text>
</a>
</g>
</g>
<!-- Node1&#45;&gt;Node18 -->
<g id="edge20" class="edge">
<title>Node1&#45;&gt;Node18</title>
<path fill="none" stroke="midnightblue" d="M1046.68,-417.98C1139.35,-406.82 1270.59,-388.62 1384,-364 1398.91,-360.76 1414.65,-356.72 1429.76,-352.52"/>
<polygon fill="midnightblue" stroke="midnightblue" points="1046.23,-414.51 1036.71,-419.18 1047.06,-421.46 1046.23,-414.51"/>
</g>
<!-- Node19 -->
<g id="node19" class="node">
<title>Node19</title>
<g id="a_node19"><a xlink:href="../../d8/d59/AttributeVisitor_8cpp.html" target="_top" xlink:title=" ">
<polygon fill="white" stroke="black" points="1640,-295 1640,-358 1792,-358 1792,-295 1640,-295"/>
<text text-anchor="start" x="1648" y="-346" font-family="Helvetica,sans-Serif" font-size="10.00">/home/nico/joda_tmp</text>
<text text-anchor="start" x="1648" y="-335" font-family="Helvetica,sans-Serif" font-size="10.00">/tmp&#45;joda&#45;dirs/JODA</text>
<text text-anchor="start" x="1648" y="-324" font-family="Helvetica,sans-Serif" font-size="10.00">&#45;gh/libs/joda/core/modules</text>
<text text-anchor="start" x="1648" y="-313" font-family="Helvetica,sans-Serif" font-size="10.00">/query/predicate/src/visitors</text>
<text text-anchor="middle" x="1716" y="-302" font-family="Helvetica,sans-Serif" font-size="10.00">/AttributeVisitor.cpp</text>
</a>
</g>
</g>
<!-- Node1&#45;&gt;Node19 -->
<g id="edge21" class="edge">
<title>Node1&#45;&gt;Node19</title>
<path fill="none" stroke="midnightblue" d="M1046.76,-430.83C1188.41,-428.08 1430.33,-415.29 1631,-364 1637.38,-362.37 1643.9,-360.32 1650.34,-358.04"/>
<polygon fill="midnightblue" stroke="midnightblue" points="1046.67,-427.33 1036.74,-431.02 1046.8,-434.33 1046.67,-427.33"/>
</g>
<!-- Node20 -->
<g id="node20" class="node">
<title>Node20</title>
<g id="a_node20"><a xlink:href="../../d4/d03/Grammar_8h.html" target="_top" xlink:title=" ">
<polygon fill="white" stroke="black" points="2319.5,-295 2319.5,-358 2468.5,-358 2468.5,-295 2319.5,-295"/>
<text text-anchor="start" x="2327.5" y="-346" font-family="Helvetica,sans-Serif" font-size="10.00">/home/nico/joda_tmp</text>
<text text-anchor="start" x="2327.5" y="-335" font-family="Helvetica,sans-Serif" font-size="10.00">/tmp&#45;joda&#45;dirs/JODA</text>
<text text-anchor="start" x="2327.5" y="-324" font-family="Helvetica,sans-Serif" font-size="10.00">&#45;gh/libs/joda/core/modules</text>
<text text-anchor="start" x="2327.5" y="-313" font-family="Helvetica,sans-Serif" font-size="10.00">/queryparsing/src/grammar</text>
<text text-anchor="middle" x="2394" y="-302" font-family="Helvetica,sans-Serif" font-size="10.00">/Grammar.h</text>
</a>
</g>
</g>
<!-- Node1&#45;&gt;Node20 -->
<g id="edge26" class="edge">
<title>Node1&#45;&gt;Node20</title>
<path fill="none" stroke="midnightblue" d="M1046.87,-422.54C1339.04,-401.93 2081.4,-349.55 2319.37,-332.77"/>
<polygon fill="midnightblue" stroke="midnightblue" points="1046.39,-419.07 1036.66,-423.26 1046.89,-426.05 1046.39,-419.07"/>
</g>
<!-- Node2&#45;&gt;Node3 -->
<g id="edge2" class="edge">
<title>Node2&#45;&gt;Node3</title>
<path fill="none" stroke="midnightblue" d="M192.73,-284.6C172.84,-273.93 151.76,-262.63 133.06,-252.6"/>
<polygon fill="midnightblue" stroke="midnightblue" points="191.3,-287.8 201.77,-289.45 194.61,-281.64 191.3,-287.8"/>
</g>
<!-- Node4 -->
<g id="node4" class="node">
<title>Node4</title>
<g id="a_node4"><a xlink:href="../../da/d11/QueryThread_8cpp.html" target="_top" xlink:title=" ">
<polygon fill="white" stroke="black" points="170,-195 170,-247 368,-247 368,-195 170,-195"/>
<text text-anchor="start" x="178" y="-235" font-family="Helvetica,sans-Serif" font-size="10.00">/home/nico/joda_tmp</text>
<text text-anchor="start" x="178" y="-224" font-family="Helvetica,sans-Serif" font-size="10.00">/tmp&#45;joda&#45;dirs/JODA</text>
<text text-anchor="start" x="178" y="-213" font-family="Helvetica,sans-Serif" font-size="10.00">&#45;gh/libs/joda/core/modules</text>
<text text-anchor="middle" x="269" y="-202" font-family="Helvetica,sans-Serif" font-size="10.00">/queryexecution/src/QueryThread.cpp</text>
</a>
</g>
</g>
<!-- Node2&#45;&gt;Node4 -->
<g id="edge3" class="edge">
<title>Node2&#45;&gt;Node4</title>
<path fill="none" stroke="midnightblue" d="M269,-279C269,-268.08 269,-256.85 269,-247.27"/>
<polygon fill="midnightblue" stroke="midnightblue" points="265.5,-279.3 269,-289.3 272.5,-279.3 265.5,-279.3"/>
</g>
<!-- Node5&#45;&gt;Node6 -->
<g id="edge5" class="edge">
<title>Node5&#45;&gt;Node6</title>
<path fill="none" stroke="midnightblue" d="M543.35,-283.01C529.72,-272.79 515.43,-262.07 502.69,-252.52"/>
<polygon fill="midnightblue" stroke="midnightblue" points="541.63,-286.1 551.73,-289.3 545.83,-280.5 541.63,-286.1"/>
</g>
<!-- Node7 -->
<g id="node7" class="node">
<title>Node7</title>
<g id="a_node7"><a xlink:href="../../de/d9f/Query_8cpp.html" target="_top" xlink:title=" ">
<polygon fill="white" stroke="black" points="764,-195 764,-247 910,-247 910,-195 764,-195"/>
<text text-anchor="start" x="772" y="-235" font-family="Helvetica,sans-Serif" font-size="10.00">/home/nico/joda_tmp</text>
<text text-anchor="start" x="772" y="-224" font-family="Helvetica,sans-Serif" font-size="10.00">/tmp&#45;joda&#45;dirs/JODA</text>
<text text-anchor="start" x="772" y="-213" font-family="Helvetica,sans-Serif" font-size="10.00">&#45;gh/libs/joda/core/modules</text>
<text text-anchor="middle" x="837" y="-202" font-family="Helvetica,sans-Serif" font-size="10.00">/query/src/Query.cpp</text>
</a>
</g>
</g>
<!-- Node5&#45;&gt;Node7 -->
<g id="edge6" class="edge">
<title>Node5&#45;&gt;Node7</title>
<path fill="none" stroke="midnightblue" d="M692.05,-285.3C721.57,-272.41 753.4,-258.51 779.7,-247.03"/>
<polygon fill="midnightblue" stroke="midnightblue" points="690.32,-282.24 682.56,-289.45 693.12,-288.65 690.32,-282.24"/>
</g>
<!-- Node9 -->
<g id="node9" class="node">
<title>Node9</title>
<g id="a_node9"><a xlink:href="../../dc/da4/StaticEvalVisitorTest_8cpp.html" target="_top" xlink:title=" ">
<polygon fill="white" stroke="black" points="928.5,-189.5 928.5,-252.5 1089.5,-252.5 1089.5,-189.5 928.5,-189.5"/>
<text text-anchor="start" x="936.5" y="-240.5" font-family="Helvetica,sans-Serif" font-size="10.00">/home/nico/joda_tmp</text>
<text text-anchor="start" x="936.5" y="-229.5" font-family="Helvetica,sans-Serif" font-size="10.00">/tmp&#45;joda&#45;dirs/JODA</text>
<text text-anchor="start" x="936.5" y="-218.5" font-family="Helvetica,sans-Serif" font-size="10.00">&#45;gh/libs/joda/core/modules</text>
<text text-anchor="start" x="936.5" y="-207.5" font-family="Helvetica,sans-Serif" font-size="10.00">/query/predicate/src/visitors</text>
<text text-anchor="middle" x="1009" y="-196.5" font-family="Helvetica,sans-Serif" font-size="10.00">/test/StaticEvalVisitorTest.cpp</text>
</a>
</g>
</g>
<!-- Node8&#45;&gt;Node9 -->
<g id="edge8" class="edge">
<title>Node8&#45;&gt;Node9</title>
<path fill="none" stroke="midnightblue" d="M1023.56,-284.79C1021.09,-274.15 1018.48,-262.86 1016.15,-252.83"/>
<polygon fill="midnightblue" stroke="midnightblue" points="1020.2,-285.78 1025.86,-294.73 1027.01,-284.19 1020.2,-285.78"/>
</g>
<!-- Node10&#45;&gt;Node9 -->
<g id="edge11" class="edge">
<title>Node10&#45;&gt;Node9</title>
<path fill="none" stroke="midnightblue" d="M885.62,-289.92C907.71,-277.77 932.2,-264.28 953.5,-252.55"/>
<polygon fill="midnightblue" stroke="midnightblue" points="883.72,-286.98 876.64,-294.87 887.09,-293.11 883.72,-286.98"/>
</g>
<!-- Node10&#45;&gt;Node11 -->
<g id="edge10" class="edge">
<title>Node10&#45;&gt;Node11</title>
<path fill="none" stroke="midnightblue" d="M756.04,-289.92C733.83,-277.77 709.21,-264.28 687.8,-252.55"/>
<polygon fill="midnightblue" stroke="midnightblue" points="754.61,-293.13 765.06,-294.87 757.97,-286.99 754.61,-293.13"/>
</g>
<!-- Node12 -->
<g id="node12" class="node">
<title>Node12</title>
<g id="a_node12"><a xlink:href="../../d0/d62/QueryParser_8cpp.html" target="_top" xlink:title=" ">
<polygon fill="white" stroke="black" points="2303,-0.5 2303,-52.5 2485,-52.5 2485,-0.5 2303,-0.5"/>
<text text-anchor="start" x="2311" y="-40.5" font-family="Helvetica,sans-Serif" font-size="10.00">/home/nico/joda_tmp</text>
<text text-anchor="start" x="2311" y="-29.5" font-family="Helvetica,sans-Serif" font-size="10.00">/tmp&#45;joda&#45;dirs/JODA</text>
<text text-anchor="start" x="2311" y="-18.5" font-family="Helvetica,sans-Serif" font-size="10.00">&#45;gh/libs/joda/core/modules</text>
<text text-anchor="middle" x="2394" y="-7.5" font-family="Helvetica,sans-Serif" font-size="10.00">/queryparsing/src/QueryParser.cpp</text>
</a>
</g>
</g>
<!-- Node10&#45;&gt;Node12 -->
<g id="edge12" class="edge">
<title>Node10&#45;&gt;Node12</title>
<path fill="none" stroke="midnightblue" d="M776.9,-287.39C767.97,-277.21 759.85,-265.52 755,-253 744.73,-226.47 735.9,-210.08 755,-189 859.59,-73.6 1973.32,-37.65 2302.73,-29.5"/>
<polygon fill="midnightblue" stroke="midnightblue" points="774.47,-289.92 783.84,-294.87 779.6,-285.16 774.47,-289.92"/>
</g>
<!-- Node13&#45;&gt;Node7 -->
<g id="edge18" class="edge">
<title>Node13&#45;&gt;Node7</title>
<path fill="none" stroke="midnightblue" d="M1142.84,-292.11C1138.85,-291.02 1134.9,-289.97 1131,-289 1038.7,-265.95 1011.86,-277.75 920,-253 913.61,-251.28 907.03,-249.26 900.5,-247.1"/>
<polygon fill="midnightblue" stroke="midnightblue" points="1142.21,-295.57 1152.79,-294.94 1144.12,-288.84 1142.21,-295.57"/>
</g>
<!-- Node13&#45;&gt;Node9 -->
<g id="edge16" class="edge">
<title>Node13&#45;&gt;Node9</title>
<path fill="none" stroke="midnightblue" d="M1163.07,-290.73C1135.35,-278.37 1104.36,-264.54 1077.49,-252.55"/>
<polygon fill="midnightblue" stroke="midnightblue" points="1161.78,-293.99 1172.33,-294.87 1164.63,-287.6 1161.78,-293.99"/>
</g>
<!-- Node14 -->
<g id="node14" class="node">
<title>Node14</title>
<g id="a_node14"><a xlink:href="../../df/d21/CLI_8cpp.html" target="_top" xlink:title=" ">
<polygon fill="white" stroke="black" points="1108,-195 1108,-247 1254,-247 1254,-195 1108,-195"/>
<text text-anchor="start" x="1116" y="-235" font-family="Helvetica,sans-Serif" font-size="10.00">/home/nico/joda_tmp</text>
<text text-anchor="start" x="1116" y="-224" font-family="Helvetica,sans-Serif" font-size="10.00">/tmp&#45;joda&#45;dirs/JODA</text>
<text text-anchor="start" x="1116" y="-213" font-family="Helvetica,sans-Serif" font-size="10.00">&#45;gh/libs/joda/core/modules</text>
<text text-anchor="middle" x="1181" y="-202" font-family="Helvetica,sans-Serif" font-size="10.00">/cli/src/CLI.cpp</text>
</a>
</g>
</g>
<!-- Node13&#45;&gt;Node14 -->
<g id="edge14" class="edge">
<title>Node13&#45;&gt;Node14</title>
<path fill="none" stroke="midnightblue" d="M1218.07,-285.95C1210.55,-272.97 1202.39,-258.89 1195.64,-247.26"/>
<polygon fill="midnightblue" stroke="midnightblue" points="1215.12,-287.83 1223.16,-294.73 1221.17,-284.32 1215.12,-287.83"/>
</g>
<!-- Node15 -->
<g id="node15" class="node">
<title>Node15</title>
<g id="a_node15"><a xlink:href="../../d2/d98/QueryCache_8cpp.html" target="_top" xlink:title=" ">
<polygon fill="white" stroke="black" points="1272.5,-195 1272.5,-247 1465.5,-247 1465.5,-195 1272.5,-195"/>
<text text-anchor="start" x="1280.5" y="-235" font-family="Helvetica,sans-Serif" font-size="10.00">/home/nico/joda_tmp</text>
<text text-anchor="start" x="1280.5" y="-224" font-family="Helvetica,sans-Serif" font-size="10.00">/tmp&#45;joda&#45;dirs/JODA</text>
<text text-anchor="start" x="1280.5" y="-213" font-family="Helvetica,sans-Serif" font-size="10.00">&#45;gh/libs/joda/core/modules</text>
<text text-anchor="middle" x="1369" y="-202" font-family="Helvetica,sans-Serif" font-size="10.00">/indexing/src/cache/QueryCache.cpp</text>
</a>
</g>
</g>
<!-- Node13&#45;&gt;Node15 -->
<g id="edge15" class="edge">
<title>Node13&#45;&gt;Node15</title>
<path fill="none" stroke="midnightblue" d="M1287.14,-288.19C1303.95,-274.6 1322.55,-259.56 1337.76,-247.26"/>
<polygon fill="midnightblue" stroke="midnightblue" points="1284.63,-285.72 1279.06,-294.73 1289.03,-291.16 1284.63,-285.72"/>
</g>
<!-- Node13&#45;&gt;Node16 -->
<g id="edge17" class="edge">
<title>Node13&#45;&gt;Node16</title>
<path fill="none" stroke="midnightblue" d="M1341.77,-292.36C1346.56,-291.15 1351.32,-290.02 1356,-289 1484.62,-260.97 1522,-283.75 1650,-253 1652.9,-252.3 1655.84,-251.54 1658.8,-250.72"/>
<polygon fill="midnightblue" stroke="midnightblue" points="1340.7,-289.02 1331.92,-294.95 1342.48,-295.79 1340.7,-289.02"/>
</g>
<!-- Node17 -->
<g id="node17" class="node">
<title>Node17</title>
<g id="a_node17"><a xlink:href="../../d0/da0/CacheExecutor_8cpp.html" target="_top" xlink:title=" ">
<polygon fill="white" stroke="black" points="1483.5,-189.5 1483.5,-252.5 1640.5,-252.5 1640.5,-189.5 1483.5,-189.5"/>
<text text-anchor="start" x="1491.5" y="-240.5" font-family="Helvetica,sans-Serif" font-size="10.00">/home/nico/joda_tmp</text>
<text text-anchor="start" x="1491.5" y="-229.5" font-family="Helvetica,sans-Serif" font-size="10.00">/tmp&#45;joda&#45;dirs/JODA</text>
<text text-anchor="start" x="1491.5" y="-218.5" font-family="Helvetica,sans-Serif" font-size="10.00">&#45;gh/libs/joda/core/modules</text>
<text text-anchor="start" x="1491.5" y="-207.5" font-family="Helvetica,sans-Serif" font-size="10.00">/queryexecution/src/executor</text>
<text text-anchor="middle" x="1562" y="-196.5" font-family="Helvetica,sans-Serif" font-size="10.00">/CacheExecutor.cpp</text>
</a>
</g>
</g>
<!-- Node13&#45;&gt;Node17 -->
<g id="edge19" class="edge">
<title>Node13&#45;&gt;Node17</title>
<path fill="none" stroke="midnightblue" d="M1346.58,-291.93C1349.75,-290.94 1352.9,-289.96 1356,-289 1408.78,-272.64 1422.51,-270.28 1475,-253 1477.74,-252.1 1480.53,-251.17 1483.34,-250.22"/>
<polygon fill="midnightblue" stroke="midnightblue" points="1345.48,-288.61 1336.98,-294.93 1347.56,-295.29 1345.48,-288.61"/>
</g>
<!-- Node21 -->
<g id="node21" class="node">
<title>Node21</title>
<g id="a_node21"><a xlink:href="../../de/db3/Actions_8h.html" target="_top" xlink:title=" ">
<polygon fill="white" stroke="black" points="2321,-89.5 2321,-152.5 2467,-152.5 2467,-89.5 2321,-89.5"/>
<text text-anchor="start" x="2329" y="-140.5" font-family="Helvetica,sans-Serif" font-size="10.00">/home/nico/joda_tmp</text>
<text text-anchor="start" x="2329" y="-129.5" font-family="Helvetica,sans-Serif" font-size="10.00">/tmp&#45;joda&#45;dirs/JODA</text>
<text text-anchor="start" x="2329" y="-118.5" font-family="Helvetica,sans-Serif" font-size="10.00">&#45;gh/libs/joda/core/modules</text>
<text text-anchor="start" x="2329" y="-107.5" font-family="Helvetica,sans-Serif" font-size="10.00">/queryparsing/src/actions</text>
<text text-anchor="middle" x="2394" y="-96.5" font-family="Helvetica,sans-Serif" font-size="10.00">/Actions.h</text>
</a>
</g>
</g>
<!-- Node20&#45;&gt;Node21 -->
<g id="edge27" class="edge">
<title>Node20&#45;&gt;Node21</title>
<path fill="none" stroke="midnightblue" d="M2449.65,-288.05C2460.33,-278.02 2470.04,-266.23 2476,-253 2487.69,-227.07 2488.19,-214.7 2476,-189 2469.3,-174.88 2458.01,-162.75 2445.92,-152.85"/>
<polygon fill="midnightblue" stroke="midnightblue" points="2447.3,-285.46 2442.13,-294.71 2451.94,-290.7 2447.3,-285.46"/>
</g>
<!-- Node22 -->
<g id="node22" class="node">
<title>Node22</title>
<g id="a_node22"><a xlink:href="../../d4/daf/Agg__Actions_8h.html" target="_top" xlink:title=" ">
<polygon fill="white" stroke="black" points="2523,-189.5 2523,-252.5 2669,-252.5 2669,-189.5 2523,-189.5"/>
<text text-anchor="start" x="2531" y="-240.5" font-family="Helvetica,sans-Serif" font-size="10.00">/home/nico/joda_tmp</text>
<text text-anchor="start" x="2531" y="-229.5" font-family="Helvetica,sans-Serif" font-size="10.00">/tmp&#45;joda&#45;dirs/JODA</text>
<text text-anchor="start" x="2531" y="-218.5" font-family="Helvetica,sans-Serif" font-size="10.00">&#45;gh/libs/joda/core/modules</text>
<text text-anchor="start" x="2531" y="-207.5" font-family="Helvetica,sans-Serif" font-size="10.00">/queryparsing/src/actions</text>
<text text-anchor="middle" x="2596" y="-196.5" font-family="Helvetica,sans-Serif" font-size="10.00">/Agg_Actions.h</text>
</a>
</g>
</g>
<!-- Node20&#45;&gt;Node22 -->
<g id="edge29" class="edge">
<title>Node20&#45;&gt;Node22</title>
<path fill="none" stroke="midnightblue" d="M2462.8,-290.25C2486.69,-278.01 2513.27,-264.39 2536.37,-252.55"/>
<polygon fill="midnightblue" stroke="midnightblue" points="2461.09,-287.19 2453.79,-294.87 2464.28,-293.42 2461.09,-287.19"/>
</g>
<!-- Node23 -->
<g id="node23" class="node">
<title>Node23</title>
<g id="a_node23"><a xlink:href="../../d0/d2e/As__Actions_8h.html" target="_top" xlink:title=" ">
<polygon fill="white" stroke="black" points="2687,-189.5 2687,-252.5 2833,-252.5 2833,-189.5 2687,-189.5"/>
<text text-anchor="start" x="2695" y="-240.5" font-family="Helvetica,sans-Serif" font-size="10.00">/home/nico/joda_tmp</text>
<text text-anchor="start" x="2695" y="-229.5" font-family="Helvetica,sans-Serif" font-size="10.00">/tmp&#45;joda&#45;dirs/JODA</text>
<text text-anchor="start" x="2695" y="-218.5" font-family="Helvetica,sans-Serif" font-size="10.00">&#45;gh/libs/joda/core/modules</text>
<text text-anchor="start" x="2695" y="-207.5" font-family="Helvetica,sans-Serif" font-size="10.00">/queryparsing/src/actions</text>
<text text-anchor="middle" x="2760" y="-196.5" font-family="Helvetica,sans-Serif" font-size="10.00">/As_Actions.h</text>
</a>
</g>
</g>
<!-- Node20&#45;&gt;Node23 -->
<g id="edge31" class="edge">
<title>Node20&#45;&gt;Node23</title>
<path fill="none" stroke="midnightblue" d="M2478.81,-306.47C2535.62,-293.08 2611.85,-273.88 2678,-253 2680.9,-252.08 2683.85,-251.12 2686.82,-250.13"/>
<polygon fill="midnightblue" stroke="midnightblue" points="2477.73,-303.12 2468.79,-308.81 2479.32,-309.94 2477.73,-303.12"/>
</g>
<!-- Node24 -->
<g id="node24" class="node">
<title>Node24</title>
<g id="a_node24"><a xlink:href="../../d4/daf/Choose__Actions_8h.html" target="_top" xlink:title=" ">
<polygon fill="white" stroke="black" points="1829,-189.5 1829,-252.5 1975,-252.5 1975,-189.5 1829,-189.5"/>
<text text-anchor="start" x="1837" y="-240.5" font-family="Helvetica,sans-Serif" font-size="10.00">/home/nico/joda_tmp</text>
<text text-anchor="start" x="1837" y="-229.5" font-family="Helvetica,sans-Serif" font-size="10.00">/tmp&#45;joda&#45;dirs/JODA</text>
<text text-anchor="start" x="1837" y="-218.5" font-family="Helvetica,sans-Serif" font-size="10.00">&#45;gh/libs/joda/core/modules</text>
<text text-anchor="start" x="1837" y="-207.5" font-family="Helvetica,sans-Serif" font-size="10.00">/queryparsing/src/actions</text>
<text text-anchor="middle" x="1902" y="-196.5" font-family="Helvetica,sans-Serif" font-size="10.00">/Choose_Actions.h</text>
</a>
</g>
</g>
<!-- Node20&#45;&gt;Node24 -->
<g id="edge33" class="edge">
<title>Node20&#45;&gt;Node24</title>
<path fill="none" stroke="midnightblue" d="M2309.43,-315.24C2225.8,-304 2094.68,-283.42 1984,-253 1981.06,-252.19 1978.09,-251.32 1975.09,-250.41"/>
<polygon fill="midnightblue" stroke="midnightblue" points="2309.01,-318.71 2319.38,-316.56 2309.93,-311.77 2309.01,-318.71"/>
</g>
<!-- Node25 -->
<g id="node25" class="node">
<title>Node25</title>
<g id="a_node25"><a xlink:href="../../d8/dc3/Delete__Actions_8h.html" target="_top" xlink:title=" ">
<polygon fill="white" stroke="black" points="1993,-189.5 1993,-252.5 2139,-252.5 2139,-189.5 1993,-189.5"/>
<text text-anchor="start" x="2001" y="-240.5" font-family="Helvetica,sans-Serif" font-size="10.00">/home/nico/joda_tmp</text>
<text text-anchor="start" x="2001" y="-229.5" font-family="Helvetica,sans-Serif" font-size="10.00">/tmp&#45;joda&#45;dirs/JODA</text>
<text text-anchor="start" x="2001" y="-218.5" font-family="Helvetica,sans-Serif" font-size="10.00">&#45;gh/libs/joda/core/modules</text>
<text text-anchor="start" x="2001" y="-207.5" font-family="Helvetica,sans-Serif" font-size="10.00">/queryparsing/src/actions</text>
<text text-anchor="middle" x="2066" y="-196.5" font-family="Helvetica,sans-Serif" font-size="10.00">/Delete_Actions.h</text>
</a>
</g>
</g>
<!-- Node20&#45;&gt;Node25 -->
<g id="edge35" class="edge">
<title>Node20&#45;&gt;Node25</title>
<path fill="none" stroke="midnightblue" d="M2309.6,-302.31C2261.89,-288.79 2201.31,-270.9 2148,-253 2145.11,-252.03 2142.18,-251.02 2139.22,-249.99"/>
<polygon fill="midnightblue" stroke="midnightblue" points="2308.69,-305.7 2319.27,-305.05 2310.6,-298.96 2308.69,-305.7"/>
</g>
<!-- Node26 -->
<g id="node26" class="node">
<title>Node26</title>
<g id="a_node26"><a xlink:href="../../df/d48/Load__Actions_8h.html" target="_top" xlink:title=" ">
<polygon fill="white" stroke="black" points="2157,-189.5 2157,-252.5 2303,-252.5 2303,-189.5 2157,-189.5"/>
<text text-anchor="start" x="2165" y="-240.5" font-family="Helvetica,sans-Serif" font-size="10.00">/home/nico/joda_tmp</text>
<text text-anchor="start" x="2165" y="-229.5" font-family="Helvetica,sans-Serif" font-size="10.00">/tmp&#45;joda&#45;dirs/JODA</text>
<text text-anchor="start" x="2165" y="-218.5" font-family="Helvetica,sans-Serif" font-size="10.00">&#45;gh/libs/joda/core/modules</text>
<text text-anchor="start" x="2165" y="-207.5" font-family="Helvetica,sans-Serif" font-size="10.00">/queryparsing/src/actions</text>
<text text-anchor="middle" x="2230" y="-196.5" font-family="Helvetica,sans-Serif" font-size="10.00">/Load_Actions.h</text>
</a>
</g>
</g>
<!-- Node20&#45;&gt;Node26 -->
<g id="edge37" class="edge">
<title>Node20&#45;&gt;Node26</title>
<path fill="none" stroke="midnightblue" d="M2336.68,-289.33C2317.72,-277.36 2296.81,-264.17 2278.57,-252.65"/>
<polygon fill="midnightblue" stroke="midnightblue" points="2334.91,-292.35 2345.24,-294.73 2338.65,-286.43 2334.91,-292.35"/>
</g>
<!-- Node27 -->
<g id="node27" class="node">
<title>Node27</title>
<g id="a_node27"><a xlink:href="../../d2/d4b/Store__Actions_8h.html" target="_top" xlink:title=" ">
<polygon fill="white" stroke="black" points="2321,-189.5 2321,-252.5 2467,-252.5 2467,-189.5 2321,-189.5"/>
<text text-anchor="start" x="2329" y="-240.5" font-family="Helvetica,sans-Serif" font-size="10.00">/home/nico/joda_tmp</text>
<text text-anchor="start" x="2329" y="-229.5" font-family="Helvetica,sans-Serif" font-size="10.00">/tmp&#45;joda&#45;dirs/JODA</text>
<text text-anchor="start" x="2329" y="-218.5" font-family="Helvetica,sans-Serif" font-size="10.00">&#45;gh/libs/joda/core/modules</text>
<text text-anchor="start" x="2329" y="-207.5" font-family="Helvetica,sans-Serif" font-size="10.00">/queryparsing/src/actions</text>
<text text-anchor="middle" x="2394" y="-196.5" font-family="Helvetica,sans-Serif" font-size="10.00">/Store_Actions.h</text>
</a>
</g>
</g>
<!-- Node20&#45;&gt;Node27 -->
<g id="edge39" class="edge">
<title>Node20&#45;&gt;Node27</title>
<path fill="none" stroke="midnightblue" d="M2394,-284.46C2394,-273.92 2394,-262.76 2394,-252.83"/>
<polygon fill="midnightblue" stroke="midnightblue" points="2390.5,-284.73 2394,-294.73 2397.5,-284.73 2390.5,-284.73"/>
</g>
<!-- Node28 -->
<g id="node28" class="node">
<title>Node28</title>
<g id="a_node28"><a xlink:href="../../d4/d6a/Control_8h.html" target="_top" xlink:title=" ">
<polygon fill="white" stroke="black" points="2636,-95 2636,-147 2784,-147 2784,-95 2636,-95"/>
<text text-anchor="start" x="2644" y="-135" font-family="Helvetica,sans-Serif" font-size="10.00">/home/nico/joda_tmp</text>
<text text-anchor="start" x="2644" y="-124" font-family="Helvetica,sans-Serif" font-size="10.00">/tmp&#45;joda&#45;dirs/JODA</text>
<text text-anchor="start" x="2644" y="-113" font-family="Helvetica,sans-Serif" font-size="10.00">&#45;gh/libs/joda/core/modules</text>
<text text-anchor="middle" x="2710" y="-102" font-family="Helvetica,sans-Serif" font-size="10.00">/queryparsing/src/Control.h</text>
</a>
</g>
</g>
<!-- Node20&#45;&gt;Node28 -->
<g id="edge41" class="edge">
<title>Node20&#45;&gt;Node28</title>
<path fill="none" stroke="midnightblue" d="M2479.09,-324.33C2595.81,-320.73 2796.33,-306.65 2842,-253 2860.44,-231.34 2856.88,-213.24 2842,-189 2828.89,-167.65 2806.62,-152.84 2784.07,-142.69"/>
<polygon fill="midnightblue" stroke="midnightblue" points="2478.66,-320.84 2468.76,-324.63 2478.86,-327.84 2478.66,-320.84"/>
</g>
<!-- Node21&#45;&gt;Node12 -->
<g id="edge28" class="edge">
<title>Node21&#45;&gt;Node12</title>
<path fill="none" stroke="midnightblue" d="M2394,-79.42C2394,-70.36 2394,-61 2394,-52.77"/>
<polygon fill="midnightblue" stroke="midnightblue" points="2390.5,-79.46 2394,-89.46 2397.5,-79.46 2390.5,-79.46"/>
</g>
<!-- Node22&#45;&gt;Node21 -->
<g id="edge30" class="edge">
<title>Node22&#45;&gt;Node21</title>
<path fill="none" stroke="midnightblue" d="M2523.7,-184.92C2501.88,-174.34 2478.11,-162.81 2456.95,-152.54"/>
<polygon fill="midnightblue" stroke="midnightblue" points="2522.39,-188.18 2532.92,-189.4 2525.45,-181.88 2522.39,-188.18"/>
</g>
<!-- Node23&#45;&gt;Node21 -->
<g id="edge32" class="edge">
<title>Node23&#45;&gt;Node21</title>
<path fill="none" stroke="midnightblue" d="M2677.04,-188.83C2600.55,-165.86 2522.47,-148.14 2467.07,-136.51"/>
<polygon fill="midnightblue" stroke="midnightblue" points="2676.26,-192.25 2686.85,-191.81 2678.29,-185.55 2676.26,-192.25"/>
</g>
<!-- Node24&#45;&gt;Node21 -->
<g id="edge34" class="edge">
<title>Node24&#45;&gt;Node21</title>
<path fill="none" stroke="midnightblue" d="M1984.97,-188.92C2107.08,-156.98 2240.31,-138.74 2320.86,-129.49"/>
<polygon fill="midnightblue" stroke="midnightblue" points="1983.85,-185.6 1975.08,-191.55 1985.64,-192.36 1983.85,-185.6"/>
</g>
<!-- Node25&#45;&gt;Node21 -->
<g id="edge36" class="edge">
<title>Node25&#45;&gt;Node21</title>
<path fill="none" stroke="midnightblue" d="M2148.9,-188.8C2211.89,-168.63 2274,-151.93 2320.8,-139.98"/>
<polygon fill="midnightblue" stroke="midnightblue" points="2147.64,-185.53 2139.19,-191.93 2149.79,-192.19 2147.64,-185.53"/>
</g>
<!-- Node26&#45;&gt;Node21 -->
<g id="edge38" class="edge">
<title>Node26&#45;&gt;Node21</title>
<path fill="none" stroke="midnightblue" d="M2290.3,-183.97C2307.52,-173.68 2326.12,-162.56 2342.74,-152.63"/>
<polygon fill="midnightblue" stroke="midnightblue" points="2288.23,-181.13 2281.44,-189.26 2291.82,-187.14 2288.23,-181.13"/>
</g>
<!-- Node27&#45;&gt;Node21 -->
<g id="edge40" class="edge">
<title>Node27&#45;&gt;Node21</title>
<path fill="none" stroke="midnightblue" d="M2394,-179.1C2394,-170.24 2394,-161.01 2394,-152.63"/>
<polygon fill="midnightblue" stroke="midnightblue" points="2390.5,-179.26 2394,-189.26 2397.5,-179.26 2390.5,-179.26"/>
</g>
<!-- Node28&#45;&gt;Node12 -->
<g id="edge42" class="edge">
<title>Node28&#45;&gt;Node12</title>
<path fill="none" stroke="midnightblue" d="M2626.13,-95.45C2580.89,-82.21 2525.16,-65.89 2479.65,-52.57"/>
<polygon fill="midnightblue" stroke="midnightblue" points="2625.33,-98.86 2635.91,-98.31 2627.3,-92.14 2625.33,-98.86"/>
</g>
</g>
</svg>
