<?xml version="1.0" encoding="UTF-8" standalone="no"?>
<!DOCTYPE svg PUBLIC "-//W3C//DTD SVG 1.1//EN"
 "http://www.w3.org/Graphics/SVG/1.1/DTD/svg11.dtd">
<!-- Generated by graphviz version 2.43.0 (0)
 -->
<!-- Title: joda::filesystem::DirectoryRegister Pages: 1 -->
<svg width="284pt" height="262pt"
 viewBox="0.00 0.00 283.50 262.00" xmlns="http://www.w3.org/2000/svg" xmlns:xlink="http://www.w3.org/1999/xlink">
<g id="graph0" class="graph" transform="scale(1 1) rotate(0) translate(4 258)">
<title>joda::filesystem::DirectoryRegister</title>
<polygon fill="white" stroke="transparent" points="-4,4 -4,-258 279.5,-258 279.5,4 -4,4"/>
<!-- Node1 -->
<g id="node1" class="node">
<title>Node1</title>
<g id="a_node1"><a xlink:title=" ">
<polygon fill="#bfbfbf" stroke="black" points="0,-0.5 0,-30.5 146,-30.5 146,-0.5 0,-0.5"/>
<text text-anchor="start" x="8" y="-18.5" font-family="Helvetica,sans-Serif" font-size="10.00">joda::filesystem::Directory</text>
<text text-anchor="middle" x="73" y="-7.5" font-family="Helvetica,sans-Serif" font-size="10.00">Register</text>
</a>
</g>
</g>
<!-- Node2 -->
<g id="node2" class="node">
<title>Node2</title>
<g id="a_node2"><a xlink:title="STL class.">
<polygon fill="white" stroke="#bfbfbf" points="15.5,-84 15.5,-103 84.5,-103 84.5,-84 15.5,-84"/>
<text text-anchor="middle" x="50" y="-91" font-family="Helvetica,sans-Serif" font-size="10.00">std::mutex</text>
</a>
</g>
</g>
<!-- Node2&#45;&gt;Node1 -->
<g id="edge1" class="edge">
<title>Node2&#45;&gt;Node1</title>
<path fill="none" stroke="#9a32cd" stroke-dasharray="5,2" d="M55.54,-74.18C59.61,-60.76 65.04,-42.81 68.76,-30.52"/>
<polygon fill="#9a32cd" stroke="#9a32cd" points="52.19,-73.2 52.64,-83.78 58.88,-75.22 52.19,-73.2"/>
<text text-anchor="middle" x="74.5" y="-52" font-family="Helvetica,sans-Serif" font-size="10.00"> mut</text>
</g>
<!-- Node3 -->
<g id="node3" class="node">
<title>Node3</title>
<g id="a_node3"><a xlink:title=" ">
<polygon fill="white" stroke="#bfbfbf" points="102.5,-78.5 102.5,-108.5 209.5,-108.5 209.5,-78.5 102.5,-78.5"/>
<text text-anchor="start" x="110.5" y="-96.5" font-family="Helvetica,sans-Serif" font-size="10.00">std::unordered_set</text>
<text text-anchor="middle" x="156" y="-85.5" font-family="Helvetica,sans-Serif" font-size="10.00">&lt; std::string &gt;</text>
</a>
</g>
</g>
<!-- Node3&#45;&gt;Node1 -->
<g id="edge2" class="edge">
<title>Node3&#45;&gt;Node1</title>
<path fill="none" stroke="#9a32cd" stroke-dasharray="5,2" d="M132.95,-71.39C118.79,-58.43 101.04,-42.18 88.54,-30.73"/>
<polygon fill="#9a32cd" stroke="#9a32cd" points="130.65,-74.03 140.39,-78.2 135.38,-68.87 130.65,-74.03"/>
<text text-anchor="middle" x="131" y="-52" font-family="Helvetica,sans-Serif" font-size="10.00"> dirs</text>
</g>
<!-- Node4 -->
<g id="node4" class="node">
<title>Node4</title>
<g id="a_node4"><a xlink:title="STL class.">
<polygon fill="white" stroke="#bfbfbf" points="55.5,-156.5 55.5,-175.5 120.5,-175.5 120.5,-156.5 55.5,-156.5"/>
<text text-anchor="middle" x="88" y="-163.5" font-family="Helvetica,sans-Serif" font-size="10.00">std::string</text>
</a>
</g>
</g>
<!-- Node4&#45;&gt;Node3 -->
<g id="edge3" class="edge">
<title>Node4&#45;&gt;Node3</title>
<path fill="none" stroke="#9a32cd" stroke-dasharray="5,2" d="M103.34,-149.09C115.09,-136.91 131.14,-120.27 142.42,-108.58"/>
<polygon fill="#9a32cd" stroke="#9a32cd" points="100.76,-146.73 96.34,-156.36 105.8,-151.59 100.76,-146.73"/>
<text text-anchor="middle" x="138" y="-130" font-family="Helvetica,sans-Serif" font-size="10.00"> keys</text>
</g>
<!-- Node5 -->
<g id="node5" class="node">
<title>Node5</title>
<g id="a_node5"><a xlink:title="STL class.">
<polygon fill="white" stroke="#bfbfbf" points="36,-223.5 36,-253.5 140,-253.5 140,-223.5 36,-223.5"/>
<text text-anchor="start" x="44" y="-241.5" font-family="Helvetica,sans-Serif" font-size="10.00">std::basic_string&lt;</text>
<text text-anchor="middle" x="88" y="-230.5" font-family="Helvetica,sans-Serif" font-size="10.00"> char &gt;</text>
</a>
</g>
</g>
<!-- Node5&#45;&gt;Node4 -->
<g id="edge4" class="edge">
<title>Node5&#45;&gt;Node4</title>
<path fill="none" stroke="midnightblue" d="M88,-213.09C88,-200.21 88,-185.2 88,-175.89"/>
<polygon fill="midnightblue" stroke="midnightblue" points="84.5,-213.23 88,-223.23 91.5,-213.23 84.5,-213.23"/>
</g>
<!-- Node6 -->
<g id="node6" class="node">
<title>Node6</title>
<g id="a_node6"><a xlink:title="STL class.">
<polygon fill="white" stroke="#bfbfbf" points="138.5,-156.5 138.5,-175.5 275.5,-175.5 275.5,-156.5 138.5,-156.5"/>
<text text-anchor="middle" x="207" y="-163.5" font-family="Helvetica,sans-Serif" font-size="10.00">std::unordered_set&lt; K &gt;</text>
</a>
</g>
</g>
<!-- Node6&#45;&gt;Node3 -->
<g id="edge5" class="edge">
<title>Node6&#45;&gt;Node3</title>
<path fill="none" stroke="orange" stroke-dasharray="5,2" d="M194.73,-148.04C186,-135.97 174.4,-119.94 166.18,-108.58"/>
<polygon fill="orange" stroke="orange" points="192.05,-150.3 200.75,-156.36 197.72,-146.2 192.05,-150.3"/>
<text text-anchor="middle" x="224.5" y="-130" font-family="Helvetica,sans-Serif" font-size="10.00"> &lt; std::string &gt;</text>
</g>
<!-- Node7 -->
<g id="node7" class="node">
<title>Node7</title>
<g id="a_node7"><a xlink:title=" ">
<polygon fill="white" stroke="#bfbfbf" points="192.5,-229 192.5,-248 221.5,-248 221.5,-229 192.5,-229"/>
<text text-anchor="middle" x="207" y="-236" font-family="Helvetica,sans-Serif" font-size="10.00">K</text>
</a>
</g>
</g>
<!-- Node7&#45;&gt;Node6 -->
<g id="edge6" class="edge">
<title>Node7&#45;&gt;Node6</title>
<path fill="none" stroke="#9a32cd" stroke-dasharray="5,2" d="M207,-218.44C207,-204.53 207,-186.32 207,-175.72"/>
<polygon fill="#9a32cd" stroke="#9a32cd" points="203.5,-218.86 207,-228.86 210.5,-218.86 203.5,-218.86"/>
<text text-anchor="middle" x="220" y="-197" font-family="Helvetica,sans-Serif" font-size="10.00"> keys</text>
</g>
</g>
</svg>
