<?xml version="1.0" encoding="UTF-8" standalone="no"?>
<!DOCTYPE svg PUBLIC "-//W3C//DTD SVG 1.1//EN"
 "http://www.w3.org/Graphics/SVG/1.1/DTD/svg11.dtd">
<!-- Generated by graphviz version 2.43.0 (0)
 -->
<!-- Title: joda::query::ValToPredicate Pages: 1 -->
<svg width="434pt" height="251pt"
 viewBox="0.00 0.00 434.00 251.00" xmlns="http://www.w3.org/2000/svg" xmlns:xlink="http://www.w3.org/1999/xlink">
<g id="graph0" class="graph" transform="scale(1 1) rotate(0) translate(4 247)">
<title>joda::query::ValToPredicate</title>
<polygon fill="white" stroke="transparent" points="-4,4 -4,-247 430,-247 430,4 -4,4"/>
<!-- Node1 -->
<g id="node1" class="node">
<title>Node1</title>
<g id="a_node1"><a xlink:title=" ">
<polygon fill="#bfbfbf" stroke="black" points="47,-0.5 47,-19.5 195,-19.5 195,-0.5 47,-0.5"/>
<text text-anchor="middle" x="121" y="-7.5" font-family="Helvetica,sans-Serif" font-size="10.00">joda::query::ValToPredicate</text>
</a>
</g>
</g>
<!-- Node2 -->
<g id="node2" class="node">
<title>Node2</title>
<g id="a_node2"><a xlink:href="../../dc/d49/classjoda_1_1query_1_1Predicate.html" target="_top" xlink:title=" ">
<polygon fill="white" stroke="black" points="60,-73 60,-92 182,-92 182,-73 60,-73"/>
<text text-anchor="middle" x="121" y="-80" font-family="Helvetica,sans-Serif" font-size="10.00">joda::query::Predicate</text>
</a>
</g>
</g>
<!-- Node2&#45;&gt;Node1 -->
<g id="edge1" class="edge">
<title>Node2&#45;&gt;Node1</title>
<path fill="none" stroke="midnightblue" d="M121,-62.44C121,-48.53 121,-30.32 121,-19.72"/>
<polygon fill="midnightblue" stroke="midnightblue" points="117.5,-62.86 121,-72.86 124.5,-62.86 117.5,-62.86"/>
</g>
<!-- Node3 -->
<g id="node3" class="node">
<title>Node3</title>
<g id="a_node3"><a xlink:title=" ">
<polygon fill="white" stroke="#bfbfbf" points="19.5,-145.5 19.5,-164.5 84.5,-164.5 84.5,-145.5 19.5,-145.5"/>
<text text-anchor="middle" x="52" y="-152.5" font-family="Helvetica,sans-Serif" font-size="10.00">std::string</text>
</a>
</g>
</g>
<!-- Node3&#45;&gt;Node1 -->
<g id="edge4" class="edge">
<title>Node3&#45;&gt;Node1</title>
<path fill="none" stroke="#9a32cd" stroke-dasharray="5,2" d="M39.26,-136.9C27.37,-118.66 13.21,-89.38 26,-67 39.96,-42.56 69.21,-27.73 91.59,-19.52"/>
<polygon fill="#9a32cd" stroke="#9a32cd" points="36.54,-139.12 45.12,-145.33 42.29,-135.12 36.54,-139.12"/>
<text text-anchor="middle" x="38.5" y="-80" font-family="Helvetica,sans-Serif" font-size="10.00"> type</text>
</g>
<!-- Node3&#45;&gt;Node2 -->
<g id="edge2" class="edge">
<title>Node3&#45;&gt;Node2</title>
<path fill="none" stroke="#9a32cd" stroke-dasharray="5,2" d="M67.47,-138.19C81.37,-123.99 101.26,-103.67 112.47,-92.22"/>
<polygon fill="#9a32cd" stroke="#9a32cd" points="64.95,-135.76 60.46,-145.36 69.96,-140.66 64.95,-135.76"/>
<text text-anchor="middle" x="101.5" y="-119" font-family="Helvetica,sans-Serif" font-size="10.00"> type</text>
</g>
<!-- Node4 -->
<g id="node4" class="node">
<title>Node4</title>
<g id="a_node4"><a xlink:title=" ">
<polygon fill="white" stroke="#bfbfbf" points="0,-212.5 0,-242.5 104,-242.5 104,-212.5 0,-212.5"/>
<text text-anchor="start" x="8" y="-230.5" font-family="Helvetica,sans-Serif" font-size="10.00">std::basic_string&lt;</text>
<text text-anchor="middle" x="52" y="-219.5" font-family="Helvetica,sans-Serif" font-size="10.00"> Char &gt;</text>
</a>
</g>
</g>
<!-- Node4&#45;&gt;Node3 -->
<g id="edge3" class="edge">
<title>Node4&#45;&gt;Node3</title>
<path fill="none" stroke="midnightblue" d="M52,-202.09C52,-189.21 52,-174.2 52,-164.89"/>
<polygon fill="midnightblue" stroke="midnightblue" points="48.5,-202.23 52,-212.23 55.5,-202.23 48.5,-202.23"/>
</g>
<!-- Node5 -->
<g id="node5" class="node">
<title>Node5</title>
<g id="a_node5"><a xlink:title=" ">
<polygon fill="white" stroke="#bfbfbf" points="200.5,-67.5 200.5,-97.5 337.5,-97.5 337.5,-67.5 200.5,-67.5"/>
<text text-anchor="start" x="208.5" y="-85.5" font-family="Helvetica,sans-Serif" font-size="10.00">std::unique_ptr&lt; joda</text>
<text text-anchor="middle" x="269" y="-74.5" font-family="Helvetica,sans-Serif" font-size="10.00">::query::IValueProvider &gt;</text>
</a>
</g>
</g>
<!-- Node5&#45;&gt;Node1 -->
<g id="edge5" class="edge">
<title>Node5&#45;&gt;Node1</title>
<path fill="none" stroke="#9a32cd" stroke-dasharray="5,2" d="M230.2,-63.02C200.68,-48.96 161.43,-30.26 138.91,-19.53"/>
<polygon fill="#9a32cd" stroke="#9a32cd" points="228.87,-66.26 239.41,-67.4 231.88,-59.94 228.87,-66.26"/>
<text text-anchor="middle" x="209.5" y="-41" font-family="Helvetica,sans-Serif" font-size="10.00"> val</text>
</g>
<!-- Node6 -->
<g id="node6" class="node">
<title>Node6</title>
<g id="a_node6"><a xlink:title=" ">
<polygon fill="white" stroke="#bfbfbf" points="210,-145.5 210,-164.5 328,-164.5 328,-145.5 210,-145.5"/>
<text text-anchor="middle" x="269" y="-152.5" font-family="Helvetica,sans-Serif" font-size="10.00">std::unique_ptr&lt; T &gt;</text>
</a>
</g>
</g>
<!-- Node6&#45;&gt;Node5 -->
<g id="edge6" class="edge">
<title>Node6&#45;&gt;Node5</title>
<path fill="none" stroke="orange" stroke-dasharray="5,2" d="M269,-135.24C269,-123.41 269,-108.38 269,-97.58"/>
<polygon fill="orange" stroke="orange" points="265.5,-135.36 269,-145.36 272.5,-135.36 265.5,-135.36"/>
<text text-anchor="middle" x="347.5" y="-119" font-family="Helvetica,sans-Serif" font-size="10.00"> &lt; joda::query::IValueProvider &gt;</text>
</g>
<!-- Node7 -->
<g id="node7" class="node">
<title>Node7</title>
<g id="a_node7"><a xlink:title=" ">
<polygon fill="white" stroke="#bfbfbf" points="254.5,-218 254.5,-237 283.5,-237 283.5,-218 254.5,-218"/>
<text text-anchor="middle" x="269" y="-225" font-family="Helvetica,sans-Serif" font-size="10.00">T</text>
</a>
</g>
</g>
<!-- Node7&#45;&gt;Node6 -->
<g id="edge7" class="edge">
<title>Node7&#45;&gt;Node6</title>
<path fill="none" stroke="#9a32cd" stroke-dasharray="5,2" d="M269,-207.44C269,-193.53 269,-175.32 269,-164.72"/>
<polygon fill="#9a32cd" stroke="#9a32cd" points="265.5,-207.86 269,-217.86 272.5,-207.86 265.5,-207.86"/>
<text text-anchor="middle" x="277.5" y="-186" font-family="Helvetica,sans-Serif" font-size="10.00"> ptr</text>
</g>
</g>
</svg>
