<?xml version="1.0" encoding="UTF-8" standalone="no"?>
<!DOCTYPE svg PUBLIC "-//W3C//DTD SVG 1.1//EN"
 "http://www.w3.org/Graphics/SVG/1.1/DTD/svg11.dtd">
<!-- Generated by graphviz version 2.43.0 (0)
 -->
<!-- Title: /home/nico/projects/JODA&#45;gh/libs/joda/core/modules/misc/include/joda/misc/MemoryUtility.h Pages: 1 -->
<svg width="1236pt" height="150pt"
 viewBox="0.00 0.00 1235.50 150.00" xmlns="http://www.w3.org/2000/svg" xmlns:xlink="http://www.w3.org/1999/xlink">
<g id="graph0" class="graph" transform="scale(1 1) rotate(0) translate(4 146)">
<title>/home/nico/projects/JODA&#45;gh/libs/joda/core/modules/misc/include/joda/misc/MemoryUtility.h</title>
<polygon fill="white" stroke="transparent" points="-4,4 -4,-146 1231.5,-146 1231.5,4 -4,4"/>
<!-- Node1 -->
<g id="node1" class="node">
<title>Node1</title>
<g id="a_node1"><a xlink:title=" ">
<polygon fill="#bfbfbf" stroke="black" points="578.5,-89.5 578.5,-141.5 728.5,-141.5 728.5,-89.5 578.5,-89.5"/>
<text text-anchor="start" x="586.5" y="-129.5" font-family="Helvetica,sans-Serif" font-size="10.00">/home/nico/projects</text>
<text text-anchor="start" x="586.5" y="-118.5" font-family="Helvetica,sans-Serif" font-size="10.00">/JODA&#45;gh/libs/joda/core</text>
<text text-anchor="start" x="586.5" y="-107.5" font-family="Helvetica,sans-Serif" font-size="10.00">/modules/misc/include/joda</text>
<text text-anchor="middle" x="653.5" y="-96.5" font-family="Helvetica,sans-Serif" font-size="10.00">/misc/MemoryUtility.h</text>
</a>
</g>
</g>
<!-- Node2 -->
<g id="node2" class="node">
<title>Node2</title>
<g id="a_node2"><a xlink:href="../../df/d21/CLI_8cpp.html" target="_top" xlink:title=" ">
<polygon fill="white" stroke="black" points="0,-6 0,-47 131,-47 131,-6 0,-6"/>
<text text-anchor="start" x="8" y="-35" font-family="Helvetica,sans-Serif" font-size="10.00">/home/nico/projects</text>
<text text-anchor="start" x="8" y="-24" font-family="Helvetica,sans-Serif" font-size="10.00">/JODA&#45;gh/libs/joda/core</text>
<text text-anchor="middle" x="65.5" y="-13" font-family="Helvetica,sans-Serif" font-size="10.00">/modules/cli/src/CLI.cpp</text>
</a>
</g>
</g>
<!-- Node1&#45;&gt;Node2 -->
<g id="edge1" class="edge">
<title>Node1&#45;&gt;Node2</title>
<path fill="none" stroke="midnightblue" d="M568.34,-109.74C465.8,-102.76 288.85,-86.72 140.5,-53 133.39,-51.38 126.01,-49.34 118.78,-47.13"/>
<polygon fill="midnightblue" stroke="midnightblue" points="568.12,-113.23 578.33,-110.4 568.59,-106.25 568.12,-113.23"/>
</g>
<!-- Node3 -->
<g id="node3" class="node">
<title>Node3</title>
<g id="a_node3"><a xlink:href="../../dd/dbf/ConfigParser_8cpp.html" target="_top" xlink:title=" ">
<polygon fill="white" stroke="black" points="149.5,-6 149.5,-47 343.5,-47 343.5,-6 149.5,-6"/>
<text text-anchor="start" x="157.5" y="-35" font-family="Helvetica,sans-Serif" font-size="10.00">/home/nico/projects</text>
<text text-anchor="start" x="157.5" y="-24" font-family="Helvetica,sans-Serif" font-size="10.00">/JODA&#45;gh/libs/joda/core</text>
<text text-anchor="middle" x="246.5" y="-13" font-family="Helvetica,sans-Serif" font-size="10.00">/modules/config/src/ConfigParser.cpp</text>
</a>
</g>
</g>
<!-- Node1&#45;&gt;Node3 -->
<g id="edge2" class="edge">
<title>Node1&#45;&gt;Node3</title>
<path fill="none" stroke="midnightblue" d="M568.33,-97.91C507.97,-85.96 425.12,-69.15 352.5,-53 344,-51.11 335.13,-49.08 326.3,-47.01"/>
<polygon fill="midnightblue" stroke="midnightblue" points="567.71,-101.36 578.2,-99.86 569.07,-94.49 567.71,-101.36"/>
</g>
<!-- Node4 -->
<g id="node4" class="node">
<title>Node4</title>
<g id="a_node4"><a xlink:href="../../d8/dd5/MemoryUtility_8cpp.html" target="_top" xlink:title=" ">
<polygon fill="white" stroke="black" points="362,-6 362,-47 559,-47 559,-6 362,-6"/>
<text text-anchor="start" x="370" y="-35" font-family="Helvetica,sans-Serif" font-size="10.00">/home/nico/projects</text>
<text text-anchor="start" x="370" y="-24" font-family="Helvetica,sans-Serif" font-size="10.00">/JODA&#45;gh/libs/joda/core</text>
<text text-anchor="middle" x="460.5" y="-13" font-family="Helvetica,sans-Serif" font-size="10.00">/modules/misc/src/MemoryUtility.cpp</text>
</a>
</g>
</g>
<!-- Node1&#45;&gt;Node4 -->
<g id="edge3" class="edge">
<title>Node1&#45;&gt;Node4</title>
<path fill="none" stroke="midnightblue" d="M588.66,-85.27C560.81,-72.72 529.01,-58.38 504.06,-47.13"/>
<polygon fill="midnightblue" stroke="midnightblue" points="587.38,-88.53 597.94,-89.45 590.26,-82.15 587.38,-88.53"/>
</g>
<!-- Node5 -->
<g id="node5" class="node">
<title>Node5</title>
<g id="a_node5"><a xlink:href="../../db/d5f/JodaSourceRequest_8cpp.html" target="_top" xlink:title=" ">
<polygon fill="white" stroke="black" points="577.5,-0.5 577.5,-52.5 729.5,-52.5 729.5,-0.5 577.5,-0.5"/>
<text text-anchor="start" x="585.5" y="-40.5" font-family="Helvetica,sans-Serif" font-size="10.00">/home/nico/projects</text>
<text text-anchor="start" x="585.5" y="-29.5" font-family="Helvetica,sans-Serif" font-size="10.00">/JODA&#45;gh/libs/joda/core</text>
<text text-anchor="start" x="585.5" y="-18.5" font-family="Helvetica,sans-Serif" font-size="10.00">/modules/network/src/apiv2</text>
<text text-anchor="middle" x="653.5" y="-7.5" font-family="Helvetica,sans-Serif" font-size="10.00">/JodaSourceRequest.cpp</text>
</a>
</g>
</g>
<!-- Node1&#45;&gt;Node5 -->
<g id="edge4" class="edge">
<title>Node1&#45;&gt;Node5</title>
<path fill="none" stroke="midnightblue" d="M653.5,-79.19C653.5,-70.28 653.5,-60.9 653.5,-52.61"/>
<polygon fill="midnightblue" stroke="midnightblue" points="650,-79.34 653.5,-89.34 657,-79.34 650,-79.34"/>
</g>
<!-- Node6 -->
<g id="node6" class="node">
<title>Node6</title>
<g id="a_node6"><a xlink:href="../../da/d10/SystemRequest_8cpp.html" target="_top" xlink:title=" ">
<polygon fill="white" stroke="black" points="747.5,-0.5 747.5,-52.5 899.5,-52.5 899.5,-0.5 747.5,-0.5"/>
<text text-anchor="start" x="755.5" y="-40.5" font-family="Helvetica,sans-Serif" font-size="10.00">/home/nico/projects</text>
<text text-anchor="start" x="755.5" y="-29.5" font-family="Helvetica,sans-Serif" font-size="10.00">/JODA&#45;gh/libs/joda/core</text>
<text text-anchor="start" x="755.5" y="-18.5" font-family="Helvetica,sans-Serif" font-size="10.00">/modules/network/src/apiv2</text>
<text text-anchor="middle" x="823.5" y="-7.5" font-family="Helvetica,sans-Serif" font-size="10.00">/SystemRequest.cpp</text>
</a>
</g>
</g>
<!-- Node1&#45;&gt;Node6 -->
<g id="edge5" class="edge">
<title>Node1&#45;&gt;Node6</title>
<path fill="none" stroke="midnightblue" d="M711.58,-84.78C732.03,-74.31 754.8,-62.66 774.44,-52.61"/>
<polygon fill="midnightblue" stroke="midnightblue" points="709.98,-81.66 702.67,-89.34 713.17,-87.9 709.98,-81.66"/>
</g>
<!-- Node7 -->
<g id="node7" class="node">
<title>Node7</title>
<g id="a_node7"><a xlink:href="../../d2/d7a/QueryPlan_8cpp.html" target="_top" xlink:title=" ">
<polygon fill="white" stroke="black" points="917.5,-0.5 917.5,-52.5 1057.5,-52.5 1057.5,-0.5 917.5,-0.5"/>
<text text-anchor="start" x="925.5" y="-40.5" font-family="Helvetica,sans-Serif" font-size="10.00">/home/nico/projects</text>
<text text-anchor="start" x="925.5" y="-29.5" font-family="Helvetica,sans-Serif" font-size="10.00">/JODA&#45;gh/libs/joda/core</text>
<text text-anchor="start" x="925.5" y="-18.5" font-family="Helvetica,sans-Serif" font-size="10.00">/modules/queryexecution</text>
<text text-anchor="middle" x="987.5" y="-7.5" font-family="Helvetica,sans-Serif" font-size="10.00">/src/QueryPlan.cpp</text>
</a>
</g>
</g>
<!-- Node1&#45;&gt;Node7 -->
<g id="edge6" class="edge">
<title>Node1&#45;&gt;Node7</title>
<path fill="none" stroke="midnightblue" d="M738.41,-95.72C788.2,-84.28 852.2,-68.85 908.5,-53 911.41,-52.18 914.38,-51.32 917.37,-50.44"/>
<polygon fill="midnightblue" stroke="midnightblue" points="737.61,-92.31 728.64,-97.95 739.17,-99.13 737.61,-92.31"/>
</g>
<!-- Node8 -->
<g id="node8" class="node">
<title>Node8</title>
<g id="a_node8"><a xlink:href="../../dd/d24/StorageCollection_8cpp.html" target="_top" xlink:title=" ">
<polygon fill="white" stroke="black" points="1075.5,-0.5 1075.5,-52.5 1227.5,-52.5 1227.5,-0.5 1075.5,-0.5"/>
<text text-anchor="start" x="1083.5" y="-40.5" font-family="Helvetica,sans-Serif" font-size="10.00">/home/nico/projects</text>
<text text-anchor="start" x="1083.5" y="-29.5" font-family="Helvetica,sans-Serif" font-size="10.00">/JODA&#45;gh/libs/joda/core</text>
<text text-anchor="start" x="1083.5" y="-18.5" font-family="Helvetica,sans-Serif" font-size="10.00">/modules/storage/collection</text>
<text text-anchor="middle" x="1151.5" y="-7.5" font-family="Helvetica,sans-Serif" font-size="10.00">/src/StorageCollection.cpp</text>
</a>
</g>
</g>
<!-- Node1&#45;&gt;Node8 -->
<g id="edge7" class="edge">
<title>Node1&#45;&gt;Node8</title>
<path fill="none" stroke="midnightblue" d="M738.7,-105.44C822.67,-95.66 954.32,-78.04 1066.5,-53 1069.36,-52.36 1072.26,-51.68 1075.18,-50.96"/>
<polygon fill="midnightblue" stroke="midnightblue" points="738.24,-101.97 728.7,-106.59 739.04,-108.92 738.24,-101.97"/>
</g>
</g>
</svg>
