<?xml version="1.0" encoding="UTF-8" standalone="no"?>
<!DOCTYPE svg PUBLIC "-//W3C//DTD SVG 1.1//EN"
 "http://www.w3.org/Graphics/SVG/1.1/DTD/svg11.dtd">
<!-- Generated by graphviz version 2.43.0 (0)
 -->
<!-- Title: /home/nico/joda_tmp/tmp&#45;joda&#45;dirs/JODA&#45;gh/libs/joda/core/modules/misc/include/joda/misc/MemoryUtility.h Pages: 1 -->
<svg width="1413pt" height="150pt"
 viewBox="0.00 0.00 1412.50 150.00" xmlns="http://www.w3.org/2000/svg" xmlns:xlink="http://www.w3.org/1999/xlink">
<g id="graph0" class="graph" transform="scale(1 1) rotate(0) translate(4 146)">
<title>/home/nico/joda_tmp/tmp&#45;joda&#45;dirs/JODA&#45;gh/libs/joda/core/modules/misc/include/joda/misc/MemoryUtility.h</title>
<polygon fill="white" stroke="transparent" points="-4,4 -4,-146 1408.5,-146 1408.5,4 -4,4"/>
<!-- Node1 -->
<g id="node1" class="node">
<title>Node1</title>
<g id="a_node1"><a xlink:title=" ">
<polygon fill="#bfbfbf" stroke="black" points="508,-89.5 508,-141.5 720,-141.5 720,-89.5 508,-89.5"/>
<text text-anchor="start" x="516" y="-129.5" font-family="Helvetica,sans-Serif" font-size="10.00">/home/nico/joda_tmp</text>
<text text-anchor="start" x="516" y="-118.5" font-family="Helvetica,sans-Serif" font-size="10.00">/tmp&#45;joda&#45;dirs/JODA</text>
<text text-anchor="start" x="516" y="-107.5" font-family="Helvetica,sans-Serif" font-size="10.00">&#45;gh/libs/joda/core/modules</text>
<text text-anchor="middle" x="614" y="-96.5" font-family="Helvetica,sans-Serif" font-size="10.00">/misc/include/joda/misc/MemoryUtility.h</text>
</a>
</g>
</g>
<!-- Node2 -->
<g id="node2" class="node">
<title>Node2</title>
<g id="a_node2"><a xlink:href="../../df/d21/CLI_8cpp.html" target="_top" xlink:title=" ">
<polygon fill="white" stroke="black" points="0,-0.5 0,-52.5 146,-52.5 146,-0.5 0,-0.5"/>
<text text-anchor="start" x="8" y="-40.5" font-family="Helvetica,sans-Serif" font-size="10.00">/home/nico/joda_tmp</text>
<text text-anchor="start" x="8" y="-29.5" font-family="Helvetica,sans-Serif" font-size="10.00">/tmp&#45;joda&#45;dirs/JODA</text>
<text text-anchor="start" x="8" y="-18.5" font-family="Helvetica,sans-Serif" font-size="10.00">&#45;gh/libs/joda/core/modules</text>
<text text-anchor="middle" x="73" y="-7.5" font-family="Helvetica,sans-Serif" font-size="10.00">/cli/src/CLI.cpp</text>
</a>
</g>
</g>
<!-- Node1&#45;&gt;Node2 -->
<g id="edge1" class="edge">
<title>Node1&#45;&gt;Node2</title>
<path fill="none" stroke="midnightblue" d="M497.8,-104.39C404.43,-94.96 270.33,-78.47 155,-53 152.09,-52.36 149.13,-51.66 146.15,-50.92"/>
<polygon fill="midnightblue" stroke="midnightblue" points="497.54,-107.88 507.84,-105.39 498.23,-100.91 497.54,-107.88"/>
</g>
<!-- Node3 -->
<g id="node3" class="node">
<title>Node3</title>
<g id="a_node3"><a xlink:href="../../dd/dbf/ConfigParser_8cpp.html" target="_top" xlink:title=" ">
<polygon fill="white" stroke="black" points="164.5,-0.5 164.5,-52.5 313.5,-52.5 313.5,-0.5 164.5,-0.5"/>
<text text-anchor="start" x="172.5" y="-40.5" font-family="Helvetica,sans-Serif" font-size="10.00">/home/nico/joda_tmp</text>
<text text-anchor="start" x="172.5" y="-29.5" font-family="Helvetica,sans-Serif" font-size="10.00">/tmp&#45;joda&#45;dirs/JODA</text>
<text text-anchor="start" x="172.5" y="-18.5" font-family="Helvetica,sans-Serif" font-size="10.00">&#45;gh/libs/joda/core/modules</text>
<text text-anchor="middle" x="239" y="-7.5" font-family="Helvetica,sans-Serif" font-size="10.00">/config/src/ConfigParser.cpp</text>
</a>
</g>
</g>
<!-- Node1&#45;&gt;Node3 -->
<g id="edge2" class="edge">
<title>Node1&#45;&gt;Node3</title>
<path fill="none" stroke="midnightblue" d="M497.88,-92.36C444.38,-81.54 380.2,-67.7 323,-53 319.9,-52.2 316.74,-51.37 313.56,-50.5"/>
<polygon fill="midnightblue" stroke="midnightblue" points="497.25,-95.8 507.75,-94.34 498.63,-88.94 497.25,-95.8"/>
</g>
<!-- Node4 -->
<g id="node4" class="node">
<title>Node4</title>
<g id="a_node4"><a xlink:href="../../d8/dd5/MemoryUtility_8cpp.html" target="_top" xlink:title=" ">
<polygon fill="white" stroke="black" points="332,-0.5 332,-52.5 484,-52.5 484,-0.5 332,-0.5"/>
<text text-anchor="start" x="340" y="-40.5" font-family="Helvetica,sans-Serif" font-size="10.00">/home/nico/joda_tmp</text>
<text text-anchor="start" x="340" y="-29.5" font-family="Helvetica,sans-Serif" font-size="10.00">/tmp&#45;joda&#45;dirs/JODA</text>
<text text-anchor="start" x="340" y="-18.5" font-family="Helvetica,sans-Serif" font-size="10.00">&#45;gh/libs/joda/core/modules</text>
<text text-anchor="middle" x="408" y="-7.5" font-family="Helvetica,sans-Serif" font-size="10.00">/misc/src/MemoryUtility.cpp</text>
</a>
</g>
</g>
<!-- Node1&#45;&gt;Node4 -->
<g id="edge3" class="edge">
<title>Node1&#45;&gt;Node4</title>
<path fill="none" stroke="midnightblue" d="M545.18,-85.44C519.93,-74.77 491.58,-62.8 467.25,-52.52"/>
<polygon fill="midnightblue" stroke="midnightblue" points="544.12,-88.79 554.69,-89.45 546.84,-82.34 544.12,-88.79"/>
</g>
<!-- Node5 -->
<g id="node5" class="node">
<title>Node5</title>
<g id="a_node5"><a xlink:href="../../db/d5f/JodaSourceRequest_8cpp.html" target="_top" xlink:title=" ">
<polygon fill="white" stroke="black" points="502,-0.5 502,-52.5 726,-52.5 726,-0.5 502,-0.5"/>
<text text-anchor="start" x="510" y="-40.5" font-family="Helvetica,sans-Serif" font-size="10.00">/home/nico/joda_tmp</text>
<text text-anchor="start" x="510" y="-29.5" font-family="Helvetica,sans-Serif" font-size="10.00">/tmp&#45;joda&#45;dirs/JODA</text>
<text text-anchor="start" x="510" y="-18.5" font-family="Helvetica,sans-Serif" font-size="10.00">&#45;gh/libs/joda/core/modules</text>
<text text-anchor="middle" x="614" y="-7.5" font-family="Helvetica,sans-Serif" font-size="10.00">/network/src/apiv2/JodaSourceRequest.cpp</text>
</a>
</g>
</g>
<!-- Node1&#45;&gt;Node5 -->
<g id="edge4" class="edge">
<title>Node1&#45;&gt;Node5</title>
<path fill="none" stroke="midnightblue" d="M614,-79.19C614,-70.28 614,-60.9 614,-52.61"/>
<polygon fill="midnightblue" stroke="midnightblue" points="610.5,-79.34 614,-89.34 617.5,-79.34 610.5,-79.34"/>
</g>
<!-- Node6 -->
<g id="node6" class="node">
<title>Node6</title>
<g id="a_node6"><a xlink:href="../../da/d10/SystemRequest_8cpp.html" target="_top" xlink:title=" ">
<polygon fill="white" stroke="black" points="744,-0.5 744,-52.5 950,-52.5 950,-0.5 744,-0.5"/>
<text text-anchor="start" x="752" y="-40.5" font-family="Helvetica,sans-Serif" font-size="10.00">/home/nico/joda_tmp</text>
<text text-anchor="start" x="752" y="-29.5" font-family="Helvetica,sans-Serif" font-size="10.00">/tmp&#45;joda&#45;dirs/JODA</text>
<text text-anchor="start" x="752" y="-18.5" font-family="Helvetica,sans-Serif" font-size="10.00">&#45;gh/libs/joda/core/modules</text>
<text text-anchor="middle" x="847" y="-7.5" font-family="Helvetica,sans-Serif" font-size="10.00">/network/src/apiv2/SystemRequest.cpp</text>
</a>
</g>
</g>
<!-- Node1&#45;&gt;Node6 -->
<g id="edge5" class="edge">
<title>Node1&#45;&gt;Node6</title>
<path fill="none" stroke="midnightblue" d="M690.71,-85.86C719.55,-75.09 752.1,-62.94 779.99,-52.52"/>
<polygon fill="midnightblue" stroke="midnightblue" points="689.22,-82.68 681.08,-89.45 691.67,-89.23 689.22,-82.68"/>
</g>
<!-- Node7 -->
<g id="node7" class="node">
<title>Node7</title>
<g id="a_node7"><a xlink:href="../../d2/d7a/QueryPlan_8cpp.html" target="_top" xlink:title=" ">
<polygon fill="white" stroke="black" points="968.5,-0.5 968.5,-52.5 1153.5,-52.5 1153.5,-0.5 968.5,-0.5"/>
<text text-anchor="start" x="976.5" y="-40.5" font-family="Helvetica,sans-Serif" font-size="10.00">/home/nico/joda_tmp</text>
<text text-anchor="start" x="976.5" y="-29.5" font-family="Helvetica,sans-Serif" font-size="10.00">/tmp&#45;joda&#45;dirs/JODA</text>
<text text-anchor="start" x="976.5" y="-18.5" font-family="Helvetica,sans-Serif" font-size="10.00">&#45;gh/libs/joda/core/modules</text>
<text text-anchor="middle" x="1061" y="-7.5" font-family="Helvetica,sans-Serif" font-size="10.00">/queryexecution/src/QueryPlan.cpp</text>
</a>
</g>
</g>
<!-- Node1&#45;&gt;Node7 -->
<g id="edge6" class="edge">
<title>Node1&#45;&gt;Node7</title>
<path fill="none" stroke="midnightblue" d="M730.24,-95.82C797.33,-84.53 883.17,-69.22 959,-53 962.12,-52.33 965.3,-51.64 968.5,-50.92"/>
<polygon fill="midnightblue" stroke="midnightblue" points="729.35,-92.42 720.06,-97.53 730.5,-99.33 729.35,-92.42"/>
</g>
<!-- Node8 -->
<g id="node8" class="node">
<title>Node8</title>
<g id="a_node8"><a xlink:href="../../dd/d24/StorageCollection_8cpp.html" target="_top" xlink:title=" ">
<polygon fill="white" stroke="black" points="1171.5,-0.5 1171.5,-52.5 1404.5,-52.5 1404.5,-0.5 1171.5,-0.5"/>
<text text-anchor="start" x="1179.5" y="-40.5" font-family="Helvetica,sans-Serif" font-size="10.00">/home/nico/joda_tmp</text>
<text text-anchor="start" x="1179.5" y="-29.5" font-family="Helvetica,sans-Serif" font-size="10.00">/tmp&#45;joda&#45;dirs/JODA</text>
<text text-anchor="start" x="1179.5" y="-18.5" font-family="Helvetica,sans-Serif" font-size="10.00">&#45;gh/libs/joda/core/modules</text>
<text text-anchor="middle" x="1288" y="-7.5" font-family="Helvetica,sans-Serif" font-size="10.00">/storage/collection/src/StorageCollection.cpp</text>
</a>
</g>
</g>
<!-- Node1&#45;&gt;Node8 -->
<g id="edge7" class="edge">
<title>Node1&#45;&gt;Node8</title>
<path fill="none" stroke="midnightblue" d="M730.39,-104.52C841.8,-94.24 1014.4,-76.43 1163,-53 1165.73,-52.57 1168.5,-52.12 1171.29,-51.65"/>
<polygon fill="midnightblue" stroke="midnightblue" points="729.78,-101.06 720.14,-105.46 730.41,-108.03 729.78,-101.06"/>
</g>
</g>
</svg>
