<?xml version="1.0" encoding="UTF-8" standalone="no"?>
<!DOCTYPE svg PUBLIC "-//W3C//DTD SVG 1.1//EN"
 "http://www.w3.org/Graphics/SVG/1.1/DTD/svg11.dtd">
<!-- Generated by graphviz version 2.43.0 (0)
 -->
<!-- Title: NumberAggregatorTest&lt; T &gt; Pages: 1 -->
<svg width="856pt" height="138pt"
 viewBox="0.00 0.00 856.00 138.00" xmlns="http://www.w3.org/2000/svg" xmlns:xlink="http://www.w3.org/1999/xlink">
<g id="graph0" class="graph" transform="scale(1 1) rotate(0) translate(4 134)">
<title>NumberAggregatorTest&lt; T &gt;</title>
<polygon fill="white" stroke="transparent" points="-4,4 -4,-134 852,-134 852,4 -4,4"/>
<!-- Node1 -->
<g id="node1" class="node">
<title>Node1</title>
<g id="a_node1"><a xlink:title=" ">
<polygon fill="#bfbfbf" stroke="black" points="690,-66.5 690,-85.5 848,-85.5 848,-66.5 690,-66.5"/>
<text text-anchor="middle" x="769" y="-73.5" font-family="Helvetica,sans-Serif" font-size="10.00">NumberAggregatorTest&lt; T &gt;</text>
</a>
</g>
</g>
<!-- Node2 -->
<g id="node2" class="node">
<title>Node2</title>
<g id="a_node2"><a xlink:title=" ">
<polygon fill="white" stroke="#bfbfbf" points="472.5,-110.5 472.5,-129.5 548.5,-129.5 548.5,-110.5 472.5,-110.5"/>
<text text-anchor="middle" x="510.5" y="-117.5" font-family="Helvetica,sans-Serif" font-size="10.00">testing::Test</text>
</a>
</g>
</g>
<!-- Node2&#45;&gt;Node1 -->
<g id="edge1" class="edge">
<title>Node2&#45;&gt;Node1</title>
<path fill="none" stroke="midnightblue" d="M558.55,-111.93C602.01,-104.47 666.6,-93.39 712.55,-85.51"/>
<polygon fill="midnightblue" stroke="midnightblue" points="557.79,-108.51 548.52,-113.65 558.97,-115.41 557.79,-108.51"/>
</g>
<!-- Node3 -->
<g id="node3" class="node">
<title>Node3</title>
<g id="a_node3"><a xlink:title=" ">
<polygon fill="white" stroke="#bfbfbf" points="445,-61 445,-91 576,-91 576,-61 445,-61"/>
<text text-anchor="start" x="453" y="-79" font-family="Helvetica,sans-Serif" font-size="10.00">std::vector&lt; std::vector</text>
<text text-anchor="middle" x="510.5" y="-68" font-family="Helvetica,sans-Serif" font-size="10.00">&lt; double &gt; &gt;</text>
</a>
</g>
</g>
<!-- Node3&#45;&gt;Node1 -->
<g id="edge2" class="edge">
<title>Node3&#45;&gt;Node1</title>
<path fill="none" stroke="#9a32cd" stroke-dasharray="5,2" d="M586.53,-76C618.92,-76 656.81,-76 689.56,-76"/>
<polygon fill="#9a32cd" stroke="#9a32cd" points="586.23,-72.5 576.23,-76 586.23,-79.5 586.23,-72.5"/>
<text text-anchor="middle" x="637.5" y="-79" font-family="Helvetica,sans-Serif" font-size="10.00"> nums</text>
</g>
<!-- Node4 -->
<g id="node4" class="node">
<title>Node4</title>
<g id="a_node4"><a xlink:title=" ">
<polygon fill="white" stroke="#bfbfbf" points="124.5,-59.5 124.5,-78.5 221.5,-78.5 221.5,-59.5 124.5,-59.5"/>
<text text-anchor="middle" x="173" y="-66.5" font-family="Helvetica,sans-Serif" font-size="10.00">std::vector&lt; T &gt;</text>
</a>
</g>
</g>
<!-- Node4&#45;&gt;Node3 -->
<g id="edge3" class="edge">
<title>Node4&#45;&gt;Node3</title>
<path fill="none" stroke="orange" stroke-dasharray="5,2" d="M232.04,-70.21C291.39,-71.45 383.39,-73.37 445,-74.65"/>
<polygon fill="orange" stroke="orange" points="231.78,-66.7 221.71,-70 231.64,-73.7 231.78,-66.7"/>
<text text-anchor="middle" x="334" y="-76" font-family="Helvetica,sans-Serif" font-size="10.00"> &lt; std::vector&lt; double &gt; &gt;</text>
</g>
<!-- Node5 -->
<g id="node5" class="node">
<title>Node5</title>
<g id="a_node5"><a xlink:title=" ">
<polygon fill="white" stroke="#bfbfbf" points="0,-38.5 0,-57.5 29,-57.5 29,-38.5 0,-38.5"/>
<text text-anchor="middle" x="14.5" y="-45.5" font-family="Helvetica,sans-Serif" font-size="10.00">T</text>
</a>
</g>
</g>
<!-- Node5&#45;&gt;Node4 -->
<g id="edge4" class="edge">
<title>Node5&#45;&gt;Node4</title>
<path fill="none" stroke="#9a32cd" stroke-dasharray="5,2" d="M39.12,-51.17C61.64,-54.19 96.21,-58.83 124.45,-62.62"/>
<polygon fill="#9a32cd" stroke="#9a32cd" points="39.49,-47.69 29.11,-49.83 38.56,-54.63 39.49,-47.69"/>
<text text-anchor="middle" x="71.5" y="-62" font-family="Helvetica,sans-Serif" font-size="10.00"> elements</text>
</g>
<!-- Node7 -->
<g id="node7" class="node">
<title>Node7</title>
<g id="a_node7"><a xlink:title=" ">
<polygon fill="white" stroke="#bfbfbf" points="114,-19.5 114,-38.5 232,-38.5 232,-19.5 114,-19.5"/>
<text text-anchor="middle" x="173" y="-26.5" font-family="Helvetica,sans-Serif" font-size="10.00">std::unique_ptr&lt; T &gt;</text>
</a>
</g>
</g>
<!-- Node5&#45;&gt;Node7 -->
<g id="edge7" class="edge">
<title>Node5&#45;&gt;Node7</title>
<path fill="none" stroke="#9a32cd" stroke-dasharray="5,2" d="M38.37,-35.79C41.21,-34.67 44.13,-33.7 47,-33 68.42,-27.8 92.5,-26.09 113.77,-25.93"/>
<polygon fill="#9a32cd" stroke="#9a32cd" points="36.81,-32.66 29.15,-39.99 39.71,-39.03 36.81,-32.66"/>
<text text-anchor="middle" x="71.5" y="-36" font-family="Helvetica,sans-Serif" font-size="10.00"> ptr</text>
</g>
<!-- Node6 -->
<g id="node6" class="node">
<title>Node6</title>
<g id="a_node6"><a xlink:title=" ">
<polygon fill="white" stroke="#bfbfbf" points="436,-0.5 436,-41.5 585,-41.5 585,-0.5 436,-0.5"/>
<text text-anchor="start" x="444" y="-29.5" font-family="Helvetica,sans-Serif" font-size="10.00">std::unique_ptr&lt; joda</text>
<text text-anchor="start" x="444" y="-18.5" font-family="Helvetica,sans-Serif" font-size="10.00">::query::NumberAggregator</text>
<text text-anchor="middle" x="510.5" y="-7.5" font-family="Helvetica,sans-Serif" font-size="10.00">&lt; T &gt; &gt;</text>
</a>
</g>
</g>
<!-- Node6&#45;&gt;Node1 -->
<g id="edge5" class="edge">
<title>Node6&#45;&gt;Node1</title>
<path fill="none" stroke="#9a32cd" stroke-dasharray="5,2" d="M594.86,-38.87C637.66,-48.05 688.1,-58.87 723.46,-66.45"/>
<polygon fill="#9a32cd" stroke="#9a32cd" points="595.51,-35.44 585,-36.76 594.05,-42.28 595.51,-35.44"/>
<text text-anchor="middle" x="637.5" y="-59" font-family="Helvetica,sans-Serif" font-size="10.00"> referenceAgg</text>
</g>
<!-- Node7&#45;&gt;Node6 -->
<g id="edge6" class="edge">
<title>Node7&#45;&gt;Node6</title>
<path fill="none" stroke="orange" stroke-dasharray="5,2" d="M242.27,-27.37C298.5,-26.03 378.06,-24.13 435.74,-22.76"/>
<polygon fill="orange" stroke="orange" points="241.97,-23.88 232.06,-27.62 242.14,-30.88 241.97,-23.88"/>
<text text-anchor="start" x="250" y="-42" font-family="Helvetica,sans-Serif" font-size="10.00"> &lt; joda::query::NumberAggregator</text>
<text text-anchor="middle" x="334" y="-31" font-family="Helvetica,sans-Serif" font-size="10.00">&lt; T &gt; &gt;</text>
</g>
</g>
</svg>
