<?xml version="1.0" encoding="UTF-8" standalone="no"?>
<!DOCTYPE svg PUBLIC "-//W3C//DTD SVG 1.1//EN"
 "http://www.w3.org/Graphics/SVG/1.1/DTD/svg11.dtd">
<!-- Generated by graphviz version 2.43.0 (0)
 -->
<!-- Title: /home/nico/projects/JODA&#45;gh/libs/joda/core/modules/concurrency/include/joda/concurrency/IOThreadPool.h Pages: 1 -->
<!--zoomable 428 -->
<svg id="main" version="1.1" xmlns="http://www.w3.org/2000/svg" xmlns:xlink="http://www.w3.org/1999/xlink" xml:space="preserve" onload="init(evt)">
<style type="text/css"><![CDATA[
.edge:hover path { stroke: red; }
.edge:hover polygon { stroke: red; fill: red; }
]]></style>
<script type="text/javascript"><![CDATA[
var edges = document.getElementsByTagName('g');
if (edges && edges.length) {
  for (var i=0;i<edges.length;i++) {
    if (edges[i].id.substr(0,4)=='edge') {
      edges[i].setAttribute('class','edge');
    }
  }
}
]]></script>
        <defs>
                <circle id="rim" cx="0" cy="0" r="7"/>
                <circle id="rim2" cx="0" cy="0" r="3.5"/>
                <g id="zoomPlus">
                        <use xlink:href="#rim" fill="#404040">
                                <set attributeName="fill" to="#808080" begin="zoomplus.mouseover" end="zoomplus.mouseout"/>
                        </use>
                        <path d="M-4,0h8M0,-4v8" fill="none" stroke="white" stroke-width="1.5" pointer-events="none"/>
                </g>
                <g id="zoomMin">
                        <use xlink:href="#rim" fill="#404040">
                                <set attributeName="fill" to="#808080" begin="zoomminus.mouseover" end="zoomminus.mouseout"/>
                        </use>
                        <path d="M-4,0h8" fill="none" stroke="white" stroke-width="1.5" pointer-events="none"/>
                </g>
                <g id="dirArrow">
                        <path fill="none" stroke="white" stroke-width="1.5" d="M0,-3.0v7 M-2.5,-0.5L0,-3.0L2.5,-0.5"/>
                </g>
               <g id="resetDef">
                       <use xlink:href="#rim2" fill="#404040">
                               <set attributeName="fill" to="#808080" begin="reset.mouseover" end="reset.mouseout"/>
                       </use>
               </g>
        </defs>

<script type="text/javascript">
var viewWidth = 1801;
var viewHeight = 428;
var sectionId = 'dynsection-1';
</script>
<script xlink:href="../../svgpan.js"/>
<svg id="graph" class="graph">
<g id="viewport">
<title>/home/nico/projects/JODA&#45;gh/libs/joda/core/modules/concurrency/include/joda/concurrency/IOThreadPool.h</title>
<polygon fill="white" stroke="transparent" points="-4,4 -4,-424 1797,-424 1797,4 -4,4"/>
<!-- Node1 -->
<g id="node1" class="node">
<title>Node1</title>
<g id="a_node1"><a xlink:title=" ">
<polygon fill="#bfbfbf" stroke="black" points="881,-367.5 881,-419.5 1061,-419.5 1061,-367.5 881,-367.5"/>
<text text-anchor="start" x="889" y="-407.5" font-family="Helvetica,sans-Serif" font-size="10.00">/home/nico/projects</text>
<text text-anchor="start" x="889" y="-396.5" font-family="Helvetica,sans-Serif" font-size="10.00">/JODA&#45;gh/libs/joda/core</text>
<text text-anchor="start" x="889" y="-385.5" font-family="Helvetica,sans-Serif" font-size="10.00">/modules/concurrency/include</text>
<text text-anchor="middle" x="971" y="-374.5" font-family="Helvetica,sans-Serif" font-size="10.00">/joda/concurrency/IOThreadPool.h</text>
</a>
</g>
</g>
<!-- Node2 -->
<g id="node2" class="node">
<title>Node2</title>
<g id="a_node2"><a xlink:href="../../df/db5/DirectoryExport_8h.html" target="_top" xlink:title=" ">
<polygon fill="white" stroke="black" points="189,-278.5 189,-330.5 353,-330.5 353,-278.5 189,-278.5"/>
<text text-anchor="start" x="197" y="-318.5" font-family="Helvetica,sans-Serif" font-size="10.00">/home/nico/projects</text>
<text text-anchor="start" x="197" y="-307.5" font-family="Helvetica,sans-Serif" font-size="10.00">/JODA&#45;gh/libs/joda/core</text>
<text text-anchor="start" x="197" y="-296.5" font-family="Helvetica,sans-Serif" font-size="10.00">/modules/export/include</text>
<text text-anchor="middle" x="271" y="-285.5" font-family="Helvetica,sans-Serif" font-size="10.00">/joda/export/DirectoryExport.h</text>
</a>
</g>
</g>
<!-- Node1&#45;&gt;Node2 -->
<g id="edge1" class="edge">
<title>Node1&#45;&gt;Node2</title>
<path fill="none" stroke="midnightblue" d="M870.6,-386.28C751.86,-377.97 548.53,-360.73 376,-331 368.51,-329.71 360.77,-328.19 353.03,-326.54"/>
<polygon fill="midnightblue" stroke="midnightblue" points="870.55,-389.79 880.77,-386.99 871.03,-382.8 870.55,-389.79"/>
</g>
<!-- Node7 -->
<g id="node7" class="node">
<title>Node7</title>
<g id="a_node7"><a xlink:href="../../dc/d98/ReaderParser_8h.html" target="_top" xlink:title=" ">
<polygon fill="white" stroke="black" points="1405,-278.5 1405,-330.5 1555,-330.5 1555,-278.5 1405,-278.5"/>
<text text-anchor="start" x="1413" y="-318.5" font-family="Helvetica,sans-Serif" font-size="10.00">/home/nico/projects</text>
<text text-anchor="start" x="1413" y="-307.5" font-family="Helvetica,sans-Serif" font-size="10.00">/JODA&#45;gh/libs/joda/core</text>
<text text-anchor="start" x="1413" y="-296.5" font-family="Helvetica,sans-Serif" font-size="10.00">/modules/parser/include</text>
<text text-anchor="middle" x="1480" y="-285.5" font-family="Helvetica,sans-Serif" font-size="10.00">/joda/parser/ReaderParser.h</text>
</a>
</g>
</g>
<!-- Node1&#45;&gt;Node7 -->
<g id="edge6" class="edge">
<title>Node1&#45;&gt;Node7</title>
<path fill="none" stroke="midnightblue" d="M1071.35,-382.31C1157.96,-372.48 1286.1,-355.48 1396,-331 1398.83,-330.37 1401.7,-329.69 1404.59,-328.98"/>
<polygon fill="midnightblue" stroke="midnightblue" points="1070.81,-378.85 1061.26,-383.44 1071.59,-385.8 1070.81,-378.85"/>
</g>
<!-- Node15 -->
<g id="node15" class="node">
<title>Node15</title>
<g id="a_node15"><a xlink:href="../../d6/df8/JSONMetaParser_8h.html" target="_top" xlink:title=" ">
<polygon fill="white" stroke="black" points="555,-278.5 555,-330.5 707,-330.5 707,-278.5 555,-278.5"/>
<text text-anchor="start" x="563" y="-318.5" font-family="Helvetica,sans-Serif" font-size="10.00">/home/nico/projects</text>
<text text-anchor="start" x="563" y="-307.5" font-family="Helvetica,sans-Serif" font-size="10.00">/JODA&#45;gh/libs/joda/core</text>
<text text-anchor="start" x="563" y="-296.5" font-family="Helvetica,sans-Serif" font-size="10.00">/modules/parser/src/parsers</text>
<text text-anchor="middle" x="631" y="-285.5" font-family="Helvetica,sans-Serif" font-size="10.00">/JSONMetaParser.h</text>
</a>
</g>
</g>
<!-- Node1&#45;&gt;Node15 -->
<g id="edge14" class="edge">
<title>Node1&#45;&gt;Node15</title>
<path fill="none" stroke="midnightblue" d="M870.8,-369.67C823.67,-358.6 766.79,-344.73 716,-331 713.17,-330.24 710.3,-329.44 707.4,-328.64"/>
<polygon fill="midnightblue" stroke="midnightblue" points="870.17,-373.12 880.71,-372 871.77,-366.31 870.17,-373.12"/>
</g>
<!-- Node16 -->
<g id="node16" class="node">
<title>Node16</title>
<g id="a_node16"><a xlink:href="../../d6/d28/JSONStreamParser_8h.html" target="_top" xlink:title=" ">
<polygon fill="white" stroke="black" points="725,-278.5 725,-330.5 877,-330.5 877,-278.5 725,-278.5"/>
<text text-anchor="start" x="733" y="-318.5" font-family="Helvetica,sans-Serif" font-size="10.00">/home/nico/projects</text>
<text text-anchor="start" x="733" y="-307.5" font-family="Helvetica,sans-Serif" font-size="10.00">/JODA&#45;gh/libs/joda/core</text>
<text text-anchor="start" x="733" y="-296.5" font-family="Helvetica,sans-Serif" font-size="10.00">/modules/parser/src/parsers</text>
<text text-anchor="middle" x="801" y="-285.5" font-family="Helvetica,sans-Serif" font-size="10.00">/JSONStreamParser.h</text>
</a>
</g>
</g>
<!-- Node1&#45;&gt;Node16 -->
<g id="edge16" class="edge">
<title>Node1&#45;&gt;Node16</title>
<path fill="none" stroke="midnightblue" d="M912.92,-362.78C892.47,-352.31 869.7,-340.66 850.06,-330.61"/>
<polygon fill="midnightblue" stroke="midnightblue" points="911.33,-365.9 921.83,-367.34 914.52,-359.66 911.33,-365.9"/>
</g>
<!-- Node17 -->
<g id="node17" class="node">
<title>Node17</title>
<g id="a_node17"><a xlink:href="../../d5/deb/JSONTextParser_8h.html" target="_top" xlink:title=" ">
<polygon fill="white" stroke="black" points="895,-278.5 895,-330.5 1047,-330.5 1047,-278.5 895,-278.5"/>
<text text-anchor="start" x="903" y="-318.5" font-family="Helvetica,sans-Serif" font-size="10.00">/home/nico/projects</text>
<text text-anchor="start" x="903" y="-307.5" font-family="Helvetica,sans-Serif" font-size="10.00">/JODA&#45;gh/libs/joda/core</text>
<text text-anchor="start" x="903" y="-296.5" font-family="Helvetica,sans-Serif" font-size="10.00">/modules/parser/src/parsers</text>
<text text-anchor="middle" x="971" y="-285.5" font-family="Helvetica,sans-Serif" font-size="10.00">/JSONTextParser.h</text>
</a>
</g>
</g>
<!-- Node1&#45;&gt;Node17 -->
<g id="edge18" class="edge">
<title>Node1&#45;&gt;Node17</title>
<path fill="none" stroke="midnightblue" d="M971,-357.19C971,-348.28 971,-338.9 971,-330.61"/>
<polygon fill="midnightblue" stroke="midnightblue" points="967.5,-357.34 971,-367.34 974.5,-357.34 967.5,-357.34"/>
</g>
<!-- Node18 -->
<g id="node18" class="node">
<title>Node18</title>
<g id="a_node18"><a xlink:href="../../d7/d2c/BeautifulJSONFileReader_8h.html" target="_top" xlink:title=" ">
<polygon fill="white" stroke="black" points="385,-278.5 385,-330.5 537,-330.5 537,-278.5 385,-278.5"/>
<text text-anchor="start" x="393" y="-318.5" font-family="Helvetica,sans-Serif" font-size="10.00">/home/nico/projects</text>
<text text-anchor="start" x="393" y="-307.5" font-family="Helvetica,sans-Serif" font-size="10.00">/JODA&#45;gh/libs/joda/core</text>
<text text-anchor="start" x="393" y="-296.5" font-family="Helvetica,sans-Serif" font-size="10.00">/modules/parser/src/readers</text>
<text text-anchor="middle" x="461" y="-285.5" font-family="Helvetica,sans-Serif" font-size="10.00">/BeautifulJSONFileReader.h</text>
</a>
</g>
</g>
<!-- Node1&#45;&gt;Node18 -->
<g id="edge20" class="edge">
<title>Node1&#45;&gt;Node18</title>
<path fill="none" stroke="midnightblue" d="M870.67,-382.22C784.07,-372.34 655.94,-355.3 546,-331 543.14,-330.37 540.24,-329.69 537.32,-328.97"/>
<polygon fill="midnightblue" stroke="midnightblue" points="870.43,-385.71 880.76,-383.36 871.21,-378.76 870.43,-385.71"/>
</g>
<!-- Node20 -->
<g id="node20" class="node">
<title>Node20</title>
<g id="a_node20"><a xlink:href="../../d7/d52/JSONFileReader_8h.html" target="_top" xlink:title=" ">
<polygon fill="white" stroke="black" points="1065,-278.5 1065,-330.5 1217,-330.5 1217,-278.5 1065,-278.5"/>
<text text-anchor="start" x="1073" y="-318.5" font-family="Helvetica,sans-Serif" font-size="10.00">/home/nico/projects</text>
<text text-anchor="start" x="1073" y="-307.5" font-family="Helvetica,sans-Serif" font-size="10.00">/JODA&#45;gh/libs/joda/core</text>
<text text-anchor="start" x="1073" y="-296.5" font-family="Helvetica,sans-Serif" font-size="10.00">/modules/parser/src/readers</text>
<text text-anchor="middle" x="1141" y="-285.5" font-family="Helvetica,sans-Serif" font-size="10.00">/JSONFileReader.h</text>
</a>
</g>
</g>
<!-- Node1&#45;&gt;Node20 -->
<g id="edge23" class="edge">
<title>Node1&#45;&gt;Node20</title>
<path fill="none" stroke="midnightblue" d="M1029.08,-362.78C1049.53,-352.31 1072.3,-340.66 1091.94,-330.61"/>
<polygon fill="midnightblue" stroke="midnightblue" points="1027.48,-359.66 1020.17,-367.34 1030.67,-365.9 1027.48,-359.66"/>
</g>
<!-- Node22 -->
<g id="node22" class="node">
<title>Node22</title>
<g id="a_node22"><a xlink:href="../../d0/dfe/JSONURLReader_8h.html" target="_top" xlink:title=" ">
<polygon fill="white" stroke="black" points="1235,-278.5 1235,-330.5 1387,-330.5 1387,-278.5 1235,-278.5"/>
<text text-anchor="start" x="1243" y="-318.5" font-family="Helvetica,sans-Serif" font-size="10.00">/home/nico/projects</text>
<text text-anchor="start" x="1243" y="-307.5" font-family="Helvetica,sans-Serif" font-size="10.00">/JODA&#45;gh/libs/joda/core</text>
<text text-anchor="start" x="1243" y="-296.5" font-family="Helvetica,sans-Serif" font-size="10.00">/modules/parser/src/readers</text>
<text text-anchor="middle" x="1311" y="-285.5" font-family="Helvetica,sans-Serif" font-size="10.00">/JSONURLReader.h</text>
</a>
</g>
</g>
<!-- Node1&#45;&gt;Node22 -->
<g id="edge26" class="edge">
<title>Node1&#45;&gt;Node22</title>
<path fill="none" stroke="midnightblue" d="M1071.2,-369.67C1118.33,-358.6 1175.21,-344.73 1226,-331 1228.83,-330.24 1231.7,-329.44 1234.6,-328.64"/>
<polygon fill="midnightblue" stroke="midnightblue" points="1070.23,-366.31 1061.29,-372 1071.83,-373.12 1070.23,-366.31"/>
</g>
<!-- Node24 -->
<g id="node24" class="node">
<title>Node24</title>
<g id="a_node24"><a xlink:href="../../d8/d5f/QueryThread_8h.html" target="_top" xlink:title=" ">
<polygon fill="white" stroke="black" points="1581,-278.5 1581,-330.5 1721,-330.5 1721,-278.5 1581,-278.5"/>
<text text-anchor="start" x="1589" y="-318.5" font-family="Helvetica,sans-Serif" font-size="10.00">/home/nico/projects</text>
<text text-anchor="start" x="1589" y="-307.5" font-family="Helvetica,sans-Serif" font-size="10.00">/JODA&#45;gh/libs/joda/core</text>
<text text-anchor="start" x="1589" y="-296.5" font-family="Helvetica,sans-Serif" font-size="10.00">/modules/queryexecution</text>
<text text-anchor="middle" x="1651" y="-285.5" font-family="Helvetica,sans-Serif" font-size="10.00">/src/QueryThread.h</text>
</a>
</g>
</g>
<!-- Node1&#45;&gt;Node24 -->
<g id="edge29" class="edge">
<title>Node1&#45;&gt;Node24</title>
<path fill="none" stroke="midnightblue" d="M1071.32,-387.67C1189.91,-380.67 1392.79,-364.68 1564,-331 1569.56,-329.91 1575.28,-328.62 1581,-327.21"/>
<polygon fill="midnightblue" stroke="midnightblue" points="1070.95,-384.18 1061.17,-388.25 1071.35,-391.17 1070.95,-384.18"/>
</g>
<!-- Node3 -->
<g id="node3" class="node">
<title>Node3</title>
<g id="a_node3"><a xlink:href="../../d9/d53/DirectoryExport_8cpp.html" target="_top" xlink:title=" ">
<polygon fill="white" stroke="black" points="164.5,-189.5 164.5,-230.5 377.5,-230.5 377.5,-189.5 164.5,-189.5"/>
<text text-anchor="start" x="172.5" y="-218.5" font-family="Helvetica,sans-Serif" font-size="10.00">/home/nico/projects</text>
<text text-anchor="start" x="172.5" y="-207.5" font-family="Helvetica,sans-Serif" font-size="10.00">/JODA&#45;gh/libs/joda/core</text>
<text text-anchor="middle" x="271" y="-196.5" font-family="Helvetica,sans-Serif" font-size="10.00">/modules/export/src/DirectoryExport.cpp</text>
</a>
</g>
</g>
<!-- Node2&#45;&gt;Node3 -->
<g id="edge2" class="edge">
<title>Node2&#45;&gt;Node3</title>
<path fill="none" stroke="midnightblue" d="M271,-267.95C271,-255.3 271,-241.51 271,-230.67"/>
<polygon fill="midnightblue" stroke="midnightblue" points="267.5,-268.22 271,-278.22 274.5,-268.22 267.5,-268.22"/>
</g>
<!-- Node4 -->
<g id="node4" class="node">
<title>Node4</title>
<g id="a_node4"><a xlink:href="../../d2/d4b/Store__Actions_8h.html" target="_top" xlink:title=" ">
<polygon fill="white" stroke="black" points="0,-184 0,-236 146,-236 146,-184 0,-184"/>
<text text-anchor="start" x="8" y="-224" font-family="Helvetica,sans-Serif" font-size="10.00">/home/nico/projects</text>
<text text-anchor="start" x="8" y="-213" font-family="Helvetica,sans-Serif" font-size="10.00">/JODA&#45;gh/libs/joda/core</text>
<text text-anchor="start" x="8" y="-202" font-family="Helvetica,sans-Serif" font-size="10.00">/modules/queryparsing/src</text>
<text text-anchor="middle" x="73" y="-191" font-family="Helvetica,sans-Serif" font-size="10.00">/actions/Store_Actions.h</text>
</a>
</g>
</g>
<!-- Node2&#45;&gt;Node4 -->
<g id="edge3" class="edge">
<title>Node2&#45;&gt;Node4</title>
<path fill="none" stroke="midnightblue" d="M208.31,-274.21C182.05,-261.94 151.83,-247.83 126.62,-236.05"/>
<polygon fill="midnightblue" stroke="midnightblue" points="206.88,-277.41 217.42,-278.47 209.84,-271.06 206.88,-277.41"/>
</g>
<!-- Node5 -->
<g id="node5" class="node">
<title>Node5</title>
<g id="a_node5"><a xlink:href="../../de/db3/Actions_8h.html" target="_top" xlink:title=" ">
<polygon fill="white" stroke="black" points="0,-89.5 0,-141.5 146,-141.5 146,-89.5 0,-89.5"/>
<text text-anchor="start" x="8" y="-129.5" font-family="Helvetica,sans-Serif" font-size="10.00">/home/nico/projects</text>
<text text-anchor="start" x="8" y="-118.5" font-family="Helvetica,sans-Serif" font-size="10.00">/JODA&#45;gh/libs/joda/core</text>
<text text-anchor="start" x="8" y="-107.5" font-family="Helvetica,sans-Serif" font-size="10.00">/modules/queryparsing/src</text>
<text text-anchor="middle" x="73" y="-96.5" font-family="Helvetica,sans-Serif" font-size="10.00">/actions/Actions.h</text>
</a>
</g>
</g>
<!-- Node4&#45;&gt;Node5 -->
<g id="edge4" class="edge">
<title>Node4&#45;&gt;Node5</title>
<path fill="none" stroke="midnightblue" d="M73,-173.49C73,-162.91 73,-151.53 73,-141.75"/>
<polygon fill="midnightblue" stroke="midnightblue" points="69.5,-173.72 73,-183.72 76.5,-173.72 69.5,-173.72"/>
</g>
<!-- Node6 -->
<g id="node6" class="node">
<title>Node6</title>
<g id="a_node6"><a xlink:href="../../d0/d62/QueryParser_8cpp.html" target="_top" xlink:title=" ">
<polygon fill="white" stroke="black" points="0,-0.5 0,-52.5 146,-52.5 146,-0.5 0,-0.5"/>
<text text-anchor="start" x="8" y="-40.5" font-family="Helvetica,sans-Serif" font-size="10.00">/home/nico/projects</text>
<text text-anchor="start" x="8" y="-29.5" font-family="Helvetica,sans-Serif" font-size="10.00">/JODA&#45;gh/libs/joda/core</text>
<text text-anchor="start" x="8" y="-18.5" font-family="Helvetica,sans-Serif" font-size="10.00">/modules/queryparsing/src</text>
<text text-anchor="middle" x="73" y="-7.5" font-family="Helvetica,sans-Serif" font-size="10.00">/QueryParser.cpp</text>
</a>
</g>
</g>
<!-- Node5&#45;&gt;Node6 -->
<g id="edge5" class="edge">
<title>Node5&#45;&gt;Node6</title>
<path fill="none" stroke="midnightblue" d="M73,-79.19C73,-70.28 73,-60.9 73,-52.61"/>
<polygon fill="midnightblue" stroke="midnightblue" points="69.5,-79.34 73,-89.34 76.5,-79.34 69.5,-79.34"/>
</g>
<!-- Node8 -->
<g id="node8" class="node">
<title>Node8</title>
<g id="a_node8"><a xlink:href="../../da/d7c/ReaderParser_8cpp.html" target="_top" xlink:title=" ">
<polygon fill="white" stroke="black" points="847,-189.5 847,-230.5 1047,-230.5 1047,-189.5 847,-189.5"/>
<text text-anchor="start" x="855" y="-218.5" font-family="Helvetica,sans-Serif" font-size="10.00">/home/nico/projects</text>
<text text-anchor="start" x="855" y="-207.5" font-family="Helvetica,sans-Serif" font-size="10.00">/JODA&#45;gh/libs/joda/core</text>
<text text-anchor="middle" x="947" y="-196.5" font-family="Helvetica,sans-Serif" font-size="10.00">/modules/parser/src/ReaderParser.cpp</text>
</a>
</g>
</g>
<!-- Node7&#45;&gt;Node8 -->
<g id="edge7" class="edge">
<title>Node7&#45;&gt;Node8</title>
<path fill="none" stroke="midnightblue" d="M1394.62,-277.89C1245.23,-248.76 1201.98,-270.27 1056,-242 1040.55,-239.01 1024.11,-234.86 1008.81,-230.57"/>
<polygon fill="midnightblue" stroke="midnightblue" points="1394.12,-281.36 1404.62,-279.88 1395.49,-274.49 1394.12,-281.36"/>
</g>
<!-- Node9 -->
<g id="node9" class="node">
<title>Node9</title>
<g id="a_node9"><a xlink:href="../../dc/d6d/QueryPlan_8h.html" target="_top" xlink:title=" ">
<polygon fill="white" stroke="black" points="1405.5,-178.5 1405.5,-241.5 1562.5,-241.5 1562.5,-178.5 1405.5,-178.5"/>
<text text-anchor="start" x="1413.5" y="-229.5" font-family="Helvetica,sans-Serif" font-size="10.00">/home/nico/projects</text>
<text text-anchor="start" x="1413.5" y="-218.5" font-family="Helvetica,sans-Serif" font-size="10.00">/JODA&#45;gh/libs/joda/core</text>
<text text-anchor="start" x="1413.5" y="-207.5" font-family="Helvetica,sans-Serif" font-size="10.00">/modules/queryexecution</text>
<text text-anchor="start" x="1413.5" y="-196.5" font-family="Helvetica,sans-Serif" font-size="10.00">/include/joda/queryexecution</text>
<text text-anchor="middle" x="1484" y="-185.5" font-family="Helvetica,sans-Serif" font-size="10.00">/QueryPlan.h</text>
</a>
</g>
</g>
<!-- Node7&#45;&gt;Node9 -->
<g id="edge8" class="edge">
<title>Node7&#45;&gt;Node9</title>
<path fill="none" stroke="midnightblue" d="M1481.53,-268.23C1481.91,-259.43 1482.31,-250.06 1482.68,-241.51"/>
<polygon fill="midnightblue" stroke="midnightblue" points="1478.03,-268.08 1481.09,-278.22 1485.02,-268.38 1478.03,-268.08"/>
</g>
<!-- Node10 -->
<g id="node10" class="node">
<title>Node10</title>
<g id="a_node10"><a xlink:href="../../d2/da6/CLI_8h.html" target="_top" xlink:title=" ">
<polygon fill="white" stroke="black" points="1277,-89.5 1277,-141.5 1415,-141.5 1415,-89.5 1277,-89.5"/>
<text text-anchor="start" x="1285" y="-129.5" font-family="Helvetica,sans-Serif" font-size="10.00">/home/nico/projects</text>
<text text-anchor="start" x="1285" y="-118.5" font-family="Helvetica,sans-Serif" font-size="10.00">/JODA&#45;gh/libs/joda/core</text>
<text text-anchor="start" x="1285" y="-107.5" font-family="Helvetica,sans-Serif" font-size="10.00">/modules/cli/include/joda</text>
<text text-anchor="middle" x="1346" y="-96.5" font-family="Helvetica,sans-Serif" font-size="10.00">/cli/CLI.h</text>
</a>
</g>
</g>
<!-- Node9&#45;&gt;Node10 -->
<g id="edge9" class="edge">
<title>Node9&#45;&gt;Node10</title>
<path fill="none" stroke="midnightblue" d="M1429.96,-172.78C1414.49,-162.41 1397.96,-151.33 1383.69,-141.77"/>
<polygon fill="midnightblue" stroke="midnightblue" points="1428.18,-175.8 1438.43,-178.46 1432.07,-169.98 1428.18,-175.8"/>
</g>
<!-- Node13 -->
<g id="node13" class="node">
<title>Node13</title>
<g id="a_node13"><a xlink:href="../../d4/dbf/JodaQueryRequest_8cpp.html" target="_top" xlink:title=" ">
<polygon fill="white" stroke="black" points="1433,-89.5 1433,-141.5 1585,-141.5 1585,-89.5 1433,-89.5"/>
<text text-anchor="start" x="1441" y="-129.5" font-family="Helvetica,sans-Serif" font-size="10.00">/home/nico/projects</text>
<text text-anchor="start" x="1441" y="-118.5" font-family="Helvetica,sans-Serif" font-size="10.00">/JODA&#45;gh/libs/joda/core</text>
<text text-anchor="start" x="1441" y="-107.5" font-family="Helvetica,sans-Serif" font-size="10.00">/modules/network/src/apiv2</text>
<text text-anchor="middle" x="1509" y="-96.5" font-family="Helvetica,sans-Serif" font-size="10.00">/JodaQueryRequest.cpp</text>
</a>
</g>
</g>
<!-- Node9&#45;&gt;Node13 -->
<g id="edge12" class="edge">
<title>Node9&#45;&gt;Node13</title>
<path fill="none" stroke="midnightblue" d="M1494.89,-168.72C1497.36,-159.56 1499.92,-150.09 1502.17,-141.77"/>
<polygon fill="midnightblue" stroke="midnightblue" points="1491.49,-167.89 1492.26,-178.46 1498.24,-169.72 1491.49,-167.89"/>
</g>
<!-- Node14 -->
<g id="node14" class="node">
<title>Node14</title>
<g id="a_node14"><a xlink:href="../../d2/d7a/QueryPlan_8cpp.html" target="_top" xlink:title=" ">
<polygon fill="white" stroke="black" points="1653,-89.5 1653,-141.5 1793,-141.5 1793,-89.5 1653,-89.5"/>
<text text-anchor="start" x="1661" y="-129.5" font-family="Helvetica,sans-Serif" font-size="10.00">/home/nico/projects</text>
<text text-anchor="start" x="1661" y="-118.5" font-family="Helvetica,sans-Serif" font-size="10.00">/JODA&#45;gh/libs/joda/core</text>
<text text-anchor="start" x="1661" y="-107.5" font-family="Helvetica,sans-Serif" font-size="10.00">/modules/queryexecution</text>
<text text-anchor="middle" x="1723" y="-96.5" font-family="Helvetica,sans-Serif" font-size="10.00">/src/QueryPlan.cpp</text>
</a>
</g>
</g>
<!-- Node9&#45;&gt;Node14 -->
<g id="edge13" class="edge">
<title>Node9&#45;&gt;Node14</title>
<path fill="none" stroke="midnightblue" d="M1572.16,-174.88C1600.7,-163.83 1631.81,-151.79 1658.32,-141.53"/>
<polygon fill="midnightblue" stroke="midnightblue" points="1570.65,-171.71 1562.59,-178.58 1573.18,-178.24 1570.65,-171.71"/>
</g>
<!-- Node11 -->
<g id="node11" class="node">
<title>Node11</title>
<g id="a_node11"><a xlink:href="../../df/d21/CLI_8cpp.html" target="_top" xlink:title=" ">
<polygon fill="white" stroke="black" points="1369.5,-6 1369.5,-47 1500.5,-47 1500.5,-6 1369.5,-6"/>
<text text-anchor="start" x="1377.5" y="-35" font-family="Helvetica,sans-Serif" font-size="10.00">/home/nico/projects</text>
<text text-anchor="start" x="1377.5" y="-24" font-family="Helvetica,sans-Serif" font-size="10.00">/JODA&#45;gh/libs/joda/core</text>
<text text-anchor="middle" x="1435" y="-13" font-family="Helvetica,sans-Serif" font-size="10.00">/modules/cli/src/CLI.cpp</text>
</a>
</g>
</g>
<!-- Node10&#45;&gt;Node11 -->
<g id="edge10" class="edge">
<title>Node10&#45;&gt;Node11</title>
<path fill="none" stroke="midnightblue" d="M1379.06,-82.18C1391.12,-70.39 1404.38,-57.43 1414.97,-47.08"/>
<polygon fill="midnightblue" stroke="midnightblue" points="1376.45,-79.84 1371.74,-89.34 1381.34,-84.85 1376.45,-79.84"/>
</g>
<!-- Node12 -->
<g id="node12" class="node">
<title>Node12</title>
<g id="a_node12"><a xlink:href="../../da/d36/CLICompletion_8cpp.html" target="_top" xlink:title=" ">
<polygon fill="white" stroke="black" points="1163,-6 1163,-47 1351,-47 1351,-6 1163,-6"/>
<text text-anchor="start" x="1171" y="-35" font-family="Helvetica,sans-Serif" font-size="10.00">/home/nico/projects</text>
<text text-anchor="start" x="1171" y="-24" font-family="Helvetica,sans-Serif" font-size="10.00">/JODA&#45;gh/libs/joda/core</text>
<text text-anchor="middle" x="1257" y="-13" font-family="Helvetica,sans-Serif" font-size="10.00">/modules/cli/src/CLICompletion.cpp</text>
</a>
</g>
</g>
<!-- Node10&#45;&gt;Node12 -->
<g id="edge11" class="edge">
<title>Node10&#45;&gt;Node12</title>
<path fill="none" stroke="midnightblue" d="M1312.94,-82.18C1300.88,-70.39 1287.62,-57.43 1277.03,-47.08"/>
<polygon fill="midnightblue" stroke="midnightblue" points="1310.66,-84.85 1320.26,-89.34 1315.55,-79.84 1310.66,-84.85"/>
</g>
<!-- Node15&#45;&gt;Node8 -->
<g id="edge15" class="edge">
<title>Node15&#45;&gt;Node8</title>
<path fill="none" stroke="midnightblue" d="M717.08,-277.69C777.04,-260.03 835.28,-243.15 878.98,-230.55"/>
<polygon fill="midnightblue" stroke="midnightblue" points="716.05,-274.34 707.45,-280.53 718.03,-281.06 716.05,-274.34"/>
</g>
<!-- Node16&#45;&gt;Node8 -->
<g id="edge17" class="edge">
<title>Node16&#45;&gt;Node8</title>
<path fill="none" stroke="midnightblue" d="M849.05,-273.06C871,-259.15 896.37,-243.08 915.79,-230.78"/>
<polygon fill="midnightblue" stroke="midnightblue" points="847.08,-270.16 840.51,-278.47 850.83,-276.07 847.08,-270.16"/>
</g>
<!-- Node17&#45;&gt;Node8 -->
<g id="edge19" class="edge">
<title>Node17&#45;&gt;Node8</title>
<path fill="none" stroke="midnightblue" d="M961.87,-268.33C958.56,-255.57 954.94,-241.62 952.1,-230.67"/>
<polygon fill="midnightblue" stroke="midnightblue" points="958.54,-269.42 964.44,-278.22 965.32,-267.67 958.54,-269.42"/>
</g>
<!-- Node18&#45;&gt;Node8 -->
<g id="edge21" class="edge">
<title>Node18&#45;&gt;Node8</title>
<path fill="none" stroke="midnightblue" d="M547.35,-277.79C654.5,-253.29 767.55,-235.42 846.61,-224.2"/>
<polygon fill="midnightblue" stroke="midnightblue" points="546.29,-274.44 537.33,-280.11 547.87,-281.26 546.29,-274.44"/>
</g>
<!-- Node19 -->
<g id="node19" class="node">
<title>Node19</title>
<g id="a_node19"><a xlink:href="../../df/d40/BeautifulJSONFileReader_8cpp.html" target="_top" xlink:title=" ">
<polygon fill="white" stroke="black" points="395.5,-184 395.5,-236 554.5,-236 554.5,-184 395.5,-184"/>
<text text-anchor="start" x="403.5" y="-224" font-family="Helvetica,sans-Serif" font-size="10.00">/home/nico/projects</text>
<text text-anchor="start" x="403.5" y="-213" font-family="Helvetica,sans-Serif" font-size="10.00">/JODA&#45;gh/libs/joda/core</text>
<text text-anchor="start" x="403.5" y="-202" font-family="Helvetica,sans-Serif" font-size="10.00">/modules/parser/src/readers</text>
<text text-anchor="middle" x="475" y="-191" font-family="Helvetica,sans-Serif" font-size="10.00">/BeautifulJSONFileReader.cpp</text>
</a>
</g>
</g>
<!-- Node18&#45;&gt;Node19 -->
<g id="edge22" class="edge">
<title>Node18&#45;&gt;Node19</title>
<path fill="none" stroke="midnightblue" d="M466.32,-268.32C467.94,-257.65 469.68,-246.13 471.18,-236.25"/>
<polygon fill="midnightblue" stroke="midnightblue" points="462.86,-267.81 464.83,-278.22 469.78,-268.86 462.86,-267.81"/>
</g>
<!-- Node20&#45;&gt;Node8 -->
<g id="edge24" class="edge">
<title>Node20&#45;&gt;Node8</title>
<path fill="none" stroke="midnightblue" d="M1079.44,-274.15C1049.64,-259.94 1014.68,-243.27 988.16,-230.63"/>
<polygon fill="midnightblue" stroke="midnightblue" points="1077.97,-277.32 1088.5,-278.47 1080.98,-271 1077.97,-277.32"/>
</g>
<!-- Node21 -->
<g id="node21" class="node">
<title>Node21</title>
<g id="a_node21"><a xlink:href="../../d5/d45/JSONFileReader_8cpp.html" target="_top" xlink:title=" ">
<polygon fill="white" stroke="black" points="1065,-184 1065,-236 1217,-236 1217,-184 1065,-184"/>
<text text-anchor="start" x="1073" y="-224" font-family="Helvetica,sans-Serif" font-size="10.00">/home/nico/projects</text>
<text text-anchor="start" x="1073" y="-213" font-family="Helvetica,sans-Serif" font-size="10.00">/JODA&#45;gh/libs/joda/core</text>
<text text-anchor="start" x="1073" y="-202" font-family="Helvetica,sans-Serif" font-size="10.00">/modules/parser/src/readers</text>
<text text-anchor="middle" x="1141" y="-191" font-family="Helvetica,sans-Serif" font-size="10.00">/JSONFileReader.cpp</text>
</a>
</g>
</g>
<!-- Node20&#45;&gt;Node21 -->
<g id="edge25" class="edge">
<title>Node20&#45;&gt;Node21</title>
<path fill="none" stroke="midnightblue" d="M1141,-267.99C1141,-257.41 1141,-246.03 1141,-236.25"/>
<polygon fill="midnightblue" stroke="midnightblue" points="1137.5,-268.22 1141,-278.22 1144.5,-268.22 1137.5,-268.22"/>
</g>
<!-- Node22&#45;&gt;Node8 -->
<g id="edge27" class="edge">
<title>Node22&#45;&gt;Node8</title>
<path fill="none" stroke="midnightblue" d="M1224.67,-277.75C1149.42,-258.99 1127.89,-259.81 1056,-242 1042.06,-238.55 1027.21,-234.54 1013.09,-230.58"/>
<polygon fill="midnightblue" stroke="midnightblue" points="1224.07,-281.21 1234.63,-280.26 1225.79,-274.42 1224.07,-281.21"/>
</g>
<!-- Node23 -->
<g id="node23" class="node">
<title>Node23</title>
<g id="a_node23"><a xlink:href="../../d9/d70/JSONURLReader_8cpp.html" target="_top" xlink:title=" ">
<polygon fill="white" stroke="black" points="1235,-184 1235,-236 1387,-236 1387,-184 1235,-184"/>
<text text-anchor="start" x="1243" y="-224" font-family="Helvetica,sans-Serif" font-size="10.00">/home/nico/projects</text>
<text text-anchor="start" x="1243" y="-213" font-family="Helvetica,sans-Serif" font-size="10.00">/JODA&#45;gh/libs/joda/core</text>
<text text-anchor="start" x="1243" y="-202" font-family="Helvetica,sans-Serif" font-size="10.00">/modules/parser/src/readers</text>
<text text-anchor="middle" x="1311" y="-191" font-family="Helvetica,sans-Serif" font-size="10.00">/JSONURLReader.cpp</text>
</a>
</g>
</g>
<!-- Node22&#45;&gt;Node23 -->
<g id="edge28" class="edge">
<title>Node22&#45;&gt;Node23</title>
<path fill="none" stroke="midnightblue" d="M1311,-267.99C1311,-257.41 1311,-246.03 1311,-236.25"/>
<polygon fill="midnightblue" stroke="midnightblue" points="1307.5,-268.22 1311,-278.22 1314.5,-268.22 1307.5,-268.22"/>
</g>
<!-- Node24&#45;&gt;Node14 -->
<g id="edge30" class="edge">
<title>Node24&#45;&gt;Node14</title>
<path fill="none" stroke="midnightblue" d="M1705.38,-272.03C1715.33,-263.62 1724.34,-253.58 1730,-242 1745.62,-210.04 1738.51,-167.9 1731.28,-141.5"/>
<polygon fill="midnightblue" stroke="midnightblue" points="1702.94,-269.49 1697.25,-278.42 1707.27,-274.99 1702.94,-269.49"/>
</g>
<!-- Node25 -->
<g id="node25" class="node">
<title>Node25</title>
<g id="a_node25"><a xlink:href="../../da/d11/QueryThread_8cpp.html" target="_top" xlink:title=" ">
<polygon fill="white" stroke="black" points="1581,-184 1581,-236 1721,-236 1721,-184 1581,-184"/>
<text text-anchor="start" x="1589" y="-224" font-family="Helvetica,sans-Serif" font-size="10.00">/home/nico/projects</text>
<text text-anchor="start" x="1589" y="-213" font-family="Helvetica,sans-Serif" font-size="10.00">/JODA&#45;gh/libs/joda/core</text>
<text text-anchor="start" x="1589" y="-202" font-family="Helvetica,sans-Serif" font-size="10.00">/modules/queryexecution</text>
<text text-anchor="middle" x="1651" y="-191" font-family="Helvetica,sans-Serif" font-size="10.00">/src/QueryThread.cpp</text>
</a>
</g>
</g>
<!-- Node24&#45;&gt;Node25 -->
<g id="edge31" class="edge">
<title>Node24&#45;&gt;Node25</title>
<path fill="none" stroke="midnightblue" d="M1651,-267.99C1651,-257.41 1651,-246.03 1651,-236.25"/>
<polygon fill="midnightblue" stroke="midnightblue" points="1647.5,-268.22 1651,-278.22 1654.5,-268.22 1647.5,-268.22"/>
</g>
</g>
</svg>
        <g id="navigator" transform="translate(0 0)" fill="#404254">
                <rect fill="#f2f5e9" fill-opacity="0.5" stroke="#606060" stroke-width=".5" x="0" y="0" width="60" height="60"/>
                <use id="zoomplus" xlink:href="#zoomPlus" x="17" y="9" onmousedown="handleZoom(evt,'in')"/>
                <use id="zoomminus" xlink:href="#zoomMin" x="42" y="9" onmousedown="handleZoom(evt,'out')"/>
                <use id="reset" xlink:href="#resetDef" x="30" y="36" onmousedown="handleReset()"/>
                <g id="arrowUp" xlink:href="#dirArrow" transform="translate(30 24)" onmousedown="handlePan(0,-1)">
                  <use xlink:href="#rim" fill="#404040">
                        <set attributeName="fill" to="#808080" begin="arrowUp.mouseover" end="arrowUp.mouseout"/>
                  </use>
                  <path fill="none" stroke="white" stroke-width="1.5" d="M0,-3.0v7 M-2.5,-0.5L0,-3.0L2.5,-0.5"/>
                </g>
                <g id="arrowRight" xlink:href="#dirArrow" transform="rotate(90) translate(36 -43)" onmousedown="handlePan(1,0)">
                  <use xlink:href="#rim" fill="#404040">
                        <set attributeName="fill" to="#808080" begin="arrowRight.mouseover" end="arrowRight.mouseout"/>
                  </use>
                  <path fill="none" stroke="white" stroke-width="1.5" d="M0,-3.0v7 M-2.5,-0.5L0,-3.0L2.5,-0.5"/>
                </g>
                <g id="arrowDown" xlink:href="#dirArrow" transform="rotate(180) translate(-30 -48)" onmousedown="handlePan(0,1)">
                  <use xlink:href="#rim" fill="#404040">
                        <set attributeName="fill" to="#808080" begin="arrowDown.mouseover" end="arrowDown.mouseout"/>
                  </use>
                  <path fill="none" stroke="white" stroke-width="1.5" d="M0,-3.0v7 M-2.5,-0.5L0,-3.0L2.5,-0.5"/>
                </g>
                <g id="arrowLeft" xlink:href="#dirArrow" transform="rotate(270) translate(-36 17)" onmousedown="handlePan(-1,0)">
                  <use xlink:href="#rim" fill="#404040">
                        <set attributeName="fill" to="#808080" begin="arrowLeft.mouseover" end="arrowLeft.mouseout"/>
                  </use>
                  <path fill="none" stroke="white" stroke-width="1.5" d="M0,-3.0v7 M-2.5,-0.5L0,-3.0L2.5,-0.5"/>
                </g>
        </g>
        <svg viewBox="0 0 15 15" width="100%" height="30px" preserveAspectRatio="xMaxYMin meet">
         <g id="arrow_out" transform="scale(0.3 0.3)">
          <a xlink:href="IOThreadPool_8h__dep__incl_org.svg" target="_base">
           <rect id="button" ry="5" rx="5" y="6" x="6" height="38" width="38"
                fill="#f2f5e9" fill-opacity="0.5" stroke="#606060" stroke-width="1.0"/>
           <path id="arrow"
             d="M 11.500037,31.436501 C 11.940474,20.09759 22.043105,11.32322 32.158766,21.979434 L 37.068811,17.246167 C 37.068811,17.246167 37.088388,32 37.088388,32 L 22.160133,31.978069 C 22.160133,31.978069 26.997745,27.140456 26.997745,27.140456 C 18.528582,18.264221 13.291696,25.230495 11.500037,31.436501 z"
             style="fill:#404040;"/>
          </a>
         </g>
        </svg>
</svg>
