<?xml version="1.0" encoding="UTF-8" standalone="no"?>
<!DOCTYPE svg PUBLIC "-//W3C//DTD SVG 1.1//EN"
 "http://www.w3.org/Graphics/SVG/1.1/DTD/svg11.dtd">
<!-- Generated by graphviz version 2.43.0 (0)
 -->
<!-- Title: joda::docparsing::JSONURLReader Pages: 1 -->
<svg width="249pt" height="207pt"
 viewBox="0.00 0.00 249.00 207.00" xmlns="http://www.w3.org/2000/svg" xmlns:xlink="http://www.w3.org/1999/xlink">
<g id="graph0" class="graph" transform="scale(1 1) rotate(0) translate(4 203)">
<title>joda::docparsing::JSONURLReader</title>
<polygon fill="white" stroke="transparent" points="-4,4 -4,-203 245,-203 245,4 -4,4"/>
<!-- Node1 -->
<g id="node1" class="node">
<title>Node1</title>
<g id="a_node1"><a xlink:title=" ">
<polygon fill="#bfbfbf" stroke="black" points="6.5,-0.5 6.5,-19.5 187.5,-19.5 187.5,-0.5 6.5,-0.5"/>
<text text-anchor="middle" x="97" y="-7.5" font-family="Helvetica,sans-Serif" font-size="10.00">joda::docparsing::JSONURLReader</text>
</a>
</g>
</g>
<!-- Node2 -->
<g id="node2" class="node">
<title>Node2</title>
<g id="a_node2"><a xlink:href="../../db/de4/classIWorkerThread.html" target="_top" xlink:title=" ">
<polygon fill="white" stroke="black" points="0,-57.5 0,-98.5 194,-98.5 194,-57.5 0,-57.5"/>
<text text-anchor="start" x="8" y="-86.5" font-family="Helvetica,sans-Serif" font-size="10.00">IWorkerThread&lt; JsonURLReader</text>
<text text-anchor="start" x="8" y="-75.5" font-family="Helvetica,sans-Serif" font-size="10.00">Queue, JsonTextStreamParserQueue,</text>
<text text-anchor="middle" x="97" y="-64.5" font-family="Helvetica,sans-Serif" font-size="10.00"> void * &gt;</text>
</a>
</g>
</g>
<!-- Node2&#45;&gt;Node1 -->
<g id="edge1" class="edge">
<title>Node2&#45;&gt;Node1</title>
<path fill="none" stroke="midnightblue" d="M97,-47.12C97,-37.17 97,-26.84 97,-19.79"/>
<polygon fill="midnightblue" stroke="midnightblue" points="93.5,-47.2 97,-57.2 100.5,-47.2 93.5,-47.2"/>
</g>
<!-- Node3 -->
<g id="node3" class="node">
<title>Node3</title>
<g id="a_node3"><a xlink:href="../../db/de4/classIWorkerThread.html" target="_top" xlink:title=" ">
<polygon fill="white" stroke="black" points="15,-168.5 15,-198.5 179,-198.5 179,-168.5 15,-168.5"/>
<text text-anchor="start" x="23" y="-186.5" font-family="Helvetica,sans-Serif" font-size="10.00">IWorkerThread&lt; IQueueStruct,</text>
<text text-anchor="middle" x="97" y="-175.5" font-family="Helvetica,sans-Serif" font-size="10.00"> OQueueStruct, WConfig &gt;</text>
</a>
</g>
</g>
<!-- Node3&#45;&gt;Node2 -->
<g id="edge2" class="edge">
<title>Node3&#45;&gt;Node2</title>
<path fill="none" stroke="orange" stroke-dasharray="5,2" d="M97,-157.99C97,-139.84 97,-115.42 97,-98.57"/>
<polygon fill="orange" stroke="orange" points="93.5,-158.11 97,-168.11 100.5,-158.11 93.5,-158.11"/>
<text text-anchor="start" x="97" y="-142" font-family="Helvetica,sans-Serif" font-size="10.00"> &lt; JsonURLReaderQueue,</text>
<text text-anchor="start" x="97" y="-131" font-family="Helvetica,sans-Serif" font-size="10.00"> JsonTextStreamParserQueue,</text>
<text text-anchor="middle" x="169" y="-120" font-family="Helvetica,sans-Serif" font-size="10.00"> void * &gt;</text>
</g>
</g>
</svg>
