<?xml version="1.0" encoding="UTF-8" standalone="no"?>
<!DOCTYPE svg PUBLIC "-//W3C//DTD SVG 1.1//EN"
 "http://www.w3.org/Graphics/SVG/1.1/DTD/svg11.dtd">
<!-- Generated by graphviz version 2.43.0 (0)
 -->
<!-- Title: /home/nico/projects/tmp&#45;joda&#45;dirs/JODA&#45;gh/libs/joda/core/modules/query/predicate/src/EqualizePredicate.cpp Pages: 1 -->
<svg width="1528pt" height="631pt"
 viewBox="0.00 0.00 1527.85 631.00" xmlns="http://www.w3.org/2000/svg" xmlns:xlink="http://www.w3.org/1999/xlink">
<g id="graph0" class="graph" transform="scale(1 1) rotate(0) translate(4 627)">
<title>/home/nico/projects/tmp&#45;joda&#45;dirs/JODA&#45;gh/libs/joda/core/modules/query/predicate/src/EqualizePredicate.cpp</title>
<polygon fill="white" stroke="transparent" points="-4,4 -4,-627 1523.85,-627 1523.85,4 -4,4"/>
<!-- Node1 -->
<g id="node1" class="node">
<title>Node1</title>
<g id="a_node1"><a xlink:title=" ">
<polygon fill="#bfbfbf" stroke="black" points="1058.35,-570.5 1058.35,-622.5 1282.35,-622.5 1282.35,-570.5 1058.35,-570.5"/>
<text text-anchor="start" x="1066.35" y="-610.5" font-family="Helvetica,sans-Serif" font-size="10.00">/home/nico/projects</text>
<text text-anchor="start" x="1066.35" y="-599.5" font-family="Helvetica,sans-Serif" font-size="10.00">/tmp&#45;joda&#45;dirs/JODA</text>
<text text-anchor="start" x="1066.35" y="-588.5" font-family="Helvetica,sans-Serif" font-size="10.00">&#45;gh/libs/joda/core/modules</text>
<text text-anchor="middle" x="1170.35" y="-577.5" font-family="Helvetica,sans-Serif" font-size="10.00">/query/predicate/src/EqualizePredicate.cpp</text>
</a>
</g>
</g>
<!-- Node2 -->
<g id="node2" class="node">
<title>Node2</title>
<g id="a_node2"><a xlink:href="../../df/d19/EqualizePredicate_8h.html" target="_top" xlink:title=" ">
<polygon fill="white" stroke="black" points="864.35,-503.5 864.35,-533.5 1028.35,-533.5 1028.35,-503.5 864.35,-503.5"/>
<text text-anchor="start" x="872.35" y="-521.5" font-family="Helvetica,sans-Serif" font-size="10.00">../include/joda/query</text>
<text text-anchor="middle" x="946.35" y="-510.5" font-family="Helvetica,sans-Serif" font-size="10.00">/predicate/EqualizePredicate.h</text>
</a>
</g>
</g>
<!-- Node1&#45;&gt;Node2 -->
<g id="edge1" class="edge">
<title>Node1&#45;&gt;Node2</title>
<path fill="none" stroke="midnightblue" d="M1096.38,-570.4C1063.98,-559.41 1026.76,-546.78 997.5,-536.85"/>
<polygon fill="midnightblue" stroke="midnightblue" points="998.49,-533.5 987.9,-533.6 996.25,-540.12 998.49,-533.5"/>
</g>
<!-- Node38 -->
<g id="node38" class="node">
<title>Node38</title>
<g id="a_node38"><a xlink:href="../../de/d9e/PointerProvider_8h.html" target="_top" xlink:title=" ">
<polygon fill="white" stroke="black" points="1346.85,-503.5 1346.85,-533.5 1487.85,-533.5 1487.85,-503.5 1346.85,-503.5"/>
<text text-anchor="start" x="1354.85" y="-521.5" font-family="Helvetica,sans-Serif" font-size="10.00">joda/query/values/Pointer</text>
<text text-anchor="middle" x="1417.35" y="-510.5" font-family="Helvetica,sans-Serif" font-size="10.00">Provider.h</text>
</a>
</g>
</g>
<!-- Node1&#45;&gt;Node38 -->
<g id="edge70" class="edge">
<title>Node1&#45;&gt;Node38</title>
<path fill="none" stroke="midnightblue" d="M1251.91,-570.4C1287.95,-559.32 1329.4,-546.56 1361.79,-536.6"/>
<polygon fill="midnightblue" stroke="midnightblue" points="1363.01,-539.88 1371.54,-533.6 1360.95,-533.19 1363.01,-539.88"/>
</g>
<!-- Node3 -->
<g id="node3" class="node">
<title>Node3</title>
<g id="a_node3"><a xlink:href="../../dd/d50/IValueProvider_8h.html" target="_top" xlink:title=" ">
<polygon fill="white" stroke="black" points="873.85,-425.5 873.85,-466.5 1018.85,-466.5 1018.85,-425.5 873.85,-425.5"/>
<text text-anchor="start" x="881.85" y="-454.5" font-family="Helvetica,sans-Serif" font-size="10.00">../../../../../values</text>
<text text-anchor="start" x="881.85" y="-443.5" font-family="Helvetica,sans-Serif" font-size="10.00">/include/joda/query/values</text>
<text text-anchor="middle" x="946.35" y="-432.5" font-family="Helvetica,sans-Serif" font-size="10.00">/IValueProvider.h</text>
</a>
</g>
</g>
<!-- Node2&#45;&gt;Node3 -->
<g id="edge2" class="edge">
<title>Node2&#45;&gt;Node3</title>
<path fill="none" stroke="midnightblue" d="M946.35,-503.23C946.35,-495.57 946.35,-485.84 946.35,-476.63"/>
<polygon fill="midnightblue" stroke="midnightblue" points="949.85,-476.59 946.35,-466.59 942.85,-476.59 949.85,-476.59"/>
</g>
<!-- Node35 -->
<g id="node35" class="node">
<title>Node35</title>
<g id="a_node35"><a xlink:href="../../db/d52/Predicate_8h.html" target="_top" xlink:title=" ">
<polygon fill="white" stroke="black" points="406.85,-436.5 406.85,-455.5 477.85,-455.5 477.85,-436.5 406.85,-436.5"/>
<text text-anchor="middle" x="442.35" y="-443.5" font-family="Helvetica,sans-Serif" font-size="10.00">Predicate.h</text>
</a>
</g>
</g>
<!-- Node2&#45;&gt;Node35 -->
<g id="edge64" class="edge">
<title>Node2&#45;&gt;Node35</title>
<path fill="none" stroke="midnightblue" d="M864.25,-506.02C757.15,-491.03 573.39,-465.33 488.2,-453.41"/>
<polygon fill="midnightblue" stroke="midnightblue" points="488.46,-449.92 478.07,-452 487.49,-456.85 488.46,-449.92"/>
</g>
<!-- Node4 -->
<g id="node4" class="node">
<title>Node4</title>
<g id="a_node4"><a xlink:title=" ">
<polygon fill="white" stroke="#bfbfbf" points="326.35,-0.5 326.35,-19.5 412.35,-19.5 412.35,-0.5 326.35,-0.5"/>
<text text-anchor="middle" x="369.35" y="-7.5" font-family="Helvetica,sans-Serif" font-size="10.00">glog/logging.h</text>
</a>
</g>
</g>
<!-- Node3&#45;&gt;Node4 -->
<g id="edge3" class="edge">
<title>Node3&#45;&gt;Node4</title>
<path fill="none" stroke="midnightblue" d="M873.65,-442.78C742.04,-437.95 469.85,-423.95 382.35,-389 344.7,-373.96 328.16,-369.42 310.35,-333 258.03,-226.03 330.88,-78.45 359.05,-28.4"/>
<polygon fill="midnightblue" stroke="midnightblue" points="362.09,-30.15 364.04,-19.73 356.02,-26.66 362.09,-30.15"/>
</g>
<!-- Node5 -->
<g id="node5" class="node">
<title>Node5</title>
<g id="a_node5"><a xlink:title=" ">
<polygon fill="white" stroke="#bfbfbf" points="1163.35,-0.5 1163.35,-19.5 1285.35,-19.5 1285.35,-0.5 1163.35,-0.5"/>
<text text-anchor="middle" x="1224.35" y="-7.5" font-family="Helvetica,sans-Serif" font-size="10.00">rapidjson/document.h</text>
</a>
</g>
</g>
<!-- Node3&#45;&gt;Node5 -->
<g id="edge4" class="edge">
<title>Node3&#45;&gt;Node5</title>
<path fill="none" stroke="midnightblue" d="M1019.31,-444.95C1142.72,-440.62 1379.35,-412.1 1379.35,-257 1379.35,-257 1379.35,-257 1379.35,-188 1379.35,-110.37 1293.92,-50.45 1249.91,-24.73"/>
<polygon fill="midnightblue" stroke="midnightblue" points="1251.36,-21.53 1240.94,-19.63 1247.9,-27.61 1251.36,-21.53"/>
</g>
<!-- Node6 -->
<g id="node6" class="node">
<title>Node6</title>
<g id="a_node6"><a xlink:title=" ">
<polygon fill="white" stroke="#bfbfbf" points="1428.85,-0.5 1428.85,-19.5 1519.85,-19.5 1519.85,-0.5 1428.85,-0.5"/>
<text text-anchor="middle" x="1474.35" y="-7.5" font-family="Helvetica,sans-Serif" font-size="10.00">rapidjson/fwd.h</text>
</a>
</g>
</g>
<!-- Node3&#45;&gt;Node6 -->
<g id="edge5" class="edge">
<title>Node3&#45;&gt;Node6</title>
<path fill="none" stroke="midnightblue" d="M1019.23,-439.08C1111.89,-430.69 1266.01,-413.56 1317.35,-389 1456.43,-322.46 1472.54,-97.18 1474.21,-30.04"/>
<polygon fill="midnightblue" stroke="midnightblue" points="1477.72,-29.78 1474.38,-19.72 1470.72,-29.66 1477.72,-29.78"/>
</g>
<!-- Node7 -->
<g id="node7" class="node">
<title>Node7</title>
<g id="a_node7"><a xlink:title=" ">
<polygon fill="white" stroke="#bfbfbf" points="922.85,-369.5 922.85,-388.5 969.85,-388.5 969.85,-369.5 922.85,-369.5"/>
<text text-anchor="middle" x="946.35" y="-376.5" font-family="Helvetica,sans-Serif" font-size="10.00">cmath</text>
</a>
</g>
</g>
<!-- Node3&#45;&gt;Node7 -->
<g id="edge6" class="edge">
<title>Node3&#45;&gt;Node7</title>
<path fill="none" stroke="midnightblue" d="M946.35,-425.5C946.35,-417.07 946.35,-407.24 946.35,-398.87"/>
<polygon fill="midnightblue" stroke="midnightblue" points="949.85,-398.65 946.35,-388.65 942.85,-398.65 949.85,-398.65"/>
</g>
<!-- Node8 -->
<g id="node8" class="node">
<title>Node8</title>
<g id="a_node8"><a xlink:title=" ">
<polygon fill="white" stroke="#bfbfbf" points="987.85,-369.5 987.85,-388.5 1112.85,-388.5 1112.85,-369.5 987.85,-369.5"/>
<text text-anchor="middle" x="1050.35" y="-376.5" font-family="Helvetica,sans-Serif" font-size="10.00">experimental/optional</text>
</a>
</g>
</g>
<!-- Node3&#45;&gt;Node8 -->
<g id="edge7" class="edge">
<title>Node3&#45;&gt;Node8</title>
<path fill="none" stroke="midnightblue" d="M977.55,-425.5C993.65,-415.44 1012.93,-403.38 1027.61,-394.21"/>
<polygon fill="midnightblue" stroke="midnightblue" points="1029.88,-396.92 1036.51,-388.65 1026.17,-390.98 1029.88,-396.92"/>
</g>
<!-- Node9 -->
<g id="node9" class="node">
<title>Node9</title>
<g id="a_node9"><a xlink:title=" ">
<polygon fill="white" stroke="#bfbfbf" points="75.35,-112.5 75.35,-131.5 133.35,-131.5 133.35,-112.5 75.35,-112.5"/>
<text text-anchor="middle" x="104.35" y="-119.5" font-family="Helvetica,sans-Serif" font-size="10.00">memory</text>
</a>
</g>
</g>
<!-- Node3&#45;&gt;Node9 -->
<g id="edge8" class="edge">
<title>Node3&#45;&gt;Node9</title>
<path fill="none" stroke="midnightblue" d="M873.6,-441.24C708.62,-432.41 315.99,-409.53 259.35,-389 208.23,-370.47 159.35,-372.88 159.35,-318.5 159.35,-318.5 159.35,-318.5 159.35,-255 159.35,-210.95 132.93,-164.54 116.71,-140.22"/>
<polygon fill="midnightblue" stroke="midnightblue" points="119.43,-138 110.88,-131.75 113.67,-141.97 119.43,-138"/>
</g>
<!-- Node10 -->
<g id="node10" class="node">
<title>Node10</title>
<g id="a_node10"><a xlink:title=" ">
<polygon fill="white" stroke="#bfbfbf" points="564.35,-56.5 564.35,-75.5 608.35,-75.5 608.35,-56.5 564.35,-56.5"/>
<text text-anchor="middle" x="586.35" y="-63.5" font-family="Helvetica,sans-Serif" font-size="10.00">string</text>
</a>
</g>
</g>
<!-- Node3&#45;&gt;Node10 -->
<g id="edge9" class="edge">
<title>Node3&#45;&gt;Node10</title>
<path fill="none" stroke="midnightblue" d="M873.64,-442.97C725.92,-437.16 398.87,-415.1 330.35,-333 244.04,-229.58 472.01,-116.68 556.39,-79.58"/>
<polygon fill="midnightblue" stroke="midnightblue" points="557.92,-82.72 565.7,-75.53 555.14,-76.3 557.92,-82.72"/>
</g>
<!-- Node11 -->
<g id="node11" class="node">
<title>Node11</title>
<g id="a_node11"><a xlink:href="../../d1/dfd/RapidJsonDocument_8h.html" target="_top" xlink:title=" ">
<polygon fill="white" stroke="black" points="704.35,-369.5 704.35,-388.5 904.35,-388.5 904.35,-369.5 704.35,-369.5"/>
<text text-anchor="middle" x="804.35" y="-376.5" font-family="Helvetica,sans-Serif" font-size="10.00">joda/document/RapidJsonDocument.h</text>
</a>
</g>
</g>
<!-- Node3&#45;&gt;Node11 -->
<g id="edge10" class="edge">
<title>Node3&#45;&gt;Node11</title>
<path fill="none" stroke="midnightblue" d="M903.75,-425.5C880.72,-414.96 852.92,-402.23 832.58,-392.92"/>
<polygon fill="midnightblue" stroke="midnightblue" points="833.8,-389.63 823.25,-388.65 830.89,-396 833.8,-389.63"/>
</g>
<!-- Node11&#45;&gt;Node6 -->
<g id="edge49" class="edge">
<title>Node11&#45;&gt;Node6</title>
<path fill="none" stroke="midnightblue" d="M897.23,-369.49C1018.92,-358.16 1218.8,-338.87 1234.35,-333 1288.92,-312.4 1341.35,-315.33 1341.35,-257 1341.35,-257 1341.35,-257 1341.35,-188 1341.35,-114.7 1415.16,-52.38 1452.81,-25.36"/>
<polygon fill="midnightblue" stroke="midnightblue" points="1454.92,-28.16 1461.11,-19.56 1450.91,-22.42 1454.92,-28.16"/>
</g>
<!-- Node11&#45;&gt;Node9 -->
<g id="edge51" class="edge">
<title>Node11&#45;&gt;Node9</title>
<path fill="none" stroke="midnightblue" d="M704.33,-374.17C634.15,-369.28 538.86,-358.18 458.35,-333 429.7,-324.04 425.84,-314.04 398.35,-302 355.47,-283.22 341.07,-287.25 299.35,-266 259.7,-245.8 250.85,-238.11 216.35,-210 195.64,-193.13 194.19,-184.71 173.35,-168 159.03,-156.52 141.72,-145.23 128.02,-136.84"/>
<polygon fill="midnightblue" stroke="midnightblue" points="129.56,-133.68 119.19,-131.52 125.95,-139.68 129.56,-133.68"/>
</g>
<!-- Node12 -->
<g id="node12" class="node">
<title>Node12</title>
<g id="a_node12"><a xlink:href="../../d2/d0d/ViewLayer_8h.html" target="_top" xlink:title=" ">
<polygon fill="white" stroke="black" points="746.35,-302.5 746.35,-332.5 862.35,-332.5 862.35,-302.5 746.35,-302.5"/>
<text text-anchor="start" x="754.35" y="-320.5" font-family="Helvetica,sans-Serif" font-size="10.00">joda/document/view</text>
<text text-anchor="middle" x="804.35" y="-309.5" font-family="Helvetica,sans-Serif" font-size="10.00">/ViewLayer.h</text>
</a>
</g>
</g>
<!-- Node11&#45;&gt;Node12 -->
<g id="edge11" class="edge">
<title>Node11&#45;&gt;Node12</title>
<path fill="none" stroke="midnightblue" d="M804.35,-369.48C804.35,-362.47 804.35,-352.19 804.35,-342.7"/>
<polygon fill="midnightblue" stroke="midnightblue" points="807.85,-342.52 804.35,-332.52 800.85,-342.52 807.85,-342.52"/>
</g>
<!-- Node15 -->
<g id="node15" class="node">
<title>Node15</title>
<g id="a_node15"><a xlink:href="../../d6/d09/RJFwd_8h.html" target="_top" xlink:title=" ">
<polygon fill="white" stroke="black" points="1031.35,-56.5 1031.35,-75.5 1137.35,-75.5 1137.35,-56.5 1031.35,-56.5"/>
<text text-anchor="middle" x="1084.35" y="-63.5" font-family="Helvetica,sans-Serif" font-size="10.00">joda/misc/RJFwd.h</text>
</a>
</g>
</g>
<!-- Node11&#45;&gt;Node15 -->
<g id="edge63" class="edge">
<title>Node11&#45;&gt;Node15</title>
<path fill="none" stroke="midnightblue" d="M883.48,-369.44C998.06,-355.23 1201.34,-322.59 1245.35,-266 1274.73,-228.23 1360.86,-277.01 1208.35,-112 1192.37,-94.71 1169.24,-84.05 1147.26,-77.49"/>
<polygon fill="midnightblue" stroke="midnightblue" points="1148.18,-74.11 1137.61,-74.83 1146.33,-80.86 1148.18,-74.11"/>
</g>
<!-- Node16 -->
<g id="node16" class="node">
<title>Node16</title>
<g id="a_node16"><a xlink:title=" ">
<polygon fill="white" stroke="#bfbfbf" points="1023.35,-0.5 1023.35,-19.5 1145.35,-19.5 1145.35,-0.5 1023.35,-0.5"/>
<text text-anchor="middle" x="1084.35" y="-7.5" font-family="Helvetica,sans-Serif" font-size="10.00">rapidjson/allocators.h</text>
</a>
</g>
</g>
<!-- Node11&#45;&gt;Node16 -->
<g id="edge48" class="edge">
<title>Node11&#45;&gt;Node16</title>
<path fill="none" stroke="midnightblue" d="M900.85,-369.47C988.25,-361.06 1110.18,-347.39 1156.35,-333 1226.57,-311.11 1303.35,-330.55 1303.35,-257 1303.35,-257 1303.35,-257 1303.35,-121 1303.35,-81.52 1188.27,-41.48 1124.96,-22.43"/>
<polygon fill="midnightblue" stroke="midnightblue" points="1125.85,-19.04 1115.26,-19.56 1123.86,-25.76 1125.85,-19.04"/>
</g>
<!-- Node30 -->
<g id="node30" class="node">
<title>Node30</title>
<g id="a_node30"><a xlink:title=" ">
<polygon fill="white" stroke="#bfbfbf" points="339.35,-308 339.35,-327 389.35,-327 389.35,-308 339.35,-308"/>
<text text-anchor="middle" x="364.35" y="-315" font-family="Helvetica,sans-Serif" font-size="10.00">atomic</text>
</a>
</g>
</g>
<!-- Node11&#45;&gt;Node30 -->
<g id="edge50" class="edge">
<title>Node11&#45;&gt;Node30</title>
<path fill="none" stroke="midnightblue" d="M704.31,-373.56C622.48,-368.31 504.21,-357.03 403.35,-333 400.36,-332.29 397.28,-331.41 394.22,-330.44"/>
<polygon fill="midnightblue" stroke="midnightblue" points="395.3,-327.11 384.7,-327.13 393,-333.72 395.3,-327.11"/>
</g>
<!-- Node31 -->
<g id="node31" class="node">
<title>Node31</title>
<g id="a_node31"><a xlink:href="../../df/d13/FileNameRepo_8h.html" target="_top" xlink:title=" ">
<polygon fill="white" stroke="black" points="967.85,-168.5 967.85,-209.5 1122.85,-209.5 1122.85,-168.5 967.85,-168.5"/>
<text text-anchor="start" x="975.85" y="-197.5" font-family="Helvetica,sans-Serif" font-size="10.00">../../../../../misc</text>
<text text-anchor="start" x="975.85" y="-186.5" font-family="Helvetica,sans-Serif" font-size="10.00">/include/joda/misc/FileName</text>
<text text-anchor="middle" x="1045.35" y="-175.5" font-family="Helvetica,sans-Serif" font-size="10.00">Repo.h</text>
</a>
</g>
</g>
<!-- Node11&#45;&gt;Node31 -->
<g id="edge52" class="edge">
<title>Node11&#45;&gt;Node31</title>
<path fill="none" stroke="midnightblue" d="M822.44,-369.49C856.67,-352.82 932.26,-313.35 985.35,-266 1001.08,-251.97 1015.8,-233.45 1026.72,-218.21"/>
<polygon fill="midnightblue" stroke="midnightblue" points="1029.83,-219.87 1032.69,-209.67 1024.09,-215.86 1029.83,-219.87"/>
</g>
<!-- Node33 -->
<g id="node33" class="node">
<title>Node33</title>
<g id="a_node33"><a xlink:href="../../d5/d6c/IOrigin_8h.html" target="_top" xlink:title=" ">
<polygon fill="white" stroke="black" points="225.35,-179.5 225.35,-198.5 283.35,-198.5 283.35,-179.5 225.35,-179.5"/>
<text text-anchor="middle" x="254.35" y="-186.5" font-family="Helvetica,sans-Serif" font-size="10.00">IOrigin.h</text>
</a>
</g>
</g>
<!-- Node11&#45;&gt;Node33 -->
<g id="edge58" class="edge">
<title>Node11&#45;&gt;Node33</title>
<path fill="none" stroke="midnightblue" d="M762.31,-369.44C653.51,-347.1 368.48,-287.26 330.35,-266 303.71,-251.14 280.09,-224.26 266.51,-206.78"/>
<polygon fill="midnightblue" stroke="midnightblue" points="269.17,-204.49 260.36,-198.6 263.58,-208.7 269.17,-204.49"/>
</g>
<!-- Node12&#45;&gt;Node4 -->
<g id="edge12" class="edge">
<title>Node12&#45;&gt;Node4</title>
<path fill="none" stroke="midnightblue" d="M745.98,-307.55C702.75,-299.74 643,-286.4 593.35,-266 577.49,-259.48 576.12,-252.74 560.35,-246 503.64,-221.78 470.31,-253.24 426.35,-210 375.86,-160.33 369.33,-69.2 368.99,-29.88"/>
<polygon fill="midnightblue" stroke="midnightblue" points="372.5,-29.66 369.05,-19.64 365.5,-29.62 372.5,-29.66"/>
</g>
<!-- Node13 -->
<g id="node13" class="node">
<title>Node13</title>
<g id="a_node13"><a xlink:href="../../db/d16/config_8h.html" target="_top" xlink:title=" ">
<polygon fill="white" stroke="black" points="645.85,-246.5 645.85,-265.5 756.85,-265.5 756.85,-246.5 645.85,-246.5"/>
<text text-anchor="middle" x="701.35" y="-253.5" font-family="Helvetica,sans-Serif" font-size="10.00">joda/config/config.h</text>
</a>
</g>
</g>
<!-- Node12&#45;&gt;Node13 -->
<g id="edge13" class="edge">
<title>Node12&#45;&gt;Node13</title>
<path fill="none" stroke="midnightblue" d="M779.94,-302.4C763.43,-292.86 741.73,-280.32 725.31,-270.84"/>
<polygon fill="midnightblue" stroke="midnightblue" points="726.75,-267.63 716.34,-265.66 723.25,-273.69 726.75,-267.63"/>
</g>
<!-- Node12&#45;&gt;Node15 -->
<g id="edge16" class="edge">
<title>Node12&#45;&gt;Node15</title>
<path fill="none" stroke="midnightblue" d="M862.53,-314.93C923.31,-311.38 1020.23,-300.27 1096.35,-266 1132.68,-249.65 1144.14,-243.07 1166.35,-210 1191.29,-172.86 1213.98,-149.35 1189.35,-112 1178.71,-95.86 1160.96,-85.49 1143.04,-78.83"/>
<polygon fill="midnightblue" stroke="midnightblue" points="1143.72,-75.37 1133.12,-75.5 1141.49,-82 1143.72,-75.37"/>
</g>
<!-- Node19 -->
<g id="node19" class="node">
<title>Node19</title>
<g id="a_node19"><a xlink:title=" ">
<polygon fill="white" stroke="#bfbfbf" points="339.85,-246.5 339.85,-265.5 468.85,-265.5 468.85,-246.5 339.85,-246.5"/>
<text text-anchor="middle" x="404.35" y="-253.5" font-family="Helvetica,sans-Serif" font-size="10.00">rapidjson/stringbuffer.h</text>
</a>
</g>
</g>
<!-- Node12&#45;&gt;Node19 -->
<g id="edge23" class="edge">
<title>Node12&#45;&gt;Node19</title>
<path fill="none" stroke="midnightblue" d="M746.19,-307.85C673.3,-297.01 548.62,-278.46 471.68,-267.01"/>
<polygon fill="midnightblue" stroke="midnightblue" points="472.02,-263.53 461.61,-265.52 470.99,-270.45 472.02,-263.53"/>
</g>
<!-- Node20 -->
<g id="node20" class="node">
<title>Node20</title>
<g id="a_node20"><a xlink:title=" ">
<polygon fill="white" stroke="#bfbfbf" points="487.35,-246.5 487.35,-265.5 551.35,-265.5 551.35,-246.5 487.35,-246.5"/>
<text text-anchor="middle" x="519.35" y="-253.5" font-family="Helvetica,sans-Serif" font-size="10.00">algorithm</text>
</a>
</g>
</g>
<!-- Node12&#45;&gt;Node20 -->
<g id="edge24" class="edge">
<title>Node12&#45;&gt;Node20</title>
<path fill="none" stroke="midnightblue" d="M746.33,-304.39C691.48,-292.94 610.49,-276.03 561.54,-265.81"/>
<polygon fill="midnightblue" stroke="midnightblue" points="562.11,-262.35 551.6,-263.73 560.68,-269.2 562.11,-262.35"/>
</g>
<!-- Node21 -->
<g id="node21" class="node">
<title>Node21</title>
<g id="a_node21"><a xlink:title=" ">
<polygon fill="white" stroke="#bfbfbf" points="1113.35,-112.5 1113.35,-131.5 1161.35,-131.5 1161.35,-112.5 1113.35,-112.5"/>
<text text-anchor="middle" x="1137.35" y="-119.5" font-family="Helvetica,sans-Serif" font-size="10.00">mutex</text>
</a>
</g>
</g>
<!-- Node12&#45;&gt;Node21 -->
<g id="edge25" class="edge">
<title>Node12&#45;&gt;Node21</title>
<path fill="none" stroke="midnightblue" d="M862.54,-316.52C938.49,-313.04 1069.05,-294.25 1131.35,-210 1145.95,-190.26 1144.46,-160.62 1141.41,-141.54"/>
<polygon fill="midnightblue" stroke="midnightblue" points="1144.84,-140.85 1139.54,-131.68 1137.96,-142.16 1144.84,-140.85"/>
</g>
<!-- Node22 -->
<g id="node22" class="node">
<title>Node22</title>
<g id="a_node22"><a xlink:title=" ">
<polygon fill="white" stroke="#bfbfbf" points="896.85,-56.5 896.85,-75.5 989.85,-75.5 989.85,-56.5 896.85,-56.5"/>
<text text-anchor="middle" x="943.35" y="-63.5" font-family="Helvetica,sans-Serif" font-size="10.00">unordered_map</text>
</a>
</g>
</g>
<!-- Node12&#45;&gt;Node22 -->
<g id="edge26" class="edge">
<title>Node12&#45;&gt;Node22</title>
<path fill="none" stroke="midnightblue" d="M862.35,-304.01C898.99,-294.82 941.41,-281.29 952.35,-266 962.67,-251.58 950.68,-132.54 945.5,-85.77"/>
<polygon fill="midnightblue" stroke="midnightblue" points="948.97,-85.32 944.38,-75.77 942.02,-86.1 948.97,-85.32"/>
</g>
<!-- Node23 -->
<g id="node23" class="node">
<title>Node23</title>
<g id="a_node23"><a xlink:title=" ">
<polygon fill="white" stroke="#bfbfbf" points="1185.85,-246.5 1185.85,-265.5 1236.85,-265.5 1236.85,-246.5 1185.85,-246.5"/>
<text text-anchor="middle" x="1211.35" y="-253.5" font-family="Helvetica,sans-Serif" font-size="10.00">variant</text>
</a>
</g>
</g>
<!-- Node12&#45;&gt;Node23 -->
<g id="edge27" class="edge">
<title>Node12&#45;&gt;Node23</title>
<path fill="none" stroke="midnightblue" d="M862.66,-307.98C948.17,-295.47 1105.05,-272.54 1175.47,-262.25"/>
<polygon fill="midnightblue" stroke="midnightblue" points="1176.22,-265.67 1185.61,-260.76 1175.21,-258.75 1176.22,-265.67"/>
</g>
<!-- Node24 -->
<g id="node24" class="node">
<title>Node24</title>
<g id="a_node24"><a xlink:href="../../da/d3b/ObjectIterator_8h.html" target="_top" xlink:title=" ">
<polygon fill="white" stroke="black" points="851.35,-246.5 851.35,-265.5 943.35,-265.5 943.35,-246.5 851.35,-246.5"/>
<text text-anchor="middle" x="897.35" y="-253.5" font-family="Helvetica,sans-Serif" font-size="10.00">ObjectIterator.h</text>
</a>
</g>
</g>
<!-- Node12&#45;&gt;Node24 -->
<g id="edge28" class="edge">
<title>Node12&#45;&gt;Node24</title>
<path fill="none" stroke="midnightblue" d="M826.39,-302.4C841.16,-292.95 860.53,-280.56 875.3,-271.11"/>
<polygon fill="midnightblue" stroke="midnightblue" points="877.28,-274 883.82,-265.66 873.51,-268.1 877.28,-274"/>
</g>
<!-- Node27 -->
<g id="node27" class="node">
<title>Node27</title>
<g id="a_node27"><a xlink:href="../../d5/de2/ViewCursor_8h.html" target="_top" xlink:title=" ">
<polygon fill="white" stroke="black" points="793.35,-179.5 793.35,-198.5 873.35,-198.5 873.35,-179.5 793.35,-179.5"/>
<text text-anchor="middle" x="833.35" y="-186.5" font-family="Helvetica,sans-Serif" font-size="10.00">ViewCursor.h</text>
</a>
</g>
</g>
<!-- Node12&#45;&gt;Node27 -->
<g id="edge41" class="edge">
<title>Node12&#45;&gt;Node27</title>
<path fill="none" stroke="midnightblue" d="M807.56,-302.48C812.81,-279.62 823.2,-234.3 829.06,-208.71"/>
<polygon fill="midnightblue" stroke="midnightblue" points="832.51,-209.32 831.34,-198.79 825.69,-207.75 832.51,-209.32"/>
</g>
<!-- Node28 -->
<g id="node28" class="node">
<title>Node28</title>
<g id="a_node28"><a xlink:href="../../d0/d10/ViewStructure_8h.html" target="_top" xlink:title=" ">
<polygon fill="white" stroke="black" points="679.35,-112.5 679.35,-131.5 773.35,-131.5 773.35,-112.5 679.35,-112.5"/>
<text text-anchor="middle" x="726.35" y="-119.5" font-family="Helvetica,sans-Serif" font-size="10.00">ViewStructure.h</text>
</a>
</g>
</g>
<!-- Node12&#45;&gt;Node28 -->
<g id="edge42" class="edge">
<title>Node12&#45;&gt;Node28</title>
<path fill="none" stroke="midnightblue" d="M799.65,-302.27C793.83,-286.62 782.54,-261.61 765.35,-246 735.59,-218.97 704.41,-243.62 682.35,-210 672.11,-194.39 675.3,-185.29 682.35,-168 687.15,-156.23 696.68,-145.86 705.65,-138.05"/>
<polygon fill="midnightblue" stroke="midnightblue" points="708,-140.64 713.57,-131.63 703.6,-135.2 708,-140.64"/>
</g>
<!-- Node29 -->
<g id="node29" class="node">
<title>Node29</title>
<g id="a_node29"><a xlink:href="../../d8/dee/VirtualObject_8h.html" target="_top" xlink:title=" ">
<polygon fill="white" stroke="black" points="435.85,-179.5 435.85,-198.5 524.85,-198.5 524.85,-179.5 435.85,-179.5"/>
<text text-anchor="middle" x="480.35" y="-186.5" font-family="Helvetica,sans-Serif" font-size="10.00">VirtualObject.h</text>
</a>
</g>
</g>
<!-- Node12&#45;&gt;Node29 -->
<g id="edge43" class="edge">
<title>Node12&#45;&gt;Node29</title>
<path fill="none" stroke="midnightblue" d="M749.5,-302.42C716.3,-293.31 673.37,-280.47 636.35,-266 623.36,-260.92 547.56,-223.43 506.59,-203.07"/>
<polygon fill="midnightblue" stroke="midnightblue" points="507.98,-199.85 497.47,-198.53 504.86,-206.12 507.98,-199.85"/>
</g>
<!-- Node13&#45;&gt;Node10 -->
<g id="edge15" class="edge">
<title>Node13&#45;&gt;Node10</title>
<path fill="none" stroke="midnightblue" d="M661.6,-246.43C627.75,-238.24 582.96,-224.94 572.35,-210 545.59,-172.33 564.89,-114.29 577.6,-85.1"/>
<polygon fill="midnightblue" stroke="midnightblue" points="580.91,-86.28 581.89,-75.74 574.54,-83.37 580.91,-86.28"/>
</g>
<!-- Node14 -->
<g id="node14" class="node">
<title>Node14</title>
<g id="a_node14"><a xlink:title=" ">
<polygon fill="white" stroke="#bfbfbf" points="581.35,-179.5 581.35,-198.5 635.35,-198.5 635.35,-179.5 581.35,-179.5"/>
<text text-anchor="middle" x="608.35" y="-186.5" font-family="Helvetica,sans-Serif" font-size="10.00">istream</text>
</a>
</g>
</g>
<!-- Node13&#45;&gt;Node14 -->
<g id="edge14" class="edge">
<title>Node13&#45;&gt;Node14</title>
<path fill="none" stroke="midnightblue" d="M688.81,-246.23C673.47,-235.51 647.29,-217.22 628.97,-204.41"/>
<polygon fill="midnightblue" stroke="midnightblue" points="630.9,-201.49 620.69,-198.63 626.89,-207.22 630.9,-201.49"/>
</g>
<!-- Node15&#45;&gt;Node4 -->
<g id="edge17" class="edge">
<title>Node15&#45;&gt;Node4</title>
<path fill="none" stroke="midnightblue" d="M1031.16,-59.16C1020.31,-58.04 1008.97,-56.94 998.35,-56 785.2,-37.23 530.89,-20.89 422.5,-14.21"/>
<polygon fill="midnightblue" stroke="midnightblue" points="422.67,-10.72 412.48,-13.6 422.24,-17.7 422.67,-10.72"/>
</g>
<!-- Node15&#45;&gt;Node5 -->
<g id="edge19" class="edge">
<title>Node15&#45;&gt;Node5</title>
<path fill="none" stroke="midnightblue" d="M1106.53,-56.44C1129.78,-47.48 1166.5,-33.31 1192.77,-23.18"/>
<polygon fill="midnightblue" stroke="midnightblue" points="1194.2,-26.38 1202.27,-19.52 1191.68,-19.85 1194.2,-26.38"/>
</g>
<!-- Node15&#45;&gt;Node6 -->
<g id="edge20" class="edge">
<title>Node15&#45;&gt;Node6</title>
<path fill="none" stroke="midnightblue" d="M1137.38,-58.43C1201.59,-50.36 1313.28,-35.94 1418.54,-20.24"/>
<polygon fill="midnightblue" stroke="midnightblue" points="1419.33,-23.66 1428.7,-18.71 1418.29,-16.73 1419.33,-23.66"/>
</g>
<!-- Node15&#45;&gt;Node16 -->
<g id="edge18" class="edge">
<title>Node15&#45;&gt;Node16</title>
<path fill="none" stroke="midnightblue" d="M1084.35,-56.08C1084.35,-49.01 1084.35,-38.86 1084.35,-29.99"/>
<polygon fill="midnightblue" stroke="midnightblue" points="1087.85,-29.75 1084.35,-19.75 1080.85,-29.75 1087.85,-29.75"/>
</g>
<!-- Node17 -->
<g id="node17" class="node">
<title>Node17</title>
<g id="a_node17"><a xlink:title=" ">
<polygon fill="white" stroke="#bfbfbf" points="855.35,-0.5 855.35,-19.5 1005.35,-19.5 1005.35,-0.5 855.35,-0.5"/>
<text text-anchor="middle" x="930.35" y="-7.5" font-family="Helvetica,sans-Serif" font-size="10.00">rapidjson/istreamwrapper.h</text>
</a>
</g>
</g>
<!-- Node15&#45;&gt;Node17 -->
<g id="edge21" class="edge">
<title>Node15&#45;&gt;Node17</title>
<path fill="none" stroke="midnightblue" d="M1059.95,-56.44C1034.15,-47.4 993.27,-33.06 964.33,-22.92"/>
<polygon fill="midnightblue" stroke="midnightblue" points="965.23,-19.52 954.64,-19.52 962.92,-26.13 965.23,-19.52"/>
</g>
<!-- Node18 -->
<g id="node18" class="node">
<title>Node18</title>
<g id="a_node18"><a xlink:title=" ">
<polygon fill="white" stroke="#bfbfbf" points="1303.85,-0.5 1303.85,-19.5 1410.85,-19.5 1410.85,-0.5 1303.85,-0.5"/>
<text text-anchor="middle" x="1357.35" y="-7.5" font-family="Helvetica,sans-Serif" font-size="10.00">rapidjson/pointer.h</text>
</a>
</g>
</g>
<!-- Node15&#45;&gt;Node18 -->
<g id="edge22" class="edge">
<title>Node15&#45;&gt;Node18</title>
<path fill="none" stroke="midnightblue" d="M1127.61,-56.44C1175.53,-46.96 1252.83,-31.67 1304.35,-21.48"/>
<polygon fill="midnightblue" stroke="midnightblue" points="1305.16,-24.89 1314.3,-19.52 1303.81,-18.02 1305.16,-24.89"/>
</g>
<!-- Node24&#45;&gt;Node10 -->
<g id="edge30" class="edge">
<title>Node24&#45;&gt;Node10</title>
<path fill="none" stroke="midnightblue" d="M865.3,-246.41C841.6,-239.11 809.26,-227.07 784.35,-210 763.34,-195.6 765.86,-183.11 745.35,-168 715.58,-146.07 701.81,-151.42 670.35,-132 645.9,-116.91 620.09,-96.1 603.64,-82.13"/>
<polygon fill="midnightblue" stroke="midnightblue" points="605.81,-79.38 595.94,-75.52 601.24,-84.69 605.81,-79.38"/>
</g>
<!-- Node24&#45;&gt;Node15 -->
<g id="edge29" class="edge">
<title>Node24&#45;&gt;Node15</title>
<path fill="none" stroke="midnightblue" d="M943.38,-250.98C1002.9,-244.98 1102.38,-231.96 1131.35,-210 1168.71,-181.68 1194.63,-152.1 1170.35,-112 1160.94,-96.46 1144.2,-86.02 1127.97,-79.15"/>
<polygon fill="midnightblue" stroke="midnightblue" points="1129.12,-75.85 1118.54,-75.51 1126.6,-82.37 1129.12,-75.85"/>
</g>
<!-- Node25 -->
<g id="node25" class="node">
<title>Node25</title>
<g id="a_node25"><a xlink:title=" ">
<polygon fill="white" stroke="#bfbfbf" points="691.85,-179.5 691.85,-198.5 736.85,-198.5 736.85,-179.5 691.85,-179.5"/>
<text text-anchor="middle" x="714.35" y="-186.5" font-family="Helvetica,sans-Serif" font-size="10.00">utility</text>
</a>
</g>
</g>
<!-- Node24&#45;&gt;Node25 -->
<g id="edge31" class="edge">
<title>Node24&#45;&gt;Node25</title>
<path fill="none" stroke="midnightblue" d="M863.05,-246.48C833.03,-238.54 788.53,-225.6 751.35,-210 746.91,-208.14 742.31,-205.91 737.92,-203.63"/>
<polygon fill="midnightblue" stroke="midnightblue" points="739.25,-200.36 728.79,-198.66 735.9,-206.51 739.25,-200.36"/>
</g>
<!-- Node26 -->
<g id="node26" class="node">
<title>Node26</title>
<g id="a_node26"><a xlink:title=" ">
<polygon fill="white" stroke="#bfbfbf" points="829.85,-112.5 829.85,-131.5 876.85,-131.5 876.85,-112.5 829.85,-112.5"/>
<text text-anchor="middle" x="853.35" y="-119.5" font-family="Helvetica,sans-Serif" font-size="10.00">vector</text>
</a>
</g>
</g>
<!-- Node24&#45;&gt;Node26 -->
<g id="edge32" class="edge">
<title>Node24&#45;&gt;Node26</title>
<path fill="none" stroke="midnightblue" d="M897,-246.3C896.1,-230.28 892.98,-195.28 882.35,-168 878.48,-158.06 872.25,-147.98 866.55,-139.9"/>
<polygon fill="midnightblue" stroke="midnightblue" points="869.26,-137.68 860.5,-131.72 863.64,-141.84 869.26,-137.68"/>
</g>
<!-- Node24&#45;&gt;Node27 -->
<g id="edge33" class="edge">
<title>Node24&#45;&gt;Node27</title>
<path fill="none" stroke="midnightblue" d="M888.72,-246.23C878.55,-235.9 861.45,-218.54 848.94,-205.83"/>
<polygon fill="midnightblue" stroke="midnightblue" points="851.36,-203.3 841.85,-198.63 846.37,-208.21 851.36,-203.3"/>
</g>
<!-- Node27&#45;&gt;Node9 -->
<g id="edge35" class="edge">
<title>Node27&#45;&gt;Node9</title>
<path fill="none" stroke="midnightblue" d="M801.4,-179.44C784.8,-175.33 764.11,-170.71 745.35,-168 496.32,-132 430.94,-154.8 180.35,-132 168.38,-130.91 155.37,-129.47 143.56,-128.05"/>
<polygon fill="midnightblue" stroke="midnightblue" points="143.89,-124.57 133.54,-126.83 143.05,-131.52 143.89,-124.57"/>
</g>
<!-- Node27&#45;&gt;Node15 -->
<g id="edge34" class="edge">
<title>Node27&#45;&gt;Node15</title>
<path fill="none" stroke="midnightblue" d="M827.93,-179.33C819.05,-163.89 803.95,-131.44 820.35,-112 833.2,-96.77 947.24,-81.76 1021.17,-73.5"/>
<polygon fill="midnightblue" stroke="midnightblue" points="1021.77,-76.96 1031.32,-72.38 1021,-70 1021.77,-76.96"/>
</g>
<!-- Node27&#45;&gt;Node26 -->
<g id="edge36" class="edge">
<title>Node27&#45;&gt;Node26</title>
<path fill="none" stroke="midnightblue" d="M836.05,-179.23C839.02,-169.59 843.87,-153.8 847.69,-141.41"/>
<polygon fill="midnightblue" stroke="midnightblue" points="851.1,-142.21 850.7,-131.63 844.41,-140.16 851.1,-142.21"/>
</g>
<!-- Node27&#45;&gt;Node28 -->
<g id="edge37" class="edge">
<title>Node27&#45;&gt;Node28</title>
<path fill="none" stroke="midnightblue" d="M818.92,-179.23C801.03,-168.37 770.33,-149.72 749.22,-136.89"/>
<polygon fill="midnightblue" stroke="midnightblue" points="750.92,-133.83 740.55,-131.63 747.28,-139.81 750.92,-133.83"/>
</g>
<!-- Node28&#45;&gt;Node10 -->
<g id="edge39" class="edge">
<title>Node28&#45;&gt;Node10</title>
<path fill="none" stroke="midnightblue" d="M704.17,-112.44C680.92,-103.48 644.2,-89.31 617.94,-79.18"/>
<polygon fill="midnightblue" stroke="midnightblue" points="619.02,-75.85 608.43,-75.52 616.5,-82.38 619.02,-75.85"/>
</g>
<!-- Node28&#45;&gt;Node15 -->
<g id="edge38" class="edge">
<title>Node28&#45;&gt;Node15</title>
<path fill="none" stroke="midnightblue" d="M773.52,-113.88C837.04,-104.3 950.26,-87.23 1021.11,-76.54"/>
<polygon fill="midnightblue" stroke="midnightblue" points="1021.88,-79.96 1031.24,-75.01 1020.83,-73.04 1021.88,-79.96"/>
</g>
<!-- Node28&#45;&gt;Node22 -->
<g id="edge40" class="edge">
<title>Node28&#45;&gt;Node22</title>
<path fill="none" stroke="midnightblue" d="M760.73,-112.44C798.27,-103.1 858.48,-88.12 899.42,-77.93"/>
<polygon fill="midnightblue" stroke="midnightblue" points="900.27,-81.33 909.13,-75.52 898.58,-74.53 900.27,-81.33"/>
</g>
<!-- Node29&#45;&gt;Node4 -->
<g id="edge44" class="edge">
<title>Node29&#45;&gt;Node4</title>
<path fill="none" stroke="midnightblue" d="M475,-179.46C457.82,-152.08 403.88,-66.05 380.42,-28.65"/>
<polygon fill="midnightblue" stroke="midnightblue" points="383.19,-26.48 374.91,-19.87 377.26,-30.2 383.19,-26.48"/>
</g>
<!-- Node29&#45;&gt;Node10 -->
<g id="edge46" class="edge">
<title>Node29&#45;&gt;Node10</title>
<path fill="none" stroke="midnightblue" d="M487.48,-179.49C499.35,-165.36 523.98,-136.21 545.35,-112 553.94,-102.27 563.72,-91.53 571.57,-82.98"/>
<polygon fill="midnightblue" stroke="midnightblue" points="574.21,-85.28 578.41,-75.55 569.06,-80.54 574.21,-85.28"/>
</g>
<!-- Node29&#45;&gt;Node15 -->
<g id="edge45" class="edge">
<title>Node29&#45;&gt;Node15</title>
<path fill="none" stroke="midnightblue" d="M497.12,-179.47C529.61,-163.36 603.82,-128.59 670.35,-112 678.77,-109.9 907.33,-85.65 1021.16,-73.65"/>
<polygon fill="midnightblue" stroke="midnightblue" points="1021.57,-77.12 1031.15,-72.59 1020.84,-70.16 1021.57,-77.12"/>
</g>
<!-- Node29&#45;&gt;Node28 -->
<g id="edge47" class="edge">
<title>Node29&#45;&gt;Node28</title>
<path fill="none" stroke="midnightblue" d="M512.76,-179.44C556.74,-167.82 635.37,-147.04 683.97,-134.2"/>
<polygon fill="midnightblue" stroke="midnightblue" points="685.09,-137.52 693.87,-131.58 683.3,-130.75 685.09,-137.52"/>
</g>
<!-- Node31&#45;&gt;Node10 -->
<g id="edge54" class="edge">
<title>Node31&#45;&gt;Node10</title>
<path fill="none" stroke="midnightblue" d="M1011.58,-168.35C979.98,-150.85 930.94,-125.92 885.35,-112 791.22,-83.25 674.58,-72.47 618.9,-68.77"/>
<polygon fill="midnightblue" stroke="midnightblue" points="618.8,-65.25 608.6,-68.12 618.36,-72.24 618.8,-65.25"/>
</g>
<!-- Node31&#45;&gt;Node21 -->
<g id="edge53" class="edge">
<title>Node31&#45;&gt;Node21</title>
<path fill="none" stroke="midnightblue" d="M1072.95,-168.5C1087.06,-158.53 1103.93,-146.61 1116.86,-137.48"/>
<polygon fill="midnightblue" stroke="midnightblue" points="1118.96,-140.28 1125.1,-131.65 1114.92,-134.56 1118.96,-140.28"/>
</g>
<!-- Node31&#45;&gt;Node22 -->
<g id="edge55" class="edge">
<title>Node31&#45;&gt;Node22</title>
<path fill="none" stroke="midnightblue" d="M1028.74,-168.29C1008.8,-144.64 975.75,-105.43 957.15,-83.38"/>
<polygon fill="midnightblue" stroke="midnightblue" points="959.7,-80.96 950.58,-75.57 954.35,-85.48 959.7,-80.96"/>
</g>
<!-- Node31&#45;&gt;Node26 -->
<g id="edge57" class="edge">
<title>Node31&#45;&gt;Node26</title>
<path fill="none" stroke="midnightblue" d="M987.74,-168.5C954.69,-157.31 914.36,-143.66 886.56,-134.24"/>
<polygon fill="midnightblue" stroke="midnightblue" points="887.51,-130.87 876.92,-130.98 885.27,-137.5 887.51,-130.87"/>
</g>
<!-- Node32 -->
<g id="node32" class="node">
<title>Node32</title>
<g id="a_node32"><a xlink:title=" ">
<polygon fill="white" stroke="#bfbfbf" points="1009.35,-112.5 1009.35,-131.5 1095.35,-131.5 1095.35,-112.5 1009.35,-112.5"/>
<text text-anchor="middle" x="1052.35" y="-119.5" font-family="Helvetica,sans-Serif" font-size="10.00">unordered_set</text>
</a>
</g>
</g>
<!-- Node31&#45;&gt;Node32 -->
<g id="edge56" class="edge">
<title>Node31&#45;&gt;Node32</title>
<path fill="none" stroke="midnightblue" d="M1047.45,-168.5C1048.36,-160.07 1049.42,-150.24 1050.32,-141.87"/>
<polygon fill="midnightblue" stroke="midnightblue" points="1053.83,-141.97 1051.42,-131.65 1046.87,-141.22 1053.83,-141.97"/>
</g>
<!-- Node33&#45;&gt;Node4 -->
<g id="edge59" class="edge">
<title>Node33&#45;&gt;Node4</title>
<path fill="none" stroke="midnightblue" d="M234.15,-179.4C206.82,-166.45 163.31,-140.43 180.35,-112 210.23,-62.16 274,-35.54 319.19,-22.36"/>
<polygon fill="midnightblue" stroke="midnightblue" points="320.41,-25.65 329.1,-19.59 318.52,-18.91 320.41,-25.65"/>
</g>
<!-- Node33&#45;&gt;Node9 -->
<g id="edge61" class="edge">
<title>Node33&#45;&gt;Node9</title>
<path fill="none" stroke="midnightblue" d="M236.43,-179.48C228.74,-175.87 219.63,-171.67 211.35,-168 185.62,-156.61 156.13,-144.26 134.63,-135.38"/>
<polygon fill="midnightblue" stroke="midnightblue" points="135.94,-132.14 125.36,-131.57 133.28,-138.61 135.94,-132.14"/>
</g>
<!-- Node33&#45;&gt;Node15 -->
<g id="edge62" class="edge">
<title>Node33&#45;&gt;Node15</title>
<path fill="none" stroke="midnightblue" d="M283.5,-180.5C343.75,-165.28 486.56,-130.63 608.35,-112 780.42,-85.68 825.12,-93.06 998.35,-76 1005.73,-75.27 1013.45,-74.49 1021.13,-73.71"/>
<polygon fill="midnightblue" stroke="midnightblue" points="1021.56,-77.18 1031.14,-72.67 1020.84,-70.22 1021.56,-77.18"/>
</g>
<!-- Node34 -->
<g id="node34" class="node">
<title>Node34</title>
<g id="a_node34"><a xlink:title=" ">
<polygon fill="white" stroke="#bfbfbf" points="189.35,-112.5 189.35,-131.5 303.35,-131.5 303.35,-112.5 189.35,-112.5"/>
<text text-anchor="middle" x="246.35" y="-119.5" font-family="Helvetica,sans-Serif" font-size="10.00">boost/operators.hpp</text>
</a>
</g>
</g>
<!-- Node33&#45;&gt;Node34 -->
<g id="edge60" class="edge">
<title>Node33&#45;&gt;Node34</title>
<path fill="none" stroke="midnightblue" d="M253.27,-179.23C252.1,-169.68 250.18,-154.12 248.66,-141.78"/>
<polygon fill="midnightblue" stroke="midnightblue" points="252.11,-141.12 247.41,-131.63 245.16,-141.98 252.11,-141.12"/>
</g>
<!-- Node35&#45;&gt;Node9 -->
<g id="edge65" class="edge">
<title>Node35&#45;&gt;Node9</title>
<path fill="none" stroke="midnightblue" d="M406.56,-445.17C315.39,-444.85 77.52,-439.12 20.35,-389 -4.05,-367.61 1.35,-350.95 1.35,-318.5 1.35,-318.5 1.35,-318.5 1.35,-255 1.35,-202.88 51.88,-159.02 82.15,-137.41"/>
<polygon fill="midnightblue" stroke="midnightblue" points="84.22,-140.24 90.46,-131.68 80.24,-134.48 84.22,-140.24"/>
</g>
<!-- Node35&#45;&gt;Node11 -->
<g id="edge69" class="edge">
<title>Node35&#45;&gt;Node11</title>
<path fill="none" stroke="midnightblue" d="M478.05,-438.59C540.66,-427.35 670.77,-403.99 746.41,-390.4"/>
<polygon fill="midnightblue" stroke="midnightblue" points="747.49,-393.77 756.71,-388.55 746.25,-386.88 747.49,-393.77"/>
</g>
<!-- Node36 -->
<g id="node36" class="node">
<title>Node36</title>
<g id="a_node36"><a xlink:href="../../d3/dc8/PredicateVisitor_8h.html" target="_top" xlink:title=" ">
<polygon fill="white" stroke="black" points="29.35,-369.5 29.35,-388.5 131.35,-388.5 131.35,-369.5 29.35,-369.5"/>
<text text-anchor="middle" x="80.35" y="-376.5" font-family="Helvetica,sans-Serif" font-size="10.00">PredicateVisitor.h</text>
</a>
</g>
</g>
<!-- Node35&#45;&gt;Node36 -->
<g id="edge66" class="edge">
<title>Node35&#45;&gt;Node36</title>
<path fill="none" stroke="midnightblue" d="M406.65,-438.59C344.04,-427.35 213.93,-403.99 138.29,-390.4"/>
<polygon fill="midnightblue" stroke="midnightblue" points="138.45,-386.88 127.99,-388.55 137.21,-393.77 138.45,-386.88"/>
</g>
<!-- Node36&#45;&gt;Node9 -->
<g id="edge68" class="edge">
<title>Node36&#45;&gt;Node9</title>
<path fill="none" stroke="midnightblue" d="M82.66,-369.44C84.99,-360.44 88.51,-345.83 90.35,-333 100.38,-263.16 103.24,-179.2 104.05,-142.15"/>
<polygon fill="midnightblue" stroke="midnightblue" points="107.55,-141.92 104.24,-131.85 100.55,-141.78 107.55,-141.92"/>
</g>
<!-- Node37 -->
<g id="node37" class="node">
<title>Node37</title>
<g id="a_node37"><a xlink:title=" ">
<polygon fill="white" stroke="#bfbfbf" points="29.35,-308 29.35,-327 81.35,-327 81.35,-308 29.35,-308"/>
<text text-anchor="middle" x="55.35" y="-315" font-family="Helvetica,sans-Serif" font-size="10.00">cassert</text>
</a>
</g>
</g>
<!-- Node36&#45;&gt;Node37 -->
<g id="edge67" class="edge">
<title>Node36&#45;&gt;Node37</title>
<path fill="none" stroke="midnightblue" d="M76.77,-369.48C73.17,-360.9 67.5,-347.43 62.91,-336.48"/>
<polygon fill="midnightblue" stroke="midnightblue" points="66.03,-334.87 58.93,-327.01 59.57,-337.58 66.03,-334.87"/>
</g>
<!-- Node38&#45;&gt;Node3 -->
<g id="edge74" class="edge">
<title>Node38&#45;&gt;Node3</title>
<path fill="none" stroke="midnightblue" d="M1346.84,-506.95C1261.75,-494.21 1118.91,-472.83 1028.8,-459.34"/>
<polygon fill="midnightblue" stroke="midnightblue" points="1029.3,-455.88 1018.9,-457.86 1028.27,-462.8 1029.3,-455.88"/>
</g>
<!-- Node38&#45;&gt;Node6 -->
<g id="edge71" class="edge">
<title>Node38&#45;&gt;Node6</title>
<path fill="none" stroke="midnightblue" d="M1436.18,-503.49C1447.33,-494.27 1460.89,-481.29 1469.35,-467 1489.79,-432.49 1493.35,-420.11 1493.35,-380 1493.35,-380 1493.35,-380 1493.35,-121 1493.35,-88.49 1485.19,-51.35 1479.57,-29.61"/>
<polygon fill="midnightblue" stroke="midnightblue" points="1482.89,-28.5 1476.91,-19.75 1476.13,-30.32 1482.89,-28.5"/>
</g>
<!-- Node38&#45;&gt;Node18 -->
<g id="edge72" class="edge">
<title>Node38&#45;&gt;Node18</title>
<path fill="none" stroke="midnightblue" d="M1423.97,-503.4C1434.86,-478.89 1455.35,-426.56 1455.35,-380 1455.35,-380 1455.35,-380 1455.35,-255 1455.35,-164.1 1396.06,-66.98 1369.71,-28.32"/>
<polygon fill="midnightblue" stroke="midnightblue" points="1372.36,-26 1363.78,-19.79 1366.62,-30 1372.36,-26"/>
</g>
<!-- Node38&#45;&gt;Node23 -->
<g id="edge73" class="edge">
<title>Node38&#45;&gt;Node23</title>
<path fill="none" stroke="midnightblue" d="M1406.28,-503.49C1371.18,-459.12 1262.53,-321.72 1224.59,-273.74"/>
<polygon fill="midnightblue" stroke="midnightblue" points="1227.12,-271.3 1218.17,-265.63 1221.63,-275.64 1227.12,-271.3"/>
</g>
</g>
</svg>
