<?xml version="1.0" encoding="UTF-8" standalone="no"?>
<!DOCTYPE svg PUBLIC "-//W3C//DTD SVG 1.1//EN"
 "http://www.w3.org/Graphics/SVG/1.1/DTD/svg11.dtd">
<!-- Generated by graphviz version 2.43.0 (0)
 -->
<!-- Title: /home/nico/projects/tmp&#45;joda&#45;dirs/JODA&#45;gh/libs/joda/core/modules/filesystem/include/joda/fs/DirectoryRegister.h Pages: 1 -->
<svg width="372pt" height="128pt"
 viewBox="0.00 0.00 371.50 128.00" xmlns="http://www.w3.org/2000/svg" xmlns:xlink="http://www.w3.org/1999/xlink">
<g id="graph0" class="graph" transform="scale(1 1) rotate(0) translate(4 124)">
<title>/home/nico/projects/tmp&#45;joda&#45;dirs/JODA&#45;gh/libs/joda/core/modules/filesystem/include/joda/fs/DirectoryRegister.h</title>
<polygon fill="white" stroke="transparent" points="-4,4 -4,-124 367.5,-124 367.5,4 -4,4"/>
<!-- Node1 -->
<g id="node1" class="node">
<title>Node1</title>
<g id="a_node1"><a xlink:title=" ">
<polygon fill="#bfbfbf" stroke="black" points="124.5,-56.5 124.5,-119.5 270.5,-119.5 270.5,-56.5 124.5,-56.5"/>
<text text-anchor="start" x="132.5" y="-107.5" font-family="Helvetica,sans-Serif" font-size="10.00">/home/nico/projects</text>
<text text-anchor="start" x="132.5" y="-96.5" font-family="Helvetica,sans-Serif" font-size="10.00">/tmp&#45;joda&#45;dirs/JODA</text>
<text text-anchor="start" x="132.5" y="-85.5" font-family="Helvetica,sans-Serif" font-size="10.00">&#45;gh/libs/joda/core/modules</text>
<text text-anchor="start" x="132.5" y="-74.5" font-family="Helvetica,sans-Serif" font-size="10.00">/filesystem/include/joda</text>
<text text-anchor="middle" x="197.5" y="-63.5" font-family="Helvetica,sans-Serif" font-size="10.00">/fs/DirectoryRegister.h</text>
</a>
</g>
</g>
<!-- Node2 -->
<g id="node2" class="node">
<title>Node2</title>
<g id="a_node2"><a xlink:title=" ">
<polygon fill="white" stroke="#bfbfbf" points="0,-0.5 0,-19.5 107,-19.5 107,-0.5 0,-0.5"/>
<text text-anchor="middle" x="53.5" y="-7.5" font-family="Helvetica,sans-Serif" font-size="10.00">boost/optional.hpp</text>
</a>
</g>
</g>
<!-- Node1&#45;&gt;Node2 -->
<g id="edge1" class="edge">
<title>Node1&#45;&gt;Node2</title>
<path fill="none" stroke="midnightblue" d="M139.34,-56.31C118.33,-45.22 95.69,-33.27 78.93,-24.42"/>
<polygon fill="midnightblue" stroke="midnightblue" points="80.28,-21.18 69.81,-19.61 77.02,-27.37 80.28,-21.18"/>
</g>
<!-- Node3 -->
<g id="node3" class="node">
<title>Node3</title>
<g id="a_node3"><a xlink:title=" ">
<polygon fill="white" stroke="#bfbfbf" points="125.5,-0.5 125.5,-19.5 193.5,-19.5 193.5,-0.5 125.5,-0.5"/>
<text text-anchor="middle" x="159.5" y="-7.5" font-family="Helvetica,sans-Serif" font-size="10.00">filesystem</text>
</a>
</g>
</g>
<!-- Node1&#45;&gt;Node3 -->
<g id="edge2" class="edge">
<title>Node1&#45;&gt;Node3</title>
<path fill="none" stroke="midnightblue" d="M182.04,-56.09C177.42,-46.84 172.51,-37.01 168.45,-28.9"/>
<polygon fill="midnightblue" stroke="midnightblue" points="171.46,-27.1 163.86,-19.72 165.2,-30.23 171.46,-27.1"/>
</g>
<!-- Node4 -->
<g id="node4" class="node">
<title>Node4</title>
<g id="a_node4"><a xlink:title=" ">
<polygon fill="white" stroke="#bfbfbf" points="211.5,-0.5 211.5,-19.5 259.5,-19.5 259.5,-0.5 211.5,-0.5"/>
<text text-anchor="middle" x="235.5" y="-7.5" font-family="Helvetica,sans-Serif" font-size="10.00">mutex</text>
</a>
</g>
</g>
<!-- Node1&#45;&gt;Node4 -->
<g id="edge3" class="edge">
<title>Node1&#45;&gt;Node4</title>
<path fill="none" stroke="midnightblue" d="M212.96,-56.09C217.58,-46.84 222.49,-37.01 226.55,-28.9"/>
<polygon fill="midnightblue" stroke="midnightblue" points="229.8,-30.23 231.14,-19.72 223.54,-27.1 229.8,-30.23"/>
</g>
<!-- Node5 -->
<g id="node5" class="node">
<title>Node5</title>
<g id="a_node5"><a xlink:title=" ">
<polygon fill="white" stroke="#bfbfbf" points="277.5,-0.5 277.5,-19.5 363.5,-19.5 363.5,-0.5 277.5,-0.5"/>
<text text-anchor="middle" x="320.5" y="-7.5" font-family="Helvetica,sans-Serif" font-size="10.00">unordered_set</text>
</a>
</g>
</g>
<!-- Node1&#45;&gt;Node5 -->
<g id="edge4" class="edge">
<title>Node1&#45;&gt;Node5</title>
<path fill="none" stroke="midnightblue" d="M247.17,-56.31C264.79,-45.43 283.74,-33.71 297.97,-24.92"/>
<polygon fill="midnightblue" stroke="midnightblue" points="299.9,-27.84 306.57,-19.61 296.22,-21.89 299.9,-27.84"/>
</g>
</g>
</svg>
