<?xml version="1.0" encoding="UTF-8" standalone="no"?>
<!DOCTYPE svg PUBLIC "-//W3C//DTD SVG 1.1//EN"
 "http://www.w3.org/Graphics/SVG/1.1/DTD/svg11.dtd">
<!-- Generated by graphviz version 2.43.0 (0)
 -->
<!-- Title: /home/nico/joda_tmp/tmp&#45;joda&#45;dirs/JODA&#45;gh/libs/joda/core/modules/query/project/include/joda/query/project/IProjector.h Pages: 1 -->
<svg width="1432pt" height="497pt"
 viewBox="0.00 0.00 1432.00 497.00" xmlns="http://www.w3.org/2000/svg" xmlns:xlink="http://www.w3.org/1999/xlink">
<g id="graph0" class="graph" transform="scale(1 1) rotate(0) translate(4 493)">
<title>/home/nico/joda_tmp/tmp&#45;joda&#45;dirs/JODA&#45;gh/libs/joda/core/modules/query/project/include/joda/query/project/IProjector.h</title>
<polygon fill="white" stroke="transparent" points="-4,4 -4,-493 1428,-493 1428,4 -4,4"/>
<!-- Node1 -->
<g id="node1" class="node">
<title>Node1</title>
<g id="a_node1"><a xlink:title=" ">
<polygon fill="#bfbfbf" stroke="black" points="813,-425.5 813,-488.5 959,-488.5 959,-425.5 813,-425.5"/>
<text text-anchor="start" x="821" y="-476.5" font-family="Helvetica,sans-Serif" font-size="10.00">/home/nico/joda_tmp</text>
<text text-anchor="start" x="821" y="-465.5" font-family="Helvetica,sans-Serif" font-size="10.00">/tmp&#45;joda&#45;dirs/JODA</text>
<text text-anchor="start" x="821" y="-454.5" font-family="Helvetica,sans-Serif" font-size="10.00">&#45;gh/libs/joda/core/modules</text>
<text text-anchor="start" x="821" y="-443.5" font-family="Helvetica,sans-Serif" font-size="10.00">/query/project/include/joda</text>
<text text-anchor="middle" x="886" y="-432.5" font-family="Helvetica,sans-Serif" font-size="10.00">/query/project/IProjector.h</text>
</a>
</g>
</g>
<!-- Node2 -->
<g id="node2" class="node">
<title>Node2</title>
<g id="a_node2"><a xlink:href="../../d1/dfd/RapidJsonDocument_8h.html" target="_top" xlink:title=" ">
<polygon fill="white" stroke="black" points="237,-369.5 237,-388.5 437,-388.5 437,-369.5 237,-369.5"/>
<text text-anchor="middle" x="337" y="-376.5" font-family="Helvetica,sans-Serif" font-size="10.00">joda/document/RapidJsonDocument.h</text>
</a>
</g>
</g>
<!-- Node1&#45;&gt;Node2 -->
<g id="edge1" class="edge">
<title>Node1&#45;&gt;Node2</title>
<path fill="none" stroke="midnightblue" d="M812.81,-445.87C707.29,-431.26 513.61,-404.45 408.84,-389.95"/>
<polygon fill="midnightblue" stroke="midnightblue" points="409.06,-386.44 398.68,-388.54 408.11,-393.38 409.06,-386.44"/>
</g>
<!-- Node13 -->
<g id="node13" class="node">
<title>Node13</title>
<g id="a_node13"><a xlink:title=" ">
<polygon fill="white" stroke="#bfbfbf" points="1210.5,-0.5 1210.5,-19.5 1317.5,-19.5 1317.5,-0.5 1210.5,-0.5"/>
<text text-anchor="middle" x="1264" y="-7.5" font-family="Helvetica,sans-Serif" font-size="10.00">rapidjson/pointer.h</text>
</a>
</g>
</g>
<!-- Node1&#45;&gt;Node13 -->
<g id="edge56" class="edge">
<title>Node1&#45;&gt;Node13</title>
<path fill="none" stroke="midnightblue" d="M959.12,-452.55C1106.22,-443.62 1424,-413.34 1424,-318.5 1424,-318.5 1424,-318.5 1424,-121 1424,-66.24 1359.58,-36.68 1312.49,-22.4"/>
<polygon fill="midnightblue" stroke="midnightblue" points="1313.31,-18.99 1302.73,-19.57 1311.37,-25.71 1313.31,-18.99"/>
</g>
<!-- Node3 -->
<g id="node3" class="node">
<title>Node3</title>
<g id="a_node3"><a xlink:href="../../d2/d0d/ViewLayer_8h.html" target="_top" xlink:title=" ">
<polygon fill="white" stroke="black" points="836,-302.5 836,-332.5 952,-332.5 952,-302.5 836,-302.5"/>
<text text-anchor="start" x="844" y="-320.5" font-family="Helvetica,sans-Serif" font-size="10.00">joda/document/view</text>
<text text-anchor="middle" x="894" y="-309.5" font-family="Helvetica,sans-Serif" font-size="10.00">/ViewLayer.h</text>
</a>
</g>
</g>
<!-- Node2&#45;&gt;Node3 -->
<g id="edge2" class="edge">
<title>Node2&#45;&gt;Node3</title>
<path fill="none" stroke="midnightblue" d="M416.8,-369.48C526.56,-357.75 722.21,-336.85 825.6,-325.81"/>
<polygon fill="midnightblue" stroke="midnightblue" points="826.05,-329.28 835.62,-324.74 825.3,-322.32 826.05,-329.28"/>
</g>
<!-- Node8 -->
<g id="node8" class="node">
<title>Node8</title>
<g id="a_node8"><a xlink:href="../../d6/d09/RJFwd_8h.html" target="_top" xlink:title=" ">
<polygon fill="white" stroke="black" points="352,-56.5 352,-75.5 458,-75.5 458,-56.5 352,-56.5"/>
<text text-anchor="middle" x="405" y="-63.5" font-family="Helvetica,sans-Serif" font-size="10.00">joda/misc/RJFwd.h</text>
</a>
</g>
</g>
<!-- Node2&#45;&gt;Node8 -->
<g id="edge55" class="edge">
<title>Node2&#45;&gt;Node8</title>
<path fill="none" stroke="midnightblue" d="M327.71,-369.39C319.42,-361.02 307.86,-347.48 303,-333 293.54,-304.79 258.6,-191.42 311,-112 321.42,-96.2 339.03,-85.8 356.2,-79.02"/>
<polygon fill="midnightblue" stroke="midnightblue" points="357.43,-82.3 365.65,-75.62 355.06,-75.71 357.43,-82.3"/>
</g>
<!-- Node9 -->
<g id="node9" class="node">
<title>Node9</title>
<g id="a_node9"><a xlink:title=" ">
<polygon fill="white" stroke="#bfbfbf" points="0,-0.5 0,-19.5 122,-19.5 122,-0.5 0,-0.5"/>
<text text-anchor="middle" x="61" y="-7.5" font-family="Helvetica,sans-Serif" font-size="10.00">rapidjson/allocators.h</text>
</a>
</g>
</g>
<!-- Node2&#45;&gt;Node9 -->
<g id="edge40" class="edge">
<title>Node2&#45;&gt;Node9</title>
<path fill="none" stroke="midnightblue" d="M236.85,-375.96C152.68,-368.28 46,-341.81 46,-257 46,-257 46,-257 46,-121 46,-88.5 52.51,-51.1 56.95,-29.34"/>
<polygon fill="midnightblue" stroke="midnightblue" points="60.39,-30.01 59.04,-19.5 53.54,-28.56 60.39,-30.01"/>
</g>
<!-- Node11 -->
<g id="node11" class="node">
<title>Node11</title>
<g id="a_node11"><a xlink:title=" ">
<polygon fill="white" stroke="#bfbfbf" points="194.5,-0.5 194.5,-19.5 285.5,-19.5 285.5,-0.5 194.5,-0.5"/>
<text text-anchor="middle" x="240" y="-7.5" font-family="Helvetica,sans-Serif" font-size="10.00">rapidjson/fwd.h</text>
</a>
</g>
</g>
<!-- Node2&#45;&gt;Node11 -->
<g id="edge41" class="edge">
<title>Node2&#45;&gt;Node11</title>
<path fill="none" stroke="midnightblue" d="M236.64,-369.49C166.01,-357.34 84,-327.96 84,-257 84,-257 84,-257 84,-121 84,-66.82 147.63,-36.97 193.62,-22.48"/>
<polygon fill="midnightblue" stroke="midnightblue" points="194.85,-25.77 203.42,-19.54 192.84,-19.06 194.85,-25.77"/>
</g>
<!-- Node24 -->
<g id="node24" class="node">
<title>Node24</title>
<g id="a_node24"><a xlink:title=" ">
<polygon fill="white" stroke="#bfbfbf" points="320,-112.5 320,-131.5 378,-131.5 378,-112.5 320,-112.5"/>
<text text-anchor="middle" x="349" y="-119.5" font-family="Helvetica,sans-Serif" font-size="10.00">memory</text>
</a>
</g>
</g>
<!-- Node2&#45;&gt;Node24 -->
<g id="edge43" class="edge">
<title>Node2&#45;&gt;Node24</title>
<path fill="none" stroke="midnightblue" d="M346.29,-369.39C354.58,-361.02 366.14,-347.48 371,-333 382.85,-297.67 362,-186.01 352.92,-141.54"/>
<polygon fill="midnightblue" stroke="midnightblue" points="356.3,-140.63 350.84,-131.55 349.45,-142.05 356.3,-140.63"/>
</g>
<!-- Node27 -->
<g id="node27" class="node">
<title>Node27</title>
<g id="a_node27"><a xlink:title=" ">
<polygon fill="white" stroke="#bfbfbf" points="312,-308 312,-327 362,-327 362,-308 312,-308"/>
<text text-anchor="middle" x="337" y="-315" font-family="Helvetica,sans-Serif" font-size="10.00">atomic</text>
</a>
</g>
</g>
<!-- Node2&#45;&gt;Node27 -->
<g id="edge42" class="edge">
<title>Node2&#45;&gt;Node27</title>
<path fill="none" stroke="midnightblue" d="M337,-369.48C337,-361.08 337,-347.98 337,-337.16"/>
<polygon fill="midnightblue" stroke="midnightblue" points="340.5,-337.01 337,-327.01 333.5,-337.01 340.5,-337.01"/>
</g>
<!-- Node28 -->
<g id="node28" class="node">
<title>Node28</title>
<g id="a_node28"><a xlink:href="../../df/d13/FileNameRepo_8h.html" target="_top" xlink:title=" ">
<polygon fill="white" stroke="black" points="653.5,-168.5 653.5,-209.5 808.5,-209.5 808.5,-168.5 653.5,-168.5"/>
<text text-anchor="start" x="661.5" y="-197.5" font-family="Helvetica,sans-Serif" font-size="10.00">../../../../../misc</text>
<text text-anchor="start" x="661.5" y="-186.5" font-family="Helvetica,sans-Serif" font-size="10.00">/include/joda/misc/FileName</text>
<text text-anchor="middle" x="731" y="-175.5" font-family="Helvetica,sans-Serif" font-size="10.00">Repo.h</text>
</a>
</g>
</g>
<!-- Node2&#45;&gt;Node28 -->
<g id="edge44" class="edge">
<title>Node2&#45;&gt;Node28</title>
<path fill="none" stroke="midnightblue" d="M371.39,-369.43C429.4,-354.09 549.25,-318.56 640,-266 663.48,-252.4 686.9,-232.66 704.11,-216.7"/>
<polygon fill="midnightblue" stroke="midnightblue" points="706.68,-219.08 711.55,-209.67 701.88,-213.99 706.68,-219.08"/>
</g>
<!-- Node30 -->
<g id="node30" class="node">
<title>Node30</title>
<g id="a_node30"><a xlink:href="../../d5/d6c/IOrigin_8h.html" target="_top" xlink:title=" ">
<polygon fill="white" stroke="black" points="206,-179.5 206,-198.5 264,-198.5 264,-179.5 206,-179.5"/>
<text text-anchor="middle" x="235" y="-186.5" font-family="Helvetica,sans-Serif" font-size="10.00">IOrigin.h</text>
</a>
</g>
</g>
<!-- Node2&#45;&gt;Node30 -->
<g id="edge50" class="edge">
<title>Node2&#45;&gt;Node30</title>
<path fill="none" stroke="midnightblue" d="M316.7,-369.35C301.58,-361.88 281.63,-349.66 270,-333 243.13,-294.52 236.8,-237.67 235.37,-208.6"/>
<polygon fill="midnightblue" stroke="midnightblue" points="238.86,-208.47 235.02,-198.6 231.87,-208.72 238.86,-208.47"/>
</g>
<!-- Node4 -->
<g id="node4" class="node">
<title>Node4</title>
<g id="a_node4"><a xlink:title=" ">
<polygon fill="white" stroke="#bfbfbf" points="799,-0.5 799,-19.5 885,-19.5 885,-0.5 799,-0.5"/>
<text text-anchor="middle" x="842" y="-7.5" font-family="Helvetica,sans-Serif" font-size="10.00">glog/logging.h</text>
</a>
</g>
</g>
<!-- Node3&#45;&gt;Node4 -->
<g id="edge3" class="edge">
<title>Node3&#45;&gt;Node4</title>
<path fill="none" stroke="midnightblue" d="M952.14,-316.86C1060.13,-316.44 1286.4,-310.14 1349,-266 1379.7,-244.35 1386,-227.57 1386,-190 1386,-190 1386,-190 1386,-121 1386,-21.57 1032.47,-10.97 895.4,-10.59"/>
<polygon fill="midnightblue" stroke="midnightblue" points="895.14,-7.09 885.14,-10.58 895.14,-14.09 895.14,-7.09"/>
</g>
<!-- Node5 -->
<g id="node5" class="node">
<title>Node5</title>
<g id="a_node5"><a xlink:href="../../db/d16/config_8h.html" target="_top" xlink:title=" ">
<polygon fill="white" stroke="black" points="979.5,-246.5 979.5,-265.5 1090.5,-265.5 1090.5,-246.5 979.5,-246.5"/>
<text text-anchor="middle" x="1035" y="-253.5" font-family="Helvetica,sans-Serif" font-size="10.00">joda/config/config.h</text>
</a>
</g>
</g>
<!-- Node3&#45;&gt;Node5 -->
<g id="edge4" class="edge">
<title>Node3&#45;&gt;Node5</title>
<path fill="none" stroke="midnightblue" d="M927.42,-302.4C950.97,-292.46 982.24,-279.26 1004.99,-269.66"/>
<polygon fill="midnightblue" stroke="midnightblue" points="1006.63,-272.77 1014.48,-265.66 1003.91,-266.32 1006.63,-272.77"/>
</g>
<!-- Node3&#45;&gt;Node8 -->
<g id="edge7" class="edge">
<title>Node3&#45;&gt;Node8</title>
<path fill="none" stroke="midnightblue" d="M835.71,-316.7C756.72,-315.29 612.32,-306.67 497,-266 452.22,-250.2 429.31,-251.37 406,-210 383.73,-170.47 392.74,-114.51 399.73,-85.72"/>
<polygon fill="midnightblue" stroke="midnightblue" points="403.18,-86.35 402.32,-75.79 396.41,-84.58 403.18,-86.35"/>
</g>
<!-- Node14 -->
<g id="node14" class="node">
<title>Node14</title>
<g id="a_node14"><a xlink:title=" ">
<polygon fill="white" stroke="#bfbfbf" points="1108.5,-246.5 1108.5,-265.5 1237.5,-265.5 1237.5,-246.5 1108.5,-246.5"/>
<text text-anchor="middle" x="1173" y="-253.5" font-family="Helvetica,sans-Serif" font-size="10.00">rapidjson/stringbuffer.h</text>
</a>
</g>
</g>
<!-- Node3&#45;&gt;Node14 -->
<g id="edge14" class="edge">
<title>Node3&#45;&gt;Node14</title>
<path fill="none" stroke="midnightblue" d="M952.15,-304.1C1002.69,-293.32 1075.14,-277.87 1123.09,-267.64"/>
<polygon fill="midnightblue" stroke="midnightblue" points="1123.89,-271.05 1132.94,-265.54 1122.43,-264.21 1123.89,-271.05"/>
</g>
<!-- Node15 -->
<g id="node15" class="node">
<title>Node15</title>
<g id="a_node15"><a xlink:title=" ">
<polygon fill="white" stroke="#bfbfbf" points="1256,-246.5 1256,-265.5 1320,-265.5 1320,-246.5 1256,-246.5"/>
<text text-anchor="middle" x="1288" y="-253.5" font-family="Helvetica,sans-Serif" font-size="10.00">algorithm</text>
</a>
</g>
</g>
<!-- Node3&#45;&gt;Node15 -->
<g id="edge15" class="edge">
<title>Node3&#45;&gt;Node15</title>
<path fill="none" stroke="midnightblue" d="M952.3,-309.5C1020.41,-301.03 1136.68,-285.63 1245.94,-266.08"/>
<polygon fill="midnightblue" stroke="midnightblue" points="1246.6,-269.52 1255.82,-264.3 1245.35,-262.63 1246.6,-269.52"/>
</g>
<!-- Node16 -->
<g id="node16" class="node">
<title>Node16</title>
<g id="a_node16"><a xlink:title=" ">
<polygon fill="white" stroke="#bfbfbf" points="829,-112.5 829,-131.5 877,-131.5 877,-112.5 829,-112.5"/>
<text text-anchor="middle" x="853" y="-119.5" font-family="Helvetica,sans-Serif" font-size="10.00">mutex</text>
</a>
</g>
</g>
<!-- Node3&#45;&gt;Node16 -->
<g id="edge16" class="edge">
<title>Node3&#45;&gt;Node16</title>
<path fill="none" stroke="midnightblue" d="M890.99,-302.27C883.68,-267.8 865.04,-179.81 856.9,-141.4"/>
<polygon fill="midnightblue" stroke="midnightblue" points="860.31,-140.63 854.82,-131.58 853.47,-142.09 860.31,-140.63"/>
</g>
<!-- Node17 -->
<g id="node17" class="node">
<title>Node17</title>
<g id="a_node17"><a xlink:title=" ">
<polygon fill="white" stroke="#bfbfbf" points="976.5,-56.5 976.5,-75.5 1069.5,-75.5 1069.5,-56.5 976.5,-56.5"/>
<text text-anchor="middle" x="1023" y="-63.5" font-family="Helvetica,sans-Serif" font-size="10.00">unordered_map</text>
</a>
</g>
</g>
<!-- Node3&#45;&gt;Node17 -->
<g id="edge17" class="edge">
<title>Node3&#45;&gt;Node17</title>
<path fill="none" stroke="midnightblue" d="M952.13,-313.98C1064.86,-308.49 1304.35,-293.68 1329,-266 1413.21,-171.45 1179.57,-103.27 1072.93,-77.89"/>
<polygon fill="midnightblue" stroke="midnightblue" points="1073.56,-74.44 1063.03,-75.57 1071.96,-81.26 1073.56,-74.44"/>
</g>
<!-- Node18 -->
<g id="node18" class="node">
<title>Node18</title>
<g id="a_node18"><a xlink:title=" ">
<polygon fill="white" stroke="#bfbfbf" points="721.5,-246.5 721.5,-265.5 772.5,-265.5 772.5,-246.5 721.5,-246.5"/>
<text text-anchor="middle" x="747" y="-253.5" font-family="Helvetica,sans-Serif" font-size="10.00">variant</text>
</a>
</g>
</g>
<!-- Node3&#45;&gt;Node18 -->
<g id="edge18" class="edge">
<title>Node3&#45;&gt;Node18</title>
<path fill="none" stroke="midnightblue" d="M859.16,-302.4C834.5,-292.42 801.71,-279.15 777.97,-269.53"/>
<polygon fill="midnightblue" stroke="midnightblue" points="778.97,-266.17 768.39,-265.66 776.35,-272.65 778.97,-266.17"/>
</g>
<!-- Node19 -->
<g id="node19" class="node">
<title>Node19</title>
<g id="a_node19"><a xlink:title=" ">
<polygon fill="white" stroke="#bfbfbf" points="791,-246.5 791,-265.5 847,-265.5 847,-246.5 791,-246.5"/>
<text text-anchor="middle" x="819" y="-253.5" font-family="Helvetica,sans-Serif" font-size="10.00">optional</text>
</a>
</g>
</g>
<!-- Node3&#45;&gt;Node19 -->
<g id="edge19" class="edge">
<title>Node3&#45;&gt;Node19</title>
<path fill="none" stroke="midnightblue" d="M876.23,-302.4C864.65,-293.22 849.58,-281.26 837.8,-271.92"/>
<polygon fill="midnightblue" stroke="midnightblue" points="839.92,-269.13 829.91,-265.66 835.57,-274.61 839.92,-269.13"/>
</g>
<!-- Node20 -->
<g id="node20" class="node">
<title>Node20</title>
<g id="a_node20"><a xlink:href="../../da/d3b/ObjectIterator_8h.html" target="_top" xlink:title=" ">
<polygon fill="white" stroke="black" points="539,-246.5 539,-265.5 631,-265.5 631,-246.5 539,-246.5"/>
<text text-anchor="middle" x="585" y="-253.5" font-family="Helvetica,sans-Serif" font-size="10.00">ObjectIterator.h</text>
</a>
</g>
</g>
<!-- Node3&#45;&gt;Node20 -->
<g id="edge20" class="edge">
<title>Node3&#45;&gt;Node20</title>
<path fill="none" stroke="midnightblue" d="M835.88,-305.31C779.43,-294.44 694.4,-278.06 639.29,-267.45"/>
<polygon fill="midnightblue" stroke="midnightblue" points="639.84,-264 629.36,-265.54 638.51,-270.87 639.84,-264"/>
</g>
<!-- Node23 -->
<g id="node23" class="node">
<title>Node23</title>
<g id="a_node23"><a xlink:href="../../d5/de2/ViewCursor_8h.html" target="_top" xlink:title=" ">
<polygon fill="white" stroke="black" points="415,-179.5 415,-198.5 495,-198.5 495,-179.5 415,-179.5"/>
<text text-anchor="middle" x="455" y="-186.5" font-family="Helvetica,sans-Serif" font-size="10.00">ViewCursor.h</text>
</a>
</g>
</g>
<!-- Node3&#45;&gt;Node23 -->
<g id="edge33" class="edge">
<title>Node3&#45;&gt;Node23</title>
<path fill="none" stroke="midnightblue" d="M835.91,-312.98C747.11,-306.85 582.39,-292.28 530,-266 502.91,-252.41 479.83,-225.18 466.69,-207.27"/>
<polygon fill="midnightblue" stroke="midnightblue" points="469.39,-205.03 460.75,-198.88 463.67,-209.07 469.39,-205.03"/>
</g>
<!-- Node25 -->
<g id="node25" class="node">
<title>Node25</title>
<g id="a_node25"><a xlink:href="../../d0/d10/ViewStructure_8h.html" target="_top" xlink:title=" ">
<polygon fill="white" stroke="black" points="895,-112.5 895,-131.5 989,-131.5 989,-112.5 895,-112.5"/>
<text text-anchor="middle" x="942" y="-119.5" font-family="Helvetica,sans-Serif" font-size="10.00">ViewStructure.h</text>
</a>
</g>
</g>
<!-- Node3&#45;&gt;Node25 -->
<g id="edge34" class="edge">
<title>Node3&#45;&gt;Node25</title>
<path fill="none" stroke="midnightblue" d="M897.53,-302.27C906.08,-267.8 927.91,-179.81 937.43,-141.4"/>
<polygon fill="midnightblue" stroke="midnightblue" points="940.86,-142.13 939.87,-131.58 934.07,-140.44 940.86,-142.13"/>
</g>
<!-- Node26 -->
<g id="node26" class="node">
<title>Node26</title>
<g id="a_node26"><a xlink:href="../../d8/dee/VirtualObject_8h.html" target="_top" xlink:title=" ">
<polygon fill="white" stroke="black" points="941.5,-179.5 941.5,-198.5 1030.5,-198.5 1030.5,-179.5 941.5,-179.5"/>
<text text-anchor="middle" x="986" y="-186.5" font-family="Helvetica,sans-Serif" font-size="10.00">VirtualObject.h</text>
</a>
</g>
</g>
<!-- Node3&#45;&gt;Node26 -->
<g id="edge35" class="edge">
<title>Node3&#45;&gt;Node26</title>
<path fill="none" stroke="midnightblue" d="M904.2,-302.48C921.2,-279.1 955.27,-232.25 973.62,-207.02"/>
<polygon fill="midnightblue" stroke="midnightblue" points="976.56,-208.93 979.61,-198.79 970.9,-204.82 976.56,-208.93"/>
</g>
<!-- Node6 -->
<g id="node6" class="node">
<title>Node6</title>
<g id="a_node6"><a xlink:title=" ">
<polygon fill="white" stroke="#bfbfbf" points="1049,-179.5 1049,-198.5 1103,-198.5 1103,-179.5 1049,-179.5"/>
<text text-anchor="middle" x="1076" y="-186.5" font-family="Helvetica,sans-Serif" font-size="10.00">istream</text>
</a>
</g>
</g>
<!-- Node5&#45;&gt;Node6 -->
<g id="edge5" class="edge">
<title>Node5&#45;&gt;Node6</title>
<path fill="none" stroke="midnightblue" d="M1040.53,-246.23C1046.8,-236.29 1057.18,-219.84 1065.09,-207.29"/>
<polygon fill="midnightblue" stroke="midnightblue" points="1068.18,-208.95 1070.56,-198.63 1062.26,-205.22 1068.18,-208.95"/>
</g>
<!-- Node7 -->
<g id="node7" class="node">
<title>Node7</title>
<g id="a_node7"><a xlink:title=" ">
<polygon fill="white" stroke="#bfbfbf" points="914,-56.5 914,-75.5 958,-75.5 958,-56.5 914,-56.5"/>
<text text-anchor="middle" x="936" y="-63.5" font-family="Helvetica,sans-Serif" font-size="10.00">string</text>
</a>
</g>
</g>
<!-- Node5&#45;&gt;Node7 -->
<g id="edge6" class="edge">
<title>Node5&#45;&gt;Node7</title>
<path fill="none" stroke="midnightblue" d="M1063.37,-246.49C1080.75,-239.65 1101.6,-228.13 1112,-210 1134.49,-170.81 1119.34,-141.36 1085,-112 1082.71,-110.04 1011.03,-88.89 967.94,-76.3"/>
<polygon fill="midnightblue" stroke="midnightblue" points="968.76,-72.89 958.18,-73.45 966.8,-79.61 968.76,-72.89"/>
</g>
<!-- Node8&#45;&gt;Node4 -->
<g id="edge8" class="edge">
<title>Node8&#45;&gt;Node4</title>
<path fill="none" stroke="midnightblue" d="M458.02,-57.82C462.75,-57.19 467.46,-56.58 472,-56 584.72,-41.58 716.91,-25.76 788.81,-17.26"/>
<polygon fill="midnightblue" stroke="midnightblue" points="789.45,-20.71 798.97,-16.06 788.63,-13.75 789.45,-20.71"/>
</g>
<!-- Node8&#45;&gt;Node9 -->
<g id="edge9" class="edge">
<title>Node8&#45;&gt;Node9</title>
<path fill="none" stroke="midnightblue" d="M351.63,-56.62C290.63,-47.05 190.83,-31.38 125.52,-21.13"/>
<polygon fill="midnightblue" stroke="midnightblue" points="125.77,-17.62 115.35,-19.53 124.69,-24.54 125.77,-17.62"/>
</g>
<!-- Node10 -->
<g id="node10" class="node">
<title>Node10</title>
<g id="a_node10"><a xlink:title=" ">
<polygon fill="white" stroke="#bfbfbf" points="331,-0.5 331,-19.5 453,-19.5 453,-0.5 331,-0.5"/>
<text text-anchor="middle" x="392" y="-7.5" font-family="Helvetica,sans-Serif" font-size="10.00">rapidjson/document.h</text>
</a>
</g>
</g>
<!-- Node8&#45;&gt;Node10 -->
<g id="edge10" class="edge">
<title>Node8&#45;&gt;Node10</title>
<path fill="none" stroke="midnightblue" d="M402.85,-56.08C401.13,-48.93 398.65,-38.64 396.5,-29.69"/>
<polygon fill="midnightblue" stroke="midnightblue" points="399.85,-28.65 394.11,-19.75 393.04,-30.29 399.85,-28.65"/>
</g>
<!-- Node8&#45;&gt;Node11 -->
<g id="edge11" class="edge">
<title>Node8&#45;&gt;Node11</title>
<path fill="none" stroke="midnightblue" d="M378.86,-56.44C350.98,-47.32 306.65,-32.81 275.6,-22.65"/>
<polygon fill="midnightblue" stroke="midnightblue" points="276.62,-19.3 266.02,-19.52 274.44,-25.95 276.62,-19.3"/>
</g>
<!-- Node12 -->
<g id="node12" class="node">
<title>Node12</title>
<g id="a_node12"><a xlink:title=" ">
<polygon fill="white" stroke="#bfbfbf" points="471,-0.5 471,-19.5 621,-19.5 621,-0.5 471,-0.5"/>
<text text-anchor="middle" x="546" y="-7.5" font-family="Helvetica,sans-Serif" font-size="10.00">rapidjson/istreamwrapper.h</text>
</a>
</g>
</g>
<!-- Node8&#45;&gt;Node12 -->
<g id="edge12" class="edge">
<title>Node8&#45;&gt;Node12</title>
<path fill="none" stroke="midnightblue" d="M427.34,-56.44C450.75,-47.48 487.74,-33.31 514.19,-23.18"/>
<polygon fill="midnightblue" stroke="midnightblue" points="515.68,-26.36 523.76,-19.52 513.17,-19.82 515.68,-26.36"/>
</g>
<!-- Node8&#45;&gt;Node13 -->
<g id="edge13" class="edge">
<title>Node8&#45;&gt;Node13</title>
<path fill="none" stroke="midnightblue" d="M458.09,-61.66C608.5,-52.21 1037.18,-25.26 1200.1,-15.02"/>
<polygon fill="midnightblue" stroke="midnightblue" points="1200.68,-18.49 1210.44,-14.37 1200.24,-11.5 1200.68,-18.49"/>
</g>
<!-- Node20&#45;&gt;Node7 -->
<g id="edge22" class="edge">
<title>Node20&#45;&gt;Node7</title>
<path fill="none" stroke="midnightblue" d="M631.16,-252.75C692.12,-248.72 794.51,-237.88 818,-210 846.07,-176.69 795.02,-147.69 820,-112 838.81,-85.13 876.11,-74.3 903.36,-69.94"/>
<polygon fill="midnightblue" stroke="midnightblue" points="904.18,-73.36 913.61,-68.52 903.22,-66.43 904.18,-73.36"/>
</g>
<!-- Node20&#45;&gt;Node8 -->
<g id="edge21" class="edge">
<title>Node20&#45;&gt;Node8</title>
<path fill="none" stroke="midnightblue" d="M576.94,-246.38C568.48,-237.33 554.8,-222.67 543,-210 525.64,-191.36 521.58,-186.43 504,-168 474.95,-137.55 440.43,-102.6 420.78,-82.83"/>
<polygon fill="midnightblue" stroke="midnightblue" points="423.09,-80.19 413.55,-75.57 418.13,-85.13 423.09,-80.19"/>
</g>
<!-- Node21 -->
<g id="node21" class="node">
<title>Node21</title>
<g id="a_node21"><a xlink:title=" ">
<polygon fill="white" stroke="#bfbfbf" points="551.5,-179.5 551.5,-198.5 596.5,-198.5 596.5,-179.5 551.5,-179.5"/>
<text text-anchor="middle" x="574" y="-186.5" font-family="Helvetica,sans-Serif" font-size="10.00">utility</text>
</a>
</g>
</g>
<!-- Node20&#45;&gt;Node21 -->
<g id="edge23" class="edge">
<title>Node20&#45;&gt;Node21</title>
<path fill="none" stroke="midnightblue" d="M583.52,-246.23C581.9,-236.68 579.27,-221.12 577.18,-208.78"/>
<polygon fill="midnightblue" stroke="midnightblue" points="580.58,-207.9 575.46,-198.63 573.68,-209.07 580.58,-207.9"/>
</g>
<!-- Node22 -->
<g id="node22" class="node">
<title>Node22</title>
<g id="a_node22"><a xlink:title=" ">
<polygon fill="white" stroke="#bfbfbf" points="583.5,-112.5 583.5,-131.5 630.5,-131.5 630.5,-112.5 583.5,-112.5"/>
<text text-anchor="middle" x="607" y="-119.5" font-family="Helvetica,sans-Serif" font-size="10.00">vector</text>
</a>
</g>
</g>
<!-- Node20&#45;&gt;Node22 -->
<g id="edge24" class="edge">
<title>Node20&#45;&gt;Node22</title>
<path fill="none" stroke="midnightblue" d="M590.35,-246.44C595.5,-237.67 602.94,-223.45 606,-210 611.26,-186.92 610.45,-159.51 609.04,-141.7"/>
<polygon fill="midnightblue" stroke="midnightblue" points="612.5,-141.16 608.08,-131.54 605.54,-141.82 612.5,-141.16"/>
</g>
<!-- Node20&#45;&gt;Node23 -->
<g id="edge25" class="edge">
<title>Node20&#45;&gt;Node23</title>
<path fill="none" stroke="midnightblue" d="M567.74,-246.37C545.69,-235.34 507.31,-216.16 481.54,-203.27"/>
<polygon fill="midnightblue" stroke="midnightblue" points="482.84,-200.01 472.33,-198.67 479.71,-206.27 482.84,-200.01"/>
</g>
<!-- Node23&#45;&gt;Node8 -->
<g id="edge26" class="edge">
<title>Node23&#45;&gt;Node8</title>
<path fill="none" stroke="midnightblue" d="M451.4,-179.3C443.3,-159.68 423.45,-111.64 412.52,-85.19"/>
<polygon fill="midnightblue" stroke="midnightblue" points="415.62,-83.53 408.56,-75.62 409.15,-86.2 415.62,-83.53"/>
</g>
<!-- Node23&#45;&gt;Node22 -->
<g id="edge28" class="edge">
<title>Node23&#45;&gt;Node22</title>
<path fill="none" stroke="midnightblue" d="M475.18,-179.37C501.3,-168.2 547.03,-148.65 577.16,-135.76"/>
<polygon fill="midnightblue" stroke="midnightblue" points="578.91,-138.82 586.73,-131.67 576.16,-132.38 578.91,-138.82"/>
</g>
<!-- Node23&#45;&gt;Node24 -->
<g id="edge27" class="edge">
<title>Node23&#45;&gt;Node24</title>
<path fill="none" stroke="midnightblue" d="M440.7,-179.23C422.98,-168.37 392.57,-149.72 371.66,-136.89"/>
<polygon fill="midnightblue" stroke="midnightblue" points="373.42,-133.87 363.07,-131.63 369.76,-139.84 373.42,-133.87"/>
</g>
<!-- Node23&#45;&gt;Node25 -->
<g id="edge29" class="edge">
<title>Node23&#45;&gt;Node25</title>
<path fill="none" stroke="midnightblue" d="M488.25,-179.46C504.64,-175.5 524.76,-171.02 543,-168 690.98,-143.51 732.29,-151.79 884.77,-132.09"/>
<polygon fill="midnightblue" stroke="midnightblue" points="885.51,-135.52 894.97,-130.75 884.6,-128.58 885.51,-135.52"/>
</g>
<!-- Node25&#45;&gt;Node7 -->
<g id="edge31" class="edge">
<title>Node25&#45;&gt;Node7</title>
<path fill="none" stroke="midnightblue" d="M941.01,-112.08C940.21,-104.93 939.07,-94.64 938.08,-85.69"/>
<polygon fill="midnightblue" stroke="midnightblue" points="941.56,-85.3 936.97,-75.75 934.6,-86.08 941.56,-85.3"/>
</g>
<!-- Node25&#45;&gt;Node8 -->
<g id="edge30" class="edge">
<title>Node25&#45;&gt;Node8</title>
<path fill="none" stroke="midnightblue" d="M894.98,-113.21C891.94,-112.78 888.93,-112.37 886,-112 736.63,-93.03 560.22,-78.54 468.15,-71.57"/>
<polygon fill="midnightblue" stroke="midnightblue" points="468.39,-68.08 458.15,-70.82 467.86,-75.06 468.39,-68.08"/>
</g>
<!-- Node25&#45;&gt;Node17 -->
<g id="edge32" class="edge">
<title>Node25&#45;&gt;Node17</title>
<path fill="none" stroke="midnightblue" d="M955.01,-112.32C967.53,-103.98 986.68,-91.21 1001.47,-81.35"/>
<polygon fill="midnightblue" stroke="midnightblue" points="1003.64,-84.11 1010.02,-75.65 999.76,-78.29 1003.64,-84.11"/>
</g>
<!-- Node26&#45;&gt;Node4 -->
<g id="edge36" class="edge">
<title>Node26&#45;&gt;Node4</title>
<path fill="none" stroke="midnightblue" d="M1006.4,-179.41C1032.74,-167.85 1076.25,-147.01 1085,-132 1094.11,-116.39 1095.7,-74.11 1079,-56 1054.76,-29.72 957.43,-18.47 895.28,-13.9"/>
<polygon fill="midnightblue" stroke="midnightblue" points="895.47,-10.41 885.25,-13.2 894.98,-17.39 895.47,-10.41"/>
</g>
<!-- Node26&#45;&gt;Node7 -->
<g id="edge38" class="edge">
<title>Node26&#45;&gt;Node7</title>
<path fill="none" stroke="midnightblue" d="M1009.02,-179.44C1040.14,-166.54 1089.5,-140.58 1069,-112 1065.93,-107.72 1006.24,-88.66 967.88,-76.77"/>
<polygon fill="midnightblue" stroke="midnightblue" points="968.75,-73.37 958.17,-73.76 966.69,-80.06 968.75,-73.37"/>
</g>
<!-- Node26&#45;&gt;Node8 -->
<g id="edge37" class="edge">
<title>Node26&#45;&gt;Node8</title>
<path fill="none" stroke="midnightblue" d="M991.28,-179.41C1000.13,-163.81 1015.34,-130.71 998,-112 962.55,-73.76 613.74,-67.85 468.24,-67.06"/>
<polygon fill="midnightblue" stroke="midnightblue" points="468.13,-63.56 458.12,-67.01 468.1,-70.56 468.13,-63.56"/>
</g>
<!-- Node26&#45;&gt;Node25 -->
<g id="edge39" class="edge">
<title>Node26&#45;&gt;Node25</title>
<path fill="none" stroke="midnightblue" d="M980.07,-179.23C973.27,-169.2 961.98,-152.51 953.45,-139.92"/>
<polygon fill="midnightblue" stroke="midnightblue" points="956.34,-137.95 947.84,-131.63 950.55,-141.87 956.34,-137.95"/>
</g>
<!-- Node28&#45;&gt;Node7 -->
<g id="edge46" class="edge">
<title>Node28&#45;&gt;Node7</title>
<path fill="none" stroke="midnightblue" d="M740.76,-168.35C750.3,-151.1 766.38,-126.55 787,-112 822.31,-87.08 871.65,-75.74 903.71,-70.73"/>
<polygon fill="midnightblue" stroke="midnightblue" points="904.48,-74.15 913.88,-69.26 903.48,-67.23 904.48,-74.15"/>
</g>
<!-- Node28&#45;&gt;Node16 -->
<g id="edge45" class="edge">
<title>Node28&#45;&gt;Node16</title>
<path fill="none" stroke="midnightblue" d="M767.6,-168.5C787.03,-158.15 810.4,-145.69 827.78,-136.43"/>
<polygon fill="midnightblue" stroke="midnightblue" points="829.58,-139.44 836.76,-131.65 826.29,-133.27 829.58,-139.44"/>
</g>
<!-- Node28&#45;&gt;Node17 -->
<g id="edge47" class="edge">
<title>Node28&#45;&gt;Node17</title>
<path fill="none" stroke="midnightblue" d="M808.52,-180C876.87,-171.5 969.87,-155.95 998,-132 1011.65,-120.38 1017.87,-100.43 1020.69,-85.69"/>
<polygon fill="midnightblue" stroke="midnightblue" points="1024.18,-86.07 1022.26,-75.65 1017.26,-85 1024.18,-86.07"/>
</g>
<!-- Node28&#45;&gt;Node22 -->
<g id="edge49" class="edge">
<title>Node28&#45;&gt;Node22</title>
<path fill="none" stroke="midnightblue" d="M693.8,-168.5C674.05,-158.15 650.29,-145.69 632.63,-136.43"/>
<polygon fill="midnightblue" stroke="midnightblue" points="633.99,-133.2 623.51,-131.65 630.74,-139.4 633.99,-133.2"/>
</g>
<!-- Node29 -->
<g id="node29" class="node">
<title>Node29</title>
<g id="a_node29"><a xlink:title=" ">
<polygon fill="white" stroke="#bfbfbf" points="649,-112.5 649,-131.5 735,-131.5 735,-112.5 649,-112.5"/>
<text text-anchor="middle" x="692" y="-119.5" font-family="Helvetica,sans-Serif" font-size="10.00">unordered_set</text>
</a>
</g>
</g>
<!-- Node28&#45;&gt;Node29 -->
<g id="edge48" class="edge">
<title>Node28&#45;&gt;Node29</title>
<path fill="none" stroke="midnightblue" d="M719.3,-168.5C713.95,-159.59 707.67,-149.11 702.48,-140.46"/>
<polygon fill="midnightblue" stroke="midnightblue" points="705.34,-138.43 697.19,-131.65 699.34,-142.03 705.34,-138.43"/>
</g>
<!-- Node30&#45;&gt;Node4 -->
<g id="edge51" class="edge">
<title>Node30&#45;&gt;Node4</title>
<path fill="none" stroke="midnightblue" d="M264.28,-179.46C363.93,-150.4 690.02,-55.32 803.02,-22.37"/>
<polygon fill="midnightblue" stroke="midnightblue" points="804.04,-25.71 812.66,-19.55 802.08,-18.99 804.04,-25.71"/>
</g>
<!-- Node30&#45;&gt;Node8 -->
<g id="edge54" class="edge">
<title>Node30&#45;&gt;Node8</title>
<path fill="none" stroke="midnightblue" d="M208.33,-179.41C172.69,-166.57 116.7,-140.79 141,-112 166.19,-82.16 272,-72.1 341.78,-68.72"/>
<polygon fill="midnightblue" stroke="midnightblue" points="341.96,-72.21 351.8,-68.26 341.65,-65.22 341.96,-72.21"/>
</g>
<!-- Node30&#45;&gt;Node24 -->
<g id="edge53" class="edge">
<title>Node30&#45;&gt;Node24</title>
<path fill="none" stroke="midnightblue" d="M250.37,-179.23C269.52,-168.32 302.44,-149.55 324.94,-136.72"/>
<polygon fill="midnightblue" stroke="midnightblue" points="326.92,-139.62 333.87,-131.63 323.45,-133.54 326.92,-139.62"/>
</g>
<!-- Node31 -->
<g id="node31" class="node">
<title>Node31</title>
<g id="a_node31"><a xlink:title=" ">
<polygon fill="white" stroke="#bfbfbf" points="150,-112.5 150,-131.5 264,-131.5 264,-112.5 150,-112.5"/>
<text text-anchor="middle" x="207" y="-119.5" font-family="Helvetica,sans-Serif" font-size="10.00">boost/operators.hpp</text>
</a>
</g>
</g>
<!-- Node30&#45;&gt;Node31 -->
<g id="edge52" class="edge">
<title>Node30&#45;&gt;Node31</title>
<path fill="none" stroke="midnightblue" d="M231.22,-179.23C227.03,-169.49 220.13,-153.48 214.77,-141.03"/>
<polygon fill="midnightblue" stroke="midnightblue" points="217.89,-139.43 210.72,-131.63 211.46,-142.2 217.89,-139.43"/>
</g>
</g>
</svg>
