<?xml version="1.0" encoding="UTF-8" standalone="no"?>
<!DOCTYPE svg PUBLIC "-//W3C//DTD SVG 1.1//EN"
 "http://www.w3.org/Graphics/SVG/1.1/DTD/svg11.dtd">
<!-- Generated by graphviz version 2.43.0 (0)
 -->
<!-- Title: /home/nico/projects/tmp&#45;joda&#45;dirs/JODA&#45;gh/libs/joda/core/modules/query/values/src/IValueProvider.cpp Pages: 1 -->
<!--zoomable 609 -->
<svg id="main" version="1.1" xmlns="http://www.w3.org/2000/svg" xmlns:xlink="http://www.w3.org/1999/xlink" xml:space="preserve" onload="init(evt)">
<style type="text/css"><![CDATA[
.edge:hover path { stroke: red; }
.edge:hover polygon { stroke: red; fill: red; }
]]></style>
<script type="text/javascript"><![CDATA[
var edges = document.getElementsByTagName('g');
if (edges && edges.length) {
  for (var i=0;i<edges.length;i++) {
    if (edges[i].id.substr(0,4)=='edge') {
      edges[i].setAttribute('class','edge');
    }
  }
}
]]></script>
        <defs>
                <circle id="rim" cx="0" cy="0" r="7"/>
                <circle id="rim2" cx="0" cy="0" r="3.5"/>
                <g id="zoomPlus">
                        <use xlink:href="#rim" fill="#404040">
                                <set attributeName="fill" to="#808080" begin="zoomplus.mouseover" end="zoomplus.mouseout"/>
                        </use>
                        <path d="M-4,0h8M0,-4v8" fill="none" stroke="white" stroke-width="1.5" pointer-events="none"/>
                </g>
                <g id="zoomMin">
                        <use xlink:href="#rim" fill="#404040">
                                <set attributeName="fill" to="#808080" begin="zoomminus.mouseover" end="zoomminus.mouseout"/>
                        </use>
                        <path d="M-4,0h8" fill="none" stroke="white" stroke-width="1.5" pointer-events="none"/>
                </g>
                <g id="dirArrow">
                        <path fill="none" stroke="white" stroke-width="1.5" d="M0,-3.0v7 M-2.5,-0.5L0,-3.0L2.5,-0.5"/>
                </g>
               <g id="resetDef">
                       <use xlink:href="#rim2" fill="#404040">
                               <set attributeName="fill" to="#808080" begin="reset.mouseover" end="reset.mouseout"/>
                       </use>
               </g>
        </defs>

<script type="text/javascript">
var viewWidth = 1665;
var viewHeight = 609;
var sectionId = 'dynsection-0';
</script>
<script xlink:href="../../svgpan.js"/>
<svg id="graph" class="graph">
<g id="viewport">
<title>/home/nico/projects/tmp&#45;joda&#45;dirs/JODA&#45;gh/libs/joda/core/modules/query/values/src/IValueProvider.cpp</title>
<polygon fill="white" stroke="transparent" points="-4,4 -4,-605 1660.5,-605 1660.5,4 -4,4"/>
<!-- Node1 -->
<g id="node1" class="node">
<title>Node1</title>
<g id="a_node1"><a xlink:title=" ">
<polygon fill="#bfbfbf" stroke="black" points="1173.5,-548.5 1173.5,-600.5 1366.5,-600.5 1366.5,-548.5 1173.5,-548.5"/>
<text text-anchor="start" x="1181.5" y="-588.5" font-family="Helvetica,sans-Serif" font-size="10.00">/home/nico/projects</text>
<text text-anchor="start" x="1181.5" y="-577.5" font-family="Helvetica,sans-Serif" font-size="10.00">/tmp&#45;joda&#45;dirs/JODA</text>
<text text-anchor="start" x="1181.5" y="-566.5" font-family="Helvetica,sans-Serif" font-size="10.00">&#45;gh/libs/joda/core/modules</text>
<text text-anchor="middle" x="1270" y="-555.5" font-family="Helvetica,sans-Serif" font-size="10.00">/query/values/src/IValueProvider.cpp</text>
</a>
</g>
</g>
<!-- Node2 -->
<g id="node2" class="node">
<title>Node2</title>
<g id="a_node2"><a xlink:href="../../dd/d50/IValueProvider_8h.html" target="_top" xlink:title=" ">
<polygon fill="white" stroke="black" points="1101,-425.5 1101,-455.5 1235,-455.5 1235,-425.5 1101,-425.5"/>
<text text-anchor="start" x="1109" y="-443.5" font-family="Helvetica,sans-Serif" font-size="10.00">../include/joda/query</text>
<text text-anchor="middle" x="1168" y="-432.5" font-family="Helvetica,sans-Serif" font-size="10.00">/values/IValueProvider.h</text>
</a>
</g>
</g>
<!-- Node1&#45;&gt;Node2 -->
<g id="edge1" class="edge">
<title>Node1&#45;&gt;Node2</title>
<path fill="none" stroke="midnightblue" d="M1268.76,-548.25C1266.8,-530.99 1261.93,-508.37 1250,-492 1240.39,-478.81 1226.18,-468.34 1212.29,-460.42"/>
<polygon fill="midnightblue" stroke="midnightblue" points="1213.72,-457.22 1203.25,-455.59 1210.42,-463.39 1213.72,-457.22"/>
</g>
<!-- Node3 -->
<g id="node3" class="node">
<title>Node3</title>
<g id="a_node3"><a xlink:title=" ">
<polygon fill="white" stroke="#bfbfbf" points="52,-0.5 52,-19.5 138,-19.5 138,-0.5 52,-0.5"/>
<text text-anchor="middle" x="95" y="-7.5" font-family="Helvetica,sans-Serif" font-size="10.00">glog/logging.h</text>
</a>
</g>
</g>
<!-- Node1&#45;&gt;Node3 -->
<g id="edge63" class="edge">
<title>Node1&#45;&gt;Node3</title>
<path fill="none" stroke="midnightblue" d="M1173.24,-573.56C876.61,-572.5 0,-559.37 0,-441.5 0,-441.5 0,-441.5 0,-121 0,-77.74 42.61,-43.09 70.75,-24.91"/>
<polygon fill="midnightblue" stroke="midnightblue" points="72.66,-27.85 79.31,-19.6 68.97,-21.9 72.66,-27.85"/>
</g>
<!-- Node34 -->
<g id="node34" class="node">
<title>Node34</title>
<g id="a_node34"><a xlink:href="../../d1/def/AtomProvider_8h.html" target="_top" xlink:title=" ">
<polygon fill="white" stroke="black" points="1298,-492.5 1298,-511.5 1480,-511.5 1480,-492.5 1298,-492.5"/>
<text text-anchor="middle" x="1389" y="-499.5" font-family="Helvetica,sans-Serif" font-size="10.00">joda/query/values/AtomProvider.h</text>
</a>
</g>
</g>
<!-- Node1&#45;&gt;Node34 -->
<g id="edge64" class="edge">
<title>Node1&#45;&gt;Node34</title>
<path fill="none" stroke="midnightblue" d="M1312.29,-548.45C1330.33,-537.76 1350.67,-525.71 1365.87,-516.7"/>
<polygon fill="midnightblue" stroke="midnightblue" points="1367.79,-519.64 1374.61,-511.53 1364.22,-513.61 1367.79,-519.64"/>
</g>
<!-- Node35 -->
<g id="node35" class="node">
<title>Node35</title>
<g id="a_node35"><a xlink:href="../../de/d27/NullProvider_8h.html" target="_top" xlink:title=" ">
<polygon fill="white" stroke="black" points="1066.5,-492.5 1066.5,-511.5 1241.5,-511.5 1241.5,-492.5 1066.5,-492.5"/>
<text text-anchor="middle" x="1154" y="-499.5" font-family="Helvetica,sans-Serif" font-size="10.00">joda/query/values/NullProvider.h</text>
</a>
</g>
</g>
<!-- Node1&#45;&gt;Node35 -->
<g id="edge68" class="edge">
<title>Node1&#45;&gt;Node35</title>
<path fill="none" stroke="midnightblue" d="M1228.78,-548.45C1211.36,-537.86 1191.74,-525.94 1176.97,-516.96"/>
<polygon fill="midnightblue" stroke="midnightblue" points="1178.39,-513.73 1168.03,-511.53 1174.76,-519.71 1178.39,-513.73"/>
</g>
<!-- Node36 -->
<g id="node36" class="node">
<title>Node36</title>
<g id="a_node36"><a xlink:href="../../d9/dde/infix__iterator_8h.html" target="_top" xlink:title=" ">
<polygon fill="white" stroke="black" points="1498.5,-492.5 1498.5,-511.5 1635.5,-511.5 1635.5,-492.5 1498.5,-492.5"/>
<text text-anchor="middle" x="1567" y="-499.5" font-family="Helvetica,sans-Serif" font-size="10.00">joda/misc/infix_iterator.h</text>
</a>
</g>
</g>
<!-- Node1&#45;&gt;Node36 -->
<g id="edge70" class="edge">
<title>Node1&#45;&gt;Node36</title>
<path fill="none" stroke="midnightblue" d="M1366.84,-550.51C1418.65,-538.21 1480.04,-523.64 1521.05,-513.91"/>
<polygon fill="midnightblue" stroke="midnightblue" points="1522.09,-517.26 1531.02,-511.54 1520.48,-510.45 1522.09,-517.26"/>
</g>
<!-- Node2&#45;&gt;Node3 -->
<g id="edge2" class="edge">
<title>Node2&#45;&gt;Node3</title>
<path fill="none" stroke="midnightblue" d="M1100.93,-439.64C907.91,-439.5 353.68,-434.97 179,-389 111.24,-371.17 38,-388.56 38,-318.5 38,-318.5 38,-318.5 38,-121 38,-84.3 63.32,-47.66 80.21,-27.3"/>
<polygon fill="midnightblue" stroke="midnightblue" points="82.95,-29.48 86.83,-19.62 77.65,-24.9 82.95,-29.48"/>
</g>
<!-- Node4 -->
<g id="node4" class="node">
<title>Node4</title>
<g id="a_node4"><a xlink:title=" ">
<polygon fill="white" stroke="#bfbfbf" points="405,-0.5 405,-19.5 527,-19.5 527,-0.5 405,-0.5"/>
<text text-anchor="middle" x="466" y="-7.5" font-family="Helvetica,sans-Serif" font-size="10.00">rapidjson/document.h</text>
</a>
</g>
</g>
<!-- Node2&#45;&gt;Node4 -->
<g id="edge3" class="edge">
<title>Node2&#45;&gt;Node4</title>
<path fill="none" stroke="midnightblue" d="M1100.98,-437.86C900.89,-432.67 316.65,-415.43 235,-389 191.25,-374.84 172.95,-371.63 148,-333 93.08,-247.98 122.85,-173.82 203,-112 243.33,-80.89 255.88,-75.36 303,-56 339.3,-41.08 382.13,-29.48 414.78,-21.79"/>
<polygon fill="midnightblue" stroke="midnightblue" points="415.61,-25.19 424.56,-19.53 414.03,-18.37 415.61,-25.19"/>
</g>
<!-- Node5 -->
<g id="node5" class="node">
<title>Node5</title>
<g id="a_node5"><a xlink:title=" ">
<polygon fill="white" stroke="#bfbfbf" points="1374.5,-0.5 1374.5,-19.5 1465.5,-19.5 1465.5,-0.5 1374.5,-0.5"/>
<text text-anchor="middle" x="1420" y="-7.5" font-family="Helvetica,sans-Serif" font-size="10.00">rapidjson/fwd.h</text>
</a>
</g>
</g>
<!-- Node2&#45;&gt;Node5 -->
<g id="edge4" class="edge">
<title>Node2&#45;&gt;Node5</title>
<path fill="none" stroke="midnightblue" d="M1235.34,-437.67C1315.6,-431.49 1439,-407.51 1439,-318.5 1439,-318.5 1439,-318.5 1439,-121 1439,-88.49 1430.84,-51.35 1425.22,-29.61"/>
<polygon fill="midnightblue" stroke="midnightblue" points="1428.54,-28.5 1422.56,-19.75 1421.78,-30.32 1428.54,-28.5"/>
</g>
<!-- Node6 -->
<g id="node6" class="node">
<title>Node6</title>
<g id="a_node6"><a xlink:title=" ">
<polygon fill="white" stroke="#bfbfbf" points="1144.5,-369.5 1144.5,-388.5 1191.5,-388.5 1191.5,-369.5 1144.5,-369.5"/>
<text text-anchor="middle" x="1168" y="-376.5" font-family="Helvetica,sans-Serif" font-size="10.00">cmath</text>
</a>
</g>
</g>
<!-- Node2&#45;&gt;Node6 -->
<g id="edge5" class="edge">
<title>Node2&#45;&gt;Node6</title>
<path fill="none" stroke="midnightblue" d="M1168,-425.4C1168,-417.47 1168,-407.46 1168,-398.86"/>
<polygon fill="midnightblue" stroke="midnightblue" points="1171.5,-398.66 1168,-388.66 1164.5,-398.66 1171.5,-398.66"/>
</g>
<!-- Node7 -->
<g id="node7" class="node">
<title>Node7</title>
<g id="a_node7"><a xlink:title=" ">
<polygon fill="white" stroke="#bfbfbf" points="1209.5,-369.5 1209.5,-388.5 1334.5,-388.5 1334.5,-369.5 1209.5,-369.5"/>
<text text-anchor="middle" x="1272" y="-376.5" font-family="Helvetica,sans-Serif" font-size="10.00">experimental/optional</text>
</a>
</g>
</g>
<!-- Node2&#45;&gt;Node7 -->
<g id="edge6" class="edge">
<title>Node2&#45;&gt;Node7</title>
<path fill="none" stroke="midnightblue" d="M1192.65,-425.4C1209.32,-415.86 1231.23,-403.32 1247.81,-393.84"/>
<polygon fill="midnightblue" stroke="midnightblue" points="1249.93,-396.66 1256.87,-388.66 1246.45,-390.59 1249.93,-396.66"/>
</g>
<!-- Node8 -->
<g id="node8" class="node">
<title>Node8</title>
<g id="a_node8"><a xlink:title=" ">
<polygon fill="white" stroke="#bfbfbf" points="1220,-112.5 1220,-131.5 1278,-131.5 1278,-112.5 1220,-112.5"/>
<text text-anchor="middle" x="1249" y="-119.5" font-family="Helvetica,sans-Serif" font-size="10.00">memory</text>
</a>
</g>
</g>
<!-- Node2&#45;&gt;Node8 -->
<g id="edge7" class="edge">
<title>Node2&#45;&gt;Node8</title>
<path fill="none" stroke="midnightblue" d="M1235.04,-428.69C1278.6,-420.13 1329.69,-406.69 1343,-389 1404.13,-307.73 1304.28,-183.32 1264.35,-139.2"/>
<polygon fill="midnightblue" stroke="midnightblue" points="1266.79,-136.68 1257.44,-131.71 1261.65,-141.43 1266.79,-136.68"/>
</g>
<!-- Node9 -->
<g id="node9" class="node">
<title>Node9</title>
<g id="a_node9"><a xlink:title=" ">
<polygon fill="white" stroke="#bfbfbf" points="312,-56.5 312,-75.5 356,-75.5 356,-56.5 312,-56.5"/>
<text text-anchor="middle" x="334" y="-63.5" font-family="Helvetica,sans-Serif" font-size="10.00">string</text>
</a>
</g>
</g>
<!-- Node2&#45;&gt;Node9 -->
<g id="edge8" class="edge">
<title>Node2&#45;&gt;Node9</title>
<path fill="none" stroke="midnightblue" d="M1100.94,-438.58C874.47,-434.59 152,-414.37 152,-318.5 152,-318.5 152,-318.5 152,-255 152,-215.42 148.15,-200.31 171,-168 203.73,-121.72 265.04,-92.32 302.42,-77.82"/>
<polygon fill="midnightblue" stroke="midnightblue" points="303.7,-81.08 311.84,-74.29 301.24,-74.52 303.7,-81.08"/>
</g>
<!-- Node10 -->
<g id="node10" class="node">
<title>Node10</title>
<g id="a_node10"><a xlink:href="../../d1/dfd/RapidJsonDocument_8h.html" target="_top" xlink:title=" ">
<polygon fill="white" stroke="black" points="926,-369.5 926,-388.5 1126,-388.5 1126,-369.5 926,-369.5"/>
<text text-anchor="middle" x="1026" y="-376.5" font-family="Helvetica,sans-Serif" font-size="10.00">joda/document/RapidJsonDocument.h</text>
</a>
</g>
</g>
<!-- Node2&#45;&gt;Node10 -->
<g id="edge9" class="edge">
<title>Node2&#45;&gt;Node10</title>
<path fill="none" stroke="midnightblue" d="M1134.35,-425.4C1110.52,-415.42 1078.85,-402.15 1055.91,-392.53"/>
<polygon fill="midnightblue" stroke="midnightblue" points="1057.24,-389.29 1046.66,-388.66 1054.53,-395.75 1057.24,-389.29"/>
</g>
<!-- Node10&#45;&gt;Node5 -->
<g id="edge48" class="edge">
<title>Node10&#45;&gt;Node5</title>
<path fill="none" stroke="midnightblue" d="M1098.84,-369.49C1136.48,-363.05 1182.31,-351.94 1220,-333 1261.14,-312.33 1270.83,-302.42 1299,-266 1359.8,-187.39 1400.21,-73.29 1414.37,-29.27"/>
<polygon fill="midnightblue" stroke="midnightblue" points="1417.74,-30.24 1417.41,-19.65 1411.06,-28.14 1417.74,-30.24"/>
</g>
<!-- Node10&#45;&gt;Node8 -->
<g id="edge50" class="edge">
<title>Node10&#45;&gt;Node8</title>
<path fill="none" stroke="midnightblue" d="M1039.18,-369.18C1051.45,-360.66 1069.9,-347.02 1084,-333 1149.21,-268.19 1212.39,-177.8 1237.56,-140.33"/>
<polygon fill="midnightblue" stroke="midnightblue" points="1240.74,-141.87 1243.38,-131.61 1234.92,-137.99 1240.74,-141.87"/>
</g>
<!-- Node11 -->
<g id="node11" class="node">
<title>Node11</title>
<g id="a_node11"><a xlink:href="../../d2/d0d/ViewLayer_8h.html" target="_top" xlink:title=" ">
<polygon fill="white" stroke="black" points="584,-302.5 584,-332.5 700,-332.5 700,-302.5 584,-302.5"/>
<text text-anchor="start" x="592" y="-320.5" font-family="Helvetica,sans-Serif" font-size="10.00">joda/document/view</text>
<text text-anchor="middle" x="642" y="-309.5" font-family="Helvetica,sans-Serif" font-size="10.00">/ViewLayer.h</text>
</a>
</g>
</g>
<!-- Node10&#45;&gt;Node11 -->
<g id="edge10" class="edge">
<title>Node10&#45;&gt;Node11</title>
<path fill="none" stroke="midnightblue" d="M970.98,-369.48C902.25,-358.83 784.66,-340.61 710.26,-329.08"/>
<polygon fill="midnightblue" stroke="midnightblue" points="710.48,-325.57 700.06,-327.5 709.4,-332.49 710.48,-325.57"/>
</g>
<!-- Node14 -->
<g id="node14" class="node">
<title>Node14</title>
<g id="a_node14"><a xlink:href="../../d6/d09/RJFwd_8h.html" target="_top" xlink:title=" ">
<polygon fill="white" stroke="black" points="750,-56.5 750,-75.5 856,-75.5 856,-56.5 750,-56.5"/>
<text text-anchor="middle" x="803" y="-63.5" font-family="Helvetica,sans-Serif" font-size="10.00">joda/misc/RJFwd.h</text>
</a>
</g>
</g>
<!-- Node10&#45;&gt;Node14 -->
<g id="edge62" class="edge">
<title>Node10&#45;&gt;Node14</title>
<path fill="none" stroke="midnightblue" d="M1046.76,-369.5C1123.58,-336.94 1382.44,-216.72 1287,-112 1259.18,-81.48 990.93,-71.32 866.19,-68.23"/>
<polygon fill="midnightblue" stroke="midnightblue" points="866.1,-64.73 856.02,-67.99 865.93,-71.73 866.1,-64.73"/>
</g>
<!-- Node15 -->
<g id="node15" class="node">
<title>Node15</title>
<g id="a_node15"><a xlink:title=" ">
<polygon fill="white" stroke="#bfbfbf" points="1013,-0.5 1013,-19.5 1135,-19.5 1135,-0.5 1013,-0.5"/>
<text text-anchor="middle" x="1074" y="-7.5" font-family="Helvetica,sans-Serif" font-size="10.00">rapidjson/allocators.h</text>
</a>
</g>
</g>
<!-- Node10&#45;&gt;Node15 -->
<g id="edge47" class="edge">
<title>Node10&#45;&gt;Node15</title>
<path fill="none" stroke="midnightblue" d="M1070.3,-369.44C1140.44,-353.04 1273.03,-309.55 1311,-210 1315.05,-199.39 1308.41,-112.58 1308,-112 1270.86,-58.68 1199.32,-33.3 1145.08,-21.35"/>
<polygon fill="midnightblue" stroke="midnightblue" points="1145.67,-17.89 1135.16,-19.27 1144.23,-24.74 1145.67,-17.89"/>
</g>
<!-- Node29 -->
<g id="node29" class="node">
<title>Node29</title>
<g id="a_node29"><a xlink:title=" ">
<polygon fill="white" stroke="#bfbfbf" points="1001,-308 1001,-327 1051,-327 1051,-308 1001,-308"/>
<text text-anchor="middle" x="1026" y="-315" font-family="Helvetica,sans-Serif" font-size="10.00">atomic</text>
</a>
</g>
</g>
<!-- Node10&#45;&gt;Node29 -->
<g id="edge49" class="edge">
<title>Node10&#45;&gt;Node29</title>
<path fill="none" stroke="midnightblue" d="M1026,-369.48C1026,-361.08 1026,-347.98 1026,-337.16"/>
<polygon fill="midnightblue" stroke="midnightblue" points="1029.5,-337.01 1026,-327.01 1022.5,-337.01 1029.5,-337.01"/>
</g>
<!-- Node30 -->
<g id="node30" class="node">
<title>Node30</title>
<g id="a_node30"><a xlink:href="../../df/d13/FileNameRepo_8h.html" target="_top" xlink:title=" ">
<polygon fill="white" stroke="black" points="872.5,-168.5 872.5,-209.5 1027.5,-209.5 1027.5,-168.5 872.5,-168.5"/>
<text text-anchor="start" x="880.5" y="-197.5" font-family="Helvetica,sans-Serif" font-size="10.00">../../../../../misc</text>
<text text-anchor="start" x="880.5" y="-186.5" font-family="Helvetica,sans-Serif" font-size="10.00">/include/joda/misc/FileName</text>
<text text-anchor="middle" x="950" y="-175.5" font-family="Helvetica,sans-Serif" font-size="10.00">Repo.h</text>
</a>
</g>
</g>
<!-- Node10&#45;&gt;Node30 -->
<g id="edge51" class="edge">
<title>Node10&#45;&gt;Node30</title>
<path fill="none" stroke="midnightblue" d="M1017.93,-369.34C1010.28,-360.72 998.96,-346.82 992,-333 973.45,-296.15 961.72,-249.74 955.5,-219.97"/>
<polygon fill="midnightblue" stroke="midnightblue" points="958.86,-218.92 953.46,-209.8 952,-220.29 958.86,-218.92"/>
</g>
<!-- Node32 -->
<g id="node32" class="node">
<title>Node32</title>
<g id="a_node32"><a xlink:href="../../d5/d6c/IOrigin_8h.html" target="_top" xlink:title=" ">
<polygon fill="white" stroke="black" points="1109,-179.5 1109,-198.5 1167,-198.5 1167,-179.5 1109,-179.5"/>
<text text-anchor="middle" x="1138" y="-186.5" font-family="Helvetica,sans-Serif" font-size="10.00">IOrigin.h</text>
</a>
</g>
</g>
<!-- Node10&#45;&gt;Node32 -->
<g id="edge57" class="edge">
<title>Node10&#45;&gt;Node32</title>
<path fill="none" stroke="midnightblue" d="M1033.17,-369.31C1040.35,-360.45 1051.5,-346.16 1060,-333 1088.01,-289.6 1115.76,-235.33 1129.36,-207.8"/>
<polygon fill="midnightblue" stroke="midnightblue" points="1132.59,-209.15 1133.85,-198.63 1126.31,-206.07 1132.59,-209.15"/>
</g>
<!-- Node11&#45;&gt;Node3 -->
<g id="edge11" class="edge">
<title>Node11&#45;&gt;Node3</title>
<path fill="none" stroke="midnightblue" d="M583.6,-316.69C477.54,-315.95 258.65,-309.06 198,-266 117.63,-208.94 99.9,-78.07 96.05,-29.55"/>
<polygon fill="midnightblue" stroke="midnightblue" points="99.54,-29.28 95.37,-19.55 92.56,-29.76 99.54,-29.28"/>
</g>
<!-- Node12 -->
<g id="node12" class="node">
<title>Node12</title>
<g id="a_node12"><a xlink:href="../../db/d16/config_8h.html" target="_top" xlink:title=" ">
<polygon fill="white" stroke="black" points="218.5,-246.5 218.5,-265.5 329.5,-265.5 329.5,-246.5 218.5,-246.5"/>
<text text-anchor="middle" x="274" y="-253.5" font-family="Helvetica,sans-Serif" font-size="10.00">joda/config/config.h</text>
</a>
</g>
</g>
<!-- Node11&#45;&gt;Node12 -->
<g id="edge12" class="edge">
<title>Node11&#45;&gt;Node12</title>
<path fill="none" stroke="midnightblue" d="M583.69,-307.07C516.27,-296.17 405.74,-278.3 336.57,-267.12"/>
<polygon fill="midnightblue" stroke="midnightblue" points="337.1,-263.66 326.67,-265.52 335.99,-270.57 337.1,-263.66"/>
</g>
<!-- Node11&#45;&gt;Node14 -->
<g id="edge15" class="edge">
<title>Node11&#45;&gt;Node14</title>
<path fill="none" stroke="midnightblue" d="M700.12,-311.31C758.62,-304.74 842.97,-291.12 863,-266 868.54,-259.05 866.51,-254.17 863,-246 853.81,-224.63 841.11,-226.79 825,-210 793.16,-176.81 773.14,-175.07 757,-132 753.88,-123.68 753.55,-120.19 757,-112 762.03,-100.05 771.94,-89.69 781.29,-81.93"/>
<polygon fill="midnightblue" stroke="midnightblue" points="783.44,-84.69 789.21,-75.81 779.16,-79.15 783.44,-84.69"/>
</g>
<!-- Node18 -->
<g id="node18" class="node">
<title>Node18</title>
<g id="a_node18"><a xlink:title=" ">
<polygon fill="white" stroke="#bfbfbf" points="386.5,-246.5 386.5,-265.5 515.5,-265.5 515.5,-246.5 386.5,-246.5"/>
<text text-anchor="middle" x="451" y="-253.5" font-family="Helvetica,sans-Serif" font-size="10.00">rapidjson/stringbuffer.h</text>
</a>
</g>
</g>
<!-- Node11&#45;&gt;Node18 -->
<g id="edge22" class="edge">
<title>Node11&#45;&gt;Node18</title>
<path fill="none" stroke="midnightblue" d="M596.74,-302.4C563.59,-292.07 519.15,-278.23 488.1,-268.56"/>
<polygon fill="midnightblue" stroke="midnightblue" points="489.1,-265.2 478.51,-265.57 487.02,-271.89 489.1,-265.2"/>
</g>
<!-- Node19 -->
<g id="node19" class="node">
<title>Node19</title>
<g id="a_node19"><a xlink:title=" ">
<polygon fill="white" stroke="#bfbfbf" points="534,-246.5 534,-265.5 598,-265.5 598,-246.5 534,-246.5"/>
<text text-anchor="middle" x="566" y="-253.5" font-family="Helvetica,sans-Serif" font-size="10.00">algorithm</text>
</a>
</g>
</g>
<!-- Node11&#45;&gt;Node19 -->
<g id="edge23" class="edge">
<title>Node11&#45;&gt;Node19</title>
<path fill="none" stroke="midnightblue" d="M623.99,-302.4C612.26,-293.22 596.98,-281.26 585.06,-271.92"/>
<polygon fill="midnightblue" stroke="midnightblue" points="587.09,-269.07 577.06,-265.66 582.78,-274.58 587.09,-269.07"/>
</g>
<!-- Node20 -->
<g id="node20" class="node">
<title>Node20</title>
<g id="a_node20"><a xlink:title=" ">
<polygon fill="white" stroke="#bfbfbf" points="766,-112.5 766,-131.5 814,-131.5 814,-112.5 766,-112.5"/>
<text text-anchor="middle" x="790" y="-119.5" font-family="Helvetica,sans-Serif" font-size="10.00">mutex</text>
</a>
</g>
</g>
<!-- Node11&#45;&gt;Node20 -->
<g id="edge24" class="edge">
<title>Node11&#45;&gt;Node20</title>
<path fill="none" stroke="midnightblue" d="M700.23,-313.26C767.4,-308.15 871.72,-295.58 896,-266 901.64,-259.13 899.22,-254.28 896,-246 888.13,-225.77 877.31,-226.32 863,-210 841.85,-185.89 818.11,-157.3 803.61,-139.65"/>
<polygon fill="midnightblue" stroke="midnightblue" points="805.97,-137.02 796.93,-131.5 800.56,-141.45 805.97,-137.02"/>
</g>
<!-- Node21 -->
<g id="node21" class="node">
<title>Node21</title>
<g id="a_node21"><a xlink:title=" ">
<polygon fill="white" stroke="#bfbfbf" points="474.5,-56.5 474.5,-75.5 567.5,-75.5 567.5,-56.5 474.5,-56.5"/>
<text text-anchor="middle" x="521" y="-63.5" font-family="Helvetica,sans-Serif" font-size="10.00">unordered_map</text>
</a>
</g>
</g>
<!-- Node11&#45;&gt;Node21 -->
<g id="edge25" class="edge">
<title>Node11&#45;&gt;Node21</title>
<path fill="none" stroke="midnightblue" d="M583.73,-313.8C513.8,-309.2 402.71,-297.08 377,-266 371.33,-259.15 374.45,-254.52 377,-246 397.41,-177.74 417.09,-164.74 465,-112 475.32,-100.64 488.67,-89.8 499.74,-81.6"/>
<polygon fill="midnightblue" stroke="midnightblue" points="501.95,-84.32 508.03,-75.64 497.87,-78.64 501.95,-84.32"/>
</g>
<!-- Node22 -->
<g id="node22" class="node">
<title>Node22</title>
<g id="a_node22"><a xlink:title=" ">
<polygon fill="white" stroke="#bfbfbf" points="616.5,-246.5 616.5,-265.5 667.5,-265.5 667.5,-246.5 616.5,-246.5"/>
<text text-anchor="middle" x="642" y="-253.5" font-family="Helvetica,sans-Serif" font-size="10.00">variant</text>
</a>
</g>
</g>
<!-- Node11&#45;&gt;Node22 -->
<g id="edge26" class="edge">
<title>Node11&#45;&gt;Node22</title>
<path fill="none" stroke="midnightblue" d="M642,-302.4C642,-294.47 642,-284.46 642,-275.86"/>
<polygon fill="midnightblue" stroke="midnightblue" points="645.5,-275.66 642,-265.66 638.5,-275.66 645.5,-275.66"/>
</g>
<!-- Node23 -->
<g id="node23" class="node">
<title>Node23</title>
<g id="a_node23"><a xlink:href="../../da/d3b/ObjectIterator_8h.html" target="_top" xlink:title=" ">
<polygon fill="white" stroke="black" points="762,-246.5 762,-265.5 854,-265.5 854,-246.5 762,-246.5"/>
<text text-anchor="middle" x="808" y="-253.5" font-family="Helvetica,sans-Serif" font-size="10.00">ObjectIterator.h</text>
</a>
</g>
</g>
<!-- Node11&#45;&gt;Node23 -->
<g id="edge27" class="edge">
<title>Node11&#45;&gt;Node23</title>
<path fill="none" stroke="midnightblue" d="M681.34,-302.4C709.56,-292.28 747.21,-278.79 774.1,-269.15"/>
<polygon fill="midnightblue" stroke="midnightblue" points="775.61,-272.33 783.85,-265.66 773.25,-265.74 775.61,-272.33"/>
</g>
<!-- Node26 -->
<g id="node26" class="node">
<title>Node26</title>
<g id="a_node26"><a xlink:href="../../d5/de2/ViewCursor_8h.html" target="_top" xlink:title=" ">
<polygon fill="white" stroke="black" points="647,-179.5 647,-198.5 727,-198.5 727,-179.5 647,-179.5"/>
<text text-anchor="middle" x="687" y="-186.5" font-family="Helvetica,sans-Serif" font-size="10.00">ViewCursor.h</text>
</a>
</g>
</g>
<!-- Node11&#45;&gt;Node26 -->
<g id="edge40" class="edge">
<title>Node11&#45;&gt;Node26</title>
<path fill="none" stroke="midnightblue" d="M672.12,-302.44C686.38,-294.05 702.01,-281.9 710,-266 719.54,-247.03 709.27,-223.37 699.58,-207.54"/>
<polygon fill="midnightblue" stroke="midnightblue" points="702.24,-205.21 693.8,-198.8 696.4,-209.07 702.24,-205.21"/>
</g>
<!-- Node27 -->
<g id="node27" class="node">
<title>Node27</title>
<g id="a_node27"><a xlink:href="../../d0/d10/ViewStructure_8h.html" target="_top" xlink:title=" ">
<polygon fill="white" stroke="black" points="474,-112.5 474,-131.5 568,-131.5 568,-112.5 474,-112.5"/>
<text text-anchor="middle" x="521" y="-119.5" font-family="Helvetica,sans-Serif" font-size="10.00">ViewStructure.h</text>
</a>
</g>
</g>
<!-- Node11&#45;&gt;Node27 -->
<g id="edge41" class="edge">
<title>Node11&#45;&gt;Node27</title>
<path fill="none" stroke="midnightblue" d="M656.75,-302.45C669.81,-288.22 685.46,-265.58 676,-246 675.07,-244.07 581.19,-170.24 540,-137.91"/>
<polygon fill="midnightblue" stroke="midnightblue" points="542.09,-135.1 532.07,-131.68 537.77,-140.61 542.09,-135.1"/>
</g>
<!-- Node28 -->
<g id="node28" class="node">
<title>Node28</title>
<g id="a_node28"><a xlink:href="../../d8/dee/VirtualObject_8h.html" target="_top" xlink:title=" ">
<polygon fill="white" stroke="black" points="180.5,-179.5 180.5,-198.5 269.5,-198.5 269.5,-179.5 180.5,-179.5"/>
<text text-anchor="middle" x="225" y="-186.5" font-family="Helvetica,sans-Serif" font-size="10.00">VirtualObject.h</text>
</a>
</g>
</g>
<!-- Node11&#45;&gt;Node28 -->
<g id="edge42" class="edge">
<title>Node11&#45;&gt;Node28</title>
<path fill="none" stroke="midnightblue" d="M583.71,-313.94C471.31,-308.4 233.5,-293.52 209,-266 194.76,-250 204.35,-224.6 213.68,-207.62"/>
<polygon fill="midnightblue" stroke="midnightblue" points="216.86,-209.12 218.96,-198.73 210.84,-205.54 216.86,-209.12"/>
</g>
<!-- Node12&#45;&gt;Node9 -->
<g id="edge14" class="edge">
<title>Node12&#45;&gt;Node9</title>
<path fill="none" stroke="midnightblue" d="M276.73,-246.43C285.87,-217.81 315.48,-125.03 328.16,-85.31"/>
<polygon fill="midnightblue" stroke="midnightblue" points="331.54,-86.21 331.25,-75.62 324.88,-84.08 331.54,-86.21"/>
</g>
<!-- Node13 -->
<g id="node13" class="node">
<title>Node13</title>
<g id="a_node13"><a xlink:title=" ">
<polygon fill="white" stroke="#bfbfbf" points="326,-179.5 326,-198.5 380,-198.5 380,-179.5 326,-179.5"/>
<text text-anchor="middle" x="353" y="-186.5" font-family="Helvetica,sans-Serif" font-size="10.00">istream</text>
</a>
</g>
</g>
<!-- Node12&#45;&gt;Node13 -->
<g id="edge13" class="edge">
<title>Node12&#45;&gt;Node13</title>
<path fill="none" stroke="midnightblue" d="M284.65,-246.23C297.45,-235.71 319.12,-217.88 334.63,-205.12"/>
<polygon fill="midnightblue" stroke="midnightblue" points="337.02,-207.68 342.51,-198.63 332.57,-202.28 337.02,-207.68"/>
</g>
<!-- Node14&#45;&gt;Node3 -->
<g id="edge16" class="edge">
<title>Node14&#45;&gt;Node3</title>
<path fill="none" stroke="midnightblue" d="M749.64,-57.52C745.03,-56.97 740.44,-56.45 736,-56 518.56,-33.79 258.48,-19.22 148.4,-13.6"/>
<polygon fill="midnightblue" stroke="midnightblue" points="148.39,-10.1 138.22,-13.09 148.03,-17.09 148.39,-10.1"/>
</g>
<!-- Node14&#45;&gt;Node4 -->
<g id="edge18" class="edge">
<title>Node14&#45;&gt;Node4</title>
<path fill="none" stroke="midnightblue" d="M749.97,-56.5C690.15,-46.92 592.91,-31.34 529.2,-21.13"/>
<polygon fill="midnightblue" stroke="midnightblue" points="529.7,-17.66 519.27,-19.54 528.59,-24.57 529.7,-17.66"/>
</g>
<!-- Node14&#45;&gt;Node5 -->
<g id="edge19" class="edge">
<title>Node14&#45;&gt;Node5</title>
<path fill="none" stroke="midnightblue" d="M856.14,-60.35C971.91,-50.22 1245.96,-26.23 1364.15,-15.89"/>
<polygon fill="midnightblue" stroke="midnightblue" points="1364.76,-19.35 1374.42,-14.99 1364.15,-12.37 1364.76,-19.35"/>
</g>
<!-- Node14&#45;&gt;Node15 -->
<g id="edge17" class="edge">
<title>Node14&#45;&gt;Node15</title>
<path fill="none" stroke="midnightblue" d="M845.94,-56.44C893.51,-46.96 970.24,-31.67 1021.39,-21.48"/>
<polygon fill="midnightblue" stroke="midnightblue" points="1022.14,-24.9 1031.26,-19.52 1020.77,-18.04 1022.14,-24.9"/>
</g>
<!-- Node16 -->
<g id="node16" class="node">
<title>Node16</title>
<g id="a_node16"><a xlink:title=" ">
<polygon fill="white" stroke="#bfbfbf" points="655,-0.5 655,-19.5 805,-19.5 805,-0.5 655,-0.5"/>
<text text-anchor="middle" x="730" y="-7.5" font-family="Helvetica,sans-Serif" font-size="10.00">rapidjson/istreamwrapper.h</text>
</a>
</g>
</g>
<!-- Node14&#45;&gt;Node16 -->
<g id="edge20" class="edge">
<title>Node14&#45;&gt;Node16</title>
<path fill="none" stroke="midnightblue" d="M791.27,-56.32C780.16,-48.11 763.26,-35.6 750.02,-25.81"/>
<polygon fill="midnightblue" stroke="midnightblue" points="752.06,-22.97 741.94,-19.83 747.9,-28.59 752.06,-22.97"/>
</g>
<!-- Node17 -->
<g id="node17" class="node">
<title>Node17</title>
<g id="a_node17"><a xlink:title=" ">
<polygon fill="white" stroke="#bfbfbf" points="822.5,-0.5 822.5,-19.5 929.5,-19.5 929.5,-0.5 822.5,-0.5"/>
<text text-anchor="middle" x="876" y="-7.5" font-family="Helvetica,sans-Serif" font-size="10.00">rapidjson/pointer.h</text>
</a>
</g>
</g>
<!-- Node14&#45;&gt;Node17 -->
<g id="edge21" class="edge">
<title>Node14&#45;&gt;Node17</title>
<path fill="none" stroke="midnightblue" d="M814.73,-56.32C825.84,-48.11 842.74,-35.6 855.98,-25.81"/>
<polygon fill="midnightblue" stroke="midnightblue" points="858.1,-28.59 864.06,-19.83 853.94,-22.97 858.1,-28.59"/>
</g>
<!-- Node23&#45;&gt;Node9 -->
<g id="edge29" class="edge">
<title>Node23&#45;&gt;Node9</title>
<path fill="none" stroke="midnightblue" d="M765.37,-246.44C729.31,-238.65 676.54,-225.94 632,-210 554.87,-182.4 538.81,-167.54 465,-132 428.33,-114.34 386.21,-93.31 359.85,-80.05"/>
<polygon fill="midnightblue" stroke="midnightblue" points="361.4,-76.91 350.89,-75.54 358.25,-83.17 361.4,-76.91"/>
</g>
<!-- Node23&#45;&gt;Node14 -->
<g id="edge28" class="edge">
<title>Node23&#45;&gt;Node14</title>
<path fill="none" stroke="midnightblue" d="M761.75,-249.12C716.76,-242.33 653.04,-229.54 638,-210 629.81,-199.36 643.01,-113.17 644,-112 667.3,-84.38 706.17,-73.05 739.65,-68.66"/>
<polygon fill="midnightblue" stroke="midnightblue" points="740.29,-72.11 749.84,-67.51 739.51,-65.15 740.29,-72.11"/>
</g>
<!-- Node24 -->
<g id="node24" class="node">
<title>Node24</title>
<g id="a_node24"><a xlink:title=" ">
<polygon fill="white" stroke="#bfbfbf" points="1045.5,-179.5 1045.5,-198.5 1090.5,-198.5 1090.5,-179.5 1045.5,-179.5"/>
<text text-anchor="middle" x="1068" y="-186.5" font-family="Helvetica,sans-Serif" font-size="10.00">utility</text>
</a>
</g>
</g>
<!-- Node23&#45;&gt;Node24 -->
<g id="edge30" class="edge">
<title>Node23&#45;&gt;Node24</title>
<path fill="none" stroke="midnightblue" d="M854.38,-250.83C901.45,-245.46 975.78,-233.82 1036,-210 1039.93,-208.44 1043.91,-206.4 1047.67,-204.22"/>
<polygon fill="midnightblue" stroke="midnightblue" points="1049.82,-207 1056.4,-198.69 1046.08,-201.09 1049.82,-207"/>
</g>
<!-- Node25 -->
<g id="node25" class="node">
<title>Node25</title>
<g id="a_node25"><a xlink:title=" ">
<polygon fill="white" stroke="#bfbfbf" points="662.5,-112.5 662.5,-131.5 709.5,-131.5 709.5,-112.5 662.5,-112.5"/>
<text text-anchor="middle" x="686" y="-119.5" font-family="Helvetica,sans-Serif" font-size="10.00">vector</text>
</a>
</g>
</g>
<!-- Node23&#45;&gt;Node25 -->
<g id="edge31" class="edge">
<title>Node23&#45;&gt;Node25</title>
<path fill="none" stroke="midnightblue" d="M801.64,-246.5C789.53,-230.52 762.06,-195.16 736,-168 725.99,-157.57 713.98,-146.71 704.23,-138.27"/>
<polygon fill="midnightblue" stroke="midnightblue" points="706.24,-135.38 696.36,-131.55 701.7,-140.7 706.24,-135.38"/>
</g>
<!-- Node23&#45;&gt;Node26 -->
<g id="edge32" class="edge">
<title>Node23&#45;&gt;Node26</title>
<path fill="none" stroke="midnightblue" d="M791.68,-246.23C771.18,-235.22 735.8,-216.21 711.91,-203.38"/>
<polygon fill="midnightblue" stroke="midnightblue" points="713.53,-200.28 703.06,-198.63 710.21,-206.44 713.53,-200.28"/>
</g>
<!-- Node26&#45;&gt;Node8 -->
<g id="edge34" class="edge">
<title>Node26&#45;&gt;Node8</title>
<path fill="none" stroke="midnightblue" d="M727.18,-183.32C762.84,-179.19 816.38,-173.06 863,-168 1014.26,-151.58 1055.92,-157.69 1209.35,-132.09"/>
<polygon fill="midnightblue" stroke="midnightblue" points="1210.34,-135.47 1219.62,-130.36 1209.18,-128.57 1210.34,-135.47"/>
</g>
<!-- Node26&#45;&gt;Node14 -->
<g id="edge33" class="edge">
<title>Node26&#45;&gt;Node14</title>
<path fill="none" stroke="midnightblue" d="M677.64,-179.38C662.72,-164.57 636.78,-133.8 653,-112 672.99,-85.13 708.47,-73.7 739.9,-69.07"/>
<polygon fill="midnightblue" stroke="midnightblue" points="740.46,-72.53 749.94,-67.8 739.58,-65.59 740.46,-72.53"/>
</g>
<!-- Node26&#45;&gt;Node25 -->
<g id="edge35" class="edge">
<title>Node26&#45;&gt;Node25</title>
<path fill="none" stroke="midnightblue" d="M686.87,-179.23C686.72,-169.68 686.48,-154.12 686.29,-141.78"/>
<polygon fill="midnightblue" stroke="midnightblue" points="689.79,-141.57 686.13,-131.63 682.79,-141.68 689.79,-141.57"/>
</g>
<!-- Node26&#45;&gt;Node27 -->
<g id="edge36" class="edge">
<title>Node26&#45;&gt;Node27</title>
<path fill="none" stroke="midnightblue" d="M664.96,-179.37C636.1,-168.07 585.35,-148.2 552.46,-135.32"/>
<polygon fill="midnightblue" stroke="midnightblue" points="553.46,-131.95 542.87,-131.56 550.91,-138.47 553.46,-131.95"/>
</g>
<!-- Node27&#45;&gt;Node9 -->
<g id="edge38" class="edge">
<title>Node27&#45;&gt;Node9</title>
<path fill="none" stroke="midnightblue" d="M491.37,-112.44C457.16,-102.56 401.09,-86.37 365.93,-76.22"/>
<polygon fill="midnightblue" stroke="midnightblue" points="366.75,-72.81 356.17,-73.4 364.81,-79.54 366.75,-72.81"/>
</g>
<!-- Node27&#45;&gt;Node14 -->
<g id="edge37" class="edge">
<title>Node27&#45;&gt;Node14</title>
<path fill="none" stroke="midnightblue" d="M565.68,-112.44C615.29,-102.94 695.36,-87.61 748.59,-77.42"/>
<polygon fill="midnightblue" stroke="midnightblue" points="749.36,-80.83 758.53,-75.52 748.05,-73.96 749.36,-80.83"/>
</g>
<!-- Node27&#45;&gt;Node21 -->
<g id="edge39" class="edge">
<title>Node27&#45;&gt;Node21</title>
<path fill="none" stroke="midnightblue" d="M521,-112.08C521,-105.01 521,-94.86 521,-85.99"/>
<polygon fill="midnightblue" stroke="midnightblue" points="524.5,-85.75 521,-75.75 517.5,-85.75 524.5,-85.75"/>
</g>
<!-- Node28&#45;&gt;Node3 -->
<g id="edge43" class="edge">
<title>Node28&#45;&gt;Node3</title>
<path fill="none" stroke="midnightblue" d="M218.73,-179.46C198.53,-151.96 134.9,-65.32 107.62,-28.18"/>
<polygon fill="midnightblue" stroke="midnightblue" points="110.25,-25.86 101.51,-19.87 104.61,-30 110.25,-25.86"/>
</g>
<!-- Node28&#45;&gt;Node9 -->
<g id="edge45" class="edge">
<title>Node28&#45;&gt;Node9</title>
<path fill="none" stroke="midnightblue" d="M231.08,-179.16C241.28,-164.56 262.84,-134.75 284,-112 293.72,-101.55 305.55,-90.82 315.27,-82.46"/>
<polygon fill="midnightblue" stroke="midnightblue" points="317.78,-84.92 323.15,-75.79 313.26,-79.58 317.78,-84.92"/>
</g>
<!-- Node28&#45;&gt;Node14 -->
<g id="edge44" class="edge">
<title>Node28&#45;&gt;Node14</title>
<path fill="none" stroke="midnightblue" d="M247.47,-179.43C289.54,-163.71 383.31,-130.23 465,-112 559.53,-90.91 671.28,-78.4 739.63,-72.11"/>
<polygon fill="midnightblue" stroke="midnightblue" points="740.16,-75.58 749.81,-71.19 739.53,-68.61 740.16,-75.58"/>
</g>
<!-- Node28&#45;&gt;Node27 -->
<g id="edge46" class="edge">
<title>Node28&#45;&gt;Node27</title>
<path fill="none" stroke="midnightblue" d="M264,-179.44C317.46,-167.7 413.51,-146.61 471.83,-133.8"/>
<polygon fill="midnightblue" stroke="midnightblue" points="472.9,-137.15 481.91,-131.58 471.39,-130.31 472.9,-137.15"/>
</g>
<!-- Node30&#45;&gt;Node9 -->
<g id="edge53" class="edge">
<title>Node30&#45;&gt;Node9</title>
<path fill="none" stroke="midnightblue" d="M916.9,-168.36C898.88,-157.65 876.19,-144.13 856,-132 841.3,-123.17 839.29,-117.37 823,-112 779.74,-97.75 467.99,-75.93 366.11,-69.11"/>
<polygon fill="midnightblue" stroke="midnightblue" points="366.32,-65.62 356.11,-68.45 365.85,-72.6 366.32,-65.62"/>
</g>
<!-- Node30&#45;&gt;Node20 -->
<g id="edge52" class="edge">
<title>Node30&#45;&gt;Node20</title>
<path fill="none" stroke="midnightblue" d="M901.99,-168.5C875.58,-157.77 843.59,-144.77 820.57,-135.42"/>
<polygon fill="midnightblue" stroke="midnightblue" points="821.88,-132.17 811.3,-131.65 819.25,-138.66 821.88,-132.17"/>
</g>
<!-- Node30&#45;&gt;Node21 -->
<g id="edge54" class="edge">
<title>Node30&#45;&gt;Node21</title>
<path fill="none" stroke="midnightblue" d="M931.94,-168.2C914.4,-150.34 886.07,-124.95 856,-112 807.22,-90.99 659.94,-77.19 577.84,-70.91"/>
<polygon fill="midnightblue" stroke="midnightblue" points="577.91,-67.41 567.68,-70.15 577.39,-74.39 577.91,-67.41"/>
</g>
<!-- Node30&#45;&gt;Node25 -->
<g id="edge56" class="edge">
<title>Node30&#45;&gt;Node25</title>
<path fill="none" stroke="midnightblue" d="M872.22,-168.85C821.47,-156.36 757.79,-140.68 719.58,-131.27"/>
<polygon fill="midnightblue" stroke="midnightblue" points="720.05,-127.78 709.51,-128.79 718.38,-134.58 720.05,-127.78"/>
</g>
<!-- Node31 -->
<g id="node31" class="node">
<title>Node31</title>
<g id="a_node31"><a xlink:title=" ">
<polygon fill="white" stroke="#bfbfbf" points="908,-112.5 908,-131.5 994,-131.5 994,-112.5 908,-112.5"/>
<text text-anchor="middle" x="951" y="-119.5" font-family="Helvetica,sans-Serif" font-size="10.00">unordered_set</text>
</a>
</g>
</g>
<!-- Node30&#45;&gt;Node31 -->
<g id="edge55" class="edge">
<title>Node30&#45;&gt;Node31</title>
<path fill="none" stroke="midnightblue" d="M950.3,-168.5C950.43,-160.07 950.58,-150.24 950.71,-141.87"/>
<polygon fill="midnightblue" stroke="midnightblue" points="954.21,-141.71 950.87,-131.65 947.21,-141.6 954.21,-141.71"/>
</g>
<!-- Node32&#45;&gt;Node3 -->
<g id="edge58" class="edge">
<title>Node32&#45;&gt;Node3</title>
<path fill="none" stroke="midnightblue" d="M1121.98,-179.48C1101.79,-168.68 1066.09,-149.37 1036,-132 1021.15,-123.43 1019.18,-117.68 1003,-112 991.71,-108.04 587.89,-57.34 576,-56 420.86,-38.58 237.05,-22.7 148.26,-15.33"/>
<polygon fill="midnightblue" stroke="midnightblue" points="148.43,-11.83 138.17,-14.5 147.85,-18.81 148.43,-11.83"/>
</g>
<!-- Node32&#45;&gt;Node8 -->
<g id="edge60" class="edge">
<title>Node32&#45;&gt;Node8</title>
<path fill="none" stroke="midnightblue" d="M1152.97,-179.23C1171.61,-168.32 1203.66,-149.55 1225.57,-136.72"/>
<polygon fill="midnightblue" stroke="midnightblue" points="1227.41,-139.7 1234.27,-131.63 1223.87,-133.66 1227.41,-139.7"/>
</g>
<!-- Node32&#45;&gt;Node14 -->
<g id="edge61" class="edge">
<title>Node32&#45;&gt;Node14</title>
<path fill="none" stroke="midnightblue" d="M1129.34,-179.33C1112.77,-163.31 1074.79,-129.12 1036,-112 981.63,-88.01 914.56,-76.77 866.36,-71.52"/>
<polygon fill="midnightblue" stroke="midnightblue" points="866.68,-68.04 856.37,-70.49 865.96,-75 866.68,-68.04"/>
</g>
<!-- Node33 -->
<g id="node33" class="node">
<title>Node33</title>
<g id="a_node33"><a xlink:title=" ">
<polygon fill="white" stroke="#bfbfbf" points="1088,-112.5 1088,-131.5 1202,-131.5 1202,-112.5 1088,-112.5"/>
<text text-anchor="middle" x="1145" y="-119.5" font-family="Helvetica,sans-Serif" font-size="10.00">boost/operators.hpp</text>
</a>
</g>
</g>
<!-- Node32&#45;&gt;Node33 -->
<g id="edge59" class="edge">
<title>Node32&#45;&gt;Node33</title>
<path fill="none" stroke="midnightblue" d="M1138.94,-179.23C1139.97,-169.68 1141.65,-154.12 1142.98,-141.78"/>
<polygon fill="midnightblue" stroke="midnightblue" points="1146.48,-141.94 1144.07,-131.63 1139.52,-141.2 1146.48,-141.94"/>
</g>
<!-- Node34&#45;&gt;Node2 -->
<g id="edge67" class="edge">
<title>Node34&#45;&gt;Node2</title>
<path fill="none" stroke="midnightblue" d="M1357.34,-492.48C1324.19,-483.55 1271.29,-469.31 1229.82,-458.14"/>
<polygon fill="midnightblue" stroke="midnightblue" points="1230.65,-454.74 1220.09,-455.52 1228.83,-461.5 1230.65,-454.74"/>
</g>
<!-- Node34&#45;&gt;Node5 -->
<g id="edge66" class="edge">
<title>Node34&#45;&gt;Node5</title>
<path fill="none" stroke="midnightblue" d="M1401.61,-492.29C1425.94,-474.34 1477,-430.65 1477,-380 1477,-380 1477,-380 1477,-121 1477,-84.3 1451.68,-47.66 1434.79,-27.3"/>
<polygon fill="midnightblue" stroke="midnightblue" points="1437.35,-24.9 1428.17,-19.62 1432.05,-29.48 1437.35,-24.9"/>
</g>
<!-- Node34&#45;&gt;Node24 -->
<g id="edge65" class="edge">
<title>Node34&#45;&gt;Node24</title>
<path fill="none" stroke="midnightblue" d="M1387.95,-492.36C1384.83,-469.85 1373.83,-408.35 1343,-369 1333.77,-357.22 1154.35,-244.14 1090.4,-204.03"/>
<polygon fill="midnightblue" stroke="midnightblue" points="1092.17,-201 1081.84,-198.66 1088.45,-206.94 1092.17,-201"/>
</g>
<!-- Node35&#45;&gt;Node2 -->
<g id="edge69" class="edge">
<title>Node35&#45;&gt;Node2</title>
<path fill="none" stroke="midnightblue" d="M1156.01,-492.48C1157.67,-485.4 1160.12,-474.97 1162.38,-465.39"/>
<polygon fill="midnightblue" stroke="midnightblue" points="1165.82,-466.06 1164.7,-455.52 1159,-464.46 1165.82,-466.06"/>
</g>
<!-- Node37 -->
<g id="node37" class="node">
<title>Node37</title>
<g id="a_node37"><a xlink:title=" ">
<polygon fill="white" stroke="#bfbfbf" points="1528.5,-431 1528.5,-450 1581.5,-450 1581.5,-431 1528.5,-431"/>
<text text-anchor="middle" x="1555" y="-438" font-family="Helvetica,sans-Serif" font-size="10.00">iterator</text>
</a>
</g>
</g>
<!-- Node36&#45;&gt;Node37 -->
<g id="edge71" class="edge">
<title>Node36&#45;&gt;Node37</title>
<path fill="none" stroke="midnightblue" d="M1565.28,-492.48C1563.57,-483.99 1560.89,-470.7 1558.7,-459.82"/>
<polygon fill="midnightblue" stroke="midnightblue" points="1562.12,-459.12 1556.72,-450.01 1555.26,-460.5 1562.12,-459.12"/>
</g>
<!-- Node38 -->
<g id="node38" class="node">
<title>Node38</title>
<g id="a_node38"><a xlink:title=" ">
<polygon fill="white" stroke="#bfbfbf" points="1599.5,-431 1599.5,-450 1656.5,-450 1656.5,-431 1599.5,-431"/>
<text text-anchor="middle" x="1628" y="-438" font-family="Helvetica,sans-Serif" font-size="10.00">ostream</text>
</a>
</g>
</g>
<!-- Node36&#45;&gt;Node38 -->
<g id="edge72" class="edge">
<title>Node36&#45;&gt;Node38</title>
<path fill="none" stroke="midnightblue" d="M1575.74,-492.48C1585.16,-483.28 1600.36,-468.46 1611.95,-457.16"/>
<polygon fill="midnightblue" stroke="midnightblue" points="1614.56,-459.5 1619.28,-450.01 1609.67,-454.49 1614.56,-459.5"/>
</g>
</g>
</svg>
        <g id="navigator" transform="translate(0 0)" fill="#404254">
                <rect fill="#f2f5e9" fill-opacity="0.5" stroke="#606060" stroke-width=".5" x="0" y="0" width="60" height="60"/>
                <use id="zoomplus" xlink:href="#zoomPlus" x="17" y="9" onmousedown="handleZoom(evt,'in')"/>
                <use id="zoomminus" xlink:href="#zoomMin" x="42" y="9" onmousedown="handleZoom(evt,'out')"/>
                <use id="reset" xlink:href="#resetDef" x="30" y="36" onmousedown="handleReset()"/>
                <g id="arrowUp" xlink:href="#dirArrow" transform="translate(30 24)" onmousedown="handlePan(0,-1)">
                  <use xlink:href="#rim" fill="#404040">
                        <set attributeName="fill" to="#808080" begin="arrowUp.mouseover" end="arrowUp.mouseout"/>
                  </use>
                  <path fill="none" stroke="white" stroke-width="1.5" d="M0,-3.0v7 M-2.5,-0.5L0,-3.0L2.5,-0.5"/>
                </g>
                <g id="arrowRight" xlink:href="#dirArrow" transform="rotate(90) translate(36 -43)" onmousedown="handlePan(1,0)">
                  <use xlink:href="#rim" fill="#404040">
                        <set attributeName="fill" to="#808080" begin="arrowRight.mouseover" end="arrowRight.mouseout"/>
                  </use>
                  <path fill="none" stroke="white" stroke-width="1.5" d="M0,-3.0v7 M-2.5,-0.5L0,-3.0L2.5,-0.5"/>
                </g>
                <g id="arrowDown" xlink:href="#dirArrow" transform="rotate(180) translate(-30 -48)" onmousedown="handlePan(0,1)">
                  <use xlink:href="#rim" fill="#404040">
                        <set attributeName="fill" to="#808080" begin="arrowDown.mouseover" end="arrowDown.mouseout"/>
                  </use>
                  <path fill="none" stroke="white" stroke-width="1.5" d="M0,-3.0v7 M-2.5,-0.5L0,-3.0L2.5,-0.5"/>
                </g>
                <g id="arrowLeft" xlink:href="#dirArrow" transform="rotate(270) translate(-36 17)" onmousedown="handlePan(-1,0)">
                  <use xlink:href="#rim" fill="#404040">
                        <set attributeName="fill" to="#808080" begin="arrowLeft.mouseover" end="arrowLeft.mouseout"/>
                  </use>
                  <path fill="none" stroke="white" stroke-width="1.5" d="M0,-3.0v7 M-2.5,-0.5L0,-3.0L2.5,-0.5"/>
                </g>
        </g>
        <svg viewBox="0 0 15 15" width="100%" height="30px" preserveAspectRatio="xMaxYMin meet">
         <g id="arrow_out" transform="scale(0.3 0.3)">
          <a xlink:href="IValueProvider_8cpp__incl_org.svg" target="_base">
           <rect id="button" ry="5" rx="5" y="6" x="6" height="38" width="38"
                fill="#f2f5e9" fill-opacity="0.5" stroke="#606060" stroke-width="1.0"/>
           <path id="arrow"
             d="M 11.500037,31.436501 C 11.940474,20.09759 22.043105,11.32322 32.158766,21.979434 L 37.068811,17.246167 C 37.068811,17.246167 37.088388,32 37.088388,32 L 22.160133,31.978069 C 22.160133,31.978069 26.997745,27.140456 26.997745,27.140456 C 18.528582,18.264221 13.291696,25.230495 11.500037,31.436501 z"
             style="fill:#404040;"/>
          </a>
         </g>
        </svg>
</svg>
