<?xml version="1.0" encoding="UTF-8" standalone="no"?>
<!DOCTYPE svg PUBLIC "-//W3C//DTD SVG 1.1//EN"
 "http://www.w3.org/Graphics/SVG/1.1/DTD/svg11.dtd">
<!-- Generated by graphviz version 2.43.0 (0)
 -->
<!-- Title: /home/nico/joda_tmp/tmp&#45;joda&#45;dirs/JODA&#45;gh/libs/joda/core/modules/misc/include/joda/misc/Benchmark.h Pages: 1 -->
<svg width="777pt" height="173pt"
 viewBox="0.00 0.00 776.50 173.00" xmlns="http://www.w3.org/2000/svg" xmlns:xlink="http://www.w3.org/1999/xlink">
<g id="graph0" class="graph" transform="scale(1 1) rotate(0) translate(4 169)">
<title>/home/nico/joda_tmp/tmp&#45;joda&#45;dirs/JODA&#45;gh/libs/joda/core/modules/misc/include/joda/misc/Benchmark.h</title>
<polygon fill="white" stroke="transparent" points="-4,4 -4,-169 772.5,-169 772.5,4 -4,4"/>
<!-- Node1 -->
<g id="node1" class="node">
<title>Node1</title>
<g id="a_node1"><a xlink:title=" ">
<polygon fill="#bfbfbf" stroke="black" points="344.5,-112.5 344.5,-164.5 543.5,-164.5 543.5,-112.5 344.5,-112.5"/>
<text text-anchor="start" x="352.5" y="-152.5" font-family="Helvetica,sans-Serif" font-size="10.00">/home/nico/joda_tmp</text>
<text text-anchor="start" x="352.5" y="-141.5" font-family="Helvetica,sans-Serif" font-size="10.00">/tmp&#45;joda&#45;dirs/JODA</text>
<text text-anchor="start" x="352.5" y="-130.5" font-family="Helvetica,sans-Serif" font-size="10.00">&#45;gh/libs/joda/core/modules</text>
<text text-anchor="middle" x="444" y="-119.5" font-family="Helvetica,sans-Serif" font-size="10.00">/misc/include/joda/misc/Benchmark.h</text>
</a>
</g>
</g>
<!-- Node2 -->
<g id="node2" class="node">
<title>Node2</title>
<g id="a_node2"><a xlink:title=" ">
<polygon fill="white" stroke="#bfbfbf" points="0,-0.5 0,-19.5 86,-19.5 86,-0.5 0,-0.5"/>
<text text-anchor="middle" x="43" y="-7.5" font-family="Helvetica,sans-Serif" font-size="10.00">glog/logging.h</text>
</a>
</g>
</g>
<!-- Node1&#45;&gt;Node2 -->
<g id="edge1" class="edge">
<title>Node1&#45;&gt;Node2</title>
<path fill="none" stroke="midnightblue" d="M346.63,-112.48C307.39,-101.92 261.83,-89.06 221,-76 169.09,-59.4 109.83,-37.06 74.47,-23.37"/>
<polygon fill="midnightblue" stroke="midnightblue" points="75.31,-19.94 64.73,-19.58 72.78,-26.47 75.31,-19.94"/>
</g>
<!-- Node3 -->
<g id="node3" class="node">
<title>Node3</title>
<g id="a_node3"><a xlink:title=" ">
<polygon fill="white" stroke="#bfbfbf" points="104,-0.5 104,-19.5 226,-19.5 226,-0.5 104,-0.5"/>
<text text-anchor="middle" x="165" y="-7.5" font-family="Helvetica,sans-Serif" font-size="10.00">rapidjson/document.h</text>
</a>
</g>
</g>
<!-- Node1&#45;&gt;Node3 -->
<g id="edge2" class="edge">
<title>Node1&#45;&gt;Node3</title>
<path fill="none" stroke="midnightblue" d="M349.55,-112.45C319.23,-102.83 286,-90.6 257,-76 229.38,-62.09 200.78,-40.57 182.95,-26.14"/>
<polygon fill="midnightblue" stroke="midnightblue" points="185.06,-23.34 175.11,-19.69 180.61,-28.75 185.06,-23.34"/>
</g>
<!-- Node4 -->
<g id="node4" class="node">
<title>Node4</title>
<g id="a_node4"><a xlink:title=" ">
<polygon fill="white" stroke="#bfbfbf" points="340,-56.5 340,-75.5 392,-75.5 392,-56.5 340,-56.5"/>
<text text-anchor="middle" x="366" y="-63.5" font-family="Helvetica,sans-Serif" font-size="10.00">cassert</text>
</a>
</g>
</g>
<!-- Node1&#45;&gt;Node4 -->
<g id="edge3" class="edge">
<title>Node1&#45;&gt;Node4</title>
<path fill="none" stroke="midnightblue" d="M416.28,-112.45C405.2,-102.43 392.78,-91.21 383.06,-82.42"/>
<polygon fill="midnightblue" stroke="midnightblue" points="385.39,-79.8 375.62,-75.7 380.69,-85 385.39,-79.8"/>
</g>
<!-- Node5 -->
<g id="node5" class="node">
<title>Node5</title>
<g id="a_node5"><a xlink:title=" ">
<polygon fill="white" stroke="#bfbfbf" points="410,-56.5 410,-75.5 478,-75.5 478,-56.5 410,-56.5"/>
<text text-anchor="middle" x="444" y="-63.5" font-family="Helvetica,sans-Serif" font-size="10.00">filesystem</text>
</a>
</g>
</g>
<!-- Node1&#45;&gt;Node5 -->
<g id="edge4" class="edge">
<title>Node1&#45;&gt;Node5</title>
<path fill="none" stroke="midnightblue" d="M444,-112.45C444,-103.73 444,-94.1 444,-85.96"/>
<polygon fill="midnightblue" stroke="midnightblue" points="447.5,-85.7 444,-75.7 440.5,-85.7 447.5,-85.7"/>
</g>
<!-- Node6 -->
<g id="node6" class="node">
<title>Node6</title>
<g id="a_node6"><a xlink:title=" ">
<polygon fill="white" stroke="#bfbfbf" points="496,-56.5 496,-75.5 552,-75.5 552,-56.5 496,-56.5"/>
<text text-anchor="middle" x="524" y="-63.5" font-family="Helvetica,sans-Serif" font-size="10.00">iomanip</text>
</a>
</g>
</g>
<!-- Node1&#45;&gt;Node6 -->
<g id="edge5" class="edge">
<title>Node1&#45;&gt;Node6</title>
<path fill="none" stroke="midnightblue" d="M472.43,-112.45C483.8,-102.43 496.53,-91.21 506.5,-82.42"/>
<polygon fill="midnightblue" stroke="midnightblue" points="508.94,-84.93 514.13,-75.7 504.32,-79.68 508.94,-84.93"/>
</g>
<!-- Node7 -->
<g id="node7" class="node">
<title>Node7</title>
<g id="a_node7"><a xlink:title=" ">
<polygon fill="white" stroke="#bfbfbf" points="570,-56.5 570,-75.5 618,-75.5 618,-56.5 570,-56.5"/>
<text text-anchor="middle" x="594" y="-63.5" font-family="Helvetica,sans-Serif" font-size="10.00">mutex</text>
</a>
</g>
</g>
<!-- Node1&#45;&gt;Node7 -->
<g id="edge6" class="edge">
<title>Node1&#45;&gt;Node7</title>
<path fill="none" stroke="midnightblue" d="M497.31,-112.45C520.79,-101.41 547.38,-88.91 566.72,-79.82"/>
<polygon fill="midnightblue" stroke="midnightblue" points="568.3,-82.95 575.86,-75.53 565.32,-76.61 568.3,-82.95"/>
</g>
<!-- Node8 -->
<g id="node8" class="node">
<title>Node8</title>
<g id="a_node8"><a xlink:title=" ">
<polygon fill="white" stroke="#bfbfbf" points="636,-56.5 636,-75.5 680,-75.5 680,-56.5 636,-56.5"/>
<text text-anchor="middle" x="658" y="-63.5" font-family="Helvetica,sans-Serif" font-size="10.00">string</text>
</a>
</g>
</g>
<!-- Node1&#45;&gt;Node8 -->
<g id="edge7" class="edge">
<title>Node1&#45;&gt;Node8</title>
<path fill="none" stroke="midnightblue" d="M520.05,-112.45C556.43,-100.46 598.03,-86.76 625.95,-77.56"/>
<polygon fill="midnightblue" stroke="midnightblue" points="627.18,-80.84 635.58,-74.38 624.99,-74.19 627.18,-80.84"/>
</g>
<!-- Node9 -->
<g id="node9" class="node">
<title>Node9</title>
<g id="a_node9"><a xlink:title=" ">
<polygon fill="white" stroke="#bfbfbf" points="698.5,-56.5 698.5,-75.5 745.5,-75.5 745.5,-56.5 698.5,-56.5"/>
<text text-anchor="middle" x="722" y="-63.5" font-family="Helvetica,sans-Serif" font-size="10.00">vector</text>
</a>
</g>
</g>
<!-- Node1&#45;&gt;Node9 -->
<g id="edge8" class="edge">
<title>Node1&#45;&gt;Node9</title>
<path fill="none" stroke="midnightblue" d="M543.65,-112.97C585.57,-102.54 635.08,-90.06 688.25,-76.16"/>
<polygon fill="midnightblue" stroke="midnightblue" points="689.44,-79.47 698.22,-73.55 687.66,-72.7 689.44,-79.47"/>
</g>
<!-- Node10 -->
<g id="node10" class="node">
<title>Node10</title>
<g id="a_node10"><a xlink:href="../../d6/d09/RJFwd_8h.html" target="_top" xlink:title=" ">
<polygon fill="white" stroke="black" points="266,-56.5 266,-75.5 322,-75.5 322,-56.5 266,-56.5"/>
<text text-anchor="middle" x="294" y="-63.5" font-family="Helvetica,sans-Serif" font-size="10.00">RJFwd.h</text>
</a>
</g>
</g>
<!-- Node1&#45;&gt;Node10 -->
<g id="edge9" class="edge">
<title>Node1&#45;&gt;Node10</title>
<path fill="none" stroke="midnightblue" d="M390.69,-112.45C367.21,-101.41 340.62,-88.91 321.28,-79.82"/>
<polygon fill="midnightblue" stroke="midnightblue" points="322.68,-76.61 312.14,-75.53 319.7,-82.95 322.68,-76.61"/>
</g>
<!-- Node10&#45;&gt;Node2 -->
<g id="edge10" class="edge">
<title>Node10&#45;&gt;Node2</title>
<path fill="none" stroke="midnightblue" d="M265.7,-58.91C223.75,-49.89 144.47,-32.83 92.7,-21.69"/>
<polygon fill="midnightblue" stroke="midnightblue" points="93.25,-18.23 82.74,-19.55 91.78,-25.07 93.25,-18.23"/>
</g>
<!-- Node10&#45;&gt;Node3 -->
<g id="edge12" class="edge">
<title>Node10&#45;&gt;Node3</title>
<path fill="none" stroke="midnightblue" d="M273.56,-56.44C252.33,-47.56 218.9,-33.56 194.75,-23.45"/>
<polygon fill="midnightblue" stroke="midnightblue" points="195.92,-20.15 185.34,-19.52 193.22,-26.61 195.92,-20.15"/>
</g>
<!-- Node11 -->
<g id="node11" class="node">
<title>Node11</title>
<g id="a_node11"><a xlink:title=" ">
<polygon fill="white" stroke="#bfbfbf" points="537,-0.5 537,-19.5 659,-19.5 659,-0.5 537,-0.5"/>
<text text-anchor="middle" x="598" y="-7.5" font-family="Helvetica,sans-Serif" font-size="10.00">rapidjson/allocators.h</text>
</a>
</g>
</g>
<!-- Node10&#45;&gt;Node11 -->
<g id="edge11" class="edge">
<title>Node10&#45;&gt;Node11</title>
<path fill="none" stroke="midnightblue" d="M322.23,-57.91C325.19,-57.24 328.15,-56.59 331,-56 398.37,-42.15 475.95,-29.43 530.07,-21.07"/>
<polygon fill="midnightblue" stroke="midnightblue" points="530.87,-24.49 540.23,-19.51 529.81,-17.57 530.87,-24.49"/>
</g>
<!-- Node12 -->
<g id="node12" class="node">
<title>Node12</title>
<g id="a_node12"><a xlink:title=" ">
<polygon fill="white" stroke="#bfbfbf" points="677.5,-0.5 677.5,-19.5 768.5,-19.5 768.5,-0.5 677.5,-0.5"/>
<text text-anchor="middle" x="723" y="-7.5" font-family="Helvetica,sans-Serif" font-size="10.00">rapidjson/fwd.h</text>
</a>
</g>
</g>
<!-- Node10&#45;&gt;Node12 -->
<g id="edge13" class="edge">
<title>Node10&#45;&gt;Node12</title>
<path fill="none" stroke="midnightblue" d="M322.2,-57.73C325.16,-57.09 328.13,-56.5 331,-56 476.21,-30.7 516.99,-39.76 667.35,-20"/>
<polygon fill="midnightblue" stroke="midnightblue" points="667.96,-23.45 677.41,-18.66 667.04,-16.51 667.96,-23.45"/>
</g>
<!-- Node13 -->
<g id="node13" class="node">
<title>Node13</title>
<g id="a_node13"><a xlink:title=" ">
<polygon fill="white" stroke="#bfbfbf" points="244,-0.5 244,-19.5 394,-19.5 394,-0.5 244,-0.5"/>
<text text-anchor="middle" x="319" y="-7.5" font-family="Helvetica,sans-Serif" font-size="10.00">rapidjson/istreamwrapper.h</text>
</a>
</g>
</g>
<!-- Node10&#45;&gt;Node13 -->
<g id="edge14" class="edge">
<title>Node10&#45;&gt;Node13</title>
<path fill="none" stroke="midnightblue" d="M298.13,-56.08C301.51,-48.77 306.42,-38.18 310.62,-29.1"/>
<polygon fill="midnightblue" stroke="midnightblue" points="313.92,-30.3 314.95,-19.75 307.57,-27.36 313.92,-30.3"/>
</g>
<!-- Node14 -->
<g id="node14" class="node">
<title>Node14</title>
<g id="a_node14"><a xlink:title=" ">
<polygon fill="white" stroke="#bfbfbf" points="411.5,-0.5 411.5,-19.5 518.5,-19.5 518.5,-0.5 411.5,-0.5"/>
<text text-anchor="middle" x="465" y="-7.5" font-family="Helvetica,sans-Serif" font-size="10.00">rapidjson/pointer.h</text>
</a>
</g>
</g>
<!-- Node10&#45;&gt;Node14 -->
<g id="edge15" class="edge">
<title>Node10&#45;&gt;Node14</title>
<path fill="none" stroke="midnightblue" d="M321.1,-56.44C349.99,-47.32 395.92,-32.81 428.11,-22.65"/>
<polygon fill="midnightblue" stroke="midnightblue" points="429.55,-25.87 438.03,-19.52 427.44,-19.19 429.55,-25.87"/>
</g>
</g>
</svg>
