<?xml version="1.0" encoding="UTF-8" standalone="no"?>
<!DOCTYPE svg PUBLIC "-//W3C//DTD SVG 1.1//EN"
 "http://www.w3.org/Graphics/SVG/1.1/DTD/svg11.dtd">
<!-- Generated by graphviz version 2.43.0 (0)
 -->
<!-- Title: CacheEntry Pages: 1 -->
<svg width="316pt" height="240pt"
 viewBox="0.00 0.00 316.00 240.00" xmlns="http://www.w3.org/2000/svg" xmlns:xlink="http://www.w3.org/1999/xlink">
<g id="graph0" class="graph" transform="scale(1 1) rotate(0) translate(4 236)">
<title>CacheEntry</title>
<polygon fill="white" stroke="transparent" points="-4,4 -4,-236 312,-236 312,4 -4,4"/>
<!-- Node1 -->
<g id="node1" class="node">
<title>Node1</title>
<g id="a_node1"><a xlink:title=" ">
<polygon fill="#bfbfbf" stroke="black" points="96,-0.5 96,-19.5 168,-19.5 168,-0.5 96,-0.5"/>
<text text-anchor="middle" x="132" y="-7.5" font-family="Helvetica,sans-Serif" font-size="10.00">CacheEntry</text>
</a>
</g>
</g>
<!-- Node2 -->
<g id="node2" class="node">
<title>Node2</title>
<g id="a_node2"><a xlink:title=" ">
<polygon fill="white" stroke="#bfbfbf" points="0,-67.5 0,-97.5 122,-97.5 122,-67.5 0,-67.5"/>
<text text-anchor="start" x="8" y="-85.5" font-family="Helvetica,sans-Serif" font-size="10.00">std::shared_ptr&lt; joda</text>
<text text-anchor="middle" x="61" y="-74.5" font-family="Helvetica,sans-Serif" font-size="10.00">::query::Predicate &gt;</text>
</a>
</g>
</g>
<!-- Node2&#45;&gt;Node1 -->
<g id="edge1" class="edge">
<title>Node2&#45;&gt;Node1</title>
<path fill="none" stroke="#9a32cd" stroke-dasharray="5,2" d="M82.51,-60.14C96.09,-46.65 112.92,-29.94 123.04,-19.89"/>
<polygon fill="#9a32cd" stroke="#9a32cd" points="80,-57.7 75.37,-67.23 84.93,-62.67 80,-57.7"/>
<text text-anchor="middle" x="127.5" y="-41" font-family="Helvetica,sans-Serif" font-size="10.00"> predicate</text>
</g>
<!-- Node3 -->
<g id="node3" class="node">
<title>Node3</title>
<g id="a_node3"><a xlink:title=" ">
<polygon fill="white" stroke="#bfbfbf" points="73,-145.5 73,-164.5 191,-164.5 191,-145.5 73,-145.5"/>
<text text-anchor="middle" x="132" y="-152.5" font-family="Helvetica,sans-Serif" font-size="10.00">std::shared_ptr&lt; T &gt;</text>
</a>
</g>
</g>
<!-- Node3&#45;&gt;Node2 -->
<g id="edge2" class="edge">
<title>Node3&#45;&gt;Node2</title>
<path fill="none" stroke="orange" stroke-dasharray="5,2" d="M71.55,-140.88C65.48,-137.31 60.07,-132.76 56,-127 50.04,-118.55 51.82,-106.81 54.8,-97.65"/>
<polygon fill="orange" stroke="orange" points="70.31,-144.17 80.83,-145.46 73.41,-137.9 70.31,-144.17"/>
<text text-anchor="middle" x="122" y="-119" font-family="Helvetica,sans-Serif" font-size="10.00"> &lt; joda::query::Predicate &gt;</text>
</g>
<!-- Node5 -->
<g id="node5" class="node">
<title>Node5</title>
<g id="a_node5"><a xlink:title=" ">
<polygon fill="white" stroke="#bfbfbf" points="143.5,-67.5 143.5,-97.5 270.5,-97.5 270.5,-67.5 143.5,-67.5"/>
<text text-anchor="start" x="151.5" y="-85.5" font-family="Helvetica,sans-Serif" font-size="10.00">std::shared_ptr&lt; const</text>
<text text-anchor="middle" x="207" y="-74.5" font-family="Helvetica,sans-Serif" font-size="10.00"> CacheIndex &gt;</text>
</a>
</g>
</g>
<!-- Node3&#45;&gt;Node5 -->
<g id="edge5" class="edge">
<title>Node3&#45;&gt;Node5</title>
<path fill="none" stroke="orange" stroke-dasharray="5,2" d="M168.32,-141.16C175.47,-137.41 182.47,-132.74 188,-127 195.78,-118.93 200.65,-107.16 203.51,-97.89"/>
<polygon fill="orange" stroke="orange" points="166.82,-138 159.26,-145.42 169.8,-144.33 166.82,-138"/>
<text text-anchor="middle" x="252" y="-119" font-family="Helvetica,sans-Serif" font-size="10.00"> &lt; const CacheIndex &gt;</text>
</g>
<!-- Node4 -->
<g id="node4" class="node">
<title>Node4</title>
<g id="a_node4"><a xlink:title=" ">
<polygon fill="white" stroke="#bfbfbf" points="117.5,-212.5 117.5,-231.5 146.5,-231.5 146.5,-212.5 117.5,-212.5"/>
<text text-anchor="middle" x="132" y="-219.5" font-family="Helvetica,sans-Serif" font-size="10.00">T</text>
</a>
</g>
</g>
<!-- Node4&#45;&gt;Node3 -->
<g id="edge3" class="edge">
<title>Node4&#45;&gt;Node3</title>
<path fill="none" stroke="#9a32cd" stroke-dasharray="5,2" d="M132,-202.04C132,-189.67 132,-174.12 132,-164.63"/>
<polygon fill="#9a32cd" stroke="#9a32cd" points="128.5,-202.23 132,-212.23 135.5,-202.23 128.5,-202.23"/>
<text text-anchor="middle" x="140.5" y="-186" font-family="Helvetica,sans-Serif" font-size="10.00"> ptr</text>
</g>
<!-- Node5&#45;&gt;Node1 -->
<g id="edge4" class="edge">
<title>Node5&#45;&gt;Node1</title>
<path fill="none" stroke="#9a32cd" stroke-dasharray="5,2" d="M184.27,-60.14C169.93,-46.65 152.15,-29.94 141.46,-19.89"/>
<polygon fill="#9a32cd" stroke="#9a32cd" points="182.14,-62.93 191.82,-67.23 186.93,-57.83 182.14,-62.93"/>
<text text-anchor="middle" x="185" y="-41" font-family="Helvetica,sans-Serif" font-size="10.00"> docs</text>
</g>
</g>
</svg>
