<?xml version="1.0" encoding="UTF-8" standalone="no"?>
<!DOCTYPE svg PUBLIC "-//W3C//DTD SVG 1.1//EN"
 "http://www.w3.org/Graphics/SVG/1.1/DTD/svg11.dtd">
<!-- Generated by graphviz version 2.43.0 (0)
 -->
<!-- Title: Timer::durationSeconds Pages: 1 -->
<svg width="659pt" height="155pt"
 viewBox="0.00 0.00 659.00 155.11" xmlns="http://www.w3.org/2000/svg" xmlns:xlink="http://www.w3.org/1999/xlink">
<g id="graph0" class="graph" transform="scale(1 1) rotate(0) translate(4 151.11)">
<title>Timer::durationSeconds</title>
<polygon fill="white" stroke="transparent" points="-4,4 -4,-151.11 655,-151.11 655,4 -4,4"/>
<!-- Node1 -->
<g id="node1" class="node">
<title>Node1</title>
<g id="a_node1"><a xlink:title=" ">
<polygon fill="#bfbfbf" stroke="black" points="519,-51.61 519,-70.61 651,-70.61 651,-51.61 519,-51.61"/>
<text text-anchor="middle" x="585" y="-58.61" font-family="Helvetica,sans-Serif" font-size="10.00">Timer::durationSeconds</text>
</a>
</g>
</g>
<!-- Node2 -->
<g id="node2" class="node">
<title>Node2</title>
<g id="a_node2"><a xlink:href="../../dc/de9/classQueryPlan.html#aa16031eccff01572dec59f8fb8cef83a" target="_top" xlink:title=" ">
<polygon fill="white" stroke="black" points="361,-127.61 361,-146.61 483,-146.61 483,-127.61 361,-127.61"/>
<text text-anchor="middle" x="422" y="-134.61" font-family="Helvetica,sans-Serif" font-size="10.00">QueryPlan::aggregate</text>
</a>
</g>
</g>
<!-- Node1&#45;&gt;Node2 -->
<g id="edge1" class="edge">
<title>Node1&#45;&gt;Node2</title>
<path fill="none" stroke="midnightblue" d="M557.83,-75.45C537.63,-86.31 508.87,-101.31 483,-113.11 471.77,-118.23 459.12,-123.38 448.33,-127.59"/>
<polygon fill="midnightblue" stroke="midnightblue" points="559.6,-78.47 566.73,-70.64 556.27,-72.32 559.6,-78.47"/>
</g>
<!-- Node3 -->
<g id="node3" class="node">
<title>Node3</title>
<g id="a_node3"><a xlink:href="../../dc/de9/classQueryPlan.html#ac5a086945e484f07e422bca233cce06b" target="_top" xlink:title=" ">
<polygon fill="white" stroke="black" points="185,-89.61 185,-108.61 325,-108.61 325,-89.61 185,-89.61"/>
<text text-anchor="middle" x="255" y="-96.61" font-family="Helvetica,sans-Serif" font-size="10.00">QueryPlan::executeQuery</text>
</a>
</g>
</g>
<!-- Node1&#45;&gt;Node3 -->
<g id="edge7" class="edge">
<title>Node1&#45;&gt;Node3</title>
<path fill="none" stroke="midnightblue" d="M508.72,-71.82C500.05,-72.97 491.34,-74.09 483,-75.11 430.09,-81.57 370.12,-87.87 325.11,-92.39"/>
<polygon fill="midnightblue" stroke="midnightblue" points="509.4,-75.26 518.84,-70.46 508.47,-68.32 509.4,-75.26"/>
</g>
<!-- Node5 -->
<g id="node5" class="node">
<title>Node5</title>
<g id="a_node5"><a xlink:href="../../d5/de2/classjoda_1_1cli_1_1CLI.html#a3d27f72079d6aee39307eaa0edfe6e89" target="_top" xlink:title=" ">
<polygon fill="white" stroke="black" points="4.5,-46.11 4.5,-76.11 144.5,-76.11 144.5,-46.11 4.5,-46.11"/>
<text text-anchor="start" x="12.5" y="-64.11" font-family="Helvetica,sans-Serif" font-size="10.00">joda::cli::CLI::executeNon</text>
<text text-anchor="middle" x="74.5" y="-53.11" font-family="Helvetica,sans-Serif" font-size="10.00">InteractiveQuery</text>
</a>
</g>
</g>
<!-- Node1&#45;&gt;Node5 -->
<g id="edge6" class="edge">
<title>Node1&#45;&gt;Node5</title>
<path fill="none" stroke="midnightblue" d="M508.67,-61.11C410.45,-61.11 240,-61.11 144.83,-61.11"/>
<polygon fill="midnightblue" stroke="midnightblue" points="508.82,-64.61 518.82,-61.11 508.82,-57.61 508.82,-64.61"/>
</g>
<!-- Node6 -->
<g id="node6" class="node">
<title>Node6</title>
<g id="a_node6"><a xlink:href="../../d5/de2/classjoda_1_1cli_1_1CLI.html#a0b942c696bdd7631f911b4014e549685" target="_top" xlink:title=" ">
<polygon fill="white" stroke="black" points="0,-7.61 0,-26.61 149,-26.61 149,-7.61 0,-7.61"/>
<text text-anchor="middle" x="74.5" y="-14.61" font-family="Helvetica,sans-Serif" font-size="10.00">joda::cli::CLI::executeQuery</text>
</a>
</g>
</g>
<!-- Node1&#45;&gt;Node6 -->
<g id="edge8" class="edge">
<title>Node1&#45;&gt;Node6</title>
<path fill="none" stroke="midnightblue" d="M548.2,-48.32C529.05,-41.85 504.95,-34.29 483,-29.11 353.65,1.43 317.68,3.74 185,-4.11 172.1,-4.87 158.39,-6.14 145.19,-7.59"/>
<polygon fill="midnightblue" stroke="midnightblue" points="547.13,-51.66 557.72,-51.59 549.4,-45.04 547.13,-51.66"/>
</g>
<!-- Node7 -->
<g id="node7" class="node">
<title>Node7</title>
<g id="a_node7"><a xlink:href="../../dc/dea/classTimer.html#a0ffdc69c0dfcb248cab152e9a1b9f6cc" target="_top" xlink:title=" ">
<polygon fill="white" stroke="black" points="222,-13.61 222,-32.61 288,-32.61 288,-13.61 222,-13.61"/>
<text text-anchor="middle" x="255" y="-20.61" font-family="Helvetica,sans-Serif" font-size="10.00">Timer::log</text>
</a>
</g>
</g>
<!-- Node1&#45;&gt;Node7 -->
<g id="edge9" class="edge">
<title>Node1&#45;&gt;Node7</title>
<path fill="none" stroke="midnightblue" d="M508.72,-50.4C500.05,-49.25 491.34,-48.13 483,-47.11 413.77,-38.65 332.44,-30.48 288.37,-26.2"/>
<polygon fill="midnightblue" stroke="midnightblue" points="508.47,-53.9 518.84,-51.76 509.4,-46.96 508.47,-53.9"/>
</g>
<!-- Node2&#45;&gt;Node3 -->
<g id="edge2" class="edge">
<title>Node2&#45;&gt;Node3</title>
<path fill="none" stroke="midnightblue" d="M369.35,-125.21C346.15,-119.87 319.16,-113.66 297.34,-108.63"/>
<polygon fill="midnightblue" stroke="midnightblue" points="368.83,-128.69 379.36,-127.52 370.4,-121.87 368.83,-128.69"/>
</g>
<!-- Node4 -->
<g id="node4" class="node">
<title>Node4</title>
<g id="a_node4"><a xlink:href="../../d5/de2/classjoda_1_1cli_1_1CLI.html#a5f1d2148a798cefa6391ae1f6b1142ba" target="_top" xlink:title=" ">
<polygon fill="white" stroke="black" points="6,-95.11 6,-125.11 143,-125.11 143,-95.11 6,-95.11"/>
<text text-anchor="start" x="14" y="-113.11" font-family="Helvetica,sans-Serif" font-size="10.00">joda::cli::CLI::benchmark</text>
<text text-anchor="middle" x="74.5" y="-102.11" font-family="Helvetica,sans-Serif" font-size="10.00">Query</text>
</a>
</g>
</g>
<!-- Node3&#45;&gt;Node4 -->
<g id="edge3" class="edge">
<title>Node3&#45;&gt;Node4</title>
<path fill="none" stroke="midnightblue" d="M174.91,-103.98C164.32,-104.64 153.53,-105.3 143.15,-105.94"/>
<polygon fill="midnightblue" stroke="midnightblue" points="175.22,-107.47 184.99,-103.36 174.79,-100.48 175.22,-107.47"/>
</g>
<!-- Node3&#45;&gt;Node5 -->
<g id="edge4" class="edge">
<title>Node3&#45;&gt;Node5</title>
<path fill="none" stroke="midnightblue" d="M199.07,-87.42C181.84,-83.75 162.6,-79.65 144.52,-75.8"/>
<polygon fill="midnightblue" stroke="midnightblue" points="198.45,-90.86 208.96,-89.52 199.9,-84.02 198.45,-90.86"/>
</g>
<!-- Node3&#45;&gt;Node6 -->
<g id="edge5" class="edge">
<title>Node3&#45;&gt;Node6</title>
<path fill="none" stroke="midnightblue" d="M232,-83.75C211.37,-69.92 179.24,-49.88 149,-37.11 139.25,-32.99 128.42,-29.5 118.13,-26.64"/>
<polygon fill="midnightblue" stroke="midnightblue" points="230.13,-86.71 240.37,-89.43 234.06,-80.92 230.13,-86.71"/>
</g>
<!-- Node7&#45;&gt;Node5 -->
<g id="edge10" class="edge">
<title>Node7&#45;&gt;Node5</title>
<path fill="none" stroke="midnightblue" d="M211.63,-32.13C191.6,-36.39 167.17,-41.59 144.56,-46.41"/>
<polygon fill="midnightblue" stroke="midnightblue" points="212.62,-35.5 221.67,-29.99 211.17,-28.65 212.62,-35.5"/>
</g>
<!-- Node7&#45;&gt;Node6 -->
<g id="edge11" class="edge">
<title>Node7&#45;&gt;Node6</title>
<path fill="none" stroke="midnightblue" d="M211.44,-21.68C192.77,-21.05 170.3,-20.3 149.05,-19.58"/>
<polygon fill="midnightblue" stroke="midnightblue" points="211.56,-25.19 221.67,-22.02 211.8,-18.19 211.56,-25.19"/>
</g>
</g>
</svg>
