<?xml version="1.0" encoding="UTF-8" standalone="no"?>
<!DOCTYPE svg PUBLIC "-//W3C//DTD SVG 1.1//EN"
 "http://www.w3.org/Graphics/SVG/1.1/DTD/svg11.dtd">
<!-- Generated by graphviz version 2.43.0 (0)
 -->
<!-- Title: joda::queryparsing::grammar::groupFunction Pages: 1 -->
<svg width="559pt" height="61pt"
 viewBox="0.00 0.00 559.00 61.00" xmlns="http://www.w3.org/2000/svg" xmlns:xlink="http://www.w3.org/1999/xlink">
<g id="graph0" class="graph" transform="scale(1 1) rotate(0) translate(4 57)">
<title>joda::queryparsing::grammar::groupFunction</title>
<polygon fill="white" stroke="transparent" points="-4,4 -4,-57 555,-57 555,4 -4,4"/>
<!-- Node1 -->
<g id="node1" class="node">
<title>Node1</title>
<g id="a_node1"><a xlink:title=" ">
<polygon fill="#bfbfbf" stroke="black" points="408,-11.5 408,-41.5 551,-41.5 551,-11.5 408,-11.5"/>
<text text-anchor="start" x="416" y="-29.5" font-family="Helvetica,sans-Serif" font-size="10.00">joda::queryparsing</text>
<text text-anchor="middle" x="479.5" y="-18.5" font-family="Helvetica,sans-Serif" font-size="10.00">::grammar::groupFunction</text>
</a>
</g>
</g>
<!-- Node2 -->
<g id="node2" class="node">
<title>Node2</title>
<g id="a_node2"><a xlink:href="../../d4/d8f/structjoda_1_1queryparsing_1_1grammar_1_1functionstateaction.html" target="_top" xlink:title=" ">
<polygon fill="white" stroke="black" points="204,-11.5 204,-41.5 372,-41.5 372,-11.5 204,-11.5"/>
<text text-anchor="start" x="212" y="-29.5" font-family="Helvetica,sans-Serif" font-size="10.00">joda::queryparsing</text>
<text text-anchor="middle" x="288" y="-18.5" font-family="Helvetica,sans-Serif" font-size="10.00">::grammar::functionstateaction</text>
</a>
</g>
</g>
<!-- Node2&#45;&gt;Node1 -->
<g id="edge1" class="edge">
<title>Node2&#45;&gt;Node1</title>
<path fill="none" stroke="midnightblue" d="M382.23,-26.5C390.86,-26.5 399.51,-26.5 407.9,-26.5"/>
<polygon fill="midnightblue" stroke="midnightblue" points="382.12,-23 372.12,-26.5 382.12,-30 382.12,-23"/>
</g>
<!-- Node3 -->
<g id="node3" class="node">
<title>Node3</title>
<g id="a_node3"><a xlink:title=" ">
<polygon fill="white" stroke="#bfbfbf" points="0,-0.5 0,-52.5 168,-52.5 168,-0.5 0,-0.5"/>
<text text-anchor="start" x="8" y="-40.5" font-family="Helvetica,sans-Serif" font-size="10.00">tao::pegtl::state&lt;</text>
<text text-anchor="start" x="8" y="-29.5" font-family="Helvetica,sans-Serif" font-size="10.00"> functionState, tao</text>
<text text-anchor="start" x="8" y="-18.5" font-family="Helvetica,sans-Serif" font-size="10.00">::pegtl::action&lt; functionAction,</text>
<text text-anchor="middle" x="84" y="-7.5" font-family="Helvetica,sans-Serif" font-size="10.00"> ptrFunc &gt; &gt;</text>
</a>
</g>
</g>
<!-- Node3&#45;&gt;Node2 -->
<g id="edge2" class="edge">
<title>Node3&#45;&gt;Node2</title>
<path fill="none" stroke="midnightblue" d="M178.11,-26.5C186.73,-26.5 195.44,-26.5 203.96,-26.5"/>
<polygon fill="midnightblue" stroke="midnightblue" points="178.04,-23 168.04,-26.5 178.04,-30 178.04,-23"/>
</g>
</g>
</svg>
