<?xml version="1.0" encoding="UTF-8" standalone="no"?>
<!DOCTYPE svg PUBLIC "-//W3C//DTD SVG 1.1//EN"
 "http://www.w3.org/Graphics/SVG/1.1/DTD/svg11.dtd">
<!-- Generated by graphviz version 2.43.0 (0)
 -->
<!-- Title: joda::query::values::AnyParameter::extractValue Pages: 1 -->
<svg width="352pt" height="170pt"
 viewBox="0.00 0.00 352.00 170.00" xmlns="http://www.w3.org/2000/svg" xmlns:xlink="http://www.w3.org/1999/xlink">
<g id="graph0" class="graph" transform="scale(1 1) rotate(0) translate(4 166)">
<title>joda::query::values::AnyParameter::extractValue</title>
<polygon fill="white" stroke="transparent" points="-4,4 -4,-166 348,-166 348,4 -4,4"/>
<!-- Node1 -->
<g id="node1" class="node">
<title>Node1</title>
<g id="a_node1"><a xlink:title=" ">
<polygon fill="#bfbfbf" stroke="black" points="185,-66 185,-96 344,-96 344,-66 185,-66"/>
<text text-anchor="start" x="193" y="-84" font-family="Helvetica,sans-Serif" font-size="10.00">joda::query::values</text>
<text text-anchor="middle" x="264.5" y="-73" font-family="Helvetica,sans-Serif" font-size="10.00">::AnyParameter::extractValue</text>
</a>
</g>
</g>
<!-- Node2 -->
<g id="node2" class="node">
<title>Node2</title>
<g id="a_node2"><a xlink:href="../../d9/d4c/classjoda_1_1query_1_1providers_1_1cast_1_1IntCastCalculator.html#a9e9e656cddde9e18a8854f9aa76afbe2" target="_top" xlink:title=" ">
<polygon fill="white" stroke="black" points="8,-120.5 8,-161.5 141,-161.5 141,-120.5 8,-120.5"/>
<text text-anchor="start" x="16" y="-149.5" font-family="Helvetica,sans-Serif" font-size="10.00">joda::query::providers</text>
<text text-anchor="start" x="16" y="-138.5" font-family="Helvetica,sans-Serif" font-size="10.00">::cast::IntCastCalculator</text>
<text text-anchor="middle" x="74.5" y="-127.5" font-family="Helvetica,sans-Serif" font-size="10.00">::calculate</text>
</a>
</g>
</g>
<!-- Node1&#45;&gt;Node2 -->
<g id="edge1" class="edge">
<title>Node1&#45;&gt;Node2</title>
<path fill="none" stroke="midnightblue" d="M206.34,-99.24C185.38,-105.93 161.52,-113.55 139.97,-120.42"/>
<polygon fill="midnightblue" stroke="midnightblue" points="207.6,-102.52 216.06,-96.14 205.47,-95.85 207.6,-102.52"/>
</g>
<!-- Node3 -->
<g id="node3" class="node">
<title>Node3</title>
<g id="a_node3"><a xlink:href="../../d8/d03/classjoda_1_1query_1_1providers_1_1cast_1_1FloatCastCalculator.html#ad18c6646b16df70ca1ed1bf7a9b10a7c" target="_top" xlink:title=" ">
<polygon fill="white" stroke="black" points="2,-60.5 2,-101.5 147,-101.5 147,-60.5 2,-60.5"/>
<text text-anchor="start" x="10" y="-89.5" font-family="Helvetica,sans-Serif" font-size="10.00">joda::query::providers</text>
<text text-anchor="start" x="10" y="-78.5" font-family="Helvetica,sans-Serif" font-size="10.00">::cast::FloatCastCalculator</text>
<text text-anchor="middle" x="74.5" y="-67.5" font-family="Helvetica,sans-Serif" font-size="10.00">::calculate</text>
</a>
</g>
</g>
<!-- Node1&#45;&gt;Node3 -->
<g id="edge2" class="edge">
<title>Node1&#45;&gt;Node3</title>
<path fill="none" stroke="midnightblue" d="M174.86,-81C165.6,-81 156.27,-81 147.23,-81"/>
<polygon fill="midnightblue" stroke="midnightblue" points="174.86,-84.5 184.86,-81 174.86,-77.5 174.86,-84.5"/>
</g>
<!-- Node4 -->
<g id="node4" class="node">
<title>Node4</title>
<g id="a_node4"><a xlink:href="../../d7/d2e/classjoda_1_1query_1_1providers_1_1cast_1_1StringCastCalculator.html#aafc2c31158182d2a3b86e43eb5168dcc" target="_top" xlink:title=" ">
<polygon fill="white" stroke="black" points="0,-0.5 0,-41.5 149,-41.5 149,-0.5 0,-0.5"/>
<text text-anchor="start" x="8" y="-29.5" font-family="Helvetica,sans-Serif" font-size="10.00">joda::query::providers</text>
<text text-anchor="start" x="8" y="-18.5" font-family="Helvetica,sans-Serif" font-size="10.00">::cast::StringCastCalculator</text>
<text text-anchor="middle" x="74.5" y="-7.5" font-family="Helvetica,sans-Serif" font-size="10.00">::calculate</text>
</a>
</g>
</g>
<!-- Node1&#45;&gt;Node4 -->
<g id="edge3" class="edge">
<title>Node1&#45;&gt;Node4</title>
<path fill="none" stroke="midnightblue" d="M206.34,-62.76C185.38,-56.07 161.52,-48.45 139.97,-41.58"/>
<polygon fill="midnightblue" stroke="midnightblue" points="205.47,-66.15 216.06,-65.86 207.6,-59.48 205.47,-66.15"/>
</g>
</g>
</svg>
