<?xml version="1.0" encoding="UTF-8" standalone="no"?>
<!DOCTYPE svg PUBLIC "-//W3C//DTD SVG 1.1//EN"
 "http://www.w3.org/Graphics/SVG/1.1/DTD/svg11.dtd">
<!-- Generated by graphviz version 2.43.0 (0)
 -->
<!-- Title: FileNameRepo::getFile Pages: 1 -->
<svg width="1110pt" height="258pt"
 viewBox="0.00 0.00 1110.00 257.50" xmlns="http://www.w3.org/2000/svg" xmlns:xlink="http://www.w3.org/1999/xlink">
<g id="graph0" class="graph" transform="scale(1 1) rotate(0) translate(4 253.5)">
<title>FileNameRepo::getFile</title>
<polygon fill="white" stroke="transparent" points="-4,4 -4,-253.5 1106,-253.5 1106,4 -4,4"/>
<!-- Node1 -->
<g id="node1" class="node">
<title>Node1</title>
<g id="a_node1"><a xlink:title=" ">
<polygon fill="#bfbfbf" stroke="black" points="975,-142.5 975,-161.5 1102,-161.5 1102,-142.5 975,-142.5"/>
<text text-anchor="middle" x="1038.5" y="-149.5" font-family="Helvetica,sans-Serif" font-size="10.00">FileNameRepo::getFile</text>
</a>
</g>
</g>
<!-- Node2 -->
<g id="node2" class="node">
<title>Node2</title>
<g id="a_node2"><a xlink:href="../../d5/d66/classjoda_1_1query_1_1FileNameProvider.html#af59bbea4228673f5dc18d2c11565112b" target="_top" xlink:title=" ">
<polygon fill="white" stroke="black" points="775,-219 775,-249 939,-249 939,-219 775,-219"/>
<text text-anchor="start" x="783" y="-237" font-family="Helvetica,sans-Serif" font-size="10.00">joda::query::FileNameProvider</text>
<text text-anchor="middle" x="857" y="-226" font-family="Helvetica,sans-Serif" font-size="10.00">::getAtomValue</text>
</a>
</g>
</g>
<!-- Node1&#45;&gt;Node2 -->
<g id="edge1" class="edge">
<title>Node1&#45;&gt;Node2</title>
<path fill="none" stroke="midnightblue" d="M1014.87,-167.07C995.39,-179.55 966.19,-197.12 939,-209 930.64,-212.65 921.58,-216 912.64,-218.98"/>
<polygon fill="midnightblue" stroke="midnightblue" points="1016.87,-169.94 1023.35,-161.56 1013.06,-164.07 1016.87,-169.94"/>
</g>
<!-- Node3 -->
<g id="node3" class="node">
<title>Node3</title>
<g id="a_node3"><a xlink:href="../../d1/d42/classFileOrigin.html#a51234ce9aea00bc08bab28ef0249b5b7" target="_top" xlink:title=" ">
<polygon fill="white" stroke="black" points="782.5,-180.5 782.5,-199.5 931.5,-199.5 931.5,-180.5 782.5,-180.5"/>
<text text-anchor="middle" x="857" y="-187.5" font-family="Helvetica,sans-Serif" font-size="10.00">FileOrigin::getStreamName</text>
</a>
</g>
</g>
<!-- Node1&#45;&gt;Node3 -->
<g id="edge2" class="edge">
<title>Node1&#45;&gt;Node3</title>
<path fill="none" stroke="midnightblue" d="M982.32,-163.68C956.87,-169.07 927.03,-175.39 902.97,-180.48"/>
<polygon fill="midnightblue" stroke="midnightblue" points="983.15,-167.08 992.2,-161.59 981.7,-160.24 983.15,-167.08"/>
</g>
<!-- Node4 -->
<g id="node4" class="node">
<title>Node4</title>
<g id="a_node4"><a xlink:href="../../d8/d48/classURLOrigin.html#a426b23c8b6b27e9b1db94598f9a1dc1f" target="_top" xlink:title=" ">
<polygon fill="white" stroke="black" points="781,-142.5 781,-161.5 933,-161.5 933,-142.5 781,-142.5"/>
<text text-anchor="middle" x="857" y="-149.5" font-family="Helvetica,sans-Serif" font-size="10.00">URLOrigin::getStreamName</text>
</a>
</g>
</g>
<!-- Node1&#45;&gt;Node4 -->
<g id="edge3" class="edge">
<title>Node1&#45;&gt;Node4</title>
<path fill="none" stroke="midnightblue" d="M964.73,-152C954.37,-152 943.69,-152 933.27,-152"/>
<polygon fill="midnightblue" stroke="midnightblue" points="964.97,-155.5 974.97,-152 964.97,-148.5 964.97,-155.5"/>
</g>
<!-- Node5 -->
<g id="node5" class="node">
<title>Node5</title>
<g id="a_node5"><a xlink:href="../../d1/d42/classFileOrigin.html#a36cf3be8866ae066538faaca95c2b4aa" target="_top" xlink:title=" ">
<polygon fill="white" stroke="black" points="787.5,-104.5 787.5,-123.5 926.5,-123.5 926.5,-104.5 787.5,-104.5"/>
<text text-anchor="middle" x="857" y="-111.5" font-family="Helvetica,sans-Serif" font-size="10.00">FileOrigin::parseIntervals</text>
</a>
</g>
</g>
<!-- Node1&#45;&gt;Node5 -->
<g id="edge4" class="edge">
<title>Node1&#45;&gt;Node5</title>
<path fill="none" stroke="midnightblue" d="M982.32,-140.32C956.87,-134.93 927.03,-128.61 902.97,-123.52"/>
<polygon fill="midnightblue" stroke="midnightblue" points="981.7,-143.76 992.2,-142.41 983.15,-136.92 981.7,-143.76"/>
</g>
<!-- Node18 -->
<g id="node18" class="node">
<title>Node18</title>
<g id="a_node18"><a xlink:href="../../d1/d42/classFileOrigin.html#a0016d990bf1fed498a85a28d1e4e7b32" target="_top" xlink:title=" ">
<polygon fill="white" stroke="black" points="804,-66.5 804,-85.5 910,-85.5 910,-66.5 804,-66.5"/>
<text text-anchor="middle" x="857" y="-73.5" font-family="Helvetica,sans-Serif" font-size="10.00">FileOrigin::reparse</text>
</a>
</g>
</g>
<!-- Node1&#45;&gt;Node18 -->
<g id="edge18" class="edge">
<title>Node1&#45;&gt;Node18</title>
<path fill="none" stroke="midnightblue" d="M1015.41,-136.67C996.05,-123.87 966.75,-106 939,-95 929.47,-91.22 918.99,-88.08 908.83,-85.5"/>
<polygon fill="midnightblue" stroke="midnightblue" points="1013.56,-139.64 1023.81,-142.32 1017.47,-133.83 1013.56,-139.64"/>
</g>
<!-- Node6 -->
<g id="node6" class="node">
<title>Node6</title>
<g id="a_node6"><a xlink:href="../../d6/de9/classJSONContainer.html#a6a73c03b5e5af8c71d824da2dff3371c" target="_top" xlink:title=" ">
<polygon fill="white" stroke="black" points="591.5,-132.5 591.5,-151.5 722.5,-151.5 722.5,-132.5 591.5,-132.5"/>
<text text-anchor="middle" x="657" y="-139.5" font-family="Helvetica,sans-Serif" font-size="10.00">JSONContainer::reparse</text>
</a>
</g>
</g>
<!-- Node5&#45;&gt;Node6 -->
<g id="edge5" class="edge">
<title>Node5&#45;&gt;Node6</title>
<path fill="none" stroke="midnightblue" d="M778.56,-124.95C760.11,-127.56 740.6,-130.32 722.78,-132.84"/>
<polygon fill="midnightblue" stroke="midnightblue" points="779.28,-128.38 788.69,-123.52 778.3,-121.45 779.28,-128.38"/>
</g>
<!-- Node7 -->
<g id="node7" class="node">
<title>Node7</title>
<g id="a_node7"><a xlink:href="../../d6/de9/classJSONContainer.html#a9170b6ae6e7dbcf2cb9a6121a1430057" target="_top" xlink:title=" ">
<polygon fill="white" stroke="black" points="575,-76.5 575,-95.5 739,-95.5 739,-76.5 575,-76.5"/>
<text text-anchor="middle" x="657" y="-83.5" font-family="Helvetica,sans-Serif" font-size="10.00">JSONContainer::reparseSubset</text>
</a>
</g>
</g>
<!-- Node5&#45;&gt;Node7 -->
<g id="edge6" class="edge">
<title>Node5&#45;&gt;Node7</title>
<path fill="none" stroke="midnightblue" d="M778.5,-103.04C760.99,-100.56 742.52,-97.95 725.46,-95.54"/>
<polygon fill="midnightblue" stroke="midnightblue" points="778.3,-106.55 788.69,-104.48 779.28,-99.62 778.3,-106.55"/>
</g>
<!-- Node7&#45;&gt;Node7 -->
<g id="edge14" class="edge">
<title>Node7&#45;&gt;Node7</title>
<path fill="none" stroke="midnightblue" d="M694.5,-103.5C694.49,-109.34 681.99,-114 657,-114 621.45,-114 611.18,-104.57 626.17,-95.76"/>
<polygon fill="midnightblue" stroke="midnightblue" points="697,-101.05 687.83,-95.76 691.7,-105.62 697,-101.05"/>
</g>
<!-- Node8 -->
<g id="node8" class="node">
<title>Node8</title>
<g id="a_node8"><a xlink:href="../../d6/de9/classJSONContainer.html#ad54c1aaf9111561ab0562f0927637f5d" target="_top" xlink:title=" ">
<polygon fill="white" stroke="black" points="357,-152.5 357,-171.5 539,-171.5 539,-152.5 357,-152.5"/>
<text text-anchor="middle" x="448" y="-159.5" font-family="Helvetica,sans-Serif" font-size="10.00">JSONContainer::AcceptDocuments</text>
</a>
</g>
</g>
<!-- Node7&#45;&gt;Node8 -->
<g id="edge7" class="edge">
<title>Node7&#45;&gt;Node8</title>
<path fill="none" stroke="midnightblue" d="M624.37,-99.75C609.29,-106.49 591.07,-114.88 575,-123 558.66,-131.25 556.15,-136.59 539,-143 528.83,-146.8 517.71,-149.92 506.87,-152.46"/>
<polygon fill="midnightblue" stroke="midnightblue" points="626.05,-102.84 633.78,-95.59 623.21,-96.44 626.05,-102.84"/>
</g>
<!-- Node9 -->
<g id="node9" class="node">
<title>Node9</title>
<g id="a_node9"><a xlink:href="../../d6/de9/classJSONContainer.html#a83f7d26170b0eb584958678dfdda3104" target="_top" xlink:title=" ">
<polygon fill="white" stroke="black" points="388,-114.5 388,-133.5 508,-133.5 508,-114.5 388,-114.5"/>
<text text-anchor="middle" x="448" y="-121.5" font-family="Helvetica,sans-Serif" font-size="10.00">JSONContainer::forAll</text>
</a>
</g>
</g>
<!-- Node7&#45;&gt;Node9 -->
<g id="edge8" class="edge">
<title>Node7&#45;&gt;Node9</title>
<path fill="none" stroke="midnightblue" d="M594.19,-97.35C564.49,-102.8 529.29,-109.26 500.99,-114.46"/>
<polygon fill="midnightblue" stroke="midnightblue" points="594.83,-100.79 604.03,-95.54 593.56,-93.9 594.83,-100.79"/>
</g>
<!-- Node10 -->
<g id="node10" class="node">
<title>Node10</title>
<g id="a_node10"><a xlink:href="../../d6/de9/classJSONContainer.html#af63f3fd97bbbf0f5fde4659fd84a8c8c" target="_top" xlink:title=" ">
<polygon fill="white" stroke="black" points="379.5,-76.5 379.5,-95.5 516.5,-95.5 516.5,-76.5 379.5,-76.5"/>
<text text-anchor="middle" x="448" y="-83.5" font-family="Helvetica,sans-Serif" font-size="10.00">JSONContainer::forAllRet</text>
</a>
</g>
</g>
<!-- Node7&#45;&gt;Node10 -->
<g id="edge9" class="edge">
<title>Node7&#45;&gt;Node10</title>
<path fill="none" stroke="midnightblue" d="M564.77,-86C548.59,-86 532,-86 516.62,-86"/>
<polygon fill="midnightblue" stroke="midnightblue" points="564.78,-89.5 574.78,-86 564.78,-82.5 564.78,-89.5"/>
</g>
<!-- Node12 -->
<g id="node12" class="node">
<title>Node12</title>
<g id="a_node12"><a xlink:href="../../d6/de9/classJSONContainer.html#ae8bd221d03c830e1e58bc1db5d9e7237" target="_top" xlink:title=" ">
<polygon fill="white" stroke="black" points="382.5,-38.5 382.5,-57.5 513.5,-57.5 513.5,-38.5 382.5,-38.5"/>
<text text-anchor="middle" x="448" y="-45.5" font-family="Helvetica,sans-Serif" font-size="10.00">JSONContainer::getRaw</text>
</a>
</g>
</g>
<!-- Node7&#45;&gt;Node12 -->
<g id="edge11" class="edge">
<title>Node7&#45;&gt;Node12</title>
<path fill="none" stroke="midnightblue" d="M594.19,-74.65C564.49,-69.2 529.29,-62.74 500.99,-57.54"/>
<polygon fill="midnightblue" stroke="midnightblue" points="593.56,-78.1 604.03,-76.46 594.83,-71.21 593.56,-78.1"/>
</g>
<!-- Node15 -->
<g id="node15" class="node">
<title>Node15</title>
<g id="a_node15"><a xlink:href="../../d6/de9/classJSONContainer.html#af35fd5784eba432de842771454f84722" target="_top" xlink:title=" ">
<polygon fill="white" stroke="black" points="381,-0.5 381,-19.5 515,-19.5 515,-0.5 381,-0.5"/>
<text text-anchor="middle" x="448" y="-7.5" font-family="Helvetica,sans-Serif" font-size="10.00">JSONContainer::stringify</text>
</a>
</g>
</g>
<!-- Node7&#45;&gt;Node15 -->
<g id="edge15" class="edge">
<title>Node7&#45;&gt;Node15</title>
<path fill="none" stroke="midnightblue" d="M630.67,-71.4C607.48,-58.58 571.87,-40.28 539,-29 528.13,-25.27 516.25,-22.13 504.79,-19.55"/>
<polygon fill="midnightblue" stroke="midnightblue" points="629.07,-74.51 639.5,-76.35 632.49,-68.41 629.07,-74.51"/>
</g>
<!-- Node11 -->
<g id="node11" class="node">
<title>Node11</title>
<g id="a_node11"><a xlink:href="../../d7/d0e/classCacheExecutor.html#a34fc818f886e37d41f0e3252d290ff6b" target="_top" xlink:title=" ">
<polygon fill="white" stroke="black" points="177.5,-76.5 177.5,-95.5 310.5,-95.5 310.5,-76.5 177.5,-76.5"/>
<text text-anchor="middle" x="244" y="-83.5" font-family="Helvetica,sans-Serif" font-size="10.00">CacheExecutor::execute</text>
</a>
</g>
</g>
<!-- Node10&#45;&gt;Node11 -->
<g id="edge10" class="edge">
<title>Node10&#45;&gt;Node11</title>
<path fill="none" stroke="midnightblue" d="M369.46,-86C350.09,-86 329.5,-86 310.77,-86"/>
<polygon fill="midnightblue" stroke="midnightblue" points="369.46,-89.5 379.46,-86 369.46,-82.5 369.46,-89.5"/>
</g>
<!-- Node13 -->
<g id="node13" class="node">
<title>Node13</title>
<g id="a_node13"><a xlink:href="../../da/dcb/classQueryThread.html#a53eace9da88daad57b0a1aaf5a57e778" target="_top" xlink:title=" ">
<polygon fill="white" stroke="black" points="167,-38.5 167,-57.5 321,-57.5 321,-38.5 167,-38.5"/>
<text text-anchor="middle" x="244" y="-45.5" font-family="Helvetica,sans-Serif" font-size="10.00">QueryThread::defaultProject</text>
</a>
</g>
</g>
<!-- Node12&#45;&gt;Node13 -->
<g id="edge12" class="edge">
<title>Node12&#45;&gt;Node13</title>
<path fill="none" stroke="midnightblue" d="M372.03,-48C355.37,-48 337.7,-48 321,-48"/>
<polygon fill="midnightblue" stroke="midnightblue" points="372.25,-51.5 382.25,-48 372.25,-44.5 372.25,-51.5"/>
</g>
<!-- Node14 -->
<g id="node14" class="node">
<title>Node14</title>
<g id="a_node14"><a xlink:href="../../da/dcb/classQueryThread.html#a646d5ddb6815199a41b91d5569897980" target="_top" xlink:title=" ">
<polygon fill="white" stroke="black" points="10.5,-38.5 10.5,-57.5 120.5,-57.5 120.5,-38.5 10.5,-38.5"/>
<text text-anchor="middle" x="65.5" y="-45.5" font-family="Helvetica,sans-Serif" font-size="10.00">QueryThread::work</text>
</a>
</g>
</g>
<!-- Node13&#45;&gt;Node14 -->
<g id="edge13" class="edge">
<title>Node13&#45;&gt;Node14</title>
<path fill="none" stroke="midnightblue" d="M156.59,-48C144.32,-48 131.99,-48 120.58,-48"/>
<polygon fill="midnightblue" stroke="midnightblue" points="156.87,-51.5 166.87,-48 156.87,-44.5 156.87,-51.5"/>
</g>
<!-- Node16 -->
<g id="node16" class="node">
<title>Node16</title>
<g id="a_node16"><a xlink:href="../../d6/de9/classJSONContainer.html#afbe561cd1d11fc4b315189eee250d4f8" target="_top" xlink:title=" ">
<polygon fill="white" stroke="black" points="176,-0.5 176,-19.5 312,-19.5 312,-0.5 176,-0.5"/>
<text text-anchor="middle" x="244" y="-7.5" font-family="Helvetica,sans-Serif" font-size="10.00">JSONContainer::writeFile</text>
</a>
</g>
</g>
<!-- Node15&#45;&gt;Node16 -->
<g id="edge16" class="edge">
<title>Node15&#45;&gt;Node16</title>
<path fill="none" stroke="midnightblue" d="M370.66,-10C351.48,-10 331.03,-10 312.33,-10"/>
<polygon fill="midnightblue" stroke="midnightblue" points="370.86,-13.5 380.86,-10 370.86,-6.5 370.86,-13.5"/>
</g>
<!-- Node17 -->
<g id="node17" class="node">
<title>Node17</title>
<g id="a_node17"><a xlink:href="../../d2/dcc/classJSONStorage.html#a835233357d524dbdce52e5d3aace2702" target="_top" xlink:title=" ">
<polygon fill="white" stroke="black" points="0,-0.5 0,-19.5 131,-19.5 131,-0.5 0,-0.5"/>
<text text-anchor="middle" x="65.5" y="-7.5" font-family="Helvetica,sans-Serif" font-size="10.00">JSONStorage::writeFiles</text>
</a>
</g>
</g>
<!-- Node16&#45;&gt;Node17 -->
<g id="edge17" class="edge">
<title>Node16&#45;&gt;Node17</title>
<path fill="none" stroke="midnightblue" d="M165.73,-10C154.21,-10 142.44,-10 131.21,-10"/>
<polygon fill="midnightblue" stroke="midnightblue" points="165.77,-13.5 175.77,-10 165.77,-6.5 165.77,-13.5"/>
</g>
</g>
</svg>
