<?xml version="1.0" encoding="UTF-8" standalone="no"?>
<!DOCTYPE svg PUBLIC "-//W3C//DTD SVG 1.1//EN"
 "http://www.w3.org/Graphics/SVG/1.1/DTD/svg11.dtd">
<!-- Generated by graphviz version 2.43.0 (0)
 -->
<!-- Title: joda::query::UnaryPointerAcceptProvider::isAtom Pages: 1 -->
<svg width="377pt" height="149pt"
 viewBox="0.00 0.00 377.00 148.50" xmlns="http://www.w3.org/2000/svg" xmlns:xlink="http://www.w3.org/1999/xlink">
<g id="graph0" class="graph" transform="scale(1 1) rotate(0) translate(4 144.5)">
<title>joda::query::UnaryPointerAcceptProvider::isAtom</title>
<polygon fill="white" stroke="transparent" points="-4,4 -4,-144.5 373,-144.5 373,4 -4,4"/>
<!-- Node1 -->
<g id="node1" class="node">
<title>Node1</title>
<g id="a_node1"><a xlink:title=" ">
<polygon fill="#bfbfbf" stroke="black" points="229,-61 229,-91 369,-91 369,-61 229,-61"/>
<text text-anchor="start" x="237" y="-79" font-family="Helvetica,sans-Serif" font-size="10.00">joda::query::UnaryPointer</text>
<text text-anchor="middle" x="299" y="-68" font-family="Helvetica,sans-Serif" font-size="10.00">AcceptProvider::isAtom</text>
</a>
</g>
</g>
<!-- Node2 -->
<g id="node2" class="node">
<title>Node2</title>
<g id="a_node2"><a xlink:href="../../d9/d28/classjoda_1_1query_1_1UnaryPointerAcceptProvider.html#a58acc97a7d3cece914d81d677bcbf281" target="_top" xlink:title=" ">
<polygon fill="white" stroke="black" points="14,-110 14,-140 179,-140 179,-110 14,-110"/>
<text text-anchor="start" x="22" y="-128" font-family="Helvetica,sans-Serif" font-size="10.00">joda::query::UnaryPointer</text>
<text text-anchor="middle" x="96.5" y="-117" font-family="Helvetica,sans-Serif" font-size="10.00">AcceptProvider::getAtomValue</text>
</a>
</g>
</g>
<!-- Node1&#45;&gt;Node2 -->
<g id="edge1" class="edge">
<title>Node1&#45;&gt;Node2</title>
<path fill="none" stroke="midnightblue" d="M226.49,-93.48C204.39,-98.88 180.26,-104.78 158.9,-109.99"/>
<polygon fill="midnightblue" stroke="midnightblue" points="227.6,-96.81 236.48,-91.03 225.94,-90.01 227.6,-96.81"/>
</g>
<!-- Node3 -->
<g id="node3" class="node">
<title>Node3</title>
<g id="a_node3"><a xlink:href="../../d9/d28/classjoda_1_1query_1_1UnaryPointerAcceptProvider.html#ae3c37be40cc7c96f6a13caa7bb318478" target="_top" xlink:title=" ">
<polygon fill="white" stroke="black" points="26.5,-61 26.5,-91 166.5,-91 166.5,-61 26.5,-61"/>
<text text-anchor="start" x="34.5" y="-79" font-family="Helvetica,sans-Serif" font-size="10.00">joda::query::UnaryPointer</text>
<text text-anchor="middle" x="96.5" y="-68" font-family="Helvetica,sans-Serif" font-size="10.00">AcceptProvider::getValue</text>
</a>
</g>
</g>
<!-- Node1&#45;&gt;Node3 -->
<g id="edge2" class="edge">
<title>Node1&#45;&gt;Node3</title>
<path fill="none" stroke="midnightblue" d="M218.94,-76C201.66,-76 183.49,-76 166.63,-76"/>
<polygon fill="midnightblue" stroke="midnightblue" points="219,-79.5 229,-76 219,-72.5 219,-79.5"/>
</g>
<!-- Node4 -->
<g id="node4" class="node">
<title>Node4</title>
<g id="a_node4"><a xlink:href="../../d9/d28/classjoda_1_1query_1_1UnaryPointerAcceptProvider.html#a3cc82be7317c6ee5e6261af06348bd3e" target="_top" xlink:title=" ">
<polygon fill="white" stroke="black" points="0,-0.5 0,-41.5 193,-41.5 193,-0.5 0,-0.5"/>
<text text-anchor="start" x="8" y="-29.5" font-family="Helvetica,sans-Serif" font-size="10.00">joda::query::UnaryPointer</text>
<text text-anchor="start" x="8" y="-18.5" font-family="Helvetica,sans-Serif" font-size="10.00">AcceptProvider::UnaryPointerAccept</text>
<text text-anchor="middle" x="96.5" y="-7.5" font-family="Helvetica,sans-Serif" font-size="10.00">Provider</text>
</a>
</g>
</g>
<!-- Node1&#45;&gt;Node4 -->
<g id="edge3" class="edge">
<title>Node1&#45;&gt;Node4</title>
<path fill="none" stroke="midnightblue" d="M233.55,-58.32C214.1,-52.99 192.59,-47.08 172.52,-41.58"/>
<polygon fill="midnightblue" stroke="midnightblue" points="232.64,-61.7 243.21,-60.97 234.49,-54.95 232.64,-61.7"/>
</g>
</g>
</svg>
