<?xml version="1.0" encoding="UTF-8" standalone="no"?>
<!DOCTYPE svg PUBLIC "-//W3C//DTD SVG 1.1//EN"
 "http://www.w3.org/Graphics/SVG/1.1/DTD/svg11.dtd">
<!-- Generated by graphviz version 2.43.0 (0)
 -->
<!-- Title: similarityRepresentation&lt; PathJaccard &gt;::getRepresentation Pages: 1 -->
<svg width="370pt" height="66pt"
 viewBox="0.00 0.00 370.00 66.00" xmlns="http://www.w3.org/2000/svg" xmlns:xlink="http://www.w3.org/1999/xlink">
<g id="graph0" class="graph" transform="scale(1 1) rotate(0) translate(4 62)">
<title>similarityRepresentation&lt; PathJaccard &gt;::getRepresentation</title>
<polygon fill="white" stroke="transparent" points="-4,4 -4,-62 366,-62 366,4 -4,4"/>
<!-- Node1 -->
<g id="node1" class="node">
<title>Node1</title>
<g id="a_node1"><a xlink:title=" ">
<polygon fill="#bfbfbf" stroke="black" points="0,-14 0,-44 191,-44 191,-14 0,-14"/>
<text text-anchor="start" x="8" y="-32" font-family="Helvetica,sans-Serif" font-size="10.00">similarityRepresentation</text>
<text text-anchor="middle" x="95.5" y="-21" font-family="Helvetica,sans-Serif" font-size="10.00">&lt; PathJaccard &gt;::getRepresentation</text>
</a>
</g>
</g>
<!-- Node2 -->
<g id="node2" class="node">
<title>Node2</title>
<g id="a_node2"><a xlink:href="../../d8/d70/classRJPathsReader.html#a5daadc64bff0430746eafbbf42f66336" target="_top" xlink:title=" ">
<polygon fill="white" stroke="black" points="236,-38.5 236,-57.5 353,-57.5 353,-38.5 236,-38.5"/>
<text text-anchor="middle" x="294.5" y="-45.5" font-family="Helvetica,sans-Serif" font-size="10.00">RJPathsReader::clear</text>
</a>
</g>
</g>
<!-- Node1&#45;&gt;Node2 -->
<g id="edge1" class="edge">
<title>Node1&#45;&gt;Node2</title>
<path fill="none" stroke="midnightblue" d="M191.25,-38.14C202.95,-39.27 214.71,-40.4 225.89,-41.48"/>
<polygon fill="midnightblue" stroke="midnightblue" points="225.68,-44.98 235.97,-42.45 226.36,-38.01 225.68,-44.98"/>
</g>
<!-- Node3 -->
<g id="node3" class="node">
<title>Node3</title>
<g id="a_node3"><a xlink:href="../../d8/d70/classRJPathsReader.html#a0e8074b155f65320dd5f5c4b32048b2a" target="_top" xlink:title=" ">
<polygon fill="white" stroke="black" points="227,-0.5 227,-19.5 362,-19.5 362,-0.5 227,-0.5"/>
<text text-anchor="middle" x="294.5" y="-7.5" font-family="Helvetica,sans-Serif" font-size="10.00">RJPathsReader::getPaths</text>
</a>
</g>
</g>
<!-- Node1&#45;&gt;Node3 -->
<g id="edge2" class="edge">
<title>Node1&#45;&gt;Node3</title>
<path fill="none" stroke="midnightblue" d="M191.25,-19.86C199.8,-19.04 208.39,-18.21 216.75,-17.4"/>
<polygon fill="midnightblue" stroke="midnightblue" points="217.21,-20.87 226.83,-16.43 216.54,-13.91 217.21,-20.87"/>
</g>
</g>
</svg>
