<?xml version="1.0" encoding="UTF-8" standalone="no"?>
<!DOCTYPE svg PUBLIC "-//W3C//DTD SVG 1.1//EN"
 "http://www.w3.org/Graphics/SVG/1.1/DTD/svg11.dtd">
<!-- Generated by graphviz version 2.43.0 (0)
 -->
<!-- Title: joda::network::client::ResultRequest::result Pages: 1 -->
<svg width="472pt" height="100pt"
 viewBox="0.00 0.00 472.00 99.50" xmlns="http://www.w3.org/2000/svg" xmlns:xlink="http://www.w3.org/1999/xlink">
<g id="graph0" class="graph" transform="scale(1 1) rotate(0) translate(4 95.5)">
<title>joda::network::client::ResultRequest::result</title>
<polygon fill="white" stroke="transparent" points="-4,4 -4,-95.5 468,-95.5 468,4 -4,4"/>
<!-- Node1 -->
<g id="node1" class="node">
<title>Node1</title>
<g id="a_node1"><a xlink:title=" ">
<polygon fill="#bfbfbf" stroke="black" points="337,-33 337,-63 464,-63 464,-33 337,-33"/>
<text text-anchor="start" x="345" y="-51" font-family="Helvetica,sans-Serif" font-size="10.00">joda::network::client</text>
<text text-anchor="middle" x="400.5" y="-40" font-family="Helvetica,sans-Serif" font-size="10.00">::ResultRequest::result</text>
</a>
</g>
</g>
<!-- Node2 -->
<g id="node2" class="node">
<title>Node2</title>
<g id="a_node2"><a xlink:href="../../dd/d42/classjoda_1_1network_1_1client_1_1JodaClient.html#a2f2f09fb01696b5a5f59ea0d5a8b6482" target="_top" xlink:title=" ">
<polygon fill="white" stroke="black" points="153.5,-61 153.5,-91 299.5,-91 299.5,-61 153.5,-61"/>
<text text-anchor="start" x="161.5" y="-79" font-family="Helvetica,sans-Serif" font-size="10.00">joda::network::client</text>
<text text-anchor="middle" x="226.5" y="-68" font-family="Helvetica,sans-Serif" font-size="10.00">::JodaClient::browseReturn</text>
</a>
</g>
</g>
<!-- Node1&#45;&gt;Node2 -->
<g id="edge1" class="edge">
<title>Node1&#45;&gt;Node2</title>
<path fill="none" stroke="midnightblue" d="M326.86,-59.82C317.86,-61.29 308.66,-62.79 299.66,-64.25"/>
<polygon fill="midnightblue" stroke="midnightblue" points="327.61,-63.25 336.92,-58.19 326.49,-56.34 327.61,-63.25"/>
</g>
<!-- Node4 -->
<g id="node4" class="node">
<title>Node4</title>
<g id="a_node4"><a xlink:href="../../dd/d42/classjoda_1_1network_1_1client_1_1JodaClient.html#ae5de31594ca7b45df1a8792b4949a78e" target="_top" xlink:title=" ">
<polygon fill="white" stroke="black" points="152,-0.5 152,-41.5 301,-41.5 301,-0.5 152,-0.5"/>
<text text-anchor="start" x="160" y="-29.5" font-family="Helvetica,sans-Serif" font-size="10.00">joda::network::client</text>
<text text-anchor="start" x="160" y="-18.5" font-family="Helvetica,sans-Serif" font-size="10.00">::JodaClient::nonInteractive</text>
<text text-anchor="middle" x="226.5" y="-7.5" font-family="Helvetica,sans-Serif" font-size="10.00">Query</text>
</a>
</g>
</g>
<!-- Node1&#45;&gt;Node4 -->
<g id="edge3" class="edge">
<title>Node1&#45;&gt;Node4</title>
<path fill="none" stroke="midnightblue" d="M326.99,-36.62C318.44,-35.27 309.7,-33.9 301.14,-32.56"/>
<polygon fill="midnightblue" stroke="midnightblue" points="326.5,-40.08 336.92,-38.18 327.58,-33.17 326.5,-40.08"/>
</g>
<!-- Node3 -->
<g id="node3" class="node">
<title>Node3</title>
<g id="a_node3"><a xlink:href="../../dd/d42/classjoda_1_1network_1_1client_1_1JodaClient.html#a7cd534b6032a772416b20fdc59815d86" target="_top" xlink:title=" ">
<polygon fill="white" stroke="black" points="0,-61 0,-91 116,-91 116,-61 0,-61"/>
<text text-anchor="start" x="8" y="-79" font-family="Helvetica,sans-Serif" font-size="10.00">joda::network::client</text>
<text text-anchor="middle" x="58" y="-68" font-family="Helvetica,sans-Serif" font-size="10.00">::JodaClient::cli</text>
</a>
</g>
</g>
<!-- Node2&#45;&gt;Node3 -->
<g id="edge2" class="edge">
<title>Node2&#45;&gt;Node3</title>
<path fill="none" stroke="midnightblue" d="M143.15,-76C134.01,-76 124.85,-76 116.12,-76"/>
<polygon fill="midnightblue" stroke="midnightblue" points="143.44,-79.5 153.44,-76 143.44,-72.5 143.44,-79.5"/>
</g>
</g>
</svg>
