<?xml version="1.0" encoding="UTF-8" standalone="no"?>
<!DOCTYPE svg PUBLIC "-//W3C//DTD SVG 1.1//EN"
 "http://www.w3.org/Graphics/SVG/1.1/DTD/svg11.dtd">
<!-- Generated by graphviz version 2.43.0 (0)
 -->
<!-- Title: /home/nico/projects/JODA&#45;gh/libs/joda/core/modules/query/values/include/joda/query/values/IsXBoolProvider.h Pages: 1 -->
<svg width="1553pt" height="695pt"
 viewBox="0.00 0.00 1553.00 695.00" xmlns="http://www.w3.org/2000/svg" xmlns:xlink="http://www.w3.org/1999/xlink">
<g id="graph0" class="graph" transform="scale(1 1) rotate(0) translate(4 691)">
<title>/home/nico/projects/JODA&#45;gh/libs/joda/core/modules/query/values/include/joda/query/values/IsXBoolProvider.h</title>
<polygon fill="white" stroke="transparent" points="-4,4 -4,-691 1549,-691 1549,4 -4,4"/>
<!-- Node1 -->
<g id="node1" class="node">
<title>Node1</title>
<g id="a_node1"><a xlink:title=" ">
<polygon fill="#bfbfbf" stroke="black" points="336.5,-634.5 336.5,-686.5 531.5,-686.5 531.5,-634.5 336.5,-634.5"/>
<text text-anchor="start" x="344.5" y="-674.5" font-family="Helvetica,sans-Serif" font-size="10.00">/home/nico/projects</text>
<text text-anchor="start" x="344.5" y="-663.5" font-family="Helvetica,sans-Serif" font-size="10.00">/JODA&#45;gh/libs/joda/core</text>
<text text-anchor="start" x="344.5" y="-652.5" font-family="Helvetica,sans-Serif" font-size="10.00">/modules/query/values/include</text>
<text text-anchor="middle" x="434" y="-641.5" font-family="Helvetica,sans-Serif" font-size="10.00">/joda/query/values/IsXBoolProvider.h</text>
</a>
</g>
</g>
<!-- Node2 -->
<g id="node2" class="node">
<title>Node2</title>
<g id="a_node2"><a xlink:href="../../dc/da4/StaticEvalVisitorTest_8cpp.html" target="_top" xlink:title=" ">
<polygon fill="white" stroke="black" points="0,-534.5 0,-597.5 178,-597.5 178,-534.5 0,-534.5"/>
<text text-anchor="start" x="8" y="-585.5" font-family="Helvetica,sans-Serif" font-size="10.00">/home/nico/projects</text>
<text text-anchor="start" x="8" y="-574.5" font-family="Helvetica,sans-Serif" font-size="10.00">/JODA&#45;gh/libs/joda/core</text>
<text text-anchor="start" x="8" y="-563.5" font-family="Helvetica,sans-Serif" font-size="10.00">/modules/query/predicate</text>
<text text-anchor="start" x="8" y="-552.5" font-family="Helvetica,sans-Serif" font-size="10.00">/src/visitors/test/StaticEvalVisitor</text>
<text text-anchor="middle" x="89" y="-541.5" font-family="Helvetica,sans-Serif" font-size="10.00">Test.cpp</text>
</a>
</g>
</g>
<!-- Node1&#45;&gt;Node2 -->
<g id="edge1" class="edge">
<title>Node1&#45;&gt;Node2</title>
<path fill="none" stroke="midnightblue" d="M326.52,-634.28C283.04,-623.68 232.47,-610.84 187,-598 184.08,-597.18 181.12,-596.32 178.13,-595.45"/>
<polygon fill="midnightblue" stroke="midnightblue" points="325.72,-637.69 336.26,-636.65 327.37,-630.89 325.72,-637.69"/>
</g>
<!-- Node3 -->
<g id="node3" class="node">
<title>Node3</title>
<g id="a_node3"><a xlink:href="../../dd/d99/IsXBoolProvider_8cpp.html" target="_top" xlink:title=" ">
<polygon fill="white" stroke="black" points="196.5,-540 196.5,-592 341.5,-592 341.5,-540 196.5,-540"/>
<text text-anchor="start" x="204.5" y="-580" font-family="Helvetica,sans-Serif" font-size="10.00">/home/nico/projects</text>
<text text-anchor="start" x="204.5" y="-569" font-family="Helvetica,sans-Serif" font-size="10.00">/JODA&#45;gh/libs/joda/core</text>
<text text-anchor="start" x="204.5" y="-558" font-family="Helvetica,sans-Serif" font-size="10.00">/modules/query/values/src</text>
<text text-anchor="middle" x="269" y="-547" font-family="Helvetica,sans-Serif" font-size="10.00">/IsXBoolProvider.cpp</text>
</a>
</g>
</g>
<!-- Node1&#45;&gt;Node3 -->
<g id="edge2" class="edge">
<title>Node1&#45;&gt;Node3</title>
<path fill="none" stroke="midnightblue" d="M380.61,-629.57C359,-617.45 334.33,-603.62 313.69,-592.05"/>
<polygon fill="midnightblue" stroke="midnightblue" points="378.91,-632.63 389.35,-634.47 382.34,-626.53 378.91,-632.63"/>
</g>
<!-- Node4 -->
<g id="node4" class="node">
<title>Node4</title>
<g id="a_node4"><a xlink:href="../../d1/df7/ValueTest_8cpp.html" target="_top" xlink:title=" ">
<polygon fill="white" stroke="black" points="359.5,-540 359.5,-592 508.5,-592 508.5,-540 359.5,-540"/>
<text text-anchor="start" x="367.5" y="-580" font-family="Helvetica,sans-Serif" font-size="10.00">/home/nico/projects</text>
<text text-anchor="start" x="367.5" y="-569" font-family="Helvetica,sans-Serif" font-size="10.00">/JODA&#45;gh/libs/joda/core</text>
<text text-anchor="start" x="367.5" y="-558" font-family="Helvetica,sans-Serif" font-size="10.00">/modules/query/values/test</text>
<text text-anchor="middle" x="434" y="-547" font-family="Helvetica,sans-Serif" font-size="10.00">/ValueTest.cpp</text>
</a>
</g>
</g>
<!-- Node1&#45;&gt;Node4 -->
<g id="edge3" class="edge">
<title>Node1&#45;&gt;Node4</title>
<path fill="none" stroke="midnightblue" d="M434,-623.99C434,-613.41 434,-602.03 434,-592.25"/>
<polygon fill="midnightblue" stroke="midnightblue" points="430.5,-624.22 434,-634.22 437.5,-624.22 430.5,-624.22"/>
</g>
<!-- Node5 -->
<g id="node5" class="node">
<title>Node5</title>
<g id="a_node5"><a xlink:href="../../d0/d6c/FunctionWrapper_8h.html" target="_top" xlink:title=" ">
<polygon fill="white" stroke="black" points="961,-540 961,-592 1107,-592 1107,-540 961,-540"/>
<text text-anchor="start" x="969" y="-580" font-family="Helvetica,sans-Serif" font-size="10.00">/home/nico/projects</text>
<text text-anchor="start" x="969" y="-569" font-family="Helvetica,sans-Serif" font-size="10.00">/JODA&#45;gh/libs/joda/core</text>
<text text-anchor="start" x="969" y="-558" font-family="Helvetica,sans-Serif" font-size="10.00">/modules/queryparsing/src</text>
<text text-anchor="middle" x="1034" y="-547" font-family="Helvetica,sans-Serif" font-size="10.00">/FunctionWrapper.h</text>
</a>
</g>
</g>
<!-- Node1&#45;&gt;Node5 -->
<g id="edge4" class="edge">
<title>Node1&#45;&gt;Node5</title>
<path fill="none" stroke="midnightblue" d="M541.77,-642.88C662.88,-624.21 856.19,-594.41 960.88,-578.27"/>
<polygon fill="midnightblue" stroke="midnightblue" points="541.09,-639.45 531.74,-644.43 542.15,-646.37 541.09,-639.45"/>
</g>
<!-- Node12 -->
<g id="node12" class="node">
<title>Node12</title>
<g id="a_node12"><a xlink:href="../../d4/daf/Choose__Actions_8h.html" target="_top" xlink:title=" ">
<polygon fill="white" stroke="black" points="349,-178.5 349,-230.5 495,-230.5 495,-178.5 349,-178.5"/>
<text text-anchor="start" x="357" y="-218.5" font-family="Helvetica,sans-Serif" font-size="10.00">/home/nico/projects</text>
<text text-anchor="start" x="357" y="-207.5" font-family="Helvetica,sans-Serif" font-size="10.00">/JODA&#45;gh/libs/joda/core</text>
<text text-anchor="start" x="357" y="-196.5" font-family="Helvetica,sans-Serif" font-size="10.00">/modules/queryparsing/src</text>
<text text-anchor="middle" x="422" y="-185.5" font-family="Helvetica,sans-Serif" font-size="10.00">/actions/Choose_Actions.h</text>
</a>
</g>
</g>
<!-- Node1&#45;&gt;Node12 -->
<g id="edge36" class="edge">
<title>Node1&#45;&gt;Node12</title>
<path fill="none" stroke="midnightblue" d="M489.1,-628.26C499.88,-619.76 510,-609.63 517,-598 546.09,-549.66 536,-528.91 536,-472.5 536,-472.5 536,-472.5 536,-381.5 536,-319.43 485.43,-261.97 451.65,-230.51"/>
<polygon fill="midnightblue" stroke="midnightblue" points="486.72,-625.68 480.77,-634.44 490.89,-631.3 486.72,-625.68"/>
</g>
<!-- Node6 -->
<g id="node6" class="node">
<title>Node6</title>
<g id="a_node6"><a xlink:href="../../d1/d8c/Literals_8h.html" target="_top" xlink:title=" ">
<polygon fill="white" stroke="black" points="961,-445.5 961,-497.5 1107,-497.5 1107,-445.5 961,-445.5"/>
<text text-anchor="start" x="969" y="-485.5" font-family="Helvetica,sans-Serif" font-size="10.00">/home/nico/projects</text>
<text text-anchor="start" x="969" y="-474.5" font-family="Helvetica,sans-Serif" font-size="10.00">/JODA&#45;gh/libs/joda/core</text>
<text text-anchor="start" x="969" y="-463.5" font-family="Helvetica,sans-Serif" font-size="10.00">/modules/queryparsing/src</text>
<text text-anchor="middle" x="1034" y="-452.5" font-family="Helvetica,sans-Serif" font-size="10.00">/grammar/Literals.h</text>
</a>
</g>
</g>
<!-- Node5&#45;&gt;Node6 -->
<g id="edge5" class="edge">
<title>Node5&#45;&gt;Node6</title>
<path fill="none" stroke="midnightblue" d="M1034,-529.49C1034,-518.91 1034,-507.53 1034,-497.75"/>
<polygon fill="midnightblue" stroke="midnightblue" points="1030.5,-529.72 1034,-539.72 1037.5,-529.72 1030.5,-529.72"/>
</g>
<!-- Node9 -->
<g id="node9" class="node">
<title>Node9</title>
<g id="a_node9"><a xlink:href="../../d0/d62/QueryParser_8cpp.html" target="_top" xlink:title=" ">
<polygon fill="white" stroke="black" points="1371,-0.5 1371,-52.5 1517,-52.5 1517,-0.5 1371,-0.5"/>
<text text-anchor="start" x="1379" y="-40.5" font-family="Helvetica,sans-Serif" font-size="10.00">/home/nico/projects</text>
<text text-anchor="start" x="1379" y="-29.5" font-family="Helvetica,sans-Serif" font-size="10.00">/JODA&#45;gh/libs/joda/core</text>
<text text-anchor="start" x="1379" y="-18.5" font-family="Helvetica,sans-Serif" font-size="10.00">/modules/queryparsing/src</text>
<text text-anchor="middle" x="1444" y="-7.5" font-family="Helvetica,sans-Serif" font-size="10.00">/QueryParser.cpp</text>
</a>
</g>
</g>
<!-- Node5&#45;&gt;Node9 -->
<g id="edge35" class="edge">
<title>Node5&#45;&gt;Node9</title>
<path fill="none" stroke="midnightblue" d="M1117.4,-553.02C1262.25,-529.85 1545,-473.14 1545,-383.5 1545,-383.5 1545,-383.5 1545,-203.5 1545,-143.08 1499.67,-84.63 1469.75,-52.62"/>
<polygon fill="midnightblue" stroke="midnightblue" points="1116.54,-549.61 1107.21,-554.63 1117.64,-556.53 1116.54,-549.61"/>
</g>
<!-- Node7 -->
<g id="node7" class="node">
<title>Node7</title>
<g id="a_node7"><a xlink:href="../../d4/d03/Grammar_8h.html" target="_top" xlink:title=" ">
<polygon fill="white" stroke="black" points="879,-267.5 879,-319.5 1025,-319.5 1025,-267.5 879,-267.5"/>
<text text-anchor="start" x="887" y="-307.5" font-family="Helvetica,sans-Serif" font-size="10.00">/home/nico/projects</text>
<text text-anchor="start" x="887" y="-296.5" font-family="Helvetica,sans-Serif" font-size="10.00">/JODA&#45;gh/libs/joda/core</text>
<text text-anchor="start" x="887" y="-285.5" font-family="Helvetica,sans-Serif" font-size="10.00">/modules/queryparsing/src</text>
<text text-anchor="middle" x="952" y="-274.5" font-family="Helvetica,sans-Serif" font-size="10.00">/grammar/Grammar.h</text>
</a>
</g>
</g>
<!-- Node6&#45;&gt;Node7 -->
<g id="edge6" class="edge">
<title>Node6&#45;&gt;Node7</title>
<path fill="none" stroke="midnightblue" d="M950.77,-459.41C920.18,-450.85 888.52,-435.72 870,-409 856.58,-389.64 859.47,-377.07 870,-356 877.4,-341.2 890.25,-329.03 903.6,-319.54"/>
<polygon fill="midnightblue" stroke="midnightblue" points="950.09,-462.85 960.65,-461.97 951.85,-456.07 950.09,-462.85"/>
</g>
<!-- Node17 -->
<g id="node17" class="node">
<title>Node17</title>
<g id="a_node17"><a xlink:href="../../d7/dd9/Agg_8h.html" target="_top" xlink:title=" ">
<polygon fill="white" stroke="black" points="879,-356.5 879,-408.5 1025,-408.5 1025,-356.5 879,-356.5"/>
<text text-anchor="start" x="887" y="-396.5" font-family="Helvetica,sans-Serif" font-size="10.00">/home/nico/projects</text>
<text text-anchor="start" x="887" y="-385.5" font-family="Helvetica,sans-Serif" font-size="10.00">/JODA&#45;gh/libs/joda/core</text>
<text text-anchor="start" x="887" y="-374.5" font-family="Helvetica,sans-Serif" font-size="10.00">/modules/queryparsing/src</text>
<text text-anchor="middle" x="952" y="-363.5" font-family="Helvetica,sans-Serif" font-size="10.00">/grammar/Agg.h</text>
</a>
</g>
</g>
<!-- Node6&#45;&gt;Node17 -->
<g id="edge23" class="edge">
<title>Node6&#45;&gt;Node17</title>
<path fill="none" stroke="midnightblue" d="M1003.17,-437.79C994.06,-428.13 984.24,-417.71 975.66,-408.61"/>
<polygon fill="midnightblue" stroke="midnightblue" points="1000.88,-440.46 1010.28,-445.34 1005.97,-435.66 1000.88,-440.46"/>
</g>
<!-- Node18 -->
<g id="node18" class="node">
<title>Node18</title>
<g id="a_node18"><a xlink:href="../../d0/d72/As_8h.html" target="_top" xlink:title=" ">
<polygon fill="white" stroke="black" points="1043,-356.5 1043,-408.5 1189,-408.5 1189,-356.5 1043,-356.5"/>
<text text-anchor="start" x="1051" y="-396.5" font-family="Helvetica,sans-Serif" font-size="10.00">/home/nico/projects</text>
<text text-anchor="start" x="1051" y="-385.5" font-family="Helvetica,sans-Serif" font-size="10.00">/JODA&#45;gh/libs/joda/core</text>
<text text-anchor="start" x="1051" y="-374.5" font-family="Helvetica,sans-Serif" font-size="10.00">/modules/queryparsing/src</text>
<text text-anchor="middle" x="1116" y="-363.5" font-family="Helvetica,sans-Serif" font-size="10.00">/grammar/As.h</text>
</a>
</g>
</g>
<!-- Node6&#45;&gt;Node18 -->
<g id="edge25" class="edge">
<title>Node6&#45;&gt;Node18</title>
<path fill="none" stroke="midnightblue" d="M1064.83,-437.79C1073.94,-428.13 1083.76,-417.71 1092.34,-408.61"/>
<polygon fill="midnightblue" stroke="midnightblue" points="1062.03,-435.66 1057.72,-445.34 1067.12,-440.46 1062.03,-435.66"/>
</g>
<!-- Node19 -->
<g id="node19" class="node">
<title>Node19</title>
<g id="a_node19"><a xlink:href="../../da/d78/Delete_8h.html" target="_top" xlink:title=" ">
<polygon fill="white" stroke="black" points="1207,-356.5 1207,-408.5 1353,-408.5 1353,-356.5 1207,-356.5"/>
<text text-anchor="start" x="1215" y="-396.5" font-family="Helvetica,sans-Serif" font-size="10.00">/home/nico/projects</text>
<text text-anchor="start" x="1215" y="-385.5" font-family="Helvetica,sans-Serif" font-size="10.00">/JODA&#45;gh/libs/joda/core</text>
<text text-anchor="start" x="1215" y="-374.5" font-family="Helvetica,sans-Serif" font-size="10.00">/modules/queryparsing/src</text>
<text text-anchor="middle" x="1280" y="-363.5" font-family="Helvetica,sans-Serif" font-size="10.00">/grammar/Delete.h</text>
</a>
</g>
</g>
<!-- Node6&#45;&gt;Node19 -->
<g id="edge27" class="edge">
<title>Node6&#45;&gt;Node19</title>
<path fill="none" stroke="midnightblue" d="M1114.59,-442C1145.14,-431.19 1179.67,-418.98 1209.25,-408.52"/>
<polygon fill="midnightblue" stroke="midnightblue" points="1113.08,-438.82 1104.82,-445.45 1115.42,-445.42 1113.08,-438.82"/>
</g>
<!-- Node20 -->
<g id="node20" class="node">
<title>Node20</title>
<g id="a_node20"><a xlink:href="../../d5/d7d/Load_8h.html" target="_top" xlink:title=" ">
<polygon fill="white" stroke="black" points="1371,-356.5 1371,-408.5 1517,-408.5 1517,-356.5 1371,-356.5"/>
<text text-anchor="start" x="1379" y="-396.5" font-family="Helvetica,sans-Serif" font-size="10.00">/home/nico/projects</text>
<text text-anchor="start" x="1379" y="-385.5" font-family="Helvetica,sans-Serif" font-size="10.00">/JODA&#45;gh/libs/joda/core</text>
<text text-anchor="start" x="1379" y="-374.5" font-family="Helvetica,sans-Serif" font-size="10.00">/modules/queryparsing/src</text>
<text text-anchor="middle" x="1444" y="-363.5" font-family="Helvetica,sans-Serif" font-size="10.00">/grammar/Load.h</text>
</a>
</g>
</g>
<!-- Node6&#45;&gt;Node20 -->
<g id="edge29" class="edge">
<title>Node6&#45;&gt;Node20</title>
<path fill="none" stroke="midnightblue" d="M1117.18,-457.65C1183.83,-446.69 1279.5,-429.49 1362,-409 1364.89,-408.28 1367.84,-407.52 1370.8,-406.73"/>
<polygon fill="midnightblue" stroke="midnightblue" points="1116.46,-454.22 1107.15,-459.28 1117.59,-461.13 1116.46,-454.22"/>
</g>
<!-- Node22 -->
<g id="node22" class="node">
<title>Node22</title>
<g id="a_node22"><a xlink:href="../../db/d1d/Store_8h.html" target="_top" xlink:title=" ">
<polygon fill="white" stroke="black" points="677,-356.5 677,-408.5 823,-408.5 823,-356.5 677,-356.5"/>
<text text-anchor="start" x="685" y="-396.5" font-family="Helvetica,sans-Serif" font-size="10.00">/home/nico/projects</text>
<text text-anchor="start" x="685" y="-385.5" font-family="Helvetica,sans-Serif" font-size="10.00">/JODA&#45;gh/libs/joda/core</text>
<text text-anchor="start" x="685" y="-374.5" font-family="Helvetica,sans-Serif" font-size="10.00">/modules/queryparsing/src</text>
<text text-anchor="middle" x="750" y="-363.5" font-family="Helvetica,sans-Serif" font-size="10.00">/grammar/Store.h</text>
</a>
</g>
</g>
<!-- Node6&#45;&gt;Node22 -->
<g id="edge33" class="edge">
<title>Node6&#45;&gt;Node22</title>
<path fill="none" stroke="midnightblue" d="M951.29,-445.16C910.82,-432.77 862.52,-417.97 823.38,-405.98"/>
<polygon fill="midnightblue" stroke="midnightblue" points="950.28,-448.51 960.86,-448.1 952.33,-441.82 950.28,-448.51"/>
</g>
<!-- Node8 -->
<g id="node8" class="node">
<title>Node8</title>
<g id="a_node8"><a xlink:href="../../de/db3/Actions_8h.html" target="_top" xlink:title=" ">
<polygon fill="white" stroke="black" points="829,-89.5 829,-141.5 975,-141.5 975,-89.5 829,-89.5"/>
<text text-anchor="start" x="837" y="-129.5" font-family="Helvetica,sans-Serif" font-size="10.00">/home/nico/projects</text>
<text text-anchor="start" x="837" y="-118.5" font-family="Helvetica,sans-Serif" font-size="10.00">/JODA&#45;gh/libs/joda/core</text>
<text text-anchor="start" x="837" y="-107.5" font-family="Helvetica,sans-Serif" font-size="10.00">/modules/queryparsing/src</text>
<text text-anchor="middle" x="902" y="-96.5" font-family="Helvetica,sans-Serif" font-size="10.00">/actions/Actions.h</text>
</a>
</g>
</g>
<!-- Node7&#45;&gt;Node8 -->
<g id="edge7" class="edge">
<title>Node7&#45;&gt;Node8</title>
<path fill="none" stroke="midnightblue" d="M895.57,-261.34C885.25,-252.92 875.9,-242.8 870,-231 855.51,-202.02 870.83,-165.52 884.84,-141.62"/>
<polygon fill="midnightblue" stroke="midnightblue" points="893.53,-264.19 903.6,-267.46 897.76,-258.61 893.53,-264.19"/>
</g>
<!-- Node10 -->
<g id="node10" class="node">
<title>Node10</title>
<g id="a_node10"><a xlink:href="../../d4/daf/Agg__Actions_8h.html" target="_top" xlink:title=" ">
<polygon fill="white" stroke="black" points="879,-178.5 879,-230.5 1025,-230.5 1025,-178.5 879,-178.5"/>
<text text-anchor="start" x="887" y="-218.5" font-family="Helvetica,sans-Serif" font-size="10.00">/home/nico/projects</text>
<text text-anchor="start" x="887" y="-207.5" font-family="Helvetica,sans-Serif" font-size="10.00">/JODA&#45;gh/libs/joda/core</text>
<text text-anchor="start" x="887" y="-196.5" font-family="Helvetica,sans-Serif" font-size="10.00">/modules/queryparsing/src</text>
<text text-anchor="middle" x="952" y="-185.5" font-family="Helvetica,sans-Serif" font-size="10.00">/actions/Agg_Actions.h</text>
</a>
</g>
</g>
<!-- Node7&#45;&gt;Node10 -->
<g id="edge9" class="edge">
<title>Node7&#45;&gt;Node10</title>
<path fill="none" stroke="midnightblue" d="M952,-257.19C952,-248.28 952,-238.9 952,-230.61"/>
<polygon fill="midnightblue" stroke="midnightblue" points="948.5,-257.34 952,-267.34 955.5,-257.34 948.5,-257.34"/>
</g>
<!-- Node11 -->
<g id="node11" class="node">
<title>Node11</title>
<g id="a_node11"><a xlink:href="../../d0/d2e/As__Actions_8h.html" target="_top" xlink:title=" ">
<polygon fill="white" stroke="black" points="1043,-178.5 1043,-230.5 1189,-230.5 1189,-178.5 1043,-178.5"/>
<text text-anchor="start" x="1051" y="-218.5" font-family="Helvetica,sans-Serif" font-size="10.00">/home/nico/projects</text>
<text text-anchor="start" x="1051" y="-207.5" font-family="Helvetica,sans-Serif" font-size="10.00">/JODA&#45;gh/libs/joda/core</text>
<text text-anchor="start" x="1051" y="-196.5" font-family="Helvetica,sans-Serif" font-size="10.00">/modules/queryparsing/src</text>
<text text-anchor="middle" x="1116" y="-185.5" font-family="Helvetica,sans-Serif" font-size="10.00">/actions/As_Actions.h</text>
</a>
</g>
</g>
<!-- Node7&#45;&gt;Node11 -->
<g id="edge11" class="edge">
<title>Node7&#45;&gt;Node11</title>
<path fill="none" stroke="midnightblue" d="M1008.3,-262.64C1027.96,-252.2 1049.81,-240.61 1068.67,-230.61"/>
<polygon fill="midnightblue" stroke="midnightblue" points="1006.63,-259.56 999.44,-267.34 1009.91,-265.74 1006.63,-259.56"/>
</g>
<!-- Node7&#45;&gt;Node12 -->
<g id="edge13" class="edge">
<title>Node7&#45;&gt;Node12</title>
<path fill="none" stroke="midnightblue" d="M868.59,-285.21C778.07,-276.33 629.63,-258.96 504,-231 501.09,-230.35 498.13,-229.65 495.16,-228.91"/>
<polygon fill="midnightblue" stroke="midnightblue" points="868.5,-288.71 878.79,-286.19 869.18,-281.75 868.5,-288.71"/>
</g>
<!-- Node13 -->
<g id="node13" class="node">
<title>Node13</title>
<g id="a_node13"><a xlink:href="../../d8/dc3/Delete__Actions_8h.html" target="_top" xlink:title=" ">
<polygon fill="white" stroke="black" points="1207,-178.5 1207,-230.5 1353,-230.5 1353,-178.5 1207,-178.5"/>
<text text-anchor="start" x="1215" y="-218.5" font-family="Helvetica,sans-Serif" font-size="10.00">/home/nico/projects</text>
<text text-anchor="start" x="1215" y="-207.5" font-family="Helvetica,sans-Serif" font-size="10.00">/JODA&#45;gh/libs/joda/core</text>
<text text-anchor="start" x="1215" y="-196.5" font-family="Helvetica,sans-Serif" font-size="10.00">/modules/queryparsing/src</text>
<text text-anchor="middle" x="1280" y="-185.5" font-family="Helvetica,sans-Serif" font-size="10.00">/actions/Delete_Actions.h</text>
</a>
</g>
</g>
<!-- Node7&#45;&gt;Node13 -->
<g id="edge15" class="edge">
<title>Node7&#45;&gt;Node13</title>
<path fill="none" stroke="midnightblue" d="M1035.2,-272.94C1083.01,-261.39 1144.08,-246.11 1198,-231 1200.87,-230.2 1203.79,-229.36 1206.74,-228.51"/>
<polygon fill="midnightblue" stroke="midnightblue" points="1034.11,-269.6 1025.21,-275.34 1035.75,-276.41 1034.11,-269.6"/>
</g>
<!-- Node14 -->
<g id="node14" class="node">
<title>Node14</title>
<g id="a_node14"><a xlink:href="../../df/d48/Load__Actions_8h.html" target="_top" xlink:title=" ">
<polygon fill="white" stroke="black" points="513,-178.5 513,-230.5 659,-230.5 659,-178.5 513,-178.5"/>
<text text-anchor="start" x="521" y="-218.5" font-family="Helvetica,sans-Serif" font-size="10.00">/home/nico/projects</text>
<text text-anchor="start" x="521" y="-207.5" font-family="Helvetica,sans-Serif" font-size="10.00">/JODA&#45;gh/libs/joda/core</text>
<text text-anchor="start" x="521" y="-196.5" font-family="Helvetica,sans-Serif" font-size="10.00">/modules/queryparsing/src</text>
<text text-anchor="middle" x="586" y="-185.5" font-family="Helvetica,sans-Serif" font-size="10.00">/actions/Load_Actions.h</text>
</a>
</g>
</g>
<!-- Node7&#45;&gt;Node14 -->
<g id="edge17" class="edge">
<title>Node7&#45;&gt;Node14</title>
<path fill="none" stroke="midnightblue" d="M868.89,-276.52C812.03,-265.09 735.08,-248.66 668,-231 665.12,-230.24 662.18,-229.44 659.23,-228.62"/>
<polygon fill="midnightblue" stroke="midnightblue" points="868.42,-279.99 878.91,-278.52 869.79,-273.13 868.42,-279.99"/>
</g>
<!-- Node15 -->
<g id="node15" class="node">
<title>Node15</title>
<g id="a_node15"><a xlink:href="../../d2/d4b/Store__Actions_8h.html" target="_top" xlink:title=" ">
<polygon fill="white" stroke="black" points="677,-178.5 677,-230.5 823,-230.5 823,-178.5 677,-178.5"/>
<text text-anchor="start" x="685" y="-218.5" font-family="Helvetica,sans-Serif" font-size="10.00">/home/nico/projects</text>
<text text-anchor="start" x="685" y="-207.5" font-family="Helvetica,sans-Serif" font-size="10.00">/JODA&#45;gh/libs/joda/core</text>
<text text-anchor="start" x="685" y="-196.5" font-family="Helvetica,sans-Serif" font-size="10.00">/modules/queryparsing/src</text>
<text text-anchor="middle" x="750" y="-185.5" font-family="Helvetica,sans-Serif" font-size="10.00">/actions/Store_Actions.h</text>
</a>
</g>
</g>
<!-- Node7&#45;&gt;Node15 -->
<g id="edge19" class="edge">
<title>Node7&#45;&gt;Node15</title>
<path fill="none" stroke="midnightblue" d="M884.52,-263.44C859.76,-252.77 831.96,-240.8 808.09,-230.52"/>
<polygon fill="midnightblue" stroke="midnightblue" points="883.28,-266.71 893.84,-267.45 886.04,-260.28 883.28,-266.71"/>
</g>
<!-- Node16 -->
<g id="node16" class="node">
<title>Node16</title>
<g id="a_node16"><a xlink:href="../../d4/d6a/Control_8h.html" target="_top" xlink:title=" ">
<polygon fill="white" stroke="black" points="1371,-178.5 1371,-230.5 1517,-230.5 1517,-178.5 1371,-178.5"/>
<text text-anchor="start" x="1379" y="-218.5" font-family="Helvetica,sans-Serif" font-size="10.00">/home/nico/projects</text>
<text text-anchor="start" x="1379" y="-207.5" font-family="Helvetica,sans-Serif" font-size="10.00">/JODA&#45;gh/libs/joda/core</text>
<text text-anchor="start" x="1379" y="-196.5" font-family="Helvetica,sans-Serif" font-size="10.00">/modules/queryparsing/src</text>
<text text-anchor="middle" x="1444" y="-185.5" font-family="Helvetica,sans-Serif" font-size="10.00">/Control.h</text>
</a>
</g>
</g>
<!-- Node7&#45;&gt;Node16 -->
<g id="edge21" class="edge">
<title>Node7&#45;&gt;Node16</title>
<path fill="none" stroke="midnightblue" d="M1035.38,-283.77C1118.72,-274.17 1250.2,-256.61 1362,-231 1364.91,-230.33 1367.86,-229.62 1370.83,-228.86"/>
<polygon fill="midnightblue" stroke="midnightblue" points="1034.75,-280.32 1025.21,-284.93 1035.54,-287.28 1034.75,-280.32"/>
</g>
<!-- Node8&#45;&gt;Node9 -->
<g id="edge8" class="edge">
<title>Node8&#45;&gt;Node9</title>
<path fill="none" stroke="midnightblue" d="M985.05,-101.17C1090.38,-84.26 1270.34,-55.38 1370.76,-39.26"/>
<polygon fill="midnightblue" stroke="midnightblue" points="984.42,-97.73 975.1,-102.77 985.52,-104.64 984.42,-97.73"/>
</g>
<!-- Node10&#45;&gt;Node8 -->
<g id="edge10" class="edge">
<title>Node10&#45;&gt;Node8</title>
<path fill="none" stroke="midnightblue" d="M932.54,-169.64C927.18,-160.31 921.45,-150.35 916.43,-141.61"/>
<polygon fill="midnightblue" stroke="midnightblue" points="929.52,-171.41 937.54,-178.34 935.59,-167.92 929.52,-171.41"/>
</g>
<!-- Node11&#45;&gt;Node8 -->
<g id="edge12" class="edge">
<title>Node11&#45;&gt;Node8</title>
<path fill="none" stroke="midnightblue" d="M1044.85,-174.58C1018.53,-163.88 988.94,-151.85 963.55,-141.52"/>
<polygon fill="midnightblue" stroke="midnightblue" points="1043.81,-177.93 1054.39,-178.45 1046.44,-171.44 1043.81,-177.93"/>
</g>
<!-- Node12&#45;&gt;Node8 -->
<g id="edge14" class="edge">
<title>Node12&#45;&gt;Node8</title>
<path fill="none" stroke="midnightblue" d="M505.11,-177.88C623.25,-151.09 750.63,-133.81 828.76,-124.52"/>
<polygon fill="midnightblue" stroke="midnightblue" points="504.13,-174.51 495.17,-180.16 505.7,-181.33 504.13,-174.51"/>
</g>
<!-- Node13&#45;&gt;Node8 -->
<g id="edge16" class="edge">
<title>Node13&#45;&gt;Node8</title>
<path fill="none" stroke="midnightblue" d="M1196.91,-177.81C1115.89,-157.15 1032.97,-140.53 975.14,-129.66"/>
<polygon fill="midnightblue" stroke="midnightblue" points="1196.23,-181.24 1206.78,-180.35 1197.97,-174.47 1196.23,-181.24"/>
</g>
<!-- Node14&#45;&gt;Node8 -->
<g id="edge18" class="edge">
<title>Node14&#45;&gt;Node8</title>
<path fill="none" stroke="midnightblue" d="M669.12,-177.72C727.99,-160.96 784.97,-146.04 828.78,-134.85"/>
<polygon fill="midnightblue" stroke="midnightblue" points="667.92,-174.42 659.27,-180.54 669.85,-181.15 667.92,-174.42"/>
</g>
<!-- Node15&#45;&gt;Node8 -->
<g id="edge20" class="edge">
<title>Node15&#45;&gt;Node8</title>
<path fill="none" stroke="midnightblue" d="M802.67,-173.35C820.77,-163 840.81,-151.52 858.13,-141.61"/>
<polygon fill="midnightblue" stroke="midnightblue" points="800.9,-170.33 793.96,-178.34 804.38,-176.41 800.9,-170.33"/>
</g>
<!-- Node16&#45;&gt;Node9 -->
<g id="edge22" class="edge">
<title>Node16&#45;&gt;Node9</title>
<path fill="none" stroke="midnightblue" d="M1444,-168.25C1444,-134.04 1444,-82.97 1444,-52.67"/>
<polygon fill="midnightblue" stroke="midnightblue" points="1440.5,-168.28 1444,-178.28 1447.5,-168.28 1440.5,-168.28"/>
</g>
<!-- Node17&#45;&gt;Node7 -->
<g id="edge24" class="edge">
<title>Node17&#45;&gt;Node7</title>
<path fill="none" stroke="midnightblue" d="M952,-346.19C952,-337.28 952,-327.9 952,-319.61"/>
<polygon fill="midnightblue" stroke="midnightblue" points="948.5,-346.34 952,-356.34 955.5,-346.34 948.5,-346.34"/>
</g>
<!-- Node18&#45;&gt;Node7 -->
<g id="edge26" class="edge">
<title>Node18&#45;&gt;Node7</title>
<path fill="none" stroke="midnightblue" d="M1059.7,-351.64C1040.04,-341.2 1018.19,-329.61 999.33,-319.61"/>
<polygon fill="midnightblue" stroke="midnightblue" points="1058.09,-354.74 1068.56,-356.34 1061.37,-348.56 1058.09,-354.74"/>
</g>
<!-- Node19&#45;&gt;Node7 -->
<g id="edge28" class="edge">
<title>Node19&#45;&gt;Node7</title>
<path fill="none" stroke="midnightblue" d="M1197.01,-355.77C1133.84,-338.23 1071.89,-322.86 1025.21,-311.66"/>
<polygon fill="midnightblue" stroke="midnightblue" points="1196.17,-359.17 1206.74,-358.49 1198.05,-352.43 1196.17,-359.17"/>
</g>
<!-- Node20&#45;&gt;Node7 -->
<g id="edge30" class="edge">
<title>Node20&#45;&gt;Node7</title>
<path fill="none" stroke="midnightblue" d="M1360.9,-355.88C1238.31,-328.38 1105.54,-311.14 1025.21,-302.07"/>
<polygon fill="midnightblue" stroke="midnightblue" points="1360.31,-359.34 1370.83,-358.14 1361.86,-352.51 1360.31,-359.34"/>
</g>
<!-- Node21 -->
<g id="node21" class="node">
<title>Node21</title>
<g id="a_node21"><a xlink:href="../../df/d7e/LOAD__error_8h.html" target="_top" xlink:title=" ">
<polygon fill="white" stroke="black" points="1371,-267.5 1371,-319.5 1517,-319.5 1517,-267.5 1371,-267.5"/>
<text text-anchor="start" x="1379" y="-307.5" font-family="Helvetica,sans-Serif" font-size="10.00">/home/nico/projects</text>
<text text-anchor="start" x="1379" y="-296.5" font-family="Helvetica,sans-Serif" font-size="10.00">/JODA&#45;gh/libs/joda/core</text>
<text text-anchor="start" x="1379" y="-285.5" font-family="Helvetica,sans-Serif" font-size="10.00">/modules/queryparsing/src</text>
<text text-anchor="middle" x="1444" y="-274.5" font-family="Helvetica,sans-Serif" font-size="10.00">/error/LOAD_error.h</text>
</a>
</g>
</g>
<!-- Node20&#45;&gt;Node21 -->
<g id="edge31" class="edge">
<title>Node20&#45;&gt;Node21</title>
<path fill="none" stroke="midnightblue" d="M1444,-346.19C1444,-337.28 1444,-327.9 1444,-319.61"/>
<polygon fill="midnightblue" stroke="midnightblue" points="1440.5,-346.34 1444,-356.34 1447.5,-346.34 1440.5,-346.34"/>
</g>
<!-- Node21&#45;&gt;Node16 -->
<g id="edge32" class="edge">
<title>Node21&#45;&gt;Node16</title>
<path fill="none" stroke="midnightblue" d="M1444,-257.19C1444,-248.28 1444,-238.9 1444,-230.61"/>
<polygon fill="midnightblue" stroke="midnightblue" points="1440.5,-257.34 1444,-267.34 1447.5,-257.34 1440.5,-257.34"/>
</g>
<!-- Node22&#45;&gt;Node7 -->
<g id="edge34" class="edge">
<title>Node22&#45;&gt;Node7</title>
<path fill="none" stroke="midnightblue" d="M817.48,-352.44C842.24,-341.77 870.04,-329.8 893.91,-319.52"/>
<polygon fill="midnightblue" stroke="midnightblue" points="815.96,-349.28 808.16,-356.45 818.72,-355.71 815.96,-349.28"/>
</g>
</g>
</svg>
