<?xml version="1.0" encoding="UTF-8" standalone="no"?>
<!DOCTYPE svg PUBLIC "-//W3C//DTD SVG 1.1//EN"
 "http://www.w3.org/Graphics/SVG/1.1/DTD/svg11.dtd">
<!-- Generated by graphviz version 2.43.0 (0)
 -->
<!-- Title: /home/nico/projects/tmp&#45;joda&#45;dirs/JODA&#45;gh/libs/joda/core/modules/query/values/include/joda/query/values/IsXBoolProvider.h Pages: 1 -->
<svg width="1670pt" height="761pt"
 viewBox="0.00 0.00 1669.50 761.00" xmlns="http://www.w3.org/2000/svg" xmlns:xlink="http://www.w3.org/1999/xlink">
<g id="graph0" class="graph" transform="scale(1 1) rotate(0) translate(4 757)">
<title>/home/nico/projects/tmp&#45;joda&#45;dirs/JODA&#45;gh/libs/joda/core/modules/query/values/include/joda/query/values/IsXBoolProvider.h</title>
<polygon fill="white" stroke="transparent" points="-4,4 -4,-757 1665.5,-757 1665.5,4 -4,4"/>
<!-- Node1 -->
<g id="node1" class="node">
<title>Node1</title>
<g id="a_node1"><a xlink:title=" ">
<polygon fill="#bfbfbf" stroke="black" points="399,-689.5 399,-752.5 570,-752.5 570,-689.5 399,-689.5"/>
<text text-anchor="start" x="407" y="-740.5" font-family="Helvetica,sans-Serif" font-size="10.00">/home/nico/projects</text>
<text text-anchor="start" x="407" y="-729.5" font-family="Helvetica,sans-Serif" font-size="10.00">/tmp&#45;joda&#45;dirs/JODA</text>
<text text-anchor="start" x="407" y="-718.5" font-family="Helvetica,sans-Serif" font-size="10.00">&#45;gh/libs/joda/core/modules</text>
<text text-anchor="start" x="407" y="-707.5" font-family="Helvetica,sans-Serif" font-size="10.00">/query/values/include/joda</text>
<text text-anchor="middle" x="484.5" y="-696.5" font-family="Helvetica,sans-Serif" font-size="10.00">/query/values/IsXBoolProvider.h</text>
</a>
</g>
</g>
<!-- Node2 -->
<g id="node2" class="node">
<title>Node2</title>
<g id="a_node2"><a xlink:href="../../dc/da4/StaticEvalVisitorTest_8cpp.html" target="_top" xlink:title=" ">
<polygon fill="white" stroke="black" points="0,-589.5 0,-652.5 161,-652.5 161,-589.5 0,-589.5"/>
<text text-anchor="start" x="8" y="-640.5" font-family="Helvetica,sans-Serif" font-size="10.00">/home/nico/projects</text>
<text text-anchor="start" x="8" y="-629.5" font-family="Helvetica,sans-Serif" font-size="10.00">/tmp&#45;joda&#45;dirs/JODA</text>
<text text-anchor="start" x="8" y="-618.5" font-family="Helvetica,sans-Serif" font-size="10.00">&#45;gh/libs/joda/core/modules</text>
<text text-anchor="start" x="8" y="-607.5" font-family="Helvetica,sans-Serif" font-size="10.00">/query/predicate/src/visitors</text>
<text text-anchor="middle" x="80.5" y="-596.5" font-family="Helvetica,sans-Serif" font-size="10.00">/test/StaticEvalVisitorTest.cpp</text>
</a>
</g>
</g>
<!-- Node1&#45;&gt;Node2 -->
<g id="edge1" class="edge">
<title>Node1&#45;&gt;Node2</title>
<path fill="none" stroke="midnightblue" d="M389,-702.75C326.39,-690.68 243.02,-673.15 170.5,-653 167.47,-652.16 164.4,-651.27 161.31,-650.35"/>
<polygon fill="midnightblue" stroke="midnightblue" points="388.38,-706.2 398.86,-704.64 389.7,-699.32 388.38,-706.2"/>
</g>
<!-- Node3 -->
<g id="node3" class="node">
<title>Node3</title>
<g id="a_node3"><a xlink:href="../../dd/d99/IsXBoolProvider_8cpp.html" target="_top" xlink:title=" ">
<polygon fill="white" stroke="black" points="179.5,-595 179.5,-647 379.5,-647 379.5,-595 179.5,-595"/>
<text text-anchor="start" x="187.5" y="-635" font-family="Helvetica,sans-Serif" font-size="10.00">/home/nico/projects</text>
<text text-anchor="start" x="187.5" y="-624" font-family="Helvetica,sans-Serif" font-size="10.00">/tmp&#45;joda&#45;dirs/JODA</text>
<text text-anchor="start" x="187.5" y="-613" font-family="Helvetica,sans-Serif" font-size="10.00">&#45;gh/libs/joda/core/modules</text>
<text text-anchor="middle" x="279.5" y="-602" font-family="Helvetica,sans-Serif" font-size="10.00">/query/values/src/IsXBoolProvider.cpp</text>
</a>
</g>
</g>
<!-- Node1&#45;&gt;Node3 -->
<g id="edge2" class="edge">
<title>Node1&#45;&gt;Node3</title>
<path fill="none" stroke="midnightblue" d="M411.34,-685.03C385.15,-672.5 356.16,-658.65 332.05,-647.12"/>
<polygon fill="midnightblue" stroke="midnightblue" points="409.95,-688.24 420.48,-689.4 412.97,-681.92 409.95,-688.24"/>
</g>
<!-- Node4 -->
<g id="node4" class="node">
<title>Node4</title>
<g id="a_node4"><a xlink:href="../../d1/df7/ValueTest_8cpp.html" target="_top" xlink:title=" ">
<polygon fill="white" stroke="black" points="397.5,-595 397.5,-647 571.5,-647 571.5,-595 397.5,-595"/>
<text text-anchor="start" x="405.5" y="-635" font-family="Helvetica,sans-Serif" font-size="10.00">/home/nico/projects</text>
<text text-anchor="start" x="405.5" y="-624" font-family="Helvetica,sans-Serif" font-size="10.00">/tmp&#45;joda&#45;dirs/JODA</text>
<text text-anchor="start" x="405.5" y="-613" font-family="Helvetica,sans-Serif" font-size="10.00">&#45;gh/libs/joda/core/modules</text>
<text text-anchor="middle" x="484.5" y="-602" font-family="Helvetica,sans-Serif" font-size="10.00">/query/values/test/ValueTest.cpp</text>
</a>
</g>
</g>
<!-- Node1&#45;&gt;Node4 -->
<g id="edge3" class="edge">
<title>Node1&#45;&gt;Node4</title>
<path fill="none" stroke="midnightblue" d="M484.5,-679.08C484.5,-668.21 484.5,-656.79 484.5,-647.05"/>
<polygon fill="midnightblue" stroke="midnightblue" points="481,-679.26 484.5,-689.26 488,-679.26 481,-679.26"/>
</g>
<!-- Node5 -->
<g id="node5" class="node">
<title>Node5</title>
<g id="a_node5"><a xlink:href="../../d0/d6c/FunctionWrapper_8h.html" target="_top" xlink:title=" ">
<polygon fill="white" stroke="black" points="983.5,-595 983.5,-647 1177.5,-647 1177.5,-595 983.5,-595"/>
<text text-anchor="start" x="991.5" y="-635" font-family="Helvetica,sans-Serif" font-size="10.00">/home/nico/projects</text>
<text text-anchor="start" x="991.5" y="-624" font-family="Helvetica,sans-Serif" font-size="10.00">/tmp&#45;joda&#45;dirs/JODA</text>
<text text-anchor="start" x="991.5" y="-613" font-family="Helvetica,sans-Serif" font-size="10.00">&#45;gh/libs/joda/core/modules</text>
<text text-anchor="middle" x="1080.5" y="-602" font-family="Helvetica,sans-Serif" font-size="10.00">/queryparsing/src/FunctionWrapper.h</text>
</a>
</g>
</g>
<!-- Node1&#45;&gt;Node5 -->
<g id="edge4" class="edge">
<title>Node1&#45;&gt;Node5</title>
<path fill="none" stroke="midnightblue" d="M580.36,-704.24C691.02,-686.04 872.02,-656.28 983.25,-637.99"/>
<polygon fill="midnightblue" stroke="midnightblue" points="579.51,-700.83 570.21,-705.91 580.64,-707.74 579.51,-700.83"/>
</g>
<!-- Node12 -->
<g id="node12" class="node">
<title>Node12</title>
<g id="a_node12"><a xlink:href="../../d4/daf/Choose__Actions_8h.html" target="_top" xlink:title=" ">
<polygon fill="white" stroke="black" points="463.5,-189.5 463.5,-252.5 609.5,-252.5 609.5,-189.5 463.5,-189.5"/>
<text text-anchor="start" x="471.5" y="-240.5" font-family="Helvetica,sans-Serif" font-size="10.00">/home/nico/projects</text>
<text text-anchor="start" x="471.5" y="-229.5" font-family="Helvetica,sans-Serif" font-size="10.00">/tmp&#45;joda&#45;dirs/JODA</text>
<text text-anchor="start" x="471.5" y="-218.5" font-family="Helvetica,sans-Serif" font-size="10.00">&#45;gh/libs/joda/core/modules</text>
<text text-anchor="start" x="471.5" y="-207.5" font-family="Helvetica,sans-Serif" font-size="10.00">/queryparsing/src/actions</text>
<text text-anchor="middle" x="536.5" y="-196.5" font-family="Helvetica,sans-Serif" font-size="10.00">/Choose_Actions.h</text>
</a>
</g>
</g>
<!-- Node1&#45;&gt;Node12 -->
<g id="edge36" class="edge">
<title>Node1&#45;&gt;Node12</title>
<path fill="none" stroke="midnightblue" d="M552.94,-682.98C563.62,-674.44 573.44,-664.44 580.5,-653 611.39,-602.93 599.5,-580.83 599.5,-522 599.5,-522 599.5,-522 599.5,-420 599.5,-358.31 571.39,-290.69 552.72,-252.59"/>
<polygon fill="midnightblue" stroke="midnightblue" points="550.52,-680.42 544.64,-689.23 554.73,-686.02 550.52,-680.42"/>
</g>
<!-- Node6 -->
<g id="node6" class="node">
<title>Node6</title>
<g id="a_node6"><a xlink:href="../../d1/d8c/Literals_8h.html" target="_top" xlink:title=" ">
<polygon fill="white" stroke="black" points="1006,-489.5 1006,-552.5 1155,-552.5 1155,-489.5 1006,-489.5"/>
<text text-anchor="start" x="1014" y="-540.5" font-family="Helvetica,sans-Serif" font-size="10.00">/home/nico/projects</text>
<text text-anchor="start" x="1014" y="-529.5" font-family="Helvetica,sans-Serif" font-size="10.00">/tmp&#45;joda&#45;dirs/JODA</text>
<text text-anchor="start" x="1014" y="-518.5" font-family="Helvetica,sans-Serif" font-size="10.00">&#45;gh/libs/joda/core/modules</text>
<text text-anchor="start" x="1014" y="-507.5" font-family="Helvetica,sans-Serif" font-size="10.00">/queryparsing/src/grammar</text>
<text text-anchor="middle" x="1080.5" y="-496.5" font-family="Helvetica,sans-Serif" font-size="10.00">/Literals.h</text>
</a>
</g>
</g>
<!-- Node5&#45;&gt;Node6 -->
<g id="edge5" class="edge">
<title>Node5&#45;&gt;Node6</title>
<path fill="none" stroke="midnightblue" d="M1080.5,-584.69C1080.5,-574.24 1080.5,-562.89 1080.5,-552.75"/>
<polygon fill="midnightblue" stroke="midnightblue" points="1077,-584.76 1080.5,-594.76 1084,-584.76 1077,-584.76"/>
</g>
<!-- Node9 -->
<g id="node9" class="node">
<title>Node9</title>
<g id="a_node9"><a xlink:href="../../d0/d62/QueryParser_8cpp.html" target="_top" xlink:title=" ">
<polygon fill="white" stroke="black" points="1468.5,-0.5 1468.5,-52.5 1650.5,-52.5 1650.5,-0.5 1468.5,-0.5"/>
<text text-anchor="start" x="1476.5" y="-40.5" font-family="Helvetica,sans-Serif" font-size="10.00">/home/nico/projects</text>
<text text-anchor="start" x="1476.5" y="-29.5" font-family="Helvetica,sans-Serif" font-size="10.00">/tmp&#45;joda&#45;dirs/JODA</text>
<text text-anchor="start" x="1476.5" y="-18.5" font-family="Helvetica,sans-Serif" font-size="10.00">&#45;gh/libs/joda/core/modules</text>
<text text-anchor="middle" x="1559.5" y="-7.5" font-family="Helvetica,sans-Serif" font-size="10.00">/queryparsing/src/QueryParser.cpp</text>
</a>
</g>
</g>
<!-- Node5&#45;&gt;Node9 -->
<g id="edge35" class="edge">
<title>Node5&#45;&gt;Node9</title>
<path fill="none" stroke="midnightblue" d="M1187.86,-605.79C1355.76,-580.53 1661.5,-520.95 1661.5,-422 1661.5,-422 1661.5,-422 1661.5,-220 1661.5,-153.43 1613.29,-87.41 1583.16,-52.65"/>
<polygon fill="midnightblue" stroke="midnightblue" points="1187.12,-602.36 1177.75,-607.3 1188.15,-609.29 1187.12,-602.36"/>
</g>
<!-- Node7 -->
<g id="node7" class="node">
<title>Node7</title>
<g id="a_node7"><a xlink:href="../../d4/d03/Grammar_8h.html" target="_top" xlink:title=" ">
<polygon fill="white" stroke="black" points="950,-289.5 950,-352.5 1099,-352.5 1099,-289.5 950,-289.5"/>
<text text-anchor="start" x="958" y="-340.5" font-family="Helvetica,sans-Serif" font-size="10.00">/home/nico/projects</text>
<text text-anchor="start" x="958" y="-329.5" font-family="Helvetica,sans-Serif" font-size="10.00">/tmp&#45;joda&#45;dirs/JODA</text>
<text text-anchor="start" x="958" y="-318.5" font-family="Helvetica,sans-Serif" font-size="10.00">&#45;gh/libs/joda/core/modules</text>
<text text-anchor="start" x="958" y="-307.5" font-family="Helvetica,sans-Serif" font-size="10.00">/queryparsing/src/grammar</text>
<text text-anchor="middle" x="1024.5" y="-296.5" font-family="Helvetica,sans-Serif" font-size="10.00">/Grammar.h</text>
</a>
</g>
</g>
<!-- Node6&#45;&gt;Node7 -->
<g id="edge6" class="edge">
<title>Node6&#45;&gt;Node7</title>
<path fill="none" stroke="midnightblue" d="M996.03,-513.17C955.62,-505.16 910.67,-488.26 885.5,-453 868.97,-429.85 870.37,-413.09 885.5,-389 900.03,-365.86 925.05,-350.52 949.89,-340.45"/>
<polygon fill="midnightblue" stroke="midnightblue" points="995.45,-516.62 1005.91,-514.98 996.71,-509.74 995.45,-516.62"/>
</g>
<!-- Node17 -->
<g id="node17" class="node">
<title>Node17</title>
<g id="a_node17"><a xlink:href="../../d7/dd9/Agg_8h.html" target="_top" xlink:title=" ">
<polygon fill="white" stroke="black" points="894,-395 894,-447 1073,-447 1073,-395 894,-395"/>
<text text-anchor="start" x="902" y="-435" font-family="Helvetica,sans-Serif" font-size="10.00">/home/nico/projects</text>
<text text-anchor="start" x="902" y="-424" font-family="Helvetica,sans-Serif" font-size="10.00">/tmp&#45;joda&#45;dirs/JODA</text>
<text text-anchor="start" x="902" y="-413" font-family="Helvetica,sans-Serif" font-size="10.00">&#45;gh/libs/joda/core/modules</text>
<text text-anchor="middle" x="983.5" y="-402" font-family="Helvetica,sans-Serif" font-size="10.00">/queryparsing/src/grammar/Agg.h</text>
</a>
</g>
</g>
<!-- Node6&#45;&gt;Node17 -->
<g id="edge23" class="edge">
<title>Node6&#45;&gt;Node17</title>
<path fill="none" stroke="midnightblue" d="M1042.98,-482.09C1031.35,-470.34 1018.83,-457.7 1008.3,-447.05"/>
<polygon fill="midnightblue" stroke="midnightblue" points="1040.55,-484.62 1050.07,-489.26 1045.53,-479.69 1040.55,-484.62"/>
</g>
<!-- Node18 -->
<g id="node18" class="node">
<title>Node18</title>
<g id="a_node18"><a xlink:href="../../d0/d72/As_8h.html" target="_top" xlink:title=" ">
<polygon fill="white" stroke="black" points="1091,-395 1091,-447 1264,-447 1264,-395 1091,-395"/>
<text text-anchor="start" x="1099" y="-435" font-family="Helvetica,sans-Serif" font-size="10.00">/home/nico/projects</text>
<text text-anchor="start" x="1099" y="-424" font-family="Helvetica,sans-Serif" font-size="10.00">/tmp&#45;joda&#45;dirs/JODA</text>
<text text-anchor="start" x="1099" y="-413" font-family="Helvetica,sans-Serif" font-size="10.00">&#45;gh/libs/joda/core/modules</text>
<text text-anchor="middle" x="1177.5" y="-402" font-family="Helvetica,sans-Serif" font-size="10.00">/queryparsing/src/grammar/As.h</text>
</a>
</g>
</g>
<!-- Node6&#45;&gt;Node18 -->
<g id="edge25" class="edge">
<title>Node6&#45;&gt;Node18</title>
<path fill="none" stroke="midnightblue" d="M1118.02,-482.09C1129.65,-470.34 1142.17,-457.7 1152.7,-447.05"/>
<polygon fill="midnightblue" stroke="midnightblue" points="1115.47,-479.69 1110.93,-489.26 1120.45,-484.62 1115.47,-479.69"/>
</g>
<!-- Node19 -->
<g id="node19" class="node">
<title>Node19</title>
<g id="a_node19"><a xlink:href="../../da/d78/Delete_8h.html" target="_top" xlink:title=" ">
<polygon fill="white" stroke="black" points="1282,-389.5 1282,-452.5 1431,-452.5 1431,-389.5 1282,-389.5"/>
<text text-anchor="start" x="1290" y="-440.5" font-family="Helvetica,sans-Serif" font-size="10.00">/home/nico/projects</text>
<text text-anchor="start" x="1290" y="-429.5" font-family="Helvetica,sans-Serif" font-size="10.00">/tmp&#45;joda&#45;dirs/JODA</text>
<text text-anchor="start" x="1290" y="-418.5" font-family="Helvetica,sans-Serif" font-size="10.00">&#45;gh/libs/joda/core/modules</text>
<text text-anchor="start" x="1290" y="-407.5" font-family="Helvetica,sans-Serif" font-size="10.00">/queryparsing/src/grammar</text>
<text text-anchor="middle" x="1356.5" y="-396.5" font-family="Helvetica,sans-Serif" font-size="10.00">/Delete.h</text>
</a>
</g>
</g>
<!-- Node6&#45;&gt;Node19 -->
<g id="edge27" class="edge">
<title>Node6&#45;&gt;Node19</title>
<path fill="none" stroke="midnightblue" d="M1165.17,-491.08C1198.94,-479.43 1238.12,-465.75 1273.5,-453 1276.25,-452.01 1279.05,-451 1281.87,-449.97"/>
<polygon fill="midnightblue" stroke="midnightblue" points="1163.65,-487.91 1155.34,-494.47 1165.93,-494.52 1163.65,-487.91"/>
</g>
<!-- Node20 -->
<g id="node20" class="node">
<title>Node20</title>
<g id="a_node20"><a xlink:href="../../d5/d7d/Load_8h.html" target="_top" xlink:title=" ">
<polygon fill="white" stroke="black" points="1449.5,-395 1449.5,-447 1633.5,-447 1633.5,-395 1449.5,-395"/>
<text text-anchor="start" x="1457.5" y="-435" font-family="Helvetica,sans-Serif" font-size="10.00">/home/nico/projects</text>
<text text-anchor="start" x="1457.5" y="-424" font-family="Helvetica,sans-Serif" font-size="10.00">/tmp&#45;joda&#45;dirs/JODA</text>
<text text-anchor="start" x="1457.5" y="-413" font-family="Helvetica,sans-Serif" font-size="10.00">&#45;gh/libs/joda/core/modules</text>
<text text-anchor="middle" x="1541.5" y="-402" font-family="Helvetica,sans-Serif" font-size="10.00">/queryparsing/src/grammar/Load.h</text>
</a>
</g>
</g>
<!-- Node6&#45;&gt;Node20 -->
<g id="edge29" class="edge">
<title>Node6&#45;&gt;Node20</title>
<path fill="none" stroke="midnightblue" d="M1165.25,-507.02C1238.58,-495.13 1347.19,-475.92 1440.5,-453 1447.8,-451.21 1455.36,-449.19 1462.9,-447.07"/>
<polygon fill="midnightblue" stroke="midnightblue" points="1164.46,-503.61 1155.15,-508.65 1165.58,-510.52 1164.46,-503.61"/>
</g>
<!-- Node22 -->
<g id="node22" class="node">
<title>Node22</title>
<g id="a_node22"><a xlink:href="../../db/d1d/Store_8h.html" target="_top" xlink:title=" ">
<polygon fill="white" stroke="black" points="689,-389.5 689,-452.5 838,-452.5 838,-389.5 689,-389.5"/>
<text text-anchor="start" x="697" y="-440.5" font-family="Helvetica,sans-Serif" font-size="10.00">/home/nico/projects</text>
<text text-anchor="start" x="697" y="-429.5" font-family="Helvetica,sans-Serif" font-size="10.00">/tmp&#45;joda&#45;dirs/JODA</text>
<text text-anchor="start" x="697" y="-418.5" font-family="Helvetica,sans-Serif" font-size="10.00">&#45;gh/libs/joda/core/modules</text>
<text text-anchor="start" x="697" y="-407.5" font-family="Helvetica,sans-Serif" font-size="10.00">/queryparsing/src/grammar</text>
<text text-anchor="middle" x="763.5" y="-396.5" font-family="Helvetica,sans-Serif" font-size="10.00">/Store.h</text>
</a>
</g>
</g>
<!-- Node6&#45;&gt;Node22 -->
<g id="edge33" class="edge">
<title>Node6&#45;&gt;Node22</title>
<path fill="none" stroke="midnightblue" d="M996.27,-496.53C952.85,-484.14 899.15,-468.35 851.5,-453 847.18,-451.61 842.76,-450.15 838.3,-448.66"/>
<polygon fill="midnightblue" stroke="midnightblue" points="995.36,-499.91 1005.93,-499.29 997.27,-493.18 995.36,-499.91"/>
</g>
<!-- Node8 -->
<g id="node8" class="node">
<title>Node8</title>
<g id="a_node8"><a xlink:href="../../de/db3/Actions_8h.html" target="_top" xlink:title=" ">
<polygon fill="white" stroke="black" points="943.5,-89.5 943.5,-152.5 1089.5,-152.5 1089.5,-89.5 943.5,-89.5"/>
<text text-anchor="start" x="951.5" y="-140.5" font-family="Helvetica,sans-Serif" font-size="10.00">/home/nico/projects</text>
<text text-anchor="start" x="951.5" y="-129.5" font-family="Helvetica,sans-Serif" font-size="10.00">/tmp&#45;joda&#45;dirs/JODA</text>
<text text-anchor="start" x="951.5" y="-118.5" font-family="Helvetica,sans-Serif" font-size="10.00">&#45;gh/libs/joda/core/modules</text>
<text text-anchor="start" x="951.5" y="-107.5" font-family="Helvetica,sans-Serif" font-size="10.00">/queryparsing/src/actions</text>
<text text-anchor="middle" x="1016.5" y="-96.5" font-family="Helvetica,sans-Serif" font-size="10.00">/Actions.h</text>
</a>
</g>
</g>
<!-- Node7&#45;&gt;Node8 -->
<g id="edge7" class="edge">
<title>Node7&#45;&gt;Node8</title>
<path fill="none" stroke="midnightblue" d="M996.23,-280.49C991.39,-271.81 987.09,-262.4 984.5,-253 976.94,-225.58 978.22,-216.74 984.5,-189 987.32,-176.55 992.74,-163.71 998.34,-152.65"/>
<polygon fill="midnightblue" stroke="midnightblue" points="993.3,-282.42 1001.42,-289.23 999.32,-278.84 993.3,-282.42"/>
</g>
<!-- Node10 -->
<g id="node10" class="node">
<title>Node10</title>
<g id="a_node10"><a xlink:href="../../d4/daf/Agg__Actions_8h.html" target="_top" xlink:title=" ">
<polygon fill="white" stroke="black" points="993.5,-189.5 993.5,-252.5 1139.5,-252.5 1139.5,-189.5 993.5,-189.5"/>
<text text-anchor="start" x="1001.5" y="-240.5" font-family="Helvetica,sans-Serif" font-size="10.00">/home/nico/projects</text>
<text text-anchor="start" x="1001.5" y="-229.5" font-family="Helvetica,sans-Serif" font-size="10.00">/tmp&#45;joda&#45;dirs/JODA</text>
<text text-anchor="start" x="1001.5" y="-218.5" font-family="Helvetica,sans-Serif" font-size="10.00">&#45;gh/libs/joda/core/modules</text>
<text text-anchor="start" x="1001.5" y="-207.5" font-family="Helvetica,sans-Serif" font-size="10.00">/queryparsing/src/actions</text>
<text text-anchor="middle" x="1066.5" y="-196.5" font-family="Helvetica,sans-Serif" font-size="10.00">/Agg_Actions.h</text>
</a>
</g>
</g>
<!-- Node7&#45;&gt;Node10 -->
<g id="edge9" class="edge">
<title>Node7&#45;&gt;Node10</title>
<path fill="none" stroke="midnightblue" d="M1041.66,-279.96C1045.57,-270.84 1049.66,-261.29 1053.37,-252.63"/>
<polygon fill="midnightblue" stroke="midnightblue" points="1038.4,-278.69 1037.67,-289.26 1044.83,-281.45 1038.4,-278.69"/>
</g>
<!-- Node11 -->
<g id="node11" class="node">
<title>Node11</title>
<g id="a_node11"><a xlink:href="../../d0/d2e/As__Actions_8h.html" target="_top" xlink:title=" ">
<polygon fill="white" stroke="black" points="1157.5,-189.5 1157.5,-252.5 1303.5,-252.5 1303.5,-189.5 1157.5,-189.5"/>
<text text-anchor="start" x="1165.5" y="-240.5" font-family="Helvetica,sans-Serif" font-size="10.00">/home/nico/projects</text>
<text text-anchor="start" x="1165.5" y="-229.5" font-family="Helvetica,sans-Serif" font-size="10.00">/tmp&#45;joda&#45;dirs/JODA</text>
<text text-anchor="start" x="1165.5" y="-218.5" font-family="Helvetica,sans-Serif" font-size="10.00">&#45;gh/libs/joda/core/modules</text>
<text text-anchor="start" x="1165.5" y="-207.5" font-family="Helvetica,sans-Serif" font-size="10.00">/queryparsing/src/actions</text>
<text text-anchor="middle" x="1230.5" y="-196.5" font-family="Helvetica,sans-Serif" font-size="10.00">/As_Actions.h</text>
</a>
</g>
</g>
<!-- Node7&#45;&gt;Node11 -->
<g id="edge11" class="edge">
<title>Node7&#45;&gt;Node11</title>
<path fill="none" stroke="midnightblue" d="M1097.94,-285.06C1120.27,-274.44 1144.63,-262.85 1166.3,-252.54"/>
<polygon fill="midnightblue" stroke="midnightblue" points="1096.36,-281.94 1088.83,-289.4 1099.37,-288.26 1096.36,-281.94"/>
</g>
<!-- Node7&#45;&gt;Node12 -->
<g id="edge13" class="edge">
<title>Node7&#45;&gt;Node12</title>
<path fill="none" stroke="midnightblue" d="M939.73,-310.97C856.86,-300.98 727.61,-282.32 618.5,-253 615.56,-252.21 612.58,-251.35 609.58,-250.45"/>
<polygon fill="midnightblue" stroke="midnightblue" points="939.5,-314.47 949.85,-312.17 940.33,-307.51 939.5,-314.47"/>
</g>
<!-- Node13 -->
<g id="node13" class="node">
<title>Node13</title>
<g id="a_node13"><a xlink:href="../../d8/dc3/Delete__Actions_8h.html" target="_top" xlink:title=" ">
<polygon fill="white" stroke="black" points="1321.5,-189.5 1321.5,-252.5 1467.5,-252.5 1467.5,-189.5 1321.5,-189.5"/>
<text text-anchor="start" x="1329.5" y="-240.5" font-family="Helvetica,sans-Serif" font-size="10.00">/home/nico/projects</text>
<text text-anchor="start" x="1329.5" y="-229.5" font-family="Helvetica,sans-Serif" font-size="10.00">/tmp&#45;joda&#45;dirs/JODA</text>
<text text-anchor="start" x="1329.5" y="-218.5" font-family="Helvetica,sans-Serif" font-size="10.00">&#45;gh/libs/joda/core/modules</text>
<text text-anchor="start" x="1329.5" y="-207.5" font-family="Helvetica,sans-Serif" font-size="10.00">/queryparsing/src/actions</text>
<text text-anchor="middle" x="1394.5" y="-196.5" font-family="Helvetica,sans-Serif" font-size="10.00">/Delete_Actions.h</text>
</a>
</g>
</g>
<!-- Node7&#45;&gt;Node13 -->
<g id="edge15" class="edge">
<title>Node7&#45;&gt;Node13</title>
<path fill="none" stroke="midnightblue" d="M1109.03,-303.43C1166.84,-291.34 1244.94,-273.53 1312.5,-253 1315.41,-252.11 1318.37,-251.18 1321.35,-250.21"/>
<polygon fill="midnightblue" stroke="midnightblue" points="1108.29,-300.01 1099.21,-305.47 1109.71,-306.86 1108.29,-300.01"/>
</g>
<!-- Node14 -->
<g id="node14" class="node">
<title>Node14</title>
<g id="a_node14"><a xlink:href="../../df/d48/Load__Actions_8h.html" target="_top" xlink:title=" ">
<polygon fill="white" stroke="black" points="627.5,-189.5 627.5,-252.5 773.5,-252.5 773.5,-189.5 627.5,-189.5"/>
<text text-anchor="start" x="635.5" y="-240.5" font-family="Helvetica,sans-Serif" font-size="10.00">/home/nico/projects</text>
<text text-anchor="start" x="635.5" y="-229.5" font-family="Helvetica,sans-Serif" font-size="10.00">/tmp&#45;joda&#45;dirs/JODA</text>
<text text-anchor="start" x="635.5" y="-218.5" font-family="Helvetica,sans-Serif" font-size="10.00">&#45;gh/libs/joda/core/modules</text>
<text text-anchor="start" x="635.5" y="-207.5" font-family="Helvetica,sans-Serif" font-size="10.00">/queryparsing/src/actions</text>
<text text-anchor="middle" x="700.5" y="-196.5" font-family="Helvetica,sans-Serif" font-size="10.00">/Load_Actions.h</text>
</a>
</g>
</g>
<!-- Node7&#45;&gt;Node14 -->
<g id="edge17" class="edge">
<title>Node7&#45;&gt;Node14</title>
<path fill="none" stroke="midnightblue" d="M940.05,-298.65C893.31,-286.32 834.34,-269.94 782.5,-253 779.61,-252.05 776.66,-251.07 773.7,-250.05"/>
<polygon fill="midnightblue" stroke="midnightblue" points="939.27,-302.06 949.83,-301.21 941.05,-295.29 939.27,-302.06"/>
</g>
<!-- Node15 -->
<g id="node15" class="node">
<title>Node15</title>
<g id="a_node15"><a xlink:href="../../d2/d4b/Store__Actions_8h.html" target="_top" xlink:title=" ">
<polygon fill="white" stroke="black" points="791.5,-189.5 791.5,-252.5 937.5,-252.5 937.5,-189.5 791.5,-189.5"/>
<text text-anchor="start" x="799.5" y="-240.5" font-family="Helvetica,sans-Serif" font-size="10.00">/home/nico/projects</text>
<text text-anchor="start" x="799.5" y="-229.5" font-family="Helvetica,sans-Serif" font-size="10.00">/tmp&#45;joda&#45;dirs/JODA</text>
<text text-anchor="start" x="799.5" y="-218.5" font-family="Helvetica,sans-Serif" font-size="10.00">&#45;gh/libs/joda/core/modules</text>
<text text-anchor="start" x="799.5" y="-207.5" font-family="Helvetica,sans-Serif" font-size="10.00">/queryparsing/src/actions</text>
<text text-anchor="middle" x="864.5" y="-196.5" font-family="Helvetica,sans-Serif" font-size="10.00">/Store_Actions.h</text>
</a>
</g>
</g>
<!-- Node7&#45;&gt;Node15 -->
<g id="edge19" class="edge">
<title>Node7&#45;&gt;Node15</title>
<path fill="none" stroke="midnightblue" d="M965.67,-283.97C948.87,-273.68 930.73,-262.56 914.51,-252.63"/>
<polygon fill="midnightblue" stroke="midnightblue" points="963.96,-287.02 974.31,-289.26 967.61,-281.05 963.96,-287.02"/>
</g>
<!-- Node16 -->
<g id="node16" class="node">
<title>Node16</title>
<g id="a_node16"><a xlink:href="../../d4/d6a/Control_8h.html" target="_top" xlink:title=" ">
<polygon fill="white" stroke="black" points="1485.5,-195 1485.5,-247 1633.5,-247 1633.5,-195 1485.5,-195"/>
<text text-anchor="start" x="1493.5" y="-235" font-family="Helvetica,sans-Serif" font-size="10.00">/home/nico/projects</text>
<text text-anchor="start" x="1493.5" y="-224" font-family="Helvetica,sans-Serif" font-size="10.00">/tmp&#45;joda&#45;dirs/JODA</text>
<text text-anchor="start" x="1493.5" y="-213" font-family="Helvetica,sans-Serif" font-size="10.00">&#45;gh/libs/joda/core/modules</text>
<text text-anchor="middle" x="1559.5" y="-202" font-family="Helvetica,sans-Serif" font-size="10.00">/queryparsing/src/Control.h</text>
</a>
</g>
</g>
<!-- Node7&#45;&gt;Node16 -->
<g id="edge21" class="edge">
<title>Node7&#45;&gt;Node16</title>
<path fill="none" stroke="midnightblue" d="M1109.1,-312.82C1200.71,-303.81 1350.63,-285.45 1476.5,-253 1483.05,-251.31 1489.81,-249.29 1496.5,-247.09"/>
<polygon fill="midnightblue" stroke="midnightblue" points="1108.66,-309.35 1099.04,-313.79 1109.34,-316.31 1108.66,-309.35"/>
</g>
<!-- Node8&#45;&gt;Node9 -->
<g id="edge8" class="edge">
<title>Node8&#45;&gt;Node9</title>
<path fill="none" stroke="midnightblue" d="M1099.75,-105.82C1199.35,-88.85 1365.53,-60.54 1468.46,-43.01"/>
<polygon fill="midnightblue" stroke="midnightblue" points="1099,-102.4 1089.73,-107.53 1100.18,-109.3 1099,-102.4"/>
</g>
<!-- Node10&#45;&gt;Node8 -->
<g id="edge10" class="edge">
<title>Node10&#45;&gt;Node8</title>
<path fill="none" stroke="midnightblue" d="M1046.22,-180.25C1041.52,-171.04 1036.59,-161.38 1032.13,-152.63"/>
<polygon fill="midnightblue" stroke="midnightblue" points="1043.15,-181.94 1050.82,-189.26 1049.39,-178.76 1043.15,-181.94"/>
</g>
<!-- Node11&#45;&gt;Node8 -->
<g id="edge12" class="edge">
<title>Node11&#45;&gt;Node8</title>
<path fill="none" stroke="midnightblue" d="M1154.52,-185.21C1131.24,-174.54 1105.81,-162.9 1083.19,-152.54"/>
<polygon fill="midnightblue" stroke="midnightblue" points="1153.12,-188.41 1163.67,-189.4 1156.03,-182.05 1153.12,-188.41"/>
</g>
<!-- Node12&#45;&gt;Node8 -->
<g id="edge14" class="edge">
<title>Node12&#45;&gt;Node8</title>
<path fill="none" stroke="midnightblue" d="M619.48,-188.91C737.16,-157.83 864.98,-139.5 943.32,-129.98"/>
<polygon fill="midnightblue" stroke="midnightblue" points="618.34,-185.6 609.59,-191.56 620.15,-192.36 618.34,-185.6"/>
</g>
<!-- Node13&#45;&gt;Node8 -->
<g id="edge16" class="edge">
<title>Node13&#45;&gt;Node8</title>
<path fill="none" stroke="midnightblue" d="M1311.52,-188.84C1230.77,-165.01 1147.61,-147.07 1089.61,-135.61"/>
<polygon fill="midnightblue" stroke="midnightblue" points="1310.77,-192.27 1321.36,-191.77 1312.77,-185.56 1310.77,-192.27"/>
</g>
<!-- Node14&#45;&gt;Node8 -->
<g id="edge18" class="edge">
<title>Node14&#45;&gt;Node8</title>
<path fill="none" stroke="midnightblue" d="M783.53,-188.74C842.25,-169.49 899.37,-153.25 943.3,-141.29"/>
<polygon fill="midnightblue" stroke="midnightblue" points="782.11,-185.52 773.71,-191.98 784.3,-192.17 782.11,-185.52"/>
</g>
<!-- Node15&#45;&gt;Node8 -->
<g id="edge20" class="edge">
<title>Node15&#45;&gt;Node8</title>
<path fill="none" stroke="midnightblue" d="M920.83,-183.68C936.67,-173.47 953.73,-162.47 968.99,-152.63"/>
<polygon fill="midnightblue" stroke="midnightblue" points="918.68,-180.9 912.18,-189.26 922.48,-186.78 918.68,-180.9"/>
</g>
<!-- Node16&#45;&gt;Node9 -->
<g id="edge22" class="edge">
<title>Node16&#45;&gt;Node9</title>
<path fill="none" stroke="midnightblue" d="M1559.5,-184.67C1559.5,-146.42 1559.5,-86.4 1559.5,-52.67"/>
<polygon fill="midnightblue" stroke="midnightblue" points="1556,-184.83 1559.5,-194.83 1563,-184.83 1556,-184.83"/>
</g>
<!-- Node17&#45;&gt;Node7 -->
<g id="edge24" class="edge">
<title>Node17&#45;&gt;Node7</title>
<path fill="none" stroke="midnightblue" d="M998,-385.34C1002.45,-374.71 1007.31,-363.1 1011.64,-352.75"/>
<polygon fill="midnightblue" stroke="midnightblue" points="994.69,-384.19 994.06,-394.76 1001.15,-386.89 994.69,-384.19"/>
</g>
<!-- Node18&#45;&gt;Node7 -->
<g id="edge26" class="edge">
<title>Node18&#45;&gt;Node7</title>
<path fill="none" stroke="midnightblue" d="M1129.37,-389.17C1111.15,-377.5 1090.42,-364.22 1072.23,-352.57"/>
<polygon fill="midnightblue" stroke="midnightblue" points="1127.79,-392.32 1138.1,-394.76 1131.57,-386.42 1127.79,-392.32"/>
</g>
<!-- Node19&#45;&gt;Node7 -->
<g id="edge28" class="edge">
<title>Node19&#45;&gt;Node7</title>
<path fill="none" stroke="midnightblue" d="M1272.23,-388.68C1209.05,-368.7 1146.44,-352.06 1099.13,-340.11"/>
<polygon fill="midnightblue" stroke="midnightblue" points="1271.37,-392.08 1281.96,-391.78 1273.5,-385.41 1271.37,-392.08"/>
</g>
<!-- Node20&#45;&gt;Node7 -->
<g id="edge30" class="edge">
<title>Node20&#45;&gt;Node7</title>
<path fill="none" stroke="midnightblue" d="M1453.87,-392.31C1449.37,-391.13 1444.89,-390.02 1440.5,-389 1322.41,-361.51 1182.85,-341.53 1099.12,-330.86"/>
<polygon fill="midnightblue" stroke="midnightblue" points="1453.2,-395.75 1463.77,-394.97 1455.02,-388.99 1453.2,-395.75"/>
</g>
<!-- Node21 -->
<g id="node21" class="node">
<title>Node21</title>
<g id="a_node21"><a xlink:href="../../df/d7e/LOAD__error_8h.html" target="_top" xlink:title=" ">
<polygon fill="white" stroke="black" points="1469,-289.5 1469,-352.5 1626,-352.5 1626,-289.5 1469,-289.5"/>
<text text-anchor="start" x="1477" y="-340.5" font-family="Helvetica,sans-Serif" font-size="10.00">/home/nico/projects</text>
<text text-anchor="start" x="1477" y="-329.5" font-family="Helvetica,sans-Serif" font-size="10.00">/tmp&#45;joda&#45;dirs/JODA</text>
<text text-anchor="start" x="1477" y="-318.5" font-family="Helvetica,sans-Serif" font-size="10.00">&#45;gh/libs/joda/core/modules</text>
<text text-anchor="start" x="1477" y="-307.5" font-family="Helvetica,sans-Serif" font-size="10.00">/queryparsing/src/error/LOAD</text>
<text text-anchor="middle" x="1547.5" y="-296.5" font-family="Helvetica,sans-Serif" font-size="10.00">_error.h</text>
</a>
</g>
</g>
<!-- Node20&#45;&gt;Node21 -->
<g id="edge31" class="edge">
<title>Node20&#45;&gt;Node21</title>
<path fill="none" stroke="midnightblue" d="M1543.66,-384.69C1544.3,-374.24 1545,-362.89 1545.62,-352.75"/>
<polygon fill="midnightblue" stroke="midnightblue" points="1540.16,-384.57 1543.05,-394.76 1547.15,-385 1540.16,-384.57"/>
</g>
<!-- Node21&#45;&gt;Node16 -->
<g id="edge32" class="edge">
<title>Node21&#45;&gt;Node16</title>
<path fill="none" stroke="midnightblue" d="M1552.51,-279.08C1553.84,-268.21 1555.24,-256.79 1556.43,-247.05"/>
<polygon fill="midnightblue" stroke="midnightblue" points="1549.01,-278.91 1551.26,-289.26 1555.95,-279.76 1549.01,-278.91"/>
</g>
<!-- Node22&#45;&gt;Node7 -->
<g id="edge34" class="edge">
<title>Node22&#45;&gt;Node7</title>
<path fill="none" stroke="midnightblue" d="M847.86,-388.32C880.65,-376.01 917.89,-362.03 949.7,-350.09"/>
<polygon fill="midnightblue" stroke="midnightblue" points="846.42,-385.13 838.29,-391.92 848.88,-391.68 846.42,-385.13"/>
</g>
</g>
</svg>
