<?xml version="1.0" encoding="UTF-8" standalone="no"?>
<!DOCTYPE svg PUBLIC "-//W3C//DTD SVG 1.1//EN"
 "http://www.w3.org/Graphics/SVG/1.1/DTD/svg11.dtd">
<!-- Generated by graphviz version 2.43.0 (0)
 -->
<!-- Title: /home/nico/projects/tmp&#45;joda&#45;dirs/JODA&#45;gh/libs/joda/core/modules/queryexecution/src/QueryThread.h Pages: 1 -->
<svg width="410pt" height="150pt"
 viewBox="0.00 0.00 409.50 150.00" xmlns="http://www.w3.org/2000/svg" xmlns:xlink="http://www.w3.org/1999/xlink">
<g id="graph0" class="graph" transform="scale(1 1) rotate(0) translate(4 146)">
<title>/home/nico/projects/tmp&#45;joda&#45;dirs/JODA&#45;gh/libs/joda/core/modules/queryexecution/src/QueryThread.h</title>
<polygon fill="white" stroke="transparent" points="-4,4 -4,-146 405.5,-146 405.5,4 -4,4"/>
<!-- Node1 -->
<g id="node1" class="node">
<title>Node1</title>
<g id="a_node1"><a xlink:title=" ">
<polygon fill="#bfbfbf" stroke="black" points="104,-89.5 104,-141.5 291,-141.5 291,-89.5 104,-89.5"/>
<text text-anchor="start" x="112" y="-129.5" font-family="Helvetica,sans-Serif" font-size="10.00">/home/nico/projects</text>
<text text-anchor="start" x="112" y="-118.5" font-family="Helvetica,sans-Serif" font-size="10.00">/tmp&#45;joda&#45;dirs/JODA</text>
<text text-anchor="start" x="112" y="-107.5" font-family="Helvetica,sans-Serif" font-size="10.00">&#45;gh/libs/joda/core/modules</text>
<text text-anchor="middle" x="197.5" y="-96.5" font-family="Helvetica,sans-Serif" font-size="10.00">/queryexecution/src/QueryThread.h</text>
</a>
</g>
</g>
<!-- Node2 -->
<g id="node2" class="node">
<title>Node2</title>
<g id="a_node2"><a xlink:href="../../d2/d7a/QueryPlan_8cpp.html" target="_top" xlink:title=" ">
<polygon fill="white" stroke="black" points="0,-0.5 0,-52.5 185,-52.5 185,-0.5 0,-0.5"/>
<text text-anchor="start" x="8" y="-40.5" font-family="Helvetica,sans-Serif" font-size="10.00">/home/nico/projects</text>
<text text-anchor="start" x="8" y="-29.5" font-family="Helvetica,sans-Serif" font-size="10.00">/tmp&#45;joda&#45;dirs/JODA</text>
<text text-anchor="start" x="8" y="-18.5" font-family="Helvetica,sans-Serif" font-size="10.00">&#45;gh/libs/joda/core/modules</text>
<text text-anchor="middle" x="92.5" y="-7.5" font-family="Helvetica,sans-Serif" font-size="10.00">/queryexecution/src/QueryPlan.cpp</text>
</a>
</g>
</g>
<!-- Node1&#45;&gt;Node2 -->
<g id="edge1" class="edge">
<title>Node1&#45;&gt;Node2</title>
<path fill="none" stroke="midnightblue" d="M159.4,-82.93C147.36,-72.96 134.22,-62.07 122.8,-52.61"/>
<polygon fill="midnightblue" stroke="midnightblue" points="157.2,-85.65 167.13,-89.34 161.66,-80.26 157.2,-85.65"/>
</g>
<!-- Node3 -->
<g id="node3" class="node">
<title>Node3</title>
<g id="a_node3"><a xlink:href="../../da/d11/QueryThread_8cpp.html" target="_top" xlink:title=" ">
<polygon fill="white" stroke="black" points="203.5,-0.5 203.5,-52.5 401.5,-52.5 401.5,-0.5 203.5,-0.5"/>
<text text-anchor="start" x="211.5" y="-40.5" font-family="Helvetica,sans-Serif" font-size="10.00">/home/nico/projects</text>
<text text-anchor="start" x="211.5" y="-29.5" font-family="Helvetica,sans-Serif" font-size="10.00">/tmp&#45;joda&#45;dirs/JODA</text>
<text text-anchor="start" x="211.5" y="-18.5" font-family="Helvetica,sans-Serif" font-size="10.00">&#45;gh/libs/joda/core/modules</text>
<text text-anchor="middle" x="302.5" y="-7.5" font-family="Helvetica,sans-Serif" font-size="10.00">/queryexecution/src/QueryThread.cpp</text>
</a>
</g>
</g>
<!-- Node1&#45;&gt;Node3 -->
<g id="edge2" class="edge">
<title>Node1&#45;&gt;Node3</title>
<path fill="none" stroke="midnightblue" d="M235.6,-82.93C247.64,-72.96 260.78,-62.07 272.2,-52.61"/>
<polygon fill="midnightblue" stroke="midnightblue" points="233.34,-80.26 227.87,-89.34 237.8,-85.65 233.34,-80.26"/>
</g>
</g>
</svg>
