<?xml version="1.0" encoding="UTF-8" standalone="no"?>
<!DOCTYPE svg PUBLIC "-//W3C//DTD SVG 1.1//EN"
 "http://www.w3.org/Graphics/SVG/1.1/DTD/svg11.dtd">
<!-- Generated by graphviz version 2.43.0 (0)
 -->
<!-- Title: /home/nico/projects/tmp&#45;joda&#45;dirs/JODA&#45;gh/libs/joda/core/modules/query/values/include/joda/query/values/TemplateProvider.h Pages: 1 -->
<!--zoomable 732 -->
<svg id="main" version="1.1" xmlns="http://www.w3.org/2000/svg" xmlns:xlink="http://www.w3.org/1999/xlink" xml:space="preserve" onload="init(evt)">
<style type="text/css"><![CDATA[
.edge:hover path { stroke: red; }
.edge:hover polygon { stroke: red; fill: red; }
]]></style>
<script type="text/javascript"><![CDATA[
var edges = document.getElementsByTagName('g');
if (edges && edges.length) {
  for (var i=0;i<edges.length;i++) {
    if (edges[i].id.substr(0,4)=='edge') {
      edges[i].setAttribute('class','edge');
    }
  }
}
]]></script>
        <defs>
                <circle id="rim" cx="0" cy="0" r="7"/>
                <circle id="rim2" cx="0" cy="0" r="3.5"/>
                <g id="zoomPlus">
                        <use xlink:href="#rim" fill="#404040">
                                <set attributeName="fill" to="#808080" begin="zoomplus.mouseover" end="zoomplus.mouseout"/>
                        </use>
                        <path d="M-4,0h8M0,-4v8" fill="none" stroke="white" stroke-width="1.5" pointer-events="none"/>
                </g>
                <g id="zoomMin">
                        <use xlink:href="#rim" fill="#404040">
                                <set attributeName="fill" to="#808080" begin="zoomminus.mouseover" end="zoomminus.mouseout"/>
                        </use>
                        <path d="M-4,0h8" fill="none" stroke="white" stroke-width="1.5" pointer-events="none"/>
                </g>
                <g id="dirArrow">
                        <path fill="none" stroke="white" stroke-width="1.5" d="M0,-3.0v7 M-2.5,-0.5L0,-3.0L2.5,-0.5"/>
                </g>
               <g id="resetDef">
                       <use xlink:href="#rim2" fill="#404040">
                               <set attributeName="fill" to="#808080" begin="reset.mouseover" end="reset.mouseout"/>
                       </use>
               </g>
        </defs>

<script type="text/javascript">
var viewWidth = 1705;
var viewHeight = 732;
var sectionId = 'dynsection-0';
</script>
<script xlink:href="../../svgpan.js"/>
<svg id="graph" class="graph">
<g id="viewport">
<title>/home/nico/projects/tmp&#45;joda&#45;dirs/JODA&#45;gh/libs/joda/core/modules/query/values/include/joda/query/values/TemplateProvider.h</title>
<polygon fill="white" stroke="transparent" points="-4,4 -4,-728 1701.08,-728 1701.08,4 -4,4"/>
<!-- Node1 -->
<g id="node1" class="node">
<title>Node1</title>
<g id="a_node1"><a xlink:title=" ">
<polygon fill="#bfbfbf" stroke="black" points="638.5,-660.5 638.5,-723.5 817.5,-723.5 817.5,-660.5 638.5,-660.5"/>
<text text-anchor="start" x="646.5" y="-711.5" font-family="Helvetica,sans-Serif" font-size="10.00">/home/nico/projects</text>
<text text-anchor="start" x="646.5" y="-700.5" font-family="Helvetica,sans-Serif" font-size="10.00">/tmp&#45;joda&#45;dirs/JODA</text>
<text text-anchor="start" x="646.5" y="-689.5" font-family="Helvetica,sans-Serif" font-size="10.00">&#45;gh/libs/joda/core/modules</text>
<text text-anchor="start" x="646.5" y="-678.5" font-family="Helvetica,sans-Serif" font-size="10.00">/query/values/include/joda</text>
<text text-anchor="middle" x="728" y="-667.5" font-family="Helvetica,sans-Serif" font-size="10.00">/query/values/TemplateProvider.h</text>
</a>
</g>
</g>
<!-- Node2 -->
<g id="node2" class="node">
<title>Node2</title>
<g id="a_node2"><a xlink:href="../../d6/d09/RJFwd_8h.html" target="_top" xlink:title=" ">
<polygon fill="white" stroke="black" points="268,-56.5 268,-75.5 374,-75.5 374,-56.5 268,-56.5"/>
<text text-anchor="middle" x="321" y="-63.5" font-family="Helvetica,sans-Serif" font-size="10.00">joda/misc/RJFwd.h</text>
</a>
</g>
</g>
<!-- Node1&#45;&gt;Node2 -->
<g id="edge1" class="edge">
<title>Node1&#45;&gt;Node2</title>
<path fill="none" stroke="midnightblue" d="M638.37,-684C443.78,-667.61 0,-623.18 0,-559 0,-559 0,-559 0,-316.5 0,-198.02 62.55,-159.7 171,-112 204.2,-97.4 243.54,-85.79 273.6,-78.03"/>
<polygon fill="midnightblue" stroke="midnightblue" points="274.58,-81.39 283.41,-75.54 272.86,-74.6 274.58,-81.39"/>
</g>
<!-- Node9 -->
<g id="node9" class="node">
<title>Node9</title>
<g id="a_node9"><a xlink:href="../../dd/d50/IValueProvider_8h.html" target="_top" xlink:title=" ">
<polygon fill="white" stroke="black" points="1345.5,-425.5 1345.5,-444.5 1440.5,-444.5 1440.5,-425.5 1345.5,-425.5"/>
<text text-anchor="middle" x="1393" y="-432.5" font-family="Helvetica,sans-Serif" font-size="10.00">IValueProvider.h</text>
</a>
</g>
</g>
<!-- Node1&#45;&gt;Node9 -->
<g id="edge8" class="edge">
<title>Node1&#45;&gt;Node9</title>
<path fill="none" stroke="midnightblue" d="M817.67,-689.53C952.18,-682.62 1206.9,-650.62 1362,-512 1378.65,-497.12 1386.53,-471.99 1390.14,-454.72"/>
<polygon fill="midnightblue" stroke="midnightblue" points="1393.62,-455.17 1391.94,-444.7 1386.73,-453.92 1393.62,-455.17"/>
</g>
<!-- Node34 -->
<g id="node34" class="node">
<title>Node34</title>
<g id="a_node34"><a xlink:href="../../d8/d5e/ParameterPack_8h.html" target="_top" xlink:title=" ">
<polygon fill="white" stroke="black" points="679,-604.5 679,-623.5 777,-623.5 777,-604.5 679,-604.5"/>
<text text-anchor="middle" x="728" y="-611.5" font-family="Helvetica,sans-Serif" font-size="10.00">ParameterPack.h</text>
</a>
</g>
</g>
<!-- Node1&#45;&gt;Node34 -->
<g id="edge64" class="edge">
<title>Node1&#45;&gt;Node34</title>
<path fill="none" stroke="midnightblue" d="M728,-660.09C728,-651.15 728,-641.67 728,-633.72"/>
<polygon fill="midnightblue" stroke="midnightblue" points="731.5,-633.72 728,-623.72 724.5,-633.72 731.5,-633.72"/>
</g>
<!-- Node3 -->
<g id="node3" class="node">
<title>Node3</title>
<g id="a_node3"><a xlink:title=" ">
<polygon fill="white" stroke="#bfbfbf" points="829,-0.5 829,-19.5 915,-19.5 915,-0.5 829,-0.5"/>
<text text-anchor="middle" x="872" y="-7.5" font-family="Helvetica,sans-Serif" font-size="10.00">glog/logging.h</text>
</a>
</g>
</g>
<!-- Node2&#45;&gt;Node3 -->
<g id="edge2" class="edge">
<title>Node2&#45;&gt;Node3</title>
<path fill="none" stroke="midnightblue" d="M374.01,-57.68C378.73,-57.08 383.45,-56.52 388,-56 544.27,-38.25 729.53,-22.49 818.74,-15.24"/>
<polygon fill="midnightblue" stroke="midnightblue" points="819.2,-18.71 828.88,-14.41 818.63,-11.73 819.2,-18.71"/>
</g>
<!-- Node4 -->
<g id="node4" class="node">
<title>Node4</title>
<g id="a_node4"><a xlink:title=" ">
<polygon fill="white" stroke="#bfbfbf" points="142,-0.5 142,-19.5 264,-19.5 264,-0.5 142,-0.5"/>
<text text-anchor="middle" x="203" y="-7.5" font-family="Helvetica,sans-Serif" font-size="10.00">rapidjson/allocators.h</text>
</a>
</g>
</g>
<!-- Node2&#45;&gt;Node4 -->
<g id="edge3" class="edge">
<title>Node2&#45;&gt;Node4</title>
<path fill="none" stroke="midnightblue" d="M302.3,-56.44C283.06,-47.64 252.85,-33.81 230.8,-23.72"/>
<polygon fill="midnightblue" stroke="midnightblue" points="232.16,-20.5 221.61,-19.52 229.25,-26.86 232.16,-20.5"/>
</g>
<!-- Node5 -->
<g id="node5" class="node">
<title>Node5</title>
<g id="a_node5"><a xlink:title=" ">
<polygon fill="white" stroke="#bfbfbf" points="573,-0.5 573,-19.5 695,-19.5 695,-0.5 573,-0.5"/>
<text text-anchor="middle" x="634" y="-7.5" font-family="Helvetica,sans-Serif" font-size="10.00">rapidjson/document.h</text>
</a>
</g>
</g>
<!-- Node2&#45;&gt;Node5 -->
<g id="edge4" class="edge">
<title>Node2&#45;&gt;Node5</title>
<path fill="none" stroke="midnightblue" d="M370.6,-56.44C426,-46.89 515.64,-31.42 574.71,-21.23"/>
<polygon fill="midnightblue" stroke="midnightblue" points="575.38,-24.67 584.64,-19.52 574.19,-17.77 575.38,-24.67"/>
</g>
<!-- Node6 -->
<g id="node6" class="node">
<title>Node6</title>
<g id="a_node6"><a xlink:title=" ">
<polygon fill="white" stroke="#bfbfbf" points="1461.5,-0.5 1461.5,-19.5 1552.5,-19.5 1552.5,-0.5 1461.5,-0.5"/>
<text text-anchor="middle" x="1507" y="-7.5" font-family="Helvetica,sans-Serif" font-size="10.00">rapidjson/fwd.h</text>
</a>
</g>
</g>
<!-- Node2&#45;&gt;Node6 -->
<g id="edge5" class="edge">
<title>Node2&#45;&gt;Node6</title>
<path fill="none" stroke="midnightblue" d="M374.26,-62.57C570.32,-53.65 1250.79,-22.67 1451.11,-13.54"/>
<polygon fill="midnightblue" stroke="midnightblue" points="1451.56,-17.03 1461.39,-13.08 1451.24,-10.04 1451.56,-17.03"/>
</g>
<!-- Node7 -->
<g id="node7" class="node">
<title>Node7</title>
<g id="a_node7"><a xlink:title=" ">
<polygon fill="white" stroke="#bfbfbf" points="282,-0.5 282,-19.5 432,-19.5 432,-0.5 282,-0.5"/>
<text text-anchor="middle" x="357" y="-7.5" font-family="Helvetica,sans-Serif" font-size="10.00">rapidjson/istreamwrapper.h</text>
</a>
</g>
</g>
<!-- Node2&#45;&gt;Node7 -->
<g id="edge6" class="edge">
<title>Node2&#45;&gt;Node7</title>
<path fill="none" stroke="midnightblue" d="M326.94,-56.08C331.98,-48.53 339.34,-37.49 345.51,-28.23"/>
<polygon fill="midnightblue" stroke="midnightblue" points="348.53,-30.01 351.17,-19.75 342.71,-26.13 348.53,-30.01"/>
</g>
<!-- Node8 -->
<g id="node8" class="node">
<title>Node8</title>
<g id="a_node8"><a xlink:title=" ">
<polygon fill="white" stroke="#bfbfbf" points="16.5,-0.5 16.5,-19.5 123.5,-19.5 123.5,-0.5 16.5,-0.5"/>
<text text-anchor="middle" x="70" y="-7.5" font-family="Helvetica,sans-Serif" font-size="10.00">rapidjson/pointer.h</text>
</a>
</g>
</g>
<!-- Node2&#45;&gt;Node8 -->
<g id="edge7" class="edge">
<title>Node2&#45;&gt;Node8</title>
<path fill="none" stroke="midnightblue" d="M281.23,-56.44C237.44,-47.02 166.99,-31.87 119.62,-21.68"/>
<polygon fill="midnightblue" stroke="midnightblue" points="120.1,-18.2 109.59,-19.52 118.63,-25.04 120.1,-18.2"/>
</g>
<!-- Node9&#45;&gt;Node3 -->
<g id="edge9" class="edge">
<title>Node9&#45;&gt;Node3</title>
<path fill="none" stroke="midnightblue" d="M1440.62,-432.32C1505.13,-428.94 1615.11,-418.83 1640,-389 1752.7,-253.91 1578.14,-144.34 1426,-56 1383.39,-31.26 1056.21,-17.36 925.6,-12.74"/>
<polygon fill="midnightblue" stroke="midnightblue" points="925.54,-9.24 915.43,-12.39 925.3,-16.23 925.54,-9.24"/>
</g>
<!-- Node9&#45;&gt;Node5 -->
<g id="edge10" class="edge">
<title>Node9&#45;&gt;Node5</title>
<path fill="none" stroke="midnightblue" d="M1395.97,-425.33C1409.56,-383.97 1461.5,-204.87 1376,-112 1330.87,-62.98 882.12,-27.7 705.19,-15.59"/>
<polygon fill="midnightblue" stroke="midnightblue" points="705.41,-12.1 695.19,-14.91 704.93,-19.08 705.41,-12.1"/>
</g>
<!-- Node9&#45;&gt;Node6 -->
<g id="edge11" class="edge">
<title>Node9&#45;&gt;Node6</title>
<path fill="none" stroke="midnightblue" d="M1440.79,-432.15C1511.34,-428.48 1638.71,-417.94 1673,-389 1698.29,-367.65 1697,-351.6 1697,-318.5 1697,-318.5 1697,-318.5 1697,-121 1697,-58.26 1618.44,-30.72 1562.35,-19.06"/>
<polygon fill="midnightblue" stroke="midnightblue" points="1563,-15.62 1552.51,-17.12 1561.65,-22.49 1563,-15.62"/>
</g>
<!-- Node10 -->
<g id="node10" class="node">
<title>Node10</title>
<g id="a_node10"><a xlink:title=" ">
<polygon fill="white" stroke="#bfbfbf" points="1440.5,-369.5 1440.5,-388.5 1487.5,-388.5 1487.5,-369.5 1440.5,-369.5"/>
<text text-anchor="middle" x="1464" y="-376.5" font-family="Helvetica,sans-Serif" font-size="10.00">cmath</text>
</a>
</g>
</g>
<!-- Node9&#45;&gt;Node10 -->
<g id="edge12" class="edge">
<title>Node9&#45;&gt;Node10</title>
<path fill="none" stroke="midnightblue" d="M1404.41,-425.32C1415.11,-417.18 1431.34,-404.84 1444.16,-395.09"/>
<polygon fill="midnightblue" stroke="midnightblue" points="1446.54,-397.67 1452.39,-388.83 1442.31,-392.1 1446.54,-397.67"/>
</g>
<!-- Node11 -->
<g id="node11" class="node">
<title>Node11</title>
<g id="a_node11"><a xlink:title=" ">
<polygon fill="white" stroke="#bfbfbf" points="1505.5,-369.5 1505.5,-388.5 1630.5,-388.5 1630.5,-369.5 1505.5,-369.5"/>
<text text-anchor="middle" x="1568" y="-376.5" font-family="Helvetica,sans-Serif" font-size="10.00">experimental/optional</text>
</a>
</g>
</g>
<!-- Node9&#45;&gt;Node11 -->
<g id="edge13" class="edge">
<title>Node9&#45;&gt;Node11</title>
<path fill="none" stroke="midnightblue" d="M1420.73,-425.44C1450.43,-416.28 1497.72,-401.69 1530.67,-391.52"/>
<polygon fill="midnightblue" stroke="midnightblue" points="1531.88,-394.81 1540.4,-388.52 1529.81,-388.12 1531.88,-394.81"/>
</g>
<!-- Node12 -->
<g id="node12" class="node">
<title>Node12</title>
<g id="a_node12"><a xlink:title=" ">
<polygon fill="white" stroke="#bfbfbf" points="1288,-112.5 1288,-131.5 1346,-131.5 1346,-112.5 1288,-112.5"/>
<text text-anchor="middle" x="1317" y="-119.5" font-family="Helvetica,sans-Serif" font-size="10.00">memory</text>
</a>
</g>
</g>
<!-- Node9&#45;&gt;Node12 -->
<g id="edge14" class="edge">
<title>Node9&#45;&gt;Node12</title>
<path fill="none" stroke="midnightblue" d="M1390.89,-425.36C1380.64,-383.42 1336,-200.76 1321.54,-141.58"/>
<polygon fill="midnightblue" stroke="midnightblue" points="1324.91,-140.63 1319.14,-131.75 1318.11,-142.29 1324.91,-140.63"/>
</g>
<!-- Node13 -->
<g id="node13" class="node">
<title>Node13</title>
<g id="a_node13"><a xlink:title=" ">
<polygon fill="white" stroke="#bfbfbf" points="568,-56.5 568,-75.5 612,-75.5 612,-56.5 568,-56.5"/>
<text text-anchor="middle" x="590" y="-63.5" font-family="Helvetica,sans-Serif" font-size="10.00">string</text>
</a>
</g>
</g>
<!-- Node9&#45;&gt;Node13 -->
<g id="edge15" class="edge">
<title>Node9&#45;&gt;Node13</title>
<path fill="none" stroke="midnightblue" d="M1385.31,-425.44C1369.75,-407.2 1336,-362.55 1336,-318.5 1336,-318.5 1336,-318.5 1336,-255 1336,-190.89 1399.05,-158.59 1355,-112 1330.42,-86 747.7,-78.32 712,-76 681.54,-74.02 646.82,-71.43 622.24,-69.53"/>
<polygon fill="midnightblue" stroke="midnightblue" points="622.27,-66.03 612.03,-68.74 621.73,-73.01 622.27,-66.03"/>
</g>
<!-- Node14 -->
<g id="node14" class="node">
<title>Node14</title>
<g id="a_node14"><a xlink:href="../../d1/dfd/RapidJsonDocument_8h.html" target="_top" xlink:title=" ">
<polygon fill="white" stroke="black" points="1045,-369.5 1045,-388.5 1245,-388.5 1245,-369.5 1045,-369.5"/>
<text text-anchor="middle" x="1145" y="-376.5" font-family="Helvetica,sans-Serif" font-size="10.00">joda/document/RapidJsonDocument.h</text>
</a>
</g>
</g>
<!-- Node9&#45;&gt;Node14 -->
<g id="edge16" class="edge">
<title>Node9&#45;&gt;Node14</title>
<path fill="none" stroke="midnightblue" d="M1353.7,-425.44C1310.44,-416.02 1240.83,-400.87 1194.03,-390.68"/>
<polygon fill="midnightblue" stroke="midnightblue" points="1194.63,-387.22 1184.11,-388.52 1193.14,-394.06 1194.63,-387.22"/>
</g>
<!-- Node14&#45;&gt;Node2 -->
<g id="edge63" class="edge">
<title>Node14&#45;&gt;Node2</title>
<path fill="none" stroke="midnightblue" d="M1044.86,-371.77C829.09,-357.4 335.46,-319.04 282,-266 233.4,-217.78 255.01,-173.05 286,-112 291.25,-101.65 299.04,-91.34 305.93,-83.21"/>
<polygon fill="midnightblue" stroke="midnightblue" points="308.65,-85.41 312.65,-75.6 303.41,-80.78 308.65,-85.41"/>
</g>
<!-- Node14&#45;&gt;Node4 -->
<g id="edge48" class="edge">
<title>Node14&#45;&gt;Node4</title>
<path fill="none" stroke="midnightblue" d="M1044.91,-377.38C868.09,-375.4 507.75,-367.16 387,-333 326.35,-315.84 300.3,-316.06 262,-266 205.87,-192.63 201.68,-74.97 202.34,-29.64"/>
<polygon fill="midnightblue" stroke="midnightblue" points="205.84,-29.61 202.59,-19.52 198.84,-29.43 205.84,-29.61"/>
</g>
<!-- Node14&#45;&gt;Node6 -->
<g id="edge49" class="edge">
<title>Node14&#45;&gt;Node6</title>
<path fill="none" stroke="midnightblue" d="M1154.09,-369.46C1163.62,-360.47 1178.99,-345.87 1192,-333 1308.95,-217.3 1446.41,-74.31 1491.69,-27.02"/>
<polygon fill="midnightblue" stroke="midnightblue" points="1494.44,-29.2 1498.83,-19.56 1489.38,-24.36 1494.44,-29.2"/>
</g>
<!-- Node14&#45;&gt;Node12 -->
<g id="edge51" class="edge">
<title>Node14&#45;&gt;Node12</title>
<path fill="none" stroke="midnightblue" d="M1149.73,-369.35C1168.86,-334.54 1240.81,-204.69 1270,-168 1278.59,-157.2 1289.69,-146.45 1298.95,-138.17"/>
<polygon fill="midnightblue" stroke="midnightblue" points="1301.26,-140.8 1306.5,-131.59 1296.66,-135.53 1301.26,-140.8"/>
</g>
<!-- Node15 -->
<g id="node15" class="node">
<title>Node15</title>
<g id="a_node15"><a xlink:href="../../d2/d0d/ViewLayer_8h.html" target="_top" xlink:title=" ">
<polygon fill="white" stroke="black" points="684,-302.5 684,-332.5 800,-332.5 800,-302.5 684,-302.5"/>
<text text-anchor="start" x="692" y="-320.5" font-family="Helvetica,sans-Serif" font-size="10.00">joda/document/view</text>
<text text-anchor="middle" x="742" y="-309.5" font-family="Helvetica,sans-Serif" font-size="10.00">/ViewLayer.h</text>
</a>
</g>
</g>
<!-- Node14&#45;&gt;Node15 -->
<g id="edge17" class="edge">
<title>Node14&#45;&gt;Node15</title>
<path fill="none" stroke="midnightblue" d="M1087.26,-369.48C1014.15,-358.68 888.35,-340.11 810.48,-328.61"/>
<polygon fill="midnightblue" stroke="midnightblue" points="810.69,-325.1 800.29,-327.11 809.67,-332.03 810.69,-325.1"/>
</g>
<!-- Node29 -->
<g id="node29" class="node">
<title>Node29</title>
<g id="a_node29"><a xlink:title=" ">
<polygon fill="white" stroke="#bfbfbf" points="616,-308 616,-327 666,-327 666,-308 616,-308"/>
<text text-anchor="middle" x="641" y="-315" font-family="Helvetica,sans-Serif" font-size="10.00">atomic</text>
</a>
</g>
</g>
<!-- Node14&#45;&gt;Node29 -->
<g id="edge50" class="edge">
<title>Node14&#45;&gt;Node29</title>
<path fill="none" stroke="midnightblue" d="M1044.91,-377.27C948.71,-374.51 799.91,-364.8 675,-333 672.64,-332.4 670.23,-331.66 667.84,-330.83"/>
<polygon fill="midnightblue" stroke="midnightblue" points="668.88,-327.48 658.29,-327.09 666.32,-333.99 668.88,-327.48"/>
</g>
<!-- Node30 -->
<g id="node30" class="node">
<title>Node30</title>
<g id="a_node30"><a xlink:href="../../df/d13/FileNameRepo_8h.html" target="_top" xlink:title=" ">
<polygon fill="white" stroke="black" points="972.5,-168.5 972.5,-209.5 1127.5,-209.5 1127.5,-168.5 972.5,-168.5"/>
<text text-anchor="start" x="980.5" y="-197.5" font-family="Helvetica,sans-Serif" font-size="10.00">../../../../../misc</text>
<text text-anchor="start" x="980.5" y="-186.5" font-family="Helvetica,sans-Serif" font-size="10.00">/include/joda/misc/FileName</text>
<text text-anchor="middle" x="1050" y="-175.5" font-family="Helvetica,sans-Serif" font-size="10.00">Repo.h</text>
</a>
</g>
</g>
<!-- Node14&#45;&gt;Node30 -->
<g id="edge52" class="edge">
<title>Node14&#45;&gt;Node30</title>
<path fill="none" stroke="midnightblue" d="M1140.67,-369.43C1127.35,-343.07 1086.52,-262.28 1064.48,-218.66"/>
<polygon fill="midnightblue" stroke="midnightblue" points="1067.58,-217.04 1059.95,-209.69 1061.34,-220.19 1067.58,-217.04"/>
</g>
<!-- Node32 -->
<g id="node32" class="node">
<title>Node32</title>
<g id="a_node32"><a xlink:href="../../d5/d6c/IOrigin_8h.html" target="_top" xlink:title=" ">
<polygon fill="white" stroke="black" points="1146,-179.5 1146,-198.5 1204,-198.5 1204,-179.5 1146,-179.5"/>
<text text-anchor="middle" x="1175" y="-186.5" font-family="Helvetica,sans-Serif" font-size="10.00">IOrigin.h</text>
</a>
</g>
</g>
<!-- Node14&#45;&gt;Node32 -->
<g id="edge58" class="edge">
<title>Node14&#45;&gt;Node32</title>
<path fill="none" stroke="midnightblue" d="M1146.37,-369.43C1150.93,-340.87 1165.68,-248.43 1172.04,-208.57"/>
<polygon fill="midnightblue" stroke="midnightblue" points="1175.51,-209.04 1173.62,-198.62 1168.59,-207.94 1175.51,-209.04"/>
</g>
<!-- Node15&#45;&gt;Node2 -->
<g id="edge22" class="edge">
<title>Node15&#45;&gt;Node2</title>
<path fill="none" stroke="midnightblue" d="M683.97,-303.51C680.94,-302.97 677.94,-302.46 675,-302 593.6,-289.27 373.56,-313.16 306,-266 268.95,-240.14 270.16,-212.3 279,-168 285.14,-137.23 300.85,-104.12 311.22,-84.49"/>
<polygon fill="midnightblue" stroke="midnightblue" points="314.38,-86 316.07,-75.55 308.23,-82.66 314.38,-86"/>
</g>
<!-- Node15&#45;&gt;Node3 -->
<g id="edge18" class="edge">
<title>Node15&#45;&gt;Node3</title>
<path fill="none" stroke="midnightblue" d="M800.08,-313.27C833.38,-308.07 872.69,-295.54 894,-266 907.74,-246.95 883.77,-85.39 875.01,-29.74"/>
<polygon fill="midnightblue" stroke="midnightblue" points="878.42,-28.89 873.4,-19.57 871.51,-29.99 878.42,-28.89"/>
</g>
<!-- Node16 -->
<g id="node16" class="node">
<title>Node16</title>
<g id="a_node16"><a xlink:href="../../db/d16/config_8h.html" target="_top" xlink:title=" ">
<polygon fill="white" stroke="black" points="583.5,-246.5 583.5,-265.5 694.5,-265.5 694.5,-246.5 583.5,-246.5"/>
<text text-anchor="middle" x="639" y="-253.5" font-family="Helvetica,sans-Serif" font-size="10.00">joda/config/config.h</text>
</a>
</g>
</g>
<!-- Node15&#45;&gt;Node16 -->
<g id="edge19" class="edge">
<title>Node15&#45;&gt;Node16</title>
<path fill="none" stroke="midnightblue" d="M717.59,-302.4C701.08,-292.86 679.38,-280.32 662.96,-270.84"/>
<polygon fill="midnightblue" stroke="midnightblue" points="664.4,-267.63 653.99,-265.66 660.9,-273.69 664.4,-267.63"/>
</g>
<!-- Node18 -->
<g id="node18" class="node">
<title>Node18</title>
<g id="a_node18"><a xlink:title=" ">
<polygon fill="white" stroke="#bfbfbf" points="436.5,-246.5 436.5,-265.5 565.5,-265.5 565.5,-246.5 436.5,-246.5"/>
<text text-anchor="middle" x="501" y="-253.5" font-family="Helvetica,sans-Serif" font-size="10.00">rapidjson/stringbuffer.h</text>
</a>
</g>
</g>
<!-- Node15&#45;&gt;Node18 -->
<g id="edge23" class="edge">
<title>Node15&#45;&gt;Node18</title>
<path fill="none" stroke="midnightblue" d="M685.19,-302.47C642.43,-291.92 584.66,-277.66 545.29,-267.94"/>
<polygon fill="midnightblue" stroke="midnightblue" points="546,-264.51 535.45,-265.51 544.32,-271.3 546,-264.51"/>
</g>
<!-- Node19 -->
<g id="node19" class="node">
<title>Node19</title>
<g id="a_node19"><a xlink:title=" ">
<polygon fill="white" stroke="#bfbfbf" points="789,-246.5 789,-265.5 853,-265.5 853,-246.5 789,-246.5"/>
<text text-anchor="middle" x="821" y="-253.5" font-family="Helvetica,sans-Serif" font-size="10.00">algorithm</text>
</a>
</g>
</g>
<!-- Node15&#45;&gt;Node19 -->
<g id="edge24" class="edge">
<title>Node15&#45;&gt;Node19</title>
<path fill="none" stroke="midnightblue" d="M760.72,-302.4C772.91,-293.22 788.79,-281.26 801.19,-271.92"/>
<polygon fill="midnightblue" stroke="midnightblue" points="803.62,-274.47 809.5,-265.66 799.41,-268.88 803.62,-274.47"/>
</g>
<!-- Node20 -->
<g id="node20" class="node">
<title>Node20</title>
<g id="a_node20"><a xlink:title=" ">
<polygon fill="white" stroke="#bfbfbf" points="796,-112.5 796,-131.5 844,-131.5 844,-112.5 796,-112.5"/>
<text text-anchor="middle" x="820" y="-119.5" font-family="Helvetica,sans-Serif" font-size="10.00">mutex</text>
</a>
</g>
</g>
<!-- Node15&#45;&gt;Node20 -->
<g id="edge25" class="edge">
<title>Node15&#45;&gt;Node20</title>
<path fill="none" stroke="midnightblue" d="M747.74,-302.27C761.69,-267.65 797.4,-179.06 812.78,-140.91"/>
<polygon fill="midnightblue" stroke="midnightblue" points="816.05,-142.16 816.54,-131.58 809.56,-139.54 816.05,-142.16"/>
</g>
<!-- Node21 -->
<g id="node21" class="node">
<title>Node21</title>
<g id="a_node21"><a xlink:title=" ">
<polygon fill="white" stroke="#bfbfbf" points="721.5,-56.5 721.5,-75.5 814.5,-75.5 814.5,-56.5 721.5,-56.5"/>
<text text-anchor="middle" x="768" y="-63.5" font-family="Helvetica,sans-Serif" font-size="10.00">unordered_map</text>
</a>
</g>
</g>
<!-- Node15&#45;&gt;Node21 -->
<g id="edge26" class="edge">
<title>Node15&#45;&gt;Node21</title>
<path fill="none" stroke="midnightblue" d="M800.01,-310.29C828.49,-303.98 860.39,-291.33 878,-266 883.07,-258.7 880.58,-254.51 878,-246 865.93,-206.12 853.05,-199.69 826,-168 810.68,-150.06 799.43,-152.05 787,-132 778.19,-117.79 773.31,-99.31 770.7,-85.69"/>
<polygon fill="midnightblue" stroke="midnightblue" points="774.12,-84.88 769.02,-75.59 767.21,-86.03 774.12,-84.88"/>
</g>
<!-- Node22 -->
<g id="node22" class="node">
<title>Node22</title>
<g id="a_node22"><a xlink:title=" ">
<polygon fill="white" stroke="#bfbfbf" points="104.5,-246.5 104.5,-265.5 155.5,-265.5 155.5,-246.5 104.5,-246.5"/>
<text text-anchor="middle" x="130" y="-253.5" font-family="Helvetica,sans-Serif" font-size="10.00">variant</text>
</a>
</g>
</g>
<!-- Node15&#45;&gt;Node22 -->
<g id="edge27" class="edge">
<title>Node15&#45;&gt;Node22</title>
<path fill="none" stroke="midnightblue" d="M683.98,-303.46C680.95,-302.93 677.94,-302.44 675,-302 649.79,-298.25 283.21,-269.11 165.85,-259.83"/>
<polygon fill="midnightblue" stroke="midnightblue" points="165.85,-256.32 155.61,-259.02 165.3,-263.3 165.85,-256.32"/>
</g>
<!-- Node23 -->
<g id="node23" class="node">
<title>Node23</title>
<g id="a_node23"><a xlink:href="../../da/d3b/ObjectIterator_8h.html" target="_top" xlink:title=" ">
<polygon fill="white" stroke="black" points="326,-246.5 326,-265.5 418,-265.5 418,-246.5 326,-246.5"/>
<text text-anchor="middle" x="372" y="-253.5" font-family="Helvetica,sans-Serif" font-size="10.00">ObjectIterator.h</text>
</a>
</g>
</g>
<!-- Node15&#45;&gt;Node23 -->
<g id="edge28" class="edge">
<title>Node15&#45;&gt;Node23</title>
<path fill="none" stroke="midnightblue" d="M683.94,-303.68C680.92,-303.09 677.93,-302.53 675,-302 568.5,-282.77 538.74,-282.97 428.09,-266.14"/>
<polygon fill="midnightblue" stroke="midnightblue" points="428.62,-262.68 418.2,-264.62 427.56,-269.6 428.62,-262.68"/>
</g>
<!-- Node26 -->
<g id="node26" class="node">
<title>Node26</title>
<g id="a_node26"><a xlink:href="../../d5/de2/ViewCursor_8h.html" target="_top" xlink:title=" ">
<polygon fill="white" stroke="black" points="683,-179.5 683,-198.5 763,-198.5 763,-179.5 683,-179.5"/>
<text text-anchor="middle" x="723" y="-186.5" font-family="Helvetica,sans-Serif" font-size="10.00">ViewCursor.h</text>
</a>
</g>
</g>
<!-- Node15&#45;&gt;Node26 -->
<g id="edge41" class="edge">
<title>Node15&#45;&gt;Node26</title>
<path fill="none" stroke="midnightblue" d="M739.89,-302.48C736.46,-279.62 729.65,-234.3 725.81,-208.71"/>
<polygon fill="midnightblue" stroke="midnightblue" points="729.27,-208.16 724.32,-198.79 722.34,-209.2 729.27,-208.16"/>
</g>
<!-- Node27 -->
<g id="node27" class="node">
<title>Node27</title>
<g id="a_node27"><a xlink:href="../../d0/d10/ViewStructure_8h.html" target="_top" xlink:title=" ">
<polygon fill="white" stroke="black" points="580,-112.5 580,-131.5 674,-131.5 674,-112.5 580,-112.5"/>
<text text-anchor="middle" x="627" y="-119.5" font-family="Helvetica,sans-Serif" font-size="10.00">ViewStructure.h</text>
</a>
</g>
</g>
<!-- Node15&#45;&gt;Node27 -->
<g id="edge42" class="edge">
<title>Node15&#45;&gt;Node27</title>
<path fill="none" stroke="midnightblue" d="M800.28,-305.68C837.5,-295.62 876.3,-277.32 862,-246 830.63,-177.3 743,-146.14 684.07,-132.62"/>
<polygon fill="midnightblue" stroke="midnightblue" points="684.67,-129.17 674.15,-130.45 683.17,-136 684.67,-129.17"/>
</g>
<!-- Node28 -->
<g id="node28" class="node">
<title>Node28</title>
<g id="a_node28"><a xlink:href="../../d8/dee/VirtualObject_8h.html" target="_top" xlink:title=" ">
<polygon fill="white" stroke="black" points="288.5,-179.5 288.5,-198.5 377.5,-198.5 377.5,-179.5 288.5,-179.5"/>
<text text-anchor="middle" x="333" y="-186.5" font-family="Helvetica,sans-Serif" font-size="10.00">VirtualObject.h</text>
</a>
</g>
</g>
<!-- Node15&#45;&gt;Node28 -->
<g id="edge43" class="edge">
<title>Node15&#45;&gt;Node28</title>
<path fill="none" stroke="midnightblue" d="M683.97,-303.52C680.94,-302.98 677.94,-302.46 675,-302 596.02,-289.52 370.64,-325.3 317,-266 302.63,-250.12 312.25,-224.69 321.62,-207.67"/>
<polygon fill="midnightblue" stroke="midnightblue" points="324.82,-209.14 326.93,-198.76 318.81,-205.56 324.82,-209.14"/>
</g>
<!-- Node16&#45;&gt;Node13 -->
<g id="edge21" class="edge">
<title>Node16&#45;&gt;Node13</title>
<path fill="none" stroke="midnightblue" d="M641.31,-246.31C645.21,-229.69 651.24,-192.87 636,-168 618.75,-139.84 587.77,-160.45 571,-132 562.17,-117.02 569.88,-97.66 577.97,-83.98"/>
<polygon fill="midnightblue" stroke="midnightblue" points="580.94,-85.83 583.43,-75.53 575.06,-82.03 580.94,-85.83"/>
</g>
<!-- Node17 -->
<g id="node17" class="node">
<title>Node17</title>
<g id="a_node17"><a xlink:title=" ">
<polygon fill="white" stroke="#bfbfbf" points="573,-179.5 573,-198.5 627,-198.5 627,-179.5 573,-179.5"/>
<text text-anchor="middle" x="600" y="-186.5" font-family="Helvetica,sans-Serif" font-size="10.00">istream</text>
</a>
</g>
</g>
<!-- Node16&#45;&gt;Node17 -->
<g id="edge20" class="edge">
<title>Node16&#45;&gt;Node17</title>
<path fill="none" stroke="midnightblue" d="M633.74,-246.23C627.78,-236.29 617.9,-219.84 610.37,-207.29"/>
<polygon fill="midnightblue" stroke="midnightblue" points="613.32,-205.4 605.18,-198.63 607.32,-209 613.32,-205.4"/>
</g>
<!-- Node23&#45;&gt;Node2 -->
<g id="edge29" class="edge">
<title>Node23&#45;&gt;Node2</title>
<path fill="none" stroke="midnightblue" d="M400.37,-246.49C417.75,-239.65 438.6,-228.13 449,-210 458.29,-193.81 457.14,-184.8 449,-168 428.52,-125.76 380.86,-95.86 349.82,-80.04"/>
<polygon fill="midnightblue" stroke="midnightblue" points="351.29,-76.86 340.78,-75.58 348.2,-83.14 351.29,-76.86"/>
</g>
<!-- Node23&#45;&gt;Node13 -->
<g id="edge30" class="edge">
<title>Node23&#45;&gt;Node13</title>
<path fill="none" stroke="midnightblue" d="M396.99,-246.47C417.13,-238.86 445.52,-226.38 467,-210 515.66,-172.9 558.82,-113.76 578.58,-84.53"/>
<polygon fill="midnightblue" stroke="midnightblue" points="581.74,-86.11 584.36,-75.84 575.91,-82.23 581.74,-86.11"/>
</g>
<!-- Node24 -->
<g id="node24" class="node">
<title>Node24</title>
<g id="a_node24"><a xlink:title=" ">
<polygon fill="white" stroke="#bfbfbf" points="395.5,-179.5 395.5,-198.5 440.5,-198.5 440.5,-179.5 395.5,-179.5"/>
<text text-anchor="middle" x="418" y="-186.5" font-family="Helvetica,sans-Serif" font-size="10.00">utility</text>
</a>
</g>
</g>
<!-- Node23&#45;&gt;Node24 -->
<g id="edge31" class="edge">
<title>Node23&#45;&gt;Node24</title>
<path fill="none" stroke="midnightblue" d="M378.2,-246.23C385.31,-236.2 397.11,-219.51 406.02,-206.92"/>
<polygon fill="midnightblue" stroke="midnightblue" points="408.97,-208.81 411.89,-198.63 403.26,-204.77 408.97,-208.81"/>
</g>
<!-- Node25 -->
<g id="node25" class="node">
<title>Node25</title>
<g id="a_node25"><a xlink:title=" ">
<polygon fill="white" stroke="#bfbfbf" points="692.5,-112.5 692.5,-131.5 739.5,-131.5 739.5,-112.5 692.5,-112.5"/>
<text text-anchor="middle" x="716" y="-119.5" font-family="Helvetica,sans-Serif" font-size="10.00">vector</text>
</a>
</g>
</g>
<!-- Node23&#45;&gt;Node25 -->
<g id="edge32" class="edge">
<title>Node23&#45;&gt;Node25</title>
<path fill="none" stroke="midnightblue" d="M418.33,-247C448.99,-240.31 489.24,-228.76 521,-210 544,-196.41 540.96,-181.52 564,-168 569.23,-164.93 639.39,-144.73 682.54,-132.46"/>
<polygon fill="midnightblue" stroke="midnightblue" points="683.69,-135.78 692.35,-129.68 681.77,-129.04 683.69,-135.78"/>
</g>
<!-- Node23&#45;&gt;Node26 -->
<g id="edge33" class="edge">
<title>Node23&#45;&gt;Node26</title>
<path fill="none" stroke="midnightblue" d="M418.21,-247.27C488.17,-235.55 615.06,-214.19 636,-210 649.68,-207.26 664.51,-203.98 677.97,-200.87"/>
<polygon fill="midnightblue" stroke="midnightblue" points="679.02,-204.22 687.96,-198.53 677.43,-197.4 679.02,-204.22"/>
</g>
<!-- Node26&#45;&gt;Node2 -->
<g id="edge34" class="edge">
<title>Node26&#45;&gt;Node2</title>
<path fill="none" stroke="midnightblue" d="M694.73,-179.49C624.03,-158.21 439.49,-102.66 359.22,-78.5"/>
<polygon fill="midnightblue" stroke="midnightblue" points="360.09,-75.11 349.51,-75.58 358.07,-81.81 360.09,-75.11"/>
</g>
<!-- Node26&#45;&gt;Node12 -->
<g id="edge35" class="edge">
<title>Node26&#45;&gt;Node12</title>
<path fill="none" stroke="midnightblue" d="M763.31,-183.78C850.49,-174.63 1063.04,-152.16 1241,-132 1252.95,-130.65 1265.94,-129.13 1277.76,-127.72"/>
<polygon fill="midnightblue" stroke="midnightblue" points="1278.26,-131.19 1287.78,-126.53 1277.43,-124.24 1278.26,-131.19"/>
</g>
<!-- Node26&#45;&gt;Node25 -->
<g id="edge36" class="edge">
<title>Node26&#45;&gt;Node25</title>
<path fill="none" stroke="midnightblue" d="M722.06,-179.23C721.03,-169.68 719.35,-154.12 718.02,-141.78"/>
<polygon fill="midnightblue" stroke="midnightblue" points="721.48,-141.2 716.93,-131.63 714.52,-141.94 721.48,-141.2"/>
</g>
<!-- Node26&#45;&gt;Node27 -->
<g id="edge37" class="edge">
<title>Node26&#45;&gt;Node27</title>
<path fill="none" stroke="midnightblue" d="M710.05,-179.23C694.15,-168.46 666.95,-150.05 648.03,-137.24"/>
<polygon fill="midnightblue" stroke="midnightblue" points="649.98,-134.34 639.74,-131.63 646.06,-140.13 649.98,-134.34"/>
</g>
<!-- Node27&#45;&gt;Node2 -->
<g id="edge38" class="edge">
<title>Node27&#45;&gt;Node2</title>
<path fill="none" stroke="midnightblue" d="M579.86,-112.68C525.93,-103.16 437.58,-87.57 379.35,-77.3"/>
<polygon fill="midnightblue" stroke="midnightblue" points="379.66,-73.8 369.21,-75.51 378.45,-80.69 379.66,-73.8"/>
</g>
<!-- Node27&#45;&gt;Node13 -->
<g id="edge39" class="edge">
<title>Node27&#45;&gt;Node13</title>
<path fill="none" stroke="midnightblue" d="M620.89,-112.08C615.72,-104.53 608.15,-93.49 601.81,-84.23"/>
<polygon fill="midnightblue" stroke="midnightblue" points="604.54,-82.02 596,-75.75 598.76,-85.98 604.54,-82.02"/>
</g>
<!-- Node27&#45;&gt;Node21 -->
<g id="edge40" class="edge">
<title>Node27&#45;&gt;Node21</title>
<path fill="none" stroke="midnightblue" d="M649.34,-112.44C672.75,-103.48 709.74,-89.31 736.19,-79.18"/>
<polygon fill="midnightblue" stroke="midnightblue" points="737.68,-82.36 745.76,-75.52 735.17,-75.82 737.68,-82.36"/>
</g>
<!-- Node28&#45;&gt;Node2 -->
<g id="edge45" class="edge">
<title>Node28&#45;&gt;Node2</title>
<path fill="none" stroke="midnightblue" d="M332.14,-179.3C330.21,-159.85 325.51,-112.49 322.87,-85.9"/>
<polygon fill="midnightblue" stroke="midnightblue" points="326.33,-85.23 321.86,-75.62 319.36,-85.92 326.33,-85.23"/>
</g>
<!-- Node28&#45;&gt;Node3 -->
<g id="edge44" class="edge">
<title>Node28&#45;&gt;Node3</title>
<path fill="none" stroke="midnightblue" d="M345.38,-179.36C366.45,-164.8 410.81,-134.72 450,-112 497.12,-84.69 507.11,-72.55 559,-56 647.44,-27.8 755.6,-17.22 818.85,-13.29"/>
<polygon fill="midnightblue" stroke="midnightblue" points="819.2,-16.77 828.98,-12.69 818.79,-9.78 819.2,-16.77"/>
</g>
<!-- Node28&#45;&gt;Node13 -->
<g id="edge46" class="edge">
<title>Node28&#45;&gt;Node13</title>
<path fill="none" stroke="midnightblue" d="M351.07,-179.49C395.39,-158.63 509.67,-104.82 562.49,-79.95"/>
<polygon fill="midnightblue" stroke="midnightblue" points="564.05,-83.09 571.6,-75.66 561.07,-76.75 564.05,-83.09"/>
</g>
<!-- Node28&#45;&gt;Node27 -->
<g id="edge47" class="edge">
<title>Node28&#45;&gt;Node27</title>
<path fill="none" stroke="midnightblue" d="M353.11,-179.46C362.9,-175.54 374.92,-171.1 386,-168 447.8,-150.71 520.4,-138.18 569.65,-130.8"/>
<polygon fill="midnightblue" stroke="midnightblue" points="570.41,-134.22 579.79,-129.3 569.38,-127.3 570.41,-134.22"/>
</g>
<!-- Node30&#45;&gt;Node13 -->
<g id="edge54" class="edge">
<title>Node30&#45;&gt;Node13</title>
<path fill="none" stroke="midnightblue" d="M1041.6,-168.47C1032.78,-150.54 1017.09,-124.87 995,-112 978.91,-102.62 715.12,-78.21 622.13,-69.86"/>
<polygon fill="midnightblue" stroke="midnightblue" points="622.44,-66.37 612.17,-68.96 621.82,-73.34 622.44,-66.37"/>
</g>
<!-- Node30&#45;&gt;Node20 -->
<g id="edge53" class="edge">
<title>Node30&#45;&gt;Node20</title>
<path fill="none" stroke="midnightblue" d="M980.99,-168.5C939.02,-156.64 887.27,-142.01 853.96,-132.6"/>
<polygon fill="midnightblue" stroke="midnightblue" points="854.82,-129.2 844.24,-129.85 852.91,-135.94 854.82,-129.2"/>
</g>
<!-- Node30&#45;&gt;Node21 -->
<g id="edge55" class="edge">
<title>Node30&#45;&gt;Node21</title>
<path fill="none" stroke="midnightblue" d="M1062.39,-168.25C1071.22,-151.42 1079.37,-127.54 1066,-112 1035.51,-76.56 902.34,-68.67 824.73,-67.14"/>
<polygon fill="midnightblue" stroke="midnightblue" points="824.68,-63.64 814.63,-66.97 824.57,-70.63 824.68,-63.64"/>
</g>
<!-- Node30&#45;&gt;Node25 -->
<g id="edge57" class="edge">
<title>Node30&#45;&gt;Node25</title>
<path fill="none" stroke="midnightblue" d="M972.11,-172.84C901.6,-159.12 801.11,-139.56 749.47,-129.51"/>
<polygon fill="midnightblue" stroke="midnightblue" points="750.01,-126.05 739.52,-127.58 748.67,-132.92 750.01,-126.05"/>
</g>
<!-- Node31 -->
<g id="node31" class="node">
<title>Node31</title>
<g id="a_node31"><a xlink:title=" ">
<polygon fill="white" stroke="#bfbfbf" points="900,-112.5 900,-131.5 986,-131.5 986,-112.5 900,-112.5"/>
<text text-anchor="middle" x="943" y="-119.5" font-family="Helvetica,sans-Serif" font-size="10.00">unordered_set</text>
</a>
</g>
</g>
<!-- Node30&#45;&gt;Node31 -->
<g id="edge56" class="edge">
<title>Node30&#45;&gt;Node31</title>
<path fill="none" stroke="midnightblue" d="M1017.9,-168.5C1001.18,-158.34 981.12,-146.16 965.97,-136.95"/>
<polygon fill="midnightblue" stroke="midnightblue" points="967.61,-133.85 957.24,-131.65 963.97,-139.84 967.61,-133.85"/>
</g>
<!-- Node32&#45;&gt;Node2 -->
<g id="edge62" class="edge">
<title>Node32&#45;&gt;Node2</title>
<path fill="none" stroke="midnightblue" d="M1159.74,-179.34C1129.46,-162.67 1059.19,-126.51 995,-112 936.51,-98.77 541.18,-77.95 384.64,-70.12"/>
<polygon fill="midnightblue" stroke="midnightblue" points="384.4,-66.6 374.24,-69.6 384.05,-73.59 384.4,-66.6"/>
</g>
<!-- Node32&#45;&gt;Node3 -->
<g id="edge59" class="edge">
<title>Node32&#45;&gt;Node3</title>
<path fill="none" stroke="midnightblue" d="M1192.35,-179.41C1217.88,-165.64 1260.51,-137.56 1241,-112 1202.7,-61.81 1017.76,-30.46 925.12,-17.65"/>
<polygon fill="midnightblue" stroke="midnightblue" points="925.48,-14.17 915.1,-16.29 924.54,-21.1 925.48,-14.17"/>
</g>
<!-- Node32&#45;&gt;Node12 -->
<g id="edge61" class="edge">
<title>Node32&#45;&gt;Node12</title>
<path fill="none" stroke="midnightblue" d="M1193.4,-179.4C1201.01,-175.85 1209.92,-171.71 1218,-168 1241.77,-157.07 1268.82,-144.79 1288.63,-135.82"/>
<polygon fill="midnightblue" stroke="midnightblue" points="1290.33,-138.89 1298,-131.58 1287.44,-132.51 1290.33,-138.89"/>
</g>
<!-- Node33 -->
<g id="node33" class="node">
<title>Node33</title>
<g id="a_node33"><a xlink:title=" ">
<polygon fill="white" stroke="#bfbfbf" points="1118,-112.5 1118,-131.5 1232,-131.5 1232,-112.5 1118,-112.5"/>
<text text-anchor="middle" x="1175" y="-119.5" font-family="Helvetica,sans-Serif" font-size="10.00">boost/operators.hpp</text>
</a>
</g>
</g>
<!-- Node32&#45;&gt;Node33 -->
<g id="edge60" class="edge">
<title>Node32&#45;&gt;Node33</title>
<path fill="none" stroke="midnightblue" d="M1175,-179.23C1175,-169.68 1175,-154.12 1175,-141.78"/>
<polygon fill="midnightblue" stroke="midnightblue" points="1178.5,-141.63 1175,-131.63 1171.5,-141.63 1178.5,-141.63"/>
</g>
<!-- Node35 -->
<g id="node35" class="node">
<title>Node35</title>
<g id="a_node35"><a xlink:title=" ">
<polygon fill="white" stroke="#bfbfbf" points="749,-548.5 749,-567.5 799,-567.5 799,-548.5 749,-548.5"/>
<text text-anchor="middle" x="774" y="-555.5" font-family="Helvetica,sans-Serif" font-size="10.00">cstdint</text>
</a>
</g>
</g>
<!-- Node34&#45;&gt;Node35 -->
<g id="edge65" class="edge">
<title>Node34&#45;&gt;Node35</title>
<path fill="none" stroke="midnightblue" d="M735.6,-604.08C742.23,-596.3 752.02,-584.8 760.06,-575.37"/>
<polygon fill="midnightblue" stroke="midnightblue" points="762.73,-577.63 766.55,-567.75 757.4,-573.09 762.73,-577.63"/>
</g>
<!-- Node36 -->
<g id="node36" class="node">
<title>Node36</title>
<g id="a_node36"><a xlink:href="../../d9/d8f/ValueAccepter_8h.html" target="_top" xlink:title=" ">
<polygon fill="white" stroke="black" points="635.5,-548.5 635.5,-567.5 730.5,-567.5 730.5,-548.5 635.5,-548.5"/>
<text text-anchor="middle" x="683" y="-555.5" font-family="Helvetica,sans-Serif" font-size="10.00">ValueAccepter.h</text>
</a>
</g>
</g>
<!-- Node34&#45;&gt;Node36 -->
<g id="edge66" class="edge">
<title>Node34&#45;&gt;Node36</title>
<path fill="none" stroke="midnightblue" d="M720.57,-604.08C714.15,-596.38 704.69,-585.03 696.88,-575.65"/>
<polygon fill="midnightblue" stroke="midnightblue" points="699.38,-573.19 690.29,-567.75 694.01,-577.67 699.38,-573.19"/>
</g>
<!-- Node36&#45;&gt;Node2 -->
<g id="edge68" class="edge">
<title>Node36&#45;&gt;Node2</title>
<path fill="none" stroke="midnightblue" d="M635.31,-553.11C486.09,-540.3 38,-496.78 38,-436 38,-436 38,-436 38,-316.5 38,-186.11 209.11,-107.64 285.23,-79.19"/>
<polygon fill="midnightblue" stroke="midnightblue" points="286.69,-82.38 294.88,-75.66 284.29,-75.8 286.69,-82.38"/>
</g>
<!-- Node36&#45;&gt;Node9 -->
<g id="edge69" class="edge">
<title>Node36&#45;&gt;Node9</title>
<path fill="none" stroke="midnightblue" d="M730.54,-549.14C733.74,-548.72 736.91,-548.34 740,-548 870.8,-533.72 1213.91,-572.02 1331,-512 1355.8,-499.29 1374.24,-471.76 1384.3,-453.56"/>
<polygon fill="midnightblue" stroke="midnightblue" points="1387.48,-455.04 1389.02,-444.56 1381.28,-451.79 1387.48,-455.04"/>
</g>
<!-- Node36&#45;&gt;Node14 -->
<g id="edge67" class="edge">
<title>Node36&#45;&gt;Node14</title>
<path fill="none" stroke="midnightblue" d="M705.28,-548.46C780.52,-519.64 1025.34,-425.84 1113.23,-392.17"/>
<polygon fill="midnightblue" stroke="midnightblue" points="1114.58,-395.4 1122.67,-388.55 1112.08,-388.86 1114.58,-395.4"/>
</g>
<!-- Node36&#45;&gt;Node22 -->
<g id="edge75" class="edge">
<title>Node36&#45;&gt;Node22</title>
<path fill="none" stroke="midnightblue" d="M647.6,-548.48C568.23,-528.44 371.53,-473.56 225,-389 188.04,-367.67 170.53,-368.6 147,-333 135.72,-315.94 131.84,-292.5 130.54,-276.18"/>
<polygon fill="midnightblue" stroke="midnightblue" points="134.02,-275.55 129.99,-265.75 127.03,-275.92 134.02,-275.55"/>
</g>
<!-- Node37 -->
<g id="node37" class="node">
<title>Node37</title>
<g id="a_node37"><a xlink:href="../../de/d9e/PointerProvider_8h.html" target="_top" xlink:title=" ">
<polygon fill="white" stroke="black" points="612.5,-481.5 612.5,-511.5 753.5,-511.5 753.5,-481.5 612.5,-481.5"/>
<text text-anchor="start" x="620.5" y="-499.5" font-family="Helvetica,sans-Serif" font-size="10.00">joda/query/values/Pointer</text>
<text text-anchor="middle" x="683" y="-488.5" font-family="Helvetica,sans-Serif" font-size="10.00">Provider.h</text>
</a>
</g>
</g>
<!-- Node36&#45;&gt;Node37 -->
<g id="edge70" class="edge">
<title>Node36&#45;&gt;Node37</title>
<path fill="none" stroke="midnightblue" d="M683,-548.48C683,-541.47 683,-531.19 683,-521.7"/>
<polygon fill="midnightblue" stroke="midnightblue" points="686.5,-521.52 683,-511.52 679.5,-521.52 686.5,-521.52"/>
</g>
<!-- Node37&#45;&gt;Node6 -->
<g id="edge71" class="edge">
<title>Node37&#45;&gt;Node6</title>
<path fill="none" stroke="midnightblue" d="M753.59,-489.08C887.44,-475.82 1172.1,-442.14 1254,-389 1396.8,-296.35 1478.49,-91.72 1500.74,-29.38"/>
<polygon fill="midnightblue" stroke="midnightblue" points="1504.12,-30.34 1504.11,-19.75 1497.51,-28.04 1504.12,-30.34"/>
</g>
<!-- Node37&#45;&gt;Node8 -->
<g id="edge72" class="edge">
<title>Node37&#45;&gt;Node8</title>
<path fill="none" stroke="midnightblue" d="M612.08,-493.73C498.78,-487.09 276.55,-457.8 147,-333 119.85,-306.85 108.94,-301.02 95,-266 61.99,-183.09 65.36,-73.53 68.37,-30"/>
<polygon fill="midnightblue" stroke="midnightblue" points="71.88,-30.01 69.16,-19.77 64.9,-29.47 71.88,-30.01"/>
</g>
<!-- Node37&#45;&gt;Node9 -->
<g id="edge74" class="edge">
<title>Node37&#45;&gt;Node9</title>
<path fill="none" stroke="midnightblue" d="M753.92,-489.79C867.67,-480.61 1097.93,-461.85 1293,-445 1306.63,-443.82 1321.3,-442.52 1335.1,-441.28"/>
<polygon fill="midnightblue" stroke="midnightblue" points="1335.8,-444.73 1345.45,-440.35 1335.17,-437.76 1335.8,-444.73"/>
</g>
<!-- Node37&#45;&gt;Node22 -->
<g id="edge73" class="edge">
<title>Node37&#45;&gt;Node22</title>
<path fill="none" stroke="midnightblue" d="M612.2,-488.58C506.93,-475.08 307.49,-436.82 176,-333 156.85,-317.88 143.81,-292.43 136.63,-275.19"/>
<polygon fill="midnightblue" stroke="midnightblue" points="139.82,-273.72 132.92,-265.68 133.29,-276.27 139.82,-273.72"/>
</g>
</g>
</svg>
        <g id="navigator" transform="translate(0 0)" fill="#404254">
                <rect fill="#f2f5e9" fill-opacity="0.5" stroke="#606060" stroke-width=".5" x="0" y="0" width="60" height="60"/>
                <use id="zoomplus" xlink:href="#zoomPlus" x="17" y="9" onmousedown="handleZoom(evt,'in')"/>
                <use id="zoomminus" xlink:href="#zoomMin" x="42" y="9" onmousedown="handleZoom(evt,'out')"/>
                <use id="reset" xlink:href="#resetDef" x="30" y="36" onmousedown="handleReset()"/>
                <g id="arrowUp" xlink:href="#dirArrow" transform="translate(30 24)" onmousedown="handlePan(0,-1)">
                  <use xlink:href="#rim" fill="#404040">
                        <set attributeName="fill" to="#808080" begin="arrowUp.mouseover" end="arrowUp.mouseout"/>
                  </use>
                  <path fill="none" stroke="white" stroke-width="1.5" d="M0,-3.0v7 M-2.5,-0.5L0,-3.0L2.5,-0.5"/>
                </g>
                <g id="arrowRight" xlink:href="#dirArrow" transform="rotate(90) translate(36 -43)" onmousedown="handlePan(1,0)">
                  <use xlink:href="#rim" fill="#404040">
                        <set attributeName="fill" to="#808080" begin="arrowRight.mouseover" end="arrowRight.mouseout"/>
                  </use>
                  <path fill="none" stroke="white" stroke-width="1.5" d="M0,-3.0v7 M-2.5,-0.5L0,-3.0L2.5,-0.5"/>
                </g>
                <g id="arrowDown" xlink:href="#dirArrow" transform="rotate(180) translate(-30 -48)" onmousedown="handlePan(0,1)">
                  <use xlink:href="#rim" fill="#404040">
                        <set attributeName="fill" to="#808080" begin="arrowDown.mouseover" end="arrowDown.mouseout"/>
                  </use>
                  <path fill="none" stroke="white" stroke-width="1.5" d="M0,-3.0v7 M-2.5,-0.5L0,-3.0L2.5,-0.5"/>
                </g>
                <g id="arrowLeft" xlink:href="#dirArrow" transform="rotate(270) translate(-36 17)" onmousedown="handlePan(-1,0)">
                  <use xlink:href="#rim" fill="#404040">
                        <set attributeName="fill" to="#808080" begin="arrowLeft.mouseover" end="arrowLeft.mouseout"/>
                  </use>
                  <path fill="none" stroke="white" stroke-width="1.5" d="M0,-3.0v7 M-2.5,-0.5L0,-3.0L2.5,-0.5"/>
                </g>
        </g>
        <svg viewBox="0 0 15 15" width="100%" height="30px" preserveAspectRatio="xMaxYMin meet">
         <g id="arrow_out" transform="scale(0.3 0.3)">
          <a xlink:href="TemplateProvider_8h__incl_org.svg" target="_base">
           <rect id="button" ry="5" rx="5" y="6" x="6" height="38" width="38"
                fill="#f2f5e9" fill-opacity="0.5" stroke="#606060" stroke-width="1.0"/>
           <path id="arrow"
             d="M 11.500037,31.436501 C 11.940474,20.09759 22.043105,11.32322 32.158766,21.979434 L 37.068811,17.246167 C 37.068811,17.246167 37.088388,32 37.088388,32 L 22.160133,31.978069 C 22.160133,31.978069 26.997745,27.140456 26.997745,27.140456 C 18.528582,18.264221 13.291696,25.230495 11.500037,31.436501 z"
             style="fill:#404040;"/>
          </a>
         </g>
        </svg>
</svg>
