<?xml version="1.0" encoding="UTF-8" standalone="no"?>
<!DOCTYPE svg PUBLIC "-//W3C//DTD SVG 1.1//EN"
 "http://www.w3.org/Graphics/SVG/1.1/DTD/svg11.dtd">
<!-- Generated by graphviz version 2.43.0 (0)
 -->
<!-- Title: /home/nico/projects/tmp&#45;joda&#45;dirs/JODA&#45;gh/libs/joda/core/modules/misc/include/joda/misc/Benchmark.h Pages: 1 -->
<svg width="1146pt" height="339pt"
 viewBox="0.00 0.00 1146.00 339.00" xmlns="http://www.w3.org/2000/svg" xmlns:xlink="http://www.w3.org/1999/xlink">
<g id="graph0" class="graph" transform="scale(1 1) rotate(0) translate(4 335)">
<title>/home/nico/projects/tmp&#45;joda&#45;dirs/JODA&#45;gh/libs/joda/core/modules/misc/include/joda/misc/Benchmark.h</title>
<polygon fill="white" stroke="transparent" points="-4,4 -4,-335 1142,-335 1142,4 -4,4"/>
<!-- Node1 -->
<g id="node1" class="node">
<title>Node1</title>
<g id="a_node1"><a xlink:title=" ">
<polygon fill="#bfbfbf" stroke="black" points="588.5,-278.5 588.5,-330.5 787.5,-330.5 787.5,-278.5 588.5,-278.5"/>
<text text-anchor="start" x="596.5" y="-318.5" font-family="Helvetica,sans-Serif" font-size="10.00">/home/nico/projects</text>
<text text-anchor="start" x="596.5" y="-307.5" font-family="Helvetica,sans-Serif" font-size="10.00">/tmp&#45;joda&#45;dirs/JODA</text>
<text text-anchor="start" x="596.5" y="-296.5" font-family="Helvetica,sans-Serif" font-size="10.00">&#45;gh/libs/joda/core/modules</text>
<text text-anchor="middle" x="688" y="-285.5" font-family="Helvetica,sans-Serif" font-size="10.00">/misc/include/joda/misc/Benchmark.h</text>
</a>
</g>
</g>
<!-- Node2 -->
<g id="node2" class="node">
<title>Node2</title>
<g id="a_node2"><a xlink:href="../../d2/da6/CLI_8h.html" target="_top" xlink:title=" ">
<polygon fill="white" stroke="black" points="572,-89.5 572,-141.5 718,-141.5 718,-89.5 572,-89.5"/>
<text text-anchor="start" x="580" y="-129.5" font-family="Helvetica,sans-Serif" font-size="10.00">/home/nico/projects</text>
<text text-anchor="start" x="580" y="-118.5" font-family="Helvetica,sans-Serif" font-size="10.00">/tmp&#45;joda&#45;dirs/JODA</text>
<text text-anchor="start" x="580" y="-107.5" font-family="Helvetica,sans-Serif" font-size="10.00">&#45;gh/libs/joda/core/modules</text>
<text text-anchor="middle" x="645" y="-96.5" font-family="Helvetica,sans-Serif" font-size="10.00">/cli/include/joda/cli/CLI.h</text>
</a>
</g>
</g>
<!-- Node1&#45;&gt;Node2 -->
<g id="edge1" class="edge">
<title>Node1&#45;&gt;Node2</title>
<path fill="none" stroke="midnightblue" d="M710.63,-269.72C715.31,-261.04 719.56,-251.47 722,-242 729.11,-214.46 734.33,-203.63 722,-178 715.03,-163.51 702.79,-151.37 690.1,-141.8"/>
<polygon fill="midnightblue" stroke="midnightblue" points="707.59,-267.98 705.65,-278.39 713.66,-271.46 707.59,-267.98"/>
</g>
<!-- Node5 -->
<g id="node5" class="node">
<title>Node5</title>
<g id="a_node5"><a xlink:href="../../df/da5/Benchmark_8cpp.html" target="_top" xlink:title=" ">
<polygon fill="white" stroke="black" points="392,-184 392,-236 538,-236 538,-184 392,-184"/>
<text text-anchor="start" x="400" y="-224" font-family="Helvetica,sans-Serif" font-size="10.00">/home/nico/projects</text>
<text text-anchor="start" x="400" y="-213" font-family="Helvetica,sans-Serif" font-size="10.00">/tmp&#45;joda&#45;dirs/JODA</text>
<text text-anchor="start" x="400" y="-202" font-family="Helvetica,sans-Serif" font-size="10.00">&#45;gh/libs/joda/core/modules</text>
<text text-anchor="middle" x="465" y="-191" font-family="Helvetica,sans-Serif" font-size="10.00">/misc/src/Benchmark.cpp</text>
</a>
</g>
</g>
<!-- Node1&#45;&gt;Node5 -->
<g id="edge4" class="edge">
<title>Node1&#45;&gt;Node5</title>
<path fill="none" stroke="midnightblue" d="M618.17,-274.53C588.41,-262.19 554.03,-247.93 525.4,-236.05"/>
<polygon fill="midnightblue" stroke="midnightblue" points="617.08,-277.87 627.65,-278.47 619.76,-271.4 617.08,-277.87"/>
</g>
<!-- Node6 -->
<g id="node6" class="node">
<title>Node6</title>
<g id="a_node6"><a xlink:href="../../d4/d94/JodaQueryRequest_8h.html" target="_top" xlink:title=" ">
<polygon fill="white" stroke="black" points="154.5,-184 154.5,-236 363.5,-236 363.5,-184 154.5,-184"/>
<text text-anchor="start" x="162.5" y="-224" font-family="Helvetica,sans-Serif" font-size="10.00">/home/nico/projects</text>
<text text-anchor="start" x="162.5" y="-213" font-family="Helvetica,sans-Serif" font-size="10.00">/tmp&#45;joda&#45;dirs/JODA</text>
<text text-anchor="start" x="162.5" y="-202" font-family="Helvetica,sans-Serif" font-size="10.00">&#45;gh/libs/joda/core/modules</text>
<text text-anchor="middle" x="259" y="-191" font-family="Helvetica,sans-Serif" font-size="10.00">/network/src/apiv2/JodaQueryRequest.h</text>
</a>
</g>
</g>
<!-- Node1&#45;&gt;Node6 -->
<g id="edge5" class="edge">
<title>Node1&#45;&gt;Node6</title>
<path fill="none" stroke="midnightblue" d="M578.22,-282.63C520.06,-271.26 447.5,-256.56 383,-242 374.67,-240.12 366.03,-238.1 357.38,-236.03"/>
<polygon fill="midnightblue" stroke="midnightblue" points="577.68,-286.09 588.17,-284.57 579.02,-279.22 577.68,-286.09"/>
</g>
<!-- Node10 -->
<g id="node10" class="node">
<title>Node10</title>
<g id="a_node10"><a xlink:href="../../dc/d6d/QueryPlan_8h.html" target="_top" xlink:title=" ">
<polygon fill="white" stroke="black" points="556.5,-178.5 556.5,-241.5 713.5,-241.5 713.5,-178.5 556.5,-178.5"/>
<text text-anchor="start" x="564.5" y="-229.5" font-family="Helvetica,sans-Serif" font-size="10.00">/home/nico/projects</text>
<text text-anchor="start" x="564.5" y="-218.5" font-family="Helvetica,sans-Serif" font-size="10.00">/tmp&#45;joda&#45;dirs/JODA</text>
<text text-anchor="start" x="564.5" y="-207.5" font-family="Helvetica,sans-Serif" font-size="10.00">&#45;gh/libs/joda/core/modules</text>
<text text-anchor="start" x="564.5" y="-196.5" font-family="Helvetica,sans-Serif" font-size="10.00">/queryexecution/include/joda</text>
<text text-anchor="middle" x="635" y="-185.5" font-family="Helvetica,sans-Serif" font-size="10.00">/queryexecution/QueryPlan.h</text>
</a>
</g>
</g>
<!-- Node1&#45;&gt;Node10 -->
<g id="edge9" class="edge">
<title>Node1&#45;&gt;Node10</title>
<path fill="none" stroke="midnightblue" d="M668.45,-269.38C663.22,-260.25 657.6,-250.44 652.48,-241.51"/>
<polygon fill="midnightblue" stroke="midnightblue" points="665.51,-271.29 673.52,-278.22 671.58,-267.81 665.51,-271.29"/>
</g>
<!-- Node11 -->
<g id="node11" class="node">
<title>Node11</title>
<g id="a_node11"><a xlink:href="../../d2/d7a/QueryPlan_8cpp.html" target="_top" xlink:title=" ">
<polygon fill="white" stroke="black" points="736.5,-89.5 736.5,-141.5 921.5,-141.5 921.5,-89.5 736.5,-89.5"/>
<text text-anchor="start" x="744.5" y="-129.5" font-family="Helvetica,sans-Serif" font-size="10.00">/home/nico/projects</text>
<text text-anchor="start" x="744.5" y="-118.5" font-family="Helvetica,sans-Serif" font-size="10.00">/tmp&#45;joda&#45;dirs/JODA</text>
<text text-anchor="start" x="744.5" y="-107.5" font-family="Helvetica,sans-Serif" font-size="10.00">&#45;gh/libs/joda/core/modules</text>
<text text-anchor="middle" x="829" y="-96.5" font-family="Helvetica,sans-Serif" font-size="10.00">/queryexecution/src/QueryPlan.cpp</text>
</a>
</g>
</g>
<!-- Node1&#45;&gt;Node11 -->
<g id="edge13" class="edge">
<title>Node1&#45;&gt;Node11</title>
<path fill="none" stroke="midnightblue" d="M716.63,-270.68C724.38,-261.53 732.65,-251.49 740,-242 766.18,-208.22 794.4,-167.64 811.89,-141.96"/>
<polygon fill="midnightblue" stroke="midnightblue" points="713.82,-268.59 710,-278.47 719.15,-273.13 713.82,-268.59"/>
</g>
<!-- Node12 -->
<g id="node12" class="node">
<title>Node12</title>
<g id="a_node12"><a xlink:href="../../d8/d5f/QueryThread_8h.html" target="_top" xlink:title=" ">
<polygon fill="white" stroke="black" points="807.5,-184 807.5,-236 994.5,-236 994.5,-184 807.5,-184"/>
<text text-anchor="start" x="815.5" y="-224" font-family="Helvetica,sans-Serif" font-size="10.00">/home/nico/projects</text>
<text text-anchor="start" x="815.5" y="-213" font-family="Helvetica,sans-Serif" font-size="10.00">/tmp&#45;joda&#45;dirs/JODA</text>
<text text-anchor="start" x="815.5" y="-202" font-family="Helvetica,sans-Serif" font-size="10.00">&#45;gh/libs/joda/core/modules</text>
<text text-anchor="middle" x="901" y="-191" font-family="Helvetica,sans-Serif" font-size="10.00">/queryexecution/src/QueryThread.h</text>
</a>
</g>
</g>
<!-- Node1&#45;&gt;Node12 -->
<g id="edge14" class="edge">
<title>Node1&#45;&gt;Node12</title>
<path fill="none" stroke="midnightblue" d="M755.07,-274.37C783.41,-262.07 816.08,-247.88 843.31,-236.05"/>
<polygon fill="midnightblue" stroke="midnightblue" points="753.42,-271.27 745.64,-278.47 756.21,-277.7 753.42,-271.27"/>
</g>
<!-- Node3 -->
<g id="node3" class="node">
<title>Node3</title>
<g id="a_node3"><a xlink:href="../../df/d21/CLI_8cpp.html" target="_top" xlink:title=" ">
<polygon fill="white" stroke="black" points="490,-0.5 490,-52.5 636,-52.5 636,-0.5 490,-0.5"/>
<text text-anchor="start" x="498" y="-40.5" font-family="Helvetica,sans-Serif" font-size="10.00">/home/nico/projects</text>
<text text-anchor="start" x="498" y="-29.5" font-family="Helvetica,sans-Serif" font-size="10.00">/tmp&#45;joda&#45;dirs/JODA</text>
<text text-anchor="start" x="498" y="-18.5" font-family="Helvetica,sans-Serif" font-size="10.00">&#45;gh/libs/joda/core/modules</text>
<text text-anchor="middle" x="563" y="-7.5" font-family="Helvetica,sans-Serif" font-size="10.00">/cli/src/CLI.cpp</text>
</a>
</g>
</g>
<!-- Node2&#45;&gt;Node3 -->
<g id="edge2" class="edge">
<title>Node2&#45;&gt;Node3</title>
<path fill="none" stroke="midnightblue" d="M614.17,-81.79C605.06,-72.13 595.24,-61.71 586.66,-52.61"/>
<polygon fill="midnightblue" stroke="midnightblue" points="611.88,-84.46 621.28,-89.34 616.97,-79.66 611.88,-84.46"/>
</g>
<!-- Node4 -->
<g id="node4" class="node">
<title>Node4</title>
<g id="a_node4"><a xlink:href="../../da/d36/CLICompletion_8cpp.html" target="_top" xlink:title=" ">
<polygon fill="white" stroke="black" points="654,-0.5 654,-52.5 800,-52.5 800,-0.5 654,-0.5"/>
<text text-anchor="start" x="662" y="-40.5" font-family="Helvetica,sans-Serif" font-size="10.00">/home/nico/projects</text>
<text text-anchor="start" x="662" y="-29.5" font-family="Helvetica,sans-Serif" font-size="10.00">/tmp&#45;joda&#45;dirs/JODA</text>
<text text-anchor="start" x="662" y="-18.5" font-family="Helvetica,sans-Serif" font-size="10.00">&#45;gh/libs/joda/core/modules</text>
<text text-anchor="middle" x="727" y="-7.5" font-family="Helvetica,sans-Serif" font-size="10.00">/cli/src/CLICompletion.cpp</text>
</a>
</g>
</g>
<!-- Node2&#45;&gt;Node4 -->
<g id="edge3" class="edge">
<title>Node2&#45;&gt;Node4</title>
<path fill="none" stroke="midnightblue" d="M675.83,-81.79C684.94,-72.13 694.76,-61.71 703.34,-52.61"/>
<polygon fill="midnightblue" stroke="midnightblue" points="673.03,-79.66 668.72,-89.34 678.12,-84.46 673.03,-79.66"/>
</g>
<!-- Node7 -->
<g id="node7" class="node">
<title>Node7</title>
<g id="a_node7"><a xlink:href="../../d8/df6/API_8cpp.html" target="_top" xlink:title=" ">
<polygon fill="white" stroke="black" points="0,-89.5 0,-141.5 146,-141.5 146,-89.5 0,-89.5"/>
<text text-anchor="start" x="8" y="-129.5" font-family="Helvetica,sans-Serif" font-size="10.00">/home/nico/projects</text>
<text text-anchor="start" x="8" y="-118.5" font-family="Helvetica,sans-Serif" font-size="10.00">/tmp&#45;joda&#45;dirs/JODA</text>
<text text-anchor="start" x="8" y="-107.5" font-family="Helvetica,sans-Serif" font-size="10.00">&#45;gh/libs/joda/core/modules</text>
<text text-anchor="middle" x="73" y="-96.5" font-family="Helvetica,sans-Serif" font-size="10.00">/network/src/apiv2/API.cpp</text>
</a>
</g>
</g>
<!-- Node6&#45;&gt;Node7 -->
<g id="edge6" class="edge">
<title>Node6&#45;&gt;Node7</title>
<path fill="none" stroke="midnightblue" d="M199.46,-179.39C174.94,-167.2 146.85,-153.23 123.37,-141.55"/>
<polygon fill="midnightblue" stroke="midnightblue" points="198.15,-182.65 208.67,-183.97 201.27,-176.38 198.15,-182.65"/>
</g>
<!-- Node8 -->
<g id="node8" class="node">
<title>Node8</title>
<g id="a_node8"><a xlink:href="../../d4/dbf/JodaQueryRequest_8cpp.html" target="_top" xlink:title=" ">
<polygon fill="white" stroke="black" points="334,-89.5 334,-141.5 554,-141.5 554,-89.5 334,-89.5"/>
<text text-anchor="start" x="342" y="-129.5" font-family="Helvetica,sans-Serif" font-size="10.00">/home/nico/projects</text>
<text text-anchor="start" x="342" y="-118.5" font-family="Helvetica,sans-Serif" font-size="10.00">/tmp&#45;joda&#45;dirs/JODA</text>
<text text-anchor="start" x="342" y="-107.5" font-family="Helvetica,sans-Serif" font-size="10.00">&#45;gh/libs/joda/core/modules</text>
<text text-anchor="middle" x="444" y="-96.5" font-family="Helvetica,sans-Serif" font-size="10.00">/network/src/apiv2/JodaQueryRequest.cpp</text>
</a>
</g>
</g>
<!-- Node6&#45;&gt;Node8 -->
<g id="edge7" class="edge">
<title>Node6&#45;&gt;Node8</title>
<path fill="none" stroke="midnightblue" d="M318.22,-179.39C342.6,-167.2 370.55,-153.23 393.9,-141.55"/>
<polygon fill="midnightblue" stroke="midnightblue" points="316.44,-176.37 309.06,-183.97 319.57,-182.63 316.44,-176.37"/>
</g>
<!-- Node9 -->
<g id="node9" class="node">
<title>Node9</title>
<g id="a_node9"><a xlink:href="../../dc/de1/JodaServer_8cpp.html" target="_top" xlink:title=" ">
<polygon fill="white" stroke="black" points="164,-89.5 164,-141.5 316,-141.5 316,-89.5 164,-89.5"/>
<text text-anchor="start" x="172" y="-129.5" font-family="Helvetica,sans-Serif" font-size="10.00">/home/nico/projects</text>
<text text-anchor="start" x="172" y="-118.5" font-family="Helvetica,sans-Serif" font-size="10.00">/tmp&#45;joda&#45;dirs/JODA</text>
<text text-anchor="start" x="172" y="-107.5" font-family="Helvetica,sans-Serif" font-size="10.00">&#45;gh/libs/joda/core/modules</text>
<text text-anchor="middle" x="240" y="-96.5" font-family="Helvetica,sans-Serif" font-size="10.00">/network/src/JodaServer.cpp</text>
</a>
</g>
</g>
<!-- Node6&#45;&gt;Node9 -->
<g id="edge8" class="edge">
<title>Node6&#45;&gt;Node9</title>
<path fill="none" stroke="midnightblue" d="M251.77,-173.82C249.58,-163.15 247.22,-151.63 245.19,-141.75"/>
<polygon fill="midnightblue" stroke="midnightblue" points="248.37,-174.63 253.81,-183.72 255.22,-173.22 248.37,-174.63"/>
</g>
<!-- Node10&#45;&gt;Node2 -->
<g id="edge10" class="edge">
<title>Node10&#45;&gt;Node2</title>
<path fill="none" stroke="midnightblue" d="M639.39,-168.42C640.37,-159.36 641.38,-150 642.27,-141.77"/>
<polygon fill="midnightblue" stroke="midnightblue" points="635.9,-168.14 638.3,-178.46 642.86,-168.89 635.9,-168.14"/>
</g>
<!-- Node10&#45;&gt;Node8 -->
<g id="edge11" class="edge">
<title>Node10&#45;&gt;Node8</title>
<path fill="none" stroke="midnightblue" d="M562.84,-174.05C540.56,-163.26 516.48,-151.6 495.86,-141.62"/>
<polygon fill="midnightblue" stroke="midnightblue" points="561.4,-177.25 571.93,-178.46 564.46,-170.95 561.4,-177.25"/>
</g>
<!-- Node10&#45;&gt;Node11 -->
<g id="edge12" class="edge">
<title>Node10&#45;&gt;Node11</title>
<path fill="none" stroke="midnightblue" d="M708.29,-174.05C730.92,-163.26 755.38,-151.6 776.33,-141.62"/>
<polygon fill="midnightblue" stroke="midnightblue" points="706.58,-170.99 699.06,-178.46 709.59,-177.31 706.58,-170.99"/>
</g>
<!-- Node12&#45;&gt;Node11 -->
<g id="edge15" class="edge">
<title>Node12&#45;&gt;Node11</title>
<path fill="none" stroke="midnightblue" d="M875.15,-175.79C866.42,-164.58 856.82,-152.24 848.65,-141.75"/>
<polygon fill="midnightblue" stroke="midnightblue" points="872.42,-177.98 881.33,-183.72 877.95,-173.68 872.42,-177.98"/>
</g>
<!-- Node13 -->
<g id="node13" class="node">
<title>Node13</title>
<g id="a_node13"><a xlink:href="../../da/d11/QueryThread_8cpp.html" target="_top" xlink:title=" ">
<polygon fill="white" stroke="black" points="940,-89.5 940,-141.5 1138,-141.5 1138,-89.5 940,-89.5"/>
<text text-anchor="start" x="948" y="-129.5" font-family="Helvetica,sans-Serif" font-size="10.00">/home/nico/projects</text>
<text text-anchor="start" x="948" y="-118.5" font-family="Helvetica,sans-Serif" font-size="10.00">/tmp&#45;joda&#45;dirs/JODA</text>
<text text-anchor="start" x="948" y="-107.5" font-family="Helvetica,sans-Serif" font-size="10.00">&#45;gh/libs/joda/core/modules</text>
<text text-anchor="middle" x="1039" y="-96.5" font-family="Helvetica,sans-Serif" font-size="10.00">/queryexecution/src/QueryThread.cpp</text>
</a>
</g>
</g>
<!-- Node12&#45;&gt;Node13 -->
<g id="edge16" class="edge">
<title>Node12&#45;&gt;Node13</title>
<path fill="none" stroke="midnightblue" d="M946.86,-178.26C964.65,-166.34 984.75,-152.87 1001.63,-141.55"/>
<polygon fill="midnightblue" stroke="midnightblue" points="944.7,-175.49 938.34,-183.97 948.6,-181.31 944.7,-175.49"/>
</g>
</g>
</svg>
