<?xml version="1.0" encoding="UTF-8" standalone="no"?>
<!DOCTYPE svg PUBLIC "-//W3C//DTD SVG 1.1//EN"
 "http://www.w3.org/Graphics/SVG/1.1/DTD/svg11.dtd">
<!-- Generated by graphviz version 2.43.0 (0)
 -->
<!-- Title: /home/nico/projects/JODA&#45;gh/libs/joda/core/modules/misc/include/joda/misc/Benchmark.h Pages: 1 -->
<!--zoomable 328 -->
<svg id="main" version="1.1" xmlns="http://www.w3.org/2000/svg" xmlns:xlink="http://www.w3.org/1999/xlink" xml:space="preserve" onload="init(evt)">
<style type="text/css"><![CDATA[
.edge:hover path { stroke: red; }
.edge:hover polygon { stroke: red; fill: red; }
]]></style>
<script type="text/javascript"><![CDATA[
var edges = document.getElementsByTagName('g');
if (edges && edges.length) {
  for (var i=0;i<edges.length;i++) {
    if (edges[i].id.substr(0,4)=='edge') {
      edges[i].setAttribute('class','edge');
    }
  }
}
]]></script>
        <defs>
                <circle id="rim" cx="0" cy="0" r="7"/>
                <circle id="rim2" cx="0" cy="0" r="3.5"/>
                <g id="zoomPlus">
                        <use xlink:href="#rim" fill="#404040">
                                <set attributeName="fill" to="#808080" begin="zoomplus.mouseover" end="zoomplus.mouseout"/>
                        </use>
                        <path d="M-4,0h8M0,-4v8" fill="none" stroke="white" stroke-width="1.5" pointer-events="none"/>
                </g>
                <g id="zoomMin">
                        <use xlink:href="#rim" fill="#404040">
                                <set attributeName="fill" to="#808080" begin="zoomminus.mouseover" end="zoomminus.mouseout"/>
                        </use>
                        <path d="M-4,0h8" fill="none" stroke="white" stroke-width="1.5" pointer-events="none"/>
                </g>
                <g id="dirArrow">
                        <path fill="none" stroke="white" stroke-width="1.5" d="M0,-3.0v7 M-2.5,-0.5L0,-3.0L2.5,-0.5"/>
                </g>
               <g id="resetDef">
                       <use xlink:href="#rim2" fill="#404040">
                               <set attributeName="fill" to="#808080" begin="reset.mouseover" end="reset.mouseout"/>
                       </use>
               </g>
        </defs>

<script type="text/javascript">
var viewWidth = 1032;
var viewHeight = 328;
var sectionId = 'dynsection-1';
</script>
<script xlink:href="../../svgpan.js"/>
<svg id="graph" class="graph">
<g id="viewport">
<title>/home/nico/projects/JODA&#45;gh/libs/joda/core/modules/misc/include/joda/misc/Benchmark.h</title>
<polygon fill="white" stroke="transparent" points="-4,4 -4,-324 1028,-324 1028,4 -4,4"/>
<!-- Node1 -->
<g id="node1" class="node">
<title>Node1</title>
<g id="a_node1"><a xlink:title=" ">
<polygon fill="#bfbfbf" stroke="black" points="619,-267.5 619,-319.5 769,-319.5 769,-267.5 619,-267.5"/>
<text text-anchor="start" x="627" y="-307.5" font-family="Helvetica,sans-Serif" font-size="10.00">/home/nico/projects</text>
<text text-anchor="start" x="627" y="-296.5" font-family="Helvetica,sans-Serif" font-size="10.00">/JODA&#45;gh/libs/joda/core</text>
<text text-anchor="start" x="627" y="-285.5" font-family="Helvetica,sans-Serif" font-size="10.00">/modules/misc/include/joda</text>
<text text-anchor="middle" x="694" y="-274.5" font-family="Helvetica,sans-Serif" font-size="10.00">/misc/Benchmark.h</text>
</a>
</g>
</g>
<!-- Node2 -->
<g id="node2" class="node">
<title>Node2</title>
<g id="a_node2"><a xlink:href="../../d2/da6/CLI_8h.html" target="_top" xlink:title=" ">
<polygon fill="white" stroke="black" points="570,-78.5 570,-130.5 708,-130.5 708,-78.5 570,-78.5"/>
<text text-anchor="start" x="578" y="-118.5" font-family="Helvetica,sans-Serif" font-size="10.00">/home/nico/projects</text>
<text text-anchor="start" x="578" y="-107.5" font-family="Helvetica,sans-Serif" font-size="10.00">/JODA&#45;gh/libs/joda/core</text>
<text text-anchor="start" x="578" y="-96.5" font-family="Helvetica,sans-Serif" font-size="10.00">/modules/cli/include/joda</text>
<text text-anchor="middle" x="639" y="-85.5" font-family="Helvetica,sans-Serif" font-size="10.00">/cli/CLI.h</text>
</a>
</g>
</g>
<!-- Node1&#45;&gt;Node2 -->
<g id="edge1" class="edge">
<title>Node1&#45;&gt;Node2</title>
<path fill="none" stroke="midnightblue" d="M716.23,-258.48C730.29,-232.36 743.19,-195.97 728,-167 720.15,-152.03 706.82,-139.99 692.83,-130.66"/>
<polygon fill="midnightblue" stroke="midnightblue" points="713.14,-256.84 711.26,-267.26 719.23,-260.29 713.14,-256.84"/>
</g>
<!-- Node5 -->
<g id="node5" class="node">
<title>Node5</title>
<g id="a_node5"><a xlink:href="../../df/da5/Benchmark_8cpp.html" target="_top" xlink:title=" ">
<polygon fill="white" stroke="black" points="360,-178.5 360,-219.5 544,-219.5 544,-178.5 360,-178.5"/>
<text text-anchor="start" x="368" y="-207.5" font-family="Helvetica,sans-Serif" font-size="10.00">/home/nico/projects</text>
<text text-anchor="start" x="368" y="-196.5" font-family="Helvetica,sans-Serif" font-size="10.00">/JODA&#45;gh/libs/joda/core</text>
<text text-anchor="middle" x="452" y="-185.5" font-family="Helvetica,sans-Serif" font-size="10.00">/modules/misc/src/Benchmark.cpp</text>
</a>
</g>
</g>
<!-- Node1&#45;&gt;Node5 -->
<g id="edge4" class="edge">
<title>Node1&#45;&gt;Node5</title>
<path fill="none" stroke="midnightblue" d="M619.12,-263.88C581.55,-249.52 537,-232.49 503.35,-219.63"/>
<polygon fill="midnightblue" stroke="midnightblue" points="617.92,-267.17 628.51,-267.47 620.42,-260.63 617.92,-267.17"/>
</g>
<!-- Node6 -->
<g id="node6" class="node">
<title>Node6</title>
<g id="a_node6"><a xlink:href="../../d4/d94/JodaQueryRequest_8h.html" target="_top" xlink:title=" ">
<polygon fill="white" stroke="black" points="190,-173 190,-225 342,-225 342,-173 190,-173"/>
<text text-anchor="start" x="198" y="-213" font-family="Helvetica,sans-Serif" font-size="10.00">/home/nico/projects</text>
<text text-anchor="start" x="198" y="-202" font-family="Helvetica,sans-Serif" font-size="10.00">/JODA&#45;gh/libs/joda/core</text>
<text text-anchor="start" x="198" y="-191" font-family="Helvetica,sans-Serif" font-size="10.00">/modules/network/src/apiv2</text>
<text text-anchor="middle" x="266" y="-180" font-family="Helvetica,sans-Serif" font-size="10.00">/JodaQueryRequest.h</text>
</a>
</g>
</g>
<!-- Node1&#45;&gt;Node6 -->
<g id="edge5" class="edge">
<title>Node1&#45;&gt;Node6</title>
<path fill="none" stroke="midnightblue" d="M608.82,-281.4C538.87,-271.29 437.57,-254.36 351,-231 344.48,-229.24 337.75,-227.2 331.07,-225.02"/>
<polygon fill="midnightblue" stroke="midnightblue" points="608.52,-284.89 618.91,-282.84 609.51,-277.96 608.52,-284.89"/>
</g>
<!-- Node10 -->
<g id="node10" class="node">
<title>Node10</title>
<g id="a_node10"><a xlink:href="../../dc/d6d/QueryPlan_8h.html" target="_top" xlink:title=" ">
<polygon fill="white" stroke="black" points="562.5,-167.5 562.5,-230.5 719.5,-230.5 719.5,-167.5 562.5,-167.5"/>
<text text-anchor="start" x="570.5" y="-218.5" font-family="Helvetica,sans-Serif" font-size="10.00">/home/nico/projects</text>
<text text-anchor="start" x="570.5" y="-207.5" font-family="Helvetica,sans-Serif" font-size="10.00">/JODA&#45;gh/libs/joda/core</text>
<text text-anchor="start" x="570.5" y="-196.5" font-family="Helvetica,sans-Serif" font-size="10.00">/modules/queryexecution</text>
<text text-anchor="start" x="570.5" y="-185.5" font-family="Helvetica,sans-Serif" font-size="10.00">/include/joda/queryexecution</text>
<text text-anchor="middle" x="641" y="-174.5" font-family="Helvetica,sans-Serif" font-size="10.00">/QueryPlan.h</text>
</a>
</g>
</g>
<!-- Node1&#45;&gt;Node10 -->
<g id="edge9" class="edge">
<title>Node1&#45;&gt;Node10</title>
<path fill="none" stroke="midnightblue" d="M674.45,-258.38C669.22,-249.25 663.6,-239.44 658.48,-230.51"/>
<polygon fill="midnightblue" stroke="midnightblue" points="671.51,-260.29 679.52,-267.22 677.58,-256.81 671.51,-260.29"/>
</g>
<!-- Node11 -->
<g id="node11" class="node">
<title>Node11</title>
<g id="a_node11"><a xlink:href="../../d2/d7a/QueryPlan_8cpp.html" target="_top" xlink:title=" ">
<polygon fill="white" stroke="black" points="726,-78.5 726,-130.5 866,-130.5 866,-78.5 726,-78.5"/>
<text text-anchor="start" x="734" y="-118.5" font-family="Helvetica,sans-Serif" font-size="10.00">/home/nico/projects</text>
<text text-anchor="start" x="734" y="-107.5" font-family="Helvetica,sans-Serif" font-size="10.00">/JODA&#45;gh/libs/joda/core</text>
<text text-anchor="start" x="734" y="-96.5" font-family="Helvetica,sans-Serif" font-size="10.00">/modules/queryexecution</text>
<text text-anchor="middle" x="796" y="-85.5" font-family="Helvetica,sans-Serif" font-size="10.00">/src/QueryPlan.cpp</text>
</a>
</g>
</g>
<!-- Node1&#45;&gt;Node11 -->
<g id="edge13" class="edge">
<title>Node1&#45;&gt;Node11</title>
<path fill="none" stroke="midnightblue" d="M725.26,-259.49C732.66,-250.66 740.11,-240.82 746,-231 765.55,-198.42 780.38,-156.82 788.63,-130.66"/>
<polygon fill="midnightblue" stroke="midnightblue" points="722.41,-257.43 718.52,-267.29 727.7,-262.01 722.41,-257.43"/>
</g>
<!-- Node12 -->
<g id="node12" class="node">
<title>Node12</title>
<g id="a_node12"><a xlink:href="../../d8/d5f/QueryThread_8h.html" target="_top" xlink:title=" ">
<polygon fill="white" stroke="black" points="814,-173 814,-225 954,-225 954,-173 814,-173"/>
<text text-anchor="start" x="822" y="-213" font-family="Helvetica,sans-Serif" font-size="10.00">/home/nico/projects</text>
<text text-anchor="start" x="822" y="-202" font-family="Helvetica,sans-Serif" font-size="10.00">/JODA&#45;gh/libs/joda/core</text>
<text text-anchor="start" x="822" y="-191" font-family="Helvetica,sans-Serif" font-size="10.00">/modules/queryexecution</text>
<text text-anchor="middle" x="884" y="-180" font-family="Helvetica,sans-Serif" font-size="10.00">/src/QueryThread.h</text>
</a>
</g>
</g>
<!-- Node1&#45;&gt;Node12 -->
<g id="edge14" class="edge">
<title>Node1&#45;&gt;Node12</title>
<path fill="none" stroke="midnightblue" d="M754.49,-263.05C779.61,-250.82 808.46,-236.78 832.54,-225.05"/>
<polygon fill="midnightblue" stroke="midnightblue" points="752.88,-259.94 745.42,-267.47 755.94,-266.24 752.88,-259.94"/>
</g>
<!-- Node3 -->
<g id="node3" class="node">
<title>Node3</title>
<g id="a_node3"><a xlink:href="../../df/d21/CLI_8cpp.html" target="_top" xlink:title=" ">
<polygon fill="white" stroke="black" points="484.5,-0.5 484.5,-41.5 615.5,-41.5 615.5,-0.5 484.5,-0.5"/>
<text text-anchor="start" x="492.5" y="-29.5" font-family="Helvetica,sans-Serif" font-size="10.00">/home/nico/projects</text>
<text text-anchor="start" x="492.5" y="-18.5" font-family="Helvetica,sans-Serif" font-size="10.00">/JODA&#45;gh/libs/joda/core</text>
<text text-anchor="middle" x="550" y="-7.5" font-family="Helvetica,sans-Serif" font-size="10.00">/modules/cli/src/CLI.cpp</text>
</a>
</g>
</g>
<!-- Node2&#45;&gt;Node3 -->
<g id="edge2" class="edge">
<title>Node2&#45;&gt;Node3</title>
<path fill="none" stroke="midnightblue" d="M603.9,-71.36C592.93,-61.31 581.17,-50.54 571.43,-41.63"/>
<polygon fill="midnightblue" stroke="midnightblue" points="601.59,-73.99 611.33,-78.16 606.32,-68.82 601.59,-73.99"/>
</g>
<!-- Node4 -->
<g id="node4" class="node">
<title>Node4</title>
<g id="a_node4"><a xlink:href="../../da/d36/CLICompletion_8cpp.html" target="_top" xlink:title=" ">
<polygon fill="white" stroke="black" points="634,-0.5 634,-41.5 822,-41.5 822,-0.5 634,-0.5"/>
<text text-anchor="start" x="642" y="-29.5" font-family="Helvetica,sans-Serif" font-size="10.00">/home/nico/projects</text>
<text text-anchor="start" x="642" y="-18.5" font-family="Helvetica,sans-Serif" font-size="10.00">/JODA&#45;gh/libs/joda/core</text>
<text text-anchor="middle" x="728" y="-7.5" font-family="Helvetica,sans-Serif" font-size="10.00">/modules/cli/src/CLICompletion.cpp</text>
</a>
</g>
</g>
<!-- Node2&#45;&gt;Node4 -->
<g id="edge3" class="edge">
<title>Node2&#45;&gt;Node4</title>
<path fill="none" stroke="midnightblue" d="M674.1,-71.36C685.07,-61.31 696.83,-50.54 706.57,-41.63"/>
<polygon fill="midnightblue" stroke="midnightblue" points="671.68,-68.82 666.67,-78.16 676.41,-73.99 671.68,-68.82"/>
</g>
<!-- Node7 -->
<g id="node7" class="node">
<title>Node7</title>
<g id="a_node7"><a xlink:href="../../d8/df6/API_8cpp.html" target="_top" xlink:title=" ">
<polygon fill="white" stroke="black" points="0,-78.5 0,-130.5 152,-130.5 152,-78.5 0,-78.5"/>
<text text-anchor="start" x="8" y="-118.5" font-family="Helvetica,sans-Serif" font-size="10.00">/home/nico/projects</text>
<text text-anchor="start" x="8" y="-107.5" font-family="Helvetica,sans-Serif" font-size="10.00">/JODA&#45;gh/libs/joda/core</text>
<text text-anchor="start" x="8" y="-96.5" font-family="Helvetica,sans-Serif" font-size="10.00">/modules/network/src/apiv2</text>
<text text-anchor="middle" x="76" y="-85.5" font-family="Helvetica,sans-Serif" font-size="10.00">/API.cpp</text>
</a>
</g>
</g>
<!-- Node6&#45;&gt;Node7 -->
<g id="edge6" class="edge">
<title>Node6&#45;&gt;Node7</title>
<path fill="none" stroke="midnightblue" d="M205.51,-168.55C180.39,-156.32 151.54,-142.28 127.46,-130.55"/>
<polygon fill="midnightblue" stroke="midnightblue" points="204.06,-171.74 214.58,-172.97 207.12,-165.44 204.06,-171.74"/>
</g>
<!-- Node8 -->
<g id="node8" class="node">
<title>Node8</title>
<g id="a_node8"><a xlink:href="../../d4/dbf/JodaQueryRequest_8cpp.html" target="_top" xlink:title=" ">
<polygon fill="white" stroke="black" points="395,-78.5 395,-130.5 547,-130.5 547,-78.5 395,-78.5"/>
<text text-anchor="start" x="403" y="-118.5" font-family="Helvetica,sans-Serif" font-size="10.00">/home/nico/projects</text>
<text text-anchor="start" x="403" y="-107.5" font-family="Helvetica,sans-Serif" font-size="10.00">/JODA&#45;gh/libs/joda/core</text>
<text text-anchor="start" x="403" y="-96.5" font-family="Helvetica,sans-Serif" font-size="10.00">/modules/network/src/apiv2</text>
<text text-anchor="middle" x="471" y="-85.5" font-family="Helvetica,sans-Serif" font-size="10.00">/JodaQueryRequest.cpp</text>
</a>
</g>
</g>
<!-- Node6&#45;&gt;Node8 -->
<g id="edge7" class="edge">
<title>Node6&#45;&gt;Node8</title>
<path fill="none" stroke="midnightblue" d="M330.91,-168.71C358.1,-156.44 389.38,-142.33 415.48,-130.55"/>
<polygon fill="midnightblue" stroke="midnightblue" points="329.15,-165.66 321.48,-172.97 332.03,-172.05 329.15,-165.66"/>
</g>
<!-- Node9 -->
<g id="node9" class="node">
<title>Node9</title>
<g id="a_node9"><a xlink:href="../../dc/de1/JodaServer_8cpp.html" target="_top" xlink:title=" ">
<polygon fill="white" stroke="black" points="170.5,-84 170.5,-125 367.5,-125 367.5,-84 170.5,-84"/>
<text text-anchor="start" x="178.5" y="-113" font-family="Helvetica,sans-Serif" font-size="10.00">/home/nico/projects</text>
<text text-anchor="start" x="178.5" y="-102" font-family="Helvetica,sans-Serif" font-size="10.00">/JODA&#45;gh/libs/joda/core</text>
<text text-anchor="middle" x="269" y="-91" font-family="Helvetica,sans-Serif" font-size="10.00">/modules/network/src/JodaServer.cpp</text>
</a>
</g>
</g>
<!-- Node6&#45;&gt;Node9 -->
<g id="edge8" class="edge">
<title>Node6&#45;&gt;Node9</title>
<path fill="none" stroke="midnightblue" d="M267.15,-162.45C267.56,-149.8 268.01,-136.01 268.36,-125.17"/>
<polygon fill="midnightblue" stroke="midnightblue" points="263.65,-162.62 266.82,-172.72 270.64,-162.84 263.65,-162.62"/>
</g>
<!-- Node10&#45;&gt;Node2 -->
<g id="edge10" class="edge">
<title>Node10&#45;&gt;Node2</title>
<path fill="none" stroke="midnightblue" d="M640.12,-157.42C639.93,-148.36 639.72,-139 639.55,-130.77"/>
<polygon fill="midnightblue" stroke="midnightblue" points="636.62,-157.53 640.34,-167.46 643.62,-157.38 636.62,-157.53"/>
</g>
<!-- Node10&#45;&gt;Node8 -->
<g id="edge11" class="edge">
<title>Node10&#45;&gt;Node8</title>
<path fill="none" stroke="midnightblue" d="M575.98,-162.62C556.38,-151.95 535.27,-140.47 517.16,-130.62"/>
<polygon fill="midnightblue" stroke="midnightblue" points="574.41,-165.75 584.86,-167.46 577.75,-159.6 574.41,-165.75"/>
</g>
<!-- Node10&#45;&gt;Node11 -->
<g id="edge12" class="edge">
<title>Node10&#45;&gt;Node11</title>
<path fill="none" stroke="midnightblue" d="M701.25,-162.04C718.85,-151.54 737.7,-140.29 753.92,-130.62"/>
<polygon fill="midnightblue" stroke="midnightblue" points="698.98,-159.33 692.18,-167.46 702.56,-165.34 698.98,-159.33"/>
</g>
<!-- Node12&#45;&gt;Node11 -->
<g id="edge15" class="edge">
<title>Node12&#45;&gt;Node11</title>
<path fill="none" stroke="midnightblue" d="M853.03,-165.45C842.19,-154.06 830.2,-141.45 820.02,-130.75"/>
<polygon fill="midnightblue" stroke="midnightblue" points="850.53,-167.89 859.95,-172.72 855.6,-163.07 850.53,-167.89"/>
</g>
<!-- Node13 -->
<g id="node13" class="node">
<title>Node13</title>
<g id="a_node13"><a xlink:href="../../da/d11/QueryThread_8cpp.html" target="_top" xlink:title=" ">
<polygon fill="white" stroke="black" points="884,-78.5 884,-130.5 1024,-130.5 1024,-78.5 884,-78.5"/>
<text text-anchor="start" x="892" y="-118.5" font-family="Helvetica,sans-Serif" font-size="10.00">/home/nico/projects</text>
<text text-anchor="start" x="892" y="-107.5" font-family="Helvetica,sans-Serif" font-size="10.00">/JODA&#45;gh/libs/joda/core</text>
<text text-anchor="start" x="892" y="-96.5" font-family="Helvetica,sans-Serif" font-size="10.00">/modules/queryexecution</text>
<text text-anchor="middle" x="954" y="-85.5" font-family="Helvetica,sans-Serif" font-size="10.00">/src/QueryThread.cpp</text>
</a>
</g>
</g>
<!-- Node12&#45;&gt;Node13 -->
<g id="edge16" class="edge">
<title>Node12&#45;&gt;Node13</title>
<path fill="none" stroke="midnightblue" d="M909.38,-164.47C917.8,-153.34 927.03,-141.14 934.9,-130.75"/>
<polygon fill="midnightblue" stroke="midnightblue" points="906.37,-162.64 903.13,-172.72 911.95,-166.86 906.37,-162.64"/>
</g>
</g>
</svg>
        <g id="navigator" transform="translate(0 0)" fill="#404254">
                <rect fill="#f2f5e9" fill-opacity="0.5" stroke="#606060" stroke-width=".5" x="0" y="0" width="60" height="60"/>
                <use id="zoomplus" xlink:href="#zoomPlus" x="17" y="9" onmousedown="handleZoom(evt,'in')"/>
                <use id="zoomminus" xlink:href="#zoomMin" x="42" y="9" onmousedown="handleZoom(evt,'out')"/>
                <use id="reset" xlink:href="#resetDef" x="30" y="36" onmousedown="handleReset()"/>
                <g id="arrowUp" xlink:href="#dirArrow" transform="translate(30 24)" onmousedown="handlePan(0,-1)">
                  <use xlink:href="#rim" fill="#404040">
                        <set attributeName="fill" to="#808080" begin="arrowUp.mouseover" end="arrowUp.mouseout"/>
                  </use>
                  <path fill="none" stroke="white" stroke-width="1.5" d="M0,-3.0v7 M-2.5,-0.5L0,-3.0L2.5,-0.5"/>
                </g>
                <g id="arrowRight" xlink:href="#dirArrow" transform="rotate(90) translate(36 -43)" onmousedown="handlePan(1,0)">
                  <use xlink:href="#rim" fill="#404040">
                        <set attributeName="fill" to="#808080" begin="arrowRight.mouseover" end="arrowRight.mouseout"/>
                  </use>
                  <path fill="none" stroke="white" stroke-width="1.5" d="M0,-3.0v7 M-2.5,-0.5L0,-3.0L2.5,-0.5"/>
                </g>
                <g id="arrowDown" xlink:href="#dirArrow" transform="rotate(180) translate(-30 -48)" onmousedown="handlePan(0,1)">
                  <use xlink:href="#rim" fill="#404040">
                        <set attributeName="fill" to="#808080" begin="arrowDown.mouseover" end="arrowDown.mouseout"/>
                  </use>
                  <path fill="none" stroke="white" stroke-width="1.5" d="M0,-3.0v7 M-2.5,-0.5L0,-3.0L2.5,-0.5"/>
                </g>
                <g id="arrowLeft" xlink:href="#dirArrow" transform="rotate(270) translate(-36 17)" onmousedown="handlePan(-1,0)">
                  <use xlink:href="#rim" fill="#404040">
                        <set attributeName="fill" to="#808080" begin="arrowLeft.mouseover" end="arrowLeft.mouseout"/>
                  </use>
                  <path fill="none" stroke="white" stroke-width="1.5" d="M0,-3.0v7 M-2.5,-0.5L0,-3.0L2.5,-0.5"/>
                </g>
        </g>
        <svg viewBox="0 0 15 15" width="100%" height="30px" preserveAspectRatio="xMaxYMin meet">
         <g id="arrow_out" transform="scale(0.3 0.3)">
          <a xlink:href="Benchmark_8h__dep__incl_org.svg" target="_base">
           <rect id="button" ry="5" rx="5" y="6" x="6" height="38" width="38"
                fill="#f2f5e9" fill-opacity="0.5" stroke="#606060" stroke-width="1.0"/>
           <path id="arrow"
             d="M 11.500037,31.436501 C 11.940474,20.09759 22.043105,11.32322 32.158766,21.979434 L 37.068811,17.246167 C 37.068811,17.246167 37.088388,32 37.088388,32 L 22.160133,31.978069 C 22.160133,31.978069 26.997745,27.140456 26.997745,27.140456 C 18.528582,18.264221 13.291696,25.230495 11.500037,31.436501 z"
             style="fill:#404040;"/>
          </a>
         </g>
        </svg>
</svg>
