<?xml version="1.0" encoding="UTF-8" standalone="no"?>
<!DOCTYPE svg PUBLIC "-//W3C//DTD SVG 1.1//EN"
 "http://www.w3.org/Graphics/SVG/1.1/DTD/svg11.dtd">
<!-- Generated by graphviz version 2.43.0 (0)
 -->
<!-- Title: joda::network::client::JodaClient::cli Pages: 1 -->
<!--zoomable 210 -->
<svg id="main" version="1.1" xmlns="http://www.w3.org/2000/svg" xmlns:xlink="http://www.w3.org/1999/xlink" xml:space="preserve" onload="init(evt)">
<style type="text/css"><![CDATA[
.edge:hover path { stroke: red; }
.edge:hover polygon { stroke: red; fill: red; }
]]></style>
<script type="text/javascript"><![CDATA[
var edges = document.getElementsByTagName('g');
if (edges && edges.length) {
  for (var i=0;i<edges.length;i++) {
    if (edges[i].id.substr(0,4)=='edge') {
      edges[i].setAttribute('class','edge');
    }
  }
}
]]></script>
        <defs>
                <circle id="rim" cx="0" cy="0" r="7"/>
                <circle id="rim2" cx="0" cy="0" r="3.5"/>
                <g id="zoomPlus">
                        <use xlink:href="#rim" fill="#404040">
                                <set attributeName="fill" to="#808080" begin="zoomplus.mouseover" end="zoomplus.mouseout"/>
                        </use>
                        <path d="M-4,0h8M0,-4v8" fill="none" stroke="white" stroke-width="1.5" pointer-events="none"/>
                </g>
                <g id="zoomMin">
                        <use xlink:href="#rim" fill="#404040">
                                <set attributeName="fill" to="#808080" begin="zoomminus.mouseover" end="zoomminus.mouseout"/>
                        </use>
                        <path d="M-4,0h8" fill="none" stroke="white" stroke-width="1.5" pointer-events="none"/>
                </g>
                <g id="dirArrow">
                        <path fill="none" stroke="white" stroke-width="1.5" d="M0,-3.0v7 M-2.5,-0.5L0,-3.0L2.5,-0.5"/>
                </g>
               <g id="resetDef">
                       <use xlink:href="#rim2" fill="#404040">
                               <set attributeName="fill" to="#808080" begin="reset.mouseover" end="reset.mouseout"/>
                       </use>
               </g>
        </defs>

<script type="text/javascript">
var viewWidth = 503;
var viewHeight = 210;
var sectionId = 'dynsection-4';
</script>
<script xlink:href="../../svgpan.js"/>
<svg id="graph" class="graph">
<g id="viewport">
<title>joda::network::client::JodaClient::cli</title>
<polygon fill="white" stroke="transparent" points="-4,4 -4,-206 499,-206 499,4 -4,4"/>
<!-- Node1 -->
<g id="node1" class="node">
<title>Node1</title>
<g id="a_node1"><a xlink:title=" ">
<polygon fill="#bfbfbf" stroke="black" points="0,-97.5 0,-127.5 116,-127.5 116,-97.5 0,-97.5"/>
<text text-anchor="start" x="8" y="-115.5" font-family="Helvetica,sans-Serif" font-size="10.00">joda::network::client</text>
<text text-anchor="middle" x="58" y="-104.5" font-family="Helvetica,sans-Serif" font-size="10.00">::JodaClient::cli</text>
</a>
</g>
</g>
<!-- Node2 -->
<g id="node2" class="node">
<title>Node2</title>
<g id="a_node2"><a xlink:href="../../dd/d42/classjoda_1_1network_1_1client_1_1JodaClient.html#a2f2f09fb01696b5a5f59ea0d5a8b6482" target="_top" xlink:title=" ">
<polygon fill="white" stroke="black" points="156.5,-171.5 156.5,-201.5 302.5,-201.5 302.5,-171.5 156.5,-171.5"/>
<text text-anchor="start" x="164.5" y="-189.5" font-family="Helvetica,sans-Serif" font-size="10.00">joda::network::client</text>
<text text-anchor="middle" x="229.5" y="-178.5" font-family="Helvetica,sans-Serif" font-size="10.00">::JodaClient::browseReturn</text>
</a>
</g>
</g>
<!-- Node1&#45;&gt;Node2 -->
<g id="edge1" class="edge">
<title>Node1&#45;&gt;Node2</title>
<path fill="none" stroke="midnightblue" d="M84.02,-127.63C102.39,-138.32 128.18,-152.47 152,-162.5 156.61,-164.44 161.44,-166.31 166.33,-168.09"/>
<polygon fill="midnightblue" stroke="midnightblue" points="165.17,-171.4 175.76,-171.4 167.48,-164.79 165.17,-171.4"/>
</g>
<!-- Node4 -->
<g id="node4" class="node">
<title>Node4</title>
<g id="a_node4"><a xlink:href="../../dd/d42/classjoda_1_1network_1_1client_1_1JodaClient.html#af63c25cfd3819a08b6fa8238b99341b7" target="_top" xlink:title=" ">
<polygon fill="white" stroke="black" points="162.5,-122.5 162.5,-152.5 296.5,-152.5 296.5,-122.5 162.5,-122.5"/>
<text text-anchor="start" x="170.5" y="-140.5" font-family="Helvetica,sans-Serif" font-size="10.00">joda::network::client</text>
<text text-anchor="middle" x="229.5" y="-129.5" font-family="Helvetica,sans-Serif" font-size="10.00">::JodaClient::handleError</text>
</a>
</g>
</g>
<!-- Node1&#45;&gt;Node4 -->
<g id="edge3" class="edge">
<title>Node1&#45;&gt;Node4</title>
<path fill="none" stroke="midnightblue" d="M116.38,-120.96C127.94,-122.67 140.26,-124.48 152.34,-126.27"/>
<polygon fill="midnightblue" stroke="midnightblue" points="152,-129.75 162.41,-127.75 153.02,-122.83 152,-129.75"/>
</g>
<!-- Node5 -->
<g id="node5" class="node">
<title>Node5</title>
<g id="a_node5"><a xlink:href="../../dd/d42/classjoda_1_1network_1_1client_1_1JodaClient.html#ae2bbe1747772f9b6a6b6b05c9cc73c1b" target="_top" xlink:title=" ">
<polygon fill="white" stroke="black" points="152,-73.5 152,-103.5 307,-103.5 307,-73.5 152,-73.5"/>
<text text-anchor="start" x="160" y="-91.5" font-family="Helvetica,sans-Serif" font-size="10.00">joda::network::client</text>
<text text-anchor="middle" x="229.5" y="-80.5" font-family="Helvetica,sans-Serif" font-size="10.00">::JodaClient::parseCommand</text>
</a>
</g>
</g>
<!-- Node1&#45;&gt;Node5 -->
<g id="edge4" class="edge">
<title>Node1&#45;&gt;Node5</title>
<path fill="none" stroke="midnightblue" d="M116.38,-104.37C124.6,-103.21 133.2,-101.99 141.82,-100.77"/>
<polygon fill="midnightblue" stroke="midnightblue" points="142.53,-104.21 151.94,-99.34 141.55,-97.28 142.53,-104.21"/>
</g>
<!-- Node6 -->
<g id="node6" class="node">
<title>Node6</title>
<g id="a_node6"><a xlink:href="../../d2/d0d/classjoda_1_1network_1_1client_1_1QueryRequest.html#a02889540fd2ec5ff3e5127bbed3b6062" target="_top" xlink:title=" ">
<polygon fill="white" stroke="black" points="167,-24.5 167,-54.5 292,-54.5 292,-24.5 167,-24.5"/>
<text text-anchor="start" x="175" y="-42.5" font-family="Helvetica,sans-Serif" font-size="10.00">joda::network::client</text>
<text text-anchor="middle" x="229.5" y="-31.5" font-family="Helvetica,sans-Serif" font-size="10.00">::QueryRequest::query</text>
</a>
</g>
</g>
<!-- Node1&#45;&gt;Node6 -->
<g id="edge5" class="edge">
<title>Node1&#45;&gt;Node6</title>
<path fill="none" stroke="midnightblue" d="M85.32,-97.47C103.65,-87.37 128.87,-74.18 152,-64.5 157.37,-62.25 163.01,-60.08 168.7,-58.01"/>
<polygon fill="midnightblue" stroke="midnightblue" points="170.02,-61.26 178.28,-54.63 167.69,-54.66 170.02,-61.26"/>
</g>
<!-- Node3 -->
<g id="node3" class="node">
<title>Node3</title>
<g id="a_node3"><a xlink:href="../../d2/dd2/classjoda_1_1network_1_1client_1_1ResultRequest.html#adb78491073c01dd9f88f025a220b06d3" target="_top" xlink:title=" ">
<polygon fill="white" stroke="black" points="355.5,-171.5 355.5,-201.5 482.5,-201.5 482.5,-171.5 355.5,-171.5"/>
<text text-anchor="start" x="363.5" y="-189.5" font-family="Helvetica,sans-Serif" font-size="10.00">joda::network::client</text>
<text text-anchor="middle" x="419" y="-178.5" font-family="Helvetica,sans-Serif" font-size="10.00">::ResultRequest::result</text>
</a>
</g>
</g>
<!-- Node2&#45;&gt;Node3 -->
<g id="edge2" class="edge">
<title>Node2&#45;&gt;Node3</title>
<path fill="none" stroke="midnightblue" d="M302.72,-186.5C316.67,-186.5 331.29,-186.5 345.25,-186.5"/>
<polygon fill="midnightblue" stroke="midnightblue" points="345.28,-190 355.28,-186.5 345.28,-183 345.28,-190"/>
</g>
<!-- Node7 -->
<g id="node7" class="node">
<title>Node7</title>
<g id="a_node7"><a xlink:href="../../dd/d42/classjoda_1_1network_1_1client_1_1JodaClient.html#a84589d1283c523d9e3055adc6782154c" target="_top" xlink:title=" ">
<polygon fill="white" stroke="black" points="354,-49.5 354,-79.5 484,-79.5 484,-49.5 354,-49.5"/>
<text text-anchor="start" x="362" y="-67.5" font-family="Helvetica,sans-Serif" font-size="10.00">joda::network::client</text>
<text text-anchor="middle" x="419" y="-56.5" font-family="Helvetica,sans-Serif" font-size="10.00">::JodaClient::checkError</text>
</a>
</g>
</g>
<!-- Node6&#45;&gt;Node7 -->
<g id="edge6" class="edge">
<title>Node6&#45;&gt;Node7</title>
<path fill="none" stroke="midnightblue" d="M292.15,-47.72C308.66,-49.92 326.68,-52.32 343.79,-54.6"/>
<polygon fill="midnightblue" stroke="midnightblue" points="343.36,-58.08 353.73,-55.93 344.29,-51.14 343.36,-58.08"/>
</g>
<!-- Node8 -->
<g id="node8" class="node">
<title>Node8</title>
<g id="a_node8"><a xlink:href="../../dd/d42/classjoda_1_1network_1_1client_1_1JodaClient.html#a66c7810fecdf3f39bf6bc281ce3de0ca" target="_top" xlink:title=" ">
<polygon fill="white" stroke="black" points="343,-0.5 343,-30.5 495,-30.5 495,-0.5 343,-0.5"/>
<text text-anchor="start" x="351" y="-18.5" font-family="Helvetica,sans-Serif" font-size="10.00">joda::network::client</text>
<text text-anchor="middle" x="419" y="-7.5" font-family="Helvetica,sans-Serif" font-size="10.00">::JodaClient::parseResponse</text>
</a>
</g>
</g>
<!-- Node6&#45;&gt;Node8 -->
<g id="edge7" class="edge">
<title>Node6&#45;&gt;Node8</title>
<path fill="none" stroke="midnightblue" d="M292.15,-31.61C305.21,-29.94 319.21,-28.15 332.96,-26.39"/>
<polygon fill="midnightblue" stroke="midnightblue" points="333.43,-29.85 342.91,-25.11 332.54,-22.91 333.43,-29.85"/>
</g>
</g>
</svg>
        <g id="navigator" transform="translate(0 0)" fill="#404254">
                <rect fill="#f2f5e9" fill-opacity="0.5" stroke="#606060" stroke-width=".5" x="0" y="0" width="60" height="60"/>
                <use id="zoomplus" xlink:href="#zoomPlus" x="17" y="9" onmousedown="handleZoom(evt,'in')"/>
                <use id="zoomminus" xlink:href="#zoomMin" x="42" y="9" onmousedown="handleZoom(evt,'out')"/>
                <use id="reset" xlink:href="#resetDef" x="30" y="36" onmousedown="handleReset()"/>
                <g id="arrowUp" xlink:href="#dirArrow" transform="translate(30 24)" onmousedown="handlePan(0,-1)">
                  <use xlink:href="#rim" fill="#404040">
                        <set attributeName="fill" to="#808080" begin="arrowUp.mouseover" end="arrowUp.mouseout"/>
                  </use>
                  <path fill="none" stroke="white" stroke-width="1.5" d="M0,-3.0v7 M-2.5,-0.5L0,-3.0L2.5,-0.5"/>
                </g>
                <g id="arrowRight" xlink:href="#dirArrow" transform="rotate(90) translate(36 -43)" onmousedown="handlePan(1,0)">
                  <use xlink:href="#rim" fill="#404040">
                        <set attributeName="fill" to="#808080" begin="arrowRight.mouseover" end="arrowRight.mouseout"/>
                  </use>
                  <path fill="none" stroke="white" stroke-width="1.5" d="M0,-3.0v7 M-2.5,-0.5L0,-3.0L2.5,-0.5"/>
                </g>
                <g id="arrowDown" xlink:href="#dirArrow" transform="rotate(180) translate(-30 -48)" onmousedown="handlePan(0,1)">
                  <use xlink:href="#rim" fill="#404040">
                        <set attributeName="fill" to="#808080" begin="arrowDown.mouseover" end="arrowDown.mouseout"/>
                  </use>
                  <path fill="none" stroke="white" stroke-width="1.5" d="M0,-3.0v7 M-2.5,-0.5L0,-3.0L2.5,-0.5"/>
                </g>
                <g id="arrowLeft" xlink:href="#dirArrow" transform="rotate(270) translate(-36 17)" onmousedown="handlePan(-1,0)">
                  <use xlink:href="#rim" fill="#404040">
                        <set attributeName="fill" to="#808080" begin="arrowLeft.mouseover" end="arrowLeft.mouseout"/>
                  </use>
                  <path fill="none" stroke="white" stroke-width="1.5" d="M0,-3.0v7 M-2.5,-0.5L0,-3.0L2.5,-0.5"/>
                </g>
        </g>
        <svg viewBox="0 0 15 15" width="100%" height="30px" preserveAspectRatio="xMaxYMin meet">
         <g id="arrow_out" transform="scale(0.3 0.3)">
          <a xlink:href="classjoda_1_1network_1_1client_1_1JodaClient_a7cd534b6032a772416b20fdc59815d86_cgraph_org.svg" target="_base">
           <rect id="button" ry="5" rx="5" y="6" x="6" height="38" width="38"
                fill="#f2f5e9" fill-opacity="0.5" stroke="#606060" stroke-width="1.0"/>
           <path id="arrow"
             d="M 11.500037,31.436501 C 11.940474,20.09759 22.043105,11.32322 32.158766,21.979434 L 37.068811,17.246167 C 37.068811,17.246167 37.088388,32 37.088388,32 L 22.160133,31.978069 C 22.160133,31.978069 26.997745,27.140456 26.997745,27.140456 C 18.528582,18.264221 13.291696,25.230495 11.500037,31.436501 z"
             style="fill:#404040;"/>
          </a>
         </g>
        </svg>
</svg>
