<?xml version="1.0" encoding="UTF-8" standalone="no"?>
<!DOCTYPE svg PUBLIC "-//W3C//DTD SVG 1.1//EN"
 "http://www.w3.org/Graphics/SVG/1.1/DTD/svg11.dtd">
<!-- Generated by graphviz version 2.43.0 (0)
 -->
<!-- Title: ConfigParser::parseConfigs Pages: 1 -->
<svg width="530pt" height="154pt"
 viewBox="0.00 0.00 530.00 153.50" xmlns="http://www.w3.org/2000/svg" xmlns:xlink="http://www.w3.org/1999/xlink">
<g id="graph0" class="graph" transform="scale(1 1) rotate(0) translate(4 149.5)">
<title>ConfigParser::parseConfigs</title>
<polygon fill="white" stroke="transparent" points="-4,4 -4,-149.5 526,-149.5 526,4 -4,4"/>
<!-- Node1 -->
<g id="node1" class="node">
<title>Node1</title>
<g id="a_node1"><a xlink:title=" ">
<polygon fill="#bfbfbf" stroke="black" points="0,-69 0,-88 146,-88 146,-69 0,-69"/>
<text text-anchor="middle" x="73" y="-76" font-family="Helvetica,sans-Serif" font-size="10.00">ConfigParser::parseConfigs</text>
</a>
</g>
</g>
<!-- Node2 -->
<g id="node2" class="node">
<title>Node2</title>
<g id="a_node2"><a xlink:href="../../d7/dfd/classConfigParser.html#a52e3ca8aa78bd6e5a6f67cb8280bc2a8" target="_top" xlink:title=" ">
<polygon fill="white" stroke="black" points="185.5,-126 185.5,-145 345.5,-145 345.5,-126 185.5,-126"/>
<text text-anchor="middle" x="265.5" y="-133" font-family="Helvetica,sans-Serif" font-size="10.00">ConfigParser::getCMDOptions</text>
</a>
</g>
</g>
<!-- Node1&#45;&gt;Node2 -->
<g id="edge1" class="edge">
<title>Node1&#45;&gt;Node2</title>
<path fill="none" stroke="midnightblue" d="M98.62,-88.05C120.35,-96.26 152.98,-108.08 182,-116.5 190.71,-119.03 200.01,-121.44 209.11,-123.64"/>
<polygon fill="midnightblue" stroke="midnightblue" points="208.34,-127.06 218.88,-125.95 209.95,-120.25 208.34,-127.06"/>
</g>
<!-- Node3 -->
<g id="node3" class="node">
<title>Node3</title>
<g id="a_node3"><a xlink:href="../../d7/dfd/classConfigParser.html#af1dcb7a8ce6e8f1b7a394d24356b2772" target="_top" xlink:title=" ">
<polygon fill="white" stroke="black" points="192,-88 192,-107 339,-107 339,-88 192,-88"/>
<text text-anchor="middle" x="265.5" y="-95" font-family="Helvetica,sans-Serif" font-size="10.00">ConfigParser::getConfigFile</text>
</a>
</g>
</g>
<!-- Node1&#45;&gt;Node3 -->
<g id="edge2" class="edge">
<title>Node1&#45;&gt;Node3</title>
<path fill="none" stroke="midnightblue" d="M146.02,-85.68C157.59,-86.84 169.65,-88.04 181.46,-89.22"/>
<polygon fill="midnightblue" stroke="midnightblue" points="181.45,-92.73 191.75,-90.24 182.14,-85.77 181.45,-92.73"/>
</g>
<!-- Node4 -->
<g id="node4" class="node">
<title>Node4</title>
<g id="a_node4"><a xlink:href="../../d7/dfd/classConfigParser.html#aae9ed46a0d96dfa7e213731cc8dfbb56" target="_top" xlink:title=" ">
<polygon fill="white" stroke="black" points="182,-50 182,-69 349,-69 349,-50 182,-50"/>
<text text-anchor="middle" x="265.5" y="-57" font-family="Helvetica,sans-Serif" font-size="10.00">ConfigParser::getConfigOptions</text>
</a>
</g>
</g>
<!-- Node1&#45;&gt;Node4 -->
<g id="edge3" class="edge">
<title>Node1&#45;&gt;Node4</title>
<path fill="none" stroke="midnightblue" d="M146.02,-71.32C154.43,-70.48 163.09,-69.61 171.73,-68.75"/>
<polygon fill="midnightblue" stroke="midnightblue" points="172.23,-72.22 181.83,-67.74 171.54,-65.25 172.23,-72.22"/>
</g>
<!-- Node5 -->
<g id="node5" class="node">
<title>Node5</title>
<g id="a_node5"><a xlink:href="../../d7/dfd/classConfigParser.html#a9405562781738adec3809a941063d745" target="_top" xlink:title=" ">
<polygon fill="white" stroke="black" points="183.5,-0.5 183.5,-30.5 347.5,-30.5 347.5,-0.5 183.5,-0.5"/>
<text text-anchor="start" x="191.5" y="-18.5" font-family="Helvetica,sans-Serif" font-size="10.00">ConfigParser::getHiddenConfig</text>
<text text-anchor="middle" x="265.5" y="-7.5" font-family="Helvetica,sans-Serif" font-size="10.00">Options</text>
</a>
</g>
</g>
<!-- Node1&#45;&gt;Node5 -->
<g id="edge4" class="edge">
<title>Node1&#45;&gt;Node5</title>
<path fill="none" stroke="midnightblue" d="M100.08,-68.96C121.88,-61.07 153.85,-49.71 182,-40.5 188.94,-38.23 196.24,-35.91 203.5,-33.65"/>
<polygon fill="midnightblue" stroke="midnightblue" points="204.82,-36.91 213.34,-30.62 202.75,-30.22 204.82,-36.91"/>
</g>
<!-- Node6 -->
<g id="node6" class="node">
<title>Node6</title>
<g id="a_node6"><a xlink:href="../../d5/da6/classMemoryUtility.html#af392fef237b7c8fca655d89f6ee4e69d" target="_top" xlink:title=" ">
<polygon fill="white" stroke="black" points="385,-6 385,-25 522,-25 522,-6 385,-6"/>
<text text-anchor="middle" x="453.5" y="-13" font-family="Helvetica,sans-Serif" font-size="10.00">MemoryUtility::totalRam</text>
</a>
</g>
</g>
<!-- Node5&#45;&gt;Node6 -->
<g id="edge5" class="edge">
<title>Node5&#45;&gt;Node6</title>
<path fill="none" stroke="midnightblue" d="M347.54,-15.5C356.57,-15.5 365.76,-15.5 374.75,-15.5"/>
<polygon fill="midnightblue" stroke="midnightblue" points="374.8,-19 384.8,-15.5 374.8,-12 374.8,-19"/>
</g>
</g>
</svg>
