<?xml version="1.0" encoding="UTF-8" standalone="no"?>
<!DOCTYPE svg PUBLIC "-//W3C//DTD SVG 1.1//EN"
 "http://www.w3.org/Graphics/SVG/1.1/DTD/svg11.dtd">
<!-- Generated by graphviz version 2.43.0 (0)
 -->
<!-- Title: /home/nico/projects/tmp&#45;joda&#45;dirs/JODA&#45;gh/libs/joda/core/modules/query/values/include/joda/query/values/BinaryStringProvider.h Pages: 1 -->
<!--zoomable 553 -->
<svg id="main" version="1.1" xmlns="http://www.w3.org/2000/svg" xmlns:xlink="http://www.w3.org/1999/xlink" xml:space="preserve" onload="init(evt)">
<style type="text/css"><![CDATA[
.edge:hover path { stroke: red; }
.edge:hover polygon { stroke: red; fill: red; }
]]></style>
<script type="text/javascript"><![CDATA[
var edges = document.getElementsByTagName('g');
if (edges && edges.length) {
  for (var i=0;i<edges.length;i++) {
    if (edges[i].id.substr(0,4)=='edge') {
      edges[i].setAttribute('class','edge');
    }
  }
}
]]></script>
        <defs>
                <circle id="rim" cx="0" cy="0" r="7"/>
                <circle id="rim2" cx="0" cy="0" r="3.5"/>
                <g id="zoomPlus">
                        <use xlink:href="#rim" fill="#404040">
                                <set attributeName="fill" to="#808080" begin="zoomplus.mouseover" end="zoomplus.mouseout"/>
                        </use>
                        <path d="M-4,0h8M0,-4v8" fill="none" stroke="white" stroke-width="1.5" pointer-events="none"/>
                </g>
                <g id="zoomMin">
                        <use xlink:href="#rim" fill="#404040">
                                <set attributeName="fill" to="#808080" begin="zoomminus.mouseover" end="zoomminus.mouseout"/>
                        </use>
                        <path d="M-4,0h8" fill="none" stroke="white" stroke-width="1.5" pointer-events="none"/>
                </g>
                <g id="dirArrow">
                        <path fill="none" stroke="white" stroke-width="1.5" d="M0,-3.0v7 M-2.5,-0.5L0,-3.0L2.5,-0.5"/>
                </g>
               <g id="resetDef">
                       <use xlink:href="#rim2" fill="#404040">
                               <set attributeName="fill" to="#808080" begin="reset.mouseover" end="reset.mouseout"/>
                       </use>
               </g>
        </defs>

<script type="text/javascript">
var viewWidth = 1498;
var viewHeight = 553;
var sectionId = 'dynsection-0';
</script>
<script xlink:href="../../svgpan.js"/>
<svg id="graph" class="graph">
<g id="viewport">
<title>/home/nico/projects/tmp&#45;joda&#45;dirs/JODA&#45;gh/libs/joda/core/modules/query/values/include/joda/query/values/BinaryStringProvider.h</title>
<polygon fill="white" stroke="transparent" points="-4,4 -4,-549 1493.5,-549 1493.5,4 -4,4"/>
<!-- Node1 -->
<g id="node1" class="node">
<title>Node1</title>
<g id="a_node1"><a xlink:title=" ">
<polygon fill="#bfbfbf" stroke="black" points="36.5,-481.5 36.5,-544.5 230.5,-544.5 230.5,-481.5 36.5,-481.5"/>
<text text-anchor="start" x="44.5" y="-532.5" font-family="Helvetica,sans-Serif" font-size="10.00">/home/nico/projects</text>
<text text-anchor="start" x="44.5" y="-521.5" font-family="Helvetica,sans-Serif" font-size="10.00">/tmp&#45;joda&#45;dirs/JODA</text>
<text text-anchor="start" x="44.5" y="-510.5" font-family="Helvetica,sans-Serif" font-size="10.00">&#45;gh/libs/joda/core/modules</text>
<text text-anchor="start" x="44.5" y="-499.5" font-family="Helvetica,sans-Serif" font-size="10.00">/query/values/include/joda</text>
<text text-anchor="middle" x="133.5" y="-488.5" font-family="Helvetica,sans-Serif" font-size="10.00">/query/values/BinaryStringProvider.h</text>
</a>
</g>
</g>
<!-- Node2 -->
<g id="node2" class="node">
<title>Node2</title>
<g id="a_node2"><a xlink:title=" ">
<polygon fill="white" stroke="#bfbfbf" points="0,-369.5 0,-388.5 47,-388.5 47,-369.5 0,-369.5"/>
<text text-anchor="middle" x="23.5" y="-376.5" font-family="Helvetica,sans-Serif" font-size="10.00">cmath</text>
</a>
</g>
</g>
<!-- Node1&#45;&gt;Node2 -->
<g id="edge1" class="edge">
<title>Node1&#45;&gt;Node2</title>
<path fill="none" stroke="midnightblue" d="M107.99,-481.38C85.9,-454.88 54.8,-417.56 37.15,-396.38"/>
<polygon fill="midnightblue" stroke="midnightblue" points="39.77,-394.05 30.67,-388.61 34.39,-398.53 39.77,-394.05"/>
</g>
<!-- Node3 -->
<g id="node3" class="node">
<title>Node3</title>
<g id="a_node3"><a xlink:href="../../dd/d50/IValueProvider_8h.html" target="_top" xlink:title=" ">
<polygon fill="white" stroke="black" points="176,-425.5 176,-444.5 271,-444.5 271,-425.5 176,-425.5"/>
<text text-anchor="middle" x="223.5" y="-432.5" font-family="Helvetica,sans-Serif" font-size="10.00">IValueProvider.h</text>
</a>
</g>
</g>
<!-- Node1&#45;&gt;Node3 -->
<g id="edge2" class="edge">
<title>Node1&#45;&gt;Node3</title>
<path fill="none" stroke="midnightblue" d="M169.85,-481.31C182.04,-471.01 195.12,-459.96 205.31,-451.36"/>
<polygon fill="midnightblue" stroke="midnightblue" points="207.73,-453.9 213.11,-444.77 203.21,-448.55 207.73,-453.9"/>
</g>
<!-- Node3&#45;&gt;Node2 -->
<g id="edge6" class="edge">
<title>Node3&#45;&gt;Node2</title>
<path fill="none" stroke="midnightblue" d="M191.81,-425.44C155.06,-415.52 94.74,-399.23 57.17,-389.09"/>
<polygon fill="midnightblue" stroke="midnightblue" points="57.78,-385.63 47.21,-386.4 55.96,-392.39 57.78,-385.63"/>
</g>
<!-- Node4 -->
<g id="node4" class="node">
<title>Node4</title>
<g id="a_node4"><a xlink:title=" ">
<polygon fill="white" stroke="#bfbfbf" points="904.5,-0.5 904.5,-19.5 990.5,-19.5 990.5,-0.5 904.5,-0.5"/>
<text text-anchor="middle" x="947.5" y="-7.5" font-family="Helvetica,sans-Serif" font-size="10.00">glog/logging.h</text>
</a>
</g>
</g>
<!-- Node3&#45;&gt;Node4 -->
<g id="edge3" class="edge">
<title>Node3&#45;&gt;Node4</title>
<path fill="none" stroke="midnightblue" d="M271.21,-434.16C453.98,-434.44 1109.4,-432.33 1312.5,-389 1395.31,-371.33 1489.5,-403.18 1489.5,-318.5 1489.5,-318.5 1489.5,-318.5 1489.5,-121 1489.5,-22.04 1138.1,-11.13 1001.19,-10.63"/>
<polygon fill="midnightblue" stroke="midnightblue" points="1000.94,-7.13 990.94,-10.61 1000.93,-14.13 1000.94,-7.13"/>
</g>
<!-- Node5 -->
<g id="node5" class="node">
<title>Node5</title>
<g id="a_node5"><a xlink:title=" ">
<polygon fill="white" stroke="#bfbfbf" points="139.5,-0.5 139.5,-19.5 261.5,-19.5 261.5,-0.5 139.5,-0.5"/>
<text text-anchor="middle" x="200.5" y="-7.5" font-family="Helvetica,sans-Serif" font-size="10.00">rapidjson/document.h</text>
</a>
</g>
</g>
<!-- Node3&#45;&gt;Node5 -->
<g id="edge4" class="edge">
<title>Node3&#45;&gt;Node5</title>
<path fill="none" stroke="midnightblue" d="M198,-425.47C181.51,-418.48 161.36,-406.79 151.5,-389 123.06,-337.69 151.5,-315.67 151.5,-257 151.5,-257 151.5,-257 151.5,-121 151.5,-85.47 173.1,-48.63 187.62,-27.88"/>
<polygon fill="midnightblue" stroke="midnightblue" points="190.63,-29.69 193.69,-19.54 184.97,-25.57 190.63,-29.69"/>
</g>
<!-- Node6 -->
<g id="node6" class="node">
<title>Node6</title>
<g id="a_node6"><a xlink:title=" ">
<polygon fill="white" stroke="#bfbfbf" points="30,-0.5 30,-19.5 121,-19.5 121,-0.5 30,-0.5"/>
<text text-anchor="middle" x="75.5" y="-7.5" font-family="Helvetica,sans-Serif" font-size="10.00">rapidjson/fwd.h</text>
</a>
</g>
</g>
<!-- Node3&#45;&gt;Node6 -->
<g id="edge5" class="edge">
<title>Node3&#45;&gt;Node6</title>
<path fill="none" stroke="midnightblue" d="M193.55,-425.5C150.3,-411.17 75.5,-377.82 75.5,-318.5 75.5,-318.5 75.5,-318.5 75.5,-121 75.5,-88.95 75.5,-51.64 75.5,-29.75"/>
<polygon fill="midnightblue" stroke="midnightblue" points="79,-29.56 75.5,-19.56 72,-29.56 79,-29.56"/>
</g>
<!-- Node7 -->
<g id="node7" class="node">
<title>Node7</title>
<g id="a_node7"><a xlink:title=" ">
<polygon fill="white" stroke="#bfbfbf" points="161,-369.5 161,-388.5 286,-388.5 286,-369.5 161,-369.5"/>
<text text-anchor="middle" x="223.5" y="-376.5" font-family="Helvetica,sans-Serif" font-size="10.00">experimental/optional</text>
</a>
</g>
</g>
<!-- Node3&#45;&gt;Node7 -->
<g id="edge7" class="edge">
<title>Node3&#45;&gt;Node7</title>
<path fill="none" stroke="midnightblue" d="M223.5,-425.08C223.5,-418.01 223.5,-407.86 223.5,-398.99"/>
<polygon fill="midnightblue" stroke="midnightblue" points="227,-398.75 223.5,-388.75 220,-398.75 227,-398.75"/>
</g>
<!-- Node8 -->
<g id="node8" class="node">
<title>Node8</title>
<g id="a_node8"><a xlink:title=" ">
<polygon fill="white" stroke="#bfbfbf" points="503.5,-112.5 503.5,-131.5 561.5,-131.5 561.5,-112.5 503.5,-112.5"/>
<text text-anchor="middle" x="532.5" y="-119.5" font-family="Helvetica,sans-Serif" font-size="10.00">memory</text>
</a>
</g>
</g>
<!-- Node3&#45;&gt;Node8 -->
<g id="edge8" class="edge">
<title>Node3&#45;&gt;Node8</title>
<path fill="none" stroke="midnightblue" d="M271.13,-432.75C344.05,-429.84 478.59,-420.28 513.5,-389 537.67,-367.34 532.5,-350.95 532.5,-318.5 532.5,-318.5 532.5,-318.5 532.5,-255 532.5,-214.66 532.5,-167.38 532.5,-141.78"/>
<polygon fill="midnightblue" stroke="midnightblue" points="536,-141.65 532.5,-131.65 529,-141.65 536,-141.65"/>
</g>
<!-- Node9 -->
<g id="node9" class="node">
<title>Node9</title>
<g id="a_node9"><a xlink:title=" ">
<polygon fill="white" stroke="#bfbfbf" points="1054.5,-56.5 1054.5,-75.5 1098.5,-75.5 1098.5,-56.5 1054.5,-56.5"/>
<text text-anchor="middle" x="1076.5" y="-63.5" font-family="Helvetica,sans-Serif" font-size="10.00">string</text>
</a>
</g>
</g>
<!-- Node3&#45;&gt;Node9 -->
<g id="edge9" class="edge">
<title>Node3&#45;&gt;Node9</title>
<path fill="none" stroke="midnightblue" d="M271.25,-434.46C493.23,-436 1413.5,-435.32 1413.5,-318.5 1413.5,-318.5 1413.5,-318.5 1413.5,-188 1413.5,-149.62 1403.88,-134.1 1372.5,-112 1330.44,-82.39 1176.5,-71.67 1108.81,-68.33"/>
<polygon fill="midnightblue" stroke="midnightblue" points="1108.87,-64.82 1098.71,-67.85 1108.54,-71.82 1108.87,-64.82"/>
</g>
<!-- Node10 -->
<g id="node10" class="node">
<title>Node10</title>
<g id="a_node10"><a xlink:href="../../d1/dfd/RapidJsonDocument_8h.html" target="_top" xlink:title=" ">
<polygon fill="white" stroke="black" points="304.5,-369.5 304.5,-388.5 504.5,-388.5 504.5,-369.5 304.5,-369.5"/>
<text text-anchor="middle" x="404.5" y="-376.5" font-family="Helvetica,sans-Serif" font-size="10.00">joda/document/RapidJsonDocument.h</text>
</a>
</g>
</g>
<!-- Node3&#45;&gt;Node10 -->
<g id="edge10" class="edge">
<title>Node3&#45;&gt;Node10</title>
<path fill="none" stroke="midnightblue" d="M252.18,-425.44C283.03,-416.24 332.23,-401.56 366.33,-391.39"/>
<polygon fill="midnightblue" stroke="midnightblue" points="367.37,-394.73 375.95,-388.52 365.37,-388.02 367.37,-394.73"/>
</g>
<!-- Node10&#45;&gt;Node6 -->
<g id="edge49" class="edge">
<title>Node10&#45;&gt;Node6</title>
<path fill="none" stroke="midnightblue" d="M361.56,-369.48C280.62,-352.19 113.5,-310.07 113.5,-257 113.5,-257 113.5,-257 113.5,-121 113.5,-86.81 96.9,-49.76 85.64,-28.57"/>
<polygon fill="midnightblue" stroke="midnightblue" points="88.68,-26.83 80.78,-19.77 82.55,-30.22 88.68,-26.83"/>
</g>
<!-- Node10&#45;&gt;Node8 -->
<g id="edge51" class="edge">
<title>Node10&#45;&gt;Node8</title>
<path fill="none" stroke="midnightblue" d="M411.14,-369.33C417.75,-360.47 427.98,-346.19 435.5,-333 474.41,-264.72 510.51,-178.13 525.36,-141.11"/>
<polygon fill="midnightblue" stroke="midnightblue" points="528.68,-142.25 529.12,-131.66 522.17,-139.66 528.68,-142.25"/>
</g>
<!-- Node11 -->
<g id="node11" class="node">
<title>Node11</title>
<g id="a_node11"><a xlink:href="../../d2/d0d/ViewLayer_8h.html" target="_top" xlink:title=" ">
<polygon fill="white" stroke="black" points="834.5,-302.5 834.5,-332.5 950.5,-332.5 950.5,-302.5 834.5,-302.5"/>
<text text-anchor="start" x="842.5" y="-320.5" font-family="Helvetica,sans-Serif" font-size="10.00">joda/document/view</text>
<text text-anchor="middle" x="892.5" y="-309.5" font-family="Helvetica,sans-Serif" font-size="10.00">/ViewLayer.h</text>
</a>
</g>
</g>
<!-- Node10&#45;&gt;Node11 -->
<g id="edge11" class="edge">
<title>Node10&#45;&gt;Node11</title>
<path fill="none" stroke="midnightblue" d="M474.42,-369.48C567.65,-358.11 731.62,-338.12 824.08,-326.84"/>
<polygon fill="midnightblue" stroke="midnightblue" points="824.67,-330.3 834.17,-325.61 823.82,-323.35 824.67,-330.3"/>
</g>
<!-- Node14 -->
<g id="node14" class="node">
<title>Node14</title>
<g id="a_node14"><a xlink:href="../../d6/d09/RJFwd_8h.html" target="_top" xlink:title=" ">
<polygon fill="white" stroke="black" points="413.5,-56.5 413.5,-75.5 519.5,-75.5 519.5,-56.5 413.5,-56.5"/>
<text text-anchor="middle" x="466.5" y="-63.5" font-family="Helvetica,sans-Serif" font-size="10.00">joda/misc/RJFwd.h</text>
</a>
</g>
</g>
<!-- Node10&#45;&gt;Node14 -->
<g id="edge63" class="edge">
<title>Node10&#45;&gt;Node14</title>
<path fill="none" stroke="midnightblue" d="M380.32,-369.43C340.99,-353.75 267.5,-316.5 267.5,-257 267.5,-257 267.5,-257 267.5,-188 267.5,-153.18 261.88,-136.62 286.5,-112 302.96,-95.54 358.24,-83.32 403.23,-75.8"/>
<polygon fill="midnightblue" stroke="midnightblue" points="403.94,-79.23 413.25,-74.17 402.81,-72.32 403.94,-79.23"/>
</g>
<!-- Node15 -->
<g id="node15" class="node">
<title>Node15</title>
<g id="a_node15"><a xlink:title=" ">
<polygon fill="white" stroke="#bfbfbf" points="279.5,-0.5 279.5,-19.5 401.5,-19.5 401.5,-0.5 279.5,-0.5"/>
<text text-anchor="middle" x="340.5" y="-7.5" font-family="Helvetica,sans-Serif" font-size="10.00">rapidjson/allocators.h</text>
</a>
</g>
</g>
<!-- Node10&#45;&gt;Node15 -->
<g id="edge48" class="edge">
<title>Node10&#45;&gt;Node15</title>
<path fill="none" stroke="midnightblue" d="M365.66,-369.46C314.11,-355.56 229.5,-322.75 229.5,-257 229.5,-257 229.5,-257 229.5,-121 229.5,-74.82 278.56,-41.43 311.45,-24.23"/>
<polygon fill="midnightblue" stroke="midnightblue" points="313.29,-27.22 320.66,-19.61 310.15,-20.96 313.29,-27.22"/>
</g>
<!-- Node29 -->
<g id="node29" class="node">
<title>Node29</title>
<g id="a_node29"><a xlink:title=" ">
<polygon fill="white" stroke="#bfbfbf" points="359.5,-308 359.5,-327 409.5,-327 409.5,-308 359.5,-308"/>
<text text-anchor="middle" x="384.5" y="-315" font-family="Helvetica,sans-Serif" font-size="10.00">atomic</text>
</a>
</g>
</g>
<!-- Node10&#45;&gt;Node29 -->
<g id="edge50" class="edge">
<title>Node10&#45;&gt;Node29</title>
<path fill="none" stroke="midnightblue" d="M401.63,-369.48C398.78,-360.99 394.32,-347.7 390.66,-336.82"/>
<polygon fill="midnightblue" stroke="midnightblue" points="393.86,-335.37 387.36,-327.01 387.23,-337.6 393.86,-335.37"/>
</g>
<!-- Node30 -->
<g id="node30" class="node">
<title>Node30</title>
<g id="a_node30"><a xlink:href="../../df/d13/FileNameRepo_8h.html" target="_top" xlink:title=" ">
<polygon fill="white" stroke="black" points="1230,-168.5 1230,-209.5 1385,-209.5 1385,-168.5 1230,-168.5"/>
<text text-anchor="start" x="1238" y="-197.5" font-family="Helvetica,sans-Serif" font-size="10.00">../../../../../misc</text>
<text text-anchor="start" x="1238" y="-186.5" font-family="Helvetica,sans-Serif" font-size="10.00">/include/joda/misc/FileName</text>
<text text-anchor="middle" x="1307.5" y="-175.5" font-family="Helvetica,sans-Serif" font-size="10.00">Repo.h</text>
</a>
</g>
</g>
<!-- Node10&#45;&gt;Node30 -->
<g id="edge52" class="edge">
<title>Node10&#45;&gt;Node30</title>
<path fill="none" stroke="midnightblue" d="M504.67,-372.55C726.51,-359.48 1243.94,-323.15 1297.5,-266 1308.81,-253.93 1311.5,-235.66 1311.26,-220.06"/>
<polygon fill="midnightblue" stroke="midnightblue" points="1314.74,-219.59 1310.71,-209.79 1307.75,-219.97 1314.74,-219.59"/>
</g>
<!-- Node32 -->
<g id="node32" class="node">
<title>Node32</title>
<g id="a_node32"><a xlink:href="../../d5/d6c/IOrigin_8h.html" target="_top" xlink:title=" ">
<polygon fill="white" stroke="black" points="408.5,-179.5 408.5,-198.5 466.5,-198.5 466.5,-179.5 408.5,-179.5"/>
<text text-anchor="middle" x="437.5" y="-186.5" font-family="Helvetica,sans-Serif" font-size="10.00">IOrigin.h</text>
</a>
</g>
</g>
<!-- Node10&#45;&gt;Node32 -->
<g id="edge58" class="edge">
<title>Node10&#45;&gt;Node32</title>
<path fill="none" stroke="midnightblue" d="M407.62,-369.49C410.8,-360.53 415.65,-345.94 418.5,-333 428.17,-289.13 433.61,-236.53 436.01,-208.97"/>
<polygon fill="midnightblue" stroke="midnightblue" points="439.52,-209.05 436.85,-198.8 432.54,-208.47 439.52,-209.05"/>
</g>
<!-- Node11&#45;&gt;Node4 -->
<g id="edge12" class="edge">
<title>Node11&#45;&gt;Node4</title>
<path fill="none" stroke="midnightblue" d="M950.87,-314.36C1073.52,-308.38 1350.34,-286.48 1394.5,-210 1482.26,-58 1137.18,-21.73 1000.78,-13.39"/>
<polygon fill="midnightblue" stroke="midnightblue" points="1000.74,-9.88 990.56,-12.79 1000.33,-16.87 1000.74,-9.88"/>
</g>
<!-- Node12 -->
<g id="node12" class="node">
<title>Node12</title>
<g id="a_node12"><a xlink:href="../../db/d16/config_8h.html" target="_top" xlink:title=" ">
<polygon fill="white" stroke="black" points="943,-246.5 943,-265.5 1054,-265.5 1054,-246.5 943,-246.5"/>
<text text-anchor="middle" x="998.5" y="-253.5" font-family="Helvetica,sans-Serif" font-size="10.00">joda/config/config.h</text>
</a>
</g>
</g>
<!-- Node11&#45;&gt;Node12 -->
<g id="edge13" class="edge">
<title>Node11&#45;&gt;Node12</title>
<path fill="none" stroke="midnightblue" d="M917.62,-302.4C934.77,-292.77 957.36,-280.09 974.31,-270.58"/>
<polygon fill="midnightblue" stroke="midnightblue" points="976.07,-273.6 983.08,-265.66 972.64,-267.5 976.07,-273.6"/>
</g>
<!-- Node11&#45;&gt;Node14 -->
<g id="edge16" class="edge">
<title>Node11&#45;&gt;Node14</title>
<path fill="none" stroke="midnightblue" d="M834.5,-311.34C768.59,-304.42 666.3,-290.12 636.5,-266 578.61,-219.16 623.06,-164.75 570.5,-112 554.88,-96.32 532.9,-85.74 513.18,-78.79"/>
<polygon fill="midnightblue" stroke="midnightblue" points="514,-75.38 503.41,-75.58 511.81,-82.03 514,-75.38"/>
</g>
<!-- Node18 -->
<g id="node18" class="node">
<title>Node18</title>
<g id="a_node18"><a xlink:title=" ">
<polygon fill="white" stroke="#bfbfbf" points="713,-246.5 713,-265.5 842,-265.5 842,-246.5 713,-246.5"/>
<text text-anchor="middle" x="777.5" y="-253.5" font-family="Helvetica,sans-Serif" font-size="10.00">rapidjson/stringbuffer.h</text>
</a>
</g>
</g>
<!-- Node11&#45;&gt;Node18 -->
<g id="edge23" class="edge">
<title>Node11&#45;&gt;Node18</title>
<path fill="none" stroke="midnightblue" d="M865.25,-302.4C846.47,-292.68 821.67,-279.86 803.23,-270.31"/>
<polygon fill="midnightblue" stroke="midnightblue" points="804.72,-267.14 794.23,-265.66 801.51,-273.36 804.72,-267.14"/>
</g>
<!-- Node19 -->
<g id="node19" class="node">
<title>Node19</title>
<g id="a_node19"><a xlink:title=" ">
<polygon fill="white" stroke="#bfbfbf" points="860.5,-246.5 860.5,-265.5 924.5,-265.5 924.5,-246.5 860.5,-246.5"/>
<text text-anchor="middle" x="892.5" y="-253.5" font-family="Helvetica,sans-Serif" font-size="10.00">algorithm</text>
</a>
</g>
</g>
<!-- Node11&#45;&gt;Node19 -->
<g id="edge24" class="edge">
<title>Node11&#45;&gt;Node19</title>
<path fill="none" stroke="midnightblue" d="M892.5,-302.4C892.5,-294.47 892.5,-284.46 892.5,-275.86"/>
<polygon fill="midnightblue" stroke="midnightblue" points="896,-275.66 892.5,-265.66 889,-275.66 896,-275.66"/>
</g>
<!-- Node20 -->
<g id="node20" class="node">
<title>Node20</title>
<g id="a_node20"><a xlink:title=" ">
<polygon fill="white" stroke="#bfbfbf" points="1157.5,-112.5 1157.5,-131.5 1205.5,-131.5 1205.5,-112.5 1157.5,-112.5"/>
<text text-anchor="middle" x="1181.5" y="-119.5" font-family="Helvetica,sans-Serif" font-size="10.00">mutex</text>
</a>
</g>
</g>
<!-- Node11&#45;&gt;Node20 -->
<g id="edge25" class="edge">
<title>Node11&#45;&gt;Node20</title>
<path fill="none" stroke="midnightblue" d="M950.7,-313.1C1053.65,-306.49 1259.1,-290.37 1280.5,-266 1311.53,-230.67 1242.48,-233.59 1221.5,-210 1203.58,-189.86 1192.31,-160.32 1186.46,-141.38"/>
<polygon fill="midnightblue" stroke="midnightblue" points="1189.77,-140.23 1183.63,-131.6 1183.05,-142.18 1189.77,-140.23"/>
</g>
<!-- Node21 -->
<g id="node21" class="node">
<title>Node21</title>
<g id="a_node21"><a xlink:title=" ">
<polygon fill="white" stroke="#bfbfbf" points="826,-56.5 826,-75.5 919,-75.5 919,-56.5 826,-56.5"/>
<text text-anchor="middle" x="872.5" y="-63.5" font-family="Helvetica,sans-Serif" font-size="10.00">unordered_map</text>
</a>
</g>
</g>
<!-- Node11&#45;&gt;Node21 -->
<g id="edge26" class="edge">
<title>Node11&#45;&gt;Node21</title>
<path fill="none" stroke="midnightblue" d="M834.37,-316.48C784.01,-313.71 711.43,-302.85 660.5,-266 637.09,-249.07 635.1,-237.87 627.5,-210 622.59,-191.99 617.12,-183.51 627.5,-168 669.27,-105.6 757.35,-81.72 815.72,-72.6"/>
<polygon fill="midnightblue" stroke="midnightblue" points="816.51,-76.02 825.9,-71.11 815.5,-69.09 816.51,-76.02"/>
</g>
<!-- Node22 -->
<g id="node22" class="node">
<title>Node22</title>
<g id="a_node22"><a xlink:title=" ">
<polygon fill="white" stroke="#bfbfbf" points="1072,-246.5 1072,-265.5 1123,-265.5 1123,-246.5 1072,-246.5"/>
<text text-anchor="middle" x="1097.5" y="-253.5" font-family="Helvetica,sans-Serif" font-size="10.00">variant</text>
</a>
</g>
</g>
<!-- Node11&#45;&gt;Node22 -->
<g id="edge27" class="edge">
<title>Node11&#45;&gt;Node22</title>
<path fill="none" stroke="midnightblue" d="M940.82,-302.47C978.05,-291.67 1028.65,-276.98 1062.15,-267.26"/>
<polygon fill="midnightblue" stroke="midnightblue" points="1063.34,-270.56 1071.97,-264.41 1061.39,-263.84 1063.34,-270.56"/>
</g>
<!-- Node23 -->
<g id="node23" class="node">
<title>Node23</title>
<g id="a_node23"><a xlink:href="../../da/d3b/ObjectIterator_8h.html" target="_top" xlink:title=" ">
<polygon fill="white" stroke="black" points="1179.5,-246.5 1179.5,-265.5 1271.5,-265.5 1271.5,-246.5 1179.5,-246.5"/>
<text text-anchor="middle" x="1225.5" y="-253.5" font-family="Helvetica,sans-Serif" font-size="10.00">ObjectIterator.h</text>
</a>
</g>
</g>
<!-- Node11&#45;&gt;Node23 -->
<g id="edge28" class="edge">
<title>Node11&#45;&gt;Node23</title>
<path fill="none" stroke="midnightblue" d="M950.5,-306.14C1011.98,-295.15 1108.41,-277.92 1169.22,-267.06"/>
<polygon fill="midnightblue" stroke="midnightblue" points="1170.18,-270.44 1179.41,-265.24 1168.95,-263.55 1170.18,-270.44"/>
</g>
<!-- Node26 -->
<g id="node26" class="node">
<title>Node26</title>
<g id="a_node26"><a xlink:href="../../d5/de2/ViewCursor_8h.html" target="_top" xlink:title=" ">
<polygon fill="white" stroke="black" points="708.5,-179.5 708.5,-198.5 788.5,-198.5 788.5,-179.5 708.5,-179.5"/>
<text text-anchor="middle" x="748.5" y="-186.5" font-family="Helvetica,sans-Serif" font-size="10.00">ViewCursor.h</text>
</a>
</g>
</g>
<!-- Node11&#45;&gt;Node26 -->
<g id="edge41" class="edge">
<title>Node11&#45;&gt;Node26</title>
<path fill="none" stroke="midnightblue" d="M834.39,-311.38C775.62,-304.85 690.66,-291.26 670.5,-266 651.13,-241.73 688.71,-217.32 718.15,-202.94"/>
<polygon fill="midnightblue" stroke="midnightblue" points="719.76,-206.05 727.34,-198.64 716.79,-199.71 719.76,-206.05"/>
</g>
<!-- Node27 -->
<g id="node27" class="node">
<title>Node27</title>
<g id="a_node27"><a xlink:href="../../d0/d10/ViewStructure_8h.html" target="_top" xlink:title=" ">
<polygon fill="white" stroke="black" points="825.5,-112.5 825.5,-131.5 919.5,-131.5 919.5,-112.5 825.5,-112.5"/>
<text text-anchor="middle" x="872.5" y="-119.5" font-family="Helvetica,sans-Serif" font-size="10.00">ViewStructure.h</text>
</a>
</g>
</g>
<!-- Node11&#45;&gt;Node27 -->
<g id="edge42" class="edge">
<title>Node11&#45;&gt;Node27</title>
<path fill="none" stroke="midnightblue" d="M834.29,-308.67C785.15,-300.73 720.34,-286.65 704.5,-266 664.97,-214.45 732.68,-255.72 797.5,-210 824.81,-190.74 848.5,-159.41 861.61,-140.07"/>
<polygon fill="midnightblue" stroke="midnightblue" points="864.59,-141.92 867.17,-131.65 858.74,-138.07 864.59,-141.92"/>
</g>
<!-- Node28 -->
<g id="node28" class="node">
<title>Node28</title>
<g id="a_node28"><a xlink:href="../../d8/dee/VirtualObject_8h.html" target="_top" xlink:title=" ">
<polygon fill="white" stroke="black" points="903,-179.5 903,-198.5 992,-198.5 992,-179.5 903,-179.5"/>
<text text-anchor="middle" x="947.5" y="-186.5" font-family="Helvetica,sans-Serif" font-size="10.00">VirtualObject.h</text>
</a>
</g>
</g>
<!-- Node11&#45;&gt;Node28 -->
<g id="edge43" class="edge">
<title>Node11&#45;&gt;Node28</title>
<path fill="none" stroke="midnightblue" d="M950.66,-312.49C1014.22,-306.76 1110.03,-293.69 1132.5,-266 1138.1,-259.1 1137.8,-253.14 1132.5,-246 1124.04,-234.6 1045.93,-213.8 993.95,-201.01"/>
<polygon fill="midnightblue" stroke="midnightblue" points="994.47,-197.54 983.93,-198.57 992.81,-204.34 994.47,-197.54"/>
</g>
<!-- Node12&#45;&gt;Node9 -->
<g id="edge15" class="edge">
<title>Node12&#45;&gt;Node9</title>
<path fill="none" stroke="midnightblue" d="M1000.21,-246.24C1004.9,-223.28 1019.28,-159.83 1043.5,-112 1048.58,-101.97 1055.83,-91.79 1062.25,-83.65"/>
<polygon fill="midnightblue" stroke="midnightblue" points="1065.11,-85.69 1068.74,-75.73 1059.69,-81.25 1065.11,-85.69"/>
</g>
<!-- Node13 -->
<g id="node13" class="node">
<title>Node13</title>
<g id="a_node13"><a xlink:title=" ">
<polygon fill="white" stroke="#bfbfbf" points="636.5,-179.5 636.5,-198.5 690.5,-198.5 690.5,-179.5 636.5,-179.5"/>
<text text-anchor="middle" x="663.5" y="-186.5" font-family="Helvetica,sans-Serif" font-size="10.00">istream</text>
</a>
</g>
</g>
<!-- Node12&#45;&gt;Node13 -->
<g id="edge14" class="edge">
<title>Node12&#45;&gt;Node13</title>
<path fill="none" stroke="midnightblue" d="M942.88,-247.15C859.58,-235.32 710.9,-213.88 699.5,-210 694.68,-208.36 689.75,-206.08 685.15,-203.65"/>
<polygon fill="midnightblue" stroke="midnightblue" points="686.73,-200.52 676.31,-198.59 683.25,-206.6 686.73,-200.52"/>
</g>
<!-- Node14&#45;&gt;Node4 -->
<g id="edge17" class="edge">
<title>Node14&#45;&gt;Node4</title>
<path fill="none" stroke="midnightblue" d="M519.51,-57.75C524.24,-57.14 528.96,-56.55 533.5,-56 662.8,-40.29 815.15,-24.41 894.07,-16.37"/>
<polygon fill="midnightblue" stroke="midnightblue" points="894.65,-19.83 904.25,-15.34 893.95,-12.87 894.65,-19.83"/>
</g>
<!-- Node14&#45;&gt;Node5 -->
<g id="edge19" class="edge">
<title>Node14&#45;&gt;Node5</title>
<path fill="none" stroke="midnightblue" d="M424.35,-56.44C377.75,-46.98 302.66,-31.74 252.45,-21.55"/>
<polygon fill="midnightblue" stroke="midnightblue" points="252.95,-18.08 242.45,-19.52 251.56,-24.94 252.95,-18.08"/>
</g>
<!-- Node14&#45;&gt;Node6 -->
<g id="edge20" class="edge">
<title>Node14&#45;&gt;Node6</title>
<path fill="none" stroke="midnightblue" d="M413.48,-58.38C349.21,-50.25 237.37,-35.76 131.04,-20.04"/>
<polygon fill="midnightblue" stroke="midnightblue" points="131.51,-16.57 121.1,-18.57 130.48,-23.5 131.51,-16.57"/>
</g>
<!-- Node14&#45;&gt;Node15 -->
<g id="edge18" class="edge">
<title>Node14&#45;&gt;Node15</title>
<path fill="none" stroke="midnightblue" d="M446.53,-56.44C425.89,-47.6 393.44,-33.69 369.87,-23.59"/>
<polygon fill="midnightblue" stroke="midnightblue" points="370.94,-20.24 360.37,-19.52 368.18,-26.67 370.94,-20.24"/>
</g>
<!-- Node16 -->
<g id="node16" class="node">
<title>Node16</title>
<g id="a_node16"><a xlink:title=" ">
<polygon fill="white" stroke="#bfbfbf" points="419.5,-0.5 419.5,-19.5 569.5,-19.5 569.5,-0.5 419.5,-0.5"/>
<text text-anchor="middle" x="494.5" y="-7.5" font-family="Helvetica,sans-Serif" font-size="10.00">rapidjson/istreamwrapper.h</text>
</a>
</g>
</g>
<!-- Node14&#45;&gt;Node16 -->
<g id="edge21" class="edge">
<title>Node14&#45;&gt;Node16</title>
<path fill="none" stroke="midnightblue" d="M471.12,-56.08C474.96,-48.69 480.52,-37.95 485.26,-28.81"/>
<polygon fill="midnightblue" stroke="midnightblue" points="488.47,-30.24 489.96,-19.75 482.25,-27.02 488.47,-30.24"/>
</g>
<!-- Node17 -->
<g id="node17" class="node">
<title>Node17</title>
<g id="a_node17"><a xlink:title=" ">
<polygon fill="white" stroke="#bfbfbf" points="587,-0.5 587,-19.5 694,-19.5 694,-0.5 587,-0.5"/>
<text text-anchor="middle" x="640.5" y="-7.5" font-family="Helvetica,sans-Serif" font-size="10.00">rapidjson/pointer.h</text>
</a>
</g>
</g>
<!-- Node14&#45;&gt;Node17 -->
<g id="edge22" class="edge">
<title>Node14&#45;&gt;Node17</title>
<path fill="none" stroke="midnightblue" d="M494.07,-56.44C523.6,-47.28 570.62,-32.69 603.38,-22.52"/>
<polygon fill="midnightblue" stroke="midnightblue" points="604.54,-25.82 613.06,-19.52 602.47,-19.14 604.54,-25.82"/>
</g>
<!-- Node23&#45;&gt;Node9 -->
<g id="edge30" class="edge">
<title>Node23&#45;&gt;Node9</title>
<path fill="none" stroke="midnightblue" d="M1218.11,-246.46C1210.37,-237.47 1197.92,-222.87 1187.5,-210 1151.07,-165.02 1109.61,-110.74 1089.21,-83.83"/>
<polygon fill="midnightblue" stroke="midnightblue" points="1091.96,-81.67 1083.13,-75.8 1086.38,-85.89 1091.96,-81.67"/>
</g>
<!-- Node23&#45;&gt;Node14 -->
<g id="edge29" class="edge">
<title>Node23&#45;&gt;Node14</title>
<path fill="none" stroke="midnightblue" d="M1179.27,-250.29C1101.32,-242.09 947.08,-224.66 894.5,-210 849.25,-197.38 841.25,-185.1 797.5,-168 727.33,-140.57 709.54,-134.05 637.5,-112 595.42,-99.12 546.85,-86.56 512.25,-77.99"/>
<polygon fill="midnightblue" stroke="midnightblue" points="512.98,-74.57 502.43,-75.58 511.31,-81.36 512.98,-74.57"/>
</g>
<!-- Node24 -->
<g id="node24" class="node">
<title>Node24</title>
<g id="a_node24"><a xlink:title=" ">
<polygon fill="white" stroke="#bfbfbf" points="1090,-179.5 1090,-198.5 1135,-198.5 1135,-179.5 1090,-179.5"/>
<text text-anchor="middle" x="1112.5" y="-186.5" font-family="Helvetica,sans-Serif" font-size="10.00">utility</text>
</a>
</g>
</g>
<!-- Node23&#45;&gt;Node24 -->
<g id="edge31" class="edge">
<title>Node23&#45;&gt;Node24</title>
<path fill="none" stroke="midnightblue" d="M1210.26,-246.23C1191.28,-235.32 1158.65,-216.55 1136.35,-203.72"/>
<polygon fill="midnightblue" stroke="midnightblue" points="1137.91,-200.58 1127.5,-198.63 1134.42,-206.65 1137.91,-200.58"/>
</g>
<!-- Node25 -->
<g id="node25" class="node">
<title>Node25</title>
<g id="a_node25"><a xlink:title=" ">
<polygon fill="white" stroke="#bfbfbf" points="1052,-112.5 1052,-131.5 1099,-131.5 1099,-112.5 1052,-112.5"/>
<text text-anchor="middle" x="1075.5" y="-119.5" font-family="Helvetica,sans-Serif" font-size="10.00">vector</text>
</a>
</g>
</g>
<!-- Node23&#45;&gt;Node25 -->
<g id="edge32" class="edge">
<title>Node23&#45;&gt;Node25</title>
<path fill="none" stroke="midnightblue" d="M1179.62,-246.49C1142.29,-238.56 1093.84,-225.62 1081.5,-210 1066.21,-190.63 1067.96,-160.65 1071.25,-141.43"/>
<polygon fill="midnightblue" stroke="midnightblue" points="1074.7,-142.01 1073.24,-131.52 1067.84,-140.63 1074.7,-142.01"/>
</g>
<!-- Node23&#45;&gt;Node26 -->
<g id="edge33" class="edge">
<title>Node23&#45;&gt;Node26</title>
<path fill="none" stroke="midnightblue" d="M1179.4,-250.41C1073.53,-239.81 820.66,-214.26 802.5,-210 794.29,-208.07 785.62,-205.25 777.7,-202.32"/>
<polygon fill="midnightblue" stroke="midnightblue" points="778.73,-198.96 768.14,-198.62 776.2,-205.49 778.73,-198.96"/>
</g>
<!-- Node26&#45;&gt;Node8 -->
<g id="edge35" class="edge">
<title>Node26&#45;&gt;Node8</title>
<path fill="none" stroke="midnightblue" d="M729.16,-179.46C720.23,-175.68 709.43,-171.35 699.5,-168 656.44,-153.47 605.93,-140.4 571.82,-132.13"/>
<polygon fill="midnightblue" stroke="midnightblue" points="572.33,-128.65 561.79,-129.72 570.7,-135.46 572.33,-128.65"/>
</g>
<!-- Node26&#45;&gt;Node14 -->
<g id="edge34" class="edge">
<title>Node26&#45;&gt;Node14</title>
<path fill="none" stroke="midnightblue" d="M734.07,-179.41C708.43,-164.38 652.98,-132.92 603.5,-112 571.77,-98.58 534.57,-86.59 506.95,-78.36"/>
<polygon fill="midnightblue" stroke="midnightblue" points="507.81,-74.97 497.23,-75.51 505.84,-81.69 507.81,-74.97"/>
</g>
<!-- Node26&#45;&gt;Node25 -->
<g id="edge36" class="edge">
<title>Node26&#45;&gt;Node25</title>
<path fill="none" stroke="midnightblue" d="M788.6,-180.03C853.73,-167.08 981.32,-141.72 1041.96,-129.67"/>
<polygon fill="midnightblue" stroke="midnightblue" points="1042.66,-133.1 1051.79,-127.71 1041.3,-126.23 1042.66,-133.1"/>
</g>
<!-- Node26&#45;&gt;Node27 -->
<g id="edge37" class="edge">
<title>Node26&#45;&gt;Node27</title>
<path fill="none" stroke="midnightblue" d="M764.97,-179.37C785.9,-168.39 822.28,-149.32 846.86,-136.44"/>
<polygon fill="midnightblue" stroke="midnightblue" points="848.73,-139.41 855.97,-131.67 845.48,-133.21 848.73,-139.41"/>
</g>
<!-- Node27&#45;&gt;Node9 -->
<g id="edge39" class="edge">
<title>Node27&#45;&gt;Node9</title>
<path fill="none" stroke="midnightblue" d="M904.82,-112.44C943.03,-102.33 1006.21,-85.61 1044.34,-75.51"/>
<polygon fill="midnightblue" stroke="midnightblue" points="1045.62,-78.8 1054.39,-72.85 1043.82,-72.03 1045.62,-78.8"/>
</g>
<!-- Node27&#45;&gt;Node14 -->
<g id="edge38" class="edge">
<title>Node27&#45;&gt;Node14</title>
<path fill="none" stroke="midnightblue" d="M825.22,-113.94C820.59,-113.28 815.95,-112.62 811.5,-112 713.34,-98.36 599.28,-83.72 530.03,-74.96"/>
<polygon fill="midnightblue" stroke="midnightblue" points="530.09,-71.44 519.73,-73.66 529.21,-78.39 530.09,-71.44"/>
</g>
<!-- Node27&#45;&gt;Node21 -->
<g id="edge40" class="edge">
<title>Node27&#45;&gt;Node21</title>
<path fill="none" stroke="midnightblue" d="M872.5,-112.08C872.5,-105.01 872.5,-94.86 872.5,-85.99"/>
<polygon fill="midnightblue" stroke="midnightblue" points="876,-85.75 872.5,-75.75 869,-85.75 876,-85.75"/>
</g>
<!-- Node28&#45;&gt;Node4 -->
<g id="edge44" class="edge">
<title>Node28&#45;&gt;Node4</title>
<path fill="none" stroke="midnightblue" d="M947.5,-179.46C947.5,-152.43 947.5,-68.24 947.5,-30.11"/>
<polygon fill="midnightblue" stroke="midnightblue" points="951,-29.87 947.5,-19.87 944,-29.87 951,-29.87"/>
</g>
<!-- Node28&#45;&gt;Node9 -->
<g id="edge46" class="edge">
<title>Node28&#45;&gt;Node9</title>
<path fill="none" stroke="midnightblue" d="M953.29,-179.33C963.49,-164.44 985.84,-133.56 1009.5,-112 1022.54,-100.11 1038.97,-89.03 1052.29,-80.84"/>
<polygon fill="midnightblue" stroke="midnightblue" points="1054.16,-83.8 1060.94,-75.66 1050.56,-77.8 1054.16,-83.8"/>
</g>
<!-- Node28&#45;&gt;Node14 -->
<g id="edge45" class="edge">
<title>Node28&#45;&gt;Node14</title>
<path fill="none" stroke="midnightblue" d="M926.99,-179.47C901.13,-168.65 855.35,-149.33 816.5,-132 797.25,-123.41 793.69,-118.04 773.5,-112 691.36,-87.45 592.71,-76.03 529.81,-70.91"/>
<polygon fill="midnightblue" stroke="midnightblue" points="529.9,-67.4 519.65,-70.11 529.35,-74.38 529.9,-67.4"/>
</g>
<!-- Node28&#45;&gt;Node27 -->
<g id="edge47" class="edge">
<title>Node28&#45;&gt;Node27</title>
<path fill="none" stroke="midnightblue" d="M937.39,-179.23C925.35,-168.81 905.05,-151.21 890.35,-138.47"/>
<polygon fill="midnightblue" stroke="midnightblue" points="892.3,-135.53 882.45,-131.63 887.72,-140.82 892.3,-135.53"/>
</g>
<!-- Node30&#45;&gt;Node9 -->
<g id="edge54" class="edge">
<title>Node30&#45;&gt;Node9</title>
<path fill="none" stroke="midnightblue" d="M1334.35,-168.28C1352.84,-152.32 1371.57,-129.68 1356.5,-112 1325.04,-75.08 1176.14,-68.34 1109.22,-67.19"/>
<polygon fill="midnightblue" stroke="midnightblue" points="1108.88,-63.68 1098.84,-67.04 1108.79,-70.68 1108.88,-63.68"/>
</g>
<!-- Node30&#45;&gt;Node20 -->
<g id="edge53" class="edge">
<title>Node30&#45;&gt;Node20</title>
<path fill="none" stroke="midnightblue" d="M1269.7,-168.5C1249.63,-158.15 1225.49,-145.69 1207.54,-136.43"/>
<polygon fill="midnightblue" stroke="midnightblue" points="1208.76,-133.13 1198.27,-131.65 1205.56,-139.35 1208.76,-133.13"/>
</g>
<!-- Node30&#45;&gt;Node21 -->
<g id="edge55" class="edge">
<title>Node30&#45;&gt;Node21</title>
<path fill="none" stroke="midnightblue" d="M1289.68,-168.18C1272.36,-150.3 1244.36,-124.91 1214.5,-112 1164.5,-90.39 1012.87,-76.77 929.29,-70.7"/>
<polygon fill="midnightblue" stroke="midnightblue" points="929.42,-67.2 919.2,-69.97 928.92,-74.18 929.42,-67.2"/>
</g>
<!-- Node30&#45;&gt;Node25 -->
<g id="edge57" class="edge">
<title>Node30&#45;&gt;Node25</title>
<path fill="none" stroke="midnightblue" d="M1237.89,-168.5C1195.19,-156.54 1142.46,-141.76 1108.89,-132.36"/>
<polygon fill="midnightblue" stroke="midnightblue" points="1109.7,-128.95 1099.12,-129.62 1107.81,-135.69 1109.7,-128.95"/>
</g>
<!-- Node31 -->
<g id="node31" class="node">
<title>Node31</title>
<g id="a_node31"><a xlink:title=" ">
<polygon fill="white" stroke="#bfbfbf" points="1261.5,-112.5 1261.5,-131.5 1347.5,-131.5 1347.5,-112.5 1261.5,-112.5"/>
<text text-anchor="middle" x="1304.5" y="-119.5" font-family="Helvetica,sans-Serif" font-size="10.00">unordered_set</text>
</a>
</g>
</g>
<!-- Node30&#45;&gt;Node31 -->
<g id="edge56" class="edge">
<title>Node30&#45;&gt;Node31</title>
<path fill="none" stroke="midnightblue" d="M1306.6,-168.5C1306.21,-160.07 1305.76,-150.24 1305.37,-141.87"/>
<polygon fill="midnightblue" stroke="midnightblue" points="1308.86,-141.48 1304.9,-131.65 1301.86,-141.8 1308.86,-141.48"/>
</g>
<!-- Node32&#45;&gt;Node4 -->
<g id="edge59" class="edge">
<title>Node32&#45;&gt;Node4</title>
<path fill="none" stroke="midnightblue" d="M441.42,-179.35C449.14,-163.34 467.9,-129.18 494.5,-112 621.15,-30.23 804.63,-14.03 894.23,-11.24"/>
<polygon fill="midnightblue" stroke="midnightblue" points="894.52,-14.73 904.43,-10.97 894.34,-7.74 894.52,-14.73"/>
</g>
<!-- Node32&#45;&gt;Node8 -->
<g id="edge61" class="edge">
<title>Node32&#45;&gt;Node8</title>
<path fill="none" stroke="midnightblue" d="M450.31,-179.23C465.98,-168.51 492.72,-150.22 511.43,-137.41"/>
<polygon fill="midnightblue" stroke="midnightblue" points="513.61,-140.16 519.89,-131.63 509.66,-134.39 513.61,-140.16"/>
</g>
<!-- Node32&#45;&gt;Node14 -->
<g id="edge62" class="edge">
<title>Node32&#45;&gt;Node14</title>
<path fill="none" stroke="midnightblue" d="M439.59,-179.3C444.27,-159.76 455.7,-112.06 462.05,-85.55"/>
<polygon fill="midnightblue" stroke="midnightblue" points="465.51,-86.16 464.43,-75.62 458.7,-84.53 465.51,-86.16"/>
</g>
<!-- Node33 -->
<g id="node33" class="node">
<title>Node33</title>
<g id="a_node33"><a xlink:title=" ">
<polygon fill="white" stroke="#bfbfbf" points="295.5,-112.5 295.5,-131.5 409.5,-131.5 409.5,-112.5 295.5,-112.5"/>
<text text-anchor="middle" x="352.5" y="-119.5" font-family="Helvetica,sans-Serif" font-size="10.00">boost/operators.hpp</text>
</a>
</g>
</g>
<!-- Node32&#45;&gt;Node33 -->
<g id="edge60" class="edge">
<title>Node32&#45;&gt;Node33</title>
<path fill="none" stroke="midnightblue" d="M426.04,-179.23C412.14,-168.61 388.52,-150.55 371.81,-137.76"/>
<polygon fill="midnightblue" stroke="midnightblue" points="373.85,-134.92 363.78,-131.63 369.6,-140.48 373.85,-134.92"/>
</g>
</g>
</svg>
        <g id="navigator" transform="translate(0 0)" fill="#404254">
                <rect fill="#f2f5e9" fill-opacity="0.5" stroke="#606060" stroke-width=".5" x="0" y="0" width="60" height="60"/>
                <use id="zoomplus" xlink:href="#zoomPlus" x="17" y="9" onmousedown="handleZoom(evt,'in')"/>
                <use id="zoomminus" xlink:href="#zoomMin" x="42" y="9" onmousedown="handleZoom(evt,'out')"/>
                <use id="reset" xlink:href="#resetDef" x="30" y="36" onmousedown="handleReset()"/>
                <g id="arrowUp" xlink:href="#dirArrow" transform="translate(30 24)" onmousedown="handlePan(0,-1)">
                  <use xlink:href="#rim" fill="#404040">
                        <set attributeName="fill" to="#808080" begin="arrowUp.mouseover" end="arrowUp.mouseout"/>
                  </use>
                  <path fill="none" stroke="white" stroke-width="1.5" d="M0,-3.0v7 M-2.5,-0.5L0,-3.0L2.5,-0.5"/>
                </g>
                <g id="arrowRight" xlink:href="#dirArrow" transform="rotate(90) translate(36 -43)" onmousedown="handlePan(1,0)">
                  <use xlink:href="#rim" fill="#404040">
                        <set attributeName="fill" to="#808080" begin="arrowRight.mouseover" end="arrowRight.mouseout"/>
                  </use>
                  <path fill="none" stroke="white" stroke-width="1.5" d="M0,-3.0v7 M-2.5,-0.5L0,-3.0L2.5,-0.5"/>
                </g>
                <g id="arrowDown" xlink:href="#dirArrow" transform="rotate(180) translate(-30 -48)" onmousedown="handlePan(0,1)">
                  <use xlink:href="#rim" fill="#404040">
                        <set attributeName="fill" to="#808080" begin="arrowDown.mouseover" end="arrowDown.mouseout"/>
                  </use>
                  <path fill="none" stroke="white" stroke-width="1.5" d="M0,-3.0v7 M-2.5,-0.5L0,-3.0L2.5,-0.5"/>
                </g>
                <g id="arrowLeft" xlink:href="#dirArrow" transform="rotate(270) translate(-36 17)" onmousedown="handlePan(-1,0)">
                  <use xlink:href="#rim" fill="#404040">
                        <set attributeName="fill" to="#808080" begin="arrowLeft.mouseover" end="arrowLeft.mouseout"/>
                  </use>
                  <path fill="none" stroke="white" stroke-width="1.5" d="M0,-3.0v7 M-2.5,-0.5L0,-3.0L2.5,-0.5"/>
                </g>
        </g>
        <svg viewBox="0 0 15 15" width="100%" height="30px" preserveAspectRatio="xMaxYMin meet">
         <g id="arrow_out" transform="scale(0.3 0.3)">
          <a xlink:href="BinaryStringProvider_8h__incl_org.svg" target="_base">
           <rect id="button" ry="5" rx="5" y="6" x="6" height="38" width="38"
                fill="#f2f5e9" fill-opacity="0.5" stroke="#606060" stroke-width="1.0"/>
           <path id="arrow"
             d="M 11.500037,31.436501 C 11.940474,20.09759 22.043105,11.32322 32.158766,21.979434 L 37.068811,17.246167 C 37.068811,17.246167 37.088388,32 37.088388,32 L 22.160133,31.978069 C 22.160133,31.978069 26.997745,27.140456 26.997745,27.140456 C 18.528582,18.264221 13.291696,25.230495 11.500037,31.436501 z"
             style="fill:#404040;"/>
          </a>
         </g>
        </svg>
</svg>
