<?xml version="1.0" encoding="UTF-8" standalone="no"?>
<!DOCTYPE svg PUBLIC "-//W3C//DTD SVG 1.1//EN"
 "http://www.w3.org/Graphics/SVG/1.1/DTD/svg11.dtd">
<!-- Generated by graphviz version 2.43.0 (0)
 -->
<!-- Title: /home/nico/projects/JODA&#45;gh/libs/joda/client/src/JodaClient.cpp Pages: 1 -->
<!--zoomable 173 -->
<svg id="main" version="1.1" xmlns="http://www.w3.org/2000/svg" xmlns:xlink="http://www.w3.org/1999/xlink" xml:space="preserve" onload="init(evt)">
<style type="text/css"><![CDATA[
.edge:hover path { stroke: red; }
.edge:hover polygon { stroke: red; fill: red; }
]]></style>
<script type="text/javascript"><![CDATA[
var edges = document.getElementsByTagName('g');
if (edges && edges.length) {
  for (var i=0;i<edges.length;i++) {
    if (edges[i].id.substr(0,4)=='edge') {
      edges[i].setAttribute('class','edge');
    }
  }
}
]]></script>
        <defs>
                <circle id="rim" cx="0" cy="0" r="7"/>
                <circle id="rim2" cx="0" cy="0" r="3.5"/>
                <g id="zoomPlus">
                        <use xlink:href="#rim" fill="#404040">
                                <set attributeName="fill" to="#808080" begin="zoomplus.mouseover" end="zoomplus.mouseout"/>
                        </use>
                        <path d="M-4,0h8M0,-4v8" fill="none" stroke="white" stroke-width="1.5" pointer-events="none"/>
                </g>
                <g id="zoomMin">
                        <use xlink:href="#rim" fill="#404040">
                                <set attributeName="fill" to="#808080" begin="zoomminus.mouseover" end="zoomminus.mouseout"/>
                        </use>
                        <path d="M-4,0h8" fill="none" stroke="white" stroke-width="1.5" pointer-events="none"/>
                </g>
                <g id="dirArrow">
                        <path fill="none" stroke="white" stroke-width="1.5" d="M0,-3.0v7 M-2.5,-0.5L0,-3.0L2.5,-0.5"/>
                </g>
               <g id="resetDef">
                       <use xlink:href="#rim2" fill="#404040">
                               <set attributeName="fill" to="#808080" begin="reset.mouseover" end="reset.mouseout"/>
                       </use>
               </g>
        </defs>

<script type="text/javascript">
var viewWidth = 3072;
var viewHeight = 173;
var sectionId = 'dynsection-0';
</script>
<script xlink:href="../../svgpan.js"/>
<svg id="graph" class="graph">
<g id="viewport">
<title>/home/nico/projects/JODA&#45;gh/libs/joda/client/src/JodaClient.cpp</title>
<polygon fill="white" stroke="transparent" points="-4,4 -4,-169 3068,-169 3068,4 -4,4"/>
<!-- Node1 -->
<g id="node1" class="node">
<title>Node1</title>
<g id="a_node1"><a xlink:title=" ">
<polygon fill="#bfbfbf" stroke="black" points="1619,-123.5 1619,-164.5 1753,-164.5 1753,-123.5 1619,-123.5"/>
<text text-anchor="start" x="1627" y="-152.5" font-family="Helvetica,sans-Serif" font-size="10.00">/home/nico/projects</text>
<text text-anchor="start" x="1627" y="-141.5" font-family="Helvetica,sans-Serif" font-size="10.00">/JODA&#45;gh/libs/joda/client</text>
<text text-anchor="middle" x="1686" y="-130.5" font-family="Helvetica,sans-Serif" font-size="10.00">/src/JodaClient.cpp</text>
</a>
</g>
</g>
<!-- Node2 -->
<g id="node2" class="node">
<title>Node2</title>
<g id="a_node2"><a xlink:title=" ">
<polygon fill="white" stroke="#bfbfbf" points="1218.5,-67.5 1218.5,-86.5 1275.5,-86.5 1275.5,-67.5 1218.5,-67.5"/>
<text text-anchor="middle" x="1247" y="-74.5" font-family="Helvetica,sans-Serif" font-size="10.00">curses.h</text>
</a>
</g>
</g>
<!-- Node1&#45;&gt;Node2 -->
<g id="edge1" class="edge">
<title>Node1&#45;&gt;Node2</title>
<path fill="none" stroke="midnightblue" d="M1618.99,-135.59C1541.22,-126.55 1408.96,-109.84 1285.58,-86.94"/>
<polygon fill="midnightblue" stroke="midnightblue" points="1286.05,-83.47 1275.57,-85.07 1284.76,-90.35 1286.05,-83.47"/>
</g>
<!-- Node3 -->
<g id="node3" class="node">
<title>Node3</title>
<g id="a_node3"><a xlink:title=" ">
<polygon fill="white" stroke="#bfbfbf" points="1294,-67.5 1294,-86.5 1380,-86.5 1380,-67.5 1294,-67.5"/>
<text text-anchor="middle" x="1337" y="-74.5" font-family="Helvetica,sans-Serif" font-size="10.00">glog/logging.h</text>
</a>
</g>
</g>
<!-- Node1&#45;&gt;Node3 -->
<g id="edge2" class="edge">
<title>Node1&#45;&gt;Node3</title>
<path fill="none" stroke="midnightblue" d="M1618.71,-130.47C1552.01,-118.04 1451.18,-99.27 1389.97,-87.87"/>
<polygon fill="midnightblue" stroke="midnightblue" points="1390.61,-84.42 1380.13,-86.03 1389.32,-91.31 1390.61,-84.42"/>
</g>
<!-- Node4 -->
<g id="node4" class="node">
<title>Node4</title>
<g id="a_node4"><a xlink:href="../../d4/d09/JodaClient_8h.html" target="_top" xlink:title=" ">
<polygon fill="white" stroke="black" points="1474.5,-67.5 1474.5,-86.5 1573.5,-86.5 1573.5,-67.5 1474.5,-67.5"/>
<text text-anchor="middle" x="1524" y="-74.5" font-family="Helvetica,sans-Serif" font-size="10.00">joda/JodaClient.h</text>
</a>
</g>
</g>
<!-- Node1&#45;&gt;Node4 -->
<g id="edge3" class="edge">
<title>Node1&#45;&gt;Node4</title>
<path fill="none" stroke="midnightblue" d="M1637.39,-123.5C1610.65,-112.77 1578.26,-99.77 1554.95,-90.42"/>
<polygon fill="midnightblue" stroke="midnightblue" points="1556.15,-87.13 1545.56,-86.65 1553.54,-93.62 1556.15,-87.13"/>
</g>
<!-- Node6 -->
<g id="node6" class="node">
<title>Node6</title>
<g id="a_node6"><a xlink:title=" ">
<polygon fill="white" stroke="#bfbfbf" points="0,-6 0,-25 122,-25 122,-6 0,-6"/>
<text text-anchor="middle" x="61" y="-13" font-family="Helvetica,sans-Serif" font-size="10.00">rapidjson/document.h</text>
</a>
</g>
</g>
<!-- Node1&#45;&gt;Node6 -->
<g id="edge42" class="edge">
<title>Node1&#45;&gt;Node6</title>
<path fill="none" stroke="midnightblue" d="M1618.83,-135.1C1564.37,-127.2 1486.37,-112.48 1422,-87 1406.05,-80.69 1405.45,-71.85 1389,-67 1254.87,-27.45 269.89,-47.24 131,-31 122.85,-30.05 114.24,-28.62 105.95,-27.02"/>
<polygon fill="midnightblue" stroke="midnightblue" points="106.55,-23.57 96.05,-25.02 105.16,-30.44 106.55,-23.57"/>
</g>
<!-- Node20 -->
<g id="node20" class="node">
<title>Node20</title>
<g id="a_node20"><a xlink:title=" ">
<polygon fill="white" stroke="#bfbfbf" points="140,-6 140,-25 204,-25 204,-6 140,-6"/>
<text text-anchor="middle" x="172" y="-13" font-family="Helvetica,sans-Serif" font-size="10.00">algorithm</text>
</a>
</g>
</g>
<!-- Node1&#45;&gt;Node20 -->
<g id="edge45" class="edge">
<title>Node1&#45;&gt;Node20</title>
<path fill="none" stroke="midnightblue" d="M1618.79,-129.41C1574.48,-119.61 1515.53,-104.97 1465,-87 1445.14,-79.94 1442.51,-71.86 1422,-67 1160.45,-5.05 477.21,-80.4 213,-31 209.29,-30.31 205.47,-29.33 201.72,-28.21"/>
<polygon fill="midnightblue" stroke="midnightblue" points="202.69,-24.85 192.1,-25 200.48,-31.49 202.69,-24.85"/>
</g>
<!-- Node32 -->
<g id="node32" class="node">
<title>Node32</title>
<g id="a_node32"><a xlink:title=" ">
<polygon fill="white" stroke="#bfbfbf" points="2739,-6 2739,-25 2799,-25 2799,-6 2739,-6"/>
<text text-anchor="middle" x="2769" y="-13" font-family="Helvetica,sans-Serif" font-size="10.00">iostream</text>
</a>
</g>
</g>
<!-- Node1&#45;&gt;Node32 -->
<g id="edge47" class="edge">
<title>Node1&#45;&gt;Node32</title>
<path fill="none" stroke="midnightblue" d="M1651.03,-123.37C1627.32,-107.67 1603.25,-85.34 1621,-67 1663.88,-22.71 2669.52,-42.9 2730,-31 2733.26,-30.36 2736.61,-29.48 2739.91,-28.47"/>
<polygon fill="midnightblue" stroke="midnightblue" points="2741.21,-31.72 2749.52,-25.15 2738.92,-25.11 2741.21,-31.72"/>
</g>
<!-- Node43 -->
<g id="node43" class="node">
<title>Node43</title>
<g id="a_node43"><a xlink:title=" ">
<polygon fill="white" stroke="#bfbfbf" points="1630,-67.5 1630,-86.5 1742,-86.5 1742,-67.5 1630,-67.5"/>
<text text-anchor="middle" x="1686" y="-74.5" font-family="Helvetica,sans-Serif" font-size="10.00">rapidjson/error/en.h</text>
</a>
</g>
</g>
<!-- Node1&#45;&gt;Node43 -->
<g id="edge43" class="edge">
<title>Node1&#45;&gt;Node43</title>
<path fill="none" stroke="midnightblue" d="M1686,-123.5C1686,-115.07 1686,-105.24 1686,-96.87"/>
<polygon fill="midnightblue" stroke="midnightblue" points="1689.5,-96.65 1686,-86.65 1682.5,-96.65 1689.5,-96.65"/>
</g>
<!-- Node44 -->
<g id="node44" class="node">
<title>Node44</title>
<g id="a_node44"><a xlink:title=" ">
<polygon fill="white" stroke="#bfbfbf" points="1760.5,-67.5 1760.5,-86.5 1861.5,-86.5 1861.5,-67.5 1760.5,-67.5"/>
<text text-anchor="middle" x="1811" y="-74.5" font-family="Helvetica,sans-Serif" font-size="10.00">rapidjson/writer.h</text>
</a>
</g>
</g>
<!-- Node1&#45;&gt;Node44 -->
<g id="edge44" class="edge">
<title>Node1&#45;&gt;Node44</title>
<path fill="none" stroke="midnightblue" d="M1723.5,-123.5C1743.41,-113.15 1767.36,-100.69 1785.16,-91.43"/>
<polygon fill="midnightblue" stroke="midnightblue" points="1787.1,-94.37 1794.36,-86.65 1783.87,-88.16 1787.1,-94.37"/>
</g>
<!-- Node45 -->
<g id="node45" class="node">
<title>Node45</title>
<g id="a_node45"><a xlink:title=" ">
<polygon fill="white" stroke="#bfbfbf" points="1879.5,-67.5 1879.5,-86.5 2008.5,-86.5 2008.5,-67.5 1879.5,-67.5"/>
<text text-anchor="middle" x="1944" y="-74.5" font-family="Helvetica,sans-Serif" font-size="10.00">boost/asio/connect.hpp</text>
</a>
</g>
</g>
<!-- Node1&#45;&gt;Node45 -->
<g id="edge46" class="edge">
<title>Node1&#45;&gt;Node45</title>
<path fill="none" stroke="midnightblue" d="M1753.11,-126.09C1799.5,-114.41 1859.87,-99.19 1900.18,-89.04"/>
<polygon fill="midnightblue" stroke="midnightblue" points="1901.14,-92.41 1909.98,-86.57 1899.43,-85.62 1901.14,-92.41"/>
</g>
<!-- Node46 -->
<g id="node46" class="node">
<title>Node46</title>
<g id="a_node46"><a xlink:title=" ">
<polygon fill="white" stroke="#bfbfbf" points="2027,-67.5 2027,-86.5 2073,-86.5 2073,-67.5 2027,-67.5"/>
<text text-anchor="middle" x="2050" y="-74.5" font-family="Helvetica,sans-Serif" font-size="10.00">locale</text>
</a>
</g>
</g>
<!-- Node1&#45;&gt;Node46 -->
<g id="edge48" class="edge">
<title>Node1&#45;&gt;Node46</title>
<path fill="none" stroke="midnightblue" d="M1753.26,-133.61C1820.4,-123.77 1926.36,-106.98 2017,-87 2017.1,-86.98 2017.2,-86.96 2017.3,-86.93"/>
<polygon fill="midnightblue" stroke="midnightblue" points="2018.1,-90.34 2026.99,-84.59 2016.45,-83.54 2018.1,-90.34"/>
</g>
<!-- Node47 -->
<g id="node47" class="node">
<title>Node47</title>
<g id="a_node47"><a xlink:href="../../da/daa/client_2src_2CursesFWD_8h.html" target="_top" xlink:title=" ">
<polygon fill="white" stroke="red" points="2970,-67.5 2970,-86.5 3052,-86.5 3052,-67.5 2970,-67.5"/>
<text text-anchor="middle" x="3011" y="-74.5" font-family="Helvetica,sans-Serif" font-size="10.00">CursesFWD.h</text>
</a>
</g>
</g>
<!-- Node1&#45;&gt;Node47 -->
<g id="edge49" class="edge">
<title>Node1&#45;&gt;Node47</title>
<path fill="none" stroke="midnightblue" d="M1753.29,-143.22C1942.19,-143.15 2493.44,-138.3 2959.9,-86.96"/>
<polygon fill="midnightblue" stroke="midnightblue" points="2960.31,-90.44 2969.86,-85.86 2959.54,-83.48 2960.31,-90.44"/>
</g>
<!-- Node50 -->
<g id="node49" class="node">
<title>Node50</title>
<g id="a_node49"><a xlink:href="../../da/d0b/QueryRequest_8h.html" target="_top" xlink:title=" ">
<polygon fill="white" stroke="black" points="2742.5,-67.5 2742.5,-86.5 2837.5,-86.5 2837.5,-67.5 2742.5,-67.5"/>
<text text-anchor="middle" x="2790" y="-74.5" font-family="Helvetica,sans-Serif" font-size="10.00">QueryRequest.h</text>
</a>
</g>
</g>
<!-- Node1&#45;&gt;Node50 -->
<g id="edge51" class="edge">
<title>Node1&#45;&gt;Node50</title>
<path fill="none" stroke="midnightblue" d="M1753.4,-139.03C1953.96,-127.22 2544.62,-92.45 2732.16,-81.41"/>
<polygon fill="midnightblue" stroke="midnightblue" points="2732.58,-84.89 2742.36,-80.81 2732.17,-77.9 2732.58,-84.89"/>
</g>
<!-- Node51 -->
<g id="node50" class="node">
<title>Node51</title>
<g id="a_node50"><a xlink:href="../../d1/d1c/ResultRequest_8h.html" target="_top" xlink:title=" ">
<polygon fill="white" stroke="black" points="2856,-67.5 2856,-86.5 2952,-86.5 2952,-67.5 2856,-67.5"/>
<text text-anchor="middle" x="2904" y="-74.5" font-family="Helvetica,sans-Serif" font-size="10.00">ResultRequest.h</text>
</a>
</g>
</g>
<!-- Node1&#45;&gt;Node51 -->
<g id="edge54" class="edge">
<title>Node1&#45;&gt;Node51</title>
<path fill="none" stroke="midnightblue" d="M1753.26,-142.3C1930.44,-139.92 2424.67,-129.74 2845.6,-87.03"/>
<polygon fill="midnightblue" stroke="midnightblue" points="2846.25,-90.48 2855.85,-85.98 2845.54,-83.51 2846.25,-90.48"/>
</g>
<!-- Node5 -->
<g id="node5" class="node">
<title>Node5</title>
<g id="a_node5"><a xlink:title=" ">
<polygon fill="white" stroke="#bfbfbf" points="2879.5,-6 2879.5,-25 2936.5,-25 2936.5,-6 2879.5,-6"/>
<text text-anchor="middle" x="2908" y="-13" font-family="Helvetica,sans-Serif" font-size="10.00">httplib.h</text>
</a>
</g>
</g>
<!-- Node4&#45;&gt;Node5 -->
<g id="edge4" class="edge">
<title>Node4&#45;&gt;Node5</title>
<path fill="none" stroke="midnightblue" d="M1573.8,-70.77C1588.94,-69.34 1605.64,-67.93 1621,-67 1898.16,-50.16 2597.68,-85.26 2870,-31 2873.25,-30.35 2876.6,-29.45 2879.88,-28.42"/>
<polygon fill="midnightblue" stroke="midnightblue" points="2881.18,-31.67 2889.43,-25.01 2878.83,-25.07 2881.18,-31.67"/>
</g>
<!-- Node4&#45;&gt;Node6 -->
<g id="edge5" class="edge">
<title>Node4&#45;&gt;Node6</title>
<path fill="none" stroke="midnightblue" d="M1474.5,-71.03C1457.83,-69.52 1439.13,-67.99 1422,-67 848.96,-33.76 701.14,-97.47 131,-31 122.85,-30.05 114.24,-28.62 105.95,-27.03"/>
<polygon fill="midnightblue" stroke="midnightblue" points="106.55,-23.58 96.05,-25.02 105.16,-30.44 106.55,-23.58"/>
</g>
<!-- Node7 -->
<g id="node7" class="node">
<title>Node7</title>
<g id="a_node7"><a xlink:title=" ">
<polygon fill="white" stroke="#bfbfbf" points="2817,-6 2817,-25 2861,-25 2861,-6 2817,-6"/>
<text text-anchor="middle" x="2839" y="-13" font-family="Helvetica,sans-Serif" font-size="10.00">string</text>
</a>
</g>
</g>
<!-- Node4&#45;&gt;Node7 -->
<g id="edge6" class="edge">
<title>Node4&#45;&gt;Node7</title>
<path fill="none" stroke="midnightblue" d="M1573.8,-70.78C1588.94,-69.35 1605.64,-67.94 1621,-67 1884.4,-50.8 2551.29,-92.17 2808,-31 2810.21,-30.47 2812.45,-29.78 2814.66,-28.99"/>
<polygon fill="midnightblue" stroke="midnightblue" points="2816.16,-32.15 2824,-25.02 2813.42,-25.71 2816.16,-32.15"/>
</g>
<!-- Node8 -->
<g id="node8" class="node">
<title>Node8</title>
<g id="a_node8"><a xlink:title=" ">
<polygon fill="white" stroke="#bfbfbf" points="1241,-0.5 1241,-30.5 1357,-30.5 1357,-0.5 1241,-0.5"/>
<text text-anchor="start" x="1249" y="-18.5" font-family="Helvetica,sans-Serif" font-size="10.00">../../../../../extern</text>
<text text-anchor="middle" x="1299" y="-7.5" font-family="Helvetica,sans-Serif" font-size="10.00">/cpp&#45;httplib/httplib.h</text>
</a>
</g>
</g>
<!-- Node4&#45;&gt;Node8 -->
<g id="edge7" class="edge">
<title>Node4&#45;&gt;Node8</title>
<path fill="none" stroke="midnightblue" d="M1491.76,-67.48C1458.01,-58.55 1404.16,-44.31 1361.94,-33.14"/>
<polygon fill="midnightblue" stroke="midnightblue" points="1362.59,-29.7 1352.03,-30.52 1360.8,-36.46 1362.59,-29.7"/>
</g>
<!-- Node9 -->
<g id="node9" class="node">
<title>Node9</title>
<g id="a_node9"><a xlink:title=" ">
<polygon fill="white" stroke="#bfbfbf" points="1375.5,-6 1375.5,-25 1444.5,-25 1444.5,-6 1375.5,-6"/>
<text text-anchor="middle" x="1410" y="-13" font-family="Helvetica,sans-Serif" font-size="10.00">arpa/inet.h</text>
</a>
</g>
</g>
<!-- Node4&#45;&gt;Node9 -->
<g id="edge8" class="edge">
<title>Node4&#45;&gt;Node9</title>
<path fill="none" stroke="midnightblue" d="M1507.67,-67.48C1488.79,-57.62 1457.49,-41.29 1435.42,-29.77"/>
<polygon fill="midnightblue" stroke="midnightblue" points="1436.79,-26.53 1426.3,-25.01 1433.55,-32.74 1436.79,-26.53"/>
</g>
<!-- Node10 -->
<g id="node10" class="node">
<title>Node10</title>
<g id="a_node10"><a xlink:title=" ">
<polygon fill="white" stroke="#bfbfbf" points="1463,-6 1463,-25 1513,-25 1513,-6 1463,-6"/>
<text text-anchor="middle" x="1488" y="-13" font-family="Helvetica,sans-Serif" font-size="10.00">cstring</text>
</a>
</g>
</g>
<!-- Node4&#45;&gt;Node10 -->
<g id="edge9" class="edge">
<title>Node4&#45;&gt;Node10</title>
<path fill="none" stroke="midnightblue" d="M1518.84,-67.48C1513.55,-58.73 1505.16,-44.87 1498.47,-33.81"/>
<polygon fill="midnightblue" stroke="midnightblue" points="1501.32,-31.75 1493.15,-25.01 1495.33,-35.38 1501.32,-31.75"/>
</g>
<!-- Node11 -->
<g id="node11" class="node">
<title>Node11</title>
<g id="a_node11"><a xlink:title=" ">
<polygon fill="white" stroke="#bfbfbf" points="1531.5,-6 1531.5,-25 1590.5,-25 1590.5,-6 1531.5,-6"/>
<text text-anchor="middle" x="1561" y="-13" font-family="Helvetica,sans-Serif" font-size="10.00">ifaddrs.h</text>
</a>
</g>
</g>
<!-- Node4&#45;&gt;Node11 -->
<g id="edge10" class="edge">
<title>Node4&#45;&gt;Node11</title>
<path fill="none" stroke="midnightblue" d="M1529.3,-67.48C1534.74,-58.73 1543.36,-44.87 1550.24,-33.81"/>
<polygon fill="midnightblue" stroke="midnightblue" points="1553.4,-35.35 1555.71,-25.01 1547.46,-31.65 1553.4,-35.35"/>
</g>
<!-- Node12 -->
<g id="node12" class="node">
<title>Node12</title>
<g id="a_node12"><a xlink:title=" ">
<polygon fill="white" stroke="#bfbfbf" points="1608.5,-6 1608.5,-25 1661.5,-25 1661.5,-6 1608.5,-6"/>
<text text-anchor="middle" x="1635" y="-13" font-family="Helvetica,sans-Serif" font-size="10.00">netdb.h</text>
</a>
</g>
</g>
<!-- Node4&#45;&gt;Node12 -->
<g id="edge11" class="edge">
<title>Node4&#45;&gt;Node12</title>
<path fill="none" stroke="midnightblue" d="M1539.9,-67.48C1558.28,-57.62 1588.76,-41.29 1610.24,-29.77"/>
<polygon fill="midnightblue" stroke="midnightblue" points="1611.97,-32.82 1619.13,-25.01 1608.66,-26.65 1611.97,-32.82"/>
</g>
<!-- Node13 -->
<g id="node13" class="node">
<title>Node13</title>
<g id="a_node13"><a xlink:title=" ">
<polygon fill="white" stroke="#bfbfbf" points="1680,-6 1680,-25 1752,-25 1752,-6 1680,-6"/>
<text text-anchor="middle" x="1716" y="-13" font-family="Helvetica,sans-Serif" font-size="10.00">netinet/in.h</text>
</a>
</g>
</g>
<!-- Node4&#45;&gt;Node13 -->
<g id="edge12" class="edge">
<title>Node4&#45;&gt;Node13</title>
<path fill="none" stroke="midnightblue" d="M1552.01,-67.43C1581.41,-58.41 1628.98,-43.79 1670,-31 1672.94,-30.08 1675.99,-29.13 1679.05,-28.17"/>
<polygon fill="midnightblue" stroke="midnightblue" points="1680.28,-31.45 1688.77,-25.12 1678.18,-24.78 1680.28,-31.45"/>
</g>
<!-- Node14 -->
<g id="node14" class="node">
<title>Node14</title>
<g id="a_node14"><a xlink:title=" ">
<polygon fill="white" stroke="#bfbfbf" points="1770,-6 1770,-25 1848,-25 1848,-6 1770,-6"/>
<text text-anchor="middle" x="1809" y="-13" font-family="Helvetica,sans-Serif" font-size="10.00">netinet/tcp.h</text>
</a>
</g>
</g>
<!-- Node4&#45;&gt;Node14 -->
<g id="edge13" class="edge">
<title>Node4&#45;&gt;Node14</title>
<path fill="none" stroke="midnightblue" d="M1573.81,-68.12C1621.99,-60.12 1696.94,-46.71 1761,-31 1764.84,-30.06 1768.82,-29 1772.78,-27.88"/>
<polygon fill="midnightblue" stroke="midnightblue" points="1773.86,-31.22 1782.48,-25.06 1771.9,-24.5 1773.86,-31.22"/>
</g>
<!-- Node15 -->
<g id="node15" class="node">
<title>Node15</title>
<g id="a_node15"><a xlink:title=" ">
<polygon fill="white" stroke="#bfbfbf" points="1866.5,-6 1866.5,-25 1917.5,-25 1917.5,-6 1866.5,-6"/>
<text text-anchor="middle" x="1892" y="-13" font-family="Helvetica,sans-Serif" font-size="10.00">csignal</text>
</a>
</g>
</g>
<!-- Node4&#45;&gt;Node15 -->
<g id="edge14" class="edge">
<title>Node4&#45;&gt;Node15</title>
<path fill="none" stroke="midnightblue" d="M1573.61,-68.99C1578.47,-68.31 1583.33,-67.64 1588,-67 1707.5,-50.6 1740.52,-62.35 1857,-31 1859.45,-30.34 1861.95,-29.55 1864.43,-28.69"/>
<polygon fill="midnightblue" stroke="midnightblue" points="1865.71,-31.95 1873.78,-25.09 1863.19,-25.42 1865.71,-31.95"/>
</g>
<!-- Node16 -->
<g id="node16" class="node">
<title>Node16</title>
<g id="a_node16"><a xlink:title=" ">
<polygon fill="white" stroke="#bfbfbf" points="1935.5,-6 1935.5,-25 1998.5,-25 1998.5,-6 1935.5,-6"/>
<text text-anchor="middle" x="1967" y="-13" font-family="Helvetica,sans-Serif" font-size="10.00">pthread.h</text>
</a>
</g>
</g>
<!-- Node4&#45;&gt;Node16 -->
<g id="edge15" class="edge">
<title>Node4&#45;&gt;Node16</title>
<path fill="none" stroke="midnightblue" d="M1573.59,-68.86C1578.46,-68.21 1583.32,-67.58 1588,-67 1737.93,-48.48 1778.67,-64.41 1926,-31 1929.24,-30.27 1932.58,-29.35 1935.88,-28.35"/>
<polygon fill="midnightblue" stroke="midnightblue" points="1937.18,-31.61 1945.57,-25.14 1934.98,-24.96 1937.18,-31.61"/>
</g>
<!-- Node17 -->
<g id="node17" class="node">
<title>Node17</title>
<g id="a_node17"><a xlink:title=" ">
<polygon fill="white" stroke="#bfbfbf" points="2017,-6 2017,-25 2091,-25 2091,-6 2017,-6"/>
<text text-anchor="middle" x="2054" y="-13" font-family="Helvetica,sans-Serif" font-size="10.00">sys/select.h</text>
</a>
</g>
</g>
<!-- Node4&#45;&gt;Node17 -->
<g id="edge16" class="edge">
<title>Node4&#45;&gt;Node17</title>
<path fill="none" stroke="midnightblue" d="M1573.58,-68.76C1578.45,-68.13 1583.32,-67.53 1588,-67 1773.72,-45.98 1823.54,-66.75 2007,-31 2011.24,-30.17 2015.65,-29.11 2019.98,-27.93"/>
<polygon fill="midnightblue" stroke="midnightblue" points="2021.25,-31.2 2029.86,-25.03 2019.28,-24.49 2021.25,-31.2"/>
</g>
<!-- Node18 -->
<g id="node18" class="node">
<title>Node18</title>
<g id="a_node18"><a xlink:title=" ">
<polygon fill="white" stroke="#bfbfbf" points="2109.5,-6 2109.5,-25 2186.5,-25 2186.5,-6 2109.5,-6"/>
<text text-anchor="middle" x="2148" y="-13" font-family="Helvetica,sans-Serif" font-size="10.00">sys/socket.h</text>
</a>
</g>
</g>
<!-- Node4&#45;&gt;Node18 -->
<g id="edge17" class="edge">
<title>Node4&#45;&gt;Node18</title>
<path fill="none" stroke="midnightblue" d="M1573.57,-68.68C1578.44,-68.07 1583.31,-67.49 1588,-67 1814.86,-43.1 1875.64,-72.24 2100,-31 2104.45,-30.18 2109.08,-29.1 2113.63,-27.89"/>
<polygon fill="midnightblue" stroke="midnightblue" points="2114.7,-31.22 2123.35,-25.1 2112.77,-24.49 2114.7,-31.22"/>
</g>
<!-- Node19 -->
<g id="node19" class="node">
<title>Node19</title>
<g id="a_node19"><a xlink:title=" ">
<polygon fill="white" stroke="#bfbfbf" points="2205,-6 2205,-25 2261,-25 2261,-6 2205,-6"/>
<text text-anchor="middle" x="2233" y="-13" font-family="Helvetica,sans-Serif" font-size="10.00">unistd.h</text>
</a>
</g>
</g>
<!-- Node4&#45;&gt;Node19 -->
<g id="edge18" class="edge">
<title>Node4&#45;&gt;Node19</title>
<path fill="none" stroke="midnightblue" d="M1573.57,-68.63C1578.44,-68.02 1583.31,-67.47 1588,-67 1856.92,-40.16 1930.79,-87.83 2195,-31 2198.08,-30.34 2201.23,-29.47 2204.35,-28.48"/>
<polygon fill="midnightblue" stroke="midnightblue" points="2205.76,-31.69 2214.02,-25.05 2203.42,-25.1 2205.76,-31.69"/>
</g>
<!-- Node4&#45;&gt;Node20 -->
<g id="edge19" class="edge">
<title>Node4&#45;&gt;Node20</title>
<path fill="none" stroke="midnightblue" d="M1474.45,-68.48C1469.57,-67.91 1464.7,-67.4 1460,-67 1183.76,-43.66 485.53,-81.83 213,-31 209.29,-30.31 205.47,-29.34 201.72,-28.22"/>
<polygon fill="midnightblue" stroke="midnightblue" points="202.69,-24.85 192.09,-25.01 200.47,-31.49 202.69,-24.85"/>
</g>
<!-- Node21 -->
<g id="node21" class="node">
<title>Node21</title>
<g id="a_node21"><a xlink:title=" ">
<polygon fill="white" stroke="#bfbfbf" points="2279,-6 2279,-25 2321,-25 2321,-6 2279,-6"/>
<text text-anchor="middle" x="2300" y="-13" font-family="Helvetica,sans-Serif" font-size="10.00">array</text>
</a>
</g>
</g>
<!-- Node4&#45;&gt;Node21 -->
<g id="edge20" class="edge">
<title>Node4&#45;&gt;Node21</title>
<path fill="none" stroke="midnightblue" d="M1573.56,-68.6C1578.43,-68 1583.31,-67.45 1588,-67 1739.06,-52.42 2123.01,-68.77 2270,-31 2271.93,-30.5 2273.89,-29.88 2275.83,-29.17"/>
<polygon fill="midnightblue" stroke="midnightblue" points="2277.41,-32.29 2285.19,-25.1 2274.62,-25.88 2277.41,-32.29"/>
</g>
<!-- Node22 -->
<g id="node22" class="node">
<title>Node22</title>
<g id="a_node22"><a xlink:title=" ">
<polygon fill="white" stroke="#bfbfbf" points="2339,-6 2339,-25 2389,-25 2389,-6 2339,-6"/>
<text text-anchor="middle" x="2364" y="-13" font-family="Helvetica,sans-Serif" font-size="10.00">atomic</text>
</a>
</g>
</g>
<!-- Node4&#45;&gt;Node22 -->
<g id="edge21" class="edge">
<title>Node4&#45;&gt;Node22</title>
<path fill="none" stroke="midnightblue" d="M1573.56,-68.58C1578.43,-67.98 1583.31,-67.44 1588,-67 1916.71,-35.98 2008.22,-104.92 2330,-31 2332.52,-30.42 2335.08,-29.67 2337.62,-28.81"/>
<polygon fill="midnightblue" stroke="midnightblue" points="2339.06,-32 2347.1,-25.1 2336.51,-25.48 2339.06,-32"/>
</g>
<!-- Node23 -->
<g id="node23" class="node">
<title>Node23</title>
<g id="a_node23"><a xlink:title=" ">
<polygon fill="white" stroke="#bfbfbf" points="2407,-6 2407,-25 2459,-25 2459,-6 2407,-6"/>
<text text-anchor="middle" x="2433" y="-13" font-family="Helvetica,sans-Serif" font-size="10.00">cassert</text>
</a>
</g>
</g>
<!-- Node4&#45;&gt;Node23 -->
<g id="edge22" class="edge">
<title>Node4&#45;&gt;Node23</title>
<path fill="none" stroke="midnightblue" d="M1573.56,-68.56C1578.43,-67.97 1583.31,-67.43 1588,-67 1767.41,-50.44 2222.11,-70.07 2398,-31 2400.68,-30.41 2403.41,-29.62 2406.11,-28.72"/>
<polygon fill="midnightblue" stroke="midnightblue" points="2407.49,-31.94 2415.58,-25.11 2404.99,-25.4 2407.49,-31.94"/>
</g>
<!-- Node24 -->
<g id="node24" class="node">
<title>Node24</title>
<g id="a_node24"><a xlink:title=" ">
<polygon fill="white" stroke="#bfbfbf" points="2477.5,-6 2477.5,-25 2526.5,-25 2526.5,-6 2477.5,-6"/>
<text text-anchor="middle" x="2502" y="-13" font-family="Helvetica,sans-Serif" font-size="10.00">cctype</text>
</a>
</g>
</g>
<!-- Node4&#45;&gt;Node24 -->
<g id="edge23" class="edge">
<title>Node4&#45;&gt;Node24</title>
<path fill="none" stroke="midnightblue" d="M1573.56,-68.54C1578.43,-67.95 1583.31,-67.42 1588,-67 1782.92,-49.35 2277.08,-74.09 2468,-31 2470.52,-30.43 2473.09,-29.68 2475.63,-28.83"/>
<polygon fill="midnightblue" stroke="midnightblue" points="2477.06,-32.02 2485.11,-25.13 2474.52,-25.5 2477.06,-32.02"/>
</g>
<!-- Node25 -->
<g id="node25" class="node">
<title>Node25</title>
<g id="a_node25"><a xlink:title=" ">
<polygon fill="white" stroke="#bfbfbf" points="2545,-6 2545,-25 2595,-25 2595,-6 2545,-6"/>
<text text-anchor="middle" x="2570" y="-13" font-family="Helvetica,sans-Serif" font-size="10.00">climits</text>
</a>
</g>
</g>
<!-- Node4&#45;&gt;Node25 -->
<g id="edge24" class="edge">
<title>Node4&#45;&gt;Node25</title>
<path fill="none" stroke="midnightblue" d="M1573.56,-68.52C1578.43,-67.94 1583.31,-67.42 1588,-67 1797.99,-48.3 2330.29,-77.12 2536,-31 2538.52,-30.43 2541.09,-29.69 2543.63,-28.83"/>
<polygon fill="midnightblue" stroke="midnightblue" points="2545.06,-32.03 2553.11,-25.14 2542.52,-25.51 2545.06,-32.03"/>
</g>
<!-- Node26 -->
<g id="node26" class="node">
<title>Node26</title>
<g id="a_node26"><a xlink:title=" ">
<polygon fill="white" stroke="#bfbfbf" points="2613.5,-6 2613.5,-25 2720.5,-25 2720.5,-6 2613.5,-6"/>
<text text-anchor="middle" x="2667" y="-13" font-family="Helvetica,sans-Serif" font-size="10.00">condition_variable</text>
</a>
</g>
</g>
<!-- Node4&#45;&gt;Node26 -->
<g id="edge25" class="edge">
<title>Node4&#45;&gt;Node26</title>
<path fill="none" stroke="midnightblue" d="M1573.56,-68.51C1578.43,-67.93 1583.31,-67.41 1588,-67 2038.11,-27.49 2156.02,-89.94 2604,-31 2610.88,-30.1 2618.11,-28.78 2625.12,-27.31"/>
<polygon fill="midnightblue" stroke="midnightblue" points="2626.17,-30.66 2635.17,-25.07 2624.64,-23.83 2626.17,-30.66"/>
</g>
<!-- Node27 -->
<g id="node27" class="node">
<title>Node27</title>
<g id="a_node27"><a xlink:title=" ">
<polygon fill="white" stroke="#bfbfbf" points="222.5,-6 222.5,-25 273.5,-25 273.5,-6 222.5,-6"/>
<text text-anchor="middle" x="248" y="-13" font-family="Helvetica,sans-Serif" font-size="10.00">errno.h</text>
</a>
</g>
</g>
<!-- Node4&#45;&gt;Node27 -->
<g id="edge26" class="edge">
<title>Node4&#45;&gt;Node27</title>
<path fill="none" stroke="midnightblue" d="M1474.45,-68.49C1469.57,-67.91 1464.7,-67.4 1460,-67 1199.05,-44.73 537.77,-87.34 282,-31 279.33,-30.41 276.61,-29.62 273.92,-28.7"/>
<polygon fill="midnightblue" stroke="midnightblue" points="275.12,-25.41 264.54,-25.01 272.56,-31.93 275.12,-25.41"/>
</g>
<!-- Node28 -->
<g id="node28" class="node">
<title>Node28</title>
<g id="a_node28"><a xlink:title=" ">
<polygon fill="white" stroke="#bfbfbf" points="291.5,-6 291.5,-25 338.5,-25 338.5,-6 291.5,-6"/>
<text text-anchor="middle" x="315" y="-13" font-family="Helvetica,sans-Serif" font-size="10.00">fcntl.h</text>
</a>
</g>
</g>
<!-- Node4&#45;&gt;Node28 -->
<g id="edge27" class="edge">
<title>Node4&#45;&gt;Node28</title>
<path fill="none" stroke="midnightblue" d="M1474.45,-68.5C1469.57,-67.92 1464.7,-67.4 1460,-67 1213.45,-45.74 588.01,-87.15 347,-31 344.64,-30.45 342.25,-29.72 339.89,-28.89"/>
<polygon fill="midnightblue" stroke="midnightblue" points="341.1,-25.6 330.52,-25.01 338.42,-32.07 341.1,-25.6"/>
</g>
<!-- Node29 -->
<g id="node29" class="node">
<title>Node29</title>
<g id="a_node29"><a xlink:title=" ">
<polygon fill="white" stroke="#bfbfbf" points="356.5,-6 356.5,-25 411.5,-25 411.5,-6 356.5,-6"/>
<text text-anchor="middle" x="384" y="-13" font-family="Helvetica,sans-Serif" font-size="10.00">fstream</text>
</a>
</g>
</g>
<!-- Node4&#45;&gt;Node29 -->
<g id="edge28" class="edge">
<title>Node4&#45;&gt;Node29</title>
<path fill="none" stroke="midnightblue" d="M1474.44,-68.51C1469.57,-67.93 1464.69,-67.41 1460,-67 1229.63,-46.87 646.23,-78.92 420,-31 417.16,-30.4 414.25,-29.59 411.38,-28.66"/>
<polygon fill="midnightblue" stroke="midnightblue" points="412.52,-25.34 401.93,-25.15 410.08,-31.91 412.52,-25.34"/>
</g>
<!-- Node30 -->
<g id="node30" class="node">
<title>Node30</title>
<g id="a_node30"><a xlink:title=" ">
<polygon fill="white" stroke="#bfbfbf" points="429.5,-6 429.5,-25 494.5,-25 494.5,-6 429.5,-6"/>
<text text-anchor="middle" x="462" y="-13" font-family="Helvetica,sans-Serif" font-size="10.00">functional</text>
</a>
</g>
</g>
<!-- Node4&#45;&gt;Node30 -->
<g id="edge29" class="edge">
<title>Node4&#45;&gt;Node30</title>
<path fill="none" stroke="midnightblue" d="M1474.44,-68.52C1469.57,-67.94 1464.69,-67.42 1460,-67 1036.48,-29.35 921.93,-109.23 504,-31 500.29,-30.31 496.47,-29.35 492.71,-28.25"/>
<polygon fill="midnightblue" stroke="midnightblue" points="493.63,-24.87 483.04,-25.12 491.47,-31.53 493.63,-24.87"/>
</g>
<!-- Node31 -->
<g id="node31" class="node">
<title>Node31</title>
<g id="a_node31"><a xlink:title=" ">
<polygon fill="white" stroke="#bfbfbf" points="513,-6 513,-25 569,-25 569,-6 513,-6"/>
<text text-anchor="middle" x="541" y="-13" font-family="Helvetica,sans-Serif" font-size="10.00">iomanip</text>
</a>
</g>
</g>
<!-- Node4&#45;&gt;Node31 -->
<g id="edge30" class="edge">
<title>Node4&#45;&gt;Node31</title>
<path fill="none" stroke="midnightblue" d="M1474.44,-68.54C1469.57,-67.95 1464.69,-67.42 1460,-67 1264.64,-49.32 769.97,-71.34 578,-31 574.99,-30.37 571.91,-29.52 568.87,-28.54"/>
<polygon fill="midnightblue" stroke="midnightblue" points="570.05,-25.24 559.45,-25.12 567.66,-31.82 570.05,-25.24"/>
</g>
<!-- Node4&#45;&gt;Node32 -->
<g id="edge31" class="edge">
<title>Node4&#45;&gt;Node32</title>
<path fill="none" stroke="midnightblue" d="M1573.55,-68.49C1578.43,-67.92 1583.3,-67.4 1588,-67 1840.97,-45.29 2480.85,-79.88 2730,-31 2733.44,-30.33 2736.97,-29.39 2740.44,-28.31"/>
<polygon fill="midnightblue" stroke="midnightblue" points="2741.63,-31.6 2749.92,-25 2739.32,-24.99 2741.63,-31.6"/>
</g>
<!-- Node33 -->
<g id="node33" class="node">
<title>Node33</title>
<g id="a_node33"><a xlink:title=" ">
<polygon fill="white" stroke="#bfbfbf" points="587,-6 587,-25 619,-25 619,-6 587,-6"/>
<text text-anchor="middle" x="603" y="-13" font-family="Helvetica,sans-Serif" font-size="10.00">list</text>
</a>
</g>
</g>
<!-- Node4&#45;&gt;Node33 -->
<g id="edge32" class="edge">
<title>Node4&#45;&gt;Node33</title>
<path fill="none" stroke="midnightblue" d="M1474.44,-68.55C1469.57,-67.96 1464.69,-67.43 1460,-67 1275.71,-50.09 805.63,-82.93 628,-31 626.75,-30.64 625.5,-30.2 624.26,-29.7"/>
<polygon fill="midnightblue" stroke="midnightblue" points="625.69,-26.5 615.18,-25.13 622.54,-32.75 625.69,-26.5"/>
</g>
<!-- Node34 -->
<g id="node34" class="node">
<title>Node34</title>
<g id="a_node34"><a xlink:title=" ">
<polygon fill="white" stroke="#bfbfbf" points="637,-6 637,-25 675,-25 675,-6 637,-6"/>
<text text-anchor="middle" x="656" y="-13" font-family="Helvetica,sans-Serif" font-size="10.00">map</text>
</a>
</g>
</g>
<!-- Node4&#45;&gt;Node34 -->
<g id="edge33" class="edge">
<title>Node4&#45;&gt;Node34</title>
<path fill="none" stroke="midnightblue" d="M1474.44,-68.57C1469.57,-67.97 1464.69,-67.44 1460,-67 1288.12,-50.96 850.73,-75.73 684,-31 682.33,-30.55 680.64,-29.99 678.97,-29.36"/>
<polygon fill="midnightblue" stroke="midnightblue" points="680.31,-26.12 669.76,-25.12 677.38,-32.48 680.31,-26.12"/>
</g>
<!-- Node35 -->
<g id="node35" class="node">
<title>Node35</title>
<g id="a_node35"><a xlink:title=" ">
<polygon fill="white" stroke="#bfbfbf" points="693,-6 693,-25 751,-25 751,-6 693,-6"/>
<text text-anchor="middle" x="722" y="-13" font-family="Helvetica,sans-Serif" font-size="10.00">memory</text>
</a>
</g>
</g>
<!-- Node4&#45;&gt;Node35 -->
<g id="edge34" class="edge">
<title>Node4&#45;&gt;Node35</title>
<path fill="none" stroke="midnightblue" d="M1474.44,-68.59C1469.57,-67.99 1464.69,-67.45 1460,-67 1149.9,-37.28 1064.81,-95.32 760,-31 756.92,-30.35 753.76,-29.49 750.65,-28.51"/>
<polygon fill="midnightblue" stroke="midnightblue" points="751.57,-25.12 740.98,-25.08 749.23,-31.72 751.57,-25.12"/>
</g>
<!-- Node36 -->
<g id="node36" class="node">
<title>Node36</title>
<g id="a_node36"><a xlink:title=" ">
<polygon fill="white" stroke="#bfbfbf" points="769,-6 769,-25 817,-25 817,-6 769,-6"/>
<text text-anchor="middle" x="793" y="-13" font-family="Helvetica,sans-Serif" font-size="10.00">mutex</text>
</a>
</g>
</g>
<!-- Node4&#45;&gt;Node36 -->
<g id="edge35" class="edge">
<title>Node4&#45;&gt;Node36</title>
<path fill="none" stroke="midnightblue" d="M1474.43,-68.62C1469.56,-68.01 1464.69,-67.46 1460,-67 1179.13,-39.33 1100.45,-96.81 826,-31 823.64,-30.43 821.23,-29.71 818.85,-28.88"/>
<polygon fill="midnightblue" stroke="midnightblue" points="819.97,-25.55 809.38,-25.08 817.36,-32.05 819.97,-25.55"/>
</g>
<!-- Node37 -->
<g id="node37" class="node">
<title>Node37</title>
<g id="a_node37"><a xlink:title=" ">
<polygon fill="white" stroke="#bfbfbf" points="835,-6 835,-25 889,-25 889,-6 835,-6"/>
<text text-anchor="middle" x="862" y="-13" font-family="Helvetica,sans-Serif" font-size="10.00">random</text>
</a>
</g>
</g>
<!-- Node4&#45;&gt;Node37 -->
<g id="edge36" class="edge">
<title>Node4&#45;&gt;Node37</title>
<path fill="none" stroke="midnightblue" d="M1474.43,-68.65C1469.56,-68.04 1464.69,-67.48 1460,-67 1211.01,-41.55 1142.07,-86.46 898,-31 895.17,-30.36 892.27,-29.52 889.4,-28.57"/>
<polygon fill="midnightblue" stroke="midnightblue" points="890.54,-25.26 879.95,-25.04 888.09,-31.82 890.54,-25.26"/>
</g>
<!-- Node38 -->
<g id="node38" class="node">
<title>Node38</title>
<g id="a_node38"><a xlink:title=" ">
<polygon fill="white" stroke="#bfbfbf" points="907,-6 907,-25 951,-25 951,-6 907,-6"/>
<text text-anchor="middle" x="929" y="-13" font-family="Helvetica,sans-Serif" font-size="10.00">regex</text>
</a>
</g>
</g>
<!-- Node4&#45;&gt;Node38 -->
<g id="edge37" class="edge">
<title>Node4&#45;&gt;Node38</title>
<path fill="none" stroke="midnightblue" d="M1474.43,-68.69C1469.56,-68.07 1464.69,-67.5 1460,-67 1238.45,-43.47 1175.61,-87.13 960,-31 958.02,-30.48 956,-29.84 954.01,-29.12"/>
<polygon fill="midnightblue" stroke="midnightblue" points="954.93,-25.71 944.35,-25.03 952.2,-32.16 954.93,-25.71"/>
</g>
<!-- Node39 -->
<g id="node39" class="node">
<title>Node39</title>
<g id="a_node39"><a xlink:title=" ">
<polygon fill="white" stroke="#bfbfbf" points="969,-6 969,-25 1001,-25 1001,-6 969,-6"/>
<text text-anchor="middle" x="985" y="-13" font-family="Helvetica,sans-Serif" font-size="10.00">set</text>
</a>
</g>
</g>
<!-- Node4&#45;&gt;Node39 -->
<g id="edge38" class="edge">
<title>Node4&#45;&gt;Node39</title>
<path fill="none" stroke="midnightblue" d="M1474.42,-68.73C1469.55,-68.11 1464.68,-67.52 1460,-67 1260.57,-45.02 1201.52,-90.81 1010,-31 1008.76,-30.61 1007.52,-30.16 1006.28,-29.65"/>
<polygon fill="midnightblue" stroke="midnightblue" points="1007.71,-26.45 997.21,-25.03 1004.54,-32.69 1007.71,-26.45"/>
</g>
<!-- Node40 -->
<g id="node40" class="node">
<title>Node40</title>
<g id="a_node40"><a xlink:title=" ">
<polygon fill="white" stroke="#bfbfbf" points="1019,-6 1019,-25 1075,-25 1075,-6 1019,-6"/>
<text text-anchor="middle" x="1047" y="-13" font-family="Helvetica,sans-Serif" font-size="10.00">sstream</text>
</a>
</g>
</g>
<!-- Node4&#45;&gt;Node40 -->
<g id="edge39" class="edge">
<title>Node4&#45;&gt;Node40</title>
<path fill="none" stroke="midnightblue" d="M1474.41,-68.81C1469.55,-68.17 1464.68,-67.55 1460,-67 1293.28,-47.31 1247.28,-70 1084,-31 1081.17,-30.32 1078.27,-29.48 1075.39,-28.53"/>
<polygon fill="midnightblue" stroke="midnightblue" points="1076.47,-25.2 1065.88,-25.06 1074.07,-31.78 1076.47,-25.2"/>
</g>
<!-- Node41 -->
<g id="node41" class="node">
<title>Node41</title>
<g id="a_node41"><a xlink:title=" ">
<polygon fill="white" stroke="#bfbfbf" points="1093,-6 1093,-25 1157,-25 1157,-6 1093,-6"/>
<text text-anchor="middle" x="1125" y="-13" font-family="Helvetica,sans-Serif" font-size="10.00">sys/stat.h</text>
</a>
</g>
</g>
<!-- Node4&#45;&gt;Node41 -->
<g id="edge40" class="edge">
<title>Node4&#45;&gt;Node41</title>
<path fill="none" stroke="midnightblue" d="M1474.4,-68.94C1469.53,-68.27 1464.67,-67.61 1460,-67 1329.48,-49.83 1294.15,-61.13 1166,-31 1162.77,-30.24 1159.43,-29.31 1156.13,-28.3"/>
<polygon fill="midnightblue" stroke="midnightblue" points="1157.03,-24.91 1146.44,-25.07 1154.82,-31.55 1157.03,-24.91"/>
</g>
<!-- Node42 -->
<g id="node42" class="node">
<title>Node42</title>
<g id="a_node42"><a xlink:title=" ">
<polygon fill="white" stroke="#bfbfbf" points="1175,-6 1175,-25 1223,-25 1223,-6 1175,-6"/>
<text text-anchor="middle" x="1199" y="-13" font-family="Helvetica,sans-Serif" font-size="10.00">thread</text>
</a>
</g>
</g>
<!-- Node4&#45;&gt;Node42 -->
<g id="edge41" class="edge">
<title>Node4&#45;&gt;Node42</title>
<path fill="none" stroke="midnightblue" d="M1474.31,-68.69C1394.01,-56.82 1243.51,-34.35 1232,-31 1229.85,-30.37 1227.66,-29.64 1225.48,-28.84"/>
<polygon fill="midnightblue" stroke="midnightblue" points="1226.73,-25.57 1216.15,-25.05 1224.1,-32.06 1226.73,-25.57"/>
</g>
<!-- Node48 -->
<g id="node48" class="node">
<title>Node48</title>
<g id="a_node48"><a xlink:title=" ">
<polygon fill="white" stroke="#bfbfbf" points="2958,-6 2958,-25 3064,-25 3064,-6 2958,-6"/>
<text text-anchor="middle" x="3011" y="-13" font-family="Helvetica,sans-Serif" font-size="10.00">ncursesw/curses.h</text>
</a>
</g>
</g>
<!-- Node47&#45;&gt;Node48 -->
<g id="edge50" class="edge">
<title>Node47&#45;&gt;Node48</title>
<path fill="none" stroke="midnightblue" d="M3011,-67.48C3011,-59.08 3011,-45.98 3011,-35.16"/>
<polygon fill="midnightblue" stroke="midnightblue" points="3014.5,-35.01 3011,-25.01 3007.5,-35.01 3014.5,-35.01"/>
</g>
<!-- Node50&#45;&gt;Node5 -->
<g id="edge52" class="edge">
<title>Node50&#45;&gt;Node5</title>
<path fill="none" stroke="midnightblue" d="M2806.91,-67.48C2826.53,-57.58 2859.13,-41.14 2881.99,-29.62"/>
<polygon fill="midnightblue" stroke="midnightblue" points="2883.77,-32.64 2891.12,-25.01 2880.62,-26.39 2883.77,-32.64"/>
</g>
<!-- Node50&#45;&gt;Node7 -->
<g id="edge53" class="edge">
<title>Node50&#45;&gt;Node7</title>
<path fill="none" stroke="midnightblue" d="M2797.02,-67.48C2804.44,-58.46 2816.33,-44.02 2825.57,-32.81"/>
<polygon fill="midnightblue" stroke="midnightblue" points="2828.34,-34.95 2831.99,-25.01 2822.93,-30.5 2828.34,-34.95"/>
</g>
<!-- Node51&#45;&gt;Node5 -->
<g id="edge55" class="edge">
<title>Node51&#45;&gt;Node5</title>
<path fill="none" stroke="midnightblue" d="M2904.57,-67.48C2905.14,-59.08 2906.02,-45.98 2906.75,-35.16"/>
<polygon fill="midnightblue" stroke="midnightblue" points="2910.25,-35.22 2907.43,-25.01 2903.26,-34.75 2910.25,-35.22"/>
</g>
</g>
</svg>
        <g id="navigator" transform="translate(0 0)" fill="#404254">
                <rect fill="#f2f5e9" fill-opacity="0.5" stroke="#606060" stroke-width=".5" x="0" y="0" width="60" height="60"/>
                <use id="zoomplus" xlink:href="#zoomPlus" x="17" y="9" onmousedown="handleZoom(evt,'in')"/>
                <use id="zoomminus" xlink:href="#zoomMin" x="42" y="9" onmousedown="handleZoom(evt,'out')"/>
                <use id="reset" xlink:href="#resetDef" x="30" y="36" onmousedown="handleReset()"/>
                <g id="arrowUp" xlink:href="#dirArrow" transform="translate(30 24)" onmousedown="handlePan(0,-1)">
                  <use xlink:href="#rim" fill="#404040">
                        <set attributeName="fill" to="#808080" begin="arrowUp.mouseover" end="arrowUp.mouseout"/>
                  </use>
                  <path fill="none" stroke="white" stroke-width="1.5" d="M0,-3.0v7 M-2.5,-0.5L0,-3.0L2.5,-0.5"/>
                </g>
                <g id="arrowRight" xlink:href="#dirArrow" transform="rotate(90) translate(36 -43)" onmousedown="handlePan(1,0)">
                  <use xlink:href="#rim" fill="#404040">
                        <set attributeName="fill" to="#808080" begin="arrowRight.mouseover" end="arrowRight.mouseout"/>
                  </use>
                  <path fill="none" stroke="white" stroke-width="1.5" d="M0,-3.0v7 M-2.5,-0.5L0,-3.0L2.5,-0.5"/>
                </g>
                <g id="arrowDown" xlink:href="#dirArrow" transform="rotate(180) translate(-30 -48)" onmousedown="handlePan(0,1)">
                  <use xlink:href="#rim" fill="#404040">
                        <set attributeName="fill" to="#808080" begin="arrowDown.mouseover" end="arrowDown.mouseout"/>
                  </use>
                  <path fill="none" stroke="white" stroke-width="1.5" d="M0,-3.0v7 M-2.5,-0.5L0,-3.0L2.5,-0.5"/>
                </g>
                <g id="arrowLeft" xlink:href="#dirArrow" transform="rotate(270) translate(-36 17)" onmousedown="handlePan(-1,0)">
                  <use xlink:href="#rim" fill="#404040">
                        <set attributeName="fill" to="#808080" begin="arrowLeft.mouseover" end="arrowLeft.mouseout"/>
                  </use>
                  <path fill="none" stroke="white" stroke-width="1.5" d="M0,-3.0v7 M-2.5,-0.5L0,-3.0L2.5,-0.5"/>
                </g>
        </g>
        <svg viewBox="0 0 15 15" width="100%" height="30px" preserveAspectRatio="xMaxYMin meet">
         <g id="arrow_out" transform="scale(0.3 0.3)">
          <a xlink:href="JodaClient_8cpp__incl_org.svg" target="_base">
           <rect id="button" ry="5" rx="5" y="6" x="6" height="38" width="38"
                fill="#f2f5e9" fill-opacity="0.5" stroke="#606060" stroke-width="1.0"/>
           <path id="arrow"
             d="M 11.500037,31.436501 C 11.940474,20.09759 22.043105,11.32322 32.158766,21.979434 L 37.068811,17.246167 C 37.068811,17.246167 37.088388,32 37.088388,32 L 22.160133,31.978069 C 22.160133,31.978069 26.997745,27.140456 26.997745,27.140456 C 18.528582,18.264221 13.291696,25.230495 11.500037,31.436501 z"
             style="fill:#404040;"/>
          </a>
         </g>
        </svg>
</svg>
