<?xml version="1.0" encoding="UTF-8" standalone="no"?>
<!DOCTYPE svg PUBLIC "-//W3C//DTD SVG 1.1//EN"
 "http://www.w3.org/Graphics/SVG/1.1/DTD/svg11.dtd">
<!-- Generated by graphviz version 2.43.0 (0)
 -->
<!-- Title: /home/nico/joda_tmp/tmp&#45;joda&#45;dirs/JODA&#45;gh/libs/joda/core/modules/query/aggregate/include/joda/query/aggregation Pages: 1 -->
<svg width="171pt" height="223pt"
 viewBox="0.00 0.00 171.00 223.00" xmlns="http://www.w3.org/2000/svg" xmlns:xlink="http://www.w3.org/1999/xlink">
<g id="graph0" class="graph" transform="scale(1 1) rotate(0) translate(4 219)">
<title>/home/nico/joda_tmp/tmp&#45;joda&#45;dirs/JODA&#45;gh/libs/joda/core/modules/query/aggregate/include/joda/query/aggregation</title>
<polygon fill="white" stroke="transparent" points="-4,4 -4,-219 167,-219 167,4 -4,4"/>
<g id="clust1" class="cluster">
<title>clusterdir_a7026392189c432a149bc5c104039751</title>
<g id="a_clust1"><a xlink:href="dir_a7026392189c432a149bc5c104039751.html" target="_top" xlink:title="query">
<polygon fill="#ddddee" stroke="black" points="8,-136 8,-207 98,-207 98,-136 8,-136"/>
<text text-anchor="middle" x="53" y="-195" font-family="Helvetica,sans-Serif" font-size="10.00">query</text>
</a>
</g>
</g>
<!-- dir_a03bc534a5ad05be14091037270a550c -->
<g id="node1" class="node">
<title>dir_a03bc534a5ad05be14091037270a550c</title>
<g id="a_node1"><a xlink:href="dir_a03bc534a5ad05be14091037270a550c.html" target="_top" xlink:title="aggregation">
<polygon fill="#eeeeff" stroke="black" points="90.5,-180 15.5,-180 15.5,-144 90.5,-144 90.5,-180"/>
<text text-anchor="middle" x="53" y="-159.5" font-family="Helvetica,sans-Serif" font-size="10.00">aggregation</text>
</a>
</g>
</g>
<!-- dir_686a2d3b8380929f3bfddf3b00ff951b -->
<g id="node2" class="node">
<title>dir_686a2d3b8380929f3bfddf3b00ff951b</title>
<g id="a_node2"><a xlink:href="dir_686a2d3b8380929f3bfddf3b00ff951b.html" target="_top" xlink:title="misc">
<polygon fill="white" stroke="red" points="88,-36 34,-36 34,0 88,0 88,-36"/>
<text text-anchor="middle" x="61" y="-15.5" font-family="Helvetica,sans-Serif" font-size="10.00">misc</text>
</a>
</g>
</g>
<!-- dir_a03bc534a5ad05be14091037270a550c&#45;&gt;dir_686a2d3b8380929f3bfddf3b00ff951b -->
<g id="edge1" class="edge">
<title>dir_a03bc534a5ad05be14091037270a550c&#45;&gt;dir_686a2d3b8380929f3bfddf3b00ff951b</title>
<path fill="none" stroke="black" d="M31.73,-143.7C21.89,-134.31 11.24,-121.8 6,-108 0.32,-93.04 -0.26,-86.72 6,-72 10.73,-60.86 19.08,-50.93 27.87,-42.76"/>
<polygon fill="black" stroke="black" points="30.35,-45.24 35.62,-36.05 25.77,-39.95 30.35,-45.24"/>
<g id="a_edge1&#45;headlabel"><a xlink:href="dir_000075_000049.html" target="_top" xlink:title="2">
<text text-anchor="middle" x="29.49" y="-47.24" font-family="Helvetica,sans-Serif" font-size="10.00">2</text>
</a>
</g>
</g>
<!-- dir_749af01c4b44bc0c6a4f35b0ce4584fa -->
<g id="node3" class="node">
<title>dir_749af01c4b44bc0c6a4f35b0ce4584fa</title>
<g id="a_node3"><a xlink:href="dir_749af01c4b44bc0c6a4f35b0ce4584fa.html" target="_top" xlink:title="concurrency">
<polygon fill="white" stroke="red" points="91,-108 15,-108 15,-72 91,-72 91,-108"/>
<text text-anchor="middle" x="53" y="-87.5" font-family="Helvetica,sans-Serif" font-size="10.00">concurrency</text>
</a>
</g>
</g>
<!-- dir_a03bc534a5ad05be14091037270a550c&#45;&gt;dir_749af01c4b44bc0c6a4f35b0ce4584fa -->
<g id="edge2" class="edge">
<title>dir_a03bc534a5ad05be14091037270a550c&#45;&gt;dir_749af01c4b44bc0c6a4f35b0ce4584fa</title>
<path fill="none" stroke="black" d="M53,-143.7C53,-135.98 53,-126.71 53,-118.11"/>
<polygon fill="black" stroke="black" points="56.5,-118.1 53,-108.1 49.5,-118.1 56.5,-118.1"/>
<g id="a_edge2&#45;headlabel"><a xlink:href="dir_000075_000018.html" target="_top" xlink:title="1">
<text text-anchor="middle" x="59.34" y="-119.2" font-family="Helvetica,sans-Serif" font-size="10.00">1</text>
</a>
</g>
</g>
<!-- dir_7fab4c9f6ff98d8e5daf9dd22a287031 -->
<g id="node4" class="node">
<title>dir_7fab4c9f6ff98d8e5daf9dd22a287031</title>
<g id="a_node4"><a xlink:href="dir_7fab4c9f6ff98d8e5daf9dd22a287031.html" target="_top" xlink:title="values">
<polygon fill="white" stroke="red" points="163,-108 109,-108 109,-72 163,-72 163,-108"/>
<text text-anchor="middle" x="136" y="-87.5" font-family="Helvetica,sans-Serif" font-size="10.00">values</text>
</a>
</g>
</g>
<!-- dir_a03bc534a5ad05be14091037270a550c&#45;&gt;dir_7fab4c9f6ff98d8e5daf9dd22a287031 -->
<g id="edge3" class="edge">
<title>dir_a03bc534a5ad05be14091037270a550c&#45;&gt;dir_7fab4c9f6ff98d8e5daf9dd22a287031</title>
<path fill="none" stroke="black" d="M73.52,-143.7C83.87,-134.97 96.59,-124.24 107.84,-114.75"/>
<polygon fill="black" stroke="black" points="110.33,-117.23 115.72,-108.1 105.82,-111.88 110.33,-117.23"/>
<g id="a_edge3&#45;headlabel"><a xlink:href="dir_000075_000097.html" target="_top" xlink:title="2">
<text text-anchor="middle" x="109.41" y="-119.21" font-family="Helvetica,sans-Serif" font-size="10.00">2</text>
</a>
</g>
</g>
<!-- dir_7fab4c9f6ff98d8e5daf9dd22a287031&#45;&gt;dir_686a2d3b8380929f3bfddf3b00ff951b -->
<g id="edge4" class="edge">
<title>dir_7fab4c9f6ff98d8e5daf9dd22a287031&#45;&gt;dir_686a2d3b8380929f3bfddf3b00ff951b</title>
<path fill="none" stroke="black" d="M117.46,-71.7C108.2,-63.05 96.84,-52.45 86.74,-43.03"/>
<polygon fill="black" stroke="black" points="89.02,-40.37 79.33,-36.1 84.25,-45.49 89.02,-40.37"/>
<g id="a_edge4&#45;headlabel"><a xlink:href="dir_000097_000049.html" target="_top" xlink:title="6">
<text text-anchor="middle" x="93.59" y="-38.25" font-family="Helvetica,sans-Serif" font-size="10.00">6</text>
</a>
</g>
</g>
</g>
</svg>
