<?xml version="1.0" encoding="UTF-8" standalone="no"?>
<!DOCTYPE svg PUBLIC "-//W3C//DTD SVG 1.1//EN"
 "http://www.w3.org/Graphics/SVG/1.1/DTD/svg11.dtd">
<!-- Generated by graphviz version 2.43.0 (0)
 -->
<!-- Title: /home/nico/joda_tmp/tmp&#45;joda&#45;dirs/JODA&#45;gh/libs/joda/core/modules/storage/include Pages: 1 -->
<svg width="182pt" height="175pt"
 viewBox="0.00 0.00 182.00 175.00" xmlns="http://www.w3.org/2000/svg" xmlns:xlink="http://www.w3.org/1999/xlink">
<g id="graph0" class="graph" transform="scale(1 1) rotate(0) translate(4 171)">
<title>/home/nico/joda_tmp/tmp&#45;joda&#45;dirs/JODA&#45;gh/libs/joda/core/modules/storage/include</title>
<polygon fill="white" stroke="transparent" points="-4,4 -4,-171 178,-171 178,4 -4,4"/>
<g id="clust1" class="cluster">
<title>clusterdir_593657602c74fd2b2e9635270b1bdea2</title>
<g id="a_clust1"><a xlink:href="dir_593657602c74fd2b2e9635270b1bdea2.html" target="_top" xlink:title="storage">
<polygon fill="#ddddee" stroke="black" points="8,-8 8,-159 166,-159 166,-8 8,-8"/>
<text text-anchor="middle" x="87" y="-147" font-family="Helvetica,sans-Serif" font-size="10.00">storage</text>
</a>
</g>
</g>
<g id="clust2" class="cluster">
<title>clusterdir_cba92e8ae5002aa14fb05c913e366260</title>
<g id="a_clust2"><a xlink:href="dir_cba92e8ae5002aa14fb05c913e366260.html" target="_top">
<polygon fill="#eeeeff" stroke="black" points="16,-80 16,-132 158,-132 158,-80 16,-80"/>
</a>
</g>
</g>
<!-- dir_f67b07406cada6169f15e2a5149e4aeb -->
<g id="node1" class="node">
<title>dir_f67b07406cada6169f15e2a5149e4aeb</title>
<g id="a_node1"><a xlink:href="dir_f67b07406cada6169f15e2a5149e4aeb.html" target="_top" xlink:title="container">
<polygon fill="white" stroke="red" points="82,-52 20,-52 20,-16 82,-16 82,-52"/>
<text text-anchor="middle" x="51" y="-31.5" font-family="Helvetica,sans-Serif" font-size="10.00">container</text>
</a>
</g>
</g>
<!-- dir_cba92e8ae5002aa14fb05c913e366260 -->
<g id="node2" class="node">
<title>dir_cba92e8ae5002aa14fb05c913e366260</title>
<text text-anchor="middle" x="123" y="-103.5" font-family="Helvetica,sans-Serif" font-size="10.00">include</text>
</g>
<!-- dir_d55b75190e130c0dad1e66db491b1ff5 -->
<g id="node3" class="node">
<title>dir_d55b75190e130c0dad1e66db491b1ff5</title>
<g id="a_node3"><a xlink:href="dir_d55b75190e130c0dad1e66db491b1ff5.html" target="_top" xlink:title="joda">
<polygon fill="white" stroke="red" points="78,-124 24,-124 24,-88 78,-88 78,-124"/>
<text text-anchor="middle" x="51" y="-103.5" font-family="Helvetica,sans-Serif" font-size="10.00">joda</text>
</a>
</g>
</g>
<!-- dir_d55b75190e130c0dad1e66db491b1ff5&#45;&gt;dir_f67b07406cada6169f15e2a5149e4aeb -->
<g id="edge1" class="edge">
<title>dir_d55b75190e130c0dad1e66db491b1ff5&#45;&gt;dir_f67b07406cada6169f15e2a5149e4aeb</title>
<path fill="none" stroke="black" d="M51,-87.7C51,-79.98 51,-70.71 51,-62.11"/>
<polygon fill="black" stroke="black" points="54.5,-62.1 51,-52.1 47.5,-62.1 54.5,-62.1"/>
<g id="a_edge1&#45;headlabel"><a xlink:href="dir_000147_000133.html" target="_top" xlink:title="2">
<text text-anchor="middle" x="57.34" y="-63.2" font-family="Helvetica,sans-Serif" font-size="10.00">2</text>
</a>
</g>
</g>
</g>
</svg>
