<?xml version="1.0" encoding="UTF-8" standalone="no"?>
<!DOCTYPE svg PUBLIC "-//W3C//DTD SVG 1.1//EN"
 "http://www.w3.org/Graphics/SVG/1.1/DTD/svg11.dtd">
<!-- Generated by graphviz version 2.43.0 (0)
 -->
<!-- Title: /home/nico/projects/tmp&#45;joda&#45;dirs/JODA&#45;gh/libs/joda/core/modules/query/predicate Pages: 1 -->
<svg width="244pt" height="303pt"
 viewBox="0.00 0.00 244.00 303.00" xmlns="http://www.w3.org/2000/svg" xmlns:xlink="http://www.w3.org/1999/xlink">
<g id="graph0" class="graph" transform="scale(1 1) rotate(0) translate(4 299)">
<title>/home/nico/projects/tmp&#45;joda&#45;dirs/JODA&#45;gh/libs/joda/core/modules/query/predicate</title>
<polygon fill="white" stroke="transparent" points="-4,4 -4,-299 240,-299 240,4 -4,4"/>
<g id="clust1" class="cluster">
<title>clusterdir_308afe6c0c0e65dd84efc4369dd1efeb</title>
<g id="a_clust1"><a xlink:href="dir_308afe6c0c0e65dd84efc4369dd1efeb.html" target="_top" xlink:title="query">
<polygon fill="#ddddee" stroke="black" points="62,-128 62,-287 228,-287 228,-128 62,-128"/>
<text text-anchor="middle" x="145" y="-275" font-family="Helvetica,sans-Serif" font-size="10.00">query</text>
</a>
</g>
</g>
<g id="clust2" class="cluster">
<title>clusterdir_1efb1bf1631d4f4540499539a6adab96</title>
<g id="a_clust2"><a xlink:href="dir_1efb1bf1631d4f4540499539a6adab96.html" target="_top">
<polygon fill="#eeeeff" stroke="black" points="70,-136 70,-260 220,-260 220,-136 70,-136"/>
</a>
</g>
</g>
<!-- dir_1efb1bf1631d4f4540499539a6adab96 -->
<g id="node1" class="node">
<title>dir_1efb1bf1631d4f4540499539a6adab96</title>
<text text-anchor="middle" x="181" y="-231.5" font-family="Helvetica,sans-Serif" font-size="10.00">predicate</text>
</g>
<!-- dir_7adee42121e985c875ec5732d0d89f93 -->
<g id="node2" class="node">
<title>dir_7adee42121e985c875ec5732d0d89f93</title>
<g id="a_node2"><a xlink:href="dir_7adee42121e985c875ec5732d0d89f93.html" target="_top" xlink:title="include">
<polygon fill="white" stroke="red" points="132,-180 78,-180 78,-144 132,-144 132,-180"/>
<text text-anchor="middle" x="105" y="-159.5" font-family="Helvetica,sans-Serif" font-size="10.00">include</text>
</a>
</g>
</g>
<!-- dir_593657602c74fd2b2e9635270b1bdea2 -->
<g id="node4" class="node">
<title>dir_593657602c74fd2b2e9635270b1bdea2</title>
<g id="a_node4"><a xlink:href="dir_593657602c74fd2b2e9635270b1bdea2.html" target="_top" xlink:title="storage">
<polygon fill="white" stroke="red" points="85,-108 31,-108 31,-72 85,-72 85,-108"/>
<text text-anchor="middle" x="58" y="-87.5" font-family="Helvetica,sans-Serif" font-size="10.00">storage</text>
</a>
</g>
</g>
<!-- dir_7adee42121e985c875ec5732d0d89f93&#45;&gt;dir_593657602c74fd2b2e9635270b1bdea2 -->
<g id="edge7" class="edge">
<title>dir_7adee42121e985c875ec5732d0d89f93&#45;&gt;dir_593657602c74fd2b2e9635270b1bdea2</title>
<path fill="none" stroke="black" d="M93.38,-143.7C87.86,-135.47 81.15,-125.48 75.07,-116.42"/>
<polygon fill="black" stroke="black" points="77.96,-114.46 69.48,-108.1 72.15,-118.36 77.96,-114.46"/>
<g id="a_edge7&#45;headlabel"><a xlink:href="dir_000082_000125.html" target="_top" xlink:title="1">
<text text-anchor="middle" x="82.33" y="-113.36" font-family="Helvetica,sans-Serif" font-size="10.00">1</text>
</a>
</g>
</g>
<!-- dir_7fab4c9f6ff98d8e5daf9dd22a287031 -->
<g id="node6" class="node">
<title>dir_7fab4c9f6ff98d8e5daf9dd22a287031</title>
<g id="a_node6"><a xlink:href="dir_7fab4c9f6ff98d8e5daf9dd22a287031.html" target="_top" xlink:title="values">
<polygon fill="white" stroke="red" points="112,-36 58,-36 58,0 112,0 112,-36"/>
<text text-anchor="middle" x="85" y="-15.5" font-family="Helvetica,sans-Serif" font-size="10.00">values</text>
</a>
</g>
</g>
<!-- dir_7adee42121e985c875ec5732d0d89f93&#45;&gt;dir_7fab4c9f6ff98d8e5daf9dd22a287031 -->
<g id="edge8" class="edge">
<title>dir_7adee42121e985c875ec5732d0d89f93&#45;&gt;dir_7fab4c9f6ff98d8e5daf9dd22a287031</title>
<path fill="none" stroke="black" d="M103.12,-143.91C101.09,-125.97 97.66,-96.95 94,-72 92.76,-63.56 91.26,-54.39 89.84,-46.09"/>
<polygon fill="black" stroke="black" points="93.28,-45.41 88.12,-36.15 86.38,-46.61 93.28,-45.41"/>
<g id="a_edge8&#45;headlabel"><a xlink:href="dir_000082_000097.html" target="_top" xlink:title="3">
<text text-anchor="middle" x="96.69" y="-45.96" font-family="Helvetica,sans-Serif" font-size="10.00">3</text>
</a>
</g>
</g>
<!-- dir_b780a7a783bbbd14dea977b61a35b617 -->
<g id="node3" class="node">
<title>dir_b780a7a783bbbd14dea977b61a35b617</title>
<g id="a_node3"><a xlink:href="dir_b780a7a783bbbd14dea977b61a35b617.html" target="_top" xlink:title="src">
<polygon fill="white" stroke="red" points="132,-252 78,-252 78,-216 132,-216 132,-252"/>
<text text-anchor="middle" x="105" y="-231.5" font-family="Helvetica,sans-Serif" font-size="10.00">src</text>
</a>
</g>
</g>
<!-- dir_b780a7a783bbbd14dea977b61a35b617&#45;&gt;dir_7adee42121e985c875ec5732d0d89f93 -->
<g id="edge3" class="edge">
<title>dir_b780a7a783bbbd14dea977b61a35b617&#45;&gt;dir_7adee42121e985c875ec5732d0d89f93</title>
<path fill="none" stroke="black" d="M105,-215.7C105,-207.98 105,-198.71 105,-190.11"/>
<polygon fill="black" stroke="black" points="108.5,-190.1 105,-180.1 101.5,-190.1 108.5,-190.1"/>
<g id="a_edge3&#45;headlabel"><a xlink:href="dir_000086_000082.html" target="_top" xlink:title="43">
<text text-anchor="middle" x="111.34" y="-191.2" font-family="Helvetica,sans-Serif" font-size="10.00">43</text>
</a>
</g>
</g>
<!-- dir_9ee1ff28d9eaa51194f1ce4491cf4ecc -->
<g id="node5" class="node">
<title>dir_9ee1ff28d9eaa51194f1ce4491cf4ecc</title>
<g id="a_node5"><a xlink:href="dir_9ee1ff28d9eaa51194f1ce4491cf4ecc.html" target="_top" xlink:title="include">
<polygon fill="white" stroke="red" points="54,-180 0,-180 0,-144 54,-144 54,-180"/>
<text text-anchor="middle" x="27" y="-159.5" font-family="Helvetica,sans-Serif" font-size="10.00">include</text>
</a>
</g>
</g>
<!-- dir_b780a7a783bbbd14dea977b61a35b617&#45;&gt;dir_9ee1ff28d9eaa51194f1ce4491cf4ecc -->
<g id="edge2" class="edge">
<title>dir_b780a7a783bbbd14dea977b61a35b617&#45;&gt;dir_9ee1ff28d9eaa51194f1ce4491cf4ecc</title>
<path fill="none" stroke="black" d="M85.72,-215.7C76.08,-207.05 64.27,-196.45 53.77,-187.03"/>
<polygon fill="black" stroke="black" points="55.84,-184.18 46.06,-180.1 51.16,-189.39 55.84,-184.18"/>
<g id="a_edge2&#45;headlabel"><a xlink:href="dir_000086_000078.html" target="_top" xlink:title="1">
<text text-anchor="middle" x="60.41" y="-181.97" font-family="Helvetica,sans-Serif" font-size="10.00">1</text>
</a>
</g>
</g>
<!-- dir_b780a7a783bbbd14dea977b61a35b617&#45;&gt;dir_7fab4c9f6ff98d8e5daf9dd22a287031 -->
<g id="edge4" class="edge">
<title>dir_b780a7a783bbbd14dea977b61a35b617&#45;&gt;dir_7fab4c9f6ff98d8e5daf9dd22a287031</title>
<path fill="none" stroke="black" d="M120.61,-215.77C128.37,-206.03 136.95,-193.18 141,-180 147.79,-157.91 146.43,-150.46 141,-128 133.6,-97.42 116.07,-65.8 102.57,-44.54"/>
<polygon fill="black" stroke="black" points="105.47,-42.57 97.08,-36.1 99.6,-46.39 105.47,-42.57"/>
<g id="a_edge4&#45;headlabel"><a xlink:href="dir_000086_000097.html" target="_top" xlink:title="8">
<text text-anchor="middle" x="109.81" y="-41.54" font-family="Helvetica,sans-Serif" font-size="10.00">8</text>
</a>
</g>
</g>
<!-- dir_593657602c74fd2b2e9635270b1bdea2&#45;&gt;dir_7fab4c9f6ff98d8e5daf9dd22a287031 -->
<g id="edge1" class="edge">
<title>dir_593657602c74fd2b2e9635270b1bdea2&#45;&gt;dir_7fab4c9f6ff98d8e5daf9dd22a287031</title>
<path fill="none" stroke="black" d="M58.76,-71.7C61.01,-63.73 64.51,-54.1 68.31,-45.26"/>
<polygon fill="black" stroke="black" points="71.52,-46.65 72.51,-36.1 65.16,-43.74 71.52,-46.65"/>
<g id="a_edge1&#45;headlabel"><a xlink:href="dir_000125_000097.html" target="_top" xlink:title="1">
<text text-anchor="middle" x="72.61" y="-48.6" font-family="Helvetica,sans-Serif" font-size="10.00">1</text>
</a>
</g>
</g>
<!-- dir_9ee1ff28d9eaa51194f1ce4491cf4ecc&#45;&gt;dir_7adee42121e985c875ec5732d0d89f93 -->
<g id="edge6" class="edge">
<title>dir_9ee1ff28d9eaa51194f1ce4491cf4ecc&#45;&gt;dir_7adee42121e985c875ec5732d0d89f93</title>
<path fill="none" stroke="black" d="M54.12,-162C58.71,-162 63.31,-162 67.91,-162"/>
<polygon fill="black" stroke="black" points="67.97,-165.5 77.97,-162 67.97,-158.5 67.97,-165.5"/>
<g id="a_edge6&#45;headlabel"><a xlink:href="dir_000078_000082.html" target="_top" xlink:title="1">
<text text-anchor="middle" x="64.37" y="-165.84" font-family="Helvetica,sans-Serif" font-size="10.00">1</text>
</a>
</g>
</g>
<!-- dir_9ee1ff28d9eaa51194f1ce4491cf4ecc&#45;&gt;dir_593657602c74fd2b2e9635270b1bdea2 -->
<g id="edge5" class="edge">
<title>dir_9ee1ff28d9eaa51194f1ce4491cf4ecc&#45;&gt;dir_593657602c74fd2b2e9635270b1bdea2</title>
<path fill="none" stroke="black" d="M34.66,-143.7C38.19,-135.73 42.46,-126.1 46.37,-117.26"/>
<polygon fill="black" stroke="black" points="49.58,-118.67 50.43,-108.1 43.18,-115.83 49.58,-118.67"/>
<g id="a_edge5&#45;headlabel"><a xlink:href="dir_000078_000125.html" target="_top" xlink:title="1">
<text text-anchor="middle" x="50.72" y="-120.6" font-family="Helvetica,sans-Serif" font-size="10.00">1</text>
</a>
</g>
</g>
<!-- dir_7fab4c9f6ff98d8e5daf9dd22a287031&#45;&gt;dir_593657602c74fd2b2e9635270b1bdea2 -->
<g id="edge9" class="edge">
<title>dir_7fab4c9f6ff98d8e5daf9dd22a287031&#45;&gt;dir_593657602c74fd2b2e9635270b1bdea2</title>
<path fill="none" stroke="black" d="M84.3,-36.1C82.07,-44.04 78.58,-53.67 74.79,-62.51"/>
<polygon fill="black" stroke="black" points="71.56,-61.15 70.59,-71.7 77.93,-64.06 71.56,-61.15"/>
<g id="a_edge9&#45;headlabel"><a xlink:href="dir_000097_000125.html" target="_top" xlink:title="5">
<text text-anchor="middle" x="70.47" y="-54.2" font-family="Helvetica,sans-Serif" font-size="10.00">5</text>
</a>
</g>
</g>
</g>
</svg>
