<?xml version="1.0" encoding="UTF-8" standalone="no"?>
<!DOCTYPE svg PUBLIC "-//W3C//DTD SVG 1.1//EN"
 "http://www.w3.org/Graphics/SVG/1.1/DTD/svg11.dtd">
<!-- Generated by graphviz version 2.43.0 (0)
 -->
<!-- Title: /home/nico/projects/JODA&#45;gh/libs/joda/core/modules/queryexecution/src Pages: 1 -->
<!--zoomable 591 -->
<svg id="main" version="1.1" xmlns="http://www.w3.org/2000/svg" xmlns:xlink="http://www.w3.org/1999/xlink" xml:space="preserve" onload="init(evt)">
<style type="text/css"><![CDATA[
.edge:hover path { stroke: red; }
.edge:hover polygon { stroke: red; fill: red; }
]]></style>
<script type="text/javascript"><![CDATA[
var edges = document.getElementsByTagName('g');
if (edges && edges.length) {
  for (var i=0;i<edges.length;i++) {
    if (edges[i].id.substr(0,4)=='edge') {
      edges[i].setAttribute('class','edge');
    }
  }
}
]]></script>
        <defs>
                <circle id="rim" cx="0" cy="0" r="7"/>
                <circle id="rim2" cx="0" cy="0" r="3.5"/>
                <g id="zoomPlus">
                        <use xlink:href="#rim" fill="#404040">
                                <set attributeName="fill" to="#808080" begin="zoomplus.mouseover" end="zoomplus.mouseout"/>
                        </use>
                        <path d="M-4,0h8M0,-4v8" fill="none" stroke="white" stroke-width="1.5" pointer-events="none"/>
                </g>
                <g id="zoomMin">
                        <use xlink:href="#rim" fill="#404040">
                                <set attributeName="fill" to="#808080" begin="zoomminus.mouseover" end="zoomminus.mouseout"/>
                        </use>
                        <path d="M-4,0h8" fill="none" stroke="white" stroke-width="1.5" pointer-events="none"/>
                </g>
                <g id="dirArrow">
                        <path fill="none" stroke="white" stroke-width="1.5" d="M0,-3.0v7 M-2.5,-0.5L0,-3.0L2.5,-0.5"/>
                </g>
               <g id="resetDef">
                       <use xlink:href="#rim2" fill="#404040">
                               <set attributeName="fill" to="#808080" begin="reset.mouseover" end="reset.mouseout"/>
                       </use>
               </g>
        </defs>

<script type="text/javascript">
var viewWidth = 622;
var viewHeight = 591;
var sectionId = 'dynsection-0';
</script>
<script xlink:href="svgpan.js"/>
<svg id="graph" class="graph">
<g id="viewport">
<title>/home/nico/projects/JODA&#45;gh/libs/joda/core/modules/queryexecution/src</title>
<polygon fill="white" stroke="transparent" points="-4,4 -4,-587 618,-587 618,4 -4,4"/>
<g id="clust1" class="cluster">
<title>clusterdir_fdf43ea20e6d4202c172c6149a054b61</title>
<g id="a_clust1"><a xlink:href="dir_fdf43ea20e6d4202c172c6149a054b61.html" target="_top" xlink:title="queryexecution">
<polygon fill="#ddddee" stroke="black" points="246,-416 246,-575 338,-575 338,-416 246,-416"/>
<text text-anchor="middle" x="292" y="-563" font-family="Helvetica,sans-Serif" font-size="10.00">queryexecution</text>
</a>
</g>
</g>
<g id="clust2" class="cluster">
<title>clusterdir_f52cc97fa168447a8399892c289ffd5a</title>
<g id="a_clust2"><a xlink:href="dir_f52cc97fa168447a8399892c289ffd5a.html" target="_top">
<polygon fill="#eeeeff" stroke="black" points="254,-424 254,-548 330,-548 330,-424 254,-424"/>
</a>
</g>
</g>
<!-- dir_f52cc97fa168447a8399892c289ffd5a -->
<g id="node1" class="node">
<title>dir_f52cc97fa168447a8399892c289ffd5a</title>
<text text-anchor="middle" x="292" y="-519.5" font-family="Helvetica,sans-Serif" font-size="10.00">src</text>
</g>
<!-- dir_efcb806ab29ee40e2f32ea97fd22a69d -->
<g id="node2" class="node">
<title>dir_efcb806ab29ee40e2f32ea97fd22a69d</title>
<g id="a_node2"><a xlink:href="dir_efcb806ab29ee40e2f32ea97fd22a69d.html" target="_top" xlink:title="executor">
<polygon fill="white" stroke="black" points="321.5,-468 262.5,-468 262.5,-432 321.5,-432 321.5,-468"/>
<text text-anchor="middle" x="292" y="-447.5" font-family="Helvetica,sans-Serif" font-size="10.00">executor</text>
</a>
</g>
</g>
<!-- dir_f52cc97fa168447a8399892c289ffd5a&#45;&gt;dir_efcb806ab29ee40e2f32ea97fd22a69d -->
<g id="edge16" class="edge">
<title>dir_f52cc97fa168447a8399892c289ffd5a&#45;&gt;dir_efcb806ab29ee40e2f32ea97fd22a69d</title>
<path fill="none" stroke="black" d="M292,-503.7C292,-495.98 292,-486.71 292,-478.11"/>
<polygon fill="black" stroke="black" points="295.5,-478.1 292,-468.1 288.5,-478.1 295.5,-478.1"/>
<g id="a_edge16&#45;headlabel"><a xlink:href="dir_000108_000109.html" target="_top" xlink:title="4">
<text text-anchor="middle" x="298.34" y="-479.2" font-family="Helvetica,sans-Serif" font-size="10.00">4</text>
</a>
</g>
</g>
<!-- dir_686a2d3b8380929f3bfddf3b00ff951b -->
<g id="node4" class="node">
<title>dir_686a2d3b8380929f3bfddf3b00ff951b</title>
<g id="a_node4"><a xlink:href="dir_686a2d3b8380929f3bfddf3b00ff951b.html" target="_top" xlink:title="misc">
<polygon fill="white" stroke="red" points="207,-108 153,-108 153,-72 207,-72 207,-108"/>
<text text-anchor="middle" x="180" y="-87.5" font-family="Helvetica,sans-Serif" font-size="10.00">misc</text>
</a>
</g>
</g>
<!-- dir_f52cc97fa168447a8399892c289ffd5a&#45;&gt;dir_686a2d3b8380929f3bfddf3b00ff951b -->
<g id="edge12" class="edge">
<title>dir_f52cc97fa168447a8399892c289ffd5a&#45;&gt;dir_686a2d3b8380929f3bfddf3b00ff951b</title>
<path fill="none" stroke="black" d="M264.79,-520.25C192.3,-516.66 0,-496.11 0,-379 0,-379 0,-379 0,-233 0,-160.83 90.29,-119.66 142.98,-101.78"/>
<polygon fill="black" stroke="black" points="144.25,-105.05 152.66,-98.61 142.07,-98.39 144.25,-105.05"/>
<g id="a_edge12&#45;headlabel"><a xlink:href="dir_000108_000049.html" target="_top" xlink:title="5">
<text text-anchor="middle" x="141.71" y="-106.36" font-family="Helvetica,sans-Serif" font-size="10.00">5</text>
</a>
</g>
</g>
<!-- dir_dea12ba9d21ddcad980a1e09adf42dd7 -->
<g id="node5" class="node">
<title>dir_dea12ba9d21ddcad980a1e09adf42dd7</title>
<g id="a_node5"><a xlink:href="dir_dea12ba9d21ddcad980a1e09adf42dd7.html" target="_top" xlink:title="include">
<polygon fill="white" stroke="red" points="195,-468 141,-468 141,-432 195,-432 195,-468"/>
<text text-anchor="middle" x="168" y="-447.5" font-family="Helvetica,sans-Serif" font-size="10.00">include</text>
</a>
</g>
</g>
<!-- dir_f52cc97fa168447a8399892c289ffd5a&#45;&gt;dir_dea12ba9d21ddcad980a1e09adf42dd7 -->
<g id="edge13" class="edge">
<title>dir_f52cc97fa168447a8399892c289ffd5a&#45;&gt;dir_dea12ba9d21ddcad980a1e09adf42dd7</title>
<path fill="none" stroke="black" d="M264.79,-505.64C246.94,-495.56 223.4,-482.28 204.01,-471.33"/>
<polygon fill="black" stroke="black" points="205.58,-468.19 195.15,-466.33 202.14,-474.29 205.58,-468.19"/>
<g id="a_edge13&#45;headlabel"><a xlink:href="dir_000108_000105.html" target="_top" xlink:title="1">
<text text-anchor="middle" x="210.1" y="-464.99" font-family="Helvetica,sans-Serif" font-size="10.00">1</text>
</a>
</g>
</g>
<!-- dir_330813092258a011b683878a00fa0d9e -->
<g id="node7" class="node">
<title>dir_330813092258a011b683878a00fa0d9e</title>
<g id="a_node7"><a xlink:href="dir_330813092258a011b683878a00fa0d9e.html" target="_top" xlink:title="join">
<polygon fill="white" stroke="red" points="404,-324 350,-324 350,-288 404,-288 404,-324"/>
<text text-anchor="middle" x="377" y="-303.5" font-family="Helvetica,sans-Serif" font-size="10.00">join</text>
</a>
</g>
</g>
<!-- dir_f52cc97fa168447a8399892c289ffd5a&#45;&gt;dir_330813092258a011b683878a00fa0d9e -->
<g id="edge14" class="edge">
<title>dir_f52cc97fa168447a8399892c289ffd5a&#45;&gt;dir_330813092258a011b683878a00fa0d9e</title>
<path fill="none" stroke="black" d="M307.05,-503.88C315.11,-493.96 324.66,-480.92 331,-468 352.75,-423.69 365.89,-367.33 372.26,-334.4"/>
<polygon fill="black" stroke="black" points="375.78,-334.65 374.17,-324.18 368.9,-333.36 375.78,-334.65"/>
<g id="a_edge14&#45;headlabel"><a xlink:href="dir_000108_000044.html" target="_top" xlink:title="3">
<text text-anchor="middle" x="377.91" y="-336.2" font-family="Helvetica,sans-Serif" font-size="10.00">3</text>
</a>
</g>
</g>
<!-- dir_63f3c63b536605e5a905cdcef9078995 -->
<g id="node8" class="node">
<title>dir_63f3c63b536605e5a905cdcef9078995</title>
<g id="a_node8"><a xlink:href="dir_63f3c63b536605e5a905cdcef9078995.html" target="_top" xlink:title="export">
<polygon fill="white" stroke="red" points="234,-180 180,-180 180,-144 234,-144 234,-180"/>
<text text-anchor="middle" x="207" y="-159.5" font-family="Helvetica,sans-Serif" font-size="10.00">export</text>
</a>
</g>
</g>
<!-- dir_f52cc97fa168447a8399892c289ffd5a&#45;&gt;dir_63f3c63b536605e5a905cdcef9078995 -->
<g id="edge15" class="edge">
<title>dir_f52cc97fa168447a8399892c289ffd5a&#45;&gt;dir_63f3c63b536605e5a905cdcef9078995</title>
<path fill="none" stroke="black" d="M264.98,-521C227.94,-519.35 162.5,-510.23 132,-468 101.18,-425.33 90.29,-381 164,-216 168.54,-205.83 175.54,-195.99 182.59,-187.6"/>
<polygon fill="black" stroke="black" points="185.27,-189.85 189.27,-180.04 180.03,-185.21 185.27,-189.85"/>
<g id="a_edge15&#45;headlabel"><a xlink:href="dir_000108_000028.html" target="_top" xlink:title="4">
<text text-anchor="middle" x="185.01" y="-191.92" font-family="Helvetica,sans-Serif" font-size="10.00">4</text>
</a>
</g>
</g>
<!-- dir_eb46814348a9452de37b70307a191b78 -->
<g id="node10" class="node">
<title>dir_eb46814348a9452de37b70307a191b78</title>
<g id="a_node10"><a xlink:href="dir_eb46814348a9452de37b70307a191b78.html" target="_top" xlink:title="filesystem">
<polygon fill="white" stroke="red" points="548,-252 480,-252 480,-216 548,-216 548,-252"/>
<text text-anchor="middle" x="514" y="-231.5" font-family="Helvetica,sans-Serif" font-size="10.00">filesystem</text>
</a>
</g>
</g>
<!-- dir_f52cc97fa168447a8399892c289ffd5a&#45;&gt;dir_eb46814348a9452de37b70307a191b78 -->
<g id="edge17" class="edge">
<title>dir_f52cc97fa168447a8399892c289ffd5a&#45;&gt;dir_eb46814348a9452de37b70307a191b78</title>
<path fill="none" stroke="black" d="M317.73,-503.77C361.29,-473.12 449.13,-404.71 493,-324 503.46,-304.76 508.74,-280.42 511.39,-262.06"/>
<polygon fill="black" stroke="black" points="514.88,-262.38 512.67,-252.02 507.94,-261.5 514.88,-262.38"/>
<g id="a_edge17&#45;headlabel"><a xlink:href="dir_000108_000008.html" target="_top" xlink:title="1">
<text text-anchor="middle" x="517.24" y="-263.8" font-family="Helvetica,sans-Serif" font-size="10.00">1</text>
</a>
</g>
</g>
<!-- dir_749af01c4b44bc0c6a4f35b0ce4584fa -->
<g id="node11" class="node">
<title>dir_749af01c4b44bc0c6a4f35b0ce4584fa</title>
<g id="a_node11"><a xlink:href="dir_749af01c4b44bc0c6a4f35b0ce4584fa.html" target="_top" xlink:title="concurrency">
<polygon fill="white" stroke="red" points="376,-108 300,-108 300,-72 376,-72 376,-108"/>
<text text-anchor="middle" x="338" y="-87.5" font-family="Helvetica,sans-Serif" font-size="10.00">concurrency</text>
</a>
</g>
</g>
<!-- dir_f52cc97fa168447a8399892c289ffd5a&#45;&gt;dir_749af01c4b44bc0c6a4f35b0ce4584fa -->
<g id="edge18" class="edge">
<title>dir_f52cc97fa168447a8399892c289ffd5a&#45;&gt;dir_749af01c4b44bc0c6a4f35b0ce4584fa</title>
<path fill="none" stroke="black" d="M319.18,-521.32C396.81,-520.69 614,-507.46 614,-379 614,-379 614,-379 614,-233 614,-131.79 465.44,-102.66 386.31,-94.32"/>
<polygon fill="black" stroke="black" points="386.38,-90.81 376.09,-93.31 385.7,-97.77 386.38,-90.81"/>
<g id="a_edge18&#45;headlabel"><a xlink:href="dir_000108_000018.html" target="_top" xlink:title="2">
<text text-anchor="middle" x="390.24" y="-85.83" font-family="Helvetica,sans-Serif" font-size="10.00">2</text>
</a>
</g>
</g>
<!-- dir_593657602c74fd2b2e9635270b1bdea2 -->
<g id="node3" class="node">
<title>dir_593657602c74fd2b2e9635270b1bdea2</title>
<g id="a_node3"><a xlink:href="dir_593657602c74fd2b2e9635270b1bdea2.html" target="_top" xlink:title="storage">
<polygon fill="white" stroke="red" points="319,-396 265,-396 265,-360 319,-360 319,-396"/>
<text text-anchor="middle" x="292" y="-375.5" font-family="Helvetica,sans-Serif" font-size="10.00">storage</text>
</a>
</g>
</g>
<!-- dir_efcb806ab29ee40e2f32ea97fd22a69d&#45;&gt;dir_593657602c74fd2b2e9635270b1bdea2 -->
<g id="edge30" class="edge">
<title>dir_efcb806ab29ee40e2f32ea97fd22a69d&#45;&gt;dir_593657602c74fd2b2e9635270b1bdea2</title>
<path fill="none" stroke="black" d="M292,-431.7C292,-423.98 292,-414.71 292,-406.11"/>
<polygon fill="black" stroke="black" points="295.5,-406.1 292,-396.1 288.5,-406.1 295.5,-406.1"/>
<g id="a_edge30&#45;headlabel"><a xlink:href="dir_000109_000125.html" target="_top" xlink:title="1">
<text text-anchor="middle" x="298.34" y="-407.2" font-family="Helvetica,sans-Serif" font-size="10.00">1</text>
</a>
</g>
</g>
<!-- dir_7370e63381a3da0a5abca9ffd8b57676 -->
<g id="node6" class="node">
<title>dir_7370e63381a3da0a5abca9ffd8b57676</title>
<g id="a_node6"><a xlink:href="dir_7370e63381a3da0a5abca9ffd8b57676.html" target="_top" xlink:title="config">
<polygon fill="white" stroke="red" points="441,-36 387,-36 387,0 441,0 441,-36"/>
<text text-anchor="middle" x="414" y="-15.5" font-family="Helvetica,sans-Serif" font-size="10.00">config</text>
</a>
</g>
</g>
<!-- dir_efcb806ab29ee40e2f32ea97fd22a69d&#45;&gt;dir_7370e63381a3da0a5abca9ffd8b57676 -->
<g id="edge31" class="edge">
<title>dir_efcb806ab29ee40e2f32ea97fd22a69d&#45;&gt;dir_7370e63381a3da0a5abca9ffd8b57676</title>
<path fill="none" stroke="black" d="M321.59,-441.9C394.33,-422.5 576,-361.41 576,-235 576,-235 576,-235 576,-161 576,-94.69 498.31,-52.12 450.53,-32.21"/>
<polygon fill="black" stroke="black" points="451.7,-28.91 441.12,-28.42 449.08,-35.4 451.7,-28.91"/>
<g id="a_edge31&#45;headlabel"><a xlink:href="dir_000109_000023.html" target="_top" xlink:title="1">
<text text-anchor="middle" x="456.09" y="-25.12" font-family="Helvetica,sans-Serif" font-size="10.00">1</text>
</a>
</g>
</g>
<!-- dir_308afe6c0c0e65dd84efc4369dd1efeb -->
<g id="node9" class="node">
<title>dir_308afe6c0c0e65dd84efc4369dd1efeb</title>
<g id="a_node9"><a xlink:href="dir_308afe6c0c0e65dd84efc4369dd1efeb.html" target="_top" xlink:title="query">
<polygon fill="white" stroke="red" points="234,-252 180,-252 180,-216 234,-216 234,-252"/>
<text text-anchor="middle" x="207" y="-231.5" font-family="Helvetica,sans-Serif" font-size="10.00">query</text>
</a>
</g>
</g>
<!-- dir_efcb806ab29ee40e2f32ea97fd22a69d&#45;&gt;dir_308afe6c0c0e65dd84efc4369dd1efeb -->
<g id="edge32" class="edge">
<title>dir_efcb806ab29ee40e2f32ea97fd22a69d&#45;&gt;dir_308afe6c0c0e65dd84efc4369dd1efeb</title>
<path fill="none" stroke="black" d="M278.26,-431.66C270.86,-421.68 262.05,-408.64 256,-396 234.6,-351.24 220.03,-295.03 212.65,-262.24"/>
<polygon fill="black" stroke="black" points="215.98,-261.09 210.42,-252.07 209.14,-262.59 215.98,-261.09"/>
<g id="a_edge32&#45;headlabel"><a xlink:href="dir_000109_000065.html" target="_top" xlink:title="4">
<text text-anchor="middle" x="219.52" y="-261.5" font-family="Helvetica,sans-Serif" font-size="10.00">4</text>
</a>
</g>
</g>
<!-- dir_593657602c74fd2b2e9635270b1bdea2&#45;&gt;dir_686a2d3b8380929f3bfddf3b00ff951b -->
<g id="edge1" class="edge">
<title>dir_593657602c74fd2b2e9635270b1bdea2&#45;&gt;dir_686a2d3b8380929f3bfddf3b00ff951b</title>
<path fill="none" stroke="black" d="M264.74,-369.3C241.59,-361.44 209.04,-347.08 189,-324 136.05,-263.01 152.2,-223.9 164,-144 165.28,-135.35 167.67,-126.15 170.22,-117.89"/>
<polygon fill="black" stroke="black" points="173.55,-118.96 173.35,-108.37 166.9,-116.78 173.55,-118.96"/>
<g id="a_edge1&#45;headlabel"><a xlink:href="dir_000125_000049.html" target="_top" xlink:title="19">
<text text-anchor="middle" x="175.12" y="-120.77" font-family="Helvetica,sans-Serif" font-size="10.00">19</text>
</a>
</g>
</g>
<!-- dir_593657602c74fd2b2e9635270b1bdea2&#45;&gt;dir_7370e63381a3da0a5abca9ffd8b57676 -->
<g id="edge2" class="edge">
<title>dir_593657602c74fd2b2e9635270b1bdea2&#45;&gt;dir_7370e63381a3da0a5abca9ffd8b57676</title>
<path fill="none" stroke="black" d="M319.09,-371.24C346.02,-364.25 386.97,-350.03 413,-324 443.54,-293.46 452,-278.19 452,-235 452,-235 452,-235 452,-161 452,-119.63 436.77,-73.72 425.59,-45.61"/>
<polygon fill="black" stroke="black" points="428.72,-44.02 421.69,-36.09 422.24,-46.67 428.72,-44.02"/>
<g id="a_edge2&#45;headlabel"><a xlink:href="dir_000125_000023.html" target="_top" xlink:title="5">
<text text-anchor="middle" x="432.71" y="-43.77" font-family="Helvetica,sans-Serif" font-size="10.00">5</text>
</a>
</g>
</g>
<!-- dir_593657602c74fd2b2e9635270b1bdea2&#45;&gt;dir_330813092258a011b683878a00fa0d9e -->
<g id="edge3" class="edge">
<title>dir_593657602c74fd2b2e9635270b1bdea2&#45;&gt;dir_330813092258a011b683878a00fa0d9e</title>
<path fill="none" stroke="black" d="M307.1,-359.7C316.89,-350.88 329.9,-340.03 342.08,-330.47"/>
<polygon fill="black" stroke="black" points="344.56,-332.98 350.34,-324.1 340.28,-327.44 344.56,-332.98"/>
<g id="a_edge3&#45;headlabel"><a xlink:href="dir_000125_000044.html" target="_top" xlink:title="4">
<text text-anchor="middle" x="343.45" y="-334.93" font-family="Helvetica,sans-Serif" font-size="10.00">4</text>
</a>
</g>
</g>
<!-- dir_593657602c74fd2b2e9635270b1bdea2&#45;&gt;dir_308afe6c0c0e65dd84efc4369dd1efeb -->
<g id="edge4" class="edge">
<title>dir_593657602c74fd2b2e9635270b1bdea2&#45;&gt;dir_308afe6c0c0e65dd84efc4369dd1efeb</title>
<path fill="none" stroke="black" d="M276.05,-359.73C264,-341.64 247.95,-312.51 233,-288 227.6,-279.15 221.45,-269.66 216.27,-261.18"/>
<polygon fill="black" stroke="black" points="219.22,-259.29 211.11,-252.46 213.19,-262.85 219.22,-259.29"/>
<g id="a_edge4&#45;headlabel"><a xlink:href="dir_000125_000065.html" target="_top" xlink:title="4">
<text text-anchor="middle" x="223.49" y="-258.44" font-family="Helvetica,sans-Serif" font-size="10.00">4</text>
</a>
</g>
</g>
<!-- dir_593657602c74fd2b2e9635270b1bdea2&#45;&gt;dir_eb46814348a9452de37b70307a191b78 -->
<g id="edge5" class="edge">
<title>dir_593657602c74fd2b2e9635270b1bdea2&#45;&gt;dir_eb46814348a9452de37b70307a191b78</title>
<path fill="none" stroke="black" d="M319.13,-375.09C356.13,-371.19 422.75,-359.4 466,-324 485.55,-308 498.29,-281.86 505.7,-262.04"/>
<polygon fill="black" stroke="black" points="509.09,-262.93 509.09,-252.34 502.48,-260.62 509.09,-262.93"/>
<g id="a_edge5&#45;headlabel"><a xlink:href="dir_000125_000008.html" target="_top" xlink:title="2">
<text text-anchor="middle" x="510.58" y="-264.76" font-family="Helvetica,sans-Serif" font-size="10.00">2</text>
</a>
</g>
</g>
<!-- dir_593657602c74fd2b2e9635270b1bdea2&#45;&gt;dir_749af01c4b44bc0c6a4f35b0ce4584fa -->
<g id="edge6" class="edge">
<title>dir_593657602c74fd2b2e9635270b1bdea2&#45;&gt;dir_749af01c4b44bc0c6a4f35b0ce4584fa</title>
<path fill="none" stroke="black" d="M294.74,-359.97C302.42,-312.19 324.23,-176.62 333.61,-118.27"/>
<polygon fill="black" stroke="black" points="337.08,-118.74 335.22,-108.31 330.17,-117.62 337.08,-118.74"/>
<g id="a_edge6&#45;headlabel"><a xlink:href="dir_000125_000018.html" target="_top" xlink:title="2">
<text text-anchor="middle" x="339.32" y="-120.24" font-family="Helvetica,sans-Serif" font-size="10.00">2</text>
</a>
</g>
</g>
<!-- dir_686a2d3b8380929f3bfddf3b00ff951b&#45;&gt;dir_7370e63381a3da0a5abca9ffd8b57676 -->
<g id="edge7" class="edge">
<title>dir_686a2d3b8380929f3bfddf3b00ff951b&#45;&gt;dir_7370e63381a3da0a5abca9ffd8b57676</title>
<path fill="none" stroke="black" d="M207.1,-75.36C210.41,-74.19 213.76,-73.05 217,-72 271.88,-54.15 336.88,-36.61 376.93,-26.86"/>
<polygon fill="black" stroke="black" points="377.89,-30.23 386.8,-24.49 376.26,-23.42 377.89,-30.23"/>
<g id="a_edge7&#45;headlabel"><a xlink:href="dir_000049_000023.html" target="_top" xlink:title="1">
<text text-anchor="middle" x="375.06" y="-31.33" font-family="Helvetica,sans-Serif" font-size="10.00">1</text>
</a>
</g>
</g>
<!-- dir_dea12ba9d21ddcad980a1e09adf42dd7&#45;&gt;dir_593657602c74fd2b2e9635270b1bdea2 -->
<g id="edge8" class="edge">
<title>dir_dea12ba9d21ddcad980a1e09adf42dd7&#45;&gt;dir_593657602c74fd2b2e9635270b1bdea2</title>
<path fill="none" stroke="black" d="M195.21,-433.64C213.06,-423.56 236.6,-410.28 255.99,-399.33"/>
<polygon fill="black" stroke="black" points="257.86,-402.29 264.85,-394.33 254.42,-396.19 257.86,-402.29"/>
<g id="a_edge8&#45;headlabel"><a xlink:href="dir_000105_000125.html" target="_top" xlink:title="1">
<text text-anchor="middle" x="256.13" y="-404.03" font-family="Helvetica,sans-Serif" font-size="10.00">1</text>
</a>
</g>
</g>
<!-- dir_dea12ba9d21ddcad980a1e09adf42dd7&#45;&gt;dir_686a2d3b8380929f3bfddf3b00ff951b -->
<g id="edge9" class="edge">
<title>dir_dea12ba9d21ddcad980a1e09adf42dd7&#45;&gt;dir_686a2d3b8380929f3bfddf3b00ff951b</title>
<path fill="none" stroke="black" d="M163.71,-431.74C152.75,-384.63 126.52,-250.22 155,-144 157.45,-134.86 161.42,-125.37 165.48,-116.98"/>
<polygon fill="black" stroke="black" points="168.6,-118.56 170.03,-108.07 162.37,-115.38 168.6,-118.56"/>
<g id="a_edge9&#45;headlabel"><a xlink:href="dir_000105_000049.html" target="_top" xlink:title="1">
<text text-anchor="middle" x="169.5" y="-120.56" font-family="Helvetica,sans-Serif" font-size="10.00">1</text>
</a>
</g>
</g>
<!-- dir_dea12ba9d21ddcad980a1e09adf42dd7&#45;&gt;dir_308afe6c0c0e65dd84efc4369dd1efeb -->
<g id="edge10" class="edge">
<title>dir_dea12ba9d21ddcad980a1e09adf42dd7&#45;&gt;dir_308afe6c0c0e65dd84efc4369dd1efeb</title>
<path fill="none" stroke="black" d="M171.13,-431.85C177.89,-394.75 193.91,-306.81 202.06,-262.1"/>
<polygon fill="black" stroke="black" points="205.51,-262.7 203.86,-252.23 198.62,-261.44 205.51,-262.7"/>
<g id="a_edge10&#45;headlabel"><a xlink:href="dir_000105_000065.html" target="_top" xlink:title="2">
<text text-anchor="middle" x="207.66" y="-264.24" font-family="Helvetica,sans-Serif" font-size="10.00">2</text>
</a>
</g>
</g>
<!-- dir_7370e63381a3da0a5abca9ffd8b57676&#45;&gt;dir_686a2d3b8380929f3bfddf3b00ff951b -->
<g id="edge11" class="edge">
<title>dir_7370e63381a3da0a5abca9ffd8b57676&#45;&gt;dir_686a2d3b8380929f3bfddf3b00ff951b</title>
<path fill="none" stroke="black" d="M386.71,-27.68C351.31,-37.58 288.37,-54.64 235,-72 229.29,-73.86 223.24,-75.98 217.28,-78.08"/>
<polygon fill="black" stroke="black" points="215.69,-74.93 207.42,-81.54 218.01,-81.53 215.69,-74.93"/>
<g id="a_edge11&#45;headlabel"><a xlink:href="dir_000023_000049.html" target="_top" xlink:title="1">
<text text-anchor="middle" x="218.14" y="-68.56" font-family="Helvetica,sans-Serif" font-size="10.00">1</text>
</a>
</g>
</g>
<!-- dir_330813092258a011b683878a00fa0d9e&#45;&gt;dir_593657602c74fd2b2e9635270b1bdea2 -->
<g id="edge19" class="edge">
<title>dir_330813092258a011b683878a00fa0d9e&#45;&gt;dir_593657602c74fd2b2e9635270b1bdea2</title>
<path fill="none" stroke="black" d="M362.13,-324.1C352.38,-332.89 339.39,-343.73 327.19,-353.31"/>
<polygon fill="black" stroke="black" points="324.7,-350.81 318.93,-359.7 328.98,-356.35 324.7,-350.81"/>
<g id="a_edge19&#45;headlabel"><a xlink:href="dir_000044_000125.html" target="_top" xlink:title="6">
<text text-anchor="middle" x="325.81" y="-343.87" font-family="Helvetica,sans-Serif" font-size="10.00">6</text>
</a>
</g>
</g>
<!-- dir_330813092258a011b683878a00fa0d9e&#45;&gt;dir_686a2d3b8380929f3bfddf3b00ff951b -->
<g id="edge20" class="edge">
<title>dir_330813092258a011b683878a00fa0d9e&#45;&gt;dir_686a2d3b8380929f3bfddf3b00ff951b</title>
<path fill="none" stroke="black" d="M364.23,-287.7C341.41,-257.26 291.47,-192.73 243,-144 232.8,-133.74 220.82,-123.31 210.06,-114.45"/>
<polygon fill="black" stroke="black" points="212.09,-111.59 202.12,-108.01 207.68,-117.03 212.09,-111.59"/>
<g id="a_edge20&#45;headlabel"><a xlink:href="dir_000044_000049.html" target="_top" xlink:title="1">
<text text-anchor="middle" x="216.67" y="-109.15" font-family="Helvetica,sans-Serif" font-size="10.00">1</text>
</a>
</g>
</g>
<!-- dir_330813092258a011b683878a00fa0d9e&#45;&gt;dir_7370e63381a3da0a5abca9ffd8b57676 -->
<g id="edge21" class="edge">
<title>dir_330813092258a011b683878a00fa0d9e&#45;&gt;dir_7370e63381a3da0a5abca9ffd8b57676</title>
<path fill="none" stroke="black" d="M379.2,-287.97C385.38,-240.19 402.92,-104.62 410.47,-46.27"/>
<polygon fill="black" stroke="black" points="413.95,-46.67 411.76,-36.31 407.01,-45.77 413.95,-46.67"/>
<g id="a_edge21&#45;headlabel"><a xlink:href="dir_000044_000023.html" target="_top" xlink:title="2">
<text text-anchor="middle" x="416.3" y="-48.1" font-family="Helvetica,sans-Serif" font-size="10.00">2</text>
</a>
</g>
</g>
<!-- dir_330813092258a011b683878a00fa0d9e&#45;&gt;dir_308afe6c0c0e65dd84efc4369dd1efeb -->
<g id="edge22" class="edge">
<title>dir_330813092258a011b683878a00fa0d9e&#45;&gt;dir_308afe6c0c0e65dd84efc4369dd1efeb</title>
<path fill="none" stroke="black" d="M349.62,-296.39C323.49,-286.68 283.38,-270.3 243.52,-253.86"/>
<polygon fill="black" stroke="black" points="244.8,-250.6 234.22,-250.02 242.13,-257.07 244.8,-250.6"/>
<g id="a_edge22&#45;headlabel"><a xlink:href="dir_000044_000065.html" target="_top" xlink:title="2">
<text text-anchor="middle" x="249.21" y="-246.85" font-family="Helvetica,sans-Serif" font-size="10.00">2</text>
</a>
</g>
</g>
<!-- dir_330813092258a011b683878a00fa0d9e&#45;&gt;dir_eb46814348a9452de37b70307a191b78 -->
<g id="edge23" class="edge">
<title>dir_330813092258a011b683878a00fa0d9e&#45;&gt;dir_eb46814348a9452de37b70307a191b78</title>
<path fill="none" stroke="black" d="M404.07,-291.17C423.31,-281.34 449.54,-267.94 471.55,-256.69"/>
<polygon fill="black" stroke="black" points="473.38,-259.69 480.69,-252.02 470.19,-253.45 473.38,-259.69"/>
<g id="a_edge23&#45;headlabel"><a xlink:href="dir_000044_000008.html" target="_top" xlink:title="2">
<text text-anchor="middle" x="471.47" y="-261.35" font-family="Helvetica,sans-Serif" font-size="10.00">2</text>
</a>
</g>
</g>
<!-- dir_330813092258a011b683878a00fa0d9e&#45;&gt;dir_749af01c4b44bc0c6a4f35b0ce4584fa -->
<g id="edge24" class="edge">
<title>dir_330813092258a011b683878a00fa0d9e&#45;&gt;dir_749af01c4b44bc0c6a4f35b0ce4584fa</title>
<path fill="none" stroke="black" d="M374.95,-287.97C371.27,-258.48 362.89,-196.05 352,-144 350.22,-135.49 347.93,-126.29 345.71,-117.99"/>
<polygon fill="black" stroke="black" points="349.01,-116.8 343,-108.08 342.26,-118.65 349.01,-116.8"/>
<g id="a_edge24&#45;headlabel"><a xlink:href="dir_000044_000018.html" target="_top" xlink:title="1">
<text text-anchor="middle" x="352.7" y="-117.01" font-family="Helvetica,sans-Serif" font-size="10.00">1</text>
</a>
</g>
</g>
<!-- dir_63f3c63b536605e5a905cdcef9078995&#45;&gt;dir_593657602c74fd2b2e9635270b1bdea2 -->
<g id="edge25" class="edge">
<title>dir_63f3c63b536605e5a905cdcef9078995&#45;&gt;dir_593657602c74fd2b2e9635270b1bdea2</title>
<path fill="none" stroke="black" d="M191.39,-180.23C183.63,-189.97 175.05,-202.82 171,-216 166.3,-231.29 165.14,-237.11 171,-252 188,-295.23 228.26,-331.64 257.68,-353.82"/>
<polygon fill="black" stroke="black" points="255.92,-356.86 266.05,-359.96 260.06,-351.22 255.92,-356.86"/>
<g id="a_edge25&#45;headlabel"><a xlink:href="dir_000028_000125.html" target="_top" xlink:title="3">
<text text-anchor="middle" x="251.34" y="-354.52" font-family="Helvetica,sans-Serif" font-size="10.00">3</text>
</a>
</g>
</g>
<!-- dir_63f3c63b536605e5a905cdcef9078995&#45;&gt;dir_686a2d3b8380929f3bfddf3b00ff951b -->
<g id="edge26" class="edge">
<title>dir_63f3c63b536605e5a905cdcef9078995&#45;&gt;dir_686a2d3b8380929f3bfddf3b00ff951b</title>
<path fill="none" stroke="black" d="M200.33,-143.7C197.29,-135.81 193.62,-126.3 190.24,-117.55"/>
<polygon fill="black" stroke="black" points="193.46,-116.17 186.6,-108.1 186.93,-118.69 193.46,-116.17"/>
<g id="a_edge26&#45;headlabel"><a xlink:href="dir_000028_000049.html" target="_top" xlink:title="1">
<text text-anchor="middle" x="197.4" y="-116.01" font-family="Helvetica,sans-Serif" font-size="10.00">1</text>
</a>
</g>
</g>
<!-- dir_63f3c63b536605e5a905cdcef9078995&#45;&gt;dir_7370e63381a3da0a5abca9ffd8b57676 -->
<g id="edge27" class="edge">
<title>dir_63f3c63b536605e5a905cdcef9078995&#45;&gt;dir_7370e63381a3da0a5abca9ffd8b57676</title>
<path fill="none" stroke="black" d="M219.59,-143.93C234.72,-124.4 261.75,-92.46 291,-72 317.57,-53.4 351.7,-39.34 377.27,-30.39"/>
<polygon fill="black" stroke="black" points="378.62,-33.63 386.96,-27.09 376.36,-27 378.62,-33.63"/>
<g id="a_edge27&#45;headlabel"><a xlink:href="dir_000028_000023.html" target="_top" xlink:title="1">
<text text-anchor="middle" x="376.13" y="-34.97" font-family="Helvetica,sans-Serif" font-size="10.00">1</text>
</a>
</g>
</g>
<!-- dir_63f3c63b536605e5a905cdcef9078995&#45;&gt;dir_330813092258a011b683878a00fa0d9e -->
<g id="edge28" class="edge">
<title>dir_63f3c63b536605e5a905cdcef9078995&#45;&gt;dir_330813092258a011b683878a00fa0d9e</title>
<path fill="none" stroke="black" d="M219.59,-180.21C234.13,-199.3 259.46,-230.27 286,-252 302.59,-265.58 323.08,-277.85 340.41,-287.15"/>
<polygon fill="black" stroke="black" points="339.19,-290.46 349.67,-292 342.44,-284.26 339.19,-290.46"/>
<g id="a_edge28&#45;headlabel"><a xlink:href="dir_000028_000044.html" target="_top" xlink:title="1">
<text text-anchor="middle" x="334.69" y="-288.8" font-family="Helvetica,sans-Serif" font-size="10.00">1</text>
</a>
</g>
</g>
<!-- dir_63f3c63b536605e5a905cdcef9078995&#45;&gt;dir_749af01c4b44bc0c6a4f35b0ce4584fa -->
<g id="edge29" class="edge">
<title>dir_63f3c63b536605e5a905cdcef9078995&#45;&gt;dir_749af01c4b44bc0c6a4f35b0ce4584fa</title>
<path fill="none" stroke="black" d="M234.14,-146.5C252.21,-136.84 276.29,-123.98 296.71,-113.06"/>
<polygon fill="black" stroke="black" points="298.63,-116 305.8,-108.2 295.34,-109.83 298.63,-116"/>
<g id="a_edge29&#45;headlabel"><a xlink:href="dir_000028_000018.html" target="_top" xlink:title="1">
<text text-anchor="middle" x="296.8" y="-117.7" font-family="Helvetica,sans-Serif" font-size="10.00">1</text>
</a>
</g>
</g>
<!-- dir_308afe6c0c0e65dd84efc4369dd1efeb&#45;&gt;dir_593657602c74fd2b2e9635270b1bdea2 -->
<g id="edge33" class="edge">
<title>dir_308afe6c0c0e65dd84efc4369dd1efeb&#45;&gt;dir_593657602c74fd2b2e9635270b1bdea2</title>
<path fill="none" stroke="black" d="M226.86,-252.46C234.9,-262.7 243.65,-275.95 251,-288 263.62,-308.68 277.01,-332.65 285.39,-350.5"/>
<polygon fill="black" stroke="black" points="282.23,-352.01 289.49,-359.73 288.63,-349.17 282.23,-352.01"/>
<g id="a_edge33&#45;headlabel"><a xlink:href="dir_000065_000125.html" target="_top" xlink:title="11">
<text text-anchor="middle" x="278.18" y="-347.38" font-family="Helvetica,sans-Serif" font-size="10.00">11</text>
</a>
</g>
</g>
<!-- dir_308afe6c0c0e65dd84efc4369dd1efeb&#45;&gt;dir_686a2d3b8380929f3bfddf3b00ff951b -->
<g id="edge34" class="edge">
<title>dir_308afe6c0c0e65dd84efc4369dd1efeb&#45;&gt;dir_686a2d3b8380929f3bfddf3b00ff951b</title>
<path fill="none" stroke="black" d="M191.39,-215.77C183.63,-206.03 175.05,-193.18 171,-180 164.78,-159.77 167.73,-135.87 171.85,-117.92"/>
<polygon fill="black" stroke="black" points="175.27,-118.68 174.35,-108.12 168.49,-116.95 175.27,-118.68"/>
<g id="a_edge34&#45;headlabel"><a xlink:href="dir_000065_000049.html" target="_top" xlink:title="7">
<text text-anchor="middle" x="177.13" y="-120.36" font-family="Helvetica,sans-Serif" font-size="10.00">7</text>
</a>
</g>
</g>
<!-- dir_308afe6c0c0e65dd84efc4369dd1efeb&#45;&gt;dir_330813092258a011b683878a00fa0d9e -->
<g id="edge35" class="edge">
<title>dir_308afe6c0c0e65dd84efc4369dd1efeb&#45;&gt;dir_330813092258a011b683878a00fa0d9e</title>
<path fill="none" stroke="black" d="M234.2,-242.8C241.75,-245.69 249.73,-249 257,-252 285.13,-263.61 316.73,-276.59 340.55,-286.81"/>
<polygon fill="black" stroke="black" points="339.36,-290.1 349.92,-290.86 342.13,-283.68 339.36,-290.1"/>
<g id="a_edge35&#45;headlabel"><a xlink:href="dir_000065_000044.html" target="_top" xlink:title="1">
<text text-anchor="middle" x="334.93" y="-288.78" font-family="Helvetica,sans-Serif" font-size="10.00">1</text>
</a>
</g>
</g>
<!-- dir_308afe6c0c0e65dd84efc4369dd1efeb&#45;&gt;dir_63f3c63b536605e5a905cdcef9078995 -->
<g id="edge36" class="edge">
<title>dir_308afe6c0c0e65dd84efc4369dd1efeb&#45;&gt;dir_63f3c63b536605e5a905cdcef9078995</title>
<path fill="none" stroke="black" d="M207,-215.7C207,-207.98 207,-198.71 207,-190.11"/>
<polygon fill="black" stroke="black" points="210.5,-190.1 207,-180.1 203.5,-190.1 210.5,-190.1"/>
<g id="a_edge36&#45;headlabel"><a xlink:href="dir_000065_000028.html" target="_top" xlink:title="1">
<text text-anchor="middle" x="213.34" y="-191.2" font-family="Helvetica,sans-Serif" font-size="10.00">1</text>
</a>
</g>
</g>
<!-- dir_308afe6c0c0e65dd84efc4369dd1efeb&#45;&gt;dir_749af01c4b44bc0c6a4f35b0ce4584fa -->
<g id="edge37" class="edge">
<title>dir_308afe6c0c0e65dd84efc4369dd1efeb&#45;&gt;dir_749af01c4b44bc0c6a4f35b0ce4584fa</title>
<path fill="none" stroke="black" d="M222.8,-215.87C245.82,-190.92 288.69,-144.45 315.15,-115.77"/>
<polygon fill="black" stroke="black" points="317.93,-117.91 322.14,-108.19 312.79,-113.17 317.93,-117.91"/>
<g id="a_edge37&#45;headlabel"><a xlink:href="dir_000065_000018.html" target="_top" xlink:title="1">
<text text-anchor="middle" x="317.58" y="-119.98" font-family="Helvetica,sans-Serif" font-size="10.00">1</text>
</a>
</g>
</g>
<!-- dir_eb46814348a9452de37b70307a191b78&#45;&gt;dir_7370e63381a3da0a5abca9ffd8b57676 -->
<g id="edge38" class="edge">
<title>dir_eb46814348a9452de37b70307a191b78&#45;&gt;dir_7370e63381a3da0a5abca9ffd8b57676</title>
<path fill="none" stroke="black" d="M511.69,-215.93C506.96,-185.3 494.15,-119.74 466,-72 459.82,-61.52 451.13,-51.57 442.62,-43.18"/>
<polygon fill="black" stroke="black" points="444.94,-40.54 435.26,-36.23 440.13,-45.64 444.94,-40.54"/>
<g id="a_edge38&#45;headlabel"><a xlink:href="dir_000008_000023.html" target="_top" xlink:title="1">
<text text-anchor="middle" x="449.5" y="-38.45" font-family="Helvetica,sans-Serif" font-size="10.00">1</text>
</a>
</g>
</g>
</g>
</svg>
        <g id="navigator" transform="translate(0 0)" fill="#404254">
                <rect fill="#f2f5e9" fill-opacity="0.5" stroke="#606060" stroke-width=".5" x="0" y="0" width="60" height="60"/>
                <use id="zoomplus" xlink:href="#zoomPlus" x="17" y="9" onmousedown="handleZoom(evt,'in')"/>
                <use id="zoomminus" xlink:href="#zoomMin" x="42" y="9" onmousedown="handleZoom(evt,'out')"/>
                <use id="reset" xlink:href="#resetDef" x="30" y="36" onmousedown="handleReset()"/>
                <g id="arrowUp" xlink:href="#dirArrow" transform="translate(30 24)" onmousedown="handlePan(0,-1)">
                  <use xlink:href="#rim" fill="#404040">
                        <set attributeName="fill" to="#808080" begin="arrowUp.mouseover" end="arrowUp.mouseout"/>
                  </use>
                  <path fill="none" stroke="white" stroke-width="1.5" d="M0,-3.0v7 M-2.5,-0.5L0,-3.0L2.5,-0.5"/>
                </g>
                <g id="arrowRight" xlink:href="#dirArrow" transform="rotate(90) translate(36 -43)" onmousedown="handlePan(1,0)">
                  <use xlink:href="#rim" fill="#404040">
                        <set attributeName="fill" to="#808080" begin="arrowRight.mouseover" end="arrowRight.mouseout"/>
                  </use>
                  <path fill="none" stroke="white" stroke-width="1.5" d="M0,-3.0v7 M-2.5,-0.5L0,-3.0L2.5,-0.5"/>
                </g>
                <g id="arrowDown" xlink:href="#dirArrow" transform="rotate(180) translate(-30 -48)" onmousedown="handlePan(0,1)">
                  <use xlink:href="#rim" fill="#404040">
                        <set attributeName="fill" to="#808080" begin="arrowDown.mouseover" end="arrowDown.mouseout"/>
                  </use>
                  <path fill="none" stroke="white" stroke-width="1.5" d="M0,-3.0v7 M-2.5,-0.5L0,-3.0L2.5,-0.5"/>
                </g>
                <g id="arrowLeft" xlink:href="#dirArrow" transform="rotate(270) translate(-36 17)" onmousedown="handlePan(-1,0)">
                  <use xlink:href="#rim" fill="#404040">
                        <set attributeName="fill" to="#808080" begin="arrowLeft.mouseover" end="arrowLeft.mouseout"/>
                  </use>
                  <path fill="none" stroke="white" stroke-width="1.5" d="M0,-3.0v7 M-2.5,-0.5L0,-3.0L2.5,-0.5"/>
                </g>
        </g>
        <svg viewBox="0 0 15 15" width="100%" height="30px" preserveAspectRatio="xMaxYMin meet">
         <g id="arrow_out" transform="scale(0.3 0.3)">
          <a xlink:href="dir_f52cc97fa168447a8399892c289ffd5a_dep_org.svg" target="_base">
           <rect id="button" ry="5" rx="5" y="6" x="6" height="38" width="38"
                fill="#f2f5e9" fill-opacity="0.5" stroke="#606060" stroke-width="1.0"/>
           <path id="arrow"
             d="M 11.500037,31.436501 C 11.940474,20.09759 22.043105,11.32322 32.158766,21.979434 L 37.068811,17.246167 C 37.068811,17.246167 37.088388,32 37.088388,32 L 22.160133,31.978069 C 22.160133,31.978069 26.997745,27.140456 26.997745,27.140456 C 18.528582,18.264221 13.291696,25.230495 11.500037,31.436501 z"
             style="fill:#404040;"/>
          </a>
         </g>
        </svg>
</svg>
