<?xml version="1.0" encoding="UTF-8" standalone="no"?>
<!DOCTYPE svg PUBLIC "-//W3C//DTD SVG 1.1//EN"
 "http://www.w3.org/Graphics/SVG/1.1/DTD/svg11.dtd">
<!-- Generated by graphviz version 2.43.0 (0)
 -->
<!-- Title: /home/nico/joda_tmp/tmp&#45;joda&#45;dirs/JODA&#45;gh/libs/joda/core/modules/indexing/include/joda/indexing Pages: 1 -->
<svg width="136pt" height="295pt"
 viewBox="0.00 0.00 136.00 295.00" xmlns="http://www.w3.org/2000/svg" xmlns:xlink="http://www.w3.org/1999/xlink">
<g id="graph0" class="graph" transform="scale(1 1) rotate(0) translate(4 291)">
<title>/home/nico/joda_tmp/tmp&#45;joda&#45;dirs/JODA&#45;gh/libs/joda/core/modules/indexing/include/joda/indexing</title>
<polygon fill="white" stroke="transparent" points="-4,4 -4,-291 132,-291 132,4 -4,4"/>
<g id="clust1" class="cluster">
<title>clusterdir_708f51c5f16f12b1053fea2908b3323d</title>
<g id="a_clust1"><a xlink:href="dir_708f51c5f16f12b1053fea2908b3323d.html" target="_top" xlink:title="joda">
<polygon fill="#ddddee" stroke="black" points="8,-208 8,-279 84,-279 84,-208 8,-208"/>
<text text-anchor="middle" x="46" y="-267" font-family="Helvetica,sans-Serif" font-size="10.00">joda</text>
</a>
</g>
</g>
<!-- dir_4791a13a199aae37f37ced13f1f93336 -->
<g id="node1" class="node">
<title>dir_4791a13a199aae37f37ced13f1f93336</title>
<g id="a_node1"><a xlink:href="dir_4791a13a199aae37f37ced13f1f93336.html" target="_top" xlink:title="indexing">
<polygon fill="#eeeeff" stroke="black" points="75.5,-252 16.5,-252 16.5,-216 75.5,-216 75.5,-252"/>
<text text-anchor="middle" x="46" y="-231.5" font-family="Helvetica,sans-Serif" font-size="10.00">indexing</text>
</a>
</g>
</g>
<!-- dir_308afe6c0c0e65dd84efc4369dd1efeb -->
<g id="node2" class="node">
<title>dir_308afe6c0c0e65dd84efc4369dd1efeb</title>
<g id="a_node2"><a xlink:href="dir_308afe6c0c0e65dd84efc4369dd1efeb.html" target="_top" xlink:title="query">
<polygon fill="white" stroke="red" points="82,-108 28,-108 28,-72 82,-72 82,-108"/>
<text text-anchor="middle" x="55" y="-87.5" font-family="Helvetica,sans-Serif" font-size="10.00">query</text>
</a>
</g>
</g>
<!-- dir_4791a13a199aae37f37ced13f1f93336&#45;&gt;dir_308afe6c0c0e65dd84efc4369dd1efeb -->
<g id="edge4" class="edge">
<title>dir_4791a13a199aae37f37ced13f1f93336&#45;&gt;dir_308afe6c0c0e65dd84efc4369dd1efeb</title>
<path fill="none" stroke="black" d="M47.09,-215.87C48.62,-191.67 51.44,-147.21 53.26,-118.39"/>
<polygon fill="black" stroke="black" points="56.77,-118.39 53.91,-108.19 49.78,-117.95 56.77,-118.39"/>
<g id="a_edge4&#45;headlabel"><a xlink:href="dir_000041_000065.html" target="_top" xlink:title="1">
<text text-anchor="middle" x="59.38" y="-119.66" font-family="Helvetica,sans-Serif" font-size="10.00">1</text>
</a>
</g>
</g>
<!-- dir_593657602c74fd2b2e9635270b1bdea2 -->
<g id="node3" class="node">
<title>dir_593657602c74fd2b2e9635270b1bdea2</title>
<g id="a_node3"><a xlink:href="dir_593657602c74fd2b2e9635270b1bdea2.html" target="_top" xlink:title="storage">
<polygon fill="white" stroke="red" points="82,-36 28,-36 28,0 82,0 82,-36"/>
<text text-anchor="middle" x="55" y="-15.5" font-family="Helvetica,sans-Serif" font-size="10.00">storage</text>
</a>
</g>
</g>
<!-- dir_4791a13a199aae37f37ced13f1f93336&#45;&gt;dir_593657602c74fd2b2e9635270b1bdea2 -->
<g id="edge5" class="edge">
<title>dir_4791a13a199aae37f37ced13f1f93336&#45;&gt;dir_593657602c74fd2b2e9635270b1bdea2</title>
<path fill="none" stroke="black" d="M37.98,-215.74C25.24,-185.88 3.34,-122.93 19,-72 22.01,-62.22 27.51,-52.62 33.32,-44.33"/>
<polygon fill="black" stroke="black" points="36.19,-46.33 39.39,-36.23 30.59,-42.13 36.19,-46.33"/>
<g id="a_edge5&#45;headlabel"><a xlink:href="dir_000041_000125.html" target="_top" xlink:title="1">
<text text-anchor="middle" x="36.31" y="-48.41" font-family="Helvetica,sans-Serif" font-size="10.00">1</text>
</a>
</g>
</g>
<!-- dir_87cf3f394852c0a9db54c7bb4ca3b0b1 -->
<g id="node4" class="node">
<title>dir_87cf3f394852c0a9db54c7bb4ca3b0b1</title>
<g id="a_node4"><a xlink:href="dir_87cf3f394852c0a9db54c7bb4ca3b0b1.html" target="_top" xlink:title="src">
<polygon fill="white" stroke="red" points="128,-180 74,-180 74,-144 128,-144 128,-180"/>
<text text-anchor="middle" x="101" y="-159.5" font-family="Helvetica,sans-Serif" font-size="10.00">src</text>
</a>
</g>
</g>
<!-- dir_4791a13a199aae37f37ced13f1f93336&#45;&gt;dir_87cf3f394852c0a9db54c7bb4ca3b0b1 -->
<g id="edge6" class="edge">
<title>dir_4791a13a199aae37f37ced13f1f93336&#45;&gt;dir_87cf3f394852c0a9db54c7bb4ca3b0b1</title>
<path fill="none" stroke="black" d="M59.6,-215.7C66.12,-207.39 74.07,-197.28 81.25,-188.14"/>
<polygon fill="black" stroke="black" points="84.13,-190.13 87.56,-180.1 78.63,-185.81 84.13,-190.13"/>
<g id="a_edge6&#45;headlabel"><a xlink:href="dir_000041_000042.html" target="_top" xlink:title="1">
<text text-anchor="middle" x="84.15" y="-192.21" font-family="Helvetica,sans-Serif" font-size="10.00">1</text>
</a>
</g>
</g>
<!-- dir_308afe6c0c0e65dd84efc4369dd1efeb&#45;&gt;dir_593657602c74fd2b2e9635270b1bdea2 -->
<g id="edge7" class="edge">
<title>dir_308afe6c0c0e65dd84efc4369dd1efeb&#45;&gt;dir_593657602c74fd2b2e9635270b1bdea2</title>
<path fill="none" stroke="black" d="M49.08,-71.7C48.29,-63.98 48.06,-54.71 48.4,-46.11"/>
<polygon fill="black" stroke="black" points="51.9,-46.32 49.1,-36.1 44.92,-45.84 51.9,-46.32"/>
<g id="a_edge7&#45;headlabel"><a xlink:href="dir_000065_000125.html" target="_top" xlink:title="11">
<text text-anchor="middle" x="54.48" y="-47.61" font-family="Helvetica,sans-Serif" font-size="10.00">11</text>
</a>
</g>
</g>
<!-- dir_593657602c74fd2b2e9635270b1bdea2&#45;&gt;dir_308afe6c0c0e65dd84efc4369dd1efeb -->
<g id="edge3" class="edge">
<title>dir_593657602c74fd2b2e9635270b1bdea2&#45;&gt;dir_308afe6c0c0e65dd84efc4369dd1efeb</title>
<path fill="none" stroke="black" d="M60.9,-36.1C61.7,-43.79 61.94,-53.05 61.6,-61.67"/>
<polygon fill="black" stroke="black" points="58.11,-61.48 60.92,-71.7 65.09,-61.96 58.11,-61.48"/>
<g id="a_edge3&#45;headlabel"><a xlink:href="dir_000125_000065.html" target="_top" xlink:title="4">
<text text-anchor="middle" x="55.52" y="-55.2" font-family="Helvetica,sans-Serif" font-size="10.00">4</text>
</a>
</g>
</g>
<!-- dir_87cf3f394852c0a9db54c7bb4ca3b0b1&#45;&gt;dir_308afe6c0c0e65dd84efc4369dd1efeb -->
<g id="edge1" class="edge">
<title>dir_87cf3f394852c0a9db54c7bb4ca3b0b1&#45;&gt;dir_308afe6c0c0e65dd84efc4369dd1efeb</title>
<path fill="none" stroke="black" d="M89.63,-143.7C84.28,-135.56 77.8,-125.69 71.89,-116.7"/>
<polygon fill="black" stroke="black" points="74.66,-114.54 66.24,-108.1 68.81,-118.38 74.66,-114.54"/>
<g id="a_edge1&#45;headlabel"><a xlink:href="dir_000042_000065.html" target="_top" xlink:title="3">
<text text-anchor="middle" x="79" y="-113.48" font-family="Helvetica,sans-Serif" font-size="10.00">3</text>
</a>
</g>
</g>
<!-- dir_87cf3f394852c0a9db54c7bb4ca3b0b1&#45;&gt;dir_593657602c74fd2b2e9635270b1bdea2 -->
<g id="edge2" class="edge">
<title>dir_87cf3f394852c0a9db54c7bb4ca3b0b1&#45;&gt;dir_593657602c74fd2b2e9635270b1bdea2</title>
<path fill="none" stroke="black" d="M101.48,-143.71C101.44,-125.35 99.79,-95.77 91,-72 87.45,-62.4 81.8,-52.85 76.02,-44.56"/>
<polygon fill="black" stroke="black" points="78.77,-42.4 70.03,-36.42 73.14,-46.55 78.77,-42.4"/>
<g id="a_edge2&#45;headlabel"><a xlink:href="dir_000042_000125.html" target="_top" xlink:title="1">
<text text-anchor="middle" x="83.19" y="-41.11" font-family="Helvetica,sans-Serif" font-size="10.00">1</text>
</a>
</g>
</g>
</g>
</svg>
