<?xml version="1.0" encoding="UTF-8" standalone="no"?>
<!DOCTYPE svg PUBLIC "-//W3C//DTD SVG 1.1//EN"
 "http://www.w3.org/Graphics/SVG/1.1/DTD/svg11.dtd">
<!-- Generated by graphviz version 2.43.0 (0)
 -->
<!-- Title: /home/nico/joda_tmp/tmp&#45;joda&#45;dirs/JODA&#45;gh/libs/joda/core/modules/parser/src Pages: 1 -->
<svg width="367pt" height="375pt"
 viewBox="0.00 0.00 366.65 375.00" xmlns="http://www.w3.org/2000/svg" xmlns:xlink="http://www.w3.org/1999/xlink">
<g id="graph0" class="graph" transform="scale(1 1) rotate(0) translate(4 371)">
<title>/home/nico/joda_tmp/tmp&#45;joda&#45;dirs/JODA&#45;gh/libs/joda/core/modules/parser/src</title>
<polygon fill="white" stroke="transparent" points="-4,4 -4,-371 362.65,-371 362.65,4 -4,4"/>
<g id="clust1" class="cluster">
<title>clusterdir_62b8f01a6102de05602805a3c9feb8cc</title>
<g id="a_clust1"><a xlink:href="dir_62b8f01a6102de05602805a3c9feb8cc.html" target="_top" xlink:title="parser">
<polygon fill="#ddddee" stroke="black" points="16.3,-136 16.3,-359 174.3,-359 174.3,-136 16.3,-136"/>
<text text-anchor="middle" x="95.3" y="-347" font-family="Helvetica,sans-Serif" font-size="10.00">parser</text>
</a>
</g>
</g>
<g id="clust2" class="cluster">
<title>clusterdir_38b92ba1c73f4e6783b4d47cddee0f4a</title>
<g id="a_clust2"><a xlink:href="dir_38b92ba1c73f4e6783b4d47cddee0f4a.html" target="_top">
<polygon fill="#eeeeff" stroke="black" points="24.3,-208 24.3,-332 166.3,-332 166.3,-208 24.3,-208"/>
</a>
</g>
</g>
<!-- dir_2d04697389973bf2a6f1e22a3c81d9c2 -->
<g id="node1" class="node">
<title>dir_2d04697389973bf2a6f1e22a3c81d9c2</title>
<g id="a_node1"><a xlink:href="dir_2d04697389973bf2a6f1e22a3c81d9c2.html" target="_top" xlink:title="include">
<polygon fill="white" stroke="red" points="78.3,-180 24.3,-180 24.3,-144 78.3,-144 78.3,-180"/>
<text text-anchor="middle" x="51.3" y="-159.5" font-family="Helvetica,sans-Serif" font-size="10.00">include</text>
</a>
</g>
</g>
<!-- dir_593657602c74fd2b2e9635270b1bdea2 -->
<g id="node5" class="node">
<title>dir_593657602c74fd2b2e9635270b1bdea2</title>
<g id="a_node5"><a xlink:href="dir_593657602c74fd2b2e9635270b1bdea2.html" target="_top" xlink:title="storage">
<polygon fill="white" stroke="red" points="264.3,-180 210.3,-180 210.3,-144 264.3,-144 264.3,-180"/>
<text text-anchor="middle" x="237.3" y="-159.5" font-family="Helvetica,sans-Serif" font-size="10.00">storage</text>
</a>
</g>
</g>
<!-- dir_2d04697389973bf2a6f1e22a3c81d9c2&#45;&gt;dir_593657602c74fd2b2e9635270b1bdea2 -->
<g id="edge14" class="edge">
<title>dir_2d04697389973bf2a6f1e22a3c81d9c2&#45;&gt;dir_593657602c74fd2b2e9635270b1bdea2</title>
<path fill="none" stroke="black" d="M78.55,-162C119.03,-162 159.52,-162 200,-162"/>
<polygon fill="black" stroke="black" points="200.02,-165.5 210.02,-162 200.02,-158.5 200.02,-165.5"/>
<g id="a_edge14&#45;headlabel"><a xlink:href="dir_000062_000125.html" target="_top" xlink:title="5">
<text text-anchor="middle" x="196.42" y="-165.84" font-family="Helvetica,sans-Serif" font-size="10.00">5</text>
</a>
</g>
</g>
<!-- dir_7370e63381a3da0a5abca9ffd8b57676 -->
<g id="node7" class="node">
<title>dir_7370e63381a3da0a5abca9ffd8b57676</title>
<g id="a_node7"><a xlink:href="dir_7370e63381a3da0a5abca9ffd8b57676.html" target="_top" xlink:title="config">
<polygon fill="white" stroke="red" points="285.3,-36 231.3,-36 231.3,0 285.3,0 285.3,-36"/>
<text text-anchor="middle" x="258.3" y="-15.5" font-family="Helvetica,sans-Serif" font-size="10.00">config</text>
</a>
</g>
</g>
<!-- dir_2d04697389973bf2a6f1e22a3c81d9c2&#45;&gt;dir_7370e63381a3da0a5abca9ffd8b57676 -->
<g id="edge16" class="edge">
<title>dir_2d04697389973bf2a6f1e22a3c81d9c2&#45;&gt;dir_7370e63381a3da0a5abca9ffd8b57676</title>
<path fill="none" stroke="black" d="M47.54,-143.75C44.31,-124.03 42.51,-91.93 59.3,-72 79.94,-47.51 169.15,-31.34 220.85,-23.84"/>
<polygon fill="black" stroke="black" points="221.56,-27.27 230.97,-22.41 220.58,-20.34 221.56,-27.27"/>
<g id="a_edge16&#45;headlabel"><a xlink:href="dir_000062_000023.html" target="_top" xlink:title="1">
<text text-anchor="middle" x="218.39" y="-28.09" font-family="Helvetica,sans-Serif" font-size="10.00">1</text>
</a>
</g>
</g>
<!-- dir_749af01c4b44bc0c6a4f35b0ce4584fa -->
<g id="node8" class="node">
<title>dir_749af01c4b44bc0c6a4f35b0ce4584fa</title>
<g id="a_node8"><a xlink:href="dir_749af01c4b44bc0c6a4f35b0ce4584fa.html" target="_top" xlink:title="concurrency">
<polygon fill="white" stroke="red" points="144.3,-108 68.3,-108 68.3,-72 144.3,-72 144.3,-108"/>
<text text-anchor="middle" x="106.3" y="-87.5" font-family="Helvetica,sans-Serif" font-size="10.00">concurrency</text>
</a>
</g>
</g>
<!-- dir_2d04697389973bf2a6f1e22a3c81d9c2&#45;&gt;dir_749af01c4b44bc0c6a4f35b0ce4584fa -->
<g id="edge15" class="edge">
<title>dir_2d04697389973bf2a6f1e22a3c81d9c2&#45;&gt;dir_749af01c4b44bc0c6a4f35b0ce4584fa</title>
<path fill="none" stroke="black" d="M64.9,-143.7C71.43,-135.39 79.37,-125.28 86.55,-116.14"/>
<polygon fill="black" stroke="black" points="89.44,-118.13 92.86,-108.1 83.93,-113.81 89.44,-118.13"/>
<g id="a_edge15&#45;headlabel"><a xlink:href="dir_000062_000018.html" target="_top" xlink:title="5">
<text text-anchor="middle" x="89.45" y="-120.21" font-family="Helvetica,sans-Serif" font-size="10.00">5</text>
</a>
</g>
</g>
<!-- dir_38b92ba1c73f4e6783b4d47cddee0f4a -->
<g id="node2" class="node">
<title>dir_38b92ba1c73f4e6783b4d47cddee0f4a</title>
<text text-anchor="middle" x="59.3" y="-303.5" font-family="Helvetica,sans-Serif" font-size="10.00">src</text>
</g>
<!-- dir_ec6fddf1e22d35b2046c8059e11bff49 -->
<g id="node4" class="node">
<title>dir_ec6fddf1e22d35b2046c8059e11bff49</title>
<g id="a_node4"><a xlink:href="dir_ec6fddf1e22d35b2046c8059e11bff49.html" target="_top" xlink:title="readers">
<polygon fill="white" stroke="red" points="133.3,-252 79.3,-252 79.3,-216 133.3,-216 133.3,-252"/>
<text text-anchor="middle" x="106.3" y="-231.5" font-family="Helvetica,sans-Serif" font-size="10.00">readers</text>
</a>
</g>
</g>
<!-- dir_38b92ba1c73f4e6783b4d47cddee0f4a&#45;&gt;dir_ec6fddf1e22d35b2046c8059e11bff49 -->
<g id="edge1" class="edge">
<title>dir_38b92ba1c73f4e6783b4d47cddee0f4a&#45;&gt;dir_ec6fddf1e22d35b2046c8059e11bff49</title>
<path fill="none" stroke="black" d="M70.92,-287.7C76.44,-279.47 83.15,-269.48 89.23,-260.42"/>
<polygon fill="black" stroke="black" points="92.15,-262.36 94.82,-252.1 86.34,-258.46 92.15,-262.36"/>
<g id="a_edge1&#45;headlabel"><a xlink:href="dir_000066_000069.html" target="_top" xlink:title="3">
<text text-anchor="middle" x="92.5" y="-264.42" font-family="Helvetica,sans-Serif" font-size="10.00">3</text>
</a>
</g>
</g>
<!-- dir_7246b831a97f1096a718d1c7108a2a93 -->
<g id="node3" class="node">
<title>dir_7246b831a97f1096a718d1c7108a2a93</title>
<g id="a_node3"><a xlink:href="dir_7246b831a97f1096a718d1c7108a2a93.html" target="_top" xlink:title="parsers">
<polygon fill="white" stroke="red" points="158.3,-324 104.3,-324 104.3,-288 158.3,-288 158.3,-324"/>
<text text-anchor="middle" x="131.3" y="-303.5" font-family="Helvetica,sans-Serif" font-size="10.00">parsers</text>
</a>
</g>
</g>
<!-- dir_7246b831a97f1096a718d1c7108a2a93&#45;&gt;dir_2d04697389973bf2a6f1e22a3c81d9c2 -->
<g id="edge8" class="edge">
<title>dir_7246b831a97f1096a718d1c7108a2a93&#45;&gt;dir_2d04697389973bf2a6f1e22a3c81d9c2</title>
<path fill="none" stroke="black" d="M104.57,-287.83C92.33,-278.63 78.71,-266.26 70.3,-252 59.23,-233.23 54.57,-208.85 52.63,-190.35"/>
<polygon fill="black" stroke="black" points="56.11,-189.9 51.78,-180.23 49.13,-190.49 56.11,-189.9"/>
<g id="a_edge8&#45;headlabel"><a xlink:href="dir_000067_000062.html" target="_top" xlink:title="3">
<text text-anchor="middle" x="59.24" y="-190.74" font-family="Helvetica,sans-Serif" font-size="10.00">3</text>
</a>
</g>
</g>
<!-- dir_7246b831a97f1096a718d1c7108a2a93&#45;&gt;dir_593657602c74fd2b2e9635270b1bdea2 -->
<g id="edge9" class="edge">
<title>dir_7246b831a97f1096a718d1c7108a2a93&#45;&gt;dir_593657602c74fd2b2e9635270b1bdea2</title>
<path fill="none" stroke="black" d="M157.46,-287.95C170.4,-278.53 185.51,-265.93 196.3,-252 210.81,-233.28 221.66,-208.6 228.55,-189.98"/>
<polygon fill="black" stroke="black" points="231.92,-190.93 231.96,-180.33 225.32,-188.59 231.92,-190.93"/>
<g id="a_edge9&#45;headlabel"><a xlink:href="dir_000067_000125.html" target="_top" xlink:title="9">
<text text-anchor="middle" x="233.4" y="-192.76" font-family="Helvetica,sans-Serif" font-size="10.00">9</text>
</a>
</g>
</g>
<!-- dir_686a2d3b8380929f3bfddf3b00ff951b -->
<g id="node6" class="node">
<title>dir_686a2d3b8380929f3bfddf3b00ff951b</title>
<g id="a_node6"><a xlink:href="dir_686a2d3b8380929f3bfddf3b00ff951b.html" target="_top" xlink:title="misc">
<polygon fill="white" stroke="red" points="340.3,-108 286.3,-108 286.3,-72 340.3,-72 340.3,-108"/>
<text text-anchor="middle" x="313.3" y="-87.5" font-family="Helvetica,sans-Serif" font-size="10.00">misc</text>
</a>
</g>
</g>
<!-- dir_7246b831a97f1096a718d1c7108a2a93&#45;&gt;dir_686a2d3b8380929f3bfddf3b00ff951b -->
<g id="edge10" class="edge">
<title>dir_7246b831a97f1096a718d1c7108a2a93&#45;&gt;dir_686a2d3b8380929f3bfddf3b00ff951b</title>
<path fill="none" stroke="black" d="M158.6,-294.22C198.28,-276.9 270.51,-238.73 301.3,-180 311.29,-160.95 314,-136.6 314.37,-118.18"/>
<polygon fill="black" stroke="black" points="317.87,-118.1 314.36,-108.11 310.87,-118.11 317.87,-118.1"/>
<g id="a_edge10&#45;headlabel"><a xlink:href="dir_000067_000049.html" target="_top" xlink:title="1">
<text text-anchor="middle" x="320.71" y="-119.19" font-family="Helvetica,sans-Serif" font-size="10.00">1</text>
</a>
</g>
</g>
<!-- dir_7246b831a97f1096a718d1c7108a2a93&#45;&gt;dir_7370e63381a3da0a5abca9ffd8b57676 -->
<g id="edge11" class="edge">
<title>dir_7246b831a97f1096a718d1c7108a2a93&#45;&gt;dir_7370e63381a3da0a5abca9ffd8b57676</title>
<path fill="none" stroke="black" d="M158.48,-299.86C188.61,-293.06 237.42,-278.71 271.3,-252 301.7,-228.04 302.08,-214.15 320.3,-180 343.7,-136.15 374.07,-115.09 349.3,-72 337.64,-51.7 314.87,-38.45 295.03,-30.27"/>
<polygon fill="black" stroke="black" points="296.18,-26.97 285.59,-26.66 293.68,-33.5 296.18,-26.97"/>
<g id="a_edge11&#45;headlabel"><a xlink:href="dir_000067_000023.html" target="_top" xlink:title="3">
<text text-anchor="middle" x="300.55" y="-23.1" font-family="Helvetica,sans-Serif" font-size="10.00">3</text>
</a>
</g>
</g>
<!-- dir_7246b831a97f1096a718d1c7108a2a93&#45;&gt;dir_749af01c4b44bc0c6a4f35b0ce4584fa -->
<g id="edge12" class="edge">
<title>dir_7246b831a97f1096a718d1c7108a2a93&#45;&gt;dir_749af01c4b44bc0c6a4f35b0ce4584fa</title>
<path fill="none" stroke="black" d="M135.77,-287.95C138.24,-277.63 141.05,-264.15 142.3,-252 144.3,-232.55 145.19,-227.34 142.3,-208 137.36,-174.91 130.16,-167.98 120.3,-136 118.48,-130.09 116.51,-123.75 114.65,-117.74"/>
<polygon fill="black" stroke="black" points="117.96,-116.6 111.64,-108.09 111.27,-118.68 117.96,-116.6"/>
<g id="a_edge12&#45;headlabel"><a xlink:href="dir_000067_000018.html" target="_top" xlink:title="3">
<text text-anchor="middle" x="121.74" y="-116.68" font-family="Helvetica,sans-Serif" font-size="10.00">3</text>
</a>
</g>
</g>
<!-- dir_ec6fddf1e22d35b2046c8059e11bff49&#45;&gt;dir_2d04697389973bf2a6f1e22a3c81d9c2 -->
<g id="edge17" class="edge">
<title>dir_ec6fddf1e22d35b2046c8059e11bff49&#45;&gt;dir_2d04697389973bf2a6f1e22a3c81d9c2</title>
<path fill="none" stroke="black" d="M92.71,-215.7C86.18,-207.39 78.23,-197.28 71.06,-188.14"/>
<polygon fill="black" stroke="black" points="73.67,-185.81 64.74,-180.1 68.17,-190.13 73.67,-185.81"/>
<g id="a_edge17&#45;headlabel"><a xlink:href="dir_000069_000062.html" target="_top" xlink:title="11">
<text text-anchor="middle" x="78.13" y="-184.38" font-family="Helvetica,sans-Serif" font-size="10.00">11</text>
</a>
</g>
</g>
<!-- dir_ec6fddf1e22d35b2046c8059e11bff49&#45;&gt;dir_593657602c74fd2b2e9635270b1bdea2 -->
<g id="edge18" class="edge">
<title>dir_ec6fddf1e22d35b2046c8059e11bff49&#45;&gt;dir_593657602c74fd2b2e9635270b1bdea2</title>
<path fill="none" stroke="black" d="M133.45,-218.5C153.12,-207.98 179.92,-193.66 201.37,-182.2"/>
<polygon fill="black" stroke="black" points="203.02,-185.29 210.19,-177.49 199.72,-179.11 203.02,-185.29"/>
<g id="a_edge18&#45;headlabel"><a xlink:href="dir_000069_000125.html" target="_top" xlink:title="4">
<text text-anchor="middle" x="201.19" y="-186.98" font-family="Helvetica,sans-Serif" font-size="10.00">4</text>
</a>
</g>
</g>
<!-- dir_ec6fddf1e22d35b2046c8059e11bff49&#45;&gt;dir_686a2d3b8380929f3bfddf3b00ff951b -->
<g id="edge19" class="edge">
<title>dir_ec6fddf1e22d35b2046c8059e11bff49&#45;&gt;dir_686a2d3b8380929f3bfddf3b00ff951b</title>
<path fill="none" stroke="black" d="M133.33,-231.14C169.39,-227.31 233.33,-215.62 273.3,-180 291.42,-163.86 301.79,-137.91 307.4,-118.19"/>
<polygon fill="black" stroke="black" points="310.86,-118.81 309.99,-108.25 304.08,-117.05 310.86,-118.81"/>
<g id="a_edge19&#45;headlabel"><a xlink:href="dir_000069_000049.html" target="_top" xlink:title="3">
<text text-anchor="middle" x="312.7" y="-120.5" font-family="Helvetica,sans-Serif" font-size="10.00">3</text>
</a>
</g>
</g>
<!-- dir_ec6fddf1e22d35b2046c8059e11bff49&#45;&gt;dir_7370e63381a3da0a5abca9ffd8b57676 -->
<g id="edge20" class="edge">
<title>dir_ec6fddf1e22d35b2046c8059e11bff49&#45;&gt;dir_7370e63381a3da0a5abca9ffd8b57676</title>
<path fill="none" stroke="black" d="M79.04,-225.89C56.71,-218.48 26.57,-204.43 12.3,-180 -12.77,-137.09 3.05,-103.73 41.3,-72 92.92,-29.19 173.81,-20.03 220.88,-18.6"/>
<polygon fill="black" stroke="black" points="221.03,-22.09 230.95,-18.39 220.89,-15.09 221.03,-22.09"/>
<g id="a_edge20&#45;headlabel"><a xlink:href="dir_000069_000023.html" target="_top" xlink:title="6">
<text text-anchor="middle" x="217.49" y="-22.5" font-family="Helvetica,sans-Serif" font-size="10.00">6</text>
</a>
</g>
</g>
<!-- dir_ec6fddf1e22d35b2046c8059e11bff49&#45;&gt;dir_749af01c4b44bc0c6a4f35b0ce4584fa -->
<g id="edge21" class="edge">
<title>dir_ec6fddf1e22d35b2046c8059e11bff49&#45;&gt;dir_749af01c4b44bc0c6a4f35b0ce4584fa</title>
<path fill="none" stroke="black" d="M106.3,-215.87C106.3,-191.67 106.3,-147.21 106.3,-118.39"/>
<polygon fill="black" stroke="black" points="109.8,-118.19 106.3,-108.19 102.8,-118.19 109.8,-118.19"/>
<g id="a_edge21&#45;headlabel"><a xlink:href="dir_000069_000018.html" target="_top" xlink:title="4">
<text text-anchor="middle" x="112.64" y="-119.28" font-family="Helvetica,sans-Serif" font-size="10.00">4</text>
</a>
</g>
</g>
<!-- dir_eb46814348a9452de37b70307a191b78 -->
<g id="node9" class="node">
<title>dir_eb46814348a9452de37b70307a191b78</title>
<g id="a_node9"><a xlink:href="dir_eb46814348a9452de37b70307a191b78.html" target="_top" xlink:title="filesystem">
<polygon fill="white" stroke="red" points="230.3,-108 162.3,-108 162.3,-72 230.3,-72 230.3,-108"/>
<text text-anchor="middle" x="196.3" y="-87.5" font-family="Helvetica,sans-Serif" font-size="10.00">filesystem</text>
</a>
</g>
</g>
<!-- dir_ec6fddf1e22d35b2046c8059e11bff49&#45;&gt;dir_eb46814348a9452de37b70307a191b78 -->
<g id="edge22" class="edge">
<title>dir_ec6fddf1e22d35b2046c8059e11bff49&#45;&gt;dir_eb46814348a9452de37b70307a191b78</title>
<path fill="none" stroke="black" d="M117.16,-215.87C132.77,-191.24 161.67,-145.64 179.9,-116.88"/>
<polygon fill="black" stroke="black" points="183.01,-118.51 185.41,-108.19 177.1,-114.76 183.01,-118.51"/>
<g id="a_edge22&#45;headlabel"><a xlink:href="dir_000069_000008.html" target="_top" xlink:title="2">
<text text-anchor="middle" x="183.48" y="-120.57" font-family="Helvetica,sans-Serif" font-size="10.00">2</text>
</a>
</g>
</g>
<!-- dir_593657602c74fd2b2e9635270b1bdea2&#45;&gt;dir_686a2d3b8380929f3bfddf3b00ff951b -->
<g id="edge2" class="edge">
<title>dir_593657602c74fd2b2e9635270b1bdea2&#45;&gt;dir_686a2d3b8380929f3bfddf3b00ff951b</title>
<path fill="none" stroke="black" d="M256.09,-143.7C265.48,-135.05 276.99,-124.45 287.22,-115.03"/>
<polygon fill="black" stroke="black" points="289.75,-117.45 294.73,-108.1 285.01,-112.3 289.75,-117.45"/>
<g id="a_edge2&#45;headlabel"><a xlink:href="dir_000125_000049.html" target="_top" xlink:title="19">
<text text-anchor="middle" x="289.03" y="-119.48" font-family="Helvetica,sans-Serif" font-size="10.00">19</text>
</a>
</g>
</g>
<!-- dir_593657602c74fd2b2e9635270b1bdea2&#45;&gt;dir_7370e63381a3da0a5abca9ffd8b57676 -->
<g id="edge3" class="edge">
<title>dir_593657602c74fd2b2e9635270b1bdea2&#45;&gt;dir_7370e63381a3da0a5abca9ffd8b57676</title>
<path fill="none" stroke="black" d="M239.84,-143.87C243.41,-119.67 249.99,-75.21 254.25,-46.39"/>
<polygon fill="black" stroke="black" points="257.76,-46.59 255.76,-36.19 250.84,-45.57 257.76,-46.59"/>
<g id="a_edge3&#45;headlabel"><a xlink:href="dir_000125_000023.html" target="_top" xlink:title="5">
<text text-anchor="middle" x="260.04" y="-48.07" font-family="Helvetica,sans-Serif" font-size="10.00">5</text>
</a>
</g>
</g>
<!-- dir_593657602c74fd2b2e9635270b1bdea2&#45;&gt;dir_749af01c4b44bc0c6a4f35b0ce4584fa -->
<g id="edge4" class="edge">
<title>dir_593657602c74fd2b2e9635270b1bdea2&#45;&gt;dir_749af01c4b44bc0c6a4f35b0ce4584fa</title>
<path fill="none" stroke="black" d="M210.14,-144C205.56,-141.26 200.82,-138.5 196.3,-136 181.88,-128.02 165.87,-119.81 151.4,-112.62"/>
<polygon fill="black" stroke="black" points="152.66,-109.34 142.14,-108.06 149.56,-115.62 152.66,-109.34"/>
<g id="a_edge4&#45;headlabel"><a xlink:href="dir_000125_000018.html" target="_top" xlink:title="2">
<text text-anchor="middle" x="157.14" y="-105.88" font-family="Helvetica,sans-Serif" font-size="10.00">2</text>
</a>
</g>
</g>
<!-- dir_593657602c74fd2b2e9635270b1bdea2&#45;&gt;dir_eb46814348a9452de37b70307a191b78 -->
<g id="edge5" class="edge">
<title>dir_593657602c74fd2b2e9635270b1bdea2&#45;&gt;dir_eb46814348a9452de37b70307a191b78</title>
<path fill="none" stroke="black" d="M227.17,-143.7C222.45,-135.64 216.74,-125.89 211.52,-116.98"/>
<polygon fill="black" stroke="black" points="214.39,-114.96 206.32,-108.1 208.35,-118.5 214.39,-114.96"/>
<g id="a_edge5&#45;headlabel"><a xlink:href="dir_000125_000008.html" target="_top" xlink:title="2">
<text text-anchor="middle" x="218.66" y="-114.13" font-family="Helvetica,sans-Serif" font-size="10.00">2</text>
</a>
</g>
</g>
<!-- dir_686a2d3b8380929f3bfddf3b00ff951b&#45;&gt;dir_7370e63381a3da0a5abca9ffd8b57676 -->
<g id="edge6" class="edge">
<title>dir_686a2d3b8380929f3bfddf3b00ff951b&#45;&gt;dir_7370e63381a3da0a5abca9ffd8b57676</title>
<path fill="none" stroke="black" d="M293.79,-71.7C286.48,-63.47 278.43,-53.48 271.76,-44.42"/>
<polygon fill="black" stroke="black" points="274.49,-42.23 265.85,-36.1 268.79,-46.28 274.49,-42.23"/>
<g id="a_edge6&#45;headlabel"><a xlink:href="dir_000049_000023.html" target="_top" xlink:title="1">
<text text-anchor="middle" x="278.89" y="-41.01" font-family="Helvetica,sans-Serif" font-size="10.00">1</text>
</a>
</g>
</g>
<!-- dir_7370e63381a3da0a5abca9ffd8b57676&#45;&gt;dir_686a2d3b8380929f3bfddf3b00ff951b -->
<g id="edge7" class="edge">
<title>dir_7370e63381a3da0a5abca9ffd8b57676&#45;&gt;dir_686a2d3b8380929f3bfddf3b00ff951b</title>
<path fill="none" stroke="black" d="M277.64,-36.1C284.93,-44.3 292.99,-54.28 299.69,-63.36"/>
<polygon fill="black" stroke="black" points="296.97,-65.58 305.62,-71.7 302.67,-61.52 296.97,-65.58"/>
<g id="a_edge7&#45;headlabel"><a xlink:href="dir_000023_000049.html" target="_top" xlink:title="1">
<text text-anchor="middle" x="292.57" y="-61.8" font-family="Helvetica,sans-Serif" font-size="10.00">1</text>
</a>
</g>
</g>
<!-- dir_eb46814348a9452de37b70307a191b78&#45;&gt;dir_7370e63381a3da0a5abca9ffd8b57676 -->
<g id="edge13" class="edge">
<title>dir_eb46814348a9452de37b70307a191b78&#45;&gt;dir_7370e63381a3da0a5abca9ffd8b57676</title>
<path fill="none" stroke="black" d="M211.63,-71.7C219.06,-63.3 228.13,-53.07 236.28,-43.86"/>
<polygon fill="black" stroke="black" points="239.14,-45.91 243.15,-36.1 233.9,-41.27 239.14,-45.91"/>
<g id="a_edge13&#45;headlabel"><a xlink:href="dir_000008_000023.html" target="_top" xlink:title="1">
<text text-anchor="middle" x="238.88" y="-47.98" font-family="Helvetica,sans-Serif" font-size="10.00">1</text>
</a>
</g>
</g>
</g>
</svg>
