<?xml version="1.0" encoding="UTF-8" standalone="no"?>
<!DOCTYPE svg PUBLIC "-//W3C//DTD SVG 1.1//EN"
 "http://www.w3.org/Graphics/SVG/1.1/DTD/svg11.dtd">
<!-- Generated by graphviz version 2.43.0 (0)
 -->
<!-- Title: /home/nico/projects/JODA&#45;gh/libs/joda/core/modules/storage/collection/src Pages: 1 -->
<svg width="180pt" height="439pt"
 viewBox="0.00 0.00 180.43 439.00" xmlns="http://www.w3.org/2000/svg" xmlns:xlink="http://www.w3.org/1999/xlink">
<g id="graph0" class="graph" transform="scale(1 1) rotate(0) translate(4 435)">
<title>/home/nico/projects/JODA&#45;gh/libs/joda/core/modules/storage/collection/src</title>
<polygon fill="white" stroke="transparent" points="-4,4 -4,-435 176.43,-435 176.43,4 -4,4"/>
<g id="clust1" class="cluster">
<title>clusterdir_9f44ebdb2572eb806e275c57a4a23e65</title>
<g id="a_clust1"><a xlink:href="dir_9f44ebdb2572eb806e275c57a4a23e65.html" target="_top" xlink:title="collection">
<polygon fill="#ddddee" stroke="black" points="41,-352 41,-423 111,-423 111,-352 41,-352"/>
<text text-anchor="middle" x="76" y="-411" font-family="Helvetica,sans-Serif" font-size="10.00">collection</text>
</a>
</g>
</g>
<!-- dir_3dc45af8a063bb81896cbdbf3706a8f2 -->
<g id="node1" class="node">
<title>dir_3dc45af8a063bb81896cbdbf3706a8f2</title>
<g id="a_node1"><a xlink:href="dir_3dc45af8a063bb81896cbdbf3706a8f2.html" target="_top" xlink:title="src">
<polygon fill="#eeeeff" stroke="black" points="103,-396 49,-396 49,-360 103,-360 103,-396"/>
<text text-anchor="middle" x="76" y="-375.5" font-family="Helvetica,sans-Serif" font-size="10.00">src</text>
</a>
</g>
</g>
<!-- dir_686a2d3b8380929f3bfddf3b00ff951b -->
<g id="node2" class="node">
<title>dir_686a2d3b8380929f3bfddf3b00ff951b</title>
<g id="a_node2"><a xlink:href="dir_686a2d3b8380929f3bfddf3b00ff951b.html" target="_top" xlink:title="misc">
<polygon fill="white" stroke="red" points="120,-108 66,-108 66,-72 120,-72 120,-108"/>
<text text-anchor="middle" x="93" y="-87.5" font-family="Helvetica,sans-Serif" font-size="10.00">misc</text>
</a>
</g>
</g>
<!-- dir_3dc45af8a063bb81896cbdbf3706a8f2&#45;&gt;dir_686a2d3b8380929f3bfddf3b00ff951b -->
<g id="edge2" class="edge">
<title>dir_3dc45af8a063bb81896cbdbf3706a8f2&#45;&gt;dir_686a2d3b8380929f3bfddf3b00ff951b</title>
<path fill="none" stroke="black" d="M70.34,-359.86C58.28,-320.65 33.08,-221.78 57,-144 60.01,-134.22 65.51,-124.62 71.32,-116.33"/>
<polygon fill="black" stroke="black" points="74.19,-118.33 77.39,-108.23 68.59,-114.13 74.19,-118.33"/>
<g id="a_edge2&#45;headlabel"><a xlink:href="dir_000131_000049.html" target="_top" xlink:title="1">
<text text-anchor="middle" x="74.31" y="-120.41" font-family="Helvetica,sans-Serif" font-size="10.00">1</text>
</a>
</g>
</g>
<!-- dir_7370e63381a3da0a5abca9ffd8b57676 -->
<g id="node3" class="node">
<title>dir_7370e63381a3da0a5abca9ffd8b57676</title>
<g id="a_node3"><a xlink:href="dir_7370e63381a3da0a5abca9ffd8b57676.html" target="_top" xlink:title="config">
<polygon fill="white" stroke="red" points="120,-36 66,-36 66,0 120,0 120,-36"/>
<text text-anchor="middle" x="93" y="-15.5" font-family="Helvetica,sans-Serif" font-size="10.00">config</text>
</a>
</g>
</g>
<!-- dir_3dc45af8a063bb81896cbdbf3706a8f2&#45;&gt;dir_7370e63381a3da0a5abca9ffd8b57676 -->
<g id="edge3" class="edge">
<title>dir_3dc45af8a063bb81896cbdbf3706a8f2&#45;&gt;dir_7370e63381a3da0a5abca9ffd8b57676</title>
<path fill="none" stroke="black" d="M59.51,-359.77C37.16,-334.53 0,-285.05 0,-235 0,-235 0,-235 0,-161 0,-113.32 37.15,-69.19 64.48,-43.17"/>
<polygon fill="black" stroke="black" points="66.93,-45.68 71.9,-36.32 62.18,-40.54 66.93,-45.68"/>
<g id="a_edge3&#45;headlabel"><a xlink:href="dir_000131_000023.html" target="_top" xlink:title="1">
<text text-anchor="middle" x="66.21" y="-47.7" font-family="Helvetica,sans-Serif" font-size="10.00">1</text>
</a>
</g>
</g>
<!-- dir_fe9d8bf9624b6804d9d0746c5cf15af4 -->
<g id="node4" class="node">
<title>dir_fe9d8bf9624b6804d9d0746c5cf15af4</title>
<g id="a_node4"><a xlink:href="dir_fe9d8bf9624b6804d9d0746c5cf15af4.html" target="_top" xlink:title="include">
<polygon fill="white" stroke="red" points="158,-324 104,-324 104,-288 158,-288 158,-324"/>
<text text-anchor="middle" x="131" y="-303.5" font-family="Helvetica,sans-Serif" font-size="10.00">include</text>
</a>
</g>
</g>
<!-- dir_3dc45af8a063bb81896cbdbf3706a8f2&#45;&gt;dir_fe9d8bf9624b6804d9d0746c5cf15af4 -->
<g id="edge4" class="edge">
<title>dir_3dc45af8a063bb81896cbdbf3706a8f2&#45;&gt;dir_fe9d8bf9624b6804d9d0746c5cf15af4</title>
<path fill="none" stroke="black" d="M89.6,-359.7C96.12,-351.39 104.07,-341.28 111.25,-332.14"/>
<polygon fill="black" stroke="black" points="114.13,-334.13 117.56,-324.1 108.63,-329.81 114.13,-334.13"/>
<g id="a_edge4&#45;headlabel"><a xlink:href="dir_000131_000127.html" target="_top" xlink:title="1">
<text text-anchor="middle" x="114.15" y="-336.21" font-family="Helvetica,sans-Serif" font-size="10.00">1</text>
</a>
</g>
</g>
<!-- dir_330813092258a011b683878a00fa0d9e -->
<g id="node5" class="node">
<title>dir_330813092258a011b683878a00fa0d9e</title>
<g id="a_node5"><a xlink:href="dir_330813092258a011b683878a00fa0d9e.html" target="_top" xlink:title="join">
<polygon fill="white" stroke="red" points="166,-252 112,-252 112,-216 166,-216 166,-252"/>
<text text-anchor="middle" x="139" y="-231.5" font-family="Helvetica,sans-Serif" font-size="10.00">join</text>
</a>
</g>
</g>
<!-- dir_3dc45af8a063bb81896cbdbf3706a8f2&#45;&gt;dir_330813092258a011b683878a00fa0d9e -->
<g id="edge5" class="edge">
<title>dir_3dc45af8a063bb81896cbdbf3706a8f2&#45;&gt;dir_330813092258a011b683878a00fa0d9e</title>
<path fill="none" stroke="black" d="M103.29,-369.34C124.82,-361.7 153.42,-347.62 167,-324 178.38,-304.21 168.74,-279.23 157.78,-260.78"/>
<polygon fill="black" stroke="black" points="160.7,-258.85 152.38,-252.3 154.8,-262.61 160.7,-258.85"/>
<g id="a_edge5&#45;headlabel"><a xlink:href="dir_000131_000044.html" target="_top" xlink:title="3">
<text text-anchor="middle" x="165.03" y="-257.86" font-family="Helvetica,sans-Serif" font-size="10.00">3</text>
</a>
</g>
</g>
<!-- dir_308afe6c0c0e65dd84efc4369dd1efeb -->
<g id="node6" class="node">
<title>dir_308afe6c0c0e65dd84efc4369dd1efeb</title>
<g id="a_node6"><a xlink:href="dir_308afe6c0c0e65dd84efc4369dd1efeb.html" target="_top" xlink:title="query">
<polygon fill="white" stroke="red" points="120,-180 66,-180 66,-144 120,-144 120,-180"/>
<text text-anchor="middle" x="93" y="-159.5" font-family="Helvetica,sans-Serif" font-size="10.00">query</text>
</a>
</g>
</g>
<!-- dir_3dc45af8a063bb81896cbdbf3706a8f2&#45;&gt;dir_308afe6c0c0e65dd84efc4369dd1efeb -->
<g id="edge6" class="edge">
<title>dir_3dc45af8a063bb81896cbdbf3706a8f2&#45;&gt;dir_308afe6c0c0e65dd84efc4369dd1efeb</title>
<path fill="none" stroke="black" d="M77.36,-359.85C80.3,-322.83 87.27,-235.18 90.82,-190.39"/>
<polygon fill="black" stroke="black" points="94.33,-190.48 91.63,-180.23 87.35,-189.92 94.33,-190.48"/>
<g id="a_edge6&#45;headlabel"><a xlink:href="dir_000131_000065.html" target="_top" xlink:title="1">
<text text-anchor="middle" x="96.87" y="-191.79" font-family="Helvetica,sans-Serif" font-size="10.00">1</text>
</a>
</g>
</g>
<!-- dir_686a2d3b8380929f3bfddf3b00ff951b&#45;&gt;dir_7370e63381a3da0a5abca9ffd8b57676 -->
<g id="edge1" class="edge">
<title>dir_686a2d3b8380929f3bfddf3b00ff951b&#45;&gt;dir_7370e63381a3da0a5abca9ffd8b57676</title>
<path fill="none" stroke="black" d="M87.08,-71.7C86.29,-63.98 86.06,-54.71 86.4,-46.11"/>
<polygon fill="black" stroke="black" points="89.9,-46.32 87.1,-36.1 82.92,-45.84 89.9,-46.32"/>
<g id="a_edge1&#45;headlabel"><a xlink:href="dir_000049_000023.html" target="_top" xlink:title="1">
<text text-anchor="middle" x="92.48" y="-47.61" font-family="Helvetica,sans-Serif" font-size="10.00">1</text>
</a>
</g>
</g>
<!-- dir_7370e63381a3da0a5abca9ffd8b57676&#45;&gt;dir_686a2d3b8380929f3bfddf3b00ff951b -->
<g id="edge7" class="edge">
<title>dir_7370e63381a3da0a5abca9ffd8b57676&#45;&gt;dir_686a2d3b8380929f3bfddf3b00ff951b</title>
<path fill="none" stroke="black" d="M98.9,-36.1C99.7,-43.79 99.94,-53.05 99.6,-61.67"/>
<polygon fill="black" stroke="black" points="96.11,-61.48 98.92,-71.7 103.09,-61.96 96.11,-61.48"/>
<g id="a_edge7&#45;headlabel"><a xlink:href="dir_000023_000049.html" target="_top" xlink:title="1">
<text text-anchor="middle" x="93.52" y="-55.2" font-family="Helvetica,sans-Serif" font-size="10.00">1</text>
</a>
</g>
</g>
<!-- dir_fe9d8bf9624b6804d9d0746c5cf15af4&#45;&gt;dir_330813092258a011b683878a00fa0d9e -->
<g id="edge8" class="edge">
<title>dir_fe9d8bf9624b6804d9d0746c5cf15af4&#45;&gt;dir_330813092258a011b683878a00fa0d9e</title>
<path fill="none" stroke="black" d="M132.98,-287.7C133.86,-279.98 134.92,-270.71 135.9,-262.11"/>
<polygon fill="black" stroke="black" points="139.39,-262.44 137.05,-252.1 132.43,-261.64 139.39,-262.44"/>
<g id="a_edge8&#45;headlabel"><a xlink:href="dir_000127_000044.html" target="_top" xlink:title="1">
<text text-anchor="middle" x="141.8" y="-263.83" font-family="Helvetica,sans-Serif" font-size="10.00">1</text>
</a>
</g>
</g>
<!-- dir_330813092258a011b683878a00fa0d9e&#45;&gt;dir_686a2d3b8380929f3bfddf3b00ff951b -->
<g id="edge9" class="edge">
<title>dir_330813092258a011b683878a00fa0d9e&#45;&gt;dir_686a2d3b8380929f3bfddf3b00ff951b</title>
<path fill="none" stroke="black" d="M139.48,-215.71C139.44,-197.35 137.79,-167.77 129,-144 125.45,-134.4 119.8,-124.85 114.02,-116.56"/>
<polygon fill="black" stroke="black" points="116.77,-114.4 108.03,-108.42 111.14,-118.55 116.77,-114.4"/>
<g id="a_edge9&#45;headlabel"><a xlink:href="dir_000044_000049.html" target="_top" xlink:title="1">
<text text-anchor="middle" x="121.19" y="-113.11" font-family="Helvetica,sans-Serif" font-size="10.00">1</text>
</a>
</g>
</g>
<!-- dir_330813092258a011b683878a00fa0d9e&#45;&gt;dir_7370e63381a3da0a5abca9ffd8b57676 -->
<g id="edge10" class="edge">
<title>dir_330813092258a011b683878a00fa0d9e&#45;&gt;dir_7370e63381a3da0a5abca9ffd8b57676</title>
<path fill="none" stroke="black" d="M142.65,-215.91C144.68,-205.57 146.98,-192.09 148,-180 152.09,-131.44 149.2,-116.35 129,-72 124.69,-62.53 118.72,-52.91 112.89,-44.51"/>
<polygon fill="black" stroke="black" points="115.62,-42.31 106.93,-36.25 109.94,-46.41 115.62,-42.31"/>
<g id="a_edge10&#45;headlabel"><a xlink:href="dir_000044_000023.html" target="_top" xlink:title="2">
<text text-anchor="middle" x="120.03" y="-41.07" font-family="Helvetica,sans-Serif" font-size="10.00">2</text>
</a>
</g>
</g>
<!-- dir_330813092258a011b683878a00fa0d9e&#45;&gt;dir_308afe6c0c0e65dd84efc4369dd1efeb -->
<g id="edge11" class="edge">
<title>dir_330813092258a011b683878a00fa0d9e&#45;&gt;dir_308afe6c0c0e65dd84efc4369dd1efeb</title>
<path fill="none" stroke="black" d="M121.71,-215.7C115.59,-207.64 108.97,-197.89 103.53,-188.98"/>
<polygon fill="black" stroke="black" points="106.41,-186.98 98.34,-180.1 100.36,-190.51 106.41,-186.98"/>
<g id="a_edge11&#45;headlabel"><a xlink:href="dir_000044_000065.html" target="_top" xlink:title="2">
<text text-anchor="middle" x="110.67" y="-186.15" font-family="Helvetica,sans-Serif" font-size="10.00">2</text>
</a>
</g>
</g>
<!-- dir_308afe6c0c0e65dd84efc4369dd1efeb&#45;&gt;dir_686a2d3b8380929f3bfddf3b00ff951b -->
<g id="edge12" class="edge">
<title>dir_308afe6c0c0e65dd84efc4369dd1efeb&#45;&gt;dir_686a2d3b8380929f3bfddf3b00ff951b</title>
<path fill="none" stroke="black" d="M93,-143.7C93,-135.98 93,-126.71 93,-118.11"/>
<polygon fill="black" stroke="black" points="96.5,-118.1 93,-108.1 89.5,-118.1 96.5,-118.1"/>
<g id="a_edge12&#45;headlabel"><a xlink:href="dir_000065_000049.html" target="_top" xlink:title="7">
<text text-anchor="middle" x="99.34" y="-119.2" font-family="Helvetica,sans-Serif" font-size="10.00">7</text>
</a>
</g>
</g>
<!-- dir_308afe6c0c0e65dd84efc4369dd1efeb&#45;&gt;dir_330813092258a011b683878a00fa0d9e -->
<g id="edge13" class="edge">
<title>dir_308afe6c0c0e65dd84efc4369dd1efeb&#45;&gt;dir_330813092258a011b683878a00fa0d9e</title>
<path fill="none" stroke="black" d="M110.14,-180.1C116.25,-188.13 122.87,-197.87 128.34,-206.8"/>
<polygon fill="black" stroke="black" points="125.47,-208.83 133.54,-215.7 131.52,-205.3 125.47,-208.83"/>
<g id="a_edge13&#45;headlabel"><a xlink:href="dir_000065_000044.html" target="_top" xlink:title="1">
<text text-anchor="middle" x="121.21" y="-204.66" font-family="Helvetica,sans-Serif" font-size="10.00">1</text>
</a>
</g>
</g>
</g>
</svg>
