<?xml version="1.0" encoding="UTF-8" standalone="no"?>
<!DOCTYPE svg PUBLIC "-//W3C//DTD SVG 1.1//EN"
 "http://www.w3.org/Graphics/SVG/1.1/DTD/svg11.dtd">
<!-- Generated by graphviz version 2.43.0 (0)
 -->
<!-- Title: /home/nico/projects/tmp&#45;joda&#45;dirs/JODA&#45;gh/libs/joda/core/modules/cli/src Pages: 1 -->
<svg width="241pt" height="367pt"
 viewBox="0.00 0.00 240.98 367.00" xmlns="http://www.w3.org/2000/svg" xmlns:xlink="http://www.w3.org/1999/xlink">
<g id="graph0" class="graph" transform="scale(1 1) rotate(0) translate(4 363)">
<title>/home/nico/projects/tmp&#45;joda&#45;dirs/JODA&#45;gh/libs/joda/core/modules/cli/src</title>
<polygon fill="white" stroke="transparent" points="-4,4 -4,-363 236.98,-363 236.98,4 -4,4"/>
<g id="clust1" class="cluster">
<title>clusterdir_683d075d4c29301a36cb4f453fd730ca</title>
<g id="a_clust1"><a xlink:href="dir_683d075d4c29301a36cb4f453fd730ca.html" target="_top" xlink:title="cli">
<polygon fill="#ddddee" stroke="black" points="68.43,-280 68.43,-351 138.43,-351 138.43,-280 68.43,-280"/>
<text text-anchor="middle" x="103.43" y="-339" font-family="Helvetica,sans-Serif" font-size="10.00">cli</text>
</a>
</g>
</g>
<!-- dir_1c1c4182c7c627bd3ceba36c9e1acefc -->
<g id="node1" class="node">
<title>dir_1c1c4182c7c627bd3ceba36c9e1acefc</title>
<g id="a_node1"><a xlink:href="dir_1c1c4182c7c627bd3ceba36c9e1acefc.html" target="_top" xlink:title="src">
<polygon fill="#eeeeff" stroke="black" points="130.43,-324 76.43,-324 76.43,-288 130.43,-288 130.43,-324"/>
<text text-anchor="middle" x="103.43" y="-303.5" font-family="Helvetica,sans-Serif" font-size="10.00">src</text>
</a>
</g>
</g>
<!-- dir_593657602c74fd2b2e9635270b1bdea2 -->
<g id="node2" class="node">
<title>dir_593657602c74fd2b2e9635270b1bdea2</title>
<g id="a_node2"><a xlink:href="dir_593657602c74fd2b2e9635270b1bdea2.html" target="_top" xlink:title="storage">
<polygon fill="white" stroke="red" points="103.43,-252 49.43,-252 49.43,-216 103.43,-216 103.43,-252"/>
<text text-anchor="middle" x="76.43" y="-231.5" font-family="Helvetica,sans-Serif" font-size="10.00">storage</text>
</a>
</g>
</g>
<!-- dir_1c1c4182c7c627bd3ceba36c9e1acefc&#45;&gt;dir_593657602c74fd2b2e9635270b1bdea2 -->
<g id="edge8" class="edge">
<title>dir_1c1c4182c7c627bd3ceba36c9e1acefc&#45;&gt;dir_593657602c74fd2b2e9635270b1bdea2</title>
<path fill="none" stroke="black" d="M96.75,-287.7C93.71,-279.81 90.04,-270.3 86.67,-261.55"/>
<polygon fill="black" stroke="black" points="89.89,-260.17 83.02,-252.1 83.36,-262.69 89.89,-260.17"/>
<g id="a_edge8&#45;headlabel"><a xlink:href="dir_000012_000125.html" target="_top" xlink:title="4">
<text text-anchor="middle" x="93.83" y="-260.01" font-family="Helvetica,sans-Serif" font-size="10.00">4</text>
</a>
</g>
</g>
<!-- dir_686a2d3b8380929f3bfddf3b00ff951b -->
<g id="node3" class="node">
<title>dir_686a2d3b8380929f3bfddf3b00ff951b</title>
<g id="a_node3"><a xlink:href="dir_686a2d3b8380929f3bfddf3b00ff951b.html" target="_top" xlink:title="misc">
<polygon fill="white" stroke="red" points="197.43,-108 143.43,-108 143.43,-72 197.43,-72 197.43,-108"/>
<text text-anchor="middle" x="170.43" y="-87.5" font-family="Helvetica,sans-Serif" font-size="10.00">misc</text>
</a>
</g>
</g>
<!-- dir_1c1c4182c7c627bd3ceba36c9e1acefc&#45;&gt;dir_686a2d3b8380929f3bfddf3b00ff951b -->
<g id="edge9" class="edge">
<title>dir_1c1c4182c7c627bd3ceba36c9e1acefc&#45;&gt;dir_686a2d3b8380929f3bfddf3b00ff951b</title>
<path fill="none" stroke="black" d="M130.66,-301.44C159.07,-296.11 202.23,-283.11 222.43,-252 250.33,-209.03 216.07,-149.88 191.41,-116.54"/>
<polygon fill="black" stroke="black" points="193.93,-114.07 185.07,-108.25 188.36,-118.32 193.93,-114.07"/>
<g id="a_edge9&#45;headlabel"><a xlink:href="dir_000012_000049.html" target="_top" xlink:title="6">
<text text-anchor="middle" x="198.36" y="-112.71" font-family="Helvetica,sans-Serif" font-size="10.00">6</text>
</a>
</g>
</g>
<!-- dir_59388288c2adeeeb443ad934bc39e9e7 -->
<g id="node4" class="node">
<title>dir_59388288c2adeeeb443ad934bc39e9e7</title>
<g id="a_node4"><a xlink:href="dir_59388288c2adeeeb443ad934bc39e9e7.html" target="_top" xlink:title="queryparsing">
<polygon fill="white" stroke="red" points="125.43,-108 45.43,-108 45.43,-72 125.43,-72 125.43,-108"/>
<text text-anchor="middle" x="85.43" y="-87.5" font-family="Helvetica,sans-Serif" font-size="10.00">queryparsing</text>
</a>
</g>
</g>
<!-- dir_1c1c4182c7c627bd3ceba36c9e1acefc&#45;&gt;dir_59388288c2adeeeb443ad934bc39e9e7 -->
<g id="edge10" class="edge">
<title>dir_1c1c4182c7c627bd3ceba36c9e1acefc&#45;&gt;dir_59388288c2adeeeb443ad934bc39e9e7</title>
<path fill="none" stroke="black" d="M76.42,-290.07C62.92,-281 47.91,-268.07 40.43,-252 19.27,-206.55 47.16,-149.12 67.54,-116.58"/>
<polygon fill="black" stroke="black" points="70.53,-118.39 73.04,-108.09 64.66,-114.58 70.53,-118.39"/>
<g id="a_edge10&#45;headlabel"><a xlink:href="dir_000012_000010.html" target="_top" xlink:title="2">
<text text-anchor="middle" x="70.96" y="-120.45" font-family="Helvetica,sans-Serif" font-size="10.00">2</text>
</a>
</g>
</g>
<!-- dir_7370e63381a3da0a5abca9ffd8b57676 -->
<g id="node5" class="node">
<title>dir_7370e63381a3da0a5abca9ffd8b57676</title>
<g id="a_node5"><a xlink:href="dir_7370e63381a3da0a5abca9ffd8b57676.html" target="_top" xlink:title="config">
<polygon fill="white" stroke="red" points="120.43,-36 66.43,-36 66.43,0 120.43,0 120.43,-36"/>
<text text-anchor="middle" x="93.43" y="-15.5" font-family="Helvetica,sans-Serif" font-size="10.00">config</text>
</a>
</g>
</g>
<!-- dir_1c1c4182c7c627bd3ceba36c9e1acefc&#45;&gt;dir_7370e63381a3da0a5abca9ffd8b57676 -->
<g id="edge11" class="edge">
<title>dir_1c1c4182c7c627bd3ceba36c9e1acefc&#45;&gt;dir_7370e63381a3da0a5abca9ffd8b57676</title>
<path fill="none" stroke="black" d="M76.17,-293.3C59.47,-284.55 39.44,-270.84 29.43,-252 -8.13,-181.34 -9.69,-143.9 25.43,-72 32.31,-57.9 44.96,-46.47 57.49,-37.87"/>
<polygon fill="black" stroke="black" points="59.54,-40.72 66.08,-32.38 55.77,-34.82 59.54,-40.72"/>
<g id="a_edge11&#45;headlabel"><a xlink:href="dir_000012_000023.html" target="_top" xlink:title="1">
<text text-anchor="middle" x="58.04" y="-42.54" font-family="Helvetica,sans-Serif" font-size="10.00">1</text>
</a>
</g>
</g>
<!-- dir_308afe6c0c0e65dd84efc4369dd1efeb -->
<g id="node6" class="node">
<title>dir_308afe6c0c0e65dd84efc4369dd1efeb</title>
<g id="a_node6"><a xlink:href="dir_308afe6c0c0e65dd84efc4369dd1efeb.html" target="_top" xlink:title="query">
<polygon fill="white" stroke="red" points="175.43,-180 121.43,-180 121.43,-144 175.43,-144 175.43,-180"/>
<text text-anchor="middle" x="148.43" y="-159.5" font-family="Helvetica,sans-Serif" font-size="10.00">query</text>
</a>
</g>
</g>
<!-- dir_1c1c4182c7c627bd3ceba36c9e1acefc&#45;&gt;dir_308afe6c0c0e65dd84efc4369dd1efeb -->
<g id="edge12" class="edge">
<title>dir_1c1c4182c7c627bd3ceba36c9e1acefc&#45;&gt;dir_308afe6c0c0e65dd84efc4369dd1efeb</title>
<path fill="none" stroke="black" d="M108.86,-287.87C116.56,-263.56 130.74,-218.82 139.87,-190.01"/>
<polygon fill="black" stroke="black" points="143.3,-190.78 142.98,-180.19 136.62,-188.66 143.3,-190.78"/>
<g id="a_edge12&#45;headlabel"><a xlink:href="dir_000012_000065.html" target="_top" xlink:title="1">
<text text-anchor="middle" x="144.92" y="-192.56" font-family="Helvetica,sans-Serif" font-size="10.00">1</text>
</a>
</g>
</g>
<!-- dir_38b15189cb44c3787beacab055e0a647 -->
<g id="node7" class="node">
<title>dir_38b15189cb44c3787beacab055e0a647</title>
<g id="a_node7"><a xlink:href="dir_38b15189cb44c3787beacab055e0a647.html" target="_top" xlink:title="include">
<polygon fill="white" stroke="red" points="213.43,-252 159.43,-252 159.43,-216 213.43,-216 213.43,-252"/>
<text text-anchor="middle" x="186.43" y="-231.5" font-family="Helvetica,sans-Serif" font-size="10.00">include</text>
</a>
</g>
</g>
<!-- dir_1c1c4182c7c627bd3ceba36c9e1acefc&#45;&gt;dir_38b15189cb44c3787beacab055e0a647 -->
<g id="edge13" class="edge">
<title>dir_1c1c4182c7c627bd3ceba36c9e1acefc&#45;&gt;dir_38b15189cb44c3787beacab055e0a647</title>
<path fill="none" stroke="black" d="M123.94,-287.7C134.3,-278.97 147.01,-268.24 158.27,-258.75"/>
<polygon fill="black" stroke="black" points="160.76,-261.23 166.15,-252.1 156.25,-255.88 160.76,-261.23"/>
<g id="a_edge13&#45;headlabel"><a xlink:href="dir_000012_000015.html" target="_top" xlink:title="2">
<text text-anchor="middle" x="159.84" y="-263.21" font-family="Helvetica,sans-Serif" font-size="10.00">2</text>
</a>
</g>
</g>
<!-- dir_593657602c74fd2b2e9635270b1bdea2&#45;&gt;dir_686a2d3b8380929f3bfddf3b00ff951b -->
<g id="edge1" class="edge">
<title>dir_593657602c74fd2b2e9635270b1bdea2&#45;&gt;dir_686a2d3b8380929f3bfddf3b00ff951b</title>
<path fill="none" stroke="black" d="M80.89,-215.82C86.31,-197.03 96.73,-166.58 112.43,-144 119.85,-133.32 129.78,-123.25 139.33,-114.81"/>
<polygon fill="black" stroke="black" points="141.84,-117.27 147.2,-108.13 137.31,-111.94 141.84,-117.27"/>
<g id="a_edge1&#45;headlabel"><a xlink:href="dir_000125_000049.html" target="_top" xlink:title="19">
<text text-anchor="middle" x="140.94" y="-119.26" font-family="Helvetica,sans-Serif" font-size="10.00">19</text>
</a>
</g>
</g>
<!-- dir_593657602c74fd2b2e9635270b1bdea2&#45;&gt;dir_7370e63381a3da0a5abca9ffd8b57676 -->
<g id="edge2" class="edge">
<title>dir_593657602c74fd2b2e9635270b1bdea2&#45;&gt;dir_7370e63381a3da0a5abca9ffd8b57676</title>
<path fill="none" stroke="black" d="M65.17,-215.94C46.85,-185.88 14.69,-121.9 36.43,-72 41.36,-60.68 50.04,-50.68 59.16,-42.51"/>
<polygon fill="black" stroke="black" points="61.42,-45.19 66.85,-36.09 56.93,-39.81 61.42,-45.19"/>
<g id="a_edge2&#45;headlabel"><a xlink:href="dir_000125_000023.html" target="_top" xlink:title="5">
<text text-anchor="middle" x="60.48" y="-47.17" font-family="Helvetica,sans-Serif" font-size="10.00">5</text>
</a>
</g>
</g>
<!-- dir_593657602c74fd2b2e9635270b1bdea2&#45;&gt;dir_308afe6c0c0e65dd84efc4369dd1efeb -->
<g id="edge3" class="edge">
<title>dir_593657602c74fd2b2e9635270b1bdea2&#45;&gt;dir_308afe6c0c0e65dd84efc4369dd1efeb</title>
<path fill="none" stroke="black" d="M88.31,-215.7C96.31,-207.05 107.04,-196.45 117.27,-187.03"/>
<polygon fill="black" stroke="black" points="119.86,-189.4 124.94,-180.1 115.17,-184.21 119.86,-189.4"/>
<g id="a_edge3&#45;headlabel"><a xlink:href="dir_000125_000065.html" target="_top" xlink:title="4">
<text text-anchor="middle" x="119.09" y="-191.42" font-family="Helvetica,sans-Serif" font-size="10.00">4</text>
</a>
</g>
</g>
<!-- dir_686a2d3b8380929f3bfddf3b00ff951b&#45;&gt;dir_7370e63381a3da0a5abca9ffd8b57676 -->
<g id="edge4" class="edge">
<title>dir_686a2d3b8380929f3bfddf3b00ff951b&#45;&gt;dir_7370e63381a3da0a5abca9ffd8b57676</title>
<path fill="none" stroke="black" d="M145.48,-71.7C135.18,-63.14 123.47,-52.66 113.7,-43.3"/>
<polygon fill="black" stroke="black" points="115.94,-40.6 106.35,-36.1 111.04,-45.6 115.94,-40.6"/>
<g id="a_edge4&#45;headlabel"><a xlink:href="dir_000049_000023.html" target="_top" xlink:title="1">
<text text-anchor="middle" x="120.5" y="-38.59" font-family="Helvetica,sans-Serif" font-size="10.00">1</text>
</a>
</g>
</g>
<!-- dir_59388288c2adeeeb443ad934bc39e9e7&#45;&gt;dir_593657602c74fd2b2e9635270b1bdea2 -->
<g id="edge5" class="edge">
<title>dir_59388288c2adeeeb443ad934bc39e9e7&#45;&gt;dir_593657602c74fd2b2e9635270b1bdea2</title>
<path fill="none" stroke="black" d="M83.14,-108.15C81.84,-118.51 80.31,-131.99 79.43,-144 77.91,-164.69 77.16,-188.13 76.79,-205.77"/>
<polygon fill="black" stroke="black" points="73.29,-205.85 76.6,-215.92 80.28,-205.98 73.29,-205.85"/>
<g id="a_edge5&#45;headlabel"><a xlink:href="dir_000010_000125.html" target="_top" xlink:title="2">
<text text-anchor="middle" x="70.51" y="-199.71" font-family="Helvetica,sans-Serif" font-size="10.00">2</text>
</a>
</g>
</g>
<!-- dir_59388288c2adeeeb443ad934bc39e9e7&#45;&gt;dir_308afe6c0c0e65dd84efc4369dd1efeb -->
<g id="edge6" class="edge">
<title>dir_59388288c2adeeeb443ad934bc39e9e7&#45;&gt;dir_308afe6c0c0e65dd84efc4369dd1efeb</title>
<path fill="none" stroke="black" d="M106.72,-108.1C115.12,-116.47 124.53,-126.69 132.36,-135.92"/>
<polygon fill="black" stroke="black" points="129.71,-138.21 138.77,-143.7 135.11,-133.75 129.71,-138.21"/>
<g id="a_edge6&#45;headlabel"><a xlink:href="dir_000010_000065.html" target="_top" xlink:title="50">
<text text-anchor="middle" x="125.23" y="-134.74" font-family="Helvetica,sans-Serif" font-size="10.00">50</text>
</a>
</g>
</g>
<!-- dir_7370e63381a3da0a5abca9ffd8b57676&#45;&gt;dir_686a2d3b8380929f3bfddf3b00ff951b -->
<g id="edge7" class="edge">
<title>dir_7370e63381a3da0a5abca9ffd8b57676&#45;&gt;dir_686a2d3b8380929f3bfddf3b00ff951b</title>
<path fill="none" stroke="black" d="M118.14,-36.1C128.42,-44.64 140.13,-55.11 149.93,-64.48"/>
<polygon fill="black" stroke="black" points="147.71,-67.21 157.31,-71.7 152.61,-62.2 147.71,-67.21"/>
<g id="a_edge7&#45;headlabel"><a xlink:href="dir_000023_000049.html" target="_top" xlink:title="1">
<text text-anchor="middle" x="143.16" y="-64.22" font-family="Helvetica,sans-Serif" font-size="10.00">1</text>
</a>
</g>
</g>
<!-- dir_308afe6c0c0e65dd84efc4369dd1efeb&#45;&gt;dir_593657602c74fd2b2e9635270b1bdea2 -->
<g id="edge14" class="edge">
<title>dir_308afe6c0c0e65dd84efc4369dd1efeb&#45;&gt;dir_593657602c74fd2b2e9635270b1bdea2</title>
<path fill="none" stroke="black" d="M136.73,-180.1C128.77,-188.72 118.06,-199.32 107.82,-208.76"/>
<polygon fill="black" stroke="black" points="105.21,-206.4 100.14,-215.7 109.91,-211.59 105.21,-206.4"/>
<g id="a_edge14&#45;headlabel"><a xlink:href="dir_000065_000125.html" target="_top" xlink:title="11">
<text text-anchor="middle" x="105.98" y="-199.38" font-family="Helvetica,sans-Serif" font-size="10.00">11</text>
</a>
</g>
</g>
<!-- dir_308afe6c0c0e65dd84efc4369dd1efeb&#45;&gt;dir_686a2d3b8380929f3bfddf3b00ff951b -->
<g id="edge15" class="edge">
<title>dir_308afe6c0c0e65dd84efc4369dd1efeb&#45;&gt;dir_686a2d3b8380929f3bfddf3b00ff951b</title>
<path fill="none" stroke="black" d="M153.87,-143.7C156.32,-135.9 159.27,-126.51 162,-117.83"/>
<polygon fill="black" stroke="black" points="165.39,-118.69 165.05,-108.1 158.71,-116.59 165.39,-118.69"/>
<g id="a_edge15&#45;headlabel"><a xlink:href="dir_000065_000049.html" target="_top" xlink:title="8">
<text text-anchor="middle" x="167.02" y="-120.47" font-family="Helvetica,sans-Serif" font-size="10.00">8</text>
</a>
</g>
</g>
<!-- dir_308afe6c0c0e65dd84efc4369dd1efeb&#45;&gt;dir_59388288c2adeeeb443ad934bc39e9e7 -->
<g id="edge16" class="edge">
<title>dir_308afe6c0c0e65dd84efc4369dd1efeb&#45;&gt;dir_59388288c2adeeeb443ad934bc39e9e7</title>
<path fill="none" stroke="black" d="M126.94,-143.7C118.52,-135.3 109.12,-125.07 101.31,-115.86"/>
<polygon fill="black" stroke="black" points="103.98,-113.6 94.93,-108.1 98.58,-118.05 103.98,-113.6"/>
<g id="a_edge16&#45;headlabel"><a xlink:href="dir_000065_000010.html" target="_top" xlink:title="1">
<text text-anchor="middle" x="108.46" y="-112.07" font-family="Helvetica,sans-Serif" font-size="10.00">1</text>
</a>
</g>
</g>
<!-- dir_38b15189cb44c3787beacab055e0a647&#45;&gt;dir_686a2d3b8380929f3bfddf3b00ff951b -->
<g id="edge17" class="edge">
<title>dir_38b15189cb44c3787beacab055e0a647&#45;&gt;dir_686a2d3b8380929f3bfddf3b00ff951b</title>
<path fill="none" stroke="black" d="M187.23,-215.84C187.8,-197.85 187.93,-168.79 184.43,-144 183.23,-135.52 181.14,-126.45 178.94,-118.26"/>
<polygon fill="black" stroke="black" points="182.25,-117.11 176.15,-108.45 175.52,-119.03 182.25,-117.11"/>
<g id="a_edge17&#45;headlabel"><a xlink:href="dir_000015_000049.html" target="_top" xlink:title="1">
<text text-anchor="middle" x="185.97" y="-117.29" font-family="Helvetica,sans-Serif" font-size="10.00">1</text>
</a>
</g>
</g>
<!-- dir_38b15189cb44c3787beacab055e0a647&#45;&gt;dir_308afe6c0c0e65dd84efc4369dd1efeb -->
<g id="edge18" class="edge">
<title>dir_38b15189cb44c3787beacab055e0a647&#45;&gt;dir_308afe6c0c0e65dd84efc4369dd1efeb</title>
<path fill="none" stroke="black" d="M177.03,-215.7C172.66,-207.64 167.37,-197.89 162.53,-188.98"/>
<polygon fill="black" stroke="black" points="165.56,-187.22 157.71,-180.1 159.41,-190.56 165.56,-187.22"/>
<g id="a_edge18&#45;headlabel"><a xlink:href="dir_000015_000065.html" target="_top" xlink:title="1">
<text text-anchor="middle" x="169.77" y="-186.53" font-family="Helvetica,sans-Serif" font-size="10.00">1</text>
</a>
</g>
</g>
</g>
</svg>
