<?xml version="1.0" encoding="UTF-8" standalone="no"?>
<!DOCTYPE svg PUBLIC "-//W3C//DTD SVG 1.1//EN"
 "http://www.w3.org/Graphics/SVG/1.1/DTD/svg11.dtd">
<!-- Generated by graphviz version 2.43.0 (0)
 -->
<!-- Title: /home/nico/projects/JODA&#45;gh/libs/joda/core/modules/cli Pages: 1 -->
<svg width="384pt" height="519pt"
 viewBox="0.00 0.00 384.00 519.00" xmlns="http://www.w3.org/2000/svg" xmlns:xlink="http://www.w3.org/1999/xlink">
<g id="graph0" class="graph" transform="scale(1 1) rotate(0) translate(4 515)">
<title>/home/nico/projects/JODA&#45;gh/libs/joda/core/modules/cli</title>
<polygon fill="white" stroke="transparent" points="-4,4 -4,-515 380,-515 380,4 -4,4"/>
<g id="clust1" class="cluster">
<title>clusterdir_90b36eb2f4e9ffeeae2f8ee3ceb10c2f</title>
<g id="a_clust1"><a xlink:href="dir_90b36eb2f4e9ffeeae2f8ee3ceb10c2f.html" target="_top" xlink:title="modules">
<polygon fill="#ddddee" stroke="black" points="126,-344 126,-503 284,-503 284,-344 126,-344"/>
<text text-anchor="middle" x="205" y="-491" font-family="Helvetica,sans-Serif" font-size="10.00">modules</text>
</a>
</g>
</g>
<g id="clust2" class="cluster">
<title>clusterdir_683d075d4c29301a36cb4f453fd730ca</title>
<g id="a_clust2"><a xlink:href="dir_683d075d4c29301a36cb4f453fd730ca.html" target="_top">
<polygon fill="#eeeeff" stroke="black" points="134,-352 134,-476 276,-476 276,-352 134,-352"/>
</a>
</g>
</g>
<!-- dir_683d075d4c29301a36cb4f453fd730ca -->
<g id="node1" class="node">
<title>dir_683d075d4c29301a36cb4f453fd730ca</title>
<text text-anchor="middle" x="241" y="-447.5" font-family="Helvetica,sans-Serif" font-size="10.00">cli</text>
</g>
<!-- dir_38b15189cb44c3787beacab055e0a647 -->
<g id="node2" class="node">
<title>dir_38b15189cb44c3787beacab055e0a647</title>
<g id="a_node2"><a xlink:href="dir_38b15189cb44c3787beacab055e0a647.html" target="_top" xlink:title="include">
<polygon fill="white" stroke="red" points="196,-396 142,-396 142,-360 196,-360 196,-396"/>
<text text-anchor="middle" x="169" y="-375.5" font-family="Helvetica,sans-Serif" font-size="10.00">include</text>
</a>
</g>
</g>
<!-- dir_686a2d3b8380929f3bfddf3b00ff951b -->
<g id="node5" class="node">
<title>dir_686a2d3b8380929f3bfddf3b00ff951b</title>
<g id="a_node5"><a xlink:href="dir_686a2d3b8380929f3bfddf3b00ff951b.html" target="_top" xlink:title="misc">
<polygon fill="white" stroke="red" points="86,-108 32,-108 32,-72 86,-72 86,-108"/>
<text text-anchor="middle" x="59" y="-87.5" font-family="Helvetica,sans-Serif" font-size="10.00">misc</text>
</a>
</g>
</g>
<!-- dir_38b15189cb44c3787beacab055e0a647&#45;&gt;dir_686a2d3b8380929f3bfddf3b00ff951b -->
<g id="edge17" class="edge">
<title>dir_38b15189cb44c3787beacab055e0a647&#45;&gt;dir_686a2d3b8380929f3bfddf3b00ff951b</title>
<path fill="none" stroke="black" d="M141.87,-363.96C125.87,-354.91 106.56,-341.36 95,-324 52.48,-260.12 52.93,-164.85 56.22,-118.42"/>
<polygon fill="black" stroke="black" points="59.72,-118.48 57.04,-108.23 52.75,-117.92 59.72,-118.48"/>
<g id="a_edge17&#45;headlabel"><a xlink:href="dir_000015_000049.html" target="_top" xlink:title="1">
<text text-anchor="middle" x="62.26" y="-119.8" font-family="Helvetica,sans-Serif" font-size="10.00">1</text>
</a>
</g>
</g>
<!-- dir_308afe6c0c0e65dd84efc4369dd1efeb -->
<g id="node8" class="node">
<title>dir_308afe6c0c0e65dd84efc4369dd1efeb</title>
<g id="a_node8"><a xlink:href="dir_308afe6c0c0e65dd84efc4369dd1efeb.html" target="_top" xlink:title="query">
<polygon fill="white" stroke="red" points="310,-180 256,-180 256,-144 310,-144 310,-180"/>
<text text-anchor="middle" x="283" y="-159.5" font-family="Helvetica,sans-Serif" font-size="10.00">query</text>
</a>
</g>
</g>
<!-- dir_38b15189cb44c3787beacab055e0a647&#45;&gt;dir_308afe6c0c0e65dd84efc4369dd1efeb -->
<g id="edge18" class="edge">
<title>dir_38b15189cb44c3787beacab055e0a647&#45;&gt;dir_308afe6c0c0e65dd84efc4369dd1efeb</title>
<path fill="none" stroke="black" d="M181.66,-359.75C188.88,-349.58 197.88,-336.33 205,-324 231.47,-278.18 257.26,-222.04 271.54,-189.61"/>
<polygon fill="black" stroke="black" points="274.8,-190.91 275.6,-180.34 268.38,-188.1 274.8,-190.91"/>
<g id="a_edge18&#45;headlabel"><a xlink:href="dir_000015_000065.html" target="_top" xlink:title="1">
<text text-anchor="middle" x="275.96" y="-192.84" font-family="Helvetica,sans-Serif" font-size="10.00">1</text>
</a>
</g>
</g>
<!-- dir_fdf43ea20e6d4202c172c6149a054b61 -->
<g id="node9" class="node">
<title>dir_fdf43ea20e6d4202c172c6149a054b61</title>
<g id="a_node9"><a xlink:href="dir_fdf43ea20e6d4202c172c6149a054b61.html" target="_top" xlink:title="queryexecution">
<polygon fill="white" stroke="red" points="196,-324 104,-324 104,-288 196,-288 196,-324"/>
<text text-anchor="middle" x="150" y="-303.5" font-family="Helvetica,sans-Serif" font-size="10.00">queryexecution</text>
</a>
</g>
</g>
<!-- dir_38b15189cb44c3787beacab055e0a647&#45;&gt;dir_fdf43ea20e6d4202c172c6149a054b61 -->
<g id="edge19" class="edge">
<title>dir_38b15189cb44c3787beacab055e0a647&#45;&gt;dir_fdf43ea20e6d4202c172c6149a054b61</title>
<path fill="none" stroke="black" d="M164.3,-359.7C162.19,-351.9 159.64,-342.51 157.28,-333.83"/>
<polygon fill="black" stroke="black" points="160.64,-332.84 154.64,-324.1 153.88,-334.67 160.64,-332.84"/>
<g id="a_edge19&#45;headlabel"><a xlink:href="dir_000015_000104.html" target="_top" xlink:title="1">
<text text-anchor="middle" x="164.32" y="-333.06" font-family="Helvetica,sans-Serif" font-size="10.00">1</text>
</a>
</g>
</g>
<!-- dir_1c1c4182c7c627bd3ceba36c9e1acefc -->
<g id="node3" class="node">
<title>dir_1c1c4182c7c627bd3ceba36c9e1acefc</title>
<g id="a_node3"><a xlink:href="dir_1c1c4182c7c627bd3ceba36c9e1acefc.html" target="_top" xlink:title="src">
<polygon fill="white" stroke="black" points="196,-468 142,-468 142,-432 196,-432 196,-468"/>
<text text-anchor="middle" x="169" y="-447.5" font-family="Helvetica,sans-Serif" font-size="10.00">src</text>
</a>
</g>
</g>
<!-- dir_1c1c4182c7c627bd3ceba36c9e1acefc&#45;&gt;dir_38b15189cb44c3787beacab055e0a647 -->
<g id="edge13" class="edge">
<title>dir_1c1c4182c7c627bd3ceba36c9e1acefc&#45;&gt;dir_38b15189cb44c3787beacab055e0a647</title>
<path fill="none" stroke="black" d="M169,-431.7C169,-423.98 169,-414.71 169,-406.11"/>
<polygon fill="black" stroke="black" points="172.5,-406.1 169,-396.1 165.5,-406.1 172.5,-406.1"/>
<g id="a_edge13&#45;headlabel"><a xlink:href="dir_000012_000015.html" target="_top" xlink:title="2">
<text text-anchor="middle" x="175.34" y="-407.2" font-family="Helvetica,sans-Serif" font-size="10.00">2</text>
</a>
</g>
</g>
<!-- dir_593657602c74fd2b2e9635270b1bdea2 -->
<g id="node4" class="node">
<title>dir_593657602c74fd2b2e9635270b1bdea2</title>
<g id="a_node4"><a xlink:href="dir_593657602c74fd2b2e9635270b1bdea2.html" target="_top" xlink:title="storage">
<polygon fill="white" stroke="red" points="196,-252 142,-252 142,-216 196,-216 196,-252"/>
<text text-anchor="middle" x="169" y="-231.5" font-family="Helvetica,sans-Serif" font-size="10.00">storage</text>
</a>
</g>
</g>
<!-- dir_1c1c4182c7c627bd3ceba36c9e1acefc&#45;&gt;dir_593657602c74fd2b2e9635270b1bdea2 -->
<g id="edge8" class="edge">
<title>dir_1c1c4182c7c627bd3ceba36c9e1acefc&#45;&gt;dir_593657602c74fd2b2e9635270b1bdea2</title>
<path fill="none" stroke="black" d="M184.61,-431.77C192.37,-422.03 200.95,-409.18 205,-396 219.11,-350.12 219.11,-333.88 205,-288 201.99,-278.22 196.49,-268.62 190.68,-260.33"/>
<polygon fill="black" stroke="black" points="193.41,-258.13 184.61,-252.23 187.81,-262.33 193.41,-258.13"/>
<g id="a_edge8&#45;headlabel"><a xlink:href="dir_000012_000125.html" target="_top" xlink:title="4">
<text text-anchor="middle" x="197.83" y="-256.8" font-family="Helvetica,sans-Serif" font-size="10.00">4</text>
</a>
</g>
</g>
<!-- dir_1c1c4182c7c627bd3ceba36c9e1acefc&#45;&gt;dir_686a2d3b8380929f3bfddf3b00ff951b -->
<g id="edge9" class="edge">
<title>dir_1c1c4182c7c627bd3ceba36c9e1acefc&#45;&gt;dir_686a2d3b8380929f3bfddf3b00ff951b</title>
<path fill="none" stroke="black" d="M141.85,-440.34C94.07,-423.21 0,-380.2 0,-307 0,-307 0,-307 0,-233 0,-189.83 23.54,-144.53 40.89,-117.03"/>
<polygon fill="black" stroke="black" points="43.97,-118.7 46.49,-108.41 38.1,-114.89 43.97,-118.7"/>
<g id="a_edge9&#45;headlabel"><a xlink:href="dir_000012_000049.html" target="_top" xlink:title="6">
<text text-anchor="middle" x="44.39" y="-120.76" font-family="Helvetica,sans-Serif" font-size="10.00">6</text>
</a>
</g>
</g>
<!-- dir_59388288c2adeeeb443ad934bc39e9e7 -->
<g id="node6" class="node">
<title>dir_59388288c2adeeeb443ad934bc39e9e7</title>
<g id="a_node6"><a xlink:href="dir_59388288c2adeeeb443ad934bc39e9e7.html" target="_top" xlink:title="queryparsing">
<polygon fill="white" stroke="red" points="323,-108 243,-108 243,-72 323,-72 323,-108"/>
<text text-anchor="middle" x="283" y="-87.5" font-family="Helvetica,sans-Serif" font-size="10.00">queryparsing</text>
</a>
</g>
</g>
<!-- dir_1c1c4182c7c627bd3ceba36c9e1acefc&#45;&gt;dir_59388288c2adeeeb443ad934bc39e9e7 -->
<g id="edge10" class="edge">
<title>dir_1c1c4182c7c627bd3ceba36c9e1acefc&#45;&gt;dir_59388288c2adeeeb443ad934bc39e9e7</title>
<path fill="none" stroke="black" d="M196.15,-433.26C243.93,-404.63 338,-343.6 338,-307 338,-307 338,-307 338,-233 338,-192.55 334.88,-181.2 319,-144 314.92,-134.43 309.01,-124.78 303.16,-116.39"/>
<polygon fill="black" stroke="black" points="305.88,-114.17 297.16,-108.15 300.22,-118.29 305.88,-114.17"/>
<g id="a_edge10&#45;headlabel"><a xlink:href="dir_000012_000010.html" target="_top" xlink:title="2">
<text text-anchor="middle" x="310.29" y="-112.91" font-family="Helvetica,sans-Serif" font-size="10.00">2</text>
</a>
</g>
</g>
<!-- dir_7370e63381a3da0a5abca9ffd8b57676 -->
<g id="node7" class="node">
<title>dir_7370e63381a3da0a5abca9ffd8b57676</title>
<g id="a_node7"><a xlink:href="dir_7370e63381a3da0a5abca9ffd8b57676.html" target="_top" xlink:title="config">
<polygon fill="white" stroke="red" points="141,-36 87,-36 87,0 141,0 141,-36"/>
<text text-anchor="middle" x="114" y="-15.5" font-family="Helvetica,sans-Serif" font-size="10.00">config</text>
</a>
</g>
</g>
<!-- dir_1c1c4182c7c627bd3ceba36c9e1acefc&#45;&gt;dir_7370e63381a3da0a5abca9ffd8b57676 -->
<g id="edge11" class="edge">
<title>dir_1c1c4182c7c627bd3ceba36c9e1acefc&#45;&gt;dir_7370e63381a3da0a5abca9ffd8b57676</title>
<path fill="none" stroke="black" d="M196.02,-435.95C199.03,-434.58 202.07,-433.24 205,-432 291.71,-395.34 376,-401.14 376,-307 376,-307 376,-307 376,-161 376,-116.87 366.45,-99.58 332,-72 279.42,-29.91 198.41,-20.5 151.36,-18.82"/>
<polygon fill="black" stroke="black" points="151.39,-15.32 141.3,-18.57 151.21,-22.32 151.39,-15.32"/>
<g id="a_edge11&#45;headlabel"><a xlink:href="dir_000012_000023.html" target="_top" xlink:title="1">
<text text-anchor="middle" x="155.05" y="-10.08" font-family="Helvetica,sans-Serif" font-size="10.00">1</text>
</a>
</g>
</g>
<!-- dir_1c1c4182c7c627bd3ceba36c9e1acefc&#45;&gt;dir_308afe6c0c0e65dd84efc4369dd1efeb -->
<g id="edge12" class="edge">
<title>dir_1c1c4182c7c627bd3ceba36c9e1acefc&#45;&gt;dir_308afe6c0c0e65dd84efc4369dd1efeb</title>
<path fill="none" stroke="black" d="M191.86,-431.81C203,-422.35 215.74,-409.76 224,-396 264.16,-329.09 277.13,-235.6 281.21,-190.07"/>
<polygon fill="black" stroke="black" points="284.7,-190.33 282.02,-180.08 277.72,-189.76 284.7,-190.33"/>
<g id="a_edge12&#45;headlabel"><a xlink:href="dir_000012_000065.html" target="_top" xlink:title="1">
<text text-anchor="middle" x="287.23" y="-191.65" font-family="Helvetica,sans-Serif" font-size="10.00">1</text>
</a>
</g>
</g>
<!-- dir_593657602c74fd2b2e9635270b1bdea2&#45;&gt;dir_686a2d3b8380929f3bfddf3b00ff951b -->
<g id="edge1" class="edge">
<title>dir_593657602c74fd2b2e9635270b1bdea2&#45;&gt;dir_686a2d3b8380929f3bfddf3b00ff951b</title>
<path fill="none" stroke="black" d="M155.73,-215.87C136.49,-191.03 100.71,-144.85 78.48,-116.14"/>
<polygon fill="black" stroke="black" points="81.21,-113.95 72.32,-108.19 75.67,-118.24 81.21,-113.95"/>
<g id="a_edge1&#45;headlabel"><a xlink:href="dir_000125_000049.html" target="_top" xlink:title="19">
<text text-anchor="middle" x="85.65" y="-112.55" font-family="Helvetica,sans-Serif" font-size="10.00">19</text>
</a>
</g>
</g>
<!-- dir_593657602c74fd2b2e9635270b1bdea2&#45;&gt;dir_7370e63381a3da0a5abca9ffd8b57676 -->
<g id="edge2" class="edge">
<title>dir_593657602c74fd2b2e9635270b1bdea2&#45;&gt;dir_7370e63381a3da0a5abca9ffd8b57676</title>
<path fill="none" stroke="black" d="M164.62,-215.6C157.18,-186.05 141.54,-124.21 128,-72 125.82,-63.58 123.41,-54.42 121.21,-46.11"/>
<polygon fill="black" stroke="black" points="124.52,-44.95 118.58,-36.18 117.76,-46.74 124.52,-44.95"/>
<g id="a_edge2&#45;headlabel"><a xlink:href="dir_000125_000023.html" target="_top" xlink:title="5">
<text text-anchor="middle" x="128.19" y="-45.19" font-family="Helvetica,sans-Serif" font-size="10.00">5</text>
</a>
</g>
</g>
<!-- dir_593657602c74fd2b2e9635270b1bdea2&#45;&gt;dir_308afe6c0c0e65dd84efc4369dd1efeb -->
<g id="edge3" class="edge">
<title>dir_593657602c74fd2b2e9635270b1bdea2&#45;&gt;dir_308afe6c0c0e65dd84efc4369dd1efeb</title>
<path fill="none" stroke="black" d="M190.99,-215.88C206.89,-205.44 228.56,-192.11 246.94,-181.44"/>
<polygon fill="black" stroke="black" points="248.72,-184.45 255.66,-176.44 245.24,-178.38 248.72,-184.45"/>
<g id="a_edge3&#45;headlabel"><a xlink:href="dir_000125_000065.html" target="_top" xlink:title="4">
<text text-anchor="middle" x="247.02" y="-186.21" font-family="Helvetica,sans-Serif" font-size="10.00">4</text>
</a>
</g>
</g>
<!-- dir_686a2d3b8380929f3bfddf3b00ff951b&#45;&gt;dir_7370e63381a3da0a5abca9ffd8b57676 -->
<g id="edge4" class="edge">
<title>dir_686a2d3b8380929f3bfddf3b00ff951b&#45;&gt;dir_7370e63381a3da0a5abca9ffd8b57676</title>
<path fill="none" stroke="black" d="M66.68,-71.7C72.41,-63.3 80.26,-53.07 87.97,-43.86"/>
<polygon fill="black" stroke="black" points="90.78,-45.96 94.67,-36.1 85.48,-41.39 90.78,-45.96"/>
<g id="a_edge4&#45;headlabel"><a xlink:href="dir_000049_000023.html" target="_top" xlink:title="1">
<text text-anchor="middle" x="90.59" y="-48.04" font-family="Helvetica,sans-Serif" font-size="10.00">1</text>
</a>
</g>
</g>
<!-- dir_59388288c2adeeeb443ad934bc39e9e7&#45;&gt;dir_593657602c74fd2b2e9635270b1bdea2 -->
<g id="edge5" class="edge">
<title>dir_59388288c2adeeeb443ad934bc39e9e7&#45;&gt;dir_593657602c74fd2b2e9635270b1bdea2</title>
<path fill="none" stroke="black" d="M269.2,-108.19C249.23,-133.06 212.15,-179.25 189.13,-207.93"/>
<polygon fill="black" stroke="black" points="186.28,-205.88 182.75,-215.87 191.74,-210.26 186.28,-205.88"/>
<g id="a_edge5&#45;headlabel"><a xlink:href="dir_000010_000125.html" target="_top" xlink:title="2">
<text text-anchor="middle" x="186.32" y="-198.8" font-family="Helvetica,sans-Serif" font-size="10.00">2</text>
</a>
</g>
</g>
<!-- dir_59388288c2adeeeb443ad934bc39e9e7&#45;&gt;dir_308afe6c0c0e65dd84efc4369dd1efeb -->
<g id="edge6" class="edge">
<title>dir_59388288c2adeeeb443ad934bc39e9e7&#45;&gt;dir_308afe6c0c0e65dd84efc4369dd1efeb</title>
<path fill="none" stroke="black" d="M288.9,-108.1C289.7,-115.79 289.94,-125.05 289.6,-133.67"/>
<polygon fill="black" stroke="black" points="286.11,-133.48 288.92,-143.7 293.09,-133.96 286.11,-133.48"/>
<g id="a_edge6&#45;headlabel"><a xlink:href="dir_000010_000065.html" target="_top" xlink:title="48">
<text text-anchor="middle" x="283.52" y="-127.2" font-family="Helvetica,sans-Serif" font-size="10.00">48</text>
</a>
</g>
</g>
<!-- dir_7370e63381a3da0a5abca9ffd8b57676&#45;&gt;dir_686a2d3b8380929f3bfddf3b00ff951b -->
<g id="edge7" class="edge">
<title>dir_7370e63381a3da0a5abca9ffd8b57676&#45;&gt;dir_686a2d3b8380929f3bfddf3b00ff951b</title>
<path fill="none" stroke="black" d="M106.46,-36.1C100.76,-44.47 92.93,-54.69 85.21,-63.92"/>
<polygon fill="black" stroke="black" points="82.38,-61.84 78.51,-71.7 87.69,-66.4 82.38,-61.84"/>
<g id="a_edge7&#45;headlabel"><a xlink:href="dir_000023_000049.html" target="_top" xlink:title="1">
<text text-anchor="middle" x="82.58" y="-54.76" font-family="Helvetica,sans-Serif" font-size="10.00">1</text>
</a>
</g>
</g>
<!-- dir_308afe6c0c0e65dd84efc4369dd1efeb&#45;&gt;dir_593657602c74fd2b2e9635270b1bdea2 -->
<g id="edge14" class="edge">
<title>dir_308afe6c0c0e65dd84efc4369dd1efeb&#45;&gt;dir_593657602c74fd2b2e9635270b1bdea2</title>
<path fill="none" stroke="black" d="M261.19,-180C245.23,-190.48 223.39,-203.93 204.91,-214.65"/>
<polygon fill="black" stroke="black" points="203.08,-211.66 196.15,-219.67 206.56,-217.73 203.08,-211.66"/>
<g id="a_edge14&#45;headlabel"><a xlink:href="dir_000065_000125.html" target="_top" xlink:title="11">
<text text-anchor="middle" x="204.79" y="-204.91" font-family="Helvetica,sans-Serif" font-size="10.00">11</text>
</a>
</g>
</g>
<!-- dir_308afe6c0c0e65dd84efc4369dd1efeb&#45;&gt;dir_686a2d3b8380929f3bfddf3b00ff951b -->
<g id="edge15" class="edge">
<title>dir_308afe6c0c0e65dd84efc4369dd1efeb&#45;&gt;dir_686a2d3b8380929f3bfddf3b00ff951b</title>
<path fill="none" stroke="black" d="M255.98,-152.56C215.95,-140.05 140.8,-116.56 95.78,-102.49"/>
<polygon fill="black" stroke="black" points="96.7,-99.12 86.12,-99.47 94.62,-105.8 96.7,-99.12"/>
<g id="a_edge15&#45;headlabel"><a xlink:href="dir_000065_000049.html" target="_top" xlink:title="7">
<text text-anchor="middle" x="100.98" y="-94.98" font-family="Helvetica,sans-Serif" font-size="10.00">7</text>
</a>
</g>
</g>
<!-- dir_308afe6c0c0e65dd84efc4369dd1efeb&#45;&gt;dir_59388288c2adeeeb443ad934bc39e9e7 -->
<g id="edge16" class="edge">
<title>dir_308afe6c0c0e65dd84efc4369dd1efeb&#45;&gt;dir_59388288c2adeeeb443ad934bc39e9e7</title>
<path fill="none" stroke="black" d="M277.08,-143.7C276.29,-135.98 276.06,-126.71 276.4,-118.11"/>
<polygon fill="black" stroke="black" points="279.9,-118.32 277.1,-108.1 272.92,-117.84 279.9,-118.32"/>
<g id="a_edge16&#45;headlabel"><a xlink:href="dir_000065_000010.html" target="_top" xlink:title="1">
<text text-anchor="middle" x="282.48" y="-119.61" font-family="Helvetica,sans-Serif" font-size="10.00">1</text>
</a>
</g>
</g>
<!-- dir_fdf43ea20e6d4202c172c6149a054b61&#45;&gt;dir_593657602c74fd2b2e9635270b1bdea2 -->
<g id="edge20" class="edge">
<title>dir_fdf43ea20e6d4202c172c6149a054b61&#45;&gt;dir_593657602c74fd2b2e9635270b1bdea2</title>
<path fill="none" stroke="black" d="M154.7,-287.7C156.81,-279.9 159.36,-270.51 161.72,-261.83"/>
<polygon fill="black" stroke="black" points="165.12,-262.67 164.36,-252.1 158.36,-260.84 165.12,-262.67"/>
<g id="a_edge20&#45;headlabel"><a xlink:href="dir_000104_000125.html" target="_top" xlink:title="6">
<text text-anchor="middle" x="166.91" y="-264.38" font-family="Helvetica,sans-Serif" font-size="10.00">6</text>
</a>
</g>
</g>
<!-- dir_fdf43ea20e6d4202c172c6149a054b61&#45;&gt;dir_686a2d3b8380929f3bfddf3b00ff951b -->
<g id="edge21" class="edge">
<title>dir_fdf43ea20e6d4202c172c6149a054b61&#45;&gt;dir_686a2d3b8380929f3bfddf3b00ff951b</title>
<path fill="none" stroke="black" d="M129.61,-287.99C119.33,-278.4 107.5,-265.63 100,-252 76.27,-208.86 65.96,-151.66 61.72,-118.34"/>
<polygon fill="black" stroke="black" points="65.15,-117.53 60.5,-108.01 58.2,-118.35 65.15,-117.53"/>
<g id="a_edge21&#45;headlabel"><a xlink:href="dir_000104_000049.html" target="_top" xlink:title="6">
<text text-anchor="middle" x="68.39" y="-118.27" font-family="Helvetica,sans-Serif" font-size="10.00">6</text>
</a>
</g>
</g>
<!-- dir_fdf43ea20e6d4202c172c6149a054b61&#45;&gt;dir_7370e63381a3da0a5abca9ffd8b57676 -->
<g id="edge22" class="edge">
<title>dir_fdf43ea20e6d4202c172c6149a054b61&#45;&gt;dir_7370e63381a3da0a5abca9ffd8b57676</title>
<path fill="none" stroke="black" d="M143.31,-287.6C139.66,-277.38 135.41,-264.13 133,-252 118.44,-178.6 115,-90.07 114.21,-46.27"/>
<polygon fill="black" stroke="black" points="117.71,-46.09 114.06,-36.14 110.71,-46.19 117.71,-46.09"/>
<g id="a_edge22&#45;headlabel"><a xlink:href="dir_000104_000023.html" target="_top" xlink:title="2">
<text text-anchor="middle" x="120.6" y="-47.14" font-family="Helvetica,sans-Serif" font-size="10.00">2</text>
</a>
</g>
</g>
<!-- dir_fdf43ea20e6d4202c172c6149a054b61&#45;&gt;dir_308afe6c0c0e65dd84efc4369dd1efeb -->
<g id="edge23" class="edge">
<title>dir_fdf43ea20e6d4202c172c6149a054b61&#45;&gt;dir_308afe6c0c0e65dd84efc4369dd1efeb</title>
<path fill="none" stroke="black" d="M168.46,-287.95C179.32,-277.74 193.19,-264.38 205,-252 225.04,-230.99 246.73,-206.04 262.14,-187.92"/>
<polygon fill="black" stroke="black" points="264.96,-190 268.75,-180.11 259.62,-185.48 264.96,-190"/>
<g id="a_edge23&#45;headlabel"><a xlink:href="dir_000104_000065.html" target="_top" xlink:title="10">
<text text-anchor="middle" x="264.81" y="-192.08" font-family="Helvetica,sans-Serif" font-size="10.00">10</text>
</a>
</g>
</g>
</g>
</svg>
