<?xml version="1.0" encoding="UTF-8" standalone="no"?>
<!DOCTYPE svg PUBLIC "-//W3C//DTD SVG 1.1//EN"
 "http://www.w3.org/Graphics/SVG/1.1/DTD/svg11.dtd">
<!-- Generated by graphviz version 2.43.0 (0)
 -->
<!-- Title: /home/nico/joda_tmp/tmp&#45;joda&#45;dirs/JODA&#45;gh/libs/joda/core/modules/storage/container/src Pages: 1 -->
<svg width="331pt" height="439pt"
 viewBox="0.00 0.00 331.07 439.00" xmlns="http://www.w3.org/2000/svg" xmlns:xlink="http://www.w3.org/1999/xlink">
<g id="graph0" class="graph" transform="scale(1 1) rotate(0) translate(4 435)">
<title>/home/nico/joda_tmp/tmp&#45;joda&#45;dirs/JODA&#45;gh/libs/joda/core/modules/storage/container/src</title>
<polygon fill="white" stroke="transparent" points="-4,4 -4,-435 327.07,-435 327.07,4 -4,4"/>
<g id="clust1" class="cluster">
<title>clusterdir_f67b07406cada6169f15e2a5149e4aeb</title>
<g id="a_clust1"><a xlink:href="dir_f67b07406cada6169f15e2a5149e4aeb.html" target="_top" xlink:title="container">
<polygon fill="#ddddee" stroke="black" points="44.07,-280 44.07,-423 114.07,-423 114.07,-280 44.07,-280"/>
<text text-anchor="middle" x="79.07" y="-411" font-family="Helvetica,sans-Serif" font-size="10.00">container</text>
</a>
</g>
</g>
<!-- dir_f3ffc4493380f71b12d582346e0f1245 -->
<g id="node1" class="node">
<title>dir_f3ffc4493380f71b12d582346e0f1245</title>
<g id="a_node1"><a xlink:href="dir_f3ffc4493380f71b12d582346e0f1245.html" target="_top" xlink:title="include">
<polygon fill="white" stroke="red" points="106.07,-324 52.07,-324 52.07,-288 106.07,-288 106.07,-324"/>
<text text-anchor="middle" x="79.07" y="-303.5" font-family="Helvetica,sans-Serif" font-size="10.00">include</text>
</a>
</g>
</g>
<!-- dir_308afe6c0c0e65dd84efc4369dd1efeb -->
<g id="node3" class="node">
<title>dir_308afe6c0c0e65dd84efc4369dd1efeb</title>
<g id="a_node3"><a xlink:href="dir_308afe6c0c0e65dd84efc4369dd1efeb.html" target="_top" xlink:title="query">
<polygon fill="white" stroke="red" points="161.07,-252 107.07,-252 107.07,-216 161.07,-216 161.07,-252"/>
<text text-anchor="middle" x="134.07" y="-231.5" font-family="Helvetica,sans-Serif" font-size="10.00">query</text>
</a>
</g>
</g>
<!-- dir_f3ffc4493380f71b12d582346e0f1245&#45;&gt;dir_308afe6c0c0e65dd84efc4369dd1efeb -->
<g id="edge1" class="edge">
<title>dir_f3ffc4493380f71b12d582346e0f1245&#45;&gt;dir_308afe6c0c0e65dd84efc4369dd1efeb</title>
<path fill="none" stroke="black" d="M92.67,-287.7C99.2,-279.39 107.14,-269.28 114.32,-260.14"/>
<polygon fill="black" stroke="black" points="117.21,-262.13 120.64,-252.1 111.7,-257.81 117.21,-262.13"/>
<g id="a_edge1&#45;headlabel"><a xlink:href="dir_000134_000065.html" target="_top" xlink:title="2">
<text text-anchor="middle" x="117.22" y="-264.21" font-family="Helvetica,sans-Serif" font-size="10.00">2</text>
</a>
</g>
</g>
<!-- dir_686a2d3b8380929f3bfddf3b00ff951b -->
<g id="node4" class="node">
<title>dir_686a2d3b8380929f3bfddf3b00ff951b</title>
<g id="a_node4"><a xlink:href="dir_686a2d3b8380929f3bfddf3b00ff951b.html" target="_top" xlink:title="misc">
<polygon fill="white" stroke="red" points="154.07,-108 100.07,-108 100.07,-72 154.07,-72 154.07,-108"/>
<text text-anchor="middle" x="127.07" y="-87.5" font-family="Helvetica,sans-Serif" font-size="10.00">misc</text>
</a>
</g>
</g>
<!-- dir_f3ffc4493380f71b12d582346e0f1245&#45;&gt;dir_686a2d3b8380929f3bfddf3b00ff951b -->
<g id="edge2" class="edge">
<title>dir_f3ffc4493380f71b12d582346e0f1245&#45;&gt;dir_686a2d3b8380929f3bfddf3b00ff951b</title>
<path fill="none" stroke="black" d="M82.63,-287.92C86.38,-269.99 92.51,-240.98 98.07,-216 105.58,-182.32 114.61,-143.64 120.59,-118.34"/>
<polygon fill="black" stroke="black" points="124.05,-118.91 122.94,-108.37 117.24,-117.29 124.05,-118.91"/>
<g id="a_edge2&#45;headlabel"><a xlink:href="dir_000134_000049.html" target="_top" xlink:title="1">
<text text-anchor="middle" x="125.98" y="-120.56" font-family="Helvetica,sans-Serif" font-size="10.00">1</text>
</a>
</g>
</g>
<!-- dir_7370e63381a3da0a5abca9ffd8b57676 -->
<g id="node5" class="node">
<title>dir_7370e63381a3da0a5abca9ffd8b57676</title>
<g id="a_node5"><a xlink:href="dir_7370e63381a3da0a5abca9ffd8b57676.html" target="_top" xlink:title="config">
<polygon fill="white" stroke="red" points="154.07,-36 100.07,-36 100.07,0 154.07,0 154.07,-36"/>
<text text-anchor="middle" x="127.07" y="-15.5" font-family="Helvetica,sans-Serif" font-size="10.00">config</text>
</a>
</g>
</g>
<!-- dir_f3ffc4493380f71b12d582346e0f1245&#45;&gt;dir_7370e63381a3da0a5abca9ffd8b57676 -->
<g id="edge3" class="edge">
<title>dir_f3ffc4493380f71b12d582346e0f1245&#45;&gt;dir_7370e63381a3da0a5abca9ffd8b57676</title>
<path fill="none" stroke="black" d="M61.43,-287.95C33.65,-258.94 -15.16,-197.85 5.07,-144 21.43,-100.47 61.97,-64.23 91.85,-42.17"/>
<polygon fill="black" stroke="black" points="94.28,-44.74 100.36,-36.06 90.2,-39.06 94.28,-44.74"/>
<g id="a_edge3&#45;headlabel"><a xlink:href="dir_000134_000023.html" target="_top" xlink:title="1">
<text text-anchor="middle" x="93.02" y="-46.64" font-family="Helvetica,sans-Serif" font-size="10.00">1</text>
</a>
</g>
</g>
<!-- dir_c9d38d77393a8229062648c672ab0185 -->
<g id="node6" class="node">
<title>dir_c9d38d77393a8229062648c672ab0185</title>
<g id="a_node6"><a xlink:href="dir_c9d38d77393a8229062648c672ab0185.html" target="_top" xlink:title="document">
<polygon fill="white" stroke="red" points="79.57,-180 14.57,-180 14.57,-144 79.57,-144 79.57,-180"/>
<text text-anchor="middle" x="47.07" y="-159.5" font-family="Helvetica,sans-Serif" font-size="10.00">document</text>
</a>
</g>
</g>
<!-- dir_f3ffc4493380f71b12d582346e0f1245&#45;&gt;dir_c9d38d77393a8229062648c672ab0185 -->
<g id="edge4" class="edge">
<title>dir_f3ffc4493380f71b12d582346e0f1245&#45;&gt;dir_c9d38d77393a8229062648c672ab0185</title>
<path fill="none" stroke="black" d="M74.28,-287.88C71.45,-277.53 67.88,-264.05 65.07,-252 60.28,-231.4 55.56,-207.95 52.16,-190.29"/>
<polygon fill="black" stroke="black" points="55.54,-189.3 50.23,-180.13 48.66,-190.6 55.54,-189.3"/>
<g id="a_edge4&#45;headlabel"><a xlink:href="dir_000134_000138.html" target="_top" xlink:title="3">
<text text-anchor="middle" x="59" y="-189.8" font-family="Helvetica,sans-Serif" font-size="10.00">3</text>
</a>
</g>
</g>
<!-- dir_6e05cf5f8d3c1b07d2f764b1807c65a3 -->
<g id="node2" class="node">
<title>dir_6e05cf5f8d3c1b07d2f764b1807c65a3</title>
<g id="a_node2"><a xlink:href="dir_6e05cf5f8d3c1b07d2f764b1807c65a3.html" target="_top" xlink:title="src">
<polygon fill="#eeeeff" stroke="black" points="106.07,-396 52.07,-396 52.07,-360 106.07,-360 106.07,-396"/>
<text text-anchor="middle" x="79.07" y="-375.5" font-family="Helvetica,sans-Serif" font-size="10.00">src</text>
</a>
</g>
</g>
<!-- dir_6e05cf5f8d3c1b07d2f764b1807c65a3&#45;&gt;dir_f3ffc4493380f71b12d582346e0f1245 -->
<g id="edge11" class="edge">
<title>dir_6e05cf5f8d3c1b07d2f764b1807c65a3&#45;&gt;dir_f3ffc4493380f71b12d582346e0f1245</title>
<path fill="none" stroke="black" d="M79.07,-359.7C79.07,-351.98 79.07,-342.71 79.07,-334.11"/>
<polygon fill="black" stroke="black" points="82.57,-334.1 79.07,-324.1 75.57,-334.1 82.57,-334.1"/>
<g id="a_edge11&#45;headlabel"><a xlink:href="dir_000137_000134.html" target="_top" xlink:title="1">
<text text-anchor="middle" x="85.41" y="-335.2" font-family="Helvetica,sans-Serif" font-size="10.00">1</text>
</a>
</g>
</g>
<!-- dir_6e05cf5f8d3c1b07d2f764b1807c65a3&#45;&gt;dir_308afe6c0c0e65dd84efc4369dd1efeb -->
<g id="edge6" class="edge">
<title>dir_6e05cf5f8d3c1b07d2f764b1807c65a3&#45;&gt;dir_308afe6c0c0e65dd84efc4369dd1efeb</title>
<path fill="none" stroke="black" d="M93.24,-359.85C100.76,-349.93 109.57,-336.89 115.07,-324 123.49,-304.29 128.32,-280.49 131,-262.46"/>
<polygon fill="black" stroke="black" points="134.5,-262.71 132.38,-252.33 127.56,-261.76 134.5,-262.71"/>
<g id="a_edge6&#45;headlabel"><a xlink:href="dir_000137_000065.html" target="_top" xlink:title="1">
<text text-anchor="middle" x="136.83" y="-264.15" font-family="Helvetica,sans-Serif" font-size="10.00">1</text>
</a>
</g>
</g>
<!-- dir_6e05cf5f8d3c1b07d2f764b1807c65a3&#45;&gt;dir_686a2d3b8380929f3bfddf3b00ff951b -->
<g id="edge7" class="edge">
<title>dir_6e05cf5f8d3c1b07d2f764b1807c65a3&#45;&gt;dir_686a2d3b8380929f3bfddf3b00ff951b</title>
<path fill="none" stroke="black" d="M100.56,-359.93C111.81,-350.24 125.26,-337.39 135.07,-324 156.11,-295.31 162.09,-286.67 170.07,-252 181.07,-204.22 158.67,-149.15 142.26,-117.37"/>
<polygon fill="black" stroke="black" points="145.21,-115.46 137.41,-108.29 139.04,-118.76 145.21,-115.46"/>
<g id="a_edge7&#45;headlabel"><a xlink:href="dir_000137_000049.html" target="_top" xlink:title="1">
<text text-anchor="middle" x="149.41" y="-114.79" font-family="Helvetica,sans-Serif" font-size="10.00">1</text>
</a>
</g>
</g>
<!-- dir_6e05cf5f8d3c1b07d2f764b1807c65a3&#45;&gt;dir_7370e63381a3da0a5abca9ffd8b57676 -->
<g id="edge8" class="edge">
<title>dir_6e05cf5f8d3c1b07d2f764b1807c65a3&#45;&gt;dir_7370e63381a3da0a5abca9ffd8b57676</title>
<path fill="none" stroke="black" d="M106.22,-365.81C148.95,-346.18 227.07,-301.23 227.07,-235 227.07,-235 227.07,-235 227.07,-161 227.07,-112.49 187.58,-68.87 158.24,-43.16"/>
<polygon fill="black" stroke="black" points="160.16,-40.19 150.27,-36.39 155.62,-45.53 160.16,-40.19"/>
<g id="a_edge8&#45;headlabel"><a xlink:href="dir_000137_000023.html" target="_top" xlink:title="1">
<text text-anchor="middle" x="164.73" y="-37.86" font-family="Helvetica,sans-Serif" font-size="10.00">1</text>
</a>
</g>
</g>
<!-- dir_6e05cf5f8d3c1b07d2f764b1807c65a3&#45;&gt;dir_c9d38d77393a8229062648c672ab0185 -->
<g id="edge9" class="edge">
<title>dir_6e05cf5f8d3c1b07d2f764b1807c65a3&#45;&gt;dir_c9d38d77393a8229062648c672ab0185</title>
<path fill="none" stroke="black" d="M63.46,-359.77C55.7,-350.03 47.13,-337.18 43.07,-324 29.19,-278.86 35.37,-223.2 41.18,-190.55"/>
<polygon fill="black" stroke="black" points="44.68,-190.89 43.11,-180.41 37.8,-189.58 44.68,-190.89"/>
<g id="a_edge9&#45;headlabel"><a xlink:href="dir_000137_000138.html" target="_top" xlink:title="4">
<text text-anchor="middle" x="46.8" y="-192.45" font-family="Helvetica,sans-Serif" font-size="10.00">4</text>
</a>
</g>
</g>
<!-- dir_eb46814348a9452de37b70307a191b78 -->
<g id="node7" class="node">
<title>dir_eb46814348a9452de37b70307a191b78</title>
<g id="a_node7"><a xlink:href="dir_eb46814348a9452de37b70307a191b78.html" target="_top" xlink:title="filesystem">
<polygon fill="white" stroke="red" points="323.07,-324 255.07,-324 255.07,-288 323.07,-288 323.07,-324"/>
<text text-anchor="middle" x="289.07" y="-303.5" font-family="Helvetica,sans-Serif" font-size="10.00">filesystem</text>
</a>
</g>
</g>
<!-- dir_6e05cf5f8d3c1b07d2f764b1807c65a3&#45;&gt;dir_eb46814348a9452de37b70307a191b78 -->
<g id="edge10" class="edge">
<title>dir_6e05cf5f8d3c1b07d2f764b1807c65a3&#45;&gt;dir_eb46814348a9452de37b70307a191b78</title>
<path fill="none" stroke="black" d="M106.09,-368.38C138.3,-358.06 193.73,-340.12 241.07,-324 242.49,-323.52 243.92,-323.03 245.37,-322.53"/>
<polygon fill="black" stroke="black" points="246.72,-325.76 255.02,-319.17 244.43,-319.15 246.72,-325.76"/>
<g id="a_edge10&#45;headlabel"><a xlink:href="dir_000137_000008.html" target="_top" xlink:title="1">
<text text-anchor="middle" x="244.26" y="-327.13" font-family="Helvetica,sans-Serif" font-size="10.00">1</text>
</a>
</g>
</g>
<!-- dir_308afe6c0c0e65dd84efc4369dd1efeb&#45;&gt;dir_686a2d3b8380929f3bfddf3b00ff951b -->
<g id="edge15" class="edge">
<title>dir_308afe6c0c0e65dd84efc4369dd1efeb&#45;&gt;dir_686a2d3b8380929f3bfddf3b00ff951b</title>
<path fill="none" stroke="black" d="M133.23,-215.87C132.04,-191.67 129.85,-147.21 128.42,-118.39"/>
<polygon fill="black" stroke="black" points="131.91,-118 127.92,-108.19 124.92,-118.35 131.91,-118"/>
<g id="a_edge15&#45;headlabel"><a xlink:href="dir_000065_000049.html" target="_top" xlink:title="9">
<text text-anchor="middle" x="134.92" y="-118.96" font-family="Helvetica,sans-Serif" font-size="10.00">9</text>
</a>
</g>
</g>
<!-- dir_308afe6c0c0e65dd84efc4369dd1efeb&#45;&gt;dir_c9d38d77393a8229062648c672ab0185 -->
<g id="edge16" class="edge">
<title>dir_308afe6c0c0e65dd84efc4369dd1efeb&#45;&gt;dir_c9d38d77393a8229062648c672ab0185</title>
<path fill="none" stroke="black" d="M112.57,-215.7C101.61,-206.88 88.13,-196.03 76.25,-186.47"/>
<polygon fill="black" stroke="black" points="78.32,-183.65 68.33,-180.1 73.93,-189.1 78.32,-183.65"/>
<g id="a_edge16&#45;headlabel"><a xlink:href="dir_000065_000138.html" target="_top" xlink:title="11">
<text text-anchor="middle" x="82.9" y="-181.19" font-family="Helvetica,sans-Serif" font-size="10.00">11</text>
</a>
</g>
</g>
<!-- dir_686a2d3b8380929f3bfddf3b00ff951b&#45;&gt;dir_7370e63381a3da0a5abca9ffd8b57676 -->
<g id="edge5" class="edge">
<title>dir_686a2d3b8380929f3bfddf3b00ff951b&#45;&gt;dir_7370e63381a3da0a5abca9ffd8b57676</title>
<path fill="none" stroke="black" d="M121.16,-71.7C120.36,-63.98 120.14,-54.71 120.48,-46.11"/>
<polygon fill="black" stroke="black" points="123.97,-46.32 121.18,-36.1 116.99,-45.84 123.97,-46.32"/>
<g id="a_edge5&#45;headlabel"><a xlink:href="dir_000049_000023.html" target="_top" xlink:title="1">
<text text-anchor="middle" x="126.55" y="-47.61" font-family="Helvetica,sans-Serif" font-size="10.00">1</text>
</a>
</g>
</g>
<!-- dir_7370e63381a3da0a5abca9ffd8b57676&#45;&gt;dir_686a2d3b8380929f3bfddf3b00ff951b -->
<g id="edge12" class="edge">
<title>dir_7370e63381a3da0a5abca9ffd8b57676&#45;&gt;dir_686a2d3b8380929f3bfddf3b00ff951b</title>
<path fill="none" stroke="black" d="M132.97,-36.1C133.77,-43.79 134.01,-53.05 133.68,-61.67"/>
<polygon fill="black" stroke="black" points="130.18,-61.48 132.99,-71.7 137.17,-61.96 130.18,-61.48"/>
<g id="a_edge12&#45;headlabel"><a xlink:href="dir_000023_000049.html" target="_top" xlink:title="1">
<text text-anchor="middle" x="127.6" y="-55.2" font-family="Helvetica,sans-Serif" font-size="10.00">1</text>
</a>
</g>
</g>
<!-- dir_c9d38d77393a8229062648c672ab0185&#45;&gt;dir_686a2d3b8380929f3bfddf3b00ff951b -->
<g id="edge13" class="edge">
<title>dir_c9d38d77393a8229062648c672ab0185&#45;&gt;dir_686a2d3b8380929f3bfddf3b00ff951b</title>
<path fill="none" stroke="black" d="M66.85,-143.7C76.83,-134.97 89.09,-124.24 99.93,-114.75"/>
<polygon fill="black" stroke="black" points="102.31,-117.32 107.53,-108.1 97.7,-112.06 102.31,-117.32"/>
<g id="a_edge13&#45;headlabel"><a xlink:href="dir_000138_000049.html" target="_top" xlink:title="16">
<text text-anchor="middle" x="101.47" y="-119.33" font-family="Helvetica,sans-Serif" font-size="10.00">16</text>
</a>
</g>
</g>
<!-- dir_c9d38d77393a8229062648c672ab0185&#45;&gt;dir_7370e63381a3da0a5abca9ffd8b57676 -->
<g id="edge14" class="edge">
<title>dir_c9d38d77393a8229062648c672ab0185&#45;&gt;dir_7370e63381a3da0a5abca9ffd8b57676</title>
<path fill="none" stroke="black" d="M54.67,-143.91C62.95,-125.72 76.92,-96.27 91.07,-72 96.4,-62.87 102.73,-53.22 108.58,-44.69"/>
<polygon fill="black" stroke="black" points="111.6,-46.48 114.45,-36.28 105.86,-42.47 111.6,-46.48"/>
<g id="a_edge14&#45;headlabel"><a xlink:href="dir_000138_000023.html" target="_top" xlink:title="1">
<text text-anchor="middle" x="111.87" y="-48.55" font-family="Helvetica,sans-Serif" font-size="10.00">1</text>
</a>
</g>
</g>
<!-- dir_eb46814348a9452de37b70307a191b78&#45;&gt;dir_7370e63381a3da0a5abca9ffd8b57676 -->
<g id="edge17" class="edge">
<title>dir_eb46814348a9452de37b70307a191b78&#45;&gt;dir_7370e63381a3da0a5abca9ffd8b57676</title>
<path fill="none" stroke="black" d="M290.43,-287.94C292.8,-246.27 293.23,-137.91 241.07,-72 222.06,-47.97 189.63,-34.36 164.2,-26.97"/>
<polygon fill="black" stroke="black" points="165.06,-23.57 154.5,-24.34 163.24,-30.33 165.06,-23.57"/>
<g id="a_edge17&#45;headlabel"><a xlink:href="dir_000008_000023.html" target="_top" xlink:title="1">
<text text-anchor="middle" x="169.28" y="-19.27" font-family="Helvetica,sans-Serif" font-size="10.00">1</text>
</a>
</g>
</g>
</g>
</svg>
