<?xml version="1.0" encoding="UTF-8" standalone="no"?>
<!DOCTYPE svg PUBLIC "-//W3C//DTD SVG 1.1//EN"
 "http://www.w3.org/Graphics/SVG/1.1/DTD/svg11.dtd">
<!-- Generated by graphviz version 2.43.0 (0)
 -->
<!-- Title: /home/nico/joda_tmp/tmp&#45;joda&#45;dirs/JODA&#45;gh/libs/joda/core/modules/query/predicate/src/visitors/test Pages: 1 -->
<svg width="105pt" height="295pt"
 viewBox="0.00 0.00 105.00 295.00" xmlns="http://www.w3.org/2000/svg" xmlns:xlink="http://www.w3.org/1999/xlink">
<g id="graph0" class="graph" transform="scale(1 1) rotate(0) translate(4 291)">
<title>/home/nico/joda_tmp/tmp&#45;joda&#45;dirs/JODA&#45;gh/libs/joda/core/modules/query/predicate/src/visitors/test</title>
<polygon fill="white" stroke="transparent" points="-4,4 -4,-291 101,-291 101,4 -4,4"/>
<g id="clust1" class="cluster">
<title>clusterdir_40b9ec68892f5ff2845558eee8f0f22d</title>
<g id="a_clust1"><a xlink:href="dir_40b9ec68892f5ff2845558eee8f0f22d.html" target="_top" xlink:title="visitors">
<polygon fill="#ddddee" stroke="black" points="8,-208 8,-279 78,-279 78,-208 8,-208"/>
<text text-anchor="middle" x="43" y="-267" font-family="Helvetica,sans-Serif" font-size="10.00">visitors</text>
</a>
</g>
</g>
<!-- dir_a206f31cd5404e21401d295ce273ba9c -->
<g id="node1" class="node">
<title>dir_a206f31cd5404e21401d295ce273ba9c</title>
<g id="a_node1"><a xlink:href="dir_a206f31cd5404e21401d295ce273ba9c.html" target="_top" xlink:title="test">
<polygon fill="#eeeeff" stroke="black" points="70,-252 16,-252 16,-216 70,-216 70,-252"/>
<text text-anchor="middle" x="43" y="-231.5" font-family="Helvetica,sans-Serif" font-size="10.00">test</text>
</a>
</g>
</g>
<!-- dir_7adee42121e985c875ec5732d0d89f93 -->
<g id="node2" class="node">
<title>dir_7adee42121e985c875ec5732d0d89f93</title>
<g id="a_node2"><a xlink:href="dir_7adee42121e985c875ec5732d0d89f93.html" target="_top" xlink:title="include">
<polygon fill="white" stroke="red" points="70,-108 16,-108 16,-72 70,-72 70,-108"/>
<text text-anchor="middle" x="43" y="-87.5" font-family="Helvetica,sans-Serif" font-size="10.00">include</text>
</a>
</g>
</g>
<!-- dir_a206f31cd5404e21401d295ce273ba9c&#45;&gt;dir_7adee42121e985c875ec5732d0d89f93 -->
<g id="edge3" class="edge">
<title>dir_a206f31cd5404e21401d295ce273ba9c&#45;&gt;dir_7adee42121e985c875ec5732d0d89f93</title>
<path fill="none" stroke="black" d="M27.39,-215.77C19.63,-206.03 11.05,-193.18 7,-180 2.3,-164.71 2.3,-159.29 7,-144 10.01,-134.22 15.51,-124.62 21.32,-116.33"/>
<polygon fill="black" stroke="black" points="24.19,-118.33 27.39,-108.23 18.59,-114.13 24.19,-118.33"/>
<g id="a_edge3&#45;headlabel"><a xlink:href="dir_000088_000082.html" target="_top" xlink:title="3">
<text text-anchor="middle" x="24.31" y="-120.41" font-family="Helvetica,sans-Serif" font-size="10.00">3</text>
</a>
</g>
</g>
<!-- dir_7fab4c9f6ff98d8e5daf9dd22a287031 -->
<g id="node3" class="node">
<title>dir_7fab4c9f6ff98d8e5daf9dd22a287031</title>
<g id="a_node3"><a xlink:href="dir_7fab4c9f6ff98d8e5daf9dd22a287031.html" target="_top" xlink:title="values">
<polygon fill="white" stroke="red" points="97,-36 43,-36 43,0 97,0 97,-36"/>
<text text-anchor="middle" x="70" y="-15.5" font-family="Helvetica,sans-Serif" font-size="10.00">values</text>
</a>
</g>
</g>
<!-- dir_a206f31cd5404e21401d295ce273ba9c&#45;&gt;dir_7fab4c9f6ff98d8e5daf9dd22a287031 -->
<g id="edge4" class="edge">
<title>dir_a206f31cd5404e21401d295ce273ba9c&#45;&gt;dir_7fab4c9f6ff98d8e5daf9dd22a287031</title>
<path fill="none" stroke="black" d="M58.61,-215.77C66.37,-206.03 74.95,-193.18 79,-180 92.9,-134.8 84.54,-79.16 77.24,-46.53"/>
<polygon fill="black" stroke="black" points="80.55,-45.32 74.84,-36.4 73.74,-46.93 80.55,-45.32"/>
<g id="a_edge4&#45;headlabel"><a xlink:href="dir_000088_000097.html" target="_top" xlink:title="4">
<text text-anchor="middle" x="84.14" y="-45.66" font-family="Helvetica,sans-Serif" font-size="10.00">4</text>
</a>
</g>
</g>
<!-- dir_9ee1ff28d9eaa51194f1ce4491cf4ecc -->
<g id="node4" class="node">
<title>dir_9ee1ff28d9eaa51194f1ce4491cf4ecc</title>
<g id="a_node4"><a xlink:href="dir_9ee1ff28d9eaa51194f1ce4491cf4ecc.html" target="_top" xlink:title="include">
<polygon fill="white" stroke="red" points="70,-180 16,-180 16,-144 70,-144 70,-180"/>
<text text-anchor="middle" x="43" y="-159.5" font-family="Helvetica,sans-Serif" font-size="10.00">include</text>
</a>
</g>
</g>
<!-- dir_a206f31cd5404e21401d295ce273ba9c&#45;&gt;dir_9ee1ff28d9eaa51194f1ce4491cf4ecc -->
<g id="edge5" class="edge">
<title>dir_a206f31cd5404e21401d295ce273ba9c&#45;&gt;dir_9ee1ff28d9eaa51194f1ce4491cf4ecc</title>
<path fill="none" stroke="black" d="M43,-215.7C43,-207.98 43,-198.71 43,-190.11"/>
<polygon fill="black" stroke="black" points="46.5,-190.1 43,-180.1 39.5,-190.1 46.5,-190.1"/>
<g id="a_edge5&#45;headlabel"><a xlink:href="dir_000088_000078.html" target="_top" xlink:title="1">
<text text-anchor="middle" x="49.34" y="-191.2" font-family="Helvetica,sans-Serif" font-size="10.00">1</text>
</a>
</g>
</g>
<!-- dir_7adee42121e985c875ec5732d0d89f93&#45;&gt;dir_7fab4c9f6ff98d8e5daf9dd22a287031 -->
<g id="edge2" class="edge">
<title>dir_7adee42121e985c875ec5732d0d89f93&#45;&gt;dir_7fab4c9f6ff98d8e5daf9dd22a287031</title>
<path fill="none" stroke="black" d="M49.67,-71.7C52.71,-63.81 56.38,-54.3 59.76,-45.55"/>
<polygon fill="black" stroke="black" points="63.07,-46.69 63.4,-36.1 56.54,-44.17 63.07,-46.69"/>
<g id="a_edge2&#45;headlabel"><a xlink:href="dir_000082_000097.html" target="_top" xlink:title="3">
<text text-anchor="middle" x="64.42" y="-48.57" font-family="Helvetica,sans-Serif" font-size="10.00">3</text>
</a>
</g>
</g>
<!-- dir_9ee1ff28d9eaa51194f1ce4491cf4ecc&#45;&gt;dir_7adee42121e985c875ec5732d0d89f93 -->
<g id="edge1" class="edge">
<title>dir_9ee1ff28d9eaa51194f1ce4491cf4ecc&#45;&gt;dir_7adee42121e985c875ec5732d0d89f93</title>
<path fill="none" stroke="black" d="M43,-143.7C43,-135.98 43,-126.71 43,-118.11"/>
<polygon fill="black" stroke="black" points="46.5,-118.1 43,-108.1 39.5,-118.1 46.5,-118.1"/>
<g id="a_edge1&#45;headlabel"><a xlink:href="dir_000078_000082.html" target="_top" xlink:title="1">
<text text-anchor="middle" x="49.34" y="-119.2" font-family="Helvetica,sans-Serif" font-size="10.00">1</text>
</a>
</g>
</g>
</g>
</svg>
