<?xml version="1.0" encoding="UTF-8" standalone="no"?>
<!DOCTYPE svg PUBLIC "-//W3C//DTD SVG 1.1//EN"
 "http://www.w3.org/Graphics/SVG/1.1/DTD/svg11.dtd">
<!-- Generated by graphviz version 2.43.0 (0)
 -->
<!-- Title: /home/nico/projects/JODA&#45;gh/libs/joda/core/modules/storage/document/include/joda/document/view Pages: 1 -->
<svg width="106pt" height="223pt"
 viewBox="0.00 0.00 106.00 223.00" xmlns="http://www.w3.org/2000/svg" xmlns:xlink="http://www.w3.org/1999/xlink">
<g id="graph0" class="graph" transform="scale(1 1) rotate(0) translate(4 219)">
<title>/home/nico/projects/JODA&#45;gh/libs/joda/core/modules/storage/document/include/joda/document/view</title>
<polygon fill="white" stroke="transparent" points="-4,4 -4,-219 102,-219 102,4 -4,4"/>
<g id="clust1" class="cluster">
<title>clusterdir_2823dc8942b1b24105a0c0f2be67d8df</title>
<g id="a_clust1"><a xlink:href="dir_2823dc8942b1b24105a0c0f2be67d8df.html" target="_top" xlink:title="document">
<polygon fill="#ddddee" stroke="black" points="20,-136 20,-207 90,-207 90,-136 20,-136"/>
<text text-anchor="middle" x="55" y="-195" font-family="Helvetica,sans-Serif" font-size="10.00">document</text>
</a>
</g>
</g>
<!-- dir_07561442a8e1cff54351aafc13b1c1d6 -->
<g id="node1" class="node">
<title>dir_07561442a8e1cff54351aafc13b1c1d6</title>
<g id="a_node1"><a xlink:href="dir_07561442a8e1cff54351aafc13b1c1d6.html" target="_top" xlink:title="view">
<polygon fill="#eeeeff" stroke="black" points="82,-180 28,-180 28,-144 82,-144 82,-180"/>
<text text-anchor="middle" x="55" y="-159.5" font-family="Helvetica,sans-Serif" font-size="10.00">view</text>
</a>
</g>
</g>
<!-- dir_686a2d3b8380929f3bfddf3b00ff951b -->
<g id="node2" class="node">
<title>dir_686a2d3b8380929f3bfddf3b00ff951b</title>
<g id="a_node2"><a xlink:href="dir_686a2d3b8380929f3bfddf3b00ff951b.html" target="_top" xlink:title="misc">
<polygon fill="white" stroke="red" points="54,-108 0,-108 0,-72 54,-72 54,-108"/>
<text text-anchor="middle" x="27" y="-87.5" font-family="Helvetica,sans-Serif" font-size="10.00">misc</text>
</a>
</g>
</g>
<!-- dir_07561442a8e1cff54351aafc13b1c1d6&#45;&gt;dir_686a2d3b8380929f3bfddf3b00ff951b -->
<g id="edge3" class="edge">
<title>dir_07561442a8e1cff54351aafc13b1c1d6&#45;&gt;dir_686a2d3b8380929f3bfddf3b00ff951b</title>
<path fill="none" stroke="black" d="M48.08,-143.7C44.93,-135.81 41.12,-126.3 37.62,-117.55"/>
<polygon fill="black" stroke="black" points="40.81,-116.09 33.84,-108.1 34.31,-118.69 40.81,-116.09"/>
<g id="a_edge3&#45;headlabel"><a xlink:href="dir_000142_000049.html" target="_top" xlink:title="6">
<text text-anchor="middle" x="44.78" y="-115.87" font-family="Helvetica,sans-Serif" font-size="10.00">6</text>
</a>
</g>
</g>
<!-- dir_7370e63381a3da0a5abca9ffd8b57676 -->
<g id="node3" class="node">
<title>dir_7370e63381a3da0a5abca9ffd8b57676</title>
<g id="a_node3"><a xlink:href="dir_7370e63381a3da0a5abca9ffd8b57676.html" target="_top" xlink:title="config">
<polygon fill="white" stroke="red" points="54,-36 0,-36 0,0 54,0 54,-36"/>
<text text-anchor="middle" x="27" y="-15.5" font-family="Helvetica,sans-Serif" font-size="10.00">config</text>
</a>
</g>
</g>
<!-- dir_07561442a8e1cff54351aafc13b1c1d6&#45;&gt;dir_7370e63381a3da0a5abca9ffd8b57676 -->
<g id="edge4" class="edge">
<title>dir_07561442a8e1cff54351aafc13b1c1d6&#45;&gt;dir_7370e63381a3da0a5abca9ffd8b57676</title>
<path fill="none" stroke="black" d="M60.34,-143.87C65.16,-125.64 70.43,-96.17 63,-72 59.99,-62.22 54.49,-52.62 48.68,-44.33"/>
<polygon fill="black" stroke="black" points="51.41,-42.13 42.61,-36.23 45.81,-46.33 51.41,-42.13"/>
<g id="a_edge4&#45;headlabel"><a xlink:href="dir_000142_000023.html" target="_top" xlink:title="1">
<text text-anchor="middle" x="55.83" y="-40.8" font-family="Helvetica,sans-Serif" font-size="10.00">1</text>
</a>
</g>
</g>
<!-- dir_686a2d3b8380929f3bfddf3b00ff951b&#45;&gt;dir_7370e63381a3da0a5abca9ffd8b57676 -->
<g id="edge1" class="edge">
<title>dir_686a2d3b8380929f3bfddf3b00ff951b&#45;&gt;dir_7370e63381a3da0a5abca9ffd8b57676</title>
<path fill="none" stroke="black" d="M21.08,-71.7C20.29,-63.98 20.06,-54.71 20.4,-46.11"/>
<polygon fill="black" stroke="black" points="23.9,-46.32 21.1,-36.1 16.92,-45.84 23.9,-46.32"/>
<g id="a_edge1&#45;headlabel"><a xlink:href="dir_000049_000023.html" target="_top" xlink:title="1">
<text text-anchor="middle" x="26.48" y="-47.61" font-family="Helvetica,sans-Serif" font-size="10.00">1</text>
</a>
</g>
</g>
<!-- dir_7370e63381a3da0a5abca9ffd8b57676&#45;&gt;dir_686a2d3b8380929f3bfddf3b00ff951b -->
<g id="edge2" class="edge">
<title>dir_7370e63381a3da0a5abca9ffd8b57676&#45;&gt;dir_686a2d3b8380929f3bfddf3b00ff951b</title>
<path fill="none" stroke="black" d="M32.9,-36.1C33.7,-43.79 33.94,-53.05 33.6,-61.67"/>
<polygon fill="black" stroke="black" points="30.11,-61.48 32.92,-71.7 37.09,-61.96 30.11,-61.48"/>
<g id="a_edge2&#45;headlabel"><a xlink:href="dir_000023_000049.html" target="_top" xlink:title="1">
<text text-anchor="middle" x="27.52" y="-55.2" font-family="Helvetica,sans-Serif" font-size="10.00">1</text>
</a>
</g>
</g>
</g>
</svg>
