<?xml version="1.0" encoding="UTF-8" standalone="no"?>
<!DOCTYPE svg PUBLIC "-//W3C//DTD SVG 1.1//EN"
 "http://www.w3.org/Graphics/SVG/1.1/DTD/svg11.dtd">
<!-- Generated by graphviz version 2.43.0 (0)
 -->
<!-- Title: /home/nico/joda_tmp/tmp&#45;joda&#45;dirs/JODA&#45;gh/libs/joda/core/modules/query/src Pages: 1 -->
<svg width="142pt" height="311pt"
 viewBox="0.00 0.00 142.00 311.00" xmlns="http://www.w3.org/2000/svg" xmlns:xlink="http://www.w3.org/1999/xlink">
<g id="graph0" class="graph" transform="scale(1 1) rotate(0) translate(4 307)">
<title>/home/nico/joda_tmp/tmp&#45;joda&#45;dirs/JODA&#45;gh/libs/joda/core/modules/query/src</title>
<polygon fill="white" stroke="transparent" points="-4,4 -4,-307 138,-307 138,4 -4,4"/>
<g id="clust1" class="cluster">
<title>clusterdir_308afe6c0c0e65dd84efc4369dd1efeb</title>
<g id="a_clust1"><a xlink:href="dir_308afe6c0c0e65dd84efc4369dd1efeb.html" target="_top" xlink:title="query">
<polygon fill="#ddddee" stroke="black" points="8,-8 8,-295 126,-295 126,-8 8,-8"/>
<text text-anchor="middle" x="67" y="-283" font-family="Helvetica,sans-Serif" font-size="10.00">query</text>
</a>
</g>
</g>
<!-- dir_1efb1bf1631d4f4540499539a6adab96 -->
<g id="node1" class="node">
<title>dir_1efb1bf1631d4f4540499539a6adab96</title>
<g id="a_node1"><a xlink:href="dir_1efb1bf1631d4f4540499539a6adab96.html" target="_top" xlink:title="predicate">
<polygon fill="white" stroke="red" points="78,-196 16,-196 16,-160 78,-160 78,-196"/>
<text text-anchor="middle" x="47" y="-175.5" font-family="Helvetica,sans-Serif" font-size="10.00">predicate</text>
</a>
</g>
</g>
<!-- dir_9ee1ff28d9eaa51194f1ce4491cf4ecc -->
<g id="node3" class="node">
<title>dir_9ee1ff28d9eaa51194f1ce4491cf4ecc</title>
<g id="a_node3"><a xlink:href="dir_9ee1ff28d9eaa51194f1ce4491cf4ecc.html" target="_top" xlink:title="include">
<polygon fill="white" stroke="red" points="85,-124 31,-124 31,-88 85,-88 85,-124"/>
<text text-anchor="middle" x="58" y="-103.5" font-family="Helvetica,sans-Serif" font-size="10.00">include</text>
</a>
</g>
</g>
<!-- dir_1efb1bf1631d4f4540499539a6adab96&#45;&gt;dir_9ee1ff28d9eaa51194f1ce4491cf4ecc -->
<g id="edge6" class="edge">
<title>dir_1efb1bf1631d4f4540499539a6adab96&#45;&gt;dir_9ee1ff28d9eaa51194f1ce4491cf4ecc</title>
<path fill="none" stroke="black" d="M43.8,-159.7C44.22,-151.98 45.45,-142.71 47.14,-134.11"/>
<polygon fill="black" stroke="black" points="50.62,-134.63 49.42,-124.1 43.79,-133.08 50.62,-134.63"/>
<g id="a_edge6&#45;headlabel"><a xlink:href="dir_000081_000078.html" target="_top" xlink:title="1">
<text text-anchor="middle" x="52.59" y="-136.27" font-family="Helvetica,sans-Serif" font-size="10.00">1</text>
</a>
</g>
</g>
<!-- dir_99e76b3dab188443dd9eb7fee6aac774 -->
<g id="node2" class="node">
<title>dir_99e76b3dab188443dd9eb7fee6aac774</title>
<g id="a_node2"><a xlink:href="dir_99e76b3dab188443dd9eb7fee6aac774.html" target="_top" xlink:title="project">
<polygon fill="white" stroke="red" points="107,-52 53,-52 53,-16 107,-16 107,-52"/>
<text text-anchor="middle" x="80" y="-31.5" font-family="Helvetica,sans-Serif" font-size="10.00">project</text>
</a>
</g>
</g>
<!-- dir_9ee1ff28d9eaa51194f1ce4491cf4ecc&#45;&gt;dir_1efb1bf1631d4f4540499539a6adab96 -->
<g id="edge1" class="edge">
<title>dir_9ee1ff28d9eaa51194f1ce4491cf4ecc&#45;&gt;dir_1efb1bf1631d4f4540499539a6adab96</title>
<path fill="none" stroke="black" d="M61.21,-124.1C60.8,-131.79 59.59,-141.05 57.9,-149.67"/>
<polygon fill="black" stroke="black" points="54.42,-149.17 55.63,-159.7 61.25,-150.71 54.42,-149.17"/>
<g id="a_edge1&#45;headlabel"><a xlink:href="dir_000078_000081.html" target="_top" xlink:title="1">
<text text-anchor="middle" x="52.44" y="-142.54" font-family="Helvetica,sans-Serif" font-size="10.00">1</text>
</a>
</g>
</g>
<!-- dir_9ee1ff28d9eaa51194f1ce4491cf4ecc&#45;&gt;dir_99e76b3dab188443dd9eb7fee6aac774 -->
<g id="edge2" class="edge">
<title>dir_9ee1ff28d9eaa51194f1ce4491cf4ecc&#45;&gt;dir_99e76b3dab188443dd9eb7fee6aac774</title>
<path fill="none" stroke="black" d="M63.44,-87.7C65.89,-79.9 68.84,-70.51 71.57,-61.83"/>
<polygon fill="black" stroke="black" points="74.96,-62.69 74.62,-52.1 68.29,-60.59 74.96,-62.69"/>
<g id="a_edge2&#45;headlabel"><a xlink:href="dir_000078_000089.html" target="_top" xlink:title="2">
<text text-anchor="middle" x="76.6" y="-64.47" font-family="Helvetica,sans-Serif" font-size="10.00">2</text>
</a>
</g>
</g>
<!-- dir_0915a684ee3f4afd173c39fa5095b969 -->
<g id="node4" class="node">
<title>dir_0915a684ee3f4afd173c39fa5095b969</title>
<g id="a_node4"><a xlink:href="dir_0915a684ee3f4afd173c39fa5095b969.html" target="_top" xlink:title="src">
<polygon fill="#eeeeff" stroke="black" points="118,-268 64,-268 64,-232 118,-232 118,-268"/>
<text text-anchor="middle" x="91" y="-247.5" font-family="Helvetica,sans-Serif" font-size="10.00">src</text>
</a>
</g>
</g>
<!-- dir_0915a684ee3f4afd173c39fa5095b969&#45;&gt;dir_1efb1bf1631d4f4540499539a6adab96 -->
<g id="edge3" class="edge">
<title>dir_0915a684ee3f4afd173c39fa5095b969&#45;&gt;dir_1efb1bf1631d4f4540499539a6adab96</title>
<path fill="none" stroke="black" d="M80.12,-231.7C75.01,-223.56 68.8,-213.69 63.16,-204.7"/>
<polygon fill="black" stroke="black" points="66.04,-202.71 57.75,-196.1 60.11,-206.43 66.04,-202.71"/>
<g id="a_edge3&#45;headlabel"><a xlink:href="dir_000096_000081.html" target="_top" xlink:title="4">
<text text-anchor="middle" x="70.35" y="-201.74" font-family="Helvetica,sans-Serif" font-size="10.00">4</text>
</a>
</g>
</g>
<!-- dir_0915a684ee3f4afd173c39fa5095b969&#45;&gt;dir_99e76b3dab188443dd9eb7fee6aac774 -->
<g id="edge4" class="edge">
<title>dir_0915a684ee3f4afd173c39fa5095b969&#45;&gt;dir_99e76b3dab188443dd9eb7fee6aac774</title>
<path fill="none" stroke="black" d="M92.96,-231.99C95.98,-202.52 100.77,-140.12 94,-88 92.9,-79.51 90.84,-70.43 88.63,-62.24"/>
<polygon fill="black" stroke="black" points="91.95,-61.09 85.82,-52.44 85.22,-63.02 91.95,-61.09"/>
<g id="a_edge4&#45;headlabel"><a xlink:href="dir_000096_000089.html" target="_top" xlink:title="1">
<text text-anchor="middle" x="95.67" y="-61.26" font-family="Helvetica,sans-Serif" font-size="10.00">1</text>
</a>
</g>
</g>
<!-- dir_0915a684ee3f4afd173c39fa5095b969&#45;&gt;dir_9ee1ff28d9eaa51194f1ce4491cf4ecc -->
<g id="edge5" class="edge">
<title>dir_0915a684ee3f4afd173c39fa5095b969&#45;&gt;dir_9ee1ff28d9eaa51194f1ce4491cf4ecc</title>
<path fill="none" stroke="black" d="M92.49,-231.91C93.56,-213.72 93.79,-184.28 87,-160 84.41,-150.75 79.97,-141.34 75.32,-133.07"/>
<polygon fill="black" stroke="black" points="78.21,-131.07 70.09,-124.28 72.2,-134.66 78.21,-131.07"/>
<g id="a_edge5&#45;headlabel"><a xlink:href="dir_000096_000078.html" target="_top" xlink:title="1">
<text text-anchor="middle" x="82.49" y="-130.21" font-family="Helvetica,sans-Serif" font-size="10.00">1</text>
</a>
</g>
</g>
</g>
</svg>
