<?xml version="1.0" encoding="UTF-8" standalone="no"?>
<!DOCTYPE svg PUBLIC "-//W3C//DTD SVG 1.1//EN"
 "http://www.w3.org/Graphics/SVG/1.1/DTD/svg11.dtd">
<!-- Generated by graphviz version 2.43.0 (0)
 -->
<!-- Title: /home/nico/projects/tmp&#45;joda&#45;dirs/JODA&#45;gh/libs/joda/core/modules/indexing/include Pages: 1 -->
<svg width="257pt" height="195pt"
 viewBox="0.00 0.00 257.39 195.00" xmlns="http://www.w3.org/2000/svg" xmlns:xlink="http://www.w3.org/1999/xlink">
<g id="graph0" class="graph" transform="scale(1 1) rotate(0) translate(4 191)">
<title>/home/nico/projects/tmp&#45;joda&#45;dirs/JODA&#45;gh/libs/joda/core/modules/indexing/include</title>
<polygon fill="white" stroke="transparent" points="-4,4 -4,-191 253.39,-191 253.39,4 -4,4"/>
<g id="clust1" class="cluster">
<title>clusterdir_f68cecf97e59d94ae40020cb83e5fd19</title>
<g id="a_clust1"><a xlink:href="dir_f68cecf97e59d94ae40020cb83e5fd19.html" target="_top" xlink:title="indexing">
<polygon fill="#ddddee" stroke="black" points="8,-56 8,-143 166,-143 166,-56 8,-56"/>
<text text-anchor="middle" x="87" y="-131" font-family="Helvetica,sans-Serif" font-size="10.00">indexing</text>
</a>
</g>
</g>
<g id="clust2" class="cluster">
<title>clusterdir_728b09d507ad9ea609c2a8fa74c35e49</title>
<g id="a_clust2"><a xlink:href="dir_728b09d507ad9ea609c2a8fa74c35e49.html" target="_top">
<polygon fill="#eeeeff" stroke="black" points="16,-64 16,-116 158,-116 158,-64 16,-64"/>
</a>
</g>
</g>
<!-- dir_728b09d507ad9ea609c2a8fa74c35e49 -->
<g id="node1" class="node">
<title>dir_728b09d507ad9ea609c2a8fa74c35e49</title>
<text text-anchor="middle" x="123" y="-87.5" font-family="Helvetica,sans-Serif" font-size="10.00">include</text>
</g>
<!-- dir_708f51c5f16f12b1053fea2908b3323d -->
<g id="node2" class="node">
<title>dir_708f51c5f16f12b1053fea2908b3323d</title>
<g id="a_node2"><a xlink:href="dir_708f51c5f16f12b1053fea2908b3323d.html" target="_top" xlink:title="joda">
<polygon fill="white" stroke="red" points="78,-108 24,-108 24,-72 78,-72 78,-108"/>
<text text-anchor="middle" x="51" y="-87.5" font-family="Helvetica,sans-Serif" font-size="10.00">joda</text>
</a>
</g>
</g>
<!-- dir_87cf3f394852c0a9db54c7bb4ca3b0b1 -->
<g id="node3" class="node">
<title>dir_87cf3f394852c0a9db54c7bb4ca3b0b1</title>
<g id="a_node3"><a xlink:href="dir_87cf3f394852c0a9db54c7bb4ca3b0b1.html" target="_top" xlink:title="src">
<polygon fill="white" stroke="red" points="228,-187 174,-187 174,-151 228,-151 228,-187"/>
<text text-anchor="middle" x="201" y="-166.5" font-family="Helvetica,sans-Serif" font-size="10.00">src</text>
</a>
</g>
</g>
<!-- dir_708f51c5f16f12b1053fea2908b3323d&#45;&gt;dir_87cf3f394852c0a9db54c7bb4ca3b0b1 -->
<g id="edge6" class="edge">
<title>dir_708f51c5f16f12b1053fea2908b3323d&#45;&gt;dir_87cf3f394852c0a9db54c7bb4ca3b0b1</title>
<path fill="none" stroke="black" d="M51.08,-108.08C55.66,-119.69 65.23,-134.44 78,-143 103,-159.76 137.37,-165.49 163.57,-167.34"/>
<polygon fill="black" stroke="black" points="163.72,-170.85 173.89,-167.91 164.1,-163.87 163.72,-170.85"/>
<g id="a_edge6&#45;headlabel"><a xlink:href="dir_000040_000042.html" target="_top" xlink:title="1">
<text text-anchor="middle" x="159.97" y="-170.99" font-family="Helvetica,sans-Serif" font-size="10.00">1</text>
</a>
</g>
</g>
<!-- dir_593657602c74fd2b2e9635270b1bdea2 -->
<g id="node4" class="node">
<title>dir_593657602c74fd2b2e9635270b1bdea2</title>
<g id="a_node4"><a xlink:href="dir_593657602c74fd2b2e9635270b1bdea2.html" target="_top" xlink:title="storage">
<polygon fill="white" stroke="red" points="228,-108 174,-108 174,-72 228,-72 228,-108"/>
<text text-anchor="middle" x="201" y="-87.5" font-family="Helvetica,sans-Serif" font-size="10.00">storage</text>
</a>
</g>
</g>
<!-- dir_708f51c5f16f12b1053fea2908b3323d&#45;&gt;dir_593657602c74fd2b2e9635270b1bdea2 -->
<g id="edge7" class="edge">
<title>dir_708f51c5f16f12b1053fea2908b3323d&#45;&gt;dir_593657602c74fd2b2e9635270b1bdea2</title>
<path fill="none" stroke="black" d="M59.94,-108.13C66.24,-119.37 75.56,-133.44 87,-143 90.36,-145.81 91.72,-146.09 96,-147 120.78,-152.26 128.22,-152.26 153,-147 168.73,-143.66 180.5,-130.12 188.45,-117.08"/>
<polygon fill="black" stroke="black" points="191.55,-118.7 193.35,-108.26 185.43,-115.31 191.55,-118.7"/>
<g id="a_edge7&#45;headlabel"><a xlink:href="dir_000040_000125.html" target="_top" xlink:title="1">
<text text-anchor="middle" x="192.29" y="-120.72" font-family="Helvetica,sans-Serif" font-size="10.00">1</text>
</a>
</g>
</g>
<!-- dir_308afe6c0c0e65dd84efc4369dd1efeb -->
<g id="node5" class="node">
<title>dir_308afe6c0c0e65dd84efc4369dd1efeb</title>
<g id="a_node5"><a xlink:href="dir_308afe6c0c0e65dd84efc4369dd1efeb.html" target="_top" xlink:title="query">
<polygon fill="white" stroke="red" points="228,-36 174,-36 174,0 228,0 228,-36"/>
<text text-anchor="middle" x="201" y="-15.5" font-family="Helvetica,sans-Serif" font-size="10.00">query</text>
</a>
</g>
</g>
<!-- dir_708f51c5f16f12b1053fea2908b3323d&#45;&gt;dir_308afe6c0c0e65dd84efc4369dd1efeb -->
<g id="edge8" class="edge">
<title>dir_708f51c5f16f12b1053fea2908b3323d&#45;&gt;dir_308afe6c0c0e65dd84efc4369dd1efeb</title>
<path fill="none" stroke="black" d="M66.65,-71.93C72.58,-66.24 79.68,-60.27 87,-56 110.96,-42.03 140.87,-32.58 164.04,-26.73"/>
<polygon fill="black" stroke="black" points="164.94,-30.11 173.84,-24.36 163.3,-23.3 164.94,-30.11"/>
<g id="a_edge8&#45;headlabel"><a xlink:href="dir_000040_000065.html" target="_top" xlink:title="1">
<text text-anchor="middle" x="162.11" y="-31.21" font-family="Helvetica,sans-Serif" font-size="10.00">1</text>
</a>
</g>
</g>
<!-- dir_87cf3f394852c0a9db54c7bb4ca3b0b1&#45;&gt;dir_708f51c5f16f12b1053fea2908b3323d -->
<g id="edge2" class="edge">
<title>dir_87cf3f394852c0a9db54c7bb4ca3b0b1&#45;&gt;dir_708f51c5f16f12b1053fea2908b3323d</title>
<path fill="none" stroke="black" d="M173.55,-166.93C150.99,-164.71 119.39,-158.68 96,-143 86.22,-136.45 78.32,-126.26 71.78,-116.64"/>
<polygon fill="black" stroke="black" points="74.56,-114.51 66.14,-108.08 68.72,-118.36 74.56,-114.51"/>
<g id="a_edge2&#45;headlabel"><a xlink:href="dir_000042_000040.html" target="_top" xlink:title="1">
<text text-anchor="middle" x="78.91" y="-113.44" font-family="Helvetica,sans-Serif" font-size="10.00">1</text>
</a>
</g>
</g>
<!-- dir_87cf3f394852c0a9db54c7bb4ca3b0b1&#45;&gt;dir_593657602c74fd2b2e9635270b1bdea2 -->
<g id="edge1" class="edge">
<title>dir_87cf3f394852c0a9db54c7bb4ca3b0b1&#45;&gt;dir_593657602c74fd2b2e9635270b1bdea2</title>
<path fill="none" stroke="black" d="M201,-150.91C201,-141.34 201,-129.18 201,-118.32"/>
<polygon fill="black" stroke="black" points="204.5,-118.04 201,-108.04 197.5,-118.04 204.5,-118.04"/>
<g id="a_edge1&#45;headlabel"><a xlink:href="dir_000042_000125.html" target="_top" xlink:title="1">
<text text-anchor="middle" x="207.34" y="-119.14" font-family="Helvetica,sans-Serif" font-size="10.00">1</text>
</a>
</g>
</g>
<!-- dir_87cf3f394852c0a9db54c7bb4ca3b0b1&#45;&gt;dir_308afe6c0c0e65dd84efc4369dd1efeb -->
<g id="edge3" class="edge">
<title>dir_87cf3f394852c0a9db54c7bb4ca3b0b1&#45;&gt;dir_308afe6c0c0e65dd84efc4369dd1efeb</title>
<path fill="none" stroke="black" d="M228.27,-153.59C231.78,-150.57 234.88,-147.05 237,-143 254.92,-108.74 251.55,-91.82 237,-56 235.24,-51.68 232.72,-47.59 229.8,-43.81"/>
<polygon fill="black" stroke="black" points="232.2,-41.24 222.95,-36.07 226.96,-45.88 232.2,-41.24"/>
<g id="a_edge3&#45;headlabel"><a xlink:href="dir_000042_000065.html" target="_top" xlink:title="3">
<text text-anchor="middle" x="236.71" y="-39.55" font-family="Helvetica,sans-Serif" font-size="10.00">3</text>
</a>
</g>
</g>
<!-- dir_593657602c74fd2b2e9635270b1bdea2&#45;&gt;dir_708f51c5f16f12b1053fea2908b3323d -->
<g id="edge4" class="edge">
<title>dir_593657602c74fd2b2e9635270b1bdea2&#45;&gt;dir_708f51c5f16f12b1053fea2908b3323d</title>
<path fill="none" stroke="black" d="M193.35,-108.26C185.73,-123.33 172.36,-142.89 153,-147 128.22,-152.26 120.78,-152.26 96,-147 91.72,-146.09 90.36,-145.81 87,-143 78.42,-135.83 71.03,-126.12 65.22,-116.97"/>
<polygon fill="black" stroke="black" points="68.07,-114.92 59.94,-108.13 62.06,-118.51 68.07,-114.92"/>
<g id="a_edge4&#45;headlabel"><a xlink:href="dir_000125_000040.html" target="_top" xlink:title="1">
<text text-anchor="middle" x="72.35" y="-114.06" font-family="Helvetica,sans-Serif" font-size="10.00">1</text>
</a>
</g>
</g>
<!-- dir_593657602c74fd2b2e9635270b1bdea2&#45;&gt;dir_308afe6c0c0e65dd84efc4369dd1efeb -->
<g id="edge5" class="edge">
<title>dir_593657602c74fd2b2e9635270b1bdea2&#45;&gt;dir_308afe6c0c0e65dd84efc4369dd1efeb</title>
<path fill="none" stroke="black" d="M195.08,-71.7C194.29,-63.98 194.06,-54.71 194.4,-46.11"/>
<polygon fill="black" stroke="black" points="197.9,-46.32 195.1,-36.1 190.92,-45.84 197.9,-46.32"/>
<g id="a_edge5&#45;headlabel"><a xlink:href="dir_000125_000065.html" target="_top" xlink:title="4">
<text text-anchor="middle" x="200.48" y="-47.61" font-family="Helvetica,sans-Serif" font-size="10.00">4</text>
</a>
</g>
</g>
<!-- dir_308afe6c0c0e65dd84efc4369dd1efeb&#45;&gt;dir_593657602c74fd2b2e9635270b1bdea2 -->
<g id="edge9" class="edge">
<title>dir_308afe6c0c0e65dd84efc4369dd1efeb&#45;&gt;dir_593657602c74fd2b2e9635270b1bdea2</title>
<path fill="none" stroke="black" d="M206.9,-36.1C207.7,-43.79 207.94,-53.05 207.6,-61.67"/>
<polygon fill="black" stroke="black" points="204.11,-61.48 206.92,-71.7 211.09,-61.96 204.11,-61.48"/>
<g id="a_edge9&#45;headlabel"><a xlink:href="dir_000065_000125.html" target="_top" xlink:title="11">
<text text-anchor="middle" x="201.52" y="-55.2" font-family="Helvetica,sans-Serif" font-size="10.00">11</text>
</a>
</g>
</g>
</g>
</svg>
