<?xml version="1.0" encoding="UTF-8" standalone="no"?>
<!DOCTYPE svg PUBLIC "-//W3C//DTD SVG 1.1//EN"
 "http://www.w3.org/Graphics/SVG/1.1/DTD/svg11.dtd">
<!-- Generated by graphviz version 2.43.0 (0)
 -->
<!-- Title: /home/nico/joda_tmp/tmp&#45;joda&#45;dirs/JODA&#45;gh/libs/joda/core/modules/network/src Pages: 1 -->
<svg width="368pt" height="447pt"
 viewBox="0.00 0.00 367.64 447.00" xmlns="http://www.w3.org/2000/svg" xmlns:xlink="http://www.w3.org/1999/xlink">
<g id="graph0" class="graph" transform="scale(1 1) rotate(0) translate(4 443)">
<title>/home/nico/joda_tmp/tmp&#45;joda&#45;dirs/JODA&#45;gh/libs/joda/core/modules/network/src</title>
<polygon fill="white" stroke="transparent" points="-4,4 -4,-443 363.64,-443 363.64,4 -4,4"/>
<g id="clust1" class="cluster">
<title>clusterdir_f5b39f9ad15100309d2401c2220ea1ab</title>
<g id="a_clust1"><a xlink:href="dir_f5b39f9ad15100309d2401c2220ea1ab.html" target="_top" xlink:title="network">
<polygon fill="#ddddee" stroke="black" points="259.44,-208 259.44,-431 345.44,-431 345.44,-208 259.44,-208"/>
<text text-anchor="middle" x="302.44" y="-419" font-family="Helvetica,sans-Serif" font-size="10.00">network</text>
</a>
</g>
</g>
<g id="clust2" class="cluster">
<title>clusterdir_86c92b489e15313be87ebf3ce3c46dc2</title>
<g id="a_clust2"><a xlink:href="dir_86c92b489e15313be87ebf3ce3c46dc2.html" target="_top">
<polygon fill="#eeeeff" stroke="black" points="267.44,-280 267.44,-404 337.44,-404 337.44,-280 267.44,-280"/>
</a>
</g>
</g>
<!-- dir_2a2e54c961d19636a21e44e148cfc96d -->
<g id="node1" class="node">
<title>dir_2a2e54c961d19636a21e44e148cfc96d</title>
<g id="a_node1"><a xlink:href="dir_2a2e54c961d19636a21e44e148cfc96d.html" target="_top" xlink:title="include">
<polygon fill="white" stroke="red" points="337.44,-252 283.44,-252 283.44,-216 337.44,-216 337.44,-252"/>
<text text-anchor="middle" x="310.44" y="-231.5" font-family="Helvetica,sans-Serif" font-size="10.00">include</text>
</a>
</g>
</g>
<!-- dir_686a2d3b8380929f3bfddf3b00ff951b -->
<g id="node6" class="node">
<title>dir_686a2d3b8380929f3bfddf3b00ff951b</title>
<g id="a_node6"><a xlink:href="dir_686a2d3b8380929f3bfddf3b00ff951b.html" target="_top" xlink:title="misc">
<polygon fill="white" stroke="red" points="261.44,-108 207.44,-108 207.44,-72 261.44,-72 261.44,-108"/>
<text text-anchor="middle" x="234.44" y="-87.5" font-family="Helvetica,sans-Serif" font-size="10.00">misc</text>
</a>
</g>
</g>
<!-- dir_2a2e54c961d19636a21e44e148cfc96d&#45;&gt;dir_686a2d3b8380929f3bfddf3b00ff951b -->
<g id="edge5" class="edge">
<title>dir_2a2e54c961d19636a21e44e148cfc96d&#45;&gt;dir_686a2d3b8380929f3bfddf3b00ff951b</title>
<path fill="none" stroke="black" d="M303.47,-215.89C295.85,-197.69 282.92,-168.23 269.44,-144 264.34,-134.85 258.21,-125.19 252.51,-116.66"/>
<polygon fill="black" stroke="black" points="255.31,-114.55 246.79,-108.25 249.52,-118.49 255.31,-114.55"/>
<g id="a_edge5&#45;headlabel"><a xlink:href="dir_000054_000049.html" target="_top" xlink:title="2">
<text text-anchor="middle" x="259.68" y="-113.42" font-family="Helvetica,sans-Serif" font-size="10.00">2</text>
</a>
</g>
</g>
<!-- dir_86c92b489e15313be87ebf3ce3c46dc2 -->
<g id="node2" class="node">
<title>dir_86c92b489e15313be87ebf3ce3c46dc2</title>
<text text-anchor="middle" x="302.44" y="-375.5" font-family="Helvetica,sans-Serif" font-size="10.00">src</text>
</g>
<!-- dir_6623d0b4548183de422572e438664a62 -->
<g id="node3" class="node">
<title>dir_6623d0b4548183de422572e438664a62</title>
<g id="a_node3"><a xlink:href="dir_6623d0b4548183de422572e438664a62.html" target="_top" xlink:title="apiv2">
<polygon fill="white" stroke="black" points="329.44,-324 275.44,-324 275.44,-288 329.44,-288 329.44,-324"/>
<text text-anchor="middle" x="302.44" y="-303.5" font-family="Helvetica,sans-Serif" font-size="10.00">apiv2</text>
</a>
</g>
</g>
<!-- dir_86c92b489e15313be87ebf3ce3c46dc2&#45;&gt;dir_6623d0b4548183de422572e438664a62 -->
<g id="edge7" class="edge">
<title>dir_86c92b489e15313be87ebf3ce3c46dc2&#45;&gt;dir_6623d0b4548183de422572e438664a62</title>
<path fill="none" stroke="black" d="M302.44,-359.7C302.44,-351.98 302.44,-342.71 302.44,-334.11"/>
<polygon fill="black" stroke="black" points="305.94,-334.1 302.44,-324.1 298.94,-334.1 305.94,-334.1"/>
<g id="a_edge7&#45;headlabel"><a xlink:href="dir_000058_000059.html" target="_top" xlink:title="1">
<text text-anchor="middle" x="308.78" y="-335.2" font-family="Helvetica,sans-Serif" font-size="10.00">1</text>
</a>
</g>
</g>
<!-- dir_6623d0b4548183de422572e438664a62&#45;&gt;dir_2a2e54c961d19636a21e44e148cfc96d -->
<g id="edge9" class="edge">
<title>dir_6623d0b4548183de422572e438664a62&#45;&gt;dir_2a2e54c961d19636a21e44e148cfc96d</title>
<path fill="none" stroke="black" d="M304.41,-287.7C305.3,-279.98 306.35,-270.71 307.34,-262.11"/>
<polygon fill="black" stroke="black" points="310.82,-262.44 308.48,-252.1 303.87,-261.64 310.82,-262.44"/>
<g id="a_edge9&#45;headlabel"><a xlink:href="dir_000059_000054.html" target="_top" xlink:title="8">
<text text-anchor="middle" x="313.24" y="-263.83" font-family="Helvetica,sans-Serif" font-size="10.00">8</text>
</a>
</g>
</g>
<!-- dir_593657602c74fd2b2e9635270b1bdea2 -->
<g id="node4" class="node">
<title>dir_593657602c74fd2b2e9635270b1bdea2</title>
<g id="a_node4"><a xlink:href="dir_593657602c74fd2b2e9635270b1bdea2.html" target="_top" xlink:title="storage">
<polygon fill="white" stroke="red" points="151.44,-180 97.44,-180 97.44,-144 151.44,-144 151.44,-180"/>
<text text-anchor="middle" x="124.44" y="-159.5" font-family="Helvetica,sans-Serif" font-size="10.00">storage</text>
</a>
</g>
</g>
<!-- dir_6623d0b4548183de422572e438664a62&#45;&gt;dir_593657602c74fd2b2e9635270b1bdea2 -->
<g id="edge10" class="edge">
<title>dir_6623d0b4548183de422572e438664a62&#45;&gt;dir_593657602c74fd2b2e9635270b1bdea2</title>
<path fill="none" stroke="black" d="M275.16,-303.96C212.17,-300.92 59.58,-289.75 28.44,-252 15.99,-236.92 17.95,-224.5 28.44,-208 41.39,-187.62 66.29,-176.31 87.48,-170.12"/>
<polygon fill="black" stroke="black" points="88.43,-173.49 97.21,-167.56 86.65,-166.72 88.43,-173.49"/>
<g id="a_edge10&#45;headlabel"><a xlink:href="dir_000059_000125.html" target="_top" xlink:title="7">
<text text-anchor="middle" x="85.68" y="-174.65" font-family="Helvetica,sans-Serif" font-size="10.00">7</text>
</a>
</g>
</g>
<!-- dir_59388288c2adeeeb443ad934bc39e9e7 -->
<g id="node5" class="node">
<title>dir_59388288c2adeeeb443ad934bc39e9e7</title>
<g id="a_node5"><a xlink:href="dir_59388288c2adeeeb443ad934bc39e9e7.html" target="_top" xlink:title="queryparsing">
<polygon fill="white" stroke="red" points="117.44,-252 37.44,-252 37.44,-216 117.44,-216 117.44,-252"/>
<text text-anchor="middle" x="77.44" y="-231.5" font-family="Helvetica,sans-Serif" font-size="10.00">queryparsing</text>
</a>
</g>
</g>
<!-- dir_6623d0b4548183de422572e438664a62&#45;&gt;dir_59388288c2adeeeb443ad934bc39e9e7 -->
<g id="edge11" class="edge">
<title>dir_6623d0b4548183de422572e438664a62&#45;&gt;dir_59388288c2adeeeb443ad934bc39e9e7</title>
<path fill="none" stroke="black" d="M275.19,-297.18C242.34,-287.66 185.24,-270.85 127.2,-252.19"/>
<polygon fill="black" stroke="black" points="128.09,-248.8 117.5,-249.05 125.94,-255.46 128.09,-248.8"/>
<g id="a_edge11&#45;headlabel"><a xlink:href="dir_000059_000010.html" target="_top" xlink:title="1">
<text text-anchor="middle" x="132.39" y="-244.7" font-family="Helvetica,sans-Serif" font-size="10.00">1</text>
</a>
</g>
</g>
<!-- dir_6623d0b4548183de422572e438664a62&#45;&gt;dir_686a2d3b8380929f3bfddf3b00ff951b -->
<g id="edge12" class="edge">
<title>dir_6623d0b4548183de422572e438664a62&#45;&gt;dir_686a2d3b8380929f3bfddf3b00ff951b</title>
<path fill="none" stroke="black" d="M289.52,-287.67C282.65,-277.69 274.57,-264.66 269.44,-252 251.17,-206.99 241.74,-150.86 237.46,-118.16"/>
<polygon fill="black" stroke="black" points="240.9,-117.51 236.2,-108.02 233.96,-118.37 240.9,-117.51"/>
<g id="a_edge12&#45;headlabel"><a xlink:href="dir_000059_000049.html" target="_top" xlink:title="5">
<text text-anchor="middle" x="244.16" y="-118.23" font-family="Helvetica,sans-Serif" font-size="10.00">5</text>
</a>
</g>
</g>
<!-- dir_7370e63381a3da0a5abca9ffd8b57676 -->
<g id="node7" class="node">
<title>dir_7370e63381a3da0a5abca9ffd8b57676</title>
<g id="a_node7"><a xlink:href="dir_7370e63381a3da0a5abca9ffd8b57676.html" target="_top" xlink:title="config">
<polygon fill="white" stroke="red" points="206.44,-36 152.44,-36 152.44,0 206.44,0 206.44,-36"/>
<text text-anchor="middle" x="179.44" y="-15.5" font-family="Helvetica,sans-Serif" font-size="10.00">config</text>
</a>
</g>
</g>
<!-- dir_6623d0b4548183de422572e438664a62&#45;&gt;dir_7370e63381a3da0a5abca9ffd8b57676 -->
<g id="edge13" class="edge">
<title>dir_6623d0b4548183de422572e438664a62&#45;&gt;dir_7370e63381a3da0a5abca9ffd8b57676</title>
<path fill="none" stroke="black" d="M275.43,-304.21C210.64,-301.69 49.29,-291.5 16.44,-252 -44.47,-178.77 79,-83.59 143.54,-41.13"/>
<polygon fill="black" stroke="black" points="145.74,-43.87 152.23,-35.49 141.93,-38 145.74,-43.87"/>
<g id="a_edge13&#45;headlabel"><a xlink:href="dir_000059_000023.html" target="_top" xlink:title="1">
<text text-anchor="middle" x="144.27" y="-45.71" font-family="Helvetica,sans-Serif" font-size="10.00">1</text>
</a>
</g>
</g>
<!-- dir_86d2030c590e8edca049b1db16bf8b8d -->
<g id="node8" class="node">
<title>dir_86d2030c590e8edca049b1db16bf8b8d</title>
<g id="a_node8"><a xlink:href="dir_86d2030c590e8edca049b1db16bf8b8d.html" target="_top" xlink:title="include">
<polygon fill="white" stroke="red" points="335.44,-36 281.44,-36 281.44,0 335.44,0 335.44,-36"/>
<text text-anchor="middle" x="308.44" y="-15.5" font-family="Helvetica,sans-Serif" font-size="10.00">include</text>
</a>
</g>
</g>
<!-- dir_6623d0b4548183de422572e438664a62&#45;&gt;dir_86d2030c590e8edca049b1db16bf8b8d -->
<g id="edge14" class="edge">
<title>dir_6623d0b4548183de422572e438664a62&#45;&gt;dir_86d2030c590e8edca049b1db16bf8b8d</title>
<path fill="none" stroke="black" d="M323.7,-287.7C333.55,-278.31 344.2,-265.8 349.44,-252 376.6,-180.42 342.47,-89.55 321.9,-45.43"/>
<polygon fill="black" stroke="black" points="324.98,-43.75 317.5,-36.25 318.67,-46.78 324.98,-43.75"/>
<g id="a_edge14&#45;headlabel"><a xlink:href="dir_000059_000013.html" target="_top" xlink:title="1">
<text text-anchor="middle" x="329.1" y="-43.27" font-family="Helvetica,sans-Serif" font-size="10.00">1</text>
</a>
</g>
</g>
<!-- dir_fdf43ea20e6d4202c172c6149a054b61 -->
<g id="node9" class="node">
<title>dir_fdf43ea20e6d4202c172c6149a054b61</title>
<g id="a_node9"><a xlink:href="dir_fdf43ea20e6d4202c172c6149a054b61.html" target="_top" xlink:title="queryexecution">
<polygon fill="white" stroke="red" points="227.44,-252 135.44,-252 135.44,-216 227.44,-216 227.44,-252"/>
<text text-anchor="middle" x="181.44" y="-231.5" font-family="Helvetica,sans-Serif" font-size="10.00">queryexecution</text>
</a>
</g>
</g>
<!-- dir_6623d0b4548183de422572e438664a62&#45;&gt;dir_fdf43ea20e6d4202c172c6149a054b61 -->
<g id="edge15" class="edge">
<title>dir_6623d0b4548183de422572e438664a62&#45;&gt;dir_fdf43ea20e6d4202c172c6149a054b61</title>
<path fill="none" stroke="black" d="M275.28,-289.29C259.02,-279.89 238.09,-267.78 220.13,-257.38"/>
<polygon fill="black" stroke="black" points="221.45,-254.11 211.04,-252.13 217.95,-260.16 221.45,-254.11"/>
<g id="a_edge15&#45;headlabel"><a xlink:href="dir_000059_000104.html" target="_top" xlink:title="1">
<text text-anchor="middle" x="225.98" y="-250.95" font-family="Helvetica,sans-Serif" font-size="10.00">1</text>
</a>
</g>
</g>
<!-- dir_593657602c74fd2b2e9635270b1bdea2&#45;&gt;dir_686a2d3b8380929f3bfddf3b00ff951b -->
<g id="edge1" class="edge">
<title>dir_593657602c74fd2b2e9635270b1bdea2&#45;&gt;dir_686a2d3b8380929f3bfddf3b00ff951b</title>
<path fill="none" stroke="black" d="M151.35,-143.88C165.59,-134.81 183.28,-123.55 198.67,-113.76"/>
<polygon fill="black" stroke="black" points="200.87,-116.51 207.42,-108.19 197.11,-110.61 200.87,-116.51"/>
<g id="a_edge1&#45;headlabel"><a xlink:href="dir_000125_000049.html" target="_top" xlink:title="19">
<text text-anchor="middle" x="199.36" y="-118.34" font-family="Helvetica,sans-Serif" font-size="10.00">19</text>
</a>
</g>
</g>
<!-- dir_593657602c74fd2b2e9635270b1bdea2&#45;&gt;dir_7370e63381a3da0a5abca9ffd8b57676 -->
<g id="edge2" class="edge">
<title>dir_593657602c74fd2b2e9635270b1bdea2&#45;&gt;dir_7370e63381a3da0a5abca9ffd8b57676</title>
<path fill="none" stroke="black" d="M131.07,-143.87C140.53,-119.46 157.97,-74.43 169.12,-45.64"/>
<polygon fill="black" stroke="black" points="172.43,-46.78 172.78,-36.19 165.9,-44.25 172.43,-46.78"/>
<g id="a_edge2&#45;headlabel"><a xlink:href="dir_000125_000023.html" target="_top" xlink:title="5">
<text text-anchor="middle" x="173.78" y="-48.66" font-family="Helvetica,sans-Serif" font-size="10.00">5</text>
</a>
</g>
</g>
<!-- dir_59388288c2adeeeb443ad934bc39e9e7&#45;&gt;dir_593657602c74fd2b2e9635270b1bdea2 -->
<g id="edge6" class="edge">
<title>dir_59388288c2adeeeb443ad934bc39e9e7&#45;&gt;dir_593657602c74fd2b2e9635270b1bdea2</title>
<path fill="none" stroke="black" d="M89.05,-215.7C94.57,-207.47 101.28,-197.48 107.37,-188.42"/>
<polygon fill="black" stroke="black" points="110.28,-190.36 112.95,-180.1 104.47,-186.46 110.28,-190.36"/>
<g id="a_edge6&#45;headlabel"><a xlink:href="dir_000010_000125.html" target="_top" xlink:title="2">
<text text-anchor="middle" x="110.64" y="-192.42" font-family="Helvetica,sans-Serif" font-size="10.00">2</text>
</a>
</g>
</g>
<!-- dir_686a2d3b8380929f3bfddf3b00ff951b&#45;&gt;dir_7370e63381a3da0a5abca9ffd8b57676 -->
<g id="edge3" class="edge">
<title>dir_686a2d3b8380929f3bfddf3b00ff951b&#45;&gt;dir_7370e63381a3da0a5abca9ffd8b57676</title>
<path fill="none" stroke="black" d="M214.92,-71.7C207.62,-63.47 199.56,-53.48 192.89,-44.42"/>
<polygon fill="black" stroke="black" points="195.63,-42.23 186.98,-36.1 189.92,-46.28 195.63,-42.23"/>
<g id="a_edge3&#45;headlabel"><a xlink:href="dir_000049_000023.html" target="_top" xlink:title="1">
<text text-anchor="middle" x="200.02" y="-41.01" font-family="Helvetica,sans-Serif" font-size="10.00">1</text>
</a>
</g>
</g>
<!-- dir_686a2d3b8380929f3bfddf3b00ff951b&#45;&gt;dir_86d2030c590e8edca049b1db16bf8b8d -->
<g id="edge4" class="edge">
<title>dir_686a2d3b8380929f3bfddf3b00ff951b&#45;&gt;dir_86d2030c590e8edca049b1db16bf8b8d</title>
<path fill="none" stroke="black" d="M252.73,-71.7C261.87,-63.05 273.08,-52.45 283.04,-43.03"/>
<polygon fill="black" stroke="black" points="285.49,-45.52 290.35,-36.1 280.68,-40.43 285.49,-45.52"/>
<g id="a_edge4&#45;headlabel"><a xlink:href="dir_000049_000013.html" target="_top" xlink:title="1">
<text text-anchor="middle" x="284.83" y="-47.55" font-family="Helvetica,sans-Serif" font-size="10.00">1</text>
</a>
</g>
</g>
<!-- dir_7370e63381a3da0a5abca9ffd8b57676&#45;&gt;dir_686a2d3b8380929f3bfddf3b00ff951b -->
<g id="edge8" class="edge">
<title>dir_7370e63381a3da0a5abca9ffd8b57676&#45;&gt;dir_686a2d3b8380929f3bfddf3b00ff951b</title>
<path fill="none" stroke="black" d="M198.77,-36.1C206.07,-44.3 214.12,-54.28 220.82,-63.36"/>
<polygon fill="black" stroke="black" points="218.11,-65.58 226.76,-71.7 223.81,-61.52 218.11,-65.58"/>
<g id="a_edge8&#45;headlabel"><a xlink:href="dir_000023_000049.html" target="_top" xlink:title="1">
<text text-anchor="middle" x="213.71" y="-61.8" font-family="Helvetica,sans-Serif" font-size="10.00">1</text>
</a>
</g>
</g>
<!-- dir_fdf43ea20e6d4202c172c6149a054b61&#45;&gt;dir_593657602c74fd2b2e9635270b1bdea2 -->
<g id="edge16" class="edge">
<title>dir_fdf43ea20e6d4202c172c6149a054b61&#45;&gt;dir_593657602c74fd2b2e9635270b1bdea2</title>
<path fill="none" stroke="black" d="M167.35,-215.7C160.51,-207.3 152.18,-197.07 144.68,-187.86"/>
<polygon fill="black" stroke="black" points="147.39,-185.65 138.36,-180.1 141.96,-190.07 147.39,-185.65"/>
<g id="a_edge16&#45;headlabel"><a xlink:href="dir_000104_000125.html" target="_top" xlink:title="6">
<text text-anchor="middle" x="151.86" y="-184.14" font-family="Helvetica,sans-Serif" font-size="10.00">6</text>
</a>
</g>
</g>
<!-- dir_fdf43ea20e6d4202c172c6149a054b61&#45;&gt;dir_686a2d3b8380929f3bfddf3b00ff951b -->
<g id="edge17" class="edge">
<title>dir_fdf43ea20e6d4202c172c6149a054b61&#45;&gt;dir_686a2d3b8380929f3bfddf3b00ff951b</title>
<path fill="none" stroke="black" d="M187.83,-215.87C196.94,-191.46 213.75,-146.43 224.49,-117.64"/>
<polygon fill="black" stroke="black" points="227.8,-118.78 228.02,-108.19 221.24,-116.33 227.8,-118.78"/>
<g id="a_edge17&#45;headlabel"><a xlink:href="dir_000104_000049.html" target="_top" xlink:title="6">
<text text-anchor="middle" x="229.21" y="-120.64" font-family="Helvetica,sans-Serif" font-size="10.00">6</text>
</a>
</g>
</g>
<!-- dir_fdf43ea20e6d4202c172c6149a054b61&#45;&gt;dir_7370e63381a3da0a5abca9ffd8b57676 -->
<g id="edge18" class="edge">
<title>dir_fdf43ea20e6d4202c172c6149a054b61&#45;&gt;dir_7370e63381a3da0a5abca9ffd8b57676</title>
<path fill="none" stroke="black" d="M181.28,-215.85C180.93,-178.83 180.11,-91.18 179.69,-46.39"/>
<polygon fill="black" stroke="black" points="183.19,-46.2 179.6,-36.23 176.19,-46.26 183.19,-46.2"/>
<g id="a_edge18&#45;headlabel"><a xlink:href="dir_000104_000023.html" target="_top" xlink:title="2">
<text text-anchor="middle" x="186.06" y="-47.27" font-family="Helvetica,sans-Serif" font-size="10.00">2</text>
</a>
</g>
</g>
</g>
</svg>
