<?xml version="1.0" encoding="UTF-8" standalone="no"?>
<!DOCTYPE svg PUBLIC "-//W3C//DTD SVG 1.1//EN"
 "http://www.w3.org/Graphics/SVG/1.1/DTD/svg11.dtd">
<!-- Generated by graphviz version 2.43.0 (0)
 -->
<!-- Title: /home/nico/joda_tmp/tmp&#45;joda&#45;dirs/JODA&#45;gh/libs/joda/core/modules/network Pages: 1 -->
<svg width="496pt" height="463pt"
 viewBox="0.00 0.00 496.00 463.00" xmlns="http://www.w3.org/2000/svg" xmlns:xlink="http://www.w3.org/1999/xlink">
<g id="graph0" class="graph" transform="scale(1 1) rotate(0) translate(4 459)">
<title>/home/nico/joda_tmp/tmp&#45;joda&#45;dirs/JODA&#45;gh/libs/joda/core/modules/network</title>
<polygon fill="white" stroke="transparent" points="-4,4 -4,-459 492,-459 492,4 -4,4"/>
<g id="clust1" class="cluster">
<title>clusterdir_90b36eb2f4e9ffeeae2f8ee3ceb10c2f</title>
<g id="a_clust1"><a xlink:href="dir_90b36eb2f4e9ffeeae2f8ee3ceb10c2f.html" target="_top" xlink:title="modules">
<polygon fill="#ddddee" stroke="black" points="8,-8 8,-447 426,-447 426,-8 8,-8"/>
<text text-anchor="middle" x="217" y="-435" font-family="Helvetica,sans-Serif" font-size="10.00">modules</text>
</a>
</g>
</g>
<g id="clust2" class="cluster">
<title>clusterdir_f5b39f9ad15100309d2401c2220ea1ab</title>
<g id="a_clust2"><a xlink:href="dir_f5b39f9ad15100309d2401c2220ea1ab.html" target="_top">
<polygon fill="#eeeeff" stroke="black" points="274,-224 274,-420 418,-420 418,-224 274,-224"/>
</a>
</g>
</g>
<!-- dir_593657602c74fd2b2e9635270b1bdea2 -->
<g id="node1" class="node">
<title>dir_593657602c74fd2b2e9635270b1bdea2</title>
<g id="a_node1"><a xlink:href="dir_593657602c74fd2b2e9635270b1bdea2.html" target="_top" xlink:title="storage">
<polygon fill="white" stroke="red" points="191,-196 137,-196 137,-160 191,-160 191,-196"/>
<text text-anchor="middle" x="164" y="-175.5" font-family="Helvetica,sans-Serif" font-size="10.00">storage</text>
</a>
</g>
</g>
<!-- dir_686a2d3b8380929f3bfddf3b00ff951b -->
<g id="node3" class="node">
<title>dir_686a2d3b8380929f3bfddf3b00ff951b</title>
<g id="a_node3"><a xlink:href="dir_686a2d3b8380929f3bfddf3b00ff951b.html" target="_top" xlink:title="misc">
<polygon fill="white" stroke="red" points="316,-124 262,-124 262,-88 316,-88 316,-124"/>
<text text-anchor="middle" x="289" y="-103.5" font-family="Helvetica,sans-Serif" font-size="10.00">misc</text>
</a>
</g>
</g>
<!-- dir_593657602c74fd2b2e9635270b1bdea2&#45;&gt;dir_686a2d3b8380929f3bfddf3b00ff951b -->
<g id="edge1" class="edge">
<title>dir_593657602c74fd2b2e9635270b1bdea2&#45;&gt;dir_686a2d3b8380929f3bfddf3b00ff951b</title>
<path fill="none" stroke="black" d="M191.12,-161.81C209.31,-151.63 233.44,-138.11 253.2,-127.05"/>
<polygon fill="black" stroke="black" points="254.91,-130.1 261.93,-122.16 251.49,-123.99 254.91,-130.1"/>
<g id="a_edge1&#45;headlabel"><a xlink:href="dir_000125_000049.html" target="_top" xlink:title="19">
<text text-anchor="middle" x="253.17" y="-131.83" font-family="Helvetica,sans-Serif" font-size="10.00">19</text>
</a>
</g>
</g>
<!-- dir_7370e63381a3da0a5abca9ffd8b57676 -->
<g id="node4" class="node">
<title>dir_7370e63381a3da0a5abca9ffd8b57676</title>
<g id="a_node4"><a xlink:href="dir_7370e63381a3da0a5abca9ffd8b57676.html" target="_top" xlink:title="config">
<polygon fill="white" stroke="red" points="247,-52 193,-52 193,-16 247,-16 247,-52"/>
<text text-anchor="middle" x="220" y="-31.5" font-family="Helvetica,sans-Serif" font-size="10.00">config</text>
</a>
</g>
</g>
<!-- dir_593657602c74fd2b2e9635270b1bdea2&#45;&gt;dir_7370e63381a3da0a5abca9ffd8b57676 -->
<g id="edge2" class="edge">
<title>dir_593657602c74fd2b2e9635270b1bdea2&#45;&gt;dir_7370e63381a3da0a5abca9ffd8b57676</title>
<path fill="none" stroke="black" d="M170.75,-159.87C180.38,-135.46 198.14,-90.43 209.5,-61.64"/>
<polygon fill="black" stroke="black" points="212.81,-62.78 213.22,-52.19 206.3,-60.21 212.81,-62.78"/>
<g id="a_edge2&#45;headlabel"><a xlink:href="dir_000125_000023.html" target="_top" xlink:title="5">
<text text-anchor="middle" x="214.13" y="-64.66" font-family="Helvetica,sans-Serif" font-size="10.00">5</text>
</a>
</g>
</g>
<!-- dir_59388288c2adeeeb443ad934bc39e9e7 -->
<g id="node2" class="node">
<title>dir_59388288c2adeeeb443ad934bc39e9e7</title>
<g id="a_node2"><a xlink:href="dir_59388288c2adeeeb443ad934bc39e9e7.html" target="_top" xlink:title="queryparsing">
<polygon fill="white" stroke="red" points="136,-268 56,-268 56,-232 136,-232 136,-268"/>
<text text-anchor="middle" x="96" y="-247.5" font-family="Helvetica,sans-Serif" font-size="10.00">queryparsing</text>
</a>
</g>
</g>
<!-- dir_59388288c2adeeeb443ad934bc39e9e7&#45;&gt;dir_593657602c74fd2b2e9635270b1bdea2 -->
<g id="edge10" class="edge">
<title>dir_59388288c2adeeeb443ad934bc39e9e7&#45;&gt;dir_593657602c74fd2b2e9635270b1bdea2</title>
<path fill="none" stroke="black" d="M112.81,-231.7C121.13,-223.14 131.31,-212.66 140.39,-203.3"/>
<polygon fill="black" stroke="black" points="142.93,-205.72 147.38,-196.1 137.91,-200.84 142.93,-205.72"/>
<g id="a_edge10&#45;headlabel"><a xlink:href="dir_000010_000125.html" target="_top" xlink:title="2">
<text text-anchor="middle" x="142.46" y="-207.77" font-family="Helvetica,sans-Serif" font-size="10.00">2</text>
</a>
</g>
</g>
<!-- dir_686a2d3b8380929f3bfddf3b00ff951b&#45;&gt;dir_7370e63381a3da0a5abca9ffd8b57676 -->
<g id="edge7" class="edge">
<title>dir_686a2d3b8380929f3bfddf3b00ff951b&#45;&gt;dir_7370e63381a3da0a5abca9ffd8b57676</title>
<path fill="none" stroke="black" d="M266.03,-87.7C256.8,-79.22 246.4,-68.86 237.75,-59.58"/>
<polygon fill="black" stroke="black" points="240.28,-57.16 230.96,-52.1 235.1,-61.86 240.28,-57.16"/>
<g id="a_edge7&#45;headlabel"><a xlink:href="dir_000049_000023.html" target="_top" xlink:title="1">
<text text-anchor="middle" x="244.8" y="-55.41" font-family="Helvetica,sans-Serif" font-size="10.00">1</text>
</a>
</g>
</g>
<!-- dir_86d2030c590e8edca049b1db16bf8b8d -->
<g id="node10" class="node">
<title>dir_86d2030c590e8edca049b1db16bf8b8d</title>
<g id="a_node10"><a xlink:href="dir_86d2030c590e8edca049b1db16bf8b8d.html" target="_top" xlink:title="include">
<polygon fill="white" stroke="red" points="488,-52 434,-52 434,-16 488,-16 488,-52"/>
<text text-anchor="middle" x="461" y="-31.5" font-family="Helvetica,sans-Serif" font-size="10.00">include</text>
</a>
</g>
</g>
<!-- dir_686a2d3b8380929f3bfddf3b00ff951b&#45;&gt;dir_86d2030c590e8edca049b1db16bf8b8d -->
<g id="edge8" class="edge">
<title>dir_686a2d3b8380929f3bfddf3b00ff951b&#45;&gt;dir_86d2030c590e8edca049b1db16bf8b8d</title>
<path fill="none" stroke="black" d="M316.23,-96.05C342.9,-87.02 384.77,-72.1 424.49,-54.41"/>
<polygon fill="black" stroke="black" points="426.06,-57.55 433.72,-50.23 423.17,-51.17 426.06,-57.55"/>
<g id="a_edge8&#45;headlabel"><a xlink:href="dir_000049_000013.html" target="_top" xlink:title="1">
<text text-anchor="middle" x="423.95" y="-59.11" font-family="Helvetica,sans-Serif" font-size="10.00">1</text>
</a>
</g>
</g>
<!-- dir_7370e63381a3da0a5abca9ffd8b57676&#45;&gt;dir_686a2d3b8380929f3bfddf3b00ff951b -->
<g id="edge18" class="edge">
<title>dir_7370e63381a3da0a5abca9ffd8b57676&#45;&gt;dir_686a2d3b8380929f3bfddf3b00ff951b</title>
<path fill="none" stroke="black" d="M242.76,-52.1C251.97,-60.55 262.37,-70.9 271.04,-80.2"/>
<polygon fill="black" stroke="black" points="268.54,-82.65 277.86,-87.7 273.72,-77.94 268.54,-82.65"/>
<g id="a_edge18&#45;headlabel"><a xlink:href="dir_000023_000049.html" target="_top" xlink:title="1">
<text text-anchor="middle" x="264.02" y="-79.4" font-family="Helvetica,sans-Serif" font-size="10.00">1</text>
</a>
</g>
</g>
<!-- dir_fdf43ea20e6d4202c172c6149a054b61 -->
<g id="node5" class="node">
<title>dir_fdf43ea20e6d4202c172c6149a054b61</title>
<g id="a_node5"><a xlink:href="dir_fdf43ea20e6d4202c172c6149a054b61.html" target="_top" xlink:title="queryexecution">
<polygon fill="white" stroke="red" points="266,-268 174,-268 174,-232 266,-232 266,-268"/>
<text text-anchor="middle" x="220" y="-247.5" font-family="Helvetica,sans-Serif" font-size="10.00">queryexecution</text>
</a>
</g>
</g>
<!-- dir_fdf43ea20e6d4202c172c6149a054b61&#45;&gt;dir_593657602c74fd2b2e9635270b1bdea2 -->
<g id="edge19" class="edge">
<title>dir_fdf43ea20e6d4202c172c6149a054b61&#45;&gt;dir_593657602c74fd2b2e9635270b1bdea2</title>
<path fill="none" stroke="black" d="M206.16,-231.7C199.51,-223.39 191.42,-213.28 184.11,-204.14"/>
<polygon fill="black" stroke="black" points="186.66,-201.73 177.68,-196.1 181.2,-206.1 186.66,-201.73"/>
<g id="a_edge19&#45;headlabel"><a xlink:href="dir_000104_000125.html" target="_top" xlink:title="6">
<text text-anchor="middle" x="191.13" y="-200.26" font-family="Helvetica,sans-Serif" font-size="10.00">6</text>
</a>
</g>
</g>
<!-- dir_fdf43ea20e6d4202c172c6149a054b61&#45;&gt;dir_686a2d3b8380929f3bfddf3b00ff951b -->
<g id="edge20" class="edge">
<title>dir_fdf43ea20e6d4202c172c6149a054b61&#45;&gt;dir_686a2d3b8380929f3bfddf3b00ff951b</title>
<path fill="none" stroke="black" d="M228.32,-231.87C240.24,-207.35 262.26,-162.03 276.24,-133.26"/>
<polygon fill="black" stroke="black" points="279.42,-134.71 280.65,-124.19 273.13,-131.65 279.42,-134.71"/>
<g id="a_edge20&#45;headlabel"><a xlink:href="dir_000104_000049.html" target="_top" xlink:title="6">
<text text-anchor="middle" x="280.41" y="-136.69" font-family="Helvetica,sans-Serif" font-size="10.00">6</text>
</a>
</g>
</g>
<!-- dir_fdf43ea20e6d4202c172c6149a054b61&#45;&gt;dir_7370e63381a3da0a5abca9ffd8b57676 -->
<g id="edge21" class="edge">
<title>dir_fdf43ea20e6d4202c172c6149a054b61&#45;&gt;dir_7370e63381a3da0a5abca9ffd8b57676</title>
<path fill="none" stroke="black" d="M220,-231.85C220,-194.83 220,-107.18 220,-62.39"/>
<polygon fill="black" stroke="black" points="223.5,-62.23 220,-52.23 216.5,-62.23 223.5,-62.23"/>
<g id="a_edge21&#45;headlabel"><a xlink:href="dir_000104_000023.html" target="_top" xlink:title="2">
<text text-anchor="middle" x="226.34" y="-63.33" font-family="Helvetica,sans-Serif" font-size="10.00">2</text>
</a>
</g>
</g>
<!-- dir_f5b39f9ad15100309d2401c2220ea1ab -->
<g id="node6" class="node">
<title>dir_f5b39f9ad15100309d2401c2220ea1ab</title>
<text text-anchor="middle" x="382" y="-391.5" font-family="Helvetica,sans-Serif" font-size="10.00">network</text>
</g>
<!-- dir_2a2e54c961d19636a21e44e148cfc96d -->
<g id="node7" class="node">
<title>dir_2a2e54c961d19636a21e44e148cfc96d</title>
<g id="a_node7"><a xlink:href="dir_2a2e54c961d19636a21e44e148cfc96d.html" target="_top" xlink:title="include">
<polygon fill="white" stroke="red" points="338,-268 284,-268 284,-232 338,-232 338,-268"/>
<text text-anchor="middle" x="311" y="-247.5" font-family="Helvetica,sans-Serif" font-size="10.00">include</text>
</a>
</g>
</g>
<!-- dir_2a2e54c961d19636a21e44e148cfc96d&#45;&gt;dir_686a2d3b8380929f3bfddf3b00ff951b -->
<g id="edge9" class="edge">
<title>dir_2a2e54c961d19636a21e44e148cfc96d&#45;&gt;dir_686a2d3b8380929f3bfddf3b00ff951b</title>
<path fill="none" stroke="black" d="M308.35,-231.87C304.6,-207.67 297.71,-163.21 293.24,-134.39"/>
<polygon fill="black" stroke="black" points="296.65,-133.54 291.66,-124.19 289.74,-134.61 296.65,-133.54"/>
<g id="a_edge9&#45;headlabel"><a xlink:href="dir_000054_000049.html" target="_top" xlink:title="2">
<text text-anchor="middle" x="300.01" y="-134.15" font-family="Helvetica,sans-Serif" font-size="10.00">2</text>
</a>
</g>
</g>
<!-- dir_86c92b489e15313be87ebf3ce3c46dc2 -->
<g id="node8" class="node">
<title>dir_86c92b489e15313be87ebf3ce3c46dc2</title>
<g id="a_node8"><a xlink:href="dir_86c92b489e15313be87ebf3ce3c46dc2.html" target="_top" xlink:title="src">
<polygon fill="white" stroke="red" points="336,-340 282,-340 282,-304 336,-304 336,-340"/>
<text text-anchor="middle" x="309" y="-319.5" font-family="Helvetica,sans-Serif" font-size="10.00">src</text>
</a>
</g>
</g>
<!-- dir_86c92b489e15313be87ebf3ce3c46dc2&#45;&gt;dir_593657602c74fd2b2e9635270b1bdea2 -->
<g id="edge12" class="edge">
<title>dir_86c92b489e15313be87ebf3ce3c46dc2&#45;&gt;dir_593657602c74fd2b2e9635270b1bdea2</title>
<path fill="none" stroke="black" d="M281.76,-305.69C280.5,-305.1 279.24,-304.53 278,-304 229.55,-283.23 196.34,-310.38 165,-268 152.05,-250.49 153.06,-225.3 156.57,-206.18"/>
<polygon fill="black" stroke="black" points="160.02,-206.78 158.71,-196.27 153.18,-205.3 160.02,-206.78"/>
<g id="a_edge12&#45;headlabel"><a xlink:href="dir_000058_000125.html" target="_top" xlink:title="7">
<text text-anchor="middle" x="162.04" y="-208.4" font-family="Helvetica,sans-Serif" font-size="10.00">7</text>
</a>
</g>
</g>
<!-- dir_86c92b489e15313be87ebf3ce3c46dc2&#45;&gt;dir_59388288c2adeeeb443ad934bc39e9e7 -->
<g id="edge13" class="edge">
<title>dir_86c92b489e15313be87ebf3ce3c46dc2&#45;&gt;dir_59388288c2adeeeb443ad934bc39e9e7</title>
<path fill="none" stroke="black" d="M281.78,-305.64C280.51,-305.06 279.25,-304.51 278,-304 223.29,-281.65 206.64,-284.87 150,-268 148.59,-267.58 147.15,-267.15 145.71,-266.71"/>
<polygon fill="black" stroke="black" points="146.65,-263.34 136.06,-263.76 144.6,-270.03 146.65,-263.34"/>
<g id="a_edge13&#45;headlabel"><a xlink:href="dir_000058_000010.html" target="_top" xlink:title="1">
<text text-anchor="middle" x="150.92" y="-259.18" font-family="Helvetica,sans-Serif" font-size="10.00">1</text>
</a>
</g>
</g>
<!-- dir_86c92b489e15313be87ebf3ce3c46dc2&#45;&gt;dir_686a2d3b8380929f3bfddf3b00ff951b -->
<g id="edge14" class="edge">
<title>dir_86c92b489e15313be87ebf3ce3c46dc2&#45;&gt;dir_686a2d3b8380929f3bfddf3b00ff951b</title>
<path fill="none" stroke="black" d="M325.46,-303.92C333.65,-294.22 342.7,-281.37 347,-268 352.98,-249.38 351.46,-243.04 347,-224 339.18,-190.63 320.37,-155.87 306.28,-133"/>
<polygon fill="black" stroke="black" points="309.06,-130.85 300.76,-124.26 303.14,-134.59 309.06,-130.85"/>
<g id="a_edge14&#45;headlabel"><a xlink:href="dir_000058_000049.html" target="_top" xlink:title="6">
<text text-anchor="middle" x="313.38" y="-129.87" font-family="Helvetica,sans-Serif" font-size="10.00">6</text>
</a>
</g>
</g>
<!-- dir_86c92b489e15313be87ebf3ce3c46dc2&#45;&gt;dir_7370e63381a3da0a5abca9ffd8b57676 -->
<g id="edge15" class="edge">
<title>dir_86c92b489e15313be87ebf3ce3c46dc2&#45;&gt;dir_7370e63381a3da0a5abca9ffd8b57676</title>
<path fill="none" stroke="black" d="M281.55,-319.68C220.48,-316.12 76.46,-304.01 47,-268 -15.13,-192.05 117.4,-96.81 184.37,-55.58"/>
<polygon fill="black" stroke="black" points="186.23,-58.55 192.97,-50.37 182.6,-52.56 186.23,-58.55"/>
<g id="a_edge15&#45;headlabel"><a xlink:href="dir_000058_000023.html" target="_top" xlink:title="1">
<text text-anchor="middle" x="184.63" y="-60.34" font-family="Helvetica,sans-Serif" font-size="10.00">1</text>
</a>
</g>
</g>
<!-- dir_86c92b489e15313be87ebf3ce3c46dc2&#45;&gt;dir_fdf43ea20e6d4202c172c6149a054b61 -->
<g id="edge17" class="edge">
<title>dir_86c92b489e15313be87ebf3ce3c46dc2&#45;&gt;dir_fdf43ea20e6d4202c172c6149a054b61</title>
<path fill="none" stroke="black" d="M287,-303.7C275.79,-294.88 262,-284.03 249.85,-274.47"/>
<polygon fill="black" stroke="black" points="251.77,-271.54 241.75,-268.1 247.44,-277.04 251.77,-271.54"/>
<g id="a_edge17&#45;headlabel"><a xlink:href="dir_000058_000104.html" target="_top" xlink:title="1">
<text text-anchor="middle" x="256.35" y="-269.03" font-family="Helvetica,sans-Serif" font-size="10.00">1</text>
</a>
</g>
</g>
<!-- dir_86c92b489e15313be87ebf3ce3c46dc2&#45;&gt;dir_2a2e54c961d19636a21e44e148cfc96d -->
<g id="edge11" class="edge">
<title>dir_86c92b489e15313be87ebf3ce3c46dc2&#45;&gt;dir_2a2e54c961d19636a21e44e148cfc96d</title>
<path fill="none" stroke="black" d="M309.49,-303.7C309.71,-295.98 309.98,-286.71 310.23,-278.11"/>
<polygon fill="black" stroke="black" points="313.72,-278.2 310.51,-268.1 306.73,-278 313.72,-278.2"/>
<g id="a_edge11&#45;headlabel"><a xlink:href="dir_000058_000054.html" target="_top" xlink:title="10">
<text text-anchor="middle" x="316.46" y="-279.37" font-family="Helvetica,sans-Serif" font-size="10.00">10</text>
</a>
</g>
</g>
<!-- dir_86c92b489e15313be87ebf3ce3c46dc2&#45;&gt;dir_86d2030c590e8edca049b1db16bf8b8d -->
<g id="edge16" class="edge">
<title>dir_86c92b489e15313be87ebf3ce3c46dc2&#45;&gt;dir_86d2030c590e8edca049b1db16bf8b8d</title>
<path fill="none" stroke="black" d="M336.11,-315.37C361.58,-308.6 398.73,-294.66 419,-268 465.85,-206.38 466.5,-109.32 463.57,-62.32"/>
<polygon fill="black" stroke="black" points="467.06,-62 462.84,-52.28 460.07,-62.51 467.06,-62"/>
<g id="a_edge16&#45;headlabel"><a xlink:href="dir_000058_000013.html" target="_top" xlink:title="1">
<text text-anchor="middle" x="470.15" y="-62.88" font-family="Helvetica,sans-Serif" font-size="10.00">1</text>
</a>
</g>
</g>
<!-- dir_0d75fa89fbc2c093f67335796eb51650 -->
<g id="node9" class="node">
<title>dir_0d75fa89fbc2c093f67335796eb51650</title>
<g id="a_node9"><a xlink:href="dir_0d75fa89fbc2c093f67335796eb51650.html" target="_top" xlink:title="test">
<polygon fill="white" stroke="black" points="336,-412 282,-412 282,-376 336,-376 336,-412"/>
<text text-anchor="middle" x="309" y="-391.5" font-family="Helvetica,sans-Serif" font-size="10.00">test</text>
</a>
</g>
</g>
<!-- dir_0d75fa89fbc2c093f67335796eb51650&#45;&gt;dir_593657602c74fd2b2e9635270b1bdea2 -->
<g id="edge4" class="edge">
<title>dir_0d75fa89fbc2c093f67335796eb51650&#45;&gt;dir_593657602c74fd2b2e9635270b1bdea2</title>
<path fill="none" stroke="black" d="M281.68,-389.45C225.93,-380.58 99.84,-351.76 47,-268 36.57,-251.46 35.93,-240.12 47,-224 64.81,-198.07 99.8,-187.08 126.9,-182.42"/>
<polygon fill="black" stroke="black" points="127.48,-185.87 136.85,-180.92 126.44,-178.95 127.48,-185.87"/>
<g id="a_edge4&#45;headlabel"><a xlink:href="dir_000060_000125.html" target="_top" xlink:title="1">
<text text-anchor="middle" x="124.34" y="-186.71" font-family="Helvetica,sans-Serif" font-size="10.00">1</text>
</a>
</g>
</g>
<!-- dir_0d75fa89fbc2c093f67335796eb51650&#45;&gt;dir_686a2d3b8380929f3bfddf3b00ff951b -->
<g id="edge5" class="edge">
<title>dir_0d75fa89fbc2c093f67335796eb51650&#45;&gt;dir_686a2d3b8380929f3bfddf3b00ff951b</title>
<path fill="none" stroke="black" d="M327.45,-375.7C336.33,-366.13 346.1,-353.46 351,-340 368.63,-291.54 360.41,-275.03 353,-224 348.73,-194.64 348.13,-186.09 334,-160 328.6,-150.03 321.1,-140.23 313.77,-131.83"/>
<polygon fill="black" stroke="black" points="316.19,-129.29 306.87,-124.24 311.01,-134 316.19,-129.29"/>
<g id="a_edge5&#45;headlabel"><a xlink:href="dir_000060_000049.html" target="_top" xlink:title="1">
<text text-anchor="middle" x="320.71" y="-127.54" font-family="Helvetica,sans-Serif" font-size="10.00">1</text>
</a>
</g>
</g>
<!-- dir_0d75fa89fbc2c093f67335796eb51650&#45;&gt;dir_2a2e54c961d19636a21e44e148cfc96d -->
<g id="edge3" class="edge">
<title>dir_0d75fa89fbc2c093f67335796eb51650&#45;&gt;dir_2a2e54c961d19636a21e44e148cfc96d</title>
<path fill="none" stroke="black" d="M324.61,-375.77C332.37,-366.03 340.95,-353.18 345,-340 349.7,-324.71 349.5,-319.35 345,-304 342.2,-294.45 337.09,-284.98 331.67,-276.76"/>
<polygon fill="black" stroke="black" points="334.38,-274.52 325.75,-268.37 328.65,-278.56 334.38,-274.52"/>
<g id="a_edge3&#45;headlabel"><a xlink:href="dir_000060_000054.html" target="_top" xlink:title="2">
<text text-anchor="middle" x="338.77" y="-273.33" font-family="Helvetica,sans-Serif" font-size="10.00">2</text>
</a>
</g>
</g>
<!-- dir_0d75fa89fbc2c093f67335796eb51650&#45;&gt;dir_86c92b489e15313be87ebf3ce3c46dc2 -->
<g id="edge6" class="edge">
<title>dir_0d75fa89fbc2c093f67335796eb51650&#45;&gt;dir_86c92b489e15313be87ebf3ce3c46dc2</title>
<path fill="none" stroke="black" d="M309,-375.7C309,-367.98 309,-358.71 309,-350.11"/>
<polygon fill="black" stroke="black" points="312.5,-350.1 309,-340.1 305.5,-350.1 312.5,-350.1"/>
<g id="a_edge6&#45;headlabel"><a xlink:href="dir_000060_000058.html" target="_top" xlink:title="3">
<text text-anchor="middle" x="315.34" y="-351.2" font-family="Helvetica,sans-Serif" font-size="10.00">3</text>
</a>
</g>
</g>
</g>
</svg>
