<?xml version="1.0" encoding="UTF-8" standalone="no"?>
<!DOCTYPE svg PUBLIC "-//W3C//DTD SVG 1.1//EN"
 "http://www.w3.org/Graphics/SVG/1.1/DTD/svg11.dtd">
<!-- Generated by graphviz version 2.43.0 (0)
 -->
<!-- Title: /home/nico/projects/tmp&#45;joda&#45;dirs/JODA&#45;gh/libs/joda/core Pages: 1 -->
<svg width="188pt" height="183pt"
 viewBox="0.00 0.00 188.00 183.00" xmlns="http://www.w3.org/2000/svg" xmlns:xlink="http://www.w3.org/1999/xlink">
<g id="graph0" class="graph" transform="scale(1 1) rotate(0) translate(4 179)">
<title>/home/nico/projects/tmp&#45;joda&#45;dirs/JODA&#45;gh/libs/joda/core</title>
<polygon fill="white" stroke="transparent" points="-4,4 -4,-179 184,-179 184,4 -4,4"/>
<g id="clust1" class="cluster">
<title>clusterdir_d85371dcae0a2ff4cc307eae8199eee6</title>
<g id="a_clust1"><a xlink:href="dir_d85371dcae0a2ff4cc307eae8199eee6.html" target="_top" xlink:title="joda">
<polygon fill="#ddddee" stroke="black" points="8,-8 8,-167 172,-167 172,-8 8,-8"/>
<text text-anchor="middle" x="90" y="-155" font-family="Helvetica,sans-Serif" font-size="10.00">joda</text>
</a>
</g>
</g>
<g id="clust2" class="cluster">
<title>clusterdir_6447a68139c3ef845e05d9fdb2c650fa</title>
<g id="a_clust2"><a xlink:href="dir_6447a68139c3ef845e05d9fdb2c650fa.html" target="_top">
<polygon fill="#eeeeff" stroke="black" points="16,-16 16,-140 164,-140 164,-16 16,-16"/>
</a>
</g>
</g>
<!-- dir_6447a68139c3ef845e05d9fdb2c650fa -->
<g id="node1" class="node">
<title>dir_6447a68139c3ef845e05d9fdb2c650fa</title>
<text text-anchor="middle" x="129" y="-111.5" font-family="Helvetica,sans-Serif" font-size="10.00">core</text>
</g>
<!-- dir_86d2030c590e8edca049b1db16bf8b8d -->
<g id="node2" class="node">
<title>dir_86d2030c590e8edca049b1db16bf8b8d</title>
<g id="a_node2"><a xlink:href="dir_86d2030c590e8edca049b1db16bf8b8d.html" target="_top" xlink:title="include">
<polygon fill="white" stroke="red" points="81,-60 27,-60 27,-24 81,-24 81,-60"/>
<text text-anchor="middle" x="54" y="-39.5" font-family="Helvetica,sans-Serif" font-size="10.00">include</text>
</a>
</g>
</g>
<!-- dir_90b36eb2f4e9ffeeae2f8ee3ceb10c2f -->
<g id="node3" class="node">
<title>dir_90b36eb2f4e9ffeeae2f8ee3ceb10c2f</title>
<g id="a_node3"><a xlink:href="dir_90b36eb2f4e9ffeeae2f8ee3ceb10c2f.html" target="_top" xlink:title="modules">
<polygon fill="white" stroke="red" points="83.5,-132 24.5,-132 24.5,-96 83.5,-96 83.5,-132"/>
<text text-anchor="middle" x="54" y="-111.5" font-family="Helvetica,sans-Serif" font-size="10.00">modules</text>
</a>
</g>
</g>
<!-- dir_90b36eb2f4e9ffeeae2f8ee3ceb10c2f&#45;&gt;dir_86d2030c590e8edca049b1db16bf8b8d -->
<g id="edge1" class="edge">
<title>dir_90b36eb2f4e9ffeeae2f8ee3ceb10c2f&#45;&gt;dir_86d2030c590e8edca049b1db16bf8b8d</title>
<path fill="none" stroke="black" d="M54,-95.7C54,-87.98 54,-78.71 54,-70.11"/>
<polygon fill="black" stroke="black" points="57.5,-70.1 54,-60.1 50.5,-70.1 57.5,-70.1"/>
<g id="a_edge1&#45;headlabel"><a xlink:href="dir_000006_000013.html" target="_top" xlink:title="2">
<text text-anchor="middle" x="60.34" y="-71.2" font-family="Helvetica,sans-Serif" font-size="10.00">2</text>
</a>
</g>
</g>
</g>
</svg>
