<?xml version="1.0" encoding="UTF-8" standalone="no"?>
<!DOCTYPE svg PUBLIC "-//W3C//DTD SVG 1.1//EN"
 "http://www.w3.org/Graphics/SVG/1.1/DTD/svg11.dtd">
<!-- Generated by graphviz version 2.43.0 (0)
 -->
<!-- Title: /home/nico/joda_tmp/tmp&#45;joda&#45;dirs/JODA&#45;gh/libs/joda/core/modules/indexing/include Pages: 1 -->
<svg width="255pt" height="223pt"
 viewBox="0.00 0.00 254.58 223.00" xmlns="http://www.w3.org/2000/svg" xmlns:xlink="http://www.w3.org/1999/xlink">
<g id="graph0" class="graph" transform="scale(1 1) rotate(0) translate(4 219)">
<title>/home/nico/joda_tmp/tmp&#45;joda&#45;dirs/JODA&#45;gh/libs/joda/core/modules/indexing/include</title>
<polygon fill="white" stroke="transparent" points="-4,4 -4,-219 250.58,-219 250.58,4 -4,4"/>
<g id="clust1" class="cluster">
<title>clusterdir_f68cecf97e59d94ae40020cb83e5fd19</title>
<g id="a_clust1"><a xlink:href="dir_f68cecf97e59d94ae40020cb83e5fd19.html" target="_top" xlink:title="indexing">
<polygon fill="#ddddee" stroke="black" points="8,-56 8,-207 166,-207 166,-56 8,-56"/>
<text text-anchor="middle" x="87" y="-195" font-family="Helvetica,sans-Serif" font-size="10.00">indexing</text>
</a>
</g>
</g>
<g id="clust2" class="cluster">
<title>clusterdir_728b09d507ad9ea609c2a8fa74c35e49</title>
<g id="a_clust2"><a xlink:href="dir_728b09d507ad9ea609c2a8fa74c35e49.html" target="_top">
<polygon fill="#eeeeff" stroke="black" points="16,-64 16,-116 158,-116 158,-64 16,-64"/>
</a>
</g>
</g>
<!-- dir_87cf3f394852c0a9db54c7bb4ca3b0b1 -->
<g id="node1" class="node">
<title>dir_87cf3f394852c0a9db54c7bb4ca3b0b1</title>
<g id="a_node1"><a xlink:href="dir_87cf3f394852c0a9db54c7bb4ca3b0b1.html" target="_top" xlink:title="src">
<polygon fill="white" stroke="red" points="158,-180 104,-180 104,-144 158,-144 158,-180"/>
<text text-anchor="middle" x="131" y="-159.5" font-family="Helvetica,sans-Serif" font-size="10.00">src</text>
</a>
</g>
</g>
<!-- dir_708f51c5f16f12b1053fea2908b3323d -->
<g id="node3" class="node">
<title>dir_708f51c5f16f12b1053fea2908b3323d</title>
<g id="a_node3"><a xlink:href="dir_708f51c5f16f12b1053fea2908b3323d.html" target="_top" xlink:title="joda">
<polygon fill="white" stroke="red" points="78,-108 24,-108 24,-72 78,-72 78,-108"/>
<text text-anchor="middle" x="51" y="-87.5" font-family="Helvetica,sans-Serif" font-size="10.00">joda</text>
</a>
</g>
</g>
<!-- dir_87cf3f394852c0a9db54c7bb4ca3b0b1&#45;&gt;dir_708f51c5f16f12b1053fea2908b3323d -->
<g id="edge3" class="edge">
<title>dir_87cf3f394852c0a9db54c7bb4ca3b0b1&#45;&gt;dir_708f51c5f16f12b1053fea2908b3323d</title>
<path fill="none" stroke="black" d="M117.14,-143.7C107.97,-134.88 95.74,-124.03 84.24,-114.47"/>
<polygon fill="black" stroke="black" points="86.4,-111.72 76.44,-108.1 81.97,-117.14 86.4,-111.72"/>
<g id="a_edge3&#45;headlabel"><a xlink:href="dir_000042_000040.html" target="_top" xlink:title="1">
<text text-anchor="middle" x="90.98" y="-109.29" font-family="Helvetica,sans-Serif" font-size="10.00">1</text>
</a>
</g>
</g>
<!-- dir_593657602c74fd2b2e9635270b1bdea2 -->
<g id="node4" class="node">
<title>dir_593657602c74fd2b2e9635270b1bdea2</title>
<g id="a_node4"><a xlink:href="dir_593657602c74fd2b2e9635270b1bdea2.html" target="_top" xlink:title="storage">
<polygon fill="white" stroke="red" points="228,-108 174,-108 174,-72 228,-72 228,-108"/>
<text text-anchor="middle" x="201" y="-87.5" font-family="Helvetica,sans-Serif" font-size="10.00">storage</text>
</a>
</g>
</g>
<!-- dir_87cf3f394852c0a9db54c7bb4ca3b0b1&#45;&gt;dir_593657602c74fd2b2e9635270b1bdea2 -->
<g id="edge2" class="edge">
<title>dir_87cf3f394852c0a9db54c7bb4ca3b0b1&#45;&gt;dir_593657602c74fd2b2e9635270b1bdea2</title>
<path fill="none" stroke="black" d="M148.3,-143.7C156.86,-135.14 167.34,-124.66 176.7,-115.3"/>
<polygon fill="black" stroke="black" points="179.3,-117.65 183.9,-108.1 174.35,-112.7 179.3,-117.65"/>
<g id="a_edge2&#45;headlabel"><a xlink:href="dir_000042_000125.html" target="_top" xlink:title="1">
<text text-anchor="middle" x="178.77" y="-119.7" font-family="Helvetica,sans-Serif" font-size="10.00">1</text>
</a>
</g>
</g>
<!-- dir_308afe6c0c0e65dd84efc4369dd1efeb -->
<g id="node5" class="node">
<title>dir_308afe6c0c0e65dd84efc4369dd1efeb</title>
<g id="a_node5"><a xlink:href="dir_308afe6c0c0e65dd84efc4369dd1efeb.html" target="_top" xlink:title="query">
<polygon fill="white" stroke="red" points="228,-36 174,-36 174,0 228,0 228,-36"/>
<text text-anchor="middle" x="201" y="-15.5" font-family="Helvetica,sans-Serif" font-size="10.00">query</text>
</a>
</g>
</g>
<!-- dir_87cf3f394852c0a9db54c7bb4ca3b0b1&#45;&gt;dir_308afe6c0c0e65dd84efc4369dd1efeb -->
<g id="edge1" class="edge">
<title>dir_87cf3f394852c0a9db54c7bb4ca3b0b1&#45;&gt;dir_308afe6c0c0e65dd84efc4369dd1efeb</title>
<path fill="none" stroke="black" d="M158.04,-157.85C183.27,-153.31 219.57,-142.34 237,-116 251.72,-93.76 247.04,-80.71 237,-56 235.24,-51.68 232.72,-47.59 229.8,-43.81"/>
<polygon fill="black" stroke="black" points="232.2,-41.24 222.95,-36.07 226.96,-45.88 232.2,-41.24"/>
<g id="a_edge1&#45;headlabel"><a xlink:href="dir_000042_000065.html" target="_top" xlink:title="3">
<text text-anchor="middle" x="236.71" y="-39.55" font-family="Helvetica,sans-Serif" font-size="10.00">3</text>
</a>
</g>
</g>
<!-- dir_728b09d507ad9ea609c2a8fa74c35e49 -->
<g id="node2" class="node">
<title>dir_728b09d507ad9ea609c2a8fa74c35e49</title>
<text text-anchor="middle" x="123" y="-87.5" font-family="Helvetica,sans-Serif" font-size="10.00">include</text>
</g>
<!-- dir_708f51c5f16f12b1053fea2908b3323d&#45;&gt;dir_87cf3f394852c0a9db54c7bb4ca3b0b1 -->
<g id="edge8" class="edge">
<title>dir_708f51c5f16f12b1053fea2908b3323d&#45;&gt;dir_87cf3f394852c0a9db54c7bb4ca3b0b1</title>
<path fill="none" stroke="black" d="M64.65,-108.1C73.77,-116.89 85.99,-127.73 97.5,-137.31"/>
<polygon fill="black" stroke="black" points="95.35,-140.08 105.31,-143.7 99.78,-134.66 95.35,-140.08"/>
<g id="a_edge8&#45;headlabel"><a xlink:href="dir_000040_000042.html" target="_top" xlink:title="1">
<text text-anchor="middle" x="90.77" y="-137.5" font-family="Helvetica,sans-Serif" font-size="10.00">1</text>
</a>
</g>
</g>
<!-- dir_708f51c5f16f12b1053fea2908b3323d&#45;&gt;dir_593657602c74fd2b2e9635270b1bdea2 -->
<g id="edge7" class="edge">
<title>dir_708f51c5f16f12b1053fea2908b3323d&#45;&gt;dir_593657602c74fd2b2e9635270b1bdea2</title>
<path fill="none" stroke="black" d="M65.68,-108.1C73.66,-116.47 84.28,-125.54 96,-130 119.68,-139 129.18,-138.62 153,-130 161.8,-126.81 170.12,-121.24 177.28,-115.24"/>
<polygon fill="black" stroke="black" points="180.07,-117.43 185.12,-108.12 175.36,-112.25 180.07,-117.43"/>
<g id="a_edge7&#45;headlabel"><a xlink:href="dir_000040_000125.html" target="_top" xlink:title="1">
<text text-anchor="middle" x="179.31" y="-119.45" font-family="Helvetica,sans-Serif" font-size="10.00">1</text>
</a>
</g>
</g>
<!-- dir_708f51c5f16f12b1053fea2908b3323d&#45;&gt;dir_308afe6c0c0e65dd84efc4369dd1efeb -->
<g id="edge6" class="edge">
<title>dir_708f51c5f16f12b1053fea2908b3323d&#45;&gt;dir_308afe6c0c0e65dd84efc4369dd1efeb</title>
<path fill="none" stroke="black" d="M66.65,-71.93C72.58,-66.24 79.68,-60.27 87,-56 110.96,-42.03 140.87,-32.58 164.04,-26.73"/>
<polygon fill="black" stroke="black" points="164.94,-30.11 173.84,-24.36 163.3,-23.3 164.94,-30.11"/>
<g id="a_edge6&#45;headlabel"><a xlink:href="dir_000040_000065.html" target="_top" xlink:title="1">
<text text-anchor="middle" x="162.11" y="-31.21" font-family="Helvetica,sans-Serif" font-size="10.00">1</text>
</a>
</g>
</g>
<!-- dir_593657602c74fd2b2e9635270b1bdea2&#45;&gt;dir_708f51c5f16f12b1053fea2908b3323d -->
<g id="edge5" class="edge">
<title>dir_593657602c74fd2b2e9635270b1bdea2&#45;&gt;dir_708f51c5f16f12b1053fea2908b3323d</title>
<path fill="none" stroke="black" d="M185.12,-108.12C176.55,-116.5 165.24,-125.57 153,-130 129.18,-138.62 119.68,-139 96,-130 87.57,-126.8 79.72,-121.21 73,-115.21"/>
<polygon fill="black" stroke="black" points="75.29,-112.56 65.68,-108.1 70.41,-117.58 75.29,-112.56"/>
<g id="a_edge5&#45;headlabel"><a xlink:href="dir_000125_000040.html" target="_top" xlink:title="1">
<text text-anchor="middle" x="79.85" y="-110.52" font-family="Helvetica,sans-Serif" font-size="10.00">1</text>
</a>
</g>
</g>
<!-- dir_593657602c74fd2b2e9635270b1bdea2&#45;&gt;dir_308afe6c0c0e65dd84efc4369dd1efeb -->
<g id="edge4" class="edge">
<title>dir_593657602c74fd2b2e9635270b1bdea2&#45;&gt;dir_308afe6c0c0e65dd84efc4369dd1efeb</title>
<path fill="none" stroke="black" d="M195.08,-71.7C194.29,-63.98 194.06,-54.71 194.4,-46.11"/>
<polygon fill="black" stroke="black" points="197.9,-46.32 195.1,-36.1 190.92,-45.84 197.9,-46.32"/>
<g id="a_edge4&#45;headlabel"><a xlink:href="dir_000125_000065.html" target="_top" xlink:title="4">
<text text-anchor="middle" x="200.48" y="-47.61" font-family="Helvetica,sans-Serif" font-size="10.00">4</text>
</a>
</g>
</g>
<!-- dir_308afe6c0c0e65dd84efc4369dd1efeb&#45;&gt;dir_593657602c74fd2b2e9635270b1bdea2 -->
<g id="edge9" class="edge">
<title>dir_308afe6c0c0e65dd84efc4369dd1efeb&#45;&gt;dir_593657602c74fd2b2e9635270b1bdea2</title>
<path fill="none" stroke="black" d="M206.9,-36.1C207.7,-43.79 207.94,-53.05 207.6,-61.67"/>
<polygon fill="black" stroke="black" points="204.11,-61.48 206.92,-71.7 211.09,-61.96 204.11,-61.48"/>
<g id="a_edge9&#45;headlabel"><a xlink:href="dir_000065_000125.html" target="_top" xlink:title="11">
<text text-anchor="middle" x="201.52" y="-55.2" font-family="Helvetica,sans-Serif" font-size="10.00">11</text>
</a>
</g>
</g>
</g>
</svg>
