<?xml version="1.0" encoding="UTF-8" standalone="no"?>
<!DOCTYPE svg PUBLIC "-//W3C//DTD SVG 1.1//EN"
 "http://www.w3.org/Graphics/SVG/1.1/DTD/svg11.dtd">
<!-- Generated by graphviz version 2.43.0 (0)
 -->
<!-- Title: /home/nico/projects/tmp&#45;joda&#45;dirs/JODA&#45;gh/libs/joda/core/modules/concurrency/src Pages: 1 -->
<svg width="100pt" height="151pt"
 viewBox="0.00 0.00 100.00 151.00" xmlns="http://www.w3.org/2000/svg" xmlns:xlink="http://www.w3.org/1999/xlink">
<g id="graph0" class="graph" transform="scale(1 1) rotate(0) translate(4 147)">
<title>/home/nico/projects/tmp&#45;joda&#45;dirs/JODA&#45;gh/libs/joda/core/modules/concurrency/src</title>
<polygon fill="white" stroke="transparent" points="-4,4 -4,-147 96,-147 96,4 -4,4"/>
<g id="clust1" class="cluster">
<title>clusterdir_749af01c4b44bc0c6a4f35b0ce4584fa</title>
<g id="a_clust1"><a xlink:href="dir_749af01c4b44bc0c6a4f35b0ce4584fa.html" target="_top" xlink:title="concurrency">
<polygon fill="#ddddee" stroke="black" points="8,-64 8,-135 84,-135 84,-64 8,-64"/>
<text text-anchor="middle" x="46" y="-123" font-family="Helvetica,sans-Serif" font-size="10.00">concurrency</text>
</a>
</g>
</g>
<!-- dir_512e913b6374d261829dedf2e6f460c2 -->
<g id="node1" class="node">
<title>dir_512e913b6374d261829dedf2e6f460c2</title>
<g id="a_node1"><a xlink:href="dir_512e913b6374d261829dedf2e6f460c2.html" target="_top" xlink:title="src">
<polygon fill="#eeeeff" stroke="black" points="73,-108 19,-108 19,-72 73,-72 73,-108"/>
<text text-anchor="middle" x="46" y="-87.5" font-family="Helvetica,sans-Serif" font-size="10.00">src</text>
</a>
</g>
</g>
<!-- dir_20b7e6638035c62d28dd2d018ba9acce -->
<g id="node2" class="node">
<title>dir_20b7e6638035c62d28dd2d018ba9acce</title>
<g id="a_node2"><a xlink:href="dir_20b7e6638035c62d28dd2d018ba9acce.html" target="_top" xlink:title="include">
<polygon fill="white" stroke="red" points="73,-36 19,-36 19,0 73,0 73,-36"/>
<text text-anchor="middle" x="46" y="-15.5" font-family="Helvetica,sans-Serif" font-size="10.00">include</text>
</a>
</g>
</g>
<!-- dir_512e913b6374d261829dedf2e6f460c2&#45;&gt;dir_20b7e6638035c62d28dd2d018ba9acce -->
<g id="edge1" class="edge">
<title>dir_512e913b6374d261829dedf2e6f460c2&#45;&gt;dir_20b7e6638035c62d28dd2d018ba9acce</title>
<path fill="none" stroke="black" d="M46,-71.7C46,-63.98 46,-54.71 46,-46.11"/>
<polygon fill="black" stroke="black" points="49.5,-46.1 46,-36.1 42.5,-46.1 49.5,-46.1"/>
<g id="a_edge1&#45;headlabel"><a xlink:href="dir_000022_000019.html" target="_top" xlink:title="1">
<text text-anchor="middle" x="52.34" y="-47.2" font-family="Helvetica,sans-Serif" font-size="10.00">1</text>
</a>
</g>
</g>
</g>
</svg>
