<?xml version="1.0" encoding="UTF-8" standalone="no"?>
<!DOCTYPE svg PUBLIC "-//W3C//DTD SVG 1.1//EN"
 "http://www.w3.org/Graphics/SVG/1.1/DTD/svg11.dtd">
<!-- Generated by graphviz version 2.43.0 (0)
 -->
<!-- Title: /home/nico/joda_tmp/tmp&#45;joda&#45;dirs/JODA&#45;gh/libs/joda/core/modules/storage/collection Pages: 1 -->
<svg width="442pt" height="303pt"
 viewBox="0.00 0.00 442.42 303.00" xmlns="http://www.w3.org/2000/svg" xmlns:xlink="http://www.w3.org/1999/xlink">
<g id="graph0" class="graph" transform="scale(1 1) rotate(0) translate(4 299)">
<title>/home/nico/joda_tmp/tmp&#45;joda&#45;dirs/JODA&#45;gh/libs/joda/core/modules/storage/collection</title>
<polygon fill="white" stroke="transparent" points="-4,4 -4,-299 438.42,-299 438.42,4 -4,4"/>
<g id="clust1" class="cluster">
<title>clusterdir_593657602c74fd2b2e9635270b1bdea2</title>
<g id="a_clust1"><a xlink:href="dir_593657602c74fd2b2e9635270b1bdea2.html" target="_top" xlink:title="storage">
<polygon fill="#ddddee" stroke="black" points="8,-64 8,-287 248,-287 248,-64 8,-64"/>
<text text-anchor="middle" x="128" y="-275" font-family="Helvetica,sans-Serif" font-size="10.00">storage</text>
</a>
</g>
</g>
<g id="clust2" class="cluster">
<title>clusterdir_9f44ebdb2572eb806e275c57a4a23e65</title>
<g id="a_clust2"><a xlink:href="dir_9f44ebdb2572eb806e275c57a4a23e65.html" target="_top">
<polygon fill="#eeeeff" stroke="black" points="16,-136 16,-260 240,-260 240,-136 16,-136"/>
</a>
</g>
</g>
<!-- dir_cba92e8ae5002aa14fb05c913e366260 -->
<g id="node1" class="node">
<title>dir_cba92e8ae5002aa14fb05c913e366260</title>
<g id="a_node1"><a xlink:href="dir_cba92e8ae5002aa14fb05c913e366260.html" target="_top" xlink:title="include">
<polygon fill="white" stroke="red" points="196,-108 142,-108 142,-72 196,-72 196,-108"/>
<text text-anchor="middle" x="169" y="-87.5" font-family="Helvetica,sans-Serif" font-size="10.00">include</text>
</a>
</g>
</g>
<!-- dir_9f44ebdb2572eb806e275c57a4a23e65 -->
<g id="node2" class="node">
<title>dir_9f44ebdb2572eb806e275c57a4a23e65</title>
<text text-anchor="middle" x="200" y="-231.5" font-family="Helvetica,sans-Serif" font-size="10.00">collection</text>
</g>
<!-- dir_fe9d8bf9624b6804d9d0746c5cf15af4 -->
<g id="node3" class="node">
<title>dir_fe9d8bf9624b6804d9d0746c5cf15af4</title>
<g id="a_node3"><a xlink:href="dir_fe9d8bf9624b6804d9d0746c5cf15af4.html" target="_top" xlink:title="include">
<polygon fill="white" stroke="red" points="150,-180 96,-180 96,-144 150,-144 150,-180"/>
<text text-anchor="middle" x="123" y="-159.5" font-family="Helvetica,sans-Serif" font-size="10.00">include</text>
</a>
</g>
</g>
<!-- dir_fe9d8bf9624b6804d9d0746c5cf15af4&#45;&gt;dir_cba92e8ae5002aa14fb05c913e366260 -->
<g id="edge11" class="edge">
<title>dir_fe9d8bf9624b6804d9d0746c5cf15af4&#45;&gt;dir_cba92e8ae5002aa14fb05c913e366260</title>
<path fill="none" stroke="black" d="M134.37,-143.7C139.72,-135.56 146.2,-125.69 152.11,-116.7"/>
<polygon fill="black" stroke="black" points="155.19,-118.38 157.76,-108.1 149.34,-114.54 155.19,-118.38"/>
<g id="a_edge11&#45;headlabel"><a xlink:href="dir_000127_000146.html" target="_top" xlink:title="1">
<text text-anchor="middle" x="155.59" y="-120.45" font-family="Helvetica,sans-Serif" font-size="10.00">1</text>
</a>
</g>
</g>
<!-- dir_330813092258a011b683878a00fa0d9e -->
<g id="node6" class="node">
<title>dir_330813092258a011b683878a00fa0d9e</title>
<g id="a_node6"><a xlink:href="dir_330813092258a011b683878a00fa0d9e.html" target="_top" xlink:title="join">
<polygon fill="white" stroke="red" points="310,-180 256,-180 256,-144 310,-144 310,-180"/>
<text text-anchor="middle" x="283" y="-159.5" font-family="Helvetica,sans-Serif" font-size="10.00">join</text>
</a>
</g>
</g>
<!-- dir_fe9d8bf9624b6804d9d0746c5cf15af4&#45;&gt;dir_330813092258a011b683878a00fa0d9e -->
<g id="edge10" class="edge">
<title>dir_fe9d8bf9624b6804d9d0746c5cf15af4&#45;&gt;dir_330813092258a011b683878a00fa0d9e</title>
<path fill="none" stroke="black" d="M150.19,-162C181.94,-162 213.7,-162 245.45,-162"/>
<polygon fill="black" stroke="black" points="245.76,-165.5 255.76,-162 245.76,-158.5 245.76,-165.5"/>
<g id="a_edge10&#45;headlabel"><a xlink:href="dir_000127_000044.html" target="_top" xlink:title="1">
<text text-anchor="middle" x="242.17" y="-165.84" font-family="Helvetica,sans-Serif" font-size="10.00">1</text>
</a>
</g>
</g>
<!-- dir_3dc45af8a063bb81896cbdbf3706a8f2 -->
<g id="node4" class="node">
<title>dir_3dc45af8a063bb81896cbdbf3706a8f2</title>
<g id="a_node4"><a xlink:href="dir_3dc45af8a063bb81896cbdbf3706a8f2.html" target="_top" xlink:title="src">
<polygon fill="white" stroke="black" points="150,-252 96,-252 96,-216 150,-216 150,-252"/>
<text text-anchor="middle" x="123" y="-231.5" font-family="Helvetica,sans-Serif" font-size="10.00">src</text>
</a>
</g>
</g>
<!-- dir_3dc45af8a063bb81896cbdbf3706a8f2&#45;&gt;dir_fe9d8bf9624b6804d9d0746c5cf15af4 -->
<g id="edge8" class="edge">
<title>dir_3dc45af8a063bb81896cbdbf3706a8f2&#45;&gt;dir_fe9d8bf9624b6804d9d0746c5cf15af4</title>
<path fill="none" stroke="black" d="M123,-215.7C123,-207.98 123,-198.71 123,-190.11"/>
<polygon fill="black" stroke="black" points="126.5,-190.1 123,-180.1 119.5,-190.1 126.5,-190.1"/>
<g id="a_edge8&#45;headlabel"><a xlink:href="dir_000131_000127.html" target="_top" xlink:title="1">
<text text-anchor="middle" x="129.34" y="-191.2" font-family="Helvetica,sans-Serif" font-size="10.00">1</text>
</a>
</g>
</g>
<!-- dir_3dc45af8a063bb81896cbdbf3706a8f2&#45;&gt;dir_330813092258a011b683878a00fa0d9e -->
<g id="edge5" class="edge">
<title>dir_3dc45af8a063bb81896cbdbf3706a8f2&#45;&gt;dir_330813092258a011b683878a00fa0d9e</title>
<path fill="none" stroke="black" d="M150.07,-220.07C153.08,-218.68 156.1,-217.3 159,-216 196.45,-199.24 206.31,-196.2 244,-180 244.83,-179.64 245.67,-179.28 246.52,-178.92"/>
<polygon fill="black" stroke="black" points="247.95,-182.11 255.74,-174.93 245.17,-175.68 247.95,-182.11"/>
<g id="a_edge5&#45;headlabel"><a xlink:href="dir_000131_000044.html" target="_top" xlink:title="3">
<text text-anchor="middle" x="245.78" y="-183.64" font-family="Helvetica,sans-Serif" font-size="10.00">3</text>
</a>
</g>
</g>
<!-- dir_7370e63381a3da0a5abca9ffd8b57676 -->
<g id="node7" class="node">
<title>dir_7370e63381a3da0a5abca9ffd8b57676</title>
<g id="a_node7"><a xlink:href="dir_7370e63381a3da0a5abca9ffd8b57676.html" target="_top" xlink:title="config">
<polygon fill="white" stroke="red" points="420,-108 366,-108 366,-72 420,-72 420,-108"/>
<text text-anchor="middle" x="393" y="-87.5" font-family="Helvetica,sans-Serif" font-size="10.00">config</text>
</a>
</g>
</g>
<!-- dir_3dc45af8a063bb81896cbdbf3706a8f2&#45;&gt;dir_7370e63381a3da0a5abca9ffd8b57676 -->
<g id="edge7" class="edge">
<title>dir_3dc45af8a063bb81896cbdbf3706a8f2&#45;&gt;dir_7370e63381a3da0a5abca9ffd8b57676</title>
<path fill="none" stroke="black" d="M150.26,-219.37C153.17,-218.14 156.12,-216.99 159,-216 227.93,-192.29 256.83,-218.05 319,-180 344.27,-164.54 364.97,-137.37 377.99,-117.1"/>
<polygon fill="black" stroke="black" points="381.13,-118.69 383.42,-108.35 375.18,-115 381.13,-118.69"/>
<g id="a_edge7&#45;headlabel"><a xlink:href="dir_000131_000023.html" target="_top" xlink:title="1">
<text text-anchor="middle" x="381.65" y="-120.74" font-family="Helvetica,sans-Serif" font-size="10.00">1</text>
</a>
</g>
</g>
<!-- dir_686a2d3b8380929f3bfddf3b00ff951b -->
<g id="node8" class="node">
<title>dir_686a2d3b8380929f3bfddf3b00ff951b</title>
<g id="a_node8"><a xlink:href="dir_686a2d3b8380929f3bfddf3b00ff951b.html" target="_top" xlink:title="misc">
<polygon fill="white" stroke="red" points="420,-36 366,-36 366,0 420,0 420,-36"/>
<text text-anchor="middle" x="393" y="-15.5" font-family="Helvetica,sans-Serif" font-size="10.00">misc</text>
</a>
</g>
</g>
<!-- dir_3dc45af8a063bb81896cbdbf3706a8f2&#45;&gt;dir_686a2d3b8380929f3bfddf3b00ff951b -->
<g id="edge6" class="edge">
<title>dir_3dc45af8a063bb81896cbdbf3706a8f2&#45;&gt;dir_686a2d3b8380929f3bfddf3b00ff951b</title>
<path fill="none" stroke="black" d="M150.22,-219.25C153.14,-218.05 156.11,-216.93 159,-216 243.31,-188.86 276.3,-220.64 355,-180 395.77,-158.95 411.15,-150.27 429,-108 436.61,-89.98 435.47,-82.45 429,-64 426.5,-56.86 422.33,-50.01 417.7,-43.91"/>
<polygon fill="black" stroke="black" points="420.29,-41.55 411.22,-36.08 414.9,-46.01 420.29,-41.55"/>
<g id="a_edge6&#45;headlabel"><a xlink:href="dir_000131_000049.html" target="_top" xlink:title="1">
<text text-anchor="middle" x="424.77" y="-40" font-family="Helvetica,sans-Serif" font-size="10.00">1</text>
</a>
</g>
</g>
<!-- dir_308afe6c0c0e65dd84efc4369dd1efeb -->
<g id="node9" class="node">
<title>dir_308afe6c0c0e65dd84efc4369dd1efeb</title>
<g id="a_node9"><a xlink:href="dir_308afe6c0c0e65dd84efc4369dd1efeb.html" target="_top" xlink:title="query">
<polygon fill="white" stroke="red" points="310,-108 256,-108 256,-72 310,-72 310,-108"/>
<text text-anchor="middle" x="283" y="-87.5" font-family="Helvetica,sans-Serif" font-size="10.00">query</text>
</a>
</g>
</g>
<!-- dir_3dc45af8a063bb81896cbdbf3706a8f2&#45;&gt;dir_308afe6c0c0e65dd84efc4369dd1efeb -->
<g id="edge4" class="edge">
<title>dir_3dc45af8a063bb81896cbdbf3706a8f2&#45;&gt;dir_308afe6c0c0e65dd84efc4369dd1efeb</title>
<path fill="none" stroke="black" d="M150.02,-216.12C165,-206.28 183.65,-193.24 199,-180 222.13,-160.06 245.76,-134.45 262.05,-115.83"/>
<polygon fill="black" stroke="black" points="264.87,-117.92 268.77,-108.06 259.58,-113.34 264.87,-117.92"/>
<g id="a_edge4&#45;headlabel"><a xlink:href="dir_000131_000065.html" target="_top" xlink:title="1">
<text text-anchor="middle" x="264.67" y="-119.99" font-family="Helvetica,sans-Serif" font-size="10.00">1</text>
</a>
</g>
</g>
<!-- dir_a039340af999facaeef70460ca85fe27 -->
<g id="node5" class="node">
<title>dir_a039340af999facaeef70460ca85fe27</title>
<g id="a_node5"><a xlink:href="dir_a039340af999facaeef70460ca85fe27.html" target="_top" xlink:title="test">
<polygon fill="white" stroke="black" points="78,-252 24,-252 24,-216 78,-216 78,-252"/>
<text text-anchor="middle" x="51" y="-231.5" font-family="Helvetica,sans-Serif" font-size="10.00">test</text>
</a>
</g>
</g>
<!-- dir_a039340af999facaeef70460ca85fe27&#45;&gt;dir_cba92e8ae5002aa14fb05c913e366260 -->
<g id="edge2" class="edge">
<title>dir_a039340af999facaeef70460ca85fe27&#45;&gt;dir_cba92e8ae5002aa14fb05c913e366260</title>
<path fill="none" stroke="black" d="M78.11,-220.09C109.68,-204.99 157.71,-181.83 159,-180 171.55,-162.17 173.35,-137.16 172.41,-118.19"/>
<polygon fill="black" stroke="black" points="175.89,-117.79 171.63,-108.09 168.91,-118.33 175.89,-117.79"/>
<g id="a_edge2&#45;headlabel"><a xlink:href="dir_000132_000146.html" target="_top" xlink:title="1">
<text text-anchor="middle" x="179" y="-118.66" font-family="Helvetica,sans-Serif" font-size="10.00">1</text>
</a>
</g>
</g>
<!-- dir_a039340af999facaeef70460ca85fe27&#45;&gt;dir_fe9d8bf9624b6804d9d0746c5cf15af4 -->
<g id="edge3" class="edge">
<title>dir_a039340af999facaeef70460ca85fe27&#45;&gt;dir_fe9d8bf9624b6804d9d0746c5cf15af4</title>
<path fill="none" stroke="black" d="M68.8,-215.7C77.6,-207.14 88.38,-196.66 98,-187.3"/>
<polygon fill="black" stroke="black" points="100.68,-189.58 105.41,-180.1 95.8,-184.57 100.68,-189.58"/>
<g id="a_edge3&#45;headlabel"><a xlink:href="dir_000132_000127.html" target="_top" xlink:title="1">
<text text-anchor="middle" x="100.08" y="-191.63" font-family="Helvetica,sans-Serif" font-size="10.00">1</text>
</a>
</g>
</g>
<!-- dir_330813092258a011b683878a00fa0d9e&#45;&gt;dir_cba92e8ae5002aa14fb05c913e366260 -->
<g id="edge13" class="edge">
<title>dir_330813092258a011b683878a00fa0d9e&#45;&gt;dir_cba92e8ae5002aa14fb05c913e366260</title>
<path fill="none" stroke="black" d="M256.63,-143.95C252.42,-141.27 248.1,-138.54 244,-136 231.33,-128.14 217.35,-119.69 204.93,-112.26"/>
<polygon fill="black" stroke="black" points="206.58,-109.17 196.2,-107.05 202.99,-115.18 206.58,-109.17"/>
<g id="a_edge13&#45;headlabel"><a xlink:href="dir_000044_000146.html" target="_top" xlink:title="2">
<text text-anchor="middle" x="211.12" y="-106.07" font-family="Helvetica,sans-Serif" font-size="10.00">2</text>
</a>
</g>
</g>
<!-- dir_330813092258a011b683878a00fa0d9e&#45;&gt;dir_7370e63381a3da0a5abca9ffd8b57676 -->
<g id="edge15" class="edge">
<title>dir_330813092258a011b683878a00fa0d9e&#45;&gt;dir_7370e63381a3da0a5abca9ffd8b57676</title>
<path fill="none" stroke="black" d="M309.91,-143.88C324.16,-134.81 341.85,-123.55 357.24,-113.76"/>
<polygon fill="black" stroke="black" points="359.43,-116.51 365.99,-108.19 355.67,-110.61 359.43,-116.51"/>
<g id="a_edge15&#45;headlabel"><a xlink:href="dir_000044_000023.html" target="_top" xlink:title="2">
<text text-anchor="middle" x="357.92" y="-118.34" font-family="Helvetica,sans-Serif" font-size="10.00">2</text>
</a>
</g>
</g>
<!-- dir_330813092258a011b683878a00fa0d9e&#45;&gt;dir_686a2d3b8380929f3bfddf3b00ff951b -->
<g id="edge14" class="edge">
<title>dir_330813092258a011b683878a00fa0d9e&#45;&gt;dir_686a2d3b8380929f3bfddf3b00ff951b</title>
<path fill="none" stroke="black" d="M295.98,-143.74C310.66,-124.27 335.35,-91.71 357,-64 362.11,-57.46 367.69,-50.43 372.9,-43.92"/>
<polygon fill="black" stroke="black" points="375.7,-46.01 379.23,-36.02 370.24,-41.63 375.7,-46.01"/>
<g id="a_edge14&#45;headlabel"><a xlink:href="dir_000044_000049.html" target="_top" xlink:title="1">
<text text-anchor="middle" x="375.67" y="-48.09" font-family="Helvetica,sans-Serif" font-size="10.00">1</text>
</a>
</g>
</g>
<!-- dir_330813092258a011b683878a00fa0d9e&#45;&gt;dir_308afe6c0c0e65dd84efc4369dd1efeb -->
<g id="edge12" class="edge">
<title>dir_330813092258a011b683878a00fa0d9e&#45;&gt;dir_308afe6c0c0e65dd84efc4369dd1efeb</title>
<path fill="none" stroke="black" d="M277.08,-143.7C276.29,-135.98 276.06,-126.71 276.4,-118.11"/>
<polygon fill="black" stroke="black" points="279.9,-118.32 277.1,-108.1 272.92,-117.84 279.9,-118.32"/>
<g id="a_edge12&#45;headlabel"><a xlink:href="dir_000044_000065.html" target="_top" xlink:title="2">
<text text-anchor="middle" x="282.48" y="-119.61" font-family="Helvetica,sans-Serif" font-size="10.00">2</text>
</a>
</g>
</g>
<!-- dir_7370e63381a3da0a5abca9ffd8b57676&#45;&gt;dir_686a2d3b8380929f3bfddf3b00ff951b -->
<g id="edge9" class="edge">
<title>dir_7370e63381a3da0a5abca9ffd8b57676&#45;&gt;dir_686a2d3b8380929f3bfddf3b00ff951b</title>
<path fill="none" stroke="black" d="M387.08,-71.7C386.29,-63.98 386.06,-54.71 386.4,-46.11"/>
<polygon fill="black" stroke="black" points="389.9,-46.32 387.1,-36.1 382.92,-45.84 389.9,-46.32"/>
<g id="a_edge9&#45;headlabel"><a xlink:href="dir_000023_000049.html" target="_top" xlink:title="1">
<text text-anchor="middle" x="392.48" y="-47.61" font-family="Helvetica,sans-Serif" font-size="10.00">1</text>
</a>
</g>
</g>
<!-- dir_686a2d3b8380929f3bfddf3b00ff951b&#45;&gt;dir_7370e63381a3da0a5abca9ffd8b57676 -->
<g id="edge1" class="edge">
<title>dir_686a2d3b8380929f3bfddf3b00ff951b&#45;&gt;dir_7370e63381a3da0a5abca9ffd8b57676</title>
<path fill="none" stroke="black" d="M398.9,-36.1C399.7,-43.79 399.94,-53.05 399.6,-61.67"/>
<polygon fill="black" stroke="black" points="396.11,-61.48 398.92,-71.7 403.09,-61.96 396.11,-61.48"/>
<g id="a_edge1&#45;headlabel"><a xlink:href="dir_000049_000023.html" target="_top" xlink:title="1">
<text text-anchor="middle" x="393.52" y="-55.2" font-family="Helvetica,sans-Serif" font-size="10.00">1</text>
</a>
</g>
</g>
<!-- dir_308afe6c0c0e65dd84efc4369dd1efeb&#45;&gt;dir_330813092258a011b683878a00fa0d9e -->
<g id="edge16" class="edge">
<title>dir_308afe6c0c0e65dd84efc4369dd1efeb&#45;&gt;dir_330813092258a011b683878a00fa0d9e</title>
<path fill="none" stroke="black" d="M288.9,-108.1C289.7,-115.79 289.94,-125.05 289.6,-133.67"/>
<polygon fill="black" stroke="black" points="286.11,-133.48 288.92,-143.7 293.09,-133.96 286.11,-133.48"/>
<g id="a_edge16&#45;headlabel"><a xlink:href="dir_000065_000044.html" target="_top" xlink:title="1">
<text text-anchor="middle" x="283.52" y="-127.2" font-family="Helvetica,sans-Serif" font-size="10.00">1</text>
</a>
</g>
</g>
<!-- dir_308afe6c0c0e65dd84efc4369dd1efeb&#45;&gt;dir_686a2d3b8380929f3bfddf3b00ff951b -->
<g id="edge17" class="edge">
<title>dir_308afe6c0c0e65dd84efc4369dd1efeb&#45;&gt;dir_686a2d3b8380929f3bfddf3b00ff951b</title>
<path fill="none" stroke="black" d="M309.91,-71.88C324.16,-62.81 341.85,-51.55 357.24,-41.76"/>
<polygon fill="black" stroke="black" points="359.43,-44.51 365.99,-36.19 355.67,-38.61 359.43,-44.51"/>
<g id="a_edge17&#45;headlabel"><a xlink:href="dir_000065_000049.html" target="_top" xlink:title="9">
<text text-anchor="middle" x="357.92" y="-46.34" font-family="Helvetica,sans-Serif" font-size="10.00">9</text>
</a>
</g>
</g>
</g>
</svg>
