<?xml version="1.0" encoding="UTF-8" standalone="no"?>
<!DOCTYPE svg PUBLIC "-//W3C//DTD SVG 1.1//EN"
 "http://www.w3.org/Graphics/SVG/1.1/DTD/svg11.dtd">
<!-- Generated by graphviz version 2.43.0 (0)
 -->
<!-- Title: /home/nico/projects/JODA&#45;gh/libs/joda/core/modules/misc Pages: 1 -->
<svg width="308pt" height="183pt"
 viewBox="0.00 0.00 308.00 183.00" xmlns="http://www.w3.org/2000/svg" xmlns:xlink="http://www.w3.org/1999/xlink">
<g id="graph0" class="graph" transform="scale(1 1) rotate(0) translate(4 179)">
<title>/home/nico/projects/JODA&#45;gh/libs/joda/core/modules/misc</title>
<polygon fill="white" stroke="transparent" points="-4,4 -4,-179 304,-179 304,4 -4,4"/>
<g id="clust1" class="cluster">
<title>clusterdir_90b36eb2f4e9ffeeae2f8ee3ceb10c2f</title>
<g id="a_clust1"><a xlink:href="dir_90b36eb2f4e9ffeeae2f8ee3ceb10c2f.html" target="_top" xlink:title="modules">
<polygon fill="#ddddee" stroke="black" points="8,-8 8,-167 166,-167 166,-8 8,-8"/>
<text text-anchor="middle" x="87" y="-155" font-family="Helvetica,sans-Serif" font-size="10.00">modules</text>
</a>
</g>
</g>
<g id="clust2" class="cluster">
<title>clusterdir_686a2d3b8380929f3bfddf3b00ff951b</title>
<g id="a_clust2"><a xlink:href="dir_686a2d3b8380929f3bfddf3b00ff951b.html" target="_top">
<polygon fill="#eeeeff" stroke="black" points="16,-16 16,-140 158,-140 158,-16 16,-16"/>
</a>
</g>
</g>
<!-- dir_686a2d3b8380929f3bfddf3b00ff951b -->
<g id="node1" class="node">
<title>dir_686a2d3b8380929f3bfddf3b00ff951b</title>
<text text-anchor="middle" x="123" y="-111.5" font-family="Helvetica,sans-Serif" font-size="10.00">misc</text>
</g>
<!-- dir_15facb46cea109dcdc069ee454cb93da -->
<g id="node2" class="node">
<title>dir_15facb46cea109dcdc069ee454cb93da</title>
<g id="a_node2"><a xlink:href="dir_15facb46cea109dcdc069ee454cb93da.html" target="_top" xlink:title="include">
<polygon fill="white" stroke="red" points="114,-60 60,-60 60,-24 114,-24 114,-60"/>
<text text-anchor="middle" x="87" y="-39.5" font-family="Helvetica,sans-Serif" font-size="10.00">include</text>
</a>
</g>
</g>
<!-- dir_9dd19568adb0f5dd5318a0b9fceb966b -->
<g id="node3" class="node">
<title>dir_9dd19568adb0f5dd5318a0b9fceb966b</title>
<g id="a_node3"><a xlink:href="dir_9dd19568adb0f5dd5318a0b9fceb966b.html" target="_top" xlink:title="src">
<polygon fill="white" stroke="black" points="78,-132 24,-132 24,-96 78,-96 78,-132"/>
<text text-anchor="middle" x="51" y="-111.5" font-family="Helvetica,sans-Serif" font-size="10.00">src</text>
</a>
</g>
</g>
<!-- dir_9dd19568adb0f5dd5318a0b9fceb966b&#45;&gt;dir_15facb46cea109dcdc069ee454cb93da -->
<g id="edge4" class="edge">
<title>dir_9dd19568adb0f5dd5318a0b9fceb966b&#45;&gt;dir_15facb46cea109dcdc069ee454cb93da</title>
<path fill="none" stroke="black" d="M59.9,-95.7C64,-87.73 68.95,-78.1 73.49,-69.26"/>
<polygon fill="black" stroke="black" points="76.74,-70.6 78.2,-60.1 70.52,-67.4 76.74,-70.6"/>
<g id="a_edge4&#45;headlabel"><a xlink:href="dir_000053_000050.html" target="_top" xlink:title="9">
<text text-anchor="middle" x="77.62" y="-72.59" font-family="Helvetica,sans-Serif" font-size="10.00">9</text>
</a>
</g>
</g>
<!-- dir_86d2030c590e8edca049b1db16bf8b8d -->
<g id="node4" class="node">
<title>dir_86d2030c590e8edca049b1db16bf8b8d</title>
<g id="a_node4"><a xlink:href="dir_86d2030c590e8edca049b1db16bf8b8d.html" target="_top" xlink:title="include">
<polygon fill="white" stroke="red" points="228,-60 174,-60 174,-24 228,-24 228,-60"/>
<text text-anchor="middle" x="201" y="-39.5" font-family="Helvetica,sans-Serif" font-size="10.00">include</text>
</a>
</g>
</g>
<!-- dir_9dd19568adb0f5dd5318a0b9fceb966b&#45;&gt;dir_86d2030c590e8edca049b1db16bf8b8d -->
<g id="edge2" class="edge">
<title>dir_9dd19568adb0f5dd5318a0b9fceb966b&#45;&gt;dir_86d2030c590e8edca049b1db16bf8b8d</title>
<path fill="none" stroke="black" d="M78.12,-100.17C81.11,-98.76 84.12,-97.35 87,-96 112.94,-83.85 142.25,-70.22 164.65,-59.83"/>
<polygon fill="black" stroke="black" points="166.2,-62.97 173.8,-55.59 163.25,-56.62 166.2,-62.97"/>
<g id="a_edge2&#45;headlabel"><a xlink:href="dir_000053_000013.html" target="_top" xlink:title="1">
<text text-anchor="middle" x="164.13" y="-64.56" font-family="Helvetica,sans-Serif" font-size="10.00">1</text>
</a>
</g>
</g>
<!-- dir_7370e63381a3da0a5abca9ffd8b57676 -->
<g id="node5" class="node">
<title>dir_7370e63381a3da0a5abca9ffd8b57676</title>
<g id="a_node5"><a xlink:href="dir_7370e63381a3da0a5abca9ffd8b57676.html" target="_top" xlink:title="config">
<polygon fill="white" stroke="red" points="300,-60 246,-60 246,-24 300,-24 300,-60"/>
<text text-anchor="middle" x="273" y="-39.5" font-family="Helvetica,sans-Serif" font-size="10.00">config</text>
</a>
</g>
</g>
<!-- dir_9dd19568adb0f5dd5318a0b9fceb966b&#45;&gt;dir_7370e63381a3da0a5abca9ffd8b57676 -->
<g id="edge3" class="edge">
<title>dir_9dd19568adb0f5dd5318a0b9fceb966b&#45;&gt;dir_7370e63381a3da0a5abca9ffd8b57676</title>
<path fill="none" stroke="black" d="M78.27,-99.41C81.19,-98.17 84.13,-97.01 87,-96 148.77,-74.26 170.38,-81.97 236.15,-59.91"/>
<polygon fill="black" stroke="black" points="237.42,-63.17 245.73,-56.59 235.13,-56.55 237.42,-63.17"/>
<g id="a_edge3&#45;headlabel"><a xlink:href="dir_000053_000023.html" target="_top" xlink:title="1">
<text text-anchor="middle" x="234.95" y="-64.53" font-family="Helvetica,sans-Serif" font-size="10.00">1</text>
</a>
</g>
</g>
<!-- dir_7370e63381a3da0a5abca9ffd8b57676&#45;&gt;dir_15facb46cea109dcdc069ee454cb93da -->
<g id="edge1" class="edge">
<title>dir_7370e63381a3da0a5abca9ffd8b57676&#45;&gt;dir_15facb46cea109dcdc069ee454cb93da</title>
<path fill="none" stroke="black" d="M255.92,-60.22C248.15,-67.2 238.38,-74.36 228,-78 193.19,-90.21 152.23,-76.78 123.45,-62.99"/>
<polygon fill="black" stroke="black" points="124.69,-59.7 114.18,-58.34 121.55,-65.95 124.69,-59.7"/>
<g id="a_edge1&#45;headlabel"><a xlink:href="dir_000023_000050.html" target="_top" xlink:title="1">
<text text-anchor="middle" x="129.18" y="-56.28" font-family="Helvetica,sans-Serif" font-size="10.00">1</text>
</a>
</g>
</g>
</g>
</svg>
