<?xml version="1.0" encoding="UTF-8" standalone="no"?>
<!DOCTYPE svg PUBLIC "-//W3C//DTD SVG 1.1//EN"
 "http://www.w3.org/Graphics/SVG/1.1/DTD/svg11.dtd">
<!-- Generated by graphviz version 2.43.0 (0)
 -->
<!-- Title: /home/nico/projects/JODA&#45;gh/libs/joda/core/modules/similarity/test Pages: 1 -->
<svg width="134pt" height="223pt"
 viewBox="0.00 0.00 134.00 223.00" xmlns="http://www.w3.org/2000/svg" xmlns:xlink="http://www.w3.org/1999/xlink">
<g id="graph0" class="graph" transform="scale(1 1) rotate(0) translate(4 219)">
<title>/home/nico/projects/JODA&#45;gh/libs/joda/core/modules/similarity/test</title>
<polygon fill="white" stroke="transparent" points="-4,4 -4,-219 130,-219 130,4 -4,4"/>
<g id="clust1" class="cluster">
<title>clusterdir_5021187c89e35ea47334c8ebe6a2b7fb</title>
<g id="a_clust1"><a xlink:href="dir_5021187c89e35ea47334c8ebe6a2b7fb.html" target="_top" xlink:title="similarity">
<polygon fill="#ddddee" stroke="black" points="47,-136 47,-207 117,-207 117,-136 47,-136"/>
<text text-anchor="middle" x="82" y="-195" font-family="Helvetica,sans-Serif" font-size="10.00">similarity</text>
</a>
</g>
</g>
<!-- dir_3b06f3b3f4c08149659cffcba18ffd70 -->
<g id="node1" class="node">
<title>dir_3b06f3b3f4c08149659cffcba18ffd70</title>
<g id="a_node1"><a xlink:href="dir_3b06f3b3f4c08149659cffcba18ffd70.html" target="_top" xlink:title="test">
<polygon fill="#eeeeff" stroke="black" points="109,-180 55,-180 55,-144 109,-144 109,-180"/>
<text text-anchor="middle" x="82" y="-159.5" font-family="Helvetica,sans-Serif" font-size="10.00">test</text>
</a>
</g>
</g>
<!-- dir_686a2d3b8380929f3bfddf3b00ff951b -->
<g id="node2" class="node">
<title>dir_686a2d3b8380929f3bfddf3b00ff951b</title>
<g id="a_node2"><a xlink:href="dir_686a2d3b8380929f3bfddf3b00ff951b.html" target="_top" xlink:title="misc">
<polygon fill="white" stroke="red" points="54,-36 0,-36 0,0 54,0 54,-36"/>
<text text-anchor="middle" x="27" y="-15.5" font-family="Helvetica,sans-Serif" font-size="10.00">misc</text>
</a>
</g>
</g>
<!-- dir_3b06f3b3f4c08149659cffcba18ffd70&#45;&gt;dir_686a2d3b8380929f3bfddf3b00ff951b -->
<g id="edge1" class="edge">
<title>dir_3b06f3b3f4c08149659cffcba18ffd70&#45;&gt;dir_686a2d3b8380929f3bfddf3b00ff951b</title>
<path fill="none" stroke="black" d="M67.84,-143.85C60.31,-133.93 51.5,-120.89 46,-108 37.59,-88.29 32.76,-64.49 30.07,-46.46"/>
<polygon fill="black" stroke="black" points="33.51,-45.76 28.7,-36.33 26.57,-46.71 33.51,-45.76"/>
<g id="a_edge1&#45;headlabel"><a xlink:href="dir_000124_000049.html" target="_top" xlink:title="3">
<text text-anchor="middle" x="36.81" y="-46.44" font-family="Helvetica,sans-Serif" font-size="10.00">3</text>
</a>
</g>
</g>
<!-- dir_9575bf25419298389c92e9fd48e6aa68 -->
<g id="node3" class="node">
<title>dir_9575bf25419298389c92e9fd48e6aa68</title>
<g id="a_node3"><a xlink:href="dir_9575bf25419298389c92e9fd48e6aa68.html" target="_top" xlink:title="src">
<polygon fill="none" stroke="black" points="126,-36 72,-36 72,0 126,0 126,-36"/>
<text text-anchor="middle" x="99" y="-15.5" font-family="Helvetica,sans-Serif" font-size="10.00">src</text>
</a>
</g>
</g>
<!-- dir_3b06f3b3f4c08149659cffcba18ffd70&#45;&gt;dir_9575bf25419298389c92e9fd48e6aa68 -->
<g id="edge2" class="edge">
<title>dir_3b06f3b3f4c08149659cffcba18ffd70&#45;&gt;dir_9575bf25419298389c92e9fd48e6aa68</title>
<path fill="none" stroke="black" d="M97.61,-143.77C105.37,-134.03 113.95,-121.18 118,-108 124.32,-87.45 118.55,-63.61 111.77,-45.77"/>
<polygon fill="black" stroke="black" points="114.9,-44.2 107.85,-36.29 108.43,-46.87 114.9,-44.2"/>
<g id="a_edge2&#45;headlabel"><a xlink:href="dir_000124_000123.html" target="_top" xlink:title="2">
<text text-anchor="middle" x="118.9" y="-43.93" font-family="Helvetica,sans-Serif" font-size="10.00">2</text>
</a>
</g>
</g>
<!-- dir_0d95974f03fd203904fe8493a8d58f74 -->
<g id="node4" class="node">
<title>dir_0d95974f03fd203904fe8493a8d58f74</title>
<g id="a_node4"><a xlink:href="dir_0d95974f03fd203904fe8493a8d58f74.html" target="_top" xlink:title="include">
<polygon fill="white" stroke="red" points="109,-108 55,-108 55,-72 109,-72 109,-108"/>
<text text-anchor="middle" x="82" y="-87.5" font-family="Helvetica,sans-Serif" font-size="10.00">include</text>
</a>
</g>
</g>
<!-- dir_3b06f3b3f4c08149659cffcba18ffd70&#45;&gt;dir_0d95974f03fd203904fe8493a8d58f74 -->
<g id="edge3" class="edge">
<title>dir_3b06f3b3f4c08149659cffcba18ffd70&#45;&gt;dir_0d95974f03fd203904fe8493a8d58f74</title>
<path fill="none" stroke="black" d="M82,-143.7C82,-135.98 82,-126.71 82,-118.11"/>
<polygon fill="black" stroke="black" points="85.5,-118.1 82,-108.1 78.5,-118.1 85.5,-118.1"/>
<g id="a_edge3&#45;headlabel"><a xlink:href="dir_000124_000119.html" target="_top" xlink:title="2">
<text text-anchor="middle" x="88.34" y="-119.2" font-family="Helvetica,sans-Serif" font-size="10.00">2</text>
</a>
</g>
</g>
<!-- dir_9575bf25419298389c92e9fd48e6aa68&#45;&gt;dir_0d95974f03fd203904fe8493a8d58f74 -->
<g id="edge4" class="edge">
<title>dir_9575bf25419298389c92e9fd48e6aa68&#45;&gt;dir_0d95974f03fd203904fe8493a8d58f74</title>
<path fill="none" stroke="black" d="M100.74,-36.1C99.67,-43.88 97.62,-53.26 95.16,-61.95"/>
<polygon fill="black" stroke="black" points="91.76,-61.11 92.12,-71.7 98.44,-63.19 91.76,-61.11"/>
<g id="a_edge4&#45;headlabel"><a xlink:href="dir_000123_000119.html" target="_top" xlink:title="2">
<text text-anchor="middle" x="90.12" y="-54.33" font-family="Helvetica,sans-Serif" font-size="10.00">2</text>
</a>
</g>
</g>
<!-- dir_0d95974f03fd203904fe8493a8d58f74&#45;&gt;dir_686a2d3b8380929f3bfddf3b00ff951b -->
<g id="edge5" class="edge">
<title>dir_0d95974f03fd203904fe8493a8d58f74&#45;&gt;dir_686a2d3b8380929f3bfddf3b00ff951b</title>
<path fill="none" stroke="black" d="M68.4,-71.7C61.88,-63.39 53.93,-53.28 46.75,-44.14"/>
<polygon fill="black" stroke="black" points="49.37,-41.81 40.44,-36.1 43.87,-46.13 49.37,-41.81"/>
<g id="a_edge5&#45;headlabel"><a xlink:href="dir_000119_000049.html" target="_top" xlink:title="3">
<text text-anchor="middle" x="53.82" y="-40.38" font-family="Helvetica,sans-Serif" font-size="10.00">3</text>
</a>
</g>
</g>
<!-- dir_0d95974f03fd203904fe8493a8d58f74&#45;&gt;dir_9575bf25419298389c92e9fd48e6aa68 -->
<g id="edge6" class="edge">
<title>dir_0d95974f03fd203904fe8493a8d58f74&#45;&gt;dir_9575bf25419298389c92e9fd48e6aa68</title>
<path fill="none" stroke="black" d="M80.29,-71.7C81.38,-63.9 83.43,-54.51 85.9,-45.83"/>
<polygon fill="black" stroke="black" points="89.3,-46.69 88.95,-36.1 82.62,-44.6 89.3,-46.69"/>
<g id="a_edge6&#45;headlabel"><a xlink:href="dir_000119_000123.html" target="_top" xlink:title="2">
<text text-anchor="middle" x="90.93" y="-48.47" font-family="Helvetica,sans-Serif" font-size="10.00">2</text>
</a>
</g>
</g>
</g>
</svg>
