<?xml version="1.0" encoding="UTF-8" standalone="no"?>
<!DOCTYPE svg PUBLIC "-//W3C//DTD SVG 1.1//EN"
 "http://www.w3.org/Graphics/SVG/1.1/DTD/svg11.dtd">
<!-- Generated by graphviz version 2.43.0 (0)
 -->
<!-- Title: /home/nico/joda_tmp/tmp&#45;joda&#45;dirs/JODA&#45;gh/libs/joda/core/modules/similarity/test Pages: 1 -->
<svg width="168pt" height="239pt"
 viewBox="0.00 0.00 168.00 239.00" xmlns="http://www.w3.org/2000/svg" xmlns:xlink="http://www.w3.org/1999/xlink">
<g id="graph0" class="graph" transform="scale(1 1) rotate(0) translate(4 235)">
<title>/home/nico/joda_tmp/tmp&#45;joda&#45;dirs/JODA&#45;gh/libs/joda/core/modules/similarity/test</title>
<polygon fill="white" stroke="transparent" points="-4,4 -4,-235 164,-235 164,4 -4,4"/>
<g id="clust1" class="cluster">
<title>clusterdir_5021187c89e35ea47334c8ebe6a2b7fb</title>
<g id="a_clust1"><a xlink:href="dir_5021187c89e35ea47334c8ebe6a2b7fb.html" target="_top" xlink:title="similarity">
<polygon fill="#ddddee" stroke="black" points="8,-8 8,-223 98,-223 98,-8 8,-8"/>
<text text-anchor="middle" x="53" y="-211" font-family="Helvetica,sans-Serif" font-size="10.00">similarity</text>
</a>
</g>
</g>
<!-- dir_0d95974f03fd203904fe8493a8d58f74 -->
<g id="node1" class="node">
<title>dir_0d95974f03fd203904fe8493a8d58f74</title>
<g id="a_node1"><a xlink:href="dir_0d95974f03fd203904fe8493a8d58f74.html" target="_top" xlink:title="include">
<polygon fill="white" stroke="red" points="90,-124 36,-124 36,-88 90,-88 90,-124"/>
<text text-anchor="middle" x="63" y="-103.5" font-family="Helvetica,sans-Serif" font-size="10.00">include</text>
</a>
</g>
</g>
<!-- dir_9575bf25419298389c92e9fd48e6aa68 -->
<g id="node2" class="node">
<title>dir_9575bf25419298389c92e9fd48e6aa68</title>
<g id="a_node2"><a xlink:href="dir_9575bf25419298389c92e9fd48e6aa68.html" target="_top" xlink:title="src">
<polygon fill="none" stroke="black" points="88,-52 34,-52 34,-16 88,-16 88,-52"/>
<text text-anchor="middle" x="61" y="-31.5" font-family="Helvetica,sans-Serif" font-size="10.00">src</text>
</a>
</g>
</g>
<!-- dir_0d95974f03fd203904fe8493a8d58f74&#45;&gt;dir_9575bf25419298389c92e9fd48e6aa68 -->
<g id="edge6" class="edge">
<title>dir_0d95974f03fd203904fe8493a8d58f74&#45;&gt;dir_9575bf25419298389c92e9fd48e6aa68</title>
<path fill="none" stroke="black" d="M56.59,-87.7C55.57,-79.98 55.08,-70.71 55.18,-62.11"/>
<polygon fill="black" stroke="black" points="58.68,-62.24 55.59,-52.1 51.68,-61.95 58.68,-62.24"/>
<g id="a_edge6&#45;headlabel"><a xlink:href="dir_000119_000123.html" target="_top" xlink:title="2">
<text text-anchor="middle" x="61.37" y="-63.45" font-family="Helvetica,sans-Serif" font-size="10.00">2</text>
</a>
</g>
</g>
<!-- dir_686a2d3b8380929f3bfddf3b00ff951b -->
<g id="node4" class="node">
<title>dir_686a2d3b8380929f3bfddf3b00ff951b</title>
<g id="a_node4"><a xlink:href="dir_686a2d3b8380929f3bfddf3b00ff951b.html" target="_top" xlink:title="misc">
<polygon fill="white" stroke="red" points="160,-52 106,-52 106,-16 160,-16 160,-52"/>
<text text-anchor="middle" x="133" y="-31.5" font-family="Helvetica,sans-Serif" font-size="10.00">misc</text>
</a>
</g>
</g>
<!-- dir_0d95974f03fd203904fe8493a8d58f74&#45;&gt;dir_686a2d3b8380929f3bfddf3b00ff951b -->
<g id="edge5" class="edge">
<title>dir_0d95974f03fd203904fe8493a8d58f74&#45;&gt;dir_686a2d3b8380929f3bfddf3b00ff951b</title>
<path fill="none" stroke="black" d="M80.3,-87.7C88.86,-79.14 99.34,-68.66 108.7,-59.3"/>
<polygon fill="black" stroke="black" points="111.3,-61.65 115.9,-52.1 106.35,-56.7 111.3,-61.65"/>
<g id="a_edge5&#45;headlabel"><a xlink:href="dir_000119_000049.html" target="_top" xlink:title="3">
<text text-anchor="middle" x="110.77" y="-63.7" font-family="Helvetica,sans-Serif" font-size="10.00">3</text>
</a>
</g>
</g>
<!-- dir_9575bf25419298389c92e9fd48e6aa68&#45;&gt;dir_0d95974f03fd203904fe8493a8d58f74 -->
<g id="edge4" class="edge">
<title>dir_9575bf25419298389c92e9fd48e6aa68&#45;&gt;dir_0d95974f03fd203904fe8493a8d58f74</title>
<path fill="none" stroke="black" d="M67.38,-52.1C68.41,-59.79 68.91,-69.05 68.82,-77.67"/>
<polygon fill="black" stroke="black" points="65.32,-77.56 68.42,-87.7 72.32,-77.84 65.32,-77.56"/>
<g id="a_edge4&#45;headlabel"><a xlink:href="dir_000123_000119.html" target="_top" xlink:title="2">
<text text-anchor="middle" x="62.63" y="-71.36" font-family="Helvetica,sans-Serif" font-size="10.00">2</text>
</a>
</g>
</g>
<!-- dir_3b06f3b3f4c08149659cffcba18ffd70 -->
<g id="node3" class="node">
<title>dir_3b06f3b3f4c08149659cffcba18ffd70</title>
<g id="a_node3"><a xlink:href="dir_3b06f3b3f4c08149659cffcba18ffd70.html" target="_top" xlink:title="test">
<polygon fill="#eeeeff" stroke="black" points="90,-196 36,-196 36,-160 90,-160 90,-196"/>
<text text-anchor="middle" x="63" y="-175.5" font-family="Helvetica,sans-Serif" font-size="10.00">test</text>
</a>
</g>
</g>
<!-- dir_3b06f3b3f4c08149659cffcba18ffd70&#45;&gt;dir_0d95974f03fd203904fe8493a8d58f74 -->
<g id="edge1" class="edge">
<title>dir_3b06f3b3f4c08149659cffcba18ffd70&#45;&gt;dir_0d95974f03fd203904fe8493a8d58f74</title>
<path fill="none" stroke="black" d="M63,-159.7C63,-151.98 63,-142.71 63,-134.11"/>
<polygon fill="black" stroke="black" points="66.5,-134.1 63,-124.1 59.5,-134.1 66.5,-134.1"/>
<g id="a_edge1&#45;headlabel"><a xlink:href="dir_000124_000119.html" target="_top" xlink:title="2">
<text text-anchor="middle" x="69.34" y="-135.2" font-family="Helvetica,sans-Serif" font-size="10.00">2</text>
</a>
</g>
</g>
<!-- dir_3b06f3b3f4c08149659cffcba18ffd70&#45;&gt;dir_9575bf25419298389c92e9fd48e6aa68 -->
<g id="edge3" class="edge">
<title>dir_3b06f3b3f4c08149659cffcba18ffd70&#45;&gt;dir_9575bf25419298389c92e9fd48e6aa68</title>
<path fill="none" stroke="black" d="M47.39,-159.77C39.63,-150.03 31.05,-137.18 27,-124 22.3,-108.71 22.5,-103.35 27,-88 29.8,-78.45 34.91,-68.98 40.33,-60.76"/>
<polygon fill="black" stroke="black" points="43.35,-62.56 46.25,-52.37 37.62,-58.52 43.35,-62.56"/>
<g id="a_edge3&#45;headlabel"><a xlink:href="dir_000124_000123.html" target="_top" xlink:title="2">
<text text-anchor="middle" x="43.6" y="-64.63" font-family="Helvetica,sans-Serif" font-size="10.00">2</text>
</a>
</g>
</g>
<!-- dir_3b06f3b3f4c08149659cffcba18ffd70&#45;&gt;dir_686a2d3b8380929f3bfddf3b00ff951b -->
<g id="edge2" class="edge">
<title>dir_3b06f3b3f4c08149659cffcba18ffd70&#45;&gt;dir_686a2d3b8380929f3bfddf3b00ff951b</title>
<path fill="none" stroke="black" d="M76.06,-159.97C83.42,-149.87 92.42,-136.62 99,-124 109.47,-103.92 118.47,-79.87 124.57,-61.83"/>
<polygon fill="black" stroke="black" points="127.93,-62.83 127.74,-52.24 121.28,-60.64 127.93,-62.83"/>
<g id="a_edge2&#45;headlabel"><a xlink:href="dir_000124_000049.html" target="_top" xlink:title="3">
<text text-anchor="middle" x="129.49" y="-64.64" font-family="Helvetica,sans-Serif" font-size="10.00">3</text>
</a>
</g>
</g>
</g>
</svg>
