<?xml version="1.0" encoding="UTF-8" standalone="no"?>
<!DOCTYPE svg PUBLIC "-//W3C//DTD SVG 1.1//EN"
 "http://www.w3.org/Graphics/SVG/1.1/DTD/svg11.dtd">
<!-- Generated by graphviz version 2.43.0 (0)
 -->
<!-- Title: /home/nico/joda_tmp/tmp&#45;joda&#45;dirs/JODA&#45;gh/libs/joda/core/modules/storage/document/src Pages: 1 -->
<svg width="182pt" height="231pt"
 viewBox="0.00 0.00 182.00 231.00" xmlns="http://www.w3.org/2000/svg" xmlns:xlink="http://www.w3.org/1999/xlink">
<g id="graph0" class="graph" transform="scale(1 1) rotate(0) translate(4 227)">
<title>/home/nico/joda_tmp/tmp&#45;joda&#45;dirs/JODA&#45;gh/libs/joda/core/modules/storage/document/src</title>
<polygon fill="white" stroke="transparent" points="-4,4 -4,-227 178,-227 178,4 -4,4"/>
<g id="clust1" class="cluster">
<title>clusterdir_c9d38d77393a8229062648c672ab0185</title>
<g id="a_clust1"><a xlink:href="dir_c9d38d77393a8229062648c672ab0185.html" target="_top" xlink:title="document">
<polygon fill="#ddddee" stroke="black" points="8,-64 8,-215 166,-215 166,-64 8,-64"/>
<text text-anchor="middle" x="87" y="-203" font-family="Helvetica,sans-Serif" font-size="10.00">document</text>
</a>
</g>
</g>
<g id="clust2" class="cluster">
<title>clusterdir_a3dac24320859d72e06eadbeb16a9869</title>
<g id="a_clust2"><a xlink:href="dir_a3dac24320859d72e06eadbeb16a9869.html" target="_top">
<polygon fill="#eeeeff" stroke="black" points="16,-136 16,-188 158,-188 158,-136 16,-136"/>
</a>
</g>
</g>
<!-- dir_fcf54342448816dcdd7ed882dccb3abc -->
<g id="node1" class="node">
<title>dir_fcf54342448816dcdd7ed882dccb3abc</title>
<g id="a_node1"><a xlink:href="dir_fcf54342448816dcdd7ed882dccb3abc.html" target="_top" xlink:title="include">
<polygon fill="white" stroke="red" points="82,-108 28,-108 28,-72 82,-72 82,-108"/>
<text text-anchor="middle" x="55" y="-87.5" font-family="Helvetica,sans-Serif" font-size="10.00">include</text>
</a>
</g>
</g>
<!-- dir_686a2d3b8380929f3bfddf3b00ff951b -->
<g id="node4" class="node">
<title>dir_686a2d3b8380929f3bfddf3b00ff951b</title>
<g id="a_node4"><a xlink:href="dir_686a2d3b8380929f3bfddf3b00ff951b.html" target="_top" xlink:title="misc">
<polygon fill="white" stroke="red" points="113,-36 59,-36 59,0 113,0 113,-36"/>
<text text-anchor="middle" x="86" y="-15.5" font-family="Helvetica,sans-Serif" font-size="10.00">misc</text>
</a>
</g>
</g>
<!-- dir_fcf54342448816dcdd7ed882dccb3abc&#45;&gt;dir_686a2d3b8380929f3bfddf3b00ff951b -->
<g id="edge2" class="edge">
<title>dir_fcf54342448816dcdd7ed882dccb3abc&#45;&gt;dir_686a2d3b8380929f3bfddf3b00ff951b</title>
<path fill="none" stroke="black" d="M62.66,-71.7C66.19,-63.73 70.46,-54.1 74.37,-45.26"/>
<polygon fill="black" stroke="black" points="77.58,-46.67 78.43,-36.1 71.18,-43.83 77.58,-46.67"/>
<g id="a_edge2&#45;headlabel"><a xlink:href="dir_000139_000049.html" target="_top" xlink:title="13">
<text text-anchor="middle" x="78.72" y="-48.6" font-family="Helvetica,sans-Serif" font-size="10.00">13</text>
</a>
</g>
</g>
<!-- dir_a3dac24320859d72e06eadbeb16a9869 -->
<g id="node2" class="node">
<title>dir_a3dac24320859d72e06eadbeb16a9869</title>
<text text-anchor="middle" x="123" y="-159.5" font-family="Helvetica,sans-Serif" font-size="10.00">src</text>
</g>
<!-- dir_a3dac24320859d72e06eadbeb16a9869&#45;&gt;dir_686a2d3b8380929f3bfddf3b00ff951b -->
<g id="edge3" class="edge">
<title>dir_a3dac24320859d72e06eadbeb16a9869&#45;&gt;dir_686a2d3b8380929f3bfddf3b00ff951b</title>
<path fill="none" stroke="black" d="M120.65,-143.95C117.73,-124.39 112.11,-91.49 104,-64 102.23,-58 99.97,-51.7 97.66,-45.76"/>
<polygon fill="black" stroke="black" points="100.8,-44.2 93.78,-36.26 94.31,-46.84 100.8,-44.2"/>
<g id="a_edge3&#45;headlabel"><a xlink:href="dir_000143_000049.html" target="_top" xlink:title="1">
<text text-anchor="middle" x="104.78" y="-43.95" font-family="Helvetica,sans-Serif" font-size="10.00">1</text>
</a>
</g>
</g>
<!-- dir_486e8e3866c495f8b67bf41cf3b4dbd3 -->
<g id="node3" class="node">
<title>dir_486e8e3866c495f8b67bf41cf3b4dbd3</title>
<g id="a_node3"><a xlink:href="dir_486e8e3866c495f8b67bf41cf3b4dbd3.html" target="_top" xlink:title="origin">
<polygon fill="white" stroke="black" points="78,-180 24,-180 24,-144 78,-144 78,-180"/>
<text text-anchor="middle" x="51" y="-159.5" font-family="Helvetica,sans-Serif" font-size="10.00">origin</text>
</a>
</g>
</g>
<!-- dir_486e8e3866c495f8b67bf41cf3b4dbd3&#45;&gt;dir_fcf54342448816dcdd7ed882dccb3abc -->
<g id="edge1" class="edge">
<title>dir_486e8e3866c495f8b67bf41cf3b4dbd3&#45;&gt;dir_fcf54342448816dcdd7ed882dccb3abc</title>
<path fill="none" stroke="black" d="M51.99,-143.7C52.43,-135.98 52.96,-126.71 53.45,-118.11"/>
<polygon fill="black" stroke="black" points="56.95,-118.29 54.02,-108.1 49.96,-117.89 56.95,-118.29"/>
<g id="a_edge1&#45;headlabel"><a xlink:href="dir_000144_000139.html" target="_top" xlink:title="4">
<text text-anchor="middle" x="59.58" y="-119.54" font-family="Helvetica,sans-Serif" font-size="10.00">4</text>
</a>
</g>
</g>
</g>
</svg>
