<?xml version="1.0" encoding="UTF-8" standalone="no"?>
<!DOCTYPE svg PUBLIC "-//W3C//DTD SVG 1.1//EN"
 "http://www.w3.org/Graphics/SVG/1.1/DTD/svg11.dtd">
<!-- Generated by graphviz version 2.43.0 (0)
 -->
<!-- Title: /home/nico/projects/JODA&#45;gh/libs/joda/core/modules/query/aggregate/include Pages: 1 -->
<svg width="186pt" height="231pt"
 viewBox="0.00 0.00 186.00 231.00" xmlns="http://www.w3.org/2000/svg" xmlns:xlink="http://www.w3.org/1999/xlink">
<g id="graph0" class="graph" transform="scale(1 1) rotate(0) translate(4 227)">
<title>/home/nico/projects/JODA&#45;gh/libs/joda/core/modules/query/aggregate/include</title>
<polygon fill="white" stroke="transparent" points="-4,4 -4,-227 182,-227 182,4 -4,4"/>
<g id="clust1" class="cluster">
<title>clusterdir_d2d849393176ee35a01ffd22136ef467</title>
<g id="a_clust1"><a xlink:href="dir_d2d849393176ee35a01ffd22136ef467.html" target="_top" xlink:title="aggregate">
<polygon fill="#ddddee" stroke="black" points="12,-128 12,-215 170,-215 170,-128 12,-128"/>
<text text-anchor="middle" x="91" y="-203" font-family="Helvetica,sans-Serif" font-size="10.00">aggregate</text>
</a>
</g>
</g>
<g id="clust2" class="cluster">
<title>clusterdir_e0386228be8849ba55edd6f1e6d39265</title>
<g id="a_clust2"><a xlink:href="dir_e0386228be8849ba55edd6f1e6d39265.html" target="_top">
<polygon fill="#eeeeff" stroke="black" points="20,-136 20,-188 162,-188 162,-136 20,-136"/>
</a>
</g>
</g>
<!-- dir_e0386228be8849ba55edd6f1e6d39265 -->
<g id="node1" class="node">
<title>dir_e0386228be8849ba55edd6f1e6d39265</title>
<text text-anchor="middle" x="127" y="-159.5" font-family="Helvetica,sans-Serif" font-size="10.00">include</text>
</g>
<!-- dir_ef07c8e491849b73bb86dfad9c521aa2 -->
<g id="node2" class="node">
<title>dir_ef07c8e491849b73bb86dfad9c521aa2</title>
<g id="a_node2"><a xlink:href="dir_ef07c8e491849b73bb86dfad9c521aa2.html" target="_top" xlink:title="joda">
<polygon fill="white" stroke="red" points="82,-180 28,-180 28,-144 82,-144 82,-180"/>
<text text-anchor="middle" x="55" y="-159.5" font-family="Helvetica,sans-Serif" font-size="10.00">joda</text>
</a>
</g>
</g>
<!-- dir_686a2d3b8380929f3bfddf3b00ff951b -->
<g id="node3" class="node">
<title>dir_686a2d3b8380929f3bfddf3b00ff951b</title>
<g id="a_node3"><a xlink:href="dir_686a2d3b8380929f3bfddf3b00ff951b.html" target="_top" xlink:title="misc">
<polygon fill="white" stroke="red" points="54,-36 0,-36 0,0 54,0 54,-36"/>
<text text-anchor="middle" x="27" y="-15.5" font-family="Helvetica,sans-Serif" font-size="10.00">misc</text>
</a>
</g>
</g>
<!-- dir_ef07c8e491849b73bb86dfad9c521aa2&#45;&gt;dir_686a2d3b8380929f3bfddf3b00ff951b -->
<g id="edge1" class="edge">
<title>dir_ef07c8e491849b73bb86dfad9c521aa2&#45;&gt;dir_686a2d3b8380929f3bfddf3b00ff951b</title>
<path fill="none" stroke="black" d="M39.39,-143.77C31.63,-134.03 23.05,-121.18 19,-108 12.79,-87.8 15.45,-63.89 19.31,-45.94"/>
<polygon fill="black" stroke="black" points="22.73,-46.67 21.66,-36.13 15.92,-45.04 22.73,-46.67"/>
<g id="a_edge1&#45;headlabel"><a xlink:href="dir_000073_000049.html" target="_top" xlink:title="2">
<text text-anchor="middle" x="24.66" y="-48.33" font-family="Helvetica,sans-Serif" font-size="10.00">2</text>
</a>
</g>
</g>
<!-- dir_7fab4c9f6ff98d8e5daf9dd22a287031 -->
<g id="node4" class="node">
<title>dir_7fab4c9f6ff98d8e5daf9dd22a287031</title>
<g id="a_node4"><a xlink:href="dir_7fab4c9f6ff98d8e5daf9dd22a287031.html" target="_top" xlink:title="values">
<polygon fill="white" stroke="red" points="82,-108 28,-108 28,-72 82,-72 82,-108"/>
<text text-anchor="middle" x="55" y="-87.5" font-family="Helvetica,sans-Serif" font-size="10.00">values</text>
</a>
</g>
</g>
<!-- dir_ef07c8e491849b73bb86dfad9c521aa2&#45;&gt;dir_7fab4c9f6ff98d8e5daf9dd22a287031 -->
<g id="edge2" class="edge">
<title>dir_ef07c8e491849b73bb86dfad9c521aa2&#45;&gt;dir_7fab4c9f6ff98d8e5daf9dd22a287031</title>
<path fill="none" stroke="black" d="M55,-143.7C55,-135.98 55,-126.71 55,-118.11"/>
<polygon fill="black" stroke="black" points="58.5,-118.1 55,-108.1 51.5,-118.1 58.5,-118.1"/>
<g id="a_edge2&#45;headlabel"><a xlink:href="dir_000073_000097.html" target="_top" xlink:title="2">
<text text-anchor="middle" x="61.34" y="-119.2" font-family="Helvetica,sans-Serif" font-size="10.00">2</text>
</a>
</g>
</g>
<!-- dir_749af01c4b44bc0c6a4f35b0ce4584fa -->
<g id="node5" class="node">
<title>dir_749af01c4b44bc0c6a4f35b0ce4584fa</title>
<g id="a_node5"><a xlink:href="dir_749af01c4b44bc0c6a4f35b0ce4584fa.html" target="_top" xlink:title="concurrency">
<polygon fill="white" stroke="red" points="176,-108 100,-108 100,-72 176,-72 176,-108"/>
<text text-anchor="middle" x="138" y="-87.5" font-family="Helvetica,sans-Serif" font-size="10.00">concurrency</text>
</a>
</g>
</g>
<!-- dir_ef07c8e491849b73bb86dfad9c521aa2&#45;&gt;dir_749af01c4b44bc0c6a4f35b0ce4584fa -->
<g id="edge3" class="edge">
<title>dir_ef07c8e491849b73bb86dfad9c521aa2&#45;&gt;dir_749af01c4b44bc0c6a4f35b0ce4584fa</title>
<path fill="none" stroke="black" d="M73.08,-143.94C78.74,-138.73 85.06,-133.05 91,-128 96.21,-123.57 101.85,-118.97 107.35,-114.59"/>
<polygon fill="black" stroke="black" points="109.57,-117.3 115.25,-108.35 105.23,-111.8 109.57,-117.3"/>
<g id="a_edge3&#45;headlabel"><a xlink:href="dir_000073_000018.html" target="_top" xlink:title="1">
<text text-anchor="middle" x="108.51" y="-119.25" font-family="Helvetica,sans-Serif" font-size="10.00">1</text>
</a>
</g>
</g>
<!-- dir_7fab4c9f6ff98d8e5daf9dd22a287031&#45;&gt;dir_686a2d3b8380929f3bfddf3b00ff951b -->
<g id="edge4" class="edge">
<title>dir_7fab4c9f6ff98d8e5daf9dd22a287031&#45;&gt;dir_686a2d3b8380929f3bfddf3b00ff951b</title>
<path fill="none" stroke="black" d="M48.08,-71.7C44.93,-63.81 41.12,-54.3 37.62,-45.55"/>
<polygon fill="black" stroke="black" points="40.81,-44.09 33.84,-36.1 34.31,-46.69 40.81,-44.09"/>
<g id="a_edge4&#45;headlabel"><a xlink:href="dir_000097_000049.html" target="_top" xlink:title="4">
<text text-anchor="middle" x="44.78" y="-43.87" font-family="Helvetica,sans-Serif" font-size="10.00">4</text>
</a>
</g>
</g>
</g>
</svg>
