<?xml version="1.0" encoding="UTF-8" standalone="no"?>
<!DOCTYPE svg PUBLIC "-//W3C//DTD SVG 1.1//EN"
 "http://www.w3.org/Graphics/SVG/1.1/DTD/svg11.dtd">
<!-- Generated by graphviz version 2.43.0 (0)
 -->
<!-- Title: /home/nico/projects/tmp&#45;joda&#45;dirs/JODA&#45;gh/libs/joda/core/modules/parser/src/parsers/ContainerScheduler Pages: 1 -->
<svg width="153pt" height="295pt"
 viewBox="0.00 0.00 153.00 295.00" xmlns="http://www.w3.org/2000/svg" xmlns:xlink="http://www.w3.org/1999/xlink">
<g id="graph0" class="graph" transform="scale(1 1) rotate(0) translate(4 291)">
<title>/home/nico/projects/tmp&#45;joda&#45;dirs/JODA&#45;gh/libs/joda/core/modules/parser/src/parsers/ContainerScheduler</title>
<polygon fill="white" stroke="transparent" points="-4,4 -4,-291 149,-291 149,4 -4,4"/>
<g id="clust1" class="cluster">
<title>clusterdir_7246b831a97f1096a718d1c7108a2a93</title>
<g id="a_clust1"><a xlink:href="dir_7246b831a97f1096a718d1c7108a2a93.html" target="_top" xlink:title="parsers">
<polygon fill="#ddddee" stroke="black" points="9,-208 9,-279 137,-279 137,-208 9,-208"/>
<text text-anchor="middle" x="73" y="-267" font-family="Helvetica,sans-Serif" font-size="10.00">parsers</text>
</a>
</g>
</g>
<!-- dir_2df64d909010ef1c6bdc6db63fd591cf -->
<g id="node1" class="node">
<title>dir_2df64d909010ef1c6bdc6db63fd591cf</title>
<g id="a_node1"><a xlink:href="dir_2df64d909010ef1c6bdc6db63fd591cf.html" target="_top" xlink:title="ContainerScheduler">
<polygon fill="#eeeeff" stroke="black" points="129,-252 17,-252 17,-216 129,-216 129,-252"/>
<text text-anchor="middle" x="73" y="-231.5" font-family="Helvetica,sans-Serif" font-size="10.00">ContainerScheduler</text>
</a>
</g>
</g>
<!-- dir_593657602c74fd2b2e9635270b1bdea2 -->
<g id="node2" class="node">
<title>dir_593657602c74fd2b2e9635270b1bdea2</title>
<g id="a_node2"><a xlink:href="dir_593657602c74fd2b2e9635270b1bdea2.html" target="_top" xlink:title="storage">
<polygon fill="white" stroke="red" points="100,-180 46,-180 46,-144 100,-144 100,-180"/>
<text text-anchor="middle" x="73" y="-159.5" font-family="Helvetica,sans-Serif" font-size="10.00">storage</text>
</a>
</g>
</g>
<!-- dir_2df64d909010ef1c6bdc6db63fd591cf&#45;&gt;dir_593657602c74fd2b2e9635270b1bdea2 -->
<g id="edge4" class="edge">
<title>dir_2df64d909010ef1c6bdc6db63fd591cf&#45;&gt;dir_593657602c74fd2b2e9635270b1bdea2</title>
<path fill="none" stroke="black" d="M73,-215.7C73,-207.98 73,-198.71 73,-190.11"/>
<polygon fill="black" stroke="black" points="76.5,-190.1 73,-180.1 69.5,-190.1 76.5,-190.1"/>
<g id="a_edge4&#45;headlabel"><a xlink:href="dir_000068_000125.html" target="_top" xlink:title="3">
<text text-anchor="middle" x="79.34" y="-191.2" font-family="Helvetica,sans-Serif" font-size="10.00">3</text>
</a>
</g>
</g>
<!-- dir_686a2d3b8380929f3bfddf3b00ff951b -->
<g id="node3" class="node">
<title>dir_686a2d3b8380929f3bfddf3b00ff951b</title>
<g id="a_node3"><a xlink:href="dir_686a2d3b8380929f3bfddf3b00ff951b.html" target="_top" xlink:title="misc">
<polygon fill="white" stroke="red" points="54,-108 0,-108 0,-72 54,-72 54,-108"/>
<text text-anchor="middle" x="27" y="-87.5" font-family="Helvetica,sans-Serif" font-size="10.00">misc</text>
</a>
</g>
</g>
<!-- dir_2df64d909010ef1c6bdc6db63fd591cf&#45;&gt;dir_686a2d3b8380929f3bfddf3b00ff951b -->
<g id="edge5" class="edge">
<title>dir_2df64d909010ef1c6bdc6db63fd591cf&#45;&gt;dir_686a2d3b8380929f3bfddf3b00ff951b</title>
<path fill="none" stroke="black" d="M57.97,-215.58C50.38,-205.78 41.78,-192.94 37,-180 29.68,-160.22 27.31,-136.42 26.7,-118.41"/>
<polygon fill="black" stroke="black" points="30.2,-118.23 26.52,-108.29 23.2,-118.35 30.2,-118.23"/>
<g id="a_edge5&#45;headlabel"><a xlink:href="dir_000068_000049.html" target="_top" xlink:title="1">
<text text-anchor="middle" x="33.1" y="-119.27" font-family="Helvetica,sans-Serif" font-size="10.00">1</text>
</a>
</g>
</g>
<!-- dir_7370e63381a3da0a5abca9ffd8b57676 -->
<g id="node4" class="node">
<title>dir_7370e63381a3da0a5abca9ffd8b57676</title>
<g id="a_node4"><a xlink:href="dir_7370e63381a3da0a5abca9ffd8b57676.html" target="_top" xlink:title="config">
<polygon fill="white" stroke="red" points="81,-36 27,-36 27,0 81,0 81,-36"/>
<text text-anchor="middle" x="54" y="-15.5" font-family="Helvetica,sans-Serif" font-size="10.00">config</text>
</a>
</g>
</g>
<!-- dir_2df64d909010ef1c6bdc6db63fd591cf&#45;&gt;dir_7370e63381a3da0a5abca9ffd8b57676 -->
<g id="edge6" class="edge">
<title>dir_2df64d909010ef1c6bdc6db63fd591cf&#45;&gt;dir_7370e63381a3da0a5abca9ffd8b57676</title>
<path fill="none" stroke="black" d="M88.61,-215.77C96.37,-206.03 104.95,-193.18 109,-180 113.7,-164.71 112.14,-159.69 109,-144 101.78,-107.88 83.06,-69.56 69.46,-45.01"/>
<polygon fill="black" stroke="black" points="72.33,-42.98 64.36,-36 66.24,-46.43 72.33,-42.98"/>
<g id="a_edge6&#45;headlabel"><a xlink:href="dir_000068_000023.html" target="_top" xlink:title="1">
<text text-anchor="middle" x="76.58" y="-42.21" font-family="Helvetica,sans-Serif" font-size="10.00">1</text>
</a>
</g>
</g>
<!-- dir_593657602c74fd2b2e9635270b1bdea2&#45;&gt;dir_686a2d3b8380929f3bfddf3b00ff951b -->
<g id="edge1" class="edge">
<title>dir_593657602c74fd2b2e9635270b1bdea2&#45;&gt;dir_686a2d3b8380929f3bfddf3b00ff951b</title>
<path fill="none" stroke="black" d="M61.63,-143.7C56.28,-135.56 49.8,-125.69 43.89,-116.7"/>
<polygon fill="black" stroke="black" points="46.66,-114.54 38.24,-108.1 40.81,-118.38 46.66,-114.54"/>
<g id="a_edge1&#45;headlabel"><a xlink:href="dir_000125_000049.html" target="_top" xlink:title="19">
<text text-anchor="middle" x="51" y="-113.48" font-family="Helvetica,sans-Serif" font-size="10.00">19</text>
</a>
</g>
</g>
<!-- dir_593657602c74fd2b2e9635270b1bdea2&#45;&gt;dir_7370e63381a3da0a5abca9ffd8b57676 -->
<g id="edge2" class="edge">
<title>dir_593657602c74fd2b2e9635270b1bdea2&#45;&gt;dir_7370e63381a3da0a5abca9ffd8b57676</title>
<path fill="none" stroke="black" d="M71.37,-143.9C69.59,-125.96 66.52,-96.94 63,-72 61.81,-63.55 60.32,-54.38 58.9,-46.08"/>
<polygon fill="black" stroke="black" points="62.33,-45.4 57.16,-36.15 55.44,-46.6 62.33,-45.4"/>
<g id="a_edge2&#45;headlabel"><a xlink:href="dir_000125_000023.html" target="_top" xlink:title="5">
<text text-anchor="middle" x="65.75" y="-45.95" font-family="Helvetica,sans-Serif" font-size="10.00">5</text>
</a>
</g>
</g>
<!-- dir_686a2d3b8380929f3bfddf3b00ff951b&#45;&gt;dir_7370e63381a3da0a5abca9ffd8b57676 -->
<g id="edge3" class="edge">
<title>dir_686a2d3b8380929f3bfddf3b00ff951b&#45;&gt;dir_7370e63381a3da0a5abca9ffd8b57676</title>
<path fill="none" stroke="black" d="M27.76,-71.7C30.01,-63.73 33.51,-54.1 37.31,-45.26"/>
<polygon fill="black" stroke="black" points="40.52,-46.65 41.51,-36.1 34.16,-43.74 40.52,-46.65"/>
<g id="a_edge3&#45;headlabel"><a xlink:href="dir_000049_000023.html" target="_top" xlink:title="1">
<text text-anchor="middle" x="41.61" y="-48.6" font-family="Helvetica,sans-Serif" font-size="10.00">1</text>
</a>
</g>
</g>
<!-- dir_7370e63381a3da0a5abca9ffd8b57676&#45;&gt;dir_686a2d3b8380929f3bfddf3b00ff951b -->
<g id="edge7" class="edge">
<title>dir_7370e63381a3da0a5abca9ffd8b57676&#45;&gt;dir_686a2d3b8380929f3bfddf3b00ff951b</title>
<path fill="none" stroke="black" d="M53.3,-36.1C51.07,-44.04 47.58,-53.67 43.79,-62.51"/>
<polygon fill="black" stroke="black" points="40.56,-61.15 39.59,-71.7 46.93,-64.06 40.56,-61.15"/>
<g id="a_edge7&#45;headlabel"><a xlink:href="dir_000023_000049.html" target="_top" xlink:title="1">
<text text-anchor="middle" x="39.47" y="-54.2" font-family="Helvetica,sans-Serif" font-size="10.00">1</text>
</a>
</g>
</g>
</g>
</svg>
