<?xml version="1.0" encoding="UTF-8" standalone="no"?>
<!DOCTYPE svg PUBLIC "-//W3C//DTD SVG 1.1//EN"
 "http://www.w3.org/Graphics/SVG/1.1/DTD/svg11.dtd">
<!-- Generated by graphviz version 2.43.0 (0)
 -->
<!-- Title: /home/nico/joda_tmp/tmp&#45;joda&#45;dirs/JODA&#45;gh/libs/joda/core/modules/similarity/include/joda Pages: 1 -->
<svg width="192pt" height="339pt"
 viewBox="0.00 0.00 192.00 339.00" xmlns="http://www.w3.org/2000/svg" xmlns:xlink="http://www.w3.org/1999/xlink">
<g id="graph0" class="graph" transform="scale(1 1) rotate(0) translate(4 335)">
<title>/home/nico/joda_tmp/tmp&#45;joda&#45;dirs/JODA&#45;gh/libs/joda/core/modules/similarity/include/joda</title>
<polygon fill="white" stroke="transparent" points="-4,4 -4,-335 188,-335 188,4 -4,4"/>
<g id="clust1" class="cluster">
<title>clusterdir_0d95974f03fd203904fe8493a8d58f74</title>
<g id="a_clust1"><a xlink:href="dir_0d95974f03fd203904fe8493a8d58f74.html" target="_top" xlink:title="include">
<polygon fill="#ddddee" stroke="black" points="8,-200 8,-287 176,-287 176,-200 8,-200"/>
<text text-anchor="middle" x="92" y="-275" font-family="Helvetica,sans-Serif" font-size="10.00">include</text>
</a>
</g>
</g>
<g id="clust2" class="cluster">
<title>clusterdir_306ff258e4bfd6a739526681e6c475a4</title>
<g id="a_clust2"><a xlink:href="dir_306ff258e4bfd6a739526681e6c475a4.html" target="_top">
<polygon fill="#eeeeff" stroke="black" points="16,-208 16,-260 168,-260 168,-208 16,-208"/>
</a>
</g>
</g>
<!-- dir_306ff258e4bfd6a739526681e6c475a4 -->
<g id="node1" class="node">
<title>dir_306ff258e4bfd6a739526681e6c475a4</title>
<text text-anchor="middle" x="133" y="-231.5" font-family="Helvetica,sans-Serif" font-size="10.00">joda</text>
</g>
<!-- dir_c330509b4777d40667940b82e2243907 -->
<g id="node2" class="node">
<title>dir_c330509b4777d40667940b82e2243907</title>
<g id="a_node2"><a xlink:href="dir_c330509b4777d40667940b82e2243907.html" target="_top" xlink:title="similarity">
<polygon fill="white" stroke="red" points="87.5,-252 24.5,-252 24.5,-216 87.5,-216 87.5,-252"/>
<text text-anchor="middle" x="56" y="-231.5" font-family="Helvetica,sans-Serif" font-size="10.00">similarity</text>
</a>
</g>
</g>
<!-- dir_686a2d3b8380929f3bfddf3b00ff951b -->
<g id="node3" class="node">
<title>dir_686a2d3b8380929f3bfddf3b00ff951b</title>
<g id="a_node3"><a xlink:href="dir_686a2d3b8380929f3bfddf3b00ff951b.html" target="_top" xlink:title="misc">
<polygon fill="white" stroke="red" points="92,-108 38,-108 38,-72 92,-72 92,-108"/>
<text text-anchor="middle" x="65" y="-87.5" font-family="Helvetica,sans-Serif" font-size="10.00">misc</text>
</a>
</g>
</g>
<!-- dir_c330509b4777d40667940b82e2243907&#45;&gt;dir_686a2d3b8380929f3bfddf3b00ff951b -->
<g id="edge5" class="edge">
<title>dir_c330509b4777d40667940b82e2243907&#45;&gt;dir_686a2d3b8380929f3bfddf3b00ff951b</title>
<path fill="none" stroke="black" d="M57.09,-215.87C58.62,-191.67 61.44,-147.21 63.26,-118.39"/>
<polygon fill="black" stroke="black" points="66.77,-118.39 63.91,-108.19 59.78,-117.95 66.77,-118.39"/>
<g id="a_edge5&#45;headlabel"><a xlink:href="dir_000121_000049.html" target="_top" xlink:title="3">
<text text-anchor="middle" x="69.38" y="-119.66" font-family="Helvetica,sans-Serif" font-size="10.00">3</text>
</a>
</g>
</g>
<!-- dir_9575bf25419298389c92e9fd48e6aa68 -->
<g id="node4" class="node">
<title>dir_9575bf25419298389c92e9fd48e6aa68</title>
<g id="a_node4"><a xlink:href="dir_9575bf25419298389c92e9fd48e6aa68.html" target="_top" xlink:title="src">
<polygon fill="none" stroke="black" points="121,-331 67,-331 67,-295 121,-295 121,-331"/>
<text text-anchor="middle" x="94" y="-310.5" font-family="Helvetica,sans-Serif" font-size="10.00">src</text>
</a>
</g>
</g>
<!-- dir_c330509b4777d40667940b82e2243907&#45;&gt;dir_9575bf25419298389c92e9fd48e6aa68 -->
<g id="edge7" class="edge">
<title>dir_c330509b4777d40667940b82e2243907&#45;&gt;dir_9575bf25419298389c92e9fd48e6aa68</title>
<path fill="none" stroke="black" d="M58.69,-252.04C62.53,-262 68.6,-274.78 74.73,-285.97"/>
<polygon fill="black" stroke="black" points="71.84,-287.97 79.85,-294.91 77.92,-284.49 71.84,-287.97"/>
<g id="a_edge7&#45;headlabel"><a xlink:href="dir_000121_000123.html" target="_top" xlink:title="2">
<text text-anchor="middle" x="67.59" y="-283.76" font-family="Helvetica,sans-Serif" font-size="10.00">2</text>
</a>
</g>
</g>
<!-- dir_7370e63381a3da0a5abca9ffd8b57676 -->
<g id="node5" class="node">
<title>dir_7370e63381a3da0a5abca9ffd8b57676</title>
<g id="a_node5"><a xlink:href="dir_7370e63381a3da0a5abca9ffd8b57676.html" target="_top" xlink:title="config">
<polygon fill="white" stroke="red" points="92,-36 38,-36 38,0 92,0 92,-36"/>
<text text-anchor="middle" x="65" y="-15.5" font-family="Helvetica,sans-Serif" font-size="10.00">config</text>
</a>
</g>
</g>
<!-- dir_c330509b4777d40667940b82e2243907&#45;&gt;dir_7370e63381a3da0a5abca9ffd8b57676 -->
<g id="edge6" class="edge">
<title>dir_c330509b4777d40667940b82e2243907&#45;&gt;dir_7370e63381a3da0a5abca9ffd8b57676</title>
<path fill="none" stroke="black" d="M47.98,-215.74C35.24,-185.88 13.34,-122.93 29,-72 32.01,-62.22 37.51,-52.62 43.32,-44.33"/>
<polygon fill="black" stroke="black" points="46.19,-46.33 49.39,-36.23 40.59,-42.13 46.19,-46.33"/>
<g id="a_edge6&#45;headlabel"><a xlink:href="dir_000121_000023.html" target="_top" xlink:title="1">
<text text-anchor="middle" x="46.31" y="-48.41" font-family="Helvetica,sans-Serif" font-size="10.00">1</text>
</a>
</g>
</g>
<!-- dir_593657602c74fd2b2e9635270b1bdea2 -->
<g id="node6" class="node">
<title>dir_593657602c74fd2b2e9635270b1bdea2</title>
<g id="a_node6"><a xlink:href="dir_593657602c74fd2b2e9635270b1bdea2.html" target="_top" xlink:title="storage">
<polygon fill="white" stroke="red" points="138,-180 84,-180 84,-144 138,-144 138,-180"/>
<text text-anchor="middle" x="111" y="-159.5" font-family="Helvetica,sans-Serif" font-size="10.00">storage</text>
</a>
</g>
</g>
<!-- dir_c330509b4777d40667940b82e2243907&#45;&gt;dir_593657602c74fd2b2e9635270b1bdea2 -->
<g id="edge4" class="edge">
<title>dir_c330509b4777d40667940b82e2243907&#45;&gt;dir_593657602c74fd2b2e9635270b1bdea2</title>
<path fill="none" stroke="black" d="M69.6,-215.7C76.12,-207.39 84.07,-197.28 91.25,-188.14"/>
<polygon fill="black" stroke="black" points="94.13,-190.13 97.56,-180.1 88.63,-185.81 94.13,-190.13"/>
<g id="a_edge4&#45;headlabel"><a xlink:href="dir_000121_000125.html" target="_top" xlink:title="3">
<text text-anchor="middle" x="94.15" y="-192.21" font-family="Helvetica,sans-Serif" font-size="10.00">3</text>
</a>
</g>
</g>
<!-- dir_686a2d3b8380929f3bfddf3b00ff951b&#45;&gt;dir_7370e63381a3da0a5abca9ffd8b57676 -->
<g id="edge3" class="edge">
<title>dir_686a2d3b8380929f3bfddf3b00ff951b&#45;&gt;dir_7370e63381a3da0a5abca9ffd8b57676</title>
<path fill="none" stroke="black" d="M59.08,-71.7C58.29,-63.98 58.06,-54.71 58.4,-46.11"/>
<polygon fill="black" stroke="black" points="61.9,-46.32 59.1,-36.1 54.92,-45.84 61.9,-46.32"/>
<g id="a_edge3&#45;headlabel"><a xlink:href="dir_000049_000023.html" target="_top" xlink:title="1">
<text text-anchor="middle" x="64.48" y="-47.61" font-family="Helvetica,sans-Serif" font-size="10.00">1</text>
</a>
</g>
</g>
<!-- dir_9575bf25419298389c92e9fd48e6aa68&#45;&gt;dir_306ff258e4bfd6a739526681e6c475a4 -->
<g id="edge9" class="edge">
<title>dir_9575bf25419298389c92e9fd48e6aa68&#45;&gt;dir_306ff258e4bfd6a739526681e6c475a4</title>
<path fill="none" stroke="black" d="M102.66,-294.91C107.7,-284.94 114.18,-272.17 119.84,-260.97"/>
<polygon fill="black" stroke="black" points="122.97,-262.54 124.37,-252.04 116.73,-259.38 122.97,-262.54"/>
<g id="a_edge9&#45;headlabel"><a xlink:href="dir_000123_000120.html" target="_top" xlink:title="2">
<text text-anchor="middle" x="123.88" y="-264.53" font-family="Helvetica,sans-Serif" font-size="10.00">2</text>
</a>
</g>
</g>
<!-- dir_9575bf25419298389c92e9fd48e6aa68&#45;&gt;dir_c330509b4777d40667940b82e2243907 -->
<g id="edge10" class="edge">
<title>dir_9575bf25419298389c92e9fd48e6aa68&#45;&gt;dir_c330509b4777d40667940b82e2243907</title>
<path fill="none" stroke="black" d="M91.29,-294.91C87.44,-284.94 81.37,-272.17 75.24,-260.97"/>
<polygon fill="black" stroke="black" points="78.13,-258.98 70.12,-252.04 72.06,-262.46 78.13,-258.98"/>
<g id="a_edge10&#45;headlabel"><a xlink:href="dir_000123_000121.html" target="_top" xlink:title="2">
<text text-anchor="middle" x="82.38" y="-258.19" font-family="Helvetica,sans-Serif" font-size="10.00">2</text>
</a>
</g>
</g>
<!-- dir_7370e63381a3da0a5abca9ffd8b57676&#45;&gt;dir_686a2d3b8380929f3bfddf3b00ff951b -->
<g id="edge8" class="edge">
<title>dir_7370e63381a3da0a5abca9ffd8b57676&#45;&gt;dir_686a2d3b8380929f3bfddf3b00ff951b</title>
<path fill="none" stroke="black" d="M70.9,-36.1C71.7,-43.79 71.94,-53.05 71.6,-61.67"/>
<polygon fill="black" stroke="black" points="68.11,-61.48 70.92,-71.7 75.09,-61.96 68.11,-61.48"/>
<g id="a_edge8&#45;headlabel"><a xlink:href="dir_000023_000049.html" target="_top" xlink:title="1">
<text text-anchor="middle" x="65.52" y="-55.2" font-family="Helvetica,sans-Serif" font-size="10.00">1</text>
</a>
</g>
</g>
<!-- dir_593657602c74fd2b2e9635270b1bdea2&#45;&gt;dir_686a2d3b8380929f3bfddf3b00ff951b -->
<g id="edge1" class="edge">
<title>dir_593657602c74fd2b2e9635270b1bdea2&#45;&gt;dir_686a2d3b8380929f3bfddf3b00ff951b</title>
<path fill="none" stroke="black" d="M99.63,-143.7C94.28,-135.56 87.8,-125.69 81.89,-116.7"/>
<polygon fill="black" stroke="black" points="84.66,-114.54 76.24,-108.1 78.81,-118.38 84.66,-114.54"/>
<g id="a_edge1&#45;headlabel"><a xlink:href="dir_000125_000049.html" target="_top" xlink:title="19">
<text text-anchor="middle" x="89" y="-113.48" font-family="Helvetica,sans-Serif" font-size="10.00">19</text>
</a>
</g>
</g>
<!-- dir_593657602c74fd2b2e9635270b1bdea2&#45;&gt;dir_7370e63381a3da0a5abca9ffd8b57676 -->
<g id="edge2" class="edge">
<title>dir_593657602c74fd2b2e9635270b1bdea2&#45;&gt;dir_7370e63381a3da0a5abca9ffd8b57676</title>
<path fill="none" stroke="black" d="M111.48,-143.71C111.44,-125.35 109.79,-95.77 101,-72 97.45,-62.4 91.8,-52.85 86.02,-44.56"/>
<polygon fill="black" stroke="black" points="88.77,-42.4 80.03,-36.42 83.14,-46.55 88.77,-42.4"/>
<g id="a_edge2&#45;headlabel"><a xlink:href="dir_000125_000023.html" target="_top" xlink:title="5">
<text text-anchor="middle" x="93.19" y="-41.11" font-family="Helvetica,sans-Serif" font-size="10.00">5</text>
</a>
</g>
</g>
</g>
</svg>
