<?xml version="1.0" encoding="UTF-8" standalone="no"?>
<!DOCTYPE svg PUBLIC "-//W3C//DTD SVG 1.1//EN"
 "http://www.w3.org/Graphics/SVG/1.1/DTD/svg11.dtd">
<!-- Generated by graphviz version 2.43.0 (0)
 -->
<!-- Title: /home/nico/joda_tmp/tmp&#45;joda&#45;dirs/JODA&#45;gh/libs/joda/core/modules/similarity/include Pages: 1 -->
<svg width="182pt" height="367pt"
 viewBox="0.00 0.00 182.00 367.00" xmlns="http://www.w3.org/2000/svg" xmlns:xlink="http://www.w3.org/1999/xlink">
<g id="graph0" class="graph" transform="scale(1 1) rotate(0) translate(4 363)">
<title>/home/nico/joda_tmp/tmp&#45;joda&#45;dirs/JODA&#45;gh/libs/joda/core/modules/similarity/include</title>
<polygon fill="white" stroke="transparent" points="-4,4 -4,-363 178,-363 178,4 -4,4"/>
<g id="clust1" class="cluster">
<title>clusterdir_5021187c89e35ea47334c8ebe6a2b7fb</title>
<g id="a_clust1"><a xlink:href="dir_5021187c89e35ea47334c8ebe6a2b7fb.html" target="_top" xlink:title="similarity">
<polygon fill="#ddddee" stroke="black" points="8,-200 8,-351 166,-351 166,-200 8,-200"/>
<text text-anchor="middle" x="87" y="-339" font-family="Helvetica,sans-Serif" font-size="10.00">similarity</text>
</a>
</g>
</g>
<g id="clust2" class="cluster">
<title>clusterdir_0d95974f03fd203904fe8493a8d58f74</title>
<g id="a_clust2"><a xlink:href="dir_0d95974f03fd203904fe8493a8d58f74.html" target="_top">
<polygon fill="#eeeeff" stroke="black" points="16,-208 16,-260 158,-260 158,-208 16,-208"/>
</a>
</g>
</g>
<!-- dir_9575bf25419298389c92e9fd48e6aa68 -->
<g id="node1" class="node">
<title>dir_9575bf25419298389c92e9fd48e6aa68</title>
<g id="a_node1"><a xlink:href="dir_9575bf25419298389c92e9fd48e6aa68.html" target="_top" xlink:title="src">
<polygon fill="none" stroke="black" points="114,-324 60,-324 60,-288 114,-288 114,-324"/>
<text text-anchor="middle" x="87" y="-303.5" font-family="Helvetica,sans-Serif" font-size="10.00">src</text>
</a>
</g>
</g>
<!-- dir_0d95974f03fd203904fe8493a8d58f74 -->
<g id="node2" class="node">
<title>dir_0d95974f03fd203904fe8493a8d58f74</title>
<text text-anchor="middle" x="123" y="-231.5" font-family="Helvetica,sans-Serif" font-size="10.00">include</text>
</g>
<!-- dir_9575bf25419298389c92e9fd48e6aa68&#45;&gt;dir_0d95974f03fd203904fe8493a8d58f74 -->
<g id="edge9" class="edge">
<title>dir_9575bf25419298389c92e9fd48e6aa68&#45;&gt;dir_0d95974f03fd203904fe8493a8d58f74</title>
<path fill="none" stroke="black" d="M95.9,-287.7C100,-279.73 104.95,-270.1 109.49,-261.26"/>
<polygon fill="black" stroke="black" points="112.74,-262.6 114.2,-252.1 106.52,-259.4 112.74,-262.6"/>
<g id="a_edge9&#45;headlabel"><a xlink:href="dir_000123_000119.html" target="_top" xlink:title="2">
<text text-anchor="middle" x="113.62" y="-264.59" font-family="Helvetica,sans-Serif" font-size="10.00">2</text>
</a>
</g>
</g>
<!-- dir_306ff258e4bfd6a739526681e6c475a4 -->
<g id="node3" class="node">
<title>dir_306ff258e4bfd6a739526681e6c475a4</title>
<g id="a_node3"><a xlink:href="dir_306ff258e4bfd6a739526681e6c475a4.html" target="_top" xlink:title="joda">
<polygon fill="white" stroke="red" points="78,-252 24,-252 24,-216 78,-216 78,-252"/>
<text text-anchor="middle" x="51" y="-231.5" font-family="Helvetica,sans-Serif" font-size="10.00">joda</text>
</a>
</g>
</g>
<!-- dir_9575bf25419298389c92e9fd48e6aa68&#45;&gt;dir_306ff258e4bfd6a739526681e6c475a4 -->
<g id="edge10" class="edge">
<title>dir_9575bf25419298389c92e9fd48e6aa68&#45;&gt;dir_306ff258e4bfd6a739526681e6c475a4</title>
<path fill="none" stroke="black" d="M84.02,-287.7C80.71,-279.64 75.9,-269.89 70.91,-260.98"/>
<polygon fill="black" stroke="black" points="73.78,-258.95 65.69,-252.1 67.74,-262.5 73.78,-258.95"/>
<g id="a_edge10&#45;headlabel"><a xlink:href="dir_000123_000120.html" target="_top" xlink:title="2">
<text text-anchor="middle" x="78.04" y="-258.11" font-family="Helvetica,sans-Serif" font-size="10.00">2</text>
</a>
</g>
</g>
<!-- dir_306ff258e4bfd6a739526681e6c475a4&#45;&gt;dir_9575bf25419298389c92e9fd48e6aa68 -->
<g id="edge2" class="edge">
<title>dir_306ff258e4bfd6a739526681e6c475a4&#45;&gt;dir_9575bf25419298389c92e9fd48e6aa68</title>
<path fill="none" stroke="black" d="M53.9,-252.1C57.19,-260.13 61.98,-269.87 66.97,-278.8"/>
<polygon fill="black" stroke="black" points="64.11,-280.84 72.19,-287.7 70.15,-277.3 64.11,-280.84"/>
<g id="a_edge2&#45;headlabel"><a xlink:href="dir_000120_000123.html" target="_top" xlink:title="2">
<text text-anchor="middle" x="59.84" y="-276.68" font-family="Helvetica,sans-Serif" font-size="10.00">2</text>
</a>
</g>
</g>
<!-- dir_686a2d3b8380929f3bfddf3b00ff951b -->
<g id="node4" class="node">
<title>dir_686a2d3b8380929f3bfddf3b00ff951b</title>
<g id="a_node4"><a xlink:href="dir_686a2d3b8380929f3bfddf3b00ff951b.html" target="_top" xlink:title="misc">
<polygon fill="white" stroke="red" points="87,-108 33,-108 33,-72 87,-72 87,-108"/>
<text text-anchor="middle" x="60" y="-87.5" font-family="Helvetica,sans-Serif" font-size="10.00">misc</text>
</a>
</g>
</g>
<!-- dir_306ff258e4bfd6a739526681e6c475a4&#45;&gt;dir_686a2d3b8380929f3bfddf3b00ff951b -->
<g id="edge1" class="edge">
<title>dir_306ff258e4bfd6a739526681e6c475a4&#45;&gt;dir_686a2d3b8380929f3bfddf3b00ff951b</title>
<path fill="none" stroke="black" d="M52.09,-215.87C53.62,-191.67 56.44,-147.21 58.26,-118.39"/>
<polygon fill="black" stroke="black" points="61.77,-118.39 58.91,-108.19 54.78,-117.95 61.77,-118.39"/>
<g id="a_edge1&#45;headlabel"><a xlink:href="dir_000120_000049.html" target="_top" xlink:title="3">
<text text-anchor="middle" x="64.38" y="-119.66" font-family="Helvetica,sans-Serif" font-size="10.00">3</text>
</a>
</g>
</g>
<!-- dir_7370e63381a3da0a5abca9ffd8b57676 -->
<g id="node5" class="node">
<title>dir_7370e63381a3da0a5abca9ffd8b57676</title>
<g id="a_node5"><a xlink:href="dir_7370e63381a3da0a5abca9ffd8b57676.html" target="_top" xlink:title="config">
<polygon fill="white" stroke="red" points="87,-36 33,-36 33,0 87,0 87,-36"/>
<text text-anchor="middle" x="60" y="-15.5" font-family="Helvetica,sans-Serif" font-size="10.00">config</text>
</a>
</g>
</g>
<!-- dir_306ff258e4bfd6a739526681e6c475a4&#45;&gt;dir_7370e63381a3da0a5abca9ffd8b57676 -->
<g id="edge3" class="edge">
<title>dir_306ff258e4bfd6a739526681e6c475a4&#45;&gt;dir_7370e63381a3da0a5abca9ffd8b57676</title>
<path fill="none" stroke="black" d="M42.98,-215.74C30.24,-185.88 8.34,-122.93 24,-72 27.01,-62.22 32.51,-52.62 38.32,-44.33"/>
<polygon fill="black" stroke="black" points="41.19,-46.33 44.39,-36.23 35.59,-42.13 41.19,-46.33"/>
<g id="a_edge3&#45;headlabel"><a xlink:href="dir_000120_000023.html" target="_top" xlink:title="1">
<text text-anchor="middle" x="41.31" y="-48.41" font-family="Helvetica,sans-Serif" font-size="10.00">1</text>
</a>
</g>
</g>
<!-- dir_593657602c74fd2b2e9635270b1bdea2 -->
<g id="node6" class="node">
<title>dir_593657602c74fd2b2e9635270b1bdea2</title>
<g id="a_node6"><a xlink:href="dir_593657602c74fd2b2e9635270b1bdea2.html" target="_top" xlink:title="storage">
<polygon fill="white" stroke="red" points="133,-180 79,-180 79,-144 133,-144 133,-180"/>
<text text-anchor="middle" x="106" y="-159.5" font-family="Helvetica,sans-Serif" font-size="10.00">storage</text>
</a>
</g>
</g>
<!-- dir_306ff258e4bfd6a739526681e6c475a4&#45;&gt;dir_593657602c74fd2b2e9635270b1bdea2 -->
<g id="edge4" class="edge">
<title>dir_306ff258e4bfd6a739526681e6c475a4&#45;&gt;dir_593657602c74fd2b2e9635270b1bdea2</title>
<path fill="none" stroke="black" d="M64.6,-215.7C71.12,-207.39 79.07,-197.28 86.25,-188.14"/>
<polygon fill="black" stroke="black" points="89.13,-190.13 92.56,-180.1 83.63,-185.81 89.13,-190.13"/>
<g id="a_edge4&#45;headlabel"><a xlink:href="dir_000120_000125.html" target="_top" xlink:title="3">
<text text-anchor="middle" x="89.15" y="-192.21" font-family="Helvetica,sans-Serif" font-size="10.00">3</text>
</a>
</g>
</g>
<!-- dir_686a2d3b8380929f3bfddf3b00ff951b&#45;&gt;dir_7370e63381a3da0a5abca9ffd8b57676 -->
<g id="edge7" class="edge">
<title>dir_686a2d3b8380929f3bfddf3b00ff951b&#45;&gt;dir_7370e63381a3da0a5abca9ffd8b57676</title>
<path fill="none" stroke="black" d="M54.08,-71.7C53.29,-63.98 53.06,-54.71 53.4,-46.11"/>
<polygon fill="black" stroke="black" points="56.9,-46.32 54.1,-36.1 49.92,-45.84 56.9,-46.32"/>
<g id="a_edge7&#45;headlabel"><a xlink:href="dir_000049_000023.html" target="_top" xlink:title="1">
<text text-anchor="middle" x="59.48" y="-47.61" font-family="Helvetica,sans-Serif" font-size="10.00">1</text>
</a>
</g>
</g>
<!-- dir_7370e63381a3da0a5abca9ffd8b57676&#45;&gt;dir_686a2d3b8380929f3bfddf3b00ff951b -->
<g id="edge8" class="edge">
<title>dir_7370e63381a3da0a5abca9ffd8b57676&#45;&gt;dir_686a2d3b8380929f3bfddf3b00ff951b</title>
<path fill="none" stroke="black" d="M65.9,-36.1C66.7,-43.79 66.94,-53.05 66.6,-61.67"/>
<polygon fill="black" stroke="black" points="63.11,-61.48 65.92,-71.7 70.09,-61.96 63.11,-61.48"/>
<g id="a_edge8&#45;headlabel"><a xlink:href="dir_000023_000049.html" target="_top" xlink:title="1">
<text text-anchor="middle" x="60.52" y="-55.2" font-family="Helvetica,sans-Serif" font-size="10.00">1</text>
</a>
</g>
</g>
<!-- dir_593657602c74fd2b2e9635270b1bdea2&#45;&gt;dir_686a2d3b8380929f3bfddf3b00ff951b -->
<g id="edge5" class="edge">
<title>dir_593657602c74fd2b2e9635270b1bdea2&#45;&gt;dir_686a2d3b8380929f3bfddf3b00ff951b</title>
<path fill="none" stroke="black" d="M94.63,-143.7C89.28,-135.56 82.8,-125.69 76.89,-116.7"/>
<polygon fill="black" stroke="black" points="79.66,-114.54 71.24,-108.1 73.81,-118.38 79.66,-114.54"/>
<g id="a_edge5&#45;headlabel"><a xlink:href="dir_000125_000049.html" target="_top" xlink:title="19">
<text text-anchor="middle" x="84" y="-113.48" font-family="Helvetica,sans-Serif" font-size="10.00">19</text>
</a>
</g>
</g>
<!-- dir_593657602c74fd2b2e9635270b1bdea2&#45;&gt;dir_7370e63381a3da0a5abca9ffd8b57676 -->
<g id="edge6" class="edge">
<title>dir_593657602c74fd2b2e9635270b1bdea2&#45;&gt;dir_7370e63381a3da0a5abca9ffd8b57676</title>
<path fill="none" stroke="black" d="M106.48,-143.71C106.44,-125.35 104.79,-95.77 96,-72 92.45,-62.4 86.8,-52.85 81.02,-44.56"/>
<polygon fill="black" stroke="black" points="83.77,-42.4 75.03,-36.42 78.14,-46.55 83.77,-42.4"/>
<g id="a_edge6&#45;headlabel"><a xlink:href="dir_000125_000023.html" target="_top" xlink:title="5">
<text text-anchor="middle" x="88.19" y="-41.11" font-family="Helvetica,sans-Serif" font-size="10.00">5</text>
</a>
</g>
</g>
</g>
</svg>
