<?xml version="1.0" encoding="UTF-8" standalone="no"?>
<!DOCTYPE svg PUBLIC "-//W3C//DTD SVG 1.1//EN"
 "http://www.w3.org/Graphics/SVG/1.1/DTD/svg11.dtd">
<!-- Generated by graphviz version 2.43.0 (0)
 -->
<!-- Title: /home/nico/joda_tmp/tmp&#45;joda&#45;dirs/JODA&#45;gh/libs/joda/core/modules/storage/collection/src Pages: 1 -->
<svg width="220pt" height="439pt"
 viewBox="0.00 0.00 220.00 439.00" xmlns="http://www.w3.org/2000/svg" xmlns:xlink="http://www.w3.org/1999/xlink">
<g id="graph0" class="graph" transform="scale(1 1) rotate(0) translate(4 435)">
<title>/home/nico/joda_tmp/tmp&#45;joda&#45;dirs/JODA&#45;gh/libs/joda/core/modules/storage/collection/src</title>
<polygon fill="white" stroke="transparent" points="-4,4 -4,-435 216,-435 216,4 -4,4"/>
<g id="clust1" class="cluster">
<title>clusterdir_9f44ebdb2572eb806e275c57a4a23e65</title>
<g id="a_clust1"><a xlink:href="dir_9f44ebdb2572eb806e275c57a4a23e65.html" target="_top" xlink:title="collection">
<polygon fill="#ddddee" stroke="black" points="8,-280 8,-423 78,-423 78,-280 8,-280"/>
<text text-anchor="middle" x="43" y="-411" font-family="Helvetica,sans-Serif" font-size="10.00">collection</text>
</a>
</g>
</g>
<!-- dir_fe9d8bf9624b6804d9d0746c5cf15af4 -->
<g id="node1" class="node">
<title>dir_fe9d8bf9624b6804d9d0746c5cf15af4</title>
<g id="a_node1"><a xlink:href="dir_fe9d8bf9624b6804d9d0746c5cf15af4.html" target="_top" xlink:title="include">
<polygon fill="white" stroke="red" points="70,-324 16,-324 16,-288 70,-288 70,-324"/>
<text text-anchor="middle" x="43" y="-303.5" font-family="Helvetica,sans-Serif" font-size="10.00">include</text>
</a>
</g>
</g>
<!-- dir_330813092258a011b683878a00fa0d9e -->
<g id="node4" class="node">
<title>dir_330813092258a011b683878a00fa0d9e</title>
<g id="a_node4"><a xlink:href="dir_330813092258a011b683878a00fa0d9e.html" target="_top" xlink:title="join">
<polygon fill="white" stroke="red" points="99,-252 45,-252 45,-216 99,-216 99,-252"/>
<text text-anchor="middle" x="72" y="-231.5" font-family="Helvetica,sans-Serif" font-size="10.00">join</text>
</a>
</g>
</g>
<!-- dir_fe9d8bf9624b6804d9d0746c5cf15af4&#45;&gt;dir_330813092258a011b683878a00fa0d9e -->
<g id="edge8" class="edge">
<title>dir_fe9d8bf9624b6804d9d0746c5cf15af4&#45;&gt;dir_330813092258a011b683878a00fa0d9e</title>
<path fill="none" stroke="black" d="M50.17,-287.7C53.43,-279.81 57.37,-270.3 61,-261.55"/>
<polygon fill="black" stroke="black" points="64.32,-262.68 64.91,-252.1 57.85,-260 64.32,-262.68"/>
<g id="a_edge8&#45;headlabel"><a xlink:href="dir_000127_000044.html" target="_top" xlink:title="1">
<text text-anchor="middle" x="65.57" y="-264.59" font-family="Helvetica,sans-Serif" font-size="10.00">1</text>
</a>
</g>
</g>
<!-- dir_3dc45af8a063bb81896cbdbf3706a8f2 -->
<g id="node2" class="node">
<title>dir_3dc45af8a063bb81896cbdbf3706a8f2</title>
<g id="a_node2"><a xlink:href="dir_3dc45af8a063bb81896cbdbf3706a8f2.html" target="_top" xlink:title="src">
<polygon fill="#eeeeff" stroke="black" points="70,-396 16,-396 16,-360 70,-360 70,-396"/>
<text text-anchor="middle" x="43" y="-375.5" font-family="Helvetica,sans-Serif" font-size="10.00">src</text>
</a>
</g>
</g>
<!-- dir_3dc45af8a063bb81896cbdbf3706a8f2&#45;&gt;dir_fe9d8bf9624b6804d9d0746c5cf15af4 -->
<g id="edge6" class="edge">
<title>dir_3dc45af8a063bb81896cbdbf3706a8f2&#45;&gt;dir_fe9d8bf9624b6804d9d0746c5cf15af4</title>
<path fill="none" stroke="black" d="M43,-359.7C43,-351.98 43,-342.71 43,-334.11"/>
<polygon fill="black" stroke="black" points="46.5,-334.1 43,-324.1 39.5,-334.1 46.5,-334.1"/>
<g id="a_edge6&#45;headlabel"><a xlink:href="dir_000131_000127.html" target="_top" xlink:title="1">
<text text-anchor="middle" x="49.34" y="-335.2" font-family="Helvetica,sans-Serif" font-size="10.00">1</text>
</a>
</g>
</g>
<!-- dir_308afe6c0c0e65dd84efc4369dd1efeb -->
<g id="node3" class="node">
<title>dir_308afe6c0c0e65dd84efc4369dd1efeb</title>
<g id="a_node3"><a xlink:href="dir_308afe6c0c0e65dd84efc4369dd1efeb.html" target="_top" xlink:title="query">
<polygon fill="white" stroke="red" points="146,-180 92,-180 92,-144 146,-144 146,-180"/>
<text text-anchor="middle" x="119" y="-159.5" font-family="Helvetica,sans-Serif" font-size="10.00">query</text>
</a>
</g>
</g>
<!-- dir_3dc45af8a063bb81896cbdbf3706a8f2&#45;&gt;dir_308afe6c0c0e65dd84efc4369dd1efeb -->
<g id="edge2" class="edge">
<title>dir_3dc45af8a063bb81896cbdbf3706a8f2&#45;&gt;dir_308afe6c0c0e65dd84efc4369dd1efeb</title>
<path fill="none" stroke="black" d="M64.65,-359.77C75.09,-350.3 86.88,-337.71 94,-324 116.26,-281.15 119.95,-223.86 119.94,-190.44"/>
<polygon fill="black" stroke="black" points="123.43,-190.03 119.81,-180.08 116.43,-190.12 123.43,-190.03"/>
<g id="a_edge2&#45;headlabel"><a xlink:href="dir_000131_000065.html" target="_top" xlink:title="1">
<text text-anchor="middle" x="126.31" y="-191.09" font-family="Helvetica,sans-Serif" font-size="10.00">1</text>
</a>
</g>
</g>
<!-- dir_3dc45af8a063bb81896cbdbf3706a8f2&#45;&gt;dir_330813092258a011b683878a00fa0d9e -->
<g id="edge3" class="edge">
<title>dir_3dc45af8a063bb81896cbdbf3706a8f2&#45;&gt;dir_330813092258a011b683878a00fa0d9e</title>
<path fill="none" stroke="black" d="M58.61,-359.77C66.37,-350.03 74.95,-337.18 79,-324 85.21,-303.81 82.82,-279.9 79.24,-261.95"/>
<polygon fill="black" stroke="black" points="82.64,-261.14 77.04,-252.14 75.81,-262.67 82.64,-261.14"/>
<g id="a_edge3&#45;headlabel"><a xlink:href="dir_000131_000044.html" target="_top" xlink:title="3">
<text text-anchor="middle" x="86.2" y="-261.52" font-family="Helvetica,sans-Serif" font-size="10.00">3</text>
</a>
</g>
</g>
<!-- dir_686a2d3b8380929f3bfddf3b00ff951b -->
<g id="node5" class="node">
<title>dir_686a2d3b8380929f3bfddf3b00ff951b</title>
<g id="a_node5"><a xlink:href="dir_686a2d3b8380929f3bfddf3b00ff951b.html" target="_top" xlink:title="misc">
<polygon fill="white" stroke="red" points="146,-108 92,-108 92,-72 146,-72 146,-108"/>
<text text-anchor="middle" x="119" y="-87.5" font-family="Helvetica,sans-Serif" font-size="10.00">misc</text>
</a>
</g>
</g>
<!-- dir_3dc45af8a063bb81896cbdbf3706a8f2&#45;&gt;dir_686a2d3b8380929f3bfddf3b00ff951b -->
<g id="edge4" class="edge">
<title>dir_3dc45af8a063bb81896cbdbf3706a8f2&#45;&gt;dir_686a2d3b8380929f3bfddf3b00ff951b</title>
<path fill="none" stroke="black" d="M70.19,-362.98C85.44,-353.81 103.64,-340.48 115,-324 152.7,-269.31 146.03,-245.81 155,-180 157.16,-164.15 159.7,-159.29 155,-144 151.99,-134.22 146.49,-124.62 140.68,-116.33"/>
<polygon fill="black" stroke="black" points="143.41,-114.13 134.61,-108.23 137.81,-118.33 143.41,-114.13"/>
<g id="a_edge4&#45;headlabel"><a xlink:href="dir_000131_000049.html" target="_top" xlink:title="1">
<text text-anchor="middle" x="147.83" y="-112.8" font-family="Helvetica,sans-Serif" font-size="10.00">1</text>
</a>
</g>
</g>
<!-- dir_7370e63381a3da0a5abca9ffd8b57676 -->
<g id="node6" class="node">
<title>dir_7370e63381a3da0a5abca9ffd8b57676</title>
<g id="a_node6"><a xlink:href="dir_7370e63381a3da0a5abca9ffd8b57676.html" target="_top" xlink:title="config">
<polygon fill="white" stroke="red" points="146,-36 92,-36 92,0 146,0 146,-36"/>
<text text-anchor="middle" x="119" y="-15.5" font-family="Helvetica,sans-Serif" font-size="10.00">config</text>
</a>
</g>
</g>
<!-- dir_3dc45af8a063bb81896cbdbf3706a8f2&#45;&gt;dir_7370e63381a3da0a5abca9ffd8b57676 -->
<g id="edge5" class="edge">
<title>dir_3dc45af8a063bb81896cbdbf3706a8f2&#45;&gt;dir_7370e63381a3da0a5abca9ffd8b57676</title>
<path fill="none" stroke="black" d="M70.15,-368.34C117.93,-351.21 212,-308.2 212,-235 212,-235 212,-235 212,-161 212,-113.32 174.85,-69.19 147.52,-43.17"/>
<polygon fill="black" stroke="black" points="149.82,-40.54 140.1,-36.32 145.07,-45.68 149.82,-40.54"/>
<g id="a_edge5&#45;headlabel"><a xlink:href="dir_000131_000023.html" target="_top" xlink:title="1">
<text text-anchor="middle" x="154.39" y="-38.39" font-family="Helvetica,sans-Serif" font-size="10.00">1</text>
</a>
</g>
</g>
<!-- dir_308afe6c0c0e65dd84efc4369dd1efeb&#45;&gt;dir_330813092258a011b683878a00fa0d9e -->
<g id="edge12" class="edge">
<title>dir_308afe6c0c0e65dd84efc4369dd1efeb&#45;&gt;dir_330813092258a011b683878a00fa0d9e</title>
<path fill="none" stroke="black" d="M113.41,-180.1C108.72,-188.38 102.14,-198.49 95.54,-207.64"/>
<polygon fill="black" stroke="black" points="92.71,-205.59 89.53,-215.7 98.32,-209.77 92.71,-205.59"/>
<g id="a_edge12&#45;headlabel"><a xlink:href="dir_000065_000044.html" target="_top" xlink:title="1">
<text text-anchor="middle" x="92.58" y="-198.51" font-family="Helvetica,sans-Serif" font-size="10.00">1</text>
</a>
</g>
</g>
<!-- dir_308afe6c0c0e65dd84efc4369dd1efeb&#45;&gt;dir_686a2d3b8380929f3bfddf3b00ff951b -->
<g id="edge13" class="edge">
<title>dir_308afe6c0c0e65dd84efc4369dd1efeb&#45;&gt;dir_686a2d3b8380929f3bfddf3b00ff951b</title>
<path fill="none" stroke="black" d="M119,-143.7C119,-135.98 119,-126.71 119,-118.11"/>
<polygon fill="black" stroke="black" points="122.5,-118.1 119,-108.1 115.5,-118.1 122.5,-118.1"/>
<g id="a_edge13&#45;headlabel"><a xlink:href="dir_000065_000049.html" target="_top" xlink:title="9">
<text text-anchor="middle" x="125.34" y="-119.2" font-family="Helvetica,sans-Serif" font-size="10.00">9</text>
</a>
</g>
</g>
<!-- dir_330813092258a011b683878a00fa0d9e&#45;&gt;dir_308afe6c0c0e65dd84efc4369dd1efeb -->
<g id="edge9" class="edge">
<title>dir_330813092258a011b683878a00fa0d9e&#45;&gt;dir_308afe6c0c0e65dd84efc4369dd1efeb</title>
<path fill="none" stroke="black" d="M77.7,-215.7C82.42,-207.39 89.02,-197.28 95.61,-188.14"/>
<polygon fill="black" stroke="black" points="98.44,-190.21 101.62,-180.1 92.83,-186.02 98.44,-190.21"/>
<g id="a_edge9&#45;headlabel"><a xlink:href="dir_000044_000065.html" target="_top" xlink:title="2">
<text text-anchor="middle" x="98.56" y="-192.29" font-family="Helvetica,sans-Serif" font-size="10.00">2</text>
</a>
</g>
</g>
<!-- dir_330813092258a011b683878a00fa0d9e&#45;&gt;dir_686a2d3b8380929f3bfddf3b00ff951b -->
<g id="edge10" class="edge">
<title>dir_330813092258a011b683878a00fa0d9e&#45;&gt;dir_686a2d3b8380929f3bfddf3b00ff951b</title>
<path fill="none" stroke="black" d="M71.76,-215.7C72.05,-197.34 74.06,-167.75 83,-144 86.6,-134.42 92.27,-124.88 98.05,-116.58"/>
<polygon fill="black" stroke="black" points="100.93,-118.58 104.03,-108.44 95.29,-114.43 100.93,-118.58"/>
<g id="a_edge10&#45;headlabel"><a xlink:href="dir_000044_000049.html" target="_top" xlink:title="1">
<text text-anchor="middle" x="101.09" y="-120.65" font-family="Helvetica,sans-Serif" font-size="10.00">1</text>
</a>
</g>
</g>
<!-- dir_330813092258a011b683878a00fa0d9e&#45;&gt;dir_7370e63381a3da0a5abca9ffd8b57676 -->
<g id="edge11" class="edge">
<title>dir_330813092258a011b683878a00fa0d9e&#45;&gt;dir_7370e63381a3da0a5abca9ffd8b57676</title>
<path fill="none" stroke="black" d="M69.82,-215.79C66.7,-185.48 63.31,-121.16 83,-72 86.87,-62.34 92.71,-52.67 98.58,-44.28"/>
<polygon fill="black" stroke="black" points="101.52,-46.19 104.61,-36.06 95.87,-42.05 101.52,-46.19"/>
<g id="a_edge11&#45;headlabel"><a xlink:href="dir_000044_000023.html" target="_top" xlink:title="2">
<text text-anchor="middle" x="101.68" y="-48.27" font-family="Helvetica,sans-Serif" font-size="10.00">2</text>
</a>
</g>
</g>
<!-- dir_686a2d3b8380929f3bfddf3b00ff951b&#45;&gt;dir_7370e63381a3da0a5abca9ffd8b57676 -->
<g id="edge1" class="edge">
<title>dir_686a2d3b8380929f3bfddf3b00ff951b&#45;&gt;dir_7370e63381a3da0a5abca9ffd8b57676</title>
<path fill="none" stroke="black" d="M113.08,-71.7C112.29,-63.98 112.06,-54.71 112.4,-46.11"/>
<polygon fill="black" stroke="black" points="115.9,-46.32 113.1,-36.1 108.92,-45.84 115.9,-46.32"/>
<g id="a_edge1&#45;headlabel"><a xlink:href="dir_000049_000023.html" target="_top" xlink:title="1">
<text text-anchor="middle" x="118.48" y="-47.61" font-family="Helvetica,sans-Serif" font-size="10.00">1</text>
</a>
</g>
</g>
<!-- dir_7370e63381a3da0a5abca9ffd8b57676&#45;&gt;dir_686a2d3b8380929f3bfddf3b00ff951b -->
<g id="edge7" class="edge">
<title>dir_7370e63381a3da0a5abca9ffd8b57676&#45;&gt;dir_686a2d3b8380929f3bfddf3b00ff951b</title>
<path fill="none" stroke="black" d="M124.9,-36.1C125.7,-43.79 125.94,-53.05 125.6,-61.67"/>
<polygon fill="black" stroke="black" points="122.11,-61.48 124.92,-71.7 129.09,-61.96 122.11,-61.48"/>
<g id="a_edge7&#45;headlabel"><a xlink:href="dir_000023_000049.html" target="_top" xlink:title="1">
<text text-anchor="middle" x="119.52" y="-55.2" font-family="Helvetica,sans-Serif" font-size="10.00">1</text>
</a>
</g>
</g>
</g>
</svg>
