<?xml version="1.0" encoding="UTF-8" standalone="no"?>
<!DOCTYPE svg PUBLIC "-//W3C//DTD SVG 1.1//EN"
 "http://www.w3.org/Graphics/SVG/1.1/DTD/svg11.dtd">
<!-- Generated by graphviz version 2.43.0 (0)
 -->
<!-- Title: /home/nico/joda_tmp/tmp&#45;joda&#45;dirs/JODA&#45;gh/libs/joda/core/modules/cli/src Pages: 1 -->
<svg width="314pt" height="511pt"
 viewBox="0.00 0.00 314.00 511.00" xmlns="http://www.w3.org/2000/svg" xmlns:xlink="http://www.w3.org/1999/xlink">
<g id="graph0" class="graph" transform="scale(1 1) rotate(0) translate(4 507)">
<title>/home/nico/joda_tmp/tmp&#45;joda&#45;dirs/JODA&#45;gh/libs/joda/core/modules/cli/src</title>
<polygon fill="white" stroke="transparent" points="-4,4 -4,-507 310,-507 310,4 -4,4"/>
<g id="clust1" class="cluster">
<title>clusterdir_683d075d4c29301a36cb4f453fd730ca</title>
<g id="a_clust1"><a xlink:href="dir_683d075d4c29301a36cb4f453fd730ca.html" target="_top" xlink:title="cli">
<polygon fill="#ddddee" stroke="black" points="72,-352 72,-495 142,-495 142,-352 72,-352"/>
<text text-anchor="middle" x="107" y="-483" font-family="Helvetica,sans-Serif" font-size="10.00">cli</text>
</a>
</g>
</g>
<!-- dir_38b15189cb44c3787beacab055e0a647 -->
<g id="node1" class="node">
<title>dir_38b15189cb44c3787beacab055e0a647</title>
<g id="a_node1"><a xlink:href="dir_38b15189cb44c3787beacab055e0a647.html" target="_top" xlink:title="include">
<polygon fill="white" stroke="red" points="134,-396 80,-396 80,-360 134,-360 134,-396"/>
<text text-anchor="middle" x="107" y="-375.5" font-family="Helvetica,sans-Serif" font-size="10.00">include</text>
</a>
</g>
</g>
<!-- dir_308afe6c0c0e65dd84efc4369dd1efeb -->
<g id="node3" class="node">
<title>dir_308afe6c0c0e65dd84efc4369dd1efeb</title>
<g id="a_node3"><a xlink:href="dir_308afe6c0c0e65dd84efc4369dd1efeb.html" target="_top" xlink:title="query">
<polygon fill="white" stroke="red" points="150,-324 96,-324 96,-288 150,-288 150,-324"/>
<text text-anchor="middle" x="123" y="-303.5" font-family="Helvetica,sans-Serif" font-size="10.00">query</text>
</a>
</g>
</g>
<!-- dir_38b15189cb44c3787beacab055e0a647&#45;&gt;dir_308afe6c0c0e65dd84efc4369dd1efeb -->
<g id="edge17" class="edge">
<title>dir_38b15189cb44c3787beacab055e0a647&#45;&gt;dir_308afe6c0c0e65dd84efc4369dd1efeb</title>
<path fill="none" stroke="black" d="M110.96,-359.7C112.72,-351.98 114.84,-342.71 116.8,-334.11"/>
<polygon fill="black" stroke="black" points="120.27,-334.63 119.09,-324.1 113.45,-333.07 120.27,-334.63"/>
<g id="a_edge17&#45;headlabel"><a xlink:href="dir_000015_000065.html" target="_top" xlink:title="1">
<text text-anchor="middle" x="122.24" y="-336.27" font-family="Helvetica,sans-Serif" font-size="10.00">1</text>
</a>
</g>
</g>
<!-- dir_686a2d3b8380929f3bfddf3b00ff951b -->
<g id="node6" class="node">
<title>dir_686a2d3b8380929f3bfddf3b00ff951b</title>
<g id="a_node6"><a xlink:href="dir_686a2d3b8380929f3bfddf3b00ff951b.html" target="_top" xlink:title="misc">
<polygon fill="white" stroke="red" points="122,-36 68,-36 68,0 122,0 122,-36"/>
<text text-anchor="middle" x="95" y="-15.5" font-family="Helvetica,sans-Serif" font-size="10.00">misc</text>
</a>
</g>
</g>
<!-- dir_38b15189cb44c3787beacab055e0a647&#45;&gt;dir_686a2d3b8380929f3bfddf3b00ff951b -->
<g id="edge18" class="edge">
<title>dir_38b15189cb44c3787beacab055e0a647&#45;&gt;dir_686a2d3b8380929f3bfddf3b00ff951b</title>
<path fill="none" stroke="black" d="M92.37,-359.93C72.11,-334.5 38,-284.34 38,-235 38,-235 38,-235 38,-161 38,-117.8 61,-72.19 77.78,-44.66"/>
<polygon fill="black" stroke="black" points="80.83,-46.37 83.19,-36.04 74.91,-42.65 80.83,-46.37"/>
<g id="a_edge18&#45;headlabel"><a xlink:href="dir_000015_000049.html" target="_top" xlink:title="1">
<text text-anchor="middle" x="81.33" y="-48.43" font-family="Helvetica,sans-Serif" font-size="10.00">1</text>
</a>
</g>
</g>
<!-- dir_1c1c4182c7c627bd3ceba36c9e1acefc -->
<g id="node2" class="node">
<title>dir_1c1c4182c7c627bd3ceba36c9e1acefc</title>
<g id="a_node2"><a xlink:href="dir_1c1c4182c7c627bd3ceba36c9e1acefc.html" target="_top" xlink:title="src">
<polygon fill="#eeeeff" stroke="black" points="134,-468 80,-468 80,-432 134,-432 134,-468"/>
<text text-anchor="middle" x="107" y="-447.5" font-family="Helvetica,sans-Serif" font-size="10.00">src</text>
</a>
</g>
</g>
<!-- dir_1c1c4182c7c627bd3ceba36c9e1acefc&#45;&gt;dir_38b15189cb44c3787beacab055e0a647 -->
<g id="edge9" class="edge">
<title>dir_1c1c4182c7c627bd3ceba36c9e1acefc&#45;&gt;dir_38b15189cb44c3787beacab055e0a647</title>
<path fill="none" stroke="black" d="M107,-431.7C107,-423.98 107,-414.71 107,-406.11"/>
<polygon fill="black" stroke="black" points="110.5,-406.1 107,-396.1 103.5,-406.1 110.5,-406.1"/>
<g id="a_edge9&#45;headlabel"><a xlink:href="dir_000012_000015.html" target="_top" xlink:title="2">
<text text-anchor="middle" x="113.34" y="-407.2" font-family="Helvetica,sans-Serif" font-size="10.00">2</text>
</a>
</g>
</g>
<!-- dir_1c1c4182c7c627bd3ceba36c9e1acefc&#45;&gt;dir_308afe6c0c0e65dd84efc4369dd1efeb -->
<g id="edge8" class="edge">
<title>dir_1c1c4182c7c627bd3ceba36c9e1acefc&#45;&gt;dir_308afe6c0c0e65dd84efc4369dd1efeb</title>
<path fill="none" stroke="black" d="M122.61,-431.77C130.37,-422.03 138.95,-409.18 143,-396 148.75,-377.31 147.06,-371.13 143,-352 141.7,-345.89 139.52,-339.61 137.06,-333.74"/>
<polygon fill="black" stroke="black" points="140.11,-332.01 132.77,-324.38 133.75,-334.93 140.11,-332.01"/>
<g id="a_edge8&#45;headlabel"><a xlink:href="dir_000012_000065.html" target="_top" xlink:title="1">
<text text-anchor="middle" x="144.19" y="-331.59" font-family="Helvetica,sans-Serif" font-size="10.00">1</text>
</a>
</g>
</g>
<!-- dir_593657602c74fd2b2e9635270b1bdea2 -->
<g id="node4" class="node">
<title>dir_593657602c74fd2b2e9635270b1bdea2</title>
<g id="a_node4"><a xlink:href="dir_593657602c74fd2b2e9635270b1bdea2.html" target="_top" xlink:title="storage">
<polygon fill="white" stroke="red" points="177,-180 123,-180 123,-144 177,-144 177,-180"/>
<text text-anchor="middle" x="150" y="-159.5" font-family="Helvetica,sans-Serif" font-size="10.00">storage</text>
</a>
</g>
</g>
<!-- dir_1c1c4182c7c627bd3ceba36c9e1acefc&#45;&gt;dir_593657602c74fd2b2e9635270b1bdea2 -->
<g id="edge10" class="edge">
<title>dir_1c1c4182c7c627bd3ceba36c9e1acefc&#45;&gt;dir_593657602c74fd2b2e9635270b1bdea2</title>
<path fill="none" stroke="black" d="M134.28,-434.15C149.54,-424.78 168.04,-411.53 181,-396 226.34,-341.65 233.51,-321.06 249,-252 252.5,-236.39 257.22,-229.73 249,-216 235.56,-193.56 209.02,-180.09 186.8,-172.34"/>
<polygon fill="black" stroke="black" points="187.87,-169.01 177.28,-169.27 185.72,-175.67 187.87,-169.01"/>
<g id="a_edge10&#45;headlabel"><a xlink:href="dir_000012_000125.html" target="_top" xlink:title="4">
<text text-anchor="middle" x="192.16" y="-164.91" font-family="Helvetica,sans-Serif" font-size="10.00">4</text>
</a>
</g>
</g>
<!-- dir_59388288c2adeeeb443ad934bc39e9e7 -->
<g id="node5" class="node">
<title>dir_59388288c2adeeeb443ad934bc39e9e7</title>
<g id="a_node5"><a xlink:href="dir_59388288c2adeeeb443ad934bc39e9e7.html" target="_top" xlink:title="queryparsing">
<polygon fill="white" stroke="red" points="240,-252 160,-252 160,-216 240,-216 240,-252"/>
<text text-anchor="middle" x="200" y="-231.5" font-family="Helvetica,sans-Serif" font-size="10.00">queryparsing</text>
</a>
</g>
</g>
<!-- dir_1c1c4182c7c627bd3ceba36c9e1acefc&#45;&gt;dir_59388288c2adeeeb443ad934bc39e9e7 -->
<g id="edge11" class="edge">
<title>dir_1c1c4182c7c627bd3ceba36c9e1acefc&#45;&gt;dir_59388288c2adeeeb443ad934bc39e9e7</title>
<path fill="none" stroke="black" d="M128.03,-431.81C138.45,-422.27 150.39,-409.59 158,-396 182.1,-352.98 192.74,-295.75 197.15,-262.38"/>
<polygon fill="black" stroke="black" points="200.67,-262.39 198.41,-252.04 193.72,-261.54 200.67,-262.39"/>
<g id="a_edge11&#45;headlabel"><a xlink:href="dir_000012_000010.html" target="_top" xlink:title="2">
<text text-anchor="middle" x="203.05" y="-263.8" font-family="Helvetica,sans-Serif" font-size="10.00">2</text>
</a>
</g>
</g>
<!-- dir_1c1c4182c7c627bd3ceba36c9e1acefc&#45;&gt;dir_686a2d3b8380929f3bfddf3b00ff951b -->
<g id="edge12" class="edge">
<title>dir_1c1c4182c7c627bd3ceba36c9e1acefc&#45;&gt;dir_686a2d3b8380929f3bfddf3b00ff951b</title>
<path fill="none" stroke="black" d="M82.18,-431.98C50.57,-408.07 0,-361.33 0,-307 0,-307 0,-307 0,-161 0,-113.01 37.94,-68.96 65.87,-43.04"/>
<polygon fill="black" stroke="black" points="68.35,-45.52 73.44,-36.22 63.67,-40.31 68.35,-45.52"/>
<g id="a_edge12&#45;headlabel"><a xlink:href="dir_000012_000049.html" target="_top" xlink:title="6">
<text text-anchor="middle" x="67.58" y="-47.53" font-family="Helvetica,sans-Serif" font-size="10.00">6</text>
</a>
</g>
</g>
<!-- dir_7370e63381a3da0a5abca9ffd8b57676 -->
<g id="node7" class="node">
<title>dir_7370e63381a3da0a5abca9ffd8b57676</title>
<g id="a_node7"><a xlink:href="dir_7370e63381a3da0a5abca9ffd8b57676.html" target="_top" xlink:title="config">
<polygon fill="white" stroke="red" points="196,-108 142,-108 142,-72 196,-72 196,-108"/>
<text text-anchor="middle" x="169" y="-87.5" font-family="Helvetica,sans-Serif" font-size="10.00">config</text>
</a>
</g>
</g>
<!-- dir_1c1c4182c7c627bd3ceba36c9e1acefc&#45;&gt;dir_7370e63381a3da0a5abca9ffd8b57676 -->
<g id="edge13" class="edge">
<title>dir_1c1c4182c7c627bd3ceba36c9e1acefc&#45;&gt;dir_7370e63381a3da0a5abca9ffd8b57676</title>
<path fill="none" stroke="black" d="M134.25,-443.07C188.75,-429.43 306,-390.4 306,-307 306,-307 306,-307 306,-233 306,-174.72 245.49,-131.19 204.9,-108.54"/>
<polygon fill="black" stroke="black" points="206.53,-105.44 196.07,-103.76 203.2,-111.6 206.53,-105.44"/>
<g id="a_edge13&#45;headlabel"><a xlink:href="dir_000012_000023.html" target="_top" xlink:title="1">
<text text-anchor="middle" x="211.04" y="-102.15" font-family="Helvetica,sans-Serif" font-size="10.00">1</text>
</a>
</g>
</g>
<!-- dir_308afe6c0c0e65dd84efc4369dd1efeb&#45;&gt;dir_593657602c74fd2b2e9635270b1bdea2 -->
<g id="edge14" class="edge">
<title>dir_308afe6c0c0e65dd84efc4369dd1efeb&#45;&gt;dir_593657602c74fd2b2e9635270b1bdea2</title>
<path fill="none" stroke="black" d="M121.67,-287.87C123.72,-263.56 131.95,-218.82 139.43,-190.01"/>
<polygon fill="black" stroke="black" points="142.86,-190.76 142.14,-180.19 136.11,-188.9 142.86,-190.76"/>
<g id="a_edge14&#45;headlabel"><a xlink:href="dir_000065_000125.html" target="_top" xlink:title="11">
<text text-anchor="middle" x="144.64" y="-192.48" font-family="Helvetica,sans-Serif" font-size="10.00">11</text>
</a>
</g>
</g>
<!-- dir_308afe6c0c0e65dd84efc4369dd1efeb&#45;&gt;dir_59388288c2adeeeb443ad934bc39e9e7 -->
<g id="edge16" class="edge">
<title>dir_308afe6c0c0e65dd84efc4369dd1efeb&#45;&gt;dir_59388288c2adeeeb443ad934bc39e9e7</title>
<path fill="none" stroke="black" d="M136.12,-287.7C144.82,-278.97 156.45,-268.24 167.44,-258.75"/>
<polygon fill="black" stroke="black" points="169.92,-261.24 175.29,-252.1 165.4,-255.9 169.92,-261.24"/>
<g id="a_edge16&#45;headlabel"><a xlink:href="dir_000065_000010.html" target="_top" xlink:title="1">
<text text-anchor="middle" x="169.01" y="-263.23" font-family="Helvetica,sans-Serif" font-size="10.00">1</text>
</a>
</g>
</g>
<!-- dir_308afe6c0c0e65dd84efc4369dd1efeb&#45;&gt;dir_686a2d3b8380929f3bfddf3b00ff951b -->
<g id="edge15" class="edge">
<title>dir_308afe6c0c0e65dd84efc4369dd1efeb&#45;&gt;dir_686a2d3b8380929f3bfddf3b00ff951b</title>
<path fill="none" stroke="black" d="M121.33,-287.97C116.66,-240.19 103.38,-104.62 97.67,-46.27"/>
<polygon fill="black" stroke="black" points="101.15,-45.92 96.69,-36.31 94.19,-46.6 101.15,-45.92"/>
<g id="a_edge15&#45;headlabel"><a xlink:href="dir_000065_000049.html" target="_top" xlink:title="9">
<text text-anchor="middle" x="104.33" y="-46.72" font-family="Helvetica,sans-Serif" font-size="10.00">9</text>
</a>
</g>
</g>
<!-- dir_593657602c74fd2b2e9635270b1bdea2&#45;&gt;dir_308afe6c0c0e65dd84efc4369dd1efeb -->
<g id="edge1" class="edge">
<title>dir_593657602c74fd2b2e9635270b1bdea2&#45;&gt;dir_308afe6c0c0e65dd84efc4369dd1efeb</title>
<path fill="none" stroke="black" d="M151.32,-180.19C149.26,-204.53 141.03,-249.28 133.55,-278.06"/>
<polygon fill="black" stroke="black" points="130.13,-277.3 130.84,-287.87 136.88,-279.16 130.13,-277.3"/>
<g id="a_edge1&#45;headlabel"><a xlink:href="dir_000125_000065.html" target="_top" xlink:title="4">
<text text-anchor="middle" x="128.35" y="-270.58" font-family="Helvetica,sans-Serif" font-size="10.00">4</text>
</a>
</g>
</g>
<!-- dir_593657602c74fd2b2e9635270b1bdea2&#45;&gt;dir_686a2d3b8380929f3bfddf3b00ff951b -->
<g id="edge2" class="edge">
<title>dir_593657602c74fd2b2e9635270b1bdea2&#45;&gt;dir_686a2d3b8380929f3bfddf3b00ff951b</title>
<path fill="none" stroke="black" d="M143.37,-143.87C133.91,-119.46 116.47,-74.43 105.32,-45.64"/>
<polygon fill="black" stroke="black" points="108.53,-44.25 101.66,-36.19 102.01,-46.78 108.53,-44.25"/>
<g id="a_edge2&#45;headlabel"><a xlink:href="dir_000125_000049.html" target="_top" xlink:title="19">
<text text-anchor="middle" x="112.48" y="-44.08" font-family="Helvetica,sans-Serif" font-size="10.00">19</text>
</a>
</g>
</g>
<!-- dir_593657602c74fd2b2e9635270b1bdea2&#45;&gt;dir_7370e63381a3da0a5abca9ffd8b57676 -->
<g id="edge3" class="edge">
<title>dir_593657602c74fd2b2e9635270b1bdea2&#45;&gt;dir_7370e63381a3da0a5abca9ffd8b57676</title>
<path fill="none" stroke="black" d="M154.7,-143.7C156.81,-135.9 159.36,-126.51 161.72,-117.83"/>
<polygon fill="black" stroke="black" points="165.12,-118.67 164.36,-108.1 158.36,-116.84 165.12,-118.67"/>
<g id="a_edge3&#45;headlabel"><a xlink:href="dir_000125_000023.html" target="_top" xlink:title="5">
<text text-anchor="middle" x="166.91" y="-120.38" font-family="Helvetica,sans-Serif" font-size="10.00">5</text>
</a>
</g>
</g>
<!-- dir_59388288c2adeeeb443ad934bc39e9e7&#45;&gt;dir_308afe6c0c0e65dd84efc4369dd1efeb -->
<g id="edge5" class="edge">
<title>dir_59388288c2adeeeb443ad934bc39e9e7&#45;&gt;dir_308afe6c0c0e65dd84efc4369dd1efeb</title>
<path fill="none" stroke="black" d="M187.08,-252.1C178.42,-260.8 166.81,-271.52 155.81,-281.03"/>
<polygon fill="black" stroke="black" points="153.31,-278.56 147.95,-287.7 157.84,-283.9 153.31,-278.56"/>
<g id="a_edge5&#45;headlabel"><a xlink:href="dir_000010_000065.html" target="_top" xlink:title="50">
<text text-anchor="middle" x="154.22" y="-271.57" font-family="Helvetica,sans-Serif" font-size="10.00">50</text>
</a>
</g>
</g>
<!-- dir_59388288c2adeeeb443ad934bc39e9e7&#45;&gt;dir_593657602c74fd2b2e9635270b1bdea2 -->
<g id="edge6" class="edge">
<title>dir_59388288c2adeeeb443ad934bc39e9e7&#45;&gt;dir_593657602c74fd2b2e9635270b1bdea2</title>
<path fill="none" stroke="black" d="M187.64,-215.7C181.77,-207.47 174.63,-197.48 168.16,-188.42"/>
<polygon fill="black" stroke="black" points="170.88,-186.21 162.22,-180.1 165.18,-190.28 170.88,-186.21"/>
<g id="a_edge6&#45;headlabel"><a xlink:href="dir_000010_000125.html" target="_top" xlink:title="2">
<text text-anchor="middle" x="175.28" y="-184.98" font-family="Helvetica,sans-Serif" font-size="10.00">2</text>
</a>
</g>
</g>
<!-- dir_686a2d3b8380929f3bfddf3b00ff951b&#45;&gt;dir_7370e63381a3da0a5abca9ffd8b57676 -->
<g id="edge4" class="edge">
<title>dir_686a2d3b8380929f3bfddf3b00ff951b&#45;&gt;dir_7370e63381a3da0a5abca9ffd8b57676</title>
<path fill="none" stroke="black" d="M118.98,-36.1C128.89,-44.64 140.15,-55.11 149.55,-64.48"/>
<polygon fill="black" stroke="black" points="147.12,-67 156.62,-71.7 152.12,-62.1 147.12,-67"/>
<g id="a_edge4&#45;headlabel"><a xlink:href="dir_000049_000023.html" target="_top" xlink:title="1">
<text text-anchor="middle" x="142.58" y="-63.92" font-family="Helvetica,sans-Serif" font-size="10.00">1</text>
</a>
</g>
</g>
<!-- dir_7370e63381a3da0a5abca9ffd8b57676&#45;&gt;dir_686a2d3b8380929f3bfddf3b00ff951b -->
<g id="edge7" class="edge">
<title>dir_7370e63381a3da0a5abca9ffd8b57676&#45;&gt;dir_686a2d3b8380929f3bfddf3b00ff951b</title>
<path fill="none" stroke="black" d="M144.79,-71.7C134.86,-63.14 123.6,-52.66 114.23,-43.3"/>
<polygon fill="black" stroke="black" points="116.68,-40.8 107.19,-36.1 111.68,-45.7 116.68,-40.8"/>
<g id="a_edge7&#45;headlabel"><a xlink:href="dir_000023_000049.html" target="_top" xlink:title="1">
<text text-anchor="middle" x="121.23" y="-38.89" font-family="Helvetica,sans-Serif" font-size="10.00">1</text>
</a>
</g>
</g>
</g>
</svg>
