<?xml version="1.0" encoding="UTF-8" standalone="no"?>
<!DOCTYPE svg PUBLIC "-//W3C//DTD SVG 1.1//EN"
 "http://www.w3.org/Graphics/SVG/1.1/DTD/svg11.dtd">
<!-- Generated by graphviz version 2.43.0 (0)
 -->
<!-- Title: /home/nico/joda_tmp/tmp&#45;joda&#45;dirs/JODA&#45;gh/libs/joda/core/modules/query/project/src Pages: 1 -->
<svg width="208pt" height="175pt"
 viewBox="0.00 0.00 208.00 175.00" xmlns="http://www.w3.org/2000/svg" xmlns:xlink="http://www.w3.org/1999/xlink">
<g id="graph0" class="graph" transform="scale(1 1) rotate(0) translate(4 171)">
<title>/home/nico/joda_tmp/tmp&#45;joda&#45;dirs/JODA&#45;gh/libs/joda/core/modules/query/project/src</title>
<polygon fill="white" stroke="transparent" points="-4,4 -4,-171 204,-171 204,4 -4,4"/>
<g id="clust1" class="cluster">
<title>clusterdir_99e76b3dab188443dd9eb7fee6aac774</title>
<g id="a_clust1"><a xlink:href="dir_99e76b3dab188443dd9eb7fee6aac774.html" target="_top" xlink:title="project">
<polygon fill="#ddddee" stroke="black" points="8,-8 8,-159 192,-159 192,-8 8,-8"/>
<text text-anchor="middle" x="100" y="-147" font-family="Helvetica,sans-Serif" font-size="10.00">project</text>
</a>
</g>
</g>
<g id="clust2" class="cluster">
<title>clusterdir_c595ae7e72827afe8c5321bdcd3a7aa2</title>
<g id="a_clust2"><a xlink:href="dir_c595ae7e72827afe8c5321bdcd3a7aa2.html" target="_top">
<polygon fill="#eeeeff" stroke="black" points="16,-80 16,-132 184,-132 184,-80 16,-80"/>
</a>
</g>
</g>
<!-- dir_957c38b6a4c013403daa5c45874919d8 -->
<g id="node1" class="node">
<title>dir_957c38b6a4c013403daa5c45874919d8</title>
<g id="a_node1"><a xlink:href="dir_957c38b6a4c013403daa5c45874919d8.html" target="_top" xlink:title="include">
<polygon fill="white" stroke="red" points="91,-52 37,-52 37,-16 91,-16 91,-52"/>
<text text-anchor="middle" x="64" y="-31.5" font-family="Helvetica,sans-Serif" font-size="10.00">include</text>
</a>
</g>
</g>
<!-- dir_c595ae7e72827afe8c5321bdcd3a7aa2 -->
<g id="node2" class="node">
<title>dir_c595ae7e72827afe8c5321bdcd3a7aa2</title>
<text text-anchor="middle" x="149" y="-103.5" font-family="Helvetica,sans-Serif" font-size="10.00">src</text>
</g>
<!-- dir_bd8af26e2c5907016574ab380cefbbec -->
<g id="node3" class="node">
<title>dir_bd8af26e2c5907016574ab380cefbbec</title>
<g id="a_node3"><a xlink:href="dir_bd8af26e2c5907016574ab380cefbbec.html" target="_top" xlink:title="setprojection">
<polygon fill="white" stroke="black" points="104,-124 24,-124 24,-88 104,-88 104,-124"/>
<text text-anchor="middle" x="64" y="-103.5" font-family="Helvetica,sans-Serif" font-size="10.00">setprojection</text>
</a>
</g>
</g>
<!-- dir_bd8af26e2c5907016574ab380cefbbec&#45;&gt;dir_957c38b6a4c013403daa5c45874919d8 -->
<g id="edge1" class="edge">
<title>dir_bd8af26e2c5907016574ab380cefbbec&#45;&gt;dir_957c38b6a4c013403daa5c45874919d8</title>
<path fill="none" stroke="black" d="M64,-87.7C64,-79.98 64,-70.71 64,-62.11"/>
<polygon fill="black" stroke="black" points="67.5,-62.1 64,-52.1 60.5,-62.1 67.5,-62.1"/>
<g id="a_edge1&#45;headlabel"><a xlink:href="dir_000095_000090.html" target="_top" xlink:title="1">
<text text-anchor="middle" x="70.34" y="-63.2" font-family="Helvetica,sans-Serif" font-size="10.00">1</text>
</a>
</g>
</g>
</g>
</svg>
