<?xml version="1.0" encoding="UTF-8" standalone="no"?>
<!DOCTYPE svg PUBLIC "-//W3C//DTD SVG 1.1//EN"
 "http://www.w3.org/Graphics/SVG/1.1/DTD/svg11.dtd">
<!-- Generated by graphviz version 2.43.0 (0)
 -->
<!-- Title: /home/nico/projects/JODA&#45;gh/libs/joda/core/modules/query/predicate/src Pages: 1 -->
<svg width="182pt" height="303pt"
 viewBox="0.00 0.00 182.00 303.00" xmlns="http://www.w3.org/2000/svg" xmlns:xlink="http://www.w3.org/1999/xlink">
<g id="graph0" class="graph" transform="scale(1 1) rotate(0) translate(4 299)">
<title>/home/nico/projects/JODA&#45;gh/libs/joda/core/modules/query/predicate/src</title>
<polygon fill="white" stroke="transparent" points="-4,4 -4,-299 178,-299 178,4 -4,4"/>
<g id="clust1" class="cluster">
<title>clusterdir_1efb1bf1631d4f4540499539a6adab96</title>
<g id="a_clust1"><a xlink:href="dir_1efb1bf1631d4f4540499539a6adab96.html" target="_top" xlink:title="predicate">
<polygon fill="#ddddee" stroke="black" points="8,-200 8,-287 166,-287 166,-200 8,-200"/>
<text text-anchor="middle" x="87" y="-275" font-family="Helvetica,sans-Serif" font-size="10.00">predicate</text>
</a>
</g>
</g>
<g id="clust2" class="cluster">
<title>clusterdir_b780a7a783bbbd14dea977b61a35b617</title>
<g id="a_clust2"><a xlink:href="dir_b780a7a783bbbd14dea977b61a35b617.html" target="_top">
<polygon fill="#eeeeff" stroke="black" points="16,-208 16,-260 158,-260 158,-208 16,-208"/>
</a>
</g>
</g>
<!-- dir_b780a7a783bbbd14dea977b61a35b617 -->
<g id="node1" class="node">
<title>dir_b780a7a783bbbd14dea977b61a35b617</title>
<text text-anchor="middle" x="51" y="-231.5" font-family="Helvetica,sans-Serif" font-size="10.00">src</text>
</g>
<!-- dir_7adee42121e985c875ec5732d0d89f93 -->
<g id="node4" class="node">
<title>dir_7adee42121e985c875ec5732d0d89f93</title>
<g id="a_node4"><a xlink:href="dir_7adee42121e985c875ec5732d0d89f93.html" target="_top" xlink:title="include">
<polygon fill="white" stroke="red" points="133,-108 79,-108 79,-72 133,-72 133,-108"/>
<text text-anchor="middle" x="106" y="-87.5" font-family="Helvetica,sans-Serif" font-size="10.00">include</text>
</a>
</g>
</g>
<!-- dir_b780a7a783bbbd14dea977b61a35b617&#45;&gt;dir_7adee42121e985c875ec5732d0d89f93 -->
<g id="edge1" class="edge">
<title>dir_b780a7a783bbbd14dea977b61a35b617&#45;&gt;dir_7adee42121e985c875ec5732d0d89f93</title>
<path fill="none" stroke="black" d="M52.7,-215.67C54.95,-197.29 59.89,-167.69 70,-144 74.08,-134.43 79.99,-124.78 85.84,-116.39"/>
<polygon fill="black" stroke="black" points="88.78,-118.29 91.84,-108.15 83.12,-114.17 88.78,-118.29"/>
<g id="a_edge1&#45;headlabel"><a xlink:href="dir_000086_000082.html" target="_top" xlink:title="43">
<text text-anchor="middle" x="88.96" y="-120.37" font-family="Helvetica,sans-Serif" font-size="10.00">43</text>
</a>
</g>
</g>
<!-- dir_7fab4c9f6ff98d8e5daf9dd22a287031 -->
<g id="node5" class="node">
<title>dir_7fab4c9f6ff98d8e5daf9dd22a287031</title>
<g id="a_node5"><a xlink:href="dir_7fab4c9f6ff98d8e5daf9dd22a287031.html" target="_top" xlink:title="values">
<polygon fill="white" stroke="red" points="133,-36 79,-36 79,0 133,0 133,-36"/>
<text text-anchor="middle" x="106" y="-15.5" font-family="Helvetica,sans-Serif" font-size="10.00">values</text>
</a>
</g>
</g>
<!-- dir_b780a7a783bbbd14dea977b61a35b617&#45;&gt;dir_7fab4c9f6ff98d8e5daf9dd22a287031 -->
<g id="edge2" class="edge">
<title>dir_b780a7a783bbbd14dea977b61a35b617&#45;&gt;dir_7fab4c9f6ff98d8e5daf9dd22a287031</title>
<path fill="none" stroke="black" d="M49.96,-215.75C48.77,-185.39 49.23,-120.97 70,-72 74.06,-62.42 79.96,-52.77 85.81,-44.38"/>
<polygon fill="black" stroke="black" points="88.75,-46.28 91.81,-36.14 83.09,-42.16 88.75,-46.28"/>
<g id="a_edge2&#45;headlabel"><a xlink:href="dir_000086_000097.html" target="_top" xlink:title="8">
<text text-anchor="middle" x="88.93" y="-48.36" font-family="Helvetica,sans-Serif" font-size="10.00">8</text>
</a>
</g>
</g>
<!-- dir_40b9ec68892f5ff2845558eee8f0f22d -->
<g id="node2" class="node">
<title>dir_40b9ec68892f5ff2845558eee8f0f22d</title>
<g id="a_node2"><a xlink:href="dir_40b9ec68892f5ff2845558eee8f0f22d.html" target="_top" xlink:title="visitors">
<polygon fill="white" stroke="red" points="150,-252 96,-252 96,-216 150,-216 150,-252"/>
<text text-anchor="middle" x="123" y="-231.5" font-family="Helvetica,sans-Serif" font-size="10.00">visitors</text>
</a>
</g>
</g>
<!-- dir_9ee1ff28d9eaa51194f1ce4491cf4ecc -->
<g id="node3" class="node">
<title>dir_9ee1ff28d9eaa51194f1ce4491cf4ecc</title>
<g id="a_node3"><a xlink:href="dir_9ee1ff28d9eaa51194f1ce4491cf4ecc.html" target="_top" xlink:title="include">
<polygon fill="white" stroke="red" points="133,-180 79,-180 79,-144 133,-144 133,-180"/>
<text text-anchor="middle" x="106" y="-159.5" font-family="Helvetica,sans-Serif" font-size="10.00">include</text>
</a>
</g>
</g>
<!-- dir_40b9ec68892f5ff2845558eee8f0f22d&#45;&gt;dir_9ee1ff28d9eaa51194f1ce4491cf4ecc -->
<g id="edge5" class="edge">
<title>dir_40b9ec68892f5ff2845558eee8f0f22d&#45;&gt;dir_9ee1ff28d9eaa51194f1ce4491cf4ecc</title>
<path fill="none" stroke="black" d="M118.8,-215.7C116.9,-207.9 114.62,-198.51 112.52,-189.83"/>
<polygon fill="black" stroke="black" points="115.92,-189 110.15,-180.1 109.11,-190.65 115.92,-189"/>
<g id="a_edge5&#45;headlabel"><a xlink:href="dir_000087_000078.html" target="_top" xlink:title="1">
<text text-anchor="middle" x="119.52" y="-189.32" font-family="Helvetica,sans-Serif" font-size="10.00">1</text>
</a>
</g>
</g>
<!-- dir_40b9ec68892f5ff2845558eee8f0f22d&#45;&gt;dir_7adee42121e985c875ec5732d0d89f93 -->
<g id="edge6" class="edge">
<title>dir_40b9ec68892f5ff2845558eee8f0f22d&#45;&gt;dir_7adee42121e985c875ec5732d0d89f93</title>
<path fill="none" stroke="black" d="M131.85,-215.71C139.92,-197.61 149.52,-168.46 142,-144 138.99,-134.22 133.49,-124.62 127.68,-116.33"/>
<polygon fill="black" stroke="black" points="130.41,-114.13 121.61,-108.23 124.81,-118.33 130.41,-114.13"/>
<g id="a_edge6&#45;headlabel"><a xlink:href="dir_000087_000082.html" target="_top" xlink:title="35">
<text text-anchor="middle" x="134.83" y="-112.8" font-family="Helvetica,sans-Serif" font-size="10.00">35</text>
</a>
</g>
</g>
<!-- dir_40b9ec68892f5ff2845558eee8f0f22d&#45;&gt;dir_7fab4c9f6ff98d8e5daf9dd22a287031 -->
<g id="edge7" class="edge">
<title>dir_40b9ec68892f5ff2845558eee8f0f22d&#45;&gt;dir_7fab4c9f6ff98d8e5daf9dd22a287031</title>
<path fill="none" stroke="black" d="M137.75,-215.63C145.09,-205.85 153.19,-193.01 157,-180 161.5,-164.65 158.64,-159.92 157,-144 153.65,-111.49 154.76,-102.09 142,-72 137.94,-62.42 132.04,-52.77 126.19,-44.38"/>
<polygon fill="black" stroke="black" points="128.91,-42.16 120.19,-36.14 123.25,-46.28 128.91,-42.16"/>
<g id="a_edge7&#45;headlabel"><a xlink:href="dir_000087_000097.html" target="_top" xlink:title="5">
<text text-anchor="middle" x="133.32" y="-40.89" font-family="Helvetica,sans-Serif" font-size="10.00">5</text>
</a>
</g>
</g>
<!-- dir_9ee1ff28d9eaa51194f1ce4491cf4ecc&#45;&gt;dir_7adee42121e985c875ec5732d0d89f93 -->
<g id="edge3" class="edge">
<title>dir_9ee1ff28d9eaa51194f1ce4491cf4ecc&#45;&gt;dir_7adee42121e985c875ec5732d0d89f93</title>
<path fill="none" stroke="black" d="M106,-143.7C106,-135.98 106,-126.71 106,-118.11"/>
<polygon fill="black" stroke="black" points="109.5,-118.1 106,-108.1 102.5,-118.1 109.5,-118.1"/>
<g id="a_edge3&#45;headlabel"><a xlink:href="dir_000078_000082.html" target="_top" xlink:title="1">
<text text-anchor="middle" x="112.34" y="-119.2" font-family="Helvetica,sans-Serif" font-size="10.00">1</text>
</a>
</g>
</g>
<!-- dir_7adee42121e985c875ec5732d0d89f93&#45;&gt;dir_7fab4c9f6ff98d8e5daf9dd22a287031 -->
<g id="edge4" class="edge">
<title>dir_7adee42121e985c875ec5732d0d89f93&#45;&gt;dir_7fab4c9f6ff98d8e5daf9dd22a287031</title>
<path fill="none" stroke="black" d="M106,-71.7C106,-63.98 106,-54.71 106,-46.11"/>
<polygon fill="black" stroke="black" points="109.5,-46.1 106,-36.1 102.5,-46.1 109.5,-46.1"/>
<g id="a_edge4&#45;headlabel"><a xlink:href="dir_000082_000097.html" target="_top" xlink:title="3">
<text text-anchor="middle" x="112.34" y="-47.2" font-family="Helvetica,sans-Serif" font-size="10.00">3</text>
</a>
</g>
</g>
</g>
</svg>
