<?xml version="1.0" encoding="UTF-8" standalone="no"?>
<!DOCTYPE svg PUBLIC "-//W3C//DTD SVG 1.1//EN"
 "http://www.w3.org/Graphics/SVG/1.1/DTD/svg11.dtd">
<!-- Generated by graphviz version 2.43.0 (0)
 -->
<!-- Title: /home/nico/joda_tmp/tmp&#45;joda&#45;dirs/JODA&#45;gh/libs/joda/core/modules/query/include Pages: 1 -->
<svg width="336pt" height="367pt"
 viewBox="0.00 0.00 336.16 367.00" xmlns="http://www.w3.org/2000/svg" xmlns:xlink="http://www.w3.org/1999/xlink">
<g id="graph0" class="graph" transform="scale(1 1) rotate(0) translate(4 363)">
<title>/home/nico/joda_tmp/tmp&#45;joda&#45;dirs/JODA&#45;gh/libs/joda/core/modules/query/include</title>
<polygon fill="white" stroke="transparent" points="-4,4 -4,-363 332.16,-363 332.16,4 -4,4"/>
<g id="clust1" class="cluster">
<title>clusterdir_308afe6c0c0e65dd84efc4369dd1efeb</title>
<g id="a_clust1"><a xlink:href="dir_308afe6c0c0e65dd84efc4369dd1efeb.html" target="_top" xlink:title="query">
<polygon fill="#ddddee" stroke="black" points="136,-136 136,-351 294,-351 294,-136 136,-136"/>
<text text-anchor="middle" x="215" y="-339" font-family="Helvetica,sans-Serif" font-size="10.00">query</text>
</a>
</g>
</g>
<g id="clust2" class="cluster">
<title>clusterdir_9ee1ff28d9eaa51194f1ce4491cf4ecc</title>
<g id="a_clust2"><a xlink:href="dir_9ee1ff28d9eaa51194f1ce4491cf4ecc.html" target="_top">
<polygon fill="#eeeeff" stroke="black" points="144,-208 144,-260 286,-260 286,-208 144,-208"/>
</a>
</g>
</g>
<!-- dir_d2d849393176ee35a01ffd22136ef467 -->
<g id="node1" class="node">
<title>dir_d2d849393176ee35a01ffd22136ef467</title>
<g id="a_node1"><a xlink:href="dir_d2d849393176ee35a01ffd22136ef467.html" target="_top" xlink:title="aggregate">
<polygon fill="white" stroke="red" points="210,-180 144,-180 144,-144 210,-144 210,-180"/>
<text text-anchor="middle" x="177" y="-159.5" font-family="Helvetica,sans-Serif" font-size="10.00">aggregate</text>
</a>
</g>
</g>
<!-- dir_593657602c74fd2b2e9635270b1bdea2 -->
<g id="node6" class="node">
<title>dir_593657602c74fd2b2e9635270b1bdea2</title>
<g id="a_node6"><a xlink:href="dir_593657602c74fd2b2e9635270b1bdea2.html" target="_top" xlink:title="storage">
<polygon fill="white" stroke="red" points="243,-108 189,-108 189,-72 243,-72 243,-108"/>
<text text-anchor="middle" x="216" y="-87.5" font-family="Helvetica,sans-Serif" font-size="10.00">storage</text>
</a>
</g>
</g>
<!-- dir_d2d849393176ee35a01ffd22136ef467&#45;&gt;dir_593657602c74fd2b2e9635270b1bdea2 -->
<g id="edge17" class="edge">
<title>dir_d2d849393176ee35a01ffd22136ef467&#45;&gt;dir_593657602c74fd2b2e9635270b1bdea2</title>
<path fill="none" stroke="black" d="M186.64,-143.7C191.13,-135.64 196.56,-125.89 201.52,-116.98"/>
<polygon fill="black" stroke="black" points="204.66,-118.54 206.47,-108.1 198.55,-115.14 204.66,-118.54"/>
<g id="a_edge17&#45;headlabel"><a xlink:href="dir_000071_000125.html" target="_top" xlink:title="2">
<text text-anchor="middle" x="205.39" y="-120.57" font-family="Helvetica,sans-Serif" font-size="10.00">2</text>
</a>
</g>
</g>
<!-- dir_1efb1bf1631d4f4540499539a6adab96 -->
<g id="node2" class="node">
<title>dir_1efb1bf1631d4f4540499539a6adab96</title>
<g id="a_node2"><a xlink:href="dir_1efb1bf1631d4f4540499539a6adab96.html" target="_top" xlink:title="predicate">
<polygon fill="white" stroke="red" points="248,-324 186,-324 186,-288 248,-288 248,-324"/>
<text text-anchor="middle" x="217" y="-303.5" font-family="Helvetica,sans-Serif" font-size="10.00">predicate</text>
</a>
</g>
</g>
<!-- dir_d8fa494e653d4ef16976c560955a1772 -->
<g id="node5" class="node">
<title>dir_d8fa494e653d4ef16976c560955a1772</title>
<g id="a_node5"><a xlink:href="dir_d8fa494e653d4ef16976c560955a1772.html" target="_top" xlink:title="joda">
<polygon fill="white" stroke="red" points="206,-252 152,-252 152,-216 206,-216 206,-252"/>
<text text-anchor="middle" x="179" y="-231.5" font-family="Helvetica,sans-Serif" font-size="10.00">joda</text>
</a>
</g>
</g>
<!-- dir_1efb1bf1631d4f4540499539a6adab96&#45;&gt;dir_d8fa494e653d4ef16976c560955a1772 -->
<g id="edge16" class="edge">
<title>dir_1efb1bf1631d4f4540499539a6adab96&#45;&gt;dir_d8fa494e653d4ef16976c560955a1772</title>
<path fill="none" stroke="black" d="M213.52,-287.7C209.94,-279.56 204.79,-269.69 199.49,-260.7"/>
<polygon fill="black" stroke="black" points="202.41,-258.78 194.18,-252.1 196.45,-262.45 202.41,-258.78"/>
<g id="a_edge16&#45;headlabel"><a xlink:href="dir_000081_000079.html" target="_top" xlink:title="1">
<text text-anchor="middle" x="206.71" y="-257.84" font-family="Helvetica,sans-Serif" font-size="10.00">1</text>
</a>
</g>
</g>
<!-- dir_1efb1bf1631d4f4540499539a6adab96&#45;&gt;dir_593657602c74fd2b2e9635270b1bdea2 -->
<g id="edge15" class="edge">
<title>dir_1efb1bf1631d4f4540499539a6adab96&#45;&gt;dir_593657602c74fd2b2e9635270b1bdea2</title>
<path fill="none" stroke="black" d="M248.14,-292.26C262.76,-284.83 279.29,-274.11 290,-260 323.88,-215.35 343.16,-183.24 313,-136 299.81,-115.33 274.4,-104.01 252.91,-97.9"/>
<polygon fill="black" stroke="black" points="253.61,-94.46 243.05,-95.37 251.86,-101.24 253.61,-94.46"/>
<g id="a_edge15&#45;headlabel"><a xlink:href="dir_000081_000125.html" target="_top" xlink:title="1">
<text text-anchor="middle" x="257.79" y="-90.11" font-family="Helvetica,sans-Serif" font-size="10.00">1</text>
</a>
</g>
</g>
<!-- dir_99e76b3dab188443dd9eb7fee6aac774 -->
<g id="node3" class="node">
<title>dir_99e76b3dab188443dd9eb7fee6aac774</title>
<g id="a_node3"><a xlink:href="dir_99e76b3dab188443dd9eb7fee6aac774.html" target="_top" xlink:title="project">
<polygon fill="white" stroke="red" points="282,-180 228,-180 228,-144 282,-144 282,-180"/>
<text text-anchor="middle" x="255" y="-159.5" font-family="Helvetica,sans-Serif" font-size="10.00">project</text>
</a>
</g>
</g>
<!-- dir_99e76b3dab188443dd9eb7fee6aac774&#45;&gt;dir_593657602c74fd2b2e9635270b1bdea2 -->
<g id="edge10" class="edge">
<title>dir_99e76b3dab188443dd9eb7fee6aac774&#45;&gt;dir_593657602c74fd2b2e9635270b1bdea2</title>
<path fill="none" stroke="black" d="M239.44,-143.7C234.18,-135.73 228.6,-126.1 224.07,-117.26"/>
<polygon fill="black" stroke="black" points="227.15,-115.58 219.63,-108.1 220.85,-118.63 227.15,-115.58"/>
<g id="a_edge10&#45;headlabel"><a xlink:href="dir_000089_000125.html" target="_top" xlink:title="2">
<text text-anchor="middle" x="231.27" y="-115.07" font-family="Helvetica,sans-Serif" font-size="10.00">2</text>
</a>
</g>
</g>
<!-- dir_9ee1ff28d9eaa51194f1ce4491cf4ecc -->
<g id="node4" class="node">
<title>dir_9ee1ff28d9eaa51194f1ce4491cf4ecc</title>
<text text-anchor="middle" x="251" y="-231.5" font-family="Helvetica,sans-Serif" font-size="10.00">include</text>
</g>
<!-- dir_d8fa494e653d4ef16976c560955a1772&#45;&gt;dir_d2d849393176ee35a01ffd22136ef467 -->
<g id="edge5" class="edge">
<title>dir_d8fa494e653d4ef16976c560955a1772&#45;&gt;dir_d2d849393176ee35a01ffd22136ef467</title>
<path fill="none" stroke="black" d="M178.51,-215.7C178.29,-207.98 178.02,-198.71 177.77,-190.11"/>
<polygon fill="black" stroke="black" points="181.27,-190 177.49,-180.1 174.28,-190.2 181.27,-190"/>
<g id="a_edge5&#45;headlabel"><a xlink:href="dir_000079_000071.html" target="_top" xlink:title="1">
<text text-anchor="middle" x="184.21" y="-191.01" font-family="Helvetica,sans-Serif" font-size="10.00">1</text>
</a>
</g>
</g>
<!-- dir_d8fa494e653d4ef16976c560955a1772&#45;&gt;dir_1efb1bf1631d4f4540499539a6adab96 -->
<g id="edge6" class="edge">
<title>dir_d8fa494e653d4ef16976c560955a1772&#45;&gt;dir_1efb1bf1631d4f4540499539a6adab96</title>
<path fill="none" stroke="black" d="M182.39,-252.1C185.94,-260.21 191.08,-270.08 196.38,-279.08"/>
<polygon fill="black" stroke="black" points="193.47,-281.02 201.69,-287.7 199.43,-277.35 193.47,-281.02"/>
<g id="a_edge6&#45;headlabel"><a xlink:href="dir_000079_000081.html" target="_top" xlink:title="1">
<text text-anchor="middle" x="189.16" y="-276.94" font-family="Helvetica,sans-Serif" font-size="10.00">1</text>
</a>
</g>
</g>
<!-- dir_d8fa494e653d4ef16976c560955a1772&#45;&gt;dir_99e76b3dab188443dd9eb7fee6aac774 -->
<g id="edge7" class="edge">
<title>dir_d8fa494e653d4ef16976c560955a1772&#45;&gt;dir_99e76b3dab188443dd9eb7fee6aac774</title>
<path fill="none" stroke="black" d="M197.79,-215.7C207.17,-207.05 218.68,-196.45 228.91,-187.03"/>
<polygon fill="black" stroke="black" points="231.45,-189.45 236.43,-180.1 226.7,-184.3 231.45,-189.45"/>
<g id="a_edge7&#45;headlabel"><a xlink:href="dir_000079_000089.html" target="_top" xlink:title="2">
<text text-anchor="middle" x="230.72" y="-191.48" font-family="Helvetica,sans-Serif" font-size="10.00">2</text>
</a>
</g>
</g>
<!-- dir_d8fa494e653d4ef16976c560955a1772&#45;&gt;dir_593657602c74fd2b2e9635270b1bdea2 -->
<g id="edge1" class="edge">
<title>dir_d8fa494e653d4ef16976c560955a1772&#45;&gt;dir_593657602c74fd2b2e9635270b1bdea2</title>
<path fill="none" stroke="black" d="M201.66,-215.89C205.96,-213.04 210.52,-210.27 215,-208 248.96,-190.75 273.9,-211.02 296,-180 307.35,-164.07 305.87,-152.88 296,-136 286.52,-119.79 268.81,-108.96 252.46,-102"/>
<polygon fill="black" stroke="black" points="253.65,-98.71 243.06,-98.34 251.11,-105.23 253.65,-98.71"/>
<g id="a_edge1&#45;headlabel"><a xlink:href="dir_000079_000125.html" target="_top" xlink:title="1">
<text text-anchor="middle" x="258.03" y="-94.87" font-family="Helvetica,sans-Serif" font-size="10.00">1</text>
</a>
</g>
</g>
<!-- dir_63f3c63b536605e5a905cdcef9078995 -->
<g id="node7" class="node">
<title>dir_63f3c63b536605e5a905cdcef9078995</title>
<g id="a_node7"><a xlink:href="dir_63f3c63b536605e5a905cdcef9078995.html" target="_top" xlink:title="export">
<polygon fill="white" stroke="red" points="54,-180 0,-180 0,-144 54,-144 54,-180"/>
<text text-anchor="middle" x="27" y="-159.5" font-family="Helvetica,sans-Serif" font-size="10.00">export</text>
</a>
</g>
</g>
<!-- dir_d8fa494e653d4ef16976c560955a1772&#45;&gt;dir_63f3c63b536605e5a905cdcef9078995 -->
<g id="edge2" class="edge">
<title>dir_d8fa494e653d4ef16976c560955a1772&#45;&gt;dir_63f3c63b536605e5a905cdcef9078995</title>
<path fill="none" stroke="black" d="M151.77,-220.67C130.07,-210.83 98.71,-196.54 63.22,-180.08"/>
<polygon fill="black" stroke="black" points="64.65,-176.88 54.11,-175.85 61.7,-183.23 64.65,-176.88"/>
<g id="a_edge2&#45;headlabel"><a xlink:href="dir_000079_000028.html" target="_top" xlink:title="1">
<text text-anchor="middle" x="69.11" y="-173.32" font-family="Helvetica,sans-Serif" font-size="10.00">1</text>
</a>
</g>
</g>
<!-- dir_330813092258a011b683878a00fa0d9e -->
<g id="node8" class="node">
<title>dir_330813092258a011b683878a00fa0d9e</title>
<g id="a_node8"><a xlink:href="dir_330813092258a011b683878a00fa0d9e.html" target="_top" xlink:title="join">
<polygon fill="white" stroke="red" points="243,-36 189,-36 189,0 243,0 243,-36"/>
<text text-anchor="middle" x="216" y="-15.5" font-family="Helvetica,sans-Serif" font-size="10.00">join</text>
</a>
</g>
</g>
<!-- dir_d8fa494e653d4ef16976c560955a1772&#45;&gt;dir_330813092258a011b683878a00fa0d9e -->
<g id="edge3" class="edge">
<title>dir_d8fa494e653d4ef16976c560955a1772&#45;&gt;dir_330813092258a011b683878a00fa0d9e</title>
<path fill="none" stroke="black" d="M201.16,-215.94C205.59,-213.02 210.32,-210.22 215,-208 255.93,-188.6 285.72,-216.16 313,-180 347.75,-133.94 288.22,-74.7 248.07,-42.46"/>
<polygon fill="black" stroke="black" points="250.11,-39.61 240.09,-36.19 245.79,-45.12 250.11,-39.61"/>
<g id="a_edge3&#45;headlabel"><a xlink:href="dir_000079_000044.html" target="_top" xlink:title="1">
<text text-anchor="middle" x="254.7" y="-37.1" font-family="Helvetica,sans-Serif" font-size="10.00">1</text>
</a>
</g>
</g>
<!-- dir_62b8f01a6102de05602805a3c9feb8cc -->
<g id="node9" class="node">
<title>dir_62b8f01a6102de05602805a3c9feb8cc</title>
<g id="a_node9"><a xlink:href="dir_62b8f01a6102de05602805a3c9feb8cc.html" target="_top" xlink:title="parser">
<polygon fill="white" stroke="red" points="126,-180 72,-180 72,-144 126,-144 126,-180"/>
<text text-anchor="middle" x="99" y="-159.5" font-family="Helvetica,sans-Serif" font-size="10.00">parser</text>
</a>
</g>
</g>
<!-- dir_d8fa494e653d4ef16976c560955a1772&#45;&gt;dir_62b8f01a6102de05602805a3c9feb8cc -->
<g id="edge4" class="edge">
<title>dir_d8fa494e653d4ef16976c560955a1772&#45;&gt;dir_62b8f01a6102de05602805a3c9feb8cc</title>
<path fill="none" stroke="black" d="M159.22,-215.7C149.25,-206.97 136.99,-196.24 126.14,-186.75"/>
<polygon fill="black" stroke="black" points="128.38,-184.06 118.55,-180.1 123.77,-189.32 128.38,-184.06"/>
<g id="a_edge4&#45;headlabel"><a xlink:href="dir_000079_000061.html" target="_top" xlink:title="1">
<text text-anchor="middle" x="132.95" y="-181.79" font-family="Helvetica,sans-Serif" font-size="10.00">1</text>
</a>
</g>
</g>
<!-- dir_593657602c74fd2b2e9635270b1bdea2&#45;&gt;dir_99e76b3dab188443dd9eb7fee6aac774 -->
<g id="edge9" class="edge">
<title>dir_593657602c74fd2b2e9635270b1bdea2&#45;&gt;dir_99e76b3dab188443dd9eb7fee6aac774</title>
<path fill="none" stroke="black" d="M231.42,-108.1C236.68,-116.04 242.27,-125.67 246.81,-134.51"/>
<polygon fill="black" stroke="black" points="243.76,-136.23 251.28,-143.7 250.05,-133.17 243.76,-136.23"/>
<g id="a_edge9&#45;headlabel"><a xlink:href="dir_000125_000089.html" target="_top" xlink:title="3">
<text text-anchor="middle" x="239.63" y="-131.74" font-family="Helvetica,sans-Serif" font-size="10.00">3</text>
</a>
</g>
</g>
<!-- dir_593657602c74fd2b2e9635270b1bdea2&#45;&gt;dir_330813092258a011b683878a00fa0d9e -->
<g id="edge8" class="edge">
<title>dir_593657602c74fd2b2e9635270b1bdea2&#45;&gt;dir_330813092258a011b683878a00fa0d9e</title>
<path fill="none" stroke="black" d="M210.08,-71.7C209.29,-63.98 209.06,-54.71 209.4,-46.11"/>
<polygon fill="black" stroke="black" points="212.9,-46.32 210.1,-36.1 205.92,-45.84 212.9,-46.32"/>
<g id="a_edge8&#45;headlabel"><a xlink:href="dir_000125_000044.html" target="_top" xlink:title="4">
<text text-anchor="middle" x="215.48" y="-47.61" font-family="Helvetica,sans-Serif" font-size="10.00">4</text>
</a>
</g>
</g>
<!-- dir_63f3c63b536605e5a905cdcef9078995&#45;&gt;dir_593657602c74fd2b2e9635270b1bdea2 -->
<g id="edge12" class="edge">
<title>dir_63f3c63b536605e5a905cdcef9078995&#45;&gt;dir_593657602c74fd2b2e9635270b1bdea2</title>
<path fill="none" stroke="black" d="M49.18,-143.97C53.61,-141.05 58.33,-138.23 63,-136 100.58,-118.01 146.85,-105.62 178.61,-98.46"/>
<polygon fill="black" stroke="black" points="179.76,-101.79 188.78,-96.24 178.27,-94.95 179.76,-101.79"/>
<g id="a_edge12&#45;headlabel"><a xlink:href="dir_000028_000125.html" target="_top" xlink:title="3">
<text text-anchor="middle" x="176.86" y="-102.83" font-family="Helvetica,sans-Serif" font-size="10.00">3</text>
</a>
</g>
</g>
<!-- dir_63f3c63b536605e5a905cdcef9078995&#45;&gt;dir_330813092258a011b683878a00fa0d9e -->
<g id="edge13" class="edge">
<title>dir_63f3c63b536605e5a905cdcef9078995&#45;&gt;dir_330813092258a011b683878a00fa0d9e</title>
<path fill="none" stroke="black" d="M49.8,-143.87C83.57,-118.5 146.98,-70.85 184.96,-42.32"/>
<polygon fill="black" stroke="black" points="187.23,-44.99 193.12,-36.19 183.02,-39.4 187.23,-44.99"/>
<g id="a_edge13&#45;headlabel"><a xlink:href="dir_000028_000044.html" target="_top" xlink:title="1">
<text text-anchor="middle" x="186.06" y="-46.92" font-family="Helvetica,sans-Serif" font-size="10.00">1</text>
</a>
</g>
</g>
<!-- dir_330813092258a011b683878a00fa0d9e&#45;&gt;dir_593657602c74fd2b2e9635270b1bdea2 -->
<g id="edge11" class="edge">
<title>dir_330813092258a011b683878a00fa0d9e&#45;&gt;dir_593657602c74fd2b2e9635270b1bdea2</title>
<path fill="none" stroke="black" d="M221.9,-36.1C222.7,-43.79 222.94,-53.05 222.6,-61.67"/>
<polygon fill="black" stroke="black" points="219.11,-61.48 221.92,-71.7 226.09,-61.96 219.11,-61.48"/>
<g id="a_edge11&#45;headlabel"><a xlink:href="dir_000044_000125.html" target="_top" xlink:title="6">
<text text-anchor="middle" x="216.52" y="-55.2" font-family="Helvetica,sans-Serif" font-size="10.00">6</text>
</a>
</g>
</g>
<!-- dir_62b8f01a6102de05602805a3c9feb8cc&#45;&gt;dir_593657602c74fd2b2e9635270b1bdea2 -->
<g id="edge14" class="edge">
<title>dir_62b8f01a6102de05602805a3c9feb8cc&#45;&gt;dir_593657602c74fd2b2e9635270b1bdea2</title>
<path fill="none" stroke="black" d="M120.67,-143.83C124.38,-141.11 128.25,-138.41 132,-136 147.22,-126.24 164.76,-116.61 179.86,-108.78"/>
<polygon fill="black" stroke="black" points="181.6,-111.82 188.91,-104.15 178.41,-105.59 181.6,-111.82"/>
<g id="a_edge14&#45;headlabel"><a xlink:href="dir_000061_000125.html" target="_top" xlink:title="18">
<text text-anchor="middle" x="179.69" y="-113.49" font-family="Helvetica,sans-Serif" font-size="10.00">18</text>
</a>
</g>
</g>
</g>
</svg>
