<?xml version="1.0" encoding="UTF-8" standalone="no"?>
<!DOCTYPE svg PUBLIC "-//W3C//DTD SVG 1.1//EN"
 "http://www.w3.org/Graphics/SVG/1.1/DTD/svg11.dtd">
<!-- Generated by graphviz version 2.43.0 (0)
 -->
<!-- Title: /home/nico/joda_tmp/tmp&#45;joda&#45;dirs/JODA&#45;gh/libs/joda/core/modules/query/include/joda Pages: 1 -->
<svg width="372pt" height="303pt"
 viewBox="0.00 0.00 372.09 303.00" xmlns="http://www.w3.org/2000/svg" xmlns:xlink="http://www.w3.org/1999/xlink">
<g id="graph0" class="graph" transform="scale(1 1) rotate(0) translate(4 299)">
<title>/home/nico/joda_tmp/tmp&#45;joda&#45;dirs/JODA&#45;gh/libs/joda/core/modules/query/include/joda</title>
<polygon fill="white" stroke="transparent" points="-4,4 -4,-299 368.09,-299 368.09,4 -4,4"/>
<g id="clust1" class="cluster">
<title>clusterdir_9ee1ff28d9eaa51194f1ce4491cf4ecc</title>
<g id="a_clust1"><a xlink:href="dir_9ee1ff28d9eaa51194f1ce4491cf4ecc.html" target="_top" xlink:title="include">
<polygon fill="#ddddee" stroke="black" points="139.05,-200 139.05,-287 297.05,-287 297.05,-200 139.05,-200"/>
<text text-anchor="middle" x="218.05" y="-275" font-family="Helvetica,sans-Serif" font-size="10.00">include</text>
</a>
</g>
</g>
<g id="clust2" class="cluster">
<title>clusterdir_d8fa494e653d4ef16976c560955a1772</title>
<g id="a_clust2"><a xlink:href="dir_d8fa494e653d4ef16976c560955a1772.html" target="_top">
<polygon fill="#eeeeff" stroke="black" points="147.05,-208 147.05,-260 289.05,-260 289.05,-208 147.05,-208"/>
</a>
</g>
</g>
<!-- dir_d8fa494e653d4ef16976c560955a1772 -->
<g id="node1" class="node">
<title>dir_d8fa494e653d4ef16976c560955a1772</title>
<text text-anchor="middle" x="254.05" y="-231.5" font-family="Helvetica,sans-Serif" font-size="10.00">joda</text>
</g>
<!-- dir_e00a77036ea4ef8e2a01566f41f009f6 -->
<g id="node2" class="node">
<title>dir_e00a77036ea4ef8e2a01566f41f009f6</title>
<g id="a_node2"><a xlink:href="dir_e00a77036ea4ef8e2a01566f41f009f6.html" target="_top" xlink:title="query">
<polygon fill="white" stroke="black" points="209.05,-252 155.05,-252 155.05,-216 209.05,-216 209.05,-252"/>
<text text-anchor="middle" x="182.05" y="-231.5" font-family="Helvetica,sans-Serif" font-size="10.00">query</text>
</a>
</g>
</g>
<!-- dir_593657602c74fd2b2e9635270b1bdea2 -->
<g id="node3" class="node">
<title>dir_593657602c74fd2b2e9635270b1bdea2</title>
<g id="a_node3"><a xlink:href="dir_593657602c74fd2b2e9635270b1bdea2.html" target="_top" xlink:title="storage">
<polygon fill="white" stroke="red" points="179.05,-108 125.05,-108 125.05,-72 179.05,-72 179.05,-108"/>
<text text-anchor="middle" x="152.05" y="-87.5" font-family="Helvetica,sans-Serif" font-size="10.00">storage</text>
</a>
</g>
</g>
<!-- dir_e00a77036ea4ef8e2a01566f41f009f6&#45;&gt;dir_593657602c74fd2b2e9635270b1bdea2 -->
<g id="edge6" class="edge">
<title>dir_e00a77036ea4ef8e2a01566f41f009f6&#45;&gt;dir_593657602c74fd2b2e9635270b1bdea2</title>
<path fill="none" stroke="black" d="M178.44,-215.87C173.3,-191.56 163.85,-146.82 157.76,-118.01"/>
<polygon fill="black" stroke="black" points="161.18,-117.25 155.69,-108.19 154.33,-118.7 161.18,-117.25"/>
<g id="a_edge6&#45;headlabel"><a xlink:href="dir_000080_000125.html" target="_top" xlink:title="1">
<text text-anchor="middle" x="164.7" y="-117.68" font-family="Helvetica,sans-Serif" font-size="10.00">1</text>
</a>
</g>
</g>
<!-- dir_63f3c63b536605e5a905cdcef9078995 -->
<g id="node4" class="node">
<title>dir_63f3c63b536605e5a905cdcef9078995</title>
<g id="a_node4"><a xlink:href="dir_63f3c63b536605e5a905cdcef9078995.html" target="_top" xlink:title="export">
<polygon fill="white" stroke="red" points="74.05,-180 20.05,-180 20.05,-144 74.05,-144 74.05,-180"/>
<text text-anchor="middle" x="47.05" y="-159.5" font-family="Helvetica,sans-Serif" font-size="10.00">export</text>
</a>
</g>
</g>
<!-- dir_e00a77036ea4ef8e2a01566f41f009f6&#45;&gt;dir_63f3c63b536605e5a905cdcef9078995 -->
<g id="edge8" class="edge">
<title>dir_e00a77036ea4ef8e2a01566f41f009f6&#45;&gt;dir_63f3c63b536605e5a905cdcef9078995</title>
<path fill="none" stroke="black" d="M154.74,-218.83C134.15,-208.16 105.72,-193.42 83.25,-181.77"/>
<polygon fill="black" stroke="black" points="84.82,-178.64 74.33,-177.14 81.6,-184.85 84.82,-178.64"/>
<g id="a_edge8&#45;headlabel"><a xlink:href="dir_000080_000028.html" target="_top" xlink:title="1">
<text text-anchor="middle" x="89.32" y="-175.27" font-family="Helvetica,sans-Serif" font-size="10.00">1</text>
</a>
</g>
</g>
<!-- dir_330813092258a011b683878a00fa0d9e -->
<g id="node5" class="node">
<title>dir_330813092258a011b683878a00fa0d9e</title>
<g id="a_node5"><a xlink:href="dir_330813092258a011b683878a00fa0d9e.html" target="_top" xlink:title="join">
<polygon fill="white" stroke="red" points="105.05,-36 51.05,-36 51.05,0 105.05,0 105.05,-36"/>
<text text-anchor="middle" x="78.05" y="-15.5" font-family="Helvetica,sans-Serif" font-size="10.00">join</text>
</a>
</g>
</g>
<!-- dir_e00a77036ea4ef8e2a01566f41f009f6&#45;&gt;dir_330813092258a011b683878a00fa0d9e -->
<g id="edge5" class="edge">
<title>dir_e00a77036ea4ef8e2a01566f41f009f6&#45;&gt;dir_330813092258a011b683878a00fa0d9e</title>
<path fill="none" stroke="black" d="M154.89,-233.67C115.7,-232.99 44.34,-225.16 11.05,-180 -20.54,-137.13 22.91,-77.16 53.2,-43.83"/>
<polygon fill="black" stroke="black" points="55.92,-46.05 60.19,-36.35 50.8,-41.27 55.92,-46.05"/>
<g id="a_edge5&#45;headlabel"><a xlink:href="dir_000080_000044.html" target="_top" xlink:title="1">
<text text-anchor="middle" x="55.54" y="-48.12" font-family="Helvetica,sans-Serif" font-size="10.00">1</text>
</a>
</g>
</g>
<!-- dir_62b8f01a6102de05602805a3c9feb8cc -->
<g id="node6" class="node">
<title>dir_62b8f01a6102de05602805a3c9feb8cc</title>
<g id="a_node6"><a xlink:href="dir_62b8f01a6102de05602805a3c9feb8cc.html" target="_top" xlink:title="parser">
<polygon fill="white" stroke="red" points="264.05,-180 210.05,-180 210.05,-144 264.05,-144 264.05,-180"/>
<text text-anchor="middle" x="237.05" y="-159.5" font-family="Helvetica,sans-Serif" font-size="10.00">parser</text>
</a>
</g>
</g>
<!-- dir_e00a77036ea4ef8e2a01566f41f009f6&#45;&gt;dir_62b8f01a6102de05602805a3c9feb8cc -->
<g id="edge7" class="edge">
<title>dir_e00a77036ea4ef8e2a01566f41f009f6&#45;&gt;dir_62b8f01a6102de05602805a3c9feb8cc</title>
<path fill="none" stroke="black" d="M195.65,-215.7C202.18,-207.39 210.12,-197.28 217.3,-188.14"/>
<polygon fill="black" stroke="black" points="220.19,-190.13 223.62,-180.1 214.68,-185.81 220.19,-190.13"/>
<g id="a_edge7&#45;headlabel"><a xlink:href="dir_000080_000061.html" target="_top" xlink:title="1">
<text text-anchor="middle" x="220.2" y="-192.21" font-family="Helvetica,sans-Serif" font-size="10.00">1</text>
</a>
</g>
</g>
<!-- dir_d2d849393176ee35a01ffd22136ef467 -->
<g id="node7" class="node">
<title>dir_d2d849393176ee35a01ffd22136ef467</title>
<g id="a_node7"><a xlink:href="dir_d2d849393176ee35a01ffd22136ef467.html" target="_top" xlink:title="aggregate">
<polygon fill="white" stroke="red" points="348.05,-180 282.05,-180 282.05,-144 348.05,-144 348.05,-180"/>
<text text-anchor="middle" x="315.05" y="-159.5" font-family="Helvetica,sans-Serif" font-size="10.00">aggregate</text>
</a>
</g>
</g>
<!-- dir_e00a77036ea4ef8e2a01566f41f009f6&#45;&gt;dir_d2d849393176ee35a01ffd22136ef467 -->
<g id="edge10" class="edge">
<title>dir_e00a77036ea4ef8e2a01566f41f009f6&#45;&gt;dir_d2d849393176ee35a01ffd22136ef467</title>
<path fill="none" stroke="black" d="M198.15,-215.73C204.01,-210.16 210.95,-204.31 218.05,-200 237.95,-187.93 246.83,-188.91 272,-180.19"/>
<polygon fill="black" stroke="black" points="273.44,-183.38 281.63,-176.66 271.03,-176.81 273.44,-183.38"/>
<g id="a_edge10&#45;headlabel"><a xlink:href="dir_000080_000071.html" target="_top" xlink:title="1">
<text text-anchor="middle" x="271.04" y="-184.79" font-family="Helvetica,sans-Serif" font-size="10.00">1</text>
</a>
</g>
</g>
<!-- dir_1efb1bf1631d4f4540499539a6adab96 -->
<g id="node8" class="node">
<title>dir_1efb1bf1631d4f4540499539a6adab96</title>
<g id="a_node8"><a xlink:href="dir_1efb1bf1631d4f4540499539a6adab96.html" target="_top" xlink:title="predicate">
<polygon fill="white" stroke="red" points="154.05,-180 92.05,-180 92.05,-144 154.05,-144 154.05,-180"/>
<text text-anchor="middle" x="123.05" y="-159.5" font-family="Helvetica,sans-Serif" font-size="10.00">predicate</text>
</a>
</g>
</g>
<!-- dir_e00a77036ea4ef8e2a01566f41f009f6&#45;&gt;dir_1efb1bf1631d4f4540499539a6adab96 -->
<g id="edge4" class="edge">
<title>dir_e00a77036ea4ef8e2a01566f41f009f6&#45;&gt;dir_1efb1bf1631d4f4540499539a6adab96</title>
<path fill="none" stroke="black" d="M161.55,-215.7C153.7,-207.39 144.98,-197.28 137.74,-188.14"/>
<polygon fill="black" stroke="black" points="140.44,-185.91 131.58,-180.1 134.88,-190.17 140.44,-185.91"/>
<g id="a_edge4&#45;headlabel"><a xlink:href="dir_000080_000081.html" target="_top" xlink:title="1">
<text text-anchor="middle" x="144.88" y="-184.53" font-family="Helvetica,sans-Serif" font-size="10.00">1</text>
</a>
</g>
</g>
<!-- dir_99e76b3dab188443dd9eb7fee6aac774 -->
<g id="node9" class="node">
<title>dir_99e76b3dab188443dd9eb7fee6aac774</title>
<g id="a_node9"><a xlink:href="dir_99e76b3dab188443dd9eb7fee6aac774.html" target="_top" xlink:title="project">
<polygon fill="white" stroke="red" points="179.05,-36 125.05,-36 125.05,0 179.05,0 179.05,-36"/>
<text text-anchor="middle" x="152.05" y="-15.5" font-family="Helvetica,sans-Serif" font-size="10.00">project</text>
</a>
</g>
</g>
<!-- dir_e00a77036ea4ef8e2a01566f41f009f6&#45;&gt;dir_99e76b3dab188443dd9eb7fee6aac774 -->
<g id="edge9" class="edge">
<title>dir_e00a77036ea4ef8e2a01566f41f009f6&#45;&gt;dir_99e76b3dab188443dd9eb7fee6aac774</title>
<path fill="none" stroke="black" d="M196.63,-215.91C202.65,-209.93 210.09,-203.78 218.05,-200 246.26,-186.64 336.62,-203.59 357.05,-180 367.53,-167.91 364.89,-157.95 357.05,-144 321.14,-80.04 237.73,-44.94 189.09,-29.25"/>
<polygon fill="black" stroke="black" points="189.86,-25.83 179.27,-26.2 187.78,-32.51 189.86,-25.83"/>
<g id="a_edge9&#45;headlabel"><a xlink:href="dir_000080_000089.html" target="_top" xlink:title="2">
<text text-anchor="middle" x="194.14" y="-21.69" font-family="Helvetica,sans-Serif" font-size="10.00">2</text>
</a>
</g>
</g>
<!-- dir_593657602c74fd2b2e9635270b1bdea2&#45;&gt;dir_330813092258a011b683878a00fa0d9e -->
<g id="edge1" class="edge">
<title>dir_593657602c74fd2b2e9635270b1bdea2&#45;&gt;dir_330813092258a011b683878a00fa0d9e</title>
<path fill="none" stroke="black" d="M127.85,-71.7C117.91,-63.14 106.65,-52.66 97.29,-43.3"/>
<polygon fill="black" stroke="black" points="99.74,-40.8 90.24,-36.1 94.73,-45.7 99.74,-40.8"/>
<g id="a_edge1&#45;headlabel"><a xlink:href="dir_000125_000044.html" target="_top" xlink:title="4">
<text text-anchor="middle" x="104.28" y="-38.89" font-family="Helvetica,sans-Serif" font-size="10.00">4</text>
</a>
</g>
</g>
<!-- dir_593657602c74fd2b2e9635270b1bdea2&#45;&gt;dir_99e76b3dab188443dd9eb7fee6aac774 -->
<g id="edge2" class="edge">
<title>dir_593657602c74fd2b2e9635270b1bdea2&#45;&gt;dir_99e76b3dab188443dd9eb7fee6aac774</title>
<path fill="none" stroke="black" d="M146.14,-71.7C145.34,-63.98 145.12,-54.71 145.46,-46.11"/>
<polygon fill="black" stroke="black" points="148.95,-46.32 146.16,-36.1 141.97,-45.84 148.95,-46.32"/>
<g id="a_edge2&#45;headlabel"><a xlink:href="dir_000125_000089.html" target="_top" xlink:title="3">
<text text-anchor="middle" x="151.53" y="-47.61" font-family="Helvetica,sans-Serif" font-size="10.00">3</text>
</a>
</g>
</g>
<!-- dir_63f3c63b536605e5a905cdcef9078995&#45;&gt;dir_593657602c74fd2b2e9635270b1bdea2 -->
<g id="edge12" class="edge">
<title>dir_63f3c63b536605e5a905cdcef9078995&#45;&gt;dir_593657602c74fd2b2e9635270b1bdea2</title>
<path fill="none" stroke="black" d="M72.74,-143.88C86.34,-134.81 103.23,-123.55 117.92,-113.76"/>
<polygon fill="black" stroke="black" points="119.89,-116.65 126.27,-108.19 116.01,-110.82 119.89,-116.65"/>
<g id="a_edge12&#45;headlabel"><a xlink:href="dir_000028_000125.html" target="_top" xlink:title="3">
<text text-anchor="middle" x="118.47" y="-118.51" font-family="Helvetica,sans-Serif" font-size="10.00">3</text>
</a>
</g>
</g>
<!-- dir_63f3c63b536605e5a905cdcef9078995&#45;&gt;dir_330813092258a011b683878a00fa0d9e -->
<g id="edge13" class="edge">
<title>dir_63f3c63b536605e5a905cdcef9078995&#45;&gt;dir_330813092258a011b683878a00fa0d9e</title>
<path fill="none" stroke="black" d="M50.79,-143.87C56.1,-119.56 65.87,-74.82 72.16,-46.01"/>
<polygon fill="black" stroke="black" points="75.59,-46.71 74.3,-36.19 68.75,-45.21 75.59,-46.71"/>
<g id="a_edge13&#45;headlabel"><a xlink:href="dir_000028_000044.html" target="_top" xlink:title="1">
<text text-anchor="middle" x="77.6" y="-48.32" font-family="Helvetica,sans-Serif" font-size="10.00">1</text>
</a>
</g>
</g>
<!-- dir_330813092258a011b683878a00fa0d9e&#45;&gt;dir_593657602c74fd2b2e9635270b1bdea2 -->
<g id="edge11" class="edge">
<title>dir_330813092258a011b683878a00fa0d9e&#45;&gt;dir_593657602c74fd2b2e9635270b1bdea2</title>
<path fill="none" stroke="black" d="M102.03,-36.1C111.94,-44.64 123.21,-55.11 132.6,-64.48"/>
<polygon fill="black" stroke="black" points="130.18,-67 139.68,-71.7 135.18,-62.1 130.18,-67"/>
<g id="a_edge11&#45;headlabel"><a xlink:href="dir_000044_000125.html" target="_top" xlink:title="6">
<text text-anchor="middle" x="125.64" y="-63.92" font-family="Helvetica,sans-Serif" font-size="10.00">6</text>
</a>
</g>
</g>
<!-- dir_62b8f01a6102de05602805a3c9feb8cc&#45;&gt;dir_593657602c74fd2b2e9635270b1bdea2 -->
<g id="edge14" class="edge">
<title>dir_62b8f01a6102de05602805a3c9feb8cc&#45;&gt;dir_593657602c74fd2b2e9635270b1bdea2</title>
<path fill="none" stroke="black" d="M216.04,-143.7C205.34,-134.88 192.16,-124.03 180.56,-114.47"/>
<polygon fill="black" stroke="black" points="182.77,-111.76 172.82,-108.1 178.32,-117.16 182.77,-111.76"/>
<g id="a_edge14&#45;headlabel"><a xlink:href="dir_000061_000125.html" target="_top" xlink:title="18">
<text text-anchor="middle" x="187.35" y="-109.35" font-family="Helvetica,sans-Serif" font-size="10.00">18</text>
</a>
</g>
</g>
<!-- dir_d2d849393176ee35a01ffd22136ef467&#45;&gt;dir_593657602c74fd2b2e9635270b1bdea2 -->
<g id="edge17" class="edge">
<title>dir_d2d849393176ee35a01ffd22136ef467&#45;&gt;dir_593657602c74fd2b2e9635270b1bdea2</title>
<path fill="none" stroke="black" d="M281.68,-146.67C254.6,-135.04 216.48,-118.67 188.59,-106.69"/>
<polygon fill="black" stroke="black" points="189.75,-103.38 179.18,-102.65 186.99,-109.81 189.75,-103.38"/>
<g id="a_edge17&#45;headlabel"><a xlink:href="dir_000071_000125.html" target="_top" xlink:title="2">
<text text-anchor="middle" x="194.18" y="-99.69" font-family="Helvetica,sans-Serif" font-size="10.00">2</text>
</a>
</g>
</g>
<!-- dir_1efb1bf1631d4f4540499539a6adab96&#45;&gt;dir_e00a77036ea4ef8e2a01566f41f009f6 -->
<g id="edge16" class="edge">
<title>dir_1efb1bf1631d4f4540499539a6adab96&#45;&gt;dir_e00a77036ea4ef8e2a01566f41f009f6</title>
<path fill="none" stroke="black" d="M143.37,-180.1C151.21,-188.38 159.94,-198.49 167.2,-207.64"/>
<polygon fill="black" stroke="black" points="164.52,-209.9 173.39,-215.7 170.07,-205.63 164.52,-209.9"/>
<g id="a_edge16&#45;headlabel"><a xlink:href="dir_000081_000080.html" target="_top" xlink:title="1">
<text text-anchor="middle" x="160.08" y="-206.28" font-family="Helvetica,sans-Serif" font-size="10.00">1</text>
</a>
</g>
</g>
<!-- dir_1efb1bf1631d4f4540499539a6adab96&#45;&gt;dir_593657602c74fd2b2e9635270b1bdea2 -->
<g id="edge15" class="edge">
<title>dir_1efb1bf1631d4f4540499539a6adab96&#45;&gt;dir_593657602c74fd2b2e9635270b1bdea2</title>
<path fill="none" stroke="black" d="M130.22,-143.7C133.49,-135.81 137.43,-126.3 141.06,-117.55"/>
<polygon fill="black" stroke="black" points="144.37,-118.68 144.97,-108.1 137.91,-116 144.37,-118.68"/>
<g id="a_edge15&#45;headlabel"><a xlink:href="dir_000081_000125.html" target="_top" xlink:title="1">
<text text-anchor="middle" x="145.62" y="-120.59" font-family="Helvetica,sans-Serif" font-size="10.00">1</text>
</a>
</g>
</g>
<!-- dir_99e76b3dab188443dd9eb7fee6aac774&#45;&gt;dir_593657602c74fd2b2e9635270b1bdea2 -->
<g id="edge3" class="edge">
<title>dir_99e76b3dab188443dd9eb7fee6aac774&#45;&gt;dir_593657602c74fd2b2e9635270b1bdea2</title>
<path fill="none" stroke="black" d="M157.95,-36.1C158.75,-43.79 158.99,-53.05 158.66,-61.67"/>
<polygon fill="black" stroke="black" points="155.16,-61.48 157.97,-71.7 162.15,-61.96 155.16,-61.48"/>
<g id="a_edge3&#45;headlabel"><a xlink:href="dir_000089_000125.html" target="_top" xlink:title="2">
<text text-anchor="middle" x="152.58" y="-55.2" font-family="Helvetica,sans-Serif" font-size="10.00">2</text>
</a>
</g>
</g>
</g>
</svg>
