<?xml version="1.0" encoding="UTF-8" standalone="no"?>
<!DOCTYPE svg PUBLIC "-//W3C//DTD SVG 1.1//EN"
 "http://www.w3.org/Graphics/SVG/1.1/DTD/svg11.dtd">
<!-- Generated by graphviz version 2.43.0 (0)
 -->
<!-- Title: /home/nico/projects/tmp&#45;joda&#45;dirs/JODA&#45;gh/libs/joda/core/modules/queryparsing/src/grammar Pages: 1 -->
<svg width="102pt" height="151pt"
 viewBox="0.00 0.00 102.00 151.00" xmlns="http://www.w3.org/2000/svg" xmlns:xlink="http://www.w3.org/1999/xlink">
<g id="graph0" class="graph" transform="scale(1 1) rotate(0) translate(4 147)">
<title>/home/nico/projects/tmp&#45;joda&#45;dirs/JODA&#45;gh/libs/joda/core/modules/queryparsing/src/grammar</title>
<polygon fill="white" stroke="transparent" points="-4,4 -4,-147 98,-147 98,4 -4,4"/>
<g id="clust1" class="cluster">
<title>clusterdir_732ed6c83ab0be40f3c139bd0dd5c9e6</title>
<g id="a_clust1"><a xlink:href="dir_732ed6c83ab0be40f3c139bd0dd5c9e6.html" target="_top" xlink:title="src">
<polygon fill="#ddddee" stroke="black" points="8,-64 8,-135 86,-135 86,-64 8,-64"/>
<text text-anchor="middle" x="47" y="-123" font-family="Helvetica,sans-Serif" font-size="10.00">src</text>
</a>
</g>
</g>
<!-- dir_f31674020324ca37a0210a82ec100387 -->
<g id="node1" class="node">
<title>dir_f31674020324ca37a0210a82ec100387</title>
<g id="a_node1"><a xlink:href="dir_f31674020324ca37a0210a82ec100387.html" target="_top" xlink:title="grammar">
<polygon fill="#eeeeff" stroke="black" points="78,-108 16,-108 16,-72 78,-72 78,-108"/>
<text text-anchor="middle" x="47" y="-87.5" font-family="Helvetica,sans-Serif" font-size="10.00">grammar</text>
</a>
</g>
</g>
<!-- dir_308afe6c0c0e65dd84efc4369dd1efeb -->
<g id="node2" class="node">
<title>dir_308afe6c0c0e65dd84efc4369dd1efeb</title>
<g id="a_node2"><a xlink:href="dir_308afe6c0c0e65dd84efc4369dd1efeb.html" target="_top" xlink:title="query">
<polygon fill="white" stroke="red" points="74,-36 20,-36 20,0 74,0 74,-36"/>
<text text-anchor="middle" x="47" y="-15.5" font-family="Helvetica,sans-Serif" font-size="10.00">query</text>
</a>
</g>
</g>
<!-- dir_f31674020324ca37a0210a82ec100387&#45;&gt;dir_308afe6c0c0e65dd84efc4369dd1efeb -->
<g id="edge1" class="edge">
<title>dir_f31674020324ca37a0210a82ec100387&#45;&gt;dir_308afe6c0c0e65dd84efc4369dd1efeb</title>
<path fill="none" stroke="black" d="M47,-71.7C47,-63.98 47,-54.71 47,-46.11"/>
<polygon fill="black" stroke="black" points="50.5,-46.1 47,-36.1 43.5,-46.1 50.5,-46.1"/>
<g id="a_edge1&#45;headlabel"><a xlink:href="dir_000116_000065.html" target="_top" xlink:title="6">
<text text-anchor="middle" x="53.34" y="-47.2" font-family="Helvetica,sans-Serif" font-size="10.00">6</text>
</a>
</g>
</g>
</g>
</svg>
