<?xml version="1.0" encoding="UTF-8" standalone="no"?>
<!DOCTYPE svg PUBLIC "-//W3C//DTD SVG 1.1//EN"
 "http://www.w3.org/Graphics/SVG/1.1/DTD/svg11.dtd">
<!-- Generated by graphviz version 2.43.0 (0)
 -->
<!-- Title: /home/nico/joda_tmp/tmp&#45;joda&#45;dirs/JODA&#45;gh/libs/joda/core/modules/queryparsing/src Pages: 1 -->
<svg width="256pt" height="447pt"
 viewBox="0.00 0.00 256.00 447.00" xmlns="http://www.w3.org/2000/svg" xmlns:xlink="http://www.w3.org/1999/xlink">
<g id="graph0" class="graph" transform="scale(1 1) rotate(0) translate(4 443)">
<title>/home/nico/joda_tmp/tmp&#45;joda&#45;dirs/JODA&#45;gh/libs/joda/core/modules/queryparsing/src</title>
<polygon fill="white" stroke="transparent" points="-4,4 -4,-443 252,-443 252,4 -4,4"/>
<g id="clust1" class="cluster">
<title>clusterdir_59388288c2adeeeb443ad934bc39e9e7</title>
<g id="a_clust1"><a xlink:href="dir_59388288c2adeeeb443ad934bc39e9e7.html" target="_top" xlink:title="queryparsing">
<polygon fill="#ddddee" stroke="black" points="8,-200 8,-431 236,-431 236,-200 8,-200"/>
<text text-anchor="middle" x="122" y="-419" font-family="Helvetica,sans-Serif" font-size="10.00">queryparsing</text>
</a>
</g>
</g>
<g id="clust2" class="cluster">
<title>clusterdir_732ed6c83ab0be40f3c139bd0dd5c9e6</title>
<g id="a_clust2"><a xlink:href="dir_732ed6c83ab0be40f3c139bd0dd5c9e6.html" target="_top">
<polygon fill="#eeeeff" stroke="black" points="16,-208 16,-404 166,-404 166,-208 16,-208"/>
</a>
</g>
</g>
<!-- dir_927faf48e6d39e253182568b45e6951a -->
<g id="node1" class="node">
<title>dir_927faf48e6d39e253182568b45e6951a</title>
<g id="a_node1"><a xlink:href="dir_927faf48e6d39e253182568b45e6951a.html" target="_top" xlink:title="include">
<polygon fill="white" stroke="red" points="228,-324 174,-324 174,-288 228,-288 228,-324"/>
<text text-anchor="middle" x="201" y="-303.5" font-family="Helvetica,sans-Serif" font-size="10.00">include</text>
</a>
</g>
</g>
<!-- dir_308afe6c0c0e65dd84efc4369dd1efeb -->
<g id="node7" class="node">
<title>dir_308afe6c0c0e65dd84efc4369dd1efeb</title>
<g id="a_node7"><a xlink:href="dir_308afe6c0c0e65dd84efc4369dd1efeb.html" target="_top" xlink:title="query">
<polygon fill="white" stroke="red" points="188,-180 134,-180 134,-144 188,-144 188,-180"/>
<text text-anchor="middle" x="161" y="-159.5" font-family="Helvetica,sans-Serif" font-size="10.00">query</text>
</a>
</g>
</g>
<!-- dir_927faf48e6d39e253182568b45e6951a&#45;&gt;dir_308afe6c0c0e65dd84efc4369dd1efeb -->
<g id="edge11" class="edge">
<title>dir_927faf48e6d39e253182568b45e6951a&#45;&gt;dir_308afe6c0c0e65dd84efc4369dd1efeb</title>
<path fill="none" stroke="black" d="M217.04,-287.85C225.01,-278.12 233.83,-265.27 238,-252 244.93,-229.95 250.3,-219.56 238,-200 229.06,-185.79 212.97,-176.91 197.8,-171.43"/>
<polygon fill="black" stroke="black" points="198.64,-168.02 188.05,-168.29 196.5,-174.69 198.64,-168.02"/>
<g id="a_edge11&#45;headlabel"><a xlink:href="dir_000110_000065.html" target="_top" xlink:title="1">
<text text-anchor="middle" x="202.93" y="-163.92" font-family="Helvetica,sans-Serif" font-size="10.00">1</text>
</a>
</g>
</g>
<!-- dir_732ed6c83ab0be40f3c139bd0dd5c9e6 -->
<g id="node2" class="node">
<title>dir_732ed6c83ab0be40f3c139bd0dd5c9e6</title>
<text text-anchor="middle" x="129" y="-375.5" font-family="Helvetica,sans-Serif" font-size="10.00">src</text>
</g>
<!-- dir_732ed6c83ab0be40f3c139bd0dd5c9e6&#45;&gt;dir_927faf48e6d39e253182568b45e6951a -->
<g id="edge7" class="edge">
<title>dir_732ed6c83ab0be40f3c139bd0dd5c9e6&#45;&gt;dir_927faf48e6d39e253182568b45e6951a</title>
<path fill="none" stroke="black" d="M146.8,-359.7C155.6,-351.14 166.38,-340.66 176,-331.3"/>
<polygon fill="black" stroke="black" points="178.68,-333.58 183.41,-324.1 173.8,-328.57 178.68,-333.58"/>
<g id="a_edge7&#45;headlabel"><a xlink:href="dir_000113_000110.html" target="_top" xlink:title="1">
<text text-anchor="middle" x="178.08" y="-335.63" font-family="Helvetica,sans-Serif" font-size="10.00">1</text>
</a>
</g>
</g>
<!-- dir_9b140423493065fe51de837537eda5cb -->
<g id="node3" class="node">
<title>dir_9b140423493065fe51de837537eda5cb</title>
<g id="a_node3"><a xlink:href="dir_9b140423493065fe51de837537eda5cb.html" target="_top" xlink:title="actions">
<polygon fill="white" stroke="black" points="84,-324 30,-324 30,-288 84,-288 84,-324"/>
<text text-anchor="middle" x="57" y="-303.5" font-family="Helvetica,sans-Serif" font-size="10.00">actions</text>
</a>
</g>
</g>
<!-- dir_732ed6c83ab0be40f3c139bd0dd5c9e6&#45;&gt;dir_9b140423493065fe51de837537eda5cb -->
<g id="edge8" class="edge">
<title>dir_732ed6c83ab0be40f3c139bd0dd5c9e6&#45;&gt;dir_9b140423493065fe51de837537eda5cb</title>
<path fill="none" stroke="black" d="M111.2,-359.7C102.4,-351.14 91.62,-340.66 82,-331.3"/>
<polygon fill="black" stroke="black" points="84.2,-328.57 74.59,-324.1 79.32,-333.58 84.2,-328.57"/>
<g id="a_edge8&#45;headlabel"><a xlink:href="dir_000113_000114.html" target="_top" xlink:title="1">
<text text-anchor="middle" x="88.76" y="-326.54" font-family="Helvetica,sans-Serif" font-size="10.00">1</text>
</a>
</g>
</g>
<!-- dir_5dbb5d99479c1f2610d55934fe99eb1d -->
<g id="node4" class="node">
<title>dir_5dbb5d99479c1f2610d55934fe99eb1d</title>
<g id="a_node4"><a xlink:href="dir_5dbb5d99479c1f2610d55934fe99eb1d.html" target="_top" xlink:title="error">
<polygon fill="white" stroke="black" points="156,-324 102,-324 102,-288 156,-288 156,-324"/>
<text text-anchor="middle" x="129" y="-303.5" font-family="Helvetica,sans-Serif" font-size="10.00">error</text>
</a>
</g>
</g>
<!-- dir_732ed6c83ab0be40f3c139bd0dd5c9e6&#45;&gt;dir_5dbb5d99479c1f2610d55934fe99eb1d -->
<g id="edge6" class="edge">
<title>dir_732ed6c83ab0be40f3c139bd0dd5c9e6&#45;&gt;dir_5dbb5d99479c1f2610d55934fe99eb1d</title>
<path fill="none" stroke="black" d="M129,-359.7C129,-351.98 129,-342.71 129,-334.11"/>
<polygon fill="black" stroke="black" points="132.5,-334.1 129,-324.1 125.5,-334.1 132.5,-334.1"/>
<g id="a_edge6&#45;headlabel"><a xlink:href="dir_000113_000115.html" target="_top" xlink:title="1">
<text text-anchor="middle" x="135.34" y="-335.2" font-family="Helvetica,sans-Serif" font-size="10.00">1</text>
</a>
</g>
</g>
<!-- dir_f31674020324ca37a0210a82ec100387 -->
<g id="node5" class="node">
<title>dir_f31674020324ca37a0210a82ec100387</title>
<g id="a_node5"><a xlink:href="dir_f31674020324ca37a0210a82ec100387.html" target="_top" xlink:title="grammar">
<polygon fill="white" stroke="black" points="158,-252 96,-252 96,-216 158,-216 158,-252"/>
<text text-anchor="middle" x="127" y="-231.5" font-family="Helvetica,sans-Serif" font-size="10.00">grammar</text>
</a>
</g>
</g>
<!-- dir_9b140423493065fe51de837537eda5cb&#45;&gt;dir_f31674020324ca37a0210a82ec100387 -->
<g id="edge21" class="edge">
<title>dir_9b140423493065fe51de837537eda5cb&#45;&gt;dir_f31674020324ca37a0210a82ec100387</title>
<path fill="none" stroke="black" d="M74.3,-287.7C82.86,-279.14 93.34,-268.66 102.7,-259.3"/>
<polygon fill="black" stroke="black" points="105.3,-261.65 109.9,-252.1 100.35,-256.7 105.3,-261.65"/>
<g id="a_edge21&#45;headlabel"><a xlink:href="dir_000114_000116.html" target="_top" xlink:title="7">
<text text-anchor="middle" x="104.77" y="-263.7" font-family="Helvetica,sans-Serif" font-size="10.00">7</text>
</a>
</g>
</g>
<!-- dir_985eba5476aa867a5ea5629a1c4cf505 -->
<g id="node6" class="node">
<title>dir_985eba5476aa867a5ea5629a1c4cf505</title>
<g id="a_node6"><a xlink:href="dir_985eba5476aa867a5ea5629a1c4cf505.html" target="_top" xlink:title="states">
<polygon fill="white" stroke="black" points="78,-252 24,-252 24,-216 78,-216 78,-252"/>
<text text-anchor="middle" x="51" y="-231.5" font-family="Helvetica,sans-Serif" font-size="10.00">states</text>
</a>
</g>
</g>
<!-- dir_9b140423493065fe51de837537eda5cb&#45;&gt;dir_985eba5476aa867a5ea5629a1c4cf505 -->
<g id="edge20" class="edge">
<title>dir_9b140423493065fe51de837537eda5cb&#45;&gt;dir_985eba5476aa867a5ea5629a1c4cf505</title>
<path fill="none" stroke="black" d="M55.52,-287.7C54.86,-279.98 54.06,-270.71 53.32,-262.11"/>
<polygon fill="black" stroke="black" points="56.81,-261.77 52.47,-252.1 49.83,-262.37 56.81,-261.77"/>
<g id="a_edge20&#45;headlabel"><a xlink:href="dir_000114_000117.html" target="_top" xlink:title="6">
<text text-anchor="middle" x="59.94" y="-262.61" font-family="Helvetica,sans-Serif" font-size="10.00">6</text>
</a>
</g>
</g>
<!-- dir_9b140423493065fe51de837537eda5cb&#45;&gt;dir_308afe6c0c0e65dd84efc4369dd1efeb -->
<g id="edge17" class="edge">
<title>dir_9b140423493065fe51de837537eda5cb&#45;&gt;dir_308afe6c0c0e65dd84efc4369dd1efeb</title>
<path fill="none" stroke="black" d="M84.28,-292.07C116.66,-276.7 166.39,-252.97 167,-252 178.54,-233.63 175.65,-208.72 170.68,-189.93"/>
<polygon fill="black" stroke="black" points="173.99,-188.78 167.77,-180.19 167.28,-190.78 173.99,-188.78"/>
<g id="a_edge17&#45;headlabel"><a xlink:href="dir_000114_000065.html" target="_top" xlink:title="16">
<text text-anchor="middle" x="177.73" y="-188.91" font-family="Helvetica,sans-Serif" font-size="10.00">16</text>
</a>
</g>
</g>
<!-- dir_62b8f01a6102de05602805a3c9feb8cc -->
<g id="node8" class="node">
<title>dir_62b8f01a6102de05602805a3c9feb8cc</title>
<g id="a_node8"><a xlink:href="dir_62b8f01a6102de05602805a3c9feb8cc.html" target="_top" xlink:title="parser">
<polygon fill="white" stroke="red" points="78,-108 24,-108 24,-72 78,-72 78,-108"/>
<text text-anchor="middle" x="51" y="-87.5" font-family="Helvetica,sans-Serif" font-size="10.00">parser</text>
</a>
</g>
</g>
<!-- dir_9b140423493065fe51de837537eda5cb&#45;&gt;dir_62b8f01a6102de05602805a3c9feb8cc -->
<g id="edge18" class="edge">
<title>dir_9b140423493065fe51de837537eda5cb&#45;&gt;dir_62b8f01a6102de05602805a3c9feb8cc</title>
<path fill="none" stroke="black" d="M38.4,-287.76C29.47,-278.2 19.71,-265.53 15,-252 -1.05,-205.92 20.21,-149.86 36.23,-117.52"/>
<polygon fill="black" stroke="black" points="39.52,-118.77 40.98,-108.28 33.29,-115.57 39.52,-118.77"/>
<g id="a_edge18&#45;headlabel"><a xlink:href="dir_000114_000061.html" target="_top" xlink:title="1">
<text text-anchor="middle" x="40.4" y="-120.77" font-family="Helvetica,sans-Serif" font-size="10.00">1</text>
</a>
</g>
</g>
<!-- dir_63f3c63b536605e5a905cdcef9078995 -->
<g id="node9" class="node">
<title>dir_63f3c63b536605e5a905cdcef9078995</title>
<g id="a_node9"><a xlink:href="dir_63f3c63b536605e5a905cdcef9078995.html" target="_top" xlink:title="export">
<polygon fill="white" stroke="red" points="248,-108 194,-108 194,-72 248,-72 248,-108"/>
<text text-anchor="middle" x="221" y="-87.5" font-family="Helvetica,sans-Serif" font-size="10.00">export</text>
</a>
</g>
</g>
<!-- dir_9b140423493065fe51de837537eda5cb&#45;&gt;dir_63f3c63b536605e5a905cdcef9078995 -->
<g id="edge19" class="edge">
<title>dir_9b140423493065fe51de837537eda5cb&#45;&gt;dir_63f3c63b536605e5a905cdcef9078995</title>
<path fill="none" stroke="black" d="M84.04,-291.99C87.05,-290.61 90.08,-289.26 93,-288 133.32,-270.62 156.42,-285.33 185,-252 217.44,-214.17 222.42,-153.39 222.27,-118.33"/>
<polygon fill="black" stroke="black" points="225.77,-118.26 222.09,-108.33 218.77,-118.39 225.77,-118.26"/>
<g id="a_edge19&#45;headlabel"><a xlink:href="dir_000114_000028.html" target="_top" xlink:title="4">
<text text-anchor="middle" x="228.68" y="-119.31" font-family="Helvetica,sans-Serif" font-size="10.00">4</text>
</a>
</g>
</g>
<!-- dir_5dbb5d99479c1f2610d55934fe99eb1d&#45;&gt;dir_f31674020324ca37a0210a82ec100387 -->
<g id="edge9" class="edge">
<title>dir_5dbb5d99479c1f2610d55934fe99eb1d&#45;&gt;dir_f31674020324ca37a0210a82ec100387</title>
<path fill="none" stroke="black" d="M128.51,-287.7C128.29,-279.98 128.02,-270.71 127.77,-262.11"/>
<polygon fill="black" stroke="black" points="131.27,-262 127.49,-252.1 124.28,-262.2 131.27,-262"/>
<g id="a_edge9&#45;headlabel"><a xlink:href="dir_000115_000116.html" target="_top" xlink:title="1">
<text text-anchor="middle" x="134.21" y="-263.01" font-family="Helvetica,sans-Serif" font-size="10.00">1</text>
</a>
</g>
</g>
<!-- dir_f31674020324ca37a0210a82ec100387&#45;&gt;dir_308afe6c0c0e65dd84efc4369dd1efeb -->
<g id="edge2" class="edge">
<title>dir_f31674020324ca37a0210a82ec100387&#45;&gt;dir_308afe6c0c0e65dd84efc4369dd1efeb</title>
<path fill="none" stroke="black" d="M135.4,-215.7C139.27,-207.73 143.95,-198.1 148.24,-189.26"/>
<polygon fill="black" stroke="black" points="151.47,-190.63 152.69,-180.1 145.17,-187.57 151.47,-190.63"/>
<g id="a_edge2&#45;headlabel"><a xlink:href="dir_000116_000065.html" target="_top" xlink:title="6">
<text text-anchor="middle" x="152.45" y="-192.6" font-family="Helvetica,sans-Serif" font-size="10.00">6</text>
</a>
</g>
</g>
<!-- dir_985eba5476aa867a5ea5629a1c4cf505&#45;&gt;dir_308afe6c0c0e65dd84efc4369dd1efeb -->
<g id="edge3" class="edge">
<title>dir_985eba5476aa867a5ea5629a1c4cf505&#45;&gt;dir_308afe6c0c0e65dd84efc4369dd1efeb</title>
<path fill="none" stroke="black" d="M67.75,-215.85C73.56,-210.41 80.3,-204.61 87,-200 98.69,-191.95 112.38,-184.61 124.79,-178.62"/>
<polygon fill="black" stroke="black" points="126.4,-181.73 133.97,-174.31 123.43,-175.39 126.4,-181.73"/>
<g id="a_edge3&#45;headlabel"><a xlink:href="dir_000117_000065.html" target="_top" xlink:title="5">
<text text-anchor="middle" x="124.35" y="-183.32" font-family="Helvetica,sans-Serif" font-size="10.00">5</text>
</a>
</g>
</g>
<!-- dir_985eba5476aa867a5ea5629a1c4cf505&#45;&gt;dir_62b8f01a6102de05602805a3c9feb8cc -->
<g id="edge5" class="edge">
<title>dir_985eba5476aa867a5ea5629a1c4cf505&#45;&gt;dir_62b8f01a6102de05602805a3c9feb8cc</title>
<path fill="none" stroke="black" d="M51,-215.87C51,-191.67 51,-147.21 51,-118.39"/>
<polygon fill="black" stroke="black" points="54.5,-118.19 51,-108.19 47.5,-118.19 54.5,-118.19"/>
<g id="a_edge5&#45;headlabel"><a xlink:href="dir_000117_000061.html" target="_top" xlink:title="2">
<text text-anchor="middle" x="57.34" y="-119.28" font-family="Helvetica,sans-Serif" font-size="10.00">2</text>
</a>
</g>
</g>
<!-- dir_593657602c74fd2b2e9635270b1bdea2 -->
<g id="node10" class="node">
<title>dir_593657602c74fd2b2e9635270b1bdea2</title>
<g id="a_node10"><a xlink:href="dir_593657602c74fd2b2e9635270b1bdea2.html" target="_top" xlink:title="storage">
<polygon fill="white" stroke="red" points="184,-36 130,-36 130,0 184,0 184,-36"/>
<text text-anchor="middle" x="157" y="-15.5" font-family="Helvetica,sans-Serif" font-size="10.00">storage</text>
</a>
</g>
</g>
<!-- dir_985eba5476aa867a5ea5629a1c4cf505&#45;&gt;dir_593657602c74fd2b2e9635270b1bdea2 -->
<g id="edge4" class="edge">
<title>dir_985eba5476aa867a5ea5629a1c4cf505&#45;&gt;dir_593657602c74fd2b2e9635270b1bdea2</title>
<path fill="none" stroke="black" d="M59.5,-215.85C77.99,-178.52 121.98,-89.69 143.99,-45.26"/>
<polygon fill="black" stroke="black" points="147.16,-46.75 148.46,-36.23 140.89,-43.64 147.16,-46.75"/>
<g id="a_edge4&#45;headlabel"><a xlink:href="dir_000117_000125.html" target="_top" xlink:title="2">
<text text-anchor="middle" x="148.11" y="-48.73" font-family="Helvetica,sans-Serif" font-size="10.00">2</text>
</a>
</g>
</g>
<!-- dir_308afe6c0c0e65dd84efc4369dd1efeb&#45;&gt;dir_927faf48e6d39e253182568b45e6951a -->
<g id="edge16" class="edge">
<title>dir_308afe6c0c0e65dd84efc4369dd1efeb&#45;&gt;dir_927faf48e6d39e253182568b45e6951a</title>
<path fill="none" stroke="black" d="M185.11,-180.16C191.09,-185.74 196.72,-192.47 200,-200 210.76,-224.71 209.42,-255.89 206.38,-277.83"/>
<polygon fill="black" stroke="black" points="202.91,-277.36 204.79,-287.79 209.82,-278.47 202.91,-277.36"/>
<g id="a_edge16&#45;headlabel"><a xlink:href="dir_000065_000110.html" target="_top" xlink:title="1">
<text text-anchor="middle" x="200.67" y="-270.87" font-family="Helvetica,sans-Serif" font-size="10.00">1</text>
</a>
</g>
</g>
<!-- dir_308afe6c0c0e65dd84efc4369dd1efeb&#45;&gt;dir_62b8f01a6102de05602805a3c9feb8cc -->
<g id="edge14" class="edge">
<title>dir_308afe6c0c0e65dd84efc4369dd1efeb&#45;&gt;dir_62b8f01a6102de05602805a3c9feb8cc</title>
<path fill="none" stroke="black" d="M134.09,-143.88C119.84,-134.81 102.15,-123.55 86.76,-113.76"/>
<polygon fill="black" stroke="black" points="88.33,-110.61 78.01,-108.19 84.57,-116.51 88.33,-110.61"/>
<g id="a_edge14&#45;headlabel"><a xlink:href="dir_000065_000061.html" target="_top" xlink:title="1">
<text text-anchor="middle" x="92.89" y="-107.64" font-family="Helvetica,sans-Serif" font-size="10.00">1</text>
</a>
</g>
</g>
<!-- dir_308afe6c0c0e65dd84efc4369dd1efeb&#45;&gt;dir_63f3c63b536605e5a905cdcef9078995 -->
<g id="edge15" class="edge">
<title>dir_308afe6c0c0e65dd84efc4369dd1efeb&#45;&gt;dir_63f3c63b536605e5a905cdcef9078995</title>
<path fill="none" stroke="black" d="M175.83,-143.7C183.02,-135.3 191.8,-125.07 199.69,-115.86"/>
<polygon fill="black" stroke="black" points="202.49,-117.97 206.34,-108.1 197.17,-113.42 202.49,-117.97"/>
<g id="a_edge15&#45;headlabel"><a xlink:href="dir_000065_000028.html" target="_top" xlink:title="1">
<text text-anchor="middle" x="202.31" y="-120.05" font-family="Helvetica,sans-Serif" font-size="10.00">1</text>
</a>
</g>
</g>
<!-- dir_308afe6c0c0e65dd84efc4369dd1efeb&#45;&gt;dir_593657602c74fd2b2e9635270b1bdea2 -->
<g id="edge13" class="edge">
<title>dir_308afe6c0c0e65dd84efc4369dd1efeb&#45;&gt;dir_593657602c74fd2b2e9635270b1bdea2</title>
<path fill="none" stroke="black" d="M155.93,-143.87C152.69,-119.67 151.15,-75.21 152.31,-46.39"/>
<polygon fill="black" stroke="black" points="155.82,-46.37 152.89,-36.19 148.83,-45.97 155.82,-46.37"/>
<g id="a_edge13&#45;headlabel"><a xlink:href="dir_000065_000125.html" target="_top" xlink:title="11">
<text text-anchor="middle" x="158.45" y="-47.62" font-family="Helvetica,sans-Serif" font-size="10.00">11</text>
</a>
</g>
</g>
<!-- dir_62b8f01a6102de05602805a3c9feb8cc&#45;&gt;dir_593657602c74fd2b2e9635270b1bdea2 -->
<g id="edge12" class="edge">
<title>dir_62b8f01a6102de05602805a3c9feb8cc&#45;&gt;dir_593657602c74fd2b2e9635270b1bdea2</title>
<path fill="none" stroke="black" d="M76.93,-71.88C90.66,-62.81 107.71,-51.55 122.54,-41.76"/>
<polygon fill="black" stroke="black" points="124.55,-44.62 130.97,-36.19 120.7,-38.78 124.55,-44.62"/>
<g id="a_edge12&#45;headlabel"><a xlink:href="dir_000061_000125.html" target="_top" xlink:title="18">
<text text-anchor="middle" x="123.12" y="-46.47" font-family="Helvetica,sans-Serif" font-size="10.00">18</text>
</a>
</g>
</g>
<!-- dir_63f3c63b536605e5a905cdcef9078995&#45;&gt;dir_593657602c74fd2b2e9635270b1bdea2 -->
<g id="edge10" class="edge">
<title>dir_63f3c63b536605e5a905cdcef9078995&#45;&gt;dir_593657602c74fd2b2e9635270b1bdea2</title>
<path fill="none" stroke="black" d="M205.18,-71.7C197.43,-63.22 187.96,-52.86 179.48,-43.58"/>
<polygon fill="black" stroke="black" points="181.97,-41.12 172.64,-36.1 176.8,-45.85 181.97,-41.12"/>
<g id="a_edge10&#45;headlabel"><a xlink:href="dir_000028_000125.html" target="_top" xlink:title="3">
<text text-anchor="middle" x="186.49" y="-39.36" font-family="Helvetica,sans-Serif" font-size="10.00">3</text>
</a>
</g>
</g>
<!-- dir_593657602c74fd2b2e9635270b1bdea2&#45;&gt;dir_308afe6c0c0e65dd84efc4369dd1efeb -->
<g id="edge1" class="edge">
<title>dir_593657602c74fd2b2e9635270b1bdea2&#45;&gt;dir_308afe6c0c0e65dd84efc4369dd1efeb</title>
<path fill="none" stroke="black" d="M162.08,-36.19C165.31,-60.42 166.85,-104.89 165.68,-133.68"/>
<polygon fill="black" stroke="black" points="162.18,-133.69 165.1,-143.87 169.17,-134.09 162.18,-133.69"/>
<g id="a_edge1&#45;headlabel"><a xlink:href="dir_000125_000065.html" target="_top" xlink:title="4">
<text text-anchor="middle" x="159.55" y="-127.44" font-family="Helvetica,sans-Serif" font-size="10.00">4</text>
</a>
</g>
</g>
</g>
</svg>
