<?xml version="1.0" encoding="UTF-8" standalone="no"?>
<!DOCTYPE svg PUBLIC "-//W3C//DTD SVG 1.1//EN"
 "http://www.w3.org/Graphics/SVG/1.1/DTD/svg11.dtd">
<!-- Generated by graphviz version 2.43.0 (0)
 -->
<!-- Title: Graphical Class Hierarchy Pages: 1 -->
<svg width="717pt" height="627pt"
 viewBox="0.00 0.00 717.00 627.00" xmlns="http://www.w3.org/2000/svg" xmlns:xlink="http://www.w3.org/1999/xlink">
<g id="graph0" class="graph" transform="scale(1 1) rotate(0) translate(4 623)">
<title>Graphical Class Hierarchy</title>
<polygon fill="white" stroke="transparent" points="-4,4 -4,-623 713,-623 713,4 -4,4"/>
<!-- Node430 -->
<g id="node1" class="node">
<title>Node430</title>
<g id="a_node1"><a xlink:title="STL class.">
<polygon fill="white" stroke="#bfbfbf" points="0,-496 0,-515 86,-515 86,-496 0,-496"/>
<text text-anchor="middle" x="43" y="-503" font-family="Helvetica,sans-Serif" font-size="10.00">std::exception</text>
</a>
</g>
</g>
<!-- Node0 -->
<g id="node2" class="node">
<title>Node0</title>
<g id="a_node2"><a xlink:href="d6/d68/classjoda_1_1filesystem_1_1DirectoryAlreadyInUseException.html" target="_top" xlink:title=" ">
<polygon fill="white" stroke="black" points="128,-588.5 128,-618.5 274,-618.5 274,-588.5 128,-588.5"/>
<text text-anchor="start" x="136" y="-606.5" font-family="Helvetica,sans-Serif" font-size="10.00">joda::filesystem::Directory</text>
<text text-anchor="middle" x="201" y="-595.5" font-family="Helvetica,sans-Serif" font-size="10.00">AlreadyInUseException</text>
</a>
</g>
</g>
<!-- Node430&#45;&gt;Node0 -->
<g id="edge1" class="edge">
<title>Node430&#45;&gt;Node0</title>
<path fill="none" stroke="#8b1a1a" d="M58.24,-523.07C72.67,-539.8 96.47,-564.58 122,-579.5 127.75,-582.86 134.02,-585.79 140.42,-588.35"/>
<polygon fill="#8b1a1a" stroke="#8b1a1a" points="60.7,-520.55 51.58,-515.14 55.34,-525.05 60.7,-520.55"/>
</g>
<!-- Node432 -->
<g id="node3" class="node">
<title>Node432</title>
<g id="a_node3"><a xlink:href="d4/dda/classjoda_1_1query_1_1NotComparableException.html" target="_top" xlink:title=" ">
<polygon fill="white" stroke="black" points="124.5,-539.5 124.5,-569.5 277.5,-569.5 277.5,-539.5 124.5,-539.5"/>
<text text-anchor="start" x="132.5" y="-557.5" font-family="Helvetica,sans-Serif" font-size="10.00">joda::query::NotComparable</text>
<text text-anchor="middle" x="201" y="-546.5" font-family="Helvetica,sans-Serif" font-size="10.00">Exception</text>
</a>
</g>
</g>
<!-- Node430&#45;&gt;Node432 -->
<g id="edge2" class="edge">
<title>Node430&#45;&gt;Node432</title>
<path fill="none" stroke="midnightblue" d="M83.21,-518.17C95.61,-522.14 109.37,-526.53 122,-530.5 131.33,-533.43 141.29,-536.52 150.87,-539.48"/>
<polygon fill="midnightblue" stroke="midnightblue" points="84.2,-514.81 73.61,-515.08 82.05,-521.47 84.2,-514.81"/>
</g>
<!-- Node433 -->
<g id="node4" class="node">
<title>Node433</title>
<g id="a_node4"><a xlink:href="db/d29/classjoda_1_1query_1_1NotEqualizableException.html" target="_top" xlink:title=" ">
<polygon fill="white" stroke="black" points="126,-490.5 126,-520.5 276,-520.5 276,-490.5 126,-490.5"/>
<text text-anchor="start" x="134" y="-508.5" font-family="Helvetica,sans-Serif" font-size="10.00">joda::query::NotEqualizable</text>
<text text-anchor="middle" x="201" y="-497.5" font-family="Helvetica,sans-Serif" font-size="10.00">Exception</text>
</a>
</g>
</g>
<!-- Node430&#45;&gt;Node433 -->
<g id="edge3" class="edge">
<title>Node430&#45;&gt;Node433</title>
<path fill="none" stroke="midnightblue" d="M96.28,-505.5C105.8,-505.5 115.89,-505.5 125.89,-505.5"/>
<polygon fill="midnightblue" stroke="midnightblue" points="96.22,-502 86.22,-505.5 96.22,-509 96.22,-502"/>
</g>
<!-- Node434 -->
<g id="node5" class="node">
<title>Node434</title>
<g id="a_node5"><a xlink:href="de/d8d/classjoda_1_1query_1_1WrongParameterException.html" target="_top" xlink:title=" ">
<polygon fill="white" stroke="black" points="122,-441.5 122,-471.5 280,-471.5 280,-441.5 122,-441.5"/>
<text text-anchor="start" x="130" y="-459.5" font-family="Helvetica,sans-Serif" font-size="10.00">joda::query::WrongParameter</text>
<text text-anchor="middle" x="201" y="-448.5" font-family="Helvetica,sans-Serif" font-size="10.00">Exception</text>
</a>
</g>
</g>
<!-- Node430&#45;&gt;Node434 -->
<g id="edge4" class="edge">
<title>Node430&#45;&gt;Node434</title>
<path fill="none" stroke="midnightblue" d="M84.21,-492.87C104.95,-486.36 130.38,-478.37 152.13,-471.54"/>
<polygon fill="midnightblue" stroke="midnightblue" points="82.94,-489.6 74.45,-495.94 85.04,-496.28 82.94,-489.6"/>
</g>
<!-- Node437 -->
<g id="node8" class="node">
<title>Node437</title>
<g id="a_node8"><a xlink:title="STL class.">
<polygon fill="white" stroke="#bfbfbf" points="149,-374 149,-393 253,-393 253,-374 149,-374"/>
<text text-anchor="middle" x="201" y="-381" font-family="Helvetica,sans-Serif" font-size="10.00">std::runtime_error</text>
</a>
</g>
</g>
<!-- Node430&#45;&gt;Node437 -->
<g id="edge7" class="edge">
<title>Node430&#45;&gt;Node437</title>
<path fill="none" stroke="midnightblue" d="M60.21,-488.57C75.44,-473.1 99.23,-450.05 122,-432.5 141.76,-417.27 166.4,-402.41 182.64,-393.12"/>
<polygon fill="midnightblue" stroke="midnightblue" points="57.55,-486.29 53.08,-495.89 62.57,-491.17 57.55,-486.29"/>
</g>
<!-- Node435 -->
<g id="node6" class="node">
<title>Node435</title>
<g id="a_node6"><a xlink:href="d8/d38/classjoda_1_1query_1_1WrongParameterCountException.html" target="_top" xlink:title=" ">
<polygon fill="white" stroke="black" points="324,-490.5 324,-520.5 482,-520.5 482,-490.5 324,-490.5"/>
<text text-anchor="start" x="332" y="-508.5" font-family="Helvetica,sans-Serif" font-size="10.00">joda::query::WrongParameter</text>
<text text-anchor="middle" x="403" y="-497.5" font-family="Helvetica,sans-Serif" font-size="10.00">CountException</text>
</a>
</g>
</g>
<!-- Node434&#45;&gt;Node435 -->
<g id="edge5" class="edge">
<title>Node434&#45;&gt;Node435</title>
<path fill="none" stroke="midnightblue" d="M273.33,-473.98C295.38,-479.38 319.45,-485.28 340.75,-490.49"/>
<polygon fill="midnightblue" stroke="midnightblue" points="273.91,-470.51 263.37,-471.53 272.25,-477.31 273.91,-470.51"/>
</g>
<!-- Node436 -->
<g id="node7" class="node">
<title>Node436</title>
<g id="a_node7"><a xlink:href="db/d12/classjoda_1_1query_1_1WrongParameterTypeException.html" target="_top" xlink:title=" ">
<polygon fill="white" stroke="black" points="324,-441.5 324,-471.5 482,-471.5 482,-441.5 324,-441.5"/>
<text text-anchor="start" x="332" y="-459.5" font-family="Helvetica,sans-Serif" font-size="10.00">joda::query::WrongParameter</text>
<text text-anchor="middle" x="403" y="-448.5" font-family="Helvetica,sans-Serif" font-size="10.00">TypeException</text>
</a>
</g>
</g>
<!-- Node434&#45;&gt;Node436 -->
<g id="edge6" class="edge">
<title>Node434&#45;&gt;Node436</title>
<path fill="none" stroke="midnightblue" d="M290.36,-456.5C301.53,-456.5 312.88,-456.5 323.87,-456.5"/>
<polygon fill="midnightblue" stroke="midnightblue" points="290.18,-453 280.18,-456.5 290.18,-460 290.18,-453"/>
</g>
<!-- Node438 -->
<g id="node9" class="node">
<title>Node438</title>
<g id="a_node9"><a xlink:href="d5/d76/classjoda_1_1network_1_1client_1_1JodaClientException.html" target="_top" xlink:title=" ">
<polygon fill="white" stroke="black" points="343,-392.5 343,-422.5 463,-422.5 463,-392.5 343,-392.5"/>
<text text-anchor="start" x="351" y="-410.5" font-family="Helvetica,sans-Serif" font-size="10.00">joda::network::client</text>
<text text-anchor="middle" x="403" y="-399.5" font-family="Helvetica,sans-Serif" font-size="10.00">::JodaClientException</text>
</a>
</g>
</g>
<!-- Node437&#45;&gt;Node438 -->
<g id="edge8" class="edge">
<title>Node437&#45;&gt;Node438</title>
<path fill="none" stroke="midnightblue" d="M263.43,-390.87C288.65,-393.9 317.74,-397.39 342.74,-400.39"/>
<polygon fill="midnightblue" stroke="midnightblue" points="263.59,-387.37 253.25,-389.65 262.76,-394.32 263.59,-387.37"/>
</g>
<!-- Node440 -->
<g id="node11" class="node">
<title>Node440</title>
<g id="a_node11"><a xlink:href="d1/df6/classjoda_1_1network_1_1client_1_1JodaServerException.html" target="_top" xlink:title=" ">
<polygon fill="white" stroke="black" points="341.5,-343.5 341.5,-373.5 464.5,-373.5 464.5,-343.5 341.5,-343.5"/>
<text text-anchor="start" x="349.5" y="-361.5" font-family="Helvetica,sans-Serif" font-size="10.00">joda::network::client</text>
<text text-anchor="middle" x="403" y="-350.5" font-family="Helvetica,sans-Serif" font-size="10.00">::JodaServerException</text>
</a>
</g>
</g>
<!-- Node437&#45;&gt;Node440 -->
<g id="edge10" class="edge">
<title>Node437&#45;&gt;Node440</title>
<path fill="none" stroke="midnightblue" d="M263.25,-375.84C288.03,-372.75 316.56,-369.18 341.29,-366.09"/>
<polygon fill="midnightblue" stroke="midnightblue" points="262.73,-372.38 253.25,-377.09 263.6,-379.33 262.73,-372.38"/>
</g>
<!-- Node444 -->
<g id="node15" class="node">
<title>Node444</title>
<g id="a_node15"><a xlink:href="df/d2b/classjoda_1_1network_1_1JodaAPIException.html" target="_top" xlink:title=" ">
<polygon fill="white" stroke="black" points="316,-153 316,-172 490,-172 490,-153 316,-153"/>
<text text-anchor="middle" x="403" y="-160" font-family="Helvetica,sans-Serif" font-size="10.00">joda::network::JodaAPIException</text>
</a>
</g>
</g>
<!-- Node437&#45;&gt;Node444 -->
<g id="edge14" class="edge">
<title>Node437&#45;&gt;Node444</title>
<path fill="none" stroke="midnightblue" d="M217.74,-366.1C257.75,-321.9 362.3,-206.36 393.25,-172.17"/>
<polygon fill="midnightblue" stroke="midnightblue" points="214.97,-363.96 210.85,-373.72 220.16,-368.65 214.97,-363.96"/>
</g>
<!-- Node439 -->
<g id="node10" class="node">
<title>Node439</title>
<g id="a_node10"><a xlink:href="d0/d56/classjoda_1_1network_1_1client_1_1JodaClientNoResponseException.html" target="_top" xlink:title=" ">
<polygon fill="white" stroke="black" points="527,-441.5 527,-471.5 708,-471.5 708,-441.5 527,-441.5"/>
<text text-anchor="start" x="535" y="-459.5" font-family="Helvetica,sans-Serif" font-size="10.00">joda::network::client</text>
<text text-anchor="middle" x="617.5" y="-448.5" font-family="Helvetica,sans-Serif" font-size="10.00">::JodaClientNoResponseException</text>
</a>
</g>
</g>
<!-- Node438&#45;&gt;Node439 -->
<g id="edge9" class="edge">
<title>Node438&#45;&gt;Node439</title>
<path fill="none" stroke="midnightblue" d="M473.02,-423.42C498.16,-429.21 526.48,-435.74 551.28,-441.46"/>
<polygon fill="midnightblue" stroke="midnightblue" points="473.72,-419.99 463.19,-421.15 472.15,-426.81 473.72,-419.99"/>
</g>
<!-- Node441 -->
<g id="node12" class="node">
<title>Node441</title>
<g id="a_node12"><a xlink:href="de/d1e/classjoda_1_1network_1_1client_1_1JodaServerAPIErrorException.html" target="_top" xlink:title=" ">
<polygon fill="white" stroke="black" points="536.5,-392.5 536.5,-422.5 698.5,-422.5 698.5,-392.5 536.5,-392.5"/>
<text text-anchor="start" x="544.5" y="-410.5" font-family="Helvetica,sans-Serif" font-size="10.00">joda::network::client</text>
<text text-anchor="middle" x="617.5" y="-399.5" font-family="Helvetica,sans-Serif" font-size="10.00">::JodaServerAPIErrorException</text>
</a>
</g>
</g>
<!-- Node440&#45;&gt;Node441 -->
<g id="edge11" class="edge">
<title>Node440&#45;&gt;Node441</title>
<path fill="none" stroke="midnightblue" d="M474.66,-374.79C499.41,-380.5 527.07,-386.88 551.35,-392.48"/>
<polygon fill="midnightblue" stroke="midnightblue" points="475.14,-371.31 464.61,-372.48 473.57,-378.13 475.14,-371.31"/>
</g>
<!-- Node442 -->
<g id="node13" class="node">
<title>Node442</title>
<g id="a_node13"><a xlink:href="d9/de1/classjoda_1_1network_1_1client_1_1JodaServerHTTPException.html" target="_top" xlink:title=" ">
<polygon fill="white" stroke="black" points="543,-343.5 543,-373.5 692,-373.5 692,-343.5 543,-343.5"/>
<text text-anchor="start" x="551" y="-361.5" font-family="Helvetica,sans-Serif" font-size="10.00">joda::network::client</text>
<text text-anchor="middle" x="617.5" y="-350.5" font-family="Helvetica,sans-Serif" font-size="10.00">::JodaServerHTTPException</text>
</a>
</g>
</g>
<!-- Node440&#45;&gt;Node442 -->
<g id="edge12" class="edge">
<title>Node440&#45;&gt;Node442</title>
<path fill="none" stroke="midnightblue" d="M474.83,-358.5C496.73,-358.5 520.9,-358.5 542.98,-358.5"/>
<polygon fill="midnightblue" stroke="midnightblue" points="474.61,-355 464.61,-358.5 474.61,-362 474.61,-355"/>
</g>
<!-- Node443 -->
<g id="node14" class="node">
<title>Node443</title>
<g id="a_node14"><a xlink:href="d8/df6/classjoda_1_1network_1_1client_1_1JodaServerInvalidJSONException.html" target="_top" xlink:title=" ">
<polygon fill="white" stroke="black" points="527.5,-294.5 527.5,-324.5 707.5,-324.5 707.5,-294.5 527.5,-294.5"/>
<text text-anchor="start" x="535.5" y="-312.5" font-family="Helvetica,sans-Serif" font-size="10.00">joda::network::client</text>
<text text-anchor="middle" x="617.5" y="-301.5" font-family="Helvetica,sans-Serif" font-size="10.00">::JodaServerInvalidJSONException</text>
</a>
</g>
</g>
<!-- Node440&#45;&gt;Node443 -->
<g id="edge13" class="edge">
<title>Node440&#45;&gt;Node443</title>
<path fill="none" stroke="midnightblue" d="M474.66,-342.21C499.41,-336.5 527.07,-330.12 551.35,-324.52"/>
<polygon fill="midnightblue" stroke="midnightblue" points="473.57,-338.87 464.61,-344.52 475.14,-345.69 473.57,-338.87"/>
</g>
<!-- Node445 -->
<g id="node16" class="node">
<title>Node445</title>
<g id="a_node16"><a xlink:href="db/dbe/classjoda_1_1network_1_1apiv2_1_1JodaAPIVersionException.html" target="_top" xlink:title=" ">
<polygon fill="white" stroke="black" points="546,-245.5 546,-275.5 689,-275.5 689,-245.5 546,-245.5"/>
<text text-anchor="start" x="554" y="-263.5" font-family="Helvetica,sans-Serif" font-size="10.00">joda::network::apiv2</text>
<text text-anchor="middle" x="617.5" y="-252.5" font-family="Helvetica,sans-Serif" font-size="10.00">::JodaAPIVersionException</text>
</a>
</g>
</g>
<!-- Node444&#45;&gt;Node445 -->
<g id="edge15" class="edge">
<title>Node444&#45;&gt;Node445</title>
<path fill="none" stroke="midnightblue" d="M425.06,-177.86C448.61,-194.41 488.4,-220.51 526,-236.5 533.78,-239.81 542.13,-242.76 550.5,-245.37"/>
<polygon fill="midnightblue" stroke="midnightblue" points="427.04,-174.97 416.87,-172.03 422.98,-180.68 427.04,-174.97"/>
</g>
<!-- Node446 -->
<g id="node17" class="node">
<title>Node446</title>
<g id="a_node17"><a xlink:href="d3/d62/classjoda_1_1network_1_1apiv2_1_1JodaQueryException.html" target="_top" xlink:title=" ">
<polygon fill="white" stroke="black" points="557,-196.5 557,-226.5 678,-226.5 678,-196.5 557,-196.5"/>
<text text-anchor="start" x="565" y="-214.5" font-family="Helvetica,sans-Serif" font-size="10.00">joda::network::apiv2</text>
<text text-anchor="middle" x="617.5" y="-203.5" font-family="Helvetica,sans-Serif" font-size="10.00">::JodaQueryException</text>
</a>
</g>
</g>
<!-- Node444&#45;&gt;Node446 -->
<g id="edge16" class="edge">
<title>Node444&#45;&gt;Node446</title>
<path fill="none" stroke="midnightblue" d="M455.26,-174.32C485.88,-181.38 524.91,-190.38 556.9,-197.76"/>
<polygon fill="midnightblue" stroke="midnightblue" points="455.75,-170.84 445.22,-172.01 454.18,-177.66 455.75,-170.84"/>
</g>
<!-- Node447 -->
<g id="node18" class="node">
<title>Node447</title>
<g id="a_node18"><a xlink:href="db/de9/classjoda_1_1network_1_1apiv2_1_1JodaQuerySkippedException.html" target="_top" xlink:title=" ">
<polygon fill="white" stroke="black" points="537.5,-147.5 537.5,-177.5 697.5,-177.5 697.5,-147.5 537.5,-147.5"/>
<text text-anchor="start" x="545.5" y="-165.5" font-family="Helvetica,sans-Serif" font-size="10.00">joda::network::apiv2</text>
<text text-anchor="middle" x="617.5" y="-154.5" font-family="Helvetica,sans-Serif" font-size="10.00">::JodaQuerySkippedException</text>
</a>
</g>
</g>
<!-- Node444&#45;&gt;Node447 -->
<g id="edge17" class="edge">
<title>Node444&#45;&gt;Node447</title>
<path fill="none" stroke="midnightblue" d="M500.47,-162.5C512.84,-162.5 525.4,-162.5 537.45,-162.5"/>
<polygon fill="midnightblue" stroke="midnightblue" points="500.13,-159 490.13,-162.5 500.13,-166 500.13,-159"/>
</g>
<!-- Node448 -->
<g id="node19" class="node">
<title>Node448</title>
<g id="a_node19"><a xlink:href="d8/da3/classjoda_1_1network_1_1apiv2_1_1JodaQueryUnkownErrorException.html" target="_top" xlink:title=" ">
<polygon fill="white" stroke="black" points="526,-98.5 526,-128.5 709,-128.5 709,-98.5 526,-98.5"/>
<text text-anchor="start" x="534" y="-116.5" font-family="Helvetica,sans-Serif" font-size="10.00">joda::network::apiv2</text>
<text text-anchor="middle" x="617.5" y="-105.5" font-family="Helvetica,sans-Serif" font-size="10.00">::JodaQueryUnkownErrorException</text>
</a>
</g>
</g>
<!-- Node444&#45;&gt;Node448 -->
<g id="edge18" class="edge">
<title>Node444&#45;&gt;Node448</title>
<path fill="none" stroke="midnightblue" d="M455.09,-150.72C483.92,-144.07 520.25,-135.69 551.14,-128.57"/>
<polygon fill="midnightblue" stroke="midnightblue" points="454.18,-147.34 445.22,-152.99 455.75,-154.16 454.18,-147.34"/>
</g>
<!-- Node449 -->
<g id="node20" class="node">
<title>Node449</title>
<g id="a_node20"><a xlink:href="d3/d77/classjoda_1_1network_1_1JodaInvalidParameterException.html" target="_top" xlink:title=" ">
<polygon fill="white" stroke="black" points="546,-49.5 546,-79.5 689,-79.5 689,-49.5 546,-49.5"/>
<text text-anchor="start" x="554" y="-67.5" font-family="Helvetica,sans-Serif" font-size="10.00">joda::network::JodaInvalid</text>
<text text-anchor="middle" x="617.5" y="-56.5" font-family="Helvetica,sans-Serif" font-size="10.00">ParameterException</text>
</a>
</g>
</g>
<!-- Node444&#45;&gt;Node449 -->
<g id="edge19" class="edge">
<title>Node444&#45;&gt;Node449</title>
<path fill="none" stroke="midnightblue" d="M425.51,-147.18C449.16,-130.92 488.78,-105.43 526,-89.5 534.69,-85.78 544.09,-82.46 553.43,-79.56"/>
<polygon fill="midnightblue" stroke="midnightblue" points="423.47,-144.33 417.26,-152.91 427.47,-150.08 423.47,-144.33"/>
</g>
<!-- Node450 -->
<g id="node21" class="node">
<title>Node450</title>
<g id="a_node21"><a xlink:href="d1/d9f/classjoda_1_1network_1_1JodaMissingParameterException.html" target="_top" xlink:title=" ">
<polygon fill="white" stroke="black" points="543.5,-0.5 543.5,-30.5 691.5,-30.5 691.5,-0.5 543.5,-0.5"/>
<text text-anchor="start" x="551.5" y="-18.5" font-family="Helvetica,sans-Serif" font-size="10.00">joda::network::JodaMissing</text>
<text text-anchor="middle" x="617.5" y="-7.5" font-family="Helvetica,sans-Serif" font-size="10.00">ParameterException</text>
</a>
</g>
</g>
<!-- Node444&#45;&gt;Node450 -->
<g id="edge20" class="edge">
<title>Node444&#45;&gt;Node450</title>
<path fill="none" stroke="midnightblue" d="M416.68,-144.65C436.77,-117.73 478.51,-66.96 526,-39.5 531.91,-36.08 538.32,-33.14 544.9,-30.61"/>
<polygon fill="midnightblue" stroke="midnightblue" points="413.8,-142.66 410.73,-152.8 419.45,-146.79 413.8,-142.66"/>
</g>
</g>
</svg>
