<?xml version="1.0" encoding="UTF-8" standalone="no"?>
<!DOCTYPE svg PUBLIC "-//W3C//DTD SVG 1.1//EN"
 "http://www.w3.org/Graphics/SVG/1.1/DTD/svg11.dtd">
<!-- Generated by graphviz version 2.43.0 (0)
 -->
<!-- Title: Graphical Class Hierarchy Pages: 1 -->
<svg width="446pt" height="823pt"
 viewBox="0.00 0.00 446.00 823.00" xmlns="http://www.w3.org/2000/svg" xmlns:xlink="http://www.w3.org/1999/xlink">
<g id="graph0" class="graph" transform="scale(1 1) rotate(0) translate(4 819)">
<title>Graphical Class Hierarchy</title>
<polygon fill="white" stroke="transparent" points="-4,4 -4,-819 442,-819 442,4 -4,4"/>
<!-- Node416 -->
<g id="node1" class="node">
<title>Node416</title>
<g id="a_node1"><a xlink:title=" ">
<polygon fill="white" stroke="#bfbfbf" points="0,-398 0,-417 84,-417 84,-398 0,-398"/>
<text text-anchor="middle" x="42" y="-405" font-family="Helvetica,sans-Serif" font-size="10.00">tao::pegtl::sor</text>
</a>
</g>
</g>
<!-- Node0 -->
<g id="node2" class="node">
<title>Node0</title>
<g id="a_node2"><a xlink:href="d0/d7b/structjoda_1_1queryparsing_1_1grammar_1_1aggKeywords.html" target="_top" xlink:title=" ">
<polygon fill="white" stroke="black" points="130.5,-784.5 130.5,-814.5 269.5,-814.5 269.5,-784.5 130.5,-784.5"/>
<text text-anchor="start" x="138.5" y="-802.5" font-family="Helvetica,sans-Serif" font-size="10.00">joda::queryparsing</text>
<text text-anchor="middle" x="200" y="-791.5" font-family="Helvetica,sans-Serif" font-size="10.00">::grammar::aggKeywords</text>
</a>
</g>
</g>
<!-- Node416&#45;&gt;Node0 -->
<g id="edge1" class="edge">
<title>Node416&#45;&gt;Node0</title>
<path fill="none" stroke="midnightblue" d="M44.53,-427.38C50.21,-496.26 72.31,-723.38 120,-775.5 123.1,-778.88 126.65,-781.8 130.51,-784.3"/>
<polygon fill="midnightblue" stroke="midnightblue" points="47.99,-426.77 43.71,-417.08 41.01,-427.32 47.99,-426.77"/>
</g>
<!-- Node418 -->
<g id="node3" class="node">
<title>Node418</title>
<g id="a_node3"><a xlink:href="dc/d21/structjoda_1_1queryparsing_1_1grammar_1_1atomExp.html" target="_top" xlink:title=" ">
<polygon fill="white" stroke="black" points="141.5,-735.5 141.5,-765.5 258.5,-765.5 258.5,-735.5 141.5,-735.5"/>
<text text-anchor="start" x="149.5" y="-753.5" font-family="Helvetica,sans-Serif" font-size="10.00">joda::queryparsing</text>
<text text-anchor="middle" x="200" y="-742.5" font-family="Helvetica,sans-Serif" font-size="10.00">::grammar::atomExp</text>
</a>
</g>
</g>
<!-- Node416&#45;&gt;Node418 -->
<g id="edge2" class="edge">
<title>Node416&#45;&gt;Node418</title>
<path fill="none" stroke="midnightblue" d="M45.19,-427.12C52.54,-489.58 78.22,-682.22 120,-726.5 125.9,-732.76 133.38,-737.4 141.36,-740.84"/>
<polygon fill="midnightblue" stroke="midnightblue" points="48.65,-426.58 44.03,-417.04 41.7,-427.38 48.65,-426.58"/>
</g>
<!-- Node419 -->
<g id="node4" class="node">
<title>Node419</title>
<g id="a_node4"><a xlink:href="d0/d92/structjoda_1_1queryparsing_1_1grammar_1_1boolAtom.html" target="_top" xlink:title=" ">
<polygon fill="white" stroke="black" points="139.5,-686.5 139.5,-716.5 260.5,-716.5 260.5,-686.5 139.5,-686.5"/>
<text text-anchor="start" x="147.5" y="-704.5" font-family="Helvetica,sans-Serif" font-size="10.00">joda::queryparsing</text>
<text text-anchor="middle" x="200" y="-693.5" font-family="Helvetica,sans-Serif" font-size="10.00">::grammar::boolAtom</text>
</a>
</g>
</g>
<!-- Node416&#45;&gt;Node419 -->
<g id="edge3" class="edge">
<title>Node416&#45;&gt;Node419</title>
<path fill="none" stroke="midnightblue" d="M42.61,-427.52C42.78,-477.07 50.25,-606.54 120,-677.5 125.43,-683.02 132.08,-687.28 139.2,-690.56"/>
<polygon fill="midnightblue" stroke="midnightblue" points="46.11,-427.24 42.68,-417.21 39.11,-427.19 46.11,-427.24"/>
</g>
<!-- Node420 -->
<g id="node5" class="node">
<title>Node420</title>
<g id="a_node5"><a xlink:href="db/da9/structjoda_1_1queryparsing_1_1grammar_1_1compare.html" target="_top" xlink:title=" ">
<polygon fill="white" stroke="black" points="142,-637.5 142,-667.5 258,-667.5 258,-637.5 142,-637.5"/>
<text text-anchor="start" x="150" y="-655.5" font-family="Helvetica,sans-Serif" font-size="10.00">joda::queryparsing</text>
<text text-anchor="middle" x="200" y="-644.5" font-family="Helvetica,sans-Serif" font-size="10.00">::grammar::compare</text>
</a>
</g>
</g>
<!-- Node416&#45;&gt;Node420 -->
<g id="edge4" class="edge">
<title>Node416&#45;&gt;Node420</title>
<path fill="none" stroke="midnightblue" d="M44.09,-427.31C47.54,-470.25 61.75,-572.56 120,-628.5 126.2,-634.46 133.84,-638.94 141.89,-642.31"/>
<polygon fill="midnightblue" stroke="midnightblue" points="47.57,-426.81 43.39,-417.07 40.58,-427.29 47.57,-426.81"/>
</g>
<!-- Node421 -->
<g id="node6" class="node">
<title>Node421</title>
<g id="a_node6"><a xlink:href="da/d40/structjoda_1_1queryparsing_1_1grammar_1_1funcParamRule.html" target="_top" xlink:title=" ">
<polygon fill="white" stroke="black" points="126.5,-588.5 126.5,-618.5 273.5,-618.5 273.5,-588.5 126.5,-588.5"/>
<text text-anchor="start" x="134.5" y="-606.5" font-family="Helvetica,sans-Serif" font-size="10.00">joda::queryparsing</text>
<text text-anchor="middle" x="200" y="-595.5" font-family="Helvetica,sans-Serif" font-size="10.00">::grammar::funcParamRule</text>
</a>
</g>
</g>
<!-- Node416&#45;&gt;Node421 -->
<g id="edge5" class="edge">
<title>Node416&#45;&gt;Node421</title>
<path fill="none" stroke="midnightblue" d="M46.37,-427.48C53.46,-463.25 73.27,-538.31 120,-579.5 123.87,-582.91 128.22,-585.84 132.82,-588.35"/>
<polygon fill="midnightblue" stroke="midnightblue" points="49.76,-426.54 44.5,-417.34 42.87,-427.81 49.76,-426.54"/>
</g>
<!-- Node422 -->
<g id="node7" class="node">
<title>Node422</title>
<g id="a_node7"><a xlink:href="d3/d14/structjoda_1_1queryparsing_1_1grammar_1_1groupIdent.html" target="_top" xlink:title=" ">
<polygon fill="white" stroke="black" points="137,-539.5 137,-569.5 263,-569.5 263,-539.5 137,-539.5"/>
<text text-anchor="start" x="145" y="-557.5" font-family="Helvetica,sans-Serif" font-size="10.00">joda::queryparsing</text>
<text text-anchor="middle" x="200" y="-546.5" font-family="Helvetica,sans-Serif" font-size="10.00">::grammar::groupIdent</text>
</a>
</g>
</g>
<!-- Node416&#45;&gt;Node422 -->
<g id="edge6" class="edge">
<title>Node416&#45;&gt;Node422</title>
<path fill="none" stroke="midnightblue" d="M49.95,-426.66C60.76,-453.76 84.15,-503.06 120,-530.5 125.12,-534.42 130.89,-537.7 136.9,-540.45"/>
<polygon fill="midnightblue" stroke="midnightblue" points="53.15,-425.23 46.31,-417.14 46.61,-427.73 53.15,-425.23"/>
</g>
<!-- Node423 -->
<g id="node8" class="node">
<title>Node423</title>
<g id="a_node8"><a xlink:href="d2/d5c/structjoda_1_1queryparsing_1_1grammar_1_1listContent.html" target="_top" xlink:title=" ">
<polygon fill="white" stroke="black" points="136.5,-490.5 136.5,-520.5 263.5,-520.5 263.5,-490.5 136.5,-490.5"/>
<text text-anchor="start" x="144.5" y="-508.5" font-family="Helvetica,sans-Serif" font-size="10.00">joda::queryparsing</text>
<text text-anchor="middle" x="200" y="-497.5" font-family="Helvetica,sans-Serif" font-size="10.00">::grammar::listContent</text>
</a>
</g>
</g>
<!-- Node416&#45;&gt;Node423 -->
<g id="edge7" class="edge">
<title>Node416&#45;&gt;Node423</title>
<path fill="none" stroke="midnightblue" d="M57,-425.09C71.2,-441.85 94.67,-466.65 120,-481.5 125.81,-484.91 132.15,-487.87 138.63,-490.44"/>
<polygon fill="midnightblue" stroke="midnightblue" points="59.51,-422.65 50.45,-417.16 54.12,-427.1 59.51,-422.65"/>
</g>
<!-- Node424 -->
<g id="node9" class="node">
<title>Node424</title>
<g id="a_node9"><a xlink:href="d4/d6f/structjoda_1_1queryparsing_1_1grammar_1_1loadFilesKWs.html" target="_top" xlink:title=" ">
<polygon fill="white" stroke="black" points="131,-441.5 131,-471.5 269,-471.5 269,-441.5 131,-441.5"/>
<text text-anchor="start" x="139" y="-459.5" font-family="Helvetica,sans-Serif" font-size="10.00">joda::queryparsing</text>
<text text-anchor="middle" x="200" y="-448.5" font-family="Helvetica,sans-Serif" font-size="10.00">::grammar::loadFilesKWs</text>
</a>
</g>
</g>
<!-- Node416&#45;&gt;Node424 -->
<g id="edge8" class="edge">
<title>Node416&#45;&gt;Node424</title>
<path fill="none" stroke="midnightblue" d="M81.38,-420.12C93.7,-424.13 107.41,-428.54 120,-432.5 129.3,-435.42 139.23,-438.48 148.81,-441.41"/>
<polygon fill="midnightblue" stroke="midnightblue" points="82.44,-416.78 71.84,-417.01 80.27,-423.44 82.44,-416.78"/>
</g>
<!-- Node425 -->
<g id="node10" class="node">
<title>Node425</title>
<g id="a_node10"><a xlink:href="de/d9d/structjoda_1_1queryparsing_1_1grammar_1_1loadImportSource.html" target="_top" xlink:title=" ">
<polygon fill="white" stroke="black" points="120,-392.5 120,-422.5 280,-422.5 280,-392.5 120,-392.5"/>
<text text-anchor="start" x="128" y="-410.5" font-family="Helvetica,sans-Serif" font-size="10.00">joda::queryparsing</text>
<text text-anchor="middle" x="200" y="-399.5" font-family="Helvetica,sans-Serif" font-size="10.00">::grammar::loadImportSource</text>
</a>
</g>
</g>
<!-- Node416&#45;&gt;Node425 -->
<g id="edge9" class="edge">
<title>Node416&#45;&gt;Node425</title>
<path fill="none" stroke="midnightblue" d="M94.5,-407.5C102.7,-407.5 111.33,-407.5 119.98,-407.5"/>
<polygon fill="midnightblue" stroke="midnightblue" points="94.4,-404 84.4,-407.5 94.4,-411 94.4,-404"/>
</g>
<!-- Node426 -->
<g id="node11" class="node">
<title>Node426</title>
<g id="a_node11"><a xlink:href="d0/d0c/structjoda_1_1queryparsing_1_1grammar_1_1nullAtom.html" target="_top" xlink:title=" ">
<polygon fill="white" stroke="black" points="141,-343.5 141,-373.5 259,-373.5 259,-343.5 141,-343.5"/>
<text text-anchor="start" x="149" y="-361.5" font-family="Helvetica,sans-Serif" font-size="10.00">joda::queryparsing</text>
<text text-anchor="middle" x="200" y="-350.5" font-family="Helvetica,sans-Serif" font-size="10.00">::grammar::nullAtom</text>
</a>
</g>
</g>
<!-- Node416&#45;&gt;Node426 -->
<g id="edge10" class="edge">
<title>Node416&#45;&gt;Node426</title>
<path fill="none" stroke="midnightblue" d="M83.21,-394.87C103.95,-388.36 129.38,-380.37 151.13,-373.54"/>
<polygon fill="midnightblue" stroke="midnightblue" points="81.94,-391.6 73.45,-397.94 84.04,-398.28 81.94,-391.6"/>
</g>
<!-- Node427 -->
<g id="node12" class="node">
<title>Node427</title>
<g id="a_node12"><a xlink:href="de/d91/structjoda_1_1queryparsing_1_1grammar_1_1numberAtom.html" target="_top" xlink:title=" ">
<polygon fill="white" stroke="black" points="131.5,-294.5 131.5,-324.5 268.5,-324.5 268.5,-294.5 131.5,-294.5"/>
<text text-anchor="start" x="139.5" y="-312.5" font-family="Helvetica,sans-Serif" font-size="10.00">joda::queryparsing</text>
<text text-anchor="middle" x="200" y="-301.5" font-family="Helvetica,sans-Serif" font-size="10.00">::grammar::numberAtom</text>
</a>
</g>
</g>
<!-- Node416&#45;&gt;Node427 -->
<g id="edge11" class="edge">
<title>Node416&#45;&gt;Node427</title>
<path fill="none" stroke="midnightblue" d="M57.55,-389.68C71.86,-373.22 95.13,-349.16 120,-334.5 126.44,-330.7 133.53,-327.41 140.73,-324.59"/>
<polygon fill="midnightblue" stroke="midnightblue" points="54.71,-387.62 50.92,-397.51 60.05,-392.14 54.71,-387.62"/>
</g>
<!-- Node428 -->
<g id="node13" class="node">
<title>Node428</title>
<g id="a_node13"><a xlink:href="d5/d82/structjoda_1_1queryparsing_1_1grammar_1_1projectFrom.html" target="_top" xlink:title=" ">
<polygon fill="white" stroke="black" points="134,-245.5 134,-275.5 266,-275.5 266,-245.5 134,-245.5"/>
<text text-anchor="start" x="142" y="-263.5" font-family="Helvetica,sans-Serif" font-size="10.00">joda::queryparsing</text>
<text text-anchor="middle" x="200" y="-252.5" font-family="Helvetica,sans-Serif" font-size="10.00">::grammar::projectFrom</text>
</a>
</g>
</g>
<!-- Node416&#45;&gt;Node428 -->
<g id="edge12" class="edge">
<title>Node416&#45;&gt;Node428</title>
<path fill="none" stroke="midnightblue" d="M50.04,-388.56C60.95,-361.74 84.46,-312.92 120,-285.5 125.01,-281.63 130.63,-278.36 136.51,-275.58"/>
<polygon fill="midnightblue" stroke="midnightblue" points="46.74,-387.38 46.36,-397.97 53.26,-389.93 46.74,-387.38"/>
</g>
<!-- Node429 -->
<g id="node14" class="node">
<title>Node429</title>
<g id="a_node14"><a xlink:href="d8/df7/structjoda_1_1queryparsing_1_1grammar_1_1projectSingleExp.html" target="_top" xlink:title=" ">
<polygon fill="white" stroke="black" points="122.5,-196.5 122.5,-226.5 277.5,-226.5 277.5,-196.5 122.5,-196.5"/>
<text text-anchor="start" x="130.5" y="-214.5" font-family="Helvetica,sans-Serif" font-size="10.00">joda::queryparsing</text>
<text text-anchor="middle" x="200" y="-203.5" font-family="Helvetica,sans-Serif" font-size="10.00">::grammar::projectSingleExp</text>
</a>
</g>
</g>
<!-- Node416&#45;&gt;Node429 -->
<g id="edge13" class="edge">
<title>Node416&#45;&gt;Node429</title>
<path fill="none" stroke="midnightblue" d="M46.45,-387.68C53.67,-352.2 73.69,-277.7 120,-236.5 124.3,-232.68 129.18,-229.44 134.37,-226.69"/>
<polygon fill="midnightblue" stroke="midnightblue" points="42.97,-387.26 44.54,-397.74 49.85,-388.57 42.97,-387.26"/>
</g>
<!-- Node430 -->
<g id="node15" class="node">
<title>Node430</title>
<g id="a_node15"><a xlink:href="d2/d2a/structjoda_1_1queryparsing_1_1grammar_1_1ptrFunc.html" target="_top" xlink:title=" ">
<polygon fill="white" stroke="black" points="145,-147.5 145,-177.5 255,-177.5 255,-147.5 145,-147.5"/>
<text text-anchor="start" x="153" y="-165.5" font-family="Helvetica,sans-Serif" font-size="10.00">joda::queryparsing</text>
<text text-anchor="middle" x="200" y="-154.5" font-family="Helvetica,sans-Serif" font-size="10.00">::grammar::ptrFunc</text>
</a>
</g>
</g>
<!-- Node416&#45;&gt;Node430 -->
<g id="edge14" class="edge">
<title>Node416&#45;&gt;Node430</title>
<path fill="none" stroke="midnightblue" d="M44.17,-387.83C47.77,-345.18 62.27,-243.51 120,-187.5 126.92,-180.79 135.63,-175.88 144.71,-172.28"/>
<polygon fill="midnightblue" stroke="midnightblue" points="40.66,-387.77 43.43,-398 47.65,-388.28 40.66,-387.77"/>
</g>
<!-- Node431 -->
<g id="node16" class="node">
<title>Node431</title>
<g id="a_node16"><a xlink:href="d5/d59/structjoda_1_1queryparsing_1_1grammar_1_1setProjectParam.html" target="_top" xlink:title=" ">
<polygon fill="white" stroke="black" points="123.5,-98.5 123.5,-128.5 276.5,-128.5 276.5,-98.5 123.5,-98.5"/>
<text text-anchor="start" x="131.5" y="-116.5" font-family="Helvetica,sans-Serif" font-size="10.00">joda::queryparsing</text>
<text text-anchor="middle" x="200" y="-105.5" font-family="Helvetica,sans-Serif" font-size="10.00">::grammar::setProjectParam</text>
</a>
</g>
</g>
<!-- Node416&#45;&gt;Node431 -->
<g id="edge15" class="edge">
<title>Node416&#45;&gt;Node431</title>
<path fill="none" stroke="midnightblue" d="M42.69,-387.6C43.02,-338.35 50.86,-209.58 120,-138.5 123.71,-134.68 128,-131.45 132.62,-128.71"/>
<polygon fill="midnightblue" stroke="midnightblue" points="39.19,-387.86 42.72,-397.85 46.19,-387.83 39.19,-387.86"/>
</g>
<!-- Node432 -->
<g id="node17" class="node">
<title>Node432</title>
<g id="a_node17"><a xlink:href="d7/d85/structjoda_1_1queryparsing_1_1grammar_1_1setProjectionKW.html" target="_top" xlink:title=" ">
<polygon fill="white" stroke="black" points="123.5,-49.5 123.5,-79.5 276.5,-79.5 276.5,-49.5 123.5,-49.5"/>
<text text-anchor="start" x="131.5" y="-67.5" font-family="Helvetica,sans-Serif" font-size="10.00">joda::queryparsing</text>
<text text-anchor="middle" x="200" y="-56.5" font-family="Helvetica,sans-Serif" font-size="10.00">::grammar::setProjectionKW</text>
</a>
</g>
</g>
<!-- Node416&#45;&gt;Node432 -->
<g id="edge16" class="edge">
<title>Node416&#45;&gt;Node432</title>
<path fill="none" stroke="midnightblue" d="M45.22,-387.96C52.66,-325.75 78.59,-133.87 120,-89.5 123.63,-85.61 127.86,-82.32 132.45,-79.54"/>
<polygon fill="midnightblue" stroke="midnightblue" points="41.73,-387.66 44.05,-398 48.68,-388.47 41.73,-387.66"/>
</g>
<!-- Node433 -->
<g id="node18" class="node">
<title>Node433</title>
<g id="a_node18"><a xlink:href="dd/d3b/structjoda_1_1queryparsing_1_1grammar_1_1varExp.html" target="_top" xlink:title=" ">
<polygon fill="white" stroke="black" points="146.5,-0.5 146.5,-30.5 253.5,-30.5 253.5,-0.5 146.5,-0.5"/>
<text text-anchor="start" x="154.5" y="-18.5" font-family="Helvetica,sans-Serif" font-size="10.00">joda::queryparsing</text>
<text text-anchor="middle" x="200" y="-7.5" font-family="Helvetica,sans-Serif" font-size="10.00">::grammar::varExp</text>
</a>
</g>
</g>
<!-- Node416&#45;&gt;Node433 -->
<g id="edge17" class="edge">
<title>Node416&#45;&gt;Node433</title>
<path fill="none" stroke="midnightblue" d="M44.56,-387.69C50.34,-319.06 72.72,-92.75 120,-40.5 127.05,-32.71 136.5,-27.34 146.41,-23.62"/>
<polygon fill="midnightblue" stroke="midnightblue" points="41.05,-387.71 43.72,-397.96 48.02,-388.28 41.05,-387.71"/>
</g>
<!-- Node434 -->
<g id="node19" class="node">
<title>Node434</title>
<g id="a_node19"><a xlink:href="d4/ddc/structjoda_1_1queryparsing_1_1grammar_1_1atomFunc.html" target="_top" xlink:title=" ">
<polygon fill="white" stroke="black" points="316,-0.5 316,-30.5 438,-30.5 438,-0.5 316,-0.5"/>
<text text-anchor="start" x="324" y="-18.5" font-family="Helvetica,sans-Serif" font-size="10.00">joda::queryparsing</text>
<text text-anchor="middle" x="377" y="-7.5" font-family="Helvetica,sans-Serif" font-size="10.00">::grammar::atomFunc</text>
</a>
</g>
</g>
<!-- Node433&#45;&gt;Node434 -->
<g id="edge18" class="edge">
<title>Node433&#45;&gt;Node434</title>
<path fill="none" stroke="midnightblue" d="M263.85,-15.5C280.79,-15.5 299.07,-15.5 315.85,-15.5"/>
<polygon fill="midnightblue" stroke="midnightblue" points="263.51,-12 253.51,-15.5 263.51,-19 263.51,-12"/>
</g>
</g>
</svg>
