<?xml version="1.0" encoding="UTF-8" standalone="no"?>
<!DOCTYPE svg PUBLIC "-//W3C//DTD SVG 1.1//EN"
 "http://www.w3.org/Graphics/SVG/1.1/DTD/svg11.dtd">
<!-- Generated by graphviz version 2.43.0 (0)
 -->
<!-- Title: Graphical Class Hierarchy Pages: 1 -->
<svg width="307pt" height="72pt"
 viewBox="0.00 0.00 307.00 72.00" xmlns="http://www.w3.org/2000/svg" xmlns:xlink="http://www.w3.org/1999/xlink">
<g id="graph0" class="graph" transform="scale(1 1) rotate(0) translate(4 68)">
<title>Graphical Class Hierarchy</title>
<polygon fill="white" stroke="transparent" points="-4,4 -4,-68 303,-68 303,4 -4,4"/>
<!-- Node154 -->
<g id="node1" class="node">
<title>Node154</title>
<g id="a_node1"><a xlink:title=" ">
<polygon fill="white" stroke="#bfbfbf" points="0,-0.5 0,-63.5 126,-63.5 126,-0.5 0,-0.5"/>
<text text-anchor="start" x="8" y="-51.5" font-family="Helvetica,sans-Serif" font-size="10.00">seq&lt; tao::pegtl::utf8</text>
<text text-anchor="start" x="8" y="-40.5" font-family="Helvetica,sans-Serif" font-size="10.00">::one&lt;&#39;\&#39;&gt;, tao::pegtl</text>
<text text-anchor="start" x="8" y="-29.5" font-family="Helvetica,sans-Serif" font-size="10.00">::sor&lt; tao::pegtl::utf8</text>
<text text-anchor="start" x="8" y="-18.5" font-family="Helvetica,sans-Serif" font-size="10.00">::one&lt;&#39;&quot;&#39;&gt;, tao::pegtl::</text>
<text text-anchor="middle" x="63" y="-7.5" font-family="Helvetica,sans-Serif" font-size="10.00">utf8::one&lt;&#39;\&#39;&gt; &gt; &gt;</text>
</a>
</g>
</g>
<!-- Node0 -->
<g id="node2" class="node">
<title>Node0</title>
<g id="a_node2"><a xlink:href="df/d84/structjoda_1_1queryparsing_1_1grammar_1_1escapedChar.html" target="_top" xlink:title=" ">
<polygon fill="white" stroke="black" points="162,-17 162,-47 299,-47 299,-17 162,-17"/>
<text text-anchor="start" x="170" y="-35" font-family="Helvetica,sans-Serif" font-size="10.00">joda::queryparsing</text>
<text text-anchor="middle" x="230.5" y="-24" font-family="Helvetica,sans-Serif" font-size="10.00">::grammar::escapedChar</text>
</a>
</g>
</g>
<!-- Node154&#45;&gt;Node0 -->
<g id="edge1" class="edge">
<title>Node154&#45;&gt;Node0</title>
<path fill="none" stroke="midnightblue" d="M136.32,-32C144.78,-32 153.39,-32 161.79,-32"/>
<polygon fill="midnightblue" stroke="midnightblue" points="136.1,-28.5 126.1,-32 136.1,-35.5 136.1,-28.5"/>
</g>
</g>
</svg>
