<?xml version="1.0" encoding="UTF-8" standalone="no"?>
<!DOCTYPE svg PUBLIC "-//W3C//DTD SVG 1.1//EN"
 "http://www.w3.org/Graphics/SVG/1.1/DTD/svg11.dtd">
<!-- Generated by graphviz version 2.43.0 (0)
 -->
<!-- Title: Graphical Class Hierarchy Pages: 1 -->
<svg width="240pt" height="345pt"
 viewBox="0.00 0.00 240.00 345.00" xmlns="http://www.w3.org/2000/svg" xmlns:xlink="http://www.w3.org/1999/xlink">
<g id="graph0" class="graph" transform="scale(1 1) rotate(0) translate(4 341)">
<title>Graphical Class Hierarchy</title>
<polygon fill="white" stroke="transparent" points="-4,4 -4,-341 236,-341 236,4 -4,4"/>
<!-- Node243 -->
<g id="node1" class="node">
<title>Node243</title>
<g id="a_node1"><a xlink:title=" ">
<polygon fill="white" stroke="#bfbfbf" points="0,-165 0,-184 35,-184 35,-165 0,-165"/>
<text text-anchor="middle" x="17.5" y="-172" font-family="Helvetica,sans-Serif" font-size="10.00">one</text>
</a>
</g>
</g>
<!-- Node0 -->
<g id="node2" class="node">
<title>Node0</title>
<g id="a_node2"><a xlink:href="d6/d90/structjoda_1_1queryparsing_1_1grammar_1_1beginList.html" target="_top" xlink:title=" ">
<polygon fill="white" stroke="black" points="92.5,-306.5 92.5,-336.5 210.5,-336.5 210.5,-306.5 92.5,-306.5"/>
<text text-anchor="start" x="100.5" y="-324.5" font-family="Helvetica,sans-Serif" font-size="10.00">joda::queryparsing</text>
<text text-anchor="middle" x="151.5" y="-313.5" font-family="Helvetica,sans-Serif" font-size="10.00">::grammar::beginList</text>
</a>
</g>
</g>
<!-- Node243&#45;&gt;Node0 -->
<g id="edge1" class="edge">
<title>Node243&#45;&gt;Node0</title>
<path fill="none" stroke="midnightblue" d="M21.61,-194.29C26.91,-221.44 40.28,-269.99 71,-297.5 77.12,-302.98 84.46,-307.21 92.17,-310.48"/>
<polygon fill="midnightblue" stroke="midnightblue" points="24.99,-193.33 19.8,-184.09 18.1,-194.55 24.99,-193.33"/>
</g>
<!-- Node245 -->
<g id="node3" class="node">
<title>Node245</title>
<g id="a_node3"><a xlink:href="d5/d85/structjoda_1_1queryparsing_1_1grammar_1_1funcBracketClose.html" target="_top" xlink:title=" ">
<polygon fill="white" stroke="black" points="72.5,-257.5 72.5,-287.5 230.5,-287.5 230.5,-257.5 72.5,-257.5"/>
<text text-anchor="start" x="80.5" y="-275.5" font-family="Helvetica,sans-Serif" font-size="10.00">joda::queryparsing</text>
<text text-anchor="middle" x="151.5" y="-264.5" font-family="Helvetica,sans-Serif" font-size="10.00">::grammar::funcBracketClose</text>
</a>
</g>
</g>
<!-- Node243&#45;&gt;Node245 -->
<g id="edge2" class="edge">
<title>Node243&#45;&gt;Node245</title>
<path fill="none" stroke="midnightblue" d="M27.48,-193.63C36.3,-210.43 51.3,-234.33 71,-248.5 75.8,-251.95 81.1,-254.91 86.62,-257.45"/>
<polygon fill="midnightblue" stroke="midnightblue" points="30.39,-191.62 22.79,-184.24 24.12,-194.75 30.39,-191.62"/>
</g>
<!-- Node246 -->
<g id="node4" class="node">
<title>Node246</title>
<g id="a_node4"><a xlink:href="d5/d24/structjoda_1_1queryparsing_1_1grammar_1_1funcBracketOpen.html" target="_top" xlink:title=" ">
<polygon fill="white" stroke="black" points="73,-208.5 73,-238.5 230,-238.5 230,-208.5 73,-208.5"/>
<text text-anchor="start" x="81" y="-226.5" font-family="Helvetica,sans-Serif" font-size="10.00">joda::queryparsing</text>
<text text-anchor="middle" x="151.5" y="-215.5" font-family="Helvetica,sans-Serif" font-size="10.00">::grammar::funcBracketOpen</text>
</a>
</g>
</g>
<!-- Node243&#45;&gt;Node246 -->
<g id="edge3" class="edge">
<title>Node243&#45;&gt;Node246</title>
<path fill="none" stroke="midnightblue" d="M44.21,-187.7C52.63,-191.76 62.11,-196.06 71,-199.5 79.2,-202.67 88.01,-205.69 96.67,-208.46"/>
<polygon fill="midnightblue" stroke="midnightblue" points="45.75,-184.56 35.24,-183.27 42.66,-190.83 45.75,-184.56"/>
</g>
<!-- Node247 -->
<g id="node5" class="node">
<title>Node247</title>
<g id="a_node5"><a xlink:href="d9/dc3/structjoda_1_1queryparsing_1_1grammar_1_1loadFileLiteralEnd.html" target="_top" xlink:title=" ">
<polygon fill="white" stroke="black" points="71,-159.5 71,-189.5 232,-189.5 232,-159.5 71,-159.5"/>
<text text-anchor="start" x="79" y="-177.5" font-family="Helvetica,sans-Serif" font-size="10.00">joda::queryparsing</text>
<text text-anchor="middle" x="151.5" y="-166.5" font-family="Helvetica,sans-Serif" font-size="10.00">::grammar::loadFileLiteralEnd</text>
</a>
</g>
</g>
<!-- Node243&#45;&gt;Node247 -->
<g id="edge4" class="edge">
<title>Node243&#45;&gt;Node247</title>
<path fill="none" stroke="midnightblue" d="M45.25,-174.5C52.92,-174.5 61.71,-174.5 70.86,-174.5"/>
<polygon fill="midnightblue" stroke="midnightblue" points="45.22,-171 35.22,-174.5 45.22,-178 45.22,-171"/>
</g>
<!-- Node248 -->
<g id="node6" class="node">
<title>Node248</title>
<g id="a_node6"><a xlink:href="d3/dbf/structjoda_1_1queryparsing_1_1grammar_1_1loadFileLiteralStart.html" target="_top" xlink:title=" ">
<polygon fill="white" stroke="black" points="80,-99 80,-140 223,-140 223,-99 80,-99"/>
<text text-anchor="start" x="88" y="-128" font-family="Helvetica,sans-Serif" font-size="10.00">joda::queryparsing</text>
<text text-anchor="start" x="88" y="-117" font-family="Helvetica,sans-Serif" font-size="10.00">::grammar::loadFileLiteral</text>
<text text-anchor="middle" x="151.5" y="-106" font-family="Helvetica,sans-Serif" font-size="10.00">Start</text>
</a>
</g>
</g>
<!-- Node243&#45;&gt;Node248 -->
<g id="edge5" class="edge">
<title>Node243&#45;&gt;Node248</title>
<path fill="none" stroke="midnightblue" d="M44.69,-162.17C53.05,-158.33 62.38,-154.15 71,-150.5 79.19,-147.04 87.9,-143.49 96.45,-140.1"/>
<polygon fill="midnightblue" stroke="midnightblue" points="43.02,-159.09 35.42,-166.47 45.96,-165.44 43.02,-159.09"/>
</g>
<!-- Node249 -->
<g id="node7" class="node">
<title>Node249</title>
<g id="a_node7"><a xlink:href="dd/d34/structjoda_1_1queryparsing_1_1grammar_1_1negate.html" target="_top" xlink:title=" ">
<polygon fill="white" stroke="black" points="98,-49.5 98,-79.5 205,-79.5 205,-49.5 98,-49.5"/>
<text text-anchor="start" x="106" y="-67.5" font-family="Helvetica,sans-Serif" font-size="10.00">joda::queryparsing</text>
<text text-anchor="middle" x="151.5" y="-56.5" font-family="Helvetica,sans-Serif" font-size="10.00">::grammar::negate</text>
</a>
</g>
</g>
<!-- Node243&#45;&gt;Node249 -->
<g id="edge6" class="edge">
<title>Node243&#45;&gt;Node249</title>
<path fill="none" stroke="midnightblue" d="M25.58,-155.48C33.71,-136.17 48.83,-106.74 71,-89.5 78.88,-83.37 88.29,-78.73 97.83,-75.22"/>
<polygon fill="midnightblue" stroke="midnightblue" points="22.33,-154.19 21.88,-164.78 28.83,-156.78 22.33,-154.19"/>
</g>
<!-- Node250 -->
<g id="node8" class="node">
<title>Node250</title>
<g id="a_node8"><a xlink:href="da/dfb/structjoda_1_1queryparsing_1_1grammar_1_1projectKW__ALL.html" target="_top" xlink:title=" ">
<polygon fill="white" stroke="black" points="78.5,-0.5 78.5,-30.5 224.5,-30.5 224.5,-0.5 78.5,-0.5"/>
<text text-anchor="start" x="86.5" y="-18.5" font-family="Helvetica,sans-Serif" font-size="10.00">joda::queryparsing</text>
<text text-anchor="middle" x="151.5" y="-7.5" font-family="Helvetica,sans-Serif" font-size="10.00">::grammar::projectKW_ALL</text>
</a>
</g>
</g>
<!-- Node243&#45;&gt;Node250 -->
<g id="edge7" class="edge">
<title>Node243&#45;&gt;Node250</title>
<path fill="none" stroke="midnightblue" d="M20.87,-154.67C25.39,-125.55 37.95,-71.36 71,-40.5 75.12,-36.65 79.84,-33.39 84.86,-30.64"/>
<polygon fill="midnightblue" stroke="midnightblue" points="17.37,-154.44 19.46,-164.83 24.3,-155.4 17.37,-154.44"/>
</g>
</g>
</svg>
