<?xml version="1.0" encoding="UTF-8" standalone="no"?>
<!DOCTYPE svg PUBLIC "-//W3C//DTD SVG 1.1//EN"
 "http://www.w3.org/Graphics/SVG/1.1/DTD/svg11.dtd">
<!-- Generated by graphviz version 2.43.0 (0)
 -->
<!-- Title: Graphical Class Hierarchy Pages: 1 -->
<svg width="419pt" height="50pt"
 viewBox="0.00 0.00 419.00 50.00" xmlns="http://www.w3.org/2000/svg" xmlns:xlink="http://www.w3.org/1999/xlink">
<g id="graph0" class="graph" transform="scale(1 1) rotate(0) translate(4 46)">
<title>Graphical Class Hierarchy</title>
<polygon fill="white" stroke="transparent" points="-4,4 -4,-46 415,-46 415,4 -4,4"/>
<!-- Node0 -->
<g id="node1" class="node">
<title>Node0</title>
<g id="a_node1"><a xlink:href="db/de4/classIWorkerThread.html" target="_top" xlink:title=" ">
<polygon fill="white" stroke="black" points="0,-0.5 0,-41.5 194,-41.5 194,-0.5 0,-0.5"/>
<text text-anchor="start" x="8" y="-29.5" font-family="Helvetica,sans-Serif" font-size="10.00">IWorkerThread&lt; JsonURLReader</text>
<text text-anchor="start" x="8" y="-18.5" font-family="Helvetica,sans-Serif" font-size="10.00">Queue, JsonTextStreamParserQueue,</text>
<text text-anchor="middle" x="97" y="-7.5" font-family="Helvetica,sans-Serif" font-size="10.00"> void * &gt;</text>
</a>
</g>
</g>
<!-- Node1 -->
<g id="node2" class="node">
<title>Node1</title>
<g id="a_node2"><a xlink:href="da/da2/classjoda_1_1docparsing_1_1JSONURLReader.html" target="_top" xlink:title=" ">
<polygon fill="white" stroke="black" points="230,-11.5 230,-30.5 411,-30.5 411,-11.5 230,-11.5"/>
<text text-anchor="middle" x="320.5" y="-18.5" font-family="Helvetica,sans-Serif" font-size="10.00">joda::docparsing::JSONURLReader</text>
</a>
</g>
</g>
<!-- Node0&#45;&gt;Node1 -->
<g id="edge1" class="edge">
<title>Node0&#45;&gt;Node1</title>
<path fill="none" stroke="midnightblue" d="M204.46,-21C212.9,-21 221.37,-21 229.69,-21"/>
<polygon fill="midnightblue" stroke="midnightblue" points="204.19,-17.5 194.19,-21 204.19,-24.5 204.19,-17.5"/>
</g>
</g>
</svg>
