<?xml version="1.0" encoding="UTF-8" standalone="no"?>
<!DOCTYPE svg PUBLIC "-//W3C//DTD SVG 1.1//EN"
 "http://www.w3.org/Graphics/SVG/1.1/DTD/svg11.dtd">
<!-- Generated by graphviz version 2.43.0 (0)
 -->
<!-- Title: Graphical Class Hierarchy Pages: 1 -->
<svg width="238pt" height="522pt"
 viewBox="0.00 0.00 238.00 522.00" xmlns="http://www.w3.org/2000/svg" xmlns:xlink="http://www.w3.org/1999/xlink">
<g id="graph0" class="graph" transform="scale(1 1) rotate(0) translate(4 518)">
<title>Graphical Class Hierarchy</title>
<polygon fill="white" stroke="transparent" points="-4,4 -4,-518 234,-518 234,4 -4,4"/>
<!-- Node35 -->
<g id="node1" class="node">
<title>Node35</title>
<g id="a_node1"><a xlink:title=" ">
<polygon fill="white" stroke="#bfbfbf" points="0,-247.5 0,-266.5 36,-266.5 36,-247.5 0,-247.5"/>
<text text-anchor="middle" x="18" y="-254.5" font-family="Helvetica,sans-Serif" font-size="10.00">Test</text>
</a>
</g>
</g>
<!-- Node0 -->
<g id="node2" class="node">
<title>Node0</title>
<g id="a_node2"><a xlink:href="dc/d82/classAggregatorParsingTest.html" target="_top" xlink:title=" ">
<polygon fill="white" stroke="black" points="74,-494.5 74,-513.5 228,-513.5 228,-494.5 74,-494.5"/>
<text text-anchor="middle" x="151" y="-501.5" font-family="Helvetica,sans-Serif" font-size="10.00">AggregatorParsingTest&lt; T &gt;</text>
</a>
</g>
</g>
<!-- Node35&#45;&gt;Node0 -->
<g id="edge1" class="edge">
<title>Node35&#45;&gt;Node0</title>
<path fill="none" stroke="midnightblue" d="M20.95,-276.66C26.26,-326.38 42.63,-455.32 72,-485 75.73,-488.76 80.06,-491.83 84.75,-494.32"/>
<polygon fill="midnightblue" stroke="midnightblue" points="24.41,-276.15 19.9,-266.56 17.45,-276.87 24.41,-276.15"/>
</g>
<!-- Node37 -->
<g id="node3" class="node">
<title>Node37</title>
<g id="a_node3"><a xlink:href="db/d95/classAggregatorTest.html" target="_top" xlink:title=" ">
<polygon fill="white" stroke="black" points="106,-456.5 106,-475.5 196,-475.5 196,-456.5 106,-456.5"/>
<text text-anchor="middle" x="151" y="-463.5" font-family="Helvetica,sans-Serif" font-size="10.00">AggregatorTest</text>
</a>
</g>
</g>
<!-- Node35&#45;&gt;Node37 -->
<g id="edge2" class="edge">
<title>Node35&#45;&gt;Node37</title>
<path fill="none" stroke="midnightblue" d="M18.42,-276.94C18.44,-315.57 24.27,-400.82 72,-447 81.12,-455.82 93.61,-460.77 105.92,-463.49"/>
<polygon fill="midnightblue" stroke="midnightblue" points="21.92,-276.6 18.56,-266.55 14.92,-276.5 21.92,-276.6"/>
</g>
<!-- Node38 -->
<g id="node4" class="node">
<title>Node38</title>
<g id="a_node4"><a xlink:href="d8/d12/classAPI2Test.html" target="_top" xlink:title=" ">
<polygon fill="white" stroke="black" points="122,-418.5 122,-437.5 180,-437.5 180,-418.5 122,-418.5"/>
<text text-anchor="middle" x="151" y="-425.5" font-family="Helvetica,sans-Serif" font-size="10.00">API2Test</text>
</a>
</g>
</g>
<!-- Node35&#45;&gt;Node38 -->
<g id="edge3" class="edge">
<title>Node35&#45;&gt;Node38</title>
<path fill="none" stroke="midnightblue" d="M20.04,-276.54C22.87,-308.99 33.31,-373.88 72,-409 85.42,-421.18 105.32,-425.89 121.66,-427.57"/>
<polygon fill="midnightblue" stroke="midnightblue" points="23.53,-276.25 19.33,-266.52 16.55,-276.74 23.53,-276.25"/>
</g>
<!-- Node39 -->
<g id="node5" class="node">
<title>Node39</title>
<g id="a_node5"><a xlink:href="db/d84/classCollectionTest.html" target="_top" xlink:title=" ">
<polygon fill="white" stroke="black" points="108.5,-380.5 108.5,-399.5 193.5,-399.5 193.5,-380.5 108.5,-380.5"/>
<text text-anchor="middle" x="151" y="-387.5" font-family="Helvetica,sans-Serif" font-size="10.00">CollectionTest</text>
</a>
</g>
</g>
<!-- Node35&#45;&gt;Node39 -->
<g id="edge4" class="edge">
<title>Node35&#45;&gt;Node39</title>
<path fill="none" stroke="midnightblue" d="M22.68,-276.7C28.54,-302.35 42.46,-346.76 72,-371 82.23,-379.4 95.61,-384.18 108.4,-386.88"/>
<polygon fill="midnightblue" stroke="midnightblue" points="26.06,-275.75 20.59,-266.67 19.21,-277.17 26.06,-275.75"/>
</g>
<!-- Node40 -->
<g id="node6" class="node">
<title>Node40</title>
<g id="a_node6"><a xlink:href="de/d8e/classDirectoryFileScannerTest.html" target="_top" xlink:title=" ">
<polygon fill="white" stroke="black" points="82.5,-342.5 82.5,-361.5 219.5,-361.5 219.5,-342.5 82.5,-342.5"/>
<text text-anchor="middle" x="151" y="-349.5" font-family="Helvetica,sans-Serif" font-size="10.00">DirectoryFileScannerTest</text>
</a>
</g>
</g>
<!-- Node35&#45;&gt;Node40 -->
<g id="edge5" class="edge">
<title>Node35&#45;&gt;Node40</title>
<path fill="none" stroke="midnightblue" d="M27.27,-275.85C35.92,-293.33 51.14,-318.72 72,-333 77.64,-336.86 83.97,-339.94 90.53,-342.39"/>
<polygon fill="midnightblue" stroke="midnightblue" points="30.36,-274.19 22.95,-266.62 24.02,-277.16 30.36,-274.19"/>
</g>
<!-- Node41 -->
<g id="node7" class="node">
<title>Node41</title>
<g id="a_node7"><a xlink:href="dc/dc4/classMeasureTest.html" target="_top" xlink:title=" ">
<polygon fill="white" stroke="black" points="97.5,-304.5 97.5,-323.5 204.5,-323.5 204.5,-304.5 97.5,-304.5"/>
<text text-anchor="middle" x="151" y="-311.5" font-family="Helvetica,sans-Serif" font-size="10.00">MeasureTest&lt; T &gt;</text>
</a>
</g>
</g>
<!-- Node35&#45;&gt;Node41 -->
<g id="edge6" class="edge">
<title>Node35&#45;&gt;Node41</title>
<path fill="none" stroke="midnightblue" d="M37.74,-273.15C47.42,-280.76 59.74,-289.37 72,-295 80.36,-298.84 89.59,-301.96 98.69,-304.48"/>
<polygon fill="midnightblue" stroke="midnightblue" points="39.95,-270.43 29.99,-266.83 35.53,-275.86 39.95,-270.43"/>
</g>
<!-- Node42 -->
<g id="node8" class="node">
<title>Node42</title>
<g id="a_node8"><a xlink:href="df/d23/classNumberAggregatorTest.html" target="_top" xlink:title=" ">
<polygon fill="white" stroke="black" points="72,-266.5 72,-285.5 230,-285.5 230,-266.5 72,-266.5"/>
<text text-anchor="middle" x="151" y="-273.5" font-family="Helvetica,sans-Serif" font-size="10.00">NumberAggregatorTest&lt; T &gt;</text>
</a>
</g>
</g>
<!-- Node35&#45;&gt;Node42 -->
<g id="edge7" class="edge">
<title>Node35&#45;&gt;Node42</title>
<path fill="none" stroke="midnightblue" d="M46.11,-260.93C57.35,-262.56 70.93,-264.53 84.5,-266.5"/>
<polygon fill="midnightblue" stroke="midnightblue" points="46.52,-257.46 36.13,-259.48 45.52,-264.38 46.52,-257.46"/>
</g>
<!-- Node43 -->
<g id="node9" class="node">
<title>Node43</title>
<g id="a_node9"><a xlink:href="dc/d9c/classRJAttributeTest.html" target="_top" xlink:title=" ">
<polygon fill="white" stroke="black" points="106.5,-228.5 106.5,-247.5 195.5,-247.5 195.5,-228.5 106.5,-228.5"/>
<text text-anchor="middle" x="151" y="-235.5" font-family="Helvetica,sans-Serif" font-size="10.00">RJAttributeTest</text>
</a>
</g>
</g>
<!-- Node35&#45;&gt;Node43 -->
<g id="edge8" class="edge">
<title>Node35&#45;&gt;Node43</title>
<path fill="none" stroke="midnightblue" d="M46.15,-253.06C63.54,-250.54 86.48,-247.21 106.38,-244.33"/>
<polygon fill="midnightblue" stroke="midnightblue" points="45.52,-249.62 36.13,-254.52 46.52,-256.54 45.52,-249.62"/>
</g>
<!-- Node44 -->
<g id="node10" class="node">
<title>Node44</title>
<g id="a_node10"><a xlink:href="d7/da5/classRJPathTest.html" target="_top" xlink:title=" ">
<polygon fill="white" stroke="black" points="117.5,-190.5 117.5,-209.5 184.5,-209.5 184.5,-190.5 117.5,-190.5"/>
<text text-anchor="middle" x="151" y="-197.5" font-family="Helvetica,sans-Serif" font-size="10.00">RJPathTest</text>
</a>
</g>
</g>
<!-- Node35&#45;&gt;Node44 -->
<g id="edge9" class="edge">
<title>Node35&#45;&gt;Node44</title>
<path fill="none" stroke="midnightblue" d="M37.74,-240.85C47.42,-233.24 59.74,-224.63 72,-219 86.19,-212.49 102.89,-208.03 117.19,-205.09"/>
<polygon fill="midnightblue" stroke="midnightblue" points="35.53,-238.14 29.99,-247.17 39.95,-243.57 35.53,-238.14"/>
</g>
<!-- Node45 -->
<g id="node11" class="node">
<title>Node45</title>
<g id="a_node11"><a xlink:href="d5/db5/classServerTest.html" target="_top" xlink:title=" ">
<polygon fill="white" stroke="black" points="117,-152.5 117,-171.5 185,-171.5 185,-152.5 117,-152.5"/>
<text text-anchor="middle" x="151" y="-159.5" font-family="Helvetica,sans-Serif" font-size="10.00">ServerTest</text>
</a>
</g>
</g>
<!-- Node35&#45;&gt;Node45 -->
<g id="edge10" class="edge">
<title>Node35&#45;&gt;Node45</title>
<path fill="none" stroke="midnightblue" d="M27.27,-238.15C35.92,-220.67 51.14,-195.28 72,-181 85.11,-172.02 102.01,-167.27 116.73,-164.77"/>
<polygon fill="midnightblue" stroke="midnightblue" points="24.02,-236.84 22.95,-247.38 30.36,-239.81 24.02,-236.84"/>
</g>
<!-- Node46 -->
<g id="node12" class="node">
<title>Node46</title>
<g id="a_node12"><a xlink:href="d1/d60/classStaticEvalVisitorTest.html" target="_top" xlink:title=" ">
<polygon fill="white" stroke="black" points="93,-114.5 93,-133.5 209,-133.5 209,-114.5 93,-114.5"/>
<text text-anchor="middle" x="151" y="-121.5" font-family="Helvetica,sans-Serif" font-size="10.00">StaticEvalVisitorTest</text>
</a>
</g>
</g>
<!-- Node35&#45;&gt;Node46 -->
<g id="edge11" class="edge">
<title>Node35&#45;&gt;Node46</title>
<path fill="none" stroke="midnightblue" d="M22.68,-237.3C28.54,-211.65 42.46,-167.24 72,-143 78.03,-138.05 85.16,-134.35 92.61,-131.6"/>
<polygon fill="midnightblue" stroke="midnightblue" points="19.21,-236.83 20.59,-247.33 26.06,-238.25 19.21,-236.83"/>
</g>
<!-- Node47 -->
<g id="node13" class="node">
<title>Node47</title>
<g id="a_node13"><a xlink:href="de/d0b/classValueTest.html" target="_top" xlink:title=" ">
<polygon fill="white" stroke="black" points="119.5,-76.5 119.5,-95.5 182.5,-95.5 182.5,-76.5 119.5,-76.5"/>
<text text-anchor="middle" x="151" y="-83.5" font-family="Helvetica,sans-Serif" font-size="10.00">ValueTest</text>
</a>
</g>
</g>
<!-- Node35&#45;&gt;Node47 -->
<g id="edge12" class="edge">
<title>Node35&#45;&gt;Node47</title>
<path fill="none" stroke="midnightblue" d="M20.04,-237.46C22.87,-205.01 33.31,-140.12 72,-105 84.8,-93.38 103.5,-88.56 119.38,-86.68"/>
<polygon fill="midnightblue" stroke="midnightblue" points="16.55,-237.26 19.33,-247.48 23.53,-237.75 16.55,-237.26"/>
</g>
<!-- Node48 -->
<g id="node14" class="node">
<title>Node48</title>
<g id="a_node14"><a xlink:href="de/d44/classViewTest.html" target="_top" xlink:title=" ">
<polygon fill="white" stroke="black" points="121,-38.5 121,-57.5 181,-57.5 181,-38.5 121,-38.5"/>
<text text-anchor="middle" x="151" y="-45.5" font-family="Helvetica,sans-Serif" font-size="10.00">ViewTest</text>
</a>
</g>
</g>
<!-- Node35&#45;&gt;Node48 -->
<g id="edge13" class="edge">
<title>Node35&#45;&gt;Node48</title>
<path fill="none" stroke="midnightblue" d="M18.42,-237.06C18.44,-198.43 24.27,-113.18 72,-67 84.92,-54.5 104.63,-49.77 121,-48.16"/>
<polygon fill="midnightblue" stroke="midnightblue" points="14.92,-237.5 18.56,-247.45 21.92,-237.4 14.92,-237.5"/>
</g>
<!-- Node49 -->
<g id="node15" class="node">
<title>Node49</title>
<g id="a_node15"><a xlink:href="dc/d38/classVirtualObjectTest.html" target="_top" xlink:title=" ">
<polygon fill="white" stroke="black" points="101,-0.5 101,-19.5 201,-19.5 201,-0.5 101,-0.5"/>
<text text-anchor="middle" x="151" y="-7.5" font-family="Helvetica,sans-Serif" font-size="10.00">VirtualObjectTest</text>
</a>
</g>
</g>
<!-- Node35&#45;&gt;Node49 -->
<g id="edge14" class="edge">
<title>Node35&#45;&gt;Node49</title>
<path fill="none" stroke="midnightblue" d="M20.95,-237.34C26.26,-187.62 42.63,-58.68 72,-29 79.74,-21.17 90.14,-16.37 100.81,-13.46"/>
<polygon fill="midnightblue" stroke="midnightblue" points="17.45,-237.13 19.9,-247.44 24.41,-237.85 17.45,-237.13"/>
</g>
</g>
</svg>
