<?xml version="1.0" encoding="UTF-8" standalone="no"?>
<!DOCTYPE svg PUBLIC "-//W3C//DTD SVG 1.1//EN"
 "http://www.w3.org/Graphics/SVG/1.1/DTD/svg11.dtd">
<!-- Generated by graphviz version 2.43.0 (0)
 -->
<!-- Title: Graphical Class Hierarchy Pages: 1 -->
<svg width="361pt" height="127pt"
 viewBox="0.00 0.00 361.00 126.50" xmlns="http://www.w3.org/2000/svg" xmlns:xlink="http://www.w3.org/1999/xlink">
<g id="graph0" class="graph" transform="scale(1 1) rotate(0) translate(4 122.5)">
<title>Graphical Class Hierarchy</title>
<polygon fill="white" stroke="transparent" points="-4,4 -4,-122.5 357,-122.5 357,4 -4,4"/>
<!-- Node0 -->
<g id="node1" class="node">
<title>Node0</title>
<g id="a_node1"><a xlink:href="d5/d90/classjoda_1_1docparsing_1_1IImportSource.html" target="_top" xlink:title=" ">
<polygon fill="white" stroke="black" points="0,-39 0,-69 138,-69 138,-39 0,-39"/>
<text text-anchor="start" x="8" y="-57" font-family="Helvetica,sans-Serif" font-size="10.00">joda::docparsing::IImport</text>
<text text-anchor="middle" x="69" y="-46" font-family="Helvetica,sans-Serif" font-size="10.00">Source</text>
</a>
</g>
</g>
<!-- Node1 -->
<g id="node2" class="node">
<title>Node1</title>
<g id="a_node2"><a xlink:href="d3/d58/classjoda_1_1docparsing_1_1JSONFileDirectorySource.html" target="_top" xlink:title=" ">
<polygon fill="white" stroke="black" points="191.5,-88 191.5,-118 335.5,-118 335.5,-88 191.5,-88"/>
<text text-anchor="start" x="199.5" y="-106" font-family="Helvetica,sans-Serif" font-size="10.00">joda::docparsing::JSONFile</text>
<text text-anchor="middle" x="263.5" y="-95" font-family="Helvetica,sans-Serif" font-size="10.00">DirectorySource</text>
</a>
</g>
</g>
<!-- Node0&#45;&gt;Node1 -->
<g id="edge1" class="edge">
<title>Node0&#45;&gt;Node1</title>
<path fill="none" stroke="midnightblue" d="M138.95,-71.55C160.08,-76.93 183.14,-82.8 203.55,-87.99"/>
<polygon fill="midnightblue" stroke="midnightblue" points="139.62,-68.11 129.06,-69.03 137.89,-74.89 139.62,-68.11"/>
</g>
<!-- Node2 -->
<g id="node3" class="node">
<title>Node2</title>
<g id="a_node3"><a xlink:href="d5/dd0/classjoda_1_1docparsing_1_1JSONFileSource.html" target="_top" xlink:title=" ">
<polygon fill="white" stroke="black" points="191.5,-39 191.5,-69 335.5,-69 335.5,-39 191.5,-39"/>
<text text-anchor="start" x="199.5" y="-57" font-family="Helvetica,sans-Serif" font-size="10.00">joda::docparsing::JSONFile</text>
<text text-anchor="middle" x="263.5" y="-46" font-family="Helvetica,sans-Serif" font-size="10.00">Source</text>
</a>
</g>
</g>
<!-- Node0&#45;&gt;Node2 -->
<g id="edge2" class="edge">
<title>Node0&#45;&gt;Node2</title>
<path fill="none" stroke="midnightblue" d="M148.35,-54C162.52,-54 177.23,-54 191.19,-54"/>
<polygon fill="midnightblue" stroke="midnightblue" points="148.14,-50.5 138.14,-54 148.14,-57.5 148.14,-50.5"/>
</g>
<!-- Node3 -->
<g id="node4" class="node">
<title>Node3</title>
<g id="a_node4"><a xlink:href="d7/d7c/classjoda_1_1docparsing_1_1JSONURLSource.html" target="_top" xlink:title=" ">
<polygon fill="white" stroke="black" points="174,-0.5 174,-19.5 353,-19.5 353,-0.5 174,-0.5"/>
<text text-anchor="middle" x="263.5" y="-7.5" font-family="Helvetica,sans-Serif" font-size="10.00">joda::docparsing::JSONURLSource</text>
</a>
</g>
</g>
<!-- Node0&#45;&gt;Node3 -->
<g id="edge3" class="edge">
<title>Node0&#45;&gt;Node3</title>
<path fill="none" stroke="midnightblue" d="M144.69,-36.72C154.55,-34.45 164.52,-32.17 174,-30 189.05,-26.56 205.55,-22.83 220.18,-19.52"/>
<polygon fill="midnightblue" stroke="midnightblue" points="143.86,-33.32 134.9,-38.98 145.43,-40.14 143.86,-33.32"/>
</g>
</g>
</svg>
