<?xml version="1.0" encoding="UTF-8" standalone="no"?>
<!DOCTYPE svg PUBLIC "-//W3C//DTD SVG 1.1//EN"
 "http://www.w3.org/Graphics/SVG/1.1/DTD/svg11.dtd">
<!-- Generated by graphviz version 2.43.0 (0)
 -->
<!-- Title: Graphical Class Hierarchy Pages: 1 -->
<svg width="266pt" height="198pt"
 viewBox="0.00 0.00 266.00 198.00" xmlns="http://www.w3.org/2000/svg" xmlns:xlink="http://www.w3.org/1999/xlink">
<g id="graph0" class="graph" transform="scale(1 1) rotate(0) translate(4 194)">
<title>Graphical Class Hierarchy</title>
<polygon fill="white" stroke="transparent" points="-4,4 -4,-194 262,-194 262,4 -4,4"/>
<!-- Node240 -->
<g id="node1" class="node">
<title>Node240</title>
<g id="a_node1"><a xlink:title=" ">
<polygon fill="white" stroke="#bfbfbf" points="0,-88 0,-107 35,-107 35,-88 0,-88"/>
<text text-anchor="middle" x="17.5" y="-95" font-family="Helvetica,sans-Serif" font-size="10.00">pad</text>
</a>
</g>
</g>
<!-- Node0 -->
<g id="node2" class="node">
<title>Node0</title>
<g id="a_node2"><a xlink:href="d4/d71/structjoda_1_1queryparsing_1_1grammar_1_1bracketEnd.html" target="_top" xlink:title=" ">
<polygon fill="white" stroke="black" points="100.5,-159.5 100.5,-189.5 228.5,-189.5 228.5,-159.5 100.5,-159.5"/>
<text text-anchor="start" x="108.5" y="-177.5" font-family="Helvetica,sans-Serif" font-size="10.00">joda::queryparsing</text>
<text text-anchor="middle" x="164.5" y="-166.5" font-family="Helvetica,sans-Serif" font-size="10.00">::grammar::bracketEnd</text>
</a>
</g>
</g>
<!-- Node240&#45;&gt;Node0 -->
<g id="edge1" class="edge">
<title>Node240&#45;&gt;Node0</title>
<path fill="none" stroke="midnightblue" d="M32,-115.46C41.65,-127.08 55.61,-141.65 71,-150.5 80.06,-155.71 90.26,-159.81 100.5,-163.03"/>
<polygon fill="midnightblue" stroke="midnightblue" points="34.47,-112.94 25.51,-107.29 28.99,-117.29 34.47,-112.94"/>
</g>
<!-- Node242 -->
<g id="node3" class="node">
<title>Node242</title>
<g id="a_node3"><a xlink:href="d4/d3a/structjoda_1_1queryparsing_1_1grammar_1_1bracketStart.html" target="_top" xlink:title=" ">
<polygon fill="white" stroke="black" points="98,-110.5 98,-140.5 231,-140.5 231,-110.5 98,-110.5"/>
<text text-anchor="start" x="106" y="-128.5" font-family="Helvetica,sans-Serif" font-size="10.00">joda::queryparsing</text>
<text text-anchor="middle" x="164.5" y="-117.5" font-family="Helvetica,sans-Serif" font-size="10.00">::grammar::bracketStart</text>
</a>
</g>
</g>
<!-- Node240&#45;&gt;Node242 -->
<g id="edge2" class="edge">
<title>Node240&#45;&gt;Node242</title>
<path fill="none" stroke="midnightblue" d="M45.11,-102.64C59.98,-105.51 79.21,-109.22 97.84,-112.82"/>
<polygon fill="midnightblue" stroke="midnightblue" points="45.62,-99.17 35.13,-100.71 44.29,-106.04 45.62,-99.17"/>
</g>
<!-- Node243 -->
<g id="node4" class="node">
<title>Node243</title>
<g id="a_node4"><a xlink:href="d1/d98/structjoda_1_1queryparsing_1_1grammar_1_1loadFilesLineSeperatedCommand.html" target="_top" xlink:title=" ">
<polygon fill="white" stroke="black" points="71,-50 71,-91 258,-91 258,-50 71,-50"/>
<text text-anchor="start" x="79" y="-79" font-family="Helvetica,sans-Serif" font-size="10.00">joda::queryparsing</text>
<text text-anchor="start" x="79" y="-68" font-family="Helvetica,sans-Serif" font-size="10.00">::grammar::loadFilesLineSeperated</text>
<text text-anchor="middle" x="164.5" y="-57" font-family="Helvetica,sans-Serif" font-size="10.00">Command</text>
</a>
</g>
</g>
<!-- Node240&#45;&gt;Node243 -->
<g id="edge3" class="edge">
<title>Node240&#45;&gt;Node243</title>
<path fill="none" stroke="midnightblue" d="M45.13,-92.54C52.8,-91.11 61.63,-89.47 70.93,-87.74"/>
<polygon fill="midnightblue" stroke="midnightblue" points="44.32,-89.13 35.13,-94.4 45.61,-96.01 44.32,-89.13"/>
</g>
<!-- Node244 -->
<g id="node5" class="node">
<title>Node244</title>
<g id="a_node5"><a xlink:href="df/d94/structjoda_1_1queryparsing_1_1grammar_1_1sampleCommand.html" target="_top" xlink:title=" ">
<polygon fill="white" stroke="black" points="84.5,-0.5 84.5,-30.5 244.5,-30.5 244.5,-0.5 84.5,-0.5"/>
<text text-anchor="start" x="92.5" y="-18.5" font-family="Helvetica,sans-Serif" font-size="10.00">joda::queryparsing</text>
<text text-anchor="middle" x="164.5" y="-7.5" font-family="Helvetica,sans-Serif" font-size="10.00">::grammar::sampleCommand</text>
</a>
</g>
</g>
<!-- Node240&#45;&gt;Node244 -->
<g id="edge4" class="edge">
<title>Node240&#45;&gt;Node244</title>
<path fill="none" stroke="midnightblue" d="M30.82,-79.45C40.37,-66.77 54.71,-50.38 71,-40.5 77.4,-36.62 84.41,-33.33 91.61,-30.54"/>
<polygon fill="midnightblue" stroke="midnightblue" points="27.75,-77.72 24.75,-87.88 33.43,-81.81 27.75,-77.72"/>
</g>
</g>
</svg>
