<?xml version="1.0" encoding="UTF-8" standalone="no"?>
<!DOCTYPE svg PUBLIC "-//W3C//DTD SVG 1.1//EN"
 "http://www.w3.org/Graphics/SVG/1.1/DTD/svg11.dtd">
<!-- Generated by graphviz version 2.43.0 (0)
 -->
<!-- Title: Graphical Class Hierarchy Pages: 1 -->
<svg width="278pt" height="1558pt"
 viewBox="0.00 0.00 278.00 1558.00" xmlns="http://www.w3.org/2000/svg" xmlns:xlink="http://www.w3.org/1999/xlink">
<g id="graph0" class="graph" transform="scale(1 1) rotate(0) translate(4 1554)">
<title>Graphical Class Hierarchy</title>
<polygon fill="white" stroke="transparent" points="-4,4 -4,-1554 274,-1554 274,4 -4,4"/>
<!-- Node171 -->
<g id="node1" class="node">
<title>Node171</title>
<g id="a_node1"><a xlink:title=" ">
<polygon fill="white" stroke="#bfbfbf" points="0,-765 0,-784 34,-784 34,-765 0,-765"/>
<text text-anchor="middle" x="17" y="-772" font-family="Helvetica,sans-Serif" font-size="10.00">seq</text>
</a>
</g>
</g>
<!-- Node0 -->
<g id="node2" class="node">
<title>Node0</title>
<g id="a_node2"><a xlink:href="d1/d5a/structjoda_1_1queryparsing_1_1grammar_1_1aggFrom.html" target="_top" xlink:title=" ">
<polygon fill="white" stroke="black" points="112,-1519.5 112,-1549.5 228,-1549.5 228,-1519.5 112,-1519.5"/>
<text text-anchor="start" x="120" y="-1537.5" font-family="Helvetica,sans-Serif" font-size="10.00">joda::queryparsing</text>
<text text-anchor="middle" x="170" y="-1526.5" font-family="Helvetica,sans-Serif" font-size="10.00">::grammar::aggFrom</text>
</a>
</g>
</g>
<!-- Node171&#45;&gt;Node0 -->
<g id="edge1" class="edge">
<title>Node171&#45;&gt;Node0</title>
<path fill="none" stroke="midnightblue" d="M18.03,-794.19C18.37,-905.63 22.48,-1454.28 70,-1510.5 80.45,-1522.86 96.07,-1529.45 111.84,-1532.82"/>
<polygon fill="midnightblue" stroke="midnightblue" points="21.53,-794.03 18.01,-784.04 14.53,-794.05 21.53,-794.03"/>
</g>
<!-- Node173 -->
<g id="node3" class="node">
<title>Node173</title>
<g id="a_node3"><a xlink:href="d2/db3/structjoda_1_1queryparsing_1_1grammar_1_1aggGrouped.html" target="_top" xlink:title=" ">
<polygon fill="white" stroke="black" points="103.5,-1470.5 103.5,-1500.5 236.5,-1500.5 236.5,-1470.5 103.5,-1470.5"/>
<text text-anchor="start" x="111.5" y="-1488.5" font-family="Helvetica,sans-Serif" font-size="10.00">joda::queryparsing</text>
<text text-anchor="middle" x="170" y="-1477.5" font-family="Helvetica,sans-Serif" font-size="10.00">::grammar::aggGrouped</text>
</a>
</g>
</g>
<!-- Node171&#45;&gt;Node173 -->
<g id="edge2" class="edge">
<title>Node171&#45;&gt;Node173</title>
<path fill="none" stroke="midnightblue" d="M18.13,-794.2C19.04,-901.17 25.68,-1409.33 70,-1461.5 78.59,-1471.61 90.64,-1477.85 103.39,-1481.63"/>
<polygon fill="midnightblue" stroke="midnightblue" points="21.63,-794.12 18.06,-784.15 14.63,-794.17 21.63,-794.12"/>
</g>
<!-- Node174 -->
<g id="node4" class="node">
<title>Node174</title>
<g id="a_node4"><a xlink:href="d5/d99/structjoda_1_1queryparsing_1_1grammar_1_1aggSingleExp.html" target="_top" xlink:title=" ">
<polygon fill="white" stroke="black" points="100,-1421.5 100,-1451.5 240,-1451.5 240,-1421.5 100,-1421.5"/>
<text text-anchor="start" x="108" y="-1439.5" font-family="Helvetica,sans-Serif" font-size="10.00">joda::queryparsing</text>
<text text-anchor="middle" x="170" y="-1428.5" font-family="Helvetica,sans-Serif" font-size="10.00">::grammar::aggSingleExp</text>
</a>
</g>
</g>
<!-- Node171&#45;&gt;Node174 -->
<g id="edge3" class="edge">
<title>Node171&#45;&gt;Node174</title>
<path fill="none" stroke="midnightblue" d="M18.26,-794.37C19.77,-897.03 28.9,-1364.4 70,-1412.5 77.81,-1421.64 88.46,-1427.62 99.89,-1431.47"/>
<polygon fill="midnightblue" stroke="midnightblue" points="21.76,-794.12 18.12,-784.17 14.76,-794.22 21.76,-794.12"/>
</g>
<!-- Node175 -->
<g id="node5" class="node">
<title>Node175</title>
<g id="a_node5"><a xlink:href="d4/d3a/structjoda_1_1queryparsing_1_1grammar_1_1andExp.html" target="_top" xlink:title=" ">
<polygon fill="white" stroke="black" points="115,-1372.5 115,-1402.5 225,-1402.5 225,-1372.5 115,-1372.5"/>
<text text-anchor="start" x="123" y="-1390.5" font-family="Helvetica,sans-Serif" font-size="10.00">joda::queryparsing</text>
<text text-anchor="middle" x="170" y="-1379.5" font-family="Helvetica,sans-Serif" font-size="10.00">::grammar::andExp</text>
</a>
</g>
</g>
<!-- Node171&#45;&gt;Node175 -->
<g id="edge4" class="edge">
<title>Node171&#45;&gt;Node175</title>
<path fill="none" stroke="midnightblue" d="M18.4,-794.37C20.55,-892.15 32.08,-1319.43 70,-1363.5 81.19,-1376.5 98.11,-1383.1 114.82,-1386.27"/>
<polygon fill="midnightblue" stroke="midnightblue" points="21.9,-794.27 18.19,-784.34 14.9,-794.42 21.9,-794.27"/>
</g>
<!-- Node176 -->
<g id="node6" class="node">
<title>Node176</title>
<g id="a_node6"><a xlink:href="dd/dd0/structjoda_1_1queryparsing_1_1grammar_1_1andSymbol.html" target="_top" xlink:title=" ">
<polygon fill="white" stroke="black" points="106,-1323.5 106,-1353.5 234,-1353.5 234,-1323.5 106,-1323.5"/>
<text text-anchor="start" x="114" y="-1341.5" font-family="Helvetica,sans-Serif" font-size="10.00">joda::queryparsing</text>
<text text-anchor="middle" x="170" y="-1330.5" font-family="Helvetica,sans-Serif" font-size="10.00">::grammar::andSymbol</text>
</a>
</g>
</g>
<!-- Node171&#45;&gt;Node176 -->
<g id="edge5" class="edge">
<title>Node171&#45;&gt;Node176</title>
<path fill="none" stroke="midnightblue" d="M18.57,-794.44C21.41,-887.29 35.27,-1274.46 70,-1314.5 79.21,-1325.12 92.25,-1331.46 105.85,-1335.15"/>
<polygon fill="midnightblue" stroke="midnightblue" points="22.07,-794.3 18.27,-784.4 15.07,-794.5 22.07,-794.3"/>
</g>
<!-- Node177 -->
<g id="node7" class="node">
<title>Node177</title>
<g id="a_node7"><a xlink:href="d7/d89/structjoda_1_1queryparsing_1_1grammar_1_1compareExp.html" target="_top" xlink:title=" ">
<polygon fill="white" stroke="black" points="103,-1274.5 103,-1304.5 237,-1304.5 237,-1274.5 103,-1274.5"/>
<text text-anchor="start" x="111" y="-1292.5" font-family="Helvetica,sans-Serif" font-size="10.00">joda::queryparsing</text>
<text text-anchor="middle" x="170" y="-1281.5" font-family="Helvetica,sans-Serif" font-size="10.00">::grammar::compareExp</text>
</a>
</g>
</g>
<!-- Node171&#45;&gt;Node177 -->
<g id="edge6" class="edge">
<title>Node171&#45;&gt;Node177</title>
<path fill="none" stroke="midnightblue" d="M18.78,-794.53C22.36,-882.21 38.45,-1229.47 70,-1265.5 78.56,-1275.28 90.37,-1281.42 102.85,-1285.21"/>
<polygon fill="midnightblue" stroke="midnightblue" points="22.27,-794.19 18.37,-784.34 15.27,-794.47 22.27,-794.19"/>
</g>
<!-- Node178 -->
<g id="node8" class="node">
<title>Node178</title>
<g id="a_node8"><a xlink:href="dc/dcb/structjoda_1_1queryparsing_1_1grammar_1_1equal.html" target="_top" xlink:title=" ">
<polygon fill="white" stroke="black" points="116.5,-1225.5 116.5,-1255.5 223.5,-1255.5 223.5,-1225.5 116.5,-1225.5"/>
<text text-anchor="start" x="124.5" y="-1243.5" font-family="Helvetica,sans-Serif" font-size="10.00">joda::queryparsing</text>
<text text-anchor="middle" x="170" y="-1232.5" font-family="Helvetica,sans-Serif" font-size="10.00">::grammar::equal</text>
</a>
</g>
</g>
<!-- Node171&#45;&gt;Node178 -->
<g id="edge7" class="edge">
<title>Node171&#45;&gt;Node178</title>
<path fill="none" stroke="midnightblue" d="M19.03,-794.56C23.41,-876.69 41.61,-1184.46 70,-1216.5 81.67,-1229.67 99.22,-1236.23 116.32,-1239.33"/>
<polygon fill="midnightblue" stroke="midnightblue" points="22.5,-793.94 18.48,-784.14 15.51,-794.31 22.5,-793.94"/>
</g>
<!-- Node179 -->
<g id="node9" class="node">
<title>Node179</title>
<g id="a_node9"><a xlink:href="d8/d76/structjoda_1_1queryparsing_1_1grammar_1_1escapedToken.html" target="_top" xlink:title=" ">
<polygon fill="white" stroke="black" points="99,-1176.5 99,-1206.5 241,-1206.5 241,-1176.5 99,-1176.5"/>
<text text-anchor="start" x="107" y="-1194.5" font-family="Helvetica,sans-Serif" font-size="10.00">joda::queryparsing</text>
<text text-anchor="middle" x="170" y="-1183.5" font-family="Helvetica,sans-Serif" font-size="10.00">::grammar::escapedToken</text>
</a>
</g>
</g>
<!-- Node171&#45;&gt;Node179 -->
<g id="edge8" class="edge">
<title>Node171&#45;&gt;Node179</title>
<path fill="none" stroke="midnightblue" d="M17.78,-794.35C17.41,-866.24 19.88,-1111.74 70,-1167.5 77.74,-1176.11 88.01,-1181.89 98.99,-1185.72"/>
<polygon fill="midnightblue" stroke="midnightblue" points="21.28,-794.04 17.86,-784.02 14.28,-793.99 21.28,-794.04"/>
</g>
<!-- Node180 -->
<g id="node10" class="node">
<title>Node180</title>
<g id="a_node10"><a xlink:href="d9/d67/structjoda_1_1queryparsing_1_1grammar_1_1floatNumber.html" target="_top" xlink:title=" ">
<polygon fill="white" stroke="black" points="103,-1127.5 103,-1157.5 237,-1157.5 237,-1127.5 103,-1127.5"/>
<text text-anchor="start" x="111" y="-1145.5" font-family="Helvetica,sans-Serif" font-size="10.00">joda::queryparsing</text>
<text text-anchor="middle" x="170" y="-1134.5" font-family="Helvetica,sans-Serif" font-size="10.00">::grammar::floatNumber</text>
</a>
</g>
</g>
<!-- Node171&#45;&gt;Node180 -->
<g id="edge9" class="edge">
<title>Node171&#45;&gt;Node180</title>
<path fill="none" stroke="midnightblue" d="M18.2,-794.38C19.27,-860.36 26.13,-1070.6 70,-1118.5 78.72,-1128.02 90.52,-1134.06 102.93,-1137.84"/>
<polygon fill="midnightblue" stroke="midnightblue" points="21.69,-794.08 18.06,-784.12 14.7,-794.17 21.69,-794.08"/>
</g>
<!-- Node181 -->
<g id="node11" class="node">
<title>Node181</title>
<g id="a_node11"><a xlink:href="d2/d44/structjoda_1_1queryparsing_1_1grammar_1_1gt.html" target="_top" xlink:title=" ">
<polygon fill="white" stroke="black" points="116.5,-1078.5 116.5,-1108.5 223.5,-1108.5 223.5,-1078.5 116.5,-1078.5"/>
<text text-anchor="start" x="124.5" y="-1096.5" font-family="Helvetica,sans-Serif" font-size="10.00">joda::queryparsing</text>
<text text-anchor="middle" x="170" y="-1085.5" font-family="Helvetica,sans-Serif" font-size="10.00">::grammar::gt</text>
</a>
</g>
</g>
<!-- Node171&#45;&gt;Node181 -->
<g id="edge10" class="edge">
<title>Node171&#45;&gt;Node181</title>
<path fill="none" stroke="midnightblue" d="M18.76,-794.59C21.43,-854.36 32.38,-1029.42 70,-1069.5 81.98,-1082.27 99.5,-1088.75 116.49,-1091.9"/>
<polygon fill="midnightblue" stroke="midnightblue" points="22.24,-794.09 18.33,-784.24 15.25,-794.38 22.24,-794.09"/>
</g>
<!-- Node182 -->
<g id="node12" class="node">
<title>Node182</title>
<g id="a_node12"><a xlink:href="d1/d17/structjoda_1_1queryparsing_1_1grammar_1_1intNumber.html" target="_top" xlink:title=" ">
<polygon fill="white" stroke="black" points="107.5,-1029.5 107.5,-1059.5 232.5,-1059.5 232.5,-1029.5 107.5,-1029.5"/>
<text text-anchor="start" x="115.5" y="-1047.5" font-family="Helvetica,sans-Serif" font-size="10.00">joda::queryparsing</text>
<text text-anchor="middle" x="170" y="-1036.5" font-family="Helvetica,sans-Serif" font-size="10.00">::grammar::intNumber</text>
</a>
</g>
</g>
<!-- Node171&#45;&gt;Node182 -->
<g id="edge11" class="edge">
<title>Node171&#45;&gt;Node182</title>
<path fill="none" stroke="midnightblue" d="M19.51,-794.3C23.91,-846.86 38.48,-988.04 70,-1020.5 79.98,-1030.78 93.55,-1036.95 107.45,-1040.6"/>
<polygon fill="midnightblue" stroke="midnightblue" points="22.99,-793.93 18.7,-784.25 16.01,-794.49 22.99,-793.93"/>
</g>
<!-- Node183 -->
<g id="node13" class="node">
<title>Node183</title>
<g id="a_node13"><a xlink:href="dc/ddf/structjoda_1_1queryparsing_1_1grammar_1_1loadAndSampleCommand.html" target="_top" xlink:title=" ">
<polygon fill="white" stroke="black" points="70,-980.5 70,-1010.5 270,-1010.5 270,-980.5 70,-980.5"/>
<text text-anchor="start" x="78" y="-998.5" font-family="Helvetica,sans-Serif" font-size="10.00">joda::queryparsing</text>
<text text-anchor="middle" x="170" y="-987.5" font-family="Helvetica,sans-Serif" font-size="10.00">::grammar::loadAndSampleCommand</text>
</a>
</g>
</g>
<!-- Node171&#45;&gt;Node183 -->
<g id="edge12" class="edge">
<title>Node171&#45;&gt;Node183</title>
<path fill="none" stroke="midnightblue" d="M20.66,-794.45C27.04,-839.4 44.61,-946.62 70,-971.5 73.41,-974.84 77.2,-977.75 81.26,-980.27"/>
<polygon fill="midnightblue" stroke="midnightblue" points="24.11,-793.88 19.28,-784.45 17.18,-794.83 24.11,-793.88"/>
</g>
<!-- Node184 -->
<g id="node14" class="node">
<title>Node184</title>
<g id="a_node14"><a xlink:href="d6/d28/structjoda_1_1queryparsing_1_1grammar_1_1loadCommand.html" target="_top" xlink:title=" ">
<polygon fill="white" stroke="black" points="97.5,-931.5 97.5,-961.5 242.5,-961.5 242.5,-931.5 97.5,-931.5"/>
<text text-anchor="start" x="105.5" y="-949.5" font-family="Helvetica,sans-Serif" font-size="10.00">joda::queryparsing</text>
<text text-anchor="middle" x="170" y="-938.5" font-family="Helvetica,sans-Serif" font-size="10.00">::grammar::loadCommand</text>
</a>
</g>
</g>
<!-- Node171&#45;&gt;Node184 -->
<g id="edge13" class="edge">
<title>Node171&#45;&gt;Node184</title>
<path fill="none" stroke="midnightblue" d="M19.15,-794.41C22.09,-826.29 32.59,-888.65 70,-922.5 77.8,-929.56 87.33,-934.63 97.35,-938.26"/>
<polygon fill="midnightblue" stroke="midnightblue" points="22.62,-793.86 18.37,-784.15 15.64,-794.39 22.62,-793.86"/>
</g>
<!-- Node185 -->
<g id="node15" class="node">
<title>Node185</title>
<g id="a_node15"><a xlink:href="db/dfa/structjoda_1_1queryparsing_1_1grammar_1_1loadFilesCommand.html" target="_top" xlink:title=" ">
<polygon fill="white" stroke="black" points="86.5,-882.5 86.5,-912.5 253.5,-912.5 253.5,-882.5 86.5,-882.5"/>
<text text-anchor="start" x="94.5" y="-900.5" font-family="Helvetica,sans-Serif" font-size="10.00">joda::queryparsing</text>
<text text-anchor="middle" x="170" y="-889.5" font-family="Helvetica,sans-Serif" font-size="10.00">::grammar::loadFilesCommand</text>
</a>
</g>
</g>
<!-- Node171&#45;&gt;Node185 -->
<g id="edge14" class="edge">
<title>Node171&#45;&gt;Node185</title>
<path fill="none" stroke="midnightblue" d="M22.94,-793.92C29.7,-816.51 44.09,-853.28 70,-873.5 75.02,-877.42 80.59,-880.71 86.44,-883.47"/>
<polygon fill="midnightblue" stroke="midnightblue" points="26.26,-792.8 20.21,-784.1 19.51,-794.68 26.26,-792.8"/>
</g>
<!-- Node186 -->
<g id="node16" class="node">
<title>Node186</title>
<g id="a_node16"><a xlink:href="dd/d84/structjoda_1_1queryparsing_1_1grammar_1_1loadFilesliteral.html" target="_top" xlink:title=" ">
<polygon fill="white" stroke="black" points="97,-833.5 97,-863.5 243,-863.5 243,-833.5 97,-833.5"/>
<text text-anchor="start" x="105" y="-851.5" font-family="Helvetica,sans-Serif" font-size="10.00">joda::queryparsing</text>
<text text-anchor="middle" x="170" y="-840.5" font-family="Helvetica,sans-Serif" font-size="10.00">::grammar::loadFilesliteral</text>
</a>
</g>
</g>
<!-- Node171&#45;&gt;Node186 -->
<g id="edge15" class="edge">
<title>Node171&#45;&gt;Node186</title>
<path fill="none" stroke="midnightblue" d="M31.83,-791.89C41.43,-802.81 55.13,-816.34 70,-824.5 78.37,-829.09 87.62,-832.82 97,-835.83"/>
<polygon fill="midnightblue" stroke="midnightblue" points="34.46,-789.57 25.34,-784.17 29.1,-794.08 34.46,-789.57"/>
</g>
<!-- Node187 -->
<g id="node17" class="node">
<title>Node187</title>
<g id="a_node17"><a xlink:href="d0/d93/structjoda_1_1queryparsing_1_1grammar_1_1loadGroupedCommand.html" target="_top" xlink:title=" ">
<polygon fill="white" stroke="black" points="77,-784.5 77,-814.5 263,-814.5 263,-784.5 77,-784.5"/>
<text text-anchor="start" x="85" y="-802.5" font-family="Helvetica,sans-Serif" font-size="10.00">joda::queryparsing</text>
<text text-anchor="middle" x="170" y="-791.5" font-family="Helvetica,sans-Serif" font-size="10.00">::grammar::loadGroupedCommand</text>
</a>
</g>
</g>
<!-- Node171&#45;&gt;Node187 -->
<g id="edge16" class="edge">
<title>Node171&#45;&gt;Node187</title>
<path fill="none" stroke="midnightblue" d="M44.31,-778.86C54.11,-780.48 65.86,-782.42 78.17,-784.46"/>
<polygon fill="midnightblue" stroke="midnightblue" points="44.6,-775.36 34.16,-777.18 43.45,-782.26 44.6,-775.36"/>
</g>
<!-- Node188 -->
<g id="node18" class="node">
<title>Node188</title>
<g id="a_node18"><a xlink:href="d0/d6a/structjoda_1_1queryparsing_1_1grammar_1_1loadImportSources.html" target="_top" xlink:title=" ">
<polygon fill="white" stroke="black" points="87.5,-735.5 87.5,-765.5 252.5,-765.5 252.5,-735.5 87.5,-735.5"/>
<text text-anchor="start" x="95.5" y="-753.5" font-family="Helvetica,sans-Serif" font-size="10.00">joda::queryparsing</text>
<text text-anchor="middle" x="170" y="-742.5" font-family="Helvetica,sans-Serif" font-size="10.00">::grammar::loadImportSources</text>
</a>
</g>
</g>
<!-- Node171&#45;&gt;Node188 -->
<g id="edge17" class="edge">
<title>Node171&#45;&gt;Node188</title>
<path fill="none" stroke="midnightblue" d="M44.04,-770.36C56.26,-768.42 71.58,-765.98 87.25,-763.49"/>
<polygon fill="midnightblue" stroke="midnightblue" points="43.49,-766.91 34.16,-771.93 44.59,-773.82 43.49,-766.91"/>
</g>
<!-- Node189 -->
<g id="node19" class="node">
<title>Node189</title>
<g id="a_node19"><a xlink:href="d0/d0e/structjoda_1_1queryparsing_1_1grammar_1_1lt.html" target="_top" xlink:title=" ">
<polygon fill="white" stroke="black" points="116.5,-686.5 116.5,-716.5 223.5,-716.5 223.5,-686.5 116.5,-686.5"/>
<text text-anchor="start" x="124.5" y="-704.5" font-family="Helvetica,sans-Serif" font-size="10.00">joda::queryparsing</text>
<text text-anchor="middle" x="170" y="-693.5" font-family="Helvetica,sans-Serif" font-size="10.00">::grammar::lt</text>
</a>
</g>
</g>
<!-- Node171&#45;&gt;Node189 -->
<g id="edge18" class="edge">
<title>Node171&#45;&gt;Node189</title>
<path fill="none" stroke="midnightblue" d="M32.62,-757.19C42.25,-746.85 55.68,-734.26 70,-726.5 84.18,-718.82 100.79,-713.44 116.31,-709.69"/>
<polygon fill="midnightblue" stroke="midnightblue" points="29.82,-755.08 25.78,-764.87 35.04,-759.74 29.82,-755.08"/>
</g>
<!-- Node190 -->
<g id="node20" class="node">
<title>Node190</title>
<g id="a_node20"><a xlink:href="d5/d8d/structjoda_1_1queryparsing_1_1grammar_1_1orExp.html" target="_top" xlink:title=" ">
<polygon fill="white" stroke="black" points="116.5,-637.5 116.5,-667.5 223.5,-667.5 223.5,-637.5 116.5,-637.5"/>
<text text-anchor="start" x="124.5" y="-655.5" font-family="Helvetica,sans-Serif" font-size="10.00">joda::queryparsing</text>
<text text-anchor="middle" x="170" y="-644.5" font-family="Helvetica,sans-Serif" font-size="10.00">::grammar::orExp</text>
</a>
</g>
</g>
<!-- Node171&#45;&gt;Node190 -->
<g id="edge19" class="edge">
<title>Node171&#45;&gt;Node190</title>
<path fill="none" stroke="midnightblue" d="M23.19,-755.17C30.14,-733.04 44.63,-697.31 70,-677.5 83.2,-667.19 100.15,-661.08 116.27,-657.48"/>
<polygon fill="midnightblue" stroke="midnightblue" points="19.81,-754.23 20.37,-764.81 26.53,-756.2 19.81,-754.23"/>
</g>
<!-- Node191 -->
<g id="node21" class="node">
<title>Node191</title>
<g id="a_node21"><a xlink:href="d4/d46/structjoda_1_1queryparsing_1_1grammar_1_1orSymbol.html" target="_top" xlink:title=" ">
<polygon fill="white" stroke="black" points="110,-588.5 110,-618.5 230,-618.5 230,-588.5 110,-588.5"/>
<text text-anchor="start" x="118" y="-606.5" font-family="Helvetica,sans-Serif" font-size="10.00">joda::queryparsing</text>
<text text-anchor="middle" x="170" y="-595.5" font-family="Helvetica,sans-Serif" font-size="10.00">::grammar::orSymbol</text>
</a>
</g>
</g>
<!-- Node171&#45;&gt;Node191 -->
<g id="edge20" class="edge">
<title>Node171&#45;&gt;Node191</title>
<path fill="none" stroke="midnightblue" d="M19.27,-754.89C22.39,-723.49 33.12,-662.04 70,-628.5 81.02,-618.48 95.46,-612.35 109.9,-608.62"/>
<polygon fill="midnightblue" stroke="midnightblue" points="15.77,-754.74 18.43,-765 22.75,-755.32 15.77,-754.74"/>
</g>
<!-- Node192 -->
<g id="node22" class="node">
<title>Node192</title>
<g id="a_node22"><a xlink:href="d4/d53/structjoda_1_1queryparsing_1_1grammar_1_1projectTupleExp.html" target="_top" xlink:title=" ">
<polygon fill="white" stroke="black" points="94.5,-539.5 94.5,-569.5 245.5,-569.5 245.5,-539.5 94.5,-539.5"/>
<text text-anchor="start" x="102.5" y="-557.5" font-family="Helvetica,sans-Serif" font-size="10.00">joda::queryparsing</text>
<text text-anchor="middle" x="170" y="-546.5" font-family="Helvetica,sans-Serif" font-size="10.00">::grammar::projectTupleExp</text>
</a>
</g>
</g>
<!-- Node171&#45;&gt;Node192 -->
<g id="edge21" class="edge">
<title>Node171&#45;&gt;Node192</title>
<path fill="none" stroke="midnightblue" d="M17.17,-754.6C16.66,-715.31 21.43,-627.43 70,-579.5 76.81,-572.78 85.16,-567.78 94.08,-564.07"/>
<polygon fill="midnightblue" stroke="midnightblue" points="13.67,-754.82 17.43,-764.73 20.67,-754.64 13.67,-754.82"/>
</g>
<!-- Node193 -->
<g id="node23" class="node">
<title>Node193</title>
<g id="a_node23"><a xlink:href="d2/d7b/structjoda_1_1queryparsing_1_1grammar_1_1qexp.html" target="_top" xlink:title=" ">
<polygon fill="white" stroke="black" points="116.5,-490.5 116.5,-520.5 223.5,-520.5 223.5,-490.5 116.5,-490.5"/>
<text text-anchor="start" x="124.5" y="-508.5" font-family="Helvetica,sans-Serif" font-size="10.00">joda::queryparsing</text>
<text text-anchor="middle" x="170" y="-497.5" font-family="Helvetica,sans-Serif" font-size="10.00">::grammar::qexp</text>
</a>
</g>
</g>
<!-- Node171&#45;&gt;Node193 -->
<g id="edge22" class="edge">
<title>Node171&#45;&gt;Node193</title>
<path fill="none" stroke="midnightblue" d="M19.55,-754.87C24.05,-702.78 38.86,-562.83 70,-530.5 82.11,-517.92 99.56,-511.33 116.45,-507.96"/>
<polygon fill="midnightblue" stroke="midnightblue" points="16.06,-754.59 18.72,-764.84 23.04,-755.17 16.06,-754.59"/>
</g>
<!-- Node194 -->
<g id="node24" class="node">
<title>Node194</title>
<g id="a_node24"><a xlink:href="db/de1/structjoda_1_1queryparsing_1_1grammar_1_1queryCommand.html" target="_top" xlink:title=" ">
<polygon fill="white" stroke="black" points="94,-441.5 94,-471.5 246,-471.5 246,-441.5 94,-441.5"/>
<text text-anchor="start" x="102" y="-459.5" font-family="Helvetica,sans-Serif" font-size="10.00">joda::queryparsing</text>
<text text-anchor="middle" x="170" y="-448.5" font-family="Helvetica,sans-Serif" font-size="10.00">::grammar::queryCommand</text>
</a>
</g>
</g>
<!-- Node171&#45;&gt;Node194 -->
<g id="edge23" class="edge">
<title>Node171&#45;&gt;Node194</title>
<path fill="none" stroke="midnightblue" d="M18.8,-754.56C21.58,-695.24 32.79,-521.47 70,-481.5 76.52,-474.49 84.7,-469.33 93.54,-465.54"/>
<polygon fill="midnightblue" stroke="midnightblue" points="15.29,-754.69 18.35,-764.83 22.28,-754.99 15.29,-754.69"/>
</g>
<!-- Node195 -->
<g id="node25" class="node">
<title>Node195</title>
<g id="a_node25"><a xlink:href="d7/d91/structjoda_1_1queryparsing_1_1grammar_1_1realFunc.html" target="_top" xlink:title=" ">
<polygon fill="white" stroke="black" points="112.5,-392.5 112.5,-422.5 227.5,-422.5 227.5,-392.5 112.5,-392.5"/>
<text text-anchor="start" x="120.5" y="-410.5" font-family="Helvetica,sans-Serif" font-size="10.00">joda::queryparsing</text>
<text text-anchor="middle" x="170" y="-399.5" font-family="Helvetica,sans-Serif" font-size="10.00">::grammar::realFunc</text>
</a>
</g>
</g>
<!-- Node171&#45;&gt;Node195 -->
<g id="edge24" class="edge">
<title>Node171&#45;&gt;Node195</title>
<path fill="none" stroke="midnightblue" d="M18.23,-754.75C19.42,-689.2 26.58,-480.32 70,-432.5 80.9,-420.49 96.66,-413.87 112.41,-410.33"/>
<polygon fill="midnightblue" stroke="midnightblue" points="14.73,-754.89 18.08,-764.94 21.73,-754.99 14.73,-754.89"/>
</g>
<!-- Node196 -->
<g id="node26" class="node">
<title>Node196</title>
<g id="a_node26"><a xlink:href="d7/dd7/structjoda_1_1queryparsing_1_1grammar_1_1sampleNum.html" target="_top" xlink:title=" ">
<polygon fill="white" stroke="black" points="103.5,-343.5 103.5,-373.5 236.5,-373.5 236.5,-343.5 103.5,-343.5"/>
<text text-anchor="start" x="111.5" y="-361.5" font-family="Helvetica,sans-Serif" font-size="10.00">joda::queryparsing</text>
<text text-anchor="middle" x="170" y="-350.5" font-family="Helvetica,sans-Serif" font-size="10.00">::grammar::sampleNum</text>
</a>
</g>
</g>
<!-- Node171&#45;&gt;Node196 -->
<g id="edge25" class="edge">
<title>Node171&#45;&gt;Node196</title>
<path fill="none" stroke="midnightblue" d="M17.81,-754.3C17.57,-682.23 20.48,-439.08 70,-383.5 78.73,-373.71 90.68,-367.48 103.27,-363.59"/>
<polygon fill="midnightblue" stroke="midnightblue" points="14.31,-754.71 17.88,-764.68 21.31,-754.66 14.31,-754.71"/>
</g>
<!-- Node197 -->
<g id="node27" class="node">
<title>Node197</title>
<g id="a_node27"><a xlink:href="d1/db9/structjoda_1_1queryparsing_1_1grammar_1_1storeAsFileCommand.html" target="_top" xlink:title=" ">
<polygon fill="white" stroke="black" points="81,-294.5 81,-324.5 259,-324.5 259,-294.5 81,-294.5"/>
<text text-anchor="start" x="89" y="-312.5" font-family="Helvetica,sans-Serif" font-size="10.00">joda::queryparsing</text>
<text text-anchor="middle" x="170" y="-301.5" font-family="Helvetica,sans-Serif" font-size="10.00">::grammar::storeAsFileCommand</text>
</a>
</g>
</g>
<!-- Node171&#45;&gt;Node197 -->
<g id="edge26" class="edge">
<title>Node171&#45;&gt;Node197</title>
<path fill="none" stroke="midnightblue" d="M19.04,-754.54C23.48,-672.81 41.88,-366.52 70,-334.5 73.27,-330.77 77.02,-327.56 81.09,-324.79"/>
<polygon fill="midnightblue" stroke="midnightblue" points="15.53,-754.73 18.49,-764.91 22.52,-755.11 15.53,-754.73"/>
</g>
<!-- Node198 -->
<g id="node28" class="node">
<title>Node198</title>
<g id="a_node28"><a xlink:href="d9/dc7/structjoda_1_1queryparsing_1_1grammar_1_1storeAsFilesCommand.html" target="_top" xlink:title=" ">
<polygon fill="white" stroke="black" points="78.5,-245.5 78.5,-275.5 261.5,-275.5 261.5,-245.5 78.5,-245.5"/>
<text text-anchor="start" x="86.5" y="-263.5" font-family="Helvetica,sans-Serif" font-size="10.00">joda::queryparsing</text>
<text text-anchor="middle" x="170" y="-252.5" font-family="Helvetica,sans-Serif" font-size="10.00">::grammar::storeAsFilesCommand</text>
</a>
</g>
</g>
<!-- Node171&#45;&gt;Node198 -->
<g id="edge27" class="edge">
<title>Node171&#45;&gt;Node198</title>
<path fill="none" stroke="midnightblue" d="M18.79,-754.56C22.43,-667.27 38.74,-321.52 70,-285.5 73.25,-281.75 76.98,-278.52 81.03,-275.75"/>
<polygon fill="midnightblue" stroke="midnightblue" points="15.29,-754.57 18.38,-764.7 22.28,-754.86 15.29,-754.57"/>
</g>
<!-- Node199 -->
<g id="node29" class="node">
<title>Node199</title>
<g id="a_node29"><a xlink:href="dd/dd2/structjoda_1_1queryparsing_1_1grammar_1_1storeAsGroupCommand.html" target="_top" xlink:title=" ">
<polygon fill="white" stroke="black" points="75,-196.5 75,-226.5 265,-226.5 265,-196.5 75,-196.5"/>
<text text-anchor="start" x="83" y="-214.5" font-family="Helvetica,sans-Serif" font-size="10.00">joda::queryparsing</text>
<text text-anchor="middle" x="170" y="-203.5" font-family="Helvetica,sans-Serif" font-size="10.00">::grammar::storeAsGroupCommand</text>
</a>
</g>
</g>
<!-- Node171&#45;&gt;Node199 -->
<g id="edge28" class="edge">
<title>Node171&#45;&gt;Node199</title>
<path fill="none" stroke="midnightblue" d="M18.59,-754.36C21.51,-661.38 35.62,-276.51 70,-236.5 73.24,-232.74 76.95,-229.5 80.99,-226.71"/>
<polygon fill="midnightblue" stroke="midnightblue" points="15.09,-754.53 18.28,-764.64 22.08,-754.75 15.09,-754.53"/>
</g>
<!-- Node200 -->
<g id="node30" class="node">
<title>Node200</title>
<g id="a_node30"><a xlink:href="d5/d1e/structjoda_1_1queryparsing_1_1grammar_1_1storeFileliteral.html" target="_top" xlink:title=" ">
<polygon fill="white" stroke="black" points="98,-147.5 98,-177.5 242,-177.5 242,-147.5 98,-147.5"/>
<text text-anchor="start" x="106" y="-165.5" font-family="Helvetica,sans-Serif" font-size="10.00">joda::queryparsing</text>
<text text-anchor="middle" x="170" y="-154.5" font-family="Helvetica,sans-Serif" font-size="10.00">::grammar::storeFileliteral</text>
</a>
</g>
</g>
<!-- Node171&#45;&gt;Node200 -->
<g id="edge29" class="edge">
<title>Node171&#45;&gt;Node200</title>
<path fill="none" stroke="midnightblue" d="M18.42,-754.41C20.65,-656.42 32.45,-231.55 70,-187.5 77.36,-178.87 87.23,-172.99 97.89,-169.02"/>
<polygon fill="midnightblue" stroke="midnightblue" points="14.92,-754.62 18.2,-764.69 21.91,-754.77 14.92,-754.62"/>
</g>
<!-- Node201 -->
<g id="node31" class="node">
<title>Node201</title>
<g id="a_node31"><a xlink:href="d4/de2/structjoda_1_1queryparsing_1_1grammar_1_1storeFilesliteral.html" target="_top" xlink:title=" ">
<polygon fill="white" stroke="black" points="95.5,-98.5 95.5,-128.5 244.5,-128.5 244.5,-98.5 95.5,-98.5"/>
<text text-anchor="start" x="103.5" y="-116.5" font-family="Helvetica,sans-Serif" font-size="10.00">joda::queryparsing</text>
<text text-anchor="middle" x="170" y="-105.5" font-family="Helvetica,sans-Serif" font-size="10.00">::grammar::storeFilesliteral</text>
</a>
</g>
</g>
<!-- Node171&#45;&gt;Node201 -->
<g id="edge30" class="edge">
<title>Node171&#45;&gt;Node201</title>
<path fill="none" stroke="midnightblue" d="M18.27,-754.7C19.85,-652.4 29.25,-186.64 70,-138.5 76.76,-130.52 85.66,-124.89 95.36,-120.95"/>
<polygon fill="midnightblue" stroke="midnightblue" points="14.77,-754.81 18.12,-764.86 21.77,-754.91 14.77,-754.81"/>
</g>
<!-- Node202 -->
<g id="node32" class="node">
<title>Node202</title>
<g id="a_node32"><a xlink:href="d9/dd8/structjoda_1_1queryparsing_1_1grammar_1_1stringAtom.html" target="_top" xlink:title=" ">
<polygon fill="white" stroke="black" points="106,-49.5 106,-79.5 234,-79.5 234,-49.5 106,-49.5"/>
<text text-anchor="start" x="114" y="-67.5" font-family="Helvetica,sans-Serif" font-size="10.00">joda::queryparsing</text>
<text text-anchor="middle" x="170" y="-56.5" font-family="Helvetica,sans-Serif" font-size="10.00">::grammar::stringAtom</text>
</a>
</g>
</g>
<!-- Node171&#45;&gt;Node202 -->
<g id="edge31" class="edge">
<title>Node171&#45;&gt;Node202</title>
<path fill="none" stroke="midnightblue" d="M18.15,-754.86C19.12,-648.25 26.05,-141.72 70,-89.5 79.13,-78.65 92.22,-72.14 105.91,-68.32"/>
<polygon fill="midnightblue" stroke="midnightblue" points="14.65,-754.86 18.06,-764.89 21.65,-754.92 14.65,-754.86"/>
</g>
<!-- Node203 -->
<g id="node33" class="node">
<title>Node203</title>
<g id="a_node33"><a xlink:href="d0/d86/structjoda_1_1queryparsing_1_1grammar_1_1unaryExp.html" target="_top" xlink:title=" ">
<polygon fill="white" stroke="black" points="110.5,-0.5 110.5,-30.5 229.5,-30.5 229.5,-0.5 110.5,-0.5"/>
<text text-anchor="start" x="118.5" y="-18.5" font-family="Helvetica,sans-Serif" font-size="10.00">joda::queryparsing</text>
<text text-anchor="middle" x="170" y="-7.5" font-family="Helvetica,sans-Serif" font-size="10.00">::grammar::unaryExp</text>
</a>
</g>
</g>
<!-- Node171&#45;&gt;Node203 -->
<g id="edge32" class="edge">
<title>Node171&#45;&gt;Node203</title>
<path fill="none" stroke="midnightblue" d="M18.04,-754.87C18.45,-643.78 22.87,-96.79 70,-40.5 80.07,-28.47 95.01,-21.77 110.25,-18.15"/>
<polygon fill="midnightblue" stroke="midnightblue" points="14.54,-754.98 18.01,-764.99 21.54,-755 14.54,-754.98"/>
</g>
</g>
</svg>
