<?xml version="1.0" encoding="UTF-8" standalone="no"?>
<!DOCTYPE svg PUBLIC "-//W3C//DTD SVG 1.1//EN"
 "http://www.w3.org/Graphics/SVG/1.1/DTD/svg11.dtd">
<!-- Generated by graphviz version 2.43.0 (0)
 -->
<!-- Title: Graphical Class Hierarchy Pages: 1 -->
<svg width="485pt" height="88pt"
 viewBox="0.00 0.00 485.00 88.00" xmlns="http://www.w3.org/2000/svg" xmlns:xlink="http://www.w3.org/1999/xlink">
<g id="graph0" class="graph" transform="scale(1 1) rotate(0) translate(4 84)">
<title>Graphical Class Hierarchy</title>
<polygon fill="white" stroke="transparent" points="-4,4 -4,-84 481,-84 481,4 -4,4"/>
<!-- Node440 -->
<g id="node1" class="node">
<title>Node440</title>
<g id="a_node1"><a xlink:title=" ">
<polygon fill="white" stroke="#bfbfbf" points="0,-30 0,-49 94,-49 94,-30 0,-30"/>
<text text-anchor="middle" x="47" y="-37" font-family="Helvetica,sans-Serif" font-size="10.00">tao::pegtl::state</text>
</a>
</g>
</g>
<!-- Node0 -->
<g id="node2" class="node">
<title>Node0</title>
<g id="a_node2"><a xlink:href="d4/d8f/structjoda_1_1queryparsing_1_1grammar_1_1functionstateaction.html" target="_top" xlink:title=" ">
<polygon fill="white" stroke="black" points="130,-49.5 130,-79.5 298,-79.5 298,-49.5 130,-49.5"/>
<text text-anchor="start" x="138" y="-67.5" font-family="Helvetica,sans-Serif" font-size="10.00">joda::queryparsing</text>
<text text-anchor="middle" x="214" y="-56.5" font-family="Helvetica,sans-Serif" font-size="10.00">::grammar::functionstateaction</text>
</a>
</g>
</g>
<!-- Node440&#45;&gt;Node0 -->
<g id="edge1" class="edge">
<title>Node440&#45;&gt;Node0</title>
<path fill="none" stroke="midnightblue" d="M104.51,-48.06C112.66,-49.3 121.2,-50.59 129.75,-51.89"/>
<polygon fill="midnightblue" stroke="midnightblue" points="104.81,-44.57 94.4,-46.53 103.76,-51.49 104.81,-44.57"/>
</g>
<!-- Node443 -->
<g id="node4" class="node">
<title>Node443</title>
<g id="a_node4"><a xlink:href="d7/da3/structjoda_1_1queryparsing_1_1grammar_1_1single__query.html" target="_top" xlink:title=" ">
<polygon fill="white" stroke="black" points="146,-0.5 146,-30.5 282,-30.5 282,-0.5 146,-0.5"/>
<text text-anchor="start" x="154" y="-18.5" font-family="Helvetica,sans-Serif" font-size="10.00">joda::queryparsing</text>
<text text-anchor="middle" x="214" y="-7.5" font-family="Helvetica,sans-Serif" font-size="10.00">::grammar::single_query</text>
</a>
</g>
</g>
<!-- Node440&#45;&gt;Node443 -->
<g id="edge3" class="edge">
<title>Node440&#45;&gt;Node443</title>
<path fill="none" stroke="midnightblue" d="M104.35,-31.3C117.66,-29.37 131.97,-27.29 145.71,-25.29"/>
<polygon fill="midnightblue" stroke="midnightblue" points="103.79,-27.85 94.4,-32.75 104.8,-34.77 103.79,-27.85"/>
</g>
<!-- Node1 -->
<g id="node3" class="node">
<title>Node1</title>
<g id="a_node3"><a xlink:href="df/d9b/structjoda_1_1queryparsing_1_1grammar_1_1groupFunction.html" target="_top" xlink:title=" ">
<polygon fill="white" stroke="black" points="334,-49.5 334,-79.5 477,-79.5 477,-49.5 334,-49.5"/>
<text text-anchor="start" x="342" y="-67.5" font-family="Helvetica,sans-Serif" font-size="10.00">joda::queryparsing</text>
<text text-anchor="middle" x="405.5" y="-56.5" font-family="Helvetica,sans-Serif" font-size="10.00">::grammar::groupFunction</text>
</a>
</g>
</g>
<!-- Node0&#45;&gt;Node1 -->
<g id="edge2" class="edge">
<title>Node0&#45;&gt;Node1</title>
<path fill="none" stroke="midnightblue" d="M308.23,-64.5C316.86,-64.5 325.51,-64.5 333.9,-64.5"/>
<polygon fill="midnightblue" stroke="midnightblue" points="308.12,-61 298.12,-64.5 308.12,-68 308.12,-61"/>
</g>
</g>
</svg>
