<?xml version="1.0" encoding="UTF-8" standalone="no"?>
<!DOCTYPE svg PUBLIC "-//W3C//DTD SVG 1.1//EN"
 "http://www.w3.org/Graphics/SVG/1.1/DTD/svg11.dtd">
<!-- Generated by graphviz version 2.43.0 (0)
 -->
<!-- Title: Graphical Class Hierarchy Pages: 1 -->
<svg width="231pt" height="88pt"
 viewBox="0.00 0.00 231.00 88.00" xmlns="http://www.w3.org/2000/svg" xmlns:xlink="http://www.w3.org/1999/xlink">
<g id="graph0" class="graph" transform="scale(1 1) rotate(0) translate(4 84)">
<title>Graphical Class Hierarchy</title>
<polygon fill="white" stroke="transparent" points="-4,4 -4,-84 227,-84 227,4 -4,4"/>
<!-- Node240 -->
<g id="node1" class="node">
<title>Node240</title>
<g id="a_node1"><a xlink:title=" ">
<polygon fill="white" stroke="#bfbfbf" points="0,-30 0,-49 32,-49 32,-30 0,-30"/>
<text text-anchor="middle" x="16" y="-37" font-family="Helvetica,sans-Serif" font-size="10.00">opt</text>
</a>
</g>
</g>
<!-- Node0 -->
<g id="node2" class="node">
<title>Node0</title>
<g id="a_node2"><a xlink:href="d3/ddb/structjoda_1_1queryparsing_1_1grammar_1_1deleteCommand.html" target="_top" xlink:title=" ">
<polygon fill="white" stroke="black" points="68,-49.5 68,-79.5 223,-79.5 223,-49.5 68,-49.5"/>
<text text-anchor="start" x="76" y="-67.5" font-family="Helvetica,sans-Serif" font-size="10.00">joda::queryparsing</text>
<text text-anchor="middle" x="145.5" y="-56.5" font-family="Helvetica,sans-Serif" font-size="10.00">::grammar::deleteCommand</text>
</a>
</g>
</g>
<!-- Node240&#45;&gt;Node0 -->
<g id="edge1" class="edge">
<title>Node240&#45;&gt;Node0</title>
<path fill="none" stroke="midnightblue" d="M42.1,-44.42C49.79,-45.93 58.67,-47.67 67.94,-49.49"/>
<polygon fill="midnightblue" stroke="midnightblue" points="42.61,-40.96 32.13,-42.47 41.27,-47.82 42.61,-40.96"/>
</g>
<!-- Node242 -->
<g id="node3" class="node">
<title>Node242</title>
<g id="a_node3"><a xlink:href="d2/dde/structjoda_1_1queryparsing_1_1grammar_1_1storeCommand.html" target="_top" xlink:title=" ">
<polygon fill="white" stroke="black" points="71,-0.5 71,-30.5 220,-30.5 220,-0.5 71,-0.5"/>
<text text-anchor="start" x="79" y="-18.5" font-family="Helvetica,sans-Serif" font-size="10.00">joda::queryparsing</text>
<text text-anchor="middle" x="145.5" y="-7.5" font-family="Helvetica,sans-Serif" font-size="10.00">::grammar::storeCommand</text>
</a>
</g>
</g>
<!-- Node240&#45;&gt;Node242 -->
<g id="edge2" class="edge">
<title>Node240&#45;&gt;Node242</title>
<path fill="none" stroke="midnightblue" d="M42.02,-34.79C50.52,-33.19 60.49,-31.31 70.83,-29.37"/>
<polygon fill="midnightblue" stroke="midnightblue" points="41.31,-31.36 32.13,-36.65 42.6,-38.24 41.31,-31.36"/>
</g>
</g>
</svg>
