<?xml version="1.0" encoding="UTF-8" standalone="no"?>
<!DOCTYPE svg PUBLIC "-//W3C//DTD SVG 1.1//EN"
 "http://www.w3.org/Graphics/SVG/1.1/DTD/svg11.dtd">
<!-- Generated by graphviz version 2.43.0 (0)
 -->
<!-- Title: Graphical Class Hierarchy Pages: 1 -->
<svg width="278pt" height="522pt"
 viewBox="0.00 0.00 278.00 522.00" xmlns="http://www.w3.org/2000/svg" xmlns:xlink="http://www.w3.org/1999/xlink">
<g id="graph0" class="graph" transform="scale(1 1) rotate(0) translate(4 518)">
<title>Graphical Class Hierarchy</title>
<polygon fill="white" stroke="transparent" points="-4,4 -4,-518 274,-518 274,4 -4,4"/>
<!-- Node524 -->
<g id="node1" class="node">
<title>Node524</title>
<g id="a_node1"><a xlink:title=" ">
<polygon fill="white" stroke="#bfbfbf" points="0,-247.5 0,-266.5 76,-266.5 76,-247.5 0,-247.5"/>
<text text-anchor="middle" x="38" y="-254.5" font-family="Helvetica,sans-Serif" font-size="10.00">testing::Test</text>
</a>
</g>
</g>
<!-- Node0 -->
<g id="node2" class="node">
<title>Node0</title>
<g id="a_node2"><a xlink:href="d8/d12/classAPI2Test.html" target="_top" xlink:title=" ">
<polygon fill="white" stroke="black" points="162,-494.5 162,-513.5 220,-513.5 220,-494.5 162,-494.5"/>
<text text-anchor="middle" x="191" y="-501.5" font-family="Helvetica,sans-Serif" font-size="10.00">API2Test</text>
</a>
</g>
</g>
<!-- Node524&#45;&gt;Node0 -->
<g id="edge1" class="edge">
<title>Node524&#45;&gt;Node0</title>
<path fill="none" stroke="midnightblue" d="M39.23,-277.07C40.87,-321.46 51.29,-428.45 112,-485 125.36,-497.44 145.47,-502.13 161.93,-503.74"/>
<polygon fill="midnightblue" stroke="midnightblue" points="42.73,-276.89 38.97,-266.98 35.73,-277.07 42.73,-276.89"/>
</g>
<!-- Node526 -->
<g id="node3" class="node">
<title>Node526</title>
<g id="a_node3"><a xlink:href="dc/d82/classAggregatorParsingTest.html" target="_top" xlink:title=" ">
<polygon fill="white" stroke="black" points="114,-456.5 114,-475.5 268,-475.5 268,-456.5 114,-456.5"/>
<text text-anchor="middle" x="191" y="-463.5" font-family="Helvetica,sans-Serif" font-size="10.00">AggregatorParsingTest&lt; T &gt;</text>
</a>
</g>
</g>
<!-- Node524&#45;&gt;Node526 -->
<g id="edge2" class="edge">
<title>Node524&#45;&gt;Node526</title>
<path fill="none" stroke="midnightblue" d="M40.66,-276.6C45.02,-315.27 60.32,-401.54 112,-447 116.4,-450.87 121.45,-453.98 126.82,-456.47"/>
<polygon fill="midnightblue" stroke="midnightblue" points="44.14,-276.23 39.67,-266.63 37.18,-276.93 44.14,-276.23"/>
</g>
<!-- Node527 -->
<g id="node4" class="node">
<title>Node527</title>
<g id="a_node4"><a xlink:href="db/d95/classAggregatorTest.html" target="_top" xlink:title=" ">
<polygon fill="white" stroke="black" points="146,-418.5 146,-437.5 236,-437.5 236,-418.5 146,-418.5"/>
<text text-anchor="middle" x="191" y="-425.5" font-family="Helvetica,sans-Serif" font-size="10.00">AggregatorTest</text>
</a>
</g>
</g>
<!-- Node524&#45;&gt;Node527 -->
<g id="edge3" class="edge">
<title>Node524&#45;&gt;Node527</title>
<path fill="none" stroke="midnightblue" d="M42.79,-276.69C50.13,-309.35 69.48,-374.54 112,-409 121.53,-416.72 133.72,-421.38 145.63,-424.17"/>
<polygon fill="midnightblue" stroke="midnightblue" points="46.15,-275.66 40.67,-266.59 39.3,-277.1 46.15,-275.66"/>
</g>
<!-- Node528 -->
<g id="node5" class="node">
<title>Node528</title>
<g id="a_node5"><a xlink:href="db/d84/classCollectionTest.html" target="_top" xlink:title=" ">
<polygon fill="white" stroke="black" points="148.5,-380.5 148.5,-399.5 233.5,-399.5 233.5,-380.5 148.5,-380.5"/>
<text text-anchor="middle" x="191" y="-387.5" font-family="Helvetica,sans-Serif" font-size="10.00">CollectionTest</text>
</a>
</g>
</g>
<!-- Node524&#45;&gt;Node528 -->
<g id="edge4" class="edge">
<title>Node524&#45;&gt;Node528</title>
<path fill="none" stroke="midnightblue" d="M45.95,-276.11C56.29,-301.76 78.21,-346.87 112,-371 122.55,-378.53 135.73,-383.1 148.23,-385.86"/>
<polygon fill="midnightblue" stroke="midnightblue" points="49.2,-274.8 42.34,-266.72 42.67,-277.31 49.2,-274.8"/>
</g>
<!-- Node529 -->
<g id="node6" class="node">
<title>Node529</title>
<g id="a_node6"><a xlink:href="de/d8e/classDirectoryFileScannerTest.html" target="_top" xlink:title=" ">
<polygon fill="white" stroke="black" points="122.5,-342.5 122.5,-361.5 259.5,-361.5 259.5,-342.5 122.5,-342.5"/>
<text text-anchor="middle" x="191" y="-349.5" font-family="Helvetica,sans-Serif" font-size="10.00">DirectoryFileScannerTest</text>
</a>
</g>
</g>
<!-- Node524&#45;&gt;Node529 -->
<g id="edge5" class="edge">
<title>Node524&#45;&gt;Node529</title>
<path fill="none" stroke="midnightblue" d="M51.37,-274.86C64.43,-292.33 86.61,-318.39 112,-333 118.76,-336.89 126.3,-339.99 133.95,-342.46"/>
<polygon fill="midnightblue" stroke="midnightblue" points="54.1,-272.66 45.41,-266.61 48.43,-276.76 54.1,-272.66"/>
</g>
<!-- Node530 -->
<g id="node7" class="node">
<title>Node530</title>
<g id="a_node7"><a xlink:href="dc/dc4/classMeasureTest.html" target="_top" xlink:title=" ">
<polygon fill="white" stroke="black" points="137.5,-304.5 137.5,-323.5 244.5,-323.5 244.5,-304.5 137.5,-304.5"/>
<text text-anchor="middle" x="191" y="-311.5" font-family="Helvetica,sans-Serif" font-size="10.00">MeasureTest&lt; T &gt;</text>
</a>
</g>
</g>
<!-- Node524&#45;&gt;Node530 -->
<g id="edge6" class="edge">
<title>Node524&#45;&gt;Node530</title>
<path fill="none" stroke="midnightblue" d="M63.61,-271.71C77.45,-279.49 95.26,-288.71 112,-295 121.79,-298.68 132.53,-301.83 142.84,-304.45"/>
<polygon fill="midnightblue" stroke="midnightblue" points="65.14,-268.55 54.72,-266.6 61.65,-274.62 65.14,-268.55"/>
</g>
<!-- Node531 -->
<g id="node8" class="node">
<title>Node531</title>
<g id="a_node8"><a xlink:href="df/d23/classNumberAggregatorTest.html" target="_top" xlink:title=" ">
<polygon fill="white" stroke="black" points="112,-266.5 112,-285.5 270,-285.5 270,-266.5 112,-266.5"/>
<text text-anchor="middle" x="191" y="-273.5" font-family="Helvetica,sans-Serif" font-size="10.00">NumberAggregatorTest&lt; T &gt;</text>
</a>
</g>
</g>
<!-- Node524&#45;&gt;Node531 -->
<g id="edge7" class="edge">
<title>Node524&#45;&gt;Node531</title>
<path fill="none" stroke="midnightblue" d="M86.48,-262.97C95.4,-264.1 104.92,-265.29 114.45,-266.49"/>
<polygon fill="midnightblue" stroke="midnightblue" points="86.68,-259.47 76.33,-261.7 85.81,-266.42 86.68,-259.47"/>
</g>
<!-- Node532 -->
<g id="node9" class="node">
<title>Node532</title>
<g id="a_node9"><a xlink:href="dc/d9c/classRJAttributeTest.html" target="_top" xlink:title=" ">
<polygon fill="white" stroke="black" points="146.5,-228.5 146.5,-247.5 235.5,-247.5 235.5,-228.5 146.5,-228.5"/>
<text text-anchor="middle" x="191" y="-235.5" font-family="Helvetica,sans-Serif" font-size="10.00">RJAttributeTest</text>
</a>
</g>
</g>
<!-- Node524&#45;&gt;Node532 -->
<g id="edge8" class="edge">
<title>Node524&#45;&gt;Node532</title>
<path fill="none" stroke="midnightblue" d="M86.37,-251.04C105.57,-248.62 127.61,-245.85 146.41,-243.48"/>
<polygon fill="midnightblue" stroke="midnightblue" points="85.81,-247.58 76.33,-252.3 86.68,-254.53 85.81,-247.58"/>
</g>
<!-- Node533 -->
<g id="node10" class="node">
<title>Node533</title>
<g id="a_node10"><a xlink:href="d7/da5/classRJPathTest.html" target="_top" xlink:title=" ">
<polygon fill="white" stroke="black" points="157.5,-190.5 157.5,-209.5 224.5,-209.5 224.5,-190.5 157.5,-190.5"/>
<text text-anchor="middle" x="191" y="-197.5" font-family="Helvetica,sans-Serif" font-size="10.00">RJPathTest</text>
</a>
</g>
</g>
<!-- Node524&#45;&gt;Node533 -->
<g id="edge9" class="edge">
<title>Node524&#45;&gt;Node533</title>
<path fill="none" stroke="midnightblue" d="M63.61,-242.29C77.45,-234.51 95.26,-225.29 112,-219 126.48,-213.56 143.07,-209.26 157.21,-206.14"/>
<polygon fill="midnightblue" stroke="midnightblue" points="61.65,-239.38 54.72,-247.4 65.14,-245.45 61.65,-239.38"/>
</g>
<!-- Node534 -->
<g id="node11" class="node">
<title>Node534</title>
<g id="a_node11"><a xlink:href="d5/db5/classServerTest.html" target="_top" xlink:title=" ">
<polygon fill="white" stroke="black" points="157,-152.5 157,-171.5 225,-171.5 225,-152.5 157,-152.5"/>
<text text-anchor="middle" x="191" y="-159.5" font-family="Helvetica,sans-Serif" font-size="10.00">ServerTest</text>
</a>
</g>
</g>
<!-- Node524&#45;&gt;Node534 -->
<g id="edge10" class="edge">
<title>Node524&#45;&gt;Node534</title>
<path fill="none" stroke="midnightblue" d="M51.37,-239.14C64.43,-221.67 86.61,-195.61 112,-181 125.65,-173.14 142.45,-168.52 156.95,-165.81"/>
<polygon fill="midnightblue" stroke="midnightblue" points="48.43,-237.24 45.41,-247.39 54.1,-241.34 48.43,-237.24"/>
</g>
<!-- Node535 -->
<g id="node12" class="node">
<title>Node535</title>
<g id="a_node12"><a xlink:href="d1/d60/classStaticEvalVisitorTest.html" target="_top" xlink:title=" ">
<polygon fill="white" stroke="black" points="133,-114.5 133,-133.5 249,-133.5 249,-114.5 133,-114.5"/>
<text text-anchor="middle" x="191" y="-121.5" font-family="Helvetica,sans-Serif" font-size="10.00">StaticEvalVisitorTest</text>
</a>
</g>
</g>
<!-- Node524&#45;&gt;Node535 -->
<g id="edge11" class="edge">
<title>Node524&#45;&gt;Node535</title>
<path fill="none" stroke="midnightblue" d="M45.95,-237.89C56.29,-212.24 78.21,-167.13 112,-143 118.24,-138.55 125.4,-135.13 132.79,-132.51"/>
<polygon fill="midnightblue" stroke="midnightblue" points="42.67,-236.69 42.34,-247.28 49.2,-239.2 42.67,-236.69"/>
</g>
<!-- Node536 -->
<g id="node13" class="node">
<title>Node536</title>
<g id="a_node13"><a xlink:href="de/d0b/classValueTest.html" target="_top" xlink:title=" ">
<polygon fill="white" stroke="black" points="159.5,-76.5 159.5,-95.5 222.5,-95.5 222.5,-76.5 159.5,-76.5"/>
<text text-anchor="middle" x="191" y="-83.5" font-family="Helvetica,sans-Serif" font-size="10.00">ValueTest</text>
</a>
</g>
</g>
<!-- Node524&#45;&gt;Node536 -->
<g id="edge12" class="edge">
<title>Node524&#45;&gt;Node536</title>
<path fill="none" stroke="midnightblue" d="M42.79,-237.31C50.13,-204.65 69.48,-139.46 112,-105 125.21,-94.29 143.55,-89.48 159.12,-87.37"/>
<polygon fill="midnightblue" stroke="midnightblue" points="39.3,-236.9 40.67,-247.41 46.15,-238.34 39.3,-236.9"/>
</g>
<!-- Node537 -->
<g id="node14" class="node">
<title>Node537</title>
<g id="a_node14"><a xlink:href="de/d44/classViewTest.html" target="_top" xlink:title=" ">
<polygon fill="white" stroke="black" points="161,-38.5 161,-57.5 221,-57.5 221,-38.5 161,-38.5"/>
<text text-anchor="middle" x="191" y="-45.5" font-family="Helvetica,sans-Serif" font-size="10.00">ViewTest</text>
</a>
</g>
</g>
<!-- Node524&#45;&gt;Node537 -->
<g id="edge13" class="edge">
<title>Node524&#45;&gt;Node537</title>
<path fill="none" stroke="midnightblue" d="M40.66,-237.4C45.02,-198.73 60.32,-112.46 112,-67 125.29,-55.31 144.59,-50.54 160.67,-48.71"/>
<polygon fill="midnightblue" stroke="midnightblue" points="37.18,-237.07 39.67,-247.37 44.14,-237.77 37.18,-237.07"/>
</g>
<!-- Node538 -->
<g id="node15" class="node">
<title>Node538</title>
<g id="a_node15"><a xlink:href="dc/d38/classVirtualObjectTest.html" target="_top" xlink:title=" ">
<polygon fill="white" stroke="black" points="141,-0.5 141,-19.5 241,-19.5 241,-0.5 141,-0.5"/>
<text text-anchor="middle" x="191" y="-7.5" font-family="Helvetica,sans-Serif" font-size="10.00">VirtualObjectTest</text>
</a>
</g>
</g>
<!-- Node524&#45;&gt;Node538 -->
<g id="edge14" class="edge">
<title>Node524&#45;&gt;Node538</title>
<path fill="none" stroke="midnightblue" d="M39.23,-236.93C40.87,-192.54 51.29,-85.55 112,-29 119.95,-21.59 130.3,-16.93 140.85,-14.04"/>
<polygon fill="midnightblue" stroke="midnightblue" points="35.73,-236.93 38.97,-247.02 42.73,-237.11 35.73,-236.93"/>
</g>
</g>
</svg>
