<?xml version="1.0" encoding="UTF-8" standalone="no"?>
<!DOCTYPE svg PUBLIC "-//W3C//DTD SVG 1.1//EN"
 "http://www.w3.org/Graphics/SVG/1.1/DTD/svg11.dtd">
<!-- Generated by graphviz version 2.43.0 (0)
 -->
<!-- Title: AggregatorTest::checkDuplicate Pages: 1 -->
<svg width="576pt" height="132pt"
 viewBox="0.00 0.00 576.00 132.00" xmlns="http://www.w3.org/2000/svg" xmlns:xlink="http://www.w3.org/1999/xlink">
<g id="graph0" class="graph" transform="scale(1 1) rotate(0) translate(4 128)">
<title>AggregatorTest::checkDuplicate</title>
<polygon fill="white" stroke="transparent" points="-4,4 -4,-128 572,-128 572,4 -4,4"/>
<!-- Node1 -->
<g id="node1" class="node">
<title>Node1</title>
<g id="a_node1"><a xlink:title=" ">
<polygon fill="#bfbfbf" stroke="black" points="0,-55 0,-74 171,-74 171,-55 0,-55"/>
<text text-anchor="middle" x="85.5" y="-62" font-family="Helvetica,sans-Serif" font-size="10.00">AggregatorTest::checkDuplicate</text>
</a>
</g>
</g>
<!-- Node2 -->
<g id="node2" class="node">
<title>Node2</title>
<g id="a_node2"><a xlink:href="../../d0/d07/classjoda_1_1query_1_1IAggregator.html#acf4ebc0f99c7ee935ac9c997a58e94ee" target="_top" xlink:title=" ">
<polygon fill="white" stroke="black" points="207,-93.5 207,-123.5 341,-123.5 341,-93.5 207,-93.5"/>
<text text-anchor="start" x="215" y="-111.5" font-family="Helvetica,sans-Serif" font-size="10.00">joda::query::IAggregator</text>
<text text-anchor="middle" x="274" y="-100.5" font-family="Helvetica,sans-Serif" font-size="10.00">::duplicate</text>
</a>
</g>
</g>
<!-- Node1&#45;&gt;Node2 -->
<g id="edge1" class="edge">
<title>Node1&#45;&gt;Node2</title>
<path fill="none" stroke="midnightblue" d="M126.97,-74.05C148.06,-79.02 174.52,-85.27 199.11,-91.07"/>
<polygon fill="midnightblue" stroke="midnightblue" points="198.61,-94.54 209.14,-93.43 200.21,-87.73 198.61,-94.54"/>
</g>
<!-- Node3 -->
<g id="node3" class="node">
<title>Node3</title>
<g id="a_node3"><a xlink:href="../../d0/d07/classjoda_1_1query_1_1IAggregator.html#aebc573da9756fc6f3eb3b0bbeafc4a4b" target="_top" xlink:title=" ">
<polygon fill="white" stroke="black" points="405.5,-49.5 405.5,-79.5 539.5,-79.5 539.5,-49.5 405.5,-49.5"/>
<text text-anchor="start" x="413.5" y="-67.5" font-family="Helvetica,sans-Serif" font-size="10.00">joda::query::IAggregator</text>
<text text-anchor="middle" x="472.5" y="-56.5" font-family="Helvetica,sans-Serif" font-size="10.00">::getName</text>
</a>
</g>
</g>
<!-- Node1&#45;&gt;Node3 -->
<g id="edge2" class="edge">
<title>Node1&#45;&gt;Node3</title>
<path fill="none" stroke="midnightblue" d="M171.47,-64.5C238.31,-64.5 330.62,-64.5 395.14,-64.5"/>
<polygon fill="midnightblue" stroke="midnightblue" points="395.25,-68 405.25,-64.5 395.25,-61 395.25,-68"/>
</g>
<!-- Node4 -->
<g id="node4" class="node">
<title>Node4</title>
<g id="a_node4"><a xlink:href="../../d0/d07/classjoda_1_1query_1_1IAggregator.html#ae929d1c05e781ca45194ba54e959ed80" target="_top" xlink:title=" ">
<polygon fill="white" stroke="black" points="207,-5.5 207,-35.5 341,-35.5 341,-5.5 207,-5.5"/>
<text text-anchor="start" x="215" y="-23.5" font-family="Helvetica,sans-Serif" font-size="10.00">joda::query::IAggregator</text>
<text text-anchor="middle" x="274" y="-12.5" font-family="Helvetica,sans-Serif" font-size="10.00">::toString</text>
</a>
</g>
</g>
<!-- Node1&#45;&gt;Node4 -->
<g id="edge3" class="edge">
<title>Node1&#45;&gt;Node4</title>
<path fill="none" stroke="midnightblue" d="M126.97,-54.95C148.06,-49.98 174.52,-43.73 199.11,-37.93"/>
<polygon fill="midnightblue" stroke="midnightblue" points="200.21,-41.27 209.14,-35.57 198.61,-34.46 200.21,-41.27"/>
</g>
<!-- Node4&#45;&gt;Node3 -->
<g id="edge4" class="edge">
<title>Node4&#45;&gt;Node3</title>
<path fill="none" stroke="midnightblue" d="M341.25,-35.34C358.64,-39.23 377.54,-43.46 395.4,-47.46"/>
<polygon fill="midnightblue" stroke="midnightblue" points="394.68,-50.88 405.2,-49.65 396.21,-44.05 394.68,-50.88"/>
</g>
<!-- Node5 -->
<g id="node5" class="node">
<title>Node5</title>
<g id="a_node5"><a xlink:href="../../d0/d07/classjoda_1_1query_1_1IAggregator.html#af0600bc509218ae291bf20e775b1e5e1" target="_top" xlink:title=" ">
<polygon fill="white" stroke="black" points="377,-0.5 377,-30.5 568,-30.5 568,-0.5 377,-0.5"/>
<text text-anchor="start" x="385" y="-18.5" font-family="Helvetica,sans-Serif" font-size="10.00">joda::query::IAggregator</text>
<text text-anchor="middle" x="472.5" y="-7.5" font-family="Helvetica,sans-Serif" font-size="10.00">::getParameterStringRepresentation</text>
</a>
</g>
</g>
<!-- Node4&#45;&gt;Node5 -->
<g id="edge5" class="edge">
<title>Node4&#45;&gt;Node5</title>
<path fill="none" stroke="midnightblue" d="M341.25,-18.81C349.5,-18.6 358.09,-18.39 366.74,-18.17"/>
<polygon fill="midnightblue" stroke="midnightblue" points="367.01,-21.66 376.91,-17.91 366.83,-14.66 367.01,-21.66"/>
</g>
</g>
</svg>
