<?xml version="1.0" encoding="UTF-8" standalone="no"?>
<!DOCTYPE svg PUBLIC "-//W3C//DTD SVG 1.1//EN"
 "http://www.w3.org/Graphics/SVG/1.1/DTD/svg11.dtd">
<!-- Generated by graphviz version 2.43.0 (0)
 -->
<!-- Title: AggregatorTest::testAgg Pages: 1 -->
<svg width="505pt" height="66pt"
 viewBox="0.00 0.00 505.00 66.00" xmlns="http://www.w3.org/2000/svg" xmlns:xlink="http://www.w3.org/1999/xlink">
<g id="graph0" class="graph" transform="scale(1 1) rotate(0) translate(4 62)">
<title>AggregatorTest::testAgg</title>
<polygon fill="white" stroke="transparent" points="-4,4 -4,-62 501,-62 501,4 -4,4"/>
<!-- Node1 -->
<g id="node1" class="node">
<title>Node1</title>
<g id="a_node1"><a xlink:title=" ">
<polygon fill="#bfbfbf" stroke="black" points="0,-19.5 0,-38.5 134,-38.5 134,-19.5 0,-19.5"/>
<text text-anchor="middle" x="67" y="-26.5" font-family="Helvetica,sans-Serif" font-size="10.00">AggregatorTest::testAgg</text>
</a>
</g>
</g>
<!-- Node2 -->
<g id="node2" class="node">
<title>Node2</title>
<g id="a_node2"><a xlink:href="../../db/d95/classAggregatorTest.html#a35a96c737597a6e28f57b378131eda72" target="_top" xlink:title=" ">
<polygon fill="white" stroke="black" points="170,-19.5 170,-38.5 304,-38.5 304,-19.5 170,-19.5"/>
<text text-anchor="middle" x="237" y="-26.5" font-family="Helvetica,sans-Serif" font-size="10.00">AggregatorTest::testAgg</text>
</a>
</g>
</g>
<!-- Node1&#45;&gt;Node2 -->
<g id="edge1" class="edge">
<title>Node1&#45;&gt;Node2</title>
<path fill="none" stroke="midnightblue" d="M134.4,-29C142.68,-29 151.2,-29 159.62,-29"/>
<polygon fill="midnightblue" stroke="midnightblue" points="159.81,-32.5 169.81,-29 159.81,-25.5 159.81,-32.5"/>
</g>
<!-- Node3 -->
<g id="node3" class="node">
<title>Node3</title>
<g id="a_node3"><a xlink:href="../../db/d95/classAggregatorTest.html#a03ea9a2446c186efec4b91b3f63425c3" target="_top" xlink:title=" ">
<polygon fill="white" stroke="black" points="345.5,-38.5 345.5,-57.5 491.5,-57.5 491.5,-38.5 345.5,-38.5"/>
<text text-anchor="middle" x="418.5" y="-45.5" font-family="Helvetica,sans-Serif" font-size="10.00">AggregatorTest::aggregate</text>
</a>
</g>
</g>
<!-- Node2&#45;&gt;Node3 -->
<g id="edge2" class="edge">
<title>Node2&#45;&gt;Node3</title>
<path fill="none" stroke="midnightblue" d="M304.07,-35.99C314.23,-37.07 324.81,-38.19 335.26,-39.3"/>
<polygon fill="midnightblue" stroke="midnightblue" points="334.91,-42.78 345.22,-40.35 335.64,-35.82 334.91,-42.78"/>
</g>
<!-- Node4 -->
<g id="node4" class="node">
<title>Node4</title>
<g id="a_node4"><a xlink:href="../../db/d95/classAggregatorTest.html#aedd08b05bbedbe69a67844fb82b25868" target="_top" xlink:title=" ">
<polygon fill="white" stroke="black" points="340,-0.5 340,-19.5 497,-19.5 497,-0.5 340,-0.5"/>
<text text-anchor="middle" x="418.5" y="-7.5" font-family="Helvetica,sans-Serif" font-size="10.00">AggregatorTest::rjvalToString</text>
</a>
</g>
</g>
<!-- Node2&#45;&gt;Node4 -->
<g id="edge3" class="edge">
<title>Node2&#45;&gt;Node4</title>
<path fill="none" stroke="midnightblue" d="M304.07,-22.01C312.41,-21.12 321.04,-20.21 329.64,-19.3"/>
<polygon fill="midnightblue" stroke="midnightblue" points="330.14,-22.77 339.71,-18.23 329.4,-15.81 330.14,-22.77"/>
</g>
</g>
</svg>
