<?xml version="1.0" encoding="UTF-8" standalone="no"?>
<!DOCTYPE svg PUBLIC "-//W3C//DTD SVG 1.1//EN"
 "http://www.w3.org/Graphics/SVG/1.1/DTD/svg11.dtd">
<!-- Generated by graphviz version 2.43.0 (0)
 -->
<!-- Title: AggregatorTest::testAgg Pages: 1 -->
<svg width="335pt" height="66pt"
 viewBox="0.00 0.00 335.00 66.00" xmlns="http://www.w3.org/2000/svg" xmlns:xlink="http://www.w3.org/1999/xlink">
<g id="graph0" class="graph" transform="scale(1 1) rotate(0) translate(4 62)">
<title>AggregatorTest::testAgg</title>
<polygon fill="white" stroke="transparent" points="-4,4 -4,-62 331,-62 331,4 -4,4"/>
<!-- Node1 -->
<g id="node1" class="node">
<title>Node1</title>
<g id="a_node1"><a xlink:title=" ">
<polygon fill="#bfbfbf" stroke="black" points="0,-19.5 0,-38.5 134,-38.5 134,-19.5 0,-19.5"/>
<text text-anchor="middle" x="67" y="-26.5" font-family="Helvetica,sans-Serif" font-size="10.00">AggregatorTest::testAgg</text>
</a>
</g>
</g>
<!-- Node2 -->
<g id="node2" class="node">
<title>Node2</title>
<g id="a_node2"><a xlink:href="../../db/d95/classAggregatorTest.html#a03ea9a2446c186efec4b91b3f63425c3" target="_top" xlink:title=" ">
<polygon fill="white" stroke="black" points="175.5,-38.5 175.5,-57.5 321.5,-57.5 321.5,-38.5 175.5,-38.5"/>
<text text-anchor="middle" x="248.5" y="-45.5" font-family="Helvetica,sans-Serif" font-size="10.00">AggregatorTest::aggregate</text>
</a>
</g>
</g>
<!-- Node1&#45;&gt;Node2 -->
<g id="edge1" class="edge">
<title>Node1&#45;&gt;Node2</title>
<path fill="none" stroke="midnightblue" d="M134.07,-35.99C144.23,-37.07 154.81,-38.19 165.26,-39.3"/>
<polygon fill="midnightblue" stroke="midnightblue" points="164.91,-42.78 175.22,-40.35 165.64,-35.82 164.91,-42.78"/>
</g>
<!-- Node3 -->
<g id="node3" class="node">
<title>Node3</title>
<g id="a_node3"><a xlink:href="../../db/d95/classAggregatorTest.html#aedd08b05bbedbe69a67844fb82b25868" target="_top" xlink:title=" ">
<polygon fill="white" stroke="black" points="170,-0.5 170,-19.5 327,-19.5 327,-0.5 170,-0.5"/>
<text text-anchor="middle" x="248.5" y="-7.5" font-family="Helvetica,sans-Serif" font-size="10.00">AggregatorTest::rjvalToString</text>
</a>
</g>
</g>
<!-- Node1&#45;&gt;Node3 -->
<g id="edge2" class="edge">
<title>Node1&#45;&gt;Node3</title>
<path fill="none" stroke="midnightblue" d="M134.07,-22.01C142.41,-21.12 151.04,-20.21 159.64,-19.3"/>
<polygon fill="midnightblue" stroke="midnightblue" points="160.14,-22.77 169.71,-18.23 159.4,-15.81 160.14,-22.77"/>
</g>
</g>
</svg>
