<?xml version="1.0" encoding="UTF-8" standalone="no"?>
<!DOCTYPE svg PUBLIC "-//W3C//DTD SVG 1.1//EN"
 "http://www.w3.org/Graphics/SVG/1.1/DTD/svg11.dtd">
<!-- Generated by graphviz version 2.43.0 (0)
 -->
<!-- Title: /home/nico/projects/JODA&#45;gh/libs/joda/core/modules/query/predicate/include/joda/query/predicate/CopyPredicateVisitor.h Pages: 1 -->
<svg width="384pt" height="161pt"
 viewBox="0.00 0.00 384.00 161.00" xmlns="http://www.w3.org/2000/svg" xmlns:xlink="http://www.w3.org/1999/xlink">
<g id="graph0" class="graph" transform="scale(1 1) rotate(0) translate(4 157)">
<title>/home/nico/projects/JODA&#45;gh/libs/joda/core/modules/query/predicate/include/joda/query/predicate/CopyPredicateVisitor.h</title>
<polygon fill="white" stroke="transparent" points="-4,4 -4,-157 380,-157 380,4 -4,4"/>
<!-- Node1 -->
<g id="node1" class="node">
<title>Node1</title>
<g id="a_node1"><a xlink:title=" ">
<polygon fill="#bfbfbf" stroke="black" points="117.5,-89.5 117.5,-152.5 275.5,-152.5 275.5,-89.5 117.5,-89.5"/>
<text text-anchor="start" x="125.5" y="-140.5" font-family="Helvetica,sans-Serif" font-size="10.00">/home/nico/projects</text>
<text text-anchor="start" x="125.5" y="-129.5" font-family="Helvetica,sans-Serif" font-size="10.00">/JODA&#45;gh/libs/joda/core</text>
<text text-anchor="start" x="125.5" y="-118.5" font-family="Helvetica,sans-Serif" font-size="10.00">/modules/query/predicate</text>
<text text-anchor="start" x="125.5" y="-107.5" font-family="Helvetica,sans-Serif" font-size="10.00">/include/joda/query/predicate</text>
<text text-anchor="middle" x="196.5" y="-96.5" font-family="Helvetica,sans-Serif" font-size="10.00">/CopyPredicateVisitor.h</text>
</a>
</g>
</g>
<!-- Node2 -->
<g id="node2" class="node">
<title>Node2</title>
<g id="a_node2"><a xlink:href="../../d4/ddd/CopyPredicateVisitor_8cpp.html" target="_top" xlink:title=" ">
<polygon fill="white" stroke="black" points="0,-0.5 0,-52.5 197,-52.5 197,-0.5 0,-0.5"/>
<text text-anchor="start" x="8" y="-40.5" font-family="Helvetica,sans-Serif" font-size="10.00">/home/nico/projects</text>
<text text-anchor="start" x="8" y="-29.5" font-family="Helvetica,sans-Serif" font-size="10.00">/JODA&#45;gh/libs/joda/core</text>
<text text-anchor="start" x="8" y="-18.5" font-family="Helvetica,sans-Serif" font-size="10.00">/modules/query/predicate</text>
<text text-anchor="middle" x="98.5" y="-7.5" font-family="Helvetica,sans-Serif" font-size="10.00">/src/visitors/CopyPredicateVisitor.cpp</text>
</a>
</g>
</g>
<!-- Node1&#45;&gt;Node2 -->
<g id="edge1" class="edge">
<title>Node1&#45;&gt;Node2</title>
<path fill="none" stroke="midnightblue" d="M156.6,-82.33C146.05,-72.38 134.93,-61.88 125.27,-52.77"/>
<polygon fill="midnightblue" stroke="midnightblue" points="154.46,-85.14 164.14,-89.46 159.27,-80.05 154.46,-85.14"/>
</g>
<!-- Node3 -->
<g id="node3" class="node">
<title>Node3</title>
<g id="a_node3"><a xlink:href="../../de/d9f/Query_8cpp.html" target="_top" xlink:title=" ">
<polygon fill="white" stroke="black" points="215,-6 215,-47 376,-47 376,-6 215,-6"/>
<text text-anchor="start" x="223" y="-35" font-family="Helvetica,sans-Serif" font-size="10.00">/home/nico/projects</text>
<text text-anchor="start" x="223" y="-24" font-family="Helvetica,sans-Serif" font-size="10.00">/JODA&#45;gh/libs/joda/core</text>
<text text-anchor="middle" x="295.5" y="-13" font-family="Helvetica,sans-Serif" font-size="10.00">/modules/query/src/Query.cpp</text>
</a>
</g>
</g>
<!-- Node1&#45;&gt;Node3 -->
<g id="edge2" class="edge">
<title>Node1&#45;&gt;Node3</title>
<path fill="none" stroke="midnightblue" d="M236.67,-82.47C249.58,-70.4 263.38,-57.51 274.36,-47.25"/>
<polygon fill="midnightblue" stroke="midnightblue" points="234.11,-80.07 229.19,-89.46 238.89,-85.19 234.11,-80.07"/>
</g>
</g>
</svg>
