<?xml version="1.0" encoding="UTF-8" standalone="no"?>
<!DOCTYPE svg PUBLIC "-//W3C//DTD SVG 1.1//EN"
 "http://www.w3.org/Graphics/SVG/1.1/DTD/svg11.dtd">
<!-- Generated by graphviz version 2.43.0 (0)
 -->
<!-- Title: /home/nico/projects/tmp&#45;joda&#45;dirs/JODA&#45;gh/libs/joda/core/modules/query/predicate/include/joda/query/predicate/ValToPredicate.h Pages: 1 -->
<svg width="2124pt" height="950pt"
 viewBox="0.00 0.00 2123.50 950.00" xmlns="http://www.w3.org/2000/svg" xmlns:xlink="http://www.w3.org/1999/xlink">
<g id="graph0" class="graph" transform="scale(1 1) rotate(0) translate(4 946)">
<title>/home/nico/projects/tmp&#45;joda&#45;dirs/JODA&#45;gh/libs/joda/core/modules/query/predicate/include/joda/query/predicate/ValToPredicate.h</title>
<polygon fill="white" stroke="transparent" points="-4,4 -4,-946 2119.5,-946 2119.5,4 -4,4"/>
<!-- Node1 -->
<g id="node1" class="node">
<title>Node1</title>
<g id="a_node1"><a xlink:title=" ">
<polygon fill="#bfbfbf" stroke="black" points="821,-878.5 821,-941.5 1024,-941.5 1024,-878.5 821,-878.5"/>
<text text-anchor="start" x="829" y="-929.5" font-family="Helvetica,sans-Serif" font-size="10.00">/home/nico/projects</text>
<text text-anchor="start" x="829" y="-918.5" font-family="Helvetica,sans-Serif" font-size="10.00">/tmp&#45;joda&#45;dirs/JODA</text>
<text text-anchor="start" x="829" y="-907.5" font-family="Helvetica,sans-Serif" font-size="10.00">&#45;gh/libs/joda/core/modules</text>
<text text-anchor="start" x="829" y="-896.5" font-family="Helvetica,sans-Serif" font-size="10.00">/query/predicate/include</text>
<text text-anchor="middle" x="922.5" y="-885.5" font-family="Helvetica,sans-Serif" font-size="10.00">/joda/query/predicate/ValToPredicate.h</text>
</a>
</g>
</g>
<!-- Node2 -->
<g id="node2" class="node">
<title>Node2</title>
<g id="a_node2"><a xlink:href="../../df/d93/PredFWD_8h.html" target="_top" xlink:title=" ">
<polygon fill="white" stroke="black" points="0,-778.5 0,-841.5 177,-841.5 177,-778.5 0,-778.5"/>
<text text-anchor="start" x="8" y="-829.5" font-family="Helvetica,sans-Serif" font-size="10.00">/home/nico/projects</text>
<text text-anchor="start" x="8" y="-818.5" font-family="Helvetica,sans-Serif" font-size="10.00">/tmp&#45;joda&#45;dirs/JODA</text>
<text text-anchor="start" x="8" y="-807.5" font-family="Helvetica,sans-Serif" font-size="10.00">&#45;gh/libs/joda/core/modules</text>
<text text-anchor="start" x="8" y="-796.5" font-family="Helvetica,sans-Serif" font-size="10.00">/query/predicate/include</text>
<text text-anchor="middle" x="88.5" y="-785.5" font-family="Helvetica,sans-Serif" font-size="10.00">/joda/query/predicate/PredFWD.h</text>
</a>
</g>
</g>
<!-- Node1&#45;&gt;Node2 -->
<g id="edge1" class="edge">
<title>Node1&#45;&gt;Node2</title>
<path fill="none" stroke="midnightblue" d="M810.66,-906.3C665.47,-901.09 404.84,-885.94 186.5,-842 183.44,-841.38 180.34,-840.71 177.22,-839.98"/>
<polygon fill="midnightblue" stroke="midnightblue" points="810.8,-909.81 820.91,-906.66 811.04,-902.81 810.8,-909.81"/>
</g>
<!-- Node4 -->
<g id="node4" class="node">
<title>Node4</title>
<g id="a_node4"><a xlink:href="../../d7/d1f/ValToPredicate_8cpp.html" target="_top" xlink:title=" ">
<polygon fill="white" stroke="black" points="195.5,-784 195.5,-836 403.5,-836 403.5,-784 195.5,-784"/>
<text text-anchor="start" x="203.5" y="-824" font-family="Helvetica,sans-Serif" font-size="10.00">/home/nico/projects</text>
<text text-anchor="start" x="203.5" y="-813" font-family="Helvetica,sans-Serif" font-size="10.00">/tmp&#45;joda&#45;dirs/JODA</text>
<text text-anchor="start" x="203.5" y="-802" font-family="Helvetica,sans-Serif" font-size="10.00">&#45;gh/libs/joda/core/modules</text>
<text text-anchor="middle" x="299.5" y="-791" font-family="Helvetica,sans-Serif" font-size="10.00">/query/predicate/src/ValToPredicate.cpp</text>
</a>
</g>
</g>
<!-- Node1&#45;&gt;Node4 -->
<g id="edge3" class="edge">
<title>Node1&#45;&gt;Node4</title>
<path fill="none" stroke="midnightblue" d="M810.52,-898.75C706.7,-888.19 548.26,-869.4 412.5,-842 403.93,-840.27 395.04,-838.25 386.2,-836.08"/>
<polygon fill="midnightblue" stroke="midnightblue" points="810.4,-902.26 820.7,-899.78 811.11,-895.29 810.4,-902.26"/>
</g>
<!-- Node5 -->
<g id="node5" class="node">
<title>Node5</title>
<g id="a_node5"><a xlink:href="../../d8/d59/AttributeVisitor_8cpp.html" target="_top" xlink:title=" ">
<polygon fill="white" stroke="black" points="421.5,-778.5 421.5,-841.5 573.5,-841.5 573.5,-778.5 421.5,-778.5"/>
<text text-anchor="start" x="429.5" y="-829.5" font-family="Helvetica,sans-Serif" font-size="10.00">/home/nico/projects</text>
<text text-anchor="start" x="429.5" y="-818.5" font-family="Helvetica,sans-Serif" font-size="10.00">/tmp&#45;joda&#45;dirs/JODA</text>
<text text-anchor="start" x="429.5" y="-807.5" font-family="Helvetica,sans-Serif" font-size="10.00">&#45;gh/libs/joda/core/modules</text>
<text text-anchor="start" x="429.5" y="-796.5" font-family="Helvetica,sans-Serif" font-size="10.00">/query/predicate/src/visitors</text>
<text text-anchor="middle" x="497.5" y="-785.5" font-family="Helvetica,sans-Serif" font-size="10.00">/AttributeVisitor.cpp</text>
</a>
</g>
</g>
<!-- Node1&#45;&gt;Node5 -->
<g id="edge4" class="edge">
<title>Node1&#45;&gt;Node5</title>
<path fill="none" stroke="midnightblue" d="M810.61,-891.46C743.8,-879.87 657.6,-862.96 582.5,-842 579.63,-841.2 576.71,-840.34 573.77,-839.45"/>
<polygon fill="midnightblue" stroke="midnightblue" points="810.29,-894.95 820.74,-893.2 811.48,-888.05 810.29,-894.95"/>
</g>
<!-- Node6 -->
<g id="node6" class="node">
<title>Node6</title>
<g id="a_node6"><a xlink:href="../../dc/dc6/BloomAttributeVisitor_8cpp.html" target="_top" xlink:title=" ">
<polygon fill="white" stroke="black" points="591.5,-778.5 591.5,-841.5 743.5,-841.5 743.5,-778.5 591.5,-778.5"/>
<text text-anchor="start" x="599.5" y="-829.5" font-family="Helvetica,sans-Serif" font-size="10.00">/home/nico/projects</text>
<text text-anchor="start" x="599.5" y="-818.5" font-family="Helvetica,sans-Serif" font-size="10.00">/tmp&#45;joda&#45;dirs/JODA</text>
<text text-anchor="start" x="599.5" y="-807.5" font-family="Helvetica,sans-Serif" font-size="10.00">&#45;gh/libs/joda/core/modules</text>
<text text-anchor="start" x="599.5" y="-796.5" font-family="Helvetica,sans-Serif" font-size="10.00">/query/predicate/src/visitors</text>
<text text-anchor="middle" x="667.5" y="-785.5" font-family="Helvetica,sans-Serif" font-size="10.00">/BloomAttributeVisitor.cpp</text>
</a>
</g>
</g>
<!-- Node1&#45;&gt;Node6 -->
<g id="edge5" class="edge">
<title>Node1&#45;&gt;Node6</title>
<path fill="none" stroke="midnightblue" d="M833.5,-874.79C804.29,-863.57 772.11,-851.2 743.92,-840.37"/>
<polygon fill="midnightblue" stroke="midnightblue" points="832.28,-878.07 842.87,-878.4 834.79,-871.54 832.28,-878.07"/>
</g>
<!-- Node7 -->
<g id="node7" class="node">
<title>Node7</title>
<g id="a_node7"><a xlink:href="../../d4/ddd/CopyPredicateVisitor_8cpp.html" target="_top" xlink:title=" ">
<polygon fill="white" stroke="black" points="761.5,-778.5 761.5,-841.5 913.5,-841.5 913.5,-778.5 761.5,-778.5"/>
<text text-anchor="start" x="769.5" y="-829.5" font-family="Helvetica,sans-Serif" font-size="10.00">/home/nico/projects</text>
<text text-anchor="start" x="769.5" y="-818.5" font-family="Helvetica,sans-Serif" font-size="10.00">/tmp&#45;joda&#45;dirs/JODA</text>
<text text-anchor="start" x="769.5" y="-807.5" font-family="Helvetica,sans-Serif" font-size="10.00">&#45;gh/libs/joda/core/modules</text>
<text text-anchor="start" x="769.5" y="-796.5" font-family="Helvetica,sans-Serif" font-size="10.00">/query/predicate/src/visitors</text>
<text text-anchor="middle" x="837.5" y="-785.5" font-family="Helvetica,sans-Serif" font-size="10.00">/CopyPredicateVisitor.cpp</text>
</a>
</g>
</g>
<!-- Node1&#45;&gt;Node7 -->
<g id="edge6" class="edge">
<title>Node1&#45;&gt;Node7</title>
<path fill="none" stroke="midnightblue" d="M889.27,-870.69C880.91,-861.05 872.05,-850.83 864.07,-841.63"/>
<polygon fill="midnightblue" stroke="midnightblue" points="886.64,-873 895.84,-878.26 891.93,-868.41 886.64,-873"/>
</g>
<!-- Node8 -->
<g id="node8" class="node">
<title>Node8</title>
<g id="a_node8"><a xlink:href="../../d7/dcb/StaticEvalVisitor_8cpp.html" target="_top" xlink:title=" ">
<polygon fill="white" stroke="black" points="931.5,-778.5 931.5,-841.5 1083.5,-841.5 1083.5,-778.5 931.5,-778.5"/>
<text text-anchor="start" x="939.5" y="-829.5" font-family="Helvetica,sans-Serif" font-size="10.00">/home/nico/projects</text>
<text text-anchor="start" x="939.5" y="-818.5" font-family="Helvetica,sans-Serif" font-size="10.00">/tmp&#45;joda&#45;dirs/JODA</text>
<text text-anchor="start" x="939.5" y="-807.5" font-family="Helvetica,sans-Serif" font-size="10.00">&#45;gh/libs/joda/core/modules</text>
<text text-anchor="start" x="939.5" y="-796.5" font-family="Helvetica,sans-Serif" font-size="10.00">/query/predicate/src/visitors</text>
<text text-anchor="middle" x="1007.5" y="-785.5" font-family="Helvetica,sans-Serif" font-size="10.00">/StaticEvalVisitor.cpp</text>
</a>
</g>
</g>
<!-- Node1&#45;&gt;Node8 -->
<g id="edge7" class="edge">
<title>Node1&#45;&gt;Node8</title>
<path fill="none" stroke="midnightblue" d="M955.73,-870.69C964.09,-861.05 972.95,-850.83 980.93,-841.63"/>
<polygon fill="midnightblue" stroke="midnightblue" points="953.07,-868.41 949.16,-878.26 958.36,-873 953.07,-868.41"/>
</g>
<!-- Node9 -->
<g id="node9" class="node">
<title>Node9</title>
<g id="a_node9"><a xlink:href="../../d2/d8c/ToStringVisitor_8cpp.html" target="_top" xlink:title=" ">
<polygon fill="white" stroke="black" points="1101.5,-778.5 1101.5,-841.5 1253.5,-841.5 1253.5,-778.5 1101.5,-778.5"/>
<text text-anchor="start" x="1109.5" y="-829.5" font-family="Helvetica,sans-Serif" font-size="10.00">/home/nico/projects</text>
<text text-anchor="start" x="1109.5" y="-818.5" font-family="Helvetica,sans-Serif" font-size="10.00">/tmp&#45;joda&#45;dirs/JODA</text>
<text text-anchor="start" x="1109.5" y="-807.5" font-family="Helvetica,sans-Serif" font-size="10.00">&#45;gh/libs/joda/core/modules</text>
<text text-anchor="start" x="1109.5" y="-796.5" font-family="Helvetica,sans-Serif" font-size="10.00">/query/predicate/src/visitors</text>
<text text-anchor="middle" x="1177.5" y="-785.5" font-family="Helvetica,sans-Serif" font-size="10.00">/ToStringVisitor.cpp</text>
</a>
</g>
</g>
<!-- Node1&#45;&gt;Node9 -->
<g id="edge8" class="edge">
<title>Node1&#45;&gt;Node9</title>
<path fill="none" stroke="midnightblue" d="M1011.5,-874.79C1040.71,-863.57 1072.89,-851.2 1101.08,-840.37"/>
<polygon fill="midnightblue" stroke="midnightblue" points="1010.21,-871.54 1002.13,-878.4 1012.72,-878.07 1010.21,-871.54"/>
</g>
<!-- Node10 -->
<g id="node10" class="node">
<title>Node10</title>
<g id="a_node10"><a xlink:href="../../de/d9f/Query_8cpp.html" target="_top" xlink:title=" ">
<polygon fill="white" stroke="black" points="1271.5,-784 1271.5,-836 1417.5,-836 1417.5,-784 1271.5,-784"/>
<text text-anchor="start" x="1279.5" y="-824" font-family="Helvetica,sans-Serif" font-size="10.00">/home/nico/projects</text>
<text text-anchor="start" x="1279.5" y="-813" font-family="Helvetica,sans-Serif" font-size="10.00">/tmp&#45;joda&#45;dirs/JODA</text>
<text text-anchor="start" x="1279.5" y="-802" font-family="Helvetica,sans-Serif" font-size="10.00">&#45;gh/libs/joda/core/modules</text>
<text text-anchor="middle" x="1344.5" y="-791" font-family="Helvetica,sans-Serif" font-size="10.00">/query/src/Query.cpp</text>
</a>
</g>
</g>
<!-- Node1&#45;&gt;Node10 -->
<g id="edge9" class="edge">
<title>Node1&#45;&gt;Node10</title>
<path fill="none" stroke="midnightblue" d="M1034.48,-891.78C1101.33,-880.3 1187.52,-863.4 1262.5,-842 1268.65,-840.25 1274.98,-838.23 1281.28,-836.09"/>
<polygon fill="midnightblue" stroke="midnightblue" points="1033.62,-888.37 1024.34,-893.5 1034.79,-895.27 1033.62,-888.37"/>
</g>
<!-- Node11 -->
<g id="node11" class="node">
<title>Node11</title>
<g id="a_node11"><a xlink:href="../../df/d8a/Choose__State_8h.html" target="_top" xlink:title=" ">
<polygon fill="white" stroke="black" points="1435.5,-778.5 1435.5,-841.5 1581.5,-841.5 1581.5,-778.5 1435.5,-778.5"/>
<text text-anchor="start" x="1443.5" y="-829.5" font-family="Helvetica,sans-Serif" font-size="10.00">/home/nico/projects</text>
<text text-anchor="start" x="1443.5" y="-818.5" font-family="Helvetica,sans-Serif" font-size="10.00">/tmp&#45;joda&#45;dirs/JODA</text>
<text text-anchor="start" x="1443.5" y="-807.5" font-family="Helvetica,sans-Serif" font-size="10.00">&#45;gh/libs/joda/core/modules</text>
<text text-anchor="start" x="1443.5" y="-796.5" font-family="Helvetica,sans-Serif" font-size="10.00">/queryparsing/src/states</text>
<text text-anchor="middle" x="1508.5" y="-785.5" font-family="Helvetica,sans-Serif" font-size="10.00">/Choose_State.h</text>
</a>
</g>
</g>
<!-- Node1&#45;&gt;Node11 -->
<g id="edge10" class="edge">
<title>Node1&#45;&gt;Node11</title>
<path fill="none" stroke="midnightblue" d="M1034.31,-901.52C1137.37,-892.9 1293.96,-875.39 1426.5,-842 1429.45,-841.26 1432.44,-840.44 1435.45,-839.57"/>
<polygon fill="midnightblue" stroke="midnightblue" points="1033.87,-898.05 1024.19,-902.36 1034.45,-905.03 1033.87,-898.05"/>
</g>
<!-- Node19 -->
<g id="node19" class="node">
<title>Node19</title>
<g id="a_node19"><a xlink:href="../../d0/d2e/As__Actions_8h.html" target="_top" xlink:title=" ">
<polygon fill="white" stroke="black" points="1903.5,-189.5 1903.5,-252.5 2049.5,-252.5 2049.5,-189.5 1903.5,-189.5"/>
<text text-anchor="start" x="1911.5" y="-240.5" font-family="Helvetica,sans-Serif" font-size="10.00">/home/nico/projects</text>
<text text-anchor="start" x="1911.5" y="-229.5" font-family="Helvetica,sans-Serif" font-size="10.00">/tmp&#45;joda&#45;dirs/JODA</text>
<text text-anchor="start" x="1911.5" y="-218.5" font-family="Helvetica,sans-Serif" font-size="10.00">&#45;gh/libs/joda/core/modules</text>
<text text-anchor="start" x="1911.5" y="-207.5" font-family="Helvetica,sans-Serif" font-size="10.00">/queryparsing/src/actions</text>
<text text-anchor="middle" x="1976.5" y="-196.5" font-family="Helvetica,sans-Serif" font-size="10.00">/As_Actions.h</text>
</a>
</g>
</g>
<!-- Node1&#45;&gt;Node19 -->
<g id="edge50" class="edge">
<title>Node1&#45;&gt;Node19</title>
<path fill="none" stroke="midnightblue" d="M1034.57,-902.11C1331.42,-882.37 2115.5,-819.93 2115.5,-711 2115.5,-711 2115.5,-711 2115.5,-420 2115.5,-350.49 2057.41,-288.1 2016.33,-252.68"/>
<polygon fill="midnightblue" stroke="midnightblue" points="1033.96,-898.64 1024.21,-902.8 1034.42,-905.63 1033.96,-898.64"/>
</g>
<!-- Node3 -->
<g id="node3" class="node">
<title>Node3</title>
<g id="a_node3"><a xlink:href="../../dc/da4/StaticEvalVisitorTest_8cpp.html" target="_top" xlink:title=" ">
<polygon fill="white" stroke="black" points="8,-678.5 8,-741.5 169,-741.5 169,-678.5 8,-678.5"/>
<text text-anchor="start" x="16" y="-729.5" font-family="Helvetica,sans-Serif" font-size="10.00">/home/nico/projects</text>
<text text-anchor="start" x="16" y="-718.5" font-family="Helvetica,sans-Serif" font-size="10.00">/tmp&#45;joda&#45;dirs/JODA</text>
<text text-anchor="start" x="16" y="-707.5" font-family="Helvetica,sans-Serif" font-size="10.00">&#45;gh/libs/joda/core/modules</text>
<text text-anchor="start" x="16" y="-696.5" font-family="Helvetica,sans-Serif" font-size="10.00">/query/predicate/src/visitors</text>
<text text-anchor="middle" x="88.5" y="-685.5" font-family="Helvetica,sans-Serif" font-size="10.00">/test/StaticEvalVisitorTest.cpp</text>
</a>
</g>
</g>
<!-- Node2&#45;&gt;Node3 -->
<g id="edge2" class="edge">
<title>Node2&#45;&gt;Node3</title>
<path fill="none" stroke="midnightblue" d="M88.5,-768.1C88.5,-759.24 88.5,-750.01 88.5,-741.63"/>
<polygon fill="midnightblue" stroke="midnightblue" points="85,-768.26 88.5,-778.26 92,-768.26 85,-768.26"/>
</g>
<!-- Node12 -->
<g id="node12" class="node">
<title>Node12</title>
<g id="a_node12"><a xlink:href="../../dc/d3d/States_8h.html" target="_top" xlink:title=" ">
<polygon fill="white" stroke="black" points="1181.5,-678.5 1181.5,-741.5 1327.5,-741.5 1327.5,-678.5 1181.5,-678.5"/>
<text text-anchor="start" x="1189.5" y="-729.5" font-family="Helvetica,sans-Serif" font-size="10.00">/home/nico/projects</text>
<text text-anchor="start" x="1189.5" y="-718.5" font-family="Helvetica,sans-Serif" font-size="10.00">/tmp&#45;joda&#45;dirs/JODA</text>
<text text-anchor="start" x="1189.5" y="-707.5" font-family="Helvetica,sans-Serif" font-size="10.00">&#45;gh/libs/joda/core/modules</text>
<text text-anchor="start" x="1189.5" y="-696.5" font-family="Helvetica,sans-Serif" font-size="10.00">/queryparsing/src/states</text>
<text text-anchor="middle" x="1254.5" y="-685.5" font-family="Helvetica,sans-Serif" font-size="10.00">/States.h</text>
</a>
</g>
</g>
<!-- Node11&#45;&gt;Node12 -->
<g id="edge11" class="edge">
<title>Node11&#45;&gt;Node12</title>
<path fill="none" stroke="midnightblue" d="M1425.7,-777.05C1394.05,-764.84 1358.22,-751.02 1327.55,-739.18"/>
<polygon fill="midnightblue" stroke="midnightblue" points="1424.78,-780.45 1435.37,-780.79 1427.3,-773.92 1424.78,-780.45"/>
</g>
<!-- Node13 -->
<g id="node13" class="node">
<title>Node13</title>
<g id="a_node13"><a xlink:href="../../d0/d6c/FunctionWrapper_8h.html" target="_top" xlink:title=" ">
<polygon fill="white" stroke="black" points="1855.5,-589.5 1855.5,-641.5 2049.5,-641.5 2049.5,-589.5 1855.5,-589.5"/>
<text text-anchor="start" x="1863.5" y="-629.5" font-family="Helvetica,sans-Serif" font-size="10.00">/home/nico/projects</text>
<text text-anchor="start" x="1863.5" y="-618.5" font-family="Helvetica,sans-Serif" font-size="10.00">/tmp&#45;joda&#45;dirs/JODA</text>
<text text-anchor="start" x="1863.5" y="-607.5" font-family="Helvetica,sans-Serif" font-size="10.00">&#45;gh/libs/joda/core/modules</text>
<text text-anchor="middle" x="1952.5" y="-596.5" font-family="Helvetica,sans-Serif" font-size="10.00">/queryparsing/src/FunctionWrapper.h</text>
</a>
</g>
</g>
<!-- Node12&#45;&gt;Node13 -->
<g id="edge12" class="edge">
<title>Node12&#45;&gt;Node13</title>
<path fill="none" stroke="midnightblue" d="M1337.69,-702.46C1451.82,-692.82 1663.14,-672.57 1841.5,-642 1846.08,-641.22 1850.75,-640.36 1855.47,-639.45"/>
<polygon fill="midnightblue" stroke="midnightblue" points="1337.3,-698.98 1327.62,-703.31 1337.88,-705.96 1337.3,-698.98"/>
</g>
<!-- Node18 -->
<g id="node18" class="node">
<title>Node18</title>
<g id="a_node18"><a xlink:href="../../d4/daf/Agg__Actions_8h.html" target="_top" xlink:title=" ">
<polygon fill="white" stroke="black" points="1371.5,-189.5 1371.5,-252.5 1517.5,-252.5 1517.5,-189.5 1371.5,-189.5"/>
<text text-anchor="start" x="1379.5" y="-240.5" font-family="Helvetica,sans-Serif" font-size="10.00">/home/nico/projects</text>
<text text-anchor="start" x="1379.5" y="-229.5" font-family="Helvetica,sans-Serif" font-size="10.00">/tmp&#45;joda&#45;dirs/JODA</text>
<text text-anchor="start" x="1379.5" y="-218.5" font-family="Helvetica,sans-Serif" font-size="10.00">&#45;gh/libs/joda/core/modules</text>
<text text-anchor="start" x="1379.5" y="-207.5" font-family="Helvetica,sans-Serif" font-size="10.00">/queryparsing/src/actions</text>
<text text-anchor="middle" x="1444.5" y="-196.5" font-family="Helvetica,sans-Serif" font-size="10.00">/Agg_Actions.h</text>
</a>
</g>
</g>
<!-- Node12&#45;&gt;Node18 -->
<g id="edge44" class="edge">
<title>Node12&#45;&gt;Node18</title>
<path fill="none" stroke="midnightblue" d="M1171.53,-685.66C1097.76,-659.25 1001.5,-608.25 1001.5,-522 1001.5,-522 1001.5,-522 1001.5,-420 1001.5,-403.84 1008.12,-399.39 1020.5,-389 1027.6,-383.04 1251.75,-296.23 1371.2,-250.19"/>
<polygon fill="midnightblue" stroke="midnightblue" points="1170.73,-689.09 1181.32,-689.07 1173.03,-682.48 1170.73,-689.09"/>
</g>
<!-- Node12&#45;&gt;Node19 -->
<g id="edge45" class="edge">
<title>Node12&#45;&gt;Node19</title>
<path fill="none" stroke="midnightblue" d="M1337.8,-708.3C1533.63,-705.77 2010.4,-694.28 2058.5,-642 2161.37,-530.2 2047.56,-329 1997.61,-252.58"/>
<polygon fill="midnightblue" stroke="midnightblue" points="1337.52,-704.8 1327.56,-708.42 1337.61,-711.8 1337.52,-704.8"/>
</g>
<!-- Node20 -->
<g id="node20" class="node">
<title>Node20</title>
<g id="a_node20"><a xlink:href="../../d4/daf/Choose__Actions_8h.html" target="_top" xlink:title=" ">
<polygon fill="white" stroke="black" points="1207.5,-189.5 1207.5,-252.5 1353.5,-252.5 1353.5,-189.5 1207.5,-189.5"/>
<text text-anchor="start" x="1215.5" y="-240.5" font-family="Helvetica,sans-Serif" font-size="10.00">/home/nico/projects</text>
<text text-anchor="start" x="1215.5" y="-229.5" font-family="Helvetica,sans-Serif" font-size="10.00">/tmp&#45;joda&#45;dirs/JODA</text>
<text text-anchor="start" x="1215.5" y="-218.5" font-family="Helvetica,sans-Serif" font-size="10.00">&#45;gh/libs/joda/core/modules</text>
<text text-anchor="start" x="1215.5" y="-207.5" font-family="Helvetica,sans-Serif" font-size="10.00">/queryparsing/src/actions</text>
<text text-anchor="middle" x="1280.5" y="-196.5" font-family="Helvetica,sans-Serif" font-size="10.00">/Choose_Actions.h</text>
</a>
</g>
</g>
<!-- Node12&#45;&gt;Node20 -->
<g id="edge46" class="edge">
<title>Node12&#45;&gt;Node20</title>
<path fill="none" stroke="midnightblue" d="M1171.51,-697.99C1102.85,-687.17 1012.67,-668.43 987.5,-642 949.98,-602.62 963.5,-576.39 963.5,-522 963.5,-522 963.5,-522 963.5,-420 963.5,-360.81 945.39,-330.6 987.5,-289 1055.18,-222.14 1106.69,-277.94 1198.5,-253 1201.44,-252.2 1204.42,-251.34 1207.41,-250.43"/>
<polygon fill="midnightblue" stroke="midnightblue" points="1171.05,-701.46 1181.47,-699.53 1172.12,-694.54 1171.05,-701.46"/>
</g>
<!-- Node21 -->
<g id="node21" class="node">
<title>Node21</title>
<g id="a_node21"><a xlink:href="../../d8/dc3/Delete__Actions_8h.html" target="_top" xlink:title=" ">
<polygon fill="white" stroke="black" points="879.5,-189.5 879.5,-252.5 1025.5,-252.5 1025.5,-189.5 879.5,-189.5"/>
<text text-anchor="start" x="887.5" y="-240.5" font-family="Helvetica,sans-Serif" font-size="10.00">/home/nico/projects</text>
<text text-anchor="start" x="887.5" y="-229.5" font-family="Helvetica,sans-Serif" font-size="10.00">/tmp&#45;joda&#45;dirs/JODA</text>
<text text-anchor="start" x="887.5" y="-218.5" font-family="Helvetica,sans-Serif" font-size="10.00">&#45;gh/libs/joda/core/modules</text>
<text text-anchor="start" x="887.5" y="-207.5" font-family="Helvetica,sans-Serif" font-size="10.00">/queryparsing/src/actions</text>
<text text-anchor="middle" x="952.5" y="-196.5" font-family="Helvetica,sans-Serif" font-size="10.00">/Delete_Actions.h</text>
</a>
</g>
</g>
<!-- Node12&#45;&gt;Node21 -->
<g id="edge47" class="edge">
<title>Node12&#45;&gt;Node21</title>
<path fill="none" stroke="midnightblue" d="M1171.13,-701.85C1085.25,-692.84 959.07,-674.45 923.5,-642 882.36,-604.47 887.5,-577.68 887.5,-522 887.5,-522 887.5,-522 887.5,-420 887.5,-358.13 916.5,-290.57 935.76,-252.53"/>
<polygon fill="midnightblue" stroke="midnightblue" points="1170.83,-705.34 1181.13,-702.88 1171.54,-698.38 1170.83,-705.34"/>
</g>
<!-- Node22 -->
<g id="node22" class="node">
<title>Node22</title>
<g id="a_node22"><a xlink:href="../../df/d48/Load__Actions_8h.html" target="_top" xlink:title=" ">
<polygon fill="white" stroke="black" points="1739.5,-189.5 1739.5,-252.5 1885.5,-252.5 1885.5,-189.5 1739.5,-189.5"/>
<text text-anchor="start" x="1747.5" y="-240.5" font-family="Helvetica,sans-Serif" font-size="10.00">/home/nico/projects</text>
<text text-anchor="start" x="1747.5" y="-229.5" font-family="Helvetica,sans-Serif" font-size="10.00">/tmp&#45;joda&#45;dirs/JODA</text>
<text text-anchor="start" x="1747.5" y="-218.5" font-family="Helvetica,sans-Serif" font-size="10.00">&#45;gh/libs/joda/core/modules</text>
<text text-anchor="start" x="1747.5" y="-207.5" font-family="Helvetica,sans-Serif" font-size="10.00">/queryparsing/src/actions</text>
<text text-anchor="middle" x="1812.5" y="-196.5" font-family="Helvetica,sans-Serif" font-size="10.00">/Load_Actions.h</text>
</a>
</g>
</g>
<!-- Node12&#45;&gt;Node22 -->
<g id="edge48" class="edge">
<title>Node12&#45;&gt;Node22</title>
<path fill="none" stroke="midnightblue" d="M1337.8,-709.26C1496.43,-704.64 1838.86,-668.81 1982.5,-453 2031.68,-379.11 1929.95,-296.13 1863.63,-252.53"/>
<polygon fill="midnightblue" stroke="midnightblue" points="1337.53,-705.77 1327.62,-709.53 1337.71,-712.77 1337.53,-705.77"/>
</g>
<!-- Node23 -->
<g id="node23" class="node">
<title>Node23</title>
<g id="a_node23"><a xlink:href="../../d2/d4b/Store__Actions_8h.html" target="_top" xlink:title=" ">
<polygon fill="white" stroke="black" points="1043.5,-189.5 1043.5,-252.5 1189.5,-252.5 1189.5,-189.5 1043.5,-189.5"/>
<text text-anchor="start" x="1051.5" y="-240.5" font-family="Helvetica,sans-Serif" font-size="10.00">/home/nico/projects</text>
<text text-anchor="start" x="1051.5" y="-229.5" font-family="Helvetica,sans-Serif" font-size="10.00">/tmp&#45;joda&#45;dirs/JODA</text>
<text text-anchor="start" x="1051.5" y="-218.5" font-family="Helvetica,sans-Serif" font-size="10.00">&#45;gh/libs/joda/core/modules</text>
<text text-anchor="start" x="1051.5" y="-207.5" font-family="Helvetica,sans-Serif" font-size="10.00">/queryparsing/src/actions</text>
<text text-anchor="middle" x="1116.5" y="-196.5" font-family="Helvetica,sans-Serif" font-size="10.00">/Store_Actions.h</text>
</a>
</g>
</g>
<!-- Node12&#45;&gt;Node23 -->
<g id="edge49" class="edge">
<title>Node12&#45;&gt;Node23</title>
<path fill="none" stroke="midnightblue" d="M1171.38,-699.78C1094.82,-689.63 988.67,-670.82 958.5,-642 918.5,-603.79 925.5,-577.31 925.5,-522 925.5,-522 925.5,-522 925.5,-420 925.5,-360.17 917.81,-334.63 956.5,-289 959.74,-285.18 1002.8,-267.25 1043.43,-250.89"/>
<polygon fill="midnightblue" stroke="midnightblue" points="1171.13,-703.27 1181.5,-701.09 1172.03,-696.33 1171.13,-703.27"/>
</g>
<!-- Node14 -->
<g id="node14" class="node">
<title>Node14</title>
<g id="a_node14"><a xlink:href="../../d1/d8c/Literals_8h.html" target="_top" xlink:title=" ">
<polygon fill="white" stroke="black" points="1585,-489.5 1585,-552.5 1734,-552.5 1734,-489.5 1585,-489.5"/>
<text text-anchor="start" x="1593" y="-540.5" font-family="Helvetica,sans-Serif" font-size="10.00">/home/nico/projects</text>
<text text-anchor="start" x="1593" y="-529.5" font-family="Helvetica,sans-Serif" font-size="10.00">/tmp&#45;joda&#45;dirs/JODA</text>
<text text-anchor="start" x="1593" y="-518.5" font-family="Helvetica,sans-Serif" font-size="10.00">&#45;gh/libs/joda/core/modules</text>
<text text-anchor="start" x="1593" y="-507.5" font-family="Helvetica,sans-Serif" font-size="10.00">/queryparsing/src/grammar</text>
<text text-anchor="middle" x="1659.5" y="-496.5" font-family="Helvetica,sans-Serif" font-size="10.00">/Literals.h</text>
</a>
</g>
</g>
<!-- Node13&#45;&gt;Node14 -->
<g id="edge13" class="edge">
<title>Node13&#45;&gt;Node14</title>
<path fill="none" stroke="midnightblue" d="M1863.67,-586.46C1822.26,-573.38 1773.53,-558 1734.06,-545.54"/>
<polygon fill="midnightblue" stroke="midnightblue" points="1862.62,-589.8 1873.21,-589.47 1864.73,-583.12 1862.62,-589.8"/>
</g>
<!-- Node17 -->
<g id="node17" class="node">
<title>Node17</title>
<g id="a_node17"><a xlink:href="../../d0/d62/QueryParser_8cpp.html" target="_top" xlink:title=" ">
<polygon fill="white" stroke="black" points="1556.5,-0.5 1556.5,-52.5 1738.5,-52.5 1738.5,-0.5 1556.5,-0.5"/>
<text text-anchor="start" x="1564.5" y="-40.5" font-family="Helvetica,sans-Serif" font-size="10.00">/home/nico/projects</text>
<text text-anchor="start" x="1564.5" y="-29.5" font-family="Helvetica,sans-Serif" font-size="10.00">/tmp&#45;joda&#45;dirs/JODA</text>
<text text-anchor="start" x="1564.5" y="-18.5" font-family="Helvetica,sans-Serif" font-size="10.00">&#45;gh/libs/joda/core/modules</text>
<text text-anchor="middle" x="1647.5" y="-7.5" font-family="Helvetica,sans-Serif" font-size="10.00">/queryparsing/src/QueryParser.cpp</text>
</a>
</g>
</g>
<!-- Node13&#45;&gt;Node17 -->
<g id="edge43" class="edge">
<title>Node13&#45;&gt;Node17</title>
<path fill="none" stroke="midnightblue" d="M1977.58,-580.71C2031,-504.28 2144.37,-315 2058.5,-189 1987.15,-84.31 1836.66,-47.48 1738.93,-34.53"/>
<polygon fill="midnightblue" stroke="midnightblue" points="1974.61,-578.85 1971.69,-589.03 1980.32,-582.9 1974.61,-578.85"/>
</g>
<!-- Node15 -->
<g id="node15" class="node">
<title>Node15</title>
<g id="a_node15"><a xlink:href="../../d4/d03/Grammar_8h.html" target="_top" xlink:title=" ">
<polygon fill="white" stroke="black" points="1444,-289.5 1444,-352.5 1593,-352.5 1593,-289.5 1444,-289.5"/>
<text text-anchor="start" x="1452" y="-340.5" font-family="Helvetica,sans-Serif" font-size="10.00">/home/nico/projects</text>
<text text-anchor="start" x="1452" y="-329.5" font-family="Helvetica,sans-Serif" font-size="10.00">/tmp&#45;joda&#45;dirs/JODA</text>
<text text-anchor="start" x="1452" y="-318.5" font-family="Helvetica,sans-Serif" font-size="10.00">&#45;gh/libs/joda/core/modules</text>
<text text-anchor="start" x="1452" y="-307.5" font-family="Helvetica,sans-Serif" font-size="10.00">/queryparsing/src/grammar</text>
<text text-anchor="middle" x="1518.5" y="-296.5" font-family="Helvetica,sans-Serif" font-size="10.00">/Grammar.h</text>
</a>
</g>
</g>
<!-- Node14&#45;&gt;Node15 -->
<g id="edge14" class="edge">
<title>Node14&#45;&gt;Node15</title>
<path fill="none" stroke="midnightblue" d="M1720.35,-482.81C1729.72,-474.24 1738.07,-464.27 1743.5,-453 1755.84,-427.37 1760.5,-411.8 1743.5,-389 1725.26,-364.53 1651.37,-345.77 1593.17,-334.4"/>
<polygon fill="midnightblue" stroke="midnightblue" points="1717.99,-480.22 1712.66,-489.38 1722.54,-485.54 1717.99,-480.22"/>
</g>
<!-- Node25 -->
<g id="node25" class="node">
<title>Node25</title>
<g id="a_node25"><a xlink:href="../../d7/dd9/Agg_8h.html" target="_top" xlink:title=" ">
<polygon fill="white" stroke="black" points="1030,-395 1030,-447 1209,-447 1209,-395 1030,-395"/>
<text text-anchor="start" x="1038" y="-435" font-family="Helvetica,sans-Serif" font-size="10.00">/home/nico/projects</text>
<text text-anchor="start" x="1038" y="-424" font-family="Helvetica,sans-Serif" font-size="10.00">/tmp&#45;joda&#45;dirs/JODA</text>
<text text-anchor="start" x="1038" y="-413" font-family="Helvetica,sans-Serif" font-size="10.00">&#45;gh/libs/joda/core/modules</text>
<text text-anchor="middle" x="1119.5" y="-402" font-family="Helvetica,sans-Serif" font-size="10.00">/queryparsing/src/grammar/Agg.h</text>
</a>
</g>
</g>
<!-- Node14&#45;&gt;Node25 -->
<g id="edge31" class="edge">
<title>Node14&#45;&gt;Node25</title>
<path fill="none" stroke="midnightblue" d="M1574.83,-511.14C1485.31,-500.85 1340.34,-481.55 1217.5,-453 1210.03,-451.26 1202.3,-449.23 1194.61,-447.06"/>
<polygon fill="midnightblue" stroke="midnightblue" points="1574.59,-514.64 1584.93,-512.29 1575.39,-507.68 1574.59,-514.64"/>
</g>
<!-- Node26 -->
<g id="node26" class="node">
<title>Node26</title>
<g id="a_node26"><a xlink:href="../../d0/d72/As_8h.html" target="_top" xlink:title=" ">
<polygon fill="white" stroke="black" points="1227,-395 1227,-447 1400,-447 1400,-395 1227,-395"/>
<text text-anchor="start" x="1235" y="-435" font-family="Helvetica,sans-Serif" font-size="10.00">/home/nico/projects</text>
<text text-anchor="start" x="1235" y="-424" font-family="Helvetica,sans-Serif" font-size="10.00">/tmp&#45;joda&#45;dirs/JODA</text>
<text text-anchor="start" x="1235" y="-413" font-family="Helvetica,sans-Serif" font-size="10.00">&#45;gh/libs/joda/core/modules</text>
<text text-anchor="middle" x="1313.5" y="-402" font-family="Helvetica,sans-Serif" font-size="10.00">/queryparsing/src/grammar/As.h</text>
</a>
</g>
</g>
<!-- Node14&#45;&gt;Node26 -->
<g id="edge33" class="edge">
<title>Node14&#45;&gt;Node26</title>
<path fill="none" stroke="midnightblue" d="M1575,-498.49C1526.41,-485.84 1464.33,-469.19 1409.5,-453 1403.12,-451.12 1396.51,-449.11 1389.9,-447.05"/>
<polygon fill="midnightblue" stroke="midnightblue" points="1574.28,-501.92 1584.84,-501.04 1576.04,-495.14 1574.28,-501.92"/>
</g>
<!-- Node27 -->
<g id="node27" class="node">
<title>Node27</title>
<g id="a_node27"><a xlink:href="../../da/d78/Delete_8h.html" target="_top" xlink:title=" ">
<polygon fill="white" stroke="black" points="1418,-389.5 1418,-452.5 1567,-452.5 1567,-389.5 1418,-389.5"/>
<text text-anchor="start" x="1426" y="-440.5" font-family="Helvetica,sans-Serif" font-size="10.00">/home/nico/projects</text>
<text text-anchor="start" x="1426" y="-429.5" font-family="Helvetica,sans-Serif" font-size="10.00">/tmp&#45;joda&#45;dirs/JODA</text>
<text text-anchor="start" x="1426" y="-418.5" font-family="Helvetica,sans-Serif" font-size="10.00">&#45;gh/libs/joda/core/modules</text>
<text text-anchor="start" x="1426" y="-407.5" font-family="Helvetica,sans-Serif" font-size="10.00">/queryparsing/src/grammar</text>
<text text-anchor="middle" x="1492.5" y="-396.5" font-family="Helvetica,sans-Serif" font-size="10.00">/Delete.h</text>
</a>
</g>
</g>
<!-- Node14&#45;&gt;Node27 -->
<g id="edge35" class="edge">
<title>Node14&#45;&gt;Node27</title>
<path fill="none" stroke="midnightblue" d="M1598.09,-483.97C1580.56,-473.68 1561.62,-462.56 1544.7,-452.63"/>
<polygon fill="midnightblue" stroke="midnightblue" points="1596.72,-487.22 1607.12,-489.26 1600.27,-481.18 1596.72,-487.22"/>
</g>
<!-- Node28 -->
<g id="node28" class="node">
<title>Node28</title>
<g id="a_node28"><a xlink:href="../../d5/d7d/Load_8h.html" target="_top" xlink:title=" ">
<polygon fill="white" stroke="black" points="1789.5,-395 1789.5,-447 1973.5,-447 1973.5,-395 1789.5,-395"/>
<text text-anchor="start" x="1797.5" y="-435" font-family="Helvetica,sans-Serif" font-size="10.00">/home/nico/projects</text>
<text text-anchor="start" x="1797.5" y="-424" font-family="Helvetica,sans-Serif" font-size="10.00">/tmp&#45;joda&#45;dirs/JODA</text>
<text text-anchor="start" x="1797.5" y="-413" font-family="Helvetica,sans-Serif" font-size="10.00">&#45;gh/libs/joda/core/modules</text>
<text text-anchor="middle" x="1881.5" y="-402" font-family="Helvetica,sans-Serif" font-size="10.00">/queryparsing/src/grammar/Load.h</text>
</a>
</g>
</g>
<!-- Node14&#45;&gt;Node28 -->
<g id="edge37" class="edge">
<title>Node14&#45;&gt;Node28</title>
<path fill="none" stroke="midnightblue" d="M1737.98,-485.36C1766.54,-472.75 1798.26,-458.75 1824.59,-447.12"/>
<polygon fill="midnightblue" stroke="midnightblue" points="1736.56,-482.15 1728.83,-489.4 1739.39,-488.56 1736.56,-482.15"/>
</g>
<!-- Node30 -->
<g id="node30" class="node">
<title>Node30</title>
<g id="a_node30"><a xlink:href="../../db/d1d/Store_8h.html" target="_top" xlink:title=" ">
<polygon fill="white" stroke="black" points="1585,-389.5 1585,-452.5 1734,-452.5 1734,-389.5 1585,-389.5"/>
<text text-anchor="start" x="1593" y="-440.5" font-family="Helvetica,sans-Serif" font-size="10.00">/home/nico/projects</text>
<text text-anchor="start" x="1593" y="-429.5" font-family="Helvetica,sans-Serif" font-size="10.00">/tmp&#45;joda&#45;dirs/JODA</text>
<text text-anchor="start" x="1593" y="-418.5" font-family="Helvetica,sans-Serif" font-size="10.00">&#45;gh/libs/joda/core/modules</text>
<text text-anchor="start" x="1593" y="-407.5" font-family="Helvetica,sans-Serif" font-size="10.00">/queryparsing/src/grammar</text>
<text text-anchor="middle" x="1659.5" y="-396.5" font-family="Helvetica,sans-Serif" font-size="10.00">/Store.h</text>
</a>
</g>
</g>
<!-- Node14&#45;&gt;Node30 -->
<g id="edge41" class="edge">
<title>Node14&#45;&gt;Node30</title>
<path fill="none" stroke="midnightblue" d="M1659.5,-479.1C1659.5,-470.24 1659.5,-461.01 1659.5,-452.63"/>
<polygon fill="midnightblue" stroke="midnightblue" points="1656,-479.26 1659.5,-489.26 1663,-479.26 1656,-479.26"/>
</g>
<!-- Node16 -->
<g id="node16" class="node">
<title>Node16</title>
<g id="a_node16"><a xlink:href="../../de/db3/Actions_8h.html" target="_top" xlink:title=" ">
<polygon fill="white" stroke="black" points="1422.5,-89.5 1422.5,-152.5 1568.5,-152.5 1568.5,-89.5 1422.5,-89.5"/>
<text text-anchor="start" x="1430.5" y="-140.5" font-family="Helvetica,sans-Serif" font-size="10.00">/home/nico/projects</text>
<text text-anchor="start" x="1430.5" y="-129.5" font-family="Helvetica,sans-Serif" font-size="10.00">/tmp&#45;joda&#45;dirs/JODA</text>
<text text-anchor="start" x="1430.5" y="-118.5" font-family="Helvetica,sans-Serif" font-size="10.00">&#45;gh/libs/joda/core/modules</text>
<text text-anchor="start" x="1430.5" y="-107.5" font-family="Helvetica,sans-Serif" font-size="10.00">/queryparsing/src/actions</text>
<text text-anchor="middle" x="1495.5" y="-96.5" font-family="Helvetica,sans-Serif" font-size="10.00">/Actions.h</text>
</a>
</g>
</g>
<!-- Node15&#45;&gt;Node16 -->
<g id="edge15" class="edge">
<title>Node15&#45;&gt;Node16</title>
<path fill="none" stroke="midnightblue" d="M1526.67,-279.53C1530.56,-253.41 1533.07,-218.86 1526.5,-189 1523.77,-176.61 1518.52,-163.78 1513.1,-152.71"/>
<polygon fill="midnightblue" stroke="midnightblue" points="1523.21,-279.02 1525.07,-289.45 1530.12,-280.14 1523.21,-279.02"/>
</g>
<!-- Node15&#45;&gt;Node18 -->
<g id="edge17" class="edge">
<title>Node15&#45;&gt;Node18</title>
<path fill="none" stroke="midnightblue" d="M1489.14,-281.11C1481.99,-271.65 1474.44,-261.65 1467.63,-252.63"/>
<polygon fill="midnightblue" stroke="midnightblue" points="1486.47,-283.39 1495.29,-289.26 1492.06,-279.17 1486.47,-283.39"/>
</g>
<!-- Node15&#45;&gt;Node19 -->
<g id="edge19" class="edge">
<title>Node15&#45;&gt;Node19</title>
<path fill="none" stroke="midnightblue" d="M1603.23,-304.05C1629.58,-299.15 1658.73,-293.79 1685.5,-289 1778.28,-272.4 1803.56,-277.78 1894.5,-253 1897.44,-252.2 1900.42,-251.34 1903.41,-250.42"/>
<polygon fill="midnightblue" stroke="midnightblue" points="1602.47,-300.63 1593.28,-305.9 1603.75,-307.51 1602.47,-300.63"/>
</g>
<!-- Node15&#45;&gt;Node20 -->
<g id="edge21" class="edge">
<title>Node15&#45;&gt;Node20</title>
<path fill="none" stroke="midnightblue" d="M1434.6,-285.45C1408.26,-274.61 1379.4,-262.72 1353.85,-252.2"/>
<polygon fill="midnightblue" stroke="midnightblue" points="1433.59,-288.82 1444.17,-289.4 1436.26,-282.35 1433.59,-288.82"/>
</g>
<!-- Node15&#45;&gt;Node21 -->
<g id="edge23" class="edge">
<title>Node15&#45;&gt;Node21</title>
<path fill="none" stroke="midnightblue" d="M1433.61,-314.03C1336.09,-305.85 1171.85,-288 1034.5,-253 1031.55,-252.25 1028.56,-251.43 1025.56,-250.55"/>
<polygon fill="midnightblue" stroke="midnightblue" points="1433.45,-317.53 1443.71,-314.87 1434.03,-310.56 1433.45,-317.53"/>
</g>
<!-- Node15&#45;&gt;Node22 -->
<g id="edge25" class="edge">
<title>Node15&#45;&gt;Node22</title>
<path fill="none" stroke="midnightblue" d="M1603.13,-294.43C1642.08,-282.36 1688.81,-267.46 1730.5,-253 1733.38,-252 1736.3,-250.97 1739.26,-249.92"/>
<polygon fill="midnightblue" stroke="midnightblue" points="1601.92,-291.14 1593.4,-297.44 1603.98,-297.83 1601.92,-291.14"/>
</g>
<!-- Node15&#45;&gt;Node23 -->
<g id="edge27" class="edge">
<title>Node15&#45;&gt;Node23</title>
<path fill="none" stroke="midnightblue" d="M1433.78,-305.96C1368.76,-294.3 1277.12,-275.94 1198.5,-253 1195.58,-252.15 1192.61,-251.24 1189.63,-250.29"/>
<polygon fill="midnightblue" stroke="midnightblue" points="1433.52,-309.47 1443.98,-307.78 1434.75,-302.58 1433.52,-309.47"/>
</g>
<!-- Node24 -->
<g id="node24" class="node">
<title>Node24</title>
<g id="a_node24"><a xlink:href="../../d4/d6a/Control_8h.html" target="_top" xlink:title=" ">
<polygon fill="white" stroke="black" points="1573.5,-195 1573.5,-247 1721.5,-247 1721.5,-195 1573.5,-195"/>
<text text-anchor="start" x="1581.5" y="-235" font-family="Helvetica,sans-Serif" font-size="10.00">/home/nico/projects</text>
<text text-anchor="start" x="1581.5" y="-224" font-family="Helvetica,sans-Serif" font-size="10.00">/tmp&#45;joda&#45;dirs/JODA</text>
<text text-anchor="start" x="1581.5" y="-213" font-family="Helvetica,sans-Serif" font-size="10.00">&#45;gh/libs/joda/core/modules</text>
<text text-anchor="middle" x="1647.5" y="-202" font-family="Helvetica,sans-Serif" font-size="10.00">/queryparsing/src/Control.h</text>
</a>
</g>
</g>
<!-- Node15&#45;&gt;Node24 -->
<g id="edge29" class="edge">
<title>Node15&#45;&gt;Node24</title>
<path fill="none" stroke="midnightblue" d="M1567.09,-283.08C1582.92,-271.06 1600.11,-258 1614.52,-247.05"/>
<polygon fill="midnightblue" stroke="midnightblue" points="1564.81,-280.42 1558.96,-289.26 1569.04,-286 1564.81,-280.42"/>
</g>
<!-- Node16&#45;&gt;Node17 -->
<g id="edge16" class="edge">
<title>Node16&#45;&gt;Node17</title>
<path fill="none" stroke="midnightblue" d="M1554.55,-84.07C1571.73,-73.61 1590.13,-62.42 1605.98,-52.77"/>
<polygon fill="midnightblue" stroke="midnightblue" points="1552.41,-81.27 1545.69,-89.46 1556.05,-87.25 1552.41,-81.27"/>
</g>
<!-- Node18&#45;&gt;Node16 -->
<g id="edge18" class="edge">
<title>Node18&#45;&gt;Node16</title>
<path fill="none" stroke="midnightblue" d="M1465.19,-180.25C1469.98,-171.04 1475.01,-161.38 1479.56,-152.63"/>
<polygon fill="midnightblue" stroke="midnightblue" points="1462.01,-178.77 1460.5,-189.26 1468.22,-182.01 1462.01,-178.77"/>
</g>
<!-- Node19&#45;&gt;Node16 -->
<g id="edge20" class="edge">
<title>Node19&#45;&gt;Node16</title>
<path fill="none" stroke="midnightblue" d="M1893.49,-188.91C1775.54,-157.78 1647.4,-139.46 1568.86,-129.96"/>
<polygon fill="midnightblue" stroke="midnightblue" points="1892.85,-192.36 1903.42,-191.56 1894.66,-185.6 1892.85,-192.36"/>
</g>
<!-- Node20&#45;&gt;Node16 -->
<g id="edge22" class="edge">
<title>Node20&#45;&gt;Node16</title>
<path fill="none" stroke="midnightblue" d="M1356.83,-185.21C1380.23,-174.54 1405.78,-162.9 1428.5,-152.54"/>
<polygon fill="midnightblue" stroke="midnightblue" points="1355.29,-182.06 1347.64,-189.4 1358.19,-188.43 1355.29,-182.06"/>
</g>
<!-- Node21&#45;&gt;Node16 -->
<g id="edge24" class="edge">
<title>Node21&#45;&gt;Node16</title>
<path fill="none" stroke="midnightblue" d="M1035.25,-189C1176.21,-153.43 1332.58,-135.78 1422.27,-127.7"/>
<polygon fill="midnightblue" stroke="midnightblue" points="1034.38,-185.61 1025.56,-191.48 1036.12,-192.39 1034.38,-185.61"/>
</g>
<!-- Node22&#45;&gt;Node16 -->
<g id="edge26" class="edge">
<title>Node22&#45;&gt;Node16</title>
<path fill="none" stroke="midnightblue" d="M1729.79,-188.84C1670.63,-169.48 1613,-153.17 1568.76,-141.19"/>
<polygon fill="midnightblue" stroke="midnightblue" points="1728.7,-192.17 1739.29,-191.98 1730.89,-185.52 1728.7,-192.17"/>
</g>
<!-- Node23&#45;&gt;Node16 -->
<g id="edge28" class="edge">
<title>Node23&#45;&gt;Node16</title>
<path fill="none" stroke="midnightblue" d="M1199.52,-188.83C1280.64,-164.92 1364.24,-146.97 1422.45,-135.52"/>
<polygon fill="midnightblue" stroke="midnightblue" points="1198.23,-185.56 1189.64,-191.77 1200.23,-192.27 1198.23,-185.56"/>
</g>
<!-- Node24&#45;&gt;Node17 -->
<g id="edge30" class="edge">
<title>Node24&#45;&gt;Node17</title>
<path fill="none" stroke="midnightblue" d="M1647.5,-184.67C1647.5,-146.42 1647.5,-86.4 1647.5,-52.67"/>
<polygon fill="midnightblue" stroke="midnightblue" points="1644,-184.83 1647.5,-194.83 1651,-184.83 1644,-184.83"/>
</g>
<!-- Node25&#45;&gt;Node15 -->
<g id="edge32" class="edge">
<title>Node25&#45;&gt;Node15</title>
<path fill="none" stroke="midnightblue" d="M1206.02,-392.18C1209.89,-391.08 1213.73,-390.01 1217.5,-389 1294.01,-368.42 1382.66,-349.25 1443.84,-336.73"/>
<polygon fill="midnightblue" stroke="midnightblue" points="1204.97,-388.84 1196.35,-394.99 1206.93,-395.56 1204.97,-388.84"/>
</g>
<!-- Node26&#45;&gt;Node15 -->
<g id="edge34" class="edge">
<title>Node26&#45;&gt;Node15</title>
<path fill="none" stroke="midnightblue" d="M1375.07,-390.57C1400.12,-378.59 1429.09,-364.74 1454.4,-352.64"/>
<polygon fill="midnightblue" stroke="midnightblue" points="1373.54,-387.42 1366.03,-394.89 1376.56,-393.73 1373.54,-387.42"/>
</g>
<!-- Node27&#45;&gt;Node15 -->
<g id="edge36" class="edge">
<title>Node27&#45;&gt;Node15</title>
<path fill="none" stroke="midnightblue" d="M1503.27,-379.39C1505.65,-370.44 1508.13,-361.11 1510.37,-352.63"/>
<polygon fill="midnightblue" stroke="midnightblue" points="1499.84,-378.7 1500.66,-389.26 1506.6,-380.49 1499.84,-378.7"/>
</g>
<!-- Node28&#45;&gt;Node15 -->
<g id="edge38" class="edge">
<title>Node28&#45;&gt;Node15</title>
<path fill="none" stroke="midnightblue" d="M1787.05,-392.23C1783.15,-391.13 1779.29,-390.05 1775.5,-389 1714.28,-372.07 1644.53,-353.96 1593.16,-340.84"/>
<polygon fill="midnightblue" stroke="midnightblue" points="1786.23,-395.63 1796.8,-394.99 1788.14,-388.89 1786.23,-395.63"/>
</g>
<!-- Node29 -->
<g id="node29" class="node">
<title>Node29</title>
<g id="a_node29"><a xlink:href="../../df/d7e/LOAD__error_8h.html" target="_top" xlink:title=" ">
<polygon fill="white" stroke="black" points="1694,-289.5 1694,-352.5 1851,-352.5 1851,-289.5 1694,-289.5"/>
<text text-anchor="start" x="1702" y="-340.5" font-family="Helvetica,sans-Serif" font-size="10.00">/home/nico/projects</text>
<text text-anchor="start" x="1702" y="-329.5" font-family="Helvetica,sans-Serif" font-size="10.00">/tmp&#45;joda&#45;dirs/JODA</text>
<text text-anchor="start" x="1702" y="-318.5" font-family="Helvetica,sans-Serif" font-size="10.00">&#45;gh/libs/joda/core/modules</text>
<text text-anchor="start" x="1702" y="-307.5" font-family="Helvetica,sans-Serif" font-size="10.00">/queryparsing/src/error/LOAD</text>
<text text-anchor="middle" x="1772.5" y="-296.5" font-family="Helvetica,sans-Serif" font-size="10.00">_error.h</text>
</a>
</g>
</g>
<!-- Node28&#45;&gt;Node29 -->
<g id="edge39" class="edge">
<title>Node28&#45;&gt;Node29</title>
<path fill="none" stroke="midnightblue" d="M1845.83,-387.93C1833.25,-376.62 1819.15,-363.94 1806.7,-352.75"/>
<polygon fill="midnightblue" stroke="midnightblue" points="1843.65,-390.68 1853.43,-394.76 1848.33,-385.47 1843.65,-390.68"/>
</g>
<!-- Node29&#45;&gt;Node24 -->
<g id="edge40" class="edge">
<title>Node29&#45;&gt;Node24</title>
<path fill="none" stroke="midnightblue" d="M1725.41,-283.08C1710.08,-271.06 1693.42,-258 1679.46,-247.05"/>
<polygon fill="midnightblue" stroke="midnightblue" points="1723.26,-285.85 1733.29,-289.26 1727.58,-280.34 1723.26,-285.85"/>
</g>
<!-- Node30&#45;&gt;Node15 -->
<g id="edge42" class="edge">
<title>Node30&#45;&gt;Node15</title>
<path fill="none" stroke="midnightblue" d="M1606.84,-383.4C1592.26,-373.27 1576.6,-362.38 1562.57,-352.63"/>
<polygon fill="midnightblue" stroke="midnightblue" points="1605.06,-386.43 1615.27,-389.26 1609.06,-380.68 1605.06,-386.43"/>
</g>
</g>
</svg>
