<?xml version="1.0" encoding="UTF-8" standalone="no"?>
<!DOCTYPE svg PUBLIC "-//W3C//DTD SVG 1.1//EN"
 "http://www.w3.org/Graphics/SVG/1.1/DTD/svg11.dtd">
<!-- Generated by graphviz version 2.43.0 (0)
 -->
<!-- Title: /home/nico/joda_tmp/tmp&#45;joda&#45;dirs/JODA&#45;gh/libs/joda/core/modules/query/predicate/include/joda/query/predicate/ValToPredicate.h Pages: 1 -->
<svg width="1689pt" height="950pt"
 viewBox="0.00 0.00 1688.50 950.00" xmlns="http://www.w3.org/2000/svg" xmlns:xlink="http://www.w3.org/1999/xlink">
<g id="graph0" class="graph" transform="scale(1 1) rotate(0) translate(4 946)">
<title>/home/nico/joda_tmp/tmp&#45;joda&#45;dirs/JODA&#45;gh/libs/joda/core/modules/query/predicate/include/joda/query/predicate/ValToPredicate.h</title>
<polygon fill="white" stroke="transparent" points="-4,4 -4,-946 1684.5,-946 1684.5,4 -4,4"/>
<!-- Node1 -->
<g id="node1" class="node">
<title>Node1</title>
<g id="a_node1"><a xlink:title=" ">
<polygon fill="#bfbfbf" stroke="black" points="821,-878.5 821,-941.5 1024,-941.5 1024,-878.5 821,-878.5"/>
<text text-anchor="start" x="829" y="-929.5" font-family="Helvetica,sans-Serif" font-size="10.00">/home/nico/joda_tmp</text>
<text text-anchor="start" x="829" y="-918.5" font-family="Helvetica,sans-Serif" font-size="10.00">/tmp&#45;joda&#45;dirs/JODA</text>
<text text-anchor="start" x="829" y="-907.5" font-family="Helvetica,sans-Serif" font-size="10.00">&#45;gh/libs/joda/core/modules</text>
<text text-anchor="start" x="829" y="-896.5" font-family="Helvetica,sans-Serif" font-size="10.00">/query/predicate/include</text>
<text text-anchor="middle" x="922.5" y="-885.5" font-family="Helvetica,sans-Serif" font-size="10.00">/joda/query/predicate/ValToPredicate.h</text>
</a>
</g>
</g>
<!-- Node2 -->
<g id="node2" class="node">
<title>Node2</title>
<g id="a_node2"><a xlink:href="../../df/d93/PredFWD_8h.html" target="_top" xlink:title=" ">
<polygon fill="white" stroke="black" points="0,-778.5 0,-841.5 177,-841.5 177,-778.5 0,-778.5"/>
<text text-anchor="start" x="8" y="-829.5" font-family="Helvetica,sans-Serif" font-size="10.00">/home/nico/joda_tmp</text>
<text text-anchor="start" x="8" y="-818.5" font-family="Helvetica,sans-Serif" font-size="10.00">/tmp&#45;joda&#45;dirs/JODA</text>
<text text-anchor="start" x="8" y="-807.5" font-family="Helvetica,sans-Serif" font-size="10.00">&#45;gh/libs/joda/core/modules</text>
<text text-anchor="start" x="8" y="-796.5" font-family="Helvetica,sans-Serif" font-size="10.00">/query/predicate/include</text>
<text text-anchor="middle" x="88.5" y="-785.5" font-family="Helvetica,sans-Serif" font-size="10.00">/joda/query/predicate/PredFWD.h</text>
</a>
</g>
</g>
<!-- Node1&#45;&gt;Node2 -->
<g id="edge1" class="edge">
<title>Node1&#45;&gt;Node2</title>
<path fill="none" stroke="midnightblue" d="M810.66,-906.3C665.47,-901.09 404.84,-885.94 186.5,-842 183.44,-841.38 180.34,-840.71 177.22,-839.98"/>
<polygon fill="midnightblue" stroke="midnightblue" points="810.8,-909.81 820.91,-906.66 811.04,-902.81 810.8,-909.81"/>
</g>
<!-- Node4 -->
<g id="node4" class="node">
<title>Node4</title>
<g id="a_node4"><a xlink:href="../../d7/d1f/ValToPredicate_8cpp.html" target="_top" xlink:title=" ">
<polygon fill="white" stroke="black" points="195.5,-784 195.5,-836 403.5,-836 403.5,-784 195.5,-784"/>
<text text-anchor="start" x="203.5" y="-824" font-family="Helvetica,sans-Serif" font-size="10.00">/home/nico/joda_tmp</text>
<text text-anchor="start" x="203.5" y="-813" font-family="Helvetica,sans-Serif" font-size="10.00">/tmp&#45;joda&#45;dirs/JODA</text>
<text text-anchor="start" x="203.5" y="-802" font-family="Helvetica,sans-Serif" font-size="10.00">&#45;gh/libs/joda/core/modules</text>
<text text-anchor="middle" x="299.5" y="-791" font-family="Helvetica,sans-Serif" font-size="10.00">/query/predicate/src/ValToPredicate.cpp</text>
</a>
</g>
</g>
<!-- Node1&#45;&gt;Node4 -->
<g id="edge3" class="edge">
<title>Node1&#45;&gt;Node4</title>
<path fill="none" stroke="midnightblue" d="M810.52,-898.75C706.7,-888.19 548.26,-869.4 412.5,-842 403.93,-840.27 395.04,-838.25 386.2,-836.08"/>
<polygon fill="midnightblue" stroke="midnightblue" points="810.4,-902.26 820.7,-899.78 811.11,-895.29 810.4,-902.26"/>
</g>
<!-- Node5 -->
<g id="node5" class="node">
<title>Node5</title>
<g id="a_node5"><a xlink:href="../../d8/d59/AttributeVisitor_8cpp.html" target="_top" xlink:title=" ">
<polygon fill="white" stroke="black" points="421.5,-778.5 421.5,-841.5 573.5,-841.5 573.5,-778.5 421.5,-778.5"/>
<text text-anchor="start" x="429.5" y="-829.5" font-family="Helvetica,sans-Serif" font-size="10.00">/home/nico/joda_tmp</text>
<text text-anchor="start" x="429.5" y="-818.5" font-family="Helvetica,sans-Serif" font-size="10.00">/tmp&#45;joda&#45;dirs/JODA</text>
<text text-anchor="start" x="429.5" y="-807.5" font-family="Helvetica,sans-Serif" font-size="10.00">&#45;gh/libs/joda/core/modules</text>
<text text-anchor="start" x="429.5" y="-796.5" font-family="Helvetica,sans-Serif" font-size="10.00">/query/predicate/src/visitors</text>
<text text-anchor="middle" x="497.5" y="-785.5" font-family="Helvetica,sans-Serif" font-size="10.00">/AttributeVisitor.cpp</text>
</a>
</g>
</g>
<!-- Node1&#45;&gt;Node5 -->
<g id="edge4" class="edge">
<title>Node1&#45;&gt;Node5</title>
<path fill="none" stroke="midnightblue" d="M810.61,-891.46C743.8,-879.87 657.6,-862.96 582.5,-842 579.63,-841.2 576.71,-840.34 573.77,-839.45"/>
<polygon fill="midnightblue" stroke="midnightblue" points="810.29,-894.95 820.74,-893.2 811.48,-888.05 810.29,-894.95"/>
</g>
<!-- Node6 -->
<g id="node6" class="node">
<title>Node6</title>
<g id="a_node6"><a xlink:href="../../dc/dc6/BloomAttributeVisitor_8cpp.html" target="_top" xlink:title=" ">
<polygon fill="white" stroke="black" points="591.5,-778.5 591.5,-841.5 743.5,-841.5 743.5,-778.5 591.5,-778.5"/>
<text text-anchor="start" x="599.5" y="-829.5" font-family="Helvetica,sans-Serif" font-size="10.00">/home/nico/joda_tmp</text>
<text text-anchor="start" x="599.5" y="-818.5" font-family="Helvetica,sans-Serif" font-size="10.00">/tmp&#45;joda&#45;dirs/JODA</text>
<text text-anchor="start" x="599.5" y="-807.5" font-family="Helvetica,sans-Serif" font-size="10.00">&#45;gh/libs/joda/core/modules</text>
<text text-anchor="start" x="599.5" y="-796.5" font-family="Helvetica,sans-Serif" font-size="10.00">/query/predicate/src/visitors</text>
<text text-anchor="middle" x="667.5" y="-785.5" font-family="Helvetica,sans-Serif" font-size="10.00">/BloomAttributeVisitor.cpp</text>
</a>
</g>
</g>
<!-- Node1&#45;&gt;Node6 -->
<g id="edge5" class="edge">
<title>Node1&#45;&gt;Node6</title>
<path fill="none" stroke="midnightblue" d="M833.5,-874.79C804.29,-863.57 772.11,-851.2 743.92,-840.37"/>
<polygon fill="midnightblue" stroke="midnightblue" points="832.28,-878.07 842.87,-878.4 834.79,-871.54 832.28,-878.07"/>
</g>
<!-- Node7 -->
<g id="node7" class="node">
<title>Node7</title>
<g id="a_node7"><a xlink:href="../../d4/ddd/CopyPredicateVisitor_8cpp.html" target="_top" xlink:title=" ">
<polygon fill="white" stroke="black" points="761.5,-778.5 761.5,-841.5 913.5,-841.5 913.5,-778.5 761.5,-778.5"/>
<text text-anchor="start" x="769.5" y="-829.5" font-family="Helvetica,sans-Serif" font-size="10.00">/home/nico/joda_tmp</text>
<text text-anchor="start" x="769.5" y="-818.5" font-family="Helvetica,sans-Serif" font-size="10.00">/tmp&#45;joda&#45;dirs/JODA</text>
<text text-anchor="start" x="769.5" y="-807.5" font-family="Helvetica,sans-Serif" font-size="10.00">&#45;gh/libs/joda/core/modules</text>
<text text-anchor="start" x="769.5" y="-796.5" font-family="Helvetica,sans-Serif" font-size="10.00">/query/predicate/src/visitors</text>
<text text-anchor="middle" x="837.5" y="-785.5" font-family="Helvetica,sans-Serif" font-size="10.00">/CopyPredicateVisitor.cpp</text>
</a>
</g>
</g>
<!-- Node1&#45;&gt;Node7 -->
<g id="edge6" class="edge">
<title>Node1&#45;&gt;Node7</title>
<path fill="none" stroke="midnightblue" d="M889.27,-870.69C880.91,-861.05 872.05,-850.83 864.07,-841.63"/>
<polygon fill="midnightblue" stroke="midnightblue" points="886.64,-873 895.84,-878.26 891.93,-868.41 886.64,-873"/>
</g>
<!-- Node8 -->
<g id="node8" class="node">
<title>Node8</title>
<g id="a_node8"><a xlink:href="../../d7/dcb/StaticEvalVisitor_8cpp.html" target="_top" xlink:title=" ">
<polygon fill="white" stroke="black" points="931.5,-778.5 931.5,-841.5 1083.5,-841.5 1083.5,-778.5 931.5,-778.5"/>
<text text-anchor="start" x="939.5" y="-829.5" font-family="Helvetica,sans-Serif" font-size="10.00">/home/nico/joda_tmp</text>
<text text-anchor="start" x="939.5" y="-818.5" font-family="Helvetica,sans-Serif" font-size="10.00">/tmp&#45;joda&#45;dirs/JODA</text>
<text text-anchor="start" x="939.5" y="-807.5" font-family="Helvetica,sans-Serif" font-size="10.00">&#45;gh/libs/joda/core/modules</text>
<text text-anchor="start" x="939.5" y="-796.5" font-family="Helvetica,sans-Serif" font-size="10.00">/query/predicate/src/visitors</text>
<text text-anchor="middle" x="1007.5" y="-785.5" font-family="Helvetica,sans-Serif" font-size="10.00">/StaticEvalVisitor.cpp</text>
</a>
</g>
</g>
<!-- Node1&#45;&gt;Node8 -->
<g id="edge7" class="edge">
<title>Node1&#45;&gt;Node8</title>
<path fill="none" stroke="midnightblue" d="M955.73,-870.69C964.09,-861.05 972.95,-850.83 980.93,-841.63"/>
<polygon fill="midnightblue" stroke="midnightblue" points="953.07,-868.41 949.16,-878.26 958.36,-873 953.07,-868.41"/>
</g>
<!-- Node9 -->
<g id="node9" class="node">
<title>Node9</title>
<g id="a_node9"><a xlink:href="../../d2/d8c/ToStringVisitor_8cpp.html" target="_top" xlink:title=" ">
<polygon fill="white" stroke="black" points="1101.5,-778.5 1101.5,-841.5 1253.5,-841.5 1253.5,-778.5 1101.5,-778.5"/>
<text text-anchor="start" x="1109.5" y="-829.5" font-family="Helvetica,sans-Serif" font-size="10.00">/home/nico/joda_tmp</text>
<text text-anchor="start" x="1109.5" y="-818.5" font-family="Helvetica,sans-Serif" font-size="10.00">/tmp&#45;joda&#45;dirs/JODA</text>
<text text-anchor="start" x="1109.5" y="-807.5" font-family="Helvetica,sans-Serif" font-size="10.00">&#45;gh/libs/joda/core/modules</text>
<text text-anchor="start" x="1109.5" y="-796.5" font-family="Helvetica,sans-Serif" font-size="10.00">/query/predicate/src/visitors</text>
<text text-anchor="middle" x="1177.5" y="-785.5" font-family="Helvetica,sans-Serif" font-size="10.00">/ToStringVisitor.cpp</text>
</a>
</g>
</g>
<!-- Node1&#45;&gt;Node9 -->
<g id="edge8" class="edge">
<title>Node1&#45;&gt;Node9</title>
<path fill="none" stroke="midnightblue" d="M1011.5,-874.79C1040.71,-863.57 1072.89,-851.2 1101.08,-840.37"/>
<polygon fill="midnightblue" stroke="midnightblue" points="1010.21,-871.54 1002.13,-878.4 1012.72,-878.07 1010.21,-871.54"/>
</g>
<!-- Node10 -->
<g id="node10" class="node">
<title>Node10</title>
<g id="a_node10"><a xlink:href="../../de/d9f/Query_8cpp.html" target="_top" xlink:title=" ">
<polygon fill="white" stroke="black" points="1271.5,-784 1271.5,-836 1417.5,-836 1417.5,-784 1271.5,-784"/>
<text text-anchor="start" x="1279.5" y="-824" font-family="Helvetica,sans-Serif" font-size="10.00">/home/nico/joda_tmp</text>
<text text-anchor="start" x="1279.5" y="-813" font-family="Helvetica,sans-Serif" font-size="10.00">/tmp&#45;joda&#45;dirs/JODA</text>
<text text-anchor="start" x="1279.5" y="-802" font-family="Helvetica,sans-Serif" font-size="10.00">&#45;gh/libs/joda/core/modules</text>
<text text-anchor="middle" x="1344.5" y="-791" font-family="Helvetica,sans-Serif" font-size="10.00">/query/src/Query.cpp</text>
</a>
</g>
</g>
<!-- Node1&#45;&gt;Node10 -->
<g id="edge9" class="edge">
<title>Node1&#45;&gt;Node10</title>
<path fill="none" stroke="midnightblue" d="M1034.48,-891.78C1101.33,-880.3 1187.52,-863.4 1262.5,-842 1268.65,-840.25 1274.98,-838.23 1281.28,-836.09"/>
<polygon fill="midnightblue" stroke="midnightblue" points="1033.62,-888.37 1024.34,-893.5 1034.79,-895.27 1033.62,-888.37"/>
</g>
<!-- Node11 -->
<g id="node11" class="node">
<title>Node11</title>
<g id="a_node11"><a xlink:href="../../d0/d2e/As__Actions_8h.html" target="_top" xlink:title=" ">
<polygon fill="white" stroke="black" points="1534.5,-189.5 1534.5,-252.5 1680.5,-252.5 1680.5,-189.5 1534.5,-189.5"/>
<text text-anchor="start" x="1542.5" y="-240.5" font-family="Helvetica,sans-Serif" font-size="10.00">/home/nico/joda_tmp</text>
<text text-anchor="start" x="1542.5" y="-229.5" font-family="Helvetica,sans-Serif" font-size="10.00">/tmp&#45;joda&#45;dirs/JODA</text>
<text text-anchor="start" x="1542.5" y="-218.5" font-family="Helvetica,sans-Serif" font-size="10.00">&#45;gh/libs/joda/core/modules</text>
<text text-anchor="start" x="1542.5" y="-207.5" font-family="Helvetica,sans-Serif" font-size="10.00">/queryparsing/src/actions</text>
<text text-anchor="middle" x="1607.5" y="-196.5" font-family="Helvetica,sans-Serif" font-size="10.00">/As_Actions.h</text>
</a>
</g>
</g>
<!-- Node1&#45;&gt;Node11 -->
<g id="edge10" class="edge">
<title>Node1&#45;&gt;Node11</title>
<path fill="none" stroke="midnightblue" d="M1034.42,-904.34C1213.33,-895.93 1548.05,-875.87 1590.5,-842 1638.51,-803.7 1634.5,-772.42 1634.5,-711 1634.5,-711 1634.5,-711 1634.5,-420 1634.5,-360.33 1622.31,-291.46 1614.31,-252.69"/>
<polygon fill="midnightblue" stroke="midnightblue" points="1034,-900.86 1024.18,-904.82 1034.33,-907.85 1034,-900.86"/>
</g>
<!-- Node14 -->
<g id="node14" class="node">
<title>Node14</title>
<g id="a_node14"><a xlink:href="../../df/d8a/Choose__State_8h.html" target="_top" xlink:title=" ">
<polygon fill="white" stroke="black" points="1435.5,-778.5 1435.5,-841.5 1581.5,-841.5 1581.5,-778.5 1435.5,-778.5"/>
<text text-anchor="start" x="1443.5" y="-829.5" font-family="Helvetica,sans-Serif" font-size="10.00">/home/nico/joda_tmp</text>
<text text-anchor="start" x="1443.5" y="-818.5" font-family="Helvetica,sans-Serif" font-size="10.00">/tmp&#45;joda&#45;dirs/JODA</text>
<text text-anchor="start" x="1443.5" y="-807.5" font-family="Helvetica,sans-Serif" font-size="10.00">&#45;gh/libs/joda/core/modules</text>
<text text-anchor="start" x="1443.5" y="-796.5" font-family="Helvetica,sans-Serif" font-size="10.00">/queryparsing/src/states</text>
<text text-anchor="middle" x="1508.5" y="-785.5" font-family="Helvetica,sans-Serif" font-size="10.00">/Choose_State.h</text>
</a>
</g>
</g>
<!-- Node1&#45;&gt;Node14 -->
<g id="edge13" class="edge">
<title>Node1&#45;&gt;Node14</title>
<path fill="none" stroke="midnightblue" d="M1034.31,-901.52C1137.37,-892.9 1293.96,-875.39 1426.5,-842 1429.45,-841.26 1432.44,-840.44 1435.45,-839.57"/>
<polygon fill="midnightblue" stroke="midnightblue" points="1033.87,-898.05 1024.19,-902.36 1034.45,-905.03 1033.87,-898.05"/>
</g>
<!-- Node3 -->
<g id="node3" class="node">
<title>Node3</title>
<g id="a_node3"><a xlink:href="../../dc/da4/StaticEvalVisitorTest_8cpp.html" target="_top" xlink:title=" ">
<polygon fill="white" stroke="black" points="8,-678.5 8,-741.5 169,-741.5 169,-678.5 8,-678.5"/>
<text text-anchor="start" x="16" y="-729.5" font-family="Helvetica,sans-Serif" font-size="10.00">/home/nico/joda_tmp</text>
<text text-anchor="start" x="16" y="-718.5" font-family="Helvetica,sans-Serif" font-size="10.00">/tmp&#45;joda&#45;dirs/JODA</text>
<text text-anchor="start" x="16" y="-707.5" font-family="Helvetica,sans-Serif" font-size="10.00">&#45;gh/libs/joda/core/modules</text>
<text text-anchor="start" x="16" y="-696.5" font-family="Helvetica,sans-Serif" font-size="10.00">/query/predicate/src/visitors</text>
<text text-anchor="middle" x="88.5" y="-685.5" font-family="Helvetica,sans-Serif" font-size="10.00">/test/StaticEvalVisitorTest.cpp</text>
</a>
</g>
</g>
<!-- Node2&#45;&gt;Node3 -->
<g id="edge2" class="edge">
<title>Node2&#45;&gt;Node3</title>
<path fill="none" stroke="midnightblue" d="M88.5,-768.1C88.5,-759.24 88.5,-750.01 88.5,-741.63"/>
<polygon fill="midnightblue" stroke="midnightblue" points="85,-768.26 88.5,-778.26 92,-768.26 85,-768.26"/>
</g>
<!-- Node12 -->
<g id="node12" class="node">
<title>Node12</title>
<g id="a_node12"><a xlink:href="../../de/db3/Actions_8h.html" target="_top" xlink:title=" ">
<polygon fill="white" stroke="black" points="991.5,-89.5 991.5,-152.5 1137.5,-152.5 1137.5,-89.5 991.5,-89.5"/>
<text text-anchor="start" x="999.5" y="-140.5" font-family="Helvetica,sans-Serif" font-size="10.00">/home/nico/joda_tmp</text>
<text text-anchor="start" x="999.5" y="-129.5" font-family="Helvetica,sans-Serif" font-size="10.00">/tmp&#45;joda&#45;dirs/JODA</text>
<text text-anchor="start" x="999.5" y="-118.5" font-family="Helvetica,sans-Serif" font-size="10.00">&#45;gh/libs/joda/core/modules</text>
<text text-anchor="start" x="999.5" y="-107.5" font-family="Helvetica,sans-Serif" font-size="10.00">/queryparsing/src/actions</text>
<text text-anchor="middle" x="1064.5" y="-96.5" font-family="Helvetica,sans-Serif" font-size="10.00">/Actions.h</text>
</a>
</g>
</g>
<!-- Node11&#45;&gt;Node12 -->
<g id="edge11" class="edge">
<title>Node11&#45;&gt;Node12</title>
<path fill="none" stroke="midnightblue" d="M1524.75,-189C1383.79,-153.43 1227.42,-135.78 1137.73,-127.7"/>
<polygon fill="midnightblue" stroke="midnightblue" points="1523.88,-192.39 1534.44,-191.48 1525.62,-185.61 1523.88,-192.39"/>
</g>
<!-- Node13 -->
<g id="node13" class="node">
<title>Node13</title>
<g id="a_node13"><a xlink:href="../../d0/d62/QueryParser_8cpp.html" target="_top" xlink:title=" ">
<polygon fill="white" stroke="black" points="657.5,-0.5 657.5,-52.5 839.5,-52.5 839.5,-0.5 657.5,-0.5"/>
<text text-anchor="start" x="665.5" y="-40.5" font-family="Helvetica,sans-Serif" font-size="10.00">/home/nico/joda_tmp</text>
<text text-anchor="start" x="665.5" y="-29.5" font-family="Helvetica,sans-Serif" font-size="10.00">/tmp&#45;joda&#45;dirs/JODA</text>
<text text-anchor="start" x="665.5" y="-18.5" font-family="Helvetica,sans-Serif" font-size="10.00">&#45;gh/libs/joda/core/modules</text>
<text text-anchor="middle" x="748.5" y="-7.5" font-family="Helvetica,sans-Serif" font-size="10.00">/queryparsing/src/QueryParser.cpp</text>
</a>
</g>
</g>
<!-- Node12&#45;&gt;Node13 -->
<g id="edge12" class="edge">
<title>Node12&#45;&gt;Node13</title>
<path fill="none" stroke="midnightblue" d="M981.39,-95.67C935.96,-82.37 879.79,-65.93 833.99,-52.52"/>
<polygon fill="midnightblue" stroke="midnightblue" points="980.63,-99.1 991.21,-98.55 982.59,-92.38 980.63,-99.1"/>
</g>
<!-- Node15 -->
<g id="node15" class="node">
<title>Node15</title>
<g id="a_node15"><a xlink:href="../../dc/d3d/States_8h.html" target="_top" xlink:title=" ">
<polygon fill="white" stroke="black" points="1422.5,-678.5 1422.5,-741.5 1568.5,-741.5 1568.5,-678.5 1422.5,-678.5"/>
<text text-anchor="start" x="1430.5" y="-729.5" font-family="Helvetica,sans-Serif" font-size="10.00">/home/nico/joda_tmp</text>
<text text-anchor="start" x="1430.5" y="-718.5" font-family="Helvetica,sans-Serif" font-size="10.00">/tmp&#45;joda&#45;dirs/JODA</text>
<text text-anchor="start" x="1430.5" y="-707.5" font-family="Helvetica,sans-Serif" font-size="10.00">&#45;gh/libs/joda/core/modules</text>
<text text-anchor="start" x="1430.5" y="-696.5" font-family="Helvetica,sans-Serif" font-size="10.00">/queryparsing/src/states</text>
<text text-anchor="middle" x="1495.5" y="-685.5" font-family="Helvetica,sans-Serif" font-size="10.00">/States.h</text>
</a>
</g>
</g>
<!-- Node14&#45;&gt;Node15 -->
<g id="edge14" class="edge">
<title>Node14&#45;&gt;Node15</title>
<path fill="none" stroke="midnightblue" d="M1503.07,-768.1C1501.9,-759.24 1500.68,-750.01 1499.56,-741.63"/>
<polygon fill="midnightblue" stroke="midnightblue" points="1499.64,-768.81 1504.42,-778.26 1506.58,-767.89 1499.64,-768.81"/>
</g>
<!-- Node15&#45;&gt;Node11 -->
<g id="edge17" class="edge">
<title>Node15&#45;&gt;Node11</title>
<path fill="none" stroke="midnightblue" d="M1535.15,-670.88C1542.98,-661.94 1550.59,-652.08 1556.5,-642 1584.93,-593.5 1596.5,-578.22 1596.5,-522 1596.5,-522 1596.5,-522 1596.5,-420 1596.5,-360.78 1601.47,-291.76 1604.72,-252.84"/>
<polygon fill="midnightblue" stroke="midnightblue" points="1532.39,-668.71 1528.25,-678.47 1537.57,-673.42 1532.39,-668.71"/>
</g>
<!-- Node16 -->
<g id="node16" class="node">
<title>Node16</title>
<g id="a_node16"><a xlink:href="../../d4/daf/Agg__Actions_8h.html" target="_top" xlink:title=" ">
<polygon fill="white" stroke="black" points="840.5,-189.5 840.5,-252.5 986.5,-252.5 986.5,-189.5 840.5,-189.5"/>
<text text-anchor="start" x="848.5" y="-240.5" font-family="Helvetica,sans-Serif" font-size="10.00">/home/nico/joda_tmp</text>
<text text-anchor="start" x="848.5" y="-229.5" font-family="Helvetica,sans-Serif" font-size="10.00">/tmp&#45;joda&#45;dirs/JODA</text>
<text text-anchor="start" x="848.5" y="-218.5" font-family="Helvetica,sans-Serif" font-size="10.00">&#45;gh/libs/joda/core/modules</text>
<text text-anchor="start" x="848.5" y="-207.5" font-family="Helvetica,sans-Serif" font-size="10.00">/queryparsing/src/actions</text>
<text text-anchor="middle" x="913.5" y="-196.5" font-family="Helvetica,sans-Serif" font-size="10.00">/Agg_Actions.h</text>
</a>
</g>
</g>
<!-- Node15&#45;&gt;Node16 -->
<g id="edge15" class="edge">
<title>Node15&#45;&gt;Node16</title>
<path fill="none" stroke="midnightblue" d="M1412.35,-704.36C1286.11,-696.46 1038.84,-677.7 831.5,-642 654.03,-611.45 444.5,-702.08 444.5,-522 444.5,-522 444.5,-522 444.5,-420 444.5,-232.67 650.18,-300.07 831.5,-253 834.45,-252.24 837.43,-251.4 840.43,-250.51"/>
<polygon fill="midnightblue" stroke="midnightblue" points="1412.14,-707.85 1422.34,-704.97 1412.58,-700.86 1412.14,-707.85"/>
</g>
<!-- Node17 -->
<g id="node17" class="node">
<title>Node17</title>
<g id="a_node17"><a xlink:href="../../d4/daf/Choose__Actions_8h.html" target="_top" xlink:title=" ">
<polygon fill="white" stroke="black" points="1042.5,-189.5 1042.5,-252.5 1188.5,-252.5 1188.5,-189.5 1042.5,-189.5"/>
<text text-anchor="start" x="1050.5" y="-240.5" font-family="Helvetica,sans-Serif" font-size="10.00">/home/nico/joda_tmp</text>
<text text-anchor="start" x="1050.5" y="-229.5" font-family="Helvetica,sans-Serif" font-size="10.00">/tmp&#45;joda&#45;dirs/JODA</text>
<text text-anchor="start" x="1050.5" y="-218.5" font-family="Helvetica,sans-Serif" font-size="10.00">&#45;gh/libs/joda/core/modules</text>
<text text-anchor="start" x="1050.5" y="-207.5" font-family="Helvetica,sans-Serif" font-size="10.00">/queryparsing/src/actions</text>
<text text-anchor="middle" x="1115.5" y="-196.5" font-family="Helvetica,sans-Serif" font-size="10.00">/Choose_Actions.h</text>
</a>
</g>
</g>
<!-- Node15&#45;&gt;Node17 -->
<g id="edge18" class="edge">
<title>Node15&#45;&gt;Node17</title>
<path fill="none" stroke="midnightblue" d="M1491.02,-668.15C1487.26,-630.31 1482.5,-572.42 1482.5,-522 1482.5,-522 1482.5,-522 1482.5,-420 1482.5,-404.07 1476.21,-399.81 1464.5,-389 1421.87,-349.64 1277.85,-287.36 1188.69,-251.01"/>
<polygon fill="midnightblue" stroke="midnightblue" points="1487.56,-668.68 1492.05,-678.27 1494.52,-667.97 1487.56,-668.68"/>
</g>
<!-- Node18 -->
<g id="node18" class="node">
<title>Node18</title>
<g id="a_node18"><a xlink:href="../../d8/dc3/Delete__Actions_8h.html" target="_top" xlink:title=" ">
<polygon fill="white" stroke="black" points="1206.5,-189.5 1206.5,-252.5 1352.5,-252.5 1352.5,-189.5 1206.5,-189.5"/>
<text text-anchor="start" x="1214.5" y="-240.5" font-family="Helvetica,sans-Serif" font-size="10.00">/home/nico/joda_tmp</text>
<text text-anchor="start" x="1214.5" y="-229.5" font-family="Helvetica,sans-Serif" font-size="10.00">/tmp&#45;joda&#45;dirs/JODA</text>
<text text-anchor="start" x="1214.5" y="-218.5" font-family="Helvetica,sans-Serif" font-size="10.00">&#45;gh/libs/joda/core/modules</text>
<text text-anchor="start" x="1214.5" y="-207.5" font-family="Helvetica,sans-Serif" font-size="10.00">/queryparsing/src/actions</text>
<text text-anchor="middle" x="1279.5" y="-196.5" font-family="Helvetica,sans-Serif" font-size="10.00">/Delete_Actions.h</text>
</a>
</g>
</g>
<!-- Node15&#45;&gt;Node18 -->
<g id="edge20" class="edge">
<title>Node15&#45;&gt;Node18</title>
<path fill="none" stroke="midnightblue" d="M1504.11,-668.3C1511.34,-630.56 1520.5,-572.75 1520.5,-522 1520.5,-522 1520.5,-522 1520.5,-420 1520.5,-360.81 1536.66,-332.48 1496.5,-289 1454.37,-243.38 1420.62,-272 1361.5,-253 1358.6,-252.07 1355.66,-251.09 1352.69,-250.09"/>
<polygon fill="midnightblue" stroke="midnightblue" points="1500.62,-667.91 1502.13,-678.39 1507.49,-669.25 1500.62,-667.91"/>
</g>
<!-- Node19 -->
<g id="node19" class="node">
<title>Node19</title>
<g id="a_node19"><a xlink:href="../../df/d48/Load__Actions_8h.html" target="_top" xlink:title=" ">
<polygon fill="white" stroke="black" points="1370.5,-189.5 1370.5,-252.5 1516.5,-252.5 1516.5,-189.5 1370.5,-189.5"/>
<text text-anchor="start" x="1378.5" y="-240.5" font-family="Helvetica,sans-Serif" font-size="10.00">/home/nico/joda_tmp</text>
<text text-anchor="start" x="1378.5" y="-229.5" font-family="Helvetica,sans-Serif" font-size="10.00">/tmp&#45;joda&#45;dirs/JODA</text>
<text text-anchor="start" x="1378.5" y="-218.5" font-family="Helvetica,sans-Serif" font-size="10.00">&#45;gh/libs/joda/core/modules</text>
<text text-anchor="start" x="1378.5" y="-207.5" font-family="Helvetica,sans-Serif" font-size="10.00">/queryparsing/src/actions</text>
<text text-anchor="middle" x="1443.5" y="-196.5" font-family="Helvetica,sans-Serif" font-size="10.00">/Load_Actions.h</text>
</a>
</g>
</g>
<!-- Node15&#45;&gt;Node19 -->
<g id="edge22" class="edge">
<title>Node15&#45;&gt;Node19</title>
<path fill="none" stroke="midnightblue" d="M1521.36,-669.49C1526.29,-660.71 1531,-651.25 1534.5,-642 1553.78,-591.14 1558.5,-576.39 1558.5,-522 1558.5,-522 1558.5,-522 1558.5,-420 1558.5,-360.81 1565.87,-339.19 1534.5,-289 1525.66,-274.86 1512.66,-262.72 1499.23,-252.82"/>
<polygon fill="midnightblue" stroke="midnightblue" points="1518.2,-667.97 1516.19,-678.37 1524.25,-671.49 1518.2,-667.97"/>
</g>
<!-- Node20 -->
<g id="node20" class="node">
<title>Node20</title>
<g id="a_node20"><a xlink:href="../../d2/d4b/Store__Actions_8h.html" target="_top" xlink:title=" ">
<polygon fill="white" stroke="black" points="510.5,-189.5 510.5,-252.5 656.5,-252.5 656.5,-189.5 510.5,-189.5"/>
<text text-anchor="start" x="518.5" y="-240.5" font-family="Helvetica,sans-Serif" font-size="10.00">/home/nico/joda_tmp</text>
<text text-anchor="start" x="518.5" y="-229.5" font-family="Helvetica,sans-Serif" font-size="10.00">/tmp&#45;joda&#45;dirs/JODA</text>
<text text-anchor="start" x="518.5" y="-218.5" font-family="Helvetica,sans-Serif" font-size="10.00">&#45;gh/libs/joda/core/modules</text>
<text text-anchor="start" x="518.5" y="-207.5" font-family="Helvetica,sans-Serif" font-size="10.00">/queryparsing/src/actions</text>
<text text-anchor="middle" x="583.5" y="-196.5" font-family="Helvetica,sans-Serif" font-size="10.00">/Store_Actions.h</text>
</a>
</g>
</g>
<!-- Node15&#45;&gt;Node20 -->
<g id="edge24" class="edge">
<title>Node15&#45;&gt;Node20</title>
<path fill="none" stroke="midnightblue" d="M1412.36,-708.61C1179.62,-706.85 533.5,-696.99 456.5,-642 409.48,-608.42 406.5,-579.78 406.5,-522 406.5,-522 406.5,-522 406.5,-420 406.5,-357.84 414.36,-335.6 455.5,-289 470.36,-272.17 490.47,-258.92 510.35,-248.8"/>
<polygon fill="midnightblue" stroke="midnightblue" points="1412.44,-712.12 1422.47,-708.69 1412.49,-705.12 1412.44,-712.12"/>
</g>
<!-- Node21 -->
<g id="node21" class="node">
<title>Node21</title>
<g id="a_node21"><a xlink:href="../../d0/d6c/FunctionWrapper_8h.html" target="_top" xlink:title=" ">
<polygon fill="white" stroke="black" points="840.5,-589.5 840.5,-641.5 1034.5,-641.5 1034.5,-589.5 840.5,-589.5"/>
<text text-anchor="start" x="848.5" y="-629.5" font-family="Helvetica,sans-Serif" font-size="10.00">/home/nico/joda_tmp</text>
<text text-anchor="start" x="848.5" y="-618.5" font-family="Helvetica,sans-Serif" font-size="10.00">/tmp&#45;joda&#45;dirs/JODA</text>
<text text-anchor="start" x="848.5" y="-607.5" font-family="Helvetica,sans-Serif" font-size="10.00">&#45;gh/libs/joda/core/modules</text>
<text text-anchor="middle" x="937.5" y="-596.5" font-family="Helvetica,sans-Serif" font-size="10.00">/queryparsing/src/FunctionWrapper.h</text>
</a>
</g>
</g>
<!-- Node15&#45;&gt;Node21 -->
<g id="edge26" class="edge">
<title>Node15&#45;&gt;Node21</title>
<path fill="none" stroke="midnightblue" d="M1412.11,-695.18C1311.19,-678.45 1141.53,-650.32 1034.75,-632.62"/>
<polygon fill="midnightblue" stroke="midnightblue" points="1411.83,-698.68 1422.26,-696.86 1412.97,-691.77 1411.83,-698.68"/>
</g>
<!-- Node16&#45;&gt;Node12 -->
<g id="edge16" class="edge">
<title>Node16&#45;&gt;Node12</title>
<path fill="none" stroke="midnightblue" d="M969.46,-183.68C985.19,-173.47 1002.14,-162.47 1017.31,-152.63"/>
<polygon fill="midnightblue" stroke="midnightblue" points="967.35,-180.88 960.86,-189.26 971.16,-186.75 967.35,-180.88"/>
</g>
<!-- Node17&#45;&gt;Node12 -->
<g id="edge19" class="edge">
<title>Node17&#45;&gt;Node12</title>
<path fill="none" stroke="midnightblue" d="M1094.81,-180.25C1090.02,-171.04 1084.99,-161.38 1080.44,-152.63"/>
<polygon fill="midnightblue" stroke="midnightblue" points="1091.78,-182.01 1099.5,-189.26 1097.99,-178.77 1091.78,-182.01"/>
</g>
<!-- Node18&#45;&gt;Node12 -->
<g id="edge21" class="edge">
<title>Node18&#45;&gt;Node12</title>
<path fill="none" stroke="midnightblue" d="M1203.17,-185.21C1179.77,-174.54 1154.22,-162.9 1131.5,-152.54"/>
<polygon fill="midnightblue" stroke="midnightblue" points="1201.81,-188.43 1212.36,-189.4 1204.71,-182.06 1201.81,-188.43"/>
</g>
<!-- Node19&#45;&gt;Node12 -->
<g id="edge23" class="edge">
<title>Node19&#45;&gt;Node12</title>
<path fill="none" stroke="midnightblue" d="M1360.48,-188.83C1279.36,-164.92 1195.76,-146.97 1137.55,-135.52"/>
<polygon fill="midnightblue" stroke="midnightblue" points="1359.77,-192.27 1370.36,-191.77 1361.77,-185.56 1359.77,-192.27"/>
</g>
<!-- Node20&#45;&gt;Node12 -->
<g id="edge25" class="edge">
<title>Node20&#45;&gt;Node12</title>
<path fill="none" stroke="midnightblue" d="M666.51,-188.91C784.46,-157.78 912.6,-139.46 991.14,-129.96"/>
<polygon fill="midnightblue" stroke="midnightblue" points="665.34,-185.6 656.58,-191.56 667.15,-192.36 665.34,-185.6"/>
</g>
<!-- Node21&#45;&gt;Node13 -->
<g id="edge50" class="edge">
<title>Node21&#45;&gt;Node13</title>
<path fill="none" stroke="midnightblue" d="M830.5,-591.62C696,-559.71 482.5,-497.21 482.5,-422 482.5,-422 482.5,-422 482.5,-220 482.5,-131.5 580.33,-79.54 657.33,-52.36"/>
<polygon fill="midnightblue" stroke="midnightblue" points="829.91,-595.07 840.45,-593.96 831.52,-588.26 829.91,-595.07"/>
</g>
<!-- Node22 -->
<g id="node22" class="node">
<title>Node22</title>
<g id="a_node22"><a xlink:href="../../d1/d8c/Literals_8h.html" target="_top" xlink:title=" ">
<polygon fill="white" stroke="black" points="863,-489.5 863,-552.5 1012,-552.5 1012,-489.5 863,-489.5"/>
<text text-anchor="start" x="871" y="-540.5" font-family="Helvetica,sans-Serif" font-size="10.00">/home/nico/joda_tmp</text>
<text text-anchor="start" x="871" y="-529.5" font-family="Helvetica,sans-Serif" font-size="10.00">/tmp&#45;joda&#45;dirs/JODA</text>
<text text-anchor="start" x="871" y="-518.5" font-family="Helvetica,sans-Serif" font-size="10.00">&#45;gh/libs/joda/core/modules</text>
<text text-anchor="start" x="871" y="-507.5" font-family="Helvetica,sans-Serif" font-size="10.00">/queryparsing/src/grammar</text>
<text text-anchor="middle" x="937.5" y="-496.5" font-family="Helvetica,sans-Serif" font-size="10.00">/Literals.h</text>
</a>
</g>
</g>
<!-- Node21&#45;&gt;Node22 -->
<g id="edge27" class="edge">
<title>Node21&#45;&gt;Node22</title>
<path fill="none" stroke="midnightblue" d="M937.5,-578.94C937.5,-570.23 937.5,-560.97 937.5,-552.51"/>
<polygon fill="midnightblue" stroke="midnightblue" points="934,-579.22 937.5,-589.22 941,-579.22 934,-579.22"/>
</g>
<!-- Node23 -->
<g id="node23" class="node">
<title>Node23</title>
<g id="a_node23"><a xlink:href="../../d7/dd9/Agg_8h.html" target="_top" xlink:title=" ">
<polygon fill="white" stroke="black" points="751,-395 751,-447 930,-447 930,-395 751,-395"/>
<text text-anchor="start" x="759" y="-435" font-family="Helvetica,sans-Serif" font-size="10.00">/home/nico/joda_tmp</text>
<text text-anchor="start" x="759" y="-424" font-family="Helvetica,sans-Serif" font-size="10.00">/tmp&#45;joda&#45;dirs/JODA</text>
<text text-anchor="start" x="759" y="-413" font-family="Helvetica,sans-Serif" font-size="10.00">&#45;gh/libs/joda/core/modules</text>
<text text-anchor="middle" x="840.5" y="-402" font-family="Helvetica,sans-Serif" font-size="10.00">/queryparsing/src/grammar/Agg.h</text>
</a>
</g>
</g>
<!-- Node22&#45;&gt;Node23 -->
<g id="edge28" class="edge">
<title>Node22&#45;&gt;Node23</title>
<path fill="none" stroke="midnightblue" d="M899.98,-482.09C888.35,-470.34 875.83,-457.7 865.3,-447.05"/>
<polygon fill="midnightblue" stroke="midnightblue" points="897.55,-484.62 907.07,-489.26 902.53,-479.69 897.55,-484.62"/>
</g>
<!-- Node24 -->
<g id="node24" class="node">
<title>Node24</title>
<g id="a_node24"><a xlink:href="../../d4/d03/Grammar_8h.html" target="_top" xlink:title=" ">
<polygon fill="white" stroke="black" points="950,-289.5 950,-352.5 1099,-352.5 1099,-289.5 950,-289.5"/>
<text text-anchor="start" x="958" y="-340.5" font-family="Helvetica,sans-Serif" font-size="10.00">/home/nico/joda_tmp</text>
<text text-anchor="start" x="958" y="-329.5" font-family="Helvetica,sans-Serif" font-size="10.00">/tmp&#45;joda&#45;dirs/JODA</text>
<text text-anchor="start" x="958" y="-318.5" font-family="Helvetica,sans-Serif" font-size="10.00">&#45;gh/libs/joda/core/modules</text>
<text text-anchor="start" x="958" y="-307.5" font-family="Helvetica,sans-Serif" font-size="10.00">/queryparsing/src/grammar</text>
<text text-anchor="middle" x="1024.5" y="-296.5" font-family="Helvetica,sans-Serif" font-size="10.00">/Grammar.h</text>
</a>
</g>
</g>
<!-- Node22&#45;&gt;Node24 -->
<g id="edge43" class="edge">
<title>Node22&#45;&gt;Node24</title>
<path fill="none" stroke="midnightblue" d="M852.6,-513.29C811.99,-505.31 766.81,-488.4 741.5,-453 724.96,-429.86 723.86,-411.31 741.5,-389 767.03,-356.72 874.78,-338.39 949.7,-329.32"/>
<polygon fill="midnightblue" stroke="midnightblue" points="852.08,-516.75 862.54,-515.09 853.32,-509.86 852.08,-516.75"/>
</g>
<!-- Node26 -->
<g id="node26" class="node">
<title>Node26</title>
<g id="a_node26"><a xlink:href="../../d0/d72/As_8h.html" target="_top" xlink:title=" ">
<polygon fill="white" stroke="black" points="948,-395 948,-447 1121,-447 1121,-395 948,-395"/>
<text text-anchor="start" x="956" y="-435" font-family="Helvetica,sans-Serif" font-size="10.00">/home/nico/joda_tmp</text>
<text text-anchor="start" x="956" y="-424" font-family="Helvetica,sans-Serif" font-size="10.00">/tmp&#45;joda&#45;dirs/JODA</text>
<text text-anchor="start" x="956" y="-413" font-family="Helvetica,sans-Serif" font-size="10.00">&#45;gh/libs/joda/core/modules</text>
<text text-anchor="middle" x="1034.5" y="-402" font-family="Helvetica,sans-Serif" font-size="10.00">/queryparsing/src/grammar/As.h</text>
</a>
</g>
</g>
<!-- Node22&#45;&gt;Node26 -->
<g id="edge39" class="edge">
<title>Node22&#45;&gt;Node26</title>
<path fill="none" stroke="midnightblue" d="M975.02,-482.09C986.65,-470.34 999.17,-457.7 1009.7,-447.05"/>
<polygon fill="midnightblue" stroke="midnightblue" points="972.47,-479.69 967.93,-489.26 977.45,-484.62 972.47,-479.69"/>
</g>
<!-- Node27 -->
<g id="node27" class="node">
<title>Node27</title>
<g id="a_node27"><a xlink:href="../../da/d78/Delete_8h.html" target="_top" xlink:title=" ">
<polygon fill="white" stroke="black" points="1139,-389.5 1139,-452.5 1288,-452.5 1288,-389.5 1139,-389.5"/>
<text text-anchor="start" x="1147" y="-440.5" font-family="Helvetica,sans-Serif" font-size="10.00">/home/nico/joda_tmp</text>
<text text-anchor="start" x="1147" y="-429.5" font-family="Helvetica,sans-Serif" font-size="10.00">/tmp&#45;joda&#45;dirs/JODA</text>
<text text-anchor="start" x="1147" y="-418.5" font-family="Helvetica,sans-Serif" font-size="10.00">&#45;gh/libs/joda/core/modules</text>
<text text-anchor="start" x="1147" y="-407.5" font-family="Helvetica,sans-Serif" font-size="10.00">/queryparsing/src/grammar</text>
<text text-anchor="middle" x="1213.5" y="-396.5" font-family="Helvetica,sans-Serif" font-size="10.00">/Delete.h</text>
</a>
</g>
</g>
<!-- Node22&#45;&gt;Node27 -->
<g id="edge41" class="edge">
<title>Node22&#45;&gt;Node27</title>
<path fill="none" stroke="midnightblue" d="M1022.17,-491.08C1055.94,-479.43 1095.12,-465.75 1130.5,-453 1133.25,-452.01 1136.05,-451 1138.87,-449.97"/>
<polygon fill="midnightblue" stroke="midnightblue" points="1020.65,-487.91 1012.34,-494.47 1022.93,-494.52 1020.65,-487.91"/>
</g>
<!-- Node28 -->
<g id="node28" class="node">
<title>Node28</title>
<g id="a_node28"><a xlink:href="../../d5/d7d/Load_8h.html" target="_top" xlink:title=" ">
<polygon fill="white" stroke="black" points="510.5,-395 510.5,-447 694.5,-447 694.5,-395 510.5,-395"/>
<text text-anchor="start" x="518.5" y="-435" font-family="Helvetica,sans-Serif" font-size="10.00">/home/nico/joda_tmp</text>
<text text-anchor="start" x="518.5" y="-424" font-family="Helvetica,sans-Serif" font-size="10.00">/tmp&#45;joda&#45;dirs/JODA</text>
<text text-anchor="start" x="518.5" y="-413" font-family="Helvetica,sans-Serif" font-size="10.00">&#45;gh/libs/joda/core/modules</text>
<text text-anchor="middle" x="602.5" y="-402" font-family="Helvetica,sans-Serif" font-size="10.00">/queryparsing/src/grammar/Load.h</text>
</a>
</g>
</g>
<!-- Node22&#45;&gt;Node28 -->
<g id="edge44" class="edge">
<title>Node22&#45;&gt;Node28</title>
<path fill="none" stroke="midnightblue" d="M852.83,-495.23C802.39,-480.47 738.55,-461.8 687.96,-447"/>
<polygon fill="midnightblue" stroke="midnightblue" points="852.16,-498.68 862.74,-498.13 854.12,-491.96 852.16,-498.68"/>
</g>
<!-- Node30 -->
<g id="node30" class="node">
<title>Node30</title>
<g id="a_node30"><a xlink:href="../../db/d1d/Store_8h.html" target="_top" xlink:title=" ">
<polygon fill="white" stroke="black" points="1306,-389.5 1306,-452.5 1455,-452.5 1455,-389.5 1306,-389.5"/>
<text text-anchor="start" x="1314" y="-440.5" font-family="Helvetica,sans-Serif" font-size="10.00">/home/nico/joda_tmp</text>
<text text-anchor="start" x="1314" y="-429.5" font-family="Helvetica,sans-Serif" font-size="10.00">/tmp&#45;joda&#45;dirs/JODA</text>
<text text-anchor="start" x="1314" y="-418.5" font-family="Helvetica,sans-Serif" font-size="10.00">&#45;gh/libs/joda/core/modules</text>
<text text-anchor="start" x="1314" y="-407.5" font-family="Helvetica,sans-Serif" font-size="10.00">/queryparsing/src/grammar</text>
<text text-anchor="middle" x="1380.5" y="-396.5" font-family="Helvetica,sans-Serif" font-size="10.00">/Store.h</text>
</a>
</g>
</g>
<!-- Node22&#45;&gt;Node30 -->
<g id="edge48" class="edge">
<title>Node22&#45;&gt;Node30</title>
<path fill="none" stroke="midnightblue" d="M1022.27,-508.47C1095.83,-497.46 1204.77,-478.74 1297.5,-453 1300.17,-452.26 1302.87,-451.47 1305.59,-450.64"/>
<polygon fill="midnightblue" stroke="midnightblue" points="1021.51,-505.05 1012.13,-509.97 1022.54,-511.97 1021.51,-505.05"/>
</g>
<!-- Node23&#45;&gt;Node24 -->
<g id="edge29" class="edge">
<title>Node23&#45;&gt;Node24</title>
<path fill="none" stroke="midnightblue" d="M896.89,-389.97C919.16,-378.1 944.73,-364.49 967.1,-352.57"/>
<polygon fill="midnightblue" stroke="midnightblue" points="895.07,-386.97 887.88,-394.76 898.36,-393.15 895.07,-386.97"/>
</g>
<!-- Node24&#45;&gt;Node11 -->
<g id="edge32" class="edge">
<title>Node24&#45;&gt;Node11</title>
<path fill="none" stroke="midnightblue" d="M1109.46,-314.58C1210.02,-306.8 1381.95,-289.22 1525.5,-253 1528.45,-252.26 1531.44,-251.44 1534.45,-250.56"/>
<polygon fill="midnightblue" stroke="midnightblue" points="1109.06,-311.1 1099.36,-315.34 1109.59,-318.08 1109.06,-311.1"/>
</g>
<!-- Node24&#45;&gt;Node12 -->
<g id="edge30" class="edge">
<title>Node24&#45;&gt;Node12</title>
<path fill="none" stroke="midnightblue" d="M1023.52,-279.02C1023.82,-252.89 1025.94,-218.5 1033.5,-189 1036.65,-176.71 1042,-163.9 1047.38,-152.82"/>
<polygon fill="midnightblue" stroke="midnightblue" points="1020.02,-279.31 1023.49,-289.32 1027.02,-279.33 1020.02,-279.31"/>
</g>
<!-- Node24&#45;&gt;Node16 -->
<g id="edge31" class="edge">
<title>Node24&#45;&gt;Node16</title>
<path fill="none" stroke="midnightblue" d="M982.08,-282.54C970.88,-272.66 958.93,-262.11 948.19,-252.63"/>
<polygon fill="midnightblue" stroke="midnightblue" points="979.87,-285.27 989.68,-289.26 984.5,-280.02 979.87,-285.27"/>
</g>
<!-- Node24&#45;&gt;Node17 -->
<g id="edge33" class="edge">
<title>Node24&#45;&gt;Node17</title>
<path fill="none" stroke="midnightblue" d="M1060.08,-281.69C1069.02,-272.05 1078.51,-261.83 1087.06,-252.63"/>
<polygon fill="midnightblue" stroke="midnightblue" points="1057.28,-279.55 1053.04,-289.26 1062.41,-284.31 1057.28,-279.55"/>
</g>
<!-- Node24&#45;&gt;Node18 -->
<g id="edge34" class="edge">
<title>Node24&#45;&gt;Node18</title>
<path fill="none" stroke="midnightblue" d="M1108.94,-287.55C1140.49,-275.42 1176.03,-261.76 1206.47,-250.06"/>
<polygon fill="midnightblue" stroke="midnightblue" points="1107.36,-284.4 1099.29,-291.26 1109.88,-290.94 1107.36,-284.4"/>
</g>
<!-- Node24&#45;&gt;Node19 -->
<g id="edge35" class="edge">
<title>Node24&#45;&gt;Node19</title>
<path fill="none" stroke="midnightblue" d="M1109.21,-307.15C1177.93,-295.77 1276.91,-277.22 1361.5,-253 1364.43,-252.16 1367.4,-251.27 1370.38,-250.33"/>
<polygon fill="midnightblue" stroke="midnightblue" points="1108.6,-303.7 1099.3,-308.77 1109.74,-310.61 1108.6,-303.7"/>
</g>
<!-- Node24&#45;&gt;Node20 -->
<g id="edge36" class="edge">
<title>Node24&#45;&gt;Node20</title>
<path fill="none" stroke="midnightblue" d="M939.59,-308.49C866.23,-297.52 757.78,-278.83 665.5,-253 662.57,-252.18 659.6,-251.3 656.6,-250.37"/>
<polygon fill="midnightblue" stroke="midnightblue" points="939.3,-311.98 949.71,-309.99 940.33,-305.06 939.3,-311.98"/>
</g>
<!-- Node25 -->
<g id="node25" class="node">
<title>Node25</title>
<g id="a_node25"><a xlink:href="../../d4/d6a/Control_8h.html" target="_top" xlink:title=" ">
<polygon fill="white" stroke="black" points="674.5,-195 674.5,-247 822.5,-247 822.5,-195 674.5,-195"/>
<text text-anchor="start" x="682.5" y="-235" font-family="Helvetica,sans-Serif" font-size="10.00">/home/nico/joda_tmp</text>
<text text-anchor="start" x="682.5" y="-224" font-family="Helvetica,sans-Serif" font-size="10.00">/tmp&#45;joda&#45;dirs/JODA</text>
<text text-anchor="start" x="682.5" y="-213" font-family="Helvetica,sans-Serif" font-size="10.00">&#45;gh/libs/joda/core/modules</text>
<text text-anchor="middle" x="748.5" y="-202" font-family="Helvetica,sans-Serif" font-size="10.00">/queryparsing/src/Control.h</text>
</a>
</g>
</g>
<!-- Node24&#45;&gt;Node25 -->
<g id="edge37" class="edge">
<title>Node24&#45;&gt;Node25</title>
<path fill="none" stroke="midnightblue" d="M939.83,-291.08C906.06,-279.43 866.88,-265.75 831.5,-253 826.15,-251.07 820.61,-249.05 815.04,-247.01"/>
<polygon fill="midnightblue" stroke="midnightblue" points="939.07,-294.52 949.66,-294.47 941.35,-287.91 939.07,-294.52"/>
</g>
<!-- Node25&#45;&gt;Node13 -->
<g id="edge38" class="edge">
<title>Node25&#45;&gt;Node13</title>
<path fill="none" stroke="midnightblue" d="M748.5,-184.67C748.5,-146.42 748.5,-86.4 748.5,-52.67"/>
<polygon fill="midnightblue" stroke="midnightblue" points="745,-184.83 748.5,-194.83 752,-184.83 745,-184.83"/>
</g>
<!-- Node26&#45;&gt;Node24 -->
<g id="edge40" class="edge">
<title>Node26&#45;&gt;Node24</title>
<path fill="none" stroke="midnightblue" d="M1030.9,-384.69C1029.83,-374.24 1028.67,-362.89 1027.64,-352.75"/>
<polygon fill="midnightblue" stroke="midnightblue" points="1027.43,-385.17 1031.92,-394.76 1034.39,-384.46 1027.43,-385.17"/>
</g>
<!-- Node27&#45;&gt;Node24 -->
<g id="edge42" class="edge">
<title>Node27&#45;&gt;Node24</title>
<path fill="none" stroke="midnightblue" d="M1145.58,-384.78C1125.24,-374.23 1103.11,-362.76 1083.4,-352.54"/>
<polygon fill="midnightblue" stroke="midnightblue" points="1143.99,-387.9 1154.48,-389.4 1147.21,-381.68 1143.99,-387.9"/>
</g>
<!-- Node28&#45;&gt;Node24 -->
<g id="edge47" class="edge">
<title>Node28&#45;&gt;Node24</title>
<path fill="none" stroke="midnightblue" d="M695.91,-392.26C700.16,-391.13 704.37,-390.04 708.5,-389 790.48,-368.35 885.49,-348.79 949.75,-336.19"/>
<polygon fill="midnightblue" stroke="midnightblue" points="694.69,-388.97 685.95,-394.96 696.52,-395.72 694.69,-388.97"/>
</g>
<!-- Node29 -->
<g id="node29" class="node">
<title>Node29</title>
<g id="a_node29"><a xlink:href="../../df/d7e/LOAD__error_8h.html" target="_top" xlink:title=" ">
<polygon fill="white" stroke="black" points="597,-289.5 597,-352.5 754,-352.5 754,-289.5 597,-289.5"/>
<text text-anchor="start" x="605" y="-340.5" font-family="Helvetica,sans-Serif" font-size="10.00">/home/nico/joda_tmp</text>
<text text-anchor="start" x="605" y="-329.5" font-family="Helvetica,sans-Serif" font-size="10.00">/tmp&#45;joda&#45;dirs/JODA</text>
<text text-anchor="start" x="605" y="-318.5" font-family="Helvetica,sans-Serif" font-size="10.00">&#45;gh/libs/joda/core/modules</text>
<text text-anchor="start" x="605" y="-307.5" font-family="Helvetica,sans-Serif" font-size="10.00">/queryparsing/src/error/LOAD</text>
<text text-anchor="middle" x="675.5" y="-296.5" font-family="Helvetica,sans-Serif" font-size="10.00">_error.h</text>
</a>
</g>
</g>
<!-- Node28&#45;&gt;Node29 -->
<g id="edge45" class="edge">
<title>Node28&#45;&gt;Node29</title>
<path fill="none" stroke="midnightblue" d="M627.35,-386.64C635.52,-375.67 644.57,-363.52 652.59,-352.75"/>
<polygon fill="midnightblue" stroke="midnightblue" points="624.47,-384.65 621.3,-394.76 630.08,-388.83 624.47,-384.65"/>
</g>
<!-- Node29&#45;&gt;Node25 -->
<g id="edge46" class="edge">
<title>Node29&#45;&gt;Node25</title>
<path fill="none" stroke="midnightblue" d="M704.48,-281.09C713.02,-269.63 722.13,-257.4 729.84,-247.05"/>
<polygon fill="midnightblue" stroke="midnightblue" points="701.56,-279.15 698.4,-289.26 707.18,-283.33 701.56,-279.15"/>
</g>
<!-- Node30&#45;&gt;Node24 -->
<g id="edge49" class="edge">
<title>Node30&#45;&gt;Node24</title>
<path fill="none" stroke="midnightblue" d="M1296.33,-388.74C1224.59,-366.98 1151.88,-349.61 1099.01,-337.81"/>
<polygon fill="midnightblue" stroke="midnightblue" points="1295.4,-392.12 1305.98,-391.7 1297.45,-385.42 1295.4,-392.12"/>
</g>
</g>
</svg>
