<?xml version="1.0" encoding="UTF-8" standalone="no"?>
<!DOCTYPE svg PUBLIC "-//W3C//DTD SVG 1.1//EN"
 "http://www.w3.org/Graphics/SVG/1.1/DTD/svg11.dtd">
<!-- Generated by graphviz version 2.43.0 (0)
 -->
<!-- Title: QueryThread::~QueryThread Pages: 1 -->
<svg width="347pt" height="78pt"
 viewBox="0.00 0.00 347.00 77.50" xmlns="http://www.w3.org/2000/svg" xmlns:xlink="http://www.w3.org/1999/xlink">
<g id="graph0" class="graph" transform="scale(1 1) rotate(0) translate(4 73.5)">
<title>QueryThread::~QueryThread</title>
<polygon fill="white" stroke="transparent" points="-4,4 -4,-73.5 343,-73.5 343,4 -4,4"/>
<!-- Node1 -->
<g id="node1" class="node">
<title>Node1</title>
<g id="a_node1"><a xlink:title=" ">
<polygon fill="#bfbfbf" stroke="black" points="0,-28 0,-47 157,-47 157,-28 0,-28"/>
<text text-anchor="middle" x="78.5" y="-35" font-family="Helvetica,sans-Serif" font-size="10.00">QueryThread::~QueryThread</text>
</a>
</g>
</g>
<!-- Node2 -->
<g id="node2" class="node">
<title>Node2</title>
<g id="a_node2"><a xlink:href="../../da/dcb/classQueryThread.html#a0cbdd0887de88c80167e3f3de654e02e" target="_top" xlink:title=" ">
<polygon fill="white" stroke="black" points="193,-50 193,-69 339,-69 339,-50 193,-50"/>
<text text-anchor="middle" x="266" y="-57" font-family="Helvetica,sans-Serif" font-size="10.00">QueryThread::getThreadID</text>
</a>
</g>
</g>
<!-- Node1&#45;&gt;Node2 -->
<g id="edge1" class="edge">
<title>Node1&#45;&gt;Node2</title>
<path fill="none" stroke="midnightblue" d="M157.09,-46.7C165.59,-47.71 174.25,-48.74 182.8,-49.75"/>
<polygon fill="midnightblue" stroke="midnightblue" points="182.41,-53.23 192.75,-50.93 183.24,-46.28 182.41,-53.23"/>
</g>
<!-- Node3 -->
<g id="node3" class="node">
<title>Node3</title>
<g id="a_node3"><a xlink:href="../../d1/d30/structJODA__SHARED__QUEUE.html#ae9af49db448e6ab56bdb88146eac96cc" target="_top" xlink:title=" ">
<polygon fill="white" stroke="black" points="199.5,-0.5 199.5,-30.5 332.5,-30.5 332.5,-0.5 199.5,-0.5"/>
<text text-anchor="start" x="207.5" y="-18.5" font-family="Helvetica,sans-Serif" font-size="10.00">JODA_SHARED_QUEUE::</text>
<text text-anchor="middle" x="266" y="-7.5" font-family="Helvetica,sans-Serif" font-size="10.00">unregisterProducer</text>
</a>
</g>
</g>
<!-- Node1&#45;&gt;Node3 -->
<g id="edge2" class="edge">
<title>Node1&#45;&gt;Node3</title>
<path fill="none" stroke="midnightblue" d="M157.09,-28.3C167.78,-27.03 178.74,-25.73 189.38,-24.47"/>
<polygon fill="midnightblue" stroke="midnightblue" points="189.96,-27.92 199.48,-23.27 189.13,-20.97 189.96,-27.92"/>
</g>
</g>
</svg>
