<?xml version="1.0" encoding="UTF-8" standalone="no"?>
<!DOCTYPE svg PUBLIC "-//W3C//DTD SVG 1.1//EN"
 "http://www.w3.org/Graphics/SVG/1.1/DTD/svg11.dtd">
<!-- Generated by graphviz version 2.43.0 (0)
 -->
<!-- Title: QueryThread::defaultProject Pages: 1 -->
<svg width="940pt" height="127pt"
 viewBox="0.00 0.00 940.00 127.00" xmlns="http://www.w3.org/2000/svg" xmlns:xlink="http://www.w3.org/1999/xlink">
<g id="graph0" class="graph" transform="scale(1 1) rotate(0) translate(4 123)">
<title>QueryThread::defaultProject</title>
<polygon fill="white" stroke="transparent" points="-4,4 -4,-123 936,-123 936,4 -4,4"/>
<!-- Node1 -->
<g id="node1" class="node">
<title>Node1</title>
<g id="a_node1"><a xlink:title=" ">
<polygon fill="#bfbfbf" stroke="black" points="0,-80.5 0,-99.5 154,-99.5 154,-80.5 0,-80.5"/>
<text text-anchor="middle" x="77" y="-87.5" font-family="Helvetica,sans-Serif" font-size="10.00">QueryThread::defaultProject</text>
</a>
</g>
</g>
<!-- Node2 -->
<g id="node2" class="node">
<title>Node2</title>
<g id="a_node2"><a xlink:href="../../d6/de9/classJSONContainer.html#ae8bd221d03c830e1e58bc1db5d9e7237" target="_top" xlink:title=" ">
<polygon fill="white" stroke="black" points="216,-99.5 216,-118.5 347,-118.5 347,-99.5 216,-99.5"/>
<text text-anchor="middle" x="281.5" y="-106.5" font-family="Helvetica,sans-Serif" font-size="10.00">JSONContainer::getRaw</text>
</a>
</g>
</g>
<!-- Node1&#45;&gt;Node2 -->
<g id="edge1" class="edge">
<title>Node1&#45;&gt;Node2</title>
<path fill="none" stroke="midnightblue" d="M154.27,-97.16C171.07,-98.73 188.86,-100.4 205.61,-101.97"/>
<polygon fill="midnightblue" stroke="midnightblue" points="205.6,-105.49 215.88,-102.94 206.26,-98.52 205.6,-105.49"/>
</g>
<!-- Node8 -->
<g id="node8" class="node">
<title>Node8</title>
<g id="a_node8"><a xlink:href="../../d6/de9/classJSONContainer.html#aef776f4eea4c8f56b801086d29f9c2b6" target="_top" xlink:title=" ">
<polygon fill="white" stroke="black" points="190,-61.5 190,-80.5 373,-80.5 373,-61.5 190,-61.5"/>
<text text-anchor="middle" x="281.5" y="-68.5" font-family="Helvetica,sans-Serif" font-size="10.00">JSONContainer::projectDocuments</text>
</a>
</g>
</g>
<!-- Node1&#45;&gt;Node8 -->
<g id="edge11" class="edge">
<title>Node1&#45;&gt;Node8</title>
<path fill="none" stroke="midnightblue" d="M154.27,-82.84C162.65,-82.06 171.27,-81.25 179.89,-80.44"/>
<polygon fill="midnightblue" stroke="midnightblue" points="180.36,-83.91 189.99,-79.49 179.71,-76.94 180.36,-83.91"/>
</g>
<!-- Node3 -->
<g id="node3" class="node">
<title>Node3</title>
<g id="a_node3"><a xlink:href="../../d6/de9/classJSONContainer.html#ab804dc033e52dec30eaf7bc50cc21b57" target="_top" xlink:title=" ">
<polygon fill="white" stroke="black" points="806,-94.5 806,-113.5 932,-113.5 932,-94.5 806,-94.5"/>
<text text-anchor="middle" x="869" y="-101.5" font-family="Helvetica,sans-Serif" font-size="10.00">JSONContainer::isView</text>
</a>
</g>
</g>
<!-- Node2&#45;&gt;Node3 -->
<g id="edge2" class="edge">
<title>Node2&#45;&gt;Node3</title>
<path fill="none" stroke="midnightblue" d="M347.17,-111.44C367,-112.08 388.9,-112.68 409,-113 481.88,-114.15 500.12,-114.11 573,-113 649.04,-111.84 736.06,-109 795.78,-106.82"/>
<polygon fill="midnightblue" stroke="midnightblue" points="795.99,-110.31 805.86,-106.45 795.74,-103.32 795.99,-110.31"/>
</g>
<!-- Node4 -->
<g id="node4" class="node">
<title>Node4</title>
<g id="a_node4"><a xlink:href="../../d6/de9/classJSONContainer.html#a9170b6ae6e7dbcf2cb9a6121a1430057" target="_top" xlink:title=" ">
<polygon fill="white" stroke="black" points="409,-66.5 409,-85.5 573,-85.5 573,-66.5 409,-66.5"/>
<text text-anchor="middle" x="491" y="-73.5" font-family="Helvetica,sans-Serif" font-size="10.00">JSONContainer::reparseSubset</text>
</a>
</g>
</g>
<!-- Node2&#45;&gt;Node4 -->
<g id="edge3" class="edge">
<title>Node2&#45;&gt;Node4</title>
<path fill="none" stroke="midnightblue" d="M342.24,-99.5C366.55,-95.63 394.82,-91.14 420.08,-87.12"/>
<polygon fill="midnightblue" stroke="midnightblue" points="420.64,-90.58 429.96,-85.55 419.54,-83.66 420.64,-90.58"/>
</g>
<!-- Node4&#45;&gt;Node3 -->
<g id="edge4" class="edge">
<title>Node4&#45;&gt;Node3</title>
<path fill="none" stroke="midnightblue" d="M573.19,-82.28C585.2,-83.2 597.42,-84.13 609,-85 672.12,-89.74 743.9,-95 795.86,-98.78"/>
<polygon fill="midnightblue" stroke="midnightblue" points="795.75,-102.28 805.98,-99.51 796.26,-95.3 795.75,-102.28"/>
</g>
<!-- Node4&#45;&gt;Node4 -->
<g id="edge6" class="edge">
<title>Node4&#45;&gt;Node4</title>
<path fill="none" stroke="midnightblue" d="M460.48,-85.76C445.64,-94.57 455.81,-104 491,-104 515.74,-104 528.12,-99.34 528.12,-93.5"/>
<polygon fill="midnightblue" stroke="midnightblue" points="530.67,-91.09 521.52,-85.76 525.34,-95.64 530.67,-91.09"/>
</g>
<!-- Node5 -->
<g id="node5" class="node">
<title>Node5</title>
<g id="a_node5"><a xlink:href="../../d6/de9/classJSONContainer.html#a924f326dbf66da05173e2a23bbbc528e" target="_top" xlink:title=" ">
<polygon fill="white" stroke="black" points="609,-56.5 609,-75.5 770,-75.5 770,-56.5 609,-56.5"/>
<text text-anchor="middle" x="689.5" y="-63.5" font-family="Helvetica,sans-Serif" font-size="10.00">JSONContainer::removeViews</text>
</a>
</g>
</g>
<!-- Node4&#45;&gt;Node5 -->
<g id="edge5" class="edge">
<title>Node4&#45;&gt;Node5</title>
<path fill="none" stroke="midnightblue" d="M573.06,-71.87C581.57,-71.44 590.26,-71 598.86,-70.56"/>
<polygon fill="midnightblue" stroke="midnightblue" points="599.09,-74.05 608.89,-70.05 598.73,-67.06 599.09,-74.05"/>
</g>
<!-- Node6 -->
<g id="node6" class="node">
<title>Node6</title>
<g id="a_node6"><a xlink:href="../../d6/de9/classJSONContainer.html#ab79fb2d42e903a2693e018f9caf26849" target="_top" xlink:title=" ">
<polygon fill="white" stroke="black" points="620.5,-0.5 620.5,-19.5 758.5,-19.5 758.5,-0.5 620.5,-0.5"/>
<text text-anchor="middle" x="689.5" y="-7.5" font-family="Helvetica,sans-Serif" font-size="10.00">JSONContainer::setViews</text>
</a>
</g>
</g>
<!-- Node4&#45;&gt;Node6 -->
<g id="edge7" class="edge">
<title>Node4&#45;&gt;Node6</title>
<path fill="none" stroke="midnightblue" d="M520.57,-66.4C554.87,-54.88 612.5,-35.53 650.52,-22.76"/>
<polygon fill="midnightblue" stroke="midnightblue" points="651.85,-26 660.21,-19.5 649.62,-19.37 651.85,-26"/>
</g>
<!-- Node6&#45;&gt;Node3 -->
<g id="edge8" class="edge">
<title>Node6&#45;&gt;Node3</title>
<path fill="none" stroke="midnightblue" d="M712.35,-19.52C728.47,-26.7 750.84,-36.99 770,-47 795.76,-60.45 824.39,-77.34 844.03,-89.23"/>
<polygon fill="midnightblue" stroke="midnightblue" points="842.27,-92.26 852.63,-94.47 845.91,-86.28 842.27,-92.26"/>
</g>
<!-- Node6&#45;&gt;Node6 -->
<g id="edge9" class="edge">
<title>Node6&#45;&gt;Node6</title>
<path fill="none" stroke="midnightblue" d="M662.07,-19.76C648.72,-28.57 657.86,-38 689.5,-38 711.25,-38 722.37,-33.54 722.86,-27.89"/>
<polygon fill="midnightblue" stroke="midnightblue" points="725.65,-25.78 716.93,-19.76 719.99,-29.9 725.65,-25.78"/>
</g>
<!-- Node7 -->
<g id="node7" class="node">
<title>Node7</title>
<g id="a_node7"><a xlink:href="../../d6/de9/classJSONContainer.html#aff361f24e550af9c8898fdb6b7d893e6" target="_top" xlink:title=" ">
<polygon fill="white" stroke="black" points="812.5,-0.5 812.5,-19.5 925.5,-19.5 925.5,-0.5 812.5,-0.5"/>
<text text-anchor="middle" x="869" y="-7.5" font-family="Helvetica,sans-Serif" font-size="10.00">JSONContainer::size</text>
</a>
</g>
</g>
<!-- Node6&#45;&gt;Node7 -->
<g id="edge10" class="edge">
<title>Node6&#45;&gt;Node7</title>
<path fill="none" stroke="midnightblue" d="M758.62,-10C772.94,-10 788.01,-10 802.24,-10"/>
<polygon fill="midnightblue" stroke="midnightblue" points="802.43,-13.5 812.43,-10 802.43,-6.5 802.43,-13.5"/>
</g>
</g>
</svg>
