<?xml version="1.0" encoding="UTF-8" standalone="no"?>
<!DOCTYPE svg PUBLIC "-//W3C//DTD SVG 1.1//EN"
 "http://www.w3.org/Graphics/SVG/1.1/DTD/svg11.dtd">
<!-- Generated by graphviz version 2.43.0 (0)
 -->
<!-- Title: QueryThread::logTimers Pages: 1 -->
<svg width="316pt" height="78pt"
 viewBox="0.00 0.00 316.00 77.50" xmlns="http://www.w3.org/2000/svg" xmlns:xlink="http://www.w3.org/1999/xlink">
<g id="graph0" class="graph" transform="scale(1 1) rotate(0) translate(4 73.5)">
<title>QueryThread::logTimers</title>
<polygon fill="white" stroke="transparent" points="-4,4 -4,-73.5 312,-73.5 312,4 -4,4"/>
<!-- Node1 -->
<g id="node1" class="node">
<title>Node1</title>
<g id="a_node1"><a xlink:title=" ">
<polygon fill="#bfbfbf" stroke="black" points="0,-28 0,-47 134,-47 134,-28 0,-28"/>
<text text-anchor="middle" x="67" y="-35" font-family="Helvetica,sans-Serif" font-size="10.00">QueryThread::logTimers</text>
</a>
</g>
</g>
<!-- Node2 -->
<g id="node2" class="node">
<title>Node2</title>
<g id="a_node2"><a xlink:href="../../dc/d7d/classBenchmark.html#a950cdfbf1fa9bf62e51703c13b13d2b2" target="_top" xlink:title=" ">
<polygon fill="white" stroke="black" points="174,-50 174,-69 304,-69 304,-50 174,-50"/>
<text text-anchor="middle" x="239" y="-57" font-family="Helvetica,sans-Serif" font-size="10.00">Benchmark::addThread</text>
</a>
</g>
</g>
<!-- Node1&#45;&gt;Node2 -->
<g id="edge1" class="edge">
<title>Node1&#45;&gt;Node2</title>
<path fill="none" stroke="midnightblue" d="M134.21,-46.07C143.9,-47.32 153.93,-48.62 163.76,-49.89"/>
<polygon fill="midnightblue" stroke="midnightblue" points="163.55,-53.39 173.92,-51.21 164.45,-46.45 163.55,-53.39"/>
</g>
<!-- Node3 -->
<g id="node3" class="node">
<title>Node3</title>
<g id="a_node3"><a xlink:href="../../d8/df5/classRecurringTimer.html#ac42abcd98d9a5dc838b9d6b6f4ce8cc5" target="_top" xlink:title=" ">
<polygon fill="white" stroke="black" points="170,-0.5 170,-30.5 308,-30.5 308,-0.5 170,-0.5"/>
<text text-anchor="start" x="178" y="-18.5" font-family="Helvetica,sans-Serif" font-size="10.00">RecurringTimer::duration</text>
<text text-anchor="middle" x="239" y="-7.5" font-family="Helvetica,sans-Serif" font-size="10.00">Seconds</text>
</a>
</g>
</g>
<!-- Node1&#45;&gt;Node3 -->
<g id="edge2" class="edge">
<title>Node1&#45;&gt;Node3</title>
<path fill="none" stroke="midnightblue" d="M134.21,-28.93C142.59,-27.85 151.22,-26.73 159.76,-25.62"/>
<polygon fill="midnightblue" stroke="midnightblue" points="160.26,-29.09 169.73,-24.34 159.36,-22.15 160.26,-29.09"/>
</g>
</g>
</svg>
