<?xml version="1.0" encoding="UTF-8" standalone="no"?>
<!DOCTYPE svg PUBLIC "-//W3C//DTD SVG 1.1//EN"
 "http://www.w3.org/Graphics/SVG/1.1/DTD/svg11.dtd">
<!-- Generated by graphviz version 2.43.0 (0)
 -->
<!-- Title: TEST_F Pages: 1 -->
<svg width="253pt" height="88pt"
 viewBox="0.00 0.00 253.00 88.00" xmlns="http://www.w3.org/2000/svg" xmlns:xlink="http://www.w3.org/1999/xlink">
<g id="graph0" class="graph" transform="scale(1 1) rotate(0) translate(4 84)">
<title>TEST_F</title>
<polygon fill="white" stroke="transparent" points="-4,4 -4,-84 249,-84 249,4 -4,4"/>
<!-- Node1 -->
<g id="node1" class="node">
<title>Node1</title>
<g id="a_node1"><a xlink:title=" ">
<polygon fill="#bfbfbf" stroke="black" points="0,-30 0,-49 52,-49 52,-30 0,-30"/>
<text text-anchor="middle" x="26" y="-37" font-family="Helvetica,sans-Serif" font-size="10.00">TEST_F</text>
</a>
</g>
</g>
<!-- Node2 -->
<g id="node2" class="node">
<title>Node2</title>
<g id="a_node2"><a xlink:href="../../dc/d49/classjoda_1_1query_1_1Predicate.html#a0e1cd0c7902b0caf2cb44d1d894682ca" target="_top" xlink:title=" ">
<polygon fill="white" stroke="black" points="105.5,-49.5 105.5,-79.5 227.5,-79.5 227.5,-49.5 105.5,-49.5"/>
<text text-anchor="start" x="113.5" y="-67.5" font-family="Helvetica,sans-Serif" font-size="10.00">joda::query::Predicate</text>
<text text-anchor="middle" x="166.5" y="-56.5" font-family="Helvetica,sans-Serif" font-size="10.00">::accept</text>
</a>
</g>
</g>
<!-- Node1&#45;&gt;Node2 -->
<g id="edge1" class="edge">
<title>Node1&#45;&gt;Node2</title>
<path fill="none" stroke="midnightblue" d="M52.08,-44.03C64.29,-46.23 79.65,-49 95.09,-51.79"/>
<polygon fill="midnightblue" stroke="midnightblue" points="94.75,-55.29 105.21,-53.62 95.99,-48.4 94.75,-55.29"/>
</g>
<!-- Node3 -->
<g id="node3" class="node">
<title>Node3</title>
<g id="a_node3"><a xlink:href="../../d5/d78/classjoda_1_1query_1_1StaticEvalVisitor.html#abc729445111dcddbf10d10b2972cf2c5" target="_top" xlink:title=" ">
<polygon fill="white" stroke="black" points="88,-0.5 88,-30.5 245,-30.5 245,-0.5 88,-0.5"/>
<text text-anchor="start" x="96" y="-18.5" font-family="Helvetica,sans-Serif" font-size="10.00">joda::query::StaticEvalVisitor</text>
<text text-anchor="middle" x="166.5" y="-7.5" font-family="Helvetica,sans-Serif" font-size="10.00">::getPred</text>
</a>
</g>
</g>
<!-- Node1&#45;&gt;Node3 -->
<g id="edge2" class="edge">
<title>Node1&#45;&gt;Node3</title>
<path fill="none" stroke="midnightblue" d="M52.08,-35.15C59.72,-33.83 68.59,-32.29 77.93,-30.67"/>
<polygon fill="midnightblue" stroke="midnightblue" points="78.56,-34.12 87.81,-28.96 77.36,-27.22 78.56,-34.12"/>
</g>
</g>
</svg>
