<?xml version="1.0" encoding="UTF-8" standalone="no"?>
<!DOCTYPE svg PUBLIC "-//W3C//DTD SVG 1.1//EN"
 "http://www.w3.org/Graphics/SVG/1.1/DTD/svg11.dtd">
<!-- Generated by graphviz version 2.43.0 (0)
 -->
<!-- Title: /home/nico/projects/tmp&#45;joda&#45;dirs/JODA&#45;gh/libs/joda/core/modules/indexing/src/cache/CacheEntry.cpp Pages: 1 -->
<svg width="1436pt" height="598pt"
 viewBox="0.00 0.00 1435.50 598.00" xmlns="http://www.w3.org/2000/svg" xmlns:xlink="http://www.w3.org/1999/xlink">
<g id="graph0" class="graph" transform="scale(1 1) rotate(0) translate(4 594)">
<title>/home/nico/projects/tmp&#45;joda&#45;dirs/JODA&#45;gh/libs/joda/core/modules/indexing/src/cache/CacheEntry.cpp</title>
<polygon fill="white" stroke="transparent" points="-4,4 -4,-594 1431.5,-594 1431.5,4 -4,4"/>
<!-- Node1 -->
<g id="node1" class="node">
<title>Node1</title>
<g id="a_node1"><a xlink:title=" ">
<polygon fill="#bfbfbf" stroke="black" points="724,-537.5 724,-589.5 912,-589.5 912,-537.5 724,-537.5"/>
<text text-anchor="start" x="732" y="-577.5" font-family="Helvetica,sans-Serif" font-size="10.00">/home/nico/projects</text>
<text text-anchor="start" x="732" y="-566.5" font-family="Helvetica,sans-Serif" font-size="10.00">/tmp&#45;joda&#45;dirs/JODA</text>
<text text-anchor="start" x="732" y="-555.5" font-family="Helvetica,sans-Serif" font-size="10.00">&#45;gh/libs/joda/core/modules</text>
<text text-anchor="middle" x="818" y="-544.5" font-family="Helvetica,sans-Serif" font-size="10.00">/indexing/src/cache/CacheEntry.cpp</text>
</a>
</g>
</g>
<!-- Node2 -->
<g id="node2" class="node">
<title>Node2</title>
<g id="a_node2"><a xlink:href="../../d5/d86/CacheEntry_8h.html" target="_top" xlink:title=" ">
<polygon fill="white" stroke="black" points="186,-481.5 186,-500.5 266,-500.5 266,-481.5 186,-481.5"/>
<text text-anchor="middle" x="226" y="-488.5" font-family="Helvetica,sans-Serif" font-size="10.00">CacheEntry.h</text>
</a>
</g>
</g>
<!-- Node1&#45;&gt;Node2 -->
<g id="edge1" class="edge">
<title>Node1&#45;&gt;Node2</title>
<path fill="none" stroke="midnightblue" d="M723.87,-551.29C596.89,-536.17 375.25,-509.77 276.25,-497.98"/>
<polygon fill="midnightblue" stroke="midnightblue" points="276.55,-494.5 266.21,-496.79 275.73,-501.45 276.55,-494.5"/>
</g>
<!-- Node21 -->
<g id="node21" class="node">
<title>Node21</title>
<g id="a_node21"><a xlink:title=" ">
<polygon fill="white" stroke="#bfbfbf" points="1042.5,-168.5 1042.5,-187.5 1087.5,-187.5 1087.5,-168.5 1042.5,-168.5"/>
<text text-anchor="middle" x="1065" y="-175.5" font-family="Helvetica,sans-Serif" font-size="10.00">utility</text>
</a>
</g>
</g>
<!-- Node1&#45;&gt;Node21 -->
<g id="edge64" class="edge">
<title>Node1&#45;&gt;Node21</title>
<path fill="none" stroke="midnightblue" d="M912.13,-560.77C1079.16,-555.14 1410,-531.26 1410,-430.5 1410,-430.5 1410,-430.5 1410,-367 1410,-267.59 1326.55,-269.18 1238,-224 1183.09,-195.98 1161.51,-203.89 1097.47,-187.99"/>
<polygon fill="midnightblue" stroke="midnightblue" points="1098.26,-184.58 1087.71,-185.46 1096.51,-191.35 1098.26,-184.58"/>
</g>
<!-- Node3 -->
<g id="node3" class="node">
<title>Node3</title>
<g id="a_node3"><a xlink:href="../../d1/dfd/RapidJsonDocument_8h.html" target="_top" xlink:title=" ">
<polygon fill="white" stroke="black" points="262,-358.5 262,-377.5 462,-377.5 462,-358.5 262,-358.5"/>
<text text-anchor="middle" x="362" y="-365.5" font-family="Helvetica,sans-Serif" font-size="10.00">joda/document/RapidJsonDocument.h</text>
</a>
</g>
</g>
<!-- Node2&#45;&gt;Node3 -->
<g id="edge2" class="edge">
<title>Node2&#45;&gt;Node3</title>
<path fill="none" stroke="midnightblue" d="M235.78,-481.3C258.62,-460.98 315.71,-410.19 344.63,-384.46"/>
<polygon fill="midnightblue" stroke="midnightblue" points="347.16,-386.89 352.31,-377.62 342.51,-381.66 347.16,-386.89"/>
</g>
<!-- Node29 -->
<g id="node29" class="node">
<title>Node29</title>
<g id="a_node29"><a xlink:title=" ">
<polygon fill="white" stroke="#bfbfbf" points="196,-224.5 196,-243.5 282,-243.5 282,-224.5 196,-224.5"/>
<text text-anchor="middle" x="239" y="-231.5" font-family="Helvetica,sans-Serif" font-size="10.00">unordered_set</text>
</a>
</g>
</g>
<!-- Node2&#45;&gt;Node29 -->
<g id="edge63" class="edge">
<title>Node2&#45;&gt;Node29</title>
<path fill="none" stroke="midnightblue" d="M226.45,-481.22C228.3,-444.82 235.42,-305.27 238.03,-254.02"/>
<polygon fill="midnightblue" stroke="midnightblue" points="241.54,-253.91 238.55,-243.74 234.55,-253.55 241.54,-253.91"/>
</g>
<!-- Node32 -->
<g id="node32" class="node">
<title>Node32</title>
<g id="a_node32"><a xlink:href="../../db/d52/Predicate_8h.html" target="_top" xlink:title=" ">
<polygon fill="white" stroke="black" points="80.5,-414.5 80.5,-444.5 197.5,-444.5 197.5,-414.5 80.5,-414.5"/>
<text text-anchor="start" x="88.5" y="-432.5" font-family="Helvetica,sans-Serif" font-size="10.00">joda/query/predicate</text>
<text text-anchor="middle" x="139" y="-421.5" font-family="Helvetica,sans-Serif" font-size="10.00">/Predicate.h</text>
</a>
</g>
</g>
<!-- Node2&#45;&gt;Node32 -->
<g id="edge56" class="edge">
<title>Node2&#45;&gt;Node32</title>
<path fill="none" stroke="midnightblue" d="M213.54,-481.48C201.64,-473.34 183.29,-460.79 167.77,-450.18"/>
<polygon fill="midnightblue" stroke="midnightblue" points="169.73,-447.28 159.5,-444.52 165.78,-453.06 169.73,-447.28"/>
</g>
<!-- Node33 -->
<g id="node33" class="node">
<title>Node33</title>
<g id="a_node33"><a xlink:href="../../d3/dc8/PredicateVisitor_8h.html" target="_top" xlink:title=" ">
<polygon fill="white" stroke="black" points="0,-358.5 0,-377.5 102,-377.5 102,-358.5 0,-358.5"/>
<text text-anchor="middle" x="51" y="-365.5" font-family="Helvetica,sans-Serif" font-size="10.00">PredicateVisitor.h</text>
</a>
</g>
</g>
<!-- Node2&#45;&gt;Node33 -->
<g id="edge62" class="edge">
<title>Node2&#45;&gt;Node33</title>
<path fill="none" stroke="midnightblue" d="M185.79,-488.95C150.77,-485.84 101.03,-475.8 71,-445 56.22,-429.84 52.01,-405.13 50.98,-388.02"/>
<polygon fill="midnightblue" stroke="midnightblue" points="54.47,-387.5 50.69,-377.6 47.47,-387.7 54.47,-387.5"/>
</g>
<!-- Node4 -->
<g id="node4" class="node">
<title>Node4</title>
<g id="a_node4"><a xlink:href="../../d2/d0d/ViewLayer_8h.html" target="_top" xlink:title=" ">
<polygon fill="white" stroke="black" points="864,-286 864,-316 980,-316 980,-286 864,-286"/>
<text text-anchor="start" x="872" y="-304" font-family="Helvetica,sans-Serif" font-size="10.00">joda/document/view</text>
<text text-anchor="middle" x="922" y="-293" font-family="Helvetica,sans-Serif" font-size="10.00">/ViewLayer.h</text>
</a>
</g>
</g>
<!-- Node3&#45;&gt;Node4 -->
<g id="edge3" class="edge">
<title>Node3&#45;&gt;Node4</title>
<path fill="none" stroke="midnightblue" d="M435.5,-358.47C544.59,-345.81 747.85,-322.21 853.8,-309.92"/>
<polygon fill="midnightblue" stroke="midnightblue" points="854.21,-313.39 863.74,-308.76 853.41,-306.44 854.21,-313.39"/>
</g>
<!-- Node9 -->
<g id="node9" class="node">
<title>Node9</title>
<g id="a_node9"><a xlink:href="../../d6/d09/RJFwd_8h.html" target="_top" xlink:title=" ">
<polygon fill="white" stroke="black" points="625,-56.5 625,-75.5 731,-75.5 731,-56.5 625,-56.5"/>
<text text-anchor="middle" x="678" y="-63.5" font-family="Helvetica,sans-Serif" font-size="10.00">joda/misc/RJFwd.h</text>
</a>
</g>
</g>
<!-- Node3&#45;&gt;Node9 -->
<g id="edge55" class="edge">
<title>Node3&#45;&gt;Node9</title>
<path fill="none" stroke="midnightblue" d="M338.89,-358.38C299.89,-342.47 221.85,-304.5 187,-244 157.24,-192.33 122.71,-155.96 163,-112 192.96,-79.31 483.64,-70.27 614.6,-67.85"/>
<polygon fill="midnightblue" stroke="midnightblue" points="614.94,-71.35 624.88,-67.67 614.81,-64.35 614.94,-71.35"/>
</g>
<!-- Node10 -->
<g id="node10" class="node">
<title>Node10</title>
<g id="a_node10"><a xlink:title=" ">
<polygon fill="white" stroke="#bfbfbf" points="1140,-0.5 1140,-19.5 1262,-19.5 1262,-0.5 1140,-0.5"/>
<text text-anchor="middle" x="1201" y="-7.5" font-family="Helvetica,sans-Serif" font-size="10.00">rapidjson/allocators.h</text>
</a>
</g>
</g>
<!-- Node3&#45;&gt;Node10 -->
<g id="edge40" class="edge">
<title>Node3&#45;&gt;Node10</title>
<path fill="none" stroke="midnightblue" d="M462.36,-363.76C710.7,-354.42 1334,-322.28 1334,-235 1334,-235 1334,-235 1334,-121 1334,-70.73 1276.87,-39.1 1237.5,-23.27"/>
<polygon fill="midnightblue" stroke="midnightblue" points="1238.5,-19.91 1227.91,-19.59 1235.99,-26.45 1238.5,-19.91"/>
</g>
<!-- Node12 -->
<g id="node12" class="node">
<title>Node12</title>
<g id="a_node12"><a xlink:title=" ">
<polygon fill="white" stroke="#bfbfbf" points="1336.5,-0.5 1336.5,-19.5 1427.5,-19.5 1427.5,-0.5 1336.5,-0.5"/>
<text text-anchor="middle" x="1382" y="-7.5" font-family="Helvetica,sans-Serif" font-size="10.00">rapidjson/fwd.h</text>
</a>
</g>
</g>
<!-- Node3&#45;&gt;Node12 -->
<g id="edge41" class="edge">
<title>Node3&#45;&gt;Node12</title>
<path fill="none" stroke="midnightblue" d="M462.32,-366.39C650.87,-364.43 1051.14,-356.25 1185,-322 1299.79,-292.63 1410,-297.49 1410,-179 1410,-179 1410,-179 1410,-121 1410,-87.79 1397.87,-50.63 1389.57,-29.12"/>
<polygon fill="midnightblue" stroke="midnightblue" points="1392.75,-27.63 1385.78,-19.65 1386.25,-30.23 1392.75,-27.63"/>
</g>
<!-- Node24 -->
<g id="node24" class="node">
<title>Node24</title>
<g id="a_node24"><a xlink:title=" ">
<polygon fill="white" stroke="#bfbfbf" points="172,-112.5 172,-131.5 230,-131.5 230,-112.5 172,-112.5"/>
<text text-anchor="middle" x="201" y="-119.5" font-family="Helvetica,sans-Serif" font-size="10.00">memory</text>
</a>
</g>
</g>
<!-- Node3&#45;&gt;Node24 -->
<g id="edge43" class="edge">
<title>Node3&#45;&gt;Node24</title>
<path fill="none" stroke="midnightblue" d="M332.12,-358.39C314.46,-351.59 293.55,-340.15 283,-322 261.04,-284.22 306.56,-264.84 291,-224 277.05,-187.38 243.05,-155.59 221.07,-137.89"/>
<polygon fill="midnightblue" stroke="midnightblue" points="223.06,-135 213.02,-131.61 218.75,-140.52 223.06,-135"/>
</g>
<!-- Node27 -->
<g id="node27" class="node">
<title>Node27</title>
<g id="a_node27"><a xlink:title=" ">
<polygon fill="white" stroke="#bfbfbf" points="292,-291.5 292,-310.5 342,-310.5 342,-291.5 292,-291.5"/>
<text text-anchor="middle" x="317" y="-298.5" font-family="Helvetica,sans-Serif" font-size="10.00">atomic</text>
</a>
</g>
</g>
<!-- Node3&#45;&gt;Node27 -->
<g id="edge42" class="edge">
<title>Node3&#45;&gt;Node27</title>
<path fill="none" stroke="midnightblue" d="M355.93,-358.23C348.98,-348.2 337.43,-331.51 328.71,-318.92"/>
<polygon fill="midnightblue" stroke="midnightblue" points="331.54,-316.86 322.97,-310.63 325.79,-320.84 331.54,-316.86"/>
</g>
<!-- Node28 -->
<g id="node28" class="node">
<title>Node28</title>
<g id="a_node28"><a xlink:href="../../df/d13/FileNameRepo_8h.html" target="_top" xlink:title=" ">
<polygon fill="white" stroke="black" points="398.5,-280.5 398.5,-321.5 553.5,-321.5 553.5,-280.5 398.5,-280.5"/>
<text text-anchor="start" x="406.5" y="-309.5" font-family="Helvetica,sans-Serif" font-size="10.00">../../../../../misc</text>
<text text-anchor="start" x="406.5" y="-298.5" font-family="Helvetica,sans-Serif" font-size="10.00">/include/joda/misc/FileName</text>
<text text-anchor="middle" x="476" y="-287.5" font-family="Helvetica,sans-Serif" font-size="10.00">Repo.h</text>
</a>
</g>
</g>
<!-- Node3&#45;&gt;Node28 -->
<g id="edge44" class="edge">
<title>Node3&#45;&gt;Node28</title>
<path fill="none" stroke="midnightblue" d="M377.37,-358.23C391.6,-350.12 413.45,-337.67 432.96,-326.54"/>
<polygon fill="midnightblue" stroke="midnightblue" points="434.77,-329.54 441.73,-321.54 431.31,-323.45 434.77,-329.54"/>
</g>
<!-- Node30 -->
<g id="node30" class="node">
<title>Node30</title>
<g id="a_node30"><a xlink:href="../../d5/d6c/IOrigin_8h.html" target="_top" xlink:title=" ">
<polygon fill="white" stroke="black" points="338,-168.5 338,-187.5 396,-187.5 396,-168.5 338,-168.5"/>
<text text-anchor="middle" x="367" y="-175.5" font-family="Helvetica,sans-Serif" font-size="10.00">IOrigin.h</text>
</a>
</g>
</g>
<!-- Node3&#45;&gt;Node30 -->
<g id="edge50" class="edge">
<title>Node3&#45;&gt;Node30</title>
<path fill="none" stroke="midnightblue" d="M362.23,-358.43C362.99,-329.93 365.44,-237.82 366.5,-197.83"/>
<polygon fill="midnightblue" stroke="midnightblue" points="370,-197.71 366.77,-187.62 363.01,-197.52 370,-197.71"/>
</g>
<!-- Node5 -->
<g id="node5" class="node">
<title>Node5</title>
<g id="a_node5"><a xlink:title=" ">
<polygon fill="white" stroke="#bfbfbf" points="924,-0.5 924,-19.5 1010,-19.5 1010,-0.5 924,-0.5"/>
<text text-anchor="middle" x="967" y="-7.5" font-family="Helvetica,sans-Serif" font-size="10.00">glog/logging.h</text>
</a>
</g>
</g>
<!-- Node4&#45;&gt;Node5 -->
<g id="edge4" class="edge">
<title>Node4&#45;&gt;Node5</title>
<path fill="none" stroke="midnightblue" d="M980.32,-295.91C1063.48,-289.13 1210.96,-273.32 1255,-244 1283.43,-225.07 1296,-213.16 1296,-179 1296,-179 1296,-179 1296,-121 1296,-63.53 1113.16,-30.61 1020.09,-17.58"/>
<polygon fill="midnightblue" stroke="midnightblue" points="1020.39,-14.09 1010.01,-16.2 1019.44,-21.03 1020.39,-14.09"/>
</g>
<!-- Node6 -->
<g id="node6" class="node">
<title>Node6</title>
<g id="a_node6"><a xlink:href="../../db/d16/config_8h.html" target="_top" xlink:title=" ">
<polygon fill="white" stroke="black" points="1118.5,-224.5 1118.5,-243.5 1229.5,-243.5 1229.5,-224.5 1118.5,-224.5"/>
<text text-anchor="middle" x="1174" y="-231.5" font-family="Helvetica,sans-Serif" font-size="10.00">joda/config/config.h</text>
</a>
</g>
</g>
<!-- Node4&#45;&gt;Node6 -->
<g id="edge5" class="edge">
<title>Node4&#45;&gt;Node6</title>
<path fill="none" stroke="midnightblue" d="M976.37,-285.98C1022.72,-274.02 1088.43,-257.07 1131.13,-246.06"/>
<polygon fill="midnightblue" stroke="midnightblue" points="1132.13,-249.42 1140.94,-243.53 1130.38,-242.64 1132.13,-249.42"/>
</g>
<!-- Node4&#45;&gt;Node9 -->
<g id="edge8" class="edge">
<title>Node4&#45;&gt;Node9</title>
<path fill="none" stroke="midnightblue" d="M863.76,-295.68C777.11,-288.43 619.14,-271.82 570,-244 541.72,-227.99 534.11,-218.53 523,-188 510.63,-154.03 524.77,-135.78 552,-112 570.9,-95.49 596.3,-84.9 619.34,-78.17"/>
<polygon fill="midnightblue" stroke="midnightblue" points="620.32,-81.53 629.04,-75.52 618.47,-74.78 620.32,-81.53"/>
</g>
<!-- Node15 -->
<g id="node15" class="node">
<title>Node15</title>
<g id="a_node15"><a xlink:title=" ">
<polygon fill="white" stroke="#bfbfbf" points="742.5,-224.5 742.5,-243.5 871.5,-243.5 871.5,-224.5 742.5,-224.5"/>
<text text-anchor="middle" x="807" y="-231.5" font-family="Helvetica,sans-Serif" font-size="10.00">rapidjson/stringbuffer.h</text>
</a>
</g>
</g>
<!-- Node4&#45;&gt;Node15 -->
<g id="edge15" class="edge">
<title>Node4&#45;&gt;Node15</title>
<path fill="none" stroke="midnightblue" d="M897.05,-285.9C877.4,-274.79 850.21,-259.42 830.85,-248.48"/>
<polygon fill="midnightblue" stroke="midnightblue" points="832.48,-245.38 822.05,-243.51 829.03,-251.47 832.48,-245.38"/>
</g>
<!-- Node16 -->
<g id="node16" class="node">
<title>Node16</title>
<g id="a_node16"><a xlink:title=" ">
<polygon fill="white" stroke="#bfbfbf" points="890,-224.5 890,-243.5 954,-243.5 954,-224.5 890,-224.5"/>
<text text-anchor="middle" x="922" y="-231.5" font-family="Helvetica,sans-Serif" font-size="10.00">algorithm</text>
</a>
</g>
</g>
<!-- Node4&#45;&gt;Node16 -->
<g id="edge16" class="edge">
<title>Node4&#45;&gt;Node16</title>
<path fill="none" stroke="midnightblue" d="M922,-285.9C922,-276.56 922,-264.21 922,-254.02"/>
<polygon fill="midnightblue" stroke="midnightblue" points="925.5,-253.69 922,-243.69 918.5,-253.69 925.5,-253.69"/>
</g>
<!-- Node17 -->
<g id="node17" class="node">
<title>Node17</title>
<g id="a_node17"><a xlink:title=" ">
<polygon fill="white" stroke="#bfbfbf" points="452,-224.5 452,-243.5 500,-243.5 500,-224.5 452,-224.5"/>
<text text-anchor="middle" x="476" y="-231.5" font-family="Helvetica,sans-Serif" font-size="10.00">mutex</text>
</a>
</g>
</g>
<!-- Node4&#45;&gt;Node17 -->
<g id="edge17" class="edge">
<title>Node4&#45;&gt;Node17</title>
<path fill="none" stroke="midnightblue" d="M863.95,-293.81C784.57,-284.95 637.88,-267.12 514,-244 512.73,-243.76 511.43,-243.51 510.12,-243.25"/>
<polygon fill="midnightblue" stroke="midnightblue" points="510.56,-239.76 500.05,-241.06 509.08,-246.6 510.56,-239.76"/>
</g>
<!-- Node18 -->
<g id="node18" class="node">
<title>Node18</title>
<g id="a_node18"><a xlink:title=" ">
<polygon fill="white" stroke="#bfbfbf" points="749.5,-56.5 749.5,-75.5 842.5,-75.5 842.5,-56.5 749.5,-56.5"/>
<text text-anchor="middle" x="796" y="-63.5" font-family="Helvetica,sans-Serif" font-size="10.00">unordered_map</text>
</a>
</g>
</g>
<!-- Node4&#45;&gt;Node18 -->
<g id="edge18" class="edge">
<title>Node4&#45;&gt;Node18</title>
<path fill="none" stroke="midnightblue" d="M938.8,-285.88C954.94,-270.54 975.19,-245.35 963,-224 923.08,-154.11 852.64,-198.31 807,-132 797.77,-118.59 795.4,-100.03 795.12,-86.17"/>
<polygon fill="midnightblue" stroke="midnightblue" points="798.62,-85.9 795.27,-75.85 791.62,-85.8 798.62,-85.9"/>
</g>
<!-- Node19 -->
<g id="node19" class="node">
<title>Node19</title>
<g id="a_node19"><a xlink:title=" ">
<polygon fill="white" stroke="#bfbfbf" points="1010.5,-224.5 1010.5,-243.5 1061.5,-243.5 1061.5,-224.5 1010.5,-224.5"/>
<text text-anchor="middle" x="1036" y="-231.5" font-family="Helvetica,sans-Serif" font-size="10.00">variant</text>
</a>
</g>
</g>
<!-- Node4&#45;&gt;Node19 -->
<g id="edge19" class="edge">
<title>Node4&#45;&gt;Node19</title>
<path fill="none" stroke="midnightblue" d="M946.74,-285.9C966.21,-274.79 993.17,-259.42 1012.35,-248.48"/>
<polygon fill="midnightblue" stroke="midnightblue" points="1014.13,-251.5 1021.08,-243.51 1010.66,-245.42 1014.13,-251.5"/>
</g>
<!-- Node20 -->
<g id="node20" class="node">
<title>Node20</title>
<g id="a_node20"><a xlink:href="../../da/d3b/ObjectIterator_8h.html" target="_top" xlink:title=" ">
<polygon fill="white" stroke="black" points="594,-224.5 594,-243.5 686,-243.5 686,-224.5 594,-224.5"/>
<text text-anchor="middle" x="640" y="-231.5" font-family="Helvetica,sans-Serif" font-size="10.00">ObjectIterator.h</text>
</a>
</g>
</g>
<!-- Node4&#45;&gt;Node20 -->
<g id="edge20" class="edge">
<title>Node4&#45;&gt;Node20</title>
<path fill="none" stroke="midnightblue" d="M863.91,-286.61C811.53,-274.54 735.47,-257 686.87,-245.8"/>
<polygon fill="midnightblue" stroke="midnightblue" points="687.46,-242.35 676.93,-243.51 685.89,-249.17 687.46,-242.35"/>
</g>
<!-- Node23 -->
<g id="node23" class="node">
<title>Node23</title>
<g id="a_node23"><a xlink:href="../../d5/de2/ViewCursor_8h.html" target="_top" xlink:title=" ">
<polygon fill="white" stroke="black" points="532,-168.5 532,-187.5 612,-187.5 612,-168.5 532,-168.5"/>
<text text-anchor="middle" x="572" y="-175.5" font-family="Helvetica,sans-Serif" font-size="10.00">ViewCursor.h</text>
</a>
</g>
</g>
<!-- Node4&#45;&gt;Node23 -->
<g id="edge33" class="edge">
<title>Node4&#45;&gt;Node23</title>
<path fill="none" stroke="midnightblue" d="M863.88,-298.09C778.18,-294.04 623.84,-281.59 585,-244 572.86,-232.25 570.37,-212.61 570.45,-197.99"/>
<polygon fill="midnightblue" stroke="midnightblue" points="573.97,-197.73 570.93,-187.58 566.97,-197.41 573.97,-197.73"/>
</g>
<!-- Node25 -->
<g id="node25" class="node">
<title>Node25</title>
<g id="a_node25"><a xlink:href="../../d0/d10/ViewStructure_8h.html" target="_top" xlink:title=" ">
<polygon fill="white" stroke="black" points="816,-112.5 816,-131.5 910,-131.5 910,-112.5 816,-112.5"/>
<text text-anchor="middle" x="863" y="-119.5" font-family="Helvetica,sans-Serif" font-size="10.00">ViewStructure.h</text>
</a>
</g>
</g>
<!-- Node4&#45;&gt;Node25 -->
<g id="edge34" class="edge">
<title>Node4&#45;&gt;Node25</title>
<path fill="none" stroke="midnightblue" d="M980.12,-292.31C1031.35,-282.83 1094.33,-262.95 1070,-224 1067.39,-219.82 946.02,-162.17 890.36,-135.89"/>
<polygon fill="midnightblue" stroke="midnightblue" points="891.63,-132.62 881.09,-131.52 888.64,-138.95 891.63,-132.62"/>
</g>
<!-- Node26 -->
<g id="node26" class="node">
<title>Node26</title>
<g id="a_node26"><a xlink:href="../../d8/dee/VirtualObject_8h.html" target="_top" xlink:title=" ">
<polygon fill="white" stroke="black" points="1178.5,-168.5 1178.5,-187.5 1267.5,-187.5 1267.5,-168.5 1178.5,-168.5"/>
<text text-anchor="middle" x="1223" y="-175.5" font-family="Helvetica,sans-Serif" font-size="10.00">VirtualObject.h</text>
</a>
</g>
</g>
<!-- Node4&#45;&gt;Node26 -->
<g id="edge35" class="edge">
<title>Node4&#45;&gt;Node26</title>
<path fill="none" stroke="midnightblue" d="M980.16,-298.3C1062.25,-294.53 1205.74,-282.48 1238,-244 1249.12,-230.73 1242.14,-210.79 1234.4,-196.5"/>
<polygon fill="midnightblue" stroke="midnightblue" points="1237.26,-194.46 1229.14,-187.66 1231.25,-198.04 1237.26,-194.46"/>
</g>
<!-- Node7 -->
<g id="node7" class="node">
<title>Node7</title>
<g id="a_node7"><a xlink:title=" ">
<polygon fill="white" stroke="#bfbfbf" points="1106,-168.5 1106,-187.5 1160,-187.5 1160,-168.5 1106,-168.5"/>
<text text-anchor="middle" x="1133" y="-175.5" font-family="Helvetica,sans-Serif" font-size="10.00">istream</text>
</a>
</g>
</g>
<!-- Node6&#45;&gt;Node7 -->
<g id="edge6" class="edge">
<title>Node6&#45;&gt;Node7</title>
<path fill="none" stroke="midnightblue" d="M1167.23,-224.08C1161.44,-216.46 1152.94,-205.26 1145.86,-195.94"/>
<polygon fill="midnightblue" stroke="midnightblue" points="1148.48,-193.6 1139.64,-187.75 1142.9,-197.83 1148.48,-193.6"/>
</g>
<!-- Node8 -->
<g id="node8" class="node">
<title>Node8</title>
<g id="a_node8"><a xlink:title=" ">
<polygon fill="white" stroke="#bfbfbf" points="954,-56.5 954,-75.5 998,-75.5 998,-56.5 954,-56.5"/>
<text text-anchor="middle" x="976" y="-63.5" font-family="Helvetica,sans-Serif" font-size="10.00">string</text>
</a>
</g>
</g>
<!-- Node6&#45;&gt;Node8 -->
<g id="edge7" class="edge">
<title>Node6&#45;&gt;Node8</title>
<path fill="none" stroke="midnightblue" d="M1118.27,-225.98C1089.97,-219.95 1056.67,-208.75 1033,-188 1016.67,-173.69 993.78,-115.7 982.63,-85.5"/>
<polygon fill="midnightblue" stroke="midnightblue" points="985.79,-83.96 979.08,-75.76 979.21,-86.35 985.79,-83.96"/>
</g>
<!-- Node9&#45;&gt;Node5 -->
<g id="edge9" class="edge">
<title>Node9&#45;&gt;Node5</title>
<path fill="none" stroke="midnightblue" d="M723.79,-56.44C775.38,-46.8 859.11,-31.16 913.62,-20.97"/>
<polygon fill="midnightblue" stroke="midnightblue" points="914.59,-24.35 923.78,-19.08 913.31,-17.47 914.59,-24.35"/>
</g>
<!-- Node9&#45;&gt;Node10 -->
<g id="edge10" class="edge">
<title>Node9&#45;&gt;Node10</title>
<path fill="none" stroke="midnightblue" d="M731.08,-57.13C734.09,-56.73 737.08,-56.35 740,-56 877.59,-39.31 1038.88,-24.69 1129.59,-16.93"/>
<polygon fill="midnightblue" stroke="midnightblue" points="1130.09,-20.4 1139.75,-16.06 1129.49,-13.42 1130.09,-20.4"/>
</g>
<!-- Node11 -->
<g id="node11" class="node">
<title>Node11</title>
<g id="a_node11"><a xlink:title=" ">
<polygon fill="white" stroke="#bfbfbf" points="463,-0.5 463,-19.5 585,-19.5 585,-0.5 463,-0.5"/>
<text text-anchor="middle" x="524" y="-7.5" font-family="Helvetica,sans-Serif" font-size="10.00">rapidjson/document.h</text>
</a>
</g>
</g>
<!-- Node9&#45;&gt;Node11 -->
<g id="edge11" class="edge">
<title>Node9&#45;&gt;Node11</title>
<path fill="none" stroke="midnightblue" d="M653.6,-56.44C627.8,-47.4 586.92,-33.06 557.98,-22.92"/>
<polygon fill="midnightblue" stroke="midnightblue" points="558.88,-19.52 548.29,-19.52 556.57,-26.13 558.88,-19.52"/>
</g>
<!-- Node9&#45;&gt;Node12 -->
<g id="edge12" class="edge">
<title>Node9&#45;&gt;Node12</title>
<path fill="none" stroke="midnightblue" d="M731.07,-57.02C734.09,-56.66 737.08,-56.31 740,-56 975.22,-30.99 1035.11,-37.56 1271,-20 1288.97,-18.66 1308.57,-17.11 1326.23,-15.67"/>
<polygon fill="midnightblue" stroke="midnightblue" points="1326.7,-19.14 1336.38,-14.84 1326.12,-12.16 1326.7,-19.14"/>
</g>
<!-- Node13 -->
<g id="node13" class="node">
<title>Node13</title>
<g id="a_node13"><a xlink:title=" ">
<polygon fill="white" stroke="#bfbfbf" points="603,-0.5 603,-19.5 753,-19.5 753,-0.5 603,-0.5"/>
<text text-anchor="middle" x="678" y="-7.5" font-family="Helvetica,sans-Serif" font-size="10.00">rapidjson/istreamwrapper.h</text>
</a>
</g>
</g>
<!-- Node9&#45;&gt;Node13 -->
<g id="edge13" class="edge">
<title>Node9&#45;&gt;Node13</title>
<path fill="none" stroke="midnightblue" d="M678,-56.08C678,-49.01 678,-38.86 678,-29.99"/>
<polygon fill="midnightblue" stroke="midnightblue" points="681.5,-29.75 678,-19.75 674.5,-29.75 681.5,-29.75"/>
</g>
<!-- Node14 -->
<g id="node14" class="node">
<title>Node14</title>
<g id="a_node14"><a xlink:title=" ">
<polygon fill="white" stroke="#bfbfbf" points="770.5,-0.5 770.5,-19.5 877.5,-19.5 877.5,-0.5 770.5,-0.5"/>
<text text-anchor="middle" x="824" y="-7.5" font-family="Helvetica,sans-Serif" font-size="10.00">rapidjson/pointer.h</text>
</a>
</g>
</g>
<!-- Node9&#45;&gt;Node14 -->
<g id="edge14" class="edge">
<title>Node9&#45;&gt;Node14</title>
<path fill="none" stroke="midnightblue" d="M701.13,-56.44C725.48,-47.44 764.01,-33.19 791.42,-23.05"/>
<polygon fill="midnightblue" stroke="midnightblue" points="792.81,-26.27 800.97,-19.52 790.38,-19.7 792.81,-26.27"/>
</g>
<!-- Node20&#45;&gt;Node8 -->
<g id="edge22" class="edge">
<title>Node20&#45;&gt;Node8</title>
<path fill="none" stroke="midnightblue" d="M683.27,-224.44C740.92,-211.53 844.34,-182.98 919,-132 937.71,-119.23 954.17,-98.92 964.53,-84.4"/>
<polygon fill="midnightblue" stroke="midnightblue" points="967.64,-86.06 970.42,-75.84 961.87,-82.09 967.64,-86.06"/>
</g>
<!-- Node20&#45;&gt;Node9 -->
<g id="edge21" class="edge">
<title>Node20&#45;&gt;Node9</title>
<path fill="none" stroke="midnightblue" d="M642.04,-224.08C648.02,-197.95 665.59,-121.21 673.75,-85.58"/>
<polygon fill="midnightblue" stroke="midnightblue" points="677.22,-86.1 676.04,-75.57 670.4,-84.53 677.22,-86.1"/>
</g>
<!-- Node20&#45;&gt;Node21 -->
<g id="edge23" class="edge">
<title>Node20&#45;&gt;Node21</title>
<path fill="none" stroke="midnightblue" d="M686.29,-227.12C772.82,-216.12 957.12,-192.71 1032.17,-183.17"/>
<polygon fill="midnightblue" stroke="midnightblue" points="1032.95,-186.6 1042.42,-181.87 1032.06,-179.66 1032.95,-186.6"/>
</g>
<!-- Node22 -->
<g id="node22" class="node">
<title>Node22</title>
<g id="a_node22"><a xlink:title=" ">
<polygon fill="white" stroke="#bfbfbf" points="570.5,-112.5 570.5,-131.5 617.5,-131.5 617.5,-112.5 570.5,-112.5"/>
<text text-anchor="middle" x="594" y="-119.5" font-family="Helvetica,sans-Serif" font-size="10.00">vector</text>
</a>
</g>
</g>
<!-- Node20&#45;&gt;Node22 -->
<g id="edge24" class="edge">
<title>Node20&#45;&gt;Node22</title>
<path fill="none" stroke="midnightblue" d="M638.21,-224.34C635.43,-211.65 629.48,-187.39 621,-168 616.8,-158.4 610.93,-148.35 605.73,-140.18"/>
<polygon fill="midnightblue" stroke="midnightblue" points="608.5,-138.03 600.08,-131.6 602.66,-141.88 608.5,-138.03"/>
</g>
<!-- Node20&#45;&gt;Node23 -->
<g id="edge25" class="edge">
<title>Node20&#45;&gt;Node23</title>
<path fill="none" stroke="midnightblue" d="M629.07,-224.32C618.83,-216.18 603.28,-203.84 591,-194.09"/>
<polygon fill="midnightblue" stroke="midnightblue" points="593.13,-191.31 583.12,-187.83 588.78,-196.79 593.13,-191.31"/>
</g>
<!-- Node23&#45;&gt;Node9 -->
<g id="edge26" class="edge">
<title>Node23&#45;&gt;Node9</title>
<path fill="none" stroke="midnightblue" d="M566.82,-168.15C559.74,-154.78 549.21,-129.17 561,-112 573.44,-93.88 594.28,-83.05 614.95,-76.59"/>
<polygon fill="midnightblue" stroke="midnightblue" points="616.05,-79.91 624.73,-73.83 614.15,-73.18 616.05,-79.91"/>
</g>
<!-- Node23&#45;&gt;Node22 -->
<g id="edge28" class="edge">
<title>Node23&#45;&gt;Node22</title>
<path fill="none" stroke="midnightblue" d="M575.63,-168.08C578.61,-160.77 582.93,-150.18 586.62,-141.1"/>
<polygon fill="midnightblue" stroke="midnightblue" points="589.9,-142.33 590.43,-131.75 583.42,-139.69 589.9,-142.33"/>
</g>
<!-- Node23&#45;&gt;Node24 -->
<g id="edge27" class="edge">
<title>Node23&#45;&gt;Node24</title>
<path fill="none" stroke="midnightblue" d="M531.82,-172.86C470.87,-166.3 351.24,-152.32 240.41,-132.11"/>
<polygon fill="midnightblue" stroke="midnightblue" points="240.87,-128.64 230.4,-130.26 239.6,-135.52 240.87,-128.64"/>
</g>
<!-- Node23&#45;&gt;Node25 -->
<g id="edge29" class="edge">
<title>Node23&#45;&gt;Node25</title>
<path fill="none" stroke="midnightblue" d="M612.16,-169.55C662.75,-160.16 749.98,-143.97 807.08,-133.38"/>
<polygon fill="midnightblue" stroke="midnightblue" points="807.83,-136.8 817.03,-131.53 806.55,-129.91 807.83,-136.8"/>
</g>
<!-- Node25&#45;&gt;Node8 -->
<g id="edge31" class="edge">
<title>Node25&#45;&gt;Node8</title>
<path fill="none" stroke="midnightblue" d="M880.91,-112.44C899.25,-103.68 928.01,-89.94 949.09,-79.86"/>
<polygon fill="midnightblue" stroke="midnightblue" points="950.67,-82.99 958.18,-75.52 947.65,-76.67 950.67,-82.99"/>
</g>
<!-- Node25&#45;&gt;Node9 -->
<g id="edge30" class="edge">
<title>Node25&#45;&gt;Node9</title>
<path fill="none" stroke="midnightblue" d="M833.69,-112.44C802.16,-103.24 751.87,-88.56 717.01,-78.39"/>
<polygon fill="midnightblue" stroke="midnightblue" points="717.76,-74.96 707.18,-75.52 715.8,-81.68 717.76,-74.96"/>
</g>
<!-- Node25&#45;&gt;Node18 -->
<g id="edge32" class="edge">
<title>Node25&#45;&gt;Node18</title>
<path fill="none" stroke="midnightblue" d="M852.24,-112.32C842.23,-104.26 827.11,-92.08 815.07,-82.37"/>
<polygon fill="midnightblue" stroke="midnightblue" points="816.94,-79.38 806.96,-75.83 812.55,-84.83 816.94,-79.38"/>
</g>
<!-- Node26&#45;&gt;Node5 -->
<g id="edge36" class="edge">
<title>Node26&#45;&gt;Node5</title>
<path fill="none" stroke="midnightblue" d="M1209.6,-168.31C1167.95,-141.3 1040.51,-58.67 988.97,-25.25"/>
<polygon fill="midnightblue" stroke="midnightblue" points="990.57,-22.11 980.27,-19.61 986.76,-27.98 990.57,-22.11"/>
</g>
<!-- Node26&#45;&gt;Node8 -->
<g id="edge38" class="edge">
<title>Node26&#45;&gt;Node8</title>
<path fill="none" stroke="midnightblue" d="M1203.62,-168.37C1160.33,-149.09 1055.61,-102.45 1004.72,-79.79"/>
<polygon fill="midnightblue" stroke="midnightblue" points="1005.85,-76.46 995.29,-75.59 1003,-82.86 1005.85,-76.46"/>
</g>
<!-- Node26&#45;&gt;Node9 -->
<g id="edge37" class="edge">
<title>Node26&#45;&gt;Node9</title>
<path fill="none" stroke="midnightblue" d="M1178.25,-169.31C1175.12,-168.84 1172.01,-168.4 1169,-168 1008.73,-146.7 962.25,-177.14 807,-132 766.86,-120.33 724.29,-96.3 699.48,-80.95"/>
<polygon fill="midnightblue" stroke="midnightblue" points="701.21,-77.9 690.89,-75.54 697.48,-83.83 701.21,-77.9"/>
</g>
<!-- Node26&#45;&gt;Node25 -->
<g id="edge39" class="edge">
<title>Node26&#45;&gt;Node25</title>
<path fill="none" stroke="midnightblue" d="M1178.22,-169.47C1175.1,-168.97 1172,-168.47 1169,-168 1082.5,-154.43 982.04,-139.89 920.5,-131.12"/>
<polygon fill="midnightblue" stroke="midnightblue" points="920.61,-127.6 910.22,-129.66 919.63,-134.53 920.61,-127.6"/>
</g>
<!-- Node28&#45;&gt;Node8 -->
<g id="edge46" class="edge">
<title>Node28&#45;&gt;Node8</title>
<path fill="none" stroke="midnightblue" d="M553.64,-284.8C596.15,-275.33 649.31,-261.59 695,-244 712.81,-237.14 715.39,-231.35 733,-224 782.04,-203.55 798.32,-209.3 847,-188 892.96,-167.89 910.87,-168.76 945,-132 957.47,-118.57 965.83,-99.2 970.69,-85.1"/>
<polygon fill="midnightblue" stroke="midnightblue" points="974.04,-86.12 973.74,-75.53 967.37,-84 974.04,-86.12"/>
</g>
<!-- Node28&#45;&gt;Node17 -->
<g id="edge45" class="edge">
<title>Node28&#45;&gt;Node17</title>
<path fill="none" stroke="midnightblue" d="M476,-280.5C476,-272.07 476,-262.24 476,-253.87"/>
<polygon fill="midnightblue" stroke="midnightblue" points="479.5,-253.65 476,-243.65 472.5,-253.65 479.5,-253.65"/>
</g>
<!-- Node28&#45;&gt;Node18 -->
<g id="edge47" class="edge">
<title>Node28&#45;&gt;Node18</title>
<path fill="none" stroke="midnightblue" d="M457.41,-280.43C449.14,-270.37 440.3,-257.43 436,-244 424.71,-208.76 443.91,-194.24 470,-168 503.48,-134.32 516.73,-129.19 561,-112 577.43,-105.62 675.31,-87.93 739.46,-76.72"/>
<polygon fill="midnightblue" stroke="midnightblue" points="740.19,-80.15 749.45,-74.98 738.99,-73.25 740.19,-80.15"/>
</g>
<!-- Node28&#45;&gt;Node22 -->
<g id="edge49" class="edge">
<title>Node28&#45;&gt;Node22</title>
<path fill="none" stroke="midnightblue" d="M457.59,-280.28C445.4,-264.73 433.3,-242.63 443,-224 467.3,-177.33 524.05,-148.6 560.64,-134.24"/>
<polygon fill="midnightblue" stroke="midnightblue" points="562.26,-137.37 570.38,-130.57 559.79,-130.82 562.26,-137.37"/>
</g>
<!-- Node28&#45;&gt;Node29 -->
<g id="edge48" class="edge">
<title>Node28&#45;&gt;Node29</title>
<path fill="none" stroke="midnightblue" d="M404.89,-280.5C364.06,-269.3 314.25,-255.64 279.93,-246.22"/>
<polygon fill="midnightblue" stroke="midnightblue" points="280.81,-242.84 270.24,-243.57 278.95,-249.59 280.81,-242.84"/>
</g>
<!-- Node30&#45;&gt;Node5 -->
<g id="edge51" class="edge">
<title>Node30&#45;&gt;Node5</title>
<path fill="none" stroke="midnightblue" d="M371.12,-168.4C378.26,-154.42 394.29,-126.82 416,-112 492.24,-59.96 525.54,-74.36 616,-56 671.7,-44.69 830.25,-26.22 913.88,-16.85"/>
<polygon fill="midnightblue" stroke="midnightblue" points="914.39,-20.32 923.93,-15.73 913.61,-13.36 914.39,-20.32"/>
</g>
<!-- Node30&#45;&gt;Node9 -->
<g id="edge54" class="edge">
<title>Node30&#45;&gt;Node9</title>
<path fill="none" stroke="midnightblue" d="M375.53,-168.27C389.91,-154.1 420.52,-126.24 452,-112 503.96,-88.5 568.12,-77.22 614.79,-71.84"/>
<polygon fill="midnightblue" stroke="midnightblue" points="615.21,-75.31 624.77,-70.74 614.45,-68.35 615.21,-75.31"/>
</g>
<!-- Node30&#45;&gt;Node24 -->
<g id="edge53" class="edge">
<title>Node30&#45;&gt;Node24</title>
<path fill="none" stroke="midnightblue" d="M340.7,-168.44C312.65,-159.32 268.06,-144.81 236.82,-134.65"/>
<polygon fill="midnightblue" stroke="midnightblue" points="237.77,-131.28 227.18,-131.52 235.61,-137.94 237.77,-131.28"/>
</g>
<!-- Node31 -->
<g id="node31" class="node">
<title>Node31</title>
<g id="a_node31"><a xlink:title=" ">
<polygon fill="white" stroke="#bfbfbf" points="248,-112.5 248,-131.5 362,-131.5 362,-112.5 248,-112.5"/>
<text text-anchor="middle" x="305" y="-119.5" font-family="Helvetica,sans-Serif" font-size="10.00">boost/operators.hpp</text>
</a>
</g>
</g>
<!-- Node30&#45;&gt;Node31 -->
<g id="edge52" class="edge">
<title>Node30&#45;&gt;Node31</title>
<path fill="none" stroke="midnightblue" d="M357.04,-168.32C347.87,-160.34 334.06,-148.31 322.97,-138.65"/>
<polygon fill="midnightblue" stroke="midnightblue" points="324.98,-135.76 315.14,-131.83 320.38,-141.04 324.98,-135.76"/>
</g>
<!-- Node32&#45;&gt;Node3 -->
<g id="edge61" class="edge">
<title>Node32&#45;&gt;Node3</title>
<path fill="none" stroke="midnightblue" d="M191.57,-414.47C230.88,-403.99 283.91,-389.84 320.32,-380.12"/>
<polygon fill="midnightblue" stroke="midnightblue" points="321.36,-383.47 330.12,-377.51 319.55,-376.7 321.36,-383.47"/>
</g>
<!-- Node32&#45;&gt;Node24 -->
<g id="edge57" class="edge">
<title>Node32&#45;&gt;Node24</title>
<path fill="none" stroke="midnightblue" d="M137.35,-414.48C134.75,-391.17 130,-342.95 130,-302 130,-302 130,-302 130,-233 130,-194.1 161.73,-158.05 182.77,-138.43"/>
<polygon fill="midnightblue" stroke="midnightblue" points="185.11,-141.02 190.22,-131.74 180.44,-135.81 185.11,-141.02"/>
</g>
<!-- Node32&#45;&gt;Node33 -->
<g id="edge58" class="edge">
<title>Node32&#45;&gt;Node33</title>
<path fill="none" stroke="midnightblue" d="M118.15,-414.4C104.3,-405.04 86.19,-392.79 72.26,-383.38"/>
<polygon fill="midnightblue" stroke="midnightblue" points="74.05,-380.36 63.8,-377.66 70.13,-386.16 74.05,-380.36"/>
</g>
<!-- Node33&#45;&gt;Node24 -->
<g id="edge60" class="edge">
<title>Node33&#45;&gt;Node24</title>
<path fill="none" stroke="midnightblue" d="M55.87,-358.25C60.7,-349.33 68.05,-335 73,-322 98.27,-255.58 71.42,-223.34 116,-168 128,-153.11 146.27,-142.53 162.8,-135.4"/>
<polygon fill="midnightblue" stroke="midnightblue" points="164.31,-138.56 172.28,-131.58 161.69,-132.07 164.31,-138.56"/>
</g>
<!-- Node34 -->
<g id="node34" class="node">
<title>Node34</title>
<g id="a_node34"><a xlink:title=" ">
<polygon fill="white" stroke="#bfbfbf" points="12,-291.5 12,-310.5 64,-310.5 64,-291.5 12,-291.5"/>
<text text-anchor="middle" x="38" y="-298.5" font-family="Helvetica,sans-Serif" font-size="10.00">cassert</text>
</a>
</g>
</g>
<!-- Node33&#45;&gt;Node34 -->
<g id="edge59" class="edge">
<title>Node33&#45;&gt;Node34</title>
<path fill="none" stroke="midnightblue" d="M49.25,-358.23C47.34,-348.68 44.22,-333.12 41.76,-320.78"/>
<polygon fill="midnightblue" stroke="midnightblue" points="45.12,-319.75 39.73,-310.63 38.25,-321.12 45.12,-319.75"/>
</g>
</g>
</svg>
