<?xml version="1.0" encoding="UTF-8" standalone="no"?>
<!DOCTYPE svg PUBLIC "-//W3C//DTD SVG 1.1//EN"
 "http://www.w3.org/Graphics/SVG/1.1/DTD/svg11.dtd">
<!-- Generated by graphviz version 2.43.0 (0)
 -->
<!-- Title: /home/nico/projects/JODA&#45;gh/libs/joda/core/modules/misc/src/JSONFileWriter.cpp Pages: 1 -->
<svg width="436pt" height="173pt"
 viewBox="0.00 0.00 436.00 173.00" xmlns="http://www.w3.org/2000/svg" xmlns:xlink="http://www.w3.org/1999/xlink">
<g id="graph0" class="graph" transform="scale(1 1) rotate(0) translate(4 169)">
<title>/home/nico/projects/JODA&#45;gh/libs/joda/core/modules/misc/src/JSONFileWriter.cpp</title>
<polygon fill="white" stroke="transparent" points="-4,4 -4,-169 432,-169 432,4 -4,4"/>
<!-- Node1 -->
<g id="node1" class="node">
<title>Node1</title>
<g id="a_node1"><a xlink:title=" ">
<polygon fill="#bfbfbf" stroke="black" points="159,-123.5 159,-164.5 358,-164.5 358,-123.5 159,-123.5"/>
<text text-anchor="start" x="167" y="-152.5" font-family="Helvetica,sans-Serif" font-size="10.00">/home/nico/projects</text>
<text text-anchor="start" x="167" y="-141.5" font-family="Helvetica,sans-Serif" font-size="10.00">/JODA&#45;gh/libs/joda/core</text>
<text text-anchor="middle" x="258.5" y="-130.5" font-family="Helvetica,sans-Serif" font-size="10.00">/modules/misc/src/JSONFileWriter.cpp</text>
</a>
</g>
</g>
<!-- Node2 -->
<g id="node2" class="node">
<title>Node2</title>
<g id="a_node2"><a xlink:href="../../de/d66/JSONFileWriter_8h.html" target="_top" xlink:title=" ">
<polygon fill="white" stroke="black" points="0,-56.5 0,-86.5 111,-86.5 111,-56.5 0,-56.5"/>
<text text-anchor="start" x="8" y="-74.5" font-family="Helvetica,sans-Serif" font-size="10.00">../include/joda/misc</text>
<text text-anchor="middle" x="55.5" y="-63.5" font-family="Helvetica,sans-Serif" font-size="10.00">/JSONFileWriter.h</text>
</a>
</g>
</g>
<!-- Node1&#45;&gt;Node2 -->
<g id="edge1" class="edge">
<title>Node1&#45;&gt;Node2</title>
<path fill="none" stroke="midnightblue" d="M202.22,-123.46C171.97,-112.95 134.97,-100.1 105.7,-89.93"/>
<polygon fill="midnightblue" stroke="midnightblue" points="106.69,-86.57 96.09,-86.6 104.39,-93.18 106.69,-86.57"/>
</g>
<!-- Node5 -->
<g id="node5" class="node">
<title>Node5</title>
<g id="a_node5"><a xlink:title=" ">
<polygon fill="white" stroke="#bfbfbf" points="129.5,-62 129.5,-81 215.5,-81 215.5,-62 129.5,-62"/>
<text text-anchor="middle" x="172.5" y="-69" font-family="Helvetica,sans-Serif" font-size="10.00">glog/logging.h</text>
</a>
</g>
</g>
<!-- Node1&#45;&gt;Node5 -->
<g id="edge4" class="edge">
<title>Node1&#45;&gt;Node5</title>
<path fill="none" stroke="midnightblue" d="M234.54,-123.36C220.81,-112.11 203.84,-98.19 191.12,-87.76"/>
<polygon fill="midnightblue" stroke="midnightblue" points="193.03,-84.81 183.08,-81.17 188.59,-90.22 193.03,-84.81"/>
</g>
<!-- Node6 -->
<g id="node6" class="node">
<title>Node6</title>
<g id="a_node6"><a xlink:title=" ">
<polygon fill="white" stroke="#bfbfbf" points="233.5,-62 233.5,-81 283.5,-81 283.5,-62 233.5,-62"/>
<text text-anchor="middle" x="258.5" y="-69" font-family="Helvetica,sans-Serif" font-size="10.00">cstring</text>
</a>
</g>
</g>
<!-- Node1&#45;&gt;Node6 -->
<g id="edge5" class="edge">
<title>Node1&#45;&gt;Node6</title>
<path fill="none" stroke="midnightblue" d="M258.5,-123.36C258.5,-113.3 258.5,-101.1 258.5,-91.18"/>
<polygon fill="midnightblue" stroke="midnightblue" points="262,-91.17 258.5,-81.17 255,-91.17 262,-91.17"/>
</g>
<!-- Node7 -->
<g id="node7" class="node">
<title>Node7</title>
<g id="a_node7"><a xlink:title=" ">
<polygon fill="white" stroke="#bfbfbf" points="302,-62 302,-81 357,-81 357,-62 302,-62"/>
<text text-anchor="middle" x="329.5" y="-69" font-family="Helvetica,sans-Serif" font-size="10.00">fstream</text>
</a>
</g>
</g>
<!-- Node1&#45;&gt;Node7 -->
<g id="edge6" class="edge">
<title>Node1&#45;&gt;Node7</title>
<path fill="none" stroke="midnightblue" d="M278.28,-123.36C289.39,-112.32 303.09,-98.72 313.52,-88.37"/>
<polygon fill="midnightblue" stroke="midnightblue" points="316.14,-90.7 320.77,-81.17 311.2,-85.74 316.14,-90.7"/>
</g>
<!-- Node8 -->
<g id="node8" class="node">
<title>Node8</title>
<g id="a_node8"><a xlink:title=" ">
<polygon fill="white" stroke="#bfbfbf" points="375,-62 375,-81 428,-81 428,-62 375,-62"/>
<text text-anchor="middle" x="401.5" y="-69" font-family="Helvetica,sans-Serif" font-size="10.00">iterator</text>
</a>
</g>
</g>
<!-- Node1&#45;&gt;Node8 -->
<g id="edge7" class="edge">
<title>Node1&#45;&gt;Node8</title>
<path fill="none" stroke="midnightblue" d="M298.33,-123.36C322.7,-111.35 353.21,-96.3 374.72,-85.7"/>
<polygon fill="midnightblue" stroke="midnightblue" points="376.49,-88.73 383.91,-81.17 373.39,-82.46 376.49,-88.73"/>
</g>
<!-- Node3 -->
<g id="node3" class="node">
<title>Node3</title>
<g id="a_node3"><a xlink:title=" ">
<polygon fill="white" stroke="#bfbfbf" points="1.5,-0.5 1.5,-19.5 45.5,-19.5 45.5,-0.5 1.5,-0.5"/>
<text text-anchor="middle" x="23.5" y="-7.5" font-family="Helvetica,sans-Serif" font-size="10.00">string</text>
</a>
</g>
</g>
<!-- Node2&#45;&gt;Node3 -->
<g id="edge2" class="edge">
<title>Node2&#45;&gt;Node3</title>
<path fill="none" stroke="midnightblue" d="M47.92,-56.4C43.46,-48.11 37.78,-37.55 33.02,-28.71"/>
<polygon fill="midnightblue" stroke="midnightblue" points="35.98,-26.81 28.16,-19.66 29.81,-30.12 35.98,-26.81"/>
</g>
<!-- Node4 -->
<g id="node4" class="node">
<title>Node4</title>
<g id="a_node4"><a xlink:title=" ">
<polygon fill="white" stroke="#bfbfbf" points="64,-0.5 64,-19.5 111,-19.5 111,-0.5 64,-0.5"/>
<text text-anchor="middle" x="87.5" y="-7.5" font-family="Helvetica,sans-Serif" font-size="10.00">vector</text>
</a>
</g>
</g>
<!-- Node2&#45;&gt;Node4 -->
<g id="edge3" class="edge">
<title>Node2&#45;&gt;Node4</title>
<path fill="none" stroke="midnightblue" d="M63.08,-56.4C67.54,-48.11 73.22,-37.55 77.98,-28.71"/>
<polygon fill="midnightblue" stroke="midnightblue" points="81.19,-30.12 82.84,-19.66 75.02,-26.81 81.19,-30.12"/>
</g>
</g>
</svg>
