<?xml version="1.0" encoding="UTF-8" standalone="no"?>
<!DOCTYPE svg PUBLIC "-//W3C//DTD SVG 1.1//EN"
 "http://www.w3.org/Graphics/SVG/1.1/DTD/svg11.dtd">
<!-- Generated by graphviz version 2.43.0 (0)
 -->
<!-- Title: QueryThread Pages: 1 -->
<svg width="760pt" height="157pt"
 viewBox="0.00 0.00 760.00 157.08" xmlns="http://www.w3.org/2000/svg" xmlns:xlink="http://www.w3.org/1999/xlink">
<g id="graph0" class="graph" transform="scale(1 1) rotate(0) translate(4 153.08)">
<title>QueryThread</title>
<polygon fill="white" stroke="transparent" points="-4,4 -4,-153.08 756,-153.08 756,4 -4,4"/>
<!-- Node1 -->
<g id="node1" class="node">
<title>Node1</title>
<g id="a_node1"><a xlink:title=" ">
<polygon fill="#bfbfbf" stroke="black" points="672,-54.58 672,-73.58 752,-73.58 752,-54.58 672,-54.58"/>
<text text-anchor="middle" x="712" y="-61.58" font-family="Helvetica,sans-Serif" font-size="10.00">QueryThread</text>
</a>
</g>
</g>
<!-- Node2 -->
<g id="node2" class="node">
<title>Node2</title>
<g id="a_node2"><a xlink:href="../../db/de4/classIWorkerThread.html" target="_top" xlink:title=" ">
<polygon fill="white" stroke="black" points="372,-95.58 372,-136.58 545,-136.58 545,-95.58 372,-95.58"/>
<text text-anchor="start" x="380" y="-124.58" font-family="Helvetica,sans-Serif" font-size="10.00">IWorkerThread&lt; JsonContainer</text>
<text text-anchor="start" x="380" y="-113.58" font-family="Helvetica,sans-Serif" font-size="10.00">RefQueue, JsonContainerQueue,</text>
<text text-anchor="middle" x="458.5" y="-102.58" font-family="Helvetica,sans-Serif" font-size="10.00"> QueryThreadConfig &gt;</text>
</a>
</g>
</g>
<!-- Node2&#45;&gt;Node1 -->
<g id="edge1" class="edge">
<title>Node2&#45;&gt;Node1</title>
<path fill="none" stroke="midnightblue" d="M555.43,-118.9C587.48,-117.3 622.93,-112.72 654,-102.08 671.78,-95.99 689.32,-82.94 700.15,-73.84"/>
<polygon fill="midnightblue" stroke="midnightblue" points="555.01,-115.41 545.16,-119.31 555.29,-122.4 555.01,-115.41"/>
</g>
<!-- Node3 -->
<g id="node3" class="node">
<title>Node3</title>
<g id="a_node3"><a xlink:href="../../db/de4/classIWorkerThread.html" target="_top" xlink:title=" ">
<polygon fill="white" stroke="black" points="0,-101.08 0,-131.08 164,-131.08 164,-101.08 0,-101.08"/>
<text text-anchor="start" x="8" y="-119.08" font-family="Helvetica,sans-Serif" font-size="10.00">IWorkerThread&lt; IQueueStruct,</text>
<text text-anchor="middle" x="82" y="-108.08" font-family="Helvetica,sans-Serif" font-size="10.00"> OQueueStruct, WConfig &gt;</text>
</a>
</g>
</g>
<!-- Node3&#45;&gt;Node2 -->
<g id="edge2" class="edge">
<title>Node3&#45;&gt;Node2</title>
<path fill="none" stroke="orange" stroke-dasharray="5,2" d="M174.52,-116.08C234.68,-116.08 312.9,-116.08 371.84,-116.08"/>
<polygon fill="orange" stroke="orange" points="174.26,-112.58 164.26,-116.08 174.26,-119.58 174.26,-112.58"/>
<text text-anchor="start" x="182" y="-141.08" font-family="Helvetica,sans-Serif" font-size="10.00"> &lt; JsonContainerRefQueue,</text>
<text text-anchor="start" x="182" y="-130.08" font-family="Helvetica,sans-Serif" font-size="10.00"> JsonContainerQueue, QueryThread</text>
<text text-anchor="middle" x="268" y="-119.08" font-family="Helvetica,sans-Serif" font-size="10.00">Config &gt;</text>
</g>
<!-- Node4 -->
<g id="node4" class="node">
<title>Node4</title>
<g id="a_node4"><a xlink:href="../../d8/df5/classRecurringTimer.html" target="_top" xlink:title=" ">
<polygon fill="white" stroke="black" points="412.5,-3.58 412.5,-22.58 504.5,-22.58 504.5,-3.58 412.5,-3.58"/>
<text text-anchor="middle" x="458.5" y="-10.58" font-family="Helvetica,sans-Serif" font-size="10.00">RecurringTimer</text>
</a>
</g>
</g>
<!-- Node4&#45;&gt;Node1 -->
<g id="edge3" class="edge">
<title>Node4&#45;&gt;Node1</title>
<path fill="none" stroke="#9a32cd" stroke-dasharray="5,2" d="M514.86,-3.3C554.84,1.4 609.42,2.84 654,-14.08 675.42,-22.2 694.05,-42.38 703.79,-54.47"/>
<polygon fill="#9a32cd" stroke="#9a32cd" points="514.24,0.15 504.77,-4.59 515.13,-6.79 514.24,0.15"/>
<text text-anchor="middle" x="608.5" y="-94.08" font-family="Helvetica,sans-Serif" font-size="10.00"> aggregate_timer</text>
<text text-anchor="middle" x="608.5" y="-83.08" font-family="Helvetica,sans-Serif" font-size="10.00">bloom_timer</text>
<text text-anchor="middle" x="608.5" y="-72.08" font-family="Helvetica,sans-Serif" font-size="10.00">copy_timer</text>
<text text-anchor="middle" x="608.5" y="-61.08" font-family="Helvetica,sans-Serif" font-size="10.00">project_timer</text>
<text text-anchor="start" x="563" y="-50.08" font-family="Helvetica,sans-Serif" font-size="10.00">sample_view_cost</text>
<text text-anchor="middle" x="608.5" y="-39.08" font-family="Helvetica,sans-Serif" font-size="10.00">_timer</text>
<text text-anchor="middle" x="608.5" y="-28.08" font-family="Helvetica,sans-Serif" font-size="10.00">select_timer</text>
<text text-anchor="middle" x="608.5" y="-17.08" font-family="Helvetica,sans-Serif" font-size="10.00">serialize_timer</text>
</g>
</g>
</svg>
