<?xml version="1.0" encoding="UTF-8" standalone="no"?>
<!DOCTYPE svg PUBLIC "-//W3C//DTD SVG 1.1//EN"
 "http://www.w3.org/Graphics/SVG/1.1/DTD/svg11.dtd">
<!-- Generated by graphviz version 2.43.0 (0)
 -->
<!-- Title: joda::query::UnaryPointerAcceptProvider&lt; Calc &gt; Pages: 1 -->
<svg width="595pt" height="260pt"
 viewBox="0.00 0.00 594.58 260.00" xmlns="http://www.w3.org/2000/svg" xmlns:xlink="http://www.w3.org/1999/xlink">
<g id="graph0" class="graph" transform="scale(1 1) rotate(0) translate(4 256)">
<title>joda::query::UnaryPointerAcceptProvider&lt; Calc &gt;</title>
<polygon fill="white" stroke="transparent" points="-4,4 -4,-256 590.58,-256 590.58,4 -4,4"/>
<!-- Node1 -->
<g id="node1" class="node">
<title>Node1</title>
<g id="a_node1"><a xlink:title=" ">
<polygon fill="#bfbfbf" stroke="black" points="56.58,-78.5 56.58,-108.5 196.58,-108.5 196.58,-78.5 56.58,-78.5"/>
<text text-anchor="start" x="64.58" y="-96.5" font-family="Helvetica,sans-Serif" font-size="10.00">joda::query::UnaryPointer</text>
<text text-anchor="middle" x="126.58" y="-85.5" font-family="Helvetica,sans-Serif" font-size="10.00">AcceptProvider&lt; Calc &gt;</text>
</a>
</g>
</g>
<!-- Node2 -->
<g id="node2" class="node">
<title>Node2</title>
<g id="a_node2"><a xlink:href="../../d4/df5/classjoda_1_1query_1_1IValueProvider.html" target="_top" xlink:title=" ">
<polygon fill="white" stroke="black" points="53.08,-165.5 53.08,-184.5 200.08,-184.5 200.08,-165.5 53.08,-165.5"/>
<text text-anchor="middle" x="126.58" y="-172.5" font-family="Helvetica,sans-Serif" font-size="10.00">joda::query::IValueProvider</text>
</a>
</g>
</g>
<!-- Node2&#45;&gt;Node1 -->
<g id="edge1" class="edge">
<title>Node2&#45;&gt;Node1</title>
<path fill="none" stroke="midnightblue" d="M126.58,-155.33C126.58,-141.01 126.58,-121.56 126.58,-108.54"/>
<polygon fill="midnightblue" stroke="midnightblue" points="123.08,-155.49 126.58,-165.49 130.08,-155.49 123.08,-155.49"/>
</g>
<!-- Node4 -->
<g id="node4" class="node">
<title>Node4</title>
<g id="a_node4"><a xlink:title=" ">
<polygon fill="white" stroke="#bfbfbf" points="215.08,-78.5 215.08,-108.5 352.08,-108.5 352.08,-78.5 215.08,-78.5"/>
<text text-anchor="start" x="223.08" y="-96.5" font-family="Helvetica,sans-Serif" font-size="10.00">std::unique_ptr&lt; joda</text>
<text text-anchor="middle" x="283.58" y="-85.5" font-family="Helvetica,sans-Serif" font-size="10.00">::query::IValueProvider &gt;</text>
</a>
</g>
</g>
<!-- Node2&#45;&gt;Node4 -->
<g id="edge4" class="edge">
<title>Node2&#45;&gt;Node4</title>
<path fill="none" stroke="#9a32cd" stroke-dasharray="5,2" d="M152.33,-160.96C180.83,-146.53 226.58,-123.36 255.85,-108.54"/>
<polygon fill="#9a32cd" stroke="#9a32cd" points="150.72,-157.85 143.38,-165.49 153.88,-164.1 150.72,-157.85"/>
<text text-anchor="middle" x="228.08" y="-134.5" font-family="Helvetica,sans-Serif" font-size="10.00"> ptr</text>
</g>
<!-- Node3 -->
<g id="node3" class="node">
<title>Node3</title>
<g id="a_node3"><a xlink:title=" ">
<polygon fill="white" stroke="#bfbfbf" points="183.58,-0.5 183.58,-30.5 383.58,-30.5 383.58,-0.5 183.58,-0.5"/>
<text text-anchor="start" x="191.58" y="-18.5" font-family="Helvetica,sans-Serif" font-size="10.00">std::vector&lt; std::unique</text>
<text text-anchor="middle" x="283.58" y="-7.5" font-family="Helvetica,sans-Serif" font-size="10.00">_ptr&lt; joda::query::IValueProvider &gt; &gt;</text>
</a>
</g>
</g>
<!-- Node3&#45;&gt;Node2 -->
<g id="edge2" class="edge">
<title>Node3&#45;&gt;Node2</title>
<path fill="none" stroke="#9a32cd" stroke-dasharray="5,2" d="M172.99,-27.1C105.6,-36.11 28.53,-51.86 7.58,-78 -23.55,-116.83 54.75,-150.28 98.89,-165.4"/>
<polygon fill="#9a32cd" stroke="#9a32cd" points="173.82,-30.53 183.29,-25.77 172.92,-23.58 173.82,-30.53"/>
<text text-anchor="middle" x="27.58" y="-91" font-family="Helvetica,sans-Serif" font-size="10.00"> params</text>
</g>
<!-- Node4&#45;&gt;Node3 -->
<g id="edge3" class="edge">
<title>Node4&#45;&gt;Node3</title>
<path fill="none" stroke="#9a32cd" stroke-dasharray="5,2" d="M283.58,-68.09C283.58,-55.76 283.58,-41.22 283.58,-30.73"/>
<polygon fill="#9a32cd" stroke="#9a32cd" points="280.08,-68.2 283.58,-78.2 287.08,-68.21 280.08,-68.2"/>
<text text-anchor="middle" x="308.08" y="-52" font-family="Helvetica,sans-Serif" font-size="10.00"> elements</text>
</g>
<!-- Node5 -->
<g id="node5" class="node">
<title>Node5</title>
<g id="a_node5"><a xlink:title="STL class.">
<polygon fill="white" stroke="#bfbfbf" points="241.58,-165.5 241.58,-184.5 359.58,-184.5 359.58,-165.5 241.58,-165.5"/>
<text text-anchor="middle" x="300.58" y="-172.5" font-family="Helvetica,sans-Serif" font-size="10.00">std::unique_ptr&lt; T &gt;</text>
</a>
</g>
</g>
<!-- Node5&#45;&gt;Node4 -->
<g id="edge5" class="edge">
<title>Node5&#45;&gt;Node4</title>
<path fill="none" stroke="orange" stroke-dasharray="5,2" d="M271.06,-159.88C266.45,-156.34 262.31,-152.06 259.58,-147 252.73,-134.3 261.18,-119.27 269.88,-108.56"/>
<polygon fill="orange" stroke="orange" points="269.4,-162.97 279.69,-165.49 273.21,-157.1 269.4,-162.97"/>
<text text-anchor="middle" x="338.08" y="-134.5" font-family="Helvetica,sans-Serif" font-size="10.00"> &lt; joda::query::IValueProvider &gt;</text>
</g>
<!-- Node6 -->
<g id="node6" class="node">
<title>Node6</title>
<g id="a_node6"><a xlink:title=" ">
<polygon fill="white" stroke="#bfbfbf" points="341.08,-232.5 341.08,-251.5 370.08,-251.5 370.08,-232.5 341.08,-232.5"/>
<text text-anchor="middle" x="355.58" y="-239.5" font-family="Helvetica,sans-Serif" font-size="10.00">T</text>
</a>
</g>
</g>
<!-- Node6&#45;&gt;Node5 -->
<g id="edge6" class="edge">
<title>Node6&#45;&gt;Node5</title>
<path fill="none" stroke="#9a32cd" stroke-dasharray="5,2" d="M341.42,-224.27C330.7,-211.6 316.4,-194.7 307.88,-184.63"/>
<polygon fill="#9a32cd" stroke="#9a32cd" points="339.03,-226.86 348.16,-232.23 344.37,-222.34 339.03,-226.86"/>
<text text-anchor="middle" x="339.08" y="-206" font-family="Helvetica,sans-Serif" font-size="10.00"> ptr</text>
</g>
<!-- Node7 -->
<g id="node7" class="node">
<title>Node7</title>
<g id="a_node7"><a xlink:title="STL class.">
<polygon fill="white" stroke="#bfbfbf" points="425.08,-127.5 425.08,-146.5 522.08,-146.5 522.08,-127.5 425.08,-127.5"/>
<text text-anchor="middle" x="473.58" y="-134.5" font-family="Helvetica,sans-Serif" font-size="10.00">std::vector&lt; T &gt;</text>
</a>
</g>
</g>
<!-- Node6&#45;&gt;Node7 -->
<g id="edge8" class="edge">
<title>Node6&#45;&gt;Node7</title>
<path fill="none" stroke="#9a32cd" stroke-dasharray="5,2" d="M373.33,-225.51C398.45,-203.58 443.53,-164.22 463.54,-146.76"/>
<polygon fill="#9a32cd" stroke="#9a32cd" points="370.87,-223.01 365.64,-232.22 375.47,-228.28 370.87,-223.01"/>
<text text-anchor="middle" x="421.08" y="-206" font-family="Helvetica,sans-Serif" font-size="10.00"> elements</text>
</g>
<!-- Node7&#45;&gt;Node3 -->
<g id="edge7" class="edge">
<title>Node7&#45;&gt;Node3</title>
<path fill="none" stroke="orange" stroke-dasharray="5,2" d="M451.32,-121.72C424.27,-104.39 377.2,-74.35 336.58,-49 326.87,-42.94 316.12,-36.33 306.84,-30.66"/>
<polygon fill="orange" stroke="orange" points="449.7,-124.84 460.01,-127.29 453.48,-118.94 449.7,-124.84"/>
<text text-anchor="start" x="429.58" y="-96.5" font-family="Helvetica,sans-Serif" font-size="10.00"> &lt; std::unique_ptr&lt;</text>
<text text-anchor="middle" x="508.08" y="-85.5" font-family="Helvetica,sans-Serif" font-size="10.00"> joda::query::IValueProvider &gt; &gt;</text>
</g>
</g>
</svg>
