<?xml version="1.0" encoding="UTF-8" standalone="no"?>
<!DOCTYPE svg PUBLIC "-//W3C//DTD SVG 1.1//EN"
 "http://www.w3.org/Graphics/SVG/1.1/DTD/svg11.dtd">
<!-- Generated by graphviz version 2.43.0 (0)
 -->
<!-- Title: joda::query::providers::membercount::MemberCountCalculator::accept Pages: 1 -->
<!--zoomable 132 -->
<svg id="main" version="1.1" xmlns="http://www.w3.org/2000/svg" xmlns:xlink="http://www.w3.org/1999/xlink" xml:space="preserve" onload="init(evt)">
<style type="text/css"><![CDATA[
.edge:hover path { stroke: red; }
.edge:hover polygon { stroke: red; fill: red; }
]]></style>
<script type="text/javascript"><![CDATA[
var edges = document.getElementsByTagName('g');
if (edges && edges.length) {
  for (var i=0;i<edges.length;i++) {
    if (edges[i].id.substr(0,4)=='edge') {
      edges[i].setAttribute('class','edge');
    }
  }
}
]]></script>
        <defs>
                <circle id="rim" cx="0" cy="0" r="7"/>
                <circle id="rim2" cx="0" cy="0" r="3.5"/>
                <g id="zoomPlus">
                        <use xlink:href="#rim" fill="#404040">
                                <set attributeName="fill" to="#808080" begin="zoomplus.mouseover" end="zoomplus.mouseout"/>
                        </use>
                        <path d="M-4,0h8M0,-4v8" fill="none" stroke="white" stroke-width="1.5" pointer-events="none"/>
                </g>
                <g id="zoomMin">
                        <use xlink:href="#rim" fill="#404040">
                                <set attributeName="fill" to="#808080" begin="zoomminus.mouseover" end="zoomminus.mouseout"/>
                        </use>
                        <path d="M-4,0h8" fill="none" stroke="white" stroke-width="1.5" pointer-events="none"/>
                </g>
                <g id="dirArrow">
                        <path fill="none" stroke="white" stroke-width="1.5" d="M0,-3.0v7 M-2.5,-0.5L0,-3.0L2.5,-0.5"/>
                </g>
               <g id="resetDef">
                       <use xlink:href="#rim2" fill="#404040">
                               <set attributeName="fill" to="#808080" begin="reset.mouseover" end="reset.mouseout"/>
                       </use>
               </g>
        </defs>

<script type="text/javascript">
var viewWidth = 982;
var viewHeight = 132;
var sectionId = 'dynsection-0';
</script>
<script xlink:href="../../svgpan.js"/>
<svg id="graph" class="graph">
<g id="viewport">
<title>joda::query::providers::membercount::MemberCountCalculator::accept</title>
<polygon fill="white" stroke="transparent" points="-4,4 -4,-128 978,-128 978,4 -4,4"/>
<!-- Node1 -->
<g id="node1" class="node">
<title>Node1</title>
<g id="a_node1"><a xlink:title=" ">
<polygon fill="#bfbfbf" stroke="black" points="0,-27.5 0,-68.5 215,-68.5 215,-27.5 0,-27.5"/>
<text text-anchor="start" x="8" y="-56.5" font-family="Helvetica,sans-Serif" font-size="10.00">joda::query::providers</text>
<text text-anchor="start" x="8" y="-45.5" font-family="Helvetica,sans-Serif" font-size="10.00">::membercount::MemberCountCalculator</text>
<text text-anchor="middle" x="107.5" y="-34.5" font-family="Helvetica,sans-Serif" font-size="10.00">::accept</text>
</a>
</g>
</g>
<!-- Node2 -->
<g id="node2" class="node">
<title>Node2</title>
<g id="a_node2"><a xlink:href="../../dc/d0b/classjoda_1_1query_1_1ValueAccepter.html#a3e8e21a8dcbe565d2d7d7de1e5117f34" target="_top" xlink:title=" ">
<polygon fill="white" stroke="black" points="280,-61 280,-91 426,-91 426,-61 280,-61"/>
<text text-anchor="start" x="288" y="-79" font-family="Helvetica,sans-Serif" font-size="10.00">joda::query::ValueAccepter</text>
<text text-anchor="middle" x="353" y="-68" font-family="Helvetica,sans-Serif" font-size="10.00">::Accept</text>
</a>
</g>
</g>
<!-- Node1&#45;&gt;Node2 -->
<g id="edge1" class="edge">
<title>Node1&#45;&gt;Node2</title>
<path fill="none" stroke="midnightblue" d="M215.3,-60.28C233.57,-62.38 252.29,-64.53 269.79,-66.55"/>
<polygon fill="midnightblue" stroke="midnightblue" points="269.6,-70.05 279.94,-67.71 270.4,-63.09 269.6,-70.05"/>
</g>
<!-- Node7 -->
<g id="node7" class="node">
<title>Node7</title>
<g id="a_node7"><a xlink:href="../../d4/dd3/classjoda_1_1query_1_1providers_1_1membercount_1_1MemberCountHandler.html#a475ca31a5c5eb724263354c8666b72db" target="_top" xlink:title=" ">
<polygon fill="white" stroke="black" points="251,-0.5 251,-41.5 455,-41.5 455,-0.5 251,-0.5"/>
<text text-anchor="start" x="259" y="-29.5" font-family="Helvetica,sans-Serif" font-size="10.00">joda::query::providers</text>
<text text-anchor="start" x="259" y="-18.5" font-family="Helvetica,sans-Serif" font-size="10.00">::membercount::MemberCountHandler</text>
<text text-anchor="middle" x="353" y="-7.5" font-family="Helvetica,sans-Serif" font-size="10.00">::getCount</text>
</a>
</g>
</g>
<!-- Node1&#45;&gt;Node7 -->
<g id="edge7" class="edge">
<title>Node1&#45;&gt;Node7</title>
<path fill="none" stroke="midnightblue" d="M215.3,-36.16C223.66,-35.23 232.11,-34.29 240.5,-33.36"/>
<polygon fill="midnightblue" stroke="midnightblue" points="241.14,-36.81 250.69,-32.23 240.37,-29.86 241.14,-36.81"/>
</g>
<!-- Node3 -->
<g id="node3" class="node">
<title>Node3</title>
<g id="a_node3"><a xlink:href="../../df/d90/classjoda_1_1query_1_1PointerProvider.html#a9ab6e48263b38289831f0776ce148261" target="_top" xlink:title=" ">
<polygon fill="white" stroke="black" points="491,-61 491,-91 643,-91 643,-61 491,-61"/>
<text text-anchor="start" x="499" y="-79" font-family="Helvetica,sans-Serif" font-size="10.00">joda::query::PointerProvider</text>
<text text-anchor="middle" x="567" y="-68" font-family="Helvetica,sans-Serif" font-size="10.00">::Accept</text>
</a>
</g>
</g>
<!-- Node2&#45;&gt;Node3 -->
<g id="edge2" class="edge">
<title>Node2&#45;&gt;Node3</title>
<path fill="none" stroke="midnightblue" d="M426.07,-76C443.61,-76 462.54,-76 480.63,-76"/>
<polygon fill="midnightblue" stroke="midnightblue" points="480.88,-79.5 490.88,-76 480.88,-72.5 480.88,-79.5"/>
</g>
<!-- Node4 -->
<g id="node4" class="node">
<title>Node4</title>
<g id="a_node4"><a xlink:href="../../d7/d4e/classRapidJsonDocument.html#a717fcd803ba9a5cbe5c8403aeba630a4" target="_top" xlink:title=" ">
<polygon fill="white" stroke="black" points="679,-104.5 679,-123.5 817,-123.5 817,-104.5 679,-104.5"/>
<text text-anchor="middle" x="748" y="-111.5" font-family="Helvetica,sans-Serif" font-size="10.00">RapidJsonDocument::Get</text>
</a>
</g>
</g>
<!-- Node3&#45;&gt;Node4 -->
<g id="edge3" class="edge">
<title>Node3&#45;&gt;Node4</title>
<path fill="none" stroke="midnightblue" d="M638.75,-91.02C656.47,-94.78 675.22,-98.76 692.04,-102.33"/>
<polygon fill="midnightblue" stroke="midnightblue" points="691.74,-105.85 702.25,-104.5 693.19,-99 691.74,-105.85"/>
</g>
<!-- Node5 -->
<g id="node5" class="node">
<title>Node5</title>
<g id="a_node5"><a xlink:href="../../d7/d4e/classRapidJsonDocument.html#a9ac06e03f62b480a5fee67b8663f2f71" target="_top" xlink:title=" ">
<polygon fill="white" stroke="black" points="853,-80 853,-110 974,-110 974,-80 853,-80"/>
<text text-anchor="start" x="861" y="-98" font-family="Helvetica,sans-Serif" font-size="10.00">RapidJsonDocument::</text>
<text text-anchor="middle" x="913.5" y="-87" font-family="Helvetica,sans-Serif" font-size="10.00">isView</text>
</a>
</g>
</g>
<!-- Node3&#45;&gt;Node5 -->
<g id="edge6" class="edge">
<title>Node3&#45;&gt;Node5</title>
<path fill="none" stroke="midnightblue" d="M643.18,-80.15C702.57,-83.42 784.82,-87.96 842.76,-91.15"/>
<polygon fill="midnightblue" stroke="midnightblue" points="842.74,-94.66 852.92,-91.71 843.13,-87.67 842.74,-94.66"/>
</g>
<!-- Node6 -->
<g id="node6" class="node">
<title>Node6</title>
<g id="a_node6"><a xlink:href="../../d7/d4e/classRapidJsonDocument.html#a7afb8f0d2a5b03f77e7615ebe9c46816" target="_top" xlink:title=" ">
<polygon fill="white" stroke="black" points="687.5,-17 687.5,-47 808.5,-47 808.5,-17 687.5,-17"/>
<text text-anchor="start" x="695.5" y="-35" font-family="Helvetica,sans-Serif" font-size="10.00">RapidJsonDocument::</text>
<text text-anchor="middle" x="748" y="-24" font-family="Helvetica,sans-Serif" font-size="10.00">getView</text>
</a>
</g>
</g>
<!-- Node3&#45;&gt;Node6 -->
<g id="edge5" class="edge">
<title>Node3&#45;&gt;Node6</title>
<path fill="none" stroke="midnightblue" d="M629.1,-60.98C644.7,-57.15 661.59,-53 677.57,-49.07"/>
<polygon fill="midnightblue" stroke="midnightblue" points="678.51,-52.44 687.39,-46.65 676.84,-45.64 678.51,-52.44"/>
</g>
<!-- Node4&#45;&gt;Node5 -->
<g id="edge4" class="edge">
<title>Node4&#45;&gt;Node5</title>
<path fill="none" stroke="midnightblue" d="M817.39,-106.05C825.79,-105.08 834.38,-104.08 842.8,-103.1"/>
<polygon fill="midnightblue" stroke="midnightblue" points="843.43,-106.55 852.96,-101.92 842.62,-99.6 843.43,-106.55"/>
</g>
</g>
</svg>
        <g id="navigator" transform="translate(0 0)" fill="#404254">
                <rect fill="#f2f5e9" fill-opacity="0.5" stroke="#606060" stroke-width=".5" x="0" y="0" width="60" height="60"/>
                <use id="zoomplus" xlink:href="#zoomPlus" x="17" y="9" onmousedown="handleZoom(evt,'in')"/>
                <use id="zoomminus" xlink:href="#zoomMin" x="42" y="9" onmousedown="handleZoom(evt,'out')"/>
                <use id="reset" xlink:href="#resetDef" x="30" y="36" onmousedown="handleReset()"/>
                <g id="arrowUp" xlink:href="#dirArrow" transform="translate(30 24)" onmousedown="handlePan(0,-1)">
                  <use xlink:href="#rim" fill="#404040">
                        <set attributeName="fill" to="#808080" begin="arrowUp.mouseover" end="arrowUp.mouseout"/>
                  </use>
                  <path fill="none" stroke="white" stroke-width="1.5" d="M0,-3.0v7 M-2.5,-0.5L0,-3.0L2.5,-0.5"/>
                </g>
                <g id="arrowRight" xlink:href="#dirArrow" transform="rotate(90) translate(36 -43)" onmousedown="handlePan(1,0)">
                  <use xlink:href="#rim" fill="#404040">
                        <set attributeName="fill" to="#808080" begin="arrowRight.mouseover" end="arrowRight.mouseout"/>
                  </use>
                  <path fill="none" stroke="white" stroke-width="1.5" d="M0,-3.0v7 M-2.5,-0.5L0,-3.0L2.5,-0.5"/>
                </g>
                <g id="arrowDown" xlink:href="#dirArrow" transform="rotate(180) translate(-30 -48)" onmousedown="handlePan(0,1)">
                  <use xlink:href="#rim" fill="#404040">
                        <set attributeName="fill" to="#808080" begin="arrowDown.mouseover" end="arrowDown.mouseout"/>
                  </use>
                  <path fill="none" stroke="white" stroke-width="1.5" d="M0,-3.0v7 M-2.5,-0.5L0,-3.0L2.5,-0.5"/>
                </g>
                <g id="arrowLeft" xlink:href="#dirArrow" transform="rotate(270) translate(-36 17)" onmousedown="handlePan(-1,0)">
                  <use xlink:href="#rim" fill="#404040">
                        <set attributeName="fill" to="#808080" begin="arrowLeft.mouseover" end="arrowLeft.mouseout"/>
                  </use>
                  <path fill="none" stroke="white" stroke-width="1.5" d="M0,-3.0v7 M-2.5,-0.5L0,-3.0L2.5,-0.5"/>
                </g>
        </g>
        <svg viewBox="0 0 15 15" width="100%" height="30px" preserveAspectRatio="xMaxYMin meet">
         <g id="arrow_out" transform="scale(0.3 0.3)">
          <a xlink:href="classjoda_1_1query_1_1providers_1_1membercount_1_1MemberCountCalculator_ad44a91198063ae0d94e8f55a39e5d191_cgraph_org.svg" target="_base">
           <rect id="button" ry="5" rx="5" y="6" x="6" height="38" width="38"
                fill="#f2f5e9" fill-opacity="0.5" stroke="#606060" stroke-width="1.0"/>
           <path id="arrow"
             d="M 11.500037,31.436501 C 11.940474,20.09759 22.043105,11.32322 32.158766,21.979434 L 37.068811,17.246167 C 37.068811,17.246167 37.088388,32 37.088388,32 L 22.160133,31.978069 C 22.160133,31.978069 26.997745,27.140456 26.997745,27.140456 C 18.528582,18.264221 13.291696,25.230495 11.500037,31.436501 z"
             style="fill:#404040;"/>
          </a>
         </g>
        </svg>
</svg>
