<?xml version="1.0" encoding="UTF-8" standalone="no"?>
<!DOCTYPE svg PUBLIC "-//W3C//DTD SVG 1.1//EN"
 "http://www.w3.org/Graphics/SVG/1.1/DTD/svg11.dtd">
<!-- Generated by graphviz version 2.43.0 (0)
 -->
<!-- Title: /home/nico/projects/JODA&#45;gh/libs/joda/core/modules/storage/document/src/DocumentCostHandler.h Pages: 1 -->
<svg width="841pt" height="173pt"
 viewBox="0.00 0.00 840.50 173.00" xmlns="http://www.w3.org/2000/svg" xmlns:xlink="http://www.w3.org/1999/xlink">
<g id="graph0" class="graph" transform="scale(1 1) rotate(0) translate(4 169)">
<title>/home/nico/projects/JODA&#45;gh/libs/joda/core/modules/storage/document/src/DocumentCostHandler.h</title>
<polygon fill="white" stroke="transparent" points="-4,4 -4,-169 836.5,-169 836.5,4 -4,4"/>
<!-- Node1 -->
<g id="node1" class="node">
<title>Node1</title>
<g id="a_node1"><a xlink:title=" ">
<polygon fill="#bfbfbf" stroke="black" points="491.5,-112.5 491.5,-164.5 646.5,-164.5 646.5,-112.5 491.5,-112.5"/>
<text text-anchor="start" x="499.5" y="-152.5" font-family="Helvetica,sans-Serif" font-size="10.00">/home/nico/projects</text>
<text text-anchor="start" x="499.5" y="-141.5" font-family="Helvetica,sans-Serif" font-size="10.00">/JODA&#45;gh/libs/joda/core</text>
<text text-anchor="start" x="499.5" y="-130.5" font-family="Helvetica,sans-Serif" font-size="10.00">/modules/storage/document</text>
<text text-anchor="middle" x="569" y="-119.5" font-family="Helvetica,sans-Serif" font-size="10.00">/src/DocumentCostHandler.h</text>
</a>
</g>
</g>
<!-- Node2 -->
<g id="node2" class="node">
<title>Node2</title>
<g id="a_node2"><a xlink:title=" ">
<polygon fill="white" stroke="#bfbfbf" points="248.5,-56.5 248.5,-75.5 295.5,-75.5 295.5,-56.5 248.5,-56.5"/>
<text text-anchor="middle" x="272" y="-63.5" font-family="Helvetica,sans-Serif" font-size="10.00">glob.h</text>
</a>
</g>
</g>
<!-- Node1&#45;&gt;Node2 -->
<g id="edge1" class="edge">
<title>Node1&#45;&gt;Node2</title>
<path fill="none" stroke="midnightblue" d="M491.42,-120.23C441.19,-108.86 374.14,-93.34 305.85,-76.14"/>
<polygon fill="midnightblue" stroke="midnightblue" points="306.32,-72.65 295.77,-73.6 304.6,-79.44 306.32,-72.65"/>
</g>
<!-- Node3 -->
<g id="node3" class="node">
<title>Node3</title>
<g id="a_node3"><a xlink:href="../../d6/d09/RJFwd_8h.html" target="_top" xlink:title=" ">
<polygon fill="white" stroke="black" points="314,-56.5 314,-75.5 420,-75.5 420,-56.5 314,-56.5"/>
<text text-anchor="middle" x="367" y="-63.5" font-family="Helvetica,sans-Serif" font-size="10.00">joda/misc/RJFwd.h</text>
</a>
</g>
</g>
<!-- Node1&#45;&gt;Node3 -->
<g id="edge2" class="edge">
<title>Node1&#45;&gt;Node3</title>
<path fill="none" stroke="midnightblue" d="M497.21,-112.45C464.43,-101.01 427.16,-88 400.92,-78.84"/>
<polygon fill="midnightblue" stroke="midnightblue" points="402.03,-75.52 391.43,-75.53 399.72,-82.13 402.03,-75.52"/>
</g>
<!-- Node10 -->
<g id="node10" class="node">
<title>Node10</title>
<g id="a_node10"><a xlink:title=" ">
<polygon fill="white" stroke="#bfbfbf" points="438.5,-56.5 438.5,-75.5 561.5,-75.5 561.5,-56.5 438.5,-56.5"/>
<text text-anchor="middle" x="500" y="-63.5" font-family="Helvetica,sans-Serif" font-size="10.00">rapidjson/encodings.h</text>
</a>
</g>
</g>
<!-- Node1&#45;&gt;Node10 -->
<g id="edge9" class="edge">
<title>Node1&#45;&gt;Node10</title>
<path fill="none" stroke="midnightblue" d="M544.48,-112.45C534.87,-102.63 524.13,-91.66 515.61,-82.95"/>
<polygon fill="midnightblue" stroke="midnightblue" points="518.01,-80.39 508.51,-75.7 513,-85.29 518.01,-80.39"/>
</g>
<!-- Node11 -->
<g id="node11" class="node">
<title>Node11</title>
<g id="a_node11"><a xlink:title=" ">
<polygon fill="white" stroke="#bfbfbf" points="579.5,-56.5 579.5,-75.5 698.5,-75.5 698.5,-56.5 579.5,-56.5"/>
<text text-anchor="middle" x="639" y="-63.5" font-family="Helvetica,sans-Serif" font-size="10.00">rapidjson/rapidjson.h</text>
</a>
</g>
</g>
<!-- Node1&#45;&gt;Node11 -->
<g id="edge10" class="edge">
<title>Node1&#45;&gt;Node11</title>
<path fill="none" stroke="midnightblue" d="M593.88,-112.45C603.62,-102.63 614.52,-91.66 623.16,-82.95"/>
<polygon fill="midnightblue" stroke="midnightblue" points="625.8,-85.26 630.37,-75.7 620.84,-80.33 625.8,-85.26"/>
</g>
<!-- Node12 -->
<g id="node12" class="node">
<title>Node12</title>
<g id="a_node12"><a xlink:title=" ">
<polygon fill="white" stroke="#bfbfbf" points="717,-56.5 717,-75.5 767,-75.5 767,-56.5 717,-56.5"/>
<text text-anchor="middle" x="742" y="-63.5" font-family="Helvetica,sans-Serif" font-size="10.00">cstdint</text>
</a>
</g>
</g>
<!-- Node1&#45;&gt;Node12 -->
<g id="edge11" class="edge">
<title>Node1&#45;&gt;Node12</title>
<path fill="none" stroke="midnightblue" d="M630.48,-112.45C658.06,-101.21 689.35,-88.45 711.76,-79.33"/>
<polygon fill="midnightblue" stroke="midnightblue" points="713.14,-82.54 721.08,-75.53 710.49,-76.06 713.14,-82.54"/>
</g>
<!-- Node13 -->
<g id="node13" class="node">
<title>Node13</title>
<g id="a_node13"><a xlink:title=" ">
<polygon fill="white" stroke="#bfbfbf" points="785.5,-56.5 785.5,-75.5 832.5,-75.5 832.5,-56.5 785.5,-56.5"/>
<text text-anchor="middle" x="809" y="-63.5" font-family="Helvetica,sans-Serif" font-size="10.00">vector</text>
</a>
</g>
</g>
<!-- Node1&#45;&gt;Node13 -->
<g id="edge12" class="edge">
<title>Node1&#45;&gt;Node13</title>
<path fill="none" stroke="midnightblue" d="M646.59,-114.71C690.28,-101.87 742.57,-86.51 775.79,-76.76"/>
<polygon fill="midnightblue" stroke="midnightblue" points="776.85,-80.09 785.45,-73.92 774.87,-73.38 776.85,-80.09"/>
</g>
<!-- Node4 -->
<g id="node4" class="node">
<title>Node4</title>
<g id="a_node4"><a xlink:title=" ">
<polygon fill="white" stroke="#bfbfbf" points="0,-0.5 0,-19.5 86,-19.5 86,-0.5 0,-0.5"/>
<text text-anchor="middle" x="43" y="-7.5" font-family="Helvetica,sans-Serif" font-size="10.00">glog/logging.h</text>
</a>
</g>
</g>
<!-- Node3&#45;&gt;Node4 -->
<g id="edge3" class="edge">
<title>Node3&#45;&gt;Node4</title>
<path fill="none" stroke="midnightblue" d="M314.84,-56.49C262.21,-47.87 178.32,-34.07 96.14,-20.18"/>
<polygon fill="midnightblue" stroke="midnightblue" points="96.57,-16.71 86.13,-18.49 95.4,-23.61 96.57,-16.71"/>
</g>
<!-- Node5 -->
<g id="node5" class="node">
<title>Node5</title>
<g id="a_node5"><a xlink:title=" ">
<polygon fill="white" stroke="#bfbfbf" points="104,-0.5 104,-19.5 226,-19.5 226,-0.5 104,-0.5"/>
<text text-anchor="middle" x="165" y="-7.5" font-family="Helvetica,sans-Serif" font-size="10.00">rapidjson/allocators.h</text>
</a>
</g>
</g>
<!-- Node3&#45;&gt;Node5 -->
<g id="edge4" class="edge">
<title>Node3&#45;&gt;Node5</title>
<path fill="none" stroke="midnightblue" d="M334.99,-56.44C300.27,-47.16 244.71,-32.31 206.62,-22.13"/>
<polygon fill="midnightblue" stroke="midnightblue" points="207.42,-18.72 196.86,-19.52 205.61,-25.48 207.42,-18.72"/>
</g>
<!-- Node6 -->
<g id="node6" class="node">
<title>Node6</title>
<g id="a_node6"><a xlink:title=" ">
<polygon fill="white" stroke="#bfbfbf" points="244,-0.5 244,-19.5 366,-19.5 366,-0.5 244,-0.5"/>
<text text-anchor="middle" x="305" y="-7.5" font-family="Helvetica,sans-Serif" font-size="10.00">rapidjson/document.h</text>
</a>
</g>
</g>
<!-- Node3&#45;&gt;Node6 -->
<g id="edge5" class="edge">
<title>Node3&#45;&gt;Node6</title>
<path fill="none" stroke="midnightblue" d="M357.04,-56.32C347.87,-48.34 334.06,-36.31 322.97,-26.65"/>
<polygon fill="midnightblue" stroke="midnightblue" points="324.98,-23.76 315.14,-19.83 320.38,-29.04 324.98,-23.76"/>
</g>
<!-- Node7 -->
<g id="node7" class="node">
<title>Node7</title>
<g id="a_node7"><a xlink:title=" ">
<polygon fill="white" stroke="#bfbfbf" points="384.5,-0.5 384.5,-19.5 475.5,-19.5 475.5,-0.5 384.5,-0.5"/>
<text text-anchor="middle" x="430" y="-7.5" font-family="Helvetica,sans-Serif" font-size="10.00">rapidjson/fwd.h</text>
</a>
</g>
</g>
<!-- Node3&#45;&gt;Node7 -->
<g id="edge6" class="edge">
<title>Node3&#45;&gt;Node7</title>
<path fill="none" stroke="midnightblue" d="M377.12,-56.32C386.53,-48.26 400.74,-36.08 412.07,-26.37"/>
<polygon fill="midnightblue" stroke="midnightblue" points="414.38,-29 419.69,-19.83 409.82,-23.68 414.38,-29"/>
</g>
<!-- Node8 -->
<g id="node8" class="node">
<title>Node8</title>
<g id="a_node8"><a xlink:title=" ">
<polygon fill="white" stroke="#bfbfbf" points="494,-0.5 494,-19.5 644,-19.5 644,-0.5 494,-0.5"/>
<text text-anchor="middle" x="569" y="-7.5" font-family="Helvetica,sans-Serif" font-size="10.00">rapidjson/istreamwrapper.h</text>
</a>
</g>
</g>
<!-- Node3&#45;&gt;Node8 -->
<g id="edge7" class="edge">
<title>Node3&#45;&gt;Node8</title>
<path fill="none" stroke="midnightblue" d="M399.01,-56.44C433.73,-47.16 489.29,-32.31 527.38,-22.13"/>
<polygon fill="midnightblue" stroke="midnightblue" points="528.39,-25.48 537.14,-19.52 526.58,-18.72 528.39,-25.48"/>
</g>
<!-- Node9 -->
<g id="node9" class="node">
<title>Node9</title>
<g id="a_node9"><a xlink:title=" ">
<polygon fill="white" stroke="#bfbfbf" points="661.5,-0.5 661.5,-19.5 768.5,-19.5 768.5,-0.5 661.5,-0.5"/>
<text text-anchor="middle" x="715" y="-7.5" font-family="Helvetica,sans-Serif" font-size="10.00">rapidjson/pointer.h</text>
</a>
</g>
</g>
<!-- Node3&#45;&gt;Node9 -->
<g id="edge8" class="edge">
<title>Node3&#45;&gt;Node9</title>
<path fill="none" stroke="midnightblue" d="M420.23,-56.74C482.44,-47.09 585.29,-31.13 651.58,-20.84"/>
<polygon fill="midnightblue" stroke="midnightblue" points="652.14,-24.3 661.49,-19.3 651.07,-17.38 652.14,-24.3"/>
</g>
</g>
</svg>
