<?xml version="1.0" encoding="UTF-8" standalone="no"?>
<!DOCTYPE svg PUBLIC "-//W3C//DTD SVG 1.1//EN"
 "http://www.w3.org/Graphics/SVG/1.1/DTD/svg11.dtd">
<!-- Generated by graphviz version 2.43.0 (0)
 -->
<!-- Title: IExportDestination::consume Pages: 1 -->
<svg width="647pt" height="166pt"
 viewBox="0.00 0.00 647.00 165.50" xmlns="http://www.w3.org/2000/svg" xmlns:xlink="http://www.w3.org/1999/xlink">
<g id="graph0" class="graph" transform="scale(1 1) rotate(0) translate(4 161.5)">
<title>IExportDestination::consume</title>
<polygon fill="white" stroke="transparent" points="-4,4 -4,-161.5 643,-161.5 643,4 -4,4"/>
<!-- Node1 -->
<g id="node1" class="node">
<title>Node1</title>
<g id="a_node1"><a xlink:title=" ">
<polygon fill="#bfbfbf" stroke="black" points="0,-33 0,-63 107,-63 107,-33 0,-33"/>
<text text-anchor="start" x="8" y="-51" font-family="Helvetica,sans-Serif" font-size="10.00">IExportDestination</text>
<text text-anchor="middle" x="53.5" y="-40" font-family="Helvetica,sans-Serif" font-size="10.00">::consume</text>
</a>
</g>
</g>
<!-- Node2 -->
<g id="node2" class="node">
<title>Node2</title>
<g id="a_node2"><a xlink:href="../../d9/d71/classIExportDestination.html#a06dd38ef162a1e1ad7d05a27ad474c10" target="_top" xlink:title=" ">
<polygon fill="white" stroke="black" points="146,-80 146,-110 260,-110 260,-80 146,-80"/>
<text text-anchor="start" x="154" y="-98" font-family="Helvetica,sans-Serif" font-size="10.00">IExportDestination</text>
<text text-anchor="middle" x="203" y="-87" font-family="Helvetica,sans-Serif" font-size="10.00">::consumeContainer</text>
</a>
</g>
</g>
<!-- Node1&#45;&gt;Node2 -->
<g id="edge1" class="edge">
<title>Node1&#45;&gt;Node2</title>
<path fill="none" stroke="midnightblue" d="M101.58,-63C115.41,-67.41 130.7,-72.28 145.08,-76.86"/>
<polygon fill="midnightblue" stroke="midnightblue" points="144.28,-80.28 154.87,-79.98 146.4,-73.61 144.28,-80.28"/>
</g>
<!-- Node7 -->
<g id="node7" class="node">
<title>Node7</title>
<g id="a_node7"><a xlink:href="../../d8/df5/classRecurringTimer.html#a801137531764b8bb55ca162656019bdb" target="_top" xlink:title=" ">
<polygon fill="white" stroke="black" points="143,-38.5 143,-57.5 263,-57.5 263,-38.5 143,-38.5"/>
<text text-anchor="middle" x="203" y="-45.5" font-family="Helvetica,sans-Serif" font-size="10.00">RecurringTimer::start</text>
</a>
</g>
</g>
<!-- Node1&#45;&gt;Node7 -->
<g id="edge7" class="edge">
<title>Node1&#45;&gt;Node7</title>
<path fill="none" stroke="midnightblue" d="M107.33,-48C115.5,-48 124.05,-48 132.51,-48"/>
<polygon fill="midnightblue" stroke="midnightblue" points="132.77,-51.5 142.77,-48 132.77,-44.5 132.77,-51.5"/>
</g>
<!-- Node9 -->
<g id="node9" class="node">
<title>Node9</title>
<g id="a_node9"><a xlink:href="../../d8/df5/classRecurringTimer.html#a0534a5c3a55473c15b027325f06cd260" target="_top" xlink:title=" ">
<polygon fill="white" stroke="black" points="143.5,-0.5 143.5,-19.5 262.5,-19.5 262.5,-0.5 143.5,-0.5"/>
<text text-anchor="middle" x="203" y="-7.5" font-family="Helvetica,sans-Serif" font-size="10.00">RecurringTimer::stop</text>
</a>
</g>
</g>
<!-- Node1&#45;&gt;Node9 -->
<g id="edge9" class="edge">
<title>Node1&#45;&gt;Node9</title>
<path fill="none" stroke="midnightblue" d="M107.33,-34.39C122.93,-30.37 139.89,-26 155.08,-22.09"/>
<polygon fill="midnightblue" stroke="midnightblue" points="155.97,-25.47 164.78,-19.59 154.23,-18.69 155.97,-25.47"/>
</g>
<!-- Node3 -->
<g id="node3" class="node">
<title>Node3</title>
<g id="a_node3"><a xlink:href="../../d9/d71/classIExportDestination.html#a1b9e8bbfdbe80deb3b7dbcb8f260a641" target="_top" xlink:title=" ">
<polygon fill="white" stroke="black" points="312,-127 312,-157 419,-157 419,-127 312,-127"/>
<text text-anchor="start" x="320" y="-145" font-family="Helvetica,sans-Serif" font-size="10.00">IExportDestination</text>
<text text-anchor="middle" x="365.5" y="-134" font-family="Helvetica,sans-Serif" font-size="10.00">::exportContainer</text>
</a>
</g>
</g>
<!-- Node2&#45;&gt;Node3 -->
<g id="edge2" class="edge">
<title>Node2&#45;&gt;Node3</title>
<path fill="none" stroke="midnightblue" d="M255.22,-110C270.57,-114.49 287.55,-119.47 303.47,-124.13"/>
<polygon fill="midnightblue" stroke="midnightblue" points="302.63,-127.53 313.21,-126.98 304.6,-120.81 302.63,-127.53"/>
</g>
<!-- Node4 -->
<g id="node4" class="node">
<title>Node4</title>
<g id="a_node4"><a xlink:href="../../d1/d30/structJODA__SHARED__QUEUE.html#aa46e31bf2003b52b17f54522a8ec2e1c" target="_top" xlink:title=" ">
<polygon fill="white" stroke="black" points="487,-83 487,-113 620,-113 620,-83 487,-83"/>
<text text-anchor="start" x="495" y="-101" font-family="Helvetica,sans-Serif" font-size="10.00">JODA_SHARED_QUEUE::</text>
<text text-anchor="middle" x="553.5" y="-90" font-family="Helvetica,sans-Serif" font-size="10.00">isFinished</text>
</a>
</g>
</g>
<!-- Node2&#45;&gt;Node4 -->
<g id="edge3" class="edge">
<title>Node2&#45;&gt;Node4</title>
<path fill="none" stroke="midnightblue" d="M260.38,-95.49C319.17,-95.99 411.66,-96.79 476.79,-97.35"/>
<polygon fill="midnightblue" stroke="midnightblue" points="476.97,-100.85 486.99,-97.44 477.03,-93.85 476.97,-100.85"/>
</g>
<!-- Node5 -->
<g id="node5" class="node">
<title>Node5</title>
<g id="a_node5"><a xlink:href="../../d1/d30/structJODA__SHARED__QUEUE.html#a85346f08f256c2b939e9fef99004d2cf" target="_top" xlink:title=" ">
<polygon fill="white" stroke="black" points="299,-39 299,-69 432,-69 432,-39 299,-39"/>
<text text-anchor="start" x="307" y="-57" font-family="Helvetica,sans-Serif" font-size="10.00">JODA_SHARED_QUEUE::</text>
<text text-anchor="middle" x="365.5" y="-46" font-family="Helvetica,sans-Serif" font-size="10.00">retrieve</text>
</a>
</g>
</g>
<!-- Node2&#45;&gt;Node5 -->
<g id="edge4" class="edge">
<title>Node2&#45;&gt;Node5</title>
<path fill="none" stroke="midnightblue" d="M260.14,-80.66C271.65,-77.72 283.89,-74.59 295.78,-71.55"/>
<polygon fill="midnightblue" stroke="midnightblue" points="296.85,-74.89 305.67,-69.03 295.12,-68.11 296.85,-74.89"/>
</g>
<!-- Node5&#45;&gt;Node4 -->
<g id="edge5" class="edge">
<title>Node5&#45;&gt;Node4</title>
<path fill="none" stroke="midnightblue" d="M429.99,-69.02C445.76,-72.75 462.8,-76.78 479.01,-80.62"/>
<polygon fill="midnightblue" stroke="midnightblue" points="478.44,-84.08 488.98,-82.97 480.05,-77.27 478.44,-84.08"/>
</g>
<!-- Node6 -->
<g id="node6" class="node">
<title>Node6</title>
<g id="a_node6"><a xlink:href="../../d8/dc8/classmoodycamel_1_1ConcurrentQueue.html#a1895c8a6120aef578fe01db53879517b" target="_top" xlink:title=" ">
<polygon fill="white" stroke="black" points="468,-34 468,-64 639,-64 639,-34 468,-34"/>
<text text-anchor="start" x="476" y="-52" font-family="Helvetica,sans-Serif" font-size="10.00">moodycamel::ConcurrentQueue</text>
<text text-anchor="middle" x="553.5" y="-41" font-family="Helvetica,sans-Serif" font-size="10.00">::try_dequeue</text>
</a>
</g>
</g>
<!-- Node5&#45;&gt;Node6 -->
<g id="edge6" class="edge">
<title>Node5&#45;&gt;Node6</title>
<path fill="none" stroke="midnightblue" d="M432.08,-52.24C440.42,-52.01 449.09,-51.78 457.78,-51.55"/>
<polygon fill="midnightblue" stroke="midnightblue" points="458.06,-55.04 467.97,-51.27 457.88,-48.04 458.06,-55.04"/>
</g>
<!-- Node8 -->
<g id="node8" class="node">
<title>Node8</title>
<g id="a_node8"><a xlink:href="../../d8/df5/classRecurringTimer.html#ac4fab3b01f921bf79af39c0a65c787ea" target="_top" xlink:title=" ">
<polygon fill="white" stroke="black" points="306.5,-0.5 306.5,-19.5 424.5,-19.5 424.5,-0.5 306.5,-0.5"/>
<text text-anchor="middle" x="365.5" y="-7.5" font-family="Helvetica,sans-Serif" font-size="10.00">RecurringTimer::now</text>
</a>
</g>
</g>
<!-- Node7&#45;&gt;Node8 -->
<g id="edge8" class="edge">
<title>Node7&#45;&gt;Node8</title>
<path fill="none" stroke="midnightblue" d="M244.5,-38.41C265.68,-33.4 291.8,-27.21 314.26,-21.89"/>
<polygon fill="midnightblue" stroke="midnightblue" points="315.37,-25.23 324.29,-19.52 313.75,-18.42 315.37,-25.23"/>
</g>
<!-- Node9&#45;&gt;Node8 -->
<g id="edge10" class="edge">
<title>Node9&#45;&gt;Node8</title>
<path fill="none" stroke="midnightblue" d="M262.85,-10C273.74,-10 285.2,-10 296.34,-10"/>
<polygon fill="midnightblue" stroke="midnightblue" points="296.46,-13.5 306.46,-10 296.46,-6.5 296.46,-13.5"/>
</g>
</g>
</svg>
