<?xml version="1.0" encoding="UTF-8" standalone="no"?>
<!DOCTYPE svg PUBLIC "-//W3C//DTD SVG 1.1//EN"
 "http://www.w3.org/Graphics/SVG/1.1/DTD/svg11.dtd">
<!-- Generated by graphviz version 2.43.0 (0)
 -->
<!-- Title: IExportDestination::consumeContainer Pages: 1 -->
<!--zoomable 132 -->
<svg id="main" version="1.1" xmlns="http://www.w3.org/2000/svg" xmlns:xlink="http://www.w3.org/1999/xlink" xml:space="preserve" onload="init(evt)">
<style type="text/css"><![CDATA[
.edge:hover path { stroke: red; }
.edge:hover polygon { stroke: red; fill: red; }
]]></style>
<script type="text/javascript"><![CDATA[
var edges = document.getElementsByTagName('g');
if (edges && edges.length) {
  for (var i=0;i<edges.length;i++) {
    if (edges[i].id.substr(0,4)=='edge') {
      edges[i].setAttribute('class','edge');
    }
  }
}
]]></script>
        <defs>
                <circle id="rim" cx="0" cy="0" r="7"/>
                <circle id="rim2" cx="0" cy="0" r="3.5"/>
                <g id="zoomPlus">
                        <use xlink:href="#rim" fill="#404040">
                                <set attributeName="fill" to="#808080" begin="zoomplus.mouseover" end="zoomplus.mouseout"/>
                        </use>
                        <path d="M-4,0h8M0,-4v8" fill="none" stroke="white" stroke-width="1.5" pointer-events="none"/>
                </g>
                <g id="zoomMin">
                        <use xlink:href="#rim" fill="#404040">
                                <set attributeName="fill" to="#808080" begin="zoomminus.mouseover" end="zoomminus.mouseout"/>
                        </use>
                        <path d="M-4,0h8" fill="none" stroke="white" stroke-width="1.5" pointer-events="none"/>
                </g>
                <g id="dirArrow">
                        <path fill="none" stroke="white" stroke-width="1.5" d="M0,-3.0v7 M-2.5,-0.5L0,-3.0L2.5,-0.5"/>
                </g>
               <g id="resetDef">
                       <use xlink:href="#rim2" fill="#404040">
                               <set attributeName="fill" to="#808080" begin="reset.mouseover" end="reset.mouseout"/>
                       </use>
               </g>
        </defs>

<script type="text/javascript">
var viewWidth = 653;
var viewHeight = 132;
var sectionId = 'dynsection-3';
</script>
<script xlink:href="../../svgpan.js"/>
<svg id="graph" class="graph">
<g id="viewport">
<title>IExportDestination::consumeContainer</title>
<polygon fill="white" stroke="transparent" points="-4,4 -4,-128 649,-128 649,4 -4,4"/>
<!-- Node1 -->
<g id="node1" class="node">
<title>Node1</title>
<g id="a_node1"><a xlink:title=" ">
<polygon fill="#bfbfbf" stroke="black" points="0,-49.5 0,-79.5 114,-79.5 114,-49.5 0,-49.5"/>
<text text-anchor="start" x="8" y="-67.5" font-family="Helvetica,sans-Serif" font-size="10.00">IExportDestination</text>
<text text-anchor="middle" x="57" y="-56.5" font-family="Helvetica,sans-Serif" font-size="10.00">::consumeContainer</text>
</a>
</g>
</g>
<!-- Node2 -->
<g id="node2" class="node">
<title>Node2</title>
<g id="a_node2"><a xlink:href="../../d9/d71/classIExportDestination.html#a1b9e8bbfdbe80deb3b7dbcb8f260a641" target="_top" xlink:title=" ">
<polygon fill="white" stroke="black" points="163,-93.5 163,-123.5 270,-123.5 270,-93.5 163,-93.5"/>
<text text-anchor="start" x="171" y="-111.5" font-family="Helvetica,sans-Serif" font-size="10.00">IExportDestination</text>
<text text-anchor="middle" x="216.5" y="-100.5" font-family="Helvetica,sans-Serif" font-size="10.00">::exportContainer</text>
</a>
</g>
</g>
<!-- Node1&#45;&gt;Node2 -->
<g id="edge1" class="edge">
<title>Node1&#45;&gt;Node2</title>
<path fill="none" stroke="midnightblue" d="M111.76,-79.52C125.03,-83.23 139.35,-87.23 152.99,-91.04"/>
<polygon fill="midnightblue" stroke="midnightblue" points="152.21,-94.45 162.78,-93.77 154.09,-87.71 152.21,-94.45"/>
</g>
<!-- Node3 -->
<g id="node3" class="node">
<title>Node3</title>
<g id="a_node3"><a xlink:href="../../d1/d30/structJODA__SHARED__QUEUE.html#aa46e31bf2003b52b17f54522a8ec2e1c" target="_top" xlink:title=" ">
<polygon fill="white" stroke="black" points="338,-49.5 338,-79.5 471,-79.5 471,-49.5 338,-49.5"/>
<text text-anchor="start" x="346" y="-67.5" font-family="Helvetica,sans-Serif" font-size="10.00">JODA_SHARED_QUEUE::</text>
<text text-anchor="middle" x="404.5" y="-56.5" font-family="Helvetica,sans-Serif" font-size="10.00">isFinished</text>
</a>
</g>
</g>
<!-- Node1&#45;&gt;Node3 -->
<g id="edge2" class="edge">
<title>Node1&#45;&gt;Node3</title>
<path fill="none" stroke="midnightblue" d="M114.28,-64.5C172.36,-64.5 263.32,-64.5 327.71,-64.5"/>
<polygon fill="midnightblue" stroke="midnightblue" points="327.8,-68 337.8,-64.5 327.8,-61 327.8,-68"/>
</g>
<!-- Node4 -->
<g id="node4" class="node">
<title>Node4</title>
<g id="a_node4"><a xlink:href="../../d1/d30/structJODA__SHARED__QUEUE.html#a85346f08f256c2b939e9fef99004d2cf" target="_top" xlink:title=" ">
<polygon fill="white" stroke="black" points="150,-5.5 150,-35.5 283,-35.5 283,-5.5 150,-5.5"/>
<text text-anchor="start" x="158" y="-23.5" font-family="Helvetica,sans-Serif" font-size="10.00">JODA_SHARED_QUEUE::</text>
<text text-anchor="middle" x="216.5" y="-12.5" font-family="Helvetica,sans-Serif" font-size="10.00">retrieve</text>
</a>
</g>
</g>
<!-- Node1&#45;&gt;Node4 -->
<g id="edge3" class="edge">
<title>Node1&#45;&gt;Node4</title>
<path fill="none" stroke="midnightblue" d="M111.76,-49.48C124.62,-45.89 138.46,-42.02 151.72,-38.32"/>
<polygon fill="midnightblue" stroke="midnightblue" points="153.02,-41.59 161.71,-35.53 151.14,-34.85 153.02,-41.59"/>
</g>
<!-- Node4&#45;&gt;Node3 -->
<g id="edge4" class="edge">
<title>Node4&#45;&gt;Node3</title>
<path fill="none" stroke="midnightblue" d="M280.99,-35.52C296.76,-39.25 313.8,-43.28 330.01,-47.12"/>
<polygon fill="midnightblue" stroke="midnightblue" points="329.44,-50.58 339.98,-49.47 331.05,-43.77 329.44,-50.58"/>
</g>
<!-- Node5 -->
<g id="node5" class="node">
<title>Node5</title>
<g id="a_node5"><a xlink:href="../../d8/dc8/classmoodycamel_1_1ConcurrentQueue.html#a1895c8a6120aef578fe01db53879517b" target="_top" xlink:title=" ">
<polygon fill="white" stroke="black" points="319,-0.5 319,-30.5 490,-30.5 490,-0.5 319,-0.5"/>
<text text-anchor="start" x="327" y="-18.5" font-family="Helvetica,sans-Serif" font-size="10.00">moodycamel::ConcurrentQueue</text>
<text text-anchor="middle" x="404.5" y="-7.5" font-family="Helvetica,sans-Serif" font-size="10.00">::try_dequeue</text>
</a>
</g>
</g>
<!-- Node4&#45;&gt;Node5 -->
<g id="edge5" class="edge">
<title>Node4&#45;&gt;Node5</title>
<path fill="none" stroke="midnightblue" d="M283.08,-18.74C291.42,-18.51 300.09,-18.28 308.78,-18.05"/>
<polygon fill="midnightblue" stroke="midnightblue" points="309.06,-21.54 318.97,-17.77 308.88,-14.54 309.06,-21.54"/>
</g>
<!-- Node6 -->
<g id="node6" class="node">
<title>Node6</title>
<g id="a_node6"><a xlink:href="../../d6/d0f/namespacemoodycamel_1_1details.html#a40f7377af074d1cd282e22f75674c59d" target="_top" xlink:title=" ">
<polygon fill="white" stroke="black" points="526,-0.5 526,-30.5 645,-30.5 645,-0.5 526,-0.5"/>
<text text-anchor="start" x="534" y="-18.5" font-family="Helvetica,sans-Serif" font-size="10.00">moodycamel::details</text>
<text text-anchor="middle" x="585.5" y="-7.5" font-family="Helvetica,sans-Serif" font-size="10.00">::likely</text>
</a>
</g>
</g>
<!-- Node5&#45;&gt;Node6 -->
<g id="edge6" class="edge">
<title>Node5&#45;&gt;Node6</title>
<path fill="none" stroke="midnightblue" d="M490.02,-15.5C498.64,-15.5 507.33,-15.5 515.75,-15.5"/>
<polygon fill="midnightblue" stroke="midnightblue" points="515.88,-19 525.88,-15.5 515.88,-12 515.88,-19"/>
</g>
</g>
</svg>
        <g id="navigator" transform="translate(0 0)" fill="#404254">
                <rect fill="#f2f5e9" fill-opacity="0.5" stroke="#606060" stroke-width=".5" x="0" y="0" width="60" height="60"/>
                <use id="zoomplus" xlink:href="#zoomPlus" x="17" y="9" onmousedown="handleZoom(evt,'in')"/>
                <use id="zoomminus" xlink:href="#zoomMin" x="42" y="9" onmousedown="handleZoom(evt,'out')"/>
                <use id="reset" xlink:href="#resetDef" x="30" y="36" onmousedown="handleReset()"/>
                <g id="arrowUp" xlink:href="#dirArrow" transform="translate(30 24)" onmousedown="handlePan(0,-1)">
                  <use xlink:href="#rim" fill="#404040">
                        <set attributeName="fill" to="#808080" begin="arrowUp.mouseover" end="arrowUp.mouseout"/>
                  </use>
                  <path fill="none" stroke="white" stroke-width="1.5" d="M0,-3.0v7 M-2.5,-0.5L0,-3.0L2.5,-0.5"/>
                </g>
                <g id="arrowRight" xlink:href="#dirArrow" transform="rotate(90) translate(36 -43)" onmousedown="handlePan(1,0)">
                  <use xlink:href="#rim" fill="#404040">
                        <set attributeName="fill" to="#808080" begin="arrowRight.mouseover" end="arrowRight.mouseout"/>
                  </use>
                  <path fill="none" stroke="white" stroke-width="1.5" d="M0,-3.0v7 M-2.5,-0.5L0,-3.0L2.5,-0.5"/>
                </g>
                <g id="arrowDown" xlink:href="#dirArrow" transform="rotate(180) translate(-30 -48)" onmousedown="handlePan(0,1)">
                  <use xlink:href="#rim" fill="#404040">
                        <set attributeName="fill" to="#808080" begin="arrowDown.mouseover" end="arrowDown.mouseout"/>
                  </use>
                  <path fill="none" stroke="white" stroke-width="1.5" d="M0,-3.0v7 M-2.5,-0.5L0,-3.0L2.5,-0.5"/>
                </g>
                <g id="arrowLeft" xlink:href="#dirArrow" transform="rotate(270) translate(-36 17)" onmousedown="handlePan(-1,0)">
                  <use xlink:href="#rim" fill="#404040">
                        <set attributeName="fill" to="#808080" begin="arrowLeft.mouseover" end="arrowLeft.mouseout"/>
                  </use>
                  <path fill="none" stroke="white" stroke-width="1.5" d="M0,-3.0v7 M-2.5,-0.5L0,-3.0L2.5,-0.5"/>
                </g>
        </g>
        <svg viewBox="0 0 15 15" width="100%" height="30px" preserveAspectRatio="xMaxYMin meet">
         <g id="arrow_out" transform="scale(0.3 0.3)">
          <a xlink:href="classIExportDestination_a06dd38ef162a1e1ad7d05a27ad474c10_cgraph_org.svg" target="_base">
           <rect id="button" ry="5" rx="5" y="6" x="6" height="38" width="38"
                fill="#f2f5e9" fill-opacity="0.5" stroke="#606060" stroke-width="1.0"/>
           <path id="arrow"
             d="M 11.500037,31.436501 C 11.940474,20.09759 22.043105,11.32322 32.158766,21.979434 L 37.068811,17.246167 C 37.068811,17.246167 37.088388,32 37.088388,32 L 22.160133,31.978069 C 22.160133,31.978069 26.997745,27.140456 26.997745,27.140456 C 18.528582,18.264221 13.291696,25.230495 11.500037,31.436501 z"
             style="fill:#404040;"/>
          </a>
         </g>
        </svg>
</svg>
