<?xml version="1.0" encoding="UTF-8" standalone="no"?>
<!DOCTYPE svg PUBLIC "-//W3C//DTD SVG 1.1//EN"
 "http://www.w3.org/Graphics/SVG/1.1/DTD/svg11.dtd">
<!-- Generated by graphviz version 2.43.0 (0)
 -->
<!-- Title: IExportDestination::consumeContainer Pages: 1 -->
<svg width="498pt" height="132pt"
 viewBox="0.00 0.00 498.00 132.00" xmlns="http://www.w3.org/2000/svg" xmlns:xlink="http://www.w3.org/1999/xlink">
<g id="graph0" class="graph" transform="scale(1 1) rotate(0) translate(4 128)">
<title>IExportDestination::consumeContainer</title>
<polygon fill="white" stroke="transparent" points="-4,4 -4,-128 494,-128 494,4 -4,4"/>
<!-- Node1 -->
<g id="node1" class="node">
<title>Node1</title>
<g id="a_node1"><a xlink:title=" ">
<polygon fill="#bfbfbf" stroke="black" points="0,-49.5 0,-79.5 114,-79.5 114,-49.5 0,-49.5"/>
<text text-anchor="start" x="8" y="-67.5" font-family="Helvetica,sans-Serif" font-size="10.00">IExportDestination</text>
<text text-anchor="middle" x="57" y="-56.5" font-family="Helvetica,sans-Serif" font-size="10.00">::consumeContainer</text>
</a>
</g>
</g>
<!-- Node2 -->
<g id="node2" class="node">
<title>Node2</title>
<g id="a_node2"><a xlink:href="../../d9/d71/classIExportDestination.html#a1b9e8bbfdbe80deb3b7dbcb8f260a641" target="_top" xlink:title=" ">
<polygon fill="white" stroke="black" points="163,-93.5 163,-123.5 270,-123.5 270,-93.5 163,-93.5"/>
<text text-anchor="start" x="171" y="-111.5" font-family="Helvetica,sans-Serif" font-size="10.00">IExportDestination</text>
<text text-anchor="middle" x="216.5" y="-100.5" font-family="Helvetica,sans-Serif" font-size="10.00">::exportContainer</text>
</a>
</g>
</g>
<!-- Node1&#45;&gt;Node2 -->
<g id="edge1" class="edge">
<title>Node1&#45;&gt;Node2</title>
<path fill="none" stroke="midnightblue" d="M111.76,-79.52C125.03,-83.23 139.35,-87.23 152.99,-91.04"/>
<polygon fill="midnightblue" stroke="midnightblue" points="152.21,-94.45 162.78,-93.77 154.09,-87.71 152.21,-94.45"/>
</g>
<!-- Node3 -->
<g id="node3" class="node">
<title>Node3</title>
<g id="a_node3"><a xlink:href="../../d1/d30/structJODA__SHARED__QUEUE.html#aa46e31bf2003b52b17f54522a8ec2e1c" target="_top" xlink:title=" ">
<polygon fill="white" stroke="black" points="338,-49.5 338,-79.5 471,-79.5 471,-49.5 338,-49.5"/>
<text text-anchor="start" x="346" y="-67.5" font-family="Helvetica,sans-Serif" font-size="10.00">JODA_SHARED_QUEUE::</text>
<text text-anchor="middle" x="404.5" y="-56.5" font-family="Helvetica,sans-Serif" font-size="10.00">isFinished</text>
</a>
</g>
</g>
<!-- Node1&#45;&gt;Node3 -->
<g id="edge2" class="edge">
<title>Node1&#45;&gt;Node3</title>
<path fill="none" stroke="midnightblue" d="M114.28,-64.5C172.36,-64.5 263.32,-64.5 327.71,-64.5"/>
<polygon fill="midnightblue" stroke="midnightblue" points="327.8,-68 337.8,-64.5 327.8,-61 327.8,-68"/>
</g>
<!-- Node4 -->
<g id="node4" class="node">
<title>Node4</title>
<g id="a_node4"><a xlink:href="../../d1/d30/structJODA__SHARED__QUEUE.html#a85346f08f256c2b939e9fef99004d2cf" target="_top" xlink:title=" ">
<polygon fill="white" stroke="black" points="150,-5.5 150,-35.5 283,-35.5 283,-5.5 150,-5.5"/>
<text text-anchor="start" x="158" y="-23.5" font-family="Helvetica,sans-Serif" font-size="10.00">JODA_SHARED_QUEUE::</text>
<text text-anchor="middle" x="216.5" y="-12.5" font-family="Helvetica,sans-Serif" font-size="10.00">retrieve</text>
</a>
</g>
</g>
<!-- Node1&#45;&gt;Node4 -->
<g id="edge3" class="edge">
<title>Node1&#45;&gt;Node4</title>
<path fill="none" stroke="midnightblue" d="M111.76,-49.48C124.62,-45.89 138.46,-42.02 151.72,-38.32"/>
<polygon fill="midnightblue" stroke="midnightblue" points="153.02,-41.59 161.71,-35.53 151.14,-34.85 153.02,-41.59"/>
</g>
<!-- Node4&#45;&gt;Node3 -->
<g id="edge4" class="edge">
<title>Node4&#45;&gt;Node3</title>
<path fill="none" stroke="midnightblue" d="M280.99,-35.52C296.76,-39.25 313.8,-43.28 330.01,-47.12"/>
<polygon fill="midnightblue" stroke="midnightblue" points="329.44,-50.58 339.98,-49.47 331.05,-43.77 329.44,-50.58"/>
</g>
<!-- Node5 -->
<g id="node5" class="node">
<title>Node5</title>
<g id="a_node5"><a xlink:href="../../d8/dc8/classmoodycamel_1_1ConcurrentQueue.html#a1895c8a6120aef578fe01db53879517b" target="_top" xlink:title=" ">
<polygon fill="white" stroke="black" points="319,-0.5 319,-30.5 490,-30.5 490,-0.5 319,-0.5"/>
<text text-anchor="start" x="327" y="-18.5" font-family="Helvetica,sans-Serif" font-size="10.00">moodycamel::ConcurrentQueue</text>
<text text-anchor="middle" x="404.5" y="-7.5" font-family="Helvetica,sans-Serif" font-size="10.00">::try_dequeue</text>
</a>
</g>
</g>
<!-- Node4&#45;&gt;Node5 -->
<g id="edge5" class="edge">
<title>Node4&#45;&gt;Node5</title>
<path fill="none" stroke="midnightblue" d="M283.08,-18.74C291.42,-18.51 300.09,-18.28 308.78,-18.05"/>
<polygon fill="midnightblue" stroke="midnightblue" points="309.06,-21.54 318.97,-17.77 308.88,-14.54 309.06,-21.54"/>
</g>
</g>
</svg>
