<?xml version="1.0" encoding="UTF-8" standalone="no"?>
<!DOCTYPE svg PUBLIC "-//W3C//DTD SVG 1.1//EN"
 "http://www.w3.org/Graphics/SVG/1.1/DTD/svg11.dtd">
<!-- Generated by graphviz version 2.43.0 (0)
 -->
<!-- Title: /home/nico/projects/JODA&#45;gh/libs/joda/core/modules/indexing/src/cache/CacheEntry.h Pages: 1 -->
<svg width="1482pt" height="542pt"
 viewBox="0.00 0.00 1482.00 542.00" xmlns="http://www.w3.org/2000/svg" xmlns:xlink="http://www.w3.org/1999/xlink">
<g id="graph0" class="graph" transform="scale(1 1) rotate(0) translate(4 538)">
<title>/home/nico/projects/JODA&#45;gh/libs/joda/core/modules/indexing/src/cache/CacheEntry.h</title>
<polygon fill="white" stroke="transparent" points="-4,4 -4,-538 1478,-538 1478,4 -4,4"/>
<!-- Node1 -->
<g id="node1" class="node">
<title>Node1</title>
<g id="a_node1"><a xlink:title=" ">
<polygon fill="#bfbfbf" stroke="black" points="1159.5,-481.5 1159.5,-533.5 1314.5,-533.5 1314.5,-481.5 1159.5,-481.5"/>
<text text-anchor="start" x="1167.5" y="-521.5" font-family="Helvetica,sans-Serif" font-size="10.00">/home/nico/projects</text>
<text text-anchor="start" x="1167.5" y="-510.5" font-family="Helvetica,sans-Serif" font-size="10.00">/JODA&#45;gh/libs/joda/core</text>
<text text-anchor="start" x="1167.5" y="-499.5" font-family="Helvetica,sans-Serif" font-size="10.00">/modules/indexing/src/cache</text>
<text text-anchor="middle" x="1237" y="-488.5" font-family="Helvetica,sans-Serif" font-size="10.00">/CacheEntry.h</text>
</a>
</g>
</g>
<!-- Node2 -->
<g id="node2" class="node">
<title>Node2</title>
<g id="a_node2"><a xlink:href="../../d1/dfd/RapidJsonDocument_8h.html" target="_top" xlink:title=" ">
<polygon fill="white" stroke="black" points="1090,-358.5 1090,-377.5 1290,-377.5 1290,-358.5 1090,-358.5"/>
<text text-anchor="middle" x="1190" y="-365.5" font-family="Helvetica,sans-Serif" font-size="10.00">joda/document/RapidJsonDocument.h</text>
</a>
</g>
</g>
<!-- Node1&#45;&gt;Node2 -->
<g id="edge1" class="edge">
<title>Node1&#45;&gt;Node2</title>
<path fill="none" stroke="midnightblue" d="M1228.38,-481.28C1219.1,-454.12 1204.55,-411.56 1196.29,-387.39"/>
<polygon fill="midnightblue" stroke="midnightblue" points="1199.52,-386.03 1192.98,-377.7 1192.9,-388.29 1199.52,-386.03"/>
</g>
<!-- Node28 -->
<g id="node28" class="node">
<title>Node28</title>
<g id="a_node28"><a xlink:title=" ">
<polygon fill="white" stroke="#bfbfbf" points="1031,-224.5 1031,-243.5 1117,-243.5 1117,-224.5 1031,-224.5"/>
<text text-anchor="middle" x="1074" y="-231.5" font-family="Helvetica,sans-Serif" font-size="10.00">unordered_set</text>
</a>
</g>
</g>
<!-- Node1&#45;&gt;Node28 -->
<g id="edge62" class="edge">
<title>Node1&#45;&gt;Node28</title>
<path fill="none" stroke="midnightblue" d="M1188.46,-481.3C1151.82,-459.38 1104.07,-423.94 1081,-378 1060.71,-337.59 1065.72,-282.39 1070.33,-253.84"/>
<polygon fill="midnightblue" stroke="midnightblue" points="1073.83,-254.12 1072.14,-243.66 1066.94,-252.89 1073.83,-254.12"/>
</g>
<!-- Node31 -->
<g id="node31" class="node">
<title>Node31</title>
<g id="a_node31"><a xlink:href="../../db/d52/Predicate_8h.html" target="_top" xlink:title=" ">
<polygon fill="white" stroke="black" points="1238.5,-414.5 1238.5,-444.5 1355.5,-444.5 1355.5,-414.5 1238.5,-414.5"/>
<text text-anchor="start" x="1246.5" y="-432.5" font-family="Helvetica,sans-Serif" font-size="10.00">joda/query/predicate</text>
<text text-anchor="middle" x="1297" y="-421.5" font-family="Helvetica,sans-Serif" font-size="10.00">/Predicate.h</text>
</a>
</g>
</g>
<!-- Node1&#45;&gt;Node31 -->
<g id="edge55" class="edge">
<title>Node1&#45;&gt;Node31</title>
<path fill="none" stroke="midnightblue" d="M1256.98,-481.19C1264.21,-472.03 1272.33,-461.76 1279.35,-452.86"/>
<polygon fill="midnightblue" stroke="midnightblue" points="1282.23,-454.86 1285.68,-444.85 1276.73,-450.53 1282.23,-454.86"/>
</g>
<!-- Node32 -->
<g id="node32" class="node">
<title>Node32</title>
<g id="a_node32"><a xlink:href="../../d3/dc8/PredicateVisitor_8h.html" target="_top" xlink:title=" ">
<polygon fill="white" stroke="black" points="1346,-358.5 1346,-377.5 1448,-377.5 1448,-358.5 1346,-358.5"/>
<text text-anchor="middle" x="1397" y="-365.5" font-family="Helvetica,sans-Serif" font-size="10.00">PredicateVisitor.h</text>
</a>
</g>
</g>
<!-- Node1&#45;&gt;Node32 -->
<g id="edge61" class="edge">
<title>Node1&#45;&gt;Node32</title>
<path fill="none" stroke="midnightblue" d="M1312.03,-481.48C1331.14,-472.34 1350.38,-460.36 1365,-445 1380.39,-428.84 1388.9,-404.18 1393.21,-387.37"/>
<polygon fill="midnightblue" stroke="midnightblue" points="1396.62,-388.15 1395.46,-377.62 1389.8,-386.58 1396.62,-388.15"/>
</g>
<!-- Node3 -->
<g id="node3" class="node">
<title>Node3</title>
<g id="a_node3"><a xlink:href="../../d2/d0d/ViewLayer_8h.html" target="_top" xlink:title=" ">
<polygon fill="white" stroke="black" points="448,-286 448,-316 564,-316 564,-286 448,-286"/>
<text text-anchor="start" x="456" y="-304" font-family="Helvetica,sans-Serif" font-size="10.00">joda/document/view</text>
<text text-anchor="middle" x="506" y="-293" font-family="Helvetica,sans-Serif" font-size="10.00">/ViewLayer.h</text>
</a>
</g>
</g>
<!-- Node2&#45;&gt;Node3 -->
<g id="edge2" class="edge">
<title>Node2&#45;&gt;Node3</title>
<path fill="none" stroke="midnightblue" d="M1100.23,-358.47C961.68,-345.3 698.79,-320.32 574.45,-308.5"/>
<polygon fill="midnightblue" stroke="midnightblue" points="574.58,-305 564.3,-307.54 573.92,-311.97 574.58,-305"/>
</g>
<!-- Node8 -->
<g id="node8" class="node">
<title>Node8</title>
<g id="a_node8"><a xlink:href="../../d6/d09/RJFwd_8h.html" target="_top" xlink:title=" ">
<polygon fill="white" stroke="black" points="872,-56.5 872,-75.5 978,-75.5 978,-56.5 872,-56.5"/>
<text text-anchor="middle" x="925" y="-63.5" font-family="Helvetica,sans-Serif" font-size="10.00">joda/misc/RJFwd.h</text>
</a>
</g>
</g>
<!-- Node2&#45;&gt;Node8 -->
<g id="edge54" class="edge">
<title>Node2&#45;&gt;Node8</title>
<path fill="none" stroke="midnightblue" d="M1185.4,-358.47C1180.61,-349.49 1172.98,-334.89 1167,-322 1147.13,-279.17 1154.74,-261.46 1126,-224 1085.31,-170.96 1059.64,-173.21 1007,-132 985.2,-114.93 960.29,-95.14 943.7,-81.93"/>
<polygon fill="midnightblue" stroke="midnightblue" points="945.85,-79.16 935.85,-75.66 941.48,-84.63 945.85,-79.16"/>
</g>
<!-- Node9 -->
<g id="node9" class="node">
<title>Node9</title>
<g id="a_node9"><a xlink:title=" ">
<polygon fill="white" stroke="#bfbfbf" points="1172,-0.5 1172,-19.5 1294,-19.5 1294,-0.5 1172,-0.5"/>
<text text-anchor="middle" x="1233" y="-7.5" font-family="Helvetica,sans-Serif" font-size="10.00">rapidjson/allocators.h</text>
</a>
</g>
</g>
<!-- Node2&#45;&gt;Node9 -->
<g id="edge39" class="edge">
<title>Node2&#45;&gt;Node9</title>
<path fill="none" stroke="midnightblue" d="M1195.05,-358.37C1206.61,-337.77 1234,-283.8 1234,-235 1234,-235 1234,-235 1234,-121 1234,-88.95 1233.57,-51.64 1233.28,-29.75"/>
<polygon fill="midnightblue" stroke="midnightblue" points="1236.77,-29.51 1233.13,-19.56 1229.77,-29.61 1236.77,-29.51"/>
</g>
<!-- Node11 -->
<g id="node11" class="node">
<title>Node11</title>
<g id="a_node11"><a xlink:title=" ">
<polygon fill="white" stroke="#bfbfbf" points="1312.5,-0.5 1312.5,-19.5 1403.5,-19.5 1403.5,-0.5 1312.5,-0.5"/>
<text text-anchor="middle" x="1358" y="-7.5" font-family="Helvetica,sans-Serif" font-size="10.00">rapidjson/fwd.h</text>
</a>
</g>
</g>
<!-- Node2&#45;&gt;Node11 -->
<g id="edge40" class="edge">
<title>Node2&#45;&gt;Node11</title>
<path fill="none" stroke="midnightblue" d="M1219.68,-358.41C1267.43,-342.55 1356,-303.85 1356,-235 1356,-235 1356,-235 1356,-121 1356,-88.94 1356.86,-51.64 1357.45,-29.75"/>
<polygon fill="midnightblue" stroke="midnightblue" points="1360.96,-29.65 1357.74,-19.56 1353.96,-29.45 1360.96,-29.65"/>
</g>
<!-- Node23 -->
<g id="node23" class="node">
<title>Node23</title>
<g id="a_node23"><a xlink:title=" ">
<polygon fill="white" stroke="#bfbfbf" points="1262,-112.5 1262,-131.5 1320,-131.5 1320,-112.5 1262,-112.5"/>
<text text-anchor="middle" x="1291" y="-119.5" font-family="Helvetica,sans-Serif" font-size="10.00">memory</text>
</a>
</g>
</g>
<!-- Node2&#45;&gt;Node23 -->
<g id="edge42" class="edge">
<title>Node2&#45;&gt;Node23</title>
<path fill="none" stroke="midnightblue" d="M1206.63,-358.41C1219.9,-350.68 1237.89,-338.07 1248,-322 1284.54,-263.97 1290.39,-179.61 1291.09,-142.15"/>
<polygon fill="midnightblue" stroke="midnightblue" points="1294.59,-141.75 1291.16,-131.73 1287.59,-141.7 1294.59,-141.75"/>
</g>
<!-- Node26 -->
<g id="node26" class="node">
<title>Node26</title>
<g id="a_node26"><a xlink:title=" ">
<polygon fill="white" stroke="#bfbfbf" points="815,-291.5 815,-310.5 865,-310.5 865,-291.5 815,-291.5"/>
<text text-anchor="middle" x="840" y="-298.5" font-family="Helvetica,sans-Serif" font-size="10.00">atomic</text>
</a>
</g>
</g>
<!-- Node2&#45;&gt;Node26 -->
<g id="edge41" class="edge">
<title>Node2&#45;&gt;Node26</title>
<path fill="none" stroke="midnightblue" d="M1089.86,-362.33C1026.81,-357.06 944.5,-345.84 875,-322 870.41,-320.42 865.74,-318.23 861.36,-315.88"/>
<polygon fill="midnightblue" stroke="midnightblue" points="862.81,-312.67 852.42,-310.63 859.27,-318.71 862.81,-312.67"/>
</g>
<!-- Node27 -->
<g id="node27" class="node">
<title>Node27</title>
<g id="a_node27"><a xlink:href="../../df/d13/FileNameRepo_8h.html" target="_top" xlink:title=" ">
<polygon fill="white" stroke="black" points="883.5,-280.5 883.5,-321.5 1038.5,-321.5 1038.5,-280.5 883.5,-280.5"/>
<text text-anchor="start" x="891.5" y="-309.5" font-family="Helvetica,sans-Serif" font-size="10.00">../../../../../misc</text>
<text text-anchor="start" x="891.5" y="-298.5" font-family="Helvetica,sans-Serif" font-size="10.00">/include/joda/misc/FileName</text>
<text text-anchor="middle" x="961" y="-287.5" font-family="Helvetica,sans-Serif" font-size="10.00">Repo.h</text>
</a>
</g>
</g>
<!-- Node2&#45;&gt;Node27 -->
<g id="edge43" class="edge">
<title>Node2&#45;&gt;Node27</title>
<path fill="none" stroke="midnightblue" d="M1159.59,-358.37C1129.18,-349.74 1081.13,-336.1 1039.91,-324.4"/>
<polygon fill="midnightblue" stroke="midnightblue" points="1040.72,-320.99 1030.14,-321.63 1038.81,-327.72 1040.72,-320.99"/>
</g>
<!-- Node29 -->
<g id="node29" class="node">
<title>Node29</title>
<g id="a_node29"><a xlink:href="../../d5/d6c/IOrigin_8h.html" target="_top" xlink:title=" ">
<polygon fill="white" stroke="black" points="1120,-168.5 1120,-187.5 1178,-187.5 1178,-168.5 1120,-168.5"/>
<text text-anchor="middle" x="1149" y="-175.5" font-family="Helvetica,sans-Serif" font-size="10.00">IOrigin.h</text>
</a>
</g>
</g>
<!-- Node2&#45;&gt;Node29 -->
<g id="edge49" class="edge">
<title>Node2&#45;&gt;Node29</title>
<path fill="none" stroke="midnightblue" d="M1188.13,-358.29C1183.33,-335.97 1170.17,-274.87 1159,-224 1157.09,-215.29 1154.95,-205.65 1153.14,-197.52"/>
<polygon fill="midnightblue" stroke="midnightblue" points="1156.53,-196.62 1150.93,-187.62 1149.69,-198.15 1156.53,-196.62"/>
</g>
<!-- Node4 -->
<g id="node4" class="node">
<title>Node4</title>
<g id="a_node4"><a xlink:title=" ">
<polygon fill="white" stroke="#bfbfbf" points="634,-0.5 634,-19.5 720,-19.5 720,-0.5 634,-0.5"/>
<text text-anchor="middle" x="677" y="-7.5" font-family="Helvetica,sans-Serif" font-size="10.00">glog/logging.h</text>
</a>
</g>
</g>
<!-- Node3&#45;&gt;Node4 -->
<g id="edge3" class="edge">
<title>Node3&#45;&gt;Node4</title>
<path fill="none" stroke="midnightblue" d="M447.88,-296.88C325.98,-289.83 52.18,-271.14 20,-244 -3.01,-224.6 1,-209.1 1,-179 1,-179 1,-179 1,-121 1,-57.99 464.47,-23.91 623.89,-14.05"/>
<polygon fill="midnightblue" stroke="midnightblue" points="624.18,-17.54 633.95,-13.44 623.75,-10.55 624.18,-17.54"/>
</g>
<!-- Node5 -->
<g id="node5" class="node">
<title>Node5</title>
<g id="a_node5"><a xlink:href="../../db/d16/config_8h.html" target="_top" xlink:title=" ">
<polygon fill="white" stroke="black" points="259.5,-224.5 259.5,-243.5 370.5,-243.5 370.5,-224.5 259.5,-224.5"/>
<text text-anchor="middle" x="315" y="-231.5" font-family="Helvetica,sans-Serif" font-size="10.00">joda/config/config.h</text>
</a>
</g>
</g>
<!-- Node3&#45;&gt;Node5 -->
<g id="edge4" class="edge">
<title>Node3&#45;&gt;Node5</title>
<path fill="none" stroke="midnightblue" d="M464.56,-285.9C430.16,-274.19 381.8,-257.73 349.48,-246.73"/>
<polygon fill="midnightblue" stroke="midnightblue" points="350.59,-243.42 340,-243.51 348.34,-250.04 350.59,-243.42"/>
</g>
<!-- Node3&#45;&gt;Node8 -->
<g id="edge7" class="edge">
<title>Node3&#45;&gt;Node8</title>
<path fill="none" stroke="midnightblue" d="M564.05,-292.76C665.53,-278.75 868.18,-244.25 908,-188 929.69,-157.37 929.52,-111.29 927.35,-85.74"/>
<polygon fill="midnightblue" stroke="midnightblue" points="930.8,-85.16 926.28,-75.58 923.84,-85.89 930.8,-85.16"/>
</g>
<!-- Node14 -->
<g id="node14" class="node">
<title>Node14</title>
<g id="a_node14"><a xlink:title=" ">
<polygon fill="white" stroke="#bfbfbf" points="29.5,-224.5 29.5,-243.5 158.5,-243.5 158.5,-224.5 29.5,-224.5"/>
<text text-anchor="middle" x="94" y="-231.5" font-family="Helvetica,sans-Serif" font-size="10.00">rapidjson/stringbuffer.h</text>
</a>
</g>
</g>
<!-- Node3&#45;&gt;Node14 -->
<g id="edge14" class="edge">
<title>Node3&#45;&gt;Node14</title>
<path fill="none" stroke="midnightblue" d="M447.85,-290.82C371.43,-278.77 237.63,-257.66 158.28,-245.14"/>
<polygon fill="midnightblue" stroke="midnightblue" points="158.35,-241.61 147.93,-243.51 157.26,-248.52 158.35,-241.61"/>
</g>
<!-- Node15 -->
<g id="node15" class="node">
<title>Node15</title>
<g id="a_node15"><a xlink:title=" ">
<polygon fill="white" stroke="#bfbfbf" points="177,-224.5 177,-243.5 241,-243.5 241,-224.5 177,-224.5"/>
<text text-anchor="middle" x="209" y="-231.5" font-family="Helvetica,sans-Serif" font-size="10.00">algorithm</text>
</a>
</g>
</g>
<!-- Node3&#45;&gt;Node15 -->
<g id="edge15" class="edge">
<title>Node3&#45;&gt;Node15</title>
<path fill="none" stroke="midnightblue" d="M447.79,-287.28C398.13,-276.42 324.54,-260.33 251.12,-244.24"/>
<polygon fill="midnightblue" stroke="midnightblue" points="251.75,-240.8 241.23,-242.08 250.25,-247.64 251.75,-240.8"/>
</g>
<!-- Node16 -->
<g id="node16" class="node">
<title>Node16</title>
<g id="a_node16"><a xlink:title=" ">
<polygon fill="white" stroke="#bfbfbf" points="889,-224.5 889,-243.5 937,-243.5 937,-224.5 889,-224.5"/>
<text text-anchor="middle" x="913" y="-231.5" font-family="Helvetica,sans-Serif" font-size="10.00">mutex</text>
</a>
</g>
</g>
<!-- Node3&#45;&gt;Node16 -->
<g id="edge16" class="edge">
<title>Node3&#45;&gt;Node16</title>
<path fill="none" stroke="midnightblue" d="M564.1,-292.68C637,-283.15 765.75,-265.19 875,-244 876.28,-243.75 877.57,-243.49 878.88,-243.22"/>
<polygon fill="midnightblue" stroke="midnightblue" points="879.93,-246.58 888.94,-241.01 878.43,-239.74 879.93,-246.58"/>
</g>
<!-- Node17 -->
<g id="node17" class="node">
<title>Node17</title>
<g id="a_node17"><a xlink:title=" ">
<polygon fill="white" stroke="#bfbfbf" points="570.5,-56.5 570.5,-75.5 663.5,-75.5 663.5,-56.5 570.5,-56.5"/>
<text text-anchor="middle" x="617" y="-63.5" font-family="Helvetica,sans-Serif" font-size="10.00">unordered_map</text>
</a>
</g>
</g>
<!-- Node3&#45;&gt;Node17 -->
<g id="edge17" class="edge">
<title>Node3&#45;&gt;Node17</title>
<path fill="none" stroke="midnightblue" d="M507,-285.91C509.96,-252.66 521.18,-167.97 561,-112 569.68,-99.81 582.51,-89.17 593.71,-81.29"/>
<polygon fill="midnightblue" stroke="midnightblue" points="595.86,-84.07 602.23,-75.6 591.97,-78.25 595.86,-84.07"/>
</g>
<!-- Node18 -->
<g id="node18" class="node">
<title>Node18</title>
<g id="a_node18"><a xlink:title=" ">
<polygon fill="white" stroke="#bfbfbf" points="388.5,-224.5 388.5,-243.5 439.5,-243.5 439.5,-224.5 388.5,-224.5"/>
<text text-anchor="middle" x="414" y="-231.5" font-family="Helvetica,sans-Serif" font-size="10.00">variant</text>
</a>
</g>
</g>
<!-- Node3&#45;&gt;Node18 -->
<g id="edge18" class="edge">
<title>Node3&#45;&gt;Node18</title>
<path fill="none" stroke="midnightblue" d="M486.04,-285.9C470.75,-275.1 449.75,-260.26 434.37,-249.39"/>
<polygon fill="midnightblue" stroke="midnightblue" points="436.23,-246.42 426.04,-243.51 432.19,-252.14 436.23,-246.42"/>
</g>
<!-- Node19 -->
<g id="node19" class="node">
<title>Node19</title>
<g id="a_node19"><a xlink:href="../../da/d3b/ObjectIterator_8h.html" target="_top" xlink:title=" ">
<polygon fill="white" stroke="black" points="668,-224.5 668,-243.5 760,-243.5 760,-224.5 668,-224.5"/>
<text text-anchor="middle" x="714" y="-231.5" font-family="Helvetica,sans-Serif" font-size="10.00">ObjectIterator.h</text>
</a>
</g>
</g>
<!-- Node3&#45;&gt;Node19 -->
<g id="edge19" class="edge">
<title>Node3&#45;&gt;Node19</title>
<path fill="none" stroke="midnightblue" d="M550.88,-285.98C588.49,-274.22 641.54,-257.64 676.82,-246.62"/>
<polygon fill="midnightblue" stroke="midnightblue" points="678.21,-249.85 686.71,-243.53 676.12,-243.17 678.21,-249.85"/>
</g>
<!-- Node22 -->
<g id="node22" class="node">
<title>Node22</title>
<g id="a_node22"><a xlink:href="../../d5/de2/ViewCursor_8h.html" target="_top" xlink:title=" ">
<polygon fill="white" stroke="black" points="819,-168.5 819,-187.5 899,-187.5 899,-168.5 819,-168.5"/>
<text text-anchor="middle" x="859" y="-175.5" font-family="Helvetica,sans-Serif" font-size="10.00">ViewCursor.h</text>
</a>
</g>
</g>
<!-- Node3&#45;&gt;Node22 -->
<g id="edge32" class="edge">
<title>Node3&#45;&gt;Node22</title>
<path fill="none" stroke="midnightblue" d="M564.04,-294.63C618.8,-287.96 702.22,-273.63 769,-244 797.16,-231.5 825.24,-209.27 842.37,-194.33"/>
<polygon fill="midnightblue" stroke="midnightblue" points="844.71,-196.93 849.84,-187.66 840.05,-191.71 844.71,-196.93"/>
</g>
<!-- Node24 -->
<g id="node24" class="node">
<title>Node24</title>
<g id="a_node24"><a xlink:href="../../d0/d10/ViewStructure_8h.html" target="_top" xlink:title=" ">
<polygon fill="white" stroke="black" points="570,-112.5 570,-131.5 664,-131.5 664,-112.5 570,-112.5"/>
<text text-anchor="middle" x="617" y="-119.5" font-family="Helvetica,sans-Serif" font-size="10.00">ViewStructure.h</text>
</a>
</g>
</g>
<!-- Node3&#45;&gt;Node24 -->
<g id="edge33" class="edge">
<title>Node3&#45;&gt;Node24</title>
<path fill="none" stroke="midnightblue" d="M509.91,-285.81C517.4,-260.37 535.58,-206.14 564,-168 572.68,-156.36 584.91,-145.72 595.43,-137.71"/>
<polygon fill="midnightblue" stroke="midnightblue" points="597.74,-140.36 603.76,-131.64 593.61,-134.7 597.74,-140.36"/>
</g>
<!-- Node25 -->
<g id="node25" class="node">
<title>Node25</title>
<g id="a_node25"><a xlink:href="../../d8/dee/VirtualObject_8h.html" target="_top" xlink:title=" ">
<polygon fill="white" stroke="black" points="572.5,-168.5 572.5,-187.5 661.5,-187.5 661.5,-168.5 572.5,-168.5"/>
<text text-anchor="middle" x="617" y="-175.5" font-family="Helvetica,sans-Serif" font-size="10.00">VirtualObject.h</text>
</a>
</g>
</g>
<!-- Node3&#45;&gt;Node25 -->
<g id="edge34" class="edge">
<title>Node3&#45;&gt;Node25</title>
<path fill="none" stroke="midnightblue" d="M519.17,-285.64C540.03,-262.91 580.52,-218.77 602.3,-195.03"/>
<polygon fill="midnightblue" stroke="midnightblue" points="604.98,-197.29 609.16,-187.55 599.82,-192.56 604.98,-197.29"/>
</g>
<!-- Node6 -->
<g id="node6" class="node">
<title>Node6</title>
<g id="a_node6"><a xlink:title=" ">
<polygon fill="white" stroke="#bfbfbf" points="288,-168.5 288,-187.5 342,-187.5 342,-168.5 288,-168.5"/>
<text text-anchor="middle" x="315" y="-175.5" font-family="Helvetica,sans-Serif" font-size="10.00">istream</text>
</a>
</g>
</g>
<!-- Node5&#45;&gt;Node6 -->
<g id="edge5" class="edge">
<title>Node5&#45;&gt;Node6</title>
<path fill="none" stroke="midnightblue" d="M315,-224.08C315,-217.01 315,-206.86 315,-197.99"/>
<polygon fill="midnightblue" stroke="midnightblue" points="318.5,-197.75 315,-187.75 311.5,-197.75 318.5,-197.75"/>
</g>
<!-- Node7 -->
<g id="node7" class="node">
<title>Node7</title>
<g id="a_node7"><a xlink:title=" ">
<polygon fill="white" stroke="#bfbfbf" points="444,-56.5 444,-75.5 488,-75.5 488,-56.5 444,-56.5"/>
<text text-anchor="middle" x="466" y="-63.5" font-family="Helvetica,sans-Serif" font-size="10.00">string</text>
</a>
</g>
</g>
<!-- Node5&#45;&gt;Node7 -->
<g id="edge6" class="edge">
<title>Node5&#45;&gt;Node7</title>
<path fill="none" stroke="midnightblue" d="M321.88,-224.42C342.66,-198.53 403.97,-122.31 414,-112 424.28,-101.44 436.73,-90.6 446.88,-82.2"/>
<polygon fill="midnightblue" stroke="midnightblue" points="449.21,-84.82 454.76,-75.79 444.79,-79.39 449.21,-84.82"/>
</g>
<!-- Node8&#45;&gt;Node4 -->
<g id="edge8" class="edge">
<title>Node8&#45;&gt;Node4</title>
<path fill="none" stroke="midnightblue" d="M885.71,-56.44C842.44,-47.02 772.83,-31.87 726.03,-21.68"/>
<polygon fill="midnightblue" stroke="midnightblue" points="726.63,-18.22 716.11,-19.52 725.14,-25.06 726.63,-18.22"/>
</g>
<!-- Node8&#45;&gt;Node9 -->
<g id="edge9" class="edge">
<title>Node8&#45;&gt;Node9</title>
<path fill="none" stroke="midnightblue" d="M973.81,-56.44C1028.21,-46.9 1116.17,-31.48 1174.29,-21.29"/>
<polygon fill="midnightblue" stroke="midnightblue" points="1175.18,-24.69 1184.43,-19.52 1173.97,-17.8 1175.18,-24.69"/>
</g>
<!-- Node10 -->
<g id="node10" class="node">
<title>Node10</title>
<g id="a_node10"><a xlink:title=" ">
<polygon fill="white" stroke="#bfbfbf" points="864,-0.5 864,-19.5 986,-19.5 986,-0.5 864,-0.5"/>
<text text-anchor="middle" x="925" y="-7.5" font-family="Helvetica,sans-Serif" font-size="10.00">rapidjson/document.h</text>
</a>
</g>
</g>
<!-- Node8&#45;&gt;Node10 -->
<g id="edge10" class="edge">
<title>Node8&#45;&gt;Node10</title>
<path fill="none" stroke="midnightblue" d="M925,-56.08C925,-49.01 925,-38.86 925,-29.99"/>
<polygon fill="midnightblue" stroke="midnightblue" points="928.5,-29.75 925,-19.75 921.5,-29.75 928.5,-29.75"/>
</g>
<!-- Node8&#45;&gt;Node11 -->
<g id="edge11" class="edge">
<title>Node8&#45;&gt;Node11</title>
<path fill="none" stroke="midnightblue" d="M978.31,-59.4C1049.58,-51.74 1180.12,-37.14 1302.14,-20.06"/>
<polygon fill="midnightblue" stroke="midnightblue" points="1302.99,-23.48 1312.41,-18.62 1302.02,-16.55 1302.99,-23.48"/>
</g>
<!-- Node12 -->
<g id="node12" class="node">
<title>Node12</title>
<g id="a_node12"><a xlink:title=" ">
<polygon fill="white" stroke="#bfbfbf" points="1004,-0.5 1004,-19.5 1154,-19.5 1154,-0.5 1004,-0.5"/>
<text text-anchor="middle" x="1079" y="-7.5" font-family="Helvetica,sans-Serif" font-size="10.00">rapidjson/istreamwrapper.h</text>
</a>
</g>
</g>
<!-- Node8&#45;&gt;Node12 -->
<g id="edge12" class="edge">
<title>Node8&#45;&gt;Node12</title>
<path fill="none" stroke="midnightblue" d="M949.4,-56.44C975.2,-47.4 1016.08,-33.06 1045.02,-22.92"/>
<polygon fill="midnightblue" stroke="midnightblue" points="1046.44,-26.13 1054.71,-19.52 1044.12,-19.52 1046.44,-26.13"/>
</g>
<!-- Node13 -->
<g id="node13" class="node">
<title>Node13</title>
<g id="a_node13"><a xlink:title=" ">
<polygon fill="white" stroke="#bfbfbf" points="738.5,-0.5 738.5,-19.5 845.5,-19.5 845.5,-0.5 738.5,-0.5"/>
<text text-anchor="middle" x="792" y="-7.5" font-family="Helvetica,sans-Serif" font-size="10.00">rapidjson/pointer.h</text>
</a>
</g>
</g>
<!-- Node8&#45;&gt;Node13 -->
<g id="edge13" class="edge">
<title>Node8&#45;&gt;Node13</title>
<path fill="none" stroke="midnightblue" d="M903.93,-56.44C881.94,-47.52 847.27,-33.44 822.34,-23.32"/>
<polygon fill="midnightblue" stroke="midnightblue" points="823.56,-20.04 812.98,-19.52 820.93,-26.52 823.56,-20.04"/>
</g>
<!-- Node19&#45;&gt;Node7 -->
<g id="edge21" class="edge">
<title>Node19&#45;&gt;Node7</title>
<path fill="none" stroke="midnightblue" d="M667.98,-226.52C636.62,-220.42 595.28,-208.97 564,-188 523.19,-160.63 490.93,-111.12 475.65,-84.71"/>
<polygon fill="midnightblue" stroke="midnightblue" points="478.6,-82.82 470.64,-75.82 472.5,-86.25 478.6,-82.82"/>
</g>
<!-- Node19&#45;&gt;Node8 -->
<g id="edge20" class="edge">
<title>Node19&#45;&gt;Node8</title>
<path fill="none" stroke="midnightblue" d="M718.35,-224.24C730.92,-199.19 767.73,-128.05 788,-112 809.23,-95.2 836.97,-84.56 861.93,-77.88"/>
<polygon fill="midnightblue" stroke="midnightblue" points="862.86,-81.25 871.71,-75.42 861.16,-74.46 862.86,-81.25"/>
</g>
<!-- Node20 -->
<g id="node20" class="node">
<title>Node20</title>
<g id="a_node20"><a xlink:title=" ">
<polygon fill="white" stroke="#bfbfbf" points="679.5,-168.5 679.5,-187.5 724.5,-187.5 724.5,-168.5 679.5,-168.5"/>
<text text-anchor="middle" x="702" y="-175.5" font-family="Helvetica,sans-Serif" font-size="10.00">utility</text>
</a>
</g>
</g>
<!-- Node19&#45;&gt;Node20 -->
<g id="edge22" class="edge">
<title>Node19&#45;&gt;Node20</title>
<path fill="none" stroke="midnightblue" d="M712.02,-224.08C710.43,-216.93 708.14,-206.64 706.16,-197.69"/>
<polygon fill="midnightblue" stroke="midnightblue" points="709.53,-196.75 703.95,-187.75 702.7,-198.27 709.53,-196.75"/>
</g>
<!-- Node21 -->
<g id="node21" class="node">
<title>Node21</title>
<g id="a_node21"><a xlink:title=" ">
<polygon fill="white" stroke="#bfbfbf" points="796.5,-112.5 796.5,-131.5 843.5,-131.5 843.5,-112.5 796.5,-112.5"/>
<text text-anchor="middle" x="820" y="-119.5" font-family="Helvetica,sans-Serif" font-size="10.00">vector</text>
</a>
</g>
</g>
<!-- Node19&#45;&gt;Node21 -->
<g id="edge23" class="edge">
<title>Node19&#45;&gt;Node21</title>
<path fill="none" stroke="midnightblue" d="M725.49,-224.25C736.59,-215.57 753.65,-201.62 767,-188 781.91,-172.79 797.08,-153.75 807.35,-140.21"/>
<polygon fill="midnightblue" stroke="midnightblue" points="810.43,-141.94 813.61,-131.84 804.82,-137.75 810.43,-141.94"/>
</g>
<!-- Node19&#45;&gt;Node22 -->
<g id="edge24" class="edge">
<title>Node19&#45;&gt;Node22</title>
<path fill="none" stroke="midnightblue" d="M736.98,-224.44C761.16,-215.44 799.42,-201.19 826.65,-191.05"/>
<polygon fill="midnightblue" stroke="midnightblue" points="827.98,-194.29 836.13,-187.52 825.54,-187.73 827.98,-194.29"/>
</g>
<!-- Node22&#45;&gt;Node8 -->
<g id="edge25" class="edge">
<title>Node22&#45;&gt;Node8</title>
<path fill="none" stroke="midnightblue" d="M864.18,-168.37C875.02,-150.3 900.3,-108.18 914.62,-84.31"/>
<polygon fill="midnightblue" stroke="midnightblue" points="917.7,-85.97 919.85,-75.59 911.7,-82.37 917.7,-85.97"/>
</g>
<!-- Node22&#45;&gt;Node21 -->
<g id="edge27" class="edge">
<title>Node22&#45;&gt;Node21</title>
<path fill="none" stroke="midnightblue" d="M852.56,-168.08C847.05,-160.46 838.97,-149.26 832.24,-139.94"/>
<polygon fill="midnightblue" stroke="midnightblue" points="835.01,-137.81 826.32,-131.75 829.34,-141.91 835.01,-137.81"/>
</g>
<!-- Node22&#45;&gt;Node23 -->
<g id="edge26" class="edge">
<title>Node22&#45;&gt;Node23</title>
<path fill="none" stroke="midnightblue" d="M899.26,-171.97C981.93,-161.63 1169.95,-138.13 1251.76,-127.91"/>
<polygon fill="midnightblue" stroke="midnightblue" points="1252.4,-131.35 1261.88,-126.64 1251.53,-124.41 1252.4,-131.35"/>
</g>
<!-- Node22&#45;&gt;Node24 -->
<g id="edge28" class="edge">
<title>Node22&#45;&gt;Node24</title>
<path fill="none" stroke="midnightblue" d="M820.66,-168.44C778.53,-159.04 710.8,-143.93 665.13,-133.74"/>
<polygon fill="midnightblue" stroke="midnightblue" points="665.69,-130.28 655.17,-131.52 664.17,-137.11 665.69,-130.28"/>
</g>
<!-- Node24&#45;&gt;Node7 -->
<g id="edge30" class="edge">
<title>Node24&#45;&gt;Node7</title>
<path fill="none" stroke="midnightblue" d="M593.08,-112.44C567.34,-103.24 526.28,-88.56 497.83,-78.38"/>
<polygon fill="midnightblue" stroke="midnightblue" points="498.93,-75.06 488.34,-74.99 496.58,-81.65 498.93,-75.06"/>
</g>
<!-- Node24&#45;&gt;Node8 -->
<g id="edge29" class="edge">
<title>Node24&#45;&gt;Node8</title>
<path fill="none" stroke="midnightblue" d="M664.12,-112.74C718.44,-103.22 807.77,-87.55 866.5,-77.26"/>
<polygon fill="midnightblue" stroke="midnightblue" points="867.12,-80.7 876.37,-75.53 865.91,-73.81 867.12,-80.7"/>
</g>
<!-- Node24&#45;&gt;Node17 -->
<g id="edge31" class="edge">
<title>Node24&#45;&gt;Node17</title>
<path fill="none" stroke="midnightblue" d="M617,-112.08C617,-105.01 617,-94.86 617,-85.99"/>
<polygon fill="midnightblue" stroke="midnightblue" points="620.5,-85.75 617,-75.75 613.5,-85.75 620.5,-85.75"/>
</g>
<!-- Node25&#45;&gt;Node4 -->
<g id="edge35" class="edge">
<title>Node25&#45;&gt;Node4</title>
<path fill="none" stroke="midnightblue" d="M634.36,-168.39C647.56,-160.8 664.81,-148.4 673,-132 689.54,-98.9 685.23,-54.11 680.92,-29.35"/>
<polygon fill="midnightblue" stroke="midnightblue" points="684.35,-28.66 679.01,-19.5 677.47,-29.99 684.35,-28.66"/>
</g>
<!-- Node25&#45;&gt;Node7 -->
<g id="edge37" class="edge">
<title>Node25&#45;&gt;Node7</title>
<path fill="none" stroke="midnightblue" d="M605.15,-168.37C579.35,-149.57 517.85,-104.77 485.95,-81.53"/>
<polygon fill="midnightblue" stroke="midnightblue" points="487.94,-78.65 477.8,-75.59 483.82,-84.31 487.94,-78.65"/>
</g>
<!-- Node25&#45;&gt;Node8 -->
<g id="edge36" class="edge">
<title>Node25&#45;&gt;Node8</title>
<path fill="none" stroke="midnightblue" d="M633.96,-168.47C665.07,-152.9 730.26,-120.67 754,-112 793.5,-97.57 839.69,-85.7 874.1,-77.78"/>
<polygon fill="midnightblue" stroke="midnightblue" points="874.95,-81.18 883.93,-75.55 873.4,-74.35 874.95,-81.18"/>
</g>
<!-- Node25&#45;&gt;Node24 -->
<g id="edge38" class="edge">
<title>Node25&#45;&gt;Node24</title>
<path fill="none" stroke="midnightblue" d="M617,-168.08C617,-161.01 617,-150.86 617,-141.99"/>
<polygon fill="midnightblue" stroke="midnightblue" points="620.5,-141.75 617,-131.75 613.5,-141.75 620.5,-141.75"/>
</g>
<!-- Node27&#45;&gt;Node7 -->
<g id="edge45" class="edge">
<title>Node27&#45;&gt;Node7</title>
<path fill="none" stroke="midnightblue" d="M883.26,-281.89C880.14,-281.23 877.04,-280.6 874,-280 721.71,-249.77 660.47,-282.14 537,-188 511.16,-168.3 506.32,-160.1 490,-132 481.51,-117.37 475.11,-99.2 471.06,-85.79"/>
<polygon fill="midnightblue" stroke="midnightblue" points="474.33,-84.49 468.22,-75.83 467.59,-86.41 474.33,-84.49"/>
</g>
<!-- Node27&#45;&gt;Node16 -->
<g id="edge44" class="edge">
<title>Node27&#45;&gt;Node16</title>
<path fill="none" stroke="midnightblue" d="M946.6,-280.5C939.88,-271.39 931.95,-260.66 925.49,-251.91"/>
<polygon fill="midnightblue" stroke="midnightblue" points="928.15,-249.62 919.39,-243.65 922.52,-253.78 928.15,-249.62"/>
</g>
<!-- Node27&#45;&gt;Node17 -->
<g id="edge46" class="edge">
<title>Node27&#45;&gt;Node17</title>
<path fill="none" stroke="midnightblue" d="M964.53,-280.28C966.6,-264.73 967.95,-242.62 963,-224 945.09,-156.57 917.11,-139.53 853,-112 794.86,-87.04 722.75,-75.86 673.64,-70.89"/>
<polygon fill="midnightblue" stroke="midnightblue" points="673.81,-67.39 663.53,-69.92 673.15,-74.36 673.81,-67.39"/>
</g>
<!-- Node27&#45;&gt;Node21 -->
<g id="edge48" class="edge">
<title>Node27&#45;&gt;Node21</title>
<path fill="none" stroke="midnightblue" d="M959.3,-280.32C957.43,-264.59 953.62,-242.24 946,-224 934.41,-196.24 930.54,-187.92 908,-168 891.94,-153.81 870.61,-142.76 852.97,-135.16"/>
<polygon fill="midnightblue" stroke="midnightblue" points="854.19,-131.87 843.61,-131.29 851.52,-138.34 854.19,-131.87"/>
</g>
<!-- Node27&#45;&gt;Node28 -->
<g id="edge47" class="edge">
<title>Node27&#45;&gt;Node28</title>
<path fill="none" stroke="midnightblue" d="M994.91,-280.5C1012.73,-270.24 1034.15,-257.93 1050.2,-248.69"/>
<polygon fill="midnightblue" stroke="midnightblue" points="1052.04,-251.67 1058.96,-243.65 1048.55,-245.6 1052.04,-251.67"/>
</g>
<!-- Node29&#45;&gt;Node4 -->
<g id="edge50" class="edge">
<title>Node29&#45;&gt;Node4</title>
<path fill="none" stroke="midnightblue" d="M1135.66,-168.31C1122.19,-159.44 1100.88,-145.14 1083,-132 1039.16,-99.76 1037.03,-77.41 987,-56 880.97,-10.62 843.98,-37.66 730,-20 729.9,-19.98 729.8,-19.97 729.7,-19.95"/>
<polygon fill="midnightblue" stroke="midnightblue" points="730.51,-16.54 720.08,-18.42 729.41,-23.45 730.51,-16.54"/>
</g>
<!-- Node29&#45;&gt;Node8 -->
<g id="edge53" class="edge">
<title>Node29&#45;&gt;Node8</title>
<path fill="none" stroke="midnightblue" d="M1129.14,-168.34C1109.04,-159.5 1077.16,-145.22 1050,-132 1014.9,-114.91 974.98,-93.86 949.89,-80.44"/>
<polygon fill="midnightblue" stroke="midnightblue" points="951.51,-77.33 941.04,-75.69 948.2,-83.5 951.51,-77.33"/>
</g>
<!-- Node29&#45;&gt;Node23 -->
<g id="edge52" class="edge">
<title>Node29&#45;&gt;Node23</title>
<path fill="none" stroke="midnightblue" d="M1171.5,-168.44C1195.08,-159.48 1232.32,-145.31 1258.97,-135.18"/>
<polygon fill="midnightblue" stroke="midnightblue" points="1260.5,-138.34 1268.61,-131.52 1258.02,-131.8 1260.5,-138.34"/>
</g>
<!-- Node30 -->
<g id="node30" class="node">
<title>Node30</title>
<g id="a_node30"><a xlink:title=" ">
<polygon fill="white" stroke="#bfbfbf" points="1092,-112.5 1092,-131.5 1206,-131.5 1206,-112.5 1092,-112.5"/>
<text text-anchor="middle" x="1149" y="-119.5" font-family="Helvetica,sans-Serif" font-size="10.00">boost/operators.hpp</text>
</a>
</g>
</g>
<!-- Node29&#45;&gt;Node30 -->
<g id="edge51" class="edge">
<title>Node29&#45;&gt;Node30</title>
<path fill="none" stroke="midnightblue" d="M1149,-168.08C1149,-161.01 1149,-150.86 1149,-141.99"/>
<polygon fill="midnightblue" stroke="midnightblue" points="1152.5,-141.75 1149,-131.75 1145.5,-141.75 1152.5,-141.75"/>
</g>
<!-- Node31&#45;&gt;Node2 -->
<g id="edge60" class="edge">
<title>Node31&#45;&gt;Node2</title>
<path fill="none" stroke="midnightblue" d="M1271.64,-414.4C1254.33,-404.77 1231.53,-392.09 1214.42,-382.58"/>
<polygon fill="midnightblue" stroke="midnightblue" points="1216.01,-379.46 1205.57,-377.66 1212.61,-385.58 1216.01,-379.46"/>
</g>
<!-- Node31&#45;&gt;Node23 -->
<g id="edge56" class="edge">
<title>Node31&#45;&gt;Node23</title>
<path fill="none" stroke="midnightblue" d="M1300.95,-414.21C1307.04,-390.91 1318,-343.19 1318,-302 1318,-302 1318,-302 1318,-233 1318,-199.86 1306.3,-162.68 1298.3,-141.14"/>
<polygon fill="midnightblue" stroke="midnightblue" points="1301.51,-139.73 1294.64,-131.66 1294.98,-142.25 1301.51,-139.73"/>
</g>
<!-- Node31&#45;&gt;Node32 -->
<g id="edge57" class="edge">
<title>Node31&#45;&gt;Node32</title>
<path fill="none" stroke="midnightblue" d="M1320.7,-414.4C1336.73,-404.86 1357.8,-392.32 1373.74,-382.84"/>
<polygon fill="midnightblue" stroke="midnightblue" points="1375.65,-385.78 1382.45,-377.66 1372.07,-379.76 1375.65,-385.78"/>
</g>
<!-- Node32&#45;&gt;Node23 -->
<g id="edge59" class="edge">
<title>Node32&#45;&gt;Node23</title>
<path fill="none" stroke="midnightblue" d="M1395.52,-358.1C1390.39,-329.04 1371.52,-234.99 1332,-168 1325.72,-157.35 1316.62,-147.03 1308.58,-138.97"/>
<polygon fill="midnightblue" stroke="midnightblue" points="1310.68,-136.14 1301.05,-131.73 1305.83,-141.19 1310.68,-136.14"/>
</g>
<!-- Node33 -->
<g id="node33" class="node">
<title>Node33</title>
<g id="a_node33"><a xlink:title=" ">
<polygon fill="white" stroke="#bfbfbf" points="1422,-291.5 1422,-310.5 1474,-310.5 1474,-291.5 1422,-291.5"/>
<text text-anchor="middle" x="1448" y="-298.5" font-family="Helvetica,sans-Serif" font-size="10.00">cassert</text>
</a>
</g>
</g>
<!-- Node32&#45;&gt;Node33 -->
<g id="edge58" class="edge">
<title>Node32&#45;&gt;Node33</title>
<path fill="none" stroke="midnightblue" d="M1403.88,-358.23C1411.83,-348.1 1425.1,-331.19 1435.01,-318.56"/>
<polygon fill="midnightblue" stroke="midnightblue" points="1437.81,-320.66 1441.23,-310.63 1432.31,-316.33 1437.81,-320.66"/>
</g>
</g>
</svg>
