<?xml version="1.0" encoding="UTF-8" standalone="no"?>
<!DOCTYPE svg PUBLIC "-//W3C//DTD SVG 1.1//EN"
 "http://www.w3.org/Graphics/SVG/1.1/DTD/svg11.dtd">
<!-- Generated by graphviz version 2.43.0 (0)
 -->
<!-- Title: joda::queryparsing::grammar::aggState Pages: 1 -->
<!--zoomable 204 -->
<svg id="main" version="1.1" xmlns="http://www.w3.org/2000/svg" xmlns:xlink="http://www.w3.org/1999/xlink" xml:space="preserve" onload="init(evt)">
<style type="text/css"><![CDATA[
.edge:hover path { stroke: red; }
.edge:hover polygon { stroke: red; fill: red; }
]]></style>
<script type="text/javascript"><![CDATA[
var edges = document.getElementsByTagName('g');
if (edges && edges.length) {
  for (var i=0;i<edges.length;i++) {
    if (edges[i].id.substr(0,4)=='edge') {
      edges[i].setAttribute('class','edge');
    }
  }
}
]]></script>
        <defs>
                <circle id="rim" cx="0" cy="0" r="7"/>
                <circle id="rim2" cx="0" cy="0" r="3.5"/>
                <g id="zoomPlus">
                        <use xlink:href="#rim" fill="#404040">
                                <set attributeName="fill" to="#808080" begin="zoomplus.mouseover" end="zoomplus.mouseout"/>
                        </use>
                        <path d="M-4,0h8M0,-4v8" fill="none" stroke="white" stroke-width="1.5" pointer-events="none"/>
                </g>
                <g id="zoomMin">
                        <use xlink:href="#rim" fill="#404040">
                                <set attributeName="fill" to="#808080" begin="zoomminus.mouseover" end="zoomminus.mouseout"/>
                        </use>
                        <path d="M-4,0h8" fill="none" stroke="white" stroke-width="1.5" pointer-events="none"/>
                </g>
                <g id="dirArrow">
                        <path fill="none" stroke="white" stroke-width="1.5" d="M0,-3.0v7 M-2.5,-0.5L0,-3.0L2.5,-0.5"/>
                </g>
               <g id="resetDef">
                       <use xlink:href="#rim2" fill="#404040">
                               <set attributeName="fill" to="#808080" begin="reset.mouseover" end="reset.mouseout"/>
                       </use>
               </g>
        </defs>

<script type="text/javascript">
var viewWidth = 1129;
var viewHeight = 204;
var sectionId = 'dynsection-0';
</script>
<script xlink:href="../../svgpan.js"/>
<svg id="graph" class="graph">
<g id="viewport">
<title>joda::queryparsing::grammar::aggState</title>
<polygon fill="white" stroke="transparent" points="-4,4 -4,-200 1125,-200 1125,4 -4,4"/>
<!-- Node1 -->
<g id="node1" class="node">
<title>Node1</title>
<g id="a_node1"><a xlink:title=" ">
<polygon fill="#bfbfbf" stroke="black" points="1004,-70.5 1004,-100.5 1121,-100.5 1121,-70.5 1004,-70.5"/>
<text text-anchor="start" x="1012" y="-88.5" font-family="Helvetica,sans-Serif" font-size="10.00">joda::queryparsing</text>
<text text-anchor="middle" x="1062.5" y="-77.5" font-family="Helvetica,sans-Serif" font-size="10.00">::grammar::aggState</text>
</a>
</g>
</g>
<!-- Node2 -->
<g id="node2" class="node">
<title>Node2</title>
<g id="a_node2"><a xlink:title=" ">
<polygon fill="white" stroke="#bfbfbf" points="790.5,-159 790.5,-178 855.5,-178 855.5,-159 790.5,-159"/>
<text text-anchor="middle" x="823" y="-166" font-family="Helvetica,sans-Serif" font-size="10.00">std::string</text>
</a>
</g>
</g>
<!-- Node2&#45;&gt;Node1 -->
<g id="edge1" class="edge">
<title>Node2&#45;&gt;Node1</title>
<path fill="none" stroke="#9a32cd" stroke-dasharray="5,2" d="M865.87,-156.52C883.58,-151.26 904.39,-144.86 923,-138.5 951.35,-128.82 958.01,-125.21 986,-114.5 997.8,-109.98 1010.64,-105.06 1022.32,-100.57"/>
<polygon fill="#9a32cd" stroke="#9a32cd" points="864.44,-153.29 855.84,-159.47 866.42,-160 864.44,-153.29"/>
<text text-anchor="middle" x="963.5" y="-145.5" font-family="Helvetica,sans-Serif" font-size="10.00"> groupAs</text>
<text text-anchor="middle" x="963.5" y="-134.5" font-family="Helvetica,sans-Serif" font-size="10.00">toPointer</text>
</g>
<!-- Node3 -->
<g id="node3" class="node">
<title>Node3</title>
<g id="a_node3"><a xlink:title=" ">
<polygon fill="white" stroke="#bfbfbf" points="409.5,-165.5 409.5,-195.5 513.5,-195.5 513.5,-165.5 409.5,-165.5"/>
<text text-anchor="start" x="417.5" y="-183.5" font-family="Helvetica,sans-Serif" font-size="10.00">std::basic_string&lt;</text>
<text text-anchor="middle" x="461.5" y="-172.5" font-family="Helvetica,sans-Serif" font-size="10.00"> Char &gt;</text>
</a>
</g>
</g>
<!-- Node3&#45;&gt;Node2 -->
<g id="edge2" class="edge">
<title>Node3&#45;&gt;Node2</title>
<path fill="none" stroke="midnightblue" d="M523.69,-178.46C600.82,-175.88 730.54,-171.55 790.22,-169.56"/>
<polygon fill="midnightblue" stroke="midnightblue" points="523.5,-174.96 513.63,-178.79 523.74,-181.96 523.5,-174.96"/>
</g>
<!-- Node4 -->
<g id="node4" class="node">
<title>Node4</title>
<g id="a_node4"><a xlink:title=" ">
<polygon fill="white" stroke="#bfbfbf" points="723,-49.5 723,-79.5 923,-79.5 923,-49.5 723,-49.5"/>
<text text-anchor="start" x="731" y="-67.5" font-family="Helvetica,sans-Serif" font-size="10.00">std::vector&lt; std::unique</text>
<text text-anchor="middle" x="823" y="-56.5" font-family="Helvetica,sans-Serif" font-size="10.00">_ptr&lt; joda::query::IValueProvider &gt; &gt;</text>
</a>
</g>
</g>
<!-- Node4&#45;&gt;Node1 -->
<g id="edge3" class="edge">
<title>Node4&#45;&gt;Node1</title>
<path fill="none" stroke="#9a32cd" stroke-dasharray="5,2" d="M933.33,-71.93C950.95,-73.32 968.99,-74.86 986,-76.5 991.78,-77.06 997.81,-77.69 1003.82,-78.36"/>
<polygon fill="#9a32cd" stroke="#9a32cd" points="933.25,-68.41 923.01,-71.13 932.71,-75.39 933.25,-68.41"/>
<text text-anchor="middle" x="963.5" y="-79.5" font-family="Helvetica,sans-Serif" font-size="10.00"> valprov</text>
</g>
<!-- Node5 -->
<g id="node5" class="node">
<title>Node5</title>
<g id="a_node5"><a xlink:title=" ">
<polygon fill="white" stroke="#bfbfbf" points="393,-0.5 393,-30.5 530,-30.5 530,-0.5 393,-0.5"/>
<text text-anchor="start" x="401" y="-18.5" font-family="Helvetica,sans-Serif" font-size="10.00">std::unique_ptr&lt; joda</text>
<text text-anchor="middle" x="461.5" y="-7.5" font-family="Helvetica,sans-Serif" font-size="10.00">::query::IValueProvider &gt;</text>
</a>
</g>
</g>
<!-- Node5&#45;&gt;Node1 -->
<g id="edge9" class="edge">
<title>Node5&#45;&gt;Node1</title>
<path fill="none" stroke="#9a32cd" stroke-dasharray="5,2" d="M540.44,-8.32C633.01,-1.93 791.44,2.24 923,-28.5 962.5,-37.73 1005.29,-56.88 1032.69,-70.43"/>
<polygon fill="#9a32cd" stroke="#9a32cd" points="540.03,-4.84 530.31,-9.04 540.53,-11.82 540.03,-4.84"/>
<text text-anchor="middle" x="823" y="-31.5" font-family="Helvetica,sans-Serif" font-size="10.00"> groupedByValue</text>
</g>
<!-- Node5&#45;&gt;Node4 -->
<g id="edge4" class="edge">
<title>Node5&#45;&gt;Node4</title>
<path fill="none" stroke="#9a32cd" stroke-dasharray="5,2" d="M540.39,-16.51C588.18,-18.15 650.48,-22.12 705,-31.5 729.23,-35.67 755.64,-42.88 777.22,-49.5"/>
<polygon fill="#9a32cd" stroke="#9a32cd" points="540.21,-13 530.11,-16.19 539.99,-20 540.21,-13"/>
<text text-anchor="middle" x="626.5" y="-34.5" font-family="Helvetica,sans-Serif" font-size="10.00"> elements</text>
</g>
<!-- Node6 -->
<g id="node6" class="node">
<title>Node6</title>
<g id="a_node6"><a xlink:title=" ">
<polygon fill="white" stroke="#bfbfbf" points="82,-53 82,-72 200,-72 200,-53 82,-53"/>
<text text-anchor="middle" x="141" y="-60" font-family="Helvetica,sans-Serif" font-size="10.00">std::unique_ptr&lt; T &gt;</text>
</a>
</g>
</g>
<!-- Node6&#45;&gt;Node5 -->
<g id="edge5" class="edge">
<title>Node6&#45;&gt;Node5</title>
<path fill="none" stroke="orange" stroke-dasharray="5,2" d="M201.7,-51.23C207.2,-50.27 212.7,-49.35 218,-48.5 276.95,-39.07 344.23,-30.05 392.95,-23.83"/>
<polygon fill="orange" stroke="orange" points="201.05,-47.79 191.82,-52.98 202.27,-54.68 201.05,-47.79"/>
<text text-anchor="middle" x="296.5" y="-51.5" font-family="Helvetica,sans-Serif" font-size="10.00"> &lt; joda::query::IValueProvider &gt;</text>
</g>
<!-- Node10 -->
<g id="node10" class="node">
<title>Node10</title>
<g id="a_node10"><a xlink:title=" ">
<polygon fill="white" stroke="#bfbfbf" points="399.5,-49.5 399.5,-79.5 523.5,-79.5 523.5,-49.5 399.5,-49.5"/>
<text text-anchor="start" x="407.5" y="-67.5" font-family="Helvetica,sans-Serif" font-size="10.00">std::unique_ptr&lt; joda</text>
<text text-anchor="middle" x="461.5" y="-56.5" font-family="Helvetica,sans-Serif" font-size="10.00">::query::IAggregator &gt;</text>
</a>
</g>
</g>
<!-- Node6&#45;&gt;Node10 -->
<g id="edge12" class="edge">
<title>Node6&#45;&gt;Node10</title>
<path fill="none" stroke="orange" stroke-dasharray="5,2" d="M210.25,-62.93C266.39,-63.28 345.22,-63.78 399.32,-64.12"/>
<polygon fill="orange" stroke="orange" points="210.07,-59.43 200.05,-62.86 210.03,-66.43 210.07,-59.43"/>
<text text-anchor="middle" x="296.5" y="-67.5" font-family="Helvetica,sans-Serif" font-size="10.00"> &lt; joda::query::IAggregator &gt;</text>
</g>
<!-- Node7 -->
<g id="node7" class="node">
<title>Node7</title>
<g id="a_node7"><a xlink:title=" ">
<polygon fill="white" stroke="#bfbfbf" points="0,-76 0,-95 29,-95 29,-76 0,-76"/>
<text text-anchor="middle" x="14.5" y="-83" font-family="Helvetica,sans-Serif" font-size="10.00">T</text>
</a>
</g>
</g>
<!-- Node7&#45;&gt;Node6 -->
<g id="edge6" class="edge">
<title>Node7&#45;&gt;Node6</title>
<path fill="none" stroke="#9a32cd" stroke-dasharray="5,2" d="M39.45,-81.08C53.34,-78.51 71.39,-75.18 88.36,-72.04"/>
<polygon fill="#9a32cd" stroke="#9a32cd" points="38.5,-77.69 29.3,-82.95 39.77,-84.58 38.5,-77.69"/>
<text text-anchor="middle" x="55.5" y="-82.5" font-family="Helvetica,sans-Serif" font-size="10.00"> ptr</text>
</g>
<!-- Node8 -->
<g id="node8" class="node">
<title>Node8</title>
<g id="a_node8"><a xlink:title=" ">
<polygon fill="white" stroke="#bfbfbf" points="413,-99 413,-118 510,-118 510,-99 413,-99"/>
<text text-anchor="middle" x="461.5" y="-106" font-family="Helvetica,sans-Serif" font-size="10.00">std::vector&lt; T &gt;</text>
</a>
</g>
</g>
<!-- Node7&#45;&gt;Node8 -->
<g id="edge8" class="edge">
<title>Node7&#45;&gt;Node8</title>
<path fill="none" stroke="#9a32cd" stroke-dasharray="5,2" d="M39.03,-92.9C41.7,-93.53 44.39,-94.09 47,-94.5 178.09,-115.13 335.33,-113.27 412.7,-110.64"/>
<polygon fill="#9a32cd" stroke="#9a32cd" points="39.71,-89.45 29.14,-90.18 37.86,-96.2 39.71,-89.45"/>
<text text-anchor="middle" x="141" y="-111.5" font-family="Helvetica,sans-Serif" font-size="10.00"> elements</text>
</g>
<!-- Node8&#45;&gt;Node4 -->
<g id="edge7" class="edge">
<title>Node8&#45;&gt;Node4</title>
<path fill="none" stroke="orange" stroke-dasharray="5,2" d="M520.31,-99.4C529.56,-98.04 539.04,-96.69 548,-95.5 605.9,-87.83 670.84,-80.43 722.96,-74.78"/>
<polygon fill="orange" stroke="orange" points="519.76,-95.95 510.39,-100.89 520.8,-102.87 519.76,-95.95"/>
<text text-anchor="start" x="548" y="-109.5" font-family="Helvetica,sans-Serif" font-size="10.00"> &lt; std::unique_ptr&lt;</text>
<text text-anchor="middle" x="626.5" y="-98.5" font-family="Helvetica,sans-Serif" font-size="10.00"> joda::query::IValueProvider &gt; &gt;</text>
</g>
<!-- Node9 -->
<g id="node9" class="node">
<title>Node9</title>
<g id="a_node9"><a xlink:title=" ">
<polygon fill="white" stroke="#bfbfbf" points="730,-98.5 730,-128.5 916,-128.5 916,-98.5 730,-98.5"/>
<text text-anchor="start" x="738" y="-116.5" font-family="Helvetica,sans-Serif" font-size="10.00">std::vector&lt; std::unique</text>
<text text-anchor="middle" x="823" y="-105.5" font-family="Helvetica,sans-Serif" font-size="10.00">_ptr&lt; joda::query::IAggregator &gt; &gt;</text>
</a>
</g>
</g>
<!-- Node8&#45;&gt;Node9 -->
<g id="edge13" class="edge">
<title>Node8&#45;&gt;Node9</title>
<path fill="none" stroke="orange" stroke-dasharray="5,2" d="M520.21,-118.48C529.48,-119.74 538.98,-120.82 548,-121.5 608.5,-126.07 676.71,-124.11 729.93,-120.98"/>
<polygon fill="orange" stroke="orange" points="520.68,-115.02 510.29,-117.07 519.69,-121.95 520.68,-115.02"/>
<text text-anchor="start" x="555" y="-137.5" font-family="Helvetica,sans-Serif" font-size="10.00"> &lt; std::unique_ptr&lt;</text>
<text text-anchor="middle" x="626.5" y="-126.5" font-family="Helvetica,sans-Serif" font-size="10.00"> joda::query::IAggregator &gt; &gt;</text>
</g>
<!-- Node9&#45;&gt;Node1 -->
<g id="edge10" class="edge">
<title>Node9&#45;&gt;Node1</title>
<path fill="none" stroke="#9a32cd" stroke-dasharray="5,2" d="M926.26,-101.44C952.76,-98.32 980.38,-95.06 1003.7,-92.31"/>
<polygon fill="#9a32cd" stroke="#9a32cd" points="925.69,-97.99 916.16,-102.63 926.5,-104.94 925.69,-97.99"/>
<text text-anchor="middle" x="963.5" y="-102.5" font-family="Helvetica,sans-Serif" font-size="10.00"> aggs</text>
</g>
<!-- Node10&#45;&gt;Node9 -->
<g id="edge11" class="edge">
<title>Node10&#45;&gt;Node9</title>
<path fill="none" stroke="#9a32cd" stroke-dasharray="5,2" d="M534.04,-63.6C538.77,-63.56 543.45,-63.53 548,-63.5 617.78,-63.09 642.9,-31.69 705,-63.5 717.19,-69.74 711.68,-80.8 723,-88.5 728.72,-92.39 734.99,-95.67 741.52,-98.44"/>
<polygon fill="#9a32cd" stroke="#9a32cd" points="533.65,-60.1 523.68,-63.7 533.71,-67.1 533.65,-60.1"/>
<text text-anchor="middle" x="626.5" y="-66.5" font-family="Helvetica,sans-Serif" font-size="10.00"> elements</text>
</g>
</g>
</svg>
        <g id="navigator" transform="translate(0 0)" fill="#404254">
                <rect fill="#f2f5e9" fill-opacity="0.5" stroke="#606060" stroke-width=".5" x="0" y="0" width="60" height="60"/>
                <use id="zoomplus" xlink:href="#zoomPlus" x="17" y="9" onmousedown="handleZoom(evt,'in')"/>
                <use id="zoomminus" xlink:href="#zoomMin" x="42" y="9" onmousedown="handleZoom(evt,'out')"/>
                <use id="reset" xlink:href="#resetDef" x="30" y="36" onmousedown="handleReset()"/>
                <g id="arrowUp" xlink:href="#dirArrow" transform="translate(30 24)" onmousedown="handlePan(0,-1)">
                  <use xlink:href="#rim" fill="#404040">
                        <set attributeName="fill" to="#808080" begin="arrowUp.mouseover" end="arrowUp.mouseout"/>
                  </use>
                  <path fill="none" stroke="white" stroke-width="1.5" d="M0,-3.0v7 M-2.5,-0.5L0,-3.0L2.5,-0.5"/>
                </g>
                <g id="arrowRight" xlink:href="#dirArrow" transform="rotate(90) translate(36 -43)" onmousedown="handlePan(1,0)">
                  <use xlink:href="#rim" fill="#404040">
                        <set attributeName="fill" to="#808080" begin="arrowRight.mouseover" end="arrowRight.mouseout"/>
                  </use>
                  <path fill="none" stroke="white" stroke-width="1.5" d="M0,-3.0v7 M-2.5,-0.5L0,-3.0L2.5,-0.5"/>
                </g>
                <g id="arrowDown" xlink:href="#dirArrow" transform="rotate(180) translate(-30 -48)" onmousedown="handlePan(0,1)">
                  <use xlink:href="#rim" fill="#404040">
                        <set attributeName="fill" to="#808080" begin="arrowDown.mouseover" end="arrowDown.mouseout"/>
                  </use>
                  <path fill="none" stroke="white" stroke-width="1.5" d="M0,-3.0v7 M-2.5,-0.5L0,-3.0L2.5,-0.5"/>
                </g>
                <g id="arrowLeft" xlink:href="#dirArrow" transform="rotate(270) translate(-36 17)" onmousedown="handlePan(-1,0)">
                  <use xlink:href="#rim" fill="#404040">
                        <set attributeName="fill" to="#808080" begin="arrowLeft.mouseover" end="arrowLeft.mouseout"/>
                  </use>
                  <path fill="none" stroke="white" stroke-width="1.5" d="M0,-3.0v7 M-2.5,-0.5L0,-3.0L2.5,-0.5"/>
                </g>
        </g>
        <svg viewBox="0 0 15 15" width="100%" height="30px" preserveAspectRatio="xMaxYMin meet">
         <g id="arrow_out" transform="scale(0.3 0.3)">
          <a xlink:href="structjoda_1_1queryparsing_1_1grammar_1_1aggState__coll__graph_org.svg" target="_base">
           <rect id="button" ry="5" rx="5" y="6" x="6" height="38" width="38"
                fill="#f2f5e9" fill-opacity="0.5" stroke="#606060" stroke-width="1.0"/>
           <path id="arrow"
             d="M 11.500037,31.436501 C 11.940474,20.09759 22.043105,11.32322 32.158766,21.979434 L 37.068811,17.246167 C 37.068811,17.246167 37.088388,32 37.088388,32 L 22.160133,31.978069 C 22.160133,31.978069 26.997745,27.140456 26.997745,27.140456 C 18.528582,18.264221 13.291696,25.230495 11.500037,31.436501 z"
             style="fill:#404040;"/>
          </a>
         </g>
        </svg>
</svg>
