<?xml version="1.0" encoding="UTF-8" standalone="no"?>
<!DOCTYPE svg PUBLIC "-//W3C//DTD SVG 1.1//EN"
 "http://www.w3.org/Graphics/SVG/1.1/DTD/svg11.dtd">
<!-- Generated by graphviz version 2.43.0 (0)
 -->
<!-- Title: /home/nico/projects/tmp&#45;joda&#45;dirs/JODA&#45;gh/libs/joda/core/modules/queryparsing/src/grammar/Load.h Pages: 1 -->
<svg width="1163pt" height="450pt"
 viewBox="0.00 0.00 1163.12 450.00" xmlns="http://www.w3.org/2000/svg" xmlns:xlink="http://www.w3.org/1999/xlink">
<g id="graph0" class="graph" transform="scale(1 1) rotate(0) translate(4 446)">
<title>/home/nico/projects/tmp&#45;joda&#45;dirs/JODA&#45;gh/libs/joda/core/modules/queryparsing/src/grammar/Load.h</title>
<polygon fill="white" stroke="transparent" points="-4,4 -4,-446 1159.12,-446 1159.12,4 -4,4"/>
<!-- Node1 -->
<g id="node1" class="node">
<title>Node1</title>
<g id="a_node1"><a xlink:title=" ">
<polygon fill="#bfbfbf" stroke="black" points="581.12,-389.5 581.12,-441.5 765.12,-441.5 765.12,-389.5 581.12,-389.5"/>
<text text-anchor="start" x="589.12" y="-429.5" font-family="Helvetica,sans-Serif" font-size="10.00">/home/nico/projects</text>
<text text-anchor="start" x="589.12" y="-418.5" font-family="Helvetica,sans-Serif" font-size="10.00">/tmp&#45;joda&#45;dirs/JODA</text>
<text text-anchor="start" x="589.12" y="-407.5" font-family="Helvetica,sans-Serif" font-size="10.00">&#45;gh/libs/joda/core/modules</text>
<text text-anchor="middle" x="673.12" y="-396.5" font-family="Helvetica,sans-Serif" font-size="10.00">/queryparsing/src/grammar/Load.h</text>
</a>
</g>
</g>
<!-- Node2 -->
<g id="node2" class="node">
<title>Node2</title>
<g id="a_node2"><a xlink:href="../../d4/d03/Grammar_8h.html" target="_top" xlink:title=" ">
<polygon fill="white" stroke="black" points="513.62,-289.5 513.62,-352.5 662.62,-352.5 662.62,-289.5 513.62,-289.5"/>
<text text-anchor="start" x="521.62" y="-340.5" font-family="Helvetica,sans-Serif" font-size="10.00">/home/nico/projects</text>
<text text-anchor="start" x="521.62" y="-329.5" font-family="Helvetica,sans-Serif" font-size="10.00">/tmp&#45;joda&#45;dirs/JODA</text>
<text text-anchor="start" x="521.62" y="-318.5" font-family="Helvetica,sans-Serif" font-size="10.00">&#45;gh/libs/joda/core/modules</text>
<text text-anchor="start" x="521.62" y="-307.5" font-family="Helvetica,sans-Serif" font-size="10.00">/queryparsing/src/grammar</text>
<text text-anchor="middle" x="588.12" y="-296.5" font-family="Helvetica,sans-Serif" font-size="10.00">/Grammar.h</text>
</a>
</g>
</g>
<!-- Node1&#45;&gt;Node2 -->
<g id="edge1" class="edge">
<title>Node1&#45;&gt;Node2</title>
<path fill="none" stroke="midnightblue" d="M643.07,-381.8C634.31,-372.27 624.78,-361.9 616.16,-352.51"/>
<polygon fill="midnightblue" stroke="midnightblue" points="640.55,-384.23 649.89,-389.22 645.7,-379.49 640.55,-384.23"/>
</g>
<!-- Node12 -->
<g id="node12" class="node">
<title>Node12</title>
<g id="a_node12"><a xlink:href="../../df/d7e/LOAD__error_8h.html" target="_top" xlink:title=" ">
<polygon fill="white" stroke="black" points="841.62,-289.5 841.62,-352.5 998.62,-352.5 998.62,-289.5 841.62,-289.5"/>
<text text-anchor="start" x="849.62" y="-340.5" font-family="Helvetica,sans-Serif" font-size="10.00">/home/nico/projects</text>
<text text-anchor="start" x="849.62" y="-329.5" font-family="Helvetica,sans-Serif" font-size="10.00">/tmp&#45;joda&#45;dirs/JODA</text>
<text text-anchor="start" x="849.62" y="-318.5" font-family="Helvetica,sans-Serif" font-size="10.00">&#45;gh/libs/joda/core/modules</text>
<text text-anchor="start" x="849.62" y="-307.5" font-family="Helvetica,sans-Serif" font-size="10.00">/queryparsing/src/error/LOAD</text>
<text text-anchor="middle" x="920.12" y="-296.5" font-family="Helvetica,sans-Serif" font-size="10.00">_error.h</text>
</a>
</g>
</g>
<!-- Node1&#45;&gt;Node12 -->
<g id="edge18" class="edge">
<title>Node1&#45;&gt;Node12</title>
<path fill="none" stroke="midnightblue" d="M749.67,-385.83C778.81,-374.92 812.05,-362.47 841.39,-351.48"/>
<polygon fill="midnightblue" stroke="midnightblue" points="748.1,-382.68 739.96,-389.47 750.55,-389.24 748.1,-382.68"/>
</g>
<!-- Node3 -->
<g id="node3" class="node">
<title>Node3</title>
<g id="a_node3"><a xlink:href="../../de/db3/Actions_8h.html" target="_top" xlink:title=" ">
<polygon fill="white" stroke="black" points="433.12,-89.5 433.12,-152.5 579.12,-152.5 579.12,-89.5 433.12,-89.5"/>
<text text-anchor="start" x="441.12" y="-140.5" font-family="Helvetica,sans-Serif" font-size="10.00">/home/nico/projects</text>
<text text-anchor="start" x="441.12" y="-129.5" font-family="Helvetica,sans-Serif" font-size="10.00">/tmp&#45;joda&#45;dirs/JODA</text>
<text text-anchor="start" x="441.12" y="-118.5" font-family="Helvetica,sans-Serif" font-size="10.00">&#45;gh/libs/joda/core/modules</text>
<text text-anchor="start" x="441.12" y="-107.5" font-family="Helvetica,sans-Serif" font-size="10.00">/queryparsing/src/actions</text>
<text text-anchor="middle" x="506.12" y="-96.5" font-family="Helvetica,sans-Serif" font-size="10.00">/Actions.h</text>
</a>
</g>
</g>
<!-- Node2&#45;&gt;Node3 -->
<g id="edge2" class="edge">
<title>Node2&#45;&gt;Node3</title>
<path fill="none" stroke="midnightblue" d="M503.19,-316.21C351.33,-308.57 46.05,-288.87 14.12,-253 -4.79,-231.75 -4.59,-210.43 14.12,-189 41.24,-157.93 302.77,-135.87 433.07,-126.71"/>
<polygon fill="midnightblue" stroke="midnightblue" points="503.25,-319.72 513.41,-316.72 503.6,-312.73 503.25,-319.72"/>
</g>
<!-- Node5 -->
<g id="node5" class="node">
<title>Node5</title>
<g id="a_node5"><a xlink:href="../../d4/daf/Agg__Actions_8h.html" target="_top" xlink:title=" ">
<polygon fill="white" stroke="black" points="23.12,-189.5 23.12,-252.5 169.12,-252.5 169.12,-189.5 23.12,-189.5"/>
<text text-anchor="start" x="31.12" y="-240.5" font-family="Helvetica,sans-Serif" font-size="10.00">/home/nico/projects</text>
<text text-anchor="start" x="31.12" y="-229.5" font-family="Helvetica,sans-Serif" font-size="10.00">/tmp&#45;joda&#45;dirs/JODA</text>
<text text-anchor="start" x="31.12" y="-218.5" font-family="Helvetica,sans-Serif" font-size="10.00">&#45;gh/libs/joda/core/modules</text>
<text text-anchor="start" x="31.12" y="-207.5" font-family="Helvetica,sans-Serif" font-size="10.00">/queryparsing/src/actions</text>
<text text-anchor="middle" x="96.12" y="-196.5" font-family="Helvetica,sans-Serif" font-size="10.00">/Agg_Actions.h</text>
</a>
</g>
</g>
<!-- Node2&#45;&gt;Node5 -->
<g id="edge4" class="edge">
<title>Node2&#45;&gt;Node5</title>
<path fill="none" stroke="midnightblue" d="M503.52,-311.17C419.89,-301.28 288.75,-282.63 178.12,-253 175.18,-252.21 172.2,-251.36 169.2,-250.45"/>
<polygon fill="midnightblue" stroke="midnightblue" points="503.14,-314.65 513.48,-312.34 503.96,-307.7 503.14,-314.65"/>
</g>
<!-- Node6 -->
<g id="node6" class="node">
<title>Node6</title>
<g id="a_node6"><a xlink:href="../../d0/d2e/As__Actions_8h.html" target="_top" xlink:title=" ">
<polygon fill="white" stroke="black" points="187.12,-189.5 187.12,-252.5 333.12,-252.5 333.12,-189.5 187.12,-189.5"/>
<text text-anchor="start" x="195.12" y="-240.5" font-family="Helvetica,sans-Serif" font-size="10.00">/home/nico/projects</text>
<text text-anchor="start" x="195.12" y="-229.5" font-family="Helvetica,sans-Serif" font-size="10.00">/tmp&#45;joda&#45;dirs/JODA</text>
<text text-anchor="start" x="195.12" y="-218.5" font-family="Helvetica,sans-Serif" font-size="10.00">&#45;gh/libs/joda/core/modules</text>
<text text-anchor="start" x="195.12" y="-207.5" font-family="Helvetica,sans-Serif" font-size="10.00">/queryparsing/src/actions</text>
<text text-anchor="middle" x="260.12" y="-196.5" font-family="Helvetica,sans-Serif" font-size="10.00">/As_Actions.h</text>
</a>
</g>
</g>
<!-- Node2&#45;&gt;Node6 -->
<g id="edge6" class="edge">
<title>Node2&#45;&gt;Node6</title>
<path fill="none" stroke="midnightblue" d="M503.58,-299.11C455.85,-286.78 395.28,-270.25 342.12,-253 339.22,-252.06 336.28,-251.08 333.31,-250.07"/>
<polygon fill="midnightblue" stroke="midnightblue" points="503.01,-302.57 513.57,-301.67 504.75,-295.79 503.01,-302.57"/>
</g>
<!-- Node7 -->
<g id="node7" class="node">
<title>Node7</title>
<g id="a_node7"><a xlink:href="../../d4/daf/Choose__Actions_8h.html" target="_top" xlink:title=" ">
<polygon fill="white" stroke="black" points="351.12,-189.5 351.12,-252.5 497.12,-252.5 497.12,-189.5 351.12,-189.5"/>
<text text-anchor="start" x="359.12" y="-240.5" font-family="Helvetica,sans-Serif" font-size="10.00">/home/nico/projects</text>
<text text-anchor="start" x="359.12" y="-229.5" font-family="Helvetica,sans-Serif" font-size="10.00">/tmp&#45;joda&#45;dirs/JODA</text>
<text text-anchor="start" x="359.12" y="-218.5" font-family="Helvetica,sans-Serif" font-size="10.00">&#45;gh/libs/joda/core/modules</text>
<text text-anchor="start" x="359.12" y="-207.5" font-family="Helvetica,sans-Serif" font-size="10.00">/queryparsing/src/actions</text>
<text text-anchor="middle" x="424.12" y="-196.5" font-family="Helvetica,sans-Serif" font-size="10.00">/Choose_Actions.h</text>
</a>
</g>
</g>
<!-- Node2&#45;&gt;Node7 -->
<g id="edge8" class="edge">
<title>Node2&#45;&gt;Node7</title>
<path fill="none" stroke="midnightblue" d="M527.82,-283.97C510.6,-273.68 492,-262.56 475.38,-252.63"/>
<polygon fill="midnightblue" stroke="midnightblue" points="526.3,-287.14 536.68,-289.26 529.89,-281.13 526.3,-287.14"/>
</g>
<!-- Node8 -->
<g id="node8" class="node">
<title>Node8</title>
<g id="a_node8"><a xlink:href="../../d8/dc3/Delete__Actions_8h.html" target="_top" xlink:title=" ">
<polygon fill="white" stroke="black" points="515.12,-189.5 515.12,-252.5 661.12,-252.5 661.12,-189.5 515.12,-189.5"/>
<text text-anchor="start" x="523.12" y="-240.5" font-family="Helvetica,sans-Serif" font-size="10.00">/home/nico/projects</text>
<text text-anchor="start" x="523.12" y="-229.5" font-family="Helvetica,sans-Serif" font-size="10.00">/tmp&#45;joda&#45;dirs/JODA</text>
<text text-anchor="start" x="523.12" y="-218.5" font-family="Helvetica,sans-Serif" font-size="10.00">&#45;gh/libs/joda/core/modules</text>
<text text-anchor="start" x="523.12" y="-207.5" font-family="Helvetica,sans-Serif" font-size="10.00">/queryparsing/src/actions</text>
<text text-anchor="middle" x="588.12" y="-196.5" font-family="Helvetica,sans-Serif" font-size="10.00">/Delete_Actions.h</text>
</a>
</g>
</g>
<!-- Node2&#45;&gt;Node8 -->
<g id="edge10" class="edge">
<title>Node2&#45;&gt;Node8</title>
<path fill="none" stroke="midnightblue" d="M588.12,-279.1C588.12,-270.24 588.12,-261.01 588.12,-252.63"/>
<polygon fill="midnightblue" stroke="midnightblue" points="584.62,-279.26 588.12,-289.26 591.62,-279.26 584.62,-279.26"/>
</g>
<!-- Node9 -->
<g id="node9" class="node">
<title>Node9</title>
<g id="a_node9"><a xlink:href="../../df/d48/Load__Actions_8h.html" target="_top" xlink:title=" ">
<polygon fill="white" stroke="black" points="679.12,-189.5 679.12,-252.5 825.12,-252.5 825.12,-189.5 679.12,-189.5"/>
<text text-anchor="start" x="687.12" y="-240.5" font-family="Helvetica,sans-Serif" font-size="10.00">/home/nico/projects</text>
<text text-anchor="start" x="687.12" y="-229.5" font-family="Helvetica,sans-Serif" font-size="10.00">/tmp&#45;joda&#45;dirs/JODA</text>
<text text-anchor="start" x="687.12" y="-218.5" font-family="Helvetica,sans-Serif" font-size="10.00">&#45;gh/libs/joda/core/modules</text>
<text text-anchor="start" x="687.12" y="-207.5" font-family="Helvetica,sans-Serif" font-size="10.00">/queryparsing/src/actions</text>
<text text-anchor="middle" x="752.12" y="-196.5" font-family="Helvetica,sans-Serif" font-size="10.00">/Load_Actions.h</text>
</a>
</g>
</g>
<!-- Node2&#45;&gt;Node9 -->
<g id="edge12" class="edge">
<title>Node2&#45;&gt;Node9</title>
<path fill="none" stroke="midnightblue" d="M648.42,-283.97C665.64,-273.68 684.24,-262.56 700.86,-252.63"/>
<polygon fill="midnightblue" stroke="midnightblue" points="646.35,-281.13 639.56,-289.26 649.94,-287.14 646.35,-281.13"/>
</g>
<!-- Node10 -->
<g id="node10" class="node">
<title>Node10</title>
<g id="a_node10"><a xlink:href="../../d2/d4b/Store__Actions_8h.html" target="_top" xlink:title=" ">
<polygon fill="white" stroke="black" points="843.12,-189.5 843.12,-252.5 989.12,-252.5 989.12,-189.5 843.12,-189.5"/>
<text text-anchor="start" x="851.12" y="-240.5" font-family="Helvetica,sans-Serif" font-size="10.00">/home/nico/projects</text>
<text text-anchor="start" x="851.12" y="-229.5" font-family="Helvetica,sans-Serif" font-size="10.00">/tmp&#45;joda&#45;dirs/JODA</text>
<text text-anchor="start" x="851.12" y="-218.5" font-family="Helvetica,sans-Serif" font-size="10.00">&#45;gh/libs/joda/core/modules</text>
<text text-anchor="start" x="851.12" y="-207.5" font-family="Helvetica,sans-Serif" font-size="10.00">/queryparsing/src/actions</text>
<text text-anchor="middle" x="916.12" y="-196.5" font-family="Helvetica,sans-Serif" font-size="10.00">/Store_Actions.h</text>
</a>
</g>
</g>
<!-- Node2&#45;&gt;Node10 -->
<g id="edge14" class="edge">
<title>Node2&#45;&gt;Node10</title>
<path fill="none" stroke="midnightblue" d="M672.66,-299.11C720.39,-286.78 780.96,-270.25 834.12,-253 837.02,-252.06 839.96,-251.08 842.92,-250.07"/>
<polygon fill="midnightblue" stroke="midnightblue" points="671.49,-295.79 662.67,-301.67 673.23,-302.57 671.49,-295.79"/>
</g>
<!-- Node11 -->
<g id="node11" class="node">
<title>Node11</title>
<g id="a_node11"><a xlink:href="../../d4/d6a/Control_8h.html" target="_top" xlink:title=" ">
<polygon fill="white" stroke="black" points="1007.12,-195 1007.12,-247 1155.12,-247 1155.12,-195 1007.12,-195"/>
<text text-anchor="start" x="1015.12" y="-235" font-family="Helvetica,sans-Serif" font-size="10.00">/home/nico/projects</text>
<text text-anchor="start" x="1015.12" y="-224" font-family="Helvetica,sans-Serif" font-size="10.00">/tmp&#45;joda&#45;dirs/JODA</text>
<text text-anchor="start" x="1015.12" y="-213" font-family="Helvetica,sans-Serif" font-size="10.00">&#45;gh/libs/joda/core/modules</text>
<text text-anchor="middle" x="1081.12" y="-202" font-family="Helvetica,sans-Serif" font-size="10.00">/queryparsing/src/Control.h</text>
</a>
</g>
</g>
<!-- Node2&#45;&gt;Node11 -->
<g id="edge16" class="edge">
<title>Node2&#45;&gt;Node11</title>
<path fill="none" stroke="midnightblue" d="M672.69,-311.08C756.31,-301.12 887.43,-282.41 998.12,-253 1004.51,-251.3 1011.1,-249.3 1017.63,-247.14"/>
<polygon fill="midnightblue" stroke="midnightblue" points="672.26,-307.6 662.73,-312.25 673.07,-314.56 672.26,-307.6"/>
</g>
<!-- Node4 -->
<g id="node4" class="node">
<title>Node4</title>
<g id="a_node4"><a xlink:href="../../d0/d62/QueryParser_8cpp.html" target="_top" xlink:title=" ">
<polygon fill="white" stroke="black" points="465.12,-0.5 465.12,-52.5 647.12,-52.5 647.12,-0.5 465.12,-0.5"/>
<text text-anchor="start" x="473.12" y="-40.5" font-family="Helvetica,sans-Serif" font-size="10.00">/home/nico/projects</text>
<text text-anchor="start" x="473.12" y="-29.5" font-family="Helvetica,sans-Serif" font-size="10.00">/tmp&#45;joda&#45;dirs/JODA</text>
<text text-anchor="start" x="473.12" y="-18.5" font-family="Helvetica,sans-Serif" font-size="10.00">&#45;gh/libs/joda/core/modules</text>
<text text-anchor="middle" x="556.12" y="-7.5" font-family="Helvetica,sans-Serif" font-size="10.00">/queryparsing/src/QueryParser.cpp</text>
</a>
</g>
</g>
<!-- Node3&#45;&gt;Node4 -->
<g id="edge3" class="edge">
<title>Node3&#45;&gt;Node4</title>
<path fill="none" stroke="midnightblue" d="M527.42,-80.59C532.52,-71.17 537.82,-61.35 542.46,-52.77"/>
<polygon fill="midnightblue" stroke="midnightblue" points="524.31,-78.99 522.63,-89.46 530.46,-82.32 524.31,-78.99"/>
</g>
<!-- Node5&#45;&gt;Node3 -->
<g id="edge5" class="edge">
<title>Node5&#45;&gt;Node3</title>
<path fill="none" stroke="midnightblue" d="M179.02,-188.89C271.29,-162.75 368.28,-144.43 433,-133.48"/>
<polygon fill="midnightblue" stroke="midnightblue" points="177.89,-185.57 169.24,-191.69 179.82,-192.3 177.89,-185.57"/>
</g>
<!-- Node6&#45;&gt;Node3 -->
<g id="edge7" class="edge">
<title>Node6&#45;&gt;Node3</title>
<path fill="none" stroke="midnightblue" d="M342.61,-187.14C371.82,-175.5 404.45,-162.5 432.83,-151.19"/>
<polygon fill="midnightblue" stroke="midnightblue" points="341.26,-183.91 333.26,-190.86 343.85,-190.41 341.26,-183.91"/>
</g>
<!-- Node7&#45;&gt;Node3 -->
<g id="edge9" class="edge">
<title>Node7&#45;&gt;Node3</title>
<path fill="none" stroke="midnightblue" d="M456.42,-181.4C464.41,-171.85 472.86,-161.74 480.49,-152.63"/>
<polygon fill="midnightblue" stroke="midnightblue" points="453.57,-179.35 449.84,-189.26 458.94,-183.84 453.57,-179.35"/>
</g>
<!-- Node8&#45;&gt;Node3 -->
<g id="edge11" class="edge">
<title>Node8&#45;&gt;Node3</title>
<path fill="none" stroke="midnightblue" d="M555.82,-181.4C547.83,-171.85 539.37,-161.74 531.75,-152.63"/>
<polygon fill="midnightblue" stroke="midnightblue" points="553.3,-183.84 562.4,-189.26 558.67,-179.35 553.3,-183.84"/>
</g>
<!-- Node9&#45;&gt;Node3 -->
<g id="edge13" class="edge">
<title>Node9&#45;&gt;Node3</title>
<path fill="none" stroke="midnightblue" d="M669.63,-187.14C640.42,-175.5 607.79,-162.5 579.4,-151.19"/>
<polygon fill="midnightblue" stroke="midnightblue" points="668.39,-190.41 678.98,-190.86 670.98,-183.91 668.39,-190.41"/>
</g>
<!-- Node10&#45;&gt;Node3 -->
<g id="edge15" class="edge">
<title>Node10&#45;&gt;Node3</title>
<path fill="none" stroke="midnightblue" d="M833.22,-188.89C740.95,-162.75 643.96,-144.43 579.24,-133.48"/>
<polygon fill="midnightblue" stroke="midnightblue" points="832.42,-192.3 843,-191.69 834.35,-185.57 832.42,-192.3"/>
</g>
<!-- Node11&#45;&gt;Node4 -->
<g id="edge17" class="edge">
<title>Node11&#45;&gt;Node4</title>
<path fill="none" stroke="midnightblue" d="M1004.53,-191.37C1002.37,-190.57 1000.23,-189.78 998.12,-189 866.31,-140.3 712.09,-84.14 625.08,-52.52"/>
<polygon fill="midnightblue" stroke="midnightblue" points="1003.5,-194.72 1014.09,-194.92 1005.93,-188.16 1003.5,-194.72"/>
</g>
<!-- Node12&#45;&gt;Node11 -->
<g id="edge19" class="edge">
<title>Node12&#45;&gt;Node11</title>
<path fill="none" stroke="midnightblue" d="M979.41,-283.91C999.54,-271.66 1021.57,-258.25 1039.96,-247.05"/>
<polygon fill="midnightblue" stroke="midnightblue" points="977.34,-281.07 970.62,-289.26 980.98,-287.05 977.34,-281.07"/>
</g>
</g>
</svg>
