<?xml version="1.0" encoding="UTF-8" standalone="no"?>
<!DOCTYPE svg PUBLIC "-//W3C//DTD SVG 1.1//EN"
 "http://www.w3.org/Graphics/SVG/1.1/DTD/svg11.dtd">
<!-- Generated by graphviz version 2.43.0 (0)
 -->
<!-- Title: JoinParser::parse Pages: 1 -->
<svg width="297pt" height="116pt"
 viewBox="0.00 0.00 297.00 116.00" xmlns="http://www.w3.org/2000/svg" xmlns:xlink="http://www.w3.org/1999/xlink">
<g id="graph0" class="graph" transform="scale(1 1) rotate(0) translate(4 112)">
<title>JoinParser::parse</title>
<polygon fill="white" stroke="transparent" points="-4,4 -4,-112 293,-112 293,4 -4,4"/>
<!-- Node1 -->
<g id="node1" class="node">
<title>Node1</title>
<g id="a_node1"><a xlink:title=" ">
<polygon fill="#bfbfbf" stroke="black" points="0,-44.5 0,-63.5 98,-63.5 98,-44.5 0,-44.5"/>
<text text-anchor="middle" x="49" y="-51.5" font-family="Helvetica,sans-Serif" font-size="10.00">JoinParser::parse</text>
</a>
</g>
</g>
<!-- Node2 -->
<g id="node2" class="node">
<title>Node2</title>
<g id="a_node2"><a xlink:href="../../db/de7/classFileJoinManager.html#a6b5420c569e92016dcbfcf04932e4d30" target="_top" xlink:title=" ">
<polygon fill="white" stroke="black" points="134,-88.5 134,-107.5 289,-107.5 289,-88.5 134,-88.5"/>
<text text-anchor="middle" x="211.5" y="-95.5" font-family="Helvetica,sans-Serif" font-size="10.00">FileJoinManager::getBaseDir</text>
</a>
</g>
</g>
<!-- Node1&#45;&gt;Node2 -->
<g id="edge1" class="edge">
<title>Node1&#45;&gt;Node2</title>
<path fill="none" stroke="midnightblue" d="M81.02,-63.6C96.83,-68.4 116.39,-74.19 134,-79 142.63,-81.36 151.85,-83.75 160.78,-86"/>
<polygon fill="midnightblue" stroke="midnightblue" points="160.16,-89.45 170.71,-88.48 161.85,-82.66 160.16,-89.45"/>
</g>
<!-- Node3 -->
<g id="node3" class="node">
<title>Node3</title>
<g id="a_node3"><a xlink:href="../../d8/d9a/classjoda_1_1filesystem_1_1DirectoryFileScanner.html#aace017254d35bc695ff5f8f441bdf759" target="_top" xlink:title=" ">
<polygon fill="white" stroke="black" points="138.5,-39 138.5,-69 284.5,-69 284.5,-39 138.5,-39"/>
<text text-anchor="start" x="146.5" y="-57" font-family="Helvetica,sans-Serif" font-size="10.00">joda::filesystem::Directory</text>
<text text-anchor="middle" x="211.5" y="-46" font-family="Helvetica,sans-Serif" font-size="10.00">FileScanner::getFilesInDir</text>
</a>
</g>
</g>
<!-- Node1&#45;&gt;Node3 -->
<g id="edge2" class="edge">
<title>Node1&#45;&gt;Node3</title>
<path fill="none" stroke="midnightblue" d="M98.16,-54C107.64,-54 117.85,-54 128.1,-54"/>
<polygon fill="midnightblue" stroke="midnightblue" points="128.34,-57.5 138.34,-54 128.34,-50.5 128.34,-57.5"/>
</g>
<!-- Node4 -->
<g id="node4" class="node">
<title>Node4</title>
<g id="a_node4"><a xlink:href="../../d0/d3a/classJoinManager.html#a04430b335027df7bb5cf5f41e880cbf2" target="_top" xlink:title=" ">
<polygon fill="white" stroke="black" points="147.5,-0.5 147.5,-19.5 275.5,-19.5 275.5,-0.5 147.5,-0.5"/>
<text text-anchor="middle" x="211.5" y="-7.5" font-family="Helvetica,sans-Serif" font-size="10.00">JoinManager::getName</text>
</a>
</g>
</g>
<!-- Node1&#45;&gt;Node4 -->
<g id="edge3" class="edge">
<title>Node1&#45;&gt;Node4</title>
<path fill="none" stroke="midnightblue" d="M82.66,-44.48C98.19,-40 117.03,-34.64 134,-30 143.43,-27.42 153.54,-24.73 163.22,-22.18"/>
<polygon fill="midnightblue" stroke="midnightblue" points="164.31,-25.51 173.1,-19.6 162.54,-18.74 164.31,-25.51"/>
</g>
</g>
</svg>
