<?xml version="1.0" encoding="UTF-8" standalone="no"?>
<!DOCTYPE svg PUBLIC "-//W3C//DTD SVG 1.1//EN"
 "http://www.w3.org/Graphics/SVG/1.1/DTD/svg11.dtd">
<!-- Generated by graphviz version 2.43.0 (0)
 -->
<!-- Title: VirtualObjectTest::stringify Pages: 1 -->
<svg width="430pt" height="39pt"
 viewBox="0.00 0.00 430.00 39.00" xmlns="http://www.w3.org/2000/svg" xmlns:xlink="http://www.w3.org/1999/xlink">
<g id="graph0" class="graph" transform="scale(1 1) rotate(0) translate(4 35)">
<title>VirtualObjectTest::stringify</title>
<polygon fill="white" stroke="transparent" points="-4,4 -4,-35 426,-35 426,4 -4,4"/>
<!-- Node1 -->
<g id="node1" class="node">
<title>Node1</title>
<g id="a_node1"><a xlink:title=" ">
<polygon fill="#bfbfbf" stroke="black" points="0,-0.5 0,-30.5 106,-30.5 106,-0.5 0,-0.5"/>
<text text-anchor="start" x="8" y="-18.5" font-family="Helvetica,sans-Serif" font-size="10.00">VirtualObjectTest::</text>
<text text-anchor="middle" x="53" y="-7.5" font-family="Helvetica,sans-Serif" font-size="10.00">stringify</text>
</a>
</g>
</g>
<!-- Node2 -->
<g id="node2" class="node">
<title>Node2</title>
<g id="a_node2"><a xlink:href="../../dd/d47/classVirtualObject.html#a8c4cf7087469a25a23489de6be5b2be7" target="_top" xlink:title=" ">
<polygon fill="white" stroke="black" points="142,-6 142,-25 261,-25 261,-6 142,-6"/>
<text text-anchor="middle" x="201.5" y="-13" font-family="Helvetica,sans-Serif" font-size="10.00">VirtualObject::Accept</text>
</a>
</g>
</g>
<!-- Node1&#45;&gt;Node2 -->
<g id="edge1" class="edge">
<title>Node1&#45;&gt;Node2</title>
<path fill="none" stroke="midnightblue" d="M106.06,-15.5C114.4,-15.5 123.13,-15.5 131.78,-15.5"/>
<polygon fill="midnightblue" stroke="midnightblue" points="131.87,-19 141.87,-15.5 131.87,-12 131.87,-19"/>
</g>
<!-- Node3 -->
<g id="node3" class="node">
<title>Node3</title>
<g id="a_node3"><a xlink:href="../../dd/d47/classViewStructure.html#a48f6a6870f1c1308ad6af54fc5b55d8b" target="_top" xlink:title=" ">
<polygon fill="white" stroke="black" points="297,-6 297,-25 422,-25 422,-6 297,-6"/>
<text text-anchor="middle" x="359.5" y="-13" font-family="Helvetica,sans-Serif" font-size="10.00">ViewStructure::getKey</text>
</a>
</g>
</g>
<!-- Node2&#45;&gt;Node3 -->
<g id="edge2" class="edge">
<title>Node2&#45;&gt;Node3</title>
<path fill="none" stroke="midnightblue" d="M261.03,-15.5C269.42,-15.5 278.13,-15.5 286.74,-15.5"/>
<polygon fill="midnightblue" stroke="midnightblue" points="286.77,-19 296.77,-15.5 286.77,-12 286.77,-19"/>
</g>
</g>
</svg>
