<?xml version="1.0" encoding="UTF-8" standalone="no"?>
<!DOCTYPE svg PUBLIC "-//W3C//DTD SVG 1.1//EN"
 "http://www.w3.org/Graphics/SVG/1.1/DTD/svg11.dtd">
<!-- Generated by graphviz version 2.43.0 (0)
 -->
<!-- Title: JODA_SHARED_QUEUE::isFinished Pages: 1 -->
<!--zoomable 163 -->
<svg id="main" version="1.1" xmlns="http://www.w3.org/2000/svg" xmlns:xlink="http://www.w3.org/1999/xlink" xml:space="preserve" onload="init(evt)">
<style type="text/css"><![CDATA[
.edge:hover path { stroke: red; }
.edge:hover polygon { stroke: red; fill: red; }
]]></style>
<script type="text/javascript"><![CDATA[
var edges = document.getElementsByTagName('g');
if (edges && edges.length) {
  for (var i=0;i<edges.length;i++) {
    if (edges[i].id.substr(0,4)=='edge') {
      edges[i].setAttribute('class','edge');
    }
  }
}
]]></script>
        <defs>
                <circle id="rim" cx="0" cy="0" r="7"/>
                <circle id="rim2" cx="0" cy="0" r="3.5"/>
                <g id="zoomPlus">
                        <use xlink:href="#rim" fill="#404040">
                                <set attributeName="fill" to="#808080" begin="zoomplus.mouseover" end="zoomplus.mouseout"/>
                        </use>
                        <path d="M-4,0h8M0,-4v8" fill="none" stroke="white" stroke-width="1.5" pointer-events="none"/>
                </g>
                <g id="zoomMin">
                        <use xlink:href="#rim" fill="#404040">
                                <set attributeName="fill" to="#808080" begin="zoomminus.mouseover" end="zoomminus.mouseout"/>
                        </use>
                        <path d="M-4,0h8" fill="none" stroke="white" stroke-width="1.5" pointer-events="none"/>
                </g>
                <g id="dirArrow">
                        <path fill="none" stroke="white" stroke-width="1.5" d="M0,-3.0v7 M-2.5,-0.5L0,-3.0L2.5,-0.5"/>
                </g>
               <g id="resetDef">
                       <use xlink:href="#rim2" fill="#404040">
                               <set attributeName="fill" to="#808080" begin="reset.mouseover" end="reset.mouseout"/>
                       </use>
               </g>
        </defs>

<script type="text/javascript">
var viewWidth = 1047;
var viewHeight = 163;
var sectionId = 'dynsection-1';
</script>
<script xlink:href="../../svgpan.js"/>
<svg id="graph" class="graph">
<g id="viewport">
<title>JODA_SHARED_QUEUE::isFinished</title>
<polygon fill="white" stroke="transparent" points="-4,4 -4,-159 1043,-159 1043,4 -4,4"/>
<!-- Node1 -->
<g id="node1" class="node">
<title>Node1</title>
<g id="a_node1"><a xlink:title=" ">
<polygon fill="#bfbfbf" stroke="black" points="906,-41.5 906,-71.5 1039,-71.5 1039,-41.5 906,-41.5"/>
<text text-anchor="start" x="914" y="-59.5" font-family="Helvetica,sans-Serif" font-size="10.00">JODA_SHARED_QUEUE::</text>
<text text-anchor="middle" x="972.5" y="-48.5" font-family="Helvetica,sans-Serif" font-size="10.00">isFinished</text>
</a>
</g>
</g>
<!-- Node2 -->
<g id="node2" class="node">
<title>Node2</title>
<g id="a_node2"><a xlink:href="../../dc/de9/classQueryPlan.html#aa16031eccff01572dec59f8fb8cef83a" target="_top" xlink:title=" ">
<polygon fill="white" stroke="black" points="556.5,-59 556.5,-78 678.5,-78 678.5,-59 556.5,-59"/>
<text text-anchor="middle" x="617.5" y="-66" font-family="Helvetica,sans-Serif" font-size="10.00">QueryPlan::aggregate</text>
</a>
</g>
</g>
<!-- Node1&#45;&gt;Node2 -->
<g id="edge1" class="edge">
<title>Node1&#45;&gt;Node2</title>
<path fill="none" stroke="midnightblue" d="M895.81,-54.02C887.11,-53.8 878.36,-53.62 870,-53.5 810.9,-52.63 795.99,-49.78 737,-53.5 717.96,-54.7 697.3,-56.98 678.64,-59.4"/>
<polygon fill="midnightblue" stroke="midnightblue" points="895.9,-57.52 905.99,-54.28 896.08,-50.52 895.9,-57.52"/>
</g>
<!-- Node7 -->
<g id="node7" class="node">
<title>Node7</title>
<g id="a_node7"><a xlink:href="../../d9/d71/classIExportDestination.html#a06dd38ef162a1e1ad7d05a27ad474c10" target="_top" xlink:title=" ">
<polygon fill="white" stroke="black" points="560.5,-0.5 560.5,-30.5 674.5,-30.5 674.5,-0.5 560.5,-0.5"/>
<text text-anchor="start" x="568.5" y="-18.5" font-family="Helvetica,sans-Serif" font-size="10.00">IExportDestination</text>
<text text-anchor="middle" x="617.5" y="-7.5" font-family="Helvetica,sans-Serif" font-size="10.00">::consumeContainer</text>
</a>
</g>
</g>
<!-- Node1&#45;&gt;Node7 -->
<g id="edge6" class="edge">
<title>Node1&#45;&gt;Node7</title>
<path fill="none" stroke="midnightblue" d="M895.95,-47.72C829.59,-40.02 734.54,-28.98 674.7,-22.03"/>
<polygon fill="midnightblue" stroke="midnightblue" points="895.59,-51.21 905.93,-48.88 896.4,-44.25 895.59,-51.21"/>
</g>
<!-- Node9 -->
<g id="node9" class="node">
<title>Node9</title>
<g id="a_node9"><a xlink:href="../../d2/dcc/classJSONStorage.html#a21a6cf9c042c26be09da293387871cb0" target="_top" xlink:title=" ">
<polygon fill="white" stroke="black" points="534,-97.5 534,-127.5 701,-127.5 701,-97.5 534,-97.5"/>
<text text-anchor="start" x="542" y="-115.5" font-family="Helvetica,sans-Serif" font-size="10.00">JSONStorage::insertDocuments</text>
<text text-anchor="middle" x="617.5" y="-104.5" font-family="Helvetica,sans-Serif" font-size="10.00">Queue</text>
</a>
</g>
</g>
<!-- Node1&#45;&gt;Node9 -->
<g id="edge8" class="edge">
<title>Node1&#45;&gt;Node9</title>
<path fill="none" stroke="midnightblue" d="M937.33,-76.49C918.21,-86.59 893.53,-97.87 870,-103.5 814.76,-116.71 750.77,-118.82 701.16,-117.71"/>
<polygon fill="midnightblue" stroke="midnightblue" points="939.12,-79.5 946.25,-71.65 935.79,-73.34 939.12,-79.5"/>
</g>
<!-- Node11 -->
<g id="node11" class="node">
<title>Node11</title>
<g id="a_node11"><a xlink:href="../../d1/d30/structJODA__SHARED__QUEUE.html#a85346f08f256c2b939e9fef99004d2cf" target="_top" xlink:title=" ">
<polygon fill="white" stroke="black" points="737,-63.5 737,-93.5 870,-93.5 870,-63.5 737,-63.5"/>
<text text-anchor="start" x="745" y="-81.5" font-family="Helvetica,sans-Serif" font-size="10.00">JODA_SHARED_QUEUE::</text>
<text text-anchor="middle" x="803.5" y="-70.5" font-family="Helvetica,sans-Serif" font-size="10.00">retrieve</text>
</a>
</g>
</g>
<!-- Node1&#45;&gt;Node11 -->
<g id="edge11" class="edge">
<title>Node1&#45;&gt;Node11</title>
<path fill="none" stroke="midnightblue" d="M895.93,-66.45C887.32,-67.59 878.58,-68.74 870.11,-69.86"/>
<polygon fill="midnightblue" stroke="midnightblue" points="896.52,-69.91 905.98,-65.13 895.6,-62.97 896.52,-69.91"/>
</g>
<!-- Node3 -->
<g id="node3" class="node">
<title>Node3</title>
<g id="a_node3"><a xlink:href="../../dc/de9/classQueryPlan.html#ac5a086945e484f07e422bca233cce06b" target="_top" xlink:title=" ">
<polygon fill="white" stroke="black" points="185,-81 185,-100 325,-100 325,-81 185,-81"/>
<text text-anchor="middle" x="255" y="-88" font-family="Helvetica,sans-Serif" font-size="10.00">QueryPlan::executeQuery</text>
</a>
</g>
</g>
<!-- Node2&#45;&gt;Node3 -->
<g id="edge2" class="edge">
<title>Node2&#45;&gt;Node3</title>
<path fill="none" stroke="midnightblue" d="M546.18,-72.79C482.31,-76.69 388.67,-82.4 325.17,-86.28"/>
<polygon fill="midnightblue" stroke="midnightblue" points="546.39,-76.29 556.16,-72.18 545.97,-69.3 546.39,-76.29"/>
</g>
<!-- Node4 -->
<g id="node4" class="node">
<title>Node4</title>
<g id="a_node4"><a xlink:href="../../d5/de2/classjoda_1_1cli_1_1CLI.html#a5f1d2148a798cefa6391ae1f6b1142ba" target="_top" xlink:title=" ">
<polygon fill="white" stroke="black" points="6,-124.5 6,-154.5 143,-154.5 143,-124.5 6,-124.5"/>
<text text-anchor="start" x="14" y="-142.5" font-family="Helvetica,sans-Serif" font-size="10.00">joda::cli::CLI::benchmark</text>
<text text-anchor="middle" x="74.5" y="-131.5" font-family="Helvetica,sans-Serif" font-size="10.00">Query</text>
</a>
</g>
</g>
<!-- Node3&#45;&gt;Node4 -->
<g id="edge3" class="edge">
<title>Node3&#45;&gt;Node4</title>
<path fill="none" stroke="midnightblue" d="M209.27,-102.78C185.32,-109.35 155.61,-117.51 130.28,-124.46"/>
<polygon fill="midnightblue" stroke="midnightblue" points="210.44,-106.09 219.16,-100.06 208.59,-99.34 210.44,-106.09"/>
</g>
<!-- Node5 -->
<g id="node5" class="node">
<title>Node5</title>
<g id="a_node5"><a xlink:href="../../d5/de2/classjoda_1_1cli_1_1CLI.html#a3d27f72079d6aee39307eaa0edfe6e89" target="_top" xlink:title=" ">
<polygon fill="white" stroke="black" points="4.5,-75.5 4.5,-105.5 144.5,-105.5 144.5,-75.5 4.5,-75.5"/>
<text text-anchor="start" x="12.5" y="-93.5" font-family="Helvetica,sans-Serif" font-size="10.00">joda::cli::CLI::executeNon</text>
<text text-anchor="middle" x="74.5" y="-82.5" font-family="Helvetica,sans-Serif" font-size="10.00">InteractiveQuery</text>
</a>
</g>
</g>
<!-- Node3&#45;&gt;Node5 -->
<g id="edge4" class="edge">
<title>Node3&#45;&gt;Node5</title>
<path fill="none" stroke="midnightblue" d="M174.96,-90.5C164.85,-90.5 154.56,-90.5 144.62,-90.5"/>
<polygon fill="midnightblue" stroke="midnightblue" points="174.99,-94 184.99,-90.5 174.99,-87 174.99,-94"/>
</g>
<!-- Node6 -->
<g id="node6" class="node">
<title>Node6</title>
<g id="a_node6"><a xlink:href="../../d5/de2/classjoda_1_1cli_1_1CLI.html#a0b942c696bdd7631f911b4014e549685" target="_top" xlink:title=" ">
<polygon fill="white" stroke="black" points="0,-37 0,-56 149,-56 149,-37 0,-37"/>
<text text-anchor="middle" x="74.5" y="-44" font-family="Helvetica,sans-Serif" font-size="10.00">joda::cli::CLI::executeQuery</text>
</a>
</g>
</g>
<!-- Node3&#45;&gt;Node6 -->
<g id="edge5" class="edge">
<title>Node3&#45;&gt;Node6</title>
<path fill="none" stroke="midnightblue" d="M205.44,-78.53C176.75,-71.46 140.92,-62.63 114.16,-56.03"/>
<polygon fill="midnightblue" stroke="midnightblue" points="204.72,-81.96 215.27,-80.95 206.4,-75.16 204.72,-81.96"/>
</g>
<!-- Node8 -->
<g id="node8" class="node">
<title>Node8</title>
<g id="a_node8"><a xlink:href="../../d9/d71/classIExportDestination.html#a9376079c654ceef8e4c1524684b2e85a" target="_top" xlink:title=" ">
<polygon fill="white" stroke="black" points="376,-0.5 376,-30.5 483,-30.5 483,-0.5 376,-0.5"/>
<text text-anchor="start" x="384" y="-18.5" font-family="Helvetica,sans-Serif" font-size="10.00">IExportDestination</text>
<text text-anchor="middle" x="429.5" y="-7.5" font-family="Helvetica,sans-Serif" font-size="10.00">::consume</text>
</a>
</g>
</g>
<!-- Node7&#45;&gt;Node8 -->
<g id="edge7" class="edge">
<title>Node7&#45;&gt;Node8</title>
<path fill="none" stroke="midnightblue" d="M550.19,-15.5C528.22,-15.5 504.07,-15.5 483.26,-15.5"/>
<polygon fill="midnightblue" stroke="midnightblue" points="550.44,-19 560.44,-15.5 550.44,-12 550.44,-19"/>
</g>
<!-- Node10 -->
<g id="node10" class="node">
<title>Node10</title>
<g id="a_node10"><a xlink:href="../../d8/d55/classjoda_1_1docparsing_1_1ReaderParser.html#af811423a643fc416776da0a311cc013d" target="_top" xlink:title=" ">
<polygon fill="white" stroke="black" points="361,-97.5 361,-127.5 498,-127.5 498,-97.5 361,-97.5"/>
<text text-anchor="start" x="369" y="-115.5" font-family="Helvetica,sans-Serif" font-size="10.00">joda::docparsing::Reader</text>
<text text-anchor="middle" x="429.5" y="-104.5" font-family="Helvetica,sans-Serif" font-size="10.00">Parser::parse</text>
</a>
</g>
</g>
<!-- Node9&#45;&gt;Node10 -->
<g id="edge9" class="edge">
<title>Node9&#45;&gt;Node10</title>
<path fill="none" stroke="midnightblue" d="M523.73,-112.5C515.1,-112.5 506.48,-112.5 498.14,-112.5"/>
<polygon fill="midnightblue" stroke="midnightblue" points="523.83,-116 533.83,-112.5 523.83,-109 523.83,-116"/>
</g>
<!-- Node10&#45;&gt;Node3 -->
<g id="edge10" class="edge">
<title>Node10&#45;&gt;Node3</title>
<path fill="none" stroke="midnightblue" d="M350.85,-102.6C342.3,-101.51 333.63,-100.4 325.19,-99.32"/>
<polygon fill="midnightblue" stroke="midnightblue" points="350.46,-106.07 360.82,-103.87 351.34,-99.13 350.46,-106.07"/>
</g>
<!-- Node11&#45;&gt;Node2 -->
<g id="edge12" class="edge">
<title>Node11&#45;&gt;Node2</title>
<path fill="none" stroke="midnightblue" d="M726.48,-74.37C710.51,-73.5 693.89,-72.6 678.6,-71.77"/>
<polygon fill="midnightblue" stroke="midnightblue" points="726.68,-77.88 736.85,-74.93 727.06,-70.89 726.68,-77.88"/>
</g>
<!-- Node11&#45;&gt;Node7 -->
<g id="edge13" class="edge">
<title>Node11&#45;&gt;Node7</title>
<path fill="none" stroke="midnightblue" d="M748.61,-60.05C721.23,-50.67 688.37,-39.42 662.53,-30.58"/>
<polygon fill="midnightblue" stroke="midnightblue" points="747.83,-63.48 758.43,-63.41 750.1,-56.86 747.83,-63.48"/>
</g>
<!-- Node11&#45;&gt;Node9 -->
<g id="edge14" class="edge">
<title>Node11&#45;&gt;Node9</title>
<path fill="none" stroke="midnightblue" d="M726.9,-92.47C718,-94.11 708.88,-95.8 699.89,-97.46"/>
<polygon fill="midnightblue" stroke="midnightblue" points="727.65,-95.89 736.85,-90.63 726.38,-89.01 727.65,-95.89"/>
</g>
</g>
</svg>
        <g id="navigator" transform="translate(0 0)" fill="#404254">
                <rect fill="#f2f5e9" fill-opacity="0.5" stroke="#606060" stroke-width=".5" x="0" y="0" width="60" height="60"/>
                <use id="zoomplus" xlink:href="#zoomPlus" x="17" y="9" onmousedown="handleZoom(evt,'in')"/>
                <use id="zoomminus" xlink:href="#zoomMin" x="42" y="9" onmousedown="handleZoom(evt,'out')"/>
                <use id="reset" xlink:href="#resetDef" x="30" y="36" onmousedown="handleReset()"/>
                <g id="arrowUp" xlink:href="#dirArrow" transform="translate(30 24)" onmousedown="handlePan(0,-1)">
                  <use xlink:href="#rim" fill="#404040">
                        <set attributeName="fill" to="#808080" begin="arrowUp.mouseover" end="arrowUp.mouseout"/>
                  </use>
                  <path fill="none" stroke="white" stroke-width="1.5" d="M0,-3.0v7 M-2.5,-0.5L0,-3.0L2.5,-0.5"/>
                </g>
                <g id="arrowRight" xlink:href="#dirArrow" transform="rotate(90) translate(36 -43)" onmousedown="handlePan(1,0)">
                  <use xlink:href="#rim" fill="#404040">
                        <set attributeName="fill" to="#808080" begin="arrowRight.mouseover" end="arrowRight.mouseout"/>
                  </use>
                  <path fill="none" stroke="white" stroke-width="1.5" d="M0,-3.0v7 M-2.5,-0.5L0,-3.0L2.5,-0.5"/>
                </g>
                <g id="arrowDown" xlink:href="#dirArrow" transform="rotate(180) translate(-30 -48)" onmousedown="handlePan(0,1)">
                  <use xlink:href="#rim" fill="#404040">
                        <set attributeName="fill" to="#808080" begin="arrowDown.mouseover" end="arrowDown.mouseout"/>
                  </use>
                  <path fill="none" stroke="white" stroke-width="1.5" d="M0,-3.0v7 M-2.5,-0.5L0,-3.0L2.5,-0.5"/>
                </g>
                <g id="arrowLeft" xlink:href="#dirArrow" transform="rotate(270) translate(-36 17)" onmousedown="handlePan(-1,0)">
                  <use xlink:href="#rim" fill="#404040">
                        <set attributeName="fill" to="#808080" begin="arrowLeft.mouseover" end="arrowLeft.mouseout"/>
                  </use>
                  <path fill="none" stroke="white" stroke-width="1.5" d="M0,-3.0v7 M-2.5,-0.5L0,-3.0L2.5,-0.5"/>
                </g>
        </g>
        <svg viewBox="0 0 15 15" width="100%" height="30px" preserveAspectRatio="xMaxYMin meet">
         <g id="arrow_out" transform="scale(0.3 0.3)">
          <a xlink:href="structJODA__SHARED__QUEUE_aa46e31bf2003b52b17f54522a8ec2e1c_icgraph_org.svg" target="_base">
           <rect id="button" ry="5" rx="5" y="6" x="6" height="38" width="38"
                fill="#f2f5e9" fill-opacity="0.5" stroke="#606060" stroke-width="1.0"/>
           <path id="arrow"
             d="M 11.500037,31.436501 C 11.940474,20.09759 22.043105,11.32322 32.158766,21.979434 L 37.068811,17.246167 C 37.068811,17.246167 37.088388,32 37.088388,32 L 22.160133,31.978069 C 22.160133,31.978069 26.997745,27.140456 26.997745,27.140456 C 18.528582,18.264221 13.291696,25.230495 11.500037,31.436501 z"
             style="fill:#404040;"/>
          </a>
         </g>
        </svg>
</svg>
