<?xml version="1.0" encoding="UTF-8" standalone="no"?>
<!DOCTYPE svg PUBLIC "-//W3C//DTD SVG 1.1//EN"
 "http://www.w3.org/Graphics/SVG/1.1/DTD/svg11.dtd">
<!-- Generated by graphviz version 2.43.0 (0)
 -->
<!-- Title: JODA_SHARED_QUEUE::registerProducer Pages: 1 -->
<svg width="332pt" height="78pt"
 viewBox="0.00 0.00 332.00 77.50" xmlns="http://www.w3.org/2000/svg" xmlns:xlink="http://www.w3.org/1999/xlink">
<g id="graph0" class="graph" transform="scale(1 1) rotate(0) translate(4 73.5)">
<title>JODA_SHARED_QUEUE::registerProducer</title>
<polygon fill="white" stroke="transparent" points="-4,4 -4,-73.5 328,-73.5 328,4 -4,4"/>
<!-- Node1 -->
<g id="node1" class="node">
<title>Node1</title>
<g id="a_node1"><a xlink:title=" ">
<polygon fill="#bfbfbf" stroke="black" points="191,-17 191,-47 324,-47 324,-17 191,-17"/>
<text text-anchor="start" x="199" y="-35" font-family="Helvetica,sans-Serif" font-size="10.00">JODA_SHARED_QUEUE::</text>
<text text-anchor="middle" x="257.5" y="-24" font-family="Helvetica,sans-Serif" font-size="10.00">registerProducer</text>
</a>
</g>
</g>
<!-- Node2 -->
<g id="node2" class="node">
<title>Node2</title>
<g id="a_node2"><a xlink:href="../../d2/dcc/classJSONStorage.html#a73a6fb483face9ab48c3df60975685c6" target="_top" xlink:title=" ">
<polygon fill="white" stroke="black" points="0,-39 0,-69 155,-69 155,-39 0,-39"/>
<text text-anchor="start" x="8" y="-57" font-family="Helvetica,sans-Serif" font-size="10.00">JSONStorage::getDocuments</text>
<text text-anchor="middle" x="77.5" y="-46" font-family="Helvetica,sans-Serif" font-size="10.00">Queue</text>
</a>
</g>
</g>
<!-- Node1&#45;&gt;Node2 -->
<g id="edge1" class="edge">
<title>Node1&#45;&gt;Node2</title>
<path fill="none" stroke="midnightblue" d="M180.99,-41.33C172.4,-42.39 163.63,-43.48 155.03,-44.54"/>
<polygon fill="midnightblue" stroke="midnightblue" points="181.48,-44.8 190.98,-40.1 180.62,-37.85 181.48,-44.8"/>
</g>
<!-- Node3 -->
<g id="node3" class="node">
<title>Node3</title>
<g id="a_node3"><a xlink:href="../../da/dcb/classQueryThread.html#aa7eb545df5bdfe587f22d7a0f878870e" target="_top" xlink:title=" ">
<polygon fill="white" stroke="black" points="3,-0.5 3,-19.5 152,-19.5 152,-0.5 3,-0.5"/>
<text text-anchor="middle" x="77.5" y="-7.5" font-family="Helvetica,sans-Serif" font-size="10.00">QueryThread::QueryThread</text>
</a>
</g>
</g>
<!-- Node1&#45;&gt;Node3 -->
<g id="edge2" class="edge">
<title>Node1&#45;&gt;Node3</title>
<path fill="none" stroke="midnightblue" d="M180.82,-22.65C171.37,-21.48 161.72,-20.29 152.29,-19.12"/>
<polygon fill="midnightblue" stroke="midnightblue" points="180.62,-26.15 190.98,-23.9 181.48,-19.2 180.62,-26.15"/>
</g>
</g>
</svg>
