<?xml version="1.0" encoding="UTF-8" standalone="no"?>
<!DOCTYPE svg PUBLIC "-//W3C//DTD SVG 1.1//EN"
 "http://www.w3.org/Graphics/SVG/1.1/DTD/svg11.dtd">
<!-- Generated by graphviz version 2.43.0 (0)
 -->
<!-- Title: joda::queryparsing::grammar::aggFrom Pages: 1 -->
<svg width="357pt" height="105pt"
 viewBox="0.00 0.00 357.00 105.00" xmlns="http://www.w3.org/2000/svg" xmlns:xlink="http://www.w3.org/1999/xlink">
<g id="graph0" class="graph" transform="scale(1 1) rotate(0) translate(4 101)">
<title>joda::queryparsing::grammar::aggFrom</title>
<polygon fill="white" stroke="transparent" points="-4,4 -4,-101 353,-101 353,4 -4,4"/>
<!-- Node1 -->
<g id="node1" class="node">
<title>Node1</title>
<g id="a_node1"><a xlink:title=" ">
<polygon fill="#bfbfbf" stroke="black" points="233,-33.5 233,-63.5 349,-63.5 349,-33.5 233,-33.5"/>
<text text-anchor="start" x="241" y="-51.5" font-family="Helvetica,sans-Serif" font-size="10.00">joda::queryparsing</text>
<text text-anchor="middle" x="291" y="-40.5" font-family="Helvetica,sans-Serif" font-size="10.00">::grammar::aggFrom</text>
</a>
</g>
</g>
<!-- Node2 -->
<g id="node2" class="node">
<title>Node2</title>
<g id="a_node2"><a xlink:title=" ">
<polygon fill="white" stroke="#bfbfbf" points="0,-0.5 0,-96.5 197,-96.5 197,-0.5 0,-0.5"/>
<text text-anchor="start" x="8" y="-84.5" font-family="Helvetica,sans-Serif" font-size="10.00">tao::pegtl::seq&lt; aggKeywords,</text>
<text text-anchor="start" x="8" y="-73.5" font-family="Helvetica,sans-Serif" font-size="10.00"> tao::pegtl::pad&lt; tao::pegtl</text>
<text text-anchor="start" x="8" y="-62.5" font-family="Helvetica,sans-Serif" font-size="10.00">::one&lt;&#39;(&#39;&gt;, tao::pegtl::space</text>
<text text-anchor="start" x="8" y="-51.5" font-family="Helvetica,sans-Serif" font-size="10.00"> &gt;, tao::pegtl::opt&lt; tao::pegtl</text>
<text text-anchor="start" x="8" y="-40.5" font-family="Helvetica,sans-Serif" font-size="10.00">::list&lt; functionstateaction, tao</text>
<text text-anchor="start" x="8" y="-29.5" font-family="Helvetica,sans-Serif" font-size="10.00">::pegtl::one&lt;&#39;,&#39;&gt;, tao::pegtl::space</text>
<text text-anchor="start" x="8" y="-18.5" font-family="Helvetica,sans-Serif" font-size="10.00"> &gt; &gt;, tao::pegtl::pad&lt; tao::pegtl::one</text>
<text text-anchor="middle" x="98.5" y="-7.5" font-family="Helvetica,sans-Serif" font-size="10.00">&lt;&#39;)&#39;&gt;, tao::pegtl::space &gt; &gt;</text>
</a>
</g>
</g>
<!-- Node2&#45;&gt;Node1 -->
<g id="edge1" class="edge">
<title>Node2&#45;&gt;Node1</title>
<path fill="none" stroke="midnightblue" d="M207.48,-48.5C216.15,-48.5 224.67,-48.5 232.76,-48.5"/>
<polygon fill="midnightblue" stroke="midnightblue" points="207.26,-45 197.26,-48.5 207.26,-52 207.26,-45"/>
</g>
</g>
</svg>
